# This file uses centimeters as units for non-parametric coordinates.

v 15.198980 14.998357 -0.000000
v 6.603649 18.801626 0.000000
v -1.232377 14.678372 -0.000000
v 17.988701 7.483740 -0.000000
v 14.387371 13.891483 4.000000
v 6.114373 17.249258 4.000000
v -0.149364 13.534248 4.143109
v -3.309007 6.102839 3.954302
v -0.618964 -1.045919 3.787314
v 8.010182 -3.809663 3.742140
v 14.147646 -0.431461 3.839979
v 17.035694 7.427042 4.038481
v 12.450613 11.849221 4.134315
v 6.231000 14.325032 4.000000
v 1.636460 11.836617 4.106386
v -0.520476 6.189159 3.963526
v 1.264034 1.446470 3.852741
v 7.800512 -1.043877 3.808870
v 12.256238 1.218547 3.875277
v 14.312632 7.329941 4.029162
v 11.804135 11.451557 2.122401
v 6.141928 13.526259 2.158395
v 1.901432 11.452473 2.097128
v 0.129282 6.380016 1.969236
v 1.734179 1.768752 1.861189
v 7.751584 -0.320432 1.825749
v 11.455144 1.708764 1.884560
v 13.637398 7.185236 2.023327
v -3.987668 8.102257 0.000000
v 17.454605 5.850094 -0.000000
v -4.601075 6.603846 0.000000
v -1.198310 -1.824700 0.000000
v 7.560082 -4.975288 0.000000
v 15.091194 -1.208695 -0.000000
v 14.387371 13.891482 -4.000000
v 6.114372 17.249258 -4.000000
v -0.149363 13.534250 -4.143108
v -3.309009 6.102840 -3.954301
v -0.618963 -1.045919 -3.787314
v 8.010184 -3.809664 -3.742140
v 14.147644 -0.431460 -3.839979
v 17.035690 7.427042 -4.038481
v 12.450613 11.849221 -4.134314
v 6.230999 14.325034 -4.000000
v 1.636460 11.836616 -4.106385
v -0.520476 6.189159 -3.963526
v 1.264034 1.446470 -3.852741
v 7.800512 -1.043877 -3.808871
v 12.256237 1.218546 -3.875276
v 14.312634 7.329940 -4.029163
v 11.804133 11.451558 -2.122401
v 6.141927 13.526259 -2.158395
v 1.901433 11.452473 -2.097128
v 0.129282 6.380015 -1.969236
v 1.734180 1.768752 -1.861190
v 7.751585 -0.320432 -1.825749
v 11.455145 1.708764 -1.884560
v 13.637402 7.185236 -2.023327
v -14.253483 -16.786612 2.000004
v 1.175779 -1.172197 1.999994
v -16.982056 -14.376194 2.000005
v -0.085353 1.233478 1.999995
v -14.418530 -18.489433 0.000000
v -18.460382 -14.428664 0.000000
v -5.984197 -4.357427 1.999998
v -4.539940 -5.716892 1.999998
v 1.861338 -1.228272 0.000000
v -7.209793 -11.243935 0.000000
v -0.986422 1.632820 0.000000
v -8.933249 -5.992065 0.000000
v -6.975373 -4.113507 0.000000
v -3.716846 -7.387283 0.000000
v -14.253483 -17.164057 -2.000004
v 1.175779 -1.172197 -1.999994
v -17.297377 -14.376194 -2.000005
v -0.085353 1.233478 -1.999995
v -5.984197 -4.357427 -1.999998
v -4.110164 -6.336599 -1.999998
vt 0.986138 0.886345
vt 0.986138 0.885682
vt 0.989441 0.885953
vt 0.989394 0.886538
vt 0.986138 0.886401
vt 0.989358 0.886600
vt 0.986138 0.887546
vt 0.986138 0.887807
vt 0.989212 0.887894
vt 0.986138 0.887654
vt 0.989277 0.887664
vt 0.989386 0.886462
vt 0.989352 0.886894
vt 0.989330 0.886896
vt 0.989219 0.887879
vt 0.989082 0.889139
vt 0.989133 0.888705
vt 0.989047 0.889621
vt 0.989099 0.889139
vt 0.989123 0.889032
vt 0.989150 0.888745
vt 0.989270 0.887681
vt 0.987815 0.886601
vt 0.987787 0.886963
vt 0.987768 0.886963
vt 0.987668 0.887846
vt 0.987584 0.888649
vt 0.987557 0.889013
vt 0.987603 0.888660
vt 0.987710 0.887706
vt 0.986138 0.889275
vt 0.986138 0.889824
vt 0.986138 0.889168
vt 0.986138 0.887938
vt 0.982881 0.886538
vt 0.982834 0.885953
vt 0.982917 0.886600
vt 0.983063 0.887894
vt 0.982998 0.887664
vt 0.982924 0.886894
vt 0.982889 0.886462
vt 0.982945 0.886896
vt 0.983056 0.887879
vt 0.983142 0.888705
vt 0.983193 0.889139
vt 0.983176 0.889139
vt 0.983228 0.889621
vt 0.983125 0.888745
vt 0.983152 0.889032
vt 0.457430 0.987918
vt 0.983005 0.887681
vt 0.984488 0.886963
vt 0.984460 0.886601
vt 0.454713 0.988889
vt 0.984507 0.886963
vt 0.984607 0.887846
vt 0.984691 0.888649
vt 0.452677 0.987918
vt 0.984718 0.889013
vt 0.984673 0.888660
vt 0.984565 0.887706
vt 0.458310 0.985920
vt 0.987692 0.889716
vt 0.987692 0.890061
vt 0.987692 0.889161
vt 0.457263 0.983355
vt 0.987692 0.888742
vt 0.986138 0.890244
vt 0.986138 0.889171
vt 0.451827 0.985543
vt 0.987692 0.892059
vt 0.987692 0.891573
vt 0.986138 0.891582
vt 0.452597 0.983383
vt 0.986138 0.892290
vt 0.986138 0.889674
vt 0.986138 0.890001
vt 0.455485 0.982405
vt 0.986138 0.888673
vt 0.986138 0.890916
vt 0.984583 0.889716
vt 0.984583 0.888742
vt 0.984583 0.889161
vt 0.984583 0.890061
vt 0.984583 0.892059
vt 0.984583 0.891573
vt 0.457430 0.987918
vt 0.458310 0.985920
vt 0.452677 0.987918
vt 0.454713 0.988889
vt 0.457263 0.983355
vt 0.455485 0.982405
vt 0.452597 0.983383
vt 0.451827 0.985543
vn 0.366547 0.863426 0.346612
vn 0.366547 0.863426 0.346612
vn 0.366547 0.863426 0.346612
vn 0.366547 0.863426 0.346612
vn -0.459674 0.832525 0.309197
vn -0.459674 0.832525 0.309197
vn -0.459674 0.832524 0.309197
vn -0.459674 0.832524 0.309197
vn -0.871258 0.362809 0.330574
vn -0.871258 0.362809 0.330574
vn -0.871258 0.362809 0.330574
vn -0.871258 0.362809 0.330574
vn -0.871258 0.362809 0.330574
vn 0.931726 0.363162 -0.000000
vn 0.931726 0.363162 -0.000000
vn 0.902379 0.351723 0.249003
vn 0.902379 0.351723 0.249003
vn 0.001410 0.026518 0.999647
vn 0.001410 0.026518 0.999647
vn 0.001410 0.026518 0.999647
vn 0.001410 0.026518 0.999647
vn 0.022272 0.001224 0.999751
vn 0.022272 0.001224 0.999751
vn 0.022272 0.001224 0.999751
vn 0.022272 0.001224 0.999751
vn -0.002554 -0.024313 0.999701
vn -0.002554 -0.024313 0.999701
vn -0.002554 -0.024313 0.999701
vn -0.002554 -0.024313 0.999701
vn -0.002554 -0.024313 0.999701
vn -0.002554 -0.024313 0.999701
vn -0.002554 -0.024313 0.999701
vn -0.002554 -0.024313 0.999701
vn -0.002554 -0.024313 0.999701
vn -0.002554 -0.024313 0.999701
vn -0.002554 -0.024313 0.999701
vn -0.002554 -0.024313 0.999701
vn -0.002554 -0.024313 0.999701
vn -0.002554 -0.024313 0.999701
vn -0.002554 -0.024313 0.999701
vn -0.002554 -0.024313 0.999701
vn -0.002554 -0.024313 0.999701
vn -0.002554 -0.024313 0.999701
vn -0.002554 -0.024313 0.999701
vn -0.002554 -0.024313 0.999701
vn 0.024906 0.004159 0.999681
vn 0.024906 0.004159 0.999681
vn 0.024906 0.004159 0.999681
vn 0.024906 0.004159 0.999681
vn -0.339113 -0.878167 0.337381
vn -0.339113 -0.878167 0.337381
vn -0.339113 -0.878167 0.337381
vn -0.339113 -0.878167 0.337381
vn 0.441351 -0.851920 0.281854
vn 0.441351 -0.851920 0.281854
vn 0.441351 -0.851920 0.281854
vn 0.441351 -0.851920 0.281854
vn 0.912989 -0.340314 0.225029
vn 0.912989 -0.340314 0.225029
vn 0.912989 -0.340314 0.225029
vn 0.912989 -0.340314 0.225029
vn 0.900751 0.319504 0.294217
vn 0.900751 0.319504 0.294217
vn 0.900751 0.319504 0.294217
vn 0.900751 0.319504 0.294217
vn 0.331227 0.903270 0.272750
vn 0.331227 0.903270 0.272750
vn 0.331227 0.903270 0.272750
vn 0.331227 0.903270 0.272750
vn -0.440739 0.827811 0.347100
vn -0.440739 0.827811 0.347100
vn -0.440739 0.827811 0.347100
vn -0.440739 0.827811 0.347100
vn -0.881605 0.313567 0.352774
vn -0.881605 0.313567 0.352774
vn -0.881604 0.313567 0.352774
vn -0.881604 0.313567 0.352774
vn -0.865713 -0.371912 0.334997
vn -0.865713 -0.371912 0.334997
vn -0.865713 -0.371912 0.334997
vn -0.865713 -0.371912 0.334997
vn -0.002554 -0.024313 0.999701
vn -0.002554 -0.024313 0.999701
vn -0.002554 -0.024313 0.999701
vn -0.002554 -0.024313 0.999701
vn -0.002554 -0.024313 0.999701
vn -0.002554 -0.024313 0.999701
vn -0.002554 -0.024313 0.999701
vn -0.002554 -0.024313 0.999701
vn -0.002554 -0.024313 0.999701
vn -0.002554 -0.024313 0.999701
vn -0.002554 -0.024313 0.999701
vn -0.002554 -0.024313 0.999701
vn -0.930428 -0.366474 0.000000
vn -0.930428 -0.366474 0.000000
vn -0.905133 -0.356510 0.231593
vn -0.905133 -0.356510 0.231593
vn -0.308765 -0.909856 0.277177
vn -0.308765 -0.909856 0.277176
vn -0.308765 -0.909856 0.277176
vn -0.308765 -0.909856 0.277176
vn 0.461800 -0.886984 0.000000
vn 0.461800 -0.886984 0.000000
vn 0.447229 -0.858998 0.249218
vn 0.447229 -0.858998 0.249218
vn 0.943022 -0.332731 -0.000000
vn 0.943022 -0.332731 -0.000000
vn 0.943022 -0.332731 -0.000000
vn 0.912953 -0.322122 0.250507
vn 0.912953 -0.322122 0.250507
vn 0.366547 0.863425 -0.346612
vn 0.366547 0.863425 -0.346612
vn 0.366547 0.863425 -0.346612
vn 0.366547 0.863426 -0.346612
vn -0.459674 0.832525 -0.309196
vn -0.459674 0.832525 -0.309196
vn -0.459674 0.832525 -0.309196
vn -0.459674 0.832525 -0.309196
vn -0.871258 0.362810 -0.330574
vn -0.871258 0.362810 -0.330574
vn -0.871258 0.362810 -0.330574
vn -0.871258 0.362810 -0.330574
vn -0.871258 0.362810 -0.330574
vn 0.931726 0.363162 -0.000000
vn 0.902379 0.351723 -0.249004
vn 0.902379 0.351723 -0.249004
vn 0.931726 0.363162 -0.000000
vn 0.001410 0.026518 -0.999647
vn 0.001410 0.026518 -0.999647
vn 0.001410 0.026518 -0.999647
vn 0.001410 0.026518 -0.999647
vn 0.022272 0.001224 -0.999751
vn 0.022272 0.001224 -0.999751
vn 0.022272 0.001224 -0.999751
vn 0.022272 0.001224 -0.999751
vn -0.002554 -0.024313 -0.999701
vn -0.002554 -0.024313 -0.999701
vn -0.002554 -0.024313 -0.999701
vn -0.002554 -0.024313 -0.999701
vn -0.002554 -0.024313 -0.999701
vn -0.002554 -0.024313 -0.999701
vn -0.002554 -0.024313 -0.999701
vn -0.002554 -0.024313 -0.999701
vn -0.002554 -0.024314 -0.999701
vn -0.002554 -0.024314 -0.999701
vn -0.002554 -0.024314 -0.999701
vn -0.002554 -0.024314 -0.999701
vn -0.002554 -0.024313 -0.999701
vn -0.002554 -0.024313 -0.999701
vn -0.002554 -0.024313 -0.999701
vn -0.002554 -0.024313 -0.999701
vn -0.002554 -0.024313 -0.999701
vn -0.002554 -0.024313 -0.999701
vn -0.002554 -0.024313 -0.999701
vn -0.002554 -0.024313 -0.999701
vn 0.024906 0.004159 -0.999681
vn 0.024906 0.004159 -0.999681
vn 0.024906 0.004159 -0.999681
vn 0.024906 0.004159 -0.999681
vn -0.339113 -0.878166 -0.337382
vn -0.339113 -0.878166 -0.337382
vn -0.339113 -0.878166 -0.337382
vn -0.339113 -0.878166 -0.337382
vn 0.441351 -0.851920 -0.281854
vn 0.441351 -0.851920 -0.281854
vn 0.441351 -0.851920 -0.281854
vn 0.441351 -0.851920 -0.281854
vn 0.912988 -0.340314 -0.225030
vn 0.912988 -0.340314 -0.225030
vn 0.912988 -0.340314 -0.225030
vn 0.912988 -0.340314 -0.225030
vn 0.900751 0.319504 -0.294218
vn 0.900751 0.319504 -0.294218
vn 0.900751 0.319504 -0.294218
vn 0.900751 0.319505 -0.294218
vn 0.331227 0.903270 -0.272751
vn 0.331227 0.903270 -0.272751
vn 0.331227 0.903270 -0.272751
vn 0.331227 0.903270 -0.272751
vn -0.440739 0.827811 -0.347100
vn -0.440739 0.827811 -0.347100
vn -0.440739 0.827811 -0.347100
vn -0.440739 0.827811 -0.347100
vn -0.881605 0.313567 -0.352773
vn -0.881605 0.313567 -0.352773
vn -0.881605 0.313567 -0.352773
vn -0.881605 0.313567 -0.352773
vn -0.865713 -0.371912 -0.334997
vn -0.865713 -0.371912 -0.334997
vn -0.865713 -0.371912 -0.334997
vn -0.865713 -0.371912 -0.334997
vn -0.002554 -0.024313 -0.999701
vn -0.002554 -0.024313 -0.999701
vn -0.002554 -0.024313 -0.999701
vn -0.002554 -0.024313 -0.999701
vn -0.002554 -0.024313 -0.999701
vn -0.002553 -0.024313 -0.999701
vn -0.002553 -0.024313 -0.999701
vn -0.002554 -0.024313 -0.999701
vn -0.002554 -0.024313 -0.999701
vn -0.002554 -0.024313 -0.999701
vn -0.002554 -0.024313 -0.999701
vn -0.002554 -0.024313 -0.999701
vn -0.930428 -0.366474 0.000000
vn -0.905132 -0.356511 -0.231593
vn -0.905132 -0.356511 -0.231593
vn -0.930428 -0.366474 0.000000
vn -0.308765 -0.909856 -0.277176
vn -0.308765 -0.909856 -0.277176
vn -0.308765 -0.909856 -0.277176
vn -0.308765 -0.909856 -0.277176
vn 0.461800 -0.886984 0.000000
vn 0.447229 -0.858998 -0.249217
vn 0.447229 -0.858998 -0.249217
vn 0.461800 -0.886984 0.000000
vn 0.943022 -0.332731 -0.000000
vn 0.912953 -0.322122 -0.250507
vn 0.912953 -0.322122 -0.250507
vn 0.943022 -0.332731 -0.000000
vn 0.943022 -0.332731 -0.000000
vn 0.000000 0.000000 1.000000
vn 0.000000 0.000000 1.000000
vn 0.000000 0.000000 1.000000
vn 0.000000 0.000000 1.000000
vn 0.596921 -0.629835 0.496985
vn 0.595736 -0.579591 0.556033
vn 0.595029 -0.568551 0.568059
vn 0.596921 -0.629835 0.496985
vn -0.592199 -0.619583 0.515187
vn -0.592199 -0.619583 0.515187
vn -0.592199 -0.619583 0.515187
vn -0.592199 -0.619583 0.515187
vn -0.616919 0.682117 0.392592
vn -0.623047 0.673396 0.397933
vn -0.620984 0.676356 0.396132
vn -0.616919 0.682117 0.392592
vn -0.616919 0.682117 0.392592
vn 0.000001 0.000000 1.000000
vn 0.000001 0.000000 1.000000
vn 0.000000 0.000000 1.000000
vn 0.000000 0.000000 1.000000
vn -0.631038 0.661683 0.404929
vn -0.620984 0.676356 0.396132
vn -0.623047 0.673396 0.397933
vn -0.631038 0.661683 0.404929
vn 0.593152 -0.546157 0.591509
vn 0.595029 -0.568551 0.568059
vn 0.595736 -0.579591 0.556033
vn 0.593152 -0.546157 0.591509
vn 0.593152 -0.546157 0.591509
vn 0.000001 0.000000 -1.000000
vn 0.000000 0.000000 -1.000000
vn 0.000000 0.000000 -1.000000
vn 0.000001 0.000000 -1.000000
vn 0.673138 -0.645835 -0.360255
vn 0.673138 -0.645835 -0.360255
vn 0.657089 -0.626220 -0.419622
vn 0.660001 -0.629727 -0.409686
vn -0.626921 -0.648626 -0.431572
vn -0.626921 -0.648626 -0.431572
vn -0.626921 -0.648626 -0.431572
vn -0.626921 -0.648626 -0.431572
vn -0.623934 0.699549 -0.348334
vn -0.623934 0.699549 -0.348334
vn -0.623935 0.699549 -0.348334
vn -0.626272 0.689020 -0.364740
vn -0.627376 0.683520 -0.373094
vn 0.000001 0.000000 -1.000000
vn 0.000001 0.000000 -1.000000
vn 0.000001 0.000000 -1.000000
vn 0.000001 0.000000 -1.000000
vn -0.631038 0.661683 -0.404929
vn -0.631038 0.661683 -0.404929
vn -0.627376 0.683520 -0.373094
vn -0.626272 0.689020 -0.364740
vn 0.650398 -0.618231 -0.441331
vn 0.650398 -0.618231 -0.441331
vn 0.650398 -0.618231 -0.441331
vn 0.660001 -0.629727 -0.409686
vn 0.657089 -0.626220 -0.419622
s off
f 1/1/1 2/2/2 6/3/3 5/4/4
f 2/2/5 3/5/6 7/6/7 6/3/8
f 3/5/9 29/7/10 31/8/11 8/9/12 7/6/13
f 4/10/14 1/1/15 5/4/16 12/11/17
f 5/4/18 6/3/19 14/12/20 13/13/21
f 6/3/22 7/6/23 15/14/24 14/12/25
f 7/6/26 8/9/27 16/15/28 15/14/29
f 8/9/30 9/16/31 17/17/32 16/15/33
f 9/16/34 10/18/35 18/19/36 17/17/37
f 10/18/38 11/20/39 19/21/40 18/19/41
f 11/20/42 12/11/43 20/22/44 19/21/45
f 12/11/46 5/4/47 13/13/48 20/22/49
f 13/13/50 14/12/51 22/23/52 21/24/53
f 14/12/54 15/14/55 23/25/56 22/23/57
f 15/14/58 16/15/59 24/26/60 23/25/61
f 16/15/62 17/17/63 25/27/64 24/26/65
f 17/17/66 18/19/67 26/28/68 25/27/69
f 18/19/70 19/21/71 27/29/72 26/28/73
f 19/21/74 20/22/75 28/30/76 27/29/77
f 20/22/78 13/13/79 21/24/80 28/30/81
f 21/50/82 22/54/83 23/58/84 28/62/85
f 27/66/86 24/70/87 25/74/88 26/78/89
f 28/62/90 23/58/91 24/70/92 27/66/93
f 31/8/94 32/31/95 9/16/96 8/9/97
f 32/31/98 33/32/99 10/18/100 9/16/101
f 33/32/102 34/33/103 11/20/104 10/18/105
f 34/33/106 30/34/107 4/10/108 12/11/109 11/20/110
f 1/1/111 35/35/112 36/36/113 2/2/114
f 2/2/115 36/36/116 37/37/117 3/5/118
f 3/5/119 37/37/120 38/38/121 31/8/122 29/7/123
f 4/10/124 42/39/125 35/35/126 1/1/127
f 35/35/128 43/40/129 44/41/130 36/36/131
f 36/36/132 44/41/133 45/42/134 37/37/135
f 37/37/136 45/42/137 46/43/138 38/38/139
f 38/38/140 46/43/141 47/44/142 39/45/143
f 39/45/144 47/44/145 48/46/146 40/47/147
f 40/47/148 48/46/149 49/48/150 41/49/151
f 41/49/152 49/48/153 50/51/154 42/39/155
f 42/39/156 50/51/157 43/40/158 35/35/159
f 43/40/160 51/52/161 52/53/162 44/41/163
f 44/41/164 52/53/165 53/55/166 45/42/167
f 45/42/168 53/55/169 54/56/170 46/43/171
f 46/43/172 54/56/173 55/57/174 47/44/175
f 47/44/176 55/57/177 56/59/178 48/46/179
f 48/46/180 56/59/181 57/60/182 49/48/183
f 49/48/184 57/60/185 58/61/186 50/51/187
f 50/51/188 58/61/189 51/52/190 43/40/191
f 51/87/192 58/88/193 53/89/194 52/90/195
f 57/91/196 56/92/197 55/93/198 54/94/199
f 58/88/200 57/91/201 54/94/202 53/89/203
f 31/8/204 38/38/205 39/45/206 32/31/207
f 32/31/208 39/45/209 40/47/210 33/32/211
f 33/32/212 40/47/213 41/49/214 34/33/215
f 34/33/216 41/49/217 42/39/218 4/10/219 30/34/220
f 65/63/221 66/64/222 60/65/223 62/67/224
f 60/65/225 66/64/226 72/68/227 67/69/228
f 59/71/229 61/72/230 64/73/231 63/75/232
f 61/72/233 65/63/234 71/76/235 70/77/236 64/73/237
f 61/72/238 59/71/239 66/64/240 65/63/241
f 69/79/242 71/76/243 65/63/244 62/67/245
f 68/80/246 72/68/247 66/64/248 59/71/249 63/75/250
f 77/81/251 76/82/252 74/83/253 78/84/254
f 74/83/255 67/69/256 72/68/257 78/84/258
f 73/85/259 63/75/260 64/73/261 75/86/262
f 75/86/263 64/73/264 70/77/265 71/76/266 77/81/267
f 75/86/268 77/81/269 78/84/270 73/85/271
f 69/79/272 76/82/273 77/81/274 71/76/275
f 68/80/276 63/75/277 73/85/278 78/84/279 72/68/280
