# This file uses centimeters as units for non-parametric coordinates.

v -1.366678 12.182312 0.426851
v 0.659102 11.086188 0.426851
v 5.758952 19.701250 0.426851
v 7.284182 18.162010 0.426851
v -0.353788 11.634250 -1.146298
v 5.940233 18.495628 -1.146298
v 7.705735 3.724005 0.426851
v 8.923356 4.856153 0.426851
v 8.296527 6.659797 0.426851
v -10.488338 3.512277 0.426851
v -11.705957 4.644424 0.426851
v -11.079128 6.659797 0.426851
v -8.010216 -19.508440 0.426851
v 5.227617 -19.508440 0.426851
v 7.205036 -2.023166 0.426851
v -9.987637 -2.023166 0.426851
v 6.150626 -10.569421 0.426851
v -8.933228 -10.569421 0.426851
v 5.267055 3.306437 -1.146297
v 6.605657 5.724519 -2.719446
v 7.123628 4.782348 -2.719446
v -8.164899 3.578244 -1.146297
v -9.388259 5.724519 -2.719446
v -9.906226 4.570620 -2.719446
v -5.990670 -18.384264 -1.146298
v 3.042371 -18.275404 -1.146298
v 4.643034 -1.988369 -1.146297
v -7.708780 -1.988369 -1.146297
v 3.920366 -10.569416 -1.146298
v -6.714491 -10.569416 -1.146298
v -2.327626 5.716260 0.426851
v -1.285352 5.362456 -1.146298
v -0.243079 5.008655 0.426851
v -0.353788 11.634250 2.000000
v 5.940233 18.495628 2.000000
v 5.267055 3.306437 2.000000
v 6.605657 5.724519 3.573148
v 7.123628 4.782348 3.573148
v -8.164899 3.578244 2.000000
v -9.388259 5.724519 3.573148
v -9.906226 4.570620 3.573148
v -5.990670 -18.384264 2.000000
v 3.042371 -18.275404 2.000000
v 4.643034 -1.988369 2.000000
v -7.708780 -1.988369 2.000000
v 3.920366 -10.569416 2.000000
v -6.714491 -10.569416 2.000000
v -1.285352 5.362456 2.000000
vt 0.513806 0.981942
vt 0.513853 0.981932
vt 0.513896 0.982118
vt 0.513850 0.982134
vt 0.514181 0.982321
vt 0.514173 0.982357
vt 0.513901 0.981921
vt 0.513942 0.982102
vt 0.514242 0.982311
vt 0.013553 0.952060
vt 0.013556 0.952047
vt 0.013556 0.952047
vt 0.013338 0.952300
vt 0.013336 0.952300
vt 0.013336 0.952300
vt 0.013338 0.952300
vt 0.013337 0.952296
vt 0.013337 0.952296
vt 0.013338 0.952300
vt 0.013336 0.952300
vt 0.983264 0.984579
vt 0.983264 0.984579
vt 0.983264 0.984579
vt 0.983264 0.984579
vt 0.983265 0.984577
vt 0.983265 0.984577
vt 0.013338 0.952300
vt 0.013336 0.952300
vt 0.013337 0.952296
vt 0.013337 0.952296
vt 0.983265 0.984577
vt 0.983265 0.984577
vt 0.983267 0.984567
vt 0.983267 0.984567
vt 0.983266 0.984570
vt 0.983266 0.984570
vt 0.983266 0.984570
vt 0.983267 0.984567
vt 0.983267 0.984567
vt 0.983266 0.984570
vt 0.013556 0.952047
vt 0.013553 0.952060
vt 0.013553 0.952060
vt 0.013556 0.952047
vt 0.013553 0.952060
vt 0.513806 0.981942
vt 0.513853 0.981932
vt 0.513896 0.982118
vt 0.513850 0.982134
vt 0.514181 0.982321
vt 0.514173 0.982357
vt 0.513901 0.981921
vt 0.513942 0.982102
vt 0.514242 0.982311
vt 0.013338 0.952300
vt 0.013336 0.952300
vt 0.013336 0.952300
vt 0.013338 0.952300
vt 0.013337 0.952296
vt 0.013337 0.952296
vt 0.013338 0.952300
vt 0.013336 0.952300
vt 0.983264 0.984579
vt 0.983264 0.984579
vt 0.983264 0.984579
vt 0.983264 0.984579
vt 0.983265 0.984577
vt 0.983265 0.984577
vt 0.013338 0.952300
vt 0.013336 0.952300
vt 0.013337 0.952296
vt 0.013337 0.952296
vt 0.983265 0.984577
vt 0.983265 0.984577
vt 0.983267 0.984567
vt 0.983267 0.984567
vt 0.983266 0.984570
vt 0.983266 0.984570
vt 0.983266 0.984570
vt 0.983267 0.984567
vt 0.983267 0.984567
vt 0.983266 0.984570
vt 0.013556 0.952047
vt 0.013553 0.952060
vt 0.013553 0.952060
vt 0.013556 0.952047
vt 0.013553 0.952060
vt 0.013556 0.952047
vt 0.013556 0.952047
vt 0.013553 0.952060
vn -0.814816 0.121060 -0.566939
vn -0.814816 0.121060 -0.566939
vn -0.814816 0.121060 -0.566939
vn -0.814816 0.121060 -0.566939
vn -0.610813 0.570008 -0.549544
vn -0.610813 0.570008 -0.549544
vn -0.610813 0.570008 -0.549544
vn -0.610813 0.570008 -0.549544
vn 0.814832 -0.120994 -0.566930
vn 0.814832 -0.120994 -0.566930
vn 0.814832 -0.120994 -0.566930
vn 0.814832 -0.120994 -0.566930
vn 0.589563 -0.546496 -0.594775
vn 0.589563 -0.546496 -0.594775
vn 0.589563 -0.546496 -0.594775
vn 0.589563 -0.546496 -0.594775
vn 0.645924 0.640045 -0.416081
vn 0.645924 0.640045 -0.416081
vn 0.645924 0.640045 -0.416081
vn 0.490725 -0.794371 -0.357999
vn 0.490725 -0.794371 -0.357999
vn 0.490724 -0.794371 -0.357999
vn 0.490725 -0.794371 -0.357999
vn 0.800594 0.333788 -0.497628
vn 0.800594 0.333788 -0.497629
vn 0.800595 0.333788 -0.497628
vn 0.800594 0.333788 -0.497628
vn -0.001552 -0.786752 -0.617267
vn -0.001552 -0.786752 -0.617267
vn -0.001552 -0.786752 -0.617267
vn -0.001552 -0.786752 -0.617267
vn 0.003911 -0.800201 -0.599719
vn 0.003911 -0.800201 -0.599719
vn 0.003911 -0.800201 -0.599719
vn 0.003911 -0.800201 -0.599719
vn -0.585194 -0.057522 -0.808850
vn -0.585194 -0.057522 -0.808850
vn -0.585194 -0.057522 -0.808850
vn -0.585194 -0.057522 -0.808850
vn -0.411434 -0.838162 -0.358060
vn -0.411434 -0.838162 -0.358060
vn -0.411434 -0.838162 -0.358060
vn -0.411434 -0.838162 -0.358060
vn -0.814921 0.294363 -0.499254
vn -0.814921 0.294363 -0.499254
vn -0.814921 0.294363 -0.499254
vn -0.814921 0.294363 -0.499254
vn 0.000000 0.000000 -1.000000
vn 0.000000 0.000000 -1.000000
vn 0.000000 0.000000 -1.000000
vn 0.000000 0.000000 -1.000000
vn 0.000000 0.000000 -1.000000
vn 0.000000 0.000000 -1.000000
vn 0.000000 0.000000 -1.000000
vn 0.000000 0.000000 -1.000000
vn 0.567774 -0.061434 -0.820889
vn 0.567774 -0.061434 -0.820889
vn 0.567774 -0.061434 -0.820889
vn 0.567774 -0.061434 -0.820889
vn 0.534730 -0.054467 -0.843266
vn 0.534730 -0.054467 -0.843266
vn 0.534730 -0.054467 -0.843266
vn 0.534730 -0.054467 -0.843266
vn -0.000000 0.000000 -1.000000
vn -0.000000 0.000000 -1.000000
vn -0.000000 0.000000 -1.000000
vn -0.000000 0.000000 -1.000000
vn -0.562972 -0.048519 -0.825050
vn -0.562972 -0.048519 -0.825050
vn -0.562972 -0.048519 -0.825050
vn -0.562972 -0.048519 -0.825050
vn 0.547649 -0.056822 -0.834777
vn 0.547649 -0.056822 -0.834776
vn 0.547649 -0.056822 -0.834776
vn 0.547649 -0.056822 -0.834777
vn -0.571519 -0.068363 -0.817736
vn -0.571519 -0.068363 -0.817736
vn -0.571519 -0.068363 -0.817736
vn -0.571519 -0.068363 -0.817736
vn 0.000000 0.000000 -1.000000
vn 0.000000 0.000000 -1.000000
vn 0.000000 0.000000 -1.000000
vn 0.000000 0.000000 -1.000000
vn 0.000000 0.958545 -0.284940
vn 0.000000 0.958545 -0.284940
vn 0.000000 0.958545 -0.284940
vn 0.000000 0.958545 -0.284940
vn -0.814816 0.121060 0.566939
vn -0.814816 0.121060 0.566939
vn -0.814815 0.121060 0.566939
vn -0.814816 0.121060 0.566939
vn -0.610813 0.570008 0.549544
vn -0.610813 0.570008 0.549544
vn -0.610813 0.570008 0.549544
vn -0.610813 0.570008 0.549544
vn 0.814832 -0.120994 0.566930
vn 0.814831 -0.120994 0.566930
vn 0.814832 -0.120994 0.566930
vn 0.814832 -0.120994 0.566930
vn 0.589563 -0.546496 0.594775
vn 0.589563 -0.546496 0.594775
vn 0.589563 -0.546496 0.594775
vn 0.589563 -0.546496 0.594775
vn 0.645924 0.640045 0.416082
vn 0.645924 0.640045 0.416082
vn 0.645924 0.640045 0.416082
vn 0.490724 -0.794371 0.357999
vn 0.490724 -0.794372 0.357999
vn 0.490724 -0.794371 0.357999
vn 0.490725 -0.794372 0.357999
vn 0.800595 0.333788 0.497628
vn 0.800595 0.333788 0.497628
vn 0.800595 0.333788 0.497628
vn 0.800594 0.333788 0.497628
vn -0.001552 -0.786752 0.617268
vn -0.001552 -0.786752 0.617268
vn -0.001552 -0.786752 0.617267
vn -0.001552 -0.786752 0.617268
vn 0.003911 -0.800201 0.599719
vn 0.003911 -0.800201 0.599719
vn 0.003911 -0.800201 0.599719
vn 0.003911 -0.800201 0.599719
vn -0.585194 -0.057522 0.808850
vn -0.585194 -0.057522 0.808850
vn -0.585194 -0.057522 0.808850
vn -0.585194 -0.057522 0.808850
vn -0.411434 -0.838162 0.358060
vn -0.411434 -0.838162 0.358060
vn -0.411435 -0.838162 0.358060
vn -0.411434 -0.838162 0.358060
vn -0.814921 0.294363 0.499254
vn -0.814921 0.294363 0.499254
vn -0.814921 0.294363 0.499254
vn -0.814921 0.294363 0.499254
vn -0.000000 0.000000 1.000000
vn -0.000000 0.000000 1.000000
vn -0.000000 0.000000 1.000000
vn -0.000000 0.000000 1.000000
vn -0.000000 0.000000 1.000000
vn -0.000000 0.000000 1.000000
vn -0.000000 0.000000 1.000000
vn -0.000000 0.000000 1.000000
vn 0.567774 -0.061434 0.820889
vn 0.567774 -0.061434 0.820889
vn 0.567774 -0.061434 0.820889
vn 0.567774 -0.061434 0.820889
vn 0.534730 -0.054467 0.843266
vn 0.534730 -0.054467 0.843266
vn 0.534730 -0.054467 0.843266
vn 0.534730 -0.054467 0.843266
vn 0.000000 0.000000 1.000000
vn 0.000000 0.000000 1.000000
vn 0.000000 0.000000 1.000000
vn 0.000000 0.000000 1.000000
vn -0.562972 -0.048519 0.825050
vn -0.562972 -0.048519 0.825050
vn -0.562972 -0.048519 0.825050
vn -0.562972 -0.048519 0.825050
vn 0.547649 -0.056822 0.834777
vn 0.547649 -0.056822 0.834777
vn 0.547649 -0.056822 0.834776
vn 0.547649 -0.056822 0.834776
vn -0.571519 -0.068363 0.817736
vn -0.571519 -0.068363 0.817736
vn -0.571519 -0.068363 0.817736
vn -0.571519 -0.068363 0.817736
vn 0.000000 0.000000 1.000000
vn 0.000000 0.000000 1.000000
vn 0.000000 0.000000 1.000000
vn 0.000000 0.000000 1.000000
vn 0.000000 0.958545 0.284940
vn 0.000000 0.958545 0.284940
vn 0.000000 0.958545 0.284940
vn 0.000000 0.958545 0.284940
s off
f 31/1/1 1/4/2 5/3/3 32/2/4
f 1/4/5 3/6/6 6/5/7 5/3/8
f 5/3/9 2/8/10 33/7/11 32/2/12
f 6/5/13 4/9/14 2/8/15 5/3/16
f 3/6/17 4/9/18 6/5/19
f 21/13/20 8/16/21 7/15/22 19/14/23
f 20/17/24 9/18/25 8/16/26 21/13/27
f 24/19/28 21/13/29 19/14/30 22/20/31
f 26/21/32 14/24/33 13/23/34 25/22/35
f 25/22/36 13/23/37 18/26/38 30/25/39
f 22/20/40 10/28/41 11/27/42 24/19/43
f 24/19/44 11/27/45 12/30/46 23/29/47
f 23/29/48 20/17/49 21/13/50 24/19/51
f 26/21/52 25/22/53 30/25/54 29/31/55
f 29/31/56 17/32/57 14/24/58 26/21/59
f 7/33/60 15/36/61 27/35/62 19/34/63
f 28/37/64 22/38/65 19/34/66 27/35/67
f 28/37/68 16/40/69 10/39/70 22/38/71
f 27/41/72 15/44/73 17/43/74 29/42/75
f 30/45/76 18/10/77 16/11/78 28/12/79
f 30/45/80 28/12/81 27/41/82 29/42/83
f 20/17/84 23/29/85 12/30/86 9/18/87
f 31/46/88 48/47/89 34/48/90 1/49/91
f 1/49/92 34/48/93 35/50/94 3/51/95
f 34/48/96 48/47/97 33/52/98 2/53/99
f 35/50/100 34/48/101 2/53/102 4/54/103
f 3/51/104 35/50/105 4/54/106
f 38/55/107 36/56/108 7/57/109 8/58/110
f 37/59/111 38/55/112 8/58/113 9/60/114
f 41/61/115 39/62/116 36/56/117 38/55/118
f 43/63/119 42/64/120 13/65/121 14/66/122
f 42/64/123 47/67/124 18/68/125 13/65/126
f 39/62/127 41/61/128 11/69/129 10/70/130
f 41/61/131 40/71/132 12/72/133 11/69/134
f 40/71/135 41/61/136 38/55/137 37/59/138
f 43/63/139 46/73/140 47/67/141 42/64/142
f 46/73/143 43/63/144 14/66/145 17/74/146
f 7/75/147 36/76/148 44/77/149 15/78/150
f 45/79/151 44/77/152 36/76/153 39/80/154
f 45/79/155 39/80/156 10/81/157 16/82/158
f 44/83/159 46/84/160 17/85/161 15/86/162
f 47/87/163 45/88/164 16/89/165 18/90/166
f 47/87/167 46/84/168 44/83/169 45/88/170
f 37/59/171 9/60/172 12/72/173 40/71/174
