# This file uses centimeters as units for non-parametric coordinates.

v 19.061134 4.583855 0.000000
v 19.179865 -0.817373 0.000000
v 15.456520 -6.207052 0.000000
v 12.008933 -5.793454 0.000000
v 7.860634 -2.636531 0.000000
v 7.906452 -4.680838 0.000000
v 7.093142 -7.614628 0.000000
v 3.421191 -10.090178 0.000000
v -0.587968 -10.403256 0.000000
v -18.569946 1.394633 0.000000
v -17.122599 3.634979 0.000000
v -18.044044 -1.792052 0.000000
v -15.858847 -2.786084 0.000000
v -15.063416 0.943497 0.000000
v 18.642794 -3.986897 0.000000
v -14.828760 4.244406 0.000000
v -12.799627 3.918957 0.000000
v -3.428228 -0.670762 0.000000
v 10.060361 3.191276 0.000000
v 3.197186 5.396544 0.000000
v 0.757652 2.743707 0.000000
v -0.670206 5.254412 0.000000
v 0.939951 7.570171 0.000000
v 3.382744 8.236011 0.000000
v -15.930845 0.087818 0.000000
v 2.339380 4.930783 0.000000
v 2.631972 3.609467 0.000000
v 8.933313 -2.154171 0.000000
v 9.705832 -4.705732 0.000000
v 8.998851 -2.601903 0.000000
v -4.398627 -6.760413 0.000000
v -2.958088 -8.963825 0.000000
v 16.447075 5.298728 0.000000
v -3.999179 -1.435864 2.000000
v -4.005795 -6.378263 2.000000
v 18.392178 3.885042 4.000000
v 11.301728 3.241228 2.000000
v 15.448594 4.440059 2.000000
v 2.992328 7.337034 2.000000
v 2.883014 5.844832 2.000000
v 1.250313 7.119077 2.000000
v 1.557446 5.279072 2.000000
v -0.123692 5.223847 2.000000
v 0.998545 3.235165 2.000000
v 2.067766 4.054131 2.000000
v -16.771185 0.562568 2.000000
v -16.351192 -2.020687 2.000000
v -15.314376 1.426819 2.000000
v -1.701292 -8.254627 4.000000
v -14.215751 3.358454 2.000000
v -16.788824 3.201048 2.000000
v -17.609253 -1.459471 2.000000
v -18.034479 1.280359 2.000000
v -3.049292 -2.016318 4.000000
v -3.055559 -6.176905 4.000000
v 7.766953 -2.326581 4.000000
v 3.810030 -9.203515 4.000000
v 0.303177 -9.485683 4.000000
v 7.037397 -7.046451 4.000000
v 7.715840 -4.496094 4.000000
v 10.379026 -1.442990 4.000000
v 18.392178 -0.868879 4.000000
v 17.961388 -3.636083 4.000000
v 15.259195 -5.510910 4.000000
v 10.393085 -2.723518 4.000000
v 12.257936 -5.123845 4.000000
v 10.901822 -4.368958 4.000000
vt 0.454323 0.980180
vt 0.453344 0.979952
vt 0.454276 0.980470
vt 0.454138 0.980544
vt 0.453976 0.980531
vt 0.453826 0.980432
vt 0.453794 0.980313
vt 0.453791 0.980213
vt 0.453694 0.980180
vt 0.453670 0.980172
vt 0.989611 0.895886
vt 0.989697 0.895840
vt 0.989730 0.895893
vt 0.989718 0.895967
vt 0.989684 0.895982
vt 0.989688 0.895923
vt 0.989656 0.895889
vt 0.989349 0.896101
vt 0.451880 0.951211
vt 0.453619 0.980300
vt 0.988844 0.895674
vt 0.988865 0.895515
vt 0.989150 0.895785
vt 0.989154 0.895764
vt 0.989206 0.895733
vt 0.989244 0.895785
vt 0.989213 0.895839
vt 0.989183 0.895820
vt 0.989195 0.895793
vt 0.989161 0.895768
vt 0.988931 0.895839
vt 0.451882 0.951205
vt 0.989172 0.895849
vt 0.983675 0.863568
vt 0.983625 0.863534
vt 0.453582 0.980343
vt 0.453443 0.980361
vt 0.453316 0.980274
vt 0.983626 0.863393
vt 0.453295 0.980145
vt 0.451882 0.951441
vt 0.451882 0.951441
vt 0.451820 0.951181
vt 0.451269 0.951216
vt 0.451272 0.951260
vt 0.451247 0.951342
vt 0.989445 0.895781
vt 0.451158 0.951383
vt 0.451244 0.951269
vt 0.451245 0.951208
vt 0.451816 0.951543
vt 0.451719 0.951601
vt 0.450882 0.950957
vt 0.451013 0.950947
vt 0.451196 0.950999
vt 0.450980 0.950933
vt 0.983697 0.863435
vt 0.982743 0.863255
vt 0.982706 0.863248
vt 0.982700 0.863164
vt 0.982766 0.863192
vt 0.982795 0.863297
vt 0.982738 0.863288
vt 0.989571 0.895562
vt 0.989626 0.895879
vt 0.989619 0.895936
vt 0.989568 0.896012
vt 0.453342 0.979955
vt 0.989161 0.895768
vt 0.988926 0.895840
vt 0.989189 0.895791
vt 0.989244 0.895785
vt 0.989213 0.895839
vt 0.983675 0.863568
vt 0.983626 0.863393
vt 0.982700 0.863164
vt 0.982795 0.863297
vt 0.451882 0.951441
vt 0.451814 0.951543
vt 0.451192 0.950998
vt 0.989632 0.895926
vt 0.989656 0.895889
vt 0.989349 0.896101
vt 0.989718 0.895967
vt 0.989684 0.895982
vt 0.989730 0.895893
vt 0.450885 0.950956
vt 0.454140 0.980457
vt 0.453976 0.980531
vt 0.453826 0.980432
vt 0.453794 0.980313
vt 0.453791 0.980213
vt 0.453295 0.980145
vt 0.453316 0.980274
vt 0.453443 0.980361
vt 0.453604 0.980282
vt 0.453563 0.980297
vt 0.451719 0.951601
vt 0.454184 0.980473
vt 0.451247 0.951342
vt 0.451158 0.951383
vn 0.000000 0.000000 1.000000
vn 0.000000 0.000000 1.000000
vn 0.000000 0.000000 1.000000
vn 0.000000 0.000000 1.000000
vn 0.000000 0.000000 1.000000
vn 0.000000 0.000000 1.000000
vn 0.000000 0.000000 1.000000
vn -0.000000 0.000000 1.000000
vn -0.000000 0.000000 1.000000
vn -0.000000 0.000000 1.000000
vn -0.000000 0.000000 1.000000
vn 0.000000 0.000000 1.000000
vn 0.000000 0.000000 1.000000
vn 0.000000 0.000000 1.000000
vn 0.000000 0.000000 1.000000
vn 0.000000 0.000000 1.000000
vn 0.000000 0.000000 1.000000
vn 0.000000 0.000000 1.000000
vn 0.000000 0.000000 1.000000
vn 0.000000 0.000000 1.000000
vn 0.000000 0.000000 1.000000
vn 0.000000 0.000000 1.000000
vn 0.000000 0.000000 1.000000
vn 0.000000 0.000000 1.000000
vn 0.000000 0.000000 1.000000
vn 0.000000 0.000000 1.000000
vn 0.000000 0.000000 1.000000
vn 0.000000 0.000000 1.000000
vn 0.000000 0.000000 1.000000
vn 0.000000 0.000000 1.000000
vn 0.000000 0.000000 1.000000
vn 0.000000 0.000000 1.000000
vn 0.000000 0.000000 1.000000
vn 0.000000 0.000000 1.000000
vn 0.000000 0.000000 1.000000
vn 0.000000 0.000000 1.000000
vn 0.000000 0.000000 1.000000
vn 0.000000 0.000000 1.000000
vn 0.000000 0.000000 1.000000
vn 0.000000 0.000000 1.000000
vn -0.000001 0.000000 1.000000
vn -0.000001 0.000000 1.000000
vn -0.000001 0.000000 1.000000
vn 0.000000 0.000000 1.000000
vn 0.000000 0.000000 1.000000
vn 0.000000 0.000000 1.000000
vn -0.221667 0.805383 0.549748
vn -0.221667 0.805383 0.549748
vn -0.221667 0.805383 0.549748
vn -0.264627 0.875846 0.403567
vn -0.264627 0.875846 0.403567
vn -0.264627 0.875846 0.403567
vn -0.264627 0.875846 0.403567
vn -0.000000 0.000000 1.000000
vn -0.000000 0.000000 1.000000
vn -0.000000 0.000000 1.000000
vn -0.000000 0.000000 1.000000
vn 0.000000 0.000000 1.000000
vn 0.000000 0.000000 1.000000
vn 0.000000 0.000000 1.000000
vn -0.000000 0.000000 1.000000
vn -0.000000 0.000000 1.000000
vn -0.000000 0.000000 1.000000
vn -0.000000 0.000000 1.000000
vn 0.000000 0.000000 1.000000
vn 0.000000 0.000000 1.000000
vn 0.000000 0.000000 1.000000
vn 0.000000 0.000000 1.000000
vn 0.077230 -0.975166 0.207572
vn 0.077230 -0.975166 0.207572
vn 0.077230 -0.975166 0.207572
vn 0.077230 -0.975166 0.207572
vn 0.552957 -0.823515 0.126737
vn 0.552957 -0.823515 0.126737
vn 0.552957 -0.823515 0.126737
vn 0.552957 -0.823515 0.126737
vn 0.963513 -0.262087 0.054337
vn 0.963513 -0.262087 0.054337
vn 0.963513 -0.262087 0.054337
vn 0.963513 -0.262087 0.054337
vn 0.999366 -0.001256 0.035592
vn 0.999366 -0.001256 0.035592
vn 0.999366 -0.001256 0.035592
vn 0.999366 -0.001256 0.035592
vn 0.346946 -0.935911 0.060826
vn 0.346946 -0.935911 0.060826
vn 0.346946 -0.935911 0.060826
vn 0.346946 -0.935911 0.060826
vn 0.983569 0.011500 0.180167
vn 0.983569 0.011500 0.180167
vn 0.983569 0.011500 0.180167
vn 0.983569 0.011500 0.180167
vn 0.970107 -0.158157 0.184064
vn 0.970107 -0.158157 0.184064
vn 0.970107 -0.158157 0.184064
vn 0.970107 -0.158157 0.184064
vn 0.562849 -0.809360 0.167745
vn 0.562849 -0.809360 0.167745
vn 0.562849 -0.809360 0.167745
vn 0.562849 -0.809360 0.167745
vn -0.121463 -0.978310 0.167800
vn -0.121463 -0.978310 0.167800
vn -0.121463 -0.978310 0.167800
vn -0.121463 -0.978310 0.167800
vn -0.294978 -0.937397 0.185137
vn -0.294978 -0.937397 0.185137
vn -0.294978 -0.937397 0.185137
vn -0.294978 -0.937397 0.185137
vn -0.792570 0.561663 0.237416
vn -0.792570 0.561663 0.237416
vn -0.792570 0.561663 0.237416
vn -0.792570 0.561663 0.237416
vn -0.848205 -0.480733 0.222362
vn -0.848205 -0.480733 0.222362
vn -0.848205 -0.480733 0.222362
vn -0.848205 -0.480733 0.222362
vn -0.196452 0.930209 0.310030
vn -0.196452 0.930209 0.310030
vn -0.196452 0.930209 0.310030
vn -0.196452 0.930209 0.310030
vn 0.198873 0.869925 0.451309
vn 0.198873 0.869925 0.451309
vn 0.198873 0.869925 0.451309
vn 0.198873 0.869925 0.451309
vn 0.952905 0.085910 0.290846
vn 0.952905 0.085910 0.290846
vn 0.952905 0.085910 0.290846
vn 0.952905 0.085910 0.290846
vn 0.560598 -0.757568 0.334396
vn 0.560598 -0.757568 0.334396
vn 0.560598 -0.757568 0.334396
vn 0.560598 -0.757568 0.334396
vn 0.409478 -0.866724 0.284811
vn 0.409478 -0.866724 0.284811
vn 0.409478 -0.866724 0.284811
vn 0.409478 -0.866724 0.284811
vn 0.482663 -0.843306 0.236372
vn 0.482663 -0.843306 0.236372
vn 0.482663 -0.843306 0.236372
vn 0.482663 -0.843306 0.236372
vn 0.922719 0.290961 0.252847
vn 0.922719 0.290961 0.252847
vn 0.922719 0.290961 0.252847
vn 0.922719 0.290961 0.252847
vn -0.441553 -0.876873 0.190064
vn -0.441553 -0.876873 0.190064
vn -0.441553 -0.876873 0.190064
vn -0.441553 -0.876873 0.190064
vn -0.906959 -0.294085 0.301563
vn -0.906959 -0.294085 0.301563
vn -0.906959 -0.294085 0.301563
vn -0.906959 -0.294085 0.301563
vn -0.940487 -0.043315 0.337059
vn -0.940487 -0.043315 0.337059
vn -0.940487 -0.043315 0.337059
vn -0.940487 -0.043315 0.337059
vn -0.771137 -0.554490 0.312871
vn -0.771137 -0.554490 0.312871
vn -0.771137 -0.554490 0.312871
vn -0.771137 -0.554490 0.312871
vn -0.497188 -0.814456 0.299108
vn -0.497188 -0.814456 0.299108
vn -0.497188 -0.814456 0.299108
vn -0.497188 -0.814456 0.299108
vn -0.277774 0.936509 0.213992
vn -0.277774 0.936509 0.213992
vn -0.277774 0.936509 0.213992
vn -0.277774 0.936509 0.213992
vn -0.146310 0.928593 0.341040
vn -0.146310 0.928593 0.341040
vn -0.146310 0.928593 0.341040
vn -0.146310 0.928593 0.341040
vn 0.384339 0.802259 0.456797
vn 0.384339 0.802259 0.456797
vn 0.384339 0.802259 0.456797
vn 0.384339 0.802259 0.456797
vn 0.147598 0.920257 0.362412
vn 0.147598 0.920257 0.362412
vn 0.147598 0.920257 0.362412
vn -0.565745 -0.801556 0.193497
vn -0.565745 -0.801556 0.193497
vn -0.565745 -0.801556 0.193497
vn -0.565745 -0.801556 0.193497
vn -0.399883 -0.885325 0.237263
vn -0.399883 -0.885325 0.237263
vn -0.399883 -0.885325 0.237263
vn -0.399883 -0.885325 0.237263
vn -0.958301 -0.153795 0.240844
vn -0.958301 -0.153795 0.240844
vn -0.958301 -0.153795 0.240844
vn -0.958301 -0.153795 0.240844
vn -0.813115 0.526244 0.248821
vn -0.813115 0.526244 0.248821
vn -0.813115 0.526244 0.248821
vn -0.813115 0.526244 0.248821
vn 0.117013 0.952881 0.279868
vn 0.117013 0.952881 0.279868
vn 0.117013 0.952881 0.279868
vn 0.117013 0.952881 0.279868
vn -0.903219 0.001278 0.429178
vn -0.903219 0.001278 0.429178
vn -0.903219 0.001278 0.429178
vn -0.903219 0.001278 0.429178
vn -0.763103 -0.497393 0.412642
vn -0.763103 -0.497393 0.412642
vn -0.763103 -0.497393 0.412642
vn 0.000000 0.000000 1.000000
vn 0.000000 0.000000 1.000000
vn 0.000000 0.000000 1.000000
s off
f 36/68/1 54/1/2 56/92/3 61/10/4
f 58/88/5 57/89/6 55/3/7
f 55/3/8 57/89/9 59/90/10 60/91/11
f 60/91/12 56/92/13 55/3/14
f 62/93/15 36/68/16 61/10/17 63/94/18
f 64/95/19 63/94/20 61/10/21 65/20/22
f 65/20/23 66/96/24 64/95/25
f 37/70/26 38/21/27 39/24/28 40/69/29
f 40/69/30 39/24/31 41/71/32 42/29/33
f 41/71/34 43/72/35 42/29/36
f 42/29/37 43/72/38 44/73/39 45/28/40
f 67/97/41 66/96/42 65/20/43
f 55/3/44 49/99/45 58/88/46
f 36/87/47 38/54/48 54/19/49
f 54/19/50 38/54/51 37/80/52 34/32/53
f 48/82/54 35/83/55 34/47/56 50/11/57
f 50/11/58 51/81/59 48/82/60
f 52/84/61 47/85/62 46/16/63 53/86/64
f 48/82/65 51/81/66 53/86/67 46/16/68
f 9/4/69 8/5/70 57/89/71 58/88/72
f 8/5/73 7/6/74 59/90/75 57/89/76
f 7/6/77 6/7/78 60/91/79 59/90/80
f 6/7/81 5/8/82 56/92/83 60/91/84
f 5/8/85 28/9/86 61/10/87 56/92/88
f 2/40/89 1/2/90 36/68/91 62/93/92
f 15/38/93 2/40/94 62/93/95 63/94/96
f 3/37/97 15/38/98 63/94/99 64/95/100
f 4/36/101 3/37/102 64/95/103 66/96/104
f 20/30/105 19/31/106 37/70/107 40/69/108
f 23/25/109 22/26/110 43/72/111 41/71/112
f 22/26/113 21/27/114 44/73/115 43/72/116
f 24/23/117 23/33/118 41/71/119 39/24/120
f 33/22/121 24/23/122 39/24/123 38/21/124
f 13/34/125 25/35/126 46/57/127 47/74/128
f 25/35/129 14/39/130 48/75/131 46/57/132
f 26/59/133 20/60/134 40/76/135 42/61/136
f 21/62/137 27/63/138 45/58/139 44/77/140
f 27/63/141 26/59/142 42/61/143 45/58/144
f 29/46/145 4/48/146 66/101/147 67/100/148
f 30/45/149 29/46/150 67/100/151 65/49/152
f 28/44/153 30/45/154 65/49/155 61/50/156
f 31/41/157 32/51/158 49/79/159 35/78/160
f 49/79/161 32/51/162 9/52/163 58/98/164
f 19/55/165 18/43/166 34/32/167 37/80/168
f 16/66/169 11/67/170 51/81/171 50/11/172
f 18/64/173 17/65/174 50/11/175 34/47/176
f 17/65/177 16/66/178 50/11/179
f 14/17/180 31/18/181 35/83/182 48/82/183
f 12/14/184 13/15/185 47/85/186 52/84/187
f 10/13/188 12/14/189 52/84/190 53/86/191
f 11/12/192 10/13/193 53/86/194 51/81/195
f 1/53/196 33/56/197 38/54/198 36/87/199
f 34/32/200 35/78/201 55/42/202 54/19/203
f 35/78/204 49/79/205 55/42/206
f 56/92/207 54/1/208 55/3/209
