# This file uses centimeters as units for non-parametric coordinates.

v -0.000000 -20.000000 0.000000
v 0.000000 20.000000 0.000000
v 12.000000 -20.000000 0.000000
v -12.000000 -20.000000 0.000000
v -6.208872 20.000000 -0.000000
v 6.208872 20.000000 0.000000
v 14.420254 16.666075 -0.000000
v 20.000000 6.171200 0.000000
v -14.420254 16.666075 0.000000
v -20.000000 6.171200 0.000000
v 12.000000 2.046952 -0.000000
v -12.000000 2.046952 -0.000000
v 0.000000 16.228838 1.015578
v -0.407547 19.047039 1.015578
v 4.498455 17.252275 1.015578
v 6.015429 19.376883 1.015578
v -6.015429 19.376883 1.015578
v -4.498455 17.252275 1.015578
v -12.972086 15.039388 1.984422
v -17.867117 6.451043 1.984422
v -10.741627 2.522313 1.984422
v -5.147037 15.950483 1.984422
v 0.272985 14.971804 1.984422
v 10.741627 2.522313 1.984422
v 5.147037 16.277746 1.984422
v 12.707137 14.696900 1.984422
v 17.366959 6.166793 1.984422
v -6.450994 17.876451 1.984422
v -10.508226 -18.258980 1.984422
v 0.000000 -18.007736 1.984422
v 10.508226 -18.258980 1.984422
v 6.450994 17.876451 1.984422
v 12.000000 -16.609262 -0.000000
v 10.535053 -15.870440 1.984422
v 0.000000 -15.456516 1.984422
v -10.196177 -14.991635 1.984422
v -12.000000 -16.609262 -0.000000
v 18.727337 8.564933 -0.000000
v 16.750628 8.409924 1.984422
v -18.727337 8.564933 0.000000
v -16.487019 8.345129 1.984422
v 10.730580 5.078512 1.984422
v -10.730580 5.078512 1.984422
v -0.000000 16.228838 -1.015578
v -0.407547 19.047039 -1.015578
v 4.498455 17.252275 -1.015578
v 6.015429 19.376883 -1.015578
v -6.015429 19.376883 -1.015578
v -4.498455 17.252275 -1.015578
v -12.972086 15.039388 -1.984422
v -17.867117 6.451043 -1.984422
v -10.741627 2.522313 -1.984422
v -5.147037 15.950483 -1.984422
v 0.272985 14.971804 -1.984422
v 10.741627 2.522313 -1.984422
v 5.147037 16.277746 -1.984422
v 12.707137 14.696900 -1.984422
v 17.366959 6.166793 -1.984422
v -6.450994 17.876451 -1.984422
v -10.508226 -18.258980 -1.984422
v -0.000000 -18.007736 -1.984422
v 10.508226 -18.258980 -1.984422
v 6.450994 17.876451 -1.984422
v 10.535053 -15.870440 -1.984422
v -0.000000 -15.456516 -1.984422
v -10.196177 -14.991635 -1.984422
v 16.750628 8.409924 -1.984422
v -16.487019 8.345129 -1.984422
v 10.730580 5.078512 -1.984422
v -10.730580 5.078512 -1.984422
vt 0.077100 0.921784
vt 0.076055 0.951042
vt 0.077561 0.921810
vt 0.077559 0.921912
vt 0.076208 0.951041
vt 0.076054 0.951123
vt 0.075901 0.951043
vt 0.076169 0.951096
vt 0.075940 0.951097
vt 0.075698 0.951126
vt 0.077745 0.918519
vt 0.076411 0.951123
vt 0.077893 0.918604
vt 0.075761 0.951483
vt 0.076346 0.951484
vt 0.075901 0.951043
vt 0.076055 0.951042
vt 0.076208 0.951041
vt 0.076411 0.951123
vt 0.077892 0.918669
vt 0.076350 0.951488
vt 0.076054 0.951123
vt 0.076169 0.951096
vt 0.075940 0.951097
vt 0.075757 0.951487
vt 0.077718 0.918568
vt 0.075698 0.951127
vt 0.076208 0.951041
vt 0.077100 0.921893
vt 0.076647 0.921794
vt 0.076649 0.921895
vt 0.075901 0.951043
vt 0.075752 0.951970
vt 0.075756 0.951969
vt 0.076052 0.951929
vt 0.076349 0.951974
vt 0.076353 0.951976
vt 0.077606 0.921844
vt 0.077604 0.921949
vt 0.077100 0.921938
vt 0.076606 0.921929
vt 0.076606 0.921826
vt 0.075587 0.951335
vt 0.075587 0.951334
vt 0.076521 0.951334
vt 0.076521 0.951333
vt 0.075745 0.951414
vt 0.076363 0.951413
vt 0.078695 0.918576
vt 0.078484 0.918682
vt 0.078449 0.918674
vt 0.078643 0.918570
vt 0.077884 0.918676
vt 0.077695 0.918574
vt 0.077725 0.918516
vt 0.078612 0.918518
vt 0.078660 0.918514
vt 0.078448 0.918606
vt 0.076411 0.951123
vt 0.076521 0.951333
vt 0.076363 0.951413
vt 0.076055 0.951042
vt 0.076054 0.951123
vt 0.075940 0.951097
vt 0.075901 0.951043
vt 0.076208 0.951041
vt 0.076169 0.951096
vt 0.076350 0.951488
vt 0.076054 0.951123
vt 0.076169 0.951096
vt 0.075940 0.951097
vt 0.075757 0.951487
vt 0.075745 0.951414
vt 0.077745 0.918519
vt 0.077893 0.918604
vt 0.077892 0.918669
vt 0.077718 0.918568
vt 0.076208 0.951041
vt 0.077100 0.921784
vt 0.077561 0.921810
vt 0.077559 0.921912
vt 0.077100 0.921893
vt 0.076647 0.921794
vt 0.076649 0.921895
vt 0.075901 0.951043
vt 0.076055 0.951042
vt 0.076208 0.951041
vt 0.076411 0.951123
vt 0.075698 0.951126
vt 0.076521 0.951334
vt 0.078695 0.918576
vt 0.078484 0.918682
vt 0.078449 0.918674
vt 0.078643 0.918570
vt 0.077884 0.918676
vt 0.077695 0.918574
vt 0.077725 0.918516
vt 0.077606 0.921844
vt 0.077604 0.921949
vt 0.077100 0.921938
vt 0.076606 0.921929
vt 0.076606 0.921826
vt 0.075901 0.951043
vt 0.075698 0.951127
vt 0.075756 0.951969
vt 0.075752 0.951970
vt 0.075761 0.951483
vt 0.076052 0.951929
vt 0.076349 0.951974
vt 0.076346 0.951484
vt 0.076353 0.951976
vt 0.075587 0.951334
vt 0.075587 0.951335
vt 0.078612 0.918518
vt 0.078660 0.918514
vt 0.078448 0.918606
vn 0.000000 0.000000 1.000000
vn 0.000000 0.000000 1.000000
vn 0.000000 0.000000 1.000000
vn -0.000000 0.000000 1.000000
vn -0.000000 0.000000 1.000000
vn -0.000000 0.000000 1.000000
vn -0.000000 0.000000 1.000000
vn 0.000000 0.000000 1.000000
vn 0.000000 0.000000 1.000000
vn 0.000000 0.000000 1.000000
vn 0.000000 0.000000 1.000000
vn 0.000000 0.000000 1.000000
vn 0.000000 0.000000 1.000000
vn 0.000000 0.000000 1.000000
vn 0.000000 0.000000 1.000000
vn 0.000000 0.000000 1.000000
vn 0.000000 0.000000 1.000000
vn 0.000000 0.000000 1.000000
vn 0.000000 0.000000 1.000000
vn 0.000000 0.000000 1.000000
vn 0.000000 0.000000 1.000000
vn 0.000000 0.000000 1.000000
vn 0.000000 0.000000 1.000000
vn -0.000000 0.000000 1.000000
vn -0.000000 0.000000 1.000000
vn -0.000000 0.000000 1.000000
vn -0.000000 0.000000 1.000000
vn 0.000000 0.000000 1.000000
vn 0.000000 0.000000 1.000000
vn 0.000000 0.000000 1.000000
vn 0.000000 0.000000 1.000000
vn -0.000000 0.000000 1.000000
vn -0.000000 0.000000 1.000000
vn -0.000000 0.000000 1.000000
vn -0.000000 0.000000 1.000000
vn -0.020703 0.792839 0.609080
vn -0.020703 0.792839 0.609080
vn -0.020703 0.792839 0.609080
vn -0.020703 0.792839 0.609080
vn 0.022016 0.788734 0.614341
vn 0.022016 0.788734 0.614341
vn 0.022016 0.788734 0.614341
vn 0.022016 0.788734 0.614341
vn -0.316832 0.780350 0.539140
vn -0.316832 0.780350 0.539140
vn -0.316832 0.780350 0.539140
vn 0.316832 0.780349 0.539141
vn 0.316832 0.780349 0.539141
vn 0.316832 0.780349 0.539141
vn -0.613037 0.324099 0.720518
vn -0.613037 0.324099 0.720518
vn -0.613037 0.324099 0.720518
vn -0.613037 0.324099 0.720518
vn -0.408369 -0.767019 0.494890
vn -0.408369 -0.767019 0.494890
vn -0.408369 -0.767019 0.494890
vn -0.408369 -0.767019 0.494890
vn 0.118750 0.588287 0.799885
vn 0.118750 0.588287 0.799885
vn 0.118750 0.588287 0.799885
vn 0.118750 0.588287 0.799885
vn -0.151977 0.611495 0.776516
vn -0.151977 0.611495 0.776516
vn -0.151977 0.611495 0.776516
vn -0.151977 0.611495 0.776516
vn 0.408470 -0.768982 0.491751
vn 0.408470 -0.768982 0.491751
vn 0.408470 -0.768982 0.491751
vn 0.408470 -0.768982 0.491751
vn 0.625821 0.254950 0.737122
vn 0.625821 0.254950 0.737122
vn 0.625821 0.254950 0.737122
vn 0.625821 0.254950 0.737122
vn -0.277439 0.610642 0.741717
vn -0.277439 0.610642 0.741717
vn -0.277439 0.610642 0.741717
vn -0.277439 0.610642 0.741717
vn 0.503830 0.350881 0.789328
vn 0.503830 0.350881 0.789328
vn 0.503830 0.350881 0.789328
vn 0.503830 0.350881 0.789328
vn -0.783883 0.036739 0.619820
vn -0.783883 0.036739 0.619820
vn -0.783883 0.036739 0.619820
vn -0.783883 0.036739 0.619820
vn 0.008147 -0.729895 0.683511
vn 0.008147 -0.729895 0.683511
vn 0.008147 -0.729895 0.683511
vn 0.008147 -0.729895 0.683511
vn -0.008147 -0.729895 0.683511
vn -0.008147 -0.729895 0.683511
vn -0.008147 -0.729895 0.683511
vn -0.008147 -0.729895 0.683511
vn 0.800807 -0.003717 0.598910
vn 0.800807 -0.003717 0.598910
vn 0.800807 -0.003717 0.598910
vn 0.800807 -0.003717 0.598910
vn -0.505953 0.383331 0.772702
vn -0.505953 0.383331 0.772702
vn -0.505953 0.383331 0.772702
vn -0.505953 0.383331 0.772702
vn 0.279264 0.560682 0.779517
vn 0.279264 0.560682 0.779517
vn 0.279264 0.560682 0.779517
vn 0.279264 0.560682 0.779517
vn 0.823887 -0.004594 0.566736
vn 0.823887 -0.004594 0.566736
vn 0.823887 -0.004594 0.566736
vn 0.823887 -0.004594 0.566736
vn 0.000000 0.000000 1.000000
vn 0.000000 0.000000 1.000000
vn 0.000000 0.000000 1.000000
vn 0.000000 0.000000 1.000000
vn 0.000000 0.000000 1.000000
vn 0.000000 0.000000 1.000000
vn 0.000000 0.000000 1.000000
vn 0.000000 0.000000 1.000000
vn -0.788633 -0.011893 0.614749
vn -0.788633 -0.011893 0.614749
vn -0.788633 -0.011893 0.614749
vn -0.788633 -0.011893 0.614749
vn 0.589742 0.342275 0.731472
vn 0.589742 0.342275 0.731472
vn 0.589742 0.342275 0.731472
vn 0.589742 0.342275 0.731472
vn -0.623012 0.385441 0.680655
vn -0.623012 0.385441 0.680655
vn -0.623012 0.385441 0.680655
vn -0.623012 0.385441 0.680655
vn 0.000000 0.000000 1.000000
vn 0.000000 0.000000 1.000000
vn 0.000000 0.000000 1.000000
vn 0.000000 0.000000 1.000000
vn 0.000000 0.000000 1.000000
vn 0.000000 0.000000 1.000000
vn 0.000000 0.000000 1.000000
vn -0.000000 0.000000 1.000000
vn -0.000000 0.000000 1.000000
vn -0.000000 0.000000 1.000000
vn -0.000000 0.000000 1.000000
vn 0.000000 0.000000 -1.000000
vn 0.000000 0.000000 -1.000000
vn 0.000000 0.000000 -1.000000
vn -0.000000 0.000000 -1.000000
vn -0.000000 0.000000 -1.000000
vn -0.000000 0.000000 -1.000000
vn -0.000000 0.000000 -1.000000
vn 0.000000 0.000000 -1.000000
vn 0.000000 0.000000 -1.000000
vn 0.000000 0.000000 -1.000000
vn 0.000000 0.000000 -1.000000
vn 0.000000 0.000000 -1.000000
vn 0.000000 0.000000 -1.000000
vn 0.000000 0.000000 -1.000000
vn 0.000000 0.000000 -1.000000
vn 0.000000 0.000000 -1.000000
vn 0.000000 0.000000 -1.000000
vn 0.000000 0.000000 -1.000000
vn 0.000000 0.000000 -1.000000
vn 0.000000 0.000000 -1.000000
vn 0.000000 0.000000 -1.000000
vn 0.000000 0.000000 -1.000000
vn 0.000000 0.000000 -1.000000
vn 0.000000 0.000000 -1.000000
vn 0.000000 0.000000 -1.000000
vn 0.000000 0.000000 -1.000000
vn 0.000000 0.000000 -1.000000
vn 0.000000 0.000000 -1.000000
vn 0.000000 0.000000 -1.000000
vn 0.000000 0.000000 -1.000000
vn 0.000000 0.000000 -1.000000
vn -0.000000 0.000000 -1.000000
vn -0.000000 0.000000 -1.000000
vn -0.000000 0.000000 -1.000000
vn -0.000000 0.000000 -1.000000
vn -0.020703 0.792838 -0.609080
vn -0.020703 0.792838 -0.609080
vn -0.020703 0.792838 -0.609080
vn -0.020703 0.792838 -0.609080
vn 0.022016 0.788734 -0.614340
vn 0.022016 0.788734 -0.614340
vn 0.022016 0.788734 -0.614340
vn 0.022016 0.788734 -0.614340
vn -0.316832 0.780349 -0.539141
vn -0.316832 0.780349 -0.539141
vn -0.316832 0.780349 -0.539141
vn 0.316832 0.780349 -0.539141
vn 0.316832 0.780349 -0.539141
vn 0.316832 0.780349 -0.539141
vn -0.613037 0.324099 -0.720518
vn -0.613037 0.324099 -0.720518
vn -0.613037 0.324099 -0.720518
vn -0.613037 0.324099 -0.720518
vn -0.408369 -0.767019 -0.494890
vn -0.408369 -0.767019 -0.494890
vn -0.408369 -0.767019 -0.494890
vn -0.408369 -0.767019 -0.494890
vn 0.118750 0.588287 -0.799885
vn 0.118750 0.588287 -0.799885
vn 0.118750 0.588287 -0.799885
vn 0.118750 0.588287 -0.799885
vn -0.151977 0.611495 -0.776516
vn -0.151977 0.611495 -0.776516
vn -0.151977 0.611495 -0.776516
vn -0.151977 0.611495 -0.776516
vn 0.408470 -0.768982 -0.491751
vn 0.408470 -0.768982 -0.491751
vn 0.408470 -0.768982 -0.491751
vn 0.408470 -0.768982 -0.491751
vn 0.625821 0.254951 -0.737122
vn 0.625821 0.254951 -0.737122
vn 0.625821 0.254951 -0.737122
vn 0.625821 0.254951 -0.737122
vn -0.277439 0.610642 -0.741717
vn -0.277439 0.610642 -0.741717
vn -0.277439 0.610642 -0.741717
vn -0.277439 0.610642 -0.741717
vn 0.503830 0.350881 -0.789328
vn 0.503830 0.350881 -0.789328
vn 0.503830 0.350881 -0.789328
vn 0.503830 0.350881 -0.789328
vn -0.783883 0.036739 -0.619820
vn -0.783883 0.036739 -0.619820
vn -0.783883 0.036739 -0.619820
vn -0.783883 0.036739 -0.619820
vn 0.008147 -0.729895 -0.683511
vn 0.008147 -0.729895 -0.683511
vn 0.008147 -0.729895 -0.683511
vn 0.008147 -0.729895 -0.683511
vn -0.008147 -0.729895 -0.683511
vn -0.008147 -0.729895 -0.683511
vn -0.008147 -0.729895 -0.683511
vn -0.008147 -0.729895 -0.683511
vn 0.800807 -0.003717 -0.598910
vn 0.800807 -0.003717 -0.598910
vn 0.800807 -0.003717 -0.598910
vn 0.800807 -0.003717 -0.598910
vn -0.505953 0.383331 -0.772703
vn -0.505953 0.383331 -0.772703
vn -0.505953 0.383331 -0.772703
vn -0.505953 0.383331 -0.772703
vn 0.279264 0.560682 -0.779517
vn 0.279264 0.560682 -0.779517
vn 0.279264 0.560682 -0.779517
vn 0.279264 0.560682 -0.779517
vn 0.823887 -0.004594 -0.566736
vn 0.823887 -0.004594 -0.566736
vn 0.823887 -0.004594 -0.566736
vn 0.823887 -0.004594 -0.566736
vn 0.000000 0.000000 -1.000000
vn 0.000000 0.000000 -1.000000
vn 0.000000 0.000000 -1.000000
vn 0.000000 0.000000 -1.000000
vn 0.000000 0.000000 -1.000000
vn 0.000000 0.000000 -1.000000
vn 0.000000 0.000000 -1.000000
vn 0.000000 0.000000 -1.000000
vn -0.788633 -0.011893 -0.614749
vn -0.788633 -0.011893 -0.614749
vn -0.788633 -0.011893 -0.614749
vn -0.788633 -0.011893 -0.614749
vn 0.589742 0.342275 -0.731473
vn 0.589742 0.342275 -0.731473
vn 0.589742 0.342275 -0.731473
vn 0.589742 0.342275 -0.731473
vn -0.623012 0.385441 -0.680655
vn -0.623012 0.385441 -0.680655
vn -0.623012 0.385441 -0.680655
vn -0.623012 0.385441 -0.680655
vn 0.000000 0.000000 -1.000000
vn 0.000000 0.000000 -1.000000
vn 0.000000 0.000000 -1.000000
vn 0.000000 0.000000 -1.000000
vn 0.000000 0.000000 -1.000000
vn 0.000000 0.000000 -1.000000
vn 0.000000 0.000000 -1.000000
vn -0.000000 0.000000 -1.000000
vn -0.000000 0.000000 -1.000000
vn -0.000000 0.000000 -1.000000
vn -0.000000 0.000000 -1.000000
s off
f 19/19/1 41/46/2 43/48/3
f 14/17/4 13/6/5 15/9/6 16/16/7
f 17/18/8 18/8/9 13/6/10 14/17/11
f 21/21/12 23/22/13 22/23/14 43/48/15
f 25/24/16 23/22/17 24/25/18 42/47/19
f 39/11/20 42/13/21 24/20/22 27/26/23
f 28/28/24 19/19/25 43/48/26 22/23/27
f 35/1/28 36/3/29 29/4/30 30/29/31
f 34/30/32 35/1/33 30/29/34 31/31/35
f 6/7/36 2/2/37 14/17/38 16/16/39
f 2/2/40 5/5/41 17/18/42 14/17/43
f 5/5/44 9/12/45 17/18/46
f 7/10/47 6/7/48 16/16/49
f 9/12/50 40/45/51 41/46/52 19/19/53
f 10/49/54 12/50/55 21/51/56 20/52/57
f 13/6/58 18/8/59 22/23/60 23/22/61
f 15/9/62 13/6/63 23/22/64 25/24/65
f 11/53/66 8/54/67 27/26/68 24/20/69
f 8/54/70 38/55/71 39/11/72 27/26/73
f 17/18/74 9/12/75 19/19/76 28/28/77
f 18/8/78 17/18/79 28/28/80 22/23/81
f 36/3/82 37/38/83 4/39/84 29/4/85
f 4/39/86 1/40/87 30/29/88 29/4/89
f 1/40/90 3/41/91 31/31/92 30/29/93
f 3/41/94 33/42/95 34/30/96 31/31/97
f 16/16/98 15/9/99 25/24/100 32/32/101
f 7/10/102 16/16/103 32/32/104 26/27/105
f 34/34/106 33/33/107 11/14/108 24/25/109
f 24/25/110 23/22/111 35/35/112 34/34/113
f 23/22/114 21/21/115 36/36/116 35/35/117
f 12/15/118 37/37/119 36/36/120 21/21/121
f 39/44/122 38/43/123 7/10/124 26/27/125
f 41/56/126 40/57/127 10/49/128 20/52/129
f 26/27/130 42/47/131 39/44/132
f 32/32/133 25/24/134 42/47/135 26/27/136
f 43/58/137 41/56/138 20/52/139 21/51/140
f 50/59/141 70/61/142 68/60/143
f 45/62/144 47/65/145 46/64/146 44/63/147
f 48/66/148 45/62/149 44/63/150 49/67/151
f 52/68/152 70/61/153 53/70/154 54/69/155
f 56/71/156 69/73/157 55/72/158 54/69/159
f 67/74/160 58/77/161 55/76/162 69/75/163
f 59/78/164 53/70/165 70/61/166 50/59/167
f 65/79/168 61/82/169 60/81/170 66/80/171
f 64/83/172 62/84/173 61/82/174 65/79/175
f 6/85/176 47/65/177 45/62/178 2/86/179
f 2/86/180 45/62/181 48/66/182 5/87/183
f 5/87/184 48/66/185 9/88/186
f 7/89/187 47/65/188 6/85/189
f 9/88/190 50/59/191 68/60/192 40/90/193
f 10/91/194 51/94/195 52/93/196 12/92/197
f 44/63/198 54/69/199 53/70/200 49/67/201
f 46/64/202 56/71/203 54/69/204 44/63/205
f 11/95/206 55/76/207 58/77/208 8/96/209
f 8/96/210 58/77/211 67/74/212 38/97/213
f 48/66/214 59/78/215 50/59/216 9/88/217
f 49/67/218 53/70/219 59/78/220 48/66/221
f 66/80/222 60/81/223 4/99/224 37/98/225
f 4/99/226 60/81/227 61/82/228 1/100/229
f 1/100/230 61/82/231 62/84/232 3/101/233
f 3/101/234 62/84/235 64/83/236 33/102/237
f 47/65/238 63/103/239 56/71/240 46/64/241
f 7/89/242 57/104/243 63/103/244 47/65/245
f 64/105/246 55/72/247 11/107/248 33/106/249
f 55/72/250 64/105/251 65/108/252 54/69/253
f 54/69/254 65/108/255 66/109/256 52/68/257
f 12/110/258 52/68/259 66/109/260 37/111/261
f 67/112/262 57/104/263 7/89/264 38/113/265
f 68/114/266 51/94/267 10/91/268 40/115/269
f 57/104/270 67/112/271 69/73/272
f 63/103/273 57/104/274 69/73/275 56/71/276
f 70/116/277 52/93/278 51/94/279 68/114/280
