# This file uses centimeters as units for non-parametric coordinates.

v -0.982513 19.365948 -0.000000
v -8.011490 17.295094 -0.000000
v -11.395065 12.171553 0.000000
v -12.233124 5.922108 -0.000000
v -9.669952 -2.639771 -0.000000
v -1.119461 -5.948648 -0.000000
v 1.571884 -5.480567 -0.000000
v 1.574585 -5.480099 0.000000
v 1.121368 -9.992682 -0.000000
v -0.174088 -11.239183 -0.000000
v -0.790787 -10.739317 0.000000
v -1.227722 -6.918384 -0.000000
v -12.039719 -6.918384 0.000000
v -9.087418 -17.234232 0.000000
v -0.152435 -20.569708 0.000000
v 7.851395 -18.174059 0.000000
v 11.436661 -11.227001 -0.000000
v 12.233124 -0.566961 -0.000000
v 11.357574 10.299040 0.000000
v 7.478561 17.121620 0.000000
v -0.510223 10.187405 0.000000
v 1.154617 9.077396 0.000000
v 1.714142 3.287498 0.000000
v 1.558289 3.194672 0.000000
v -0.270432 2.796209 -0.000000
v -2.229111 3.620785 -0.000000
v -2.640518 6.248938 0.000000
v -2.125412 9.277372 0.000000
v -0.688247 16.921518 4.000000
v -6.508010 15.640239 4.000000
v -9.313532 11.756789 4.000000
v -10.645681 5.732658 4.000000
v -8.332329 -1.577310 4.000000
v -0.889044 -3.882209 4.000000
v 1.019038 -3.241557 4.000000
v 4.029672 -1.700537 4.000000
v 3.023866 -10.845400 4.000000
v -0.101833 -14.103581 4.000000
v -3.149878 -12.226460 4.000000
v -3.405093 -8.708848 4.000000
v -8.941609 -8.565074 4.000000
v -7.645626 -15.579404 4.000000
v -0.534159 -18.195080 4.000000
v 6.122111 -16.306776 4.000000
v 9.741974 -10.832438 4.000000
v 10.221973 -0.741082 4.000000
v 9.567505 9.208769 4.000000
v 6.617673 15.267936 4.000000
v -0.286967 12.366547 4.000000
v 3.189888 10.403910 4.000000
v 4.138817 2.584791 4.000000
v 1.871572 0.896233 4.000000
v -0.481290 0.306490 4.000000
v -4.019203 1.827951 4.000000
v -5.134251 6.434233 4.000000
v -3.541835 10.510687 4.000000
v -1.392581 16.826435 -4.000000
v -6.608168 15.538071 -4.000000
v -9.895211 11.044867 -4.000000
v -10.692425 5.674480 -4.000000
v -8.457253 -0.775775 -4.000000
v -0.417163 -3.711147 -4.000000
v 1.382658 -3.786017 -4.000000
v 3.487257 -2.560466 -4.000000
v 3.340285 -10.486917 -4.000000
v -0.367616 -13.912733 -4.000000
v -2.755532 -11.421069 -4.000000
v -3.362412 -9.201097 -4.000000
v -9.827122 -9.107461 -4.000000
v -7.904408 -15.679911 -4.000000
v 0.191541 -17.994411 -4.000000
v 6.022671 -16.861151 -4.000000
v 9.920788 -11.169540 -4.000000
v 10.299456 -0.736052 -4.000000
v 9.425148 9.613475 -4.000000
v 6.653363 15.238751 -4.000000
v -0.274704 12.286775 -4.000000
v 3.224132 10.346105 -4.000000
v 4.000430 2.161278 -4.000000
v 2.027916 1.172394 -4.000000
v -0.532214 0.640895 -4.000000
v -4.097276 2.134825 -4.000000
v -4.761761 6.622837 -4.000000
v -3.963906 11.050458 -4.000000
vt 0.014978 0.949418
vt 0.015211 0.949513
vt 0.015135 0.949636
vt 0.014942 0.949557
vt 0.015316 0.949669
vt 0.015222 0.949761
vt 0.015333 0.949832
vt 0.015239 0.949901
vt 0.015240 0.950023
vt 0.015162 0.950063
vt 0.014979 0.950051
vt 0.014941 0.950086
vt 0.014899 0.950026
vt 0.014867 0.950063
vt 0.014899 0.950026
vt 0.014793 0.950018
vt 0.014913 0.950128
vt 0.014824 0.950220
vt 0.014951 0.950162
vt 0.014916 0.950301
vt 0.014969 0.950155
vt 0.014994 0.950271
vt 0.014982 0.950073
vt 0.015004 0.950211
vt 0.015307 0.950133
vt 0.015196 0.950247
vt 0.015207 0.950337
vt 0.015132 0.950381
vt 0.014950 0.950356
vt 0.014917 0.950396
vt 0.014725 0.950264
vt 0.014729 0.950319
vt 0.014616 0.950099
vt 0.014636 0.950179
vt 0.014578 0.949856
vt 0.014600 0.949947
vt 0.014589 0.949594
vt 0.014611 0.949701
vt 0.014702 0.949434
vt 0.014708 0.949569
vt 0.014962 0.949660
vt 0.014909 0.949680
vt 0.014813 0.949722
vt 0.014925 0.949681
vt 0.014893 0.949820
vt 0.014793 0.949917
vt 0.014898 0.949823
vt 0.014841 0.949947
vt 0.014954 0.949843
vt 0.014927 0.949977
vt 0.015015 0.949834
vt 0.015039 0.949961
vt 0.015029 0.949771
vt 0.015061 0.949866
vt 0.015013 0.949692
vt 0.015039 0.949753
vt 0.015011 0.949395
vt 0.015198 0.949472
vt 0.015281 0.949595
vt 0.015296 0.949735
vt 0.015220 0.949897
vt 0.015004 0.949922
vt 0.014933 0.949900
vt 0.014861 0.949856
vt 0.014889 0.950058
vt 0.014978 0.950138
vt 0.015054 0.950106
vt 0.015064 0.950046
vt 0.015251 0.950080
vt 0.015188 0.950215
vt 0.014978 0.950232
vt 0.014795 0.950158
vt 0.014706 0.950019
vt 0.014674 0.949788
vt 0.014688 0.949542
vt 0.014784 0.949409
vt 0.014993 0.949519
vt 0.014884 0.949561
vt 0.014862 0.949755
vt 0.014909 0.949785
vt 0.014992 0.949813
vt 0.015101 0.949797
vt 0.015123 0.949701
vt 0.015103 0.949589
vn -0.220956 0.846926 0.483627
vn -0.220956 0.846926 0.483627
vn -0.220956 0.846926 0.483627
vn -0.220956 0.846926 0.483627
vn -0.732466 0.503310 0.458445
vn -0.732466 0.503310 0.458445
vn -0.732466 0.503310 0.458445
vn -0.732466 0.503310 0.458445
vn -0.892990 0.157898 0.421470
vn -0.892990 0.157898 0.421470
vn -0.892990 0.157898 0.421470
vn -0.892990 0.157898 0.421470
vn -0.893096 -0.274398 0.356490
vn -0.893096 -0.274398 0.356490
vn -0.893096 -0.274398 0.356490
vn -0.893096 -0.274398 0.356490
vn -0.303815 -0.865577 0.398087
vn -0.303815 -0.865577 0.398087
vn -0.303815 -0.865577 0.398087
vn -0.303815 -0.865577 0.398087
vn 0.206836 -0.858029 0.470111
vn 0.206836 -0.858029 0.470111
vn 0.206836 -0.858029 0.470111
vn 0.206836 -0.858029 0.470111
vn 0.397110 -0.776279 0.489586
vn 0.397110 -0.776279 0.489586
vn 0.397110 -0.776279 0.489586
vn 0.397110 -0.776279 0.489586
vn -0.888386 0.094906 0.449180
vn -0.888386 0.094906 0.449180
vn -0.888386 0.094906 0.449180
vn -0.888386 0.094906 0.449180
vn -0.637929 0.626100 0.448380
vn -0.637929 0.626100 0.448380
vn -0.637929 0.626100 0.448380
vn -0.637929 0.626100 0.448380
vn 0.464164 0.715630 0.521945
vn 0.464164 0.715630 0.521945
vn 0.464164 0.715630 0.521945
vn 0.464164 0.715630 0.521945
vn 0.852565 0.080411 0.516398
vn 0.852565 0.080411 0.516398
vn 0.852565 0.080411 0.516398
vn 0.852565 0.080411 0.516398
vn 0.008083 0.919095 0.393954
vn 0.008083 0.919095 0.393954
vn 0.008083 0.919095 0.393954
vn 0.008083 0.919095 0.393954
vn -0.850512 -0.208493 0.482867
vn -0.850512 -0.208493 0.482867
vn -0.850512 -0.208493 0.482867
vn -0.850512 -0.208493 0.482867
vn -0.308720 -0.832420 0.460183
vn -0.308720 -0.832420 0.460183
vn -0.308720 -0.832420 0.460183
vn -0.308720 -0.832420 0.460183
vn 0.242318 -0.829237 0.503635
vn 0.242318 -0.829237 0.503635
vn 0.242318 -0.829237 0.503635
vn 0.242318 -0.829237 0.503635
vn 0.769931 -0.446605 0.455797
vn 0.769931 -0.446605 0.455797
vn 0.769931 -0.446605 0.455797
vn 0.769931 -0.446605 0.455797
vn 0.905380 -0.055692 0.420934
vn 0.905380 -0.055692 0.420934
vn 0.905380 -0.055692 0.420934
vn 0.905380 -0.055692 0.420934
vn 0.897178 0.065945 0.436719
vn 0.897178 0.065945 0.436719
vn 0.897178 0.065945 0.436719
vn 0.897178 0.065945 0.436719
vn 0.801109 0.424682 0.421744
vn 0.801109 0.424682 0.421744
vn 0.801109 0.424682 0.421744
vn 0.801109 0.424682 0.421744
vn 0.211299 0.854703 0.474167
vn 0.211299 0.854703 0.474167
vn 0.211299 0.854703 0.474167
vn 0.211299 0.854703 0.474167
vn -0.454939 -0.761284 0.462036
vn -0.454939 -0.761284 0.462036
vn -0.454939 -0.761284 0.462036
vn -0.454939 -0.761284 0.462036
vn -0.866200 -0.096011 0.490387
vn -0.866200 -0.096011 0.490387
vn -0.866200 -0.096011 0.490387
vn -0.866200 -0.096011 0.490387
vn -0.528735 0.719203 0.450761
vn -0.528735 0.719203 0.450761
vn -0.528735 0.719203 0.450761
vn -0.528735 0.719203 0.450761
vn -0.198479 0.839860 0.505214
vn -0.198479 0.839860 0.505214
vn -0.198479 0.839860 0.505214
vn -0.198479 0.839860 0.505214
vn 0.338017 0.791949 0.508490
vn 0.338017 0.791949 0.508490
vn 0.338017 0.791949 0.508490
vn 0.338017 0.791949 0.508490
vn 0.851731 0.179714 0.492196
vn 0.851731 0.179714 0.492196
vn 0.851731 0.179714 0.492196
vn 0.851731 0.179714 0.492196
vn 0.850927 -0.252410 0.460666
vn 0.850927 -0.252410 0.460666
vn 0.850927 -0.252410 0.460666
vn 0.850927 -0.252410 0.460666
vn 0.451265 -0.794566 0.406232
vn 0.451265 -0.794566 0.406232
vn 0.451265 -0.794566 0.406232
vn 0.451265 -0.794566 0.406232
vn -0.000000 0.000000 1.000000
vn -0.000000 0.000000 1.000000
vn -0.000000 0.000000 1.000000
vn -0.000000 0.000000 1.000000
vn -0.000000 0.000000 1.000000
vn -0.000000 0.000000 1.000000
vn -0.000000 0.000000 1.000000
vn -0.000000 0.000000 1.000000
vn -0.000000 0.000000 1.000000
vn -0.000000 0.000000 1.000000
vn -0.000000 0.000000 1.000000
vn -0.000000 0.000000 1.000000
vn -0.000000 0.000000 1.000000
vn -0.000000 0.000000 1.000000
vn -0.000000 0.000000 1.000000
vn -0.000000 0.000000 1.000000
vn -0.000000 0.000000 1.000000
vn -0.000000 0.000000 1.000000
vn -0.000000 0.000000 1.000000
vn -0.000000 0.000000 1.000000
vn -0.000000 0.000000 1.000000
vn -0.000000 0.000000 1.000000
vn -0.000000 0.000000 1.000000
vn -0.000000 0.000000 1.000000
vn -0.000000 0.000000 1.000000
vn -0.000000 0.000000 1.000000
vn -0.000000 0.000000 1.000000
vn -0.000000 0.000000 1.000000
vn -0.000000 0.000000 1.000000
vn -0.000000 0.000000 1.000000
vn -0.000000 0.000000 1.000000
vn -0.000000 0.000000 1.000000
vn -0.000000 0.000000 1.000000
vn -0.000000 0.000000 1.000000
vn -0.000000 0.000000 1.000000
vn -0.000000 0.000000 1.000000
vn -0.000000 0.000000 1.000000
vn -0.000000 0.000000 1.000000
vn -0.000000 0.000000 1.000000
vn -0.000000 0.000000 1.000000
vn -0.000000 0.000000 1.000000
vn -0.000000 0.000000 1.000000
vn -0.000000 0.000000 1.000000
vn -0.000000 0.000000 1.000000
vn -0.000000 0.000000 1.000000
vn -0.000000 0.000000 1.000000
vn -0.000000 0.000000 1.000000
vn -0.000000 0.000000 1.000000
vn -0.000000 0.000000 1.000000
vn -0.000000 0.000000 1.000000
vn -0.000000 0.000000 1.000000
vn -0.000000 0.000000 1.000000
vn -0.000000 0.000000 1.000000
vn -0.000000 0.000000 1.000000
vn -0.000000 0.000000 1.000000
vn -0.000000 0.000000 1.000000
vn -0.000000 0.000000 1.000000
vn -0.000000 0.000000 1.000000
vn -0.000000 0.000000 1.000000
vn -0.000000 0.000000 1.000000
vn -0.000000 0.000000 1.000000
vn -0.000000 0.000000 1.000000
vn -0.231743 0.844716 -0.482442
vn -0.231743 0.844716 -0.482442
vn -0.231743 0.844716 -0.482442
vn -0.231743 0.844716 -0.482442
vn -0.733861 0.509040 -0.449807
vn -0.733861 0.509040 -0.449807
vn -0.733861 0.509040 -0.449807
vn -0.733861 0.509040 -0.449807
vn -0.919321 0.129377 -0.371631
vn -0.919321 0.129377 -0.371631
vn -0.919321 0.129377 -0.371631
vn -0.919321 0.129377 -0.371631
vn -0.887621 -0.283711 -0.362819
vn -0.887621 -0.283711 -0.362819
vn -0.887621 -0.283711 -0.362819
vn -0.887621 -0.283711 -0.362819
vn -0.306796 -0.815139 -0.491350
vn -0.306796 -0.815139 -0.491350
vn -0.306796 -0.815139 -0.491350
vn -0.306796 -0.815139 -0.491350
vn 0.078505 -0.896670 -0.435684
vn 0.078505 -0.896670 -0.435684
vn 0.078505 -0.896670 -0.435684
vn 0.078505 -0.896670 -0.435684
vn 0.468478 -0.805227 -0.363508
vn 0.468478 -0.805227 -0.363508
vn 0.468478 -0.805227 -0.363508
vn 0.468478 -0.805227 -0.363508
vn -0.892946 0.043085 -0.448098
vn -0.892946 0.043085 -0.448098
vn -0.892946 0.043085 -0.448098
vn -0.892946 0.043085 -0.448098
vn -0.619540 0.663435 -0.419553
vn -0.619540 0.663435 -0.419553
vn -0.619540 0.663435 -0.419553
vn -0.619540 0.663435 -0.419553
vn 0.634197 0.636971 -0.438250
vn 0.634197 0.636971 -0.438250
vn 0.634197 0.636971 -0.438250
vn 0.634197 0.636971 -0.438250
vn 0.856812 0.148050 -0.493917
vn 0.856812 0.148050 -0.493917
vn 0.856812 0.148050 -0.493917
vn 0.856812 0.148050 -0.493917
vn 0.004731 0.872898 -0.487881
vn 0.004731 0.872898 -0.487881
vn 0.004731 0.872898 -0.487881
vn 0.004731 0.872898 -0.487881
vn -0.896378 -0.258750 -0.359938
vn -0.896378 -0.258750 -0.359938
vn -0.896378 -0.258750 -0.359938
vn -0.896378 -0.258750 -0.359938
vn -0.275892 -0.831630 -0.481949
vn -0.275892 -0.831630 -0.481949
vn -0.275892 -0.831630 -0.481949
vn -0.275892 -0.831630 -0.481949
vn 0.219568 -0.860810 -0.459126
vn 0.219568 -0.860810 -0.459126
vn 0.219568 -0.860810 -0.459126
vn 0.219568 -0.860810 -0.459126
vn 0.785562 -0.465133 -0.408099
vn 0.785562 -0.465133 -0.408099
vn 0.785562 -0.465133 -0.408099
vn 0.785562 -0.465133 -0.408099
vn 0.917331 -0.051105 -0.394833
vn 0.917331 -0.051105 -0.394833
vn 0.917331 -0.051105 -0.394833
vn 0.917331 -0.051105 -0.394833
vn 0.894807 0.073804 -0.440311
vn 0.894807 0.073804 -0.440311
vn 0.894807 0.073804 -0.440311
vn 0.894807 0.073804 -0.440311
vn 0.802709 0.428881 -0.414390
vn 0.802709 0.428881 -0.414390
vn 0.802709 0.428881 -0.414390
vn 0.802709 0.428881 -0.414390
vn 0.196170 0.845036 -0.497424
vn 0.196170 0.845036 -0.497424
vn 0.196170 0.845036 -0.497424
vn 0.196170 0.845036 -0.497424
vn -0.453307 -0.767281 -0.453644
vn -0.453307 -0.767281 -0.453644
vn -0.453307 -0.767281 -0.453644
vn -0.453307 -0.767281 -0.453644
vn -0.874557 -0.083597 -0.477663
vn -0.874557 -0.083597 -0.477663
vn -0.874557 -0.083597 -0.477663
vn -0.874557 -0.083597 -0.477663
vn -0.404118 0.795140 -0.452152
vn -0.404118 0.795140 -0.452152
vn -0.404118 0.795140 -0.452152
vn -0.404118 0.795140 -0.452152
vn -0.184193 0.869280 -0.458722
vn -0.184193 0.869280 -0.458722
vn -0.184193 0.869280 -0.458722
vn -0.184193 0.869280 -0.458722
vn 0.342990 0.817160 -0.463257
vn 0.342990 0.817160 -0.463257
vn 0.342990 0.817160 -0.463257
vn 0.342990 0.817160 -0.463257
vn 0.879450 0.132964 -0.457044
vn 0.879450 0.132964 -0.457044
vn 0.879450 0.132964 -0.457044
vn 0.879450 0.132964 -0.457044
vn 0.868739 -0.152979 -0.471053
vn 0.868739 -0.152979 -0.471053
vn 0.868739 -0.152979 -0.471053
vn 0.868739 -0.152979 -0.471053
vn 0.332260 -0.821133 -0.464051
vn 0.332260 -0.821133 -0.464051
vn 0.332260 -0.821133 -0.464051
vn 0.332260 -0.821133 -0.464051
vn 0.000000 0.000000 -1.000000
vn 0.000000 0.000000 -1.000000
vn 0.000000 0.000000 -1.000000
vn 0.000000 0.000000 -1.000000
vn 0.000000 0.000000 -1.000000
vn 0.000000 0.000000 -1.000000
vn 0.000000 0.000000 -1.000000
vn 0.000000 0.000000 -1.000000
vn 0.000000 0.000000 -1.000000
vn 0.000000 0.000000 -1.000000
vn 0.000000 0.000000 -1.000000
vn 0.000000 0.000000 -1.000000
vn 0.000000 0.000000 -1.000000
vn 0.000000 0.000000 -1.000000
vn 0.000000 0.000000 -1.000000
vn 0.000000 0.000000 -1.000000
vn 0.000000 0.000000 -1.000000
vn 0.000000 0.000000 -1.000000
vn 0.000000 0.000000 -1.000000
vn 0.000000 0.000000 -1.000000
vn 0.000000 0.000000 -1.000000
vn 0.000000 0.000000 -1.000000
vn 0.000000 0.000000 -1.000000
vn 0.000000 0.000000 -1.000000
vn 0.000000 0.000000 -1.000000
vn 0.000000 0.000000 -1.000000
vn 0.000000 0.000000 -1.000000
vn 0.000000 0.000000 -1.000000
vn 0.000000 0.000000 -1.000000
vn 0.000000 0.000000 -1.000000
vn 0.000000 0.000000 -1.000000
vn 0.000000 0.000000 -1.000000
vn 0.000000 0.000000 -1.000000
vn 0.000000 0.000000 -1.000000
vn 0.000000 0.000000 -1.000000
vn 0.000000 0.000000 -1.000000
vn 0.000000 0.000000 -1.000000
vn 0.000000 0.000000 -1.000000
vn 0.000000 0.000000 -1.000000
vn 0.000000 0.000000 -1.000000
vn 0.000000 0.000000 -1.000000
vn 0.000000 0.000000 -1.000000
vn 0.000000 0.000000 -1.000000
vn 0.000000 0.000000 -1.000000
vn 0.000000 0.000000 -1.000000
vn 0.000000 0.000000 -1.000000
vn 0.000000 0.000000 -1.000000
vn 0.000000 0.000000 -1.000000
vn 0.000000 0.000000 -1.000000
vn 0.000000 0.000000 -1.000000
vn 0.000000 0.000000 -1.000000
vn 0.000000 0.000000 -1.000000
vn 0.000000 0.000000 -1.000000
vn 0.000000 0.000000 -1.000000
vn 0.000000 0.000000 -1.000000
vn 0.000000 0.000000 -1.000000
vn 0.000000 0.000000 -1.000000
vn 0.000000 0.000000 -1.000000
vn 0.000000 0.000000 -1.000000
vn 0.000000 0.000000 -1.000000
vn 0.000000 0.000000 -1.000000
vn 0.000000 0.000000 -1.000000
s off
f 1/1/1 2/2/2 30/3/3 29/4/4
f 2/2/5 3/5/6 31/6/7 30/3/8
f 3/5/9 4/7/10 32/8/11 31/6/12
f 4/7/13 5/9/14 33/10/15 32/8/16
f 5/9/17 6/11/18 34/12/19 33/10/20
f 6/11/21 7/13/22 35/14/23 34/12/24
f 7/13/25 8/15/26 36/16/27 35/14/28
f 8/15/29 9/17/30 37/18/31 36/16/32
f 9/17/33 10/19/34 38/20/35 37/18/36
f 10/19/37 11/21/38 39/22/39 38/20/40
f 11/21/41 12/23/42 40/24/43 39/22/44
f 12/23/45 13/25/46 41/26/47 40/24/48
f 13/25/49 14/27/50 42/28/51 41/26/52
f 14/27/53 15/29/54 43/30/55 42/28/56
f 15/29/57 16/31/58 44/32/59 43/30/60
f 16/31/61 17/33/62 45/34/63 44/32/64
f 17/33/65 18/35/66 46/36/67 45/34/68
f 18/35/69 19/37/70 47/38/71 46/36/72
f 19/37/73 20/39/74 48/40/75 47/38/76
f 20/39/77 1/1/78 29/4/79 48/40/80
f 21/41/81 22/42/82 50/43/83 49/44/84
f 22/42/85 23/45/86 51/46/87 50/43/88
f 23/45/89 24/47/90 52/48/91 51/46/92
f 24/47/93 25/49/94 53/50/95 52/48/96
f 25/49/97 26/51/98 54/52/99 53/50/100
f 26/51/101 27/53/102 55/54/103 54/52/104
f 27/53/105 28/55/106 56/56/107 55/54/108
f 28/55/109 21/41/110 49/44/111 56/56/112
f 40/24/113 41/26/114 42/28/115 39/22/116
f 39/22/117 42/28/118 43/30/119 38/20/120
f 43/30/121 44/32/122 38/20/123
f 37/18/124 38/20/125 44/32/126 45/34/127
f 36/16/128 37/18/129 45/34/130 46/36/131
f 36/16/132 46/36/133 47/38/134 51/46/135
f 32/8/136 33/10/137 34/12/138 35/14/139
f 32/8/140 35/14/141 54/52/142
f 54/52/143 35/14/144 53/50/145
f 54/52/146 55/54/147 32/8/148
f 31/6/149 32/8/150 55/54/151 56/56/152
f 31/6/153 56/56/154 30/3/155
f 29/4/156 30/3/157 56/56/158 49/44/159
f 48/40/160 29/4/161 49/44/162 50/43/163
f 47/38/164 48/40/165 50/43/166 51/46/167
f 51/46/168 52/48/169 36/16/170
f 35/14/171 36/16/172 52/48/173 53/50/174
f 1/1/175 57/57/176 58/58/177 2/2/178
f 2/2/179 58/58/180 59/59/181 3/5/182
f 3/5/183 59/59/184 60/60/185 4/7/186
f 4/7/187 60/60/188 61/61/189 5/9/190
f 5/9/191 61/61/192 62/62/193 6/11/194
f 6/11/195 62/62/196 63/63/197 7/13/198
f 7/13/199 63/63/200 64/64/201 8/15/202
f 8/15/203 64/64/204 65/65/205 9/17/206
f 9/17/207 65/65/208 66/66/209 10/19/210
f 10/19/211 66/66/212 67/67/213 11/21/214
f 11/21/215 67/67/216 68/68/217 12/23/218
f 12/23/219 68/68/220 69/69/221 13/25/222
f 13/25/223 69/69/224 70/70/225 14/27/226
f 14/27/227 70/70/228 71/71/229 15/29/230
f 15/29/231 71/71/232 72/72/233 16/31/234
f 16/31/235 72/72/236 73/73/237 17/33/238
f 17/33/239 73/73/240 74/74/241 18/35/242
f 18/35/243 74/74/244 75/75/245 19/37/246
f 19/37/247 75/75/248 76/76/249 20/39/250
f 20/39/251 76/76/252 57/57/253 1/1/254
f 21/41/255 77/77/256 78/78/257 22/42/258
f 22/42/259 78/78/260 79/79/261 23/45/262
f 23/45/263 79/79/264 80/80/265 24/47/266
f 24/47/267 80/80/268 81/81/269 25/49/270
f 25/49/271 81/81/272 82/82/273 26/51/274
f 26/51/275 82/82/276 83/83/277 27/53/278
f 27/53/279 83/83/280 84/84/281 28/55/282
f 28/55/283 84/84/284 77/77/285 21/41/286
f 70/70/287 69/69/288 68/68/289 67/67/290
f 71/71/291 70/70/292 67/67/293 66/66/294
f 72/72/295 71/71/296 66/66/297 65/65/298
f 72/72/299 65/65/300 73/73/301
f 74/74/302 73/73/303 65/65/304 64/64/305
f 75/75/306 74/74/307 64/64/308 79/79/309
f 57/57/310 76/76/311 75/75/312 78/78/313
f 78/78/314 77/77/315 57/57/316
f 78/78/317 75/75/318 79/79/319
f 79/79/320 64/64/321 80/80/322
f 58/58/323 57/57/324 77/77/325 84/84/326
f 58/58/327 84/84/328 59/59/329
f 59/59/330 84/84/331 83/83/332 60/60/333
f 61/61/334 60/60/335 83/83/336 82/82/337
f 62/62/338 61/61/339 82/82/340 81/81/341
f 62/62/342 81/81/343 63/63/344
f 63/63/345 81/81/346 80/80/347 64/64/348
