# This file uses centimeters as units for non-parametric coordinates.

v 11.013885 18.277618 -0.000000
v -10.980614 18.277618 0.000000
v -10.980614 -3.165884 0.000000
v -1.903831 -3.165884 -0.000000
v -1.542038 -2.018156 -0.000000
v -0.531502 -1.559675 -0.000000
v 0.777054 -2.447281 -0.000000
v 1.314117 -6.690269 -0.000000
v 0.981972 -10.665140 0.000000
v 0.085625 -11.239992 0.000000
v -0.728317 -10.578402 0.000000
v -1.273315 -6.869384 0.000000
v -12.080505 -6.869384 0.000000
v -8.935822 -17.195276 0.000000
v -0.576553 -20.504496 0.000000
v 7.145393 -18.935575 -0.000000
v 11.066689 -14.157070 0.000000
v 12.080505 -6.604465 -0.000000
v 9.400291 3.475845 -0.000000
v 2.199387 6.923859 0.000000
v -1.633278 6.153362 -0.000000
v -1.637115 6.152590 -0.000000
v -1.637115 8.334118 -0.000000
v 11.013885 8.334118 -0.000000
v 8.745998 15.963354 4.000000
v -8.662095 16.413769 4.000000
v -9.087261 -1.381411 4.000000
v -3.113677 -1.435694 4.000000
v -3.330236 -0.871778 4.000000
v -0.180334 0.495603 4.000000
v 2.164672 -0.937484 4.000000
v 3.284317 -6.871475 4.000000
v 2.752567 -12.135717 4.000000
v -0.241183 -13.343921 4.000000
v -3.046655 -11.955873 4.000000
v -2.928460 -8.493637 4.000000
v -9.209991 -9.273010 4.000000
v -7.489101 -15.423397 4.000000
v -0.284459 -18.036882 4.000000
v 5.750097 -16.775005 4.000000
v 8.680793 -13.754839 4.000000
v 9.980991 -7.100830 4.000000
v 7.646151 1.649069 4.000000
v 2.294931 5.118842 4.000000
v -0.948458 4.053169 4.000000
v -3.785784 3.011695 4.000000
v -3.441329 10.203760 4.000000
v 8.947947 9.889131 4.000000
v 8.797778 15.953843 -4.000000
v -9.354594 16.317192 -4.000000
v -9.078667 -1.124882 -4.000000
v -3.601663 -0.969014 -4.000000
v -3.234601 -0.935009 -4.000000
v -0.736998 1.050350 -4.000000
v 2.359073 -1.484622 -4.000000
v 2.845564 -6.522497 -4.000000
v 2.497383 -11.403482 -4.000000
v -0.208912 -13.243917 -4.000000
v -2.909553 -11.223045 -4.000000
v -3.409884 -8.757742 -4.000000
v -9.067870 -8.973193 -4.000000
v -6.828705 -15.772097 -4.000000
v -0.795858 -18.443605 -4.000000
v 5.699162 -17.372259 -4.000000
v 9.487164 -13.793979 -4.000000
v 10.448293 -7.152426 -4.000000
v 7.771308 2.130121 -4.000000
v 2.034291 4.818799 -4.000000
v -0.720163 4.565787 -4.000000
v -3.145899 2.683664 -4.000000
v -3.260696 9.971649 -4.000000
v 9.170354 9.853651 -4.000000
vt 0.014626 0.949408
vt 0.015333 0.949523
vt 0.015235 0.949647
vt 0.014652 0.949550
vt 0.015301 0.950050
vt 0.015216 0.950076
vt 0.015031 0.950001
vt 0.015045 0.950045
vt 0.015021 0.949973
vt 0.015039 0.950030
vt 0.014991 0.949957
vt 0.014953 0.949985
vt 0.014953 0.949971
vt 0.014864 0.950015
vt 0.014937 0.950062
vt 0.014847 0.950130
vt 0.014948 0.950149
vt 0.014862 0.950243
vt 0.014973 0.950165
vt 0.014946 0.950298
vt 0.014996 0.950156
vt 0.015020 0.950269
vt 0.015012 0.950079
vt 0.015032 0.950213
vt 0.015329 0.950137
vt 0.015220 0.950248
vt 0.015226 0.950336
vt 0.015154 0.950379
vt 0.014991 0.950357
vt 0.014957 0.950396
vt 0.014780 0.950285
vt 0.014776 0.950334
vt 0.014668 0.950168
vt 0.014685 0.950240
vt 0.014630 0.950003
vt 0.014652 0.950096
vt 0.014695 0.949789
vt 0.014710 0.949910
vt 0.014908 0.949744
vt 0.014883 0.949876
vt 0.015025 0.949782
vt 0.014975 0.949906
vt 0.015026 0.949783
vt 0.015054 0.949956
vt 0.015026 0.949729
vt 0.015057 0.949771
vt 0.014640 0.949663
vt 0.014660 0.949703
vt 0.014729 0.949395
vt 0.015294 0.949487
vt 0.015271 0.949914
vt 0.015105 0.949885
vt 0.015100 0.949870
vt 0.015017 0.949826
vt 0.014930 0.949857
vt 0.014911 0.949972
vt 0.014925 0.950084
vt 0.015007 0.950139
vt 0.015078 0.950109
vt 0.015091 0.950053
vt 0.015274 0.950086
vt 0.015208 0.950217
vt 0.015015 0.950236
vt 0.014840 0.950177
vt 0.014753 0.950084
vt 0.014722 0.949940
vt 0.014781 0.949753
vt 0.014950 0.949718
vt 0.015039 0.949747
vt 0.015115 0.949795
vt 0.015120 0.949612
vt 0.014735 0.949548
vn 0.010132 0.886375 0.462858
vn 0.010132 0.886375 0.462858
vn 0.010132 0.886375 0.462858
vn 0.010132 0.886375 0.462858
vn -0.884777 0.009587 0.465916
vn -0.884777 0.009587 0.465916
vn -0.884777 0.009587 0.465916
vn -0.884777 0.009587 0.465916
vn -0.003302 -0.915431 0.402461
vn -0.003302 -0.915431 0.402461
vn -0.003302 -0.915431 0.402461
vn -0.003302 -0.915431 0.402461
vn 0.923932 -0.078397 0.374438
vn 0.923932 -0.078397 0.374438
vn 0.923932 -0.078397 0.374438
vn 0.923932 -0.078397 0.374438
vn 0.368016 -0.838568 0.401707
vn 0.368016 -0.838568 0.401707
vn 0.368016 -0.838568 0.401707
vn 0.368016 -0.838568 0.401707
vn -0.480959 -0.757194 0.441967
vn -0.480959 -0.757194 0.441967
vn -0.480959 -0.757194 0.441967
vn -0.480959 -0.757194 0.441967
vn -0.903104 -0.147016 0.403473
vn -0.903104 -0.147016 0.403473
vn -0.903104 -0.147016 0.403473
vn -0.903104 -0.147016 0.403473
vn -0.895926 0.083773 0.436231
vn -0.895926 0.083773 0.436231
vn -0.895926 0.083773 0.436231
vn -0.895926 0.083773 0.436231
vn -0.375438 0.819095 0.433739
vn -0.375438 0.819095 0.433739
vn -0.375438 0.819095 0.433739
vn -0.375438 0.819095 0.433739
vn 0.433296 0.765148 0.476239
vn 0.433296 0.765148 0.476239
vn 0.433296 0.765148 0.476239
vn 0.433296 0.765148 0.476239
vn 0.886338 0.052751 0.460024
vn 0.886338 0.052751 0.460024
vn 0.886338 0.052751 0.460024
vn 0.886338 0.052751 0.460024
vn -0.040588 0.889952 0.454244
vn -0.040588 0.889952 0.454244
vn -0.040588 0.889952 0.454244
vn -0.040588 0.889952 0.454244
vn -0.859452 -0.253803 0.443764
vn -0.859452 -0.253803 0.443764
vn -0.859452 -0.253803 0.443764
vn -0.859452 -0.253803 0.443764
vn -0.308644 -0.811067 0.496899
vn -0.308644 -0.811067 0.496899
vn -0.308644 -0.811067 0.496899
vn -0.308644 -0.811067 0.496899
vn 0.173256 -0.841951 0.510980
vn 0.173256 -0.841951 0.510980
vn 0.173256 -0.841951 0.510980
vn 0.173256 -0.841951 0.510980
vn 0.653631 -0.574287 0.492911
vn 0.653631 -0.574287 0.492911
vn 0.653631 -0.574287 0.492911
vn 0.653631 -0.574287 0.492911
vn 0.864274 -0.140775 0.482921
vn 0.864274 -0.140775 0.482921
vn 0.864274 -0.140775 0.482921
vn 0.864274 -0.140775 0.482921
vn 0.850190 0.226431 0.475296
vn 0.850190 0.226431 0.475296
vn 0.850190 0.226431 0.475296
vn 0.850190 0.226431 0.475296
vn 0.432121 0.784071 0.445537
vn 0.432121 0.784071 0.445537
vn 0.432121 0.784071 0.445537
vn 0.432121 0.784071 0.445537
vn -0.224924 0.866791 0.445065
vn -0.224924 0.866791 0.445065
vn -0.224924 0.866791 0.445065
vn -0.224924 0.866791 0.445065
vn -0.301506 0.821904 0.483289
vn -0.301506 0.821904 0.483289
vn -0.301506 0.821904 0.483289
vn -0.301506 0.821904 0.483289
vn 0.898114 -0.033003 0.438523
vn 0.898114 -0.033003 0.438523
vn 0.898114 -0.033003 0.438523
vn 0.898114 -0.033003 0.438523
vn -0.011576 -0.921260 0.388775
vn -0.011576 -0.921260 0.388775
vn -0.011576 -0.921260 0.388775
vn -0.011576 -0.921260 0.388775
vn 0.878775 0.011079 0.477109
vn 0.878775 0.011079 0.477109
vn 0.878775 0.011079 0.477109
vn 0.878775 0.011079 0.477109
vn -0.000000 0.000000 1.000000
vn -0.000000 0.000000 1.000000
vn -0.000000 0.000000 1.000000
vn -0.000000 0.000000 1.000000
vn -0.000000 0.000000 1.000000
vn -0.000000 0.000000 1.000000
vn -0.000000 0.000000 1.000000
vn -0.000000 0.000000 1.000000
vn -0.000000 0.000000 1.000000
vn -0.000000 0.000000 1.000000
vn -0.000000 0.000000 1.000000
vn -0.000000 0.000000 1.000000
vn -0.000000 0.000000 1.000000
vn -0.000000 0.000000 1.000000
vn -0.000000 0.000000 1.000000
vn -0.000000 0.000000 1.000000
vn -0.000000 0.000000 1.000000
vn -0.000000 0.000000 1.000000
vn -0.000000 0.000000 1.000000
vn -0.000000 0.000000 1.000000
vn -0.000000 0.000000 1.000000
vn -0.000000 0.000000 1.000000
vn -0.000000 0.000000 1.000000
vn -0.000000 0.000000 1.000000
vn -0.000000 0.000000 1.000000
vn -0.000000 0.000000 1.000000
vn -0.000000 0.000000 1.000000
vn -0.000000 0.000000 1.000000
vn -0.000000 0.000000 1.000000
vn -0.000000 0.000000 1.000000
vn -0.000000 0.000000 1.000000
vn -0.000000 0.000000 1.000000
vn -0.000000 0.000000 1.000000
vn -0.000000 0.000000 1.000000
vn -0.000000 0.000000 1.000000
vn -0.000000 0.000000 1.000000
vn -0.000000 0.000000 1.000000
vn -0.000000 0.000000 1.000000
vn -0.000000 0.000000 1.000000
vn -0.000000 0.000000 1.000000
vn -0.000000 0.000000 1.000000
vn -0.000000 0.000000 1.000000
vn -0.000000 0.000000 1.000000
vn -0.000000 0.000000 1.000000
vn -0.000000 0.000000 1.000000
vn -0.000000 0.000000 1.000000
vn -0.000000 0.000000 1.000000
vn -0.000000 0.000000 1.000000
vn 0.007976 0.881276 -0.472534
vn 0.007976 0.881276 -0.472534
vn 0.007976 0.881276 -0.472534
vn 0.007976 0.881276 -0.472534
vn -0.914935 -0.006492 -0.403548
vn -0.914935 -0.006492 -0.403548
vn -0.914935 -0.006492 -0.403548
vn -0.914935 -0.006492 -0.403548
vn 0.009465 -0.883731 -0.467901
vn 0.009465 -0.883731 -0.467901
vn 0.009465 -0.883731 -0.467901
vn 0.009465 -0.883731 -0.467901
vn 0.737552 -0.454899 -0.499083
vn 0.737552 -0.454899 -0.499083
vn 0.737552 -0.454899 -0.499083
vn 0.737552 -0.454899 -0.499083
vn 0.508290 -0.729652 -0.457437
vn 0.508290 -0.729652 -0.457437
vn 0.508290 -0.729652 -0.457437
vn 0.508290 -0.729652 -0.457437
vn -0.557808 -0.717861 -0.416565
vn -0.557808 -0.717861 -0.416565
vn -0.557808 -0.717861 -0.416565
vn -0.557808 -0.717861 -0.416565
vn -0.922139 -0.101700 -0.373252
vn -0.922139 -0.101700 -0.373252
vn -0.922139 -0.101700 -0.373252
vn -0.922139 -0.101700 -0.373252
vn -0.930421 0.071477 -0.359455
vn -0.930421 0.071477 -0.359455
vn -0.930421 0.071477 -0.359455
vn -0.930421 0.071477 -0.359455
vn -0.522306 0.779072 -0.346762
vn -0.522306 0.779072 -0.346762
vn -0.522306 0.779072 -0.346762
vn -0.522306 0.779072 -0.346762
vn 0.553081 0.724651 -0.411074
vn 0.553081 0.724651 -0.411074
vn 0.553081 0.724651 -0.411074
vn 0.553081 0.724651 -0.411074
vn 0.851039 0.144083 -0.504948
vn 0.851039 0.144083 -0.504948
vn 0.851039 0.144083 -0.504948
vn 0.851039 0.144083 -0.504948
vn -0.011701 0.894204 -0.447508
vn -0.011701 0.894204 -0.447508
vn -0.011701 0.894204 -0.447508
vn -0.011701 0.894204 -0.447508
vn -0.823420 -0.258874 -0.504939
vn -0.823420 -0.258874 -0.504939
vn -0.823420 -0.258874 -0.504939
vn -0.823420 -0.258874 -0.504939
vn -0.344225 -0.828348 -0.441982
vn -0.344225 -0.828348 -0.441982
vn -0.344225 -0.828348 -0.441982
vn -0.344225 -0.828348 -0.441982
vn 0.164389 -0.885182 -0.435235
vn 0.164389 -0.885182 -0.435235
vn 0.164389 -0.885182 -0.435235
vn 0.164389 -0.885182 -0.435235
vn 0.672448 -0.620346 -0.403713
vn 0.672448 -0.620346 -0.403713
vn 0.672448 -0.620346 -0.403713
vn 0.672448 -0.620346 -0.403713
vn 0.921370 -0.128197 -0.366937
vn 0.921370 -0.128197 -0.366937
vn 0.921370 -0.128197 -0.366937
vn 0.921370 -0.128197 -0.366937
vn 0.876919 0.242621 -0.414907
vn 0.876919 0.242621 -0.414907
vn 0.876919 0.242621 -0.414907
vn 0.876919 0.242621 -0.414907
vn 0.385469 0.812681 -0.436994
vn 0.385469 0.812681 -0.436994
vn 0.385469 0.812681 -0.436994
vn 0.385469 0.812681 -0.436994
vn -0.138931 0.894133 -0.425704
vn -0.138931 0.894133 -0.425704
vn -0.138931 0.894133 -0.425704
vn -0.138931 0.894133 -0.425704
vn -0.557778 0.719723 -0.413379
vn -0.557778 0.719723 -0.413379
vn -0.557778 0.719723 -0.413379
vn -0.557778 0.719723 -0.413379
vn 0.930228 0.011277 -0.366808
vn 0.930228 0.011277 -0.366808
vn 0.930228 0.011277 -0.366808
vn 0.930228 0.011277 -0.366808
vn -0.004379 -0.930826 -0.365437
vn -0.004379 -0.930826 -0.365437
vn -0.004379 -0.930826 -0.365437
vn -0.004379 -0.930826 -0.365437
vn 0.890721 0.020685 -0.454080
vn 0.890721 0.020685 -0.454080
vn 0.890721 0.020685 -0.454080
vn 0.890721 0.020685 -0.454080
vn -0.000000 0.000000 -1.000000
vn -0.000000 0.000000 -1.000000
vn -0.000000 0.000000 -1.000000
vn -0.000000 0.000000 -1.000000
vn -0.000000 0.000000 -1.000000
vn -0.000000 0.000000 -1.000000
vn -0.000000 0.000000 -1.000000
vn -0.000000 0.000000 -1.000000
vn -0.000000 0.000000 -1.000000
vn -0.000000 0.000000 -1.000000
vn -0.000000 0.000000 -1.000000
vn -0.000000 0.000000 -1.000000
vn -0.000000 0.000000 -1.000000
vn -0.000000 0.000000 -1.000000
vn -0.000000 0.000000 -1.000000
vn -0.000000 0.000000 -1.000000
vn -0.000000 0.000000 -1.000000
vn -0.000000 0.000000 -1.000000
vn -0.000000 0.000000 -1.000000
vn -0.000000 0.000000 -1.000000
vn -0.000000 0.000000 -1.000000
vn -0.000000 0.000000 -1.000000
vn -0.000000 0.000000 -1.000000
vn -0.000000 0.000000 -1.000000
vn -0.000000 0.000000 -1.000000
vn -0.000000 0.000000 -1.000000
vn -0.000000 0.000000 -1.000000
vn -0.000000 0.000000 -1.000000
vn -0.000000 0.000000 -1.000000
vn -0.000000 0.000000 -1.000000
vn -0.000000 0.000000 -1.000000
vn -0.000000 0.000000 -1.000000
vn -0.000000 0.000000 -1.000000
vn -0.000000 0.000000 -1.000000
vn -0.000000 0.000000 -1.000000
vn -0.000000 0.000000 -1.000000
vn -0.000000 0.000000 -1.000000
vn -0.000000 0.000000 -1.000000
vn -0.000000 0.000000 -1.000000
vn -0.000000 0.000000 -1.000000
vn -0.000000 0.000000 -1.000000
vn -0.000000 0.000000 -1.000000
vn -0.000000 0.000000 -1.000000
vn -0.000000 0.000000 -1.000000
vn -0.000000 0.000000 -1.000000
vn -0.000000 0.000000 -1.000000
s off
f 1/1/1 2/2/2 26/3/3 25/4/4
f 2/2/5 3/5/6 27/6/7 26/3/8
f 3/5/9 4/7/10 28/8/11 27/6/12
f 4/7/13 5/9/14 29/10/15 28/8/16
f 5/9/17 6/11/18 30/12/19 29/10/20
f 6/11/21 7/13/22 31/14/23 30/12/24
f 7/13/25 8/15/26 32/16/27 31/14/28
f 8/15/29 9/17/30 33/18/31 32/16/32
f 9/17/33 10/19/34 34/20/35 33/18/36
f 10/19/37 11/21/38 35/22/39 34/20/40
f 11/21/41 12/23/42 36/24/43 35/22/44
f 12/23/45 13/25/46 37/26/47 36/24/48
f 13/25/49 14/27/50 38/28/51 37/26/52
f 14/27/53 15/29/54 39/30/55 38/28/56
f 15/29/57 16/31/58 40/32/59 39/30/60
f 16/31/61 17/33/62 41/34/63 40/32/64
f 17/33/65 18/35/66 42/36/67 41/34/68
f 18/35/69 19/37/70 43/38/71 42/36/72
f 19/37/73 20/39/74 44/40/75 43/38/76
f 20/39/77 21/41/78 45/42/79 44/40/80
f 21/41/81 22/43/82 46/44/83 45/42/84
f 22/43/85 23/45/86 47/46/87 46/44/88
f 23/45/89 24/47/90 48/48/91 47/46/92
f 24/47/93 1/1/94 25/4/95 48/48/96
f 28/8/97 29/10/98 27/6/99
f 35/22/100 36/24/101 37/26/102 38/28/103
f 35/22/104 38/28/105 39/30/106 34/20/107
f 34/20/108 39/30/109 40/32/110 33/18/111
f 40/32/112 41/34/113 33/18/114
f 26/3/115 27/6/116 29/10/117 46/44/118
f 33/18/119 41/34/120 42/36/121 32/16/122
f 32/16/123 42/36/124 43/38/125 31/14/126
f 31/14/127 43/38/128 44/40/129 30/12/130
f 44/40/131 45/42/132 30/12/133
f 30/12/134 45/42/135 46/44/136 29/10/137
f 46/44/138 47/46/139 26/3/140
f 25/4/141 26/3/142 47/46/143 48/48/144
f 1/1/145 49/49/146 50/50/147 2/2/148
f 2/2/149 50/50/150 51/51/151 3/5/152
f 3/5/153 51/51/154 52/52/155 4/7/156
f 4/7/157 52/52/158 53/53/159 5/9/160
f 5/9/161 53/53/162 54/54/163 6/11/164
f 6/11/165 54/54/166 55/55/167 7/13/168
f 7/13/169 55/55/170 56/56/171 8/15/172
f 8/15/173 56/56/174 57/57/175 9/17/176
f 9/17/177 57/57/178 58/58/179 10/19/180
f 10/19/181 58/58/182 59/59/183 11/21/184
f 11/21/185 59/59/186 60/60/187 12/23/188
f 12/23/189 60/60/190 61/61/191 13/25/192
f 13/25/193 61/61/194 62/62/195 14/27/196
f 14/27/197 62/62/198 63/63/199 15/29/200
f 15/29/201 63/63/202 64/64/203 16/31/204
f 16/31/205 64/64/206 65/65/207 17/33/208
f 17/33/209 65/65/210 66/66/211 18/35/212
f 18/35/213 66/66/214 67/67/215 19/37/216
f 19/37/217 67/67/218 68/68/219 20/39/220
f 20/39/221 68/68/222 69/69/223 21/41/224
f 21/41/225 69/69/226 70/70/227 22/43/228
f 22/43/229 70/70/230 71/71/231 23/45/232
f 23/45/233 71/71/234 72/72/235 24/47/236
f 24/47/237 72/72/238 49/49/239 1/1/240
f 62/62/241 61/61/242 60/60/243 59/59/244
f 63/63/245 62/62/246 59/59/247 58/58/248
f 64/64/249 63/63/250 58/58/251 57/57/252
f 64/64/253 57/57/254 65/65/255
f 66/66/256 65/65/257 57/57/258 56/56/259
f 67/67/260 66/66/261 56/56/262 55/55/263
f 68/68/264 67/67/265 55/55/266 54/54/267
f 69/69/268 68/68/269 54/54/270 70/70/271
f 70/70/272 54/54/273 53/53/274 52/52/275
f 49/49/276 72/72/277 71/71/278 50/50/279
f 51/51/280 50/50/281 71/71/282 70/70/283
f 70/70/284 52/52/285 51/51/286
