# This file uses centimeters as units for non-parametric coordinates.

v -10.700459 11.679321 0.000000
v -5.084419 7.721619 0.000000
v 6.300529 -0.958069 0.000000
v 13.311745 -0.758362 0.000000
v -12.492119 10.050720 0.000000
v -10.828899 6.412231 0.000000
v -11.091263 -0.200928 0.000000
v -13.673790 -7.619385 0.000000
v -12.673462 -14.007751 0.000000
v -6.719723 -17.974121 0.000000
v -1.949989 -18.941772 0.000000
v 3.285950 -16.218506 0.000000
v 7.138832 -6.573364 0.000000
v 13.673798 -3.472229 0.000000
v 10.273384 10.709290 0.000000
v 10.160866 14.007141 0.000000
v 8.576454 17.228821 0.000000
v 5.148705 18.941833 0.000000
v 1.368706 18.294006 0.000000
v -1.868973 15.427185 0.000000
v -4.368835 6.700684 -2.000000
v -1.248329 2.601013 -2.000000
v -0.725235 -1.454041 -2.000000
v -2.066078 -8.741821 -2.000000
v 1.485504 -4.480103 -2.000000
v 4.228333 -2.325867 -2.000000
v 11.940567 -1.669556 -2.000000
v -6.380608 -17.156799 -2.000000
v -2.663681 -17.724670 -2.000000
v 1.790764 -15.192627 -2.000000
v 6.252823 -5.871521 -2.000000
v 12.100945 -3.112305 -2.000000
v 9.221413 10.970398 -2.000000
v 9.093094 13.660400 -2.000000
v 7.729156 16.399963 -2.000000
v 4.641174 17.597961 -2.000000
v 2.197006 17.029175 -2.000000
v -0.326561 14.909485 -2.000000
v -2.092461 -1.976379 -4.000000
v -9.085094 -0.979492 -4.000000
v -11.443470 -7.709839 -4.000000
v -3.285919 -8.026367 -4.000000
v -10.650284 -13.054932 -4.000000
v -6.987610 -15.570251 -4.000000
v -10.437107 9.632813 -4.000000
v -11.344299 8.801941 -4.000000
v -9.824280 5.784119 -4.000000
v -2.558380 1.780457 -4.000000
v -4.944214 5.969299 -4.000000
v -3.841537 10.717407 0.000000
v -3.125443 9.821411 -2.000000
v -2.818207 13.169739 0.000000
v -2.101463 12.433899 -2.000000
v 1.330040 9.685669 -2.000000
v -0.524391 7.955872 -2.000000
v 7.048798 1.091492 0.000000
v 8.169807 4.161926 0.000000
v 5.973793 1.891907 -2.000000
v 7.083641 4.573792 -2.000000
v 3.253754 3.967712 -2.000000
v 4.499268 5.928101 -2.000000
v 5.210068 13.099731 -2.000000
v 8.841881 8.170349 -2.000000
v 9.837166 7.820129 0.000000
v 4.897041 10.358643 -2.000000
v -4.368835 6.700684 2.000000
v -1.248329 2.601013 2.000000
v -0.725235 -1.454041 2.000000
v -2.066078 -8.741821 2.000000
v 1.485504 -4.480103 2.000000
v 4.228333 -2.325867 2.000000
v 11.940567 -1.669556 2.000000
v -6.380608 -17.156799 2.000000
v -2.663681 -17.724670 2.000000
v 1.790764 -15.192627 2.000000
v 6.252823 -5.871521 2.000000
v 12.100945 -3.112305 2.000000
v 9.221413 10.970398 2.000000
v 9.093094 13.660400 2.000000
v 7.729156 16.399963 2.000000
v 4.641174 17.597961 2.000000
v 2.197006 17.029175 2.000000
v -0.326561 14.909485 2.000000
v -2.092461 -1.976379 4.000000
v -9.085094 -0.979492 4.000000
v -11.443470 -7.709839 4.000000
v -3.285919 -8.026367 4.000000
v -10.650284 -13.054932 4.000000
v -6.987610 -15.570251 4.000000
v -10.437107 9.632813 4.000000
v -11.344299 8.801941 4.000000
v -9.824280 5.784119 4.000000
v -2.558380 1.780457 4.000000
v -4.944214 5.969299 4.000000
v -3.125443 9.821411 2.000000
v -2.101463 12.433899 2.000000
v 1.330040 9.685669 2.000000
v -0.524391 7.955872 2.000000
v 5.973793 1.891907 2.000000
v 7.083641 4.573792 2.000000
v 3.253754 3.967712 2.000000
v 4.499268 5.928101 2.000000
v 5.210068 13.099731 2.000000
v 8.841881 8.170349 2.000000
v 4.897041 10.358643 2.000000
vt 0.200838 0.982458
vt 0.201296 0.982754
vt 0.200857 0.982804
vt 0.328148 0.952077
vt 0.328213 0.951959
vt 0.328346 0.952098
vt 0.328326 0.952137
vt 0.201270 0.982854
vt 0.200929 0.982936
vt 0.201165 0.982980
vt 0.201041 0.982997
vt 0.328065 0.951949
vt 0.328009 0.951788
vt 0.328186 0.951645
vt 0.327975 0.951497
vt 0.328087 0.951523
vt 0.327963 0.952018
vt 0.327727 0.951938
vt 0.327731 0.951710
vt 0.328000 0.951793
vt 0.327813 0.951559
vt 0.327949 0.951527
vt 0.327570 0.952241
vt 0.327551 0.952206
vt 0.327631 0.952132
vt 0.327775 0.952190
vt 0.327770 0.952210
vt 0.327541 0.952280
vt 0.328337 0.952170
vt 0.328149 0.952095
vt 0.327965 0.951480
vt 0.328107 0.951505
vt 0.328223 0.951638
vt 0.328229 0.951947
vt 0.328374 0.952099
vt 0.201324 0.982288
vt 0.201326 0.982310
vt 0.171948 0.984230
vt 0.201283 0.982850
vt 0.201167 0.982987
vt 0.201023 0.983008
vt 0.200897 0.982939
vt 0.200818 0.982796
vt 0.200812 0.982476
vt 0.327658 0.951698
vt 0.327655 0.951937
vt 0.328009 0.951788
vt 0.327970 0.952027
vt 0.327754 0.951526
vt 0.327975 0.951497
vt 0.327965 0.951480
vt 0.327507 0.952215
vt 0.327593 0.952129
vt 0.327912 0.952124
vt 0.327908 0.952109
vt 0.327749 0.952224
vt 0.201021 0.982347
vt 0.201095 0.982223
vt 0.201217 0.982123
vt 0.201145 0.981916
vt 0.171446 0.984061
vt 0.200843 0.982544
vt 0.200815 0.982657
vt 0.171481 0.984160
vt 0.201036 0.982565
vt 0.200942 0.982514
vt 0.201325 0.982393
vt 0.171956 0.984022
vt 0.171950 0.983956
vt 0.171945 0.984059
vt 0.201222 0.982448
vt 0.201224 0.982526
vt 0.201149 0.982780
vt 0.201309 0.982650
vt 0.201323 0.982615
vt 0.201123 0.982669
vt 0.171941 0.984156
vt 0.171956 0.984121
vt 0.171755 0.984175
vt 0.171772 0.984284
vt 0.171928 0.984260
vt 0.201315 0.982724
vt 0.201313 0.982553
vt 0.201324 0.982516
vt 0.171857 0.984032
vt 0.171855 0.983954
vt 0.201317 0.982450
vt 0.171957 0.983899
vt 0.171475 0.984050
vt 0.171574 0.984020
vt 0.171669 0.984071
vt 0.200849 0.982654
vt 0.171448 0.984163
vt 0.200814 0.982555
vt 0.171928 0.984260
vt 0.171772 0.984284
vt 0.171755 0.984175
vt 0.171941 0.984156
vt 0.328148 0.952077
vt 0.328213 0.951959
vt 0.328346 0.952098
vt 0.328326 0.952137
vt 0.200929 0.982936
vt 0.201270 0.982854
vt 0.201165 0.982980
vt 0.201041 0.982997
vt 0.328065 0.951949
vt 0.328009 0.951788
vt 0.328186 0.951645
vt 0.327975 0.951497
vt 0.328087 0.951523
vt 0.327963 0.952018
vt 0.327727 0.951938
vt 0.327731 0.951710
vt 0.328000 0.951793
vt 0.327813 0.951559
vt 0.327949 0.951527
vt 0.327570 0.952241
vt 0.327551 0.952206
vt 0.327631 0.952132
vt 0.327775 0.952190
vt 0.327770 0.952210
vt 0.327541 0.952280
vt 0.328337 0.952170
vt 0.328149 0.952095
vt 0.327965 0.951480
vt 0.328107 0.951505
vt 0.328223 0.951638
vt 0.328229 0.951947
vt 0.328374 0.952099
vt 0.201325 0.982393
vt 0.201317 0.982450
vt 0.201324 0.982288
vt 0.201326 0.982310
vt 0.201283 0.982850
vt 0.201167 0.982987
vt 0.201023 0.983008
vt 0.200897 0.982939
vt 0.200857 0.982804
vt 0.200818 0.982796
vt 0.200815 0.982657
vt 0.200849 0.982654
vt 0.327658 0.951698
vt 0.327655 0.951937
vt 0.328009 0.951788
vt 0.327970 0.952027
vt 0.327754 0.951526
vt 0.327975 0.951497
vt 0.327965 0.951480
vt 0.327507 0.952215
vt 0.327593 0.952129
vt 0.327912 0.952124
vt 0.327908 0.952109
vt 0.327749 0.952224
vt 0.201021 0.982347
vt 0.201095 0.982223
vt 0.201217 0.982123
vt 0.201145 0.981916
vt 0.200838 0.982458
vt 0.200843 0.982544
vt 0.200814 0.982555
vt 0.200812 0.982476
vt 0.171446 0.984061
vt 0.171475 0.984050
vt 0.171481 0.984160
vt 0.171448 0.984163
vt 0.171574 0.984020
vt 0.171669 0.984071
vt 0.200942 0.982514
vt 0.171956 0.984121
vt 0.171948 0.984230
vt 0.171945 0.984059
vt 0.171857 0.984032
vt 0.171855 0.983954
vt 0.171950 0.983956
vt 0.171956 0.984022
vt 0.171957 0.983899
vt 0.201296 0.982754
vt 0.201315 0.982724
vt 0.201149 0.982780
vt 0.201123 0.982669
vt 0.201036 0.982565
vt 0.201323 0.982615
vt 0.201309 0.982650
vt 0.201313 0.982553
vt 0.201324 0.982516
vt 0.201222 0.982448
vt 0.201224 0.982526
vn 0.000000 -0.000000 -1.000000
vn 0.000000 -0.000000 -1.000000
vn 0.000000 -0.000000 -1.000000
vn 0.000000 -0.000000 -1.000000
vn 0.000000 0.000000 -1.000000
vn 0.000000 0.000000 -1.000000
vn 0.000000 0.000000 -1.000000
vn 0.000000 0.000000 -1.000000
vn 0.000000 0.000000 -1.000000
vn 0.000000 0.000000 -1.000000
vn 0.000000 0.000000 -1.000000
vn 0.000000 0.000000 -1.000000
vn 0.000000 0.000000 -1.000000
vn 0.000000 0.000000 -1.000000
vn 0.000000 0.000000 -1.000000
vn 0.000000 0.000000 -1.000000
vn 0.000000 0.000000 -1.000000
vn 0.000000 0.000000 -1.000000
vn 0.000000 0.000000 -1.000000
vn 0.000000 0.000000 -1.000000
vn 0.000000 0.000000 -1.000000
vn 0.000000 0.000000 -1.000000
vn 0.000000 0.000000 -1.000000
vn 0.000000 0.000000 -1.000000
vn 0.000000 0.000000 -1.000000
vn 0.000000 0.000000 -1.000000
vn 0.000000 0.000000 -1.000000
vn 0.000000 0.000000 -1.000000
vn 0.000000 0.000000 -1.000000
vn 0.000000 0.000000 -1.000000
vn 0.000000 0.000000 -1.000000
vn 0.000000 0.000000 -1.000000
vn 0.000000 0.000000 -1.000000
vn 0.000000 0.000000 -1.000000
vn 0.000000 0.000000 -1.000000
vn 0.501302 0.774967 -0.384866
vn 0.501302 0.774967 -0.384866
vn 0.501302 0.774967 -0.384866
vn 0.501302 0.774967 -0.384866
vn -0.051520 0.886148 -0.460530
vn -0.051520 0.886148 -0.460530
vn -0.051520 0.886148 -0.460530
vn -0.051520 0.886148 -0.460530
vn -0.160271 -0.885799 -0.435515
vn -0.160271 -0.885799 -0.435515
vn -0.160271 -0.885799 -0.435515
vn -0.160271 -0.885799 -0.435515
vn 0.380251 -0.701154 -0.603151
vn 0.380252 -0.701154 -0.603151
vn 0.380251 -0.701154 -0.603151
vn 0.380251 -0.701154 -0.603151
vn 0.743727 -0.326055 -0.583573
vn 0.743727 -0.326055 -0.583573
vn 0.743727 -0.326055 -0.583573
vn 0.743727 -0.326055 -0.583573
vn 0.382166 -0.807528 -0.449275
vn 0.382166 -0.807528 -0.449275
vn 0.382166 -0.807528 -0.449275
vn 0.382166 -0.807528 -0.449275
vn 0.794727 0.099886 -0.598692
vn 0.794727 0.099886 -0.598692
vn 0.794727 0.099886 -0.598692
vn 0.794727 0.099886 -0.598692
vn 0.768834 -0.305914 -0.561526
vn 0.768834 -0.305914 -0.561526
vn 0.768834 -0.305914 -0.561526
vn 0.768834 -0.305914 -0.561526
vn 0.782266 0.386898 -0.488232
vn 0.782266 0.386898 -0.488232
vn 0.782266 0.386898 -0.488232
vn 0.782266 0.386898 -0.488232
vn 0.344489 0.771072 -0.535514
vn 0.344489 0.771072 -0.535514
vn 0.344489 0.771072 -0.535514
vn 0.344489 0.771072 -0.535514
vn -0.160443 0.820822 -0.548187
vn -0.160443 0.820822 -0.548187
vn -0.160443 0.820822 -0.548187
vn -0.160443 0.820822 -0.548187
vn -0.529885 0.612211 -0.586872
vn -0.529885 0.612211 -0.586872
vn -0.529885 0.612211 -0.586872
vn -0.529885 0.612211 -0.586872
vn -0.728061 0.419042 -0.542523
vn -0.728061 0.419042 -0.542523
vn -0.728061 0.419042 -0.542523
vn -0.728061 0.419042 -0.542523
vn -0.832179 0.290605 -0.472257
vn -0.832179 0.290605 -0.472257
vn -0.832179 0.290605 -0.472257
vn -0.832179 0.290605 -0.472257
vn 0.825809 -0.156911 -0.541681
vn 0.825809 -0.156911 -0.541681
vn 0.825809 -0.156911 -0.541681
vn 0.825809 -0.156911 -0.541681
vn -0.869122 -0.132849 -0.476422
vn -0.869122 -0.132849 -0.476422
vn -0.869122 -0.132849 -0.476422
vn -0.869122 -0.132849 -0.476422
vn -0.509402 -0.750041 -0.421839
vn -0.509402 -0.750041 -0.421839
vn -0.509402 -0.750041 -0.421839
vn -0.509402 -0.750041 -0.421839
vn 0.743600 -0.373514 -0.554568
vn 0.743600 -0.373514 -0.554568
vn 0.743600 -0.373514 -0.554568
vn 0.743600 -0.373514 -0.554568
vn -0.620291 0.680664 -0.389790
vn -0.620291 0.680664 -0.389790
vn -0.620291 0.680664 -0.389790
vn -0.620291 0.680664 -0.389790
vn -0.893246 -0.427176 -0.140112
vn -0.893247 -0.427176 -0.140112
vn -0.893247 -0.427176 -0.140112
vn -0.893247 -0.427176 -0.140112
vn -0.937314 -0.033411 -0.346882
vn -0.937314 -0.033411 -0.346882
vn -0.937314 -0.033411 -0.346882
vn -0.937314 -0.033411 -0.346882
vn 0.810382 0.102597 -0.576849
vn 0.810382 0.102597 -0.576849
vn 0.810382 0.102597 -0.576849
vn 0.810382 0.102597 -0.576849
vn 0.711940 0.472966 -0.519082
vn 0.711940 0.472966 -0.519082
vn 0.711940 0.472966 -0.519082
vn 0.711940 0.472966 -0.519082
vn 0.000000 0.000000 -1.000000
vn 0.000000 0.000000 -1.000000
vn 0.000000 0.000000 -1.000000
vn 0.000000 0.000000 -1.000000
vn 0.000000 0.000000 -1.000000
vn -0.509937 -0.742543 -0.434274
vn -0.509937 -0.742543 -0.434274
vn -0.509937 -0.742543 -0.434274
vn 0.563617 0.799781 -0.206605
vn 0.563617 0.799781 -0.206605
vn 0.563617 0.799781 -0.206605
vn 0.000000 0.000000 -1.000000
vn 0.000000 0.000000 -1.000000
vn 0.000000 0.000000 -1.000000
vn 0.000000 0.000000 -1.000000
vn -0.000000 0.000000 -1.000000
vn -0.000000 0.000000 -1.000000
vn -0.000000 0.000000 -1.000000
vn -0.824581 0.335180 -0.455763
vn -0.824581 0.335180 -0.455763
vn -0.824581 0.335180 -0.455763
vn -0.824581 0.335180 -0.455763
vn -0.834190 0.337198 -0.436378
vn -0.834190 0.337198 -0.436378
vn -0.834190 0.337197 -0.436378
vn -0.834190 0.337198 -0.436378
vn -0.000000 0.000000 -1.000000
vn -0.000000 0.000000 -1.000000
vn -0.000000 0.000000 -1.000000
vn -0.000000 0.000000 -1.000000
vn 0.000000 0.000000 -1.000000
vn 0.000000 0.000000 -1.000000
vn 0.000000 0.000000 -1.000000
vn 0.875234 -0.125496 -0.467137
vn 0.875234 -0.125496 -0.467137
vn 0.875234 -0.125496 -0.467137
vn 0.875234 -0.125496 -0.467137
vn 0.000000 -0.000000 -1.000000
vn 0.000000 -0.000000 -1.000000
vn 0.000000 -0.000000 -1.000000
vn 0.000000 -0.000000 -1.000000
vn 0.794767 -0.308226 -0.522821
vn 0.794767 -0.308226 -0.522821
vn 0.794767 -0.308226 -0.522821
vn 0.794767 -0.308226 -0.522821
vn 0.882725 0.035504 -0.468547
vn 0.882725 0.035504 -0.468547
vn 0.882725 0.035504 -0.468548
vn 0.882725 0.035504 -0.468548
vn 0.000000 0.000000 -1.000000
vn 0.000000 0.000000 -1.000000
vn 0.000000 0.000000 -1.000000
vn 0.000000 0.000000 -1.000000
vn -0.000000 -0.000000 -1.000000
vn -0.000000 -0.000000 -1.000000
vn -0.000000 -0.000000 -1.000000
vn -0.000000 -0.000000 -1.000000
vn -0.000000 -0.000000 -1.000000
vn 0.791694 -0.373827 -0.483191
vn 0.791694 -0.373827 -0.483191
vn 0.791694 -0.373827 -0.483191
vn 0.791694 -0.373827 -0.483191
vn -0.000000 0.000000 -1.000000
vn -0.000000 0.000000 -1.000000
vn -0.000000 0.000000 -1.000000
vn -0.000000 0.000000 -1.000000
vn -0.000000 -0.000000 -1.000000
vn -0.000000 -0.000000 -1.000000
vn -0.000000 -0.000000 -1.000000
vn -0.000000 -0.000000 -1.000000
vn -0.000000 0.000000 -1.000000
vn -0.000000 0.000000 -1.000000
vn -0.000000 0.000000 -1.000000
vn -0.000000 0.000000 -1.000000
vn 0.000000 -0.000000 -1.000000
vn 0.000000 -0.000000 -1.000000
vn 0.000000 -0.000000 -1.000000
vn 0.000000 -0.000000 -1.000000
vn -0.000000 0.000000 -1.000000
vn -0.000000 0.000000 -1.000000
vn -0.000000 0.000000 -1.000000
vn 0.000000 0.000000 -1.000000
vn 0.000000 0.000000 -1.000000
vn 0.000000 0.000000 -1.000000
vn 0.000000 -0.000000 1.000000
vn 0.000000 -0.000000 1.000000
vn 0.000000 -0.000000 1.000000
vn 0.000000 -0.000000 1.000000
vn -0.000000 0.000000 1.000000
vn -0.000000 0.000000 1.000000
vn -0.000000 0.000000 1.000000
vn -0.000000 0.000000 1.000000
vn 0.000000 0.000000 1.000000
vn 0.000000 0.000000 1.000000
vn 0.000000 0.000000 1.000000
vn 0.000000 0.000000 1.000000
vn 0.000000 0.000000 1.000000
vn 0.000000 0.000000 1.000000
vn 0.000000 0.000000 1.000000
vn 0.000000 0.000000 1.000000
vn 0.000000 0.000000 1.000000
vn 0.000000 0.000000 1.000000
vn 0.000000 0.000000 1.000000
vn 0.000000 0.000000 1.000000
vn 0.000000 0.000000 1.000000
vn 0.000000 0.000000 1.000000
vn 0.000000 0.000000 1.000000
vn 0.000000 0.000000 1.000000
vn 0.000000 0.000000 1.000000
vn 0.000000 0.000000 1.000000
vn 0.000000 0.000000 1.000000
vn 0.000000 0.000000 1.000000
vn 0.000000 0.000000 1.000000
vn 0.000000 0.000000 1.000000
vn 0.000000 0.000000 1.000000
vn 0.000000 0.000000 1.000000
vn 0.000000 0.000000 1.000000
vn 0.000000 0.000000 1.000000
vn 0.000000 0.000000 1.000000
vn 0.501302 0.774967 0.384866
vn 0.501302 0.774967 0.384866
vn 0.501302 0.774967 0.384866
vn 0.501302 0.774967 0.384866
vn -0.051520 0.886148 0.460530
vn -0.051520 0.886148 0.460530
vn -0.051520 0.886148 0.460530
vn -0.051520 0.886148 0.460530
vn -0.160271 -0.885799 0.435515
vn -0.160271 -0.885799 0.435515
vn -0.160271 -0.885799 0.435515
vn -0.160271 -0.885799 0.435515
vn 0.380251 -0.701154 0.603152
vn 0.380251 -0.701154 0.603151
vn 0.380251 -0.701154 0.603151
vn 0.380251 -0.701154 0.603151
vn 0.743727 -0.326055 0.583573
vn 0.743727 -0.326055 0.583573
vn 0.743727 -0.326055 0.583573
vn 0.743727 -0.326055 0.583573
vn 0.382166 -0.807528 0.449275
vn 0.382166 -0.807528 0.449275
vn 0.382166 -0.807528 0.449275
vn 0.382166 -0.807528 0.449275
vn 0.794727 0.099886 0.598692
vn 0.794727 0.099886 0.598692
vn 0.794727 0.099886 0.598692
vn 0.794727 0.099886 0.598692
vn 0.768834 -0.305914 0.561526
vn 0.768834 -0.305914 0.561526
vn 0.768834 -0.305914 0.561526
vn 0.768834 -0.305914 0.561526
vn 0.782265 0.386898 0.488232
vn 0.782265 0.386898 0.488232
vn 0.782265 0.386898 0.488232
vn 0.782265 0.386898 0.488232
vn 0.344489 0.771072 0.535514
vn 0.344489 0.771072 0.535514
vn 0.344489 0.771072 0.535514
vn 0.344489 0.771072 0.535514
vn -0.160443 0.820822 0.548187
vn -0.160443 0.820822 0.548187
vn -0.160443 0.820822 0.548187
vn -0.160443 0.820822 0.548187
vn -0.529885 0.612211 0.586873
vn -0.529885 0.612211 0.586873
vn -0.529885 0.612211 0.586873
vn -0.529885 0.612211 0.586873
vn -0.728061 0.419042 0.542522
vn -0.728061 0.419042 0.542522
vn -0.728061 0.419042 0.542522
vn -0.728061 0.419042 0.542522
vn -0.832179 0.290605 0.472257
vn -0.832179 0.290605 0.472257
vn -0.832179 0.290605 0.472257
vn -0.832179 0.290605 0.472257
vn 0.825809 -0.156911 0.541681
vn 0.825809 -0.156911 0.541681
vn 0.825809 -0.156911 0.541681
vn 0.825809 -0.156911 0.541681
vn -0.869122 -0.132849 0.476422
vn -0.869122 -0.132849 0.476422
vn -0.869122 -0.132849 0.476422
vn -0.869122 -0.132849 0.476422
vn -0.509402 -0.750041 0.421839
vn -0.509402 -0.750041 0.421839
vn -0.509402 -0.750041 0.421839
vn -0.509402 -0.750041 0.421839
vn 0.743600 -0.373514 0.554568
vn 0.743600 -0.373514 0.554568
vn 0.743600 -0.373514 0.554568
vn 0.743600 -0.373514 0.554568
vn -0.620291 0.680664 0.389790
vn -0.620291 0.680664 0.389790
vn -0.620291 0.680664 0.389790
vn -0.620291 0.680664 0.389790
vn -0.893246 -0.427176 0.140112
vn -0.893247 -0.427176 0.140112
vn -0.893247 -0.427176 0.140112
vn -0.893247 -0.427176 0.140112
vn -0.937314 -0.033411 0.346882
vn -0.937314 -0.033411 0.346882
vn -0.937314 -0.033411 0.346882
vn -0.937314 -0.033411 0.346882
vn 0.810382 0.102597 0.576849
vn 0.810382 0.102597 0.576849
vn 0.810382 0.102597 0.576849
vn 0.810382 0.102597 0.576849
vn 0.711940 0.472966 0.519081
vn 0.711940 0.472966 0.519081
vn 0.711940 0.472966 0.519081
vn 0.711940 0.472966 0.519081
vn 0.000000 0.000000 1.000000
vn 0.000000 0.000000 1.000000
vn 0.000000 0.000000 1.000000
vn 0.000000 0.000000 1.000000
vn 0.000000 0.000000 1.000000
vn -0.509937 -0.742543 0.434274
vn -0.509937 -0.742543 0.434274
vn -0.509937 -0.742543 0.434274
vn 0.563617 0.799781 0.206605
vn 0.563617 0.799781 0.206605
vn 0.563617 0.799781 0.206605
vn -0.000000 0.000000 1.000000
vn -0.000000 0.000000 1.000000
vn -0.000000 0.000000 1.000000
vn -0.000000 0.000000 1.000000
vn 0.000000 0.000000 1.000000
vn 0.000000 0.000000 1.000000
vn 0.000000 0.000000 1.000000
vn -0.824581 0.335180 0.455763
vn -0.824581 0.335180 0.455763
vn -0.824581 0.335180 0.455763
vn -0.824581 0.335180 0.455763
vn -0.834190 0.337198 0.436378
vn -0.834190 0.337198 0.436378
vn -0.834190 0.337198 0.436378
vn -0.834190 0.337198 0.436378
vn -0.000000 0.000000 1.000000
vn -0.000000 0.000000 1.000000
vn -0.000000 0.000000 1.000000
vn -0.000000 0.000000 1.000000
vn 0.000000 0.000000 1.000000
vn 0.000000 0.000000 1.000000
vn 0.000000 0.000000 1.000000
vn 0.875234 -0.125496 0.467137
vn 0.875234 -0.125496 0.467137
vn 0.875234 -0.125496 0.467137
vn 0.875234 -0.125496 0.467137
vn 0.000000 -0.000000 1.000000
vn 0.000000 -0.000000 1.000000
vn 0.000000 -0.000000 1.000000
vn 0.000000 -0.000000 1.000000
vn 0.794767 -0.308226 0.522821
vn 0.794767 -0.308226 0.522821
vn 0.794767 -0.308226 0.522821
vn 0.794767 -0.308226 0.522821
vn 0.882725 0.035504 0.468548
vn 0.882725 0.035504 0.468548
vn 0.882725 0.035504 0.468548
vn 0.882725 0.035504 0.468548
vn 0.000000 0.000000 1.000000
vn 0.000000 0.000000 1.000000
vn 0.000000 0.000000 1.000000
vn 0.000000 0.000000 1.000000
vn -0.000000 -0.000000 1.000000
vn -0.000000 -0.000000 1.000000
vn -0.000000 -0.000000 1.000000
vn -0.000000 -0.000000 1.000000
vn -0.000000 -0.000000 1.000000
vn 0.791694 -0.373827 0.483191
vn 0.791694 -0.373827 0.483191
vn 0.791694 -0.373827 0.483191
vn 0.791694 -0.373827 0.483191
vn -0.000000 0.000000 1.000000
vn -0.000000 0.000000 1.000000
vn -0.000000 0.000000 1.000000
vn -0.000000 0.000000 1.000000
vn 0.000000 -0.000000 1.000000
vn 0.000000 -0.000000 1.000000
vn 0.000000 -0.000000 1.000000
vn 0.000000 -0.000000 1.000000
vn -0.000000 0.000000 1.000000
vn -0.000000 0.000000 1.000000
vn -0.000000 0.000000 1.000000
vn -0.000000 0.000000 1.000000
vn 0.000000 -0.000000 1.000000
vn 0.000000 -0.000000 1.000000
vn 0.000000 -0.000000 1.000000
vn 0.000000 -0.000000 1.000000
vn -0.000000 0.000000 1.000000
vn -0.000000 0.000000 1.000000
vn -0.000000 0.000000 1.000000
vn 0.000000 0.000000 1.000000
vn 0.000000 0.000000 1.000000
vn 0.000000 0.000000 1.000000
s off
f 33/81/1 63/77/2 65/79/3 62/80/4
f 26/4/5 27/7/6 32/6/7 31/5/8
f 37/9/9 36/11/10 35/10/11 34/8/12
f 25/12/13 26/4/14 31/5/15
f 24/13/16 25/12/17 31/5/18 30/14/19
f 24/13/20 30/14/21 29/16/22 28/15/23
f 39/17/24 42/20/25 41/19/26 40/18/27
f 42/20/28 44/22/29 43/21/30 41/19/31
f 45/23/32 49/26/33 47/25/34 46/24/35
f 21/27/36 49/26/37 45/23/38 1/28/39
f 26/4/40 3/30/41 4/29/42 27/7/43
f 29/16/44 11/32/45 10/31/46 28/15/47
f 30/14/48 12/33/49 11/32/50 29/16/51
f 31/5/52 13/34/53 12/33/54 30/14/55
f 32/6/56 14/35/57 13/34/58 31/5/59
f 27/7/60 4/29/61 14/35/62 32/6/63
f 56/67/64 3/37/65 26/36/66 58/87/67
f 35/10/68 17/40/69 16/39/70 34/8/71
f 36/11/72 18/41/73 17/40/74 35/10/75
f 37/9/76 19/42/77 18/41/78 36/11/79
f 38/3/80 20/43/81 19/42/82 37/9/83
f 52/63/84 20/43/85 38/3/86 53/92/87
f 8/45/88 7/46/89 40/18/90 41/19/91
f 24/47/92 42/20/93 39/17/94 23/48/95
f 9/49/96 8/45/97 41/19/98 43/21/99
f 28/50/100 10/51/101 9/49/102 43/21/103
f 28/50/104 44/22/105 42/20/106 24/47/107
f 5/52/108 1/28/109 45/23/110 46/24/111
f 6/53/112 5/52/113 46/24/114 47/25/115
f 7/46/116 6/53/117 47/25/118 40/18/119
f 23/48/120 39/17/121 48/55/122 22/54/123
f 22/54/124 48/55/125 49/26/126 21/27/127
f 49/26/128 48/55/129 39/17/130 40/18/131 47/25/132
f 28/50/133 43/21/134 44/22/135
f 21/27/136 1/28/137 2/56/138
f 26/36/139 25/59/140 23/58/141 22/57/142
f 25/59/143 24/60/144 23/58/145
f 21/1/146 2/44/147 50/94/148 51/62/149
f 50/61/150 52/93/151 53/64/152 51/89/153
f 51/89/154 53/64/155 54/91/156 55/90/157
f 21/1/158 51/62/159 55/66/160
f 33/81/161 15/38/162 64/78/163 63/77/164
f 59/70/165 58/69/166 60/86/167 61/85/168
f 57/68/169 56/88/170 58/69/171 59/70/172
f 34/8/173 16/39/174 15/82/175 33/2/176
f 38/3/177 37/9/178 34/8/179 62/73/180
f 65/76/181 54/65/182 53/92/183 38/3/184 62/73/185
f 64/75/186 57/84/187 59/83/188 63/74/189
f 60/71/190 22/57/191 21/1/192 55/66/193
f 60/71/194 58/87/195 26/36/196 22/57/197
f 61/72/198 60/71/199 55/66/200 54/65/201
f 65/76/202 63/74/203 59/83/204 61/72/205
f 65/76/206 61/72/207 54/65/208
f 34/8/209 33/2/210 62/73/211
f 78/95/212 103/96/213 105/97/214 104/98/215
f 71/99/216 76/100/217 77/101/218 72/102/219
f 82/103/220 79/104/221 80/105/222 81/106/223
f 70/107/224 76/100/225 71/99/226
f 69/108/227 75/109/228 76/100/229 70/107/230
f 69/108/231 73/110/232 74/111/233 75/109/234
f 84/112/235 85/113/236 86/114/237 87/115/238
f 87/115/239 86/114/240 88/116/241 89/117/242
f 90/118/243 91/119/244 92/120/245 94/121/246
f 66/122/247 1/123/248 90/118/249 94/121/250
f 71/99/251 72/102/252 4/124/253 3/125/254
f 74/111/255 73/110/256 10/126/257 11/127/258
f 75/109/259 74/111/260 11/127/261 12/128/262
f 76/100/263 75/109/264 12/128/265 13/129/266
f 77/101/267 76/100/268 13/129/269 14/130/270
f 72/102/271 77/101/272 14/130/273 4/124/274
f 56/131/275 99/132/276 71/133/277 3/134/278
f 80/105/279 79/104/280 16/135/281 17/136/282
f 81/106/283 80/105/284 17/136/285 18/137/286
f 82/103/287 81/106/288 18/137/289 19/138/290
f 83/139/291 82/103/292 19/138/293 20/140/294
f 52/141/295 96/142/296 83/139/297 20/140/298
f 8/143/299 86/114/300 85/113/301 7/144/302
f 69/145/303 68/146/304 84/112/305 87/115/306
f 9/147/307 88/116/308 86/114/309 8/143/310
f 73/148/311 88/116/312 9/147/313 10/149/314
f 73/148/315 69/145/316 87/115/317 89/117/318
f 5/150/319 91/119/320 90/118/321 1/123/322
f 6/151/323 92/120/324 91/119/325 5/150/326
f 7/144/327 85/113/328 92/120/329 6/151/330
f 68/146/331 67/152/332 93/153/333 84/112/334
f 67/152/335 66/122/336 94/121/337 93/153/338
f 94/121/339 92/120/340 85/113/341 84/112/342 93/153/343
f 73/148/344 89/117/345 88/116/346
f 66/122/347 2/154/348 1/123/349
f 71/133/350 67/155/351 68/156/352 70/157/353
f 70/157/354 68/156/355 69/158/356
f 66/159/357 95/160/358 50/161/359 2/162/360
f 50/163/361 95/164/362 96/165/363 52/166/364
f 95/164/365 98/167/366 97/168/367 96/165/368
f 66/159/369 98/169/370 95/160/371
f 78/95/372 104/98/373 64/170/374 15/171/375
f 100/172/376 102/173/377 101/174/378 99/175/379
f 57/176/380 100/172/381 99/175/382 56/177/383
f 79/104/384 78/178/385 15/179/386 16/135/387
f 83/139/388 103/180/389 79/104/390 82/103/391
f 105/181/392 103/180/393 83/139/394 96/142/395 97/182/396
f 64/183/397 104/184/398 100/185/399 57/186/400
f 101/187/401 98/169/402 66/159/403 67/155/404
f 101/187/405 67/155/406 71/133/407 99/132/408
f 102/188/409 97/182/410 98/169/411 101/187/412
f 105/181/413 102/188/414 100/185/415 104/184/416
f 105/181/417 97/182/418 102/188/419
f 79/104/420 103/180/421 78/178/422
