# This file uses centimeters as units for non-parametric coordinates.

v 2.491903 15.200191 3.858496
v 1.738616 -12.660423 3.858496
v -7.905474 -17.965580 3.858496
v -0.415015 -17.480541 3.858496
v -1.327885 14.858672 3.858496
v -11.141891 -12.432419 3.858496
v -8.367340 -7.536317 3.858496
v -2.082011 -8.611849 3.858496
v -1.264167 10.077115 3.858496
v 2.491902 12.791355 3.858496
v -8.746223 -19.033176 -0.000000
v -0.153429 -19.035702 -0.000000
v -2.012486 16.183365 -0.000000
v 2.269013 16.879051 -0.000000
v 3.341976 -13.412764 -0.000000
v -12.785240 -13.171210 -0.000000
v -9.235535 -5.964236 -0.000000
v -3.441823 -6.937281 -0.000000
v -2.277684 10.675943 -0.000000
v 3.465410 10.954123 -0.000000
v 9.903728 12.292632 1.985441
v 10.195951 11.169700 2.016702
v 10.290986 9.824609 -0.000000
v 13.544718 13.809103 -0.000000
v 9.781445 13.224832 -0.000000
v 13.542004 13.808691 -0.000000
v 2.491903 15.200191 -3.858497
v 1.738616 -12.660423 -3.858497
v -7.905474 -17.965580 -3.858497
v -0.415015 -17.480541 -3.858497
v -1.327885 14.858672 -3.858497
v -11.141891 -12.432419 -3.858497
v -8.367340 -7.536317 -3.858497
v -2.082011 -8.611849 -3.858497
v -1.264167 10.077115 -3.858497
v 2.491902 12.791355 -3.858497
v 9.903728 12.292632 -1.985441
v 10.195951 11.169700 -2.016703
vt 0.734046 0.986372
vt 0.734083 0.984220
vt 0.736281 0.985343
vt 0.736281 0.986538
vt 0.733604 0.976483
vt 0.735840 0.974807
vt 0.734580 0.972811
vt 0.730196 0.972610
vt 0.729704 0.972168
vt 0.734733 0.972167
vt 0.736151 0.987035
vt 0.733645 0.986748
vt 0.736779 0.974495
vt 0.728302 0.974901
vt 0.727340 0.974595
vt 0.729926 0.976928
vt 0.729418 0.977579
vt 0.732809 0.977176
vt 0.733490 0.984467
vt 0.736851 0.984583
vt 0.740790 0.984314
vt 0.740619 0.984863
vt 0.740846 0.984115
vt 0.742209 0.985262
vt 0.740548 0.985073
vt 0.742208 0.985262
vt 0.734046 0.986372
vt 0.734083 0.984220
vt 0.736281 0.985343
vt 0.736281 0.986538
vt 0.733604 0.976483
vt 0.735840 0.974807
vt 0.734580 0.972811
vt 0.730196 0.972610
vt 0.729704 0.972168
vt 0.734733 0.972167
vt 0.736151 0.987035
vt 0.733645 0.986748
vt 0.736779 0.974495
vt 0.728302 0.974901
vt 0.727340 0.974595
vt 0.729926 0.976928
vt 0.729418 0.977579
vt 0.732809 0.977176
vt 0.733490 0.984467
vt 0.736851 0.984583
vt 0.740790 0.984314
vt 0.740619 0.984863
vt 0.740846 0.984115
vt 0.742209 0.985262
vt 0.740548 0.985073
vt 0.742208 0.985262
vn -0.000000 0.000000 1.000000
vn -0.000000 0.000000 1.000000
vn -0.000000 0.000000 1.000000
vn -0.000000 0.000000 1.000000
vn -0.000000 0.000000 1.000000
vn -0.000000 0.000000 1.000000
vn 0.000000 0.000000 1.000000
vn 0.000000 0.000000 1.000000
vn 0.028413 -0.947076 0.319748
vn 0.028413 -0.947076 0.319748
vn 0.028413 -0.947077 0.319748
vn 0.028413 -0.947076 0.319748
vn -0.117870 0.920643 0.372187
vn -0.117870 0.920643 0.372187
vn -0.117870 0.920643 0.372187
vn -0.117870 0.920643 0.372187
vn 0.939654 -0.094556 0.328800
vn 0.828925 -0.448396 0.334401
vn 0.828925 -0.448396 0.334401
vn 0.937862 -0.107880 0.329813
vn -0.783305 -0.500116 0.369213
vn -0.783305 -0.500116 0.369213
vn -0.783305 -0.500116 0.369213
vn -0.783305 -0.500116 0.369212
vn -0.839515 0.438674 0.320594
vn -0.839515 0.438674 0.320594
vn -0.839515 0.438674 0.320594
vn -0.839515 0.438674 0.320594
vn 0.156997 0.925703 0.344129
vn 0.156997 0.925703 0.344129
vn 0.156997 0.925703 0.344129
vn 0.156997 0.925703 0.344129
vn -0.950136 0.051874 0.307492
vn -0.955542 0.045796 0.291277
vn -0.998954 0.045736 -0.000000
vn -0.950136 0.051874 0.307492
vn -0.955542 0.045796 0.291277
vn -0.975446 0.019101 0.219407
vn -0.999808 0.019578 0.000000
vn -0.998954 0.045736 -0.000000
vn 0.946691 -0.016660 0.321711
vn 0.939654 -0.094556 0.328800
vn 0.937862 -0.107880 0.329813
vn 0.946691 -0.016660 0.321711
vn 0.000000 0.000000 1.000000
vn 0.000000 0.000000 1.000000
vn 0.000000 0.000000 1.000000
vn -0.000000 0.000000 1.000000
vn -0.000000 0.000000 1.000000
vn -0.000000 0.000000 1.000000
vn -0.000000 0.000000 1.000000
vn -0.000000 0.000000 1.000000
vn 0.246740 0.028990 0.968648
vn 0.246740 0.028990 0.968648
vn 0.246740 0.028990 0.968648
vn 0.246740 0.028990 0.968648
vn -0.108987 -0.882226 0.458039
vn -0.108987 -0.882226 0.458039
vn -0.108987 -0.882226 0.458039
vn -0.108987 -0.882226 0.458039
vn 0.429770 0.136688 0.892532
vn 0.429770 0.136688 0.892532
vn 0.429770 0.136688 0.892532
vn 0.704115 -0.574980 0.416677
vn 0.704115 -0.574980 0.416677
vn 0.704115 -0.574980 0.416677
vn 0.413447 0.840170 0.350966
vn 0.413447 0.840170 0.350966
vn 0.413447 0.840170 0.350966
vn 0.413447 0.840170 0.350966
vn -0.138664 0.893132 0.427887
vn -0.138664 0.893132 0.427887
vn -0.138664 0.893132 0.427887
vn -0.138664 0.893132 0.427887
vn 0.000000 0.000000 -1.000000
vn 0.000000 0.000000 -1.000000
vn 0.000000 0.000000 -1.000000
vn 0.000000 0.000000 -1.000000
vn 0.000000 0.000000 -1.000000
vn 0.000000 0.000000 -1.000000
vn 0.000000 0.000000 -1.000000
vn 0.000000 0.000000 -1.000000
vn 0.028413 -0.947077 -0.319748
vn 0.028413 -0.947077 -0.319748
vn 0.028413 -0.947077 -0.319748
vn 0.028413 -0.947077 -0.319748
vn -0.117870 0.920643 -0.372187
vn -0.117870 0.920643 -0.372187
vn -0.117870 0.920643 -0.372187
vn -0.117870 0.920643 -0.372187
vn 0.939654 -0.094556 -0.328800
vn 0.937862 -0.107880 -0.329813
vn 0.828925 -0.448396 -0.334402
vn 0.828925 -0.448396 -0.334401
vn -0.783305 -0.500116 -0.369212
vn -0.783305 -0.500116 -0.369212
vn -0.783305 -0.500116 -0.369212
vn -0.783305 -0.500116 -0.369212
vn -0.839515 0.438674 -0.320594
vn -0.839515 0.438674 -0.320594
vn -0.839515 0.438674 -0.320594
vn -0.839515 0.438674 -0.320594
vn 0.156997 0.925703 -0.344129
vn 0.156997 0.925703 -0.344129
vn 0.156997 0.925703 -0.344129
vn 0.156997 0.925703 -0.344129
vn -0.950136 0.051874 -0.307492
vn -0.950136 0.051874 -0.307492
vn -0.998954 0.045736 -0.000000
vn -0.955542 0.045796 -0.291277
vn -0.955542 0.045796 -0.291277
vn -0.998954 0.045736 -0.000000
vn -0.999808 0.019578 0.000000
vn -0.975446 0.019101 -0.219407
vn 0.946691 -0.016660 -0.321711
vn 0.946691 -0.016660 -0.321711
vn 0.937862 -0.107880 -0.329813
vn 0.939654 -0.094556 -0.328800
vn 0.000000 0.000000 -1.000000
vn 0.000000 0.000000 -1.000000
vn 0.000000 0.000000 -1.000000
vn 0.000000 0.000000 -1.000000
vn 0.000000 0.000000 -1.000000
vn 0.000000 0.000000 -1.000000
vn 0.000000 0.000000 -1.000000
vn 0.000000 0.000000 -1.000000
vn 0.246740 0.028990 -0.968648
vn 0.246740 0.028990 -0.968648
vn 0.246740 0.028990 -0.968648
vn 0.246740 0.028990 -0.968648
vn -0.108987 -0.882226 -0.458039
vn -0.108987 -0.882226 -0.458039
vn -0.108987 -0.882226 -0.458039
vn -0.108987 -0.882226 -0.458039
vn 0.429770 0.136688 -0.892532
vn 0.429770 0.136688 -0.892532
vn 0.429770 0.136688 -0.892532
vn 0.704115 -0.574980 -0.416677
vn 0.704115 -0.574980 -0.416677
vn 0.704115 -0.574980 -0.416677
vn 0.413447 0.840170 -0.350966
vn 0.413447 0.840170 -0.350966
vn 0.413447 0.840170 -0.350966
vn 0.413447 0.840170 -0.350966
vn -0.138664 0.893132 -0.427887
vn -0.138664 0.893132 -0.427887
vn -0.138664 0.893132 -0.427887
vn -0.138664 0.893132 -0.427887
s off
f 5/1/1 9/2/2 10/3/3 1/4/4
f 10/3/5 9/2/6 8/5/7 2/6/8
f 4/7/9 3/8/10 11/9/11 12/10/12
f 5/1/13 1/4/14 14/11/15 13/12/16
f 2/6/17 4/7/18 12/10/19 15/13/20
f 3/8/21 6/14/22 16/15/23 11/9/24
f 6/14/25 7/16/26 17/17/27 16/15/28
f 7/16/29 8/5/30 18/18/31 17/17/32
f 8/5/33 9/2/34 19/19/35 18/18/36
f 9/2/37 5/1/38 13/12/39 19/19/40
f 10/3/41 2/6/42 15/13/43 20/20/44
f 2/6/45 8/5/46 7/16/47 6/14/48 4/7/49
f 4/7/50 6/14/51 3/8/52
f 1/4/53 10/3/54 22/21/55 21/22/56
f 10/3/57 20/20/58 23/23/59 22/21/60
f 21/22/61 22/21/62 24/24/63
f 22/21/64 23/23/65 24/24/66
f 25/25/67 14/11/68 1/4/69 21/22/70
f 26/26/71 25/25/72 21/22/73 24/24/74
f 31/27/75 27/30/76 36/29/77 35/28/78
f 36/29/79 28/32/80 34/31/81 35/28/82
f 30/33/83 12/36/84 11/35/85 29/34/86
f 31/27/87 13/38/88 14/37/89 27/30/90
f 28/32/91 15/39/92 12/36/93 30/33/94
f 29/34/95 11/35/96 16/41/97 32/40/98
f 32/40/99 16/41/100 17/43/101 33/42/102
f 33/42/103 17/43/104 18/44/105 34/31/106
f 34/31/107 18/44/108 19/45/109 35/28/110
f 35/28/111 19/45/112 13/38/113 31/27/114
f 36/29/115 20/46/116 15/39/117 28/32/118
f 28/32/119 30/33/120 32/40/121 33/42/122 34/31/123
f 30/33/124 29/34/125 32/40/126
f 27/30/127 37/48/128 38/47/129 36/29/130
f 36/29/131 38/47/132 23/49/133 20/46/134
f 37/48/135 24/50/136 38/47/137
f 38/47/138 24/50/139 23/49/140
f 25/51/141 37/48/142 27/30/143 14/37/144
f 26/52/145 24/50/146 37/48/147 25/51/148
