# This file uses centimeters as units for non-parametric coordinates.

v 4.296738 -7.192824 -0.000000
v -4.296753 -7.192824 0.000000
v -4.296753 -15.786325 0.000000
v 4.296738 -15.786325 -0.000000
v 2.482974 -8.739690 4.000000
v -2.271743 -9.632884 4.000000
v -2.350595 -13.725668 4.000000
v 2.357697 -14.261143 4.000000
v 2.296128 -9.039045 -4.000000
v -1.829992 -9.339144 -4.000000
v -2.475215 -13.706049 -4.000000
v 2.732591 -14.184292 -4.000000
vt 0.014447 0.949483
vt 0.015333 0.949646
vt 0.015016 0.950052
vt 0.014539 0.949962
vt 0.015318 0.950289
vt 0.015014 0.950396
vt 0.014461 0.950126
vt 0.014546 0.950306
vt 0.014764 0.949395
vt 0.015228 0.949480
vt 0.015222 0.949824
vt 0.014766 0.949739
vn -0.059740 0.892782 0.446509
vn -0.059740 0.892782 0.446509
vn -0.059740 0.892782 0.446509
vn -0.059740 0.892782 0.446509
vn -0.895596 0.005567 0.444834
vn -0.895596 0.005567 0.444834
vn -0.895596 0.005567 0.444834
vn -0.895596 0.005567 0.444834
vn -0.036709 -0.911898 0.408773
vn -0.036709 -0.911898 0.408773
vn -0.036709 -0.911898 0.408773
vn -0.036709 -0.911898 0.408773
vn 0.905316 -0.008035 0.424663
vn 0.905316 -0.008035 0.424663
vn 0.905316 -0.008035 0.424663
vn 0.905316 -0.008035 0.424663
vn 0.000000 0.000000 1.000000
vn 0.000000 0.000000 1.000000
vn 0.000000 0.000000 1.000000
vn 0.000000 0.000000 1.000000
vn -0.021094 0.894070 -0.447430
vn -0.021094 0.894070 -0.447430
vn -0.021094 0.894070 -0.447430
vn -0.021094 0.894070 -0.447430
vn -0.880364 0.043828 -0.472270
vn -0.880364 0.043828 -0.472270
vn -0.880364 0.043828 -0.472270
vn -0.880364 0.043828 -0.472270
vn -0.031449 -0.907557 -0.418750
vn -0.031449 -0.907557 -0.418750
vn -0.031449 -0.907557 -0.418750
vn -0.031449 -0.907557 -0.418750
vn 0.912708 0.028996 -0.407583
vn 0.912708 0.028996 -0.407583
vn 0.912708 0.028996 -0.407583
vn 0.912708 0.028996 -0.407583
vn 0.000000 0.000000 -1.000000
vn 0.000000 0.000000 -1.000000
vn 0.000000 0.000000 -1.000000
vn 0.000000 0.000000 -1.000000
s off
f 1/1/1 2/2/2 6/3/3 5/4/4
f 2/2/5 3/5/6 7/6/7 6/3/8
f 3/5/9 4/7/10 8/8/11 7/6/12
f 4/7/13 1/1/14 5/4/15 8/8/16
f 5/4/17 6/3/18 7/6/19 8/8/20
f 1/1/21 9/9/22 10/10/23 2/2/24
f 2/2/25 10/10/26 11/11/27 3/5/28
f 3/5/29 11/11/30 12/12/31 4/7/32
f 4/7/33 12/12/34 9/9/35 1/1/36
f 9/9/37 12/12/38 11/11/39 10/10/40
