# This file uses centimeters as units for non-parametric coordinates.

v -2.148376 -16.508999 0.000000
v -1.074219 -16.508999 2.000000
v 1.074219 -16.508999 2.000000
v 2.148315 -16.508999 0.000000
v -2.148376 4.248507 0.000000
v -1.074219 4.248507 2.000000
v 1.074219 4.248507 2.000000
v 2.148315 4.248506 0.000000
v -2.992920 4.663496 0.000000
v -1.496521 4.663494 4.000000
v 1.496521 4.663494 4.000000
v 2.992920 4.663494 0.000000
v -2.992920 5.841825 0.000000
v -1.496521 5.841825 4.000000
v 1.496521 5.841825 4.000000
v 2.992920 5.841825 0.000000
v -2.170898 6.145895 0.000000
v -1.085510 6.145895 3.065611
v 1.085449 6.145895 3.065611
v 2.170837 6.145895 0.000000
v -2.170898 15.053200 0.000000
v -1.085510 15.053200 3.065611
v 1.085449 15.053200 3.065611
v 2.170837 15.053200 0.000000
v -3.002930 15.363333 0.000000
v -1.501526 15.363333 4.000000
v 1.501465 15.363333 4.000000
v 3.002869 15.363333 0.000000
v -3.002930 16.205982 0.000000
v -1.501526 16.205982 4.000000
v 1.501465 16.205982 4.000000
v 3.002869 16.205982 0.000000
v -1.874268 16.652327 0.000000
v -0.937134 16.652327 2.440748
v 0.937134 16.652327 2.440748
v 1.874207 16.652327 0.000000
v -0.000061 19.905109 0.000000
v -3.480225 -17.353128 0.000000
v -1.740173 -17.353128 4.000000
v 1.740173 -17.353128 4.000000
v 3.480164 -17.353128 0.000000
v 0.000000 -19.905127 0.000000
v -3.480225 -18.485971 0.000000
v -1.740173 -18.485971 4.000000
v 1.740173 -18.485971 4.000000
v 3.480164 -18.485971 0.000000
v -4.397095 6.377287 2.143476
v 4.397095 15.064949 2.143495
v 4.397095 6.377285 2.143495
v -4.397095 15.064953 2.143476
v 10.266785 3.982199 2.143502
v 10.266785 17.460032 2.143502
v -10.266785 3.982202 2.143469
v -10.266785 17.460035 2.143469
v 11.654785 2.343545 0.000000
v 11.654785 19.098690 0.000000
v -11.654724 2.343546 0.000000
v -11.654724 19.098696 -0.000000
v -11.116455 14.090580 2.143469
v -13.130371 14.909908 -0.000000
v 13.130371 14.909906 0.000000
v 11.116455 14.090578 2.143502
v -11.491516 10.721118 2.143469
v -13.573425 10.721118 0.000000
v 13.573425 10.721114 0.000000
v 11.491516 10.721114 2.143502
v -11.116455 7.351659 2.143469
v -13.130371 6.532333 0.000000
v 13.130371 6.532330 0.000000
v 11.116455 7.351656 2.143502
v -1.074219 -16.508999 -2.000000
v 1.074219 -16.508999 -2.000000
v -1.074219 4.248507 -2.000000
v 1.074219 4.248507 -2.000000
v -1.496521 4.663494 -4.000000
v 1.496521 4.663494 -4.000000
v -1.496521 5.841825 -4.000000
v 1.496521 5.841825 -4.000000
v -1.085510 6.145895 -3.065611
v 1.085449 6.145895 -3.065611
v -1.085510 15.053200 -3.065611
v 1.085449 15.053200 -3.065611
v -1.501526 15.363333 -4.000000
v 1.501465 15.363333 -4.000000
v -1.501526 16.205982 -4.000000
v 1.501465 16.205982 -4.000000
v -0.937134 16.652327 -2.440748
v 0.937134 16.652327 -2.440748
v -1.740173 -17.353128 -4.000000
v 1.740173 -17.353128 -4.000000
v -1.740173 -18.485971 -4.000000
v 1.740173 -18.485971 -4.000000
v -4.397095 6.377287 -2.143476
v 4.397095 15.064949 -2.143495
v 4.397095 6.377285 -2.143495
v -4.397095 15.064953 -2.143476
v 10.266785 3.982199 -2.143502
v 10.266785 17.460032 -2.143502
v -10.266785 3.982202 -2.143469
v -10.266785 17.460035 -2.143469
v -11.116455 14.090580 -2.143469
v 11.116455 14.090578 -2.143502
v -11.491516 10.721118 -2.143469
v 11.491516 10.721114 -2.143502
v -11.116455 7.351659 -2.143469
v 11.116455 7.351656 -2.143502
vt 0.955327 0.981074
vt 0.955543 0.980926
vt 0.955044 0.981135
vt 0.954807 0.981081
vt 0.924700 0.955135
vt 0.924647 0.955157
vt 0.924646 0.954159
vt 0.924700 0.954157
vt 0.924544 0.955157
vt 0.924541 0.954159
vt 0.924498 0.955134
vt 0.924495 0.954157
vt 0.954543 0.980941
vt 0.954208 0.981044
vt 0.954281 0.981086
vt 0.954402 0.981077
vt 0.954234 0.981006
vt 0.954215 0.981127
vt 0.954311 0.981135
vt 0.954073 0.981125
vt 0.954045 0.981117
vt 0.954403 0.981008
vt 0.954234 0.980940
vt 0.954312 0.981065
vt 0.954045 0.981047
vt 0.954340 0.980988
vt 0.954210 0.980936
vt 0.954273 0.981028
vt 0.954072 0.981014
vt 0.954347 0.980451
vt 0.954212 0.980412
vt 0.954278 0.980481
vt 0.954070 0.980470
vt 0.954413 0.980433
vt 0.954238 0.980383
vt 0.954318 0.980475
vt 0.954041 0.980462
vt 0.954413 0.980380
vt 0.954238 0.980332
vt 0.954319 0.980420
vt 0.954041 0.980408
vt 0.954308 0.980348
vt 0.954203 0.980318
vt 0.954248 0.980372
vt 0.954080 0.980365
vt 0.954143 0.980135
vt 0.955213 0.980715
vt 0.955352 0.980649
vt 0.955543 0.980766
vt 0.955327 0.980906
vt 0.954897 0.980720
vt 0.954806 0.980914
vt 0.954735 0.980657
vt 0.954543 0.980780
vt 0.984530 0.920938
vt 0.984229 0.921099
vt 0.984458 0.921183
vt 0.955424 0.983962
vt 0.955484 0.983913
vt 0.955432 0.983987
vt 0.955441 0.984326
vt 0.984503 0.921063
vt 0.983871 0.920772
vt 0.984244 0.920770
vt 0.984263 0.920841
vt 0.983869 0.920842
vt 0.984502 0.920673
vt 0.955405 0.984442
vt 0.955457 0.984523
vt 0.955519 0.984378
vt 0.984534 0.920739
vt 0.954679 0.984421
vt 0.983616 0.920676
vt 0.954647 0.984306
vt 0.983601 0.920742
vt 0.954563 0.984352
vt 0.954619 0.984497
vt 0.954604 0.983901
vt 0.954670 0.983950
vt 0.954642 0.983975
vt 0.954554 0.984054
vt 0.954642 0.984071
vt 0.955451 0.984086
vt 0.955534 0.984072
vt 0.954543 0.984204
vt 0.954632 0.984189
vt 0.953984 0.980990
vt 0.954072 0.981042
vt 0.953887 0.981043
vt 0.954003 0.981081
vt 0.953984 0.980924
vt 0.953886 0.980976
vt 0.954018 0.980923
vt 0.953947 0.980961
vt 0.984526 0.920808
vt 0.983873 0.921184
vt 0.983628 0.921273
vt 0.983585 0.921149
vt 0.983562 0.921019
vt 0.983571 0.920884
vt 0.984245 0.921182
vt 0.984485 0.921269
vt 0.983874 0.921101
vt 0.983640 0.921187
vt 0.983578 0.920942
vt 0.983586 0.920812
vt 0.923327 0.952678
vt 0.923327 0.952678
vt 0.923327 0.952678
vt 0.923327 0.952678
vt 0.923327 0.952678
vt 0.923327 0.952678
vt 0.923327 0.952678
vt 0.923327 0.952678
vt 0.955420 0.983382
vt 0.955420 0.983382
vt 0.955420 0.983382
vt 0.955420 0.983382
vt 0.955420 0.983382
vt 0.954014 0.980402
vt 0.953941 0.980430
vt 0.953979 0.980372
vt 0.953877 0.980410
vt 0.953978 0.980321
vt 0.953876 0.980357
vt 0.954042 0.980312
vt 0.953978 0.980334
vt 0.955468 0.984244
vt 0.954603 0.984224
vt 0.955459 0.984117
vt 0.954614 0.984100
vt 0.954619 0.984345
vt 0.954653 0.984465
vt 0.955411 0.984488
vt 0.955449 0.984367
vt 0.955543 0.984227
vt 0.955460 0.984208
vt 0.984533 0.921144
vt 0.984559 0.920879
vt 0.984562 0.921014
vt 0.983600 0.921067
vt 0.955420 0.983382
vt 0.955420 0.983382
vt 0.955420 0.983382
vt 0.955420 0.983382
vt 0.955420 0.983382
vt 0.955420 0.983382
vt 0.955420 0.983382
vt 0.955420 0.983382
vn -0.880966 0.000000 0.473181
vn -0.880966 0.000000 0.473181
vn -0.880966 0.000000 0.473181
vn -0.880966 0.000000 0.473181
vn 0.000000 0.000000 1.000000
vn 0.000000 0.000000 1.000000
vn 0.000000 0.000000 1.000000
vn 0.000000 0.000000 1.000000
vn 0.880974 0.000000 0.473165
vn 0.880974 0.000000 0.473165
vn 0.880974 0.000000 0.473165
vn 0.880974 0.000000 0.473165
vn -0.372595 -0.913729 0.162088
vn -0.372595 -0.913729 -0.162088
vn -0.372595 -0.913729 -0.162088
vn 0.000000 -0.942439 0.334379
vn 0.000000 -0.942439 0.334379
vn 0.000000 -0.942439 0.334379
vn 0.372602 -0.913726 -0.162091
vn 0.372602 -0.913726 0.162091
vn 0.372602 -0.913726 -0.162091
vn -0.359643 -0.920279 -0.154088
vn -0.359643 -0.920279 0.154088
vn -0.359643 -0.920279 0.154088
vn -0.359643 -0.920279 -0.154088
vn 0.000000 -0.979144 0.203166
vn 0.000000 -0.979144 0.203166
vn 0.000000 -0.979144 0.203166
vn 0.000000 -0.979144 0.203166
vn 0.359643 -0.920279 0.154087
vn 0.359643 -0.920279 -0.154087
vn 0.359643 -0.920279 -0.154087
vn 0.359643 -0.920279 0.154087
vn -0.936601 0.000000 0.350398
vn -0.936601 0.000000 0.350398
vn -0.936601 0.000000 0.350398
vn -0.936601 0.000000 0.350398
vn 0.000000 0.000000 1.000000
vn 0.000000 0.000000 1.000000
vn 0.000000 0.000000 1.000000
vn 0.000000 0.000000 1.000000
vn 0.936599 0.000000 0.350402
vn 0.936599 0.000000 0.350402
vn 0.936599 0.000000 0.350402
vn 0.936599 0.000000 0.350402
vn -0.357211 0.924857 -0.130532
vn -0.357211 0.924857 0.130532
vn -0.357211 0.924857 0.130532
vn -0.357211 0.924857 -0.130532
vn 0.000000 0.950916 0.309449
vn 0.000000 0.950916 0.309449
vn 0.000000 0.950916 0.309449
vn 0.000000 0.950916 0.309449
vn 0.357207 0.924859 0.130531
vn 0.357207 0.924859 -0.130531
vn 0.357207 0.924859 -0.130531
vn 0.357207 0.924859 0.130531
vn -0.942655 0.000000 0.333768
vn -0.942655 0.000000 0.333768
vn -0.942655 0.000000 0.333768
vn -0.942655 0.000000 0.333768
vn 0.000000 0.000000 1.000000
vn 0.000000 0.000000 1.000000
vn 0.000000 0.000000 1.000000
vn 0.000000 0.000000 1.000000
vn 0.942656 0.000000 0.333765
vn 0.942656 0.000000 0.333765
vn 0.942656 0.000000 0.333765
vn 0.942656 0.000000 0.333765
vn -0.360216 -0.923499 -0.131887
vn -0.360216 -0.923499 0.131887
vn -0.360216 -0.923499 0.131887
vn -0.360216 -0.923499 -0.131887
vn 0.000000 -0.949087 0.315013
vn 0.000000 -0.949087 0.315013
vn 0.000000 -0.949087 0.315013
vn 0.000000 -0.949087 0.315013
vn 0.360223 -0.923496 0.131888
vn 0.360223 -0.923496 -0.131888
vn 0.360223 -0.923496 -0.131888
vn 0.360223 -0.923496 0.131888
vn -0.936213 0.000000 0.351432
vn -0.936213 0.000000 0.351432
vn -0.936213 0.000000 0.351432
vn -0.936213 0.000000 0.351432
vn 0.000000 0.000000 1.000000
vn 0.000000 0.000000 1.000000
vn 0.000000 0.000000 1.000000
vn 0.000000 0.000000 1.000000
vn 0.936216 0.000000 0.351426
vn 0.936216 0.000000 0.351426
vn 0.936216 0.000000 0.351426
vn 0.936216 0.000000 0.351426
vn -0.360692 0.922632 -0.136571
vn -0.360692 0.922632 0.136571
vn -0.360692 0.922632 0.136571
vn -0.360692 0.922632 -0.136571
vn 0.000000 0.961387 0.275201
vn 0.000000 0.961387 0.275201
vn 0.000000 0.961387 0.275201
vn 0.000000 0.961387 0.275201
vn 0.360698 0.922630 0.136567
vn 0.360698 0.922630 -0.136567
vn 0.360698 0.922630 -0.136567
vn 0.360698 0.922630 0.136567
vn -0.822151 0.473717 0.315688
vn -0.822151 0.473717 0.315688
vn -0.822151 0.473717 0.315688
vn 0.000000 0.600155 0.799884
vn 0.000000 0.600155 0.799884
vn 0.000000 0.600155 0.799884
vn 0.822159 0.473719 0.315666
vn 0.822159 0.473719 0.315666
vn 0.822159 0.473719 0.315666
vn -0.485398 0.844128 0.227678
vn -0.485398 0.844128 -0.227678
vn -0.485398 0.844128 -0.227678
vn -0.485398 0.844128 0.227678
vn 0.000000 0.921301 0.388849
vn 0.000000 0.921301 0.388849
vn 0.000000 0.921301 0.388849
vn 0.000000 0.921301 0.388849
vn 0.485402 0.844126 -0.227676
vn 0.485402 0.844126 0.227676
vn 0.485402 0.844126 0.227676
vn 0.485402 0.844126 -0.227676
vn -0.916989 0.000000 0.398914
vn -0.916989 0.000000 0.398914
vn -0.916989 0.000000 0.398914
vn -0.916989 0.000000 0.398914
vn 0.000000 0.000000 1.000000
vn 0.000000 0.000000 1.000000
vn 0.000000 0.000000 1.000000
vn 0.000000 0.000000 1.000000
vn 0.916989 0.000000 0.398913
vn 0.916989 0.000000 0.398913
vn 0.916989 0.000000 0.398913
vn 0.916989 0.000000 0.398913
vn -0.000002 0.000000 1.000000
vn -0.000002 0.000000 1.000000
vn -0.000000 0.000000 1.000000
vn -0.000000 0.000000 1.000000
vn 0.000000 1.000000 0.000000
vn 0.000000 1.000000 0.000000
vn 0.000000 1.000000 0.000000
vn 0.000000 1.000000 0.000000
vn -0.499841 0.866117 0.000000
vn -0.499841 0.866117 0.000000
vn -0.499841 0.866117 0.000000
vn -0.499841 0.866117 0.000000
vn 0.499838 0.866119 0.000000
vn 0.499838 0.866119 0.000000
vn 0.499838 0.866119 0.000000
vn 0.499838 0.866119 0.000000
vn -0.748176 0.663500 0.000000
vn -0.748176 0.663500 0.000000
vn -0.748176 0.663500 0.000000
vn 0.684386 -0.220440 0.694998
vn 0.684386 -0.220440 0.694998
vn 0.684386 -0.220440 0.694998
vn 0.684386 -0.220440 0.694998
vn -0.684381 -0.220441 0.695003
vn -0.684381 -0.220441 0.695003
vn -0.684381 -0.220441 0.695003
vn -0.684381 -0.220441 0.695003
vn 0.748186 0.663489 0.000000
vn 0.748186 0.663489 0.000000
vn 0.748186 0.663489 0.000000
vn -0.684380 0.220441 0.695003
vn -0.684380 0.220441 0.695003
vn -0.684380 0.220441 0.695003
vn -0.684380 0.220441 0.695003
vn 0.684386 0.220440 0.694998
vn 0.684386 0.220440 0.694998
vn 0.684386 0.220440 0.694998
vn 0.684386 0.220440 0.694998
vn -0.000000 0.000000 1.000000
vn -0.000000 0.000000 1.000000
vn -0.000002 -0.000000 1.000000
vn -0.000002 -0.000000 1.000000
vn -0.697191 0.079011 0.712518
vn -0.697191 0.079011 0.712518
vn -0.697191 0.079011 0.712518
vn -0.697191 0.079011 0.712518
vn 0.697200 0.079009 0.712510
vn 0.697200 0.079009 0.712510
vn 0.697200 0.079009 0.712510
vn 0.697200 0.079009 0.712510
vn -0.697191 -0.079011 0.712518
vn -0.697191 -0.079011 0.712518
vn -0.697191 -0.079011 0.712518
vn -0.697191 -0.079011 0.712518
vn 0.697200 -0.079009 0.712510
vn 0.697200 -0.079009 0.712510
vn 0.697200 -0.079009 0.712510
vn 0.697200 -0.079009 0.712510
vn -0.880966 0.000000 -0.473181
vn -0.880966 0.000000 -0.473181
vn -0.880966 0.000000 -0.473181
vn -0.880966 0.000000 -0.473181
vn 0.000000 0.000000 -1.000000
vn 0.000000 0.000000 -1.000000
vn 0.000000 0.000000 -1.000000
vn 0.000000 0.000000 -1.000000
vn 0.880974 0.000000 -0.473165
vn 0.880974 0.000000 -0.473165
vn 0.880974 0.000000 -0.473165
vn 0.880974 0.000000 -0.473165
vn -0.372595 -0.913729 -0.162088
vn -0.372595 -0.913729 -0.162088
vn -0.372595 -0.913729 -0.162088
vn 0.000000 -0.942439 -0.334379
vn 0.000000 -0.942439 -0.334379
vn 0.000000 -0.942439 -0.334379
vn 0.372602 -0.913726 -0.162091
vn 0.372602 -0.913726 -0.162091
vn 0.372602 -0.913726 -0.162091
vn -0.359643 -0.920279 -0.154088
vn -0.359643 -0.920279 -0.154088
vn -0.359643 -0.920279 -0.154088
vn -0.359643 -0.920279 -0.154088
vn 0.000000 -0.979144 -0.203166
vn 0.000000 -0.979144 -0.203166
vn 0.000000 -0.979144 -0.203166
vn 0.000000 -0.979144 -0.203166
vn 0.359643 -0.920279 -0.154087
vn 0.359643 -0.920279 -0.154087
vn 0.359643 -0.920279 -0.154087
vn 0.359643 -0.920279 -0.154087
vn -0.936601 0.000000 -0.350398
vn -0.936601 0.000000 -0.350398
vn -0.936601 0.000000 -0.350398
vn -0.936601 0.000000 -0.350398
vn 0.000000 0.000000 -1.000000
vn 0.000000 0.000000 -1.000000
vn 0.000000 0.000000 -1.000000
vn 0.000000 0.000000 -1.000000
vn 0.936599 0.000000 -0.350402
vn 0.936599 0.000000 -0.350402
vn 0.936599 0.000000 -0.350402
vn 0.936599 0.000000 -0.350402
vn -0.357211 0.924857 -0.130532
vn -0.357211 0.924857 -0.130532
vn -0.357211 0.924857 -0.130532
vn -0.357211 0.924857 -0.130532
vn 0.000000 0.950916 -0.309449
vn 0.000000 0.950916 -0.309449
vn 0.000000 0.950916 -0.309449
vn 0.000000 0.950916 -0.309449
vn 0.357207 0.924859 -0.130531
vn 0.357207 0.924859 -0.130531
vn 0.357207 0.924859 -0.130531
vn 0.357207 0.924859 -0.130531
vn -0.942655 0.000000 -0.333768
vn -0.942655 0.000000 -0.333768
vn -0.942655 0.000000 -0.333768
vn -0.942655 0.000000 -0.333768
vn 0.000000 0.000000 -1.000000
vn 0.000000 0.000000 -1.000000
vn 0.000000 0.000000 -1.000000
vn 0.000000 0.000000 -1.000000
vn 0.942656 0.000000 -0.333765
vn 0.942656 0.000000 -0.333765
vn 0.942656 0.000000 -0.333765
vn 0.942656 0.000000 -0.333765
vn -0.360216 -0.923499 -0.131887
vn -0.360216 -0.923499 -0.131887
vn -0.360216 -0.923499 -0.131887
vn -0.360216 -0.923499 -0.131887
vn 0.000000 -0.949087 -0.315013
vn 0.000000 -0.949087 -0.315013
vn 0.000000 -0.949087 -0.315013
vn 0.000000 -0.949087 -0.315013
vn 0.360223 -0.923496 -0.131888
vn 0.360223 -0.923496 -0.131888
vn 0.360223 -0.923496 -0.131888
vn 0.360223 -0.923496 -0.131888
vn -0.936213 0.000000 -0.351432
vn -0.936213 0.000000 -0.351432
vn -0.936213 0.000000 -0.351432
vn -0.936213 0.000000 -0.351432
vn 0.000000 0.000000 -1.000000
vn 0.000000 0.000000 -1.000000
vn 0.000000 0.000000 -1.000000
vn 0.000000 0.000000 -1.000000
vn 0.936216 0.000000 -0.351426
vn 0.936216 0.000000 -0.351426
vn 0.936216 0.000000 -0.351426
vn 0.936216 0.000000 -0.351426
vn -0.360692 0.922632 -0.136571
vn -0.360692 0.922632 -0.136571
vn -0.360692 0.922632 -0.136571
vn -0.360692 0.922632 -0.136571
vn 0.000000 0.961387 -0.275201
vn 0.000000 0.961387 -0.275201
vn 0.000000 0.961387 -0.275201
vn 0.000000 0.961387 -0.275201
vn 0.360698 0.922630 -0.136567
vn 0.360698 0.922630 -0.136567
vn 0.360698 0.922630 -0.136567
vn 0.360698 0.922630 -0.136567
vn -0.822151 0.473717 -0.315688
vn -0.822151 0.473717 -0.315688
vn -0.822151 0.473717 -0.315688
vn 0.000000 0.600155 -0.799884
vn 0.000000 0.600155 -0.799884
vn 0.000000 0.600155 -0.799884
vn 0.822159 0.473719 -0.315666
vn 0.822159 0.473719 -0.315666
vn 0.822159 0.473719 -0.315666
vn -0.485398 0.844128 -0.227678
vn -0.485398 0.844128 -0.227678
vn -0.485398 0.844128 -0.227678
vn -0.485398 0.844128 -0.227678
vn 0.000000 0.921301 -0.388849
vn 0.000000 0.921301 -0.388849
vn 0.000000 0.921301 -0.388849
vn 0.000000 0.921301 -0.388849
vn 0.485402 0.844126 -0.227676
vn 0.485402 0.844126 -0.227676
vn 0.485402 0.844126 -0.227676
vn 0.485402 0.844126 -0.227676
vn -0.916989 0.000000 -0.398914
vn -0.916989 0.000000 -0.398914
vn -0.916989 0.000000 -0.398914
vn -0.916989 0.000000 -0.398914
vn 0.000000 0.000000 -1.000000
vn 0.000000 0.000000 -1.000000
vn 0.000000 0.000000 -1.000000
vn 0.000000 0.000000 -1.000000
vn 0.916989 0.000000 -0.398913
vn 0.916989 0.000000 -0.398913
vn 0.916989 0.000000 -0.398913
vn 0.916989 0.000000 -0.398913
vn 0.684386 -0.220440 -0.694998
vn 0.684386 -0.220440 -0.694998
vn 0.684386 -0.220440 -0.694998
vn 0.684386 -0.220440 -0.694998
vn -0.684381 -0.220441 -0.695003
vn -0.684381 -0.220441 -0.695003
vn -0.684381 -0.220441 -0.695003
vn -0.684381 -0.220441 -0.695003
vn -0.684380 0.220441 -0.695003
vn -0.684380 0.220441 -0.695003
vn -0.684380 0.220441 -0.695003
vn -0.684380 0.220441 -0.695003
vn 0.684386 0.220440 -0.694998
vn 0.684386 0.220440 -0.694998
vn 0.684386 0.220440 -0.694998
vn 0.684386 0.220440 -0.694998
vn -0.697191 0.079011 -0.712518
vn -0.697191 0.079011 -0.712518
vn -0.697191 0.079011 -0.712518
vn -0.697191 0.079011 -0.712518
vn 0.697200 0.079009 -0.712510
vn 0.697200 0.079009 -0.712510
vn 0.697200 0.079009 -0.712510
vn 0.697200 0.079009 -0.712510
vn -0.697191 -0.079011 -0.712518
vn -0.697191 -0.079011 -0.712518
vn -0.697191 -0.079011 -0.712518
vn -0.697191 -0.079011 -0.712518
vn 0.697200 -0.079009 -0.712510
vn 0.697200 -0.079009 -0.712510
vn 0.697200 -0.079009 -0.712510
vn 0.697200 -0.079009 -0.712510
vn -0.000002 -0.000000 -1.000000
vn 0.000000 0.000000 -1.000000
vn 0.000000 0.000000 -1.000000
vn -0.000002 -0.000000 -1.000000
vn -0.000002 -0.000000 -1.000000
vn -0.000000 0.000000 -1.000000
vn -0.000000 0.000000 -1.000000
vn -0.000002 0.000000 -1.000000
vn -0.748176 -0.663501 0.000000
vn -0.748176 -0.663501 0.000000
vn -0.748176 -0.663501 0.000000
vn -0.499841 -0.866117 0.000000
vn -0.499841 -0.866117 0.000000
vn -0.499841 -0.866117 0.000000
vn -0.499841 -0.866117 0.000000
vn 0.000000 -1.000000 0.000000
vn 0.000000 -1.000000 0.000000
vn 0.000000 -1.000000 0.000000
vn 0.000000 -1.000000 0.000000
vn 0.499839 -0.866118 0.000000
vn 0.499839 -0.866118 0.000000
vn 0.499839 -0.866118 0.000000
vn 0.499839 -0.866118 0.000000
vn 0.748185 -0.663490 0.000000
vn 0.748185 -0.663490 0.000000
vn 0.748185 -0.663490 0.000000
vn -0.000002 0.000000 1.000000
vn -0.000002 0.000000 1.000000
vn -0.000000 0.000000 1.000000
vn -0.000000 0.000000 1.000000
vn -0.000002 0.000000 1.000000
vn 0.000000 0.000000 1.000000
vn 0.000000 0.000000 1.000000
vn -0.000002 -0.000000 1.000000
vn -0.000002 0.000000 1.000000
vn -0.000002 0.000000 1.000000
vn -0.000002 0.000000 1.000000
vn 0.000000 0.000000 1.000000
vn -0.000000 0.000000 1.000000
vn -0.000002 -0.000000 1.000000
vn -0.000002 0.000000 1.000000
vn -0.000002 0.000000 1.000000
vn -0.000002 -0.000000 -1.000000
vn -0.000002 -0.000000 -1.000000
vn -0.000000 0.000000 -1.000000
vn -0.000000 0.000000 -1.000000
vn -0.000002 0.000000 -1.000000
vn -0.000000 0.000000 -1.000000
vn -0.000000 0.000000 -1.000000
vn -0.000002 0.000000 -1.000000
vn -0.000002 -0.000000 -1.000000
vn -0.000002 -0.000000 -1.000000
vn -0.000000 0.000000 -1.000000
vn -0.000002 0.000000 -1.000000
vn -0.000002 -0.000000 -1.000000
vn -0.000000 0.000000 -1.000000
vn -0.000002 -0.000000 -1.000000
vn -0.000002 -0.000000 -1.000000
s off
f 1/5/1 2/6/2 6/7/3 5/8/4
f 2/6/5 3/9/6 7/10/7 6/7/8
f 3/9/9 4/11/10 8/12/11 7/10/12
f 44/1/13 43/2/14 42/3/15
f 45/4/16 44/1/17 42/3/18
f 46/13/19 45/4/20 42/3/21
f 5/14/22 6/15/23 10/16/24 9/17/25
f 6/15/26 7/18/27 11/19/28 10/16/29
f 7/18/30 8/20/31 12/21/32 11/19/33
f 9/17/34 10/16/35 14/22/36 13/23/37
f 10/16/38 11/19/39 15/24/40 14/22/41
f 11/19/42 12/21/43 16/25/44 15/24/45
f 13/23/46 14/22/47 18/26/48 17/27/49
f 14/22/50 15/24/51 19/28/52 18/26/53
f 15/24/54 16/25/55 20/29/56 19/28/57
f 17/27/58 18/26/59 22/30/60 21/31/61
f 18/26/62 19/28/63 23/32/64 22/30/65
f 19/28/66 20/29/67 24/33/68 23/32/69
f 21/31/70 22/30/71 26/34/72 25/35/73
f 22/30/74 23/32/75 27/36/76 26/34/77
f 23/32/78 24/33/79 28/37/80 27/36/81
f 25/35/82 26/34/83 30/38/84 29/39/85
f 26/34/86 27/36/87 31/40/88 30/38/89
f 27/36/90 28/37/91 32/41/92 31/40/93
f 29/39/94 30/38/95 34/42/96 33/43/97
f 30/38/98 31/40/99 35/44/100 34/42/101
f 31/40/102 32/41/103 36/45/104 35/44/105
f 33/43/106 34/42/107 37/46/108
f 34/42/109 35/44/110 37/46/111
f 35/44/112 36/45/113 37/46/114
f 2/47/115 1/48/116 38/49/117 39/50/118
f 3/51/119 2/47/120 39/50/121 40/52/122
f 4/53/123 3/51/124 40/52/125 41/54/126
f 39/50/127 38/49/128 43/2/129 44/1/130
f 40/52/131 39/50/132 44/1/133 45/4/134
f 41/54/135 40/52/136 45/4/137 46/13/138
f 66/55/139 49/56/140 51/57/141 70/62/142
f 50/63/143 48/64/144 94/65/145 96/66/146
f 48/64/147 52/67/148 98/71/149 94/65/150
f 54/73/151 50/63/152 96/66/153 100/75/154
f 52/58/155 56/59/156 98/60/157
f 70/61/158 51/68/159 55/69/160 69/70/161
f 53/72/162 67/74/163 68/76/164 57/77/165
f 58/78/166 54/79/167 100/80/168
f 60/81/169 59/82/170 54/79/171 58/78/172
f 52/58/173 62/83/174 61/84/175 56/59/176
f 66/55/177 62/95/178 52/67/179 48/64/180
f 64/85/181 63/86/182 59/82/183 60/81/184
f 62/83/185 66/137/186 65/136/187 61/84/188
f 68/76/189 67/74/190 63/86/191 64/85/192
f 66/137/193 70/61/194 69/70/195 65/136/196
f 1/107/197 5/110/198 73/109/199 71/108/200
f 71/108/201 73/109/202 74/112/203 72/111/204
f 72/111/205 74/112/206 8/114/207 4/113/208
f 91/115/209 42/117/210 43/116/211
f 92/118/212 42/117/213 91/115/214
f 46/119/215 42/117/216 92/118/217
f 5/14/218 9/17/219 75/87/220 73/88/221
f 73/88/222 75/87/223 76/89/224 74/90/225
f 74/90/226 76/89/227 12/21/228 8/20/229
f 9/17/230 13/23/231 77/91/232 75/87/233
f 75/87/234 77/91/235 78/92/236 76/89/237
f 76/89/238 78/92/239 16/25/240 12/21/241
f 13/23/242 17/27/243 79/93/244 77/91/245
f 77/91/246 79/93/247 80/94/248 78/92/249
f 78/92/250 80/94/251 20/29/252 16/25/253
f 17/27/254 21/31/255 81/120/256 79/93/257
f 79/93/258 81/120/259 82/121/260 80/94/261
f 80/94/262 82/121/263 24/33/264 20/29/265
f 21/31/266 25/35/267 83/122/268 81/120/269
f 81/120/270 83/122/271 84/123/272 82/121/273
f 82/121/274 84/123/275 28/37/276 24/33/277
f 25/35/278 29/39/279 85/124/280 83/122/281
f 83/122/282 85/124/283 86/125/284 84/123/285
f 84/123/286 86/125/287 32/41/288 28/37/289
f 29/39/290 33/43/291 87/126/292 85/124/293
f 85/124/294 87/126/295 88/127/296 86/125/297
f 86/125/298 88/127/299 36/45/300 32/41/301
f 33/43/302 37/46/303 87/126/304
f 87/126/305 37/46/306 88/127/307
f 88/127/308 37/46/309 36/45/310
f 71/149/311 89/146/312 38/147/313 1/148/314
f 72/145/315 90/144/316 89/146/317 71/149/318
f 4/143/319 41/142/320 90/144/321 72/145/322
f 89/146/323 91/115/324 43/116/325 38/147/326
f 90/144/327 92/118/328 91/115/329 89/146/330
f 41/142/331 46/119/332 92/118/333 90/144/334
f 106/135/335 69/70/336 55/69/337 97/134/338
f 99/133/339 57/77/340 68/76/341 105/132/342
f 60/81/343 58/78/344 100/80/345 101/131/346
f 98/60/347 56/59/348 61/84/349 102/130/350
f 64/85/351 60/81/352 101/131/353 103/129/354
f 102/130/355 61/84/356 65/136/357 104/128/358
f 68/76/359 64/85/360 103/129/361 105/132/362
f 104/128/363 65/136/364 69/70/365 106/135/366
f 93/96/367 99/97/368 105/98/369 103/99/370
f 96/66/371 103/99/372 101/100/373 100/75/374
f 51/68/375 97/134/376 55/69/377
f 49/56/378 95/101/379 97/102/380 51/57/381
f 47/103/382 93/96/383 95/101/384 49/56/385
f 53/104/386 99/97/387 93/96/388 47/103/389
f 57/77/390 99/133/391 53/72/392
f 63/105/393 50/63/394 54/73/395 59/106/396
f 47/103/397 63/105/398 67/141/399 53/104/400
f 47/103/401 49/56/402 66/55/403 63/105/404
f 66/55/405 48/64/406 50/63/407 63/105/408
f 104/140/409 94/65/410 98/71/411 102/139/412
f 95/101/413 104/140/414 106/138/415 97/102/416
f 93/96/417 103/99/418 104/140/419 95/101/420
f 104/140/421 103/99/422 96/66/423 94/65/424
