# This file uses centimeters as units for non-parametric coordinates.

v -8.183665 -20.000000 0.000000
v 20.000000 -0.000000 0.000000
v -8.183665 20.000000 0.000000
v -8.183665 7.000000 0.000000
v -8.183665 -7.000000 0.000000
v 16.411972 0.000000 4.000000
v -6.383665 -5.910856 4.000000
v -6.324209 -15.998785 4.000000
v -6.383665 16.477846 4.000000
v -5.915022 5.910856 4.000000
v 16.411972 -0.000000 -4.000000
v -6.383665 -5.910856 -4.000000
v -6.324209 -15.998785 -4.000000
v -6.383665 16.477846 -4.000000
v -5.915022 5.910856 -4.000000
v -20.000000 -7.000000 0.000000
v -20.000000 7.000000 0.000000
v -17.260538 5.900499 4.000000
v -17.964453 -5.900499 4.000000
v -17.260538 5.900499 -4.000000
v -17.964453 -5.900499 -4.000000
v 9.003361 4.013392 4.000000
v 5.282969 10.443660 0.000000
v 8.912748 4.078889 -4.000000
vt 0.075559 0.951537
vt 0.076546 0.952039
vt 0.076550 0.951039
vt 0.076546 0.952039
vt 0.076550 0.951039
vt 0.076547 0.951789
vt 0.076546 0.952039
vt 0.076546 0.952039
vt 0.075559 0.951537
vt 0.076550 0.951039
vt 0.076550 0.951039
vt 0.076549 0.951289
vt 0.075639 0.951538
vt 0.076547 0.951789
vt 0.075639 0.951538
vt 0.076294 0.951417
vt 0.076300 0.951664
vt 0.076300 0.951664
vt 0.076294 0.951417
vt 0.076259 0.951643
vt 0.076549 0.951289
vt 0.076547 0.951789
vt 0.076549 0.951289
vt 0.076259 0.951435
vt 0.076121 0.951274
vt 0.076076 0.951277
vt 0.076076 0.951277
vt 0.076124 0.951272
vn 0.000000 0.000000 1.000000
vn 0.000000 0.000000 1.000000
vn 0.000000 0.000000 1.000000
vn -0.908808 -0.002340 0.417207
vn -0.908808 -0.002340 0.417207
vn -0.908808 -0.002340 0.417207
vn -0.908808 -0.002340 0.417207
vn 0.509404 -0.720545 0.470450
vn 0.509404 -0.720545 0.470450
vn 0.509404 -0.720545 0.470450
vn 0.509404 -0.720545 0.470450
vn -0.895315 -0.017804 0.445077
vn -0.895315 -0.017804 0.445077
vn -0.895315 -0.017804 0.445077
vn -0.895315 -0.017804 0.445077
vn 0.527009 0.690536 0.495401
vn 0.527009 0.690536 0.495401
vn 0.527009 0.690536 0.495401
vn 0.527009 0.690536 0.495401
vn -0.908808 -0.002340 -0.417207
vn -0.908808 -0.002340 -0.417207
vn -0.908808 -0.002340 -0.417207
vn -0.908808 -0.002340 -0.417207
vn -0.895315 -0.017804 -0.445077
vn -0.895315 -0.017804 -0.445077
vn -0.895315 -0.017804 -0.445077
vn -0.895315 -0.017804 -0.445077
vn 0.527006 0.690416 -0.495571
vn 0.527006 0.690416 -0.495571
vn 0.527006 0.690416 -0.495571
vn 0.527006 0.690416 -0.495571
vn 0.000000 0.000000 -1.000000
vn 0.000000 0.000000 -1.000000
vn 0.000000 0.000000 -1.000000
vn 0.509404 -0.720545 -0.470450
vn 0.509404 -0.720545 -0.470450
vn 0.509404 -0.720545 -0.470450
vn 0.509404 -0.720545 -0.470450
vn 0.000000 0.000000 1.000000
vn 0.000000 0.000000 1.000000
vn 0.000000 0.000000 1.000000
vn 0.000000 0.000000 1.000000
vn 0.000000 0.000000 1.000000
vn 0.000000 0.000000 1.000000
vn 0.000000 0.000000 -1.000000
vn 0.000000 0.000000 -1.000000
vn 0.000000 0.000000 -1.000000
vn -0.000000 0.000000 -1.000000
vn -0.000000 0.000000 -1.000000
vn -0.000000 0.000000 -1.000000
vn 0.000000 0.000000 1.000000
vn 0.000000 0.000000 1.000000
vn 0.000000 0.000000 1.000000
vn 0.000000 0.000000 -1.000000
vn 0.000000 0.000000 -1.000000
vn 0.000000 0.000000 -1.000000
vn -0.858438 0.023420 -0.512381
vn -0.858438 0.023420 -0.512381
vn -0.858438 0.023420 -0.512381
vn -0.858438 0.023420 -0.512381
vn -0.858438 0.023420 0.512381
vn -0.858438 0.023420 0.512381
vn -0.858438 0.023420 0.512381
vn -0.858438 0.023420 0.512381
vn -0.000427 -0.964502 0.264074
vn -0.000427 -0.964502 0.264074
vn -0.000427 -0.964502 0.264074
vn -0.000427 -0.964502 0.264074
vn -0.000431 0.964486 0.264135
vn -0.000431 0.964486 0.264135
vn -0.000431 0.964486 0.264135
vn -0.000431 0.964486 0.264135
vn -0.000427 -0.964503 -0.264074
vn -0.000427 -0.964503 -0.264074
vn -0.000427 -0.964503 -0.264074
vn -0.000427 -0.964503 -0.264074
vn -0.000431 0.964486 -0.264135
vn -0.000431 0.964486 -0.264135
vn -0.000431 0.964486 -0.264135
vn -0.000431 0.964486 -0.264135
vn 0.000000 0.000000 1.000000
vn 0.000000 0.000000 1.000000
vn 0.000000 0.000000 1.000000
vn 0.000000 0.000000 -1.000000
vn 0.000000 0.000000 -1.000000
vn 0.000000 0.000000 -1.000000
vn -0.000000 0.000000 1.000000
vn -0.000000 0.000000 1.000000
vn -0.000000 0.000000 1.000000
vn 0.455721 0.697453 0.553061
vn 0.455721 0.697453 0.553061
vn 0.455721 0.697453 0.553061
vn 0.455721 0.697453 0.553061
vn 0.456016 0.697603 -0.552630
vn 0.456016 0.697603 -0.552630
vn 0.456016 0.697603 -0.552630
vn 0.456016 0.697603 -0.552630
vn 0.000000 0.000000 -1.000000
vn 0.000000 0.000000 -1.000000
vn 0.000000 0.000000 -1.000000
s off
f 6/13/1 19/18/2 7/14/3
f 5/22/4 1/2/5 8/4/6 7/14/7
f 2/1/8 6/13/9 8/4/10 1/2/11
f 3/3/12 4/21/13 10/12/14 9/5/15
f 3/3/16 9/5/17 22/25/18 23/27/19
f 5/22/20 12/6/21 13/8/22 1/7/23
f 3/10/24 14/11/25 15/23/26 4/21/27
f 3/10/28 23/26/29 24/28/30 14/11/31
f 11/15/32 12/6/33 21/17/34
f 2/9/35 1/7/36 13/8/37 11/15/38
f 6/13/39 7/14/40 8/4/41
f 10/12/42 6/13/43 22/25/44
f 24/28/45 15/23/46 14/11/47
f 11/15/48 13/8/49 12/6/50
f 18/19/51 6/13/52 10/12/53
f 11/15/54 20/16/55 15/23/56
f 16/20/57 17/24/58 20/16/59 21/17/60
f 17/24/61 16/20/62 19/18/63 18/19/64
f 16/20/65 5/22/66 7/14/67 19/18/68
f 4/21/69 17/24/70 18/19/71 10/12/72
f 16/20/73 21/17/74 12/6/75 5/22/76
f 4/21/77 15/23/78 20/16/79 17/24/80
f 18/19/81 19/18/82 6/13/83
f 20/16/84 11/15/85 21/17/86
f 10/12/87 22/25/88 9/5/89
f 23/27/90 22/25/91 6/13/92 2/1/93
f 24/28/94 23/26/95 2/9/96 11/15/97
f 11/15/98 15/23/99 24/28/100
