# This file uses centimeters as units for non-parametric coordinates.

v -9.976620 -20.000000 0.000000
v 17.691607 -0.000000 0.000000
v -9.976620 20.000000 0.000000
v -9.976620 7.000000 0.000000
v -9.976620 -7.000000 0.000000
v -0.292740 -0.000000 0.000000
v 2.779848 0.000000 4.000000
v 14.619019 0.000000 4.000000
v -8.176620 -7.919891 4.000000
v -8.117164 -15.998785 4.000000
v -8.176620 16.477846 4.000000
v -7.707976 7.919891 4.000000
v -7.431628 0.000000 0.000000
v -17.115507 7.000000 0.000000
v -17.115507 -7.000000 0.000000
v -9.992119 0.146656 2.000000
v -15.810501 3.675603 2.000000
v -15.566213 -4.064871 2.000000
v 3.279529 7.373723 4.000000
v 4.598228 9.464560 0.000000
v -3.558360 -13.139534 4.000000
v -3.393850 -15.241640 0.000000
v 2.779848 0.000000 -4.000000
v 14.619019 -0.000000 -4.000000
v -8.176620 -7.919891 -4.000000
v -8.117164 -15.998785 -4.000000
v -8.176620 16.477846 -4.000000
v -7.707976 7.919891 -4.000000
v -9.992119 0.146656 -2.000000
v -15.810501 3.675603 -2.000000
v -15.566213 -4.064871 -2.000000
v 3.279529 7.373723 -4.000000
v -3.558360 -13.139534 -4.000000
vt 0.075559 0.951537
vt 0.076053 0.951538
vt 0.076547 0.951789
vt 0.076546 0.952039
vt 0.076550 0.951039
vt 0.076549 0.951289
vt 0.076053 0.951538
vt 0.076547 0.951789
vt 0.076546 0.952039
vt 0.075559 0.951537
vt 0.076550 0.951039
vt 0.076549 0.951289
vt 0.076053 0.951538
vt 0.076549 0.951289
vt 0.076547 0.951789
vt 0.076053 0.951538
vt 0.076549 0.951289
vt 0.076547 0.951789
vt 0.076041 0.951295
vt 0.076028 0.951302
vt 0.076346 0.951938
vt 0.076311 0.951920
vt 0.075559 0.951537
vt 0.076053 0.951538
vt 0.076547 0.951789
vt 0.076346 0.951938
vt 0.076041 0.951295
vt 0.076053 0.951538
vt 0.076547 0.951789
vt 0.076546 0.952039
vt 0.076546 0.952039
vt 0.076311 0.951920
vt 0.075559 0.951537
vt 0.076550 0.951039
vt 0.076549 0.951289
vt 0.076549 0.951289
vt 0.076550 0.951039
vt 0.076028 0.951302
vt 0.076053 0.951538
vt 0.076549 0.951289
vt 0.076547 0.951789
vt 0.076053 0.951538
vt 0.076549 0.951289
vt 0.076547 0.951789
vn 0.000000 0.000000 1.000000
vn 0.000000 0.000000 1.000000
vn 0.000000 0.000000 1.000000
vn 0.000000 0.000000 1.000000
vn 0.000000 0.000000 1.000000
vn 0.000000 0.000000 1.000000
vn 0.000000 0.000000 1.000000
vn -0.534227 0.739055 0.410365
vn -0.534227 0.739055 0.410365
vn -0.534227 0.739055 0.410365
vn -0.534227 0.739055 0.410365
vn -0.908998 -0.002564 0.416792
vn -0.908998 -0.002564 0.416792
vn -0.908998 -0.002564 0.416792
vn -0.908998 -0.002564 0.416792
vn 0.534227 -0.739055 0.410365
vn 0.534227 -0.739055 0.410365
vn 0.534227 -0.739055 0.410365
vn 0.534227 -0.739055 0.410365
vn -0.893718 -0.019428 0.448208
vn -0.893718 -0.019428 0.448208
vn -0.893718 -0.019428 0.448208
vn -0.893718 -0.019428 0.448208
vn -0.534109 -0.722115 0.439633
vn -0.534109 -0.722115 0.439633
vn -0.534109 -0.722115 0.439633
vn -0.534109 -0.722115 0.439633
vn 0.533508 0.707131 0.464043
vn 0.533508 0.707131 0.464043
vn 0.533508 0.707131 0.464043
vn 0.533508 0.707131 0.464043
vn 0.000000 0.000000 1.000000
vn 0.000000 0.000000 1.000000
vn 0.000000 0.000000 1.000000
vn 0.431582 0.635439 0.640276
vn 0.431582 0.635439 0.640276
vn 0.431582 0.635439 0.640276
vn 0.431582 0.635439 0.640276
vn -0.814394 -0.009151 0.580241
vn -0.814394 -0.009151 0.580241
vn -0.814394 -0.009151 0.580241
vn -0.814394 -0.009151 0.580241
vn 0.469038 -0.638323 0.610366
vn 0.469038 -0.638323 0.610366
vn 0.469038 -0.638323 0.610366
vn 0.469038 -0.638323 0.610366
vn 0.000000 0.000000 1.000000
vn 0.000000 0.000000 1.000000
vn 0.000000 0.000000 1.000000
vn 0.000000 0.000000 1.000000
vn 0.502079 0.728532 0.466002
vn 0.502079 0.728532 0.466002
vn 0.502079 0.728532 0.466002
vn 0.502079 0.728532 0.466002
vn 0.000000 0.000000 1.000000
vn 0.000000 0.000000 1.000000
vn 0.000000 0.000000 1.000000
vn 0.502748 -0.735323 0.454472
vn 0.502748 -0.735323 0.454472
vn 0.502748 -0.735323 0.454472
vn 0.502748 -0.735323 0.454472
vn -0.000000 0.000000 -1.000000
vn -0.000000 0.000000 -1.000000
vn -0.000000 0.000000 -1.000000
vn -0.000000 0.000000 -1.000000
vn 0.000000 0.000000 -1.000000
vn 0.000000 0.000000 -1.000000
vn 0.000000 0.000000 -1.000000
vn -0.534227 0.739055 -0.410365
vn -0.534227 0.739055 -0.410365
vn -0.534227 0.739055 -0.410365
vn -0.534227 0.739055 -0.410365
vn -0.908998 -0.002564 -0.416792
vn -0.908998 -0.002564 -0.416792
vn -0.908998 -0.002564 -0.416792
vn -0.908998 -0.002564 -0.416792
vn 0.534227 -0.739055 -0.410365
vn 0.534227 -0.739055 -0.410365
vn 0.534227 -0.739055 -0.410365
vn 0.534227 -0.739055 -0.410365
vn -0.893718 -0.019428 -0.448208
vn -0.893718 -0.019428 -0.448208
vn -0.893718 -0.019428 -0.448208
vn -0.893718 -0.019428 -0.448208
vn -0.534109 -0.722115 -0.439633
vn -0.534109 -0.722115 -0.439633
vn -0.534109 -0.722115 -0.439633
vn -0.534109 -0.722115 -0.439633
vn 0.533508 0.707131 -0.464043
vn 0.533508 0.707131 -0.464043
vn 0.533508 0.707131 -0.464043
vn 0.533508 0.707131 -0.464043
vn 0.000000 0.000000 -1.000000
vn 0.000000 0.000000 -1.000000
vn 0.000000 0.000000 -1.000000
vn 0.431582 0.635439 -0.640276
vn 0.431582 0.635439 -0.640276
vn 0.431582 0.635439 -0.640276
vn 0.431582 0.635439 -0.640276
vn -0.814394 -0.009151 -0.580241
vn -0.814394 -0.009151 -0.580241
vn -0.814394 -0.009151 -0.580241
vn -0.814394 -0.009151 -0.580241
vn 0.469038 -0.638323 -0.610366
vn 0.469038 -0.638323 -0.610366
vn 0.469038 -0.638323 -0.610366
vn 0.469038 -0.638323 -0.610366
vn 0.000000 0.000000 -1.000000
vn 0.000000 0.000000 -1.000000
vn 0.000000 0.000000 -1.000000
vn 0.000000 0.000000 -1.000000
vn 0.502079 0.728532 -0.466002
vn 0.502079 0.728532 -0.466002
vn 0.502079 0.728532 -0.466002
vn 0.502079 0.728532 -0.466002
vn 0.000000 0.000000 -1.000000
vn 0.000000 0.000000 -1.000000
vn 0.000000 0.000000 -1.000000
vn 0.502748 -0.735323 -0.454472
vn 0.502748 -0.735323 -0.454472
vn 0.502748 -0.735323 -0.454472
vn 0.502748 -0.735323 -0.454472
s off
f 8/10/1 7/7/2 9/8/3 21/21/4
f 19/19/5 7/7/6 8/10/7
f 6/2/8 5/3/9 9/8/10 7/7/11
f 5/3/12 1/4/13 10/9/14 9/8/15
f 21/21/16 22/22/17 2/1/18 8/10/19
f 3/5/20 4/6/21 12/12/22 11/11/23
f 4/6/24 6/2/25 7/7/26 12/12/27
f 19/19/28 20/20/29 3/5/30 11/11/31
f 16/13/32 17/14/33 18/15/34
f 13/16/35 14/17/36 17/14/37 16/13/38
f 14/17/39 15/18/40 18/15/41 17/14/42
f 15/18/43 13/16/44 16/13/45 18/15/46
f 11/11/47 12/12/48 7/7/49 19/19/50
f 2/1/51 20/20/52 19/19/53 8/10/54
f 21/21/55 9/8/56 10/9/57
f 1/4/58 22/22/59 21/21/60 10/9/61
f 24/23/62 33/26/63 25/25/64 23/24/65
f 32/27/66 24/23/67 23/24/68
f 6/28/69 23/24/70 25/25/71 5/29/72
f 5/29/73 25/25/74 26/31/75 1/30/76
f 33/26/77 24/23/78 2/33/79 22/32/80
f 3/34/81 27/37/82 28/36/83 4/35/84
f 4/35/85 28/36/86 23/24/87 6/28/88
f 32/27/89 27/37/90 3/34/91 20/38/92
f 29/39/93 31/41/94 30/40/95
f 13/42/96 29/39/97 30/40/98 14/43/99
f 14/43/100 30/40/101 31/41/102 15/44/103
f 15/44/104 31/41/105 29/39/106 13/42/107
f 27/37/108 32/27/109 23/24/110 28/36/111
f 2/33/112 24/23/113 32/27/114 20/38/115
f 33/26/116 26/31/117 25/25/118
f 1/30/119 26/31/120 33/26/121 22/32/122
