# This file uses centimeters as units for non-parametric coordinates.

v -11.281802 -12.545588 -0.068441
v 19.519560 -12.545586 -0.068441
v 2.627265 17.926704 -0.068441
v 2.878478 15.700516 -2.136881
v -9.544372 -11.207891 -2.136881
v 15.727745 -11.207890 -2.136881
v -0.820417 9.823156 -0.068441
v -0.178949 8.234940 -2.136881
v 5.535396 9.981657 -2.136881
v 7.316712 9.323263 -0.068441
v 2.286444 10.239775 -2.136881
v 4.738686 6.021254 -2.136881
v -19.138855 -12.545588 -0.068441
v 9.308405 -12.545586 -0.068441
v -7.436942 5.695931 -0.068441
v -7.007788 2.974179 -3.999998
v -16.741718 -11.207891 -3.999998
v 5.743181 -11.207890 -3.999998
v -2.963707 -1.154673 -0.068441
v -3.889655 -2.413815 -3.999998
v -12.129186 -5.114078 -3.999998
v -14.091354 -5.064975 -0.068441
v 2.878478 15.700516 2.000000
v -9.544372 -11.207891 2.000000
v 15.727745 -11.207890 2.000000
v -0.178949 8.234940 2.000000
v 5.535396 9.981657 2.000000
v 2.286444 10.239775 2.000000
v 4.738686 6.021254 2.000000
v -7.007788 2.974179 4.000000
v -16.741718 -11.207891 4.000000
v 5.743181 -11.207890 4.000000
v -3.889655 -2.413815 4.000000
v -12.129186 -5.114078 4.000000
vt 0.983314 0.984652
vt 0.608441 0.922695
vt 0.608481 0.922700
vt 0.983305 0.984681
vt 0.983230 0.984558
vt 0.608264 0.922470
vt 0.608752 0.922471
vt 0.608733 0.922479
vt 0.608290 0.922478
vt 0.608557 0.922700
vt 0.608563 0.922709
vt 0.608536 0.922687
vt 0.608804 0.952134
vt 0.608934 0.952277
vt 0.608905 0.952296
vt 0.608756 0.952132
vt 0.609379 0.952134
vt 0.609343 0.952136
vt 0.609152 0.952385
vt 0.609144 0.952353
vt 0.609062 0.952510
vt 0.609065 0.952462
vt 0.983390 0.984556
vt 0.983397 0.984566
vt 0.983365 0.984540
vt 0.983299 0.984556
vt 0.983251 0.984550
vt 0.608423 0.922702
vt 0.983314 0.984652
vt 0.983251 0.984550
vt 0.983299 0.984556
vt 0.983305 0.984681
vt 0.983230 0.984558
vt 0.608264 0.922470
vt 0.608752 0.922471
vt 0.608733 0.922479
vt 0.608290 0.922478
vt 0.983390 0.984556
vt 0.983397 0.984566
vt 0.608441 0.922695
vt 0.608423 0.922702
vt 0.608481 0.922700
vt 0.608563 0.922709
vt 0.608557 0.922700
vt 0.983365 0.984540
vt 0.608804 0.952134
vt 0.608934 0.952277
vt 0.608905 0.952296
vt 0.608756 0.952132
vt 0.609379 0.952134
vt 0.609343 0.952136
vt 0.609152 0.952385
vt 0.609144 0.952353
vt 0.609062 0.952510
vt 0.609065 0.952462
vt 0.608536 0.922687
vn -0.000000 0.000000 -1.000000
vn -0.000000 0.000000 -1.000000
vn -0.000000 0.000000 -1.000000
vn -0.806919 0.337148 -0.484988
vn -0.806919 0.337148 -0.484988
vn -0.806919 0.337148 -0.484988
vn -0.806919 0.337148 -0.484988
vn 0.000000 -0.839701 -0.543049
vn 0.000000 -0.839701 -0.543049
vn 0.000000 -0.839701 -0.543049
vn 0.000000 -0.839701 -0.543049
vn 0.795183 0.407875 -0.448690
vn 0.795183 0.407875 -0.448690
vn 0.795183 0.407875 -0.448690
vn 0.795183 0.407875 -0.448690
vn -0.793204 0.376133 -0.478907
vn -0.793204 0.376133 -0.478907
vn -0.793204 0.376133 -0.478907
vn -0.793204 0.376133 -0.478907
vn -0.000001 0.000000 -1.000000
vn -0.000001 0.000000 -1.000000
vn -0.000001 0.000000 -1.000000
vn 0.635999 0.330791 -0.697196
vn 0.635999 0.330791 -0.697196
vn 0.635999 0.330791 -0.697196
vn 0.635999 0.330791 -0.697196
vn 0.000000 0.000000 -1.000000
vn 0.000000 0.000000 -1.000000
vn 0.000000 0.000000 -1.000000
vn 0.000000 0.000000 -1.000000
vn 0.000000 0.000000 -1.000000
vn 0.000000 0.000000 -1.000000
vn -0.767400 0.546108 -0.335951
vn -0.767400 0.546108 -0.335951
vn -0.767400 0.546108 -0.335951
vn -0.767400 0.546108 -0.335951
vn 0.000000 -0.946702 -0.322111
vn 0.000000 -0.946702 -0.322111
vn 0.000000 -0.946702 -0.322111
vn 0.000000 -0.946702 -0.322111
vn 0.633515 0.687496 -0.354976
vn 0.633515 0.687496 -0.354976
vn 0.633515 0.687496 -0.354976
vn 0.633515 0.687496 -0.354976
vn 0.000000 0.000000 -1.000000
vn 0.000000 0.000000 -1.000000
vn 0.000000 0.000000 -1.000000
vn 0.000000 0.000000 -1.000000
vn 0.809236 0.501953 -0.305254
vn 0.809236 0.501953 -0.305254
vn 0.809236 0.501953 -0.305254
vn 0.809236 0.501954 -0.305254
vn 0.000000 0.000000 -1.000000
vn 0.000000 0.000000 -1.000000
vn 0.000000 0.000000 -1.000000
vn -0.774948 0.484140 -0.406281
vn -0.774948 0.484140 -0.406281
vn -0.774948 0.484140 -0.406281
vn -0.774948 0.484140 -0.406281
vn 0.000000 0.000000 -1.000000
vn 0.000000 0.000000 -1.000000
vn 0.000000 0.000000 -1.000000
vn 0.000000 -0.000000 -1.000000
vn 0.000000 -0.000000 -1.000000
vn 0.000000 -0.000000 -1.000000
vn 0.000000 -0.000000 -1.000000
vn -0.000000 0.000000 1.000000
vn -0.000000 0.000000 1.000000
vn -0.000000 0.000000 1.000000
vn -0.806919 0.337148 0.484988
vn -0.806919 0.337148 0.484988
vn -0.806919 0.337148 0.484988
vn -0.806919 0.337148 0.484988
vn 0.000000 -0.839701 0.543049
vn 0.000000 -0.839701 0.543049
vn 0.000000 -0.839701 0.543049
vn 0.000000 -0.839701 0.543049
vn 0.795183 0.407875 0.448690
vn 0.795183 0.407875 0.448690
vn 0.795183 0.407875 0.448690
vn 0.795183 0.407875 0.448690
vn -0.793204 0.376133 0.478907
vn -0.793204 0.376133 0.478907
vn -0.793204 0.376133 0.478907
vn -0.793204 0.376133 0.478907
vn -0.000000 0.000000 1.000000
vn -0.000000 0.000000 1.000000
vn -0.000000 0.000000 1.000000
vn 0.635999 0.330791 0.697196
vn 0.635999 0.330791 0.697196
vn 0.635999 0.330791 0.697196
vn 0.635999 0.330791 0.697196
vn 0.000000 0.000000 1.000000
vn 0.000000 0.000000 1.000000
vn 0.000000 0.000000 1.000000
vn 0.000000 0.000000 1.000000
vn 0.000000 0.000000 1.000000
vn 0.000000 0.000000 1.000000
vn -0.770281 0.548159 0.325866
vn -0.770281 0.548159 0.325866
vn -0.770281 0.548159 0.325866
vn -0.770281 0.548159 0.325866
vn 0.000000 -0.949968 0.312348
vn 0.000000 -0.949968 0.312348
vn 0.000000 -0.949968 0.312348
vn 0.000000 -0.949968 0.312348
vn 0.636172 0.690380 0.344472
vn 0.636172 0.690380 0.344472
vn 0.636172 0.690380 0.344472
vn 0.636172 0.690380 0.344472
vn 0.000000 0.000000 1.000000
vn 0.000000 0.000000 1.000000
vn 0.000000 0.000000 1.000000
vn 0.000000 0.000000 1.000000
vn 0.811742 0.503508 0.295897
vn 0.811742 0.503508 0.295897
vn 0.811742 0.503508 0.295897
vn 0.811742 0.503508 0.295897
vn 0.000000 0.000000 1.000000
vn 0.000000 0.000000 1.000000
vn 0.000000 0.000000 1.000000
vn -0.779214 0.486806 0.394773
vn -0.779214 0.486806 0.394773
vn -0.779214 0.486806 0.394773
vn -0.779214 0.486806 0.394773
vn 0.000000 0.000000 1.000000
vn 0.000000 0.000000 1.000000
vn 0.000000 0.000000 1.000000
vn 0.000000 -0.000000 1.000000
vn 0.000000 -0.000000 1.000000
vn 0.000000 -0.000000 1.000000
vn 0.000000 -0.000000 1.000000
s off
f 4/1/1 11/26/2 8/27/3
f 3/4/4 4/1/5 8/27/6 7/5/7
f 1/6/8 5/9/9 6/8/10 2/7/11
f 9/23/12 4/1/13 3/4/14 10/24/15
f 8/2/16 5/9/17 1/6/18 7/28/19
f 5/9/20 8/2/21 11/3/22
f 2/7/23 6/8/24 9/10/25 10/11/26
f 4/1/27 9/23/28 12/25/29
f 4/1/30 12/25/31 11/26/32
f 17/13/33 13/16/34 22/15/35 21/14/36
f 13/16/37 17/13/38 18/18/39 14/17/40
f 14/17/41 18/18/42 20/20/43 19/19/44
f 20/20/45 18/18/46 17/13/47 21/14/48
f 20/20/49 16/22/50 15/21/51 19/19/52
f 16/22/53 20/20/54 21/14/55
f 22/15/56 15/21/57 16/22/58 21/14/59
f 9/10/60 6/8/61 12/12/62
f 6/8/63 5/9/64 11/3/65 12/12/66
f 23/29/67 26/30/68 28/31/69
f 3/32/70 7/33/71 26/30/72 23/29/73
f 1/34/74 2/35/75 25/36/76 24/37/77
f 27/38/78 10/39/79 3/32/80 23/29/81
f 26/40/82 7/41/83 1/34/84 24/37/85
f 24/37/86 28/42/87 26/40/88
f 2/35/89 10/43/90 27/44/91 25/36/92
f 23/29/93 29/45/94 27/38/95
f 23/29/96 28/31/97 29/45/98
f 31/46/99 34/47/100 22/48/101 13/49/102
f 13/49/103 14/50/104 32/51/105 31/46/106
f 14/50/107 19/52/108 33/53/109 32/51/110
f 33/53/111 34/47/112 31/46/113 32/51/114
f 33/53/115 19/52/116 15/54/117 30/55/118
f 30/55/119 34/47/120 33/53/121
f 22/48/122 34/47/123 30/55/124 15/54/125
f 27/44/126 29/56/127 25/36/128
f 25/36/129 29/56/130 28/42/131 24/37/132
