# This file uses centimeters as units for non-parametric coordinates.

v 12.139897 -10.926364 4.000000
v 4.637025 -17.251925 4.000000
v -5.373376 -16.377499 4.000000
v -12.323983 -10.926360 4.000000
v -14.821646 -2.181231 4.000000
v 15.005733 -2.181231 4.000000
v 14.063672 -12.146065 0.000000
v 5.220428 -18.976748 0.000000
v -5.220429 -19.274054 0.000000
v -13.667263 -12.344266 0.000000
v -16.893665 -2.181231 0.000000
v 16.893665 -2.181231 0.000000
v 5.918136 -6.556025 4.000000
v 2.168482 -9.121378 4.000000
v -2.260524 -9.213417 4.000000
v -5.918134 -6.556023 4.000000
v -7.315213 -1.767034 4.000000
v 7.315215 -2.181232 4.000000
v -11.672793 18.399633 4.000000
v -12.695442 19.274052 -0.000000
v 11.672795 18.399633 4.000000
v 12.992748 19.274052 -0.000000
v -5.690425 18.261568 4.000000
v 5.690427 17.801346 4.000000
v 5.092453 -5.808373 0.000000
v 2.058704 -7.782554 0.000000
v -2.058702 -7.683450 0.000000
v -4.696044 -5.808370 0.000000
v -6.067492 -1.824166 0.000000
v 5.968392 -1.824166 0.000000
v -4.786258 18.859854 0.000000
v 4.736709 18.859854 0.000000
v -13.553450 8.520083 4.000000
v -14.716530 8.491703 0.000000
v 13.737543 8.243951 4.000000
v 14.870709 8.491703 0.000000
v -6.610687 8.243951 4.000000
v 6.656712 8.243951 4.000000
v -5.262155 8.491703 0.000000
v 5.188331 8.491703 0.000000
v 12.139897 -10.926364 -4.000000
v 4.637025 -17.251925 -4.000000
v -5.373376 -16.377499 -4.000000
v -12.323983 -10.926360 -4.000000
v -14.821646 -2.181231 -4.000000
v 15.005733 -2.181231 -4.000000
v 5.918136 -6.556025 -4.000000
v 2.168482 -9.121378 -4.000000
v -2.260524 -9.213417 -4.000000
v -5.918134 -6.556023 -4.000000
v -7.315213 -1.767034 -4.000000
v 7.315215 -2.181232 -4.000000
v -11.672793 18.399633 -4.000000
v 11.672795 18.399633 -4.000000
v -5.690425 18.261568 -4.000000
v 5.690427 17.801346 -4.000000
v -13.553450 8.520083 -4.000000
v 13.737543 8.243951 -4.000000
v -6.610687 8.243951 -4.000000
v 6.656712 8.243951 -4.000000
vt 0.017767 0.950945
vt 0.016491 0.949637
vt 0.016590 0.949280
vt 0.018095 0.950693
vt 0.014788 0.949818
vt 0.014814 0.949219
vt 0.013606 0.950945
vt 0.013377 0.950652
vt 0.013181 0.952753
vt 0.012828 0.952753
vt 0.018255 0.952753
vt 0.018576 0.952753
vt 0.016709 0.951849
vt 0.016071 0.951318
vt 0.015318 0.951299
vt 0.014696 0.951849
vt 0.014458 0.952839
vt 0.016947 0.952753
vt 0.013397 0.954966
vt 0.013199 0.954961
vt 0.018232 0.954961
vt 0.018039 0.954909
vt 0.014578 0.954909
vt 0.016835 0.954909
vt 0.016569 0.952003
vt 0.016052 0.951595
vt 0.015352 0.951616
vt 0.014903 0.952003
vt 0.014670 0.952827
vt 0.016718 0.952827
vt 0.016585 0.954961
vt 0.014807 0.954961
vt 0.956544 0.979166
vt 0.956387 0.988869
vt 0.956211 0.980157
vt 0.955874 0.989101
vt 0.960182 0.979726
vt 0.960503 0.989101
vt 0.954124 0.979597
vt 0.953664 0.978779
vt 0.960032 0.988869
vt 0.959866 0.979166
vt 0.953009 0.988869
vt 0.953404 0.989101
vt 0.963331 0.988869
vt 0.962626 0.978779
vt 0.962269 0.979597
vt 0.962925 0.988842
vt 0.017767 0.950945
vt 0.016491 0.949637
vt 0.016590 0.949280
vt 0.018095 0.950693
vt 0.014788 0.949818
vt 0.014814 0.949219
vt 0.013606 0.950945
vt 0.013377 0.950652
vt 0.013181 0.952753
vt 0.012828 0.952753
vt 0.018255 0.952753
vt 0.018576 0.952753
vt 0.016709 0.951849
vt 0.016071 0.951318
vt 0.015318 0.951299
vt 0.014696 0.951849
vt 0.014458 0.952839
vt 0.016947 0.952753
vt 0.013397 0.954966
vt 0.013199 0.954961
vt 0.018232 0.954961
vt 0.018039 0.954909
vt 0.014578 0.954909
vt 0.016835 0.954909
vt 0.016569 0.952003
vt 0.016052 0.951595
vt 0.015352 0.951616
vt 0.014903 0.952003
vt 0.014670 0.952827
vt 0.016718 0.952827
vt 0.960182 0.979726
vt 0.960503 0.989101
vt 0.960032 0.988869
vt 0.959866 0.979166
vt 0.016585 0.954961
vt 0.963331 0.988869
vt 0.962925 0.988842
vt 0.962269 0.979597
vt 0.962626 0.978779
vt 0.953404 0.989101
vt 0.953009 0.988869
vt 0.953664 0.978779
vt 0.954124 0.979597
vt 0.955874 0.989101
vt 0.956211 0.980157
vt 0.014807 0.954961
vt 0.956387 0.988869
vt 0.956544 0.979166
vn 0.564540 -0.701419 0.435094
vn 0.564540 -0.701419 0.435094
vn 0.564540 -0.701419 0.435094
vn 0.564540 -0.701419 0.435094
vn -0.024455 -0.866619 0.498371
vn -0.024455 -0.866619 0.498371
vn -0.024455 -0.866619 0.498371
vn -0.024455 -0.866619 0.498371
vn -0.557432 -0.693246 0.456814
vn -0.557432 -0.693246 0.456814
vn -0.557432 -0.693246 0.456814
vn -0.557432 -0.693246 0.456814
vn -0.869535 -0.263234 0.417871
vn -0.869535 -0.263234 0.417871
vn -0.869535 -0.263234 0.417871
vn -0.869535 -0.263234 0.417871
vn 0.855584 -0.260463 0.447365
vn 0.855584 -0.260463 0.447365
vn 0.855584 -0.260463 0.447365
vn 0.855584 -0.260463 0.447365
vn 0.000000 0.000000 1.000000
vn 0.000000 0.000000 1.000000
vn 0.000000 0.000000 1.000000
vn 0.000000 0.000000 1.000000
vn 0.000000 0.000000 1.000000
vn 0.000000 0.000000 1.000000
vn 0.000000 0.000000 1.000000
vn 0.000000 0.000000 1.000000
vn 0.000000 0.000000 1.000000
vn 0.000000 0.000000 1.000000
vn 0.000000 0.000000 1.000000
vn 0.000000 0.000000 1.000000
vn 0.000000 0.000000 1.000000
vn 0.000000 0.000000 1.000000
vn 0.000000 0.000000 1.000000
vn 0.000000 0.000000 1.000000
vn -0.000000 0.000000 1.000000
vn -0.000000 0.000000 1.000000
vn -0.000000 0.000000 1.000000
vn -0.000000 0.000000 1.000000
vn -0.917065 0.147822 0.370325
vn -0.917065 0.147822 0.370325
vn -0.931855 0.163271 0.324018
vn -0.985156 0.171663 -0.000000
vn 0.924257 0.144177 0.353499
vn 0.924257 0.144177 0.353499
vn 0.929439 0.160038 0.332461
vn 0.929362 0.159787 0.332797
vn 0.000000 0.000000 1.000000
vn 0.000000 0.000000 1.000000
vn 0.000000 0.000000 1.000000
vn 0.000000 0.000000 1.000000
vn 0.000000 0.000000 1.000000
vn 0.000000 0.000000 1.000000
vn 0.000000 0.000000 1.000000
vn 0.000000 0.000000 1.000000
vn -0.535317 0.799921 0.271223
vn -0.535317 0.799921 0.271223
vn -0.556164 0.831073 0.000000
vn -0.556164 0.831073 0.000000
vn 0.000778 0.941304 0.337560
vn 0.000778 0.941304 0.337560
vn 0.000778 0.941304 0.337560
vn 0.000778 0.941304 0.337560
vn 0.554044 0.769487 0.317689
vn 0.554044 0.769487 0.317689
vn 0.554044 0.769487 0.317688
vn 0.554044 0.769487 0.317689
vn 0.908170 0.286588 0.305113
vn 0.908170 0.286588 0.305113
vn 0.908170 0.286588 0.305113
vn 0.908170 0.286588 0.305113
vn -0.924700 0.251449 0.285837
vn -0.924700 0.251449 0.285837
vn -0.964960 0.262396 -0.000000
vn -0.964960 0.262396 -0.000000
vn 0.962270 -0.065903 0.263994
vn 0.955633 -0.068361 0.286518
vn 0.997472 -0.071054 0.000000
vn 0.997663 -0.068327 0.000000
vn -0.942817 -0.065392 0.326834
vn -0.950033 -0.066684 0.304943
vn -0.997539 -0.070113 0.000000
vn -0.942817 -0.065392 0.326834
vn -0.985156 0.171663 -0.000000
vn -0.931855 0.163271 0.324018
vn -0.944229 0.178306 0.276835
vn -0.982633 0.185558 0.000000
vn 0.929362 0.159787 0.332797
vn 0.929439 0.160038 0.332461
vn 0.933975 0.175871 0.311064
vn 0.933975 0.175871 0.311064
vn 0.000000 0.000000 1.000000
vn 0.000000 0.000000 1.000000
vn 0.000000 0.000000 1.000000
vn 0.000000 0.000000 1.000000
vn 0.000000 0.000000 1.000000
vn 0.000000 0.000000 1.000000
vn 0.000000 0.000000 1.000000
vn 0.000000 0.000000 1.000000
vn 0.997472 -0.071054 0.000000
vn 0.955633 -0.068361 0.286518
vn 0.949289 -0.070512 0.306394
vn 0.949289 -0.070512 0.306394
vn -0.997539 -0.070113 0.000000
vn -0.950033 -0.066684 0.304943
vn -0.957902 -0.068165 0.278887
vn -0.997478 -0.070981 0.000000
vn 0.039724 0.999211 -0.000000
vn 0.039073 0.982827 0.180347
vn 0.039073 0.982827 0.180347
vn 0.039724 0.999211 -0.000000
vn -0.069007 0.970429 0.231312
vn -0.070930 0.997481 0.000000
vn -0.070930 0.997481 0.000000
vn -0.069007 0.970429 0.231312
vn 0.564540 -0.701419 -0.435094
vn 0.564540 -0.701419 -0.435094
vn 0.564540 -0.701419 -0.435094
vn 0.564540 -0.701419 -0.435094
vn -0.024455 -0.866619 -0.498371
vn -0.024455 -0.866619 -0.498371
vn -0.024455 -0.866619 -0.498371
vn -0.024455 -0.866619 -0.498371
vn -0.557432 -0.693246 -0.456814
vn -0.557432 -0.693246 -0.456814
vn -0.557432 -0.693246 -0.456814
vn -0.557432 -0.693246 -0.456814
vn -0.869535 -0.263234 -0.417871
vn -0.869535 -0.263234 -0.417871
vn -0.869535 -0.263234 -0.417871
vn -0.869535 -0.263234 -0.417871
vn 0.855584 -0.260463 -0.447365
vn 0.855584 -0.260463 -0.447365
vn 0.855584 -0.260463 -0.447365
vn 0.855584 -0.260463 -0.447365
vn 0.000000 0.000000 -1.000000
vn 0.000000 0.000000 -1.000000
vn 0.000000 0.000000 -1.000000
vn 0.000000 0.000000 -1.000000
vn 0.000000 0.000000 -1.000000
vn 0.000000 0.000000 -1.000000
vn 0.000000 0.000000 -1.000000
vn 0.000000 0.000000 -1.000000
vn 0.000000 0.000000 -1.000000
vn 0.000000 0.000000 -1.000000
vn 0.000000 0.000000 -1.000000
vn 0.000000 0.000000 -1.000000
vn 0.000000 0.000000 -1.000000
vn 0.000000 0.000000 -1.000000
vn 0.000000 0.000000 -1.000000
vn 0.000000 0.000000 -1.000000
vn 0.000000 0.000000 -1.000000
vn 0.000000 0.000000 -1.000000
vn 0.000000 0.000000 -1.000000
vn 0.000000 0.000000 -1.000000
vn -0.917065 0.147822 -0.370325
vn -0.985156 0.171663 -0.000000
vn -0.931855 0.163271 -0.324018
vn -0.917065 0.147822 -0.370325
vn 0.924257 0.144177 -0.353499
vn 0.929362 0.159787 -0.332797
vn 0.929439 0.160038 -0.332461
vn 0.924257 0.144177 -0.353499
vn 0.000000 0.000000 -1.000000
vn 0.000000 0.000000 -1.000000
vn 0.000000 0.000000 -1.000000
vn 0.000000 0.000000 -1.000000
vn -0.000000 0.000000 -1.000000
vn -0.000000 0.000000 -1.000000
vn -0.000000 0.000000 -1.000000
vn -0.000000 0.000000 -1.000000
vn -0.535317 0.799921 -0.271223
vn -0.556164 0.831073 0.000000
vn -0.556164 0.831073 0.000000
vn -0.535317 0.799921 -0.271223
vn 0.000778 0.941304 -0.337560
vn 0.000778 0.941304 -0.337560
vn 0.000778 0.941304 -0.337560
vn 0.000778 0.941304 -0.337560
vn 0.554044 0.769487 -0.317689
vn 0.554044 0.769487 -0.317688
vn 0.554044 0.769487 -0.317688
vn 0.554044 0.769487 -0.317688
vn 0.908170 0.286588 -0.305113
vn 0.908170 0.286588 -0.305113
vn 0.908170 0.286588 -0.305113
vn 0.908170 0.286588 -0.305113
vn -0.924700 0.251449 -0.285837
vn -0.964960 0.262396 -0.000000
vn -0.964960 0.262396 -0.000000
vn -0.924700 0.251449 -0.285837
vn 0.962270 -0.065903 -0.263994
vn 0.997663 -0.068327 0.000000
vn 0.997472 -0.071054 0.000000
vn 0.955633 -0.068361 -0.286518
vn -0.942817 -0.065392 -0.326834
vn -0.942817 -0.065392 -0.326834
vn -0.997539 -0.070113 0.000000
vn -0.950033 -0.066684 -0.304943
vn -0.985156 0.171663 -0.000000
vn -0.982633 0.185558 0.000000
vn -0.944229 0.178306 -0.276835
vn -0.931855 0.163271 -0.324018
vn 0.929362 0.159787 -0.332797
vn 0.933975 0.175871 -0.311064
vn 0.933975 0.175871 -0.311064
vn 0.929439 0.160038 -0.332461
vn 0.000000 0.000000 -1.000000
vn 0.000000 0.000000 -1.000000
vn 0.000000 0.000000 -1.000000
vn 0.000000 0.000000 -1.000000
vn -0.000000 0.000000 -1.000000
vn 0.000000 0.000000 -1.000000
vn 0.000000 0.000000 -1.000000
vn -0.000000 0.000000 -1.000000
vn 0.997472 -0.071054 0.000000
vn 0.949289 -0.070512 -0.306394
vn 0.949290 -0.070512 -0.306394
vn 0.955633 -0.068361 -0.286518
vn -0.997539 -0.070113 0.000000
vn -0.997478 -0.070981 0.000000
vn -0.957902 -0.068165 -0.278887
vn -0.950033 -0.066684 -0.304943
vn 0.039724 0.999211 -0.000000
vn 0.039724 0.999211 -0.000000
vn 0.039073 0.982827 -0.180348
vn 0.039073 0.982827 -0.180348
vn -0.069007 0.970429 -0.231311
vn -0.069007 0.970429 -0.231311
vn -0.070930 0.997481 0.000000
vn -0.070930 0.997481 0.000000
s off
f 1/1/1 2/2/2 8/3/3 7/4/4
f 2/2/5 3/5/6 9/6/7 8/3/8
f 3/5/9 4/7/10 10/8/11 9/6/12
f 4/7/13 5/9/14 11/10/15 10/8/16
f 6/11/17 1/1/18 7/4/19 12/12/20
f 2/2/21 1/1/22 13/13/23 14/14/24
f 3/5/25 2/2/26 14/14/27 15/15/28
f 4/7/29 3/5/30 15/15/31 16/16/32
f 5/9/33 4/7/34 16/16/35 17/17/36
f 1/1/37 6/11/38 18/18/39 13/13/40
f 11/10/41 5/9/42 33/19/43 34/20/44
f 6/11/45 12/12/46 36/21/47 35/22/48
f 5/9/49 17/17/50 37/23/51 33/19/52
f 18/18/53 6/11/54 35/22/55 38/24/56
f 14/14/57 13/13/58 25/25/59 26/26/60
f 15/15/61 14/14/62 26/26/63 27/27/64
f 16/16/65 15/15/66 27/27/67 28/28/68
f 17/17/69 16/16/70 28/28/71 29/29/72
f 13/13/73 18/18/74 30/30/75 25/25/76
f 23/37/77 37/38/78 39/41/79 31/42/80
f 18/18/81 38/24/82 40/31/83 30/30/84
f 34/45/85 33/48/86 19/47/87 20/46/88
f 35/44/89 36/43/90 22/40/91 21/39/92
f 33/48/93 37/38/94 23/37/95 19/47/96
f 38/36/97 35/44/98 21/39/99 24/35/100
f 39/32/101 37/23/102 17/17/103 29/29/104
f 40/34/105 38/36/106 24/35/107 32/33/108
f 20/46/109 19/47/110 23/37/111 31/42/112
f 21/39/113 22/40/114 32/33/115 24/35/116
f 41/49/117 7/52/118 8/51/119 42/50/120
f 42/50/121 8/51/122 9/54/123 43/53/124
f 43/53/125 9/54/126 10/56/127 44/55/128
f 44/55/129 10/56/130 11/58/131 45/57/132
f 46/59/133 12/60/134 7/52/135 41/49/136
f 42/50/137 48/62/138 47/61/139 41/49/140
f 43/53/141 49/63/142 48/62/143 42/50/144
f 44/55/145 50/64/146 49/63/147 43/53/148
f 45/57/149 51/65/150 50/64/151 44/55/152
f 41/49/153 47/61/154 52/66/155 46/59/156
f 11/58/157 34/68/158 57/67/159 45/57/160
f 46/59/161 58/70/162 36/69/163 12/60/164
f 45/57/165 57/67/166 59/71/167 51/65/168
f 52/66/169 60/72/170 58/70/171 46/59/172
f 48/62/173 26/74/174 25/73/175 47/61/176
f 49/63/177 27/75/178 26/74/179 48/62/180
f 50/64/181 28/76/182 27/75/183 49/63/184
f 51/65/185 29/77/186 28/76/187 50/64/188
f 47/61/189 25/73/190 30/78/191 52/66/192
f 55/79/193 31/82/194 39/81/195 59/80/196
f 52/66/197 30/78/198 40/83/199 60/72/200
f 34/84/201 20/87/202 53/86/203 57/85/204
f 58/88/205 54/91/206 22/90/207 36/89/208
f 57/85/209 53/86/210 55/79/211 59/80/212
f 60/92/213 56/93/214 54/91/215 58/88/216
f 39/94/217 29/77/218 51/65/219 59/71/220
f 40/95/221 32/96/222 56/93/223 60/92/224
f 20/87/225 31/82/226 55/79/227 53/86/228
f 54/91/229 56/93/230 32/96/231 22/90/232
