# This file uses centimeters as units for non-parametric coordinates.

v 12.202642 6.956596 0.000000
v 13.880353 13.880324 0.000000
v 6.956618 12.202617 0.000000
v 7.239319 7.239294 0.000000
v 6.956619 -12.202618 0.000000
v 13.880347 -13.880328 0.000000
v 12.202640 -6.956593 0.000000
v 7.239317 -7.239294 0.000000
v -12.202595 -6.956594 0.000000
v -13.880305 -13.880322 0.000000
v -6.956570 -12.202615 0.000000
v -7.239271 -7.239292 0.000000
v -6.956571 12.202620 0.000000
v -13.880300 13.880330 0.000000
v -12.202592 6.956595 0.000000
v -7.239269 7.239296 0.000000
v 11.085858 8.462523 1.999939
v 12.452995 12.641613 2.000009
v 8.462545 11.085834 1.999939
v 8.603931 8.603908 1.999896
v 8.462546 -11.085834 1.999939
v 11.924783 -11.924763 2.000009
v 11.274502 -8.047501 1.999939
v 8.415285 -8.302073 1.999896
v -11.085811 -8.462522 1.999939
v -12.302031 -12.264320 2.000009
v -8.462498 -11.085832 1.999939
v -8.603884 -8.603906 1.999896
v -8.462499 11.085835 1.999939
v -12.377484 12.490702 2.000009
v -11.085809 8.462523 1.999939
v -8.603883 8.603909 1.999896
v 4.949771 4.949748 0.000000
v 0.000025 19.129684 0.000000
v -4.949723 4.949748 0.000000
v -19.129658 0.000001 0.000000
v -4.949723 -4.949746 0.000000
v 0.000021 -19.129684 0.000000
v 4.949771 -4.949747 0.000000
v 19.129658 0.000001 0.000000
v 3.709522 3.709501 1.999896
v 0.000030 15.732363 2.000103
v -3.671744 4.388623 1.999896
v -14.336368 0.037731 2.000103
v -3.709473 -3.709496 1.999896
v 0.000027 -14.449590 2.000104
v 3.709523 -3.709498 1.999896
v 15.921008 0.339564 2.000103
v 11.085858 8.462523 -1.999939
v 12.452995 12.641613 -2.000009
v 8.462545 11.085834 -1.999939
v 8.603931 8.603908 -1.999896
v 8.462546 -11.085834 -1.999939
v 11.924783 -11.924763 -2.000009
v 11.274502 -8.047501 -1.999939
v 8.415285 -8.302073 -1.999896
v -11.085811 -8.462522 -1.999939
v -12.302031 -12.264320 -2.000009
v -8.462498 -11.085832 -1.999939
v -8.603884 -8.603906 -1.999896
v -8.462499 11.085835 -1.999939
v -12.377484 12.490702 -2.000009
v -11.085809 8.462523 -1.999939
v -8.603883 8.603909 -1.999896
v 3.709522 3.709501 -1.999896
v 0.000030 15.732363 -2.000103
v -3.671744 4.388623 -1.999896
v -14.336368 0.037731 -2.000103
v -3.709473 -3.709496 -1.999896
v 0.000027 -14.449590 -2.000104
v 3.709523 -3.709498 -1.999896
v 15.921008 0.339564 -2.000103
vt 0.982572 0.992085
vt 0.982572 0.992085
vt 0.982572 0.992085
vt 0.982572 0.992085
vt 0.982572 0.992085
vt 0.982572 0.992085
vt 0.982572 0.992085
vt 0.982572 0.992085
vt 0.982572 0.992085
vt 0.982572 0.992085
vt 0.982572 0.992085
vt 0.982572 0.992085
vt 0.982572 0.992085
vt 0.982572 0.992085
vt 0.982572 0.992085
vt 0.982572 0.992085
vt 0.982572 0.992085
vt 0.982572 0.992085
vt 0.982572 0.992085
vt 0.982572 0.992085
vt 0.982572 0.992085
vt 0.982572 0.992085
vt 0.982572 0.992085
vt 0.982572 0.992085
vt 0.982572 0.992085
vt 0.982572 0.992085
vt 0.982572 0.992085
vt 0.982572 0.992085
vt 0.982572 0.992085
vt 0.982572 0.992085
vt 0.982572 0.992085
vt 0.982572 0.992085
vt 0.199776 0.988008
vt 0.199776 0.988008
vt 0.199776 0.988008
vt 0.199776 0.988008
vt 0.199776 0.988008
vt 0.199776 0.988008
vt 0.199776 0.988008
vt 0.199776 0.988008
vt 0.199776 0.988008
vt 0.199776 0.988008
vt 0.199776 0.988008
vt 0.199776 0.988008
vt 0.199776 0.988008
vt 0.199776 0.988008
vt 0.199776 0.988008
vt 0.199776 0.988008
vt 0.982572 0.992085
vt 0.982572 0.992085
vt 0.982572 0.992085
vt 0.982572 0.992085
vt 0.982572 0.992085
vt 0.982572 0.992085
vt 0.982572 0.992085
vt 0.982572 0.992085
vt 0.982572 0.992085
vt 0.982572 0.992085
vt 0.982572 0.992085
vt 0.982572 0.992085
vt 0.982572 0.992085
vt 0.982572 0.992085
vt 0.982572 0.992085
vt 0.982572 0.992085
vt 0.199776 0.988008
vt 0.199776 0.988008
vt 0.199776 0.988008
vt 0.199776 0.988008
vt 0.199776 0.988008
vt 0.199776 0.988008
vt 0.199776 0.988008
vt 0.199776 0.988008
vn 0.815572 -0.223667 0.533682
vn 0.815572 -0.223667 0.533682
vn 0.815572 -0.223666 0.533681
vn 0.815572 -0.223666 0.533682
vn -0.046153 -0.810211 0.584319
vn -0.046153 -0.810211 0.584319
vn -0.046153 -0.810211 0.584319
vn -0.046153 -0.810211 0.584319
vn -0.246767 0.832916 0.495335
vn -0.246767 0.832916 0.495335
vn -0.246767 0.832916 0.495335
vn -0.246767 0.832916 0.495335
vn -0.810210 -0.046154 0.584319
vn -0.810210 -0.046154 0.584319
vn -0.810210 -0.046154 0.584319
vn -0.810211 -0.046154 0.584319
vn -0.191115 -0.788701 0.584316
vn -0.191115 -0.788701 0.584316
vn -0.191115 -0.788701 0.584316
vn -0.191115 -0.788701 0.584316
vn -0.830470 0.025241 0.556491
vn -0.830470 0.025241 0.556491
vn -0.830470 0.025241 0.556491
vn -0.830470 0.025241 0.556491
vn 0.816172 0.175917 0.550379
vn 0.816172 0.175917 0.550379
vn 0.816172 0.175917 0.550379
vn 0.816172 0.175917 0.550379
vn -0.060259 0.877314 0.476119
vn -0.060259 0.877314 0.476119
vn -0.060259 0.877314 0.476119
vn -0.060259 0.877314 0.476119
vn -0.811956 0.219083 0.541045
vn -0.811956 0.219083 0.541045
vn -0.811956 0.219083 0.541045
vn -0.811956 0.219083 0.541045
vn 0.046153 0.810211 0.584319
vn 0.046153 0.810211 0.584319
vn 0.046153 0.810211 0.584319
vn 0.046153 0.810211 0.584319
vn 0.214493 -0.808279 0.548341
vn 0.214493 -0.808279 0.548341
vn 0.214493 -0.808279 0.548341
vn 0.214493 -0.808279 0.548341
vn 0.810211 0.046154 0.584319
vn 0.810210 0.046154 0.584319
vn 0.810210 0.046154 0.584319
vn 0.810210 0.046154 0.584319
vn 0.234273 0.823720 0.516334
vn 0.234273 0.823720 0.516335
vn 0.234273 0.823720 0.516335
vn 0.234273 0.823720 0.516335
vn 0.810210 -0.046153 0.584319
vn 0.810210 -0.046153 0.584319
vn 0.810210 -0.046153 0.584319
vn 0.810210 -0.046153 0.584319
vn -0.813033 -0.220440 0.538872
vn -0.813034 -0.220440 0.538872
vn -0.813034 -0.220440 0.538872
vn -0.813033 -0.220440 0.538872
vn 0.046154 -0.810210 0.584319
vn 0.046154 -0.810210 0.584319
vn 0.046154 -0.810210 0.584319
vn 0.046154 -0.810211 0.584319
vn -0.000014 -0.000014 1.000000
vn -0.000014 -0.000014 1.000000
vn -0.000014 -0.000014 1.000000
vn -0.000014 -0.000014 1.000000
vn -0.000016 0.000015 1.000000
vn -0.000016 0.000015 1.000000
vn -0.000016 0.000015 1.000000
vn -0.000016 0.000015 1.000000
vn 0.000015 0.000015 1.000000
vn 0.000015 0.000015 1.000000
vn 0.000015 0.000015 1.000000
vn 0.000015 0.000015 1.000000
vn 0.000015 -0.000015 1.000000
vn 0.000015 -0.000015 1.000000
vn 0.000015 -0.000015 1.000000
vn 0.000015 -0.000015 1.000000
vn 0.263532 0.835977 0.481345
vn 0.263532 0.835977 0.481345
vn 0.263532 0.835977 0.481345
vn 0.263532 0.835977 0.481345
vn 0.793119 0.262098 0.549789
vn 0.793119 0.262098 0.549789
vn 0.793119 0.262098 0.549789
vn 0.793119 0.262098 0.549789
vn -0.805429 0.272058 0.526563
vn -0.805429 0.272058 0.526563
vn -0.805429 0.272058 0.526563
vn -0.805429 0.272058 0.526563
vn -0.293320 0.783551 0.547733
vn -0.293320 0.783551 0.547733
vn -0.293320 0.783551 0.547733
vn -0.293320 0.783551 0.547733
vn -0.258274 -0.736703 0.624950
vn -0.258274 -0.736703 0.624950
vn -0.258274 -0.736703 0.624950
vn -0.258274 -0.736703 0.624950
vn -0.745294 -0.258970 0.614387
vn -0.745294 -0.258970 0.614387
vn -0.745294 -0.258970 0.614387
vn -0.745294 -0.258970 0.614387
vn 0.745295 -0.258971 0.614386
vn 0.745295 -0.258971 0.614386
vn 0.745295 -0.258971 0.614386
vn 0.745295 -0.258971 0.614386
vn 0.260318 -0.763464 0.591064
vn 0.260318 -0.763464 0.591064
vn 0.260318 -0.763464 0.591064
vn 0.260318 -0.763464 0.591064
vn -0.000017 0.000000 1.000000
vn -0.000005 -0.000004 1.000000
vn -0.000005 0.000005 1.000000
vn -0.000002 -0.000018 1.000000
vn 0.000005 -0.000005 1.000000
vn -0.000005 -0.000004 1.000000
vn 0.000019 -0.000000 1.000000
vn 0.000005 0.000005 1.000000
vn 0.000005 -0.000005 1.000000
vn 0.000000 0.000019 1.000000
vn -0.000005 0.000005 1.000000
vn 0.000005 0.000005 1.000000
vn 0.000005 0.000005 1.000000
vn -0.000005 0.000005 1.000000
vn -0.000005 -0.000004 1.000000
vn 0.000005 -0.000005 1.000000
vn 0.815572 -0.223666 -0.533682
vn 0.815572 -0.223666 -0.533682
vn 0.815572 -0.223666 -0.533682
vn 0.815572 -0.223666 -0.533682
vn -0.046153 -0.810211 -0.584319
vn -0.046153 -0.810210 -0.584319
vn -0.046153 -0.810211 -0.584319
vn -0.046153 -0.810211 -0.584319
vn -0.246767 0.832916 -0.495335
vn -0.246767 0.832916 -0.495335
vn -0.246767 0.832916 -0.495335
vn -0.246767 0.832916 -0.495336
vn -0.810210 -0.046154 -0.584319
vn -0.810211 -0.046154 -0.584319
vn -0.810210 -0.046154 -0.584319
vn -0.810210 -0.046154 -0.584319
vn -0.191115 -0.788701 -0.584316
vn -0.191115 -0.788701 -0.584316
vn -0.191115 -0.788701 -0.584316
vn -0.191115 -0.788701 -0.584316
vn -0.830470 0.025241 -0.556491
vn -0.830470 0.025241 -0.556491
vn -0.830470 0.025241 -0.556491
vn -0.830470 0.025241 -0.556491
vn 0.816172 0.175917 -0.550379
vn 0.816172 0.175917 -0.550379
vn 0.816172 0.175917 -0.550379
vn 0.816172 0.175917 -0.550379
vn -0.060259 0.877314 -0.476119
vn -0.060259 0.877314 -0.476119
vn -0.060259 0.877314 -0.476119
vn -0.060259 0.877314 -0.476119
vn -0.811956 0.219083 -0.541045
vn -0.811956 0.219083 -0.541045
vn -0.811956 0.219083 -0.541045
vn -0.811956 0.219083 -0.541045
vn 0.046153 0.810211 -0.584319
vn 0.046153 0.810211 -0.584319
vn 0.046153 0.810211 -0.584319
vn 0.046153 0.810211 -0.584319
vn 0.214493 -0.808279 -0.548341
vn 0.214493 -0.808279 -0.548341
vn 0.214493 -0.808279 -0.548341
vn 0.214493 -0.808279 -0.548341
vn 0.810210 0.046154 -0.584319
vn 0.810211 0.046154 -0.584319
vn 0.810210 0.046154 -0.584319
vn 0.810210 0.046154 -0.584319
vn 0.234273 0.823720 -0.516334
vn 0.234273 0.823720 -0.516334
vn 0.234273 0.823720 -0.516334
vn 0.234273 0.823720 -0.516334
vn 0.810210 -0.046153 -0.584319
vn 0.810210 -0.046153 -0.584319
vn 0.810210 -0.046153 -0.584319
vn 0.810210 -0.046153 -0.584319
vn -0.813033 -0.220440 -0.538872
vn -0.813033 -0.220440 -0.538872
vn -0.813034 -0.220440 -0.538872
vn -0.813034 -0.220440 -0.538872
vn 0.046154 -0.810210 -0.584319
vn 0.046154 -0.810210 -0.584319
vn 0.046154 -0.810210 -0.584319
vn 0.046154 -0.810210 -0.584319
vn -0.000014 -0.000014 -1.000000
vn -0.000014 -0.000014 -1.000000
vn -0.000014 -0.000014 -1.000000
vn -0.000014 -0.000014 -1.000000
vn -0.000016 0.000015 -1.000000
vn -0.000016 0.000015 -1.000000
vn -0.000016 0.000015 -1.000000
vn -0.000016 0.000015 -1.000000
vn 0.000015 0.000015 -1.000000
vn 0.000015 0.000015 -1.000000
vn 0.000015 0.000015 -1.000000
vn 0.000015 0.000015 -1.000000
vn 0.000015 -0.000015 -1.000000
vn 0.000015 -0.000015 -1.000000
vn 0.000015 -0.000015 -1.000000
vn 0.000015 -0.000015 -1.000000
vn 0.263532 0.835977 -0.481345
vn 0.263532 0.835977 -0.481345
vn 0.263532 0.835977 -0.481345
vn 0.263532 0.835977 -0.481345
vn 0.793119 0.262098 -0.549789
vn 0.793119 0.262098 -0.549789
vn 0.793119 0.262098 -0.549789
vn 0.793119 0.262098 -0.549789
vn -0.805429 0.272058 -0.526563
vn -0.805429 0.272058 -0.526563
vn -0.805429 0.272058 -0.526563
vn -0.805429 0.272058 -0.526563
vn -0.293320 0.783551 -0.547733
vn -0.293320 0.783551 -0.547733
vn -0.293320 0.783551 -0.547733
vn -0.293320 0.783551 -0.547733
vn -0.258274 -0.736704 -0.624950
vn -0.258274 -0.736704 -0.624950
vn -0.258274 -0.736704 -0.624950
vn -0.258274 -0.736703 -0.624950
vn -0.745294 -0.258970 -0.614387
vn -0.745294 -0.258970 -0.614387
vn -0.745294 -0.258970 -0.614387
vn -0.745294 -0.258970 -0.614387
vn 0.745295 -0.258971 -0.614386
vn 0.745295 -0.258971 -0.614386
vn 0.745295 -0.258971 -0.614386
vn 0.745295 -0.258971 -0.614386
vn 0.260318 -0.763464 -0.591064
vn 0.260318 -0.763464 -0.591064
vn 0.260318 -0.763464 -0.591064
vn 0.260318 -0.763464 -0.591064
vn -0.000017 0.000000 -1.000000
vn -0.000005 0.000005 -1.000000
vn -0.000005 -0.000004 -1.000000
vn -0.000002 -0.000018 -1.000000
vn -0.000005 -0.000004 -1.000000
vn 0.000005 -0.000005 -1.000000
vn 0.000019 -0.000000 -1.000000
vn 0.000005 -0.000005 -1.000000
vn 0.000005 0.000005 -1.000000
vn 0.000000 0.000019 -1.000000
vn 0.000005 0.000005 -1.000000
vn -0.000005 0.000005 -1.000000
vn 0.000005 0.000005 -1.000000
vn 0.000005 -0.000005 -1.000000
vn -0.000005 -0.000004 -1.000000
vn -0.000005 0.000005 -1.000000
s off
f 17/1/1 1/2/2 2/3/3 18/4/4
f 1/2/5 17/1/6 20/5/7 4/6/8
f 18/4/9 2/3/10 3/7/11 19/8/12
f 19/8/13 3/7/14 4/6/15 20/5/16
f 21/9/17 5/10/18 6/11/19 22/12/20
f 5/10/21 21/9/22 24/13/23 8/14/24
f 22/12/25 6/11/26 7/15/27 23/16/28
f 23/16/29 7/15/30 8/14/31 24/13/32
f 25/17/33 9/18/34 10/19/35 26/20/36
f 9/18/37 25/17/38 28/21/39 12/22/40
f 26/20/41 10/19/42 11/23/43 27/24/44
f 27/24/45 11/23/46 12/22/47 28/21/48
f 29/25/49 13/26/50 14/27/51 30/28/52
f 13/26/53 29/25/54 32/29/55 16/30/56
f 30/28/57 14/27/58 15/31/59 31/32/60
f 31/32/61 15/31/62 16/30/63 32/29/64
f 20/5/65 17/1/66 18/4/67 19/8/68
f 24/13/69 21/9/70 22/12/71 23/16/72
f 28/21/73 25/17/74 26/20/75 27/24/76
f 32/29/77 29/25/78 30/28/79 31/32/80
f 33/33/81 41/34/82 48/35/83 40/36/84
f 41/34/85 33/33/86 34/37/87 42/38/88
f 42/38/89 34/37/90 35/39/91 43/40/92
f 43/40/93 35/39/94 36/41/95 44/42/96
f 44/42/97 36/41/98 37/43/99 45/44/100
f 45/44/101 37/43/102 38/45/103 46/46/104
f 46/46/105 38/45/106 39/47/107 47/48/108
f 47/48/109 39/47/110 40/36/111 48/35/112
f 48/35/113 41/34/114 47/48/115
f 42/38/116 43/40/117 41/34/118
f 44/42/119 45/44/120 43/40/121
f 46/46/122 47/48/123 45/44/124
f 45/44/125 47/48/126 41/34/127 43/40/128
f 49/49/129 50/50/130 2/3/131 1/2/132
f 1/2/133 4/6/134 52/51/135 49/49/136
f 50/50/137 51/52/138 3/7/139 2/3/140
f 51/52/141 52/51/142 4/6/143 3/7/144
f 53/53/145 54/54/146 6/11/147 5/10/148
f 5/10/149 8/14/150 56/55/151 53/53/152
f 54/54/153 55/56/154 7/15/155 6/11/156
f 55/56/157 56/55/158 8/14/159 7/15/160
f 57/57/161 58/58/162 10/19/163 9/18/164
f 9/18/165 12/22/166 60/59/167 57/57/168
f 58/58/169 59/60/170 11/23/171 10/19/172
f 59/60/173 60/59/174 12/22/175 11/23/176
f 61/61/177 62/62/178 14/27/179 13/26/180
f 13/26/181 16/30/182 64/63/183 61/61/184
f 62/62/185 63/64/186 15/31/187 14/27/188
f 63/64/189 64/63/190 16/30/191 15/31/192
f 52/51/193 51/52/194 50/50/195 49/49/196
f 56/55/197 55/56/198 54/54/199 53/53/200
f 60/59/201 59/60/202 58/58/203 57/57/204
f 64/63/205 63/64/206 62/62/207 61/61/208
f 33/33/209 40/36/210 72/65/211 65/66/212
f 65/66/213 66/67/214 34/37/215 33/33/216
f 66/67/217 67/68/218 35/39/219 34/37/220
f 67/68/221 68/69/222 36/41/223 35/39/224
f 68/69/225 69/70/226 37/43/227 36/41/228
f 69/70/229 70/71/230 38/45/231 37/43/232
f 70/71/233 71/72/234 39/47/235 38/45/236
f 71/72/237 72/65/238 40/36/239 39/47/240
f 72/65/241 71/72/242 65/66/243
f 66/67/244 65/66/245 67/68/246
f 68/69/247 67/68/248 69/70/249
f 70/71/250 69/70/251 71/72/252
f 69/70/253 67/68/254 65/66/255 71/72/256
