# This file uses centimeters as units for non-parametric coordinates.

v -15.495903 -15.778587 -0.000000
v 15.507380 -15.778587 0.000000
v -14.348892 -8.926133 0.000000
v -9.876411 -3.293934 0.000000
v -4.624737 -1.673975 0.000000
v -8.449861 1.952244 -0.000000
v -10.031295 8.212947 0.000000
v -6.789463 14.776608 0.000000
v -1.530888 17.031378 0.000000
v 4.331087 16.184057 0.000000
v 7.775479 12.490880 0.000000
v 9.403746 7.647363 0.000000
v 6.520109 0.611233 -0.000000
v 3.337119 -1.587530 0.000000
v 9.611645 -3.614918 0.000000
v 14.160136 -8.966583 0.000000
v 13.153738 -9.452543 4.000000
v 14.567127 -15.006079 4.000000
v 8.987464 -4.548285 4.000000
v 2.116169 -1.767060 4.000000
v 5.643229 1.316883 4.000000
v 8.263959 7.684218 4.000000
v 6.824205 11.923975 4.000000
v 3.799785 15.180588 4.000000
v -1.417155 15.919364 4.000000
v -6.039652 13.916581 4.000000
v -8.896680 8.072235 4.000000
v -7.496033 2.564088 4.000000
v -3.414432 -1.905682 4.000000
v -9.239923 -4.225412 4.000000
v -13.328178 -9.380105 4.000000
v -14.568165 -14.993234 4.000000
v 13.153738 -9.452543 -4.000000
v 14.567127 -15.006079 -4.000000
v 8.987464 -4.548285 -4.000000
v 2.116169 -1.767060 -4.000000
v 5.643229 1.316883 -4.000000
v 8.263959 7.684218 -4.000000
v 6.824205 11.923975 -4.000000
v 3.799785 15.180588 -4.000000
v -1.417155 15.919364 -4.000000
v -6.039652 13.916581 -4.000000
v -8.896680 8.072235 -4.000000
v -7.496033 2.564088 -4.000000
v -3.414432 -1.905682 -4.000000
v -9.239923 -4.225412 -4.000000
v -13.328178 -9.380105 -4.000000
v -14.568165 -14.993234 -4.000000
vt 0.482957 0.926763
vt 0.482067 0.926751
vt 0.482107 0.926586
vt 0.482233 0.926439
vt 0.482444 0.926356
vt 0.482922 0.926593
vt 0.482797 0.926434
vt 0.482616 0.926361
vt 0.482766 0.926224
vt 0.482334 0.926260
vt 0.482251 0.926060
vt 0.482813 0.926050
vt 0.482715 0.925863
vt 0.482543 0.925799
vt 0.482295 0.925926
vt 0.482390 0.925822
vt 0.482061 0.926742
vt 0.482097 0.926546
vt 0.482230 0.926390
vt 0.482417 0.926331
vt 0.482321 0.926265
vt 0.482232 0.926052
vt 0.482280 0.925904
vt 0.482385 0.925790
vt 0.482553 0.925763
vt 0.482739 0.925834
vt 0.482845 0.926037
vt 0.482794 0.926228
vt 0.482656 0.926336
vt 0.482815 0.926386
vt 0.482947 0.926554
vt 0.482978 0.926755
vt 0.482957 0.926763
vt 0.482233 0.926439
vt 0.482107 0.926586
vt 0.482067 0.926751
vt 0.482922 0.926593
vt 0.482444 0.926356
vt 0.482797 0.926434
vt 0.482616 0.926361
vt 0.482766 0.926224
vt 0.482334 0.926260
vt 0.482813 0.926050
vt 0.482251 0.926060
vt 0.482715 0.925863
vt 0.482543 0.925799
vt 0.482390 0.925822
vt 0.482295 0.925926
vt 0.482061 0.926742
vt 0.482097 0.926546
vt 0.482230 0.926390
vt 0.482417 0.926331
vt 0.482321 0.926265
vt 0.482232 0.926052
vt 0.482280 0.925904
vt 0.482385 0.925790
vt 0.482553 0.925763
vt 0.482739 0.925834
vt 0.482845 0.926037
vt 0.482794 0.926228
vt 0.482656 0.926336
vt 0.482815 0.926386
vt 0.482947 0.926554
vt 0.482978 0.926755
vn 0.000000 0.000000 1.000000
vn 0.000000 0.000000 1.000000
vn 0.000000 0.000000 1.000000
vn 0.000000 0.000000 1.000000
vn 0.000000 0.000000 1.000000
vn 0.000000 0.000000 1.000000
vn 0.000000 0.000000 1.000000
vn 0.000000 0.000000 1.000000
vn 0.000000 0.000000 1.000000
vn 0.000000 0.000000 1.000000
vn 0.000000 0.000000 1.000000
vn 0.000000 0.000000 1.000000
vn 0.000000 0.000000 1.000000
vn 0.000000 0.000000 1.000000
vn 0.000000 0.000000 1.000000
vn 0.000000 0.000000 1.000000
vn 0.000000 0.000000 1.000000
vn 0.000000 0.000000 1.000000
vn 0.000000 0.000000 1.000000
vn 0.000000 0.000000 1.000000
vn 0.000000 0.000000 1.000000
vn 0.000000 0.000000 1.000000
vn 0.000000 0.000000 1.000000
vn 0.000000 0.000000 1.000000
vn 0.000000 0.000000 1.000000
vn 0.000000 0.000000 1.000000
vn 0.000000 0.000000 1.000000
vn 0.000000 0.000000 1.000000
vn 0.951207 0.212359 0.223852
vn 0.951207 0.212359 0.223852
vn 0.951207 0.212359 0.223852
vn 0.951207 0.212359 0.223852
vn 0.735659 0.625111 0.260848
vn 0.735659 0.625111 0.260848
vn 0.735659 0.625111 0.260848
vn 0.735659 0.625111 0.260848
vn 0.336204 0.919117 0.205403
vn 0.336204 0.919117 0.205403
vn 0.336204 0.919117 0.205403
vn 0.336204 0.919117 0.205403
vn 0.604902 -0.768342 0.209153
vn 0.604902 -0.768342 0.209153
vn 0.604902 -0.768342 0.209153
vn 0.604902 -0.768342 0.209153
vn 0.893405 -0.366892 0.259265
vn 0.893405 -0.366892 0.259265
vn 0.893405 -0.366892 0.259265
vn 0.893405 -0.366892 0.259265
vn 0.914929 0.309032 0.259622
vn 0.914929 0.309032 0.259622
vn 0.914929 0.309032 0.259622
vn 0.914929 0.309032 0.259622
vn 0.706785 0.657870 0.260121
vn 0.706785 0.657870 0.260121
vn 0.706785 0.657870 0.260121
vn 0.706785 0.657870 0.260121
vn 0.136848 0.955886 0.259913
vn 0.136848 0.955886 0.259913
vn 0.136848 0.955886 0.259913
vn 0.136848 0.955886 0.259913
vn -0.382116 0.886828 0.259854
vn -0.382116 0.886828 0.259854
vn -0.382116 0.886828 0.259854
vn -0.382116 0.886828 0.259854
vn -0.867165 0.426235 0.257582
vn -0.867165 0.426235 0.257582
vn -0.867165 0.426235 0.257582
vn -0.867165 0.426235 0.257582
vn -0.936434 -0.237281 0.258435
vn -0.936434 -0.237281 0.258435
vn -0.936434 -0.237281 0.258435
vn -0.936434 -0.237281 0.258435
vn -0.697711 -0.681400 0.221120
vn -0.697711 -0.681400 0.221120
vn -0.697711 -0.681400 0.221120
vn -0.697711 -0.681400 0.221120
vn -0.327653 0.921258 0.209588
vn -0.327653 0.921258 0.209588
vn -0.327653 0.921258 0.209588
vn -0.327653 0.921258 0.209588
vn -0.756235 0.600167 0.260592
vn -0.756235 0.600167 0.260592
vn -0.756235 0.600167 0.260592
vn -0.756235 0.600167 0.260592
vn -0.956867 0.183228 0.225461
vn -0.956867 0.183228 0.225461
vn -0.956867 0.183228 0.225461
vn -0.956867 0.183228 0.225461
vn -0.000210 -0.981562 0.191143
vn -0.000210 -0.981562 0.191143
vn -0.000210 -0.981562 0.191143
vn -0.000210 -0.981562 0.191143
vn 0.000000 0.000000 -1.000000
vn 0.000000 0.000000 -1.000000
vn 0.000000 0.000000 -1.000000
vn 0.000000 0.000000 -1.000000
vn -0.000000 0.000000 -1.000000
vn -0.000000 0.000000 -1.000000
vn -0.000000 0.000000 -1.000000
vn -0.000000 0.000000 -1.000000
vn 0.000000 0.000000 -1.000000
vn 0.000000 0.000000 -1.000000
vn 0.000000 0.000000 -1.000000
vn 0.000000 0.000000 -1.000000
vn 0.000000 0.000000 -1.000000
vn 0.000000 0.000000 -1.000000
vn 0.000000 0.000000 -1.000000
vn 0.000000 0.000000 -1.000000
vn -0.000000 0.000000 -1.000000
vn -0.000000 0.000000 -1.000000
vn -0.000000 0.000000 -1.000000
vn -0.000000 0.000000 -1.000000
vn 0.000000 0.000000 -1.000000
vn 0.000000 0.000000 -1.000000
vn 0.000000 0.000000 -1.000000
vn 0.000000 0.000000 -1.000000
vn 0.000000 0.000000 -1.000000
vn 0.000000 0.000000 -1.000000
vn 0.000000 0.000000 -1.000000
vn 0.000000 0.000000 -1.000000
vn 0.951207 0.212359 -0.223852
vn 0.951207 0.212359 -0.223852
vn 0.951207 0.212359 -0.223852
vn 0.951207 0.212359 -0.223852
vn 0.735659 0.625111 -0.260848
vn 0.735659 0.625111 -0.260848
vn 0.735659 0.625111 -0.260848
vn 0.735659 0.625111 -0.260848
vn 0.336204 0.919117 -0.205403
vn 0.336204 0.919117 -0.205403
vn 0.336204 0.919117 -0.205403
vn 0.336204 0.919117 -0.205403
vn 0.604902 -0.768342 -0.209153
vn 0.604902 -0.768342 -0.209153
vn 0.604902 -0.768342 -0.209153
vn 0.604902 -0.768342 -0.209153
vn 0.893405 -0.366892 -0.259265
vn 0.893405 -0.366892 -0.259265
vn 0.893405 -0.366892 -0.259265
vn 0.893405 -0.366892 -0.259265
vn 0.914929 0.309032 -0.259622
vn 0.914929 0.309032 -0.259622
vn 0.914929 0.309032 -0.259622
vn 0.914929 0.309032 -0.259622
vn 0.706785 0.657870 -0.260121
vn 0.706785 0.657870 -0.260121
vn 0.706785 0.657870 -0.260121
vn 0.706785 0.657870 -0.260121
vn 0.136848 0.955886 -0.259913
vn 0.136848 0.955886 -0.259913
vn 0.136848 0.955886 -0.259913
vn 0.136848 0.955886 -0.259913
vn -0.382116 0.886828 -0.259854
vn -0.382116 0.886828 -0.259854
vn -0.382116 0.886828 -0.259854
vn -0.382116 0.886828 -0.259854
vn -0.867165 0.426235 -0.257582
vn -0.867165 0.426235 -0.257582
vn -0.867165 0.426235 -0.257582
vn -0.867165 0.426235 -0.257582
vn -0.936434 -0.237281 -0.258435
vn -0.936434 -0.237281 -0.258435
vn -0.936434 -0.237281 -0.258435
vn -0.936434 -0.237281 -0.258435
vn -0.697711 -0.681400 -0.221120
vn -0.697711 -0.681400 -0.221120
vn -0.697711 -0.681400 -0.221120
vn -0.697711 -0.681400 -0.221120
vn -0.327653 0.921258 -0.209588
vn -0.327653 0.921258 -0.209588
vn -0.327653 0.921258 -0.209588
vn -0.327653 0.921258 -0.209588
vn -0.756235 0.600167 -0.260592
vn -0.756235 0.600167 -0.260592
vn -0.756235 0.600167 -0.260592
vn -0.756235 0.600167 -0.260592
vn -0.956867 0.183228 -0.225461
vn -0.956867 0.183228 -0.225461
vn -0.956867 0.183228 -0.225461
vn -0.956867 0.183228 -0.225461
vn -0.000210 -0.981562 -0.191143
vn -0.000210 -0.981562 -0.191143
vn -0.000210 -0.981562 -0.191143
vn -0.000210 -0.981562 -0.191143
s off
f 32/1/1 18/2/2 17/3/3 19/4/4
f 32/1/5 19/4/6 20/5/7 31/6/8
f 30/7/9 31/6/10 20/5/11 29/8/12
f 28/9/13 29/8/14 20/5/15 21/10/16
f 28/9/17 21/10/18 22/11/19 27/12/20
f 26/13/21 27/12/22 22/11/23 25/14/24
f 25/14/25 22/11/26 23/15/27 24/16/28
f 2/17/29 16/18/30 17/3/31 18/2/32
f 16/18/33 15/19/34 19/4/35 17/3/36
f 15/19/37 14/20/38 20/5/39 19/4/40
f 14/20/41 13/21/42 21/10/43 20/5/44
f 13/21/45 12/22/46 22/11/47 21/10/48
f 12/22/49 11/23/50 23/15/51 22/11/52
f 11/23/53 10/24/54 24/16/55 23/15/56
f 10/24/57 9/25/58 25/14/59 24/16/60
f 9/25/61 8/26/62 26/13/63 25/14/64
f 8/26/65 7/27/66 27/12/67 26/13/68
f 7/27/69 6/28/70 28/9/71 27/12/72
f 6/28/73 5/29/74 29/8/75 28/9/76
f 5/29/77 4/30/78 30/7/79 29/8/80
f 4/30/81 3/31/82 31/6/83 30/7/84
f 3/31/85 1/32/86 32/1/87 31/6/88
f 1/32/89 2/17/90 18/2/91 32/1/92
f 48/33/93 35/34/94 33/35/95 34/36/96
f 48/33/97 47/37/98 36/38/99 35/34/100
f 46/39/101 45/40/102 36/38/103 47/37/104
f 44/41/105 37/42/106 36/38/107 45/40/108
f 44/41/109 43/43/110 38/44/111 37/42/112
f 42/45/113 41/46/114 38/44/115 43/43/116
f 41/46/117 40/47/118 39/48/119 38/44/120
f 2/49/121 34/36/122 33/35/123 16/50/124
f 16/50/125 33/35/126 35/34/127 15/51/128
f 15/51/129 35/34/130 36/38/131 14/52/132
f 14/52/133 36/38/134 37/42/135 13/53/136
f 13/53/137 37/42/138 38/44/139 12/54/140
f 12/54/141 38/44/142 39/48/143 11/55/144
f 11/55/145 39/48/146 40/47/147 10/56/148
f 10/56/149 40/47/150 41/46/151 9/57/152
f 9/57/153 41/46/154 42/45/155 8/58/156
f 8/58/157 42/45/158 43/43/159 7/59/160
f 7/59/161 43/43/162 44/41/163 6/60/164
f 6/60/165 44/41/166 45/40/167 5/61/168
f 5/61/169 45/40/170 46/39/171 4/62/172
f 4/62/173 46/39/174 47/37/175 3/63/176
f 3/63/177 47/37/178 48/33/179 1/64/180
f 1/64/181 48/33/182 34/36/183 2/49/184
