# This file uses centimeters as units for non-parametric coordinates.

v -20.000000 -20.000000 0.000000
v 20.000000 -20.000000 0.000000
v -20.000000 20.000000 0.000000
v -13.829041 20.000000 0.000000
v -13.829041 -13.502396 0.000000
v 20.000000 -13.502396 0.000000
v -19.028793 18.612625 -4.000000
v -18.824024 -18.923080 -4.000000
v -14.800246 -14.211456 -4.000000
v -14.800246 18.612625 -4.000000
v 18.241367 -14.211456 -4.000000
v 18.241367 -19.290939 -4.000000
v -19.028793 18.612625 4.000000
v -18.824024 -18.923080 4.000000
v -14.800246 -14.211456 4.000000
v -14.800246 18.612625 4.000000
v 18.241367 -14.211456 4.000000
v 18.241367 -19.290939 4.000000
v -11.676247 -14.675949 0.000000
v -11.676247 9.913528 0.000000
v -4.502342 9.913528 0.000000
v -4.502342 -14.675873 0.000000
v -10.486685 8.526154 2.000000
v -10.167227 -14.675934 2.000000
v -5.691908 -14.675888 2.000000
v -5.691908 8.526154 2.000000
v 18.883545 7.400391 0.000000
v 2.615097 -8.817398 0.000000
v 16.482044 -2.813843 0.000000
v 14.332848 -0.133667 0.000000
v 8.391550 7.275436 0.000000
v 10.540749 4.595276 0.000000
v 14.561420 0.838470 4.000000
v 11.539326 4.607178 4.000000
v 2.615101 -7.508881 4.000000
v 18.161289 6.821213 4.000000
v 16.274212 -1.297485 4.000000
v 9.964352 6.476974 4.000000
v 2.615093 -1.355606 0.000000
v 2.615103 -1.653809 4.000000
v -5.832413 6.222488 0.000000
v -5.832413 5.714859 4.000000
v -5.832417 -1.070541 0.000000
v -5.832408 0.466324 4.000000
v -14.800247 1.343323 0.000000
v -14.800247 0.584274 4.000000
v -14.800247 -5.336670 4.000000
v -14.800247 -6.430481 0.000000
v 6.911163 -14.675949 0.000000
v 6.911163 14.010178 0.000000
v 14.085068 14.010178 0.000000
v 14.085068 -14.675873 0.000000
v 8.100725 12.622803 -2.000000
v 8.420181 -14.675934 -2.000000
v 12.895500 -14.675888 -2.000000
v 12.895500 12.622803 -2.000000
v 8.100725 12.622803 2.000000
v 8.420181 -14.675934 2.000000
v 12.895500 -14.675888 2.000000
v 12.895500 12.622803 2.000000
v -2.254717 -14.675949 0.000000
v -2.254717 5.390732 0.000000
v 4.919188 5.390732 0.000000
v 4.919188 -14.675873 0.000000
v -1.065155 4.003357 2.000000
v -0.745697 -14.675934 2.000000
v 3.729622 -14.675888 2.000000
v 3.729622 4.003357 2.000000
v -1.065155 4.003357 -2.000000
v -0.745697 -14.675934 -2.000000
v 3.729622 -14.675888 -2.000000
v 3.729622 4.003357 -2.000000
v -10.486685 8.526154 -2.000000
v -10.167227 -14.675934 -2.000000
v -5.691908 -14.675888 -2.000000
v -5.691908 8.526154 -2.000000
v 14.561420 0.838470 -4.000000
v 11.539326 4.607178 -4.000000
v 2.615101 -7.508881 -4.000000
v 18.161289 6.821213 -4.000000
v 16.274212 -1.297485 -4.000000
v 9.964352 6.476974 -4.000000
v 2.615103 -1.653809 -4.000000
v -5.832413 5.714859 -4.000000
v -5.832408 0.466324 -4.000000
v -14.800247 0.584274 -4.000000
v -14.800247 -5.336670 -4.000000
vt 0.982863 0.890899
vt 0.982841 0.890899
vt 0.982841 0.891018
vt 0.982860 0.891038
vt 0.982722 0.891017
vt 0.982722 0.891040
vt 0.982863 0.890899
vt 0.982862 0.891041
vt 0.982841 0.891018
vt 0.982841 0.890899
vt 0.982722 0.891017
vt 0.982722 0.891040
vt 0.982863 0.890899
vt 0.982860 0.891038
vt 0.982841 0.891018
vt 0.982841 0.890899
vt 0.982722 0.891017
vt 0.982722 0.891040
vt 0.982863 0.890899
vt 0.982862 0.891041
vt 0.982841 0.891018
vt 0.982841 0.890899
vt 0.982722 0.891017
vt 0.982722 0.891040
vt 0.328364 0.951636
vt 0.328363 0.951720
vt 0.328351 0.951708
vt 0.328351 0.951636
vt 0.328364 0.951636
vt 0.328364 0.951722
vt 0.328351 0.951708
vt 0.328351 0.951636
vt 0.485409 0.982727
vt 0.485405 0.983165
vt 0.484901 0.983163
vt 0.484626 0.982813
vt 0.486007 0.982948
vt 0.485411 0.982475
vt 0.485403 0.983411
vt 0.485330 0.983206
vt 0.484839 0.983203
vt 0.484577 0.982789
vt 0.485334 0.982671
vt 0.485336 0.982363
vt 0.486069 0.982941
vt 0.485328 0.983505
vt 0.484640 0.983161
vt 0.484585 0.983202
vt 0.484864 0.983193
vt 0.484804 0.983213
vt 0.484640 0.983161
vt 0.484585 0.983202
vt 0.484640 0.983161
vt 0.484585 0.983202
vt 0.328228 0.951636
vt 0.328215 0.951636
vt 0.328214 0.951708
vt 0.328226 0.951720
vt 0.328228 0.951636
vt 0.328227 0.951722
vt 0.328214 0.951708
vt 0.328215 0.951636
vt 0.328228 0.951636
vt 0.328226 0.951720
vt 0.328214 0.951708
vt 0.328215 0.951636
vt 0.328228 0.951636
vt 0.328227 0.951722
vt 0.328214 0.951708
vt 0.328215 0.951636
vt 0.328024 0.951636
vt 0.328022 0.951720
vt 0.328010 0.951708
vt 0.328011 0.951636
vt 0.328024 0.951636
vt 0.328023 0.951722
vt 0.328010 0.951708
vt 0.328011 0.951636
vt 0.328024 0.951636
vt 0.328011 0.951636
vt 0.328010 0.951708
vt 0.328022 0.951720
vt 0.328024 0.951636
vt 0.328023 0.951722
vt 0.328010 0.951708
vt 0.328011 0.951636
vt 0.328364 0.951636
vt 0.328351 0.951636
vt 0.328351 0.951708
vt 0.328363 0.951720
vt 0.328364 0.951636
vt 0.328364 0.951722
vt 0.328351 0.951708
vt 0.328351 0.951636
vt 0.485409 0.982727
vt 0.484626 0.982813
vt 0.484901 0.983163
vt 0.485405 0.983165
vt 0.486007 0.982948
vt 0.485411 0.982475
vt 0.485403 0.983411
vt 0.485330 0.983206
vt 0.484839 0.983203
vt 0.485334 0.982671
vt 0.484577 0.982789
vt 0.485336 0.982363
vt 0.486069 0.982941
vt 0.485328 0.983505
vt 0.484585 0.983202
vt 0.484640 0.983161
vt 0.484864 0.983193
vt 0.484804 0.983213
vt 0.484585 0.983202
vt 0.484640 0.983161
vt 0.484640 0.983161
vt 0.484585 0.983202
vn 0.000000 0.000000 -1.000000
vn 0.000000 0.000000 -1.000000
vn 0.000000 0.000000 -1.000000
vn 0.000000 0.000000 -1.000000
vn 0.000000 0.000000 -1.000000
vn 0.000000 0.000000 -1.000000
vn 0.000000 0.000000 -1.000000
vn 0.000000 0.000000 -1.000000
vn -0.965839 -0.002551 -0.259130
vn -0.965839 -0.002551 -0.259130
vn -0.965839 -0.002551 -0.259130
vn -0.965839 -0.002551 -0.259130
vn 0.971766 0.000000 -0.235946
vn 0.971766 0.000000 -0.235946
vn 0.971766 0.000000 -0.235946
vn 0.971766 0.000000 -0.235946
vn 0.000000 0.944784 -0.327693
vn 0.000000 0.944784 -0.327693
vn 0.000000 0.944784 -0.327693
vn 0.000000 0.944784 -0.327693
vn 0.000000 0.984649 -0.174544
vn 0.000000 0.984649 -0.174544
vn 0.000000 0.984649 -0.174544
vn 0.000000 0.984649 -0.174544
vn -0.004659 -0.976036 -0.217558
vn -0.004659 -0.976036 -0.217558
vn -0.004659 -0.976036 -0.217558
vn -0.004659 -0.976036 -0.217558
vn 0.915430 0.000000 -0.402476
vn 0.915430 0.000000 -0.402476
vn 0.915430 0.000000 -0.402476
vn 0.915430 0.000000 -0.402476
vn 0.000000 0.000000 1.000000
vn 0.000000 0.000000 1.000000
vn 0.000000 0.000000 1.000000
vn 0.000000 0.000000 1.000000
vn 0.000000 0.000000 1.000000
vn 0.000000 0.000000 1.000000
vn 0.000000 0.000000 1.000000
vn 0.000000 0.000000 1.000000
vn -0.965839 -0.002551 0.259130
vn -0.965839 -0.002551 0.259130
vn -0.965839 -0.002551 0.259130
vn -0.965839 -0.002551 0.259130
vn 0.971766 0.000000 0.235946
vn 0.971766 0.000000 0.235946
vn 0.971766 0.000000 0.235946
vn 0.971766 0.000000 0.235946
vn 0.000000 0.944784 0.327693
vn 0.000000 0.944784 0.327693
vn 0.000000 0.944784 0.327693
vn 0.000000 0.944784 0.327693
vn 0.000000 0.984649 0.174544
vn 0.000000 0.984649 0.174544
vn 0.000000 0.984649 0.174544
vn 0.000000 0.984649 0.174544
vn -0.004659 -0.976036 0.217558
vn -0.004659 -0.976036 0.217558
vn -0.004659 -0.976036 0.217558
vn -0.004659 -0.976036 0.217558
vn 0.915430 0.000000 0.402476
vn 0.915430 0.000000 0.402476
vn 0.915430 0.000000 0.402476
vn 0.915430 0.000000 0.402476
vn 0.000000 0.000000 1.000000
vn 0.000000 0.000000 1.000000
vn 0.000000 0.000000 1.000000
vn 0.000000 0.000000 1.000000
vn -0.829863 -0.005547 0.557939
vn -0.829863 -0.005547 0.557939
vn -0.829863 -0.005547 0.557939
vn -0.829863 -0.005547 0.557939
vn 0.859465 0.000000 0.511195
vn 0.859465 0.000000 0.511195
vn 0.859465 0.000000 0.511195
vn 0.859465 0.000000 0.511195
vn 0.000000 0.821661 0.569976
vn 0.000000 0.821661 0.569976
vn 0.000000 0.821661 0.569976
vn 0.000000 0.821661 0.569976
vn 0.000000 0.000000 1.000000
vn 0.000000 0.000000 1.000000
vn 0.000000 0.000000 1.000000
vn 0.000000 0.000000 1.000000
vn 0.000000 0.000000 1.000000
vn 0.000000 0.000000 1.000000
vn 0.000000 0.000000 1.000000
vn 0.000000 0.000000 1.000000
vn 0.000000 0.000000 1.000000
vn 0.000000 0.000000 1.000000
vn 0.000000 0.000000 1.000000
vn 0.000000 0.000000 1.000000
vn 0.000000 0.000000 1.000000
vn -0.583790 0.805510 0.101698
vn -0.583790 0.805510 0.101698
vn -0.583790 0.805511 0.101698
vn -0.583790 0.805510 0.101698
vn 0.571131 -0.793566 0.209913
vn 0.571131 -0.793566 0.209913
vn 0.571131 -0.793566 0.209913
vn 0.571131 -0.793566 0.209913
vn -0.765494 -0.613839 0.192926
vn -0.765494 -0.613839 0.192926
vn -0.765494 -0.613839 0.192926
vn -0.765494 -0.613839 0.192926
vn 0.964323 -0.225582 0.138540
vn 0.964323 -0.225582 0.138540
vn 0.964323 -0.225582 0.138540
vn 0.964323 -0.225582 0.138540
vn -0.024723 0.984750 0.172207
vn -0.024723 0.984751 0.172207
vn -0.024723 0.984751 0.172207
vn -0.024723 0.984751 0.172207
vn -0.760724 -0.622658 0.183294
vn -0.760724 -0.622658 0.183294
vn -0.760724 -0.622658 0.183294
vn -0.760724 -0.622658 0.183294
vn -0.659257 -0.708441 0.251974
vn -0.659257 -0.708441 0.251974
vn -0.659257 -0.708441 0.251974
vn -0.659257 -0.708441 0.251974
vn 0.000000 0.000000 1.000000
vn 0.000000 0.000000 1.000000
vn 0.000000 0.000000 1.000000
vn 0.000000 0.000000 1.000000
vn 0.660725 0.746849 0.075228
vn 0.660725 0.746849 0.075228
vn 0.660725 0.746849 0.075228
vn 0.660725 0.746849 0.075228
vn 0.508942 -0.817725 0.268896
vn 0.508942 -0.817725 0.268896
vn 0.508942 -0.817725 0.268896
vn 0.508942 -0.817725 0.268896
vn 0.000000 0.000000 1.000000
vn 0.000000 0.000000 1.000000
vn 0.000000 0.000000 1.000000
vn 0.000000 0.000000 1.000000
vn -0.482742 0.864987 0.136958
vn -0.482742 0.864987 0.136958
vn -0.482742 0.864987 0.136958
vn -0.482742 0.864987 0.136958
vn 0.000000 0.000000 -1.000000
vn 0.000000 0.000000 -1.000000
vn 0.000000 0.000000 -1.000000
vn 0.000000 0.000000 -1.000000
vn -0.829736 -0.004735 -0.558135
vn -0.829736 -0.004735 -0.558135
vn -0.829736 -0.004735 -0.558135
vn -0.829736 -0.004735 -0.558135
vn 0.859464 0.000000 -0.511196
vn 0.859465 0.000000 -0.511196
vn 0.859464 0.000000 -0.511196
vn 0.859464 0.000000 -0.511196
vn 0.000000 0.821661 -0.569976
vn 0.000000 0.821661 -0.569976
vn 0.000000 0.821661 -0.569976
vn 0.000000 0.821661 -0.569976
vn 0.000000 0.000000 1.000000
vn 0.000000 0.000000 1.000000
vn 0.000000 0.000000 1.000000
vn 0.000000 0.000000 1.000000
vn -0.829736 -0.004735 0.558135
vn -0.829736 -0.004735 0.558135
vn -0.829736 -0.004735 0.558135
vn -0.829736 -0.004735 0.558135
vn 0.859464 0.000000 0.511196
vn 0.859464 0.000000 0.511196
vn 0.859464 0.000000 0.511196
vn 0.859465 0.000000 0.511196
vn 0.000000 0.821661 0.569976
vn 0.000000 0.821661 0.569976
vn 0.000000 0.821661 0.569976
vn 0.000000 0.821661 0.569976
vn 0.000000 0.000000 1.000000
vn 0.000000 0.000000 1.000000
vn 0.000000 0.000000 1.000000
vn 0.000000 0.000000 1.000000
vn -0.830064 -0.006844 0.557625
vn -0.830064 -0.006844 0.557626
vn -0.830064 -0.006844 0.557626
vn -0.830064 -0.006844 0.557626
vn 0.859465 0.000000 0.511195
vn 0.859465 0.000000 0.511195
vn 0.859465 0.000000 0.511195
vn 0.859465 0.000000 0.511195
vn 0.000000 0.821661 0.569976
vn 0.000000 0.821661 0.569976
vn 0.000000 0.821661 0.569976
vn 0.000000 0.821661 0.569976
vn 0.000000 0.000000 -1.000000
vn 0.000000 0.000000 -1.000000
vn 0.000000 0.000000 -1.000000
vn 0.000000 0.000000 -1.000000
vn -0.830064 -0.006844 -0.557625
vn -0.830064 -0.006844 -0.557625
vn -0.830064 -0.006844 -0.557626
vn -0.830064 -0.006844 -0.557626
vn 0.859465 0.000000 -0.511195
vn 0.859465 0.000000 -0.511195
vn 0.859465 0.000000 -0.511195
vn 0.859465 0.000000 -0.511195
vn 0.000000 0.821661 -0.569976
vn 0.000000 0.821661 -0.569976
vn 0.000000 0.821661 -0.569976
vn 0.000000 0.821661 -0.569976
vn 0.000000 0.000000 -1.000000
vn 0.000000 0.000000 -1.000000
vn 0.000000 0.000000 -1.000000
vn 0.000000 0.000000 -1.000000
vn -0.829863 -0.005547 -0.557939
vn -0.829863 -0.005547 -0.557939
vn -0.829863 -0.005547 -0.557939
vn -0.829863 -0.005547 -0.557939
vn 0.859465 0.000000 -0.511195
vn 0.859465 0.000000 -0.511195
vn 0.859465 0.000000 -0.511195
vn 0.859465 0.000000 -0.511195
vn 0.000000 0.821661 -0.569976
vn 0.000000 0.821661 -0.569976
vn 0.000000 0.821661 -0.569976
vn 0.000000 0.821661 -0.569976
vn 0.000000 0.000000 -1.000000
vn 0.000000 0.000000 -1.000000
vn 0.000000 0.000000 -1.000000
vn 0.000000 0.000000 -1.000000
vn 0.000000 0.000000 -1.000000
vn 0.000000 0.000000 -1.000000
vn 0.000000 0.000000 -1.000000
vn 0.000000 0.000000 -1.000000
vn 0.000000 0.000000 -1.000000
vn 0.000000 0.000000 -1.000000
vn 0.000000 0.000000 -1.000000
vn 0.000000 0.000000 -1.000000
vn 0.000000 0.000000 -1.000000
vn -0.583790 0.805510 -0.101698
vn -0.583790 0.805510 -0.101698
vn -0.583790 0.805511 -0.101698
vn -0.583790 0.805510 -0.101698
vn 0.571131 -0.793566 -0.209913
vn 0.571131 -0.793566 -0.209913
vn 0.571131 -0.793566 -0.209913
vn 0.571131 -0.793566 -0.209913
vn -0.765494 -0.613839 -0.192926
vn -0.765494 -0.613839 -0.192926
vn -0.765494 -0.613839 -0.192926
vn -0.765494 -0.613839 -0.192926
vn 0.964323 -0.225582 -0.138540
vn 0.964323 -0.225582 -0.138540
vn 0.964323 -0.225582 -0.138540
vn 0.964323 -0.225582 -0.138540
vn -0.024723 0.984750 -0.172207
vn -0.024723 0.984751 -0.172207
vn -0.024723 0.984750 -0.172207
vn -0.024723 0.984751 -0.172207
vn -0.760724 -0.622658 -0.183294
vn -0.760724 -0.622658 -0.183294
vn -0.760724 -0.622658 -0.183294
vn -0.760724 -0.622658 -0.183294
vn -0.659257 -0.708441 -0.251974
vn -0.659257 -0.708441 -0.251974
vn -0.659257 -0.708441 -0.251974
vn -0.659257 -0.708441 -0.251974
vn 0.000000 0.000000 -1.000000
vn 0.000000 0.000000 -1.000000
vn 0.000000 0.000000 -1.000000
vn 0.000000 0.000000 -1.000000
vn 0.660725 0.746849 -0.075229
vn 0.660725 0.746849 -0.075229
vn 0.660725 0.746849 -0.075229
vn 0.660725 0.746849 -0.075229
vn 0.508942 -0.817725 -0.268896
vn 0.508942 -0.817725 -0.268896
vn 0.508942 -0.817725 -0.268896
vn 0.508942 -0.817725 -0.268896
vn 0.000000 0.000000 -1.000000
vn 0.000000 0.000000 -1.000000
vn 0.000000 0.000000 -1.000000
vn 0.000000 0.000000 -1.000000
vn -0.482742 0.864987 -0.136958
vn -0.482742 0.864987 -0.136958
vn -0.482742 0.864987 -0.136958
vn -0.482742 0.864987 -0.136958
s off
f 7/1/1 10/2/2 9/3/3 8/4/4
f 11/5/5 12/6/6 8/4/7 9/3/8
f 3/7/9 7/1/10 8/4/11 1/8/12
f 5/9/13 9/3/14 10/2/15 4/10/16
f 4/10/17 10/2/18 7/1/19 3/7/20
f 6/11/21 11/5/22 9/3/23 5/9/24
f 1/8/25 8/4/26 12/6/27 2/12/28
f 2/12/29 12/6/30 11/5/31 6/11/32
f 13/13/33 14/14/34 15/15/35 16/16/36
f 17/17/37 15/15/38 14/14/39 18/18/40
f 3/19/41 1/20/42 14/14/43 13/13/44
f 5/21/45 4/22/46 16/16/47 15/15/48
f 4/22/49 3/19/50 13/13/51 16/16/52
f 6/23/53 5/21/54 15/15/55 17/17/56
f 1/20/57 2/24/58 18/18/59 14/14/60
f 2/24/61 6/23/62 17/17/63 18/18/64
f 23/25/65 24/26/66 25/27/67 26/28/68
f 20/29/69 19/30/70 24/26/71 23/25/72
f 22/31/73 21/32/74 26/28/75 25/27/76
f 21/32/77 20/29/78 23/25/79 26/28/80
f 33/33/81 34/34/82 40/35/83 35/36/84
f 36/37/85 33/33/86 37/38/87
f 36/37/88 38/39/89 34/34/90
f 36/37/91 34/34/92 33/33/93
f 32/40/94 39/41/95 40/35/96 34/34/97
f 35/36/98 28/42/99 30/43/100 33/33/101
f 30/43/102 29/44/103 37/38/104 33/33/105
f 29/44/106 27/45/107 36/37/108 37/38/109
f 27/45/110 31/46/111 38/39/112 36/37/113
f 31/46/114 32/40/115 34/34/116 38/39/117
f 28/42/118 35/36/119 44/47/120 43/48/121
f 35/36/122 40/35/123 42/49/124 44/47/125
f 40/35/126 39/41/127 41/50/128 42/49/129
f 43/48/130 44/47/131 47/51/132 48/52/133
f 44/47/134 42/49/135 46/53/136 47/51/137
f 42/49/138 41/50/139 45/54/140 46/53/141
f 53/55/142 56/56/143 55/57/144 54/58/145
f 50/59/146 53/55/147 54/58/148 49/60/149
f 52/61/150 55/57/151 56/56/152 51/62/153
f 51/62/154 56/56/155 53/55/156 50/59/157
f 57/63/158 58/64/159 59/65/160 60/66/161
f 50/67/162 49/68/163 58/64/164 57/63/165
f 52/69/166 51/70/167 60/66/168 59/65/169
f 51/70/170 50/67/171 57/63/172 60/66/173
f 65/71/174 66/72/175 67/73/176 68/74/177
f 62/75/178 61/76/179 66/72/180 65/71/181
f 64/77/182 63/78/183 68/74/184 67/73/185
f 63/78/186 62/75/187 65/71/188 68/74/189
f 69/79/190 72/80/191 71/81/192 70/82/193
f 62/83/194 69/79/195 70/82/196 61/84/197
f 64/85/198 71/81/199 72/80/200 63/86/201
f 63/86/202 72/80/203 69/79/204 62/83/205
f 73/87/206 76/88/207 75/89/208 74/90/209
f 20/91/210 73/87/211 74/90/212 19/92/213
f 22/93/214 75/89/215 76/88/216 21/94/217
f 21/94/218 76/88/219 73/87/220 20/91/221
f 77/95/222 79/96/223 83/97/224 78/98/225
f 80/99/226 81/100/227 77/95/228
f 80/99/229 78/98/230 82/101/231
f 80/99/232 77/95/233 78/98/234
f 32/102/235 78/98/236 83/97/237 39/103/238
f 79/96/239 77/95/240 30/104/241 28/105/242
f 30/104/243 77/95/244 81/100/245 29/106/246
f 29/106/247 81/100/248 80/99/249 27/107/250
f 27/107/251 80/99/252 82/101/253 31/108/254
f 31/108/255 82/101/256 78/98/257 32/102/258
f 28/105/259 43/109/260 85/110/261 79/96/262
f 79/96/263 85/110/264 84/111/265 83/97/266
f 83/97/267 84/111/268 41/112/269 39/103/270
f 43/109/271 48/113/272 87/114/273 85/110/274
f 85/110/275 87/114/276 86/115/277 84/111/278
f 84/111/279 86/115/280 45/116/281 41/112/282
