# This file uses centimeters as units for non-parametric coordinates.

v -5.506275 -8.323645 2.000000
v -8.273479 -5.368296 2.000000
v -9.895145 -12.113066 2.000000
v -12.226422 -9.781784 2.000000
v -8.702768 -12.299767 0.000000
v -12.320940 -8.756088 0.000000
v -4.659632 -8.417715 0.000000
v -8.555694 -4.521654 0.000000
v -12.976993 3.261538 -0.000000
v -8.277951 -8.252104 -0.000000
v 2.889026 -12.977810 -0.000000
v 14.162668 -8.038772 -0.000000
v 18.781710 3.234872 0.000000
v 14.189336 14.321848 0.000000
v 3.102357 18.914223 -0.000000
v -8.144618 14.375179 -0.000000
v -12.116442 3.234871 4.000000
v -7.658958 -7.526443 4.000000
v 3.102358 -11.983929 4.000000
v 13.337506 -7.421213 4.000000
v 17.847607 3.287488 4.000000
v 13.600591 13.733103 4.000000
v 3.128665 17.901192 4.000000
v -7.527417 13.759413 4.000000
v -8.571103 3.234871 4.000000
v -5.152025 -5.019511 4.000000
v 3.102356 -8.438587 4.000000
v 11.330431 -4.993203 4.000000
v 14.775816 3.234873 4.000000
v 11.356739 11.489253 4.000000
v 3.102358 14.908331 4.000000
v -5.152026 11.489254 4.000000
v -7.688375 3.234870 0.000000
v -4.527843 -4.395329 -0.000000
v 3.102355 -7.555861 0.000000
v 10.364241 -4.290095 0.000000
v 13.235378 2.945479 0.000000
v 10.127463 10.365211 -0.000000
v 3.023433 13.525744 0.000000
v -4.501535 10.470447 0.000000
v -12.617252 -14.258019 2.000000
v -14.558487 -12.316781 2.000000
v -12.170254 -15.449925 0.000000
v -15.587954 -12.032226 0.000000
v -16.156153 -17.630135 2.000000
v -17.682390 -16.103891 2.000000
v -15.692123 -18.897623 0.000000
v -18.807371 -15.782377 0.000000
v -6.974469 -15.136478 2.000004
v -5.566154 -15.501867 0.000000
v -9.611521 -17.674683 2.000004
v -9.227483 -18.840874 0.000000
v -15.618217 -6.646826 2.000000
v -16.119560 -5.177055 0.000000
v -18.893532 -8.763892 0.000000
v -17.703129 -9.172139 2.000000
v -5.506275 -8.323645 -2.000000
v -8.273479 -5.368296 -2.000000
v -9.895145 -12.113066 -2.000000
v -12.226422 -9.781784 -2.000000
v -12.116442 3.234871 -4.000000
v -7.658958 -7.526443 -4.000000
v 3.102358 -11.983929 -4.000000
v 13.337506 -7.421213 -4.000000
v 17.847607 3.287488 -4.000000
v 13.600591 13.733103 -4.000000
v 3.128665 17.901192 -4.000000
v -7.527417 13.759413 -4.000000
v -8.571103 3.234871 -4.000000
v -5.152025 -5.019511 -4.000000
v 3.102356 -8.438587 -4.000000
v 11.330431 -4.993203 -4.000000
v 14.775816 3.234873 -4.000000
v 11.356739 11.489253 -4.000000
v 3.102358 14.908331 -4.000000
v -5.152026 11.489254 -4.000000
v -12.617252 -14.258019 -2.000000
v -14.558487 -12.316781 -2.000000
v -16.156153 -17.630135 -2.000000
v -17.682390 -16.103891 -2.000000
v -6.974469 -15.136478 -2.000004
v -9.611521 -17.674683 -2.000004
v -15.618217 -6.646826 -2.000000
v -17.703129 -9.172139 -2.000000
vt 0.454372 0.982930
vt 0.453892 0.983441
vt 0.453206 0.982678
vt 0.453611 0.982275
vt 0.454519 0.982913
vt 0.453843 0.983587
vt 0.453190 0.982855
vt 0.453817 0.982242
vt 0.453076 0.984932
vt 0.453891 0.982942
vt 0.453998 0.983068
vt 0.453225 0.984928
vt 0.455828 0.982125
vt 0.455865 0.982297
vt 0.457784 0.982979
vt 0.457641 0.983086
vt 0.458585 0.984928
vt 0.458423 0.984937
vt 0.457789 0.986844
vt 0.457687 0.986742
vt 0.455865 0.987638
vt 0.455870 0.987463
vt 0.453914 0.986853
vt 0.454021 0.986747
vt 0.454433 0.983501
vt 0.453840 0.984928
vt 0.455865 0.982910
vt 0.457293 0.983505
vt 0.457890 0.984928
vt 0.457297 0.986354
vt 0.455865 0.986946
vt 0.454433 0.986354
vt 0.454542 0.983609
vt 0.453993 0.984928
vt 0.455865 0.983063
vt 0.457125 0.983627
vt 0.457623 0.984878
vt 0.457084 0.986160
vt 0.455852 0.986706
vt 0.454546 0.986178
vt 0.452802 0.982240
vt 0.453138 0.981904
vt 0.454362 0.981689
vt 0.454117 0.981752
vt 0.453660 0.981313
vt 0.453726 0.981112
vt 0.452618 0.983220
vt 0.452531 0.983474
vt 0.452049 0.982854
vt 0.452256 0.982783
vt 0.452260 0.981585
vt 0.452524 0.981321
vt 0.453216 0.981698
vt 0.452605 0.981102
vt 0.452623 0.982289
vt 0.452064 0.981641
vt 0.454372 0.982930
vt 0.453892 0.983441
vt 0.453206 0.982678
vt 0.453611 0.982275
vt 0.454519 0.982913
vt 0.453843 0.983587
vt 0.453190 0.982855
vt 0.453817 0.982242
vt 0.453076 0.984932
vt 0.453891 0.982942
vt 0.453998 0.983068
vt 0.453225 0.984928
vt 0.455828 0.982125
vt 0.455865 0.982297
vt 0.457784 0.982979
vt 0.457641 0.983086
vt 0.458585 0.984928
vt 0.458423 0.984937
vt 0.457789 0.986844
vt 0.457687 0.986742
vt 0.455865 0.987638
vt 0.455870 0.987463
vt 0.453914 0.986853
vt 0.454021 0.986747
vt 0.454433 0.983501
vt 0.453840 0.984928
vt 0.455865 0.982910
vt 0.457293 0.983505
vt 0.457890 0.984928
vt 0.457297 0.986354
vt 0.455865 0.986946
vt 0.454433 0.986354
vt 0.454542 0.983609
vt 0.453993 0.984928
vt 0.455865 0.983063
vt 0.457125 0.983627
vt 0.457623 0.984878
vt 0.457084 0.986160
vt 0.455852 0.986706
vt 0.454546 0.986178
vt 0.452802 0.982240
vt 0.453138 0.981904
vt 0.454362 0.981689
vt 0.454117 0.981752
vt 0.453660 0.981313
vt 0.453726 0.981112
vt 0.452618 0.983220
vt 0.452531 0.983474
vt 0.452049 0.982854
vt 0.452256 0.982783
vt 0.452260 0.981585
vt 0.452524 0.981321
vt 0.453216 0.981698
vt 0.452605 0.981102
vt 0.452623 0.982289
vt 0.452064 0.981641
vn 0.000000 0.000000 1.000000
vn 0.000000 0.000000 1.000000
vn 0.000000 0.000000 1.000000
vn 0.000000 0.000000 1.000000
vn 0.716881 0.697195 0.000000
vn 0.716881 0.697195 0.000000
vn 0.698283 0.679108 0.226302
vn 0.698283 0.679108 0.226302
vn -0.696966 0.622035 0.356807
vn -0.696966 0.622035 0.356807
vn -0.696966 0.622035 0.356807
vn -0.696966 0.622035 0.356807
vn 0.625910 -0.687961 0.367351
vn 0.625910 -0.687961 0.367351
vn 0.625910 -0.687961 0.367351
vn 0.625910 -0.687961 0.367351
vn -0.924905 -0.380199 0.000000
vn -0.924905 -0.380199 0.000000
vn -0.906191 -0.372506 0.200141
vn -0.906191 -0.372506 0.200141
vn -0.386278 -0.922382 0.000000
vn -0.386278 -0.922382 0.000000
vn -0.375744 -0.897228 0.231945
vn -0.375744 -0.897228 0.231945
vn 0.404088 -0.914720 -0.000000
vn 0.404088 -0.914720 -0.000000
vn 0.395048 -0.894256 0.210343
vn 0.395048 -0.894256 0.210343
vn 0.923526 -0.383535 0.000000
vn 0.923526 -0.383535 0.000000
vn 0.898991 -0.373346 0.228971
vn 0.898991 -0.373346 0.228971
vn 0.925086 0.379759 0.000000
vn 0.925086 0.379759 0.000000
vn 0.906851 0.372273 0.197573
vn 0.906851 0.372273 0.197573
vn 0.376457 0.926434 -0.000000
vn 0.376457 0.926434 -0.000000
vn 0.368275 0.906299 0.207352
vn 0.368275 0.906299 0.207352
vn -0.368447 0.929649 0.000000
vn -0.368447 0.929649 0.000000
vn -0.359924 0.908143 0.213849
vn -0.359924 0.908143 0.213849
vn -0.916861 0.399207 0.000000
vn -0.916861 0.399207 0.000000
vn -0.898810 0.391347 0.197454
vn -0.898810 0.391347 0.197454
vn 0.000000 0.000000 1.000000
vn 0.000000 0.000000 1.000000
vn 0.000000 0.000000 1.000000
vn 0.000000 0.000000 1.000000
vn 0.000000 0.000000 1.000000
vn 0.000000 0.000000 1.000000
vn 0.000000 0.000000 1.000000
vn 0.000000 0.000000 1.000000
vn 0.000000 0.000000 1.000000
vn 0.000000 0.000000 1.000000
vn 0.000000 0.000000 1.000000
vn 0.000000 0.000000 1.000000
vn 0.000000 0.000000 1.000000
vn 0.000000 0.000000 1.000000
vn 0.000000 0.000000 1.000000
vn 0.000000 0.000000 1.000000
vn 0.000000 0.000000 1.000000
vn 0.000000 0.000000 1.000000
vn 0.000000 0.000000 1.000000
vn 0.000000 0.000000 1.000000
vn 0.000000 0.000000 1.000000
vn 0.000000 0.000000 1.000000
vn 0.000000 0.000000 1.000000
vn 0.000000 0.000000 1.000000
vn 0.000000 0.000000 1.000000
vn 0.000000 0.000000 1.000000
vn 0.000000 0.000000 1.000000
vn 0.000000 0.000000 1.000000
vn 0.000000 0.000000 1.000000
vn 0.000000 0.000000 1.000000
vn 0.000000 0.000000 1.000000
vn 0.000000 0.000000 1.000000
vn 0.905256 0.374969 0.199774
vn 0.905256 0.374969 0.199774
vn 0.923880 0.382684 0.000000
vn 0.923880 0.382684 0.000000
vn 0.374969 0.905256 0.199773
vn 0.374969 0.905256 0.199773
vn 0.382683 0.923880 -0.000000
vn 0.382683 0.923880 -0.000000
vn -0.387442 0.894252 0.224060
vn -0.387442 0.894252 0.224060
vn -0.397549 0.917581 0.000000
vn -0.397549 0.917581 0.000000
vn -0.884329 0.361227 0.295766
vn -0.884329 0.361227 0.295766
vn -0.884329 0.361227 0.295766
vn -0.884329 0.361227 0.295766
vn -0.860783 -0.358446 0.361345
vn -0.860782 -0.358446 0.361345
vn -0.860782 -0.358446 0.361345
vn -0.860783 -0.358446 0.361345
vn -0.371402 -0.866943 0.332371
vn -0.371402 -0.866943 0.332371
vn -0.371402 -0.866943 0.332371
vn -0.371402 -0.866943 0.332371
vn 0.363101 -0.884951 0.291581
vn 0.363101 -0.884951 0.291581
vn 0.363101 -0.884951 0.291581
vn 0.363101 -0.884951 0.291581
vn 0.897170 -0.382611 0.220671
vn 0.897170 -0.382611 0.220671
vn 0.919845 -0.392281 0.000000
vn 0.919845 -0.392281 0.000000
vn -0.000000 0.000000 1.000000
vn 0.000000 0.000000 1.000000
vn 0.000000 0.000000 1.000000
vn -0.000000 0.000000 1.000000
vn 0.588710 -0.630897 0.505361
vn 0.588710 -0.630898 0.505361
vn 0.588710 -0.630898 0.505361
vn 0.588710 -0.630898 0.505361
vn -0.664332 0.528114 0.528922
vn -0.664332 0.528114 0.528922
vn -0.664332 0.528114 0.528922
vn -0.664332 0.528114 0.528922
vn 0.000000 0.000000 1.000000
vn 0.000000 0.000000 1.000000
vn 0.000000 0.000000 1.000000
vn 0.000000 0.000000 1.000000
vn 0.595599 -0.616643 0.514794
vn 0.595599 -0.616643 0.514794
vn 0.595599 -0.616643 0.514794
vn 0.595599 -0.616643 0.514794
vn -0.681676 0.573695 0.454084
vn -0.681676 0.573695 0.454084
vn -0.681676 0.573695 0.454084
vn -0.681676 0.573695 0.454084
vn 0.672244 0.654079 0.346797
vn 0.672244 0.654079 0.346797
vn 0.672244 0.654079 0.346797
vn 0.672244 0.654079 0.346797
vn -0.000000 0.000000 1.000000
vn -0.000000 0.000000 1.000000
vn -0.000001 0.000001 1.000000
vn -0.000001 0.000001 1.000000
vn -0.733629 -0.641046 0.225494
vn -0.753024 -0.657993 0.000000
vn -0.753024 -0.657993 0.000000
vn -0.733629 -0.641046 0.225494
vn 0.643291 0.688938 0.333978
vn 0.643291 0.688938 0.333978
vn 0.643291 0.688938 0.333978
vn 0.643291 0.688938 0.333978
vn -0.680946 -0.684900 0.259278
vn -0.680946 -0.684900 0.259277
vn -0.680946 -0.684900 0.259278
vn -0.680946 -0.684900 0.259277
vn 0.000000 0.000000 1.000000
vn 0.000000 0.000000 1.000000
vn 0.000000 0.000000 1.000000
vn 0.000000 0.000000 1.000000
vn -0.680196 -0.680195 0.273256
vn -0.680196 -0.680195 0.273256
vn -0.680196 -0.680195 0.273256
vn -0.680196 -0.680195 0.273256
vn 0.000000 0.000000 -1.000000
vn 0.000000 0.000000 -1.000000
vn 0.000000 0.000000 -1.000000
vn 0.000000 0.000000 -1.000000
vn 0.716881 0.697195 0.000000
vn 0.698283 0.679108 -0.226302
vn 0.698283 0.679108 -0.226302
vn 0.716881 0.697195 0.000000
vn -0.696966 0.622035 -0.356807
vn -0.696966 0.622035 -0.356807
vn -0.696966 0.622035 -0.356807
vn -0.696966 0.622035 -0.356807
vn 0.625910 -0.687961 -0.367351
vn 0.625910 -0.687961 -0.367351
vn 0.625910 -0.687961 -0.367351
vn 0.625910 -0.687961 -0.367351
vn -0.924905 -0.380199 0.000000
vn -0.906191 -0.372506 -0.200141
vn -0.906191 -0.372506 -0.200141
vn -0.924905 -0.380199 0.000000
vn -0.386278 -0.922382 0.000000
vn -0.375744 -0.897228 -0.231945
vn -0.375744 -0.897228 -0.231945
vn -0.386278 -0.922382 0.000000
vn 0.404088 -0.914720 -0.000000
vn 0.395048 -0.894256 -0.210343
vn 0.395048 -0.894256 -0.210343
vn 0.404088 -0.914720 -0.000000
vn 0.923526 -0.383535 0.000000
vn 0.898991 -0.373346 -0.228971
vn 0.898991 -0.373346 -0.228971
vn 0.923526 -0.383535 0.000000
vn 0.925086 0.379759 0.000000
vn 0.906851 0.372273 -0.197573
vn 0.906851 0.372273 -0.197573
vn 0.925086 0.379759 0.000000
vn 0.376457 0.926434 -0.000000
vn 0.368275 0.906299 -0.207352
vn 0.368275 0.906299 -0.207352
vn 0.376457 0.926434 -0.000000
vn -0.368447 0.929649 0.000000
vn -0.359924 0.908143 -0.213849
vn -0.359924 0.908143 -0.213849
vn -0.368447 0.929649 0.000000
vn -0.916861 0.399207 0.000000
vn -0.898810 0.391347 -0.197454
vn -0.898810 0.391347 -0.197454
vn -0.916861 0.399207 0.000000
vn 0.000000 0.000000 -1.000000
vn 0.000000 0.000000 -1.000000
vn 0.000000 0.000000 -1.000000
vn 0.000000 0.000000 -1.000000
vn 0.000000 0.000000 -1.000000
vn 0.000000 0.000000 -1.000000
vn 0.000000 0.000000 -1.000000
vn 0.000000 0.000000 -1.000000
vn 0.000000 0.000000 -1.000000
vn 0.000000 0.000000 -1.000000
vn 0.000000 0.000000 -1.000000
vn 0.000000 0.000000 -1.000000
vn 0.000000 0.000000 -1.000000
vn 0.000000 0.000000 -1.000000
vn 0.000000 0.000000 -1.000000
vn 0.000000 0.000000 -1.000000
vn 0.000000 0.000000 -1.000000
vn 0.000000 0.000000 -1.000000
vn 0.000000 0.000000 -1.000000
vn 0.000000 0.000000 -1.000000
vn 0.000000 0.000000 -1.000000
vn 0.000000 0.000000 -1.000000
vn 0.000000 0.000000 -1.000000
vn 0.000000 0.000000 -1.000000
vn 0.000000 0.000000 -1.000000
vn 0.000000 0.000000 -1.000000
vn 0.000000 0.000000 -1.000000
vn 0.000000 0.000000 -1.000000
vn 0.000000 0.000000 -1.000000
vn 0.000000 0.000000 -1.000000
vn 0.000000 0.000000 -1.000000
vn 0.000000 0.000000 -1.000000
vn 0.905256 0.374969 -0.199774
vn 0.923880 0.382684 0.000000
vn 0.923880 0.382684 0.000000
vn 0.905256 0.374969 -0.199774
vn 0.374969 0.905256 -0.199773
vn 0.382683 0.923880 -0.000000
vn 0.382683 0.923880 -0.000000
vn 0.374969 0.905256 -0.199773
vn -0.387442 0.894252 -0.224060
vn -0.397549 0.917581 0.000000
vn -0.397549 0.917581 0.000000
vn -0.387442 0.894252 -0.224060
vn -0.884329 0.361227 -0.295766
vn -0.884329 0.361227 -0.295766
vn -0.884329 0.361227 -0.295766
vn -0.884329 0.361227 -0.295766
vn -0.860783 -0.358446 -0.361345
vn -0.860783 -0.358446 -0.361345
vn -0.860782 -0.358446 -0.361345
vn -0.860782 -0.358446 -0.361345
vn -0.371402 -0.866943 -0.332371
vn -0.371402 -0.866943 -0.332371
vn -0.371402 -0.866943 -0.332371
vn -0.371402 -0.866943 -0.332371
vn 0.363101 -0.884951 -0.291582
vn 0.363101 -0.884951 -0.291582
vn 0.363101 -0.884951 -0.291582
vn 0.363101 -0.884951 -0.291582
vn 0.897170 -0.382611 -0.220671
vn 0.919845 -0.392281 0.000000
vn 0.919845 -0.392281 0.000000
vn 0.897170 -0.382611 -0.220671
vn -0.000000 0.000000 -1.000000
vn -0.000000 0.000000 -1.000000
vn 0.000000 0.000000 -1.000000
vn 0.000000 0.000000 -1.000000
vn 0.588710 -0.630898 -0.505360
vn 0.588710 -0.630898 -0.505360
vn 0.588710 -0.630898 -0.505360
vn 0.588710 -0.630898 -0.505360
vn -0.664332 0.528114 -0.528922
vn -0.664332 0.528114 -0.528922
vn -0.664332 0.528114 -0.528922
vn -0.664332 0.528114 -0.528922
vn 0.000000 0.000000 -1.000000
vn 0.000000 0.000000 -1.000000
vn 0.000000 0.000000 -1.000000
vn 0.000000 0.000000 -1.000000
vn 0.595599 -0.616643 -0.514794
vn 0.595599 -0.616643 -0.514794
vn 0.595599 -0.616643 -0.514794
vn 0.595599 -0.616643 -0.514794
vn -0.681676 0.573695 -0.454084
vn -0.681676 0.573695 -0.454084
vn -0.681676 0.573695 -0.454084
vn -0.681676 0.573695 -0.454084
vn 0.672244 0.654079 -0.346797
vn 0.672244 0.654079 -0.346797
vn 0.672244 0.654079 -0.346797
vn 0.672244 0.654079 -0.346797
vn -0.000000 0.000000 -1.000000
vn -0.000001 0.000001 -1.000000
vn -0.000001 0.000001 -1.000000
vn -0.000000 0.000000 -1.000000
vn -0.733629 -0.641046 -0.225494
vn -0.733629 -0.641046 -0.225494
vn -0.753024 -0.657993 0.000000
vn -0.753024 -0.657993 0.000000
vn 0.643291 0.688938 -0.333978
vn 0.643291 0.688938 -0.333978
vn 0.643291 0.688938 -0.333978
vn 0.643291 0.688938 -0.333978
vn -0.680946 -0.684900 -0.259278
vn -0.680946 -0.684900 -0.259277
vn -0.680946 -0.684900 -0.259278
vn -0.680946 -0.684900 -0.259277
vn -0.000000 0.000000 -1.000000
vn -0.000000 0.000000 -1.000000
vn -0.000000 0.000000 -1.000000
vn -0.000000 0.000000 -1.000000
vn -0.680196 -0.680195 -0.273256
vn -0.680196 -0.680195 -0.273256
vn -0.680196 -0.680195 -0.273256
vn -0.680196 -0.680195 -0.273256
s off
f 1/1/1 2/2/2 4/3/3 3/4/4
f 7/5/5 8/6/6 2/2/7 1/1/8
f 2/2/9 8/6/10 6/7/11 4/3/12
f 7/5/13 1/1/14 3/4/15 5/8/16
f 9/9/17 10/10/18 18/11/19 17/12/20
f 10/10/21 11/13/22 19/14/23 18/11/24
f 11/13/25 12/15/26 20/16/27 19/14/28
f 12/15/29 13/17/30 21/18/31 20/16/32
f 13/17/33 14/19/34 22/20/35 21/18/36
f 14/19/37 15/21/38 23/22/39 22/20/40
f 15/21/41 16/23/42 24/24/43 23/22/44
f 16/23/45 9/9/46 17/12/47 24/24/48
f 17/12/49 18/11/50 26/25/51 25/26/52
f 18/11/53 19/14/54 27/27/55 26/25/56
f 19/14/57 20/16/58 28/28/59 27/27/60
f 20/16/61 21/18/62 29/29/63 28/28/64
f 21/18/65 22/20/66 30/30/67 29/29/68
f 22/20/69 23/22/70 31/31/71 30/30/72
f 23/22/73 24/24/74 32/32/75 31/31/76
f 24/24/77 17/12/78 25/26/79 32/32/80
f 25/26/81 26/25/82 34/33/83 33/34/84
f 26/25/85 27/27/86 35/35/87 34/33/88
f 27/27/89 28/28/90 36/36/91 35/35/92
f 28/28/93 29/29/94 37/37/95 36/36/96
f 29/29/97 30/30/98 38/38/99 37/37/100
f 30/30/101 31/31/102 39/39/103 38/38/104
f 31/31/105 32/32/106 40/40/107 39/39/108
f 32/32/109 25/26/110 33/34/111 40/40/112
f 3/4/113 4/3/114 42/41/115 41/42/116
f 50/43/117 49/44/118 51/45/119 52/46/120
f 53/47/121 54/48/122 55/49/123 56/50/124
f 41/42/125 42/41/126 46/51/127 45/52/128
f 43/53/129 41/42/130 45/52/131 47/54/132
f 42/41/133 44/55/134 48/56/135 46/51/136
f 5/8/137 3/4/138 49/44/139 50/43/140
f 3/4/141 41/42/142 51/45/143 49/44/144
f 41/42/145 43/53/146 52/46/147 51/45/148
f 4/3/149 6/7/150 54/48/151 53/47/152
f 44/55/153 42/41/154 56/50/155 55/49/156
f 42/41/157 4/3/158 53/47/159 56/50/160
f 47/54/161 45/52/162 46/51/163 48/56/164
f 57/57/165 59/60/166 60/59/167 58/58/168
f 7/61/169 57/57/170 58/58/171 8/62/172
f 58/58/173 60/59/174 6/63/175 8/62/176
f 7/61/177 5/64/178 59/60/179 57/57/180
f 9/65/181 61/68/182 62/67/183 10/66/184
f 10/66/185 62/67/186 63/70/187 11/69/188
f 11/69/189 63/70/190 64/72/191 12/71/192
f 12/71/193 64/72/194 65/74/195 13/73/196
f 13/73/197 65/74/198 66/76/199 14/75/200
f 14/75/201 66/76/202 67/78/203 15/77/204
f 15/77/205 67/78/206 68/80/207 16/79/208
f 16/79/209 68/80/210 61/68/211 9/65/212
f 61/68/213 69/82/214 70/81/215 62/67/216
f 62/67/217 70/81/218 71/83/219 63/70/220
f 63/70/221 71/83/222 72/84/223 64/72/224
f 64/72/225 72/84/226 73/85/227 65/74/228
f 65/74/229 73/85/230 74/86/231 66/76/232
f 66/76/233 74/86/234 75/87/235 67/78/236
f 67/78/237 75/87/238 76/88/239 68/80/240
f 68/80/241 76/88/242 69/82/243 61/68/244
f 69/82/245 33/90/246 34/89/247 70/81/248
f 70/81/249 34/89/250 35/91/251 71/83/252
f 71/83/253 35/91/254 36/92/255 72/84/256
f 72/84/257 36/92/258 37/93/259 73/85/260
f 73/85/261 37/93/262 38/94/263 74/86/264
f 74/86/265 38/94/266 39/95/267 75/87/268
f 75/87/269 39/95/270 40/96/271 76/88/272
f 76/88/273 40/96/274 33/90/275 69/82/276
f 59/60/277 77/98/278 78/97/279 60/59/280
f 50/99/281 52/102/282 82/101/283 81/100/284
f 83/103/285 84/106/286 55/105/287 54/104/288
f 77/98/289 79/108/290 80/107/291 78/97/292
f 43/109/293 47/110/294 79/108/295 77/98/296
f 78/97/297 80/107/298 48/112/299 44/111/300
f 5/64/301 50/99/302 81/100/303 59/60/304
f 59/60/305 81/100/306 82/101/307 77/98/308
f 77/98/309 82/101/310 52/102/311 43/109/312
f 60/59/313 83/103/314 54/104/315 6/63/316
f 44/111/317 55/105/318 84/106/319 78/97/320
f 78/97/321 84/106/322 83/103/323 60/59/324
f 47/110/325 48/112/326 80/107/327 79/108/328
