# This file uses centimeters as units for non-parametric coordinates.

v 15.419846 8.902664 -3.999999
v 8.902664 15.419868 -3.999999
v 0.000000 17.805321 -3.999999
v -8.902664 15.419868 -3.999999
v -15.419846 8.902664 -3.999999
v -17.805313 0.000008 -3.999999
v -15.419846 -8.902649 -3.999999
v -8.902664 -15.419853 -3.999999
v 0.000000 -17.805305 -3.999999
v 8.902664 -15.419853 -3.999999
v 15.419846 -8.902649 -3.999999
v 17.805313 0.000008 -3.999999
v -16.984909 9.806252 0.000000
v -9.806229 16.984917 0.000000
v 0.000000 19.612480 0.000000
v 9.806229 16.984917 0.000000
v 16.984909 9.806252 0.000000
v 19.612473 0.000008 0.000000
v 16.984909 -9.806244 0.000000
v 9.806229 -16.984909 0.000000
v 0.000000 -19.612480 0.000000
v -9.806229 -16.984909 0.000000
v -16.984909 -9.806244 0.000000
v -19.612473 0.000008 0.000000
v 0.000000 0.000008 -4.000000
v 15.419846 8.902664 4.000000
v 8.902664 15.419868 4.000000
v 0.000000 17.805321 4.000000
v -8.902664 15.419868 4.000000
v -15.419846 8.902664 4.000000
v -17.805313 0.000008 4.000000
v -15.419846 -8.902649 4.000000
v -8.902664 -15.419853 4.000000
v 0.000000 -17.805305 4.000000
v 8.902664 -15.419853 4.000000
v 15.419846 -8.902649 4.000000
v 17.805313 0.000008 4.000000
v 0.000000 0.000008 4.000001
vt 0.221398 0.610181
vt 0.221398 0.610181
vt 0.200939 0.589722
vt 0.200939 0.589722
vt 0.249346 0.617669
vt 0.249346 0.617669
vt 0.277293 0.610181
vt 0.277293 0.610181
vt 0.297753 0.589722
vt 0.297753 0.589722
vt 0.305241 0.561774
vt 0.305241 0.561774
vt 0.297753 0.533826
vt 0.297753 0.533826
vt 0.277293 0.513367
vt 0.277293 0.513367
vt 0.249346 0.505878
vt 0.249346 0.505878
vt 0.221398 0.513367
vt 0.221398 0.513367
vt 0.200939 0.533826
vt 0.200939 0.533826
vt 0.193450 0.561774
vt 0.193450 0.561774
vt 0.249346 0.561774
vt 0.221398 0.610181
vt 0.200939 0.589722
vt 0.200939 0.589722
vt 0.221398 0.610181
vt 0.249346 0.617669
vt 0.249346 0.617669
vt 0.277293 0.610181
vt 0.277293 0.610181
vt 0.297753 0.589722
vt 0.297753 0.589722
vt 0.305241 0.561774
vt 0.305241 0.561774
vt 0.297753 0.533826
vt 0.297753 0.533826
vt 0.277293 0.513367
vt 0.277293 0.513367
vt 0.249346 0.505878
vt 0.249346 0.505878
vt 0.221398 0.513367
vt 0.221398 0.513367
vt 0.200939 0.533826
vt 0.200939 0.533826
vt 0.193450 0.561774
vt 0.193450 0.561774
vt 0.249346 0.561774
vn -0.648084 0.648083 -0.399970
vn -0.648084 0.648083 -0.399970
vn -0.648083 0.648083 -0.399970
vn -0.648083 0.648083 -0.399970
vn -0.237214 0.885299 -0.399969
vn -0.237214 0.885299 -0.399969
vn -0.237214 0.885299 -0.399969
vn -0.237214 0.885299 -0.399969
vn 0.237214 0.885299 -0.399969
vn 0.237214 0.885299 -0.399969
vn 0.237214 0.885299 -0.399969
vn 0.237214 0.885299 -0.399969
vn 0.648083 0.648083 -0.399970
vn 0.648083 0.648083 -0.399970
vn 0.648084 0.648083 -0.399970
vn 0.648084 0.648083 -0.399970
vn 0.885298 0.237215 -0.399971
vn 0.885298 0.237215 -0.399971
vn 0.885298 0.237215 -0.399971
vn 0.885298 0.237215 -0.399971
vn 0.885298 -0.237214 -0.399971
vn 0.885298 -0.237214 -0.399971
vn 0.885298 -0.237214 -0.399971
vn 0.885298 -0.237214 -0.399971
vn 0.648083 -0.648083 -0.399971
vn 0.648083 -0.648083 -0.399971
vn 0.648083 -0.648083 -0.399971
vn 0.648083 -0.648083 -0.399971
vn 0.237214 -0.885298 -0.399971
vn 0.237214 -0.885298 -0.399971
vn 0.237214 -0.885298 -0.399971
vn 0.237214 -0.885298 -0.399971
vn -0.237214 -0.885298 -0.399971
vn -0.237214 -0.885298 -0.399971
vn -0.237214 -0.885298 -0.399971
vn -0.237214 -0.885298 -0.399971
vn -0.648083 -0.648083 -0.399971
vn -0.648083 -0.648083 -0.399971
vn -0.648083 -0.648083 -0.399971
vn -0.648083 -0.648083 -0.399971
vn -0.885298 -0.237214 -0.399971
vn -0.885298 -0.237214 -0.399971
vn -0.885298 -0.237214 -0.399971
vn -0.885298 -0.237214 -0.399971
vn -0.885298 0.237215 -0.399971
vn -0.885298 0.237215 -0.399971
vn -0.885298 0.237215 -0.399971
vn -0.885298 0.237215 -0.399971
vn 0.000000 0.000000 -1.000000
vn 0.000000 0.000000 -1.000000
vn 0.000000 0.000000 -1.000000
vn 0.000000 0.000000 -1.000000
vn 0.000000 0.000000 -1.000000
vn 0.000000 0.000000 -1.000000
vn 0.000000 0.000000 -1.000000
vn 0.000000 0.000000 -1.000000
vn 0.000000 0.000000 -1.000000
vn -0.000000 0.000000 -1.000000
vn -0.000000 0.000000 -1.000000
vn -0.000000 0.000000 -1.000000
vn -0.000000 0.000000 -1.000000
vn -0.000000 0.000000 -1.000000
vn -0.000000 0.000000 -1.000000
vn -0.000000 -0.000000 -1.000000
vn -0.000000 -0.000000 -1.000000
vn -0.000000 -0.000000 -1.000000
vn -0.000000 -0.000000 -1.000000
vn -0.000000 -0.000000 -1.000000
vn -0.000000 -0.000000 -1.000000
vn 0.000000 -0.000000 -1.000000
vn 0.000000 -0.000000 -1.000000
vn 0.000000 -0.000000 -1.000000
vn 0.000000 -0.000000 -1.000000
vn 0.000000 -0.000000 -1.000000
vn 0.000000 -0.000000 -1.000000
vn 0.000000 -0.000000 -1.000000
vn 0.000000 -0.000000 -1.000000
vn 0.000000 -0.000000 -1.000000
vn 0.000000 -0.000000 -1.000000
vn 0.000000 -0.000000 -1.000000
vn 0.000000 -0.000000 -1.000000
vn 0.000000 0.000000 -1.000000
vn 0.000000 0.000000 -1.000000
vn 0.000000 0.000000 -1.000000
vn -0.648084 0.648083 0.399970
vn -0.648084 0.648083 0.399970
vn -0.648084 0.648083 0.399970
vn -0.648084 0.648083 0.399970
vn -0.237214 0.885299 0.399969
vn -0.237214 0.885299 0.399969
vn -0.237214 0.885299 0.399969
vn -0.237214 0.885299 0.399969
vn 0.237214 0.885299 0.399969
vn 0.237214 0.885299 0.399969
vn 0.237214 0.885299 0.399969
vn 0.237214 0.885299 0.399969
vn 0.648084 0.648083 0.399970
vn 0.648084 0.648083 0.399970
vn 0.648084 0.648083 0.399970
vn 0.648084 0.648083 0.399970
vn 0.885298 0.237215 0.399971
vn 0.885298 0.237215 0.399971
vn 0.885298 0.237215 0.399971
vn 0.885298 0.237215 0.399971
vn 0.885298 -0.237215 0.399971
vn 0.885298 -0.237215 0.399971
vn 0.885298 -0.237215 0.399971
vn 0.885298 -0.237215 0.399971
vn 0.648083 -0.648083 0.399971
vn 0.648083 -0.648083 0.399971
vn 0.648083 -0.648083 0.399971
vn 0.648083 -0.648083 0.399971
vn 0.237214 -0.885298 0.399971
vn 0.237214 -0.885298 0.399971
vn 0.237214 -0.885298 0.399971
vn 0.237214 -0.885298 0.399971
vn -0.237214 -0.885298 0.399971
vn -0.237214 -0.885298 0.399971
vn -0.237214 -0.885298 0.399971
vn -0.237214 -0.885298 0.399971
vn -0.648083 -0.648083 0.399971
vn -0.648083 -0.648083 0.399971
vn -0.648083 -0.648083 0.399971
vn -0.648083 -0.648083 0.399971
vn -0.885298 -0.237215 0.399971
vn -0.885298 -0.237215 0.399971
vn -0.885298 -0.237215 0.399971
vn -0.885298 -0.237215 0.399971
vn -0.885298 0.237215 0.399971
vn -0.885298 0.237215 0.399971
vn -0.885298 0.237215 0.399971
vn -0.885298 0.237215 0.399971
vn 0.000000 0.000000 1.000000
vn 0.000000 0.000000 1.000000
vn 0.000000 0.000000 1.000000
vn 0.000000 0.000000 1.000000
vn 0.000000 0.000000 1.000000
vn 0.000000 0.000000 1.000000
vn 0.000000 0.000000 1.000000
vn 0.000000 0.000000 1.000000
vn 0.000000 0.000000 1.000000
vn -0.000000 0.000000 1.000000
vn -0.000000 0.000000 1.000000
vn -0.000000 0.000000 1.000000
vn -0.000000 0.000000 1.000000
vn -0.000000 0.000000 1.000000
vn -0.000000 0.000000 1.000000
vn -0.000000 -0.000000 1.000000
vn -0.000000 -0.000000 1.000000
vn -0.000000 -0.000000 1.000000
vn -0.000000 -0.000000 1.000000
vn -0.000000 -0.000000 1.000000
vn -0.000000 -0.000000 1.000000
vn 0.000000 -0.000000 1.000000
vn 0.000000 -0.000000 1.000000
vn 0.000000 -0.000000 1.000000
vn 0.000000 -0.000000 1.000000
vn 0.000000 -0.000000 1.000000
vn 0.000000 -0.000000 1.000000
vn 0.000000 -0.000000 1.000000
vn 0.000000 -0.000000 1.000000
vn 0.000000 -0.000000 1.000000
vn 0.000000 -0.000000 1.000000
vn 0.000000 -0.000000 1.000000
vn 0.000000 -0.000000 1.000000
vn 0.000000 0.000000 1.000000
vn 0.000000 0.000000 1.000000
vn 0.000000 0.000000 1.000000
s off
f 14/1/1 4/2/2 5/3/3 13/4/4
f 15/5/5 3/6/6 4/2/7 14/1/8
f 16/7/9 2/8/10 3/6/11 15/5/12
f 17/9/13 1/10/14 2/8/15 16/7/16
f 18/11/17 12/12/18 1/10/19 17/9/20
f 19/13/21 11/14/22 12/12/23 18/11/24
f 20/15/25 10/16/26 11/14/27 19/13/28
f 21/17/29 9/18/30 10/16/31 20/15/32
f 22/19/33 8/20/34 9/18/35 21/17/36
f 23/21/37 7/22/38 8/20/39 22/19/40
f 24/23/41 6/24/42 7/22/43 23/21/44
f 13/4/45 5/3/46 6/24/47 24/23/48
f 1/10/49 25/25/50 2/8/51
f 2/8/52 25/25/53 3/6/54
f 3/6/55 25/25/56 4/2/57
f 4/2/58 25/25/59 5/3/60
f 5/3/61 25/25/62 6/24/63
f 6/24/64 25/25/65 7/22/66
f 7/22/67 25/25/68 8/20/69
f 8/20/70 25/25/71 9/18/72
f 9/18/73 25/25/74 10/16/75
f 10/16/76 25/25/77 11/14/78
f 11/14/79 25/25/80 12/12/81
f 12/12/82 25/25/83 1/10/84
f 14/26/85 13/27/86 30/28/87 29/29/88
f 15/30/89 14/26/90 29/29/91 28/31/92
f 16/32/93 15/30/94 28/31/95 27/33/96
f 17/34/97 16/32/98 27/33/99 26/35/100
f 18/36/101 17/34/102 26/35/103 37/37/104
f 19/38/105 18/36/106 37/37/107 36/39/108
f 20/40/109 19/38/110 36/39/111 35/41/112
f 21/42/113 20/40/114 35/41/115 34/43/116
f 22/44/117 21/42/118 34/43/119 33/45/120
f 23/46/121 22/44/122 33/45/123 32/47/124
f 24/48/125 23/46/126 32/47/127 31/49/128
f 13/27/129 24/48/130 31/49/131 30/28/132
f 26/35/133 27/33/134 38/50/135
f 27/33/136 28/31/137 38/50/138
f 28/31/139 29/29/140 38/50/141
f 29/29/142 30/28/143 38/50/144
f 30/28/145 31/49/146 38/50/147
f 31/49/148 32/47/149 38/50/150
f 32/47/151 33/45/152 38/50/153
f 33/45/154 34/43/155 38/50/156
f 34/43/157 35/41/158 38/50/159
f 35/41/160 36/39/161 38/50/162
f 36/39/163 37/37/164 38/50/165
f 37/37/166 26/35/167 38/50/168
