# This file uses centimeters as units for non-parametric coordinates.

v -18.995426 -19.409519 0.000000
v 19.054214 -0.055645 0.000000
v -18.995426 19.298229 0.000000
v 15.030111 -0.198815 -4.000000
v -16.373825 15.714649 -4.000000
v -16.373825 -15.807432 -4.000000
v 15.030111 -0.198815 4.000000
v -16.373825 15.714649 4.000000
v -16.373825 -15.807432 4.000000
v -2.134213 8.498944 -4.000000
v -2.103581 10.520363 0.000000
v -0.197031 6.754740 4.000000
v -6.907306 -10.487967 4.000000
v -5.828651 -12.712265 0.000000
vt 0.484789 0.983436
vt 0.484042 0.983700
vt 0.484039 0.983169
vt 0.484863 0.983444
vt 0.484097 0.983659
vt 0.484095 0.983224
vt 0.484863 0.983444
vt 0.484097 0.983659
vt 0.484095 0.983224
vt 0.484789 0.983436
vt 0.484042 0.983700
vt 0.484039 0.983169
vt 0.484444 0.983562
vt 0.484380 0.983581
vt 0.484380 0.983581
vt 0.484444 0.983562
vt 0.484366 0.983302
vt 0.484299 0.983261
vt 0.484299 0.983261
vn 0.000000 0.000000 -1.000000
vn 0.000000 0.000000 -1.000000
vn 0.000000 0.000000 -1.000000
vn 0.000000 0.000000 -1.000000
vn 0.406725 0.808694 -0.424957
vn 0.406725 0.808694 -0.424957
vn 0.406725 0.808694 -0.424957
vn 0.406725 0.808694 -0.424957
vn -0.836374 0.000000 -0.548160
vn -0.836374 0.000000 -0.548160
vn -0.836374 0.000000 -0.548160
vn -0.836374 0.000000 -0.548160
vn 0.407710 -0.809923 -0.421659
vn 0.407710 -0.809923 -0.421659
vn 0.407710 -0.809923 -0.421659
vn 0.407710 -0.809923 -0.421659
vn 0.407710 -0.809923 -0.421659
vn -0.000000 0.000000 1.000000
vn -0.000000 0.000000 1.000000
vn -0.000000 0.000000 1.000000
vn 0.379494 0.787690 0.485314
vn 0.379494 0.787690 0.485314
vn 0.379494 0.787690 0.485314
vn 0.379494 0.787690 0.485314
vn -0.836374 0.000000 0.548160
vn -0.836374 0.000000 0.548160
vn -0.836374 0.000000 0.548160
vn -0.836374 0.000000 0.548160
vn 0.391351 -0.798543 0.457355
vn 0.391351 -0.798543 0.457355
vn 0.391351 -0.798543 0.457355
vn 0.391351 -0.798543 0.457355
vn 0.412736 0.803390 -0.429202
vn 0.412736 0.803390 -0.429202
vn 0.412736 0.803390 -0.429202
vn 0.412736 0.803390 -0.429202
vn 0.415572 0.774753 0.476506
vn 0.415572 0.774753 0.476506
vn 0.415572 0.774753 0.476506
vn 0.415572 0.774753 0.476506
vn 0.000000 0.000000 1.000000
vn 0.000000 0.000000 1.000000
vn 0.000000 0.000000 1.000000
vn 0.000000 0.000000 1.000000
vn 0.410400 -0.772982 0.483808
vn 0.410400 -0.772982 0.483808
vn 0.410400 -0.772982 0.483808
vn 0.410400 -0.772982 0.483808
s off
f 4/4/1 6/6/2 5/5/3 10/13/4
f 2/1/5 4/4/6 10/13/7 11/14/8
f 3/2/9 5/5/10 6/6/11 1/3/12
f 1/3/13 6/6/14 4/4/15 2/1/16 14/19/17
f 7/7/18 12/16/19 13/17/20
f 2/10/21 11/15/22 12/16/23 7/7/24
f 3/11/25 1/12/26 9/9/27 8/8/28
f 13/17/29 14/18/30 2/10/31 7/7/32
f 11/14/33 10/13/34 5/5/35 3/2/36
f 12/16/37 11/15/38 3/11/39 8/8/40
f 13/17/41 12/16/42 8/8/43 9/9/44
f 1/12/45 14/18/46 13/17/47 9/9/48
