# This file uses centimeters as units for non-parametric coordinates.

v -4.011383 17.749527 4.000000
v -10.312378 18.008774 4.000000
v -10.312378 -18.008774 4.000000
v -3.977173 -17.986603 4.000000
v -3.358093 -5.586487 4.000000
v 0.534332 -3.972595 4.000000
v 3.334229 -8.756462 4.000000
v 3.801727 -14.296326 4.000000
v 3.821991 -17.982452 4.000000
v 10.261780 -18.053314 4.000000
v 9.552856 -13.475113 4.000000
v 8.667511 -7.246696 4.000000
v 6.402100 -1.573784 4.000000
v 8.630188 2.252060 4.000000
v 8.932129 7.568108 4.000000
v 6.658112 15.205276 4.000000
v -3.189392 12.602295 4.000000
v 1.865906 11.422470 4.000000
v 3.228394 6.278946 4.000000
v 1.829956 1.400909 4.000000
v -3.221252 0.488503 4.000000
v -11.314667 19.011063 0.000000
v -3.796936 19.011063 -0.000000
v -11.314667 -19.011063 0.000000
v -2.921722 -19.011063 0.000000
v -2.793427 -5.464882 0.000000
v 0.240448 -4.683594 -0.000000
v 2.220215 -9.037231 -0.000000
v 2.578186 -14.373535 -0.000000
v 2.852417 -19.011063 -0.000000
v 11.314667 -19.011063 0.000000
v 10.776703 -13.338120 0.000000
v 9.987579 -6.799576 -0.000000
v 7.322754 -1.651398 -0.000000
v 9.863861 1.796249 0.000000
v 10.377350 7.569977 0.000000
v 7.594391 16.203621 -0.000000
v 1.159515 10.793259 0.000000
v -2.840607 12.119202 0.000000
v 2.094849 6.285965 0.000000
v 1.159515 2.043671 0.000000
v -2.840607 0.983231 0.000000
v -4.011383 17.749527 -4.000000
v -10.312378 18.008774 -4.000000
v -10.312378 -18.008774 -4.000000
v -3.977173 -17.986603 -4.000000
v -3.358093 -5.586487 -4.000000
v 0.534332 -3.972595 -4.000000
v 3.334229 -8.756462 -4.000000
v 3.801727 -14.296326 -4.000000
v 3.821991 -17.982452 -4.000000
v 10.261780 -18.053314 -4.000000
v 9.552856 -13.475113 -4.000000
v 8.667511 -7.246696 -4.000000
v 6.402100 -1.573784 -4.000000
v 8.630188 2.252060 -4.000000
v 8.932129 7.568108 -4.000000
v 6.658112 15.205276 -4.000000
v -3.189392 12.602295 -4.000000
v 1.865906 11.422470 -4.000000
v 3.228394 6.278946 -4.000000
v 1.829956 1.400909 -4.000000
v -3.221252 0.488503 -4.000000
vt 0.013658 0.951620
vt 0.013606 0.951585
vt 0.013692 0.952269
vt 0.013640 0.952231
vt 0.013626 0.952012
vt 0.013608 0.951976
vt 0.013600 0.952041
vt 0.013602 0.952129
vt 0.013605 0.952206
vt 0.013554 0.952169
vt 0.013552 0.952076
vt 0.013552 0.951971
vt 0.013562 0.951894
vt 0.013544 0.951825
vt 0.013537 0.951723
vt 0.013545 0.951590
vt 0.013589 0.951709
vt 0.013612 0.951703
vt 0.013587 0.951782
vt 0.013597 0.951858
vt 0.013622 0.951893
vt 0.013705 0.951614
vt 0.013655 0.951581
vt 0.013738 0.952263
vt 0.013686 0.952225
vt 0.013674 0.951996
vt 0.013655 0.951969
vt 0.013646 0.952035
vt 0.013649 0.952123
vt 0.013651 0.952200
vt 0.013600 0.952163
vt 0.013598 0.952070
vt 0.013597 0.951963
vt 0.013609 0.951888
vt 0.013590 0.951819
vt 0.013582 0.951719
vt 0.013591 0.951584
vt 0.013635 0.951703
vt 0.013659 0.951697
vt 0.013634 0.951776
vt 0.013643 0.951851
vt 0.013669 0.951887
vt 0.013605 0.952206
vt 0.013554 0.952169
vt 0.013552 0.952076
vt 0.013602 0.952129
vt 0.013600 0.952041
vt 0.013552 0.951971
vt 0.013562 0.951894
vt 0.013608 0.951976
vt 0.013606 0.951585
vt 0.013658 0.951620
vt 0.013692 0.952269
vt 0.013612 0.951703
vt 0.013622 0.951893
vt 0.013626 0.952012
vt 0.013640 0.952231
vt 0.013597 0.951858
vt 0.013545 0.951590
vt 0.013589 0.951709
vt 0.013537 0.951723
vt 0.013587 0.951782
vt 0.013544 0.951825
vt 0.013655 0.951581
vt 0.013705 0.951614
vt 0.013738 0.952263
vt 0.013686 0.952225
vt 0.013674 0.951996
vt 0.013655 0.951969
vt 0.013646 0.952035
vt 0.013649 0.952123
vt 0.013651 0.952200
vt 0.013600 0.952163
vt 0.013598 0.952070
vt 0.013597 0.951963
vt 0.013609 0.951888
vt 0.013590 0.951819
vt 0.013582 0.951719
vt 0.013591 0.951584
vt 0.013659 0.951697
vt 0.013635 0.951703
vt 0.013634 0.951776
vt 0.013643 0.951851
vt 0.013669 0.951887
vn 0.000000 0.000000 1.000000
vn 0.000000 0.000000 1.000000
vn 0.000000 0.000000 1.000000
vn 0.000000 0.000000 1.000000
vn 0.000000 0.000000 1.000000
vn 0.000000 0.000000 1.000000
vn 0.000000 0.000000 1.000000
vn 0.000000 0.000000 1.000000
vn 0.000000 0.000000 1.000000
vn 0.000000 0.000000 1.000000
vn 0.000000 0.000000 1.000000
vn 0.000000 0.000000 1.000000
vn 0.000000 0.000000 1.000000
vn 0.000000 0.000000 1.000000
vn 0.000000 0.000000 1.000000
vn 0.000000 0.000000 1.000000
vn 0.000000 0.000000 1.000000
vn 0.000000 0.000000 1.000000
vn 0.000000 0.000000 1.000000
vn 0.000000 0.000000 1.000000
vn 0.000000 0.000000 1.000000
vn 0.000000 0.000000 1.000000
vn 0.000000 0.000000 1.000000
vn 0.000000 0.000000 1.000000
vn 0.000000 0.000000 1.000000
vn 0.000000 0.000000 1.000000
vn 0.000000 0.000000 1.000000
vn 0.000000 0.000000 1.000000
vn 0.000000 0.000000 1.000000
vn 0.000000 0.000000 1.000000
vn 0.000000 0.000000 1.000000
vn 0.000000 0.000000 1.000000
vn 0.000000 0.000000 1.000000
vn 0.000000 0.000000 1.000000
vn 0.000000 0.000000 1.000000
vn 0.000000 0.000000 1.000000
vn 0.000000 0.000000 1.000000
vn 0.000000 0.000000 1.000000
vn 0.000000 0.000000 1.000000
vn 0.000000 0.000000 1.000000
vn 0.000000 0.000000 1.000000
vn 0.000000 0.000000 1.000000
vn 0.000000 0.000000 1.000000
vn 0.000000 0.000000 1.000000
vn 0.000000 0.000000 1.000000
vn 0.018057 0.962524 0.270595
vn 0.018057 0.962524 0.270595
vn 0.018057 0.962524 0.270595
vn 0.018057 0.962524 0.270595
vn -0.970012 0.000000 0.243058
vn -0.970012 0.000000 0.243058
vn -0.970012 0.000000 0.243058
vn -0.970012 0.000000 0.243058
vn 0.001459 -0.969372 0.245594
vn 0.001459 -0.969372 0.245594
vn 0.001459 -0.969372 0.245594
vn 0.001459 -0.969372 0.245594
vn 0.979090 -0.028202 0.201463
vn 0.979090 -0.028202 0.201463
vn 0.979090 -0.028202 0.201463
vn 0.979090 -0.028202 0.201463
vn 0.325761 -0.942025 0.080429
vn 0.325761 -0.942025 0.080429
vn 0.325761 -0.942025 0.080429
vn 0.325761 -0.942025 0.080429
vn -0.866584 -0.453294 0.208703
vn -0.866584 -0.453294 0.208703
vn -0.866584 -0.453294 0.208703
vn -0.866584 -0.453294 0.208703
vn -0.956452 -0.072592 0.282718
vn -0.956452 -0.072592 0.282718
vn -0.956452 -0.072592 0.282718
vn -0.956452 -0.072592 0.282718
vn -0.962647 -0.034059 0.268607
vn -0.962647 -0.034059 0.268607
vn -0.962647 -0.034059 0.268607
vn -0.962647 -0.034059 0.268607
vn -0.004615 -0.970532 0.240930
vn -0.004615 -0.970532 0.240930
vn -0.004615 -0.970532 0.240930
vn -0.004615 -0.970532 0.240930
vn 0.958336 0.116566 0.260776
vn 0.958336 0.116566 0.260776
vn 0.958336 0.116566 0.260776
vn 0.958336 0.116566 0.260776
vn 0.943018 0.123683 0.308900
vn 0.943018 0.123683 0.308900
vn 0.943018 0.123683 0.308900
vn 0.943018 0.123683 0.308900
vn 0.877644 0.399866 0.264289
vn 0.877644 0.399866 0.264289
vn 0.877644 0.399866 0.264289
vn 0.877644 0.399866 0.264289
vn 0.809004 -0.530460 0.253228
vn 0.809004 -0.530460 0.253228
vn 0.809004 -0.530460 0.253228
vn 0.809004 -0.530460 0.253228
vn 0.944763 -0.069468 0.320307
vn 0.944763 -0.069468 0.320307
vn 0.944763 -0.069468 0.320307
vn 0.944763 -0.069468 0.320307
vn 0.909144 0.282562 0.305969
vn 0.909144 0.282562 0.305969
vn 0.909144 0.282562 0.305969
vn 0.909144 0.282562 0.305969
vn 0.225278 0.928645 0.294733
vn 0.225278 0.928645 0.294733
vn 0.225278 0.928645 0.294733
vn 0.225278 0.928645 0.294733
vn -0.263898 -0.953681 0.144394
vn -0.263898 -0.953681 0.144394
vn -0.263898 -0.953681 0.144394
vn -0.263898 -0.953681 0.144394
vn -0.945567 -0.225136 0.234982
vn -0.945567 -0.225136 0.234982
vn -0.945567 -0.225136 0.234982
vn -0.945567 -0.225136 0.234982
vn -0.942335 0.241131 0.232080
vn -0.942335 0.241131 0.232080
vn -0.942335 0.241131 0.232080
vn -0.942335 0.241131 0.232080
vn -0.210709 0.966722 0.145087
vn -0.210709 0.966722 0.145087
vn -0.210709 0.966722 0.145087
vn -0.210709 0.966722 0.145087
vn 0.995868 -0.001365 0.090800
vn 0.995868 -0.001365 0.090800
vn 0.995868 -0.001365 0.090800
vn 0.995868 -0.001365 0.090800
vn 0.000000 0.000000 -1.000000
vn 0.000000 0.000000 -1.000000
vn 0.000000 0.000000 -1.000000
vn 0.000000 0.000000 -1.000000
vn 0.000000 0.000000 -1.000000
vn 0.000000 0.000000 -1.000000
vn 0.000000 0.000000 -1.000000
vn 0.000000 0.000000 -1.000000
vn 0.000000 0.000000 -1.000000
vn 0.000000 0.000000 -1.000000
vn 0.000000 0.000000 -1.000000
vn 0.000000 0.000000 -1.000000
vn 0.000000 0.000000 -1.000000
vn 0.000000 0.000000 -1.000000
vn 0.000000 0.000000 -1.000000
vn 0.000000 0.000000 -1.000000
vn 0.000000 0.000000 -1.000000
vn 0.000000 0.000000 -1.000000
vn 0.000000 0.000000 -1.000000
vn 0.000000 0.000000 -1.000000
vn 0.000000 0.000000 -1.000000
vn 0.000000 0.000000 -1.000000
vn 0.000000 0.000000 -1.000000
vn 0.000000 0.000000 -1.000000
vn 0.000000 0.000000 -1.000000
vn 0.000000 0.000000 -1.000000
vn 0.000000 0.000000 -1.000000
vn 0.000000 0.000000 -1.000000
vn 0.000000 0.000000 -1.000000
vn 0.000000 0.000000 -1.000000
vn 0.000000 0.000000 -1.000000
vn 0.000000 0.000000 -1.000000
vn 0.000000 0.000000 -1.000000
vn 0.000000 0.000000 -1.000000
vn 0.000000 0.000000 -1.000000
vn 0.000000 0.000000 -1.000000
vn 0.000000 0.000000 -1.000000
vn 0.000000 0.000000 -1.000000
vn 0.000000 0.000000 -1.000000
vn 0.000000 0.000000 -1.000000
vn 0.000000 0.000000 -1.000000
vn 0.000000 0.000000 -1.000000
vn 0.000000 0.000000 -1.000000
vn 0.000000 0.000000 -1.000000
vn 0.000000 0.000000 -1.000000
vn 0.018057 0.962524 -0.270595
vn 0.018057 0.962524 -0.270595
vn 0.018057 0.962524 -0.270595
vn 0.018057 0.962524 -0.270595
vn -0.970012 0.000000 -0.243058
vn -0.970012 0.000000 -0.243058
vn -0.970012 0.000000 -0.243058
vn -0.970012 0.000000 -0.243058
vn 0.001459 -0.969372 -0.245594
vn 0.001459 -0.969372 -0.245594
vn 0.001459 -0.969372 -0.245594
vn 0.001459 -0.969372 -0.245594
vn 0.979090 -0.028202 -0.201463
vn 0.979090 -0.028202 -0.201463
vn 0.979090 -0.028202 -0.201463
vn 0.979090 -0.028202 -0.201463
vn 0.325761 -0.942025 -0.080429
vn 0.325761 -0.942025 -0.080429
vn 0.325761 -0.942025 -0.080429
vn 0.325761 -0.942025 -0.080429
vn -0.866584 -0.453294 -0.208703
vn -0.866584 -0.453294 -0.208703
vn -0.866584 -0.453294 -0.208703
vn -0.866584 -0.453294 -0.208703
vn -0.956452 -0.072592 -0.282718
vn -0.956452 -0.072592 -0.282718
vn -0.956452 -0.072592 -0.282718
vn -0.956452 -0.072592 -0.282718
vn -0.962647 -0.034059 -0.268607
vn -0.962647 -0.034059 -0.268607
vn -0.962647 -0.034059 -0.268607
vn -0.962647 -0.034059 -0.268607
vn -0.004615 -0.970532 -0.240930
vn -0.004615 -0.970532 -0.240930
vn -0.004615 -0.970532 -0.240930
vn -0.004615 -0.970532 -0.240930
vn 0.958336 0.116566 -0.260776
vn 0.958336 0.116566 -0.260776
vn 0.958336 0.116566 -0.260776
vn 0.958336 0.116566 -0.260776
vn 0.943018 0.123683 -0.308900
vn 0.943018 0.123683 -0.308900
vn 0.943018 0.123683 -0.308900
vn 0.943018 0.123683 -0.308900
vn 0.877644 0.399866 -0.264289
vn 0.877644 0.399866 -0.264289
vn 0.877644 0.399866 -0.264289
vn 0.877644 0.399866 -0.264289
vn 0.809004 -0.530460 -0.253228
vn 0.809004 -0.530460 -0.253228
vn 0.809004 -0.530460 -0.253228
vn 0.809004 -0.530460 -0.253228
vn 0.944763 -0.069468 -0.320307
vn 0.944763 -0.069468 -0.320307
vn 0.944763 -0.069468 -0.320307
vn 0.944763 -0.069468 -0.320307
vn 0.909144 0.282562 -0.305969
vn 0.909144 0.282562 -0.305969
vn 0.909144 0.282562 -0.305969
vn 0.909144 0.282562 -0.305969
vn 0.225278 0.928645 -0.294733
vn 0.225278 0.928645 -0.294733
vn 0.225278 0.928645 -0.294733
vn 0.225278 0.928645 -0.294733
vn -0.263898 -0.953681 -0.144394
vn -0.263898 -0.953681 -0.144394
vn -0.263898 -0.953681 -0.144394
vn -0.263898 -0.953681 -0.144394
vn -0.945567 -0.225136 -0.234982
vn -0.945567 -0.225136 -0.234982
vn -0.945567 -0.225136 -0.234982
vn -0.945567 -0.225136 -0.234982
vn -0.942335 0.241131 -0.232080
vn -0.942335 0.241131 -0.232080
vn -0.942335 0.241131 -0.232080
vn -0.942335 0.241131 -0.232080
vn -0.210709 0.966722 -0.145087
vn -0.210709 0.966722 -0.145087
vn -0.210709 0.966722 -0.145087
vn -0.210709 0.966722 -0.145087
vn 0.995868 -0.001365 -0.090800
vn 0.995868 -0.001365 -0.090800
vn 0.995868 -0.001365 -0.090800
vn 0.995868 -0.001365 -0.090800
s off
f 9/9/1 10/10/2 11/11/3 8/8/4
f 7/7/5 8/8/6 11/11/7 12/12/8
f 7/7/9 12/12/10 13/13/11 6/6/12
f 1/2/13 2/1/14 3/3/15 17/18/16
f 17/18/17 3/3/18 21/21/19
f 5/5/20 21/21/21 3/3/22 4/4/23
f 21/21/24 5/5/25 6/6/26 20/20/27
f 16/16/28 1/2/29 17/18/30 18/17/31
f 15/15/32 16/16/33 18/17/34 19/19/35
f 6/6/36 13/13/37 20/20/38
f 15/15/39 19/19/40 14/14/41
f 14/14/42 19/19/43 20/20/44 13/13/45
f 23/23/46 22/22/47 2/1/48 1/2/49
f 22/22/50 24/24/51 3/3/52 2/1/53
f 24/24/54 25/25/55 4/4/56 3/3/57
f 25/25/58 26/26/59 5/5/60 4/4/61
f 26/26/62 27/27/63 6/6/64 5/5/65
f 27/27/66 28/28/67 7/7/68 6/6/69
f 28/28/70 29/29/71 8/8/72 7/7/73
f 29/29/74 30/30/75 9/9/76 8/8/77
f 30/30/78 31/31/79 10/10/80 9/9/81
f 31/31/82 32/32/83 11/11/84 10/10/85
f 32/32/86 33/33/87 12/12/88 11/11/89
f 33/33/90 34/34/91 13/13/92 12/12/93
f 34/34/94 35/35/95 14/14/96 13/13/97
f 35/35/98 36/36/99 15/15/100 14/14/101
f 36/36/102 37/37/103 16/16/104 15/15/105
f 37/37/106 23/23/107 1/2/108 16/16/109
f 39/39/110 38/38/111 18/17/112 17/18/113
f 38/38/114 40/40/115 19/19/116 18/17/117
f 40/40/118 41/41/119 20/20/120 19/19/121
f 41/41/122 42/42/123 21/21/124 20/20/125
f 42/42/126 39/39/127 17/18/128 21/21/129
f 51/43/130 50/46/131 53/45/132 52/44/133
f 49/47/134 54/48/135 53/45/136 50/46/137
f 49/47/138 48/50/139 55/49/140 54/48/141
f 43/51/142 59/54/143 45/53/144 44/52/145
f 59/54/146 63/55/147 45/53/148
f 47/56/149 46/57/150 45/53/151 63/55/152
f 63/55/153 62/58/154 48/50/155 47/56/156
f 58/59/157 60/60/158 59/54/159 43/51/160
f 57/61/161 61/62/162 60/60/163 58/59/164
f 48/50/165 62/58/166 55/49/167
f 57/61/168 56/63/169 61/62/170
f 56/63/171 55/49/172 62/58/173 61/62/174
f 23/64/175 43/51/176 44/52/177 22/65/178
f 22/65/179 44/52/180 45/53/181 24/66/182
f 24/66/183 45/53/184 46/57/185 25/67/186
f 25/67/187 46/57/188 47/56/189 26/68/190
f 26/68/191 47/56/192 48/50/193 27/69/194
f 27/69/195 48/50/196 49/47/197 28/70/198
f 28/70/199 49/47/200 50/46/201 29/71/202
f 29/71/203 50/46/204 51/43/205 30/72/206
f 30/72/207 51/43/208 52/44/209 31/73/210
f 31/73/211 52/44/212 53/45/213 32/74/214
f 32/74/215 53/45/216 54/48/217 33/75/218
f 33/75/219 54/48/220 55/49/221 34/76/222
f 34/76/223 55/49/224 56/63/225 35/77/226
f 35/77/227 56/63/228 57/61/229 36/78/230
f 36/78/231 57/61/232 58/59/233 37/79/234
f 37/79/235 58/59/236 43/51/237 23/64/238
f 39/80/239 59/54/240 60/60/241 38/81/242
f 38/81/243 60/60/244 61/62/245 40/82/246
f 40/82/247 61/62/248 62/58/249 41/83/250
f 41/83/251 62/58/252 63/55/253 42/84/254
f 42/84/255 63/55/256 59/54/257 39/80/258
