# This file uses centimeters as units for non-parametric coordinates.

v 15.241908 -6.976785 0.000000
v 0.000000 0.000000 0.000000
v 0.204698 -16.761547 0.000000
v 5.091791 -13.581499 0.000000
v 10.354815 -10.156833 0.000000
v 0.983244 -1.511049 2.000000
v 9.452111 -9.665213 2.000000
v 13.228176 -7.172473 2.000000
v 1.035519 -15.141914 2.000000
v 4.879546 -12.359667 2.000000
v 0.983244 -1.511049 -2.000000
v 9.452111 -9.665213 -2.000000
v 13.228176 -7.172473 -2.000000
v 1.035519 -15.141914 -2.000000
v 4.879546 -12.359667 -2.000000
v 14.513878 -16.548475 0.000000
v 9.250854 -19.973141 0.000000
v 8.913481 -18.550495 2.000000
v 13.542730 -15.960191 2.000000
v 8.913481 -18.550495 -2.000000
v 13.542730 -15.960191 -2.000000
v 1.504706 -5.612836 2.000000
v 0.106890 -8.752595 0.000000
v 1.504915 -5.667019 -2.000000
vt 0.987247 0.982892
vt 0.988234 0.983394
vt 0.988238 0.982394
vt 0.988234 0.983394
vt 0.988238 0.982394
vt 0.988235 0.983144
vt 0.988234 0.983394
vt 0.988234 0.983394
vt 0.987247 0.982892
vt 0.988238 0.982394
vt 0.988238 0.982394
vt 0.988237 0.982644
vt 0.987328 0.982892
vt 0.988235 0.983144
vt 0.987328 0.982892
vt 0.987982 0.982772
vt 0.987988 0.983018
vt 0.987988 0.983018
vt 0.987982 0.982772
vt 0.987947 0.982997
vt 0.988237 0.982644
vt 0.988235 0.983144
vt 0.988237 0.982644
vt 0.987948 0.982789
vt 0.987809 0.982628
vt 0.987765 0.982632
vt 0.987765 0.982632
vt 0.987813 0.982626
vn 0.000000 0.000000 1.000000
vn 0.000000 0.000000 1.000000
vn 0.000000 0.000000 1.000000
vn 0.497439 -0.759661 0.418890
vn 0.497439 -0.759661 0.418890
vn 0.497439 -0.759661 0.418890
vn 0.497439 -0.759661 0.418890
vn 0.374349 0.814171 0.443835
vn 0.374349 0.814171 0.443835
vn 0.374349 0.814171 0.443835
vn 0.374349 0.814171 0.443835
vn 0.504514 -0.738805 0.446802
vn 0.504514 -0.738805 0.446802
vn 0.504514 -0.738805 0.446802
vn 0.504514 -0.738805 0.446802
vn -0.882700 0.018692 0.469565
vn -0.882700 0.018692 0.469565
vn -0.882700 0.018692 0.469565
vn -0.882700 0.018692 0.469565
vn 0.497439 -0.759661 -0.418890
vn 0.497439 -0.759661 -0.418890
vn 0.497439 -0.759661 -0.418890
vn 0.497439 -0.759661 -0.418890
vn 0.504514 -0.738805 -0.446802
vn 0.504514 -0.738805 -0.446802
vn 0.504514 -0.738805 -0.446802
vn 0.504514 -0.738805 -0.446802
vn -0.882608 0.018758 -0.469734
vn -0.882608 0.018758 -0.469734
vn -0.882608 0.018758 -0.469734
vn -0.882608 0.018758 -0.469734
vn 0.000000 0.000000 -1.000000
vn 0.000000 0.000000 -1.000000
vn 0.000000 0.000000 -1.000000
vn 0.374349 0.814171 -0.443835
vn 0.374349 0.814171 -0.443835
vn 0.374349 0.814171 -0.443835
vn 0.374349 0.814171 -0.443835
vn 0.000000 0.000000 1.000000
vn 0.000000 0.000000 1.000000
vn 0.000000 0.000000 1.000000
vn 0.000000 0.000000 1.000000
vn 0.000000 0.000000 1.000000
vn 0.000000 0.000000 1.000000
vn 0.000000 0.000000 -1.000000
vn 0.000000 0.000000 -1.000000
vn 0.000000 0.000000 -1.000000
vn 0.000000 -0.000000 -1.000000
vn 0.000000 -0.000000 -1.000000
vn 0.000000 -0.000000 -1.000000
vn 0.000000 0.000000 1.000000
vn 0.000000 0.000000 1.000000
vn 0.000000 0.000000 1.000000
vn 0.000000 0.000000 -1.000000
vn 0.000000 0.000000 -1.000000
vn 0.000000 0.000000 -1.000000
vn 0.445599 -0.732837 -0.514190
vn 0.445599 -0.732837 -0.514190
vn 0.445599 -0.732837 -0.514190
vn 0.445599 -0.732837 -0.514190
vn 0.445599 -0.732837 0.514190
vn 0.445599 -0.732837 0.514190
vn 0.445599 -0.732837 0.514190
vn 0.445599 -0.732837 0.514190
vn 0.814194 0.529341 0.238510
vn 0.814194 0.529341 0.238510
vn 0.814194 0.529341 0.238510
vn 0.814194 0.529341 0.238510
vn -0.813762 -0.529980 0.238566
vn -0.813762 -0.529980 0.238566
vn -0.813762 -0.529980 0.238566
vn -0.813762 -0.529980 0.238566
vn 0.814194 0.529341 -0.238510
vn 0.814194 0.529341 -0.238510
vn 0.814194 0.529341 -0.238510
vn 0.814194 0.529341 -0.238510
vn -0.813762 -0.529980 -0.238566
vn -0.813762 -0.529980 -0.238566
vn -0.813762 -0.529980 -0.238566
vn -0.813762 -0.529980 -0.238566
vn 0.000000 0.000000 1.000000
vn 0.000000 0.000000 1.000000
vn 0.000000 0.000000 1.000000
vn 0.000000 0.000000 -1.000000
vn 0.000000 0.000000 -1.000000
vn 0.000000 0.000000 -1.000000
vn 0.000000 -0.000000 1.000000
vn 0.000000 -0.000000 1.000000
vn 0.000000 -0.000000 1.000000
vn -0.851003 -0.041599 0.523511
vn -0.851003 -0.041599 0.523511
vn -0.851003 -0.041599 0.523511
vn -0.851003 -0.041599 0.523511
vn -0.851268 -0.041451 -0.523091
vn -0.851268 -0.041451 -0.523091
vn -0.851268 -0.041451 -0.523091
vn -0.851268 -0.041451 -0.523091
vn 0.000000 0.000000 -1.000000
vn 0.000000 0.000000 -1.000000
vn 0.000000 0.000000 -1.000000
s off
f 6/13/1 19/18/2 7/14/3
f 5/22/4 1/2/5 8/4/6 7/14/7
f 2/1/8 6/13/9 8/4/10 1/2/11
f 3/3/12 4/21/13 10/12/14 9/5/15
f 3/3/16 9/5/17 22/25/18 23/27/19
f 5/22/20 12/6/21 13/8/22 1/7/23
f 3/10/24 14/11/25 15/23/26 4/21/27
f 3/10/28 23/26/29 24/28/30 14/11/31
f 11/15/32 12/6/33 21/17/34
f 2/9/35 1/7/36 13/8/37 11/15/38
f 6/13/39 7/14/40 8/4/41
f 10/12/42 6/13/43 22/25/44
f 24/28/45 15/23/46 14/11/47
f 11/15/48 13/8/49 12/6/50
f 18/19/51 6/13/52 10/12/53
f 11/15/54 20/16/55 15/23/56
f 16/20/57 17/24/58 20/16/59 21/17/60
f 17/24/61 16/20/62 19/18/63 18/19/64
f 16/20/65 5/22/66 7/14/67 19/18/68
f 4/21/69 17/24/70 18/19/71 10/12/72
f 16/20/73 21/17/74 12/6/75 5/22/76
f 4/21/77 15/23/78 20/16/79 17/24/80
f 18/19/81 19/18/82 6/13/83
f 20/16/84 11/15/85 21/17/86
f 10/12/87 22/25/88 9/5/89
f 23/27/90 22/25/91 6/13/92 2/1/93
f 24/28/94 23/26/95 2/9/96 11/15/97
f 11/15/98 15/23/99 24/28/100
