# This file uses centimeters as units for non-parametric coordinates.

v -18.995426 -19.409519 0.000000
v 19.054214 -19.409519 0.000000
v -18.995426 19.298229 0.000000
v 19.054214 19.298229 0.000000
v 16.523022 -16.932177 -4.000000
v 16.201668 16.512793 -4.000000
v -16.499870 16.839394 -4.000000
v -16.499870 -16.932177 -4.000000
v 15.431942 -16.016472 4.000000
v 16.201668 16.512793 4.000000
v -16.499870 16.839394 4.000000
v -16.499870 -16.932177 4.000000
v -18.995426 4.244438 0.000000
v -15.894668 3.083972 4.000000
v 15.686830 -5.810260 4.000000
v 19.054214 -0.877681 0.000000
v 16.326645 -1.616375 -4.000000
v -16.499870 3.705327 -4.000000
vt 0.484787 0.983704
vt 0.484042 0.983700
vt 0.484039 0.983169
vt 0.484791 0.983169
vt 0.484865 0.983225
vt 0.484862 0.983663
vt 0.484097 0.983659
vt 0.484095 0.983224
vt 0.484865 0.983225
vt 0.484862 0.983663
vt 0.484097 0.983659
vt 0.484095 0.983224
vt 0.484787 0.983704
vt 0.484042 0.983700
vt 0.484039 0.983169
vt 0.484791 0.983169
vt 0.484041 0.983494
vt 0.484041 0.983494
vt 0.484096 0.983490
vt 0.484863 0.983493
vt 0.484788 0.983496
vt 0.484788 0.983496
vt 0.484863 0.983493
vt 0.484096 0.983490
vn 0.000000 0.000000 -1.000000
vn 0.000000 0.000000 -1.000000
vn 0.000000 0.000000 -1.000000
vn 0.000000 0.000000 -1.000000
vn 0.003860 0.836237 -0.548354
vn 0.003860 0.836237 -0.548354
vn 0.003860 0.836237 -0.548354
vn 0.003860 0.836237 -0.548354
vn -0.848422 0.000000 -0.529321
vn -0.848422 0.000000 -0.529321
vn -0.848422 0.000000 -0.529321
vn -0.848422 0.000000 -0.529321
vn 0.000000 -0.850156 -0.526532
vn 0.000000 -0.850155 -0.526532
vn 0.000000 -0.850155 -0.526532
vn 0.000000 -0.850155 -0.526532
vn 0.819632 0.002674 -0.572884
vn 0.819632 0.002674 -0.572883
vn 0.819632 0.002674 -0.572884
vn 0.819632 0.002674 -0.572884
vn 0.000000 0.000000 1.000000
vn 0.000000 0.000000 1.000000
vn 0.000000 0.000000 1.000000
vn 0.000000 0.000000 1.000000
vn 0.003860 0.836237 0.548354
vn 0.003860 0.836237 0.548354
vn 0.003860 0.836237 0.548354
vn 0.003860 0.836237 0.548354
vn -0.822943 -0.017288 0.567860
vn -0.822944 -0.017288 0.567860
vn -0.822943 -0.017288 0.567860
vn -0.822943 -0.017288 0.567860
vn 0.010540 -0.805473 0.592539
vn 0.010540 -0.805473 0.592539
vn 0.010540 -0.805473 0.592539
vn 0.010540 -0.805473 0.592539
vn 0.793900 -0.009617 0.607972
vn 0.793900 -0.009617 0.607972
vn 0.793900 -0.009617 0.607972
vn 0.793900 -0.009617 0.607972
vn -0.820234 0.011367 0.571915
vn -0.820234 0.011367 0.571915
vn -0.820234 0.011367 0.571915
vn -0.820234 0.011367 0.571915
vn -0.000000 0.000000 1.000000
vn -0.000000 0.000000 1.000000
vn -0.000000 0.000000 1.000000
vn -0.000000 0.000000 1.000000
vn 0.753679 -0.006685 0.657208
vn 0.753679 -0.006685 0.657208
vn 0.753679 -0.006685 0.657208
vn 0.753679 -0.006685 0.657208
vn 0.836102 0.004851 -0.548553
vn 0.836102 0.004851 -0.548553
vn 0.836102 0.004851 -0.548553
vn 0.836102 0.004851 -0.548553
vn 0.000000 0.000000 -1.000000
vn 0.000000 0.000000 -1.000000
vn 0.000000 0.000000 -1.000000
vn 0.000000 0.000000 -1.000000
vn -0.848422 0.000000 -0.529321
vn -0.848422 0.000000 -0.529321
vn -0.848422 0.000000 -0.529321
vn -0.848422 0.000000 -0.529321
s off
f 17/23/1 18/24/2 7/7/3 6/6/4
f 4/1/5 6/6/6 7/7/7 3/2/8
f 3/2/9 7/7/10 18/24/11 13/17/12
f 1/3/13 8/8/14 5/5/15 2/4/16
f 16/22/17 17/23/18 6/6/19 4/1/20
f 14/19/21 15/20/22 10/10/23 11/11/24
f 4/13/25 3/14/26 11/11/27 10/10/28
f 3/14/29 13/18/30 14/19/31 11/11/32
f 1/15/33 2/16/34 9/9/35 12/12/36
f 15/20/37 16/21/38 4/13/39 10/10/40
f 14/19/41 13/18/42 1/15/43 12/12/44
f 9/9/45 15/20/46 14/19/47 12/12/48
f 9/9/49 2/16/50 16/21/51 15/20/52
f 5/5/53 17/23/54 16/22/55 2/4/56
f 5/5/57 8/8/58 18/24/59 17/23/60
f 13/17/61 18/24/62 8/8/63 1/3/64
