# This file uses centimeters as units for non-parametric coordinates.

v -0.285095 -19.174414 0.000000
v 3.825806 -19.054976 -0.000000
v 13.233215 -10.625330 -0.000000
v 0.722046 -17.646248 2.008180
v 3.877258 -17.541924 2.000000
v 12.152100 -10.086473 2.000000
v 0.233765 -13.969563 1.992180
v 2.919312 -13.810209 2.000000
v 8.910828 -8.198033 2.000000
v 13.369385 2.576561 0.000000
v 12.323608 3.573568 4.000000
v 8.691650 3.402176 4.000000
v 2.961914 -12.690795 0.000000
v 8.022583 -7.538690 0.000000
v 7.651855 2.576561 0.000000
v 19.499817 2.605858 -0.000000
v 17.631287 3.824041 4.000000
v 3.132751 3.139852 4.000000
v 0.258484 2.547265 0.000000
v 9.889404 14.812578 4.000000
v 9.359619 18.797457 0.000000
v 8.830627 -16.432850 -0.000000
v 5.834351 -11.676570 0.000000
v 6.248413 -12.570282 2.000000
v 8.326477 -15.397721 2.000000
v 0.285095 19.174414 0.000000
v -3.825806 19.054976 0.000000
v -13.233215 10.625330 0.000000
v -0.722046 17.646248 2.008180
v -3.877258 17.541924 2.000000
v -12.152100 10.086473 2.000000
v -0.233765 13.969563 1.992180
v -2.919312 13.810209 2.000000
v -8.910828 8.198033 2.000000
v -13.369385 -2.576561 0.000000
v -12.323608 -3.573568 4.000000
v -8.691650 -3.402176 4.000000
v -2.961914 12.690795 -0.000000
v -8.022583 7.538690 -0.000000
v -7.651855 -2.576561 -0.000000
v -19.499817 -2.605858 0.000000
v -17.631287 -3.824041 4.000000
v -3.132751 -3.139852 4.000000
v -0.258484 -2.547265 0.000000
v -9.889404 -14.812578 4.000000
v -9.359619 -18.797457 0.000000
v -8.830627 16.432850 0.000000
v -5.834351 11.676570 -0.000000
v -6.248413 12.570282 2.000000
v -8.326477 15.397721 2.000000
v -1.045837 -12.743817 -0.000000
v -0.669556 -15.955240 -0.000000
v 1.045898 12.743817 0.000000
v 0.669556 15.955240 0.000000
v 0.722046 -17.646248 -2.008180
v 3.877258 -17.541924 -2.000000
v 12.152100 -10.086473 -2.000000
v 0.233765 -13.969563 -1.992180
v 2.919312 -13.810209 -2.000000
v 8.910828 -8.198033 -2.000000
v 12.323608 3.573568 -4.000000
v 8.691650 3.402176 -4.000000
v 17.631287 3.824041 -4.000000
v 3.132751 3.139852 -4.000000
v 9.889404 14.812578 -4.000000
v 6.248413 -12.570282 -2.000000
v 8.326477 -15.397721 -2.000000
v -0.722046 17.646248 -2.008180
v -3.877258 17.541924 -2.000000
v -12.152100 10.086473 -2.000000
v -0.233765 13.969563 -1.992180
v -2.919312 13.810209 -2.000000
v -8.910828 8.198033 -2.000000
v -12.323608 -3.573568 -4.000000
v -8.691650 -3.402176 -4.000000
v -17.631287 -3.824041 -4.000000
v -3.132751 -3.139852 -4.000000
v -9.889404 -14.812578 -4.000000
v -6.248413 12.570282 -2.000000
v -8.326477 15.397721 -2.000000
vt 0.464256 0.977830
vt 0.463556 0.978661
vt 0.464502 0.984611
vt 0.463556 0.984644
vt 0.460663 0.990312
vt 0.460326 0.989618
vt 0.452438 0.990735
vt 0.451814 0.990064
vt 0.460977 0.979857
vt 0.461223 0.984030
vt 0.459145 0.987538
vt 0.451921 0.987734
vt 0.460523 0.984057
vt 0.458733 0.986968
vt 0.452438 0.987066
vt 0.452419 0.994669
vt 0.451658 0.993470
vt 0.444787 0.988502
vt 0.442296 0.988162
vt 0.452085 0.984167
vt 0.452456 0.982322
vt 0.462618 0.987408
vt 0.459645 0.985485
vt 0.460203 0.985751
vt 0.461971 0.987084
vt 0.464256 0.977830
vt 0.464502 0.984611
vt 0.463556 0.984644
vt 0.463556 0.978661
vt 0.461971 0.987084
vt 0.462618 0.987408
vt 0.460663 0.990312
vt 0.460326 0.989618
vt 0.452438 0.990735
vt 0.451814 0.990064
vt 0.461223 0.984030
vt 0.460977 0.979857
vt 0.460203 0.985751
vt 0.459145 0.987538
vt 0.451921 0.987734
vt 0.460523 0.984057
vt 0.459645 0.985485
vt 0.458733 0.986968
vt 0.452438 0.987066
vt 0.452419 0.994669
vt 0.451658 0.993470
vt 0.444787 0.988502
vt 0.442296 0.988162
vt 0.452085 0.984167
vt 0.452456 0.982322
vt 0.460200 0.980160
vt 0.460200 0.980160
vt 0.462226 0.978996
vt 0.460200 0.980160
vt 0.460200 0.980160
vt 0.462226 0.978996
vt 0.464256 0.977830
vt 0.464502 0.984611
vt 0.463556 0.984644
vt 0.463556 0.978661
vt 0.461971 0.987084
vt 0.462618 0.987408
vt 0.460663 0.990312
vt 0.460326 0.989618
vt 0.452438 0.990735
vt 0.451814 0.990064
vt 0.461223 0.984030
vt 0.460977 0.979857
vt 0.460203 0.985751
vt 0.459145 0.987538
vt 0.451921 0.987734
vt 0.460523 0.984057
vt 0.460200 0.980160
vt 0.459645 0.985485
vt 0.458733 0.986968
vt 0.452438 0.987066
vt 0.452419 0.994669
vt 0.451658 0.993470
vt 0.444787 0.988502
vt 0.442296 0.988162
vt 0.452085 0.984167
vt 0.452456 0.982322
vt 0.460200 0.980160
vt 0.462226 0.978996
vt 0.464256 0.977830
vt 0.464502 0.984611
vt 0.463556 0.984644
vt 0.463556 0.978661
vt 0.461971 0.987084
vt 0.462618 0.987408
vt 0.460663 0.990312
vt 0.460326 0.989618
vt 0.452438 0.990735
vt 0.451814 0.990064
vt 0.461223 0.984030
vt 0.460977 0.979857
vt 0.460203 0.985751
vt 0.459145 0.987538
vt 0.451921 0.987734
vt 0.460523 0.984057
vt 0.460200 0.980160
vt 0.459645 0.985485
vt 0.458733 0.986968
vt 0.452438 0.987066
vt 0.452419 0.994669
vt 0.451658 0.993470
vt 0.444787 0.988502
vt 0.442296 0.988162
vt 0.452085 0.984167
vt 0.452456 0.982322
vt 0.460200 0.980160
vt 0.462226 0.978996
vn 0.025299 -0.799592 0.600011
vn 0.025299 -0.799592 0.600011
vn 0.025299 -0.799592 0.600011
vn 0.025299 -0.799592 0.600011
vn 0.584583 -0.629953 0.511295
vn 0.560319 -0.648727 0.514972
vn 0.703542 -0.520641 0.483696
vn 0.703542 -0.520641 0.483695
vn 0.938959 -0.036227 0.342117
vn 0.938959 -0.036227 0.342117
vn 0.938959 -0.036227 0.342117
vn 0.938959 -0.036227 0.342117
vn -0.000036 0.002153 0.999998
vn -0.000036 0.002153 0.999998
vn -0.000036 0.002153 0.999998
vn -0.000036 0.002153 0.999998
vn 0.000000 0.000000 1.000000
vn 0.000000 0.000000 1.000000
vn 0.000000 0.000000 1.000000
vn 0.000000 0.000000 1.000000
vn -0.039060 -0.156355 0.986928
vn -0.039060 -0.156355 0.986928
vn -0.039060 -0.156355 0.986928
vn -0.039060 -0.156355 0.986928
vn -0.027827 0.858111 0.512710
vn -0.027827 0.858111 0.512710
vn -0.027827 0.858111 0.512710
vn -0.027827 0.858111 0.512710
vn -0.634620 0.622313 0.458241
vn -0.601911 0.652061 0.460999
vn -0.784715 0.447276 0.429146
vn -0.784715 0.447276 0.429146
vn -0.950223 -0.054073 0.306843
vn -0.950223 -0.054073 0.306843
vn -0.950223 -0.054073 0.306843
vn -0.950223 -0.054073 0.306843
vn 0.023511 -0.961234 0.274730
vn 0.023511 -0.961234 0.274730
vn 0.023511 -0.961234 0.274730
vn 0.023511 -0.961234 0.274730
vn 0.000000 0.000000 1.000000
vn 0.000000 0.000000 1.000000
vn 0.000000 0.000000 1.000000
vn 0.793359 0.521958 0.313276
vn 0.793359 0.521958 0.313276
vn 0.793359 0.521958 0.313276
vn 0.793359 0.521958 0.313276
vn -0.752388 0.427291 0.501333
vn -0.752388 0.427291 0.501333
vn -0.752388 0.427291 0.501333
vn -0.752388 0.427291 0.501333
vn 0.000000 0.000000 1.000000
vn 0.000000 0.000000 1.000000
vn 0.000000 0.000000 1.000000
vn 0.022205 -0.986216 0.163968
vn 0.022205 -0.986216 0.163968
vn 0.022205 -0.986216 0.163968
vn 0.022205 -0.986216 0.163968
vn 0.000000 0.000000 1.000000
vn 0.000000 0.000000 1.000000
vn 0.000000 0.000000 1.000000
vn -0.304971 0.839025 0.450587
vn -0.601911 0.652061 0.460999
vn -0.634620 0.622313 0.458241
vn -0.304971 0.839025 0.450587
vn 0.000000 0.000000 1.000000
vn 0.000000 0.000000 1.000000
vn 0.000000 0.000000 1.000000
vn 0.000000 0.000000 1.000000
vn 0.382646 -0.758981 0.526811
vn 0.560319 -0.648727 0.514972
vn 0.584583 -0.629953 0.511295
vn 0.382646 -0.758981 0.526811
vn -0.859441 -0.105416 0.500248
vn -0.859441 -0.105416 0.500248
vn -0.859441 -0.105416 0.500248
vn -0.859441 -0.105416 0.500248
vn -0.859441 -0.105416 0.500248
vn -0.025299 0.799592 0.600011
vn -0.025299 0.799592 0.600011
vn -0.025299 0.799592 0.600011
vn -0.025299 0.799592 0.600011
vn -0.584583 0.629953 0.511295
vn -0.560319 0.648727 0.514972
vn -0.703542 0.520641 0.483696
vn -0.703542 0.520641 0.483695
vn -0.938959 0.036227 0.342117
vn -0.938959 0.036227 0.342117
vn -0.938959 0.036227 0.342117
vn -0.938959 0.036227 0.342117
vn 0.000036 -0.002153 0.999998
vn 0.000036 -0.002153 0.999998
vn 0.000036 -0.002153 0.999998
vn 0.000036 -0.002153 0.999998
vn 0.000000 0.000000 1.000000
vn 0.000000 0.000000 1.000000
vn 0.000000 0.000000 1.000000
vn 0.000000 0.000000 1.000000
vn 0.039060 0.156355 0.986928
vn 0.039060 0.156355 0.986928
vn 0.039060 0.156355 0.986928
vn 0.039060 0.156355 0.986928
vn 0.027826 -0.858111 0.512710
vn 0.027826 -0.858111 0.512710
vn 0.027826 -0.858111 0.512710
vn 0.027826 -0.858111 0.512710
vn 0.634620 -0.622313 0.458241
vn 0.601911 -0.652061 0.460999
vn 0.784715 -0.447276 0.429146
vn 0.784715 -0.447276 0.429146
vn 0.950223 0.054073 0.306843
vn 0.950223 0.054073 0.306843
vn 0.950223 0.054073 0.306843
vn 0.950223 0.054073 0.306843
vn -0.023511 0.961234 0.274730
vn -0.023511 0.961234 0.274730
vn -0.023511 0.961234 0.274730
vn -0.023511 0.961234 0.274730
vn 0.000000 0.000000 1.000000
vn 0.000000 0.000000 1.000000
vn 0.000000 0.000000 1.000000
vn -0.793359 -0.521958 0.313276
vn -0.793359 -0.521958 0.313276
vn -0.793359 -0.521958 0.313276
vn -0.793359 -0.521958 0.313276
vn 0.752388 -0.427291 0.501333
vn 0.752388 -0.427291 0.501333
vn 0.752388 -0.427291 0.501333
vn 0.752388 -0.427291 0.501333
vn 0.000000 0.000000 1.000000
vn 0.000000 0.000000 1.000000
vn 0.000000 0.000000 1.000000
vn -0.022205 0.986216 0.163968
vn -0.022205 0.986216 0.163968
vn -0.022205 0.986216 0.163968
vn -0.022205 0.986216 0.163968
vn 0.000000 0.000000 1.000000
vn 0.000000 0.000000 1.000000
vn 0.000000 0.000000 1.000000
vn 0.304971 -0.839025 0.450587
vn 0.601911 -0.652061 0.460999
vn 0.634620 -0.622313 0.458241
vn 0.304971 -0.839025 0.450587
vn 0.000000 0.000000 1.000000
vn 0.000000 0.000000 1.000000
vn 0.000000 0.000000 1.000000
vn 0.000000 0.000000 1.000000
vn -0.382646 0.758981 0.526811
vn -0.560319 0.648727 0.514972
vn -0.584583 0.629953 0.511295
vn -0.382646 0.758981 0.526811
vn 0.859439 0.105421 0.500252
vn 0.859439 0.105421 0.500252
vn 0.859439 0.105421 0.500252
vn 0.859439 0.105421 0.500252
vn 0.859439 0.105421 0.500252
vn 0.025299 -0.799592 -0.600011
vn 0.025299 -0.799592 -0.600011
vn 0.025299 -0.799592 -0.600011
vn 0.025299 -0.799592 -0.600011
vn 0.584583 -0.629953 -0.511295
vn 0.703542 -0.520641 -0.483696
vn 0.703542 -0.520641 -0.483696
vn 0.560319 -0.648727 -0.514972
vn 0.938959 -0.036227 -0.342117
vn 0.938959 -0.036227 -0.342117
vn 0.938959 -0.036227 -0.342117
vn 0.938959 -0.036227 -0.342117
vn -0.000036 0.002153 -0.999998
vn -0.000036 0.002153 -0.999998
vn -0.000036 0.002153 -0.999998
vn -0.000036 0.002153 -0.999998
vn 0.000000 0.000000 -1.000000
vn 0.000000 0.000000 -1.000000
vn 0.000000 0.000000 -1.000000
vn 0.000000 0.000000 -1.000000
vn -0.039060 -0.156355 -0.986928
vn -0.039060 -0.156355 -0.986928
vn -0.039060 -0.156355 -0.986928
vn -0.039060 -0.156355 -0.986928
vn -0.027827 0.858111 -0.512710
vn -0.027827 0.858111 -0.512710
vn -0.027827 0.858111 -0.512710
vn -0.027827 0.858111 -0.512710
vn -0.634620 0.622313 -0.458241
vn -0.784715 0.447276 -0.429146
vn -0.784715 0.447276 -0.429146
vn -0.601911 0.652061 -0.460999
vn -0.950223 -0.054073 -0.306843
vn -0.950223 -0.054073 -0.306843
vn -0.950223 -0.054073 -0.306843
vn -0.950223 -0.054073 -0.306843
vn 0.023511 -0.961234 -0.274730
vn 0.023511 -0.961234 -0.274730
vn 0.023511 -0.961234 -0.274730
vn 0.023511 -0.961234 -0.274730
vn -0.000000 0.000000 -1.000000
vn 0.000000 0.000000 -1.000000
vn 0.000000 0.000000 -1.000000
vn 0.793359 0.521958 -0.313276
vn 0.793359 0.521958 -0.313276
vn 0.793359 0.521958 -0.313276
vn 0.793359 0.521958 -0.313276
vn -0.752388 0.427291 -0.501333
vn -0.752388 0.427291 -0.501333
vn -0.752388 0.427291 -0.501333
vn -0.752388 0.427291 -0.501333
vn -0.000000 0.000000 -1.000000
vn -0.000000 0.000000 -1.000000
vn -0.000000 0.000000 -1.000000
vn 0.022205 -0.986216 -0.163968
vn 0.022205 -0.986216 -0.163968
vn 0.022205 -0.986216 -0.163968
vn 0.022205 -0.986216 -0.163968
vn -0.000000 0.000000 -1.000000
vn 0.000000 0.000000 -1.000000
vn -0.000000 0.000000 -1.000000
vn -0.304971 0.839025 -0.450587
vn -0.304971 0.839025 -0.450587
vn -0.634620 0.622313 -0.458241
vn -0.601911 0.652061 -0.460999
vn 0.000000 0.000000 -1.000000
vn 0.000000 0.000000 -1.000000
vn 0.000000 0.000000 -1.000000
vn 0.000000 0.000000 -1.000000
vn 0.382646 -0.758981 -0.526811
vn 0.382646 -0.758981 -0.526811
vn 0.584583 -0.629953 -0.511295
vn 0.560319 -0.648727 -0.514972
vn -0.859441 -0.105416 -0.500248
vn -0.859441 -0.105416 -0.500248
vn -0.859441 -0.105416 -0.500248
vn -0.859441 -0.105416 -0.500248
vn -0.859441 -0.105416 -0.500248
vn -0.025299 0.799592 -0.600011
vn -0.025299 0.799592 -0.600011
vn -0.025299 0.799592 -0.600011
vn -0.025299 0.799592 -0.600011
vn -0.584583 0.629953 -0.511295
vn -0.703542 0.520641 -0.483696
vn -0.703542 0.520641 -0.483696
vn -0.560319 0.648727 -0.514972
vn -0.938959 0.036227 -0.342117
vn -0.938959 0.036227 -0.342117
vn -0.938959 0.036227 -0.342117
vn -0.938959 0.036227 -0.342117
vn 0.000036 -0.002153 -0.999998
vn 0.000036 -0.002153 -0.999998
vn 0.000036 -0.002153 -0.999998
vn 0.000036 -0.002153 -0.999998
vn 0.000000 0.000000 -1.000000
vn 0.000000 0.000000 -1.000000
vn 0.000000 0.000000 -1.000000
vn 0.000000 0.000000 -1.000000
vn 0.039060 0.156355 -0.986928
vn 0.039060 0.156355 -0.986928
vn 0.039060 0.156355 -0.986928
vn 0.039060 0.156355 -0.986928
vn 0.027826 -0.858111 -0.512710
vn 0.027826 -0.858111 -0.512710
vn 0.027826 -0.858111 -0.512710
vn 0.027826 -0.858111 -0.512710
vn 0.634620 -0.622313 -0.458241
vn 0.784715 -0.447276 -0.429146
vn 0.784715 -0.447276 -0.429146
vn 0.601911 -0.652061 -0.460999
vn 0.950223 0.054073 -0.306843
vn 0.950223 0.054073 -0.306843
vn 0.950223 0.054073 -0.306843
vn 0.950223 0.054073 -0.306843
vn -0.023511 0.961234 -0.274730
vn -0.023511 0.961234 -0.274730
vn -0.023511 0.961234 -0.274730
vn -0.023511 0.961234 -0.274730
vn 0.000000 0.000000 -1.000000
vn 0.000000 0.000000 -1.000000
vn 0.000000 0.000000 -1.000000
vn -0.793359 -0.521958 -0.313276
vn -0.793359 -0.521958 -0.313276
vn -0.793359 -0.521958 -0.313276
vn -0.793359 -0.521958 -0.313276
vn 0.752388 -0.427291 -0.501333
vn 0.752388 -0.427291 -0.501333
vn 0.752388 -0.427291 -0.501333
vn 0.752388 -0.427291 -0.501333
vn 0.000000 0.000000 -1.000000
vn 0.000000 0.000000 -1.000000
vn 0.000000 0.000000 -1.000000
vn -0.022205 0.986216 -0.163968
vn -0.022205 0.986216 -0.163968
vn -0.022205 0.986216 -0.163968
vn -0.022205 0.986216 -0.163968
vn 0.000000 0.000000 -1.000000
vn 0.000000 0.000000 -1.000000
vn 0.000000 0.000000 -1.000000
vn 0.304971 -0.839025 -0.450587
vn 0.304971 -0.839025 -0.450587
vn 0.634620 -0.622313 -0.458241
vn 0.601911 -0.652061 -0.460999
vn 0.000000 0.000000 -1.000000
vn 0.000000 0.000000 -1.000000
vn 0.000000 0.000000 -1.000000
vn 0.000000 0.000000 -1.000000
vn -0.382646 0.758981 -0.526811
vn -0.382646 0.758981 -0.526811
vn -0.584583 0.629953 -0.511295
vn -0.560319 0.648727 -0.514972
vn 0.859439 0.105421 -0.500252
vn 0.859439 0.105421 -0.500252
vn 0.859439 0.105421 -0.500252
vn 0.859439 0.105421 -0.500252
vn 0.859439 0.105421 -0.500252
s off
f 1/1/1 2/3/2 5/4/3 4/2/4
f 25/25/5 22/22/6 3/5/7 6/6/8
f 6/6/9 3/5/10 10/7/11 11/8/12
f 4/2/13 5/4/14 8/10/15 7/9/16
f 24/24/17 25/25/18 6/6/19 9/11/20
f 9/11/21 6/6/22 11/8/23 12/12/24
f 7/9/25 8/10/26 13/13/27 51/52/28
f 23/23/29 24/24/30 9/11/31 14/14/32
f 15/15/33 14/14/34 9/11/35 12/12/36
f 11/8/37 10/7/38 16/16/39 17/17/40
f 20/18/41 11/8/42 17/17/43
f 20/18/44 17/17/45 16/16/46 21/19/47
f 18/20/48 20/18/49 21/19/50 19/21/51
f 18/20/52 12/12/53 20/18/54
f 18/20/55 19/21/56 15/15/57 12/12/58
f 20/18/59 12/12/60 11/8/61
f 8/10/62 24/24/63 23/23/64 13/13/65
f 5/4/66 25/25/67 24/24/68 8/10/69
f 2/3/70 22/22/71 25/25/72 5/4/73
f 4/2/74 7/9/75 51/51/76 52/53/77 1/1/78
f 26/26/79 27/27/80 30/28/81 29/29/82
f 50/30/83 47/31/84 28/32/85 31/33/86
f 31/33/87 28/32/88 35/34/89 36/35/90
f 29/29/91 30/28/92 33/36/93 32/37/94
f 49/38/95 50/30/96 31/33/97 34/39/98
f 34/39/99 31/33/100 36/35/101 37/40/102
f 32/37/103 33/36/104 38/41/105 53/55/106
f 48/42/107 49/38/108 34/39/109 39/43/110
f 40/44/111 39/43/112 34/39/113 37/40/114
f 36/35/115 35/34/116 41/45/117 42/46/118
f 45/47/119 36/35/120 42/46/121
f 45/47/122 42/46/123 41/45/124 46/48/125
f 43/49/126 45/47/127 46/48/128 44/50/129
f 43/49/130 37/40/131 45/47/132
f 43/49/133 44/50/134 40/44/135 37/40/136
f 45/47/137 37/40/138 36/35/139
f 33/36/140 49/38/141 48/42/142 38/41/143
f 30/28/144 50/30/145 49/38/146 33/36/147
f 27/27/148 47/31/149 50/30/150 30/28/151
f 29/29/152 32/37/153 53/54/154 54/56/155 26/26/156
f 1/57/157 55/60/158 56/59/159 2/58/160
f 67/61/161 57/64/162 3/63/163 22/62/164
f 57/64/165 61/66/166 10/65/167 3/63/168
f 55/60/169 58/68/170 59/67/171 56/59/172
f 66/69/173 60/70/174 57/64/175 67/61/176
f 60/70/177 62/71/178 61/66/179 57/64/180
f 58/68/181 51/73/182 13/72/183 59/67/184
f 23/74/185 14/75/186 60/70/187 66/69/188
f 15/76/189 62/71/190 60/70/191 14/75/192
f 61/66/193 63/78/194 16/77/195 10/65/196
f 65/79/197 63/78/198 61/66/199
f 65/79/200 21/80/201 16/77/202 63/78/203
f 64/81/204 19/82/205 21/80/206 65/79/207
f 64/81/208 65/79/209 62/71/210
f 64/81/211 62/71/212 15/76/213 19/82/214
f 65/79/215 61/66/216 62/71/217
f 59/67/218 13/72/219 23/74/220 66/69/221
f 56/59/222 59/67/223 66/69/224 67/61/225
f 2/58/226 56/59/227 67/61/228 22/62/229
f 55/60/230 1/57/231 52/84/232 51/83/233 58/68/234
f 26/85/235 68/88/236 69/87/237 27/86/238
f 80/89/239 70/92/240 28/91/241 47/90/242
f 70/92/243 74/94/244 35/93/245 28/91/246
f 68/88/247 71/96/248 72/95/249 69/87/250
f 79/97/251 73/98/252 70/92/253 80/89/254
f 73/98/255 75/99/256 74/94/257 70/92/258
f 71/96/259 53/101/260 38/100/261 72/95/262
f 48/102/263 39/103/264 73/98/265 79/97/266
f 40/104/267 75/99/268 73/98/269 39/103/270
f 74/94/271 76/106/272 41/105/273 35/93/274
f 78/107/275 76/106/276 74/94/277
f 78/107/278 46/108/279 41/105/280 76/106/281
f 77/109/282 44/110/283 46/108/284 78/107/285
f 77/109/286 78/107/287 75/99/288
f 77/109/289 75/99/290 40/104/291 44/110/292
f 78/107/293 74/94/294 75/99/295
f 72/95/296 38/100/297 48/102/298 79/97/299
f 69/87/300 72/95/301 79/97/302 80/89/303
f 27/86/304 69/87/305 80/89/306 47/90/307
f 68/88/308 26/85/309 54/112/310 53/111/311 71/96/312
