# This file uses centimeters as units for non-parametric coordinates.

v 17.257816 9.922953 4.000000
v 9.943077 17.154070 4.000000
v -0.061743 19.897425 4.000000
v -9.937336 17.259609 4.000000
v -17.218685 9.944815 4.000000
v -19.849398 0.052312 4.000000
v -17.247675 -10.012714 4.000000
v -9.963334 -17.177849 4.000000
v 0.051087 -19.923351 4.000000
v 10.047351 -17.335152 4.000000
v 17.197699 -9.886699 4.000000
v 19.988834 0.004707 4.000000
v 12.507335 7.459085 4.000000
v 7.195702 13.189547 4.000000
v 0.178966 15.115476 4.000000
v -7.752702 12.784773 4.000000
v -13.270945 7.571176 4.000000
v -14.854608 0.074275 4.000000
v -12.623679 -7.069241 4.000000
v -7.250299 -13.028107 4.000000
v 0.261826 -15.195325 4.000000
v 7.663648 -13.050426 4.000000
v 13.148241 -6.966585 4.000000
v 14.981705 -0.061945 4.000000
v 10.877645 6.456428 2.000000
v 6.377878 10.960038 2.000000
v 0.076853 12.635893 2.000000
v -6.524833 10.955845 2.000000
v -10.694909 6.236166 2.000000
v -12.630469 -0.012386 2.000000
v -10.798085 -6.388455 2.000000
v -6.570057 -10.824237 2.000000
v 0.084408 -12.475259 2.000000
v 6.418572 -10.934706 2.000000
v 11.006999 -6.070582 2.000000
v 12.347807 0.225321 2.000000
v 0.000000 0.000000 2.000000
v 17.257816 9.922953 -4.000000
v 9.943077 17.154070 -4.000000
v -0.061743 19.897425 -4.000000
v -9.937336 17.259609 -4.000000
v -17.218685 9.944815 -4.000000
v -19.849398 0.052312 -4.000000
v -17.247675 -10.012714 -4.000000
v -9.963334 -17.177849 -4.000000
v 0.051087 -19.923351 -4.000000
v 10.047351 -17.335152 -4.000000
v 17.197699 -9.886699 -4.000000
v 19.988834 0.004707 -4.000000
v 12.507335 7.459085 -4.000000
v 7.195702 13.189547 -4.000000
v 0.178966 15.115476 -4.000000
v -7.752702 12.784773 -4.000000
v -13.270945 7.571176 -4.000000
v -14.854608 0.074275 -4.000000
v -12.623679 -7.069241 -4.000000
v -7.250299 -13.028107 -4.000000
v 0.261826 -15.195325 -4.000000
v 7.663648 -13.050426 -4.000000
v 13.148241 -6.966585 -4.000000
v 14.981705 -0.061945 -4.000000
v 10.877645 6.456428 -2.000000
v 6.377878 10.960038 -2.000000
v 0.076853 12.635893 -2.000000
v -6.524833 10.955845 -2.000000
v -10.694909 6.236166 -2.000000
v -12.630469 -0.012386 -2.000000
v -10.798085 -6.388455 -2.000000
v -6.570057 -10.824237 -2.000000
v 0.084408 -12.475259 -2.000000
v 6.418572 -10.934706 -2.000000
v 11.006999 -6.070582 -2.000000
v 12.347807 0.225321 -2.000000
v 0.000000 0.000000 -2.000000
vt 0.111272 0.983306
vt 0.111380 0.983148
vt 0.111547 0.983100
vt 0.111732 0.983196
vt 0.111876 0.983424
vt 0.111925 0.983713
vt 0.111862 0.983961
vt 0.111718 0.984093
vt 0.111544 0.984086
vt 0.111387 0.983962
vt 0.111279 0.983760
vt 0.111237 0.983526
vt 0.111272 0.983306
vt 0.111380 0.983148
vt 0.111547 0.983100
vt 0.111732 0.983196
vt 0.111876 0.983424
vt 0.111925 0.983713
vt 0.111862 0.983961
vt 0.111718 0.984093
vt 0.111544 0.984086
vt 0.111387 0.983962
vt 0.111279 0.983760
vt 0.111237 0.983526
vt 0.111272 0.983306
vt 0.111380 0.983148
vt 0.111547 0.983100
vt 0.111732 0.983196
vt 0.111876 0.983424
vt 0.111925 0.983713
vt 0.111862 0.983961
vt 0.111718 0.984093
vt 0.111544 0.984086
vt 0.111387 0.983962
vt 0.111279 0.983760
vt 0.111237 0.983526
vt 0.111563 0.983606
vt 0.111876 0.983424
vt 0.111732 0.983196
vt 0.111547 0.983100
vt 0.111380 0.983148
vt 0.111272 0.983306
vt 0.111237 0.983526
vt 0.111279 0.983760
vt 0.111387 0.983962
vt 0.111544 0.984086
vt 0.111718 0.984093
vt 0.111862 0.983961
vt 0.111925 0.983713
vt 0.111380 0.983148
vt 0.111272 0.983306
vt 0.111547 0.983100
vt 0.111732 0.983196
vt 0.111876 0.983424
vt 0.111925 0.983713
vt 0.111862 0.983961
vt 0.111718 0.984093
vt 0.111544 0.984086
vt 0.111387 0.983962
vt 0.111279 0.983760
vt 0.111237 0.983526
vt 0.111380 0.983148
vt 0.111272 0.983306
vt 0.111547 0.983100
vt 0.111732 0.983196
vt 0.111876 0.983424
vt 0.111925 0.983713
vt 0.111862 0.983961
vt 0.111718 0.984093
vt 0.111544 0.984086
vt 0.111387 0.983962
vt 0.111279 0.983760
vt 0.111237 0.983526
vt 0.111563 0.983606
vn -0.009624 -0.009375 0.999910
vn -0.009624 -0.009375 0.999910
vn -0.009624 -0.009375 0.999910
vn -0.009624 -0.009375 0.999910
vn -0.003850 -0.014036 0.999894
vn -0.003850 -0.014036 0.999894
vn -0.003850 -0.014036 0.999894
vn -0.003850 -0.014036 0.999894
vn 0.003719 -0.013331 0.999904
vn 0.003719 -0.013331 0.999904
vn 0.003719 -0.013331 0.999904
vn 0.003719 -0.013331 0.999904
vn 0.010086 -0.010304 0.999896
vn 0.010086 -0.010304 0.999896
vn 0.010086 -0.010304 0.999896
vn 0.010086 -0.010304 0.999896
vn 0.013921 -0.003374 0.999897
vn 0.013921 -0.003374 0.999897
vn 0.013921 -0.003374 0.999897
vn 0.013921 -0.003374 0.999897
vn 0.012670 0.003558 0.999913
vn 0.012670 0.003558 0.999913
vn 0.012670 0.003558 0.999913
vn 0.012670 0.003558 0.999913
vn 0.009340 0.009008 0.999916
vn 0.009340 0.009008 0.999916
vn 0.009340 0.009008 0.999916
vn 0.009340 0.009008 0.999916
vn 0.003828 0.013655 0.999899
vn 0.003828 0.013655 0.999899
vn 0.003828 0.013655 0.999899
vn 0.003828 0.013655 0.999899
vn -0.003751 0.013788 0.999898
vn -0.003751 0.013788 0.999898
vn -0.003751 0.013788 0.999898
vn -0.003751 0.013788 0.999898
vn -0.010062 0.009395 0.999905
vn -0.010062 0.009395 0.999905
vn -0.010062 0.009395 0.999905
vn -0.010062 0.009395 0.999905
vn -0.013454 0.003704 0.999903
vn -0.013454 0.003704 0.999903
vn -0.013454 0.003704 0.999903
vn -0.013454 0.003704 0.999903
vn -0.012596 -0.003760 0.999914
vn -0.012596 -0.003760 0.999914
vn -0.012596 -0.003760 0.999914
vn -0.012596 -0.003760 0.999914
vn -0.510203 -0.489131 0.707421
vn -0.510203 -0.489131 0.707421
vn -0.510203 -0.489131 0.707421
vn -0.510203 -0.489131 0.707421
vn -0.167422 -0.619052 0.767297
vn -0.167422 -0.619052 0.767297
vn -0.167422 -0.619052 0.767297
vn -0.167422 -0.619052 0.767297
vn 0.177778 -0.644195 0.743914
vn 0.177778 -0.644195 0.743914
vn 0.177778 -0.644195 0.743914
vn 0.177778 -0.644195 0.743914
vn 0.450920 -0.439800 0.776690
vn 0.450920 -0.439800 0.776690
vn 0.450920 -0.439800 0.776690
vn 0.450920 -0.439800 0.776690
vn 0.604969 -0.154889 0.781039
vn 0.604969 -0.154889 0.781039
vn 0.604969 -0.154889 0.781039
vn 0.604969 -0.154889 0.781039
vn 0.673018 0.202275 0.711430
vn 0.673018 0.202275 0.711430
vn 0.673018 0.202275 0.711430
vn 0.673018 0.202275 0.711430
vn 0.532700 0.492049 0.688563
vn 0.532700 0.492049 0.688563
vn 0.532700 0.492049 0.688563
vn 0.532700 0.492049 0.688563
vn 0.164868 0.611701 0.773719
vn 0.164868 0.611701 0.773719
vn 0.164868 0.611701 0.773719
vn 0.164868 0.611701 0.773719
vn -0.161112 0.600479 0.783242
vn -0.161112 0.600479 0.783242
vn -0.161112 0.600479 0.783242
vn -0.161112 0.600479 0.783242
vn -0.487017 0.448095 0.749683
vn -0.487017 0.448095 0.749683
vn -0.487017 0.448095 0.749683
vn -0.487017 0.448095 0.749683
vn -0.613388 0.147499 0.775886
vn -0.613388 0.147499 0.775886
vn -0.613388 0.147499 0.775886
vn -0.613388 0.147499 0.775886
vn -0.655066 -0.187893 0.731837
vn -0.655066 -0.187893 0.731837
vn -0.655066 -0.187893 0.731837
vn -0.655066 -0.187893 0.731837
vn 0.000000 0.000000 1.000000
vn 0.000000 0.000000 1.000000
vn 0.000000 0.000000 1.000000
vn 0.000000 0.000000 1.000000
vn 0.000000 0.000000 1.000000
vn 0.000000 0.000000 1.000000
vn 0.000000 0.000000 1.000000
vn 0.000000 0.000000 1.000000
vn 0.000000 0.000000 1.000000
vn 0.000000 0.000000 1.000000
vn 0.000000 0.000000 1.000000
vn 0.000000 0.000000 1.000000
vn 0.000000 0.000000 1.000000
vn 0.000000 0.000000 1.000000
vn 0.000000 0.000000 1.000000
vn 0.000000 0.000000 1.000000
vn 0.000000 0.000000 1.000000
vn 0.000000 0.000000 1.000000
vn 0.000000 0.000000 1.000000
vn 0.000000 0.000000 1.000000
vn 0.000000 0.000000 1.000000
vn 0.000000 0.000000 1.000000
vn 0.000000 0.000000 1.000000
vn 0.000000 0.000000 1.000000
vn 0.000000 0.000000 1.000000
vn 0.000000 0.000000 1.000000
vn 0.000000 0.000000 1.000000
vn 0.000000 0.000000 1.000000
vn 0.000000 0.000000 1.000000
vn 0.000000 0.000000 1.000000
vn 0.000000 0.000000 1.000000
vn 0.000000 0.000000 1.000000
vn 0.000000 0.000000 1.000000
vn 0.000000 0.000000 1.000000
vn 0.000000 0.000000 1.000000
vn 0.000000 0.000000 1.000000
vn -0.708725 0.705485 0.000000
vn -0.708725 0.705485 0.000000
vn -0.708725 0.705485 0.000000
vn -0.708725 0.705485 0.000000
vn -0.258058 0.966130 0.000000
vn -0.258058 0.966130 0.000000
vn -0.258058 0.966130 0.000000
vn -0.258058 0.966130 0.000000
vn 0.264442 0.964402 0.000000
vn 0.264442 0.964402 0.000000
vn 0.264442 0.964402 0.000000
vn 0.264442 0.964402 0.000000
vn 0.703030 0.711160 0.000000
vn 0.703030 0.711160 0.000000
vn 0.703030 0.711160 0.000000
vn 0.703030 0.711160 0.000000
vn 0.964118 0.265473 0.000000
vn 0.964118 0.265473 0.000000
vn 0.964118 0.265473 0.000000
vn 0.964118 0.265473 0.000000
vn 0.962418 -0.271573 0.000000
vn 0.962418 -0.271573 0.000000
vn 0.962418 -0.271573 0.000000
vn 0.962418 -0.271573 0.000000
vn 0.721395 -0.692523 0.000000
vn 0.721395 -0.692523 0.000000
vn 0.721395 -0.692523 0.000000
vn 0.721395 -0.692523 0.000000
vn 0.250651 -0.968077 0.000000
vn 0.250651 -0.968077 0.000000
vn 0.250651 -0.968077 0.000000
vn 0.250651 -0.968077 0.000000
vn -0.264399 -0.964413 0.000000
vn -0.264399 -0.964413 0.000000
vn -0.264399 -0.964413 0.000000
vn -0.264399 -0.964413 0.000000
vn -0.701249 -0.712916 0.000000
vn -0.701249 -0.712916 0.000000
vn -0.701249 -0.712916 0.000000
vn -0.701249 -0.712916 0.000000
vn -0.968177 -0.250266 0.000000
vn -0.968177 -0.250266 0.000000
vn -0.968177 -0.250266 0.000000
vn -0.968177 -0.250266 0.000000
vn -0.966412 0.256998 0.000000
vn -0.966412 0.256998 0.000000
vn -0.966412 0.256998 0.000000
vn -0.966412 0.256998 0.000000
vn -0.009624 -0.009375 -0.999910
vn -0.009624 -0.009375 -0.999910
vn -0.009624 -0.009375 -0.999910
vn -0.009624 -0.009375 -0.999910
vn -0.003850 -0.014036 -0.999894
vn -0.003850 -0.014036 -0.999894
vn -0.003850 -0.014036 -0.999894
vn -0.003850 -0.014036 -0.999894
vn 0.003720 -0.013331 -0.999904
vn 0.003720 -0.013331 -0.999904
vn 0.003720 -0.013331 -0.999904
vn 0.003720 -0.013331 -0.999904
vn 0.010086 -0.010304 -0.999896
vn 0.010086 -0.010304 -0.999896
vn 0.010086 -0.010304 -0.999896
vn 0.010086 -0.010304 -0.999896
vn 0.013921 -0.003374 -0.999897
vn 0.013921 -0.003374 -0.999897
vn 0.013921 -0.003374 -0.999897
vn 0.013921 -0.003374 -0.999897
vn 0.012670 0.003558 -0.999913
vn 0.012670 0.003558 -0.999913
vn 0.012670 0.003558 -0.999913
vn 0.012670 0.003558 -0.999913
vn 0.009340 0.009008 -0.999916
vn 0.009340 0.009008 -0.999916
vn 0.009340 0.009008 -0.999916
vn 0.009340 0.009008 -0.999916
vn 0.003828 0.013655 -0.999899
vn 0.003828 0.013655 -0.999899
vn 0.003828 0.013655 -0.999899
vn 0.003828 0.013655 -0.999899
vn -0.003751 0.013788 -0.999898
vn -0.003751 0.013788 -0.999898
vn -0.003751 0.013788 -0.999898
vn -0.003751 0.013788 -0.999898
vn -0.010062 0.009395 -0.999905
vn -0.010062 0.009395 -0.999905
vn -0.010062 0.009395 -0.999905
vn -0.010062 0.009395 -0.999905
vn -0.013454 0.003704 -0.999903
vn -0.013454 0.003704 -0.999903
vn -0.013454 0.003704 -0.999903
vn -0.013454 0.003704 -0.999903
vn -0.012596 -0.003760 -0.999914
vn -0.012596 -0.003760 -0.999914
vn -0.012596 -0.003760 -0.999914
vn -0.012596 -0.003760 -0.999914
vn -0.510203 -0.489131 -0.707421
vn -0.510203 -0.489131 -0.707421
vn -0.510203 -0.489131 -0.707421
vn -0.510203 -0.489131 -0.707421
vn -0.167422 -0.619052 -0.767297
vn -0.167422 -0.619052 -0.767297
vn -0.167422 -0.619052 -0.767297
vn -0.167422 -0.619052 -0.767297
vn 0.177778 -0.644195 -0.743914
vn 0.177778 -0.644195 -0.743914
vn 0.177778 -0.644195 -0.743914
vn 0.177778 -0.644195 -0.743914
vn 0.450920 -0.439800 -0.776690
vn 0.450920 -0.439800 -0.776690
vn 0.450920 -0.439800 -0.776690
vn 0.450920 -0.439800 -0.776690
vn 0.604969 -0.154889 -0.781039
vn 0.604969 -0.154889 -0.781039
vn 0.604969 -0.154889 -0.781039
vn 0.604969 -0.154889 -0.781039
vn 0.673018 0.202275 -0.711430
vn 0.673018 0.202275 -0.711430
vn 0.673018 0.202275 -0.711430
vn 0.673018 0.202275 -0.711430
vn 0.532700 0.492049 -0.688563
vn 0.532700 0.492049 -0.688563
vn 0.532700 0.492049 -0.688563
vn 0.532700 0.492049 -0.688563
vn 0.164868 0.611701 -0.773719
vn 0.164868 0.611701 -0.773719
vn 0.164868 0.611701 -0.773719
vn 0.164868 0.611701 -0.773719
vn -0.161112 0.600479 -0.783242
vn -0.161112 0.600479 -0.783242
vn -0.161112 0.600479 -0.783242
vn -0.161112 0.600479 -0.783242
vn -0.487017 0.448095 -0.749683
vn -0.487017 0.448095 -0.749683
vn -0.487017 0.448095 -0.749683
vn -0.487017 0.448095 -0.749683
vn -0.613388 0.147499 -0.775886
vn -0.613388 0.147499 -0.775886
vn -0.613388 0.147499 -0.775886
vn -0.613388 0.147499 -0.775886
vn -0.655066 -0.187893 -0.731837
vn -0.655066 -0.187893 -0.731837
vn -0.655066 -0.187893 -0.731837
vn -0.655066 -0.187893 -0.731837
vn 0.000000 0.000000 -1.000000
vn 0.000000 0.000000 -1.000000
vn 0.000000 0.000000 -1.000000
vn 0.000000 0.000000 -1.000000
vn 0.000000 0.000000 -1.000000
vn 0.000000 0.000000 -1.000000
vn 0.000000 0.000000 -1.000000
vn 0.000000 0.000000 -1.000000
vn 0.000000 0.000000 -1.000000
vn 0.000000 0.000000 -1.000000
vn 0.000000 0.000000 -1.000000
vn 0.000000 0.000000 -1.000000
vn 0.000000 0.000000 -1.000000
vn 0.000000 0.000000 -1.000000
vn 0.000000 0.000000 -1.000000
vn 0.000000 0.000000 -1.000000
vn 0.000000 0.000000 -1.000000
vn 0.000000 0.000000 -1.000000
vn 0.000000 0.000000 -1.000000
vn 0.000000 0.000000 -1.000000
vn 0.000000 0.000000 -1.000000
vn 0.000000 0.000000 -1.000000
vn 0.000000 0.000000 -1.000000
vn 0.000000 0.000000 -1.000000
vn 0.000000 0.000000 -1.000000
vn 0.000000 0.000000 -1.000000
vn 0.000000 0.000000 -1.000000
vn 0.000000 0.000000 -1.000000
vn 0.000000 0.000000 -1.000000
vn 0.000000 0.000000 -1.000000
vn 0.000000 0.000000 -1.000000
vn 0.000000 0.000000 -1.000000
vn 0.000000 0.000000 -1.000000
vn 0.000000 0.000000 -1.000000
vn 0.000000 0.000000 -1.000000
vn 0.000000 0.000000 -1.000000
s off
f 1/1/1 2/2/2 14/14/3 13/13/4
f 2/2/5 3/3/6 15/15/7 14/14/8
f 3/3/9 4/4/10 16/16/11 15/15/12
f 4/4/13 5/5/14 17/17/15 16/16/16
f 5/5/17 6/6/18 18/18/19 17/17/20
f 6/6/21 7/7/22 19/19/23 18/18/24
f 7/7/25 8/8/26 20/20/27 19/19/28
f 8/8/29 9/9/30 21/21/31 20/20/32
f 9/9/33 10/10/34 22/22/35 21/21/36
f 10/10/37 11/11/38 23/23/39 22/22/40
f 11/11/41 12/12/42 24/24/43 23/23/44
f 12/12/45 1/1/46 13/13/47 24/24/48
f 13/13/49 14/14/50 26/26/51 25/25/52
f 14/14/53 15/15/54 27/27/55 26/26/56
f 15/15/57 16/16/58 28/28/59 27/27/60
f 16/16/61 17/17/62 29/29/63 28/28/64
f 17/17/65 18/18/66 30/30/67 29/29/68
f 18/18/69 19/19/70 31/31/71 30/30/72
f 19/19/73 20/20/74 32/32/75 31/31/76
f 20/20/77 21/21/78 33/33/79 32/32/80
f 21/21/81 22/22/82 34/34/83 33/33/84
f 22/22/85 23/23/86 35/35/87 34/34/88
f 23/23/89 24/24/90 36/36/91 35/35/92
f 24/24/93 13/13/94 25/25/95 36/36/96
f 25/25/97 26/26/98 37/37/99
f 26/26/100 27/27/101 37/37/102
f 27/27/103 28/28/104 37/37/105
f 28/28/106 29/29/107 37/37/108
f 29/29/109 30/30/110 37/37/111
f 30/30/112 31/31/113 37/37/114
f 31/31/115 32/32/116 37/37/117
f 32/32/118 33/33/119 37/37/120
f 33/33/121 34/34/122 37/37/123
f 34/34/124 35/35/125 37/37/126
f 35/35/127 36/36/128 37/37/129
f 36/36/130 25/25/131 37/37/132
f 4/4/133 41/39/134 42/38/135 5/5/136
f 3/3/137 40/40/138 41/39/139 4/4/140
f 2/2/141 39/41/142 40/40/143 3/3/144
f 1/1/145 38/42/146 39/41/147 2/2/148
f 12/12/149 49/43/150 38/42/151 1/1/152
f 11/11/153 48/44/154 49/43/155 12/12/156
f 10/10/157 47/45/158 48/44/159 11/11/160
f 9/9/161 46/46/162 47/45/163 10/10/164
f 8/8/165 45/47/166 46/46/167 9/9/168
f 7/7/169 44/48/170 45/47/171 8/8/172
f 6/6/173 43/49/174 44/48/175 7/7/176
f 5/5/177 42/38/178 43/49/179 6/6/180
f 38/42/181 50/51/182 51/50/183 39/41/184
f 39/41/185 51/50/186 52/52/187 40/40/188
f 40/40/189 52/52/190 53/53/191 41/39/192
f 41/39/193 53/53/194 54/54/195 42/38/196
f 42/38/197 54/54/198 55/55/199 43/49/200
f 43/49/201 55/55/202 56/56/203 44/48/204
f 44/48/205 56/56/206 57/57/207 45/47/208
f 45/47/209 57/57/210 58/58/211 46/46/212
f 46/46/213 58/58/214 59/59/215 47/45/216
f 47/45/217 59/59/218 60/60/219 48/44/220
f 48/44/221 60/60/222 61/61/223 49/43/224
f 49/43/225 61/61/226 50/51/227 38/42/228
f 50/51/229 62/63/230 63/62/231 51/50/232
f 51/50/233 63/62/234 64/64/235 52/52/236
f 52/52/237 64/64/238 65/65/239 53/53/240
f 53/53/241 65/65/242 66/66/243 54/54/244
f 54/54/245 66/66/246 67/67/247 55/55/248
f 55/55/249 67/67/250 68/68/251 56/56/252
f 56/56/253 68/68/254 69/69/255 57/57/256
f 57/57/257 69/69/258 70/70/259 58/58/260
f 58/58/261 70/70/262 71/71/263 59/59/264
f 59/59/265 71/71/266 72/72/267 60/60/268
f 60/60/269 72/72/270 73/73/271 61/61/272
f 61/61/273 73/73/274 62/63/275 50/51/276
f 62/63/277 74/74/278 63/62/279
f 63/62/280 74/74/281 64/64/282
f 64/64/283 74/74/284 65/65/285
f 65/65/286 74/74/287 66/66/288
f 66/66/289 74/74/290 67/67/291
f 67/67/292 74/74/293 68/68/294
f 68/68/295 74/74/296 69/69/297
f 69/69/298 74/74/299 70/70/300
f 70/70/301 74/74/302 71/71/303
f 71/71/304 74/74/305 72/72/306
f 72/72/307 74/74/308 73/73/309
f 73/73/310 74/74/311 62/63/312
