# This file uses centimeters as units for non-parametric coordinates.

v 0.287596 11.877467 0.000000
v -0.090822 6.689082 0.000000
v 4.656126 8.346197 0.000000
v 10.326414 7.818747 0.000000
v 14.417356 4.328200 0.000000
v 16.124022 -3.990937 0.000000
v 12.956175 -13.455176 0.000000
v 6.892576 -18.720638 0.000000
v -9.130251 -16.447792 0.000000
v -14.834352 -9.833751 0.000000
v -16.335573 -1.675540 0.000000
v -13.949953 5.091929 0.000000
v -9.269411 8.436725 0.000000
v -4.404421 8.090757 0.000000
v -3.292604 -18.120331 0.000000
v 2.924437 -18.774990 0.000000
v 0.120115 -16.511154 0.000000
v -6.406862 16.186090 0.000000
v -3.554689 19.313265 0.000000
v -2.136965 10.809178 0.000000
v 1.264158 6.208602 0.000000
v -1.841066 6.208640 0.000000
v -4.120119 5.960013 -4.000000
v -0.025026 4.370349 -4.000000
v -3.989259 3.654349 -4.000000
v -3.376711 0.964013 -4.000000
v -6.475222 -2.721851 -4.000000
v -10.700686 -1.965623 -4.000000
v -10.539186 1.545354 -4.000000
v -7.171267 4.123349 -4.000000
v -7.796633 6.250048 -4.000000
v -11.724977 3.442815 -4.000000
v -13.726686 -2.237014 -4.000000
v -12.467043 -8.209409 -4.000000
v -7.679934 -14.635135 -4.000000
v -3.692140 -15.438205 -4.000000
v 0.084105 -14.373603 -4.000000
v 3.154906 -16.298412 -4.000000
v 6.397337 -15.808871 -4.000000
v 10.857420 -12.123481 -4.000000
v 12.471312 -3.757039 -4.000000
v 11.586668 1.983216 -4.000000
v 8.650145 5.731389 -4.000000
v 3.890990 5.761088 -4.000000
v 0.014036 11.732665 -2.000000
v -1.457887 10.953980 -2.000000
v -3.745851 18.214338 -2.000000
v -4.970095 16.046206 -2.000000
v -0.887941 5.535863 -2.000000
v 0.310789 5.535846 -2.000000
v 3.536479 18.045374 0.000000
v 9.274408 19.448202 0.000000
v 10.129381 16.232344 0.000000
v 6.898489 11.174464 0.000000
v 2.657296 9.504253 0.000000
v -0.190419 13.395233 0.000000
v -0.479002 9.902656 0.000000
v 0.379480 10.707815 -1.008725
v 8.415926 18.572905 -1.008725
v 3.688105 17.417038 -1.008725
v 0.617201 13.585539 -1.008725
v 2.963564 10.379553 -1.008725
v 5.641419 11.762065 -1.008725
v 8.303646 15.929523 -1.008725
v -4.120119 5.960013 4.000000
v -0.025026 4.370349 4.000000
v -3.989259 3.654349 4.000000
v -3.376711 0.964013 4.000000
v -6.475222 -2.721851 4.000000
v -10.700686 -1.965623 4.000000
v -10.539186 1.545354 4.000000
v -7.171267 4.123349 4.000000
v -7.796633 6.250048 4.000000
v -11.724977 3.442815 4.000000
v -13.726686 -2.237014 4.000000
v -12.467043 -8.209409 4.000000
v -7.679934 -14.635135 4.000000
v -3.692140 -15.438205 4.000000
v 0.084105 -14.373603 4.000000
v 3.154906 -16.298412 4.000000
v 6.397337 -15.808871 4.000000
v 10.857420 -12.123481 4.000000
v 12.471312 -3.757039 4.000000
v 11.586668 1.983216 4.000000
v 8.650145 5.731389 4.000000
v 3.890990 5.761088 4.000000
v 0.014036 11.732665 2.000000
v -1.457887 10.953980 2.000000
v -3.745851 18.214338 2.000000
v -4.970095 16.046206 2.000000
v -0.887941 5.535863 2.000000
v 0.310789 5.535846 2.000000
v 0.379480 10.707815 1.008725
v 8.415926 18.572905 1.008725
v 3.688105 17.417038 1.008725
v 0.617201 13.585539 1.008725
v 2.963564 10.379553 1.008725
v 6.632664 11.754374 1.008725
v 9.294890 15.921833 1.008725
vt 0.013558 0.952646
vt 0.013752 0.952606
vt 0.013703 0.952669
vt 0.013623 0.952669
vt 0.013428 0.952677
vt 0.015658 0.982438
vt 0.013492 0.952634
vt 0.013489 0.952672
vt 0.013383 0.952598
vt 0.013380 0.952540
vt 0.013450 0.952527
vt 0.013502 0.952589
vt 0.859572 0.951965
vt 0.859818 0.952096
vt 0.859188 0.953182
vt 0.858985 0.952817
vt 0.859668 0.951057
vt 0.859868 0.951057
vt 0.013561 0.952680
vt 0.013492 0.952703
vt 0.013413 0.952708
vt 0.013338 0.952654
vt 0.013363 0.952630
vt 0.013300 0.952545
vt 0.013330 0.952535
vt 0.013325 0.952413
vt 0.013351 0.952436
vt 0.013416 0.952307
vt 0.013431 0.952329
vt 0.013510 0.952280
vt 0.013497 0.952316
vt 0.013565 0.952305
vt 0.013560 0.952333
vt 0.013610 0.952269
vt 0.013599 0.952296
vt 0.013674 0.952269
vt 0.013665 0.952309
vt 0.013773 0.952354
vt 0.013739 0.952370
vt 0.013824 0.952507
vt 0.013766 0.952510
vt 0.013797 0.952642
vt 0.013730 0.952699
vt 0.013638 0.952707
vt 0.859888 0.952085
vt 0.859254 0.953312
vt 0.858787 0.952793
vt 0.859489 0.951908
vt 0.859538 0.951149
vt 0.860049 0.951150
vt 0.013439 0.952641
vt 0.015681 0.982434
vt 0.015634 0.982419
vt 0.015633 0.982394
vt 0.015663 0.982388
vt 0.015686 0.982415
vt 0.295190 0.982172
vt 0.295979 0.982938
vt 0.295515 0.982824
vt 0.295214 0.982451
vt 0.327923 0.951809
vt 0.328134 0.951782
vt 0.328354 0.951894
vt 0.328575 0.952235
vt 0.328587 0.952453
vt 0.295499 0.982884
vt 0.295138 0.982435
vt 0.328108 0.951717
vt 0.328372 0.951851
vt 0.328638 0.952261
vt 0.296057 0.983021
vt 0.295110 0.982101
vt 0.327856 0.951750
vt 0.328652 0.952523
vt 0.013558 0.952646
vt 0.013752 0.952606
vt 0.013703 0.952669
vt 0.013623 0.952669
vt 0.013428 0.952677
vt 0.013439 0.952641
vt 0.013492 0.952634
vt 0.013489 0.952672
vt 0.015681 0.982434
vt 0.015658 0.982438
vt 0.015634 0.982419
vt 0.015633 0.982394
vt 0.015663 0.982388
vt 0.015686 0.982415
vt 0.859572 0.951965
vt 0.859818 0.952096
vt 0.859188 0.953182
vt 0.858985 0.952817
vt 0.859668 0.951057
vt 0.859868 0.951057
vt 0.013561 0.952680
vt 0.013492 0.952703
vt 0.013413 0.952708
vt 0.013338 0.952654
vt 0.013363 0.952630
vt 0.013300 0.952545
vt 0.013330 0.952535
vt 0.013325 0.952413
vt 0.013351 0.952436
vt 0.013416 0.952307
vt 0.013431 0.952329
vt 0.013510 0.952280
vt 0.013497 0.952316
vt 0.013565 0.952305
vt 0.013560 0.952333
vt 0.013610 0.952269
vt 0.013599 0.952296
vt 0.013674 0.952269
vt 0.013665 0.952309
vt 0.013773 0.952354
vt 0.013739 0.952370
vt 0.013824 0.952507
vt 0.013766 0.952510
vt 0.013797 0.952642
vt 0.013730 0.952699
vt 0.013638 0.952707
vt 0.013383 0.952598
vt 0.013380 0.952540
vt 0.013450 0.952527
vt 0.013502 0.952589
vt 0.859888 0.952085
vt 0.859254 0.953312
vt 0.858787 0.952793
vt 0.859489 0.951908
vt 0.859538 0.951149
vt 0.860049 0.951150
vt 0.295190 0.982172
vt 0.295979 0.982938
vt 0.295515 0.982824
vt 0.295214 0.982451
vt 0.327923 0.951809
vt 0.328134 0.951782
vt 0.328354 0.951894
vt 0.328575 0.952235
vt 0.328587 0.952453
vt 0.295499 0.982884
vt 0.295138 0.982435
vt 0.328108 0.951717
vt 0.328372 0.951851
vt 0.328638 0.952261
vt 0.296057 0.983021
vt 0.295110 0.982101
vt 0.327856 0.951750
vt 0.328652 0.952523
vn -0.000000 0.000000 -1.000000
vn 0.000000 0.000000 -1.000000
vn 0.000000 0.000000 -1.000000
vn -0.000000 0.000000 -1.000000
vn 0.000000 0.000000 -1.000000
vn 0.000000 0.000000 -1.000000
vn 0.000000 0.000000 -1.000000
vn -0.000000 0.000000 -1.000000
vn 0.000000 0.000000 -1.000000
vn 0.000000 0.000000 -1.000000
vn 0.000000 0.000000 -1.000000
vn -0.000000 0.000000 -1.000000
vn 0.000000 0.000000 -1.000000
vn 0.000000 0.000000 -1.000000
vn 0.000000 0.000000 -1.000000
vn 0.000000 0.000000 -1.000000
vn 0.000000 0.000000 -1.000000
vn 0.000000 0.000000 -1.000000
vn 0.000000 0.000000 -1.000000
vn 0.000000 0.000000 -1.000000
vn 0.298658 0.839530 -0.453864
vn 0.298658 0.839530 -0.453864
vn 0.298658 0.839530 -0.453864
vn 0.298658 0.839530 -0.453864
vn -0.485512 0.679405 -0.550170
vn -0.485512 0.679405 -0.550170
vn -0.485512 0.679405 -0.550170
vn -0.485512 0.679405 -0.550170
vn -0.786519 0.277226 -0.551845
vn -0.786519 0.277226 -0.551845
vn -0.786519 0.277226 -0.551845
vn -0.786519 0.277226 -0.551845
vn -0.828158 -0.161807 -0.536632
vn -0.828158 -0.161807 -0.536632
vn -0.828158 -0.161807 -0.536632
vn -0.828157 -0.161807 -0.536632
vn -0.655909 -0.527715 -0.539722
vn -0.655909 -0.527715 -0.539722
vn -0.655909 -0.527715 -0.539722
vn -0.655909 -0.527715 -0.539722
vn -0.211630 -0.839939 -0.499715
vn -0.211630 -0.839939 -0.499715
vn -0.211630 -0.839939 -0.499715
vn -0.211630 -0.839939 -0.499715
vn 0.301070 -0.809485 -0.504074
vn 0.301070 -0.809485 -0.504074
vn 0.301070 -0.809485 -0.504074
vn 0.301070 -0.809485 -0.504074
vn -0.522583 -0.732991 -0.435467
vn -0.522583 -0.732991 -0.435467
vn -0.522583 -0.732991 -0.435467
vn -0.522583 -0.732991 -0.435467
vn 0.062368 -0.826836 -0.558974
vn 0.062368 -0.826836 -0.558974
vn 0.062368 -0.826836 -0.558974
vn 0.062368 -0.826836 -0.558974
vn 0.552090 -0.649102 -0.523320
vn 0.552090 -0.649102 -0.523320
vn 0.552090 -0.649102 -0.523320
vn 0.552090 -0.649102 -0.523320
vn 0.774520 -0.207707 -0.597476
vn 0.774520 -0.207707 -0.597476
vn 0.774520 -0.207707 -0.597476
vn 0.774520 -0.207707 -0.597476
vn 0.751231 0.138461 -0.645354
vn 0.751231 0.138461 -0.645354
vn 0.751231 0.138460 -0.645354
vn 0.751231 0.138460 -0.645354
vn 0.562970 0.546540 -0.619967
vn 0.562970 0.546540 -0.619967
vn 0.562970 0.546540 -0.619967
vn 0.562970 0.546540 -0.619967
vn 0.045753 0.856459 -0.514184
vn 0.045753 0.856459 -0.514184
vn 0.045753 0.856459 -0.514184
vn 0.045753 0.856459 -0.514184
vn -0.290898 0.826823 -0.481397
vn -0.290898 0.826823 -0.481397
vn -0.290898 0.826823 -0.481397
vn -0.290898 0.826823 -0.481397
vn 0.065829 0.884087 -0.462663
vn 0.065829 0.884087 -0.462663
vn 0.065829 0.884087 -0.462663
vn 0.065829 0.884087 -0.462663
vn 0.000000 0.000000 -1.000000
vn 0.000000 0.000000 -1.000000
vn -0.000000 0.000000 -1.000000
vn 0.000000 0.000000 -1.000000
vn 0.000000 0.000000 -1.000000
vn 0.000000 0.000000 -1.000000
vn 0.000000 0.000000 -1.000000
vn 0.000000 0.000000 -1.000000
vn 0.000000 0.000000 -1.000000
vn 0.000000 0.000000 -1.000000
vn 0.000000 0.000000 -1.000000
vn 0.000000 0.000000 -1.000000
vn -0.000000 0.000000 -1.000000
vn 0.000000 0.000000 -1.000000
vn 0.000000 0.000000 -1.000000
vn 0.000000 0.000000 -1.000000
vn -0.000000 0.000000 -1.000000
vn -0.000000 0.000000 -1.000000
vn -0.000000 0.000000 -1.000000
vn 0.000000 0.000000 -1.000000
vn -0.000000 0.000000 -1.000000
vn 0.000000 0.000000 -1.000000
vn 0.000000 0.000000 -1.000000
vn 0.000000 0.000000 -1.000000
vn 0.000000 0.000000 -1.000000
vn 0.000000 0.000000 -1.000000
vn 0.000000 0.000000 -1.000000
vn 0.000000 0.000000 -1.000000
vn 0.000000 0.000000 -1.000000
vn 0.000000 0.000000 -1.000000
vn 0.000000 0.000000 -1.000000
vn 0.000000 0.000000 -1.000000
vn 0.000000 0.000000 -1.000000
vn 0.000000 0.000000 -1.000000
vn 0.000000 0.000000 -1.000000
vn 0.000000 0.000000 -1.000000
vn 0.851202 0.464954 -0.243462
vn 0.851202 0.464954 -0.243462
vn 0.851202 0.464954 -0.243462
vn 0.851202 0.464954 -0.243462
vn -0.726449 0.559233 -0.399413
vn -0.726449 0.559233 -0.399413
vn -0.726449 0.559233 -0.399413
vn -0.726449 0.559233 -0.399413
vn -0.738552 -0.548994 -0.391340
vn -0.738552 -0.548994 -0.391340
vn -0.738552 -0.548994 -0.391340
vn -0.738552 -0.548994 -0.391340
vn -0.926564 -0.080077 -0.367515
vn -0.926564 -0.080077 -0.367515
vn -0.926564 -0.080077 -0.367515
vn -0.926564 -0.080077 -0.367515
vn -0.000012 -0.947812 0.318829
vn -0.000012 -0.947812 0.318829
vn -0.000012 -0.947812 0.318829
vn -0.000012 -0.947812 0.318829
vn 0.945107 0.101420 -0.310624
vn 0.945107 0.101420 -0.310624
vn 0.945107 0.101420 -0.310624
vn 0.945107 0.101420 -0.310624
vn 0.000000 0.000000 -1.000000
vn 0.000000 0.000000 -1.000000
vn 0.000000 0.000000 -1.000000
vn 0.000000 0.000000 -1.000000
vn 0.000000 0.000000 -1.000000
vn 0.000000 0.000000 -1.000000
vn -0.000000 0.000000 -1.000000
vn -0.199959 0.817884 -0.539520
vn -0.199959 0.817884 -0.539520
vn -0.199959 0.817884 -0.539520
vn -0.199959 0.817884 -0.539520
vn -0.696024 0.557844 -0.452062
vn -0.696024 0.557844 -0.452062
vn -0.696024 0.557844 -0.452062
vn -0.696024 0.557844 -0.452062
vn -0.784905 0.064848 -0.616213
vn -0.784905 0.064848 -0.616213
vn -0.784905 0.064848 -0.616213
vn -0.784905 0.064848 -0.616213
vn -0.093712 -0.737708 -0.668585
vn -0.093712 -0.737708 -0.668585
vn -0.093712 -0.737708 -0.668585
vn -0.093712 -0.737708 -0.668585
vn 0.307011 -0.695845 -0.649264
vn 0.307011 -0.695845 -0.649264
vn 0.307011 -0.695845 -0.649264
vn 0.307011 -0.695845 -0.649264
vn 0.498335 -0.318335 -0.806427
vn 0.498335 -0.318335 -0.806427
vn 0.498335 -0.318335 -0.806427
vn 0.498335 -0.318335 -0.806427
vn 0.578436 0.073320 -0.812426
vn 0.578436 0.073320 -0.812426
vn 0.578436 0.073320 -0.812426
vn 0.578436 0.073320 -0.812426
vn -0.000000 0.000000 1.000000
vn -0.000000 0.000000 1.000000
vn 0.000000 0.000000 1.000000
vn 0.000000 0.000000 1.000000
vn 0.000000 0.000000 1.000000
vn -0.000000 0.000000 1.000000
vn 0.000000 0.000000 1.000000
vn 0.000000 0.000000 1.000000
vn 0.000000 0.000000 1.000000
vn 0.000000 0.000000 1.000000
vn 0.000000 0.000000 1.000000
vn 0.000000 0.000000 1.000000
vn 0.000000 0.000000 1.000000
vn 0.000000 0.000000 1.000000
vn 0.000000 0.000000 1.000000
vn 0.000000 0.000000 1.000000
vn 0.000000 0.000000 1.000000
vn 0.000000 0.000000 1.000000
vn 0.000000 0.000000 1.000000
vn 0.000000 0.000000 1.000000
vn 0.298658 0.839530 0.453864
vn 0.298658 0.839530 0.453864
vn 0.298658 0.839530 0.453864
vn 0.298658 0.839530 0.453864
vn -0.485512 0.679405 0.550170
vn -0.485512 0.679405 0.550170
vn -0.485512 0.679405 0.550170
vn -0.485512 0.679405 0.550170
vn -0.786519 0.277226 0.551845
vn -0.786519 0.277226 0.551845
vn -0.786519 0.277226 0.551845
vn -0.786519 0.277226 0.551845
vn -0.828158 -0.161807 0.536632
vn -0.828157 -0.161807 0.536632
vn -0.828158 -0.161807 0.536632
vn -0.828158 -0.161807 0.536632
vn -0.655909 -0.527715 0.539722
vn -0.655909 -0.527715 0.539722
vn -0.655909 -0.527715 0.539722
vn -0.655909 -0.527715 0.539722
vn -0.211630 -0.839939 0.499715
vn -0.211630 -0.839939 0.499715
vn -0.211630 -0.839939 0.499715
vn -0.211630 -0.839939 0.499715
vn 0.301070 -0.809485 0.504074
vn 0.301070 -0.809485 0.504074
vn 0.301070 -0.809485 0.504074
vn 0.301070 -0.809485 0.504074
vn -0.522583 -0.732991 0.435467
vn -0.522583 -0.732991 0.435467
vn -0.522583 -0.732991 0.435467
vn -0.522583 -0.732991 0.435467
vn 0.062368 -0.826836 0.558974
vn 0.062368 -0.826836 0.558974
vn 0.062368 -0.826836 0.558974
vn 0.062368 -0.826836 0.558974
vn 0.552090 -0.649102 0.523320
vn 0.552090 -0.649102 0.523320
vn 0.552090 -0.649102 0.523320
vn 0.552090 -0.649102 0.523320
vn 0.774520 -0.207707 0.597476
vn 0.774520 -0.207707 0.597476
vn 0.774520 -0.207707 0.597476
vn 0.774520 -0.207707 0.597476
vn 0.751231 0.138461 0.645354
vn 0.751231 0.138460 0.645354
vn 0.751231 0.138460 0.645354
vn 0.751231 0.138461 0.645354
vn 0.562970 0.546540 0.619967
vn 0.562970 0.546540 0.619967
vn 0.562970 0.546540 0.619967
vn 0.562970 0.546540 0.619967
vn 0.045753 0.856459 0.514184
vn 0.045753 0.856459 0.514184
vn 0.045753 0.856459 0.514184
vn 0.045753 0.856459 0.514184
vn -0.290898 0.826823 0.481396
vn -0.290898 0.826823 0.481396
vn -0.290898 0.826823 0.481396
vn -0.290898 0.826823 0.481396
vn 0.065829 0.884087 0.462663
vn 0.065829 0.884087 0.462663
vn 0.065829 0.884087 0.462663
vn 0.065829 0.884087 0.462663
vn 0.000000 0.000000 1.000000
vn 0.000000 0.000000 1.000000
vn -0.000000 0.000000 1.000000
vn 0.000000 0.000000 1.000000
vn 0.000000 0.000000 1.000000
vn 0.000000 0.000000 1.000000
vn 0.000000 0.000000 1.000000
vn 0.000000 0.000000 1.000000
vn -0.000000 0.000000 1.000000
vn 0.000000 0.000000 1.000000
vn 0.000000 0.000000 1.000000
vn 0.000000 0.000000 1.000000
vn -0.000000 0.000000 1.000000
vn 0.000000 0.000000 1.000000
vn 0.000000 0.000000 1.000000
vn 0.000000 0.000000 1.000000
vn -0.000000 0.000000 1.000000
vn 0.000000 0.000000 1.000000
vn -0.000000 0.000000 1.000000
vn -0.000000 0.000000 1.000000
vn -0.000000 0.000000 1.000000
vn 0.000000 0.000000 1.000000
vn 0.000000 0.000000 1.000000
vn -0.000000 0.000000 1.000000
vn -0.000000 0.000000 1.000000
vn 0.000000 0.000000 1.000000
vn -0.000000 0.000000 1.000000
vn -0.000000 0.000000 1.000000
vn -0.000000 0.000000 1.000000
vn -0.000000 0.000000 1.000000
vn 0.000000 0.000000 1.000000
vn 0.000000 0.000000 1.000000
vn -0.000000 0.000000 1.000000
vn -0.000000 0.000000 1.000000
vn 0.000000 0.000000 1.000000
vn 0.000000 0.000000 1.000000
vn 0.851202 0.464954 0.243462
vn 0.851202 0.464954 0.243462
vn 0.851202 0.464954 0.243462
vn 0.851202 0.464954 0.243462
vn -0.726449 0.559233 0.399413
vn -0.726449 0.559233 0.399413
vn -0.726449 0.559233 0.399413
vn -0.726449 0.559233 0.399413
vn -0.738552 -0.548994 0.391340
vn -0.738552 -0.548994 0.391340
vn -0.738552 -0.548994 0.391340
vn -0.738552 -0.548993 0.391340
vn -0.926564 -0.080077 0.367515
vn -0.926564 -0.080077 0.367515
vn -0.926564 -0.080077 0.367515
vn -0.926564 -0.080077 0.367515
vn -0.000012 -0.947812 -0.318828
vn -0.000012 -0.947812 -0.318828
vn -0.000012 -0.947812 -0.318828
vn -0.000012 -0.947812 -0.318828
vn 0.945107 0.101420 0.310624
vn 0.945107 0.101420 0.310624
vn 0.945107 0.101420 0.310624
vn 0.945107 0.101420 0.310624
vn 0.000000 0.000000 1.000000
vn 0.000000 0.000000 1.000000
vn 0.000000 0.000000 1.000000
vn 0.000000 0.000000 1.000000
vn 0.000000 0.000000 1.000000
vn 0.000000 0.000000 1.000000
vn 0.000000 0.000000 1.000000
vn 0.000000 0.000000 1.000000
vn -0.199959 0.817884 0.539521
vn -0.199959 0.817884 0.539521
vn -0.199958 0.817884 0.539521
vn -0.199959 0.817884 0.539521
vn -0.696024 0.557844 0.452062
vn -0.696024 0.557844 0.452062
vn -0.696024 0.557845 0.452062
vn -0.696024 0.557844 0.452062
vn -0.784905 0.064848 0.616213
vn -0.784905 0.064848 0.616213
vn -0.784905 0.064848 0.616213
vn -0.784905 0.064848 0.616213
vn -0.093712 -0.737708 0.668585
vn -0.093712 -0.737708 0.668585
vn -0.093712 -0.737708 0.668585
vn -0.093712 -0.737708 0.668585
vn 0.299010 -0.776759 0.554291
vn 0.299010 -0.776759 0.554291
vn 0.299010 -0.776759 0.554291
vn 0.299010 -0.776759 0.554291
vn 0.744149 -0.475360 0.469335
vn 0.744149 -0.475360 0.469335
vn 0.744149 -0.475360 0.469335
vn 0.744149 -0.475360 0.469335
vn 0.687896 0.203304 0.696755
vn 0.687896 0.203303 0.696755
vn 0.687896 0.203303 0.696755
vn 0.687896 0.203303 0.696755
vn 0.000000 0.000000 1.000000
vn -0.000000 0.000000 1.000000
vn 0.000000 0.000000 1.000000
vn 0.000000 0.000000 1.000000
vn 0.000000 0.000000 -1.000000
vn 0.000000 0.000000 -1.000000
vn 0.000000 0.000000 -1.000000
vn 0.000000 0.000000 -1.000000
vn -0.000000 0.000000 -1.000000
vn 0.000000 0.000000 -1.000000
vn 0.000000 0.000000 -1.000000
vn 0.000000 0.000000 -1.000000
vn 0.000000 0.000000 1.000000
vn 0.000000 0.000000 1.000000
vn 0.000000 0.000000 1.000000
s off
f 24/1/1 44/4/2 43/3/3 42/2/4
f 31/5/5 23/8/6 25/7/7 30/51/8
f 25/52/9 28/54/10 29/53/11 30/6/12
f 46/13/13 48/16/14 47/15/15 45/14/16
f 45/14/17 50/18/18 49/17/19 46/13/20
f 2/19/21 24/1/22 23/8/23 14/20/24
f 13/21/25 31/5/26 32/23/27 12/22/28
f 12/22/29 32/23/30 33/25/31 11/24/32
f 11/24/33 33/25/34 34/27/35 10/26/36
f 10/26/37 34/27/38 35/29/39 9/28/40
f 9/28/41 35/29/42 36/31/43 15/30/44
f 15/30/45 36/31/46 37/33/47 17/32/48
f 17/32/49 37/33/50 38/35/51 16/34/52
f 16/34/53 38/35/54 39/37/55 8/36/56
f 8/36/57 39/37/58 40/39/59 7/38/60
f 7/38/61 40/39/62 41/41/63 6/40/64
f 6/40/65 41/41/66 42/2/67 5/42/68
f 5/42/69 42/2/70 43/3/71 4/43/72
f 4/43/73 43/3/74 44/4/75 3/44/76
f 3/44/77 44/4/78 24/1/79 2/19/80
f 14/20/81 23/8/82 31/5/83 13/21/84
f 32/23/85 31/5/86 30/51/87 29/9/88
f 33/25/89 32/23/90 29/9/91 28/10/92
f 34/27/93 33/25/94 28/10/95 27/11/96
f 24/1/97 26/12/98 25/7/99 23/8/100
f 24/1/101 42/2/102 41/41/103 26/12/104
f 41/41/105 40/39/106 27/11/107 26/12/108
f 40/39/109 37/33/110 34/27/111 27/11/112
f 40/39/113 39/37/114 38/35/115 37/33/116
f 37/33/117 36/31/118 35/29/119 34/27/120
f 1/45/121 45/14/122 47/15/123 19/46/124
f 19/46/125 47/15/126 48/16/127 18/47/128
f 18/47/129 48/16/130 46/13/131 20/48/132
f 20/48/133 46/13/134 49/17/135 22/49/136
f 22/49/137 49/17/138 50/18/139 21/50/140
f 21/50/141 50/18/142 45/14/143 1/45/144
f 58/57/145 61/60/146 60/59/147 59/58/148
f 58/61/149 59/65/150 62/62/151
f 52/71/152 59/58/153 60/59/154 51/66/155
f 51/66/156 60/59/157 61/60/158 56/67/159
f 56/67/160 61/60/161 58/57/162 57/72/163
f 57/73/164 58/61/165 62/62/166 55/68/167
f 55/68/168 62/62/169 63/63/170 54/69/171
f 54/69/172 63/63/173 64/64/174 53/70/175
f 53/70/176 64/64/177 59/65/178 52/74/179
f 66/75/180 84/76/181 85/77/182 86/78/183
f 73/79/184 72/80/185 67/81/186 65/82/187
f 67/83/188 70/86/189 69/87/190 68/88/191
f 88/89/192 87/90/193 89/91/194 90/92/195
f 87/90/196 88/89/197 91/93/198 92/94/199
f 2/95/200 14/96/201 65/82/202 66/75/203
f 13/97/204 12/98/205 74/99/206 73/79/207
f 12/98/208 11/100/209 75/101/210 74/99/211
f 11/100/212 10/102/213 76/103/214 75/101/215
f 10/102/216 9/104/217 77/105/218 76/103/219
f 9/104/220 15/106/221 78/107/222 77/105/223
f 15/106/224 17/108/225 79/109/226 78/107/227
f 17/108/228 16/110/229 80/111/230 79/109/231
f 16/110/232 8/112/233 81/113/234 80/111/235
f 8/112/236 7/114/237 82/115/238 81/113/239
f 7/114/240 6/116/241 83/117/242 82/115/243
f 6/116/244 5/118/245 84/76/246 83/117/247
f 5/118/248 4/119/249 85/77/250 84/76/251
f 4/119/252 3/120/253 86/78/254 85/77/255
f 3/120/256 2/95/257 66/75/258 86/78/259
f 14/96/260 13/97/261 73/79/262 65/82/263
f 74/99/264 71/121/265 72/80/266 73/79/267
f 75/101/268 70/122/269 71/121/270 74/99/271
f 76/103/272 69/123/273 70/122/274 75/101/275
f 66/75/276 65/82/277 67/81/278 68/124/279
f 66/75/280 68/124/281 83/117/282 84/76/283
f 83/117/284 68/124/285 69/123/286 82/115/287
f 82/115/288 69/123/289 76/103/290 79/109/291
f 82/115/292 79/109/293 80/111/294 81/113/295
f 79/109/296 76/103/297 77/105/298 78/107/299
f 1/125/300 19/126/301 89/91/302 87/90/303
f 19/126/304 18/127/305 90/92/306 89/91/307
f 18/127/308 20/128/309 88/89/310 90/92/311
f 20/128/312 22/129/313 91/93/314 88/89/315
f 22/129/316 21/130/317 92/94/318 91/93/319
f 21/130/320 1/125/321 87/90/322 92/94/323
f 93/131/324 94/132/325 95/133/326 96/134/327
f 94/139/328 97/136/329 98/137/330 99/138/331
f 52/145/332 51/140/333 95/133/334 94/132/335
f 51/140/336 56/141/337 96/134/338 95/133/339
f 56/141/340 57/146/341 93/131/342 96/134/343
f 57/147/344 55/142/345 97/136/346 93/135/347
f 55/142/348 54/143/349 98/137/350 97/136/351
f 54/143/352 53/144/353 99/138/354 98/137/355
f 53/144/356 52/148/357 94/139/358 99/138/359
f 67/83/360 72/84/361 71/85/362 70/86/363
f 25/52/364 26/56/365 27/55/366 28/54/367
f 62/62/368 59/65/369 64/64/370 63/63/371
f 93/135/372 97/136/373 94/139/374
