# This file uses centimeters as units for non-parametric coordinates.

v -2.399760 17.617029 -0.000000
v 2.399760 17.617029 -0.000000
v 2.399760 2.399760 0.000000
v -2.399760 2.399760 0.000000
v -2.399759 -2.399760 0.000000
v 2.399761 -2.399760 0.000000
v 2.399761 -17.617031 0.000000
v -2.399759 -17.617031 0.000000
v -17.590702 -2.399760 0.000000
v -17.590702 2.399760 0.000000
v 17.590702 2.399760 0.000000
v 17.590702 -2.399760 0.000000
v 1.499761 17.617023 2.000002
v -1.499759 17.617023 2.000002
v -1.499759 1.499760 2.000002
v 1.499761 1.499760 2.000002
v 1.499760 -1.499760 2.000000
v 17.590694 -1.499760 2.000000
v 17.590694 1.499760 2.000000
v -1.254749 -1.154522 2.000000
v -17.590694 1.049078 2.000000
v -17.590694 -1.499760 2.000000
v -1.499760 -17.617023 2.000000
v 1.499760 -17.617023 2.000000
v -2.399760 6.968468 0.000000
v 2.399760 9.468909 -0.000000
v -1.334223 7.137490 2.000002
v 1.334225 9.215587 2.000002
v 10.416857 -2.399760 0.000000
v 9.190310 -1.147817 2.000000
v 1.499761 17.617023 -2.000002
v -1.499759 17.617023 -2.000002
v -1.499759 1.499760 -2.000002
v 1.499761 1.499760 -2.000002
v 1.499760 -1.499760 -2.000000
v 17.590694 -1.499760 -2.000000
v 17.590694 1.499760 -2.000000
v -1.254749 -1.154522 -2.000000
v -17.590694 1.049078 -2.000000
v -17.590694 -1.499760 -2.000000
v -1.499760 -17.617023 -2.000000
v 1.499760 -17.617023 -2.000000
v -1.334223 7.137490 -2.000002
v 1.334225 9.215587 -2.000002
v 9.190310 -1.147817 -2.000000
v -20.000000 -20.000000 -0.000000
v 20.000000 -20.000000 -0.000000
v -20.000000 20.000000 -0.000000
v 20.000000 20.000000 0.000000
v -14.697007 14.697007 0.000000
v -14.697007 -14.697007 0.000000
v 14.697007 -14.697007 -0.000000
v 14.697007 14.697007 -0.000000
v -19.057655 19.057655 4.000000
v -19.057655 -19.057655 4.000000
v -15.963781 -15.963781 4.000000
v -15.963781 15.963781 4.000000
v 19.057655 -19.057655 4.000000
v 15.963781 -15.963781 4.000000
v 19.057655 18.659893 4.000000
v 15.963781 15.963781 4.000000
v 14.697007 4.254107 -0.000000
v 16.335115 3.058820 4.000000
v -20.000000 -9.555559 -0.000000
v -18.582586 -8.919859 4.000000
v -2.817234 -20.000000 0.000000
v -6.273689 -14.697006 -0.000000
v -3.076363 -18.826881 4.000000
v -5.666623 -16.194555 4.000000
v -19.057655 19.057655 -4.000000
v -19.057655 -19.057655 -4.000000
v -15.963781 -15.963781 -4.000000
v -15.963781 15.963781 -4.000000
v 19.057655 -19.057655 -4.000000
v 15.963781 -15.963781 -4.000000
v 19.057655 18.659893 -4.000000
v 15.963781 15.963781 -4.000000
v 16.335115 3.058820 -4.000000
v -18.582586 -8.919859 -4.000000
v -3.076363 -18.826881 -4.000000
v -5.666623 -16.194555 -4.000000
vt 0.890341 0.857297
vt 0.889905 0.857851
vt 0.890459 0.857733
vt 0.890894 0.857733
vt 0.890458 0.857853
vt 0.890457 0.858289
vt 0.890340 0.857733
vt 0.889905 0.857733
vt 0.890460 0.857296
vt 0.890894 0.857853
vt 0.890340 0.857851
vt 0.890339 0.858288
vt 0.890341 0.857297
vt 0.890460 0.857296
vt 0.890459 0.857733
vt 0.890340 0.857733
vt 0.890340 0.857851
vt 0.889905 0.857851
vt 0.889905 0.857733
vt 0.890894 0.857733
vt 0.890894 0.857853
vt 0.890458 0.857853
vt 0.890457 0.858289
vt 0.890339 0.858288
vt 0.890459 0.857602
vt 0.890341 0.857531
vt 0.890459 0.857573
vt 0.890341 0.857531
vt 0.890110 0.857851
vt 0.890132 0.857851
vt 0.890341 0.857297
vt 0.890460 0.857296
vt 0.890459 0.857573
vt 0.890341 0.857531
vt 0.890340 0.857733
vt 0.890340 0.857851
vt 0.890132 0.857851
vt 0.890458 0.857853
vt 0.890459 0.857733
vt 0.890894 0.857733
vt 0.890894 0.857853
vt 0.890457 0.858289
vt 0.890339 0.858288
vt 0.890460 0.857296
vt 0.890459 0.857602
vt 0.890340 0.857733
vt 0.890341 0.857531
vt 0.890340 0.857851
vt 0.890110 0.857851
vt 0.889905 0.857733
vt 0.889905 0.857733
vt 0.890459 0.857733
vt 0.890894 0.857733
vt 0.890894 0.857853
vt 0.890458 0.857853
vt 0.890457 0.858289
vt 0.890339 0.858288
vt 0.890341 0.857297
vt 0.889905 0.857851
vt 0.889905 0.857851
vt 0.890896 0.857293
vt 0.890893 0.858027
vt 0.890892 0.858293
vt 0.890896 0.857293
vt 0.890892 0.858293
vt 0.890485 0.858289
vt 0.890564 0.858290
vt 0.889904 0.858284
vt 0.889906 0.857300
vt 0.889906 0.857300
vt 0.889905 0.857697
vt 0.890896 0.857293
vt 0.890893 0.858032
vt 0.890892 0.858293
vt 0.890896 0.857293
vt 0.890892 0.858293
vt 0.890468 0.858289
vt 0.889904 0.858284
vt 0.890609 0.858291
vt 0.889904 0.858284
vt 0.889904 0.858284
vt 0.889906 0.857300
vt 0.889906 0.857300
vt 0.889905 0.857649
vt 0.890896 0.857293
vt 0.890896 0.857293
vt 0.890892 0.858293
vt 0.890893 0.858027
vt 0.890892 0.858293
vt 0.890564 0.858290
vt 0.890485 0.858289
vt 0.889904 0.858284
vt 0.889905 0.857697
vt 0.889906 0.857300
vt 0.889906 0.857300
vt 0.890896 0.857293
vt 0.890893 0.858032
vt 0.890892 0.858293
vt 0.890896 0.857293
vt 0.890892 0.858293
vt 0.890468 0.858289
vt 0.889904 0.858284
vt 0.889904 0.858284
vt 0.890609 0.858291
vt 0.889904 0.858284
vt 0.889906 0.857300
vt 0.889906 0.857300
vt 0.889905 0.857649
vn 0.000000 0.000000 1.000000
vn 0.000000 0.000000 1.000000
vn 0.000000 0.000000 1.000000
vn 0.000000 0.000000 1.000000
vn 0.000000 -0.000001 1.000000
vn 0.000000 -0.000001 1.000000
vn 0.000000 -0.000001 1.000000
vn -0.000000 -0.000000 1.000000
vn -0.000000 -0.000000 1.000000
vn -0.000000 -0.000000 1.000000
vn -0.000000 -0.000000 1.000000
vn 0.000000 0.000000 1.000000
vn 0.000000 0.000000 1.000000
vn 0.000000 0.000000 1.000000
vn 0.000000 0.000000 1.000000
vn -0.000000 -0.000001 1.000000
vn -0.000000 -0.000001 1.000000
vn -0.000000 -0.000001 1.000000
vn -0.000000 -0.000001 1.000000
vn -0.897359 -0.007031 0.441245
vn -0.897359 -0.007031 0.441245
vn -0.897359 -0.007031 0.441245
vn -0.897359 -0.007031 0.441245
vn 0.896306 0.010035 0.443323
vn 0.896306 0.010035 0.443323
vn 0.896306 0.010035 0.443323
vn 0.896306 0.010035 0.443323
vn 0.019629 -0.876085 0.481757
vn 0.019629 -0.876085 0.481757
vn 0.019629 -0.876085 0.481757
vn 0.019629 -0.876085 0.481757
vn 0.000000 0.911922 0.410365
vn 0.000000 0.911922 0.410365
vn 0.000000 0.911922 0.410365
vn 0.000000 0.911922 0.410365
vn -0.012538 0.870235 0.492477
vn -0.012538 0.870235 0.492477
vn -0.012538 0.870235 0.492477
vn -0.012538 0.870235 0.492477
vn 0.009662 -0.882370 0.470458
vn 0.009662 -0.882370 0.470458
vn 0.009662 -0.882370 0.470458
vn 0.009662 -0.882370 0.470458
vn -0.891230 0.006893 0.453498
vn -0.891230 0.006893 0.453498
vn -0.891230 0.006893 0.453498
vn -0.891230 0.006893 0.453498
vn 0.911921 0.000000 0.410365
vn 0.911921 0.000000 0.410365
vn 0.911921 0.000000 0.410365
vn 0.911921 0.000000 0.410365
vn 0.000000 0.000000 1.000000
vn 0.000000 0.000000 1.000000
vn 0.000000 0.000000 1.000000
vn 0.000000 0.000000 1.000000
vn -0.896350 0.014538 0.443109
vn -0.896350 0.014538 0.443109
vn -0.896350 0.014538 0.443109
vn -0.896350 0.014538 0.443109
vn 0.897688 -0.008979 0.440540
vn 0.897688 -0.008979 0.440540
vn 0.897688 -0.008979 0.440540
vn 0.897688 -0.008979 0.440540
vn -0.019954 -0.883011 0.468929
vn -0.019954 -0.883011 0.468929
vn -0.019954 -0.883011 0.468929
vn -0.019954 -0.883011 0.468929
vn 0.000000 -0.000000 1.000000
vn 0.000000 -0.000000 1.000000
vn 0.000000 -0.000000 1.000000
vn 0.000000 -0.000000 1.000000
vn 0.000000 0.000000 -1.000000
vn 0.000000 0.000000 -1.000000
vn 0.000000 0.000000 -1.000000
vn 0.000000 0.000000 -1.000000
vn 0.000000 -0.000001 -1.000000
vn 0.000000 -0.000001 -1.000000
vn 0.000000 -0.000001 -1.000000
vn -0.000000 -0.000000 -1.000000
vn -0.000000 -0.000000 -1.000000
vn -0.000000 -0.000000 -1.000000
vn -0.000000 -0.000000 -1.000000
vn 0.000000 0.000000 -1.000000
vn 0.000000 0.000000 -1.000000
vn 0.000000 0.000000 -1.000000
vn 0.000000 0.000000 -1.000000
vn -0.000000 -0.000001 -1.000000
vn -0.000000 -0.000001 -1.000000
vn -0.000000 -0.000001 -1.000000
vn -0.000000 -0.000001 -1.000000
vn -0.897359 -0.007031 -0.441245
vn -0.897359 -0.007031 -0.441245
vn -0.897359 -0.007031 -0.441245
vn -0.897359 -0.007031 -0.441245
vn 0.896306 0.010035 -0.443323
vn 0.896306 0.010035 -0.443323
vn 0.896306 0.010035 -0.443323
vn 0.896306 0.010035 -0.443323
vn 0.019629 -0.876085 -0.481757
vn 0.019629 -0.876085 -0.481757
vn 0.019629 -0.876085 -0.481757
vn 0.019629 -0.876085 -0.481757
vn 0.000000 0.911922 -0.410365
vn 0.000000 0.911922 -0.410365
vn 0.000000 0.911922 -0.410365
vn 0.000000 0.911922 -0.410365
vn -0.012538 0.870235 -0.492477
vn -0.012538 0.870235 -0.492477
vn -0.012538 0.870235 -0.492477
vn -0.012538 0.870235 -0.492477
vn 0.009662 -0.882370 -0.470458
vn 0.009662 -0.882370 -0.470458
vn 0.009662 -0.882370 -0.470458
vn 0.009662 -0.882370 -0.470458
vn -0.891230 0.006893 -0.453498
vn -0.891230 0.006893 -0.453498
vn -0.891230 0.006893 -0.453498
vn -0.891230 0.006893 -0.453498
vn 0.911921 0.000000 -0.410365
vn 0.911921 0.000000 -0.410365
vn 0.911921 0.000000 -0.410365
vn 0.911921 0.000000 -0.410365
vn 0.000000 0.000000 -1.000000
vn 0.000000 0.000000 -1.000000
vn 0.000000 0.000000 -1.000000
vn 0.000000 0.000000 -1.000000
vn -0.896350 0.014538 -0.443109
vn -0.896350 0.014538 -0.443109
vn -0.896350 0.014538 -0.443109
vn -0.896350 0.014538 -0.443109
vn 0.897688 -0.008979 -0.440540
vn 0.897688 -0.008979 -0.440540
vn 0.897688 -0.008979 -0.440540
vn 0.897688 -0.008979 -0.440540
vn -0.019954 -0.883011 -0.468929
vn -0.019954 -0.883011 -0.468929
vn -0.019954 -0.883011 -0.468929
vn -0.019954 -0.883011 -0.468929
vn 0.000000 -0.000000 -1.000000
vn 0.000000 -0.000000 -1.000000
vn 0.000000 -0.000000 -1.000000
vn 0.000000 -0.000000 -1.000000
vn 0.000000 0.000000 1.000000
vn 0.000000 0.000000 1.000000
vn 0.000000 0.000000 1.000000
vn 0.000000 0.000000 1.000000
vn 0.000000 0.000000 1.000000
vn 0.000000 0.000000 1.000000
vn 0.000000 0.000000 1.000000
vn 0.000000 0.000000 1.000000
vn -0.000000 0.000000 1.000000
vn -0.000000 0.000000 1.000000
vn -0.000000 0.000000 1.000000
vn -0.000000 0.000000 1.000000
vn -0.000000 0.000000 1.000000
vn 0.000000 0.000000 1.000000
vn 0.000000 0.000000 1.000000
vn -0.000000 0.000000 1.000000
vn -0.959196 -0.007920 0.282630
vn -0.959558 0.001157 0.281509
vn -0.959476 -0.001098 0.281790
vn -0.959196 -0.007920 0.282630
vn 0.953335 0.000000 0.301915
vn 0.953335 0.000000 0.301915
vn 0.953335 0.000000 0.301915
vn 0.953335 0.000000 0.301915
vn 0.006958 -0.999976 0.000000
vn -0.000232 -1.000000 0.000000
vn 0.000226 -0.966936 0.255020
vn 0.006728 -0.966890 0.255103
vn -0.005118 0.944782 0.327659
vn 0.000662 0.944820 0.327590
vn -0.000628 0.944814 0.327607
vn -0.005118 0.944782 0.327659
vn 1.000000 0.000000 -0.000000
vn 1.000000 0.000000 -0.000000
vn 0.973354 0.000000 0.229309
vn 0.973354 0.000000 0.229309
vn -0.939804 -0.014947 0.341386
vn -0.939444 -0.002038 0.342696
vn -0.939303 0.001899 0.343084
vn -0.939804 -0.014947 0.341386
vn 0.004897 0.961616 0.274355
vn 0.004897 0.961616 0.274355
vn 0.004897 0.961616 0.274355
vn 0.004897 0.961616 0.274355
vn 0.000000 -0.953335 0.301915
vn 0.000000 -0.953335 0.301915
vn 0.000000 -0.953335 0.301915
vn 0.000000 -0.953335 0.301915
vn -0.939303 0.001899 0.343084
vn -0.939444 -0.002038 0.342696
vn -0.939003 0.009182 0.343787
vn -0.939003 0.009182 0.343787
vn -0.000000 0.000000 1.000000
vn -0.000000 0.000000 1.000000
vn 0.000000 0.000000 1.000000
vn -0.959476 -0.001098 0.281790
vn -0.959558 0.001157 0.281509
vn -0.960086 0.022160 0.278825
vn -0.960086 0.022160 0.278825
vn 0.000000 0.000000 1.000000
vn 0.000000 0.000000 1.000000
vn 0.000000 0.000000 1.000000
vn 0.000000 0.000000 1.000000
vn 0.000000 0.000000 1.000000
vn -0.000000 0.000000 1.000000
vn 0.000000 0.000000 1.000000
vn 0.000226 -0.966936 0.255020
vn -0.000232 -1.000000 0.000000
vn -0.005134 -0.999987 -0.000000
vn -0.004964 -0.966943 0.254946
vn -0.000628 0.944814 0.327607
vn 0.000662 0.944820 0.327590
vn 0.011647 0.944804 0.327428
vn 0.011647 0.944804 0.327428
vn -0.000000 0.000000 -1.000000
vn -0.000000 0.000000 -1.000000
vn -0.000000 0.000000 -1.000000
vn -0.000000 0.000000 -1.000000
vn 0.000000 0.000000 -1.000000
vn -0.000000 0.000000 -1.000000
vn 0.000000 0.000000 -1.000000
vn 0.000000 0.000000 -1.000000
vn 0.000000 0.000000 -1.000000
vn 0.000000 0.000000 -1.000000
vn 0.000000 0.000000 -1.000000
vn 0.000000 0.000000 -1.000000
vn 0.000000 0.000000 -1.000000
vn 0.000000 0.000000 -1.000000
vn -0.000000 0.000000 -1.000000
vn -0.000000 0.000000 -1.000000
vn -0.959196 -0.007920 -0.282630
vn -0.959196 -0.007920 -0.282630
vn -0.959476 -0.001098 -0.281790
vn -0.959558 0.001157 -0.281509
vn 0.953335 -0.000000 -0.301915
vn 0.953335 -0.000000 -0.301915
vn 0.953335 -0.000000 -0.301915
vn 0.953335 -0.000000 -0.301915
vn 0.006958 -0.999976 0.000000
vn 0.006728 -0.966890 -0.255103
vn 0.000226 -0.966936 -0.255020
vn -0.000232 -1.000000 0.000000
vn -0.005118 0.944782 -0.327660
vn -0.005118 0.944782 -0.327660
vn -0.000628 0.944814 -0.327607
vn 0.000662 0.944820 -0.327590
vn 1.000000 0.000000 -0.000000
vn 0.973354 0.000000 -0.229309
vn 0.973354 0.000000 -0.229309
vn 1.000000 0.000000 -0.000000
vn -0.939804 -0.014947 -0.341386
vn -0.939804 -0.014947 -0.341386
vn -0.939303 0.001899 -0.343084
vn -0.939444 -0.002038 -0.342696
vn 0.004897 0.961616 -0.274355
vn 0.004897 0.961616 -0.274355
vn 0.004897 0.961616 -0.274355
vn 0.004897 0.961616 -0.274355
vn 0.000000 -0.953335 -0.301915
vn 0.000000 -0.953335 -0.301915
vn 0.000000 -0.953335 -0.301915
vn 0.000000 -0.953335 -0.301915
vn -0.939303 0.001899 -0.343084
vn -0.939003 0.009182 -0.343787
vn -0.939003 0.009182 -0.343787
vn -0.939444 -0.002038 -0.342696
vn 0.000000 0.000000 -1.000000
vn 0.000000 0.000000 -1.000000
vn 0.000000 0.000000 -1.000000
vn -0.959476 -0.001098 -0.281790
vn -0.960086 0.022160 -0.278825
vn -0.960086 0.022160 -0.278825
vn -0.959558 0.001157 -0.281509
vn -0.000000 0.000000 -1.000000
vn 0.000000 0.000000 -1.000000
vn -0.000000 0.000000 -1.000000
vn 0.000000 0.000000 -1.000000
vn 0.000000 0.000000 -1.000000
vn 0.000000 0.000000 -1.000000
vn 0.000000 0.000000 -1.000000
vn 0.000226 -0.966936 -0.255020
vn -0.004964 -0.966943 -0.254946
vn -0.005134 -0.999987 -0.000000
vn -0.000232 -1.000000 0.000000
vn -0.000628 0.944814 -0.327607
vn 0.011647 0.944804 -0.327429
vn 0.011647 0.944804 -0.327429
vn 0.000662 0.944820 -0.327590
s off
f 13/13/1 14/14/2 27/27/3 28/28/4
f 16/16/5 17/17/6 30/30/7
f 20/22/8 15/15/9 21/20/10 22/21/11
f 17/17/12 20/22/13 23/23/14 24/24/15
f 16/16/16 15/15/17 20/22/18 17/17/19
f 1/9/20 25/25/21 27/27/22 14/14/23
f 3/7/24 26/26/25 28/28/26 16/16/27
f 6/11/28 29/29/29 30/30/30 17/17/31
f 11/8/32 3/7/33 16/16/34 19/19/35
f 4/3/36 10/4/37 21/20/38 15/15/39
f 9/10/40 5/5/41 20/22/42 22/21/43
f 5/5/44 8/6/45 23/23/46 20/22/47
f 7/12/48 6/11/49 17/17/50 24/24/51
f 28/28/52 27/27/53 15/15/54 16/16/55
f 27/27/56 25/25/57 4/3/58 15/15/59
f 28/28/60 26/26/61 2/1/62 13/13/63
f 30/30/64 29/29/65 12/2/66 18/18/67
f 16/16/68 30/30/69 18/18/70 19/19/71
f 31/31/72 44/34/73 43/33/74 32/32/75
f 34/35/76 45/37/77 35/36/78
f 38/38/79 40/41/80 39/40/81 33/39/82
f 35/36/83 42/43/84 41/42/85 38/38/86
f 34/35/87 35/36/88 38/38/89 33/39/90
f 1/44/91 32/32/92 43/33/93 25/45/94
f 3/46/95 34/35/96 44/34/97 26/47/98
f 6/48/99 35/36/100 45/37/101 29/49/102
f 11/50/103 37/51/104 34/35/105 3/46/106
f 4/52/107 33/39/108 39/40/109 10/53/110
f 9/54/111 40/41/112 38/38/113 5/55/114
f 5/55/115 38/38/116 41/42/117 8/56/118
f 7/57/119 42/43/120 35/36/121 6/48/122
f 44/34/123 34/35/124 33/39/125 43/33/126
f 43/33/127 33/39/128 4/52/129 25/45/130
f 44/34/131 31/31/132 2/58/133 26/47/134
f 45/37/135 36/60/136 12/59/137 29/49/138
f 34/35/139 37/51/140 36/60/141 45/37/142
f 54/61/143 65/62/144 56/63/145 57/64/146
f 55/65/147 68/66/148 69/67/149 56/63/150
f 58/68/151 60/69/152 61/70/153 63/71/154
f 60/69/155 54/61/156 57/64/157 61/70/158
f 48/72/159 64/73/160 65/62/161 54/61/162
f 51/74/163 50/75/164 57/64/165 56/63/166
f 46/76/167 66/77/168 68/66/169 55/65/170
f 52/78/171 67/79/172 69/67/173 59/80/174
f 47/81/175 49/82/176 60/69/177 58/68/178
f 53/83/179 62/84/180 63/71/181 61/70/182
f 49/82/183 48/72/184 54/61/185 60/69/186
f 50/75/187 53/83/188 61/70/189 57/64/190
f 63/71/191 62/84/192 52/78/193 59/80/194
f 58/68/195 63/71/196 59/80/197
f 65/62/198 64/73/199 46/76/200 55/65/201
f 56/63/202 65/62/203 55/65/204
f 69/67/205 68/66/206 58/68/207 59/80/208
f 68/66/209 66/77/210 47/81/211 58/68/212
f 69/67/213 67/79/214 51/74/215 56/63/216
f 70/85/217 73/86/218 72/87/219 79/88/220
f 71/89/221 72/87/222 81/90/223 80/91/224
f 74/92/225 78/93/226 77/94/227 76/95/228
f 76/95/229 77/94/230 73/86/231 70/85/232
f 48/96/233 70/85/234 79/88/235 64/97/236
f 51/98/237 72/87/238 73/86/239 50/99/240
f 46/100/241 71/89/242 80/91/243 66/101/244
f 52/102/245 75/103/246 81/90/247 67/104/248
f 47/105/249 74/92/250 76/95/251 49/106/252
f 53/107/253 77/94/254 78/93/255 62/108/256
f 49/106/257 76/95/258 70/85/259 48/96/260
f 50/99/261 73/86/262 77/94/263 53/107/264
f 78/93/265 75/103/266 52/102/267 62/108/268
f 74/92/269 75/103/270 78/93/271
f 79/88/272 71/89/273 46/100/274 64/97/275
f 72/87/276 71/89/277 79/88/278
f 81/90/279 75/103/280 74/92/281 80/91/282
f 80/91/283 74/92/284 47/105/285 66/101/286
f 81/90/287 72/87/288 51/98/289 67/104/290
