# This file uses centimeters as units for non-parametric coordinates.

v -0.208508 19.352203 -0.000000
v -5.605347 18.192253 -0.000000
v -9.186485 15.633907 0.000000
v -11.151535 13.095314 0.000000
v -12.149796 11.188822 -0.000000
v -4.817001 5.765745 -0.000000
v -3.758209 7.570316 -0.000000
v -2.419266 9.049513 -0.000000
v -0.525265 9.762386 0.000000
v 1.373531 9.012625 0.000000
v 1.950325 6.871403 0.000000
v 1.355774 4.486561 0.000000
v -0.375141 3.527617 -0.000000
v -3.566643 3.527617 -0.000000
v -3.566643 -4.665884 0.000000
v -0.375141 -4.665884 -0.000000
v 1.355774 -5.624828 0.000000
v 1.950325 -8.009669 0.000000
v 1.373531 -10.150890 0.000000
v -0.525265 -10.900652 0.000000
v -2.419266 -10.187778 -0.000000
v -3.758209 -8.708583 -0.000000
v -4.817001 -6.904011 0.000000
v -12.149796 -12.327089 0.000000
v -11.151535 -14.233580 -0.000000
v -9.186485 -16.772175 -0.000000
v -5.605305 -19.330547 -0.000000
v -0.206604 -20.490356 -0.000000
v 7.011246 -18.791153 0.000000
v 10.988541 -14.380070 0.000000
v 12.149796 -8.657317 0.000000
v 10.760483 -2.580665 0.000000
v 9.037254 -0.560638 0.000000
v 10.782219 1.537905 -0.000000
v 12.149521 7.621435 0.000000
v 10.987541 13.319374 0.000000
v 7.006683 17.681110 -0.000000
v -0.668553 16.841520 4.000000
v -4.291923 16.015278 4.000000
v -8.013190 14.069269 4.000000
v -9.734041 11.775046 4.000000
v -9.109241 11.745946 4.000000
v -5.522748 9.068541 4.000000
v -5.515088 8.779664 4.000000
v -3.436921 10.773320 4.000000
v -0.739143 11.675175 4.000000
v 2.573979 10.171844 4.000000
v 4.069281 6.603984 4.000000
v 3.286460 2.952964 4.000000
v 0.421957 1.301867 4.000000
v -1.492916 1.817920 4.000000
v -1.691975 -2.344500 4.000000
v 0.097964 -3.090035 4.000000
v 3.438712 -4.472167 4.000000
v 4.389367 -8.284992 4.000000
v 2.807118 -11.398830 4.000000
v -0.741392 -12.599551 4.000000
v -3.189316 -11.865917 4.000000
v -5.381368 -9.580499 4.000000
v -5.004804 -9.902168 4.000000
v -9.423610 -13.153284 4.000000
v -9.132154 -13.246785 4.000000
v -7.418377 -15.038856 4.000000
v -5.069047 -17.949846 4.000000
v 0.137055 -18.460634 4.000000
v 5.653733 -17.012943 4.000000
v 9.209937 -13.651610 4.000000
v 10.185060 -8.704882 4.000000
v 8.609526 -3.770058 4.000000
v 6.623828 -0.529552 4.000000
v 9.048697 2.220202 4.000000
v 9.998441 7.603388 4.000000
v 9.451727 11.986232 4.000000
v 6.257033 15.394060 4.000000
v -0.707562 17.165720 -4.000000
v -4.635884 15.972113 -4.000000
v -7.300240 14.413856 -4.000000
v -9.735922 11.978557 -4.000000
v -9.290256 11.602593 -4.000000
v -5.257489 8.796201 -4.000000
v -5.010599 9.205932 -4.000000
v -3.214035 10.447106 -4.000000
v -0.108510 11.527153 -4.000000
v 3.150602 10.226726 -4.000000
v 3.907673 7.368457 -4.000000
v 2.629442 3.613246 -4.000000
v 0.437177 1.469685 -4.000000
v -1.999193 1.580672 -4.000000
v -1.537874 -2.851301 -4.000000
v 0.344388 -2.269840 -4.000000
v 3.516477 -4.241017 -4.000000
v 3.619304 -7.975461 -4.000000
v 3.230476 -11.430786 -4.000000
v -0.202473 -13.469346 -4.000000
v -3.267955 -11.795167 -4.000000
v -5.638558 -10.311664 -4.000000
v -5.350628 -10.120251 -4.000000
v -9.662570 -12.561902 -4.000000
v -9.138009 -12.954544 -4.000000
v -8.178704 -15.452663 -4.000000
v -5.032162 -17.328501 -4.000000
v -0.410607 -18.624744 -4.000000
v 6.270610 -16.511497 -4.000000
v 9.138103 -13.757022 -4.000000
v 10.541878 -9.030486 -4.000000
v 8.731039 -3.457161 -4.000000
v 6.672870 -0.950213 -4.000000
v 9.404962 2.674268 -4.000000
v 10.270118 7.431073 -4.000000
v 9.088650 12.448105 -4.000000
v 6.349522 16.052946 -4.000000
vt 0.014950 0.949418
vt 0.015127 0.949479
vt 0.015066 0.949607
vt 0.014916 0.949555
vt 0.015243 0.949567
vt 0.015164 0.949681
vt 0.015304 0.949645
vt 0.015217 0.949747
vt 0.015333 0.949699
vt 0.015221 0.949753
vt 0.015093 0.949795
vt 0.015083 0.949808
vt 0.015061 0.949745
vt 0.015081 0.949807
vt 0.015020 0.949701
vt 0.015024 0.949746
vt 0.014960 0.949673
vt 0.014925 0.949699
vt 0.014901 0.949681
vt 0.014812 0.949716
vt 0.014883 0.949732
vt 0.014784 0.949801
vt 0.014902 0.949793
vt 0.014815 0.949897
vt 0.014955 0.949826
vt 0.014906 0.949952
vt 0.015053 0.949843
vt 0.014959 0.949962
vt 0.015050 0.950033
vt 0.014959 0.950059
vt 0.014955 0.950016
vt 0.014907 0.950050
vt 0.014904 0.950028
vt 0.014819 0.950070
vt 0.014887 0.950077
vt 0.014793 0.950148
vt 0.014904 0.950127
vt 0.014824 0.950231
vt 0.014959 0.950153
vt 0.014927 0.950281
vt 0.015014 0.950148
vt 0.015017 0.950273
vt 0.015053 0.950123
vt 0.015071 0.950241
vt 0.015086 0.950090
vt 0.015072 0.950240
vt 0.015297 0.950247
vt 0.015194 0.950329
vt 0.015265 0.950281
vt 0.015190 0.950333
vt 0.015205 0.950323
vt 0.015139 0.950369
vt 0.015101 0.950355
vt 0.015050 0.950396
vt 0.014949 0.950349
vt 0.014920 0.950390
vt 0.014748 0.950276
vt 0.014744 0.950326
vt 0.014634 0.950165
vt 0.014650 0.950236
vt 0.014594 0.950037
vt 0.014616 0.950129
vt 0.014626 0.949909
vt 0.014645 0.950020
vt 0.014674 0.949872
vt 0.014716 0.949967
vt 0.014620 0.949813
vt 0.014637 0.949882
vt 0.014570 0.949659
vt 0.014594 0.949749
vt 0.014597 0.949520
vt 0.014617 0.949634
vt 0.014717 0.949425
vt 0.014715 0.949560
vt 0.014985 0.949395
vt 0.015131 0.949445
vt 0.015225 0.949518
vt 0.015276 0.949583
vt 0.015279 0.949590
vt 0.015144 0.949646
vt 0.015143 0.949644
vt 0.015088 0.949584
vt 0.014993 0.949539
vt 0.014882 0.949556
vt 0.014854 0.949642
vt 0.014883 0.949737
vt 0.014971 0.949791
vt 0.015022 0.949800
vt 0.015021 0.949897
vt 0.014971 0.949888
vt 0.014885 0.949910
vt 0.014859 0.949988
vt 0.014888 0.950070
vt 0.014988 0.950119
vt 0.015076 0.950110
vt 0.015129 0.950077
vt 0.015130 0.950076
vt 0.015247 0.950164
vt 0.015243 0.950168
vt 0.015193 0.950204
vt 0.015107 0.950232
vt 0.014979 0.950228
vt 0.014809 0.950167
vt 0.014718 0.950077
vt 0.014687 0.949970
vt 0.014715 0.949862
vt 0.014786 0.949808
vt 0.014710 0.949724
vt 0.014669 0.949592
vt 0.014693 0.949477
vt 0.014790 0.949402
vn -0.184788 0.839208 0.511452
vn -0.184788 0.839208 0.511452
vn -0.184788 0.839208 0.511452
vn -0.184788 0.839208 0.511452
vn -0.457813 0.742200 0.489435
vn -0.457813 0.742200 0.489435
vn -0.457813 0.742200 0.489435
vn -0.457813 0.742200 0.489435
vn -0.717895 0.547525 0.429934
vn -0.717895 0.547525 0.429934
vn -0.717895 0.547525 0.429934
vn -0.717895 0.547525 0.429934
vn -0.854791 0.164927 0.492069
vn -0.854791 0.164927 0.492069
vn -0.854791 0.164927 0.492069
vn -0.854791 0.164927 0.492069
vn -0.519534 -0.700321 0.489525
vn -0.519534 -0.700321 0.489525
vn -0.519534 -0.700321 0.489525
vn -0.519534 -0.700321 0.489525
vn 0.708592 -0.498569 0.499326
vn 0.708592 -0.498569 0.499326
vn 0.708592 -0.498569 0.499326
vn 0.708592 -0.498569 0.499326
vn 0.636437 -0.626221 0.450328
vn 0.636437 -0.626221 0.450328
vn 0.636437 -0.626221 0.450328
vn 0.636437 -0.626221 0.450328
vn 0.299085 -0.850503 0.432658
vn 0.299085 -0.850503 0.432658
vn 0.299085 -0.850503 0.432658
vn 0.299085 -0.850503 0.432658
vn -0.368246 -0.851836 0.372518
vn -0.368246 -0.851836 0.372518
vn -0.368246 -0.851836 0.372518
vn -0.368246 -0.851836 0.372518
vn -0.864157 -0.313643 0.393524
vn -0.864157 -0.313643 0.393524
vn -0.864157 -0.313643 0.393524
vn -0.864157 -0.313643 0.393524
vn -0.856559 0.195465 0.477599
vn -0.856559 0.195465 0.477599
vn -0.856559 0.195465 0.477599
vn -0.856559 0.195465 0.477599
vn -0.427766 0.753153 0.499777
vn -0.427766 0.753153 0.499777
vn -0.427766 0.753153 0.499777
vn -0.427766 0.753153 0.499777
vn 0.091577 0.906159 0.412905
vn 0.091577 0.906159 0.412905
vn 0.091577 0.906159 0.412905
vn 0.091577 0.906159 0.412905
vn -0.897074 0.014452 0.441645
vn -0.897074 0.014452 0.441645
vn -0.897074 0.014452 0.441645
vn -0.897074 0.014452 0.441645
vn -0.131039 -0.875564 0.464991
vn -0.131039 -0.875564 0.464991
vn -0.131039 -0.875564 0.464991
vn -0.131039 -0.875564 0.464991
vn -0.383106 -0.829953 0.405471
vn -0.383106 -0.829953 0.405471
vn -0.383106 -0.829953 0.405471
vn -0.383106 -0.829953 0.405471
vn -0.841161 -0.209719 0.498464
vn -0.841161 -0.209719 0.498464
vn -0.841161 -0.209719 0.498464
vn -0.841161 -0.209719 0.498464
vn -0.820613 0.337149 0.461437
vn -0.820613 0.337149 0.461437
vn -0.820613 0.337149 0.461437
vn -0.820613 0.337149 0.461437
vn -0.313200 0.874703 0.369865
vn -0.313200 0.874703 0.369865
vn -0.313200 0.874703 0.369865
vn -0.313200 0.874703 0.369865
vn 0.289362 0.868567 0.402319
vn 0.289362 0.868567 0.402319
vn 0.289362 0.868567 0.402319
vn 0.289362 0.868567 0.402319
vn 0.668527 0.627041 0.399864
vn 0.668527 0.627041 0.399864
vn 0.668527 0.627041 0.399864
vn 0.668527 0.627041 0.399864
vn 0.841199 0.387004 0.377639
vn 0.841199 0.387004 0.377639
vn 0.841199 0.387004 0.377639
vn 0.841199 0.387004 0.377639
vn -0.515263 0.698067 0.497199
vn -0.515263 0.698067 0.497199
vn -0.515263 0.698067 0.497199
vn -0.515263 0.698067 0.497199
vn -0.748848 -0.482903 0.453907
vn -0.748848 -0.482903 0.453907
vn -0.748848 -0.482903 0.453907
vn -0.748848 -0.482903 0.453907
vn -0.658996 -0.559806 0.502335
vn -0.658996 -0.559806 0.502335
vn -0.658996 -0.559806 0.502335
vn -0.658996 -0.559806 0.502335
vn -0.610847 -0.662350 0.433773
vn -0.610847 -0.662350 0.433773
vn -0.610847 -0.662350 0.433773
vn -0.610847 -0.662350 0.433773
vn -0.142528 -0.904756 0.401377
vn -0.142528 -0.904756 0.401377
vn -0.142528 -0.904756 0.401377
vn -0.142528 -0.904756 0.401377
vn 0.215214 -0.870907 0.441819
vn 0.215214 -0.870907 0.441819
vn 0.215214 -0.870907 0.441819
vn 0.215214 -0.870907 0.441819
vn 0.642362 -0.622616 0.446901
vn 0.642362 -0.622616 0.446901
vn 0.642362 -0.622616 0.446901
vn 0.642362 -0.622616 0.446901
vn 0.885518 -0.177309 0.429441
vn 0.885518 -0.177309 0.429441
vn 0.885518 -0.177309 0.429441
vn 0.885518 -0.177309 0.429441
vn 0.850722 0.229057 0.473081
vn 0.850722 0.229057 0.473081
vn 0.850722 0.229057 0.473081
vn 0.850722 0.229057 0.473081
vn 0.716202 0.504957 0.481740
vn 0.716202 0.504957 0.481740
vn 0.716202 0.504957 0.481740
vn 0.716202 0.504957 0.481740
vn 0.691086 -0.594376 0.411239
vn 0.691086 -0.594376 0.411239
vn 0.691086 -0.594376 0.411239
vn 0.691086 -0.594376 0.411239
vn 0.879364 -0.177691 0.441752
vn 0.879364 -0.177691 0.441752
vn 0.879364 -0.177691 0.441752
vn 0.879364 -0.177691 0.441752
vn 0.887940 0.150506 0.434638
vn 0.887940 0.150506 0.434638
vn 0.887940 0.150506 0.434638
vn 0.887940 0.150506 0.434638
vn 0.652605 0.602711 0.459180
vn 0.652605 0.602711 0.459180
vn 0.652605 0.602711 0.459180
vn 0.652605 0.602711 0.459180
vn 0.183183 0.830625 0.525839
vn 0.183183 0.830625 0.525839
vn 0.183183 0.830625 0.525839
vn 0.183183 0.830625 0.525839
vn -0.000000 0.000000 1.000000
vn -0.000000 0.000000 1.000000
vn -0.000000 0.000000 1.000000
vn -0.000000 0.000000 1.000000
vn -0.000000 0.000000 1.000000
vn -0.000000 0.000000 1.000000
vn -0.000000 0.000000 1.000000
vn -0.000000 0.000000 1.000000
vn -0.000000 0.000000 1.000000
vn -0.000000 0.000000 1.000000
vn -0.000000 0.000000 1.000000
vn -0.000000 0.000000 1.000000
vn -0.000000 0.000000 1.000000
vn -0.000000 0.000000 1.000000
vn -0.000000 0.000000 1.000000
vn -0.000000 0.000000 1.000000
vn -0.000000 0.000000 1.000000
vn -0.000000 0.000000 1.000000
vn -0.000000 0.000000 1.000000
vn -0.000000 0.000000 1.000000
vn -0.000000 0.000000 1.000000
vn -0.000000 0.000000 1.000000
vn -0.000000 0.000000 1.000000
vn -0.000000 0.000000 1.000000
vn -0.000000 0.000000 1.000000
vn -0.000000 0.000000 1.000000
vn -0.000000 0.000000 1.000000
vn -0.000000 0.000000 1.000000
vn -0.000000 0.000000 1.000000
vn -0.000000 0.000000 1.000000
vn -0.000000 0.000000 1.000000
vn -0.000000 0.000000 1.000000
vn -0.000000 0.000000 1.000000
vn -0.000000 0.000000 1.000000
vn -0.000000 0.000000 1.000000
vn -0.000000 0.000000 1.000000
vn -0.000000 0.000000 1.000000
vn -0.000000 0.000000 1.000000
vn -0.000000 0.000000 1.000000
vn -0.000000 0.000000 1.000000
vn -0.000000 0.000000 1.000000
vn -0.000000 0.000000 1.000000
vn -0.000000 0.000000 1.000000
vn -0.000000 0.000000 1.000000
vn -0.000000 0.000000 1.000000
vn -0.000000 0.000000 1.000000
vn -0.000000 0.000000 1.000000
vn -0.000000 0.000000 1.000000
vn -0.000000 0.000000 1.000000
vn -0.000000 0.000000 1.000000
vn -0.000000 0.000000 1.000000
vn -0.000000 0.000000 1.000000
vn -0.000000 0.000000 1.000000
vn -0.000000 0.000000 1.000000
vn -0.000000 0.000000 1.000000
vn -0.000000 0.000000 1.000000
vn -0.000000 0.000000 1.000000
vn -0.000000 0.000000 1.000000
vn -0.000000 0.000000 1.000000
vn -0.000000 0.000000 1.000000
vn -0.000000 0.000000 1.000000
vn -0.000000 0.000000 1.000000
vn -0.000000 0.000000 1.000000
vn -0.000000 0.000000 1.000000
vn -0.000000 0.000000 1.000000
vn -0.000000 0.000000 1.000000
vn -0.000000 0.000000 1.000000
vn -0.000000 0.000000 1.000000
vn -0.000000 0.000000 1.000000
vn -0.000000 0.000000 1.000000
vn -0.000000 0.000000 1.000000
vn -0.000000 0.000000 1.000000
vn -0.000000 0.000000 1.000000
vn -0.000000 0.000000 1.000000
vn -0.000000 0.000000 1.000000
vn -0.000000 0.000000 1.000000
vn -0.000000 0.000000 1.000000
vn -0.000000 0.000000 1.000000
vn -0.000000 0.000000 1.000000
vn -0.214561 0.850123 -0.480889
vn -0.214561 0.850123 -0.480889
vn -0.214561 0.850123 -0.480889
vn -0.214561 0.850123 -0.480889
vn -0.481093 0.729890 -0.485603
vn -0.481093 0.729890 -0.485603
vn -0.481093 0.729890 -0.485603
vn -0.481093 0.729890 -0.485603
vn -0.669157 0.592047 -0.449120
vn -0.669157 0.592047 -0.449120
vn -0.669157 0.592047 -0.449120
vn -0.669157 0.592047 -0.449120
vn -0.855175 0.207043 -0.475194
vn -0.855175 0.207043 -0.475194
vn -0.855175 0.207043 -0.475194
vn -0.855175 0.207043 -0.475194
vn -0.519038 -0.716833 -0.465565
vn -0.519038 -0.716833 -0.465565
vn -0.519038 -0.716833 -0.465565
vn -0.519038 -0.716833 -0.465565
vn 0.777014 -0.458172 -0.431657
vn 0.777014 -0.458172 -0.431657
vn 0.777014 -0.458172 -0.431657
vn 0.777014 -0.458172 -0.431657
vn 0.596698 -0.687755 -0.413455
vn 0.596698 -0.687755 -0.413455
vn 0.596698 -0.687755 -0.413455
vn 0.596698 -0.687755 -0.413455
vn 0.314705 -0.877548 -0.361761
vn 0.314705 -0.877548 -0.361761
vn 0.314705 -0.877548 -0.361761
vn 0.314705 -0.877548 -0.361761
vn -0.337178 -0.848280 -0.408328
vn -0.337178 -0.848280 -0.408328
vn -0.337178 -0.848280 -0.408328
vn -0.337178 -0.848280 -0.408328
vn -0.862062 -0.229998 -0.451608
vn -0.862062 -0.229998 -0.451608
vn -0.862062 -0.229998 -0.451608
vn -0.862062 -0.229998 -0.451608
vn -0.888077 0.270873 -0.371414
vn -0.888077 0.270873 -0.371414
vn -0.888077 0.270873 -0.371414
vn -0.888077 0.270873 -0.371414
vn -0.565840 0.715516 -0.409711
vn -0.565840 0.715516 -0.409711
vn -0.565840 0.715516 -0.409711
vn -0.565840 0.715516 -0.409711
vn 0.017673 0.896164 -0.443371
vn 0.017673 0.896164 -0.443371
vn 0.017673 0.896164 -0.443371
vn 0.017673 0.896164 -0.443371
vn -0.911783 -0.033315 -0.409320
vn -0.911783 -0.033315 -0.409320
vn -0.911783 -0.033315 -0.409320
vn -0.911783 -0.033315 -0.409320
vn 0.102492 -0.894333 -0.435503
vn 0.102492 -0.894333 -0.435503
vn 0.102492 -0.894333 -0.435503
vn 0.102492 -0.894333 -0.435503
vn -0.441772 -0.739222 -0.508320
vn -0.441772 -0.739222 -0.508320
vn -0.441772 -0.739222 -0.508320
vn -0.441772 -0.739222 -0.508320
vn -0.890200 -0.101451 -0.444130
vn -0.890200 -0.101451 -0.444130
vn -0.890200 -0.101451 -0.444130
vn -0.890200 -0.101451 -0.444130
vn -0.894991 0.154421 -0.418504
vn -0.894991 0.154421 -0.418504
vn -0.894991 0.154421 -0.418504
vn -0.894991 0.154421 -0.418504
vn -0.405616 0.775607 -0.483641
vn -0.405616 0.775607 -0.483641
vn -0.405616 0.775607 -0.483641
vn -0.405616 0.775607 -0.483641
vn 0.388080 0.806297 -0.446407
vn 0.388080 0.806297 -0.446407
vn 0.388080 0.806297 -0.446407
vn 0.388080 0.806297 -0.446407
vn 0.552210 0.691413 -0.465845
vn 0.552210 0.691413 -0.465845
vn 0.552210 0.691413 -0.465845
vn 0.552210 0.691413 -0.465845
vn 0.834859 0.322428 -0.446151
vn 0.834859 0.322428 -0.446151
vn 0.834859 0.322428 -0.446151
vn 0.834859 0.322428 -0.446151
vn -0.501772 0.742938 -0.443022
vn -0.501772 0.742938 -0.443022
vn -0.501772 0.742938 -0.443022
vn -0.501772 0.742938 -0.443022
vn -0.733242 -0.485661 -0.475910
vn -0.733242 -0.485661 -0.475910
vn -0.733242 -0.485661 -0.475910
vn -0.733242 -0.485661 -0.475910
vn -0.776677 -0.450945 -0.439798
vn -0.776677 -0.450945 -0.439798
vn -0.776677 -0.450945 -0.439798
vn -0.776677 -0.450945 -0.439798
vn -0.500824 -0.759866 -0.414463
vn -0.500824 -0.759866 -0.414463
vn -0.500824 -0.759866 -0.414463
vn -0.500824 -0.759866 -0.414463
vn -0.214573 -0.875419 -0.433129
vn -0.214573 -0.875419 -0.433129
vn -0.214573 -0.875419 -0.433129
vn -0.214573 -0.875419 -0.433129
vn 0.233636 -0.851769 -0.468939
vn 0.233636 -0.851769 -0.468939
vn 0.233636 -0.851769 -0.468939
vn 0.233636 -0.851769 -0.468939
vn 0.650667 -0.621539 -0.436259
vn 0.650667 -0.621539 -0.436259
vn 0.650667 -0.621539 -0.436259
vn 0.650667 -0.621539 -0.436259
vn 0.893062 -0.219224 -0.392913
vn 0.893062 -0.219224 -0.392913
vn 0.893062 -0.219224 -0.392913
vn 0.893062 -0.219224 -0.392913
vn 0.869388 0.238813 -0.432589
vn 0.869388 0.238813 -0.432589
vn 0.869388 0.238813 -0.432589
vn 0.869388 0.238813 -0.432589
vn 0.680088 0.568080 -0.463428
vn 0.680088 0.568080 -0.463428
vn 0.680088 0.568080 -0.463428
vn 0.680088 0.568080 -0.463428
vn 0.724644 -0.566881 -0.391838
vn 0.724644 -0.566881 -0.391838
vn 0.724644 -0.566881 -0.391838
vn 0.724644 -0.566881 -0.391838
vn 0.902203 -0.185800 -0.389242
vn 0.902203 -0.185800 -0.389242
vn 0.902203 -0.185800 -0.389242
vn 0.902203 -0.185800 -0.389242
vn 0.877347 0.191883 -0.439823
vn 0.877347 0.191883 -0.439823
vn 0.877347 0.191883 -0.439823
vn 0.877347 0.191883 -0.439823
vn 0.698179 0.588930 -0.407072
vn 0.698179 0.588930 -0.407072
vn 0.698179 0.588930 -0.407072
vn 0.698179 0.588930 -0.407072
vn 0.171530 0.879398 -0.444114
vn 0.171530 0.879398 -0.444114
vn 0.171530 0.879398 -0.444114
vn 0.171530 0.879398 -0.444114
vn -0.000000 0.000000 -1.000000
vn -0.000000 0.000000 -1.000000
vn -0.000000 0.000000 -1.000000
vn -0.000000 0.000000 -1.000000
vn -0.000000 0.000000 -1.000000
vn -0.000000 0.000000 -1.000000
vn -0.000000 0.000000 -1.000000
vn -0.000000 0.000000 -1.000000
vn -0.000000 0.000000 -1.000000
vn -0.000000 0.000000 -1.000000
vn -0.000000 0.000000 -1.000000
vn -0.000000 0.000000 -1.000000
vn -0.000000 0.000000 -1.000000
vn -0.000000 0.000000 -1.000000
vn -0.000000 0.000000 -1.000000
vn -0.000000 0.000000 -1.000000
vn -0.000000 0.000000 -1.000000
vn -0.000000 0.000000 -1.000000
vn -0.000000 0.000000 -1.000000
vn -0.000000 0.000000 -1.000000
vn -0.000000 0.000000 -1.000000
vn -0.000000 0.000000 -1.000000
vn -0.000000 0.000000 -1.000000
vn -0.000000 0.000000 -1.000000
vn -0.000000 0.000000 -1.000000
vn -0.000000 0.000000 -1.000000
vn -0.000000 0.000000 -1.000000
vn -0.000000 0.000000 -1.000000
vn -0.000000 0.000000 -1.000000
vn -0.000000 0.000000 -1.000000
vn -0.000000 0.000000 -1.000000
vn -0.000000 0.000000 -1.000000
vn -0.000000 0.000000 -1.000000
vn -0.000000 0.000000 -1.000000
vn -0.000000 0.000000 -1.000000
vn -0.000000 0.000000 -1.000000
vn -0.000000 0.000000 -1.000000
vn -0.000000 0.000000 -1.000000
vn -0.000000 0.000000 -1.000000
vn -0.000000 0.000000 -1.000000
vn -0.000000 0.000000 -1.000000
vn -0.000000 0.000000 -1.000000
vn -0.000000 0.000000 -1.000000
vn -0.000000 0.000000 -1.000000
vn -0.000000 0.000000 -1.000000
vn -0.000000 0.000000 -1.000000
vn -0.000000 0.000000 -1.000000
vn -0.000000 0.000000 -1.000000
vn -0.000000 0.000000 -1.000000
vn -0.000000 0.000000 -1.000000
vn -0.000000 0.000000 -1.000000
vn -0.000000 0.000000 -1.000000
vn -0.000000 0.000000 -1.000000
vn -0.000000 0.000000 -1.000000
vn -0.000000 0.000000 -1.000000
vn -0.000000 0.000000 -1.000000
vn -0.000000 0.000000 -1.000000
vn -0.000000 0.000000 -1.000000
vn -0.000000 0.000000 -1.000000
vn -0.000000 0.000000 -1.000000
vn -0.000000 0.000000 -1.000000
vn -0.000000 0.000000 -1.000000
vn -0.000000 0.000000 -1.000000
vn -0.000000 0.000000 -1.000000
vn -0.000000 0.000000 -1.000000
vn -0.000000 0.000000 -1.000000
vn -0.000000 0.000000 -1.000000
vn -0.000000 0.000000 -1.000000
vn -0.000000 0.000000 -1.000000
vn -0.000000 0.000000 -1.000000
vn -0.000000 0.000000 -1.000000
vn -0.000000 0.000000 -1.000000
vn -0.000000 0.000000 -1.000000
vn -0.000000 0.000000 -1.000000
vn -0.000000 0.000000 -1.000000
vn -0.000000 0.000000 -1.000000
vn -0.000000 0.000000 -1.000000
s off
f 1/1/1 2/2/2 39/3/3 38/4/4
f 2/2/5 3/5/6 40/6/7 39/3/8
f 3/5/9 4/7/10 41/8/11 40/6/12
f 4/7/13 5/9/14 42/10/15 41/8/16
f 5/9/17 6/11/18 43/12/19 42/10/20
f 6/11/21 7/13/22 44/14/23 43/12/24
f 7/13/25 8/15/26 45/16/27 44/14/28
f 8/15/29 9/17/30 46/18/31 45/16/32
f 9/17/33 10/19/34 47/20/35 46/18/36
f 10/19/37 11/21/38 48/22/39 47/20/40
f 11/21/41 12/23/42 49/24/43 48/22/44
f 12/23/45 13/25/46 50/26/47 49/24/48
f 13/25/49 14/27/50 51/28/51 50/26/52
f 14/27/53 15/29/54 52/30/55 51/28/56
f 15/29/57 16/31/58 53/32/59 52/30/60
f 16/31/61 17/33/62 54/34/63 53/32/64
f 17/33/65 18/35/66 55/36/67 54/34/68
f 18/35/69 19/37/70 56/38/71 55/36/72
f 19/37/73 20/39/74 57/40/75 56/38/76
f 20/39/77 21/41/78 58/42/79 57/40/80
f 21/41/81 22/43/82 59/44/83 58/42/84
f 22/43/85 23/45/86 60/46/87 59/44/88
f 23/45/89 24/47/90 61/48/91 60/46/92
f 24/47/93 25/49/94 62/50/95 61/48/96
f 25/49/97 26/51/98 63/52/99 62/50/100
f 26/51/101 27/53/102 64/54/103 63/52/104
f 27/53/105 28/55/106 65/56/107 64/54/108
f 28/55/109 29/57/110 66/58/111 65/56/112
f 29/57/113 30/59/114 67/60/115 66/58/116
f 30/59/117 31/61/118 68/62/119 67/60/120
f 31/61/121 32/63/122 69/64/123 68/62/124
f 32/63/125 33/65/126 70/66/127 69/64/128
f 33/65/129 34/67/130 71/68/131 70/66/132
f 34/67/133 35/69/134 72/70/135 71/68/136
f 35/69/137 36/71/138 73/72/139 72/70/140
f 36/71/141 37/73/142 74/74/143 73/72/144
f 37/73/145 1/1/146 38/4/147 74/74/148
f 44/14/149 45/16/150 43/12/151
f 61/48/152 62/50/153 60/46/154
f 41/8/155 42/10/156 40/6/157
f 50/26/158 51/28/159 52/30/160 53/32/161
f 60/46/162 62/50/163 63/52/164 58/42/165
f 40/6/166 42/10/167 43/12/168 45/16/169
f 40/6/170 45/16/171 39/3/172
f 39/3/173 45/16/174 46/18/175 38/4/176
f 74/74/177 38/4/178 46/18/179 47/20/180
f 74/74/181 47/20/182 73/72/183
f 73/72/184 47/20/185 48/22/186 72/70/187
f 71/68/188 72/70/189 48/22/190 49/24/191
f 70/66/192 71/68/193 49/24/194 50/26/195
f 70/66/196 50/26/197 53/32/198 54/34/199
f 70/66/200 54/34/201 69/64/202
f 69/64/203 54/34/204 55/36/205 68/62/206
f 67/60/207 68/62/208 55/36/209 56/38/210
f 67/60/211 56/38/212 66/58/213
f 65/56/214 66/58/215 56/38/216 57/40/217
f 64/54/218 65/56/219 57/40/220 58/42/221
f 64/54/222 58/42/223 63/52/224
f 58/42/225 59/44/226 60/46/227
f 1/1/228 75/75/229 76/76/230 2/2/231
f 2/2/232 76/76/233 77/77/234 3/5/235
f 3/5/236 77/77/237 78/78/238 4/7/239
f 4/7/240 78/78/241 79/79/242 5/9/243
f 5/9/244 79/79/245 80/80/246 6/11/247
f 6/11/248 80/80/249 81/81/250 7/13/251
f 7/13/252 81/81/253 82/82/254 8/15/255
f 8/15/256 82/82/257 83/83/258 9/17/259
f 9/17/260 83/83/261 84/84/262 10/19/263
f 10/19/264 84/84/265 85/85/266 11/21/267
f 11/21/268 85/85/269 86/86/270 12/23/271
f 12/23/272 86/86/273 87/87/274 13/25/275
f 13/25/276 87/87/277 88/88/278 14/27/279
f 14/27/280 88/88/281 89/89/282 15/29/283
f 15/29/284 89/89/285 90/90/286 16/31/287
f 16/31/288 90/90/289 91/91/290 17/33/291
f 17/33/292 91/91/293 92/92/294 18/35/295
f 18/35/296 92/92/297 93/93/298 19/37/299
f 19/37/300 93/93/301 94/94/302 20/39/303
f 20/39/304 94/94/305 95/95/306 21/41/307
f 21/41/308 95/95/309 96/96/310 22/43/311
f 22/43/312 96/96/313 97/97/314 23/45/315
f 23/45/316 97/97/317 98/98/318 24/47/319
f 24/47/320 98/98/321 99/99/322 25/49/323
f 25/49/324 99/99/325 100/100/326 26/51/327
f 26/51/328 100/100/329 101/101/330 27/53/331
f 27/53/332 101/101/333 102/102/334 28/55/335
f 28/55/336 102/102/337 103/103/338 29/57/339
f 29/57/340 103/103/341 104/104/342 30/59/343
f 30/59/344 104/104/345 105/105/346 31/61/347
f 31/61/348 105/105/349 106/106/350 32/63/351
f 32/63/352 106/106/353 107/107/354 33/65/355
f 33/65/356 107/107/357 108/108/358 34/67/359
f 34/67/360 108/108/361 109/109/362 35/69/363
f 35/69/364 109/109/365 110/110/366 36/71/367
f 36/71/368 110/110/369 111/111/370 37/73/371
f 37/73/372 111/111/373 75/75/374 1/1/375
f 97/97/376 96/96/377 98/98/378
f 98/98/379 96/96/380 99/99/381
f 90/90/382 89/89/383 88/88/384 87/87/385
f 81/81/386 80/80/387 79/79/388 77/77/389
f 78/78/390 77/77/391 79/79/392
f 82/82/393 81/81/394 77/77/395 76/76/396
f 83/83/397 82/82/398 76/76/399 75/75/400
f 83/83/401 75/75/402 111/111/403 84/84/404
f 111/111/405 110/110/406 84/84/407
f 84/84/408 110/110/409 109/109/410 85/85/411
f 85/85/412 109/109/413 108/108/414 86/86/415
f 86/86/416 108/108/417 107/107/418 87/87/419
f 90/90/420 87/87/421 107/107/422 91/91/423
f 107/107/424 106/106/425 91/91/426
f 92/92/427 91/91/428 106/106/429 105/105/430
f 92/92/431 105/105/432 104/104/433 93/93/434
f 104/104/435 103/103/436 93/93/437
f 93/93/438 103/103/439 102/102/440 94/94/441
f 94/94/442 102/102/443 101/101/444 95/95/445
f 95/95/446 101/101/447 100/100/448 96/96/449
f 100/100/450 99/99/451 96/96/452
