# This file uses centimeters as units for non-parametric coordinates.

v 4.366412 16.217613 2.000000
v -0.245567 18.373356 2.000000
v -4.051811 16.183340 2.000000
v -5.938744 11.659185 2.000000
v 6.054846 11.819492 2.000000
v -5.210712 17.841652 0.000000
v -0.000000 20.000000 -0.000000
v 5.210712 17.841652 0.000000
v 7.369060 12.630940 -0.000000
v -7.369060 12.630940 -0.000000
v 7.369060 -1.785397 0.000000
v 5.210712 -6.996108 0.000000
v 5.756341 -0.738017 2.000000
v 4.361665 -5.556260 2.000000
v -0.000000 -9.154456 -0.000000
v -0.170277 -7.178836 2.000000
v -5.210712 -6.996108 -0.000000
v -4.038400 -5.654757 2.000000
v -7.369060 -1.785397 0.000000
v -5.709022 -1.007343 2.000000
v 4.366412 16.217613 -2.000000
v -0.245567 18.373356 -2.000000
v -4.051811 16.183340 -2.000000
v -5.938744 11.659185 -2.000000
v 6.054846 11.819492 -2.000000
v 5.756341 -0.738017 -2.000000
v 4.361665 -5.556260 -2.000000
v -0.170277 -7.178836 -2.000000
v -4.038400 -5.654757 -2.000000
v -5.709022 -1.007343 -2.000000
v 9.769060 -2.262784 0.000000
v 7.047591 -8.832988 0.000000
v 10.355133 -2.601422 2.000000
v 7.607152 -9.089643 2.000000
v 0.000000 -11.752196 0.000000
v -0.107085 -12.133834 2.000000
v -7.047591 -8.832988 0.000000
v -7.236233 -9.463538 2.000000
v -9.769060 -2.262786 -0.000000
v -10.315951 -2.350158 2.000000
v 9.769060 0.996762 -0.000000
v 10.189449 0.385546 2.000000
v -9.769060 0.996762 0.000000
v -10.267714 0.632998 2.000000
v 13.969056 -3.098215 0.000000
v 10.262133 -12.047523 0.000000
v 13.415621 -3.207663 2.000000
v 9.643268 -11.749562 2.000000
v -10.262133 -12.047523 0.000000
v -9.865229 -11.641412 2.000000
v -13.969056 -3.098218 0.000000
v -13.523518 -2.808907 2.000000
v 13.969056 0.996762 0.000000
v 13.517415 0.326550 2.000000
v -13.969056 0.996762 0.000000
v -13.297229 0.295114 2.000000
v 2.727354 -15.168532 0.000000
v -2.727354 -15.168532 -0.000000
v -2.107070 -14.815946 2.000000
v 2.177379 -14.818055 2.000000
v -2.727354 -20.000000 0.000000
v 2.727354 -20.000000 -0.000000
v 2.431403 -19.415359 2.000000
v -2.446203 -19.447876 2.000000
v 10.355133 -2.601422 -2.000000
v 7.607152 -9.089643 -2.000000
v -0.107085 -12.133834 -2.000000
v -7.236233 -9.463538 -2.000000
v -10.315951 -2.350158 -2.000000
v 10.189449 0.385546 -2.000000
v -10.267714 0.632998 -2.000000
v 13.415621 -3.207663 -2.000000
v 9.643268 -11.749562 -2.000000
v -9.865229 -11.641412 -2.000000
v -13.523518 -2.808907 -2.000000
v 13.517415 0.326550 -2.000000
v -13.297229 0.295114 -2.000000
v -2.107070 -14.815946 -2.000000
v 2.177379 -14.818055 -2.000000
v 2.431403 -19.415359 -2.000000
v -2.446203 -19.447876 -2.000000
v 15.334410 -18.039429 4.000000
v 18.108694 -15.265136 4.000000
v -18.067083 15.362068 4.000000
v -15.292789 18.136349 4.000000
v -19.557734 15.554667 -0.000000
v 15.527013 -19.530079 -0.000000
v 19.599342 -15.457748 -0.000000
v -15.485401 19.626997 -0.000000
v 15.334410 -18.039429 -4.000000
v 18.108694 -15.265136 -4.000000
v -18.067083 15.362068 -4.000000
v -15.292789 18.136349 -4.000000
vt 0.984107 0.951978
vt 0.984272 0.951908
vt 0.984443 0.951992
vt 0.984512 0.952183
vt 0.984041 0.952155
vt 0.984328 0.951898
vt 0.984495 0.951980
vt 0.984165 0.951967
vt 0.984101 0.952140
vt 0.984168 0.952779
vt 0.984104 0.952608
vt 0.984047 0.952635
vt 0.984112 0.952810
vt 0.984323 0.952865
vt 0.984270 0.952898
vt 0.984482 0.952815
vt 0.984433 0.952848
vt 0.984553 0.952653
vt 0.984504 0.952682
vt 0.984562 0.952166
vt 0.984107 0.951978
vt 0.984272 0.951908
vt 0.984443 0.951992
vt 0.984512 0.952183
vt 0.984041 0.952155
vt 0.984328 0.951898
vt 0.984495 0.951980
vt 0.984165 0.951967
vt 0.984101 0.952140
vt 0.984168 0.952779
vt 0.984104 0.952608
vt 0.984047 0.952635
vt 0.984112 0.952810
vt 0.984323 0.952865
vt 0.984270 0.952898
vt 0.984482 0.952815
vt 0.984433 0.952848
vt 0.984553 0.952653
vt 0.984504 0.952682
vt 0.984562 0.952166
vt 0.984851 0.885904
vt 0.984728 0.885581
vt 0.984694 0.885596
vt 0.984819 0.885923
vt 0.985066 0.886065
vt 0.985096 0.886044
vt 0.985543 0.885994
vt 0.985279 0.886069
vt 0.985251 0.886091
vt 0.985517 0.886015
vt 0.985687 0.885681
vt 0.985662 0.885698
vt 0.984726 0.885437
vt 0.984691 0.885450
vt 0.985667 0.885542
vt 0.985691 0.885526
vt 0.984830 0.885580
vt 0.984922 0.885824
vt 0.985158 0.885957
vt 0.985404 0.885883
vt 0.985507 0.885651
vt 0.984861 0.885449
vt 0.984828 0.885463
vt 0.985510 0.885527
vt 0.985536 0.885512
vt 0.984863 0.885565
vt 0.984954 0.885806
vt 0.985187 0.885937
vt 0.985431 0.885864
vt 0.985533 0.885634
vt 0.985277 0.886236
vt 0.985096 0.886209
vt 0.985066 0.886231
vt 0.985249 0.886259
vt 0.984851 0.885904
vt 0.984819 0.885923
vt 0.984694 0.885596
vt 0.984728 0.885581
vt 0.985066 0.886065
vt 0.985096 0.886044
vt 0.985543 0.885994
vt 0.985517 0.886015
vt 0.985251 0.886091
vt 0.985279 0.886069
vt 0.985687 0.885681
vt 0.985662 0.885698
vt 0.984726 0.885437
vt 0.984691 0.885450
vt 0.985667 0.885542
vt 0.985691 0.885526
vt 0.984830 0.885580
vt 0.984922 0.885824
vt 0.985158 0.885957
vt 0.985404 0.885883
vt 0.985507 0.885651
vt 0.984861 0.885449
vt 0.984828 0.885463
vt 0.985510 0.885527
vt 0.985536 0.885512
vt 0.984863 0.885565
vt 0.984954 0.885806
vt 0.985187 0.885937
vt 0.985431 0.885864
vt 0.985533 0.885634
vt 0.985277 0.886236
vt 0.985249 0.886259
vt 0.985066 0.886231
vt 0.985096 0.886209
vt 0.012072 0.951290
vt 0.011296 0.951338
vt 0.011295 0.950546
vt 0.012074 0.950500
vt 0.011187 0.950465
vt 0.011962 0.950419
vt 0.011961 0.951206
vt 0.011188 0.951254
vt 0.012072 0.951290
vt 0.012074 0.950500
vt 0.011295 0.950546
vt 0.011296 0.951338
vt 0.011962 0.950419
vt 0.011187 0.950465
vt 0.011961 0.951206
vt 0.011188 0.951254
vn 0.000000 0.000000 1.000000
vn 0.000000 0.000000 1.000000
vn 0.000000 0.000000 1.000000
vn -0.332781 0.690070 0.642697
vn -0.332781 0.690070 0.642698
vn -0.332781 0.690070 0.642697
vn -0.332781 0.690070 0.642697
vn 0.305844 0.696371 0.649252
vn 0.305844 0.696371 0.649252
vn 0.305844 0.696371 0.649252
vn 0.305844 0.696371 0.649252
vn 0.750807 0.300577 0.588169
vn 0.750807 0.300577 0.588169
vn 0.750807 0.300577 0.588169
vn 0.750807 0.300577 0.588169
vn 0.740444 -0.262322 0.618813
vn 0.740444 -0.262322 0.618813
vn 0.740444 -0.262322 0.618813
vn 0.740444 -0.262322 0.618813
vn 0.270495 -0.697011 0.664085
vn 0.270495 -0.697011 0.664085
vn 0.270495 -0.697011 0.664085
vn 0.270495 -0.697011 0.664085
vn -0.284609 -0.701690 0.653168
vn -0.284609 -0.701690 0.653168
vn -0.284609 -0.701690 0.653168
vn -0.284609 -0.701690 0.653168
vn -0.709586 -0.275609 0.648481
vn -0.709586 -0.275609 0.648481
vn -0.709586 -0.275609 0.648481
vn -0.709586 -0.275609 0.648481
vn -0.703587 0.292373 0.647675
vn -0.703587 0.292373 0.647675
vn -0.703587 0.292373 0.647675
vn -0.703587 0.292373 0.647675
vn 0.000000 0.000000 1.000000
vn 0.000000 0.000000 1.000000
vn 0.000000 0.000000 1.000000
vn 0.000000 0.000000 1.000000
vn 0.806737 -0.008928 0.590843
vn 0.806737 -0.008928 0.590843
vn 0.806737 -0.008928 0.590843
vn 0.806737 -0.008928 0.590843
vn -0.791478 -0.006713 0.611161
vn -0.791478 -0.006713 0.611161
vn -0.791478 -0.006713 0.611161
vn -0.791478 -0.006713 0.611161
vn 0.000000 0.000000 1.000000
vn 0.000000 0.000000 1.000000
vn 0.000000 0.000000 1.000000
vn 0.000000 0.000000 1.000000
vn 0.000000 0.000000 -1.000000
vn 0.000000 0.000000 -1.000000
vn 0.000000 0.000000 -1.000000
vn -0.332781 0.690070 -0.642698
vn -0.332781 0.690070 -0.642698
vn -0.332781 0.690070 -0.642698
vn -0.332781 0.690070 -0.642698
vn 0.305844 0.696371 -0.649252
vn 0.305844 0.696371 -0.649252
vn 0.305844 0.696371 -0.649252
vn 0.305844 0.696371 -0.649252
vn 0.750807 0.300577 -0.588169
vn 0.750807 0.300577 -0.588169
vn 0.750807 0.300577 -0.588169
vn 0.750807 0.300577 -0.588169
vn 0.740444 -0.262322 -0.618813
vn 0.740444 -0.262322 -0.618813
vn 0.740444 -0.262322 -0.618813
vn 0.740444 -0.262322 -0.618813
vn 0.270495 -0.697011 -0.664085
vn 0.270495 -0.697011 -0.664085
vn 0.270495 -0.697011 -0.664085
vn 0.270495 -0.697011 -0.664085
vn -0.284609 -0.701690 -0.653168
vn -0.284609 -0.701690 -0.653168
vn -0.284609 -0.701690 -0.653168
vn -0.284609 -0.701690 -0.653168
vn -0.709586 -0.275609 -0.648481
vn -0.709586 -0.275609 -0.648481
vn -0.709586 -0.275609 -0.648481
vn -0.709586 -0.275609 -0.648481
vn -0.703587 0.292373 -0.647675
vn -0.703587 0.292373 -0.647675
vn -0.703587 0.292373 -0.647675
vn -0.703587 0.292373 -0.647675
vn 0.000000 0.000000 -1.000000
vn 0.000000 0.000000 -1.000000
vn 0.000000 0.000000 -1.000000
vn 0.806737 -0.008928 -0.590843
vn 0.806737 -0.008928 -0.590843
vn 0.806737 -0.008928 -0.590843
vn 0.806737 -0.008928 -0.590843
vn -0.791478 -0.006713 -0.611161
vn -0.791478 -0.006713 -0.611161
vn -0.791478 -0.006713 -0.611161
vn -0.791478 -0.006713 -0.611161
vn 0.000000 0.000000 -1.000000
vn 0.000000 0.000000 -1.000000
vn 0.000000 0.000000 -1.000000
vn 0.000000 0.000000 -1.000000
vn 0.000000 0.000000 1.000000
vn 0.000000 0.000000 1.000000
vn 0.000000 0.000000 1.000000
vn 0.000000 0.000000 1.000000
vn 0.000000 0.000000 1.000000
vn 0.000000 0.000000 1.000000
vn 0.000000 0.000000 1.000000
vn 0.000000 0.000000 -1.000000
vn 0.000000 0.000000 -1.000000
vn 0.000000 0.000000 -1.000000
vn 0.000000 0.000000 -1.000000
vn 0.000000 0.000000 -1.000000
vn 0.000000 0.000000 -1.000000
vn 0.000000 0.000000 -1.000000
vn 0.000000 0.000000 -1.000000
vn 0.883554 -0.377810 0.276753
vn 0.883554 -0.377810 0.276753
vn 0.883554 -0.377810 0.276753
vn 0.883554 -0.377810 0.276753
vn 0.369031 -0.894370 0.252820
vn 0.381422 -0.924401 0.000000
vn 0.381422 -0.924401 0.000000
vn 0.369031 -0.894370 0.252820
vn -0.367306 -0.892248 0.262641
vn -0.367306 -0.892248 0.262641
vn -0.367306 -0.892248 0.262641
vn -0.367306 -0.892248 0.262641
vn -0.923884 -0.382672 0.000000
vn -0.923884 -0.382672 0.000000
vn -0.893914 -0.370258 0.252639
vn -0.893914 -0.370258 0.252639
vn 0.999911 -0.013341 0.000000
vn 0.970365 -0.012947 0.241299
vn 0.970365 -0.012947 0.241299
vn 0.999911 -0.013341 0.000000
vn -0.961876 0.030235 0.271809
vn -0.961876 0.030235 0.271809
vn -0.961876 0.030235 0.271809
vn -0.961876 0.030235 0.271809
vn 0.000000 0.000000 1.000000
vn 0.000000 0.000000 1.000000
vn 0.000000 0.000000 1.000000
vn 0.000000 0.000000 1.000000
vn 0.000000 0.000000 1.000000
vn 0.000000 0.000000 1.000000
vn 0.000000 0.000000 1.000000
vn 0.000000 0.000000 1.000000
vn 0.000000 0.000000 1.000000
vn 0.000000 0.000000 1.000000
vn 0.000000 0.000000 1.000000
vn 0.000000 0.000000 1.000000
vn 0.000000 0.000000 1.000000
vn 0.000000 0.000000 1.000000
vn 0.000000 0.000000 1.000000
vn 0.000000 0.000000 1.000000
vn 0.007463 0.952282 0.305129
vn 0.007463 0.952282 0.305129
vn 0.007463 0.952282 0.305129
vn 0.007463 0.952282 0.305129
vn 0.000000 0.000000 1.000000
vn 0.000000 0.000000 1.000000
vn 0.000000 0.000000 1.000000
vn 0.000000 0.000000 1.000000
vn -0.045094 0.964840 0.258941
vn -0.045094 0.964840 0.258941
vn -0.045094 0.964840 0.258941
vn -0.045093 0.964840 0.258941
vn 0.000000 0.000000 1.000000
vn 0.000000 0.000000 1.000000
vn 0.000000 0.000000 1.000000
vn 0.000000 0.000000 1.000000
vn -0.999648 -0.026515 0.000000
vn -0.999648 -0.026515 0.000000
vn -0.970881 -0.025752 0.238174
vn -0.970881 -0.025752 0.238174
vn -0.878054 0.367768 0.306214
vn -0.878054 0.367768 0.306214
vn -0.878054 0.367768 0.306214
vn -0.878054 0.367768 0.306214
vn -0.374565 0.927201 0.000000
vn -0.374565 0.927201 0.000000
vn -0.367960 0.910850 0.186971
vn -0.367960 0.910850 0.186971
vn 0.366793 0.930303 0.000000
vn 0.366793 0.930303 0.000000
vn 0.354771 0.899811 0.253924
vn 0.354771 0.899811 0.253924
vn 0.920678 0.390323 0.000000
vn 0.920678 0.390323 0.000000
vn 0.895387 0.379601 0.232778
vn 0.895387 0.379601 0.232778
vn 0.999970 -0.007727 0.000000
vn 0.999970 -0.007727 0.000000
vn 0.967674 -0.007477 0.252093
vn 0.967674 -0.007477 0.252093
vn 0.003027 -0.961902 0.273376
vn 0.003027 -0.961902 0.273376
vn 0.003027 -0.961902 0.273376
vn 0.003027 -0.961902 0.273376
vn 0.000000 0.000000 1.000000
vn 0.000000 0.000000 1.000000
vn 0.000000 0.000000 1.000000
vn 0.999637 0.026932 0.000000
vn 0.979251 0.026382 0.200926
vn 0.979251 0.026382 0.200926
vn 0.999637 0.026932 0.000000
vn 0.000000 0.000000 1.000000
vn 0.000000 0.000000 1.000000
vn 0.000000 0.000000 1.000000
vn 0.000000 0.000000 1.000000
vn -0.976606 0.034998 0.212171
vn -0.999358 0.035813 0.000000
vn -0.999359 0.035813 0.000000
vn -0.976606 0.034998 0.212171
vn 0.883554 -0.377810 -0.276753
vn 0.883554 -0.377810 -0.276753
vn 0.883554 -0.377810 -0.276753
vn 0.883554 -0.377810 -0.276753
vn 0.369031 -0.894370 -0.252820
vn 0.369031 -0.894370 -0.252820
vn 0.381422 -0.924401 0.000000
vn 0.381422 -0.924401 0.000000
vn -0.367306 -0.892248 -0.262641
vn -0.367306 -0.892248 -0.262641
vn -0.367306 -0.892248 -0.262641
vn -0.367306 -0.892248 -0.262641
vn -0.923884 -0.382672 0.000000
vn -0.893914 -0.370258 -0.252639
vn -0.893914 -0.370258 -0.252639
vn -0.923884 -0.382672 0.000000
vn 0.999911 -0.013341 0.000000
vn 0.999911 -0.013341 0.000000
vn 0.970365 -0.012947 -0.241299
vn 0.970365 -0.012947 -0.241299
vn -0.961876 0.030235 -0.271809
vn -0.961876 0.030235 -0.271809
vn -0.961876 0.030235 -0.271809
vn -0.961876 0.030235 -0.271809
vn 0.000000 0.000000 -1.000000
vn 0.000000 0.000000 -1.000000
vn 0.000000 0.000000 -1.000000
vn 0.000000 0.000000 -1.000000
vn 0.000000 0.000000 -1.000000
vn 0.000000 0.000000 -1.000000
vn 0.000000 0.000000 -1.000000
vn 0.000000 0.000000 -1.000000
vn 0.000000 0.000000 -1.000000
vn 0.000000 0.000000 -1.000000
vn 0.000000 0.000000 -1.000000
vn 0.000000 0.000000 -1.000000
vn 0.000000 0.000000 -1.000000
vn 0.000000 0.000000 -1.000000
vn 0.000000 0.000000 -1.000000
vn 0.000000 0.000000 -1.000000
vn 0.007463 0.952282 -0.305129
vn 0.007463 0.952282 -0.305129
vn 0.007463 0.952282 -0.305129
vn 0.007463 0.952282 -0.305129
vn 0.000000 0.000000 -1.000000
vn 0.000000 0.000000 -1.000000
vn 0.000000 0.000000 -1.000000
vn 0.000000 0.000000 -1.000000
vn -0.045094 0.964840 -0.258941
vn -0.045093 0.964840 -0.258941
vn -0.045094 0.964840 -0.258941
vn -0.045094 0.964840 -0.258941
vn 0.000000 0.000000 -1.000000
vn 0.000000 0.000000 -1.000000
vn 0.000000 0.000000 -1.000000
vn 0.000000 0.000000 -1.000000
vn -0.999648 -0.026515 0.000000
vn -0.970881 -0.025752 -0.238174
vn -0.970881 -0.025752 -0.238174
vn -0.999648 -0.026515 0.000000
vn -0.878054 0.367768 -0.306215
vn -0.878054 0.367768 -0.306215
vn -0.878054 0.367768 -0.306215
vn -0.878054 0.367768 -0.306215
vn -0.374565 0.927201 0.000000
vn -0.367960 0.910850 -0.186971
vn -0.367960 0.910850 -0.186971
vn -0.374565 0.927201 0.000000
vn 0.366793 0.930303 0.000000
vn 0.354771 0.899811 -0.253924
vn 0.354771 0.899811 -0.253924
vn 0.366793 0.930303 0.000000
vn 0.920678 0.390323 0.000000
vn 0.895387 0.379601 -0.232778
vn 0.895387 0.379601 -0.232778
vn 0.920678 0.390323 0.000000
vn 0.999970 -0.007727 0.000000
vn 0.967674 -0.007477 -0.252093
vn 0.967674 -0.007477 -0.252093
vn 0.999970 -0.007727 0.000000
vn 0.003027 -0.961902 -0.273377
vn 0.003027 -0.961902 -0.273377
vn 0.003027 -0.961902 -0.273377
vn 0.003027 -0.961902 -0.273377
vn 0.000000 0.000000 -1.000000
vn 0.000000 0.000000 -1.000000
vn 0.000000 0.000000 -1.000000
vn 0.999637 0.026932 0.000000
vn 0.999637 0.026932 0.000000
vn 0.979251 0.026382 -0.200926
vn 0.979251 0.026382 -0.200926
vn 0.000000 0.000000 -1.000000
vn 0.000000 0.000000 -1.000000
vn 0.000000 0.000000 -1.000000
vn 0.000000 0.000000 -1.000000
vn -0.976606 0.034998 -0.212171
vn -0.976606 0.034998 -0.212171
vn -0.999359 0.035813 0.000000
vn -0.999358 0.035813 0.000000
vn 0.000000 0.000000 1.000000
vn 0.000000 0.000000 1.000000
vn 0.000000 0.000000 1.000000
vn 0.000000 0.000000 1.000000
vn -0.592215 0.592215 0.546410
vn -0.592215 0.592215 0.546410
vn -0.592215 0.592215 0.546410
vn -0.592215 0.592215 0.546410
vn 0.592215 -0.592215 0.546410
vn 0.592215 -0.592215 0.546410
vn 0.592215 -0.592215 0.546410
vn 0.592215 -0.592215 0.546410
vn 0.661593 0.661593 0.352974
vn 0.661593 0.661593 -0.352974
vn 0.661593 0.661593 -0.352974
vn 0.661593 0.661593 0.352974
vn -0.661593 -0.661593 -0.352974
vn -0.661593 -0.661593 0.352974
vn -0.661593 -0.661593 0.352974
vn -0.661593 -0.661593 -0.352974
vn 0.000000 0.000000 -1.000000
vn 0.000000 0.000000 -1.000000
vn 0.000000 0.000000 -1.000000
vn 0.000000 0.000000 -1.000000
vn -0.592215 0.592215 -0.546410
vn -0.592215 0.592215 -0.546410
vn -0.592215 0.592215 -0.546410
vn -0.592215 0.592215 -0.546410
vn 0.592215 -0.592215 -0.546410
vn 0.592215 -0.592215 -0.546410
vn 0.592215 -0.592215 -0.546410
vn 0.592215 -0.592215 -0.546410
vn 0.661593 0.661593 -0.352974
vn 0.661593 0.661593 -0.352974
vn 0.661593 0.661593 -0.352974
vn 0.661593 0.661593 -0.352974
vn -0.661593 -0.661593 -0.352974
vn -0.661593 -0.661593 -0.352974
vn -0.661593 -0.661593 -0.352974
vn -0.661593 -0.661593 -0.352974
s off
f 1/1/1 2/2/2 3/3/3
f 7/6/4 6/7/5 3/3/6 2/2/7
f 8/8/8 7/6/9 2/2/10 1/1/11
f 9/9/12 8/8/13 1/1/14 5/5/15
f 12/10/16 11/11/17 13/12/18 14/13/19
f 15/14/20 12/10/21 14/13/22 16/15/23
f 17/16/24 15/14/25 16/15/26 18/17/27
f 19/18/28 17/16/29 18/17/30 20/19/31
f 6/7/32 10/20/33 4/4/34 3/3/35
f 13/12/36 20/19/37 18/17/38 14/13/39
f 9/9/40 5/5/41 13/12/42 11/11/43
f 4/4/44 10/20/45 19/18/46 20/19/47
f 5/5/48 4/4/49 20/19/50 13/12/51
f 21/21/52 23/23/53 22/22/54
f 7/26/55 22/22/56 23/23/57 6/27/58
f 8/28/59 21/21/60 22/22/61 7/26/62
f 9/29/63 25/25/64 21/21/65 8/28/66
f 12/30/67 27/33/68 26/32/69 11/31/70
f 15/34/71 28/35/72 27/33/73 12/30/74
f 17/36/75 29/37/76 28/35/77 15/34/78
f 19/38/79 30/39/80 29/37/81 17/36/82
f 6/27/83 23/23/84 24/24/85 10/40/86
f 29/37/87 27/33/88 28/35/89
f 9/29/90 11/31/91 26/32/92 25/25/93
f 24/24/94 30/39/95 19/38/96 10/40/97
f 25/25/98 26/32/99 30/39/100 24/24/101
f 14/13/102 18/17/103 16/15/104
f 1/1/105 3/3/106 4/4/107 5/5/108
f 21/21/109 25/25/110 24/24/111 23/23/112
f 26/32/113 27/33/114 29/37/115 30/39/116
f 46/41/117 45/42/118 47/43/119 48/44/120
f 60/45/121 57/46/122 46/41/123 48/44/124
f 49/47/125 58/48/126 59/49/127 50/50/128
f 51/51/129 49/47/130 50/50/131 52/52/132
f 53/53/133 54/54/134 47/43/135 45/42/136
f 56/55/137 55/56/138 51/51/139 52/52/140
f 33/57/141 34/58/142 48/44/143 47/43/144
f 34/58/145 36/59/146 60/45/147 48/44/148
f 36/59/149 38/60/150 50/50/151 59/49/152
f 38/60/153 40/61/154 52/52/155 50/50/156
f 41/62/157 42/63/158 54/54/159 53/53/160
f 42/63/161 33/57/162 47/43/163 54/54/164
f 44/64/165 43/65/166 55/56/167 56/55/168
f 40/61/169 44/64/170 56/55/171 52/52/172
f 41/62/173 31/66/174 33/57/175 42/63/176
f 31/66/177 32/67/178 34/58/179 33/57/180
f 32/67/181 35/68/182 36/59/183 34/58/184
f 35/68/185 37/69/186 38/60/187 36/59/188
f 37/69/189 39/70/190 40/61/191 38/60/192
f 39/70/193 43/65/194 44/64/195 40/61/196
f 61/71/197 62/72/198 63/73/199 64/74/200
f 59/49/201 60/45/202 36/59/203
f 57/46/204 60/45/205 63/73/206 62/72/207
f 60/45/208 59/49/209 64/74/210 63/73/211
f 59/49/212 58/48/213 61/71/214 64/74/215
f 46/75/216 73/76/217 72/77/218 45/78/219
f 79/79/220 73/76/221 46/75/222 57/80/223
f 49/81/224 74/82/225 78/83/226 58/84/227
f 51/85/228 75/86/229 74/82/230 49/81/231
f 53/87/232 45/78/233 72/77/234 76/88/235
f 77/89/236 75/86/237 51/85/238 55/90/239
f 65/91/240 72/77/241 73/76/242 66/92/243
f 66/92/244 73/76/245 79/79/246 67/93/247
f 67/93/248 78/83/249 74/82/250 68/94/251
f 68/94/252 74/82/253 75/86/254 69/95/255
f 41/96/256 53/87/257 76/88/258 70/97/259
f 70/97/260 76/88/261 72/77/262 65/91/263
f 71/98/264 77/89/265 55/90/266 43/99/267
f 69/95/268 75/86/269 77/89/270 71/98/271
f 41/96/272 70/97/273 65/91/274 31/100/275
f 31/100/276 65/91/277 66/92/278 32/101/279
f 32/101/280 66/92/281 67/93/282 35/102/283
f 35/102/284 67/93/285 68/94/286 37/103/287
f 37/103/288 68/94/289 69/95/290 39/104/291
f 39/104/292 69/95/293 71/98/294 43/99/295
f 61/105/296 81/106/297 80/107/298 62/108/299
f 78/83/300 67/93/301 79/79/302
f 57/80/303 62/108/304 80/107/305 79/79/306
f 79/79/307 80/107/308 81/106/309 78/83/310
f 78/83/311 81/106/312 61/105/313 58/84/314
f 82/109/315 83/110/316 85/111/317 84/112/318
f 84/112/319 85/111/320 89/113/321 86/114/322
f 87/115/323 88/116/324 83/110/325 82/109/326
f 83/110/327 88/116/328 89/113/329 85/111/330
f 87/115/331 82/109/332 84/112/333 86/114/334
f 90/117/335 92/118/336 93/119/337 91/120/338
f 92/118/339 86/121/340 89/122/341 93/119/342
f 87/123/343 90/117/344 91/120/345 88/124/346
f 91/120/347 93/119/348 89/122/349 88/124/350
f 87/123/351 86/121/352 92/118/353 90/117/354
