# This file uses centimeters as units for non-parametric coordinates.

v 8.591690 4.829102 0.000000
v 4.826004 8.594810 0.000000
v 7.650284 5.770531 -4.000000
v 5.767410 7.653381 -4.000000
v -12.872253 -16.634865 0.000000
v -13.813690 -15.693436 -4.000000
v -15.696548 -13.810585 -4.000000
v -16.637970 -12.869156 0.000000
v 18.859879 15.097282 0.000000
v 17.918472 16.038712 -4.000000
v 16.035599 17.921562 -4.000000
v 15.094162 18.862991 0.000000
v -14.173096 -17.935699 0.000000
v -15.114517 -16.994270 -4.000000
v -16.997375 -15.111420 -4.000000
v -17.938812 -14.169991 0.000000
v 7.650284 5.770531 4.000000
v 5.767410 7.653381 4.000000
v -13.813690 -15.693436 4.000000
v -15.696548 -13.810585 4.000000
v 17.918472 16.038712 4.000000
v 16.035599 17.921562 4.000000
v -15.114517 -16.994270 4.000000
v -16.997375 -15.111420 4.000000
vt 0.987551 0.984512
vt 0.987551 0.984512
vt 0.987551 0.984512
vt 0.987551 0.984512
vt 0.987551 0.984512
vt 0.987551 0.984512
vt 0.987551 0.984512
vt 0.987551 0.984512
vt 0.987551 0.984512
vt 0.987551 0.984512
vt 0.987551 0.984512
vt 0.987551 0.984512
vt 0.140488 0.950363
vt 0.140488 0.950363
vt 0.140488 0.950363
vt 0.140488 0.950363
vt 0.140488 0.950363
vt 0.140488 0.950363
vt 0.140488 0.950363
vt 0.140488 0.950363
vt 0.136356 0.951395
vt 0.136356 0.951395
vt 0.136356 0.951395
vt 0.136356 0.951395
vt 0.922472 0.858425
vt 0.922472 0.858425
vt 0.922472 0.858425
vt 0.922472 0.858425
vt 0.922472 0.858425
vt 0.922472 0.858425
vt 0.922472 0.858425
vt 0.922472 0.858425
vt 0.987551 0.984512
vt 0.987551 0.984512
vt 0.987551 0.984512
vt 0.987551 0.984512
vt 0.987551 0.984512
vt 0.987551 0.984512
vt 0.987551 0.984512
vt 0.987551 0.984512
vt 0.987551 0.984512
vt 0.987551 0.984512
vt 0.987551 0.984512
vt 0.987551 0.984512
vt 0.140488 0.950363
vt 0.140488 0.950363
vt 0.140488 0.950363
vt 0.140488 0.950363
vt 0.140488 0.950363
vt 0.140488 0.950363
vt 0.140488 0.950363
vt 0.140488 0.950363
vt 0.136356 0.951395
vt 0.136356 0.951395
vt 0.136356 0.951395
vt 0.136356 0.951395
vt 0.922472 0.858425
vt 0.922472 0.858425
vt 0.922472 0.858425
vt 0.922472 0.858425
vt 0.922472 0.858425
vt 0.922472 0.858425
vt 0.922472 0.858425
vt 0.922472 0.858425
vn 0.670919 -0.670919 -0.315810
vn 0.670919 -0.670919 -0.315810
vn 0.670919 -0.670919 -0.315810
vn 0.670919 -0.670919 -0.315810
vn -0.000000 0.000000 -1.000000
vn -0.000000 0.000000 -1.000000
vn -0.000000 0.000000 -1.000000
vn -0.000000 0.000000 -1.000000
vn -0.670919 0.670919 -0.315809
vn -0.670919 0.670919 -0.315809
vn -0.670919 0.670919 -0.315809
vn -0.670919 0.670919 -0.315809
vn 0.670919 -0.670920 -0.315808
vn 0.670919 -0.670920 -0.315808
vn 0.670919 -0.670920 -0.315808
vn 0.670919 -0.670920 -0.315808
vn -0.000000 0.000000 -1.000000
vn -0.000000 0.000000 -1.000000
vn -0.000000 0.000000 -1.000000
vn -0.000000 0.000000 -1.000000
vn -0.670919 0.670919 -0.315810
vn -0.670919 0.670919 -0.315810
vn -0.670919 0.670918 -0.315810
vn -0.670919 0.670919 -0.315810
vn 0.707105 0.707109 0.000003
vn 0.707105 0.707109 0.000003
vn 0.707105 0.707109 0.000003
vn 0.707105 0.707109 0.000003
vn 0.670919 -0.670919 -0.315811
vn 0.670919 -0.670919 -0.315811
vn 0.670919 -0.670919 -0.315811
vn 0.670919 -0.670919 -0.315811
vn -0.000000 0.000000 -1.000000
vn -0.000000 0.000000 -1.000000
vn -0.000000 0.000000 -1.000000
vn -0.000000 0.000000 -1.000000
vn -0.670919 0.670919 -0.315811
vn -0.670919 0.670919 -0.315811
vn -0.670919 0.670919 -0.315811
vn -0.670919 0.670919 -0.315811
vn -0.707106 -0.707108 -0.000001
vn -0.707106 -0.707108 -0.000001
vn -0.707106 -0.707108 -0.000001
vn -0.707106 -0.707108 -0.000001
vn 0.670919 -0.670919 0.315810
vn 0.670919 -0.670919 0.315810
vn 0.670919 -0.670919 0.315810
vn 0.670919 -0.670919 0.315810
vn -0.000000 0.000000 1.000000
vn -0.000000 0.000000 1.000000
vn -0.000000 0.000000 1.000000
vn -0.000000 0.000000 1.000000
vn -0.670919 0.670919 0.315809
vn -0.670919 0.670919 0.315809
vn -0.670919 0.670919 0.315809
vn -0.670919 0.670919 0.315809
vn 0.670919 -0.670920 0.315808
vn 0.670919 -0.670920 0.315808
vn 0.670919 -0.670920 0.315808
vn 0.670919 -0.670920 0.315808
vn -0.000000 0.000000 1.000000
vn -0.000000 0.000000 1.000000
vn -0.000000 0.000000 1.000000
vn -0.000000 0.000000 1.000000
vn -0.670919 0.670919 0.315810
vn -0.670919 0.670919 0.315810
vn -0.670919 0.670918 0.315810
vn -0.670919 0.670919 0.315810
vn 0.707105 0.707109 -0.000003
vn 0.707105 0.707109 -0.000003
vn 0.707105 0.707109 -0.000003
vn 0.707105 0.707109 -0.000003
vn 0.670919 -0.670919 0.315811
vn 0.670919 -0.670919 0.315811
vn 0.670919 -0.670919 0.315811
vn 0.670919 -0.670919 0.315811
vn -0.000000 0.000000 1.000000
vn -0.000000 0.000000 1.000000
vn -0.000000 0.000000 1.000000
vn -0.000000 0.000000 1.000000
vn -0.670919 0.670919 0.315811
vn -0.670919 0.670919 0.315811
vn -0.670919 0.670919 0.315811
vn -0.670919 0.670919 0.315811
vn -0.707106 -0.707108 0.000001
vn -0.707106 -0.707108 0.000001
vn -0.707106 -0.707108 0.000001
vn -0.707106 -0.707108 0.000001
s off
f 1/1/1 5/2/2 6/3/3 3/4/4
f 3/5/5 6/6/6 7/7/7 4/8/8
f 4/9/9 7/10/10 8/11/11 2/12/12
f 3/13/13 10/14/14 9/15/15 1/16/16
f 4/17/17 11/18/18 10/14/19 3/13/20
f 2/19/21 12/20/22 11/18/23 4/17/24
f 12/21/25 9/22/26 10/23/27 11/24/28
f 5/25/29 13/26/30 14/27/31 6/28/32
f 6/28/33 14/27/34 15/29/35 7/30/36
f 7/30/37 15/29/38 16/31/39 8/32/40
f 15/29/41 14/27/42 13/26/43 16/31/44
f 1/33/45 17/34/46 19/35/47 5/36/48
f 17/37/49 18/38/50 20/39/51 19/40/52
f 18/41/53 2/42/54 8/43/55 20/44/56
f 17/45/57 1/46/58 9/47/59 21/48/60
f 18/49/61 17/45/62 21/48/63 22/50/64
f 2/51/65 18/49/66 22/50/67 12/52/68
f 12/53/69 22/54/70 21/55/71 9/56/72
f 5/57/73 19/58/74 23/59/75 13/60/76
f 19/58/77 20/61/78 24/62/79 23/59/80
f 20/61/81 8/63/82 16/64/83 24/62/84
f 24/62/85 16/64/86 13/60/87 23/59/88
