# This file uses centimeters as units for non-parametric coordinates.

v 5.774806 -2.397054 2.000000
v 6.878743 -9.488426 2.000000
v 0.009258 -6.576865 2.000000
v -6.898377 -9.474161 2.000000
v -5.747629 -2.385124 2.000000
v -11.142175 3.633072 2.000000
v -3.540031 4.385321 2.000000
v 0.012133 11.719522 2.000000
v 3.581235 4.377948 2.000000
v 11.149673 3.609992 2.000000
v -0.000001 0.000000 4.000000
v 5.774806 -2.397054 -2.000000
v 6.878743 -9.488426 -2.000000
v 0.009258 -6.576865 -2.000000
v -6.898377 -9.474161 -2.000000
v -5.747629 -2.385124 -2.000000
v -11.142175 3.633072 -2.000000
v -3.540031 4.385321 -2.000000
v 0.012133 11.719522 -2.000000
v 3.581235 4.377948 -2.000000
v 11.149673 3.609992 -2.000000
v -0.000001 0.000000 -4.000000
v 17.257816 9.922953 4.000000
v 9.943077 17.154070 4.000000
v -0.061743 19.897425 4.000000
v -9.937336 17.259609 4.000000
v -17.218685 9.944815 4.000000
v -19.849398 0.052312 4.000000
v -17.247675 -10.012714 4.000000
v -9.963334 -17.177849 4.000000
v 0.051087 -19.923351 4.000000
v 10.047351 -17.335152 4.000000
v 17.197699 -9.886699 4.000000
v 19.988834 0.004707 4.000000
v 12.507335 7.459085 4.000000
v 7.195702 13.189547 4.000000
v 0.178966 15.115476 4.000000
v -7.752702 12.784773 4.000000
v -13.270945 7.571176 4.000000
v -14.854608 0.074275 4.000000
v -12.623679 -7.069241 4.000000
v -7.250299 -13.028107 4.000000
v 0.261826 -15.195325 4.000000
v 7.663648 -13.050426 4.000000
v 13.148241 -6.966585 4.000000
v 14.981705 -0.061945 4.000000
v 10.877645 6.456428 2.000000
v 6.377878 10.960038 2.000000
v 0.076853 12.635893 2.000000
v -6.524833 10.955845 2.000000
v -10.694909 6.236166 2.000000
v -12.630469 -0.012386 2.000000
v -10.798085 -6.388455 2.000000
v -6.570057 -10.824237 2.000000
v 0.084408 -12.475259 2.000000
v 6.418572 -10.934706 2.000000
v 11.006999 -6.070582 2.000000
v 12.347807 0.225321 2.000000
v 0.000000 0.000000 2.000000
v 17.257816 9.922953 -4.000000
v 9.943077 17.154070 -4.000000
v -0.061743 19.897425 -4.000000
v -9.937336 17.259609 -4.000000
v -17.218685 9.944815 -4.000000
v -19.849398 0.052312 -4.000000
v -17.247675 -10.012714 -4.000000
v -9.963334 -17.177849 -4.000000
v 0.051087 -19.923351 -4.000000
v 10.047351 -17.335152 -4.000000
v 17.197699 -9.886699 -4.000000
v 19.988834 0.004707 -4.000000
v 12.507335 7.459085 -4.000000
v 7.195702 13.189547 -4.000000
v 0.178966 15.115476 -4.000000
v -7.752702 12.784773 -4.000000
v -13.270945 7.571176 -4.000000
v -14.854608 0.074275 -4.000000
v -12.623679 -7.069241 -4.000000
v -7.250299 -13.028107 -4.000000
v 0.261826 -15.195325 -4.000000
v 7.663648 -13.050426 -4.000000
v 13.148241 -6.966585 -4.000000
v 14.981705 -0.061945 -4.000000
v 10.877645 6.456428 -2.000000
v 6.377878 10.960038 -2.000000
v 0.076853 12.635893 -2.000000
v -6.524833 10.955845 -2.000000
v -10.694909 6.236166 -2.000000
v -12.630469 -0.012386 -2.000000
v -10.798085 -6.388455 -2.000000
v -6.570057 -10.824237 -2.000000
v 0.084408 -12.475259 -2.000000
v 6.418572 -10.934706 -2.000000
v 11.006999 -6.070582 -2.000000
v 12.347807 0.225321 -2.000000
v 0.000000 0.000000 -2.000000
vt 0.108273 0.984760
vt 0.108273 0.984760
vt 0.108273 0.984760
vt 0.108273 0.984760
vt 0.108273 0.984760
vt 0.108273 0.984760
vt 0.108273 0.984760
vt 0.108273 0.984760
vt 0.108273 0.984760
vt 0.108273 0.984760
vt 0.108273 0.984760
vt 0.108273 0.984760
vt 0.108273 0.984760
vt 0.108273 0.984760
vt 0.108273 0.984760
vt 0.108273 0.984760
vt 0.108273 0.984760
vt 0.108273 0.984760
vt 0.108273 0.984760
vt 0.108273 0.984760
vt 0.108273 0.984760
vt 0.108273 0.984760
vt 0.111272 0.983306
vt 0.111380 0.983148
vt 0.111380 0.983148
vt 0.111272 0.983306
vt 0.111547 0.983100
vt 0.111547 0.983100
vt 0.111732 0.983196
vt 0.111732 0.983196
vt 0.111876 0.983424
vt 0.111876 0.983424
vt 0.111925 0.983713
vt 0.111925 0.983713
vt 0.111862 0.983961
vt 0.111862 0.983961
vt 0.111718 0.984093
vt 0.111718 0.984093
vt 0.111544 0.984086
vt 0.111544 0.984086
vt 0.111387 0.983962
vt 0.111387 0.983962
vt 0.111279 0.983760
vt 0.111279 0.983760
vt 0.111237 0.983526
vt 0.111237 0.983526
vt 0.111380 0.983148
vt 0.111272 0.983306
vt 0.111547 0.983100
vt 0.111732 0.983196
vt 0.111876 0.983424
vt 0.111925 0.983713
vt 0.111862 0.983961
vt 0.111718 0.984093
vt 0.111544 0.984086
vt 0.111387 0.983962
vt 0.111279 0.983760
vt 0.111237 0.983526
vt 0.111563 0.983606
vt 0.111732 0.983196
vt 0.111876 0.983424
vt 0.111547 0.983100
vt 0.111380 0.983148
vt 0.111272 0.983306
vt 0.111237 0.983526
vt 0.111279 0.983760
vt 0.111387 0.983962
vt 0.111544 0.984086
vt 0.111718 0.984093
vt 0.111862 0.983961
vt 0.111925 0.983713
vt 0.111272 0.983306
vt 0.111380 0.983148
vt 0.111547 0.983100
vt 0.111732 0.983196
vt 0.111876 0.983424
vt 0.111925 0.983713
vt 0.111862 0.983961
vt 0.111718 0.984093
vt 0.111544 0.984086
vt 0.111387 0.983962
vt 0.111279 0.983760
vt 0.111237 0.983526
vt 0.111272 0.983306
vt 0.111380 0.983148
vt 0.111547 0.983100
vt 0.111732 0.983196
vt 0.111876 0.983424
vt 0.111925 0.983713
vt 0.111862 0.983961
vt 0.111718 0.984093
vt 0.111544 0.984086
vt 0.111387 0.983962
vt 0.111279 0.983760
vt 0.111237 0.983526
vt 0.111563 0.983606
vn 0.346715 0.053974 0.936416
vn 0.346715 0.053974 0.936416
vn 0.346715 0.053974 0.936416
vn -0.122451 -0.288910 0.949493
vn -0.122451 -0.288910 0.949493
vn -0.122451 -0.288910 0.949493
vn 0.121068 -0.288645 0.949751
vn 0.121068 -0.288645 0.949751
vn 0.121068 -0.288645 0.949751
vn -0.349003 0.056653 0.935408
vn -0.349003 0.056653 0.935408
vn -0.349003 0.056653 0.935408
vn -0.240083 -0.215204 0.946598
vn -0.240083 -0.215204 0.946598
vn -0.240083 -0.215204 0.946598
vn -0.038470 0.388770 0.920532
vn -0.038470 0.388770 0.920532
vn -0.038470 0.388770 0.920532
vn -0.328714 0.159206 0.930914
vn -0.328714 0.159206 0.930914
vn -0.328714 0.159206 0.930914
vn 0.326405 0.158681 0.931816
vn 0.326405 0.158681 0.931816
vn 0.326405 0.158681 0.931816
vn 0.039406 0.388358 0.920666
vn 0.039406 0.388358 0.920666
vn 0.039406 0.388358 0.920666
vn 0.239178 -0.214007 0.947098
vn 0.239178 -0.214007 0.947098
vn 0.239178 -0.214007 0.947098
vn 0.346715 0.053974 -0.936416
vn 0.346715 0.053974 -0.936416
vn 0.346715 0.053974 -0.936416
vn -0.122451 -0.288910 -0.949493
vn -0.122451 -0.288910 -0.949493
vn -0.122451 -0.288910 -0.949493
vn 0.121068 -0.288645 -0.949751
vn 0.121068 -0.288645 -0.949751
vn 0.121068 -0.288645 -0.949751
vn -0.349003 0.056653 -0.935408
vn -0.349003 0.056653 -0.935408
vn -0.349003 0.056653 -0.935408
vn -0.240083 -0.215204 -0.946598
vn -0.240083 -0.215204 -0.946598
vn -0.240083 -0.215204 -0.946598
vn -0.038470 0.388770 -0.920532
vn -0.038470 0.388770 -0.920532
vn -0.038470 0.388770 -0.920532
vn -0.328714 0.159206 -0.930914
vn -0.328714 0.159206 -0.930914
vn -0.328714 0.159206 -0.930914
vn 0.326405 0.158681 -0.931816
vn 0.326405 0.158681 -0.931816
vn 0.326405 0.158681 -0.931816
vn 0.039406 0.388358 -0.920666
vn 0.039406 0.388358 -0.920666
vn 0.039406 0.388358 -0.920666
vn 0.239178 -0.214007 -0.947098
vn 0.239178 -0.214007 -0.947098
vn 0.239178 -0.214007 -0.947098
vn -0.009624 -0.009375 0.999910
vn -0.009624 -0.009375 0.999910
vn -0.009624 -0.009375 0.999910
vn -0.009624 -0.009375 0.999910
vn -0.003850 -0.014036 0.999894
vn -0.003850 -0.014036 0.999894
vn -0.003850 -0.014036 0.999894
vn -0.003850 -0.014036 0.999894
vn 0.003719 -0.013331 0.999904
vn 0.003719 -0.013331 0.999904
vn 0.003719 -0.013331 0.999904
vn 0.003719 -0.013331 0.999904
vn 0.010086 -0.010304 0.999896
vn 0.010086 -0.010304 0.999896
vn 0.010086 -0.010304 0.999896
vn 0.010086 -0.010304 0.999896
vn 0.013921 -0.003374 0.999897
vn 0.013921 -0.003374 0.999897
vn 0.013921 -0.003374 0.999897
vn 0.013921 -0.003374 0.999897
vn 0.012670 0.003558 0.999913
vn 0.012670 0.003558 0.999913
vn 0.012670 0.003558 0.999913
vn 0.012670 0.003558 0.999913
vn 0.009340 0.009008 0.999916
vn 0.009340 0.009008 0.999916
vn 0.009340 0.009008 0.999916
vn 0.009340 0.009008 0.999916
vn 0.003828 0.013655 0.999899
vn 0.003828 0.013655 0.999899
vn 0.003828 0.013655 0.999899
vn 0.003828 0.013655 0.999899
vn -0.003751 0.013788 0.999898
vn -0.003751 0.013788 0.999898
vn -0.003751 0.013788 0.999898
vn -0.003751 0.013788 0.999898
vn -0.010062 0.009395 0.999905
vn -0.010062 0.009395 0.999905
vn -0.010062 0.009395 0.999905
vn -0.010062 0.009395 0.999905
vn -0.013454 0.003704 0.999903
vn -0.013454 0.003704 0.999903
vn -0.013454 0.003704 0.999903
vn -0.013454 0.003704 0.999903
vn -0.012596 -0.003760 0.999914
vn -0.012596 -0.003760 0.999914
vn -0.012596 -0.003760 0.999914
vn -0.012596 -0.003760 0.999914
vn -0.510203 -0.489131 0.707421
vn -0.510203 -0.489131 0.707421
vn -0.510203 -0.489131 0.707421
vn -0.510203 -0.489131 0.707421
vn -0.167422 -0.619052 0.767297
vn -0.167422 -0.619052 0.767297
vn -0.167422 -0.619052 0.767297
vn -0.167422 -0.619052 0.767297
vn 0.177778 -0.644195 0.743914
vn 0.177778 -0.644195 0.743914
vn 0.177778 -0.644195 0.743914
vn 0.177778 -0.644195 0.743914
vn 0.450920 -0.439800 0.776690
vn 0.450920 -0.439800 0.776690
vn 0.450920 -0.439800 0.776690
vn 0.450920 -0.439800 0.776690
vn 0.604969 -0.154889 0.781039
vn 0.604969 -0.154889 0.781039
vn 0.604969 -0.154889 0.781039
vn 0.604969 -0.154889 0.781039
vn 0.673018 0.202275 0.711430
vn 0.673018 0.202275 0.711430
vn 0.673018 0.202275 0.711430
vn 0.673018 0.202275 0.711430
vn 0.532700 0.492049 0.688563
vn 0.532700 0.492049 0.688563
vn 0.532700 0.492049 0.688563
vn 0.532700 0.492049 0.688563
vn 0.164868 0.611701 0.773719
vn 0.164868 0.611701 0.773719
vn 0.164868 0.611701 0.773719
vn 0.164868 0.611701 0.773719
vn -0.161112 0.600479 0.783242
vn -0.161112 0.600479 0.783242
vn -0.161112 0.600479 0.783242
vn -0.161112 0.600479 0.783242
vn -0.487017 0.448095 0.749683
vn -0.487017 0.448095 0.749683
vn -0.487017 0.448095 0.749683
vn -0.487017 0.448095 0.749683
vn -0.613388 0.147499 0.775886
vn -0.613388 0.147499 0.775886
vn -0.613388 0.147499 0.775886
vn -0.613388 0.147499 0.775886
vn -0.655066 -0.187893 0.731837
vn -0.655066 -0.187893 0.731837
vn -0.655066 -0.187893 0.731837
vn -0.655066 -0.187893 0.731837
vn 0.000000 0.000000 1.000000
vn 0.000000 0.000000 1.000000
vn 0.000000 0.000000 1.000000
vn 0.000000 0.000000 1.000000
vn 0.000000 0.000000 1.000000
vn 0.000000 0.000000 1.000000
vn 0.000000 0.000000 1.000000
vn 0.000000 0.000000 1.000000
vn 0.000000 0.000000 1.000000
vn 0.000000 0.000000 1.000000
vn 0.000000 0.000000 1.000000
vn 0.000000 0.000000 1.000000
vn 0.000000 0.000000 1.000000
vn 0.000000 0.000000 1.000000
vn 0.000000 0.000000 1.000000
vn 0.000000 0.000000 1.000000
vn 0.000000 0.000000 1.000000
vn 0.000000 0.000000 1.000000
vn 0.000000 0.000000 1.000000
vn 0.000000 0.000000 1.000000
vn 0.000000 0.000000 1.000000
vn 0.000000 0.000000 1.000000
vn 0.000000 0.000000 1.000000
vn 0.000000 0.000000 1.000000
vn 0.000000 0.000000 1.000000
vn 0.000000 0.000000 1.000000
vn 0.000000 0.000000 1.000000
vn 0.000000 0.000000 1.000000
vn 0.000000 0.000000 1.000000
vn 0.000000 0.000000 1.000000
vn 0.000000 0.000000 1.000000
vn 0.000000 0.000000 1.000000
vn 0.000000 0.000000 1.000000
vn 0.000000 0.000000 1.000000
vn 0.000000 0.000000 1.000000
vn 0.000000 0.000000 1.000000
vn -0.708725 0.705485 0.000000
vn -0.708725 0.705485 0.000000
vn -0.708725 0.705485 0.000000
vn -0.708725 0.705485 0.000000
vn -0.258058 0.966130 0.000000
vn -0.258058 0.966130 0.000000
vn -0.258058 0.966130 0.000000
vn -0.258058 0.966130 0.000000
vn 0.264442 0.964402 0.000000
vn 0.264442 0.964402 0.000000
vn 0.264442 0.964402 0.000000
vn 0.264442 0.964402 0.000000
vn 0.703030 0.711160 0.000000
vn 0.703030 0.711160 0.000000
vn 0.703030 0.711160 0.000000
vn 0.703030 0.711160 0.000000
vn 0.964118 0.265473 0.000000
vn 0.964118 0.265473 0.000000
vn 0.964118 0.265473 0.000000
vn 0.964118 0.265473 0.000000
vn 0.962418 -0.271573 0.000000
vn 0.962418 -0.271573 0.000000
vn 0.962418 -0.271573 0.000000
vn 0.962418 -0.271573 0.000000
vn 0.721395 -0.692523 0.000000
vn 0.721395 -0.692523 0.000000
vn 0.721395 -0.692523 0.000000
vn 0.721395 -0.692523 0.000000
vn 0.250651 -0.968077 0.000000
vn 0.250651 -0.968077 0.000000
vn 0.250651 -0.968077 0.000000
vn 0.250651 -0.968077 0.000000
vn -0.264399 -0.964413 0.000000
vn -0.264399 -0.964413 0.000000
vn -0.264399 -0.964413 0.000000
vn -0.264399 -0.964413 0.000000
vn -0.701249 -0.712916 0.000000
vn -0.701249 -0.712916 0.000000
vn -0.701249 -0.712916 0.000000
vn -0.701249 -0.712916 0.000000
vn -0.968177 -0.250266 0.000000
vn -0.968177 -0.250266 0.000000
vn -0.968177 -0.250266 0.000000
vn -0.968177 -0.250266 0.000000
vn -0.966412 0.256998 0.000000
vn -0.966412 0.256998 0.000000
vn -0.966412 0.256998 0.000000
vn -0.966412 0.256998 0.000000
vn -0.009624 -0.009375 -0.999910
vn -0.009624 -0.009375 -0.999910
vn -0.009624 -0.009375 -0.999910
vn -0.009624 -0.009375 -0.999910
vn -0.003850 -0.014036 -0.999894
vn -0.003850 -0.014036 -0.999894
vn -0.003850 -0.014036 -0.999894
vn -0.003850 -0.014036 -0.999894
vn 0.003720 -0.013331 -0.999904
vn 0.003720 -0.013331 -0.999904
vn 0.003720 -0.013331 -0.999904
vn 0.003720 -0.013331 -0.999904
vn 0.010086 -0.010304 -0.999896
vn 0.010086 -0.010304 -0.999896
vn 0.010086 -0.010304 -0.999896
vn 0.010086 -0.010304 -0.999896
vn 0.013921 -0.003374 -0.999897
vn 0.013921 -0.003374 -0.999897
vn 0.013921 -0.003374 -0.999897
vn 0.013921 -0.003374 -0.999897
vn 0.012670 0.003558 -0.999913
vn 0.012670 0.003558 -0.999913
vn 0.012670 0.003558 -0.999913
vn 0.012670 0.003558 -0.999913
vn 0.009340 0.009008 -0.999916
vn 0.009340 0.009008 -0.999916
vn 0.009340 0.009008 -0.999916
vn 0.009340 0.009008 -0.999916
vn 0.003828 0.013655 -0.999899
vn 0.003828 0.013655 -0.999899
vn 0.003828 0.013655 -0.999899
vn 0.003828 0.013655 -0.999899
vn -0.003751 0.013788 -0.999898
vn -0.003751 0.013788 -0.999898
vn -0.003751 0.013788 -0.999898
vn -0.003751 0.013788 -0.999898
vn -0.010062 0.009395 -0.999905
vn -0.010062 0.009395 -0.999905
vn -0.010062 0.009395 -0.999905
vn -0.010062 0.009395 -0.999905
vn -0.013454 0.003704 -0.999903
vn -0.013454 0.003704 -0.999903
vn -0.013454 0.003704 -0.999903
vn -0.013454 0.003704 -0.999903
vn -0.012596 -0.003760 -0.999914
vn -0.012596 -0.003760 -0.999914
vn -0.012596 -0.003760 -0.999914
vn -0.012596 -0.003760 -0.999914
vn -0.510203 -0.489131 -0.707421
vn -0.510203 -0.489131 -0.707421
vn -0.510203 -0.489131 -0.707421
vn -0.510203 -0.489131 -0.707421
vn -0.167422 -0.619052 -0.767297
vn -0.167422 -0.619052 -0.767297
vn -0.167422 -0.619052 -0.767297
vn -0.167422 -0.619052 -0.767297
vn 0.177778 -0.644195 -0.743914
vn 0.177778 -0.644195 -0.743914
vn 0.177778 -0.644195 -0.743914
vn 0.177778 -0.644195 -0.743914
vn 0.450920 -0.439800 -0.776690
vn 0.450920 -0.439800 -0.776690
vn 0.450920 -0.439800 -0.776690
vn 0.450920 -0.439800 -0.776690
vn 0.604969 -0.154889 -0.781039
vn 0.604969 -0.154889 -0.781039
vn 0.604969 -0.154889 -0.781039
vn 0.604969 -0.154889 -0.781039
vn 0.673018 0.202275 -0.711430
vn 0.673018 0.202275 -0.711430
vn 0.673018 0.202275 -0.711430
vn 0.673018 0.202275 -0.711430
vn 0.532700 0.492049 -0.688563
vn 0.532700 0.492049 -0.688563
vn 0.532700 0.492049 -0.688563
vn 0.532700 0.492049 -0.688563
vn 0.164868 0.611701 -0.773719
vn 0.164868 0.611701 -0.773719
vn 0.164868 0.611701 -0.773719
vn 0.164868 0.611701 -0.773719
vn -0.161112 0.600479 -0.783242
vn -0.161112 0.600479 -0.783242
vn -0.161112 0.600479 -0.783242
vn -0.161112 0.600479 -0.783242
vn -0.487017 0.448095 -0.749683
vn -0.487017 0.448095 -0.749683
vn -0.487017 0.448095 -0.749683
vn -0.487017 0.448095 -0.749683
vn -0.613388 0.147499 -0.775886
vn -0.613388 0.147499 -0.775886
vn -0.613388 0.147499 -0.775886
vn -0.613388 0.147499 -0.775886
vn -0.655066 -0.187893 -0.731837
vn -0.655066 -0.187893 -0.731837
vn -0.655066 -0.187893 -0.731837
vn -0.655066 -0.187893 -0.731837
vn 0.000000 0.000000 -1.000000
vn 0.000000 0.000000 -1.000000
vn 0.000000 0.000000 -1.000000
vn 0.000000 0.000000 -1.000000
vn 0.000000 0.000000 -1.000000
vn 0.000000 0.000000 -1.000000
vn 0.000000 0.000000 -1.000000
vn 0.000000 0.000000 -1.000000
vn 0.000000 0.000000 -1.000000
vn 0.000000 0.000000 -1.000000
vn 0.000000 0.000000 -1.000000
vn 0.000000 0.000000 -1.000000
vn 0.000000 0.000000 -1.000000
vn 0.000000 0.000000 -1.000000
vn 0.000000 0.000000 -1.000000
vn 0.000000 0.000000 -1.000000
vn 0.000000 0.000000 -1.000000
vn 0.000000 0.000000 -1.000000
vn 0.000000 0.000000 -1.000000
vn 0.000000 0.000000 -1.000000
vn 0.000000 0.000000 -1.000000
vn 0.000000 0.000000 -1.000000
vn 0.000000 0.000000 -1.000000
vn 0.000000 0.000000 -1.000000
vn 0.000000 0.000000 -1.000000
vn 0.000000 0.000000 -1.000000
vn 0.000000 0.000000 -1.000000
vn 0.000000 0.000000 -1.000000
vn 0.000000 0.000000 -1.000000
vn 0.000000 0.000000 -1.000000
vn 0.000000 0.000000 -1.000000
vn 0.000000 0.000000 -1.000000
vn 0.000000 0.000000 -1.000000
vn 0.000000 0.000000 -1.000000
vn 0.000000 0.000000 -1.000000
vn 0.000000 0.000000 -1.000000
s off
f 2/1/1 1/2/2 11/3/3
f 3/4/4 2/1/5 11/3/6
f 4/5/7 3/4/8 11/3/9
f 5/6/10 4/5/11 11/3/12
f 6/7/13 5/6/14 11/3/15
f 7/8/16 6/7/17 11/3/18
f 8/9/19 7/8/20 11/3/21
f 9/10/22 8/9/23 11/3/24
f 10/11/25 9/10/26 11/3/27
f 1/2/28 10/11/29 11/3/30
f 13/12/31 22/14/32 12/13/33
f 14/15/34 22/14/35 13/12/36
f 15/16/37 22/14/38 14/15/39
f 16/17/40 22/14/41 15/16/42
f 17/18/43 22/14/44 16/17/45
f 18/19/46 22/14/47 17/18/48
f 19/20/49 22/14/50 18/19/51
f 20/21/52 22/14/53 19/20/54
f 21/22/55 22/14/56 20/21/57
f 12/13/58 22/14/59 21/22/60
f 23/23/61 24/24/62 36/25/63 35/26/64
f 24/24/65 25/27/66 37/28/67 36/25/68
f 25/27/69 26/29/70 38/30/71 37/28/72
f 26/29/73 27/31/74 39/32/75 38/30/76
f 27/31/77 28/33/78 40/34/79 39/32/80
f 28/33/81 29/35/82 41/36/83 40/34/84
f 29/35/85 30/37/86 42/38/87 41/36/88
f 30/37/89 31/39/90 43/40/91 42/38/92
f 31/39/93 32/41/94 44/42/95 43/40/96
f 32/41/97 33/43/98 45/44/99 44/42/100
f 33/43/101 34/45/102 46/46/103 45/44/104
f 34/45/105 23/23/106 35/26/107 46/46/108
f 35/26/109 36/25/110 48/47/111 47/48/112
f 36/25/113 37/28/114 49/49/115 48/47/116
f 37/28/117 38/30/118 50/50/119 49/49/120
f 38/30/121 39/32/122 51/51/123 50/50/124
f 39/32/125 40/34/126 52/52/127 51/51/128
f 40/34/129 41/36/130 53/53/131 52/52/132
f 41/36/133 42/38/134 54/54/135 53/53/136
f 42/38/137 43/40/138 55/55/139 54/54/140
f 43/40/141 44/42/142 56/56/143 55/55/144
f 44/42/145 45/44/146 57/57/147 56/56/148
f 45/44/149 46/46/150 58/58/151 57/57/152
f 46/46/153 35/26/154 47/48/155 58/58/156
f 47/48/157 48/47/158 59/59/159
f 48/47/160 49/49/161 59/59/162
f 49/49/163 50/50/164 59/59/165
f 50/50/166 51/51/167 59/59/168
f 51/51/169 52/52/170 59/59/171
f 52/52/172 53/53/173 59/59/174
f 53/53/175 54/54/176 59/59/177
f 54/54/178 55/55/179 59/59/180
f 55/55/181 56/56/182 59/59/183
f 56/56/184 57/57/185 59/59/186
f 57/57/187 58/58/188 59/59/189
f 58/58/190 47/48/191 59/59/192
f 26/29/193 63/60/194 64/61/195 27/31/196
f 25/27/197 62/62/198 63/60/199 26/29/200
f 24/24/201 61/63/202 62/62/203 25/27/204
f 23/23/205 60/64/206 61/63/207 24/24/208
f 34/45/209 71/65/210 60/64/211 23/23/212
f 33/43/213 70/66/214 71/65/215 34/45/216
f 32/41/217 69/67/218 70/66/219 33/43/220
f 31/39/221 68/68/222 69/67/223 32/41/224
f 30/37/225 67/69/226 68/68/227 31/39/228
f 29/35/229 66/70/230 67/69/231 30/37/232
f 28/33/233 65/71/234 66/70/235 29/35/236
f 27/31/237 64/61/238 65/71/239 28/33/240
f 60/64/241 72/72/242 73/73/243 61/63/244
f 61/63/245 73/73/246 74/74/247 62/62/248
f 62/62/249 74/74/250 75/75/251 63/60/252
f 63/60/253 75/75/254 76/76/255 64/61/256
f 64/61/257 76/76/258 77/77/259 65/71/260
f 65/71/261 77/77/262 78/78/263 66/70/264
f 66/70/265 78/78/266 79/79/267 67/69/268
f 67/69/269 79/79/270 80/80/271 68/68/272
f 68/68/273 80/80/274 81/81/275 69/67/276
f 69/67/277 81/81/278 82/82/279 70/66/280
f 70/66/281 82/82/282 83/83/283 71/65/284
f 71/65/285 83/83/286 72/72/287 60/64/288
f 72/72/289 84/84/290 85/85/291 73/73/292
f 73/73/293 85/85/294 86/86/295 74/74/296
f 74/74/297 86/86/298 87/87/299 75/75/300
f 75/75/301 87/87/302 88/88/303 76/76/304
f 76/76/305 88/88/306 89/89/307 77/77/308
f 77/77/309 89/89/310 90/90/311 78/78/312
f 78/78/313 90/90/314 91/91/315 79/79/316
f 79/79/317 91/91/318 92/92/319 80/80/320
f 80/80/321 92/92/322 93/93/323 81/81/324
f 81/81/325 93/93/326 94/94/327 82/82/328
f 82/82/329 94/94/330 95/95/331 83/83/332
f 83/83/333 95/95/334 84/84/335 72/72/336
f 84/84/337 96/96/338 85/85/339
f 85/85/340 96/96/341 86/86/342
f 86/86/343 96/96/344 87/87/345
f 87/87/346 96/96/347 88/88/348
f 88/88/349 96/96/350 89/89/351
f 89/89/352 96/96/353 90/90/354
f 90/90/355 96/96/356 91/91/357
f 91/91/358 96/96/359 92/92/360
f 92/92/361 96/96/362 93/93/363
f 93/93/364 96/96/365 94/94/366
f 94/94/367 96/96/368 95/95/369
f 95/95/370 96/96/371 84/84/372
