# This file uses centimeters as units for non-parametric coordinates.

v -16.864605 18.768007 -0.000000
v -19.300764 14.034647 -0.000000
v -17.977436 7.551665 -0.000000
v -14.228206 6.219449 0.000000
v -12.118944 11.278957 2.000000
v -12.958612 16.768440 2.000000
v -15.907549 18.146286 2.000000
v -18.016811 14.034648 2.000000
v -17.177139 8.545169 2.000000
v -14.228205 7.167323 2.000000
v 18.608183 11.750129 0.000000
v 17.771872 16.810747 0.000000
v 14.562149 18.863701 0.000000
v -15.717771 15.987345 2.000000
v -16.674030 12.867074 2.000000
v -14.645810 9.367661 2.000000
v -15.997086 10.301622 2.000000
v -13.789420 11.517606 2.000000
v -14.071521 15.405509 2.000000
v -15.525855 15.402557 4.000000
v -16.104572 13.514250 4.000000
v -15.694906 11.961708 4.000000
v -14.877148 11.396502 4.000000
v -14.358887 12.697590 4.000000
v -14.529602 15.050442 4.000000
v -10.926415 11.278960 4.000000
v -12.110573 16.931526 4.000000
v 17.032557 11.750130 3.999998
v 15.791135 16.850227 4.000000
v -12.821247 -18.912094 -0.000000
v 18.586229 -18.870266 0.000000
v 17.202135 -16.970516 4.000000
v -11.276510 -16.973753 4.000000
v -12.124436 8.189967 2.000000
v -10.573880 7.234782 4.000000
v 17.164738 7.705957 4.000000
v 18.651770 7.705956 0.000000
v -12.657177 6.267514 0.000000
v 18.573902 -4.124686 0.000000
v 17.133291 -3.221045 4.000000
v -11.018284 -3.800817 4.000000
v -12.686007 -4.948026 -0.000000
v -1.151224 18.815853 0.000000
v 7.286522 16.594479 4.000000
v 2.843034 11.514542 4.000000
v 2.891958 7.470372 4.000000
v 3.823023 -3.510933 4.000000
v 3.814423 -10.503185 3.999999
v 3.734110 -13.311419 0.000000
v -12.118944 11.278957 -2.000000
v -12.958612 16.768440 -2.000000
v -15.907549 18.146286 -2.000000
v -18.016811 14.034648 -2.000000
v -17.177139 8.545169 -2.000000
v -14.228205 7.167323 -2.000000
v -15.717771 15.987345 -2.000000
v -16.674030 12.867074 -2.000000
v -14.645810 9.367661 -2.000000
v -15.997086 10.301622 -2.000000
v -13.789420 11.517606 -2.000000
v -14.071521 15.405509 -2.000000
v -15.525855 15.402557 -4.000000
v -16.104572 13.514250 -4.000000
v -15.694906 11.961708 -4.000000
v -14.877148 11.396502 -4.000000
v -14.358887 12.697590 -4.000000
v -14.529602 15.050442 -4.000000
v -10.926415 11.278960 -4.000000
v -12.110573 16.931526 -4.000000
v 17.032557 11.750130 -3.999998
v 15.791135 16.850227 -4.000000
v 17.202135 -16.970516 -4.000000
v -11.276510 -16.973753 -4.000000
v -12.124436 8.189967 -2.000000
v -10.573880 7.234782 -4.000000
v 17.164738 7.705957 -4.000000
v 17.133291 -3.221045 -4.000000
v -11.018284 -3.800817 -4.000000
v 7.286522 16.594479 -4.000000
v 2.843034 11.514542 -4.000000
v 2.891958 7.470372 -4.000000
v 3.823023 -3.510933 -4.000000
v 3.814423 -10.503185 -3.999999
vt 0.923132 0.977593
vt 0.924303 0.956085
vt 0.921916 0.953430
vt 0.923174 0.953430
vt 0.919929 0.977807
vt 0.416667 0.688440
vt 0.458333 0.688440
vt 0.925241 0.955736
vt 0.923212 0.949794
vt 0.923997 0.950352
vt 0.926886 0.949047
vt 0.926886 0.949579
vt 0.925427 0.954526
vt 0.927040 0.954199
vt 0.928130 0.954964
vt 0.924490 0.952775
vt 0.920378 0.978261
vt 0.918942 0.978240
vt 0.921970 0.982264
vt 0.888871 0.923828
vt 0.887579 0.921992
vt 0.888494 0.920482
vt 0.890318 0.919933
vt 0.891474 0.921198
vt 0.891093 0.923485
vt 0.888443 0.924396
vt 0.886309 0.921363
vt 0.887819 0.918869
vt 0.890834 0.917961
vt 0.892745 0.920051
vt 0.892115 0.923831
vt 0.416667 0.688440
vt 0.919068 0.977784
vt 0.921977 0.977792
vt 0.921892 0.978282
vt 0.921780 0.978282
vt 0.921892 0.977777
vt 0.920280 0.980226
vt 0.920288 0.980476
vt 0.918785 0.980972
vt 0.918925 0.980803
vt 0.918783 0.978240
vt 0.918867 0.977788
vt 0.926477 0.950813
vt 0.925153 0.951337
vt 0.928953 0.951885
vt 0.927316 0.952019
vt 0.928426 0.949074
vt 0.918929 0.978600
vt 0.918778 0.978600
vt 0.920373 0.978621
vt 0.921893 0.978557
vt 0.921787 0.978642
vt 0.921781 0.979627
vt 0.921950 0.979730
vt 0.920799 0.981726
vt 0.921964 0.980976
vt 0.921807 0.980803
vt 0.918932 0.979576
vt 0.920279 0.979601
vt 0.918786 0.979656
vt 0.921947 0.978729
vt 0.928948 0.950152
vt 0.920968 0.977493
vt 0.920526 0.981809
vt 0.925297 0.977694
vt 0.925165 0.979001
vt 0.924642 0.981555
vt 0.924303 0.956085
vt 0.921916 0.953430
vt 0.923174 0.953430
vt 0.925241 0.955736
vt 0.923212 0.949794
vt 0.923997 0.950352
vt 0.926886 0.949047
vt 0.926886 0.949579
vt 0.888871 0.923828
vt 0.887579 0.921992
vt 0.888494 0.920482
vt 0.890318 0.919933
vt 0.891474 0.921198
vt 0.891093 0.923485
vt 0.919929 0.977807
vt 0.920378 0.978261
vt 0.918942 0.978240
vt 0.919068 0.977784
vt 0.923132 0.977593
vt 0.921970 0.982264
vt 0.920799 0.981726
vt 0.920968 0.977493
vt 0.925427 0.954526
vt 0.927040 0.954199
vt 0.928130 0.954964
vt 0.924490 0.952775
vt 0.926477 0.950813
vt 0.925153 0.951337
vt 0.928953 0.951885
vt 0.927316 0.952019
vt 0.888443 0.924396
vt 0.886309 0.921363
vt 0.887819 0.918869
vt 0.890834 0.917961
vt 0.892745 0.920051
vt 0.892115 0.923831
vt 0.921977 0.977792
vt 0.921892 0.978282
vt 0.921780 0.978282
vt 0.921892 0.977777
vt 0.920280 0.980226
vt 0.920288 0.980476
vt 0.918785 0.980972
vt 0.918925 0.980803
vt 0.918783 0.978240
vt 0.918867 0.977788
vt 0.458333 0.688440
vt 0.416667 0.688440
vt 0.416667 0.688440
vt 0.920526 0.981809
vt 0.918929 0.978600
vt 0.918778 0.978600
vt 0.920373 0.978621
vt 0.921893 0.978557
vt 0.921787 0.978642
vt 0.921781 0.979627
vt 0.921950 0.979730
vt 0.921964 0.980976
vt 0.921807 0.980803
vt 0.918932 0.979576
vt 0.920279 0.979601
vt 0.918786 0.979656
vt 0.928426 0.949074
vt 0.928948 0.950152
vt 0.921947 0.978729
vt 0.925297 0.977694
vt 0.925165 0.979001
vt 0.924642 0.981555
vn -0.772932 0.397208 0.494775
vn -0.772932 0.397207 0.494775
vn -0.772932 0.397207 0.494775
vn -0.772932 0.397207 0.494775
vn -0.859733 -0.155323 0.486553
vn -0.859733 -0.155323 0.486553
vn -0.859733 -0.155323 0.486553
vn -0.859733 -0.155323 0.486553
vn -0.332085 -0.820779 0.464802
vn -0.332085 -0.820779 0.464802
vn -0.332085 -0.820779 0.464802
vn -0.332085 -0.820779 0.464802
vn 0.000000 0.000000 1.000000
vn 0.000000 0.000000 1.000000
vn 0.000000 0.000000 1.000000
vn 0.000000 0.000000 1.000000
vn 0.000000 0.000000 1.000000
vn 0.000000 0.000000 1.000000
vn 0.000000 0.000000 1.000000
vn 0.000000 0.000000 1.000000
vn 0.000000 -0.000000 1.000000
vn 0.000000 -0.000000 1.000000
vn 0.000000 -0.000000 1.000000
vn 0.000000 -0.000000 1.000000
vn 0.014479 0.882925 0.469290
vn -0.005663 0.879241 0.476344
vn -0.011009 0.878193 0.478179
vn -0.011009 0.878193 0.478179
vn 0.000000 0.000000 1.000000
vn 0.000000 0.000000 1.000000
vn 0.000000 0.000000 1.000000
vn 0.000000 0.000000 1.000000
vn 0.000000 0.000000 1.000000
vn 0.000000 0.000000 1.000000
vn 0.000000 0.000000 1.000000
vn 0.000000 0.000000 1.000000
vn 0.000000 0.000000 1.000000
vn 0.000000 0.000000 1.000000
vn 0.000000 0.000000 1.000000
vn 0.000000 0.000000 1.000000
vn 0.000000 0.000000 1.000000
vn 0.000000 0.000000 1.000000
vn 0.000000 0.000000 1.000000
vn 0.000000 0.000000 1.000000
vn 0.000000 0.000000 1.000000
vn 0.000000 0.000000 1.000000
vn 0.000000 0.000000 1.000000
vn 0.000000 0.000000 1.000000
vn 0.000000 0.000000 1.000000
vn 0.000000 0.000000 1.000000
vn 0.000000 0.000000 1.000000
vn 0.000000 0.000000 1.000000
vn -0.941405 0.288512 0.174690
vn -0.941405 0.288512 0.174690
vn -0.941405 0.288512 0.174690
vn -0.941405 0.288512 0.174690
vn -0.910367 -0.240218 0.336939
vn -0.910367 -0.240218 0.336939
vn -0.910367 -0.240218 0.336939
vn -0.910367 -0.240218 0.336939
vn -0.450777 -0.652196 0.609459
vn -0.450777 -0.652196 0.609459
vn -0.450777 -0.652196 0.609459
vn -0.450777 -0.652196 0.609459
vn 0.969553 0.070349 0.234558
vn 0.969553 0.070349 0.234558
vn 0.969553 0.070349 0.234558
vn 0.969553 0.070349 0.234558
vn 0.323758 0.916033 0.236778
vn 0.323758 0.916033 0.236778
vn 0.323758 0.916033 0.236778
vn 0.323758 0.916033 0.236778
vn 0.836593 -0.333240 0.434814
vn 0.836593 -0.333240 0.434814
vn 0.836593 -0.333240 0.434814
vn 0.836593 -0.333240 0.434814
vn -0.876772 -0.159256 0.453772
vn -0.876772 -0.159256 0.453771
vn -0.876772 -0.159256 0.453772
vn -0.876772 -0.159256 0.453771
vn -0.000216 -0.888168 0.459519
vn 0.002079 -0.888170 0.459510
vn -0.353557 -0.830222 0.430963
vn -0.353557 -0.830222 0.430964
vn 0.898556 0.183743 0.398542
vn 0.898556 0.183743 0.398542
vn 0.898556 0.183743 0.398542
vn 0.898556 0.183743 0.398542
vn -0.410342 -0.878235 0.245607
vn -0.410342 -0.878235 0.245607
vn -0.410342 -0.878235 0.245607
vn 0.538817 0.842423 -0.000000
vn 0.538817 0.842423 -0.000000
vn 0.521670 0.815613 0.250272
vn 0.933710 0.020290 0.357455
vn 0.933710 0.020290 0.357455
vn 0.937615 0.002052 0.347669
vn 0.937622 0.002015 0.347650
vn 0.000000 0.000000 1.000000
vn 0.000000 0.000000 1.000000
vn -0.000000 0.000000 1.000000
vn 0.000000 0.000000 1.000000
vn -0.828500 -0.040308 0.558536
vn -0.828500 -0.040308 0.558536
vn -0.869970 -0.011163 0.492978
vn -0.875755 -0.006723 0.482709
vn -0.907048 0.005552 0.420990
vn -0.916109 0.008601 0.400838
vn -0.929680 0.013480 0.368121
vn -0.929680 0.013480 0.368121
vn -0.000000 -0.000000 1.000000
vn -0.000000 -0.000000 1.000000
vn -0.000000 -0.000000 1.000000
vn -0.000000 -0.000000 1.000000
vn 0.941618 -0.000052 0.336683
vn 0.941051 -0.000999 0.338263
vn 0.943239 0.002687 0.332105
vn 0.943239 0.002687 0.332105
vn 0.234361 -0.804354 0.545976
vn 0.234361 -0.804354 0.545976
vn 0.234361 -0.804354 0.545976
vn 0.234361 -0.804354 0.545976
vn 0.000000 0.000000 1.000000
vn 0.000000 0.000000 1.000000
vn 0.000000 0.000000 1.000000
vn 0.937622 0.002015 0.347650
vn 0.937615 0.002052 0.347669
vn 0.941051 -0.000999 0.338263
vn 0.941618 -0.000052 0.336683
vn 0.000000 0.000000 1.000000
vn -0.000000 0.000000 1.000000
vn -0.000000 -0.000000 1.000000
vn -0.000000 -0.000000 1.000000
vn -0.875755 -0.006723 0.482709
vn -0.869970 -0.011163 0.492978
vn -0.916109 0.008601 0.400838
vn -0.907048 0.005552 0.420990
vn -0.999997 0.002571 0.000000
vn -0.966895 0.002486 0.255163
vn -0.999997 0.002571 0.000000
vn -0.002906 0.954526 0.298115
vn -0.002906 0.954526 0.298115
vn -0.002906 0.954526 0.298115
vn 0.018788 0.883660 0.467752
vn 0.018788 0.883660 0.467752
vn -0.005663 0.879241 0.476344
vn 0.014479 0.882925 0.469290
vn -0.000000 0.000000 1.000000
vn -0.000000 0.000000 1.000000
vn 0.000000 -0.000000 1.000000
vn 0.000000 -0.000000 1.000000
vn -0.000000 0.000000 1.000000
vn 0.000000 0.000000 1.000000
vn -0.000000 -0.000000 1.000000
vn -0.000000 -0.000000 1.000000
vn -0.000000 -0.000000 1.000000
vn -0.000000 0.000000 1.000000
vn -0.000000 -0.000000 1.000000
vn 0.000000 -0.000000 1.000000
vn -0.000000 -0.000000 1.000000
vn -0.000000 -0.000000 1.000000
vn 0.000000 -0.000000 1.000000
vn 0.000000 -0.000000 1.000000
vn 0.321052 -0.841678 0.434170
vn 0.002079 -0.888170 0.459510
vn -0.000216 -0.888168 0.459519
vn 0.321052 -0.841678 0.434170
vn -0.772932 0.397208 -0.494775
vn -0.772932 0.397207 -0.494775
vn -0.772932 0.397207 -0.494775
vn -0.772932 0.397207 -0.494775
vn -0.859733 -0.155323 -0.486553
vn -0.859733 -0.155323 -0.486553
vn -0.859733 -0.155323 -0.486553
vn -0.859733 -0.155323 -0.486553
vn -0.332085 -0.820779 -0.464802
vn -0.332085 -0.820779 -0.464802
vn -0.332085 -0.820779 -0.464802
vn -0.332085 -0.820779 -0.464802
vn 0.000000 0.000000 -1.000000
vn 0.000000 0.000000 -1.000000
vn 0.000000 0.000000 -1.000000
vn 0.000000 0.000000 -1.000000
vn 0.000000 0.000000 -1.000000
vn 0.000000 0.000000 -1.000000
vn 0.000000 0.000000 -1.000000
vn 0.000000 0.000000 -1.000000
vn 0.000000 -0.000000 -1.000000
vn 0.000000 -0.000000 -1.000000
vn 0.000000 -0.000000 -1.000000
vn 0.000000 -0.000000 -1.000000
vn 0.014479 0.882925 -0.469290
vn -0.011009 0.878193 -0.478180
vn -0.011009 0.878193 -0.478180
vn -0.005663 0.879240 -0.476345
vn 0.000000 0.000000 -1.000000
vn 0.000000 0.000000 -1.000000
vn 0.000000 0.000000 -1.000000
vn 0.000000 0.000000 -1.000000
vn 0.000000 0.000000 -1.000000
vn 0.000000 0.000000 -1.000000
vn 0.000000 0.000000 -1.000000
vn 0.000000 0.000000 -1.000000
vn 0.000000 0.000000 -1.000000
vn 0.000000 0.000000 -1.000000
vn 0.000000 0.000000 -1.000000
vn 0.000000 0.000000 -1.000000
vn 0.000000 0.000000 -1.000000
vn 0.000000 0.000000 -1.000000
vn 0.000000 0.000000 -1.000000
vn 0.000000 0.000000 -1.000000
vn 0.000000 0.000000 -1.000000
vn 0.000000 0.000000 -1.000000
vn 0.000000 0.000000 -1.000000
vn 0.000000 0.000000 -1.000000
vn 0.000000 0.000000 -1.000000
vn 0.000000 0.000000 -1.000000
vn 0.000000 0.000000 -1.000000
vn 0.000000 0.000000 -1.000000
vn -0.941405 0.288512 -0.174690
vn -0.941405 0.288512 -0.174690
vn -0.941405 0.288512 -0.174690
vn -0.941405 0.288512 -0.174690
vn -0.910367 -0.240218 -0.336939
vn -0.910367 -0.240218 -0.336939
vn -0.910367 -0.240218 -0.336939
vn -0.910367 -0.240218 -0.336939
vn -0.450777 -0.652196 -0.609459
vn -0.450777 -0.652196 -0.609459
vn -0.450777 -0.652196 -0.609459
vn -0.450777 -0.652196 -0.609459
vn 0.969553 0.070349 -0.234558
vn 0.969553 0.070349 -0.234558
vn 0.969553 0.070349 -0.234558
vn 0.969553 0.070349 -0.234558
vn 0.323758 0.916033 -0.236778
vn 0.323758 0.916033 -0.236778
vn 0.323758 0.916033 -0.236778
vn 0.323758 0.916033 -0.236778
vn 0.836593 -0.333240 -0.434814
vn 0.836593 -0.333240 -0.434814
vn 0.836593 -0.333240 -0.434814
vn 0.836593 -0.333240 -0.434814
vn -0.876772 -0.159256 -0.453771
vn -0.876772 -0.159256 -0.453771
vn -0.876772 -0.159256 -0.453771
vn -0.876772 -0.159256 -0.453771
vn -0.000216 -0.888168 -0.459519
vn -0.353557 -0.830222 -0.430964
vn -0.353557 -0.830222 -0.430963
vn 0.002079 -0.888170 -0.459511
vn 0.898556 0.183743 -0.398542
vn 0.898556 0.183743 -0.398542
vn 0.898556 0.183743 -0.398542
vn 0.898556 0.183743 -0.398542
vn -0.410342 -0.878235 -0.245608
vn -0.410342 -0.878235 -0.245608
vn -0.410342 -0.878235 -0.245608
vn 0.538817 0.842423 -0.000000
vn 0.521670 0.815613 -0.250273
vn 0.538817 0.842423 -0.000000
vn 0.933710 0.020290 -0.357455
vn 0.937622 0.002015 -0.347650
vn 0.937615 0.002052 -0.347669
vn 0.933710 0.020290 -0.357455
vn 0.000000 0.000000 -1.000000
vn 0.000000 0.000000 -1.000000
vn -0.000000 0.000000 -1.000000
vn 0.000000 0.000000 -1.000000
vn -0.828500 -0.040308 -0.558536
vn -0.875755 -0.006723 -0.482709
vn -0.869970 -0.011163 -0.492978
vn -0.828500 -0.040308 -0.558536
vn -0.907048 0.005552 -0.420990
vn -0.929680 0.013480 -0.368121
vn -0.929680 0.013480 -0.368121
vn -0.916109 0.008601 -0.400838
vn -0.000000 -0.000000 -1.000000
vn -0.000000 -0.000000 -1.000000
vn -0.000000 -0.000000 -1.000000
vn -0.000000 -0.000000 -1.000000
vn 0.941618 -0.000052 -0.336683
vn 0.943239 0.002687 -0.332105
vn 0.943239 0.002687 -0.332105
vn 0.941051 -0.000999 -0.338263
vn 0.234361 -0.804354 -0.545976
vn 0.234361 -0.804354 -0.545976
vn 0.234361 -0.804354 -0.545976
vn 0.234361 -0.804354 -0.545976
vn 0.000000 0.000000 -1.000000
vn 0.000000 0.000000 -1.000000
vn 0.000000 0.000000 -1.000000
vn 0.937622 0.002015 -0.347650
vn 0.941618 -0.000052 -0.336683
vn 0.941051 -0.000999 -0.338263
vn 0.937615 0.002052 -0.347669
vn 0.000000 0.000000 -1.000000
vn -0.000000 -0.000000 -1.000000
vn -0.000000 -0.000000 -1.000000
vn -0.000000 0.000000 -1.000000
vn -0.875755 -0.006723 -0.482709
vn -0.907048 0.005552 -0.420990
vn -0.916109 0.008601 -0.400838
vn -0.869970 -0.011163 -0.492978
vn -0.999997 0.002571 0.000000
vn -0.999997 0.002571 0.000000
vn -0.966895 0.002486 -0.255163
vn -0.002906 0.954526 -0.298115
vn -0.002906 0.954526 -0.298115
vn -0.002906 0.954526 -0.298115
vn 0.018788 0.883660 -0.467752
vn 0.014479 0.882925 -0.469290
vn -0.005663 0.879240 -0.476345
vn 0.018788 0.883660 -0.467752
vn -0.000000 0.000000 -1.000000
vn 0.000000 -0.000000 -1.000000
vn 0.000000 -0.000000 -1.000000
vn -0.000000 0.000000 -1.000000
vn -0.000000 0.000000 -1.000000
vn -0.000000 -0.000000 -1.000000
vn -0.000000 -0.000000 -1.000000
vn 0.000000 0.000000 -1.000000
vn -0.000000 -0.000000 -1.000000
vn 0.000000 -0.000000 -1.000000
vn -0.000000 -0.000000 -1.000000
vn -0.000000 0.000000 -1.000000
vn -0.000000 -0.000000 -1.000000
vn 0.000000 -0.000000 -1.000000
vn 0.000000 -0.000000 -1.000000
vn -0.000000 -0.000000 -1.000000
vn 0.321052 -0.841678 -0.434170
vn 0.321052 -0.841678 -0.434170
vn -0.000216 -0.888168 -0.459519
vn 0.002079 -0.888170 -0.459511
s off
f 1/2/1 2/3/2 8/4/3 7/8/4
f 2/3/5 3/9/6 9/10/7 8/4/8
f 3/9/9 4/11/10 10/12/11 9/10/12
f 20/20/13 21/21/14 22/22/15 23/23/16
f 24/24/17 25/25/18 20/20/19 23/23/20
f 44/5/21 45/17/22 28/18/23 29/33/24
f 43/1/25 44/19/26 29/56/27 13/64/28
f 7/8/29 14/13/30 19/14/31 6/15/32
f 7/8/33 8/4/34 15/16/35 14/13/36
f 16/44/37 17/45/38 9/10/39 10/12/40
f 5/46/41 18/47/42 16/44/43 10/12/44
f 6/15/45 19/14/46 18/47/47 5/46/48
f 17/45/49 15/16/50 8/4/51 9/10/52
f 14/26/53 15/27/54 21/21/55 20/20/56
f 15/27/57 17/28/58 22/22/59 21/21/60
f 17/28/61 16/29/62 23/23/63 22/22/64
f 18/30/65 19/31/66 25/25/67 24/24/68
f 19/31/69 14/26/70 20/20/71 25/25/72
f 16/29/73 18/30/74 24/24/75 23/23/76
f 6/34/77 5/35/78 26/36/79 27/37/80
f 48/38/81 49/39/82 31/40/83 32/41/84
f 11/42/85 12/43/86 29/33/87 28/18/88
f 7/7/89 6/6/90 27/32/91
f 12/65/92 13/64/93 29/56/94
f 11/42/95 28/18/96 36/49/97 37/50/98
f 28/18/99 45/17/100 46/51/101 36/49/102
f 26/36/103 5/35/104 34/52/105 35/53/106
f 41/54/107 42/55/108 30/57/109 33/58/110
f 40/59/111 47/60/112 48/38/113 32/41/114
f 39/61/115 40/59/116 32/41/117 31/40/118
f 10/12/119 4/11/120 38/48/121 34/63/122
f 10/12/123 34/63/124 5/46/125
f 37/50/126 36/49/127 40/59/128 39/61/129
f 36/49/130 46/51/131 47/60/132 40/59/133
f 35/53/134 34/52/135 42/55/136 41/54/137
f 42/55/138 34/52/139 38/62/140
f 1/66/141 7/67/142 43/1/143
f 7/67/144 27/68/145 44/19/146 43/1/147
f 27/37/148 26/36/149 45/17/150 44/5/151
f 46/51/152 45/17/153 26/36/154 35/53/155
f 47/60/156 46/51/157 35/53/158 41/54/159
f 48/38/160 47/60/161 41/54/162 33/58/163
f 30/57/164 49/39/165 48/38/166 33/58/167
f 1/69/168 52/72/169 53/71/170 2/70/171
f 2/70/172 53/71/173 54/74/174 3/73/175
f 3/73/176 54/74/177 55/76/178 4/75/179
f 62/77/180 65/80/181 64/79/182 63/78/183
f 66/81/184 65/80/185 62/77/186 67/82/187
f 79/83/188 71/86/189 70/85/190 80/84/191
f 43/87/192 13/90/193 71/89/194 79/88/195
f 52/72/196 51/93/197 61/92/198 56/91/199
f 52/72/200 56/91/201 57/94/202 53/71/203
f 58/95/204 55/76/205 54/74/206 59/96/207
f 50/97/208 55/76/209 58/95/210 60/98/211
f 51/93/212 50/97/213 60/98/214 61/92/215
f 59/96/216 54/74/217 53/71/218 57/94/219
f 56/99/220 62/77/221 63/78/222 57/100/223
f 57/100/224 63/78/225 64/79/226 59/101/227
f 59/101/228 64/79/229 65/80/230 58/102/231
f 60/103/232 66/81/233 67/82/234 61/104/235
f 61/104/236 67/82/237 62/77/238 56/99/239
f 58/102/240 65/80/241 66/81/242 60/103/243
f 51/105/244 69/108/245 68/107/246 50/106/247
f 83/109/248 72/112/249 31/111/250 49/110/251
f 11/113/252 70/85/253 71/86/254 12/114/255
f 52/115/256 69/117/257 51/116/258
f 12/118/259 71/89/260 13/90/261
f 11/113/262 37/120/263 76/119/264 70/85/265
f 70/85/266 76/119/267 81/121/268 80/84/269
f 68/107/270 75/123/271 74/122/272 50/106/273
f 78/124/274 73/127/275 30/126/276 42/125/277
f 77/128/278 72/112/279 83/109/280 82/129/281
f 39/130/282 31/111/283 72/112/284 77/128/285
f 55/76/286 74/132/287 38/131/288 4/75/289
f 55/76/290 50/97/291 74/132/292
f 37/120/293 39/130/294 77/128/295 76/119/296
f 76/119/297 77/128/298 82/129/299 81/121/300
f 75/123/301 78/124/302 42/125/303 74/122/304
f 42/125/305 38/133/306 74/122/307
f 1/134/308 43/87/309 52/135/310
f 52/135/311 43/87/312 79/88/313 69/136/314
f 69/108/315 79/83/316 80/84/317 68/107/318
f 81/121/319 75/123/320 68/107/321 80/84/322
f 82/129/323 78/124/324 75/123/325 81/121/326
f 83/109/327 73/127/328 78/124/329 82/129/330
f 30/126/331 73/127/332 83/109/333 49/110/334
