# This file uses centimeters as units for non-parametric coordinates.

v -20.000000 5.279441 -0.000000
v 7.826600 -20.000000 -0.000000
v 20.000000 -3.760040 -0.000000
v -8.859520 20.000000 -0.000000
v 20.000000 -11.967749 0.000000
v 11.478315 -20.000000 0.000000
v -20.000000 9.681044 -0.000000
v -12.271469 20.000000 -0.000000
v 18.410124 -10.915214 2.061337
v 16.069115 -15.427858 2.061337
v 10.411131 -18.454794 2.061337
v 6.983398 -18.454794 2.061337
v 18.410124 -3.210938 2.061337
v -8.679253 19.091743 2.061337
v -17.031593 15.826051 2.061337
v -11.881925 19.091743 2.061337
v 7.492426 -12.509795 2.061337
v 11.079072 -7.092515 2.061337
v 14.510398 -4.257050 2.061337
v 9.820972 -11.175622 2.061337
v 8.398392 -16.185486 2.061337
v 6.075031 -16.911926 3.938663
v 6.527508 -11.627385 3.938663
v 9.553347 -7.057150 3.938663
v -16.226765 13.977222 3.938663
v -18.002478 8.560772 3.938663
v -18.002478 4.754798 3.938663
v 17.506018 -16.775270 0.000000
v -17.757641 16.520912 -0.000000
v 16.069494 -6.774782 0.858196
v 13.993192 -7.331756 0.858196
v 11.496437 -11.015357 0.858196
v 10.739022 -13.682722 0.858196
v 11.810651 -14.890949 0.858196
v 14.823088 -13.279343 0.858196
v 16.069494 -10.876710 0.858196
v 18.410124 -10.915214 -2.061337
v 16.069115 -15.427858 -2.061337
v 10.411131 -18.454794 -2.061337
v 6.983398 -18.454794 -2.061337
v 18.410124 -3.210938 -2.061337
v -8.679253 19.091743 -2.061337
v -17.031593 15.826051 -2.061337
v -11.881925 19.091743 -2.061337
v 7.492426 -12.509795 -2.061337
v 11.079072 -7.092515 -2.061337
v 14.510398 -4.257050 -2.061337
v 9.820972 -11.175622 -2.061337
v 8.398392 -16.185486 -2.061337
v 6.075031 -16.911926 -3.938663
v 6.527508 -11.627385 -3.938663
v 9.553347 -7.057150 -3.938663
v -16.226765 13.977222 -3.938663
v -18.002478 8.560772 -3.938663
v -18.002478 4.754798 -3.938663
v 16.069494 -6.774782 -0.858196
v 13.993192 -7.331756 -0.858196
v 11.496437 -11.015357 -0.858196
v 10.739022 -13.682722 -0.858196
v 11.810651 -14.890949 -0.858196
v 14.823088 -13.279343 -0.858196
v 16.069494 -10.876710 -0.858196
vt 0.484979 0.953959
vt 0.484967 0.953820
vt 0.484882 0.953691
vt 0.485560 0.953139
vt 0.485611 0.953296
vt 0.485610 0.953396
vt 0.484676 0.953602
vt 0.484772 0.953628
vt 0.484889 0.953802
vt 0.484925 0.953928
vt 0.484875 0.953983
vt 0.484735 0.953906
vt 0.484677 0.953794
vt 0.485445 0.953027
vt 0.485580 0.953111
vt 0.484858 0.953700
vt 0.484947 0.953836
vt 0.484960 0.953985
vt 0.485650 0.953277
vt 0.485652 0.953383
vt 0.484649 0.953813
vt 0.484648 0.953614
vt 0.484945 0.954013
vt 0.484856 0.954012
vt 0.485364 0.953015
vt 0.485451 0.953014
vt 0.485361 0.953029
vt 0.484710 0.953931
vt 0.485592 0.953101
vt 0.484676 0.953602
vt 0.484772 0.953628
vt 0.484889 0.953802
vt 0.484925 0.953928
vt 0.484875 0.953983
vt 0.484735 0.953906
vt 0.484677 0.953794
vt 0.484979 0.953959
vt 0.484967 0.953820
vt 0.485611 0.953296
vt 0.485610 0.953396
vt 0.484676 0.953602
vt 0.484772 0.953628
vt 0.484889 0.953802
vt 0.484925 0.953928
vt 0.484875 0.953983
vt 0.484735 0.953906
vt 0.484677 0.953794
vt 0.484925 0.953928
vt 0.484947 0.953836
vt 0.484960 0.953985
vt 0.485649 0.953276
vt 0.485651 0.953384
vt 0.484649 0.953813
vt 0.484648 0.953614
vt 0.484676 0.953602
vt 0.484677 0.953794
vt 0.484945 0.954013
vt 0.484856 0.954012
vt 0.484875 0.953983
vt 0.485364 0.953015
vt 0.485451 0.953014
vt 0.485445 0.953027
vt 0.485361 0.953029
vt 0.484858 0.953700
vt 0.484882 0.953691
vt 0.485580 0.953111
vt 0.485560 0.953139
vt 0.484735 0.953906
vt 0.484710 0.953931
vt 0.485592 0.953101
vt 0.484772 0.953628
vt 0.484889 0.953802
vt 0.483799 0.920453
vt 0.484048 0.920523
vt 0.484350 0.920979
vt 0.484442 0.921307
vt 0.484314 0.921453
vt 0.483951 0.921250
vt 0.483801 0.920955
vn 0.000000 0.000000 1.000000
vn 0.000000 0.000000 1.000000
vn 0.000000 0.000000 1.000000
vn 0.000000 0.000000 1.000000
vn 0.000000 0.000000 1.000000
vn 0.000000 0.000000 1.000000
vn 0.000000 0.000000 1.000000
vn 0.000000 0.000000 1.000000
vn 0.000000 0.000000 1.000000
vn 0.000000 0.000000 1.000000
vn 0.791838 0.000000 0.610732
vn 0.791838 0.000000 0.610732
vn 0.791838 0.000000 0.610732
vn 0.791838 0.000000 0.610732
vn 0.000000 -0.800148 0.599802
vn 0.000000 -0.800148 0.599802
vn 0.000000 -0.800148 0.599802
vn 0.000000 -0.800148 0.599802
vn 0.000000 0.915107 0.403210
vn 0.000000 0.915107 0.403210
vn 0.000000 0.915107 0.403210
vn 0.000000 0.915107 0.403210
vn 0.872206 -0.074681 0.483404
vn 0.872206 -0.074681 0.483404
vn 0.872206 -0.074681 0.483404
vn 0.872206 -0.074681 0.483404
vn 0.686921 -0.454793 0.566836
vn 0.686921 -0.454793 0.566836
vn 0.686921 -0.454793 0.566836
vn 0.686921 -0.454793 0.566836
vn 0.566294 0.694334 0.444086
vn 0.566294 0.694334 0.444086
vn 0.566294 0.694334 0.444086
vn 0.566294 0.694334 0.444086
vn -0.819252 0.243617 0.519112
vn -0.819252 0.243617 0.519112
vn -0.819252 0.243617 0.519112
vn -0.819252 0.243617 0.519112
vn -0.891859 0.000000 0.452313
vn -0.891859 0.000000 0.452313
vn -0.891859 0.000000 0.452313
vn -0.891859 0.000000 0.452313
vn -0.649362 -0.719079 0.247497
vn -0.649362 -0.719079 0.247497
vn -0.649362 -0.719079 0.247497
vn -0.649362 -0.719079 0.247497
vn 0.653334 -0.338928 0.676966
vn 0.653334 -0.338928 0.676966
vn 0.653334 -0.338928 0.676966
vn 0.653334 -0.338928 0.676966
vn 0.349724 -0.653709 0.671087
vn 0.349724 -0.653709 0.671087
vn 0.349724 -0.653709 0.671087
vn 0.349724 -0.653709 0.671087
vn -0.647551 -0.712798 0.269439
vn -0.647551 -0.712798 0.269439
vn -0.647551 -0.712798 0.269439
vn 0.611329 0.742535 0.273710
vn 0.611329 0.742535 0.273710
vn 0.611329 0.742535 0.273710
vn 0.611329 0.742535 0.273710
vn -0.869862 0.285172 0.402514
vn -0.869862 0.285172 0.402514
vn -0.869862 0.285172 0.402514
vn -0.484065 0.763322 0.427809
vn -0.484065 0.763322 0.427809
vn -0.484065 0.763322 0.427809
vn -0.484065 0.763322 0.427809
vn 0.000000 0.000000 1.000000
vn 0.000000 0.000000 1.000000
vn 0.000000 0.000000 1.000000
vn 0.000000 0.000000 1.000000
vn 0.101197 -0.377244 0.920569
vn 0.101197 -0.377244 0.920569
vn 0.101197 -0.377244 0.920569
vn 0.101197 -0.377244 0.920569
vn 0.562956 -0.381573 0.733132
vn 0.562956 -0.381573 0.733132
vn 0.562956 -0.381573 0.733132
vn 0.562956 -0.381573 0.733132
vn 0.585609 -0.166287 0.793354
vn 0.585609 -0.166287 0.793354
vn 0.585609 -0.166287 0.793354
vn 0.585609 -0.166287 0.793354
vn 0.248805 0.220675 0.943080
vn 0.248805 0.220675 0.943080
vn 0.248805 0.220675 0.943080
vn 0.248805 0.220675 0.943080
vn -0.205749 0.384589 0.899866
vn -0.205749 0.384589 0.899866
vn -0.205749 0.384589 0.899866
vn -0.205749 0.384589 0.899866
vn -0.441998 0.229294 0.867215
vn -0.441998 0.229294 0.867215
vn -0.441998 0.229294 0.867215
vn -0.441998 0.229294 0.867215
vn -0.457164 0.000000 0.889382
vn -0.457164 0.000000 0.889382
vn -0.457164 0.000000 0.889382
vn -0.457164 0.000000 0.889382
vn 0.000000 0.000000 1.000000
vn 0.000000 0.000000 1.000000
vn 0.000000 0.000000 1.000000
vn 0.000000 0.000000 1.000000
vn 0.000000 0.000000 1.000000
vn 0.000000 0.000000 1.000000
vn 0.000000 0.000000 1.000000
vn 0.000000 0.000000 1.000000
vn 0.000000 0.000000 1.000000
vn 0.000000 0.000000 1.000000
vn 0.000000 0.000000 1.000000
vn 0.000000 0.000000 1.000000
vn 0.000000 0.000000 1.000000
vn 0.000000 0.000000 1.000000
vn -0.000000 0.000000 1.000000
vn -0.000000 0.000000 1.000000
vn -0.000000 0.000000 1.000000
vn -0.000000 0.000000 1.000000
vn 0.000000 0.000000 -1.000000
vn 0.000000 0.000000 -1.000000
vn 0.000000 0.000000 -1.000000
vn 0.000000 0.000000 -1.000000
vn 0.000000 0.000000 -1.000000
vn 0.000000 0.000000 -1.000000
vn 0.000000 0.000000 -1.000000
vn 0.000000 0.000000 -1.000000
vn 0.000000 0.000000 -1.000000
vn 0.000000 0.000000 -1.000000
vn 0.000000 0.000000 -1.000000
vn 0.000000 0.000000 -1.000000
vn 0.000000 0.000000 -1.000000
vn 0.000000 0.000000 -1.000000
vn 0.791838 -0.000000 -0.610732
vn 0.791838 -0.000000 -0.610732
vn 0.791838 -0.000000 -0.610732
vn 0.791838 -0.000000 -0.610732
vn 0.000000 -0.800148 -0.599802
vn 0.000000 -0.800148 -0.599802
vn 0.000000 -0.800148 -0.599802
vn 0.000000 -0.800148 -0.599802
vn 0.000000 0.915107 -0.403211
vn 0.000000 0.915107 -0.403211
vn 0.000000 0.915107 -0.403211
vn 0.000000 0.915107 -0.403211
vn 0.872206 -0.074681 -0.483404
vn 0.872206 -0.074681 -0.483404
vn 0.872206 -0.074681 -0.483404
vn 0.872206 -0.074681 -0.483404
vn 0.686921 -0.454793 -0.566836
vn 0.686921 -0.454793 -0.566836
vn 0.686921 -0.454793 -0.566836
vn 0.686921 -0.454793 -0.566836
vn 0.566294 0.694334 -0.444086
vn 0.566294 0.694334 -0.444086
vn 0.566294 0.694334 -0.444086
vn 0.566294 0.694334 -0.444086
vn -0.819252 0.243617 -0.519112
vn -0.819252 0.243617 -0.519112
vn -0.819252 0.243617 -0.519112
vn -0.819252 0.243617 -0.519112
vn -0.891859 0.000000 -0.452313
vn -0.891859 0.000000 -0.452313
vn -0.891859 0.000000 -0.452313
vn -0.891859 0.000000 -0.452313
vn -0.649362 -0.719079 -0.247497
vn -0.649362 -0.719079 -0.247497
vn -0.649362 -0.719079 -0.247497
vn -0.649362 -0.719079 -0.247497
vn 0.653334 -0.338928 -0.676966
vn 0.653334 -0.338928 -0.676966
vn 0.653334 -0.338928 -0.676966
vn 0.653334 -0.338928 -0.676966
vn 0.349724 -0.653709 -0.671087
vn 0.349724 -0.653709 -0.671087
vn 0.349724 -0.653709 -0.671087
vn 0.349724 -0.653709 -0.671087
vn -0.647551 -0.712798 -0.269439
vn -0.647551 -0.712798 -0.269439
vn -0.647551 -0.712798 -0.269439
vn 0.611329 0.742536 -0.273710
vn 0.611329 0.742536 -0.273710
vn 0.611329 0.742536 -0.273710
vn 0.611329 0.742536 -0.273710
vn -0.869862 0.285172 -0.402514
vn -0.869862 0.285172 -0.402514
vn -0.869862 0.285172 -0.402514
vn -0.484065 0.763322 -0.427809
vn -0.484065 0.763322 -0.427809
vn -0.484065 0.763322 -0.427809
vn -0.484065 0.763322 -0.427809
vn 0.000000 0.000000 -1.000000
vn 0.000000 0.000000 -1.000000
vn 0.000000 0.000000 -1.000000
vn 0.000000 0.000000 -1.000000
vn 0.101197 -0.377244 -0.920569
vn 0.101197 -0.377244 -0.920569
vn 0.101197 -0.377244 -0.920569
vn 0.101197 -0.377244 -0.920569
vn 0.562956 -0.381573 -0.733132
vn 0.562956 -0.381573 -0.733132
vn 0.562956 -0.381573 -0.733132
vn 0.562956 -0.381573 -0.733132
vn 0.585609 -0.166287 -0.793354
vn 0.585609 -0.166287 -0.793354
vn 0.585609 -0.166287 -0.793354
vn 0.585609 -0.166287 -0.793354
vn 0.248805 0.220675 -0.943080
vn 0.248805 0.220675 -0.943080
vn 0.248805 0.220675 -0.943080
vn 0.248805 0.220675 -0.943080
vn -0.205749 0.384589 -0.899866
vn -0.205749 0.384589 -0.899866
vn -0.205749 0.384589 -0.899866
vn -0.205749 0.384589 -0.899866
vn -0.441998 0.229294 -0.867215
vn -0.441998 0.229294 -0.867215
vn -0.441998 0.229294 -0.867215
vn -0.441998 0.229294 -0.867215
vn -0.457164 0.000000 -0.889382
vn -0.457164 0.000000 -0.889382
vn -0.457164 0.000000 -0.889382
vn -0.457164 0.000000 -0.889382
vn 0.000000 0.000000 -1.000000
vn 0.000000 0.000000 -1.000000
vn 0.000000 0.000000 -1.000000
vn 0.000000 0.000000 -1.000000
vn 0.000000 0.000000 -1.000000
vn 0.000000 0.000000 -1.000000
vn 0.000000 0.000000 -1.000000
vn 0.000000 0.000000 -1.000000
vn 0.000000 0.000000 -1.000000
vn 0.000000 0.000000 -1.000000
vn 0.000000 0.000000 -1.000000
vn 0.000000 0.000000 -1.000000
vn 0.000000 0.000000 -1.000000
vn 0.000000 0.000000 -1.000000
vn -0.000000 0.000000 -1.000000
vn -0.000000 0.000000 -1.000000
vn -0.000000 0.000000 -1.000000
vn -0.000000 0.000000 -1.000000
vn 0.000000 0.000000 1.000000
vn 0.000000 0.000000 1.000000
vn 0.000000 0.000000 1.000000
vn 0.000000 0.000000 1.000000
vn 0.000000 0.000000 1.000000
vn 0.000000 0.000000 1.000000
vn 0.000000 0.000000 1.000000
vn 0.000000 0.000000 1.000000
s off
f 22/1/1 23/2/2 26/5/3 27/6/4
f 36/79/5 32/75/6 35/78/7
f 21/10/8 17/17/9 12/18/10
f 5/21/11 3/22/12 13/7/13 9/13/14
f 2/23/15 6/24/16 11/11/17 12/18/18
f 4/25/19 8/26/20 16/14/21 14/27/22
f 12/18/23 17/17/24 23/2/25 22/1/26
f 17/17/27 18/16/28 24/3/29 23/2/30
f 18/16/31 15/15/32 25/4/33 24/3/34
f 15/15/35 7/19/36 26/5/37 25/4/38
f 7/19/39 1/20/40 27/6/41 26/5/42
f 1/20/43 12/18/44 22/1/45 27/6/46
f 9/13/47 10/12/48 28/28/49 5/21/50
f 10/12/51 11/11/52 6/24/53 28/28/54
f 12/18/55 1/20/56 2/23/57
f 14/27/58 13/7/59 3/22/60 4/25/61
f 7/19/62 15/15/63 29/29/64
f 15/15/65 16/14/66 8/26/67 29/29/68
f 16/14/69 19/8/70 13/7/71 14/27/72
f 13/7/73 19/8/74 31/31/75 30/30/76
f 19/8/77 20/9/78 32/32/79 31/31/80
f 20/9/81 21/10/82 33/33/83 32/32/84
f 21/10/85 11/11/86 34/34/87 33/33/88
f 11/11/89 10/12/90 35/35/91 34/34/92
f 10/12/93 9/13/94 36/36/95 35/35/96
f 9/13/97 13/7/98 30/30/99 36/36/100
f 21/10/101 12/18/102 11/11/103
f 16/14/104 15/15/105 18/16/106 19/8/107
f 20/9/108 17/17/109 21/10/110
f 19/8/111 18/16/112 17/17/113 20/9/114
f 26/5/115 23/2/116 24/3/117 25/4/118
f 50/37/119 55/40/120 54/39/121 51/38/122
f 56/41/123 62/47/124 61/46/125 60/45/126 59/44/127 58/43/128 57/42/129
f 49/48/130 40/50/131 45/49/132
f 5/53/133 37/56/134 41/55/135 3/54/136
f 2/57/137 40/50/138 39/59/139 6/58/140
f 4/60/141 42/63/142 44/62/143 8/61/144
f 40/50/145 50/37/146 51/38/147 45/49/148
f 45/49/149 51/38/150 52/65/151 46/64/152
f 46/64/153 52/65/154 53/67/155 43/66/156
f 43/66/157 53/67/158 54/39/159 7/51/160
f 7/51/161 54/39/162 55/40/163 1/52/164
f 1/52/165 55/40/166 50/37/167 40/50/168
f 37/56/169 5/53/170 28/69/171 38/68/172
f 38/68/173 28/69/174 6/58/175 39/59/176
f 40/50/177 2/57/178 1/52/179
f 42/63/180 4/60/181 3/54/182 41/55/183
f 7/51/184 29/70/185 43/66/186
f 43/66/187 29/70/188 8/61/189 44/62/190
f 44/62/191 42/63/192 41/55/193 47/71/194
f 41/55/195 56/41/196 57/42/197 47/71/198
f 47/71/199 57/42/200 58/43/201 48/72/202
f 48/72/203 58/43/204 59/44/205 49/48/206
f 49/48/207 59/44/208 60/45/209 39/59/210
f 39/59/211 60/45/212 61/46/213 38/68/214
f 38/68/215 61/46/216 62/47/217 37/56/218
f 37/56/219 62/47/220 56/41/221 41/55/222
f 49/48/223 39/59/224 40/50/225
f 44/62/226 47/71/227 46/64/228 43/66/229
f 48/72/230 49/48/231 45/49/232
f 47/71/233 48/72/234 45/49/235 46/64/236
f 54/39/237 53/67/238 52/65/239 51/38/240
f 30/73/241 31/74/242 32/75/243 36/79/244
f 35/78/245 32/75/246 33/76/247 34/77/248
