# This file uses centimeters as units for non-parametric coordinates.

v 2.771615 -9.925832 2.000001
v 3.533705 -9.163741 -0.000000
v 0.000000 -8.745592 2.000001
v -2.849348 -9.925831 2.000001
v -4.029587 -12.775179 2.000001
v -2.849348 -15.274726 2.000001
v 0.000000 -16.454964 2.000001
v 2.849349 -15.624526 2.000001
v 4.029587 -12.775179 2.000001
v 2.771615 -9.925832 -2.000002
v 0.000000 -7.667834 -0.000000
v 0.000000 -8.745592 -2.000002
v -3.611438 -9.163741 -0.000000
v -2.849348 -9.925831 -2.000002
v -5.107345 -12.775179 -0.000000
v -4.029587 -12.775179 -2.000002
v -3.611438 -16.036816 -0.000000
v -2.849348 -15.274726 -2.000002
v 0.000000 -17.532722 -0.000000
v 0.000000 -16.454964 -2.000002
v 3.611439 -16.386616 -0.000000
v 2.849349 -15.624526 -2.000002
v 5.107346 -12.775179 -0.000000
v 4.029587 -12.775179 -2.000002
v -2.874985 16.132263 1.999995
v 2.874985 16.132263 1.999995
v 3.306138 17.127981 -0.000003
v -5.297775 15.005184 -0.000003
v -4.276618 14.638325 1.999995
v 4.276618 14.638325 1.999995
v -3.306138 17.127981 -0.000003
v -2.874985 16.132263 -2.000001
v 2.874985 16.132263 -2.000001
v -1.602115 -4.462687 1.999995
v -1.996088 -5.458405 -0.000003
v 1.602115 -4.462687 1.999995
v -3.150280 -3.010177 1.999995
v -4.276618 14.638325 -2.000001
v -4.118885 -3.466769 -0.000003
v -3.150280 -3.010177 -2.000001
v 4.118885 -3.466769 -0.000003
v 3.150280 -3.010177 1.999995
v 5.297775 15.005184 -0.000003
v 4.276618 14.638325 -2.000001
v 3.150280 -3.010177 -2.000001
v -1.602115 -4.462687 -2.000001
v 1.996088 -5.458405 -0.000003
v 1.602115 -4.462687 -2.000001
v -3.719039 8.653424 1.999995
v 3.834403 11.378304 1.999995
v -3.719040 8.653427 -2.000001
v -4.695461 8.319311 -0.000003
v 4.854424 11.727336 -0.000003
v 3.834403 11.378302 -2.000001
vt 0.016883 0.955102
vt 0.016883 0.955102
vt 0.016883 0.955102
vt 0.016883 0.955102
vt 0.016883 0.955102
vt 0.016883 0.955102
vt 0.016883 0.955102
vt 0.016883 0.955102
vt 0.016883 0.955102
vt 0.016883 0.955102
vt 0.016883 0.955103
vt 0.016883 0.955102
vt 0.016883 0.955103
vt 0.016883 0.955103
vt 0.016883 0.955103
vt 0.016883 0.955102
vt 0.016883 0.955102
vt 0.016883 0.955102
vt 0.016883 0.955102
vt 0.016883 0.955102
vt 0.016883 0.955102
vt 0.016883 0.955102
vt 0.016883 0.955103
vt 0.016883 0.955102
vt 0.016883 0.955102
vt 0.016883 0.955103
vt 0.016883 0.955102
vt 0.016883 0.955102
vt 0.016883 0.955102
vt 0.016883 0.955103
vt 0.016883 0.955102
vt 0.016883 0.955102
vt 0.016883 0.955102
vt 0.016883 0.955102
vt 0.016883 0.955102
vt 0.016883 0.955102
vt 0.016883 0.955102
vt 0.016883 0.955102
vt 0.016883 0.955102
vt 0.016883 0.955102
vt 0.016883 0.955102
vt 0.016883 0.955102
vt 0.016883 0.955102
vt 0.016883 0.955102
vt 0.016883 0.955102
vt 0.016883 0.955102
vt 0.016883 0.955102
vt 0.016883 0.955102
vt 0.016883 0.955102
vt 0.016883 0.955102
vt 0.016883 0.955102
vt 0.016883 0.955102
vt 0.016883 0.955102
vt 0.016883 0.955102
vn 0.349749 0.824049 0.445666
vn 0.349749 0.824049 0.445666
vn 0.349749 0.824049 0.445666
vn 0.349749 0.824049 0.445666
vn 0.819937 0.359359 0.445606
vn 0.819937 0.359359 0.445606
vn 0.819937 0.359359 0.445606
vn 0.819937 0.359359 0.445606
vn -0.342575 0.827050 0.445680
vn -0.342575 0.827050 0.445680
vn -0.342575 0.827050 0.445680
vn -0.342575 0.827050 0.445680
vn -0.827050 0.342575 0.445680
vn -0.827050 0.342575 0.445680
vn -0.827050 0.342575 0.445680
vn -0.827050 0.342576 0.445680
vn -0.812020 -0.377194 0.445362
vn -0.812020 -0.377194 0.445362
vn -0.812020 -0.377194 0.445362
vn -0.812020 -0.377194 0.445362
vn -0.342575 -0.827050 0.445679
vn -0.342575 -0.827050 0.445679
vn -0.342575 -0.827050 0.445679
vn -0.342575 -0.827050 0.445679
vn 0.262123 -0.856808 0.444039
vn 0.262123 -0.856808 0.444039
vn 0.262123 -0.856808 0.444039
vn 0.262123 -0.856808 0.444039
vn 0.827050 -0.342575 0.445680
vn 0.827050 -0.342575 0.445680
vn 0.827050 -0.342575 0.445680
vn 0.827050 -0.342575 0.445680
vn 0.349749 0.824049 -0.445666
vn 0.349749 0.824049 -0.445666
vn 0.349749 0.824049 -0.445666
vn 0.349749 0.824049 -0.445666
vn 0.819937 0.359359 -0.445606
vn 0.819937 0.359359 -0.445606
vn 0.819937 0.359359 -0.445606
vn 0.819937 0.359359 -0.445606
vn -0.342575 0.827050 -0.445680
vn -0.342575 0.827050 -0.445680
vn -0.342575 0.827050 -0.445680
vn -0.342575 0.827050 -0.445680
vn -0.827050 0.342575 -0.445680
vn -0.827050 0.342575 -0.445680
vn -0.827050 0.342575 -0.445680
vn -0.827050 0.342575 -0.445680
vn -0.812020 -0.377194 -0.445362
vn -0.812020 -0.377194 -0.445362
vn -0.812020 -0.377194 -0.445362
vn -0.812020 -0.377194 -0.445362
vn -0.342575 -0.827050 -0.445679
vn -0.342575 -0.827050 -0.445679
vn -0.342575 -0.827050 -0.445679
vn -0.342575 -0.827050 -0.445679
vn 0.262123 -0.856808 -0.444039
vn 0.262123 -0.856808 -0.444039
vn 0.262123 -0.856808 -0.444039
vn 0.262123 -0.856808 -0.444039
vn 0.827050 -0.342575 -0.445680
vn 0.827050 -0.342575 -0.445680
vn 0.827050 -0.342575 -0.445680
vn 0.827050 -0.342575 -0.445680
vn -0.652844 0.612507 0.445680
vn -0.652844 0.612507 0.445680
vn -0.652844 0.612507 0.445680
vn -0.652844 0.612507 0.445680
vn 0.000000 0.895192 0.445680
vn 0.000000 0.895192 0.445680
vn 0.000000 0.895192 0.445680
vn 0.000000 0.895192 0.445680
vn 0.652844 0.612507 0.445680
vn 0.652844 0.612507 0.445680
vn 0.652844 0.612507 0.445680
vn 0.652844 0.612507 0.445680
vn -0.891924 -0.081647 0.444754
vn -0.891924 -0.081647 0.444754
vn -0.894183 -0.055794 0.444212
vn -0.893983 -0.058395 0.444280
vn 0.892788 -0.120930 0.433942
vn 0.892788 -0.120930 0.433942
vn 0.894306 -0.054378 0.444140
vn 0.894335 -0.060164 0.443335
vn -0.652844 0.612507 -0.445680
vn -0.652844 0.612507 -0.445680
vn -0.652844 0.612507 -0.445680
vn -0.652844 0.612507 -0.445680
vn 0.000000 0.895192 -0.445680
vn 0.000000 0.895192 -0.445680
vn 0.000000 0.895192 -0.445680
vn 0.000000 0.895192 -0.445680
vn 0.652844 0.612507 -0.445680
vn 0.652844 0.612507 -0.445680
vn 0.652844 0.612507 -0.445680
vn 0.652844 0.612507 -0.445680
vn 0.000000 -0.895192 0.445680
vn 0.000000 -0.895192 0.445680
vn 0.000000 -0.895192 0.445680
vn 0.000000 -0.895192 0.445680
vn -0.612507 -0.652843 0.445680
vn -0.612507 -0.652843 0.445680
vn -0.612507 -0.652843 0.445680
vn -0.612507 -0.652843 0.445680
vn 0.612507 -0.652843 0.445680
vn 0.612507 -0.652843 0.445680
vn 0.612507 -0.652843 0.445680
vn 0.612507 -0.652843 0.445680
vn -0.891924 -0.081647 -0.444754
vn -0.891924 -0.081647 -0.444754
vn -0.893983 -0.058395 -0.444280
vn -0.894183 -0.055794 -0.444212
vn -0.612507 -0.652843 -0.445680
vn -0.612507 -0.652843 -0.445680
vn -0.612507 -0.652843 -0.445680
vn -0.612507 -0.652843 -0.445680
vn 0.892788 -0.120930 -0.433942
vn 0.892788 -0.120930 -0.433942
vn 0.894335 -0.060164 -0.443335
vn 0.894306 -0.054378 -0.444140
vn 0.612507 -0.652843 -0.445680
vn 0.612507 -0.652843 -0.445680
vn 0.612507 -0.652843 -0.445680
vn 0.612507 -0.652843 -0.445680
vn 0.000000 -0.895192 -0.445680
vn 0.000000 -0.895192 -0.445680
vn 0.000000 -0.895192 -0.445680
vn 0.000000 -0.895192 -0.445680
vn -0.000000 0.000000 1.000000
vn -0.000000 0.000000 1.000000
vn 0.000000 0.000000 1.000000
vn 0.000000 0.000000 1.000000
vn 0.000000 0.000000 1.000000
vn 0.000000 0.000000 1.000000
vn -0.000000 0.000000 1.000000
vn -0.000000 0.000000 1.000000
vn 0.000000 0.000000 1.000000
vn 0.000000 0.000000 1.000000
vn 0.000000 0.000000 -1.000000
vn 0.000000 0.000000 -1.000000
vn 0.000000 0.000000 -1.000000
vn 0.000000 0.000000 -1.000000
vn 0.000000 0.000000 -1.000000
vn 0.000000 0.000000 -1.000000
vn 0.000000 0.000000 -1.000000
vn 0.000000 0.000000 -1.000000
vn 0.000000 0.000000 -1.000000
vn 0.000000 0.000000 -1.000000
vn 0.000000 0.000000 -1.000000
vn 0.000000 0.000000 -1.000000
vn 0.000000 0.000000 -1.000000
vn 0.000000 0.000000 -1.000000
vn 0.000000 0.000000 -1.000000
vn 0.000000 -0.000000 1.000000
vn 0.000000 -0.000000 1.000000
vn -0.000000 0.000000 1.000000
vn -0.000000 -0.000000 1.000000
vn 0.000000 -0.000000 1.000000
vn 0.000000 0.000000 1.000000
vn 0.000000 0.000000 1.000000
vn 0.000000 -0.000000 1.000000
vn -0.893983 -0.058395 0.444280
vn -0.894183 -0.055794 0.444212
vn -0.895031 -0.043715 0.443857
vn -0.895031 -0.043715 0.443857
vn 0.894335 -0.060164 0.443335
vn 0.894306 -0.054378 0.444140
vn 0.894158 -0.042910 0.445691
vn 0.894158 -0.042910 0.445691
vn -0.894183 -0.055794 -0.444212
vn -0.893983 -0.058395 -0.444280
vn -0.895031 -0.043715 -0.443856
vn -0.895031 -0.043715 -0.443857
vn 0.894306 -0.054378 -0.444140
vn 0.894335 -0.060164 -0.443335
vn 0.894158 -0.042910 -0.445691
vn 0.894158 -0.042910 -0.445691
vn 0.000000 0.000000 -1.000000
vn 0.000000 0.000000 -1.000000
vn 0.000000 0.000000 -1.000000
vn 0.000000 0.000000 -1.000000
vn -0.000000 -0.000000 1.000000
vn -0.000000 0.000000 1.000000
vn -0.000000 0.000000 1.000000
vn -0.000000 0.000000 1.000000
vn -0.000000 0.000000 1.000000
vn 0.000000 0.000000 1.000000
vn 0.000000 0.000000 1.000000
vn -0.000000 0.000000 1.000000
vn -0.000000 0.000000 1.000000
vn -0.000000 0.000000 1.000000
vn -0.000000 0.000000 1.000000
vn -0.000000 0.000000 1.000000
vn 0.000000 0.000000 -1.000000
vn 0.000000 0.000000 -1.000000
vn 0.000000 0.000000 -1.000000
vn 0.000000 0.000000 -1.000000
vn 0.000000 0.000000 -1.000000
vn 0.000000 0.000000 -1.000000
vn 0.000000 0.000000 -1.000000
vn 0.000000 0.000000 -1.000000
vn 0.000000 0.000000 -1.000000
vn 0.000000 0.000000 -1.000000
vn 0.000000 0.000000 -1.000000
s off
f 1/1/1 2/2/2 11/3/3 3/4/4
f 2/2/5 1/1/6 9/5/7 23/6/8
f 3/4/9 11/3/10 13/7/11 4/8/12
f 4/8/13 13/7/14 15/9/15 5/10/16
f 5/10/17 15/9/18 17/11/19 6/12/20
f 6/12/21 17/11/22 19/13/23 7/14/24
f 7/14/25 19/13/26 21/15/27 8/16/28
f 8/16/29 21/15/30 23/6/31 9/5/32
f 2/2/33 10/17/34 12/18/35 11/3/36
f 10/17/37 2/2/38 23/6/39 24/19/40
f 11/3/41 12/18/42 14/20/43 13/7/44
f 13/7/45 14/20/46 16/21/47 15/9/48
f 15/9/49 16/21/50 18/22/51 17/11/52
f 17/11/53 18/22/54 20/23/55 19/13/56
f 19/13/57 20/23/58 22/24/59 21/15/60
f 21/15/61 22/24/62 24/19/63 23/6/64
f 25/25/65 31/26/66 28/27/67 29/28/68
f 31/26/69 25/25/70 26/29/71 27/30/72
f 27/30/73 26/29/74 30/31/75 43/32/76
f 29/28/77 28/27/78 52/33/79 49/34/80
f 43/32/81 30/31/82 50/35/83 53/36/84
f 31/26/85 32/37/86 38/38/87 28/27/88
f 32/37/89 31/26/90 27/30/91 33/39/92
f 33/39/93 27/30/94 43/32/95 44/40/96
f 34/41/97 35/42/98 47/43/99 36/44/100
f 35/42/101 34/41/102 37/45/103 39/46/104
f 36/44/105 47/43/106 41/47/107 42/48/108
f 28/27/109 38/38/110 51/49/111 52/33/112
f 39/46/113 40/50/114 46/51/115 35/42/116
f 44/40/117 43/32/118 53/36/119 54/52/120
f 45/53/121 41/47/122 47/43/123 48/54/124
f 35/42/125 46/51/126 48/54/127 47/43/128
f 6/12/129 4/8/130 5/10/131
f 1/1/132 8/16/133 9/5/134
f 29/28/135 30/31/136 26/29/137 25/25/138
f 40/50/139 45/53/140 48/54/141 46/51/142
f 14/20/143 18/22/144 16/21/145
f 38/38/146 44/40/147 54/52/148 51/49/149
f 32/37/150 33/39/151 44/40/152 38/38/153
f 37/45/154 42/48/155 50/35/156 49/34/157
f 37/45/158 34/41/159 36/44/160 42/48/161
f 49/34/162 52/33/163 39/46/164 37/45/165
f 53/36/166 50/35/167 42/48/168 41/47/169
f 52/33/170 51/49/171 40/50/172 39/46/173
f 54/52/174 53/36/175 41/47/176 45/53/177
f 51/49/178 54/52/179 45/53/180 40/50/181
f 49/34/182 50/35/183 30/31/184 29/28/185
f 7/14/186 8/16/187 1/1/188 3/4/189
f 7/14/190 3/4/191 4/8/192 6/12/193
f 22/24/194 20/23/195 12/18/196 10/17/197
f 12/18/198 20/23/199 18/22/200 14/20/201
f 22/24/202 10/17/203 24/19/204
