# This file uses centimeters as units for non-parametric coordinates.

v -17.927715 13.345047 2.000000
v -15.762664 5.923480 2.000000
v -9.056282 -0.798207 2.000000
v -0.000000 -5.246430 2.000000
v 9.056282 -0.798207 2.000000
v 15.762640 5.923538 2.000000
v 17.947708 13.412151 2.000000
v 18.924734 15.023424 -0.000000
v 16.389299 5.561058 0.000000
v 9.462367 -1.365875 0.000000
v -0.000000 -6.004349 0.000000
v -9.462367 -1.365875 0.000000
v -16.389299 5.561058 -0.000000
v -18.924734 15.023424 -0.000000
v -15.589558 13.400731 2.000000
v -13.833294 7.037064 2.000000
v -8.068012 1.193992 2.000000
v -0.000000 -2.968381 2.000000
v 8.068012 1.193992 2.000000
v 13.833342 7.037097 2.000000
v 15.605303 13.457271 2.000000
v -15.390863 15.023424 0.000000
v -13.328878 7.327992 0.000000
v -7.695432 1.694546 0.000000
v 0.000000 -2.470479 0.000000
v 7.695432 1.694546 0.000000
v 13.328878 7.327992 -0.000000
v 15.390863 15.023424 -0.000000
v -17.927715 13.345047 -2.000000
v -15.762664 5.923480 -2.000000
v -9.056282 -0.798207 -2.000000
v 0.000000 -5.246430 -2.000000
v 9.056282 -0.798207 -2.000000
v 15.762640 5.923538 -2.000000
v 17.947708 13.412151 -2.000000
v -15.589558 13.400731 -2.000000
v -13.833294 7.037064 -2.000000
v -8.068012 1.193992 -2.000000
v 0.000000 -2.968381 -2.000000
v 8.068012 1.193992 -2.000000
v 13.833342 7.037097 -2.000000
v 15.605303 13.457271 -2.000000
v -0.076235 -6.775981 3.000000
v 2.218172 -15.764839 3.000000
v -2.304236 -15.707339 3.000000
v 4.548442 -12.317790 3.000000
v -4.469381 -12.094041 3.000000
v 3.353331 -18.210821 -0.000000
v -3.353331 -18.210821 0.000000
v 6.983926 -12.623683 -0.000000
v -6.983926 -12.623683 0.000000
v -0.000000 -4.242973 0.000000
v -0.076235 -6.775981 -3.000000
v 2.218172 -15.764839 -3.000000
v -2.304236 -15.707339 -3.000000
v 4.548442 -12.317790 -3.000000
v -4.469381 -12.094041 -3.000000
vt 0.171786 0.950958
vt 0.171724 0.951207
vt 0.171580 0.951338
vt 0.171406 0.951331
vt 0.171249 0.951207
vt 0.171141 0.951006
vt 0.171099 0.950772
vt 0.171171 0.950759
vt 0.171212 0.950989
vt 0.171320 0.951187
vt 0.171478 0.951308
vt 0.171652 0.951313
vt 0.171797 0.951183
vt 0.171861 0.950938
vt 0.171786 0.950958
vt 0.171724 0.951207
vt 0.171580 0.951338
vt 0.171406 0.951331
vt 0.171249 0.951207
vt 0.171141 0.951006
vt 0.171099 0.950772
vt 0.171786 0.950958
vt 0.171724 0.951207
vt 0.171580 0.951338
vt 0.171406 0.951331
vt 0.171249 0.951207
vt 0.171141 0.951006
vt 0.171099 0.950772
vt 0.171212 0.950989
vt 0.171171 0.950759
vt 0.171099 0.950772
vt 0.171141 0.951006
vt 0.171320 0.951187
vt 0.171249 0.951207
vt 0.171478 0.951308
vt 0.171406 0.951331
vt 0.171652 0.951313
vt 0.171580 0.951338
vt 0.171797 0.951183
vt 0.171724 0.951207
vt 0.171861 0.950938
vt 0.171786 0.950958
vt 0.171724 0.951207
vt 0.171786 0.950958
vt 0.171580 0.951338
vt 0.171406 0.951331
vt 0.171249 0.951207
vt 0.171141 0.951006
vt 0.171099 0.950772
vt 0.171724 0.951207
vt 0.171786 0.950958
vt 0.171580 0.951338
vt 0.171406 0.951331
vt 0.171249 0.951207
vt 0.171141 0.951006
vt 0.171099 0.950772
vt 0.457024 0.983778
vt 0.457191 0.984033
vt 0.457189 0.984138
vt 0.456938 0.983740
vt 0.457514 0.984044
vt 0.457672 0.983789
vt 0.457912 0.983780
vt 0.457652 0.984162
vt 0.457353 0.983385
vt 0.457419 0.983162
vt 0.457180 0.983676
vt 0.457336 0.983916
vt 0.457641 0.983926
vt 0.457791 0.983684
vt 0.457491 0.983306
vn 0.922086 -0.256782 0.289517
vn 0.922086 -0.256782 0.289517
vn 0.922086 -0.256782 0.289517
vn 0.922086 -0.256782 0.289517
vn 0.668407 -0.667653 0.327828
vn 0.668407 -0.667653 0.327828
vn 0.668407 -0.667653 0.327828
vn 0.668407 -0.667653 0.327828
vn 0.416775 -0.849385 0.323795
vn 0.416775 -0.849385 0.323795
vn 0.416775 -0.849385 0.323795
vn 0.416775 -0.849385 0.323795
vn -0.416775 -0.849385 0.323795
vn -0.416775 -0.849385 0.323795
vn -0.416775 -0.849385 0.323795
vn -0.416775 -0.849385 0.323795
vn -0.668408 -0.667659 0.327815
vn -0.668408 -0.667659 0.327815
vn -0.668408 -0.667659 0.327815
vn -0.668408 -0.667659 0.327815
vn -0.922019 -0.256690 0.289812
vn -0.922019 -0.256690 0.289812
vn -0.922019 -0.256690 0.289812
vn -0.922019 -0.256690 0.289812
vn 0.000000 0.000000 1.000000
vn 0.000000 0.000000 1.000000
vn 0.000000 0.000000 1.000000
vn 0.000000 0.000000 1.000000
vn 0.000000 0.000000 1.000000
vn 0.000000 0.000000 1.000000
vn 0.000000 0.000000 1.000000
vn 0.000000 0.000000 1.000000
vn 0.000000 0.000000 1.000000
vn 0.000000 0.000000 1.000000
vn 0.000000 0.000000 1.000000
vn 0.000000 0.000000 1.000000
vn 0.000000 0.000000 1.000000
vn 0.000000 0.000000 1.000000
vn 0.000000 0.000000 1.000000
vn 0.000000 0.000000 1.000000
vn 0.000000 0.000000 1.000000
vn 0.000000 0.000000 1.000000
vn 0.000000 0.000000 1.000000
vn 0.000000 0.000000 1.000000
vn 0.000000 0.000000 1.000000
vn 0.000000 0.000000 1.000000
vn 0.000000 0.000000 1.000000
vn 0.000000 0.000000 1.000000
vn 0.925603 0.251380 0.282962
vn 0.925603 0.251380 0.282962
vn 0.925603 0.251380 0.282962
vn 0.925603 0.251380 0.282962
vn 0.680515 0.675902 0.282943
vn 0.680515 0.675902 0.282943
vn 0.680515 0.675902 0.282943
vn 0.680515 0.675902 0.282943
vn 0.451603 0.854868 0.255452
vn 0.451603 0.854868 0.255452
vn 0.451603 0.854868 0.255452
vn 0.451603 0.854868 0.255452
vn -0.451603 0.854868 0.255452
vn -0.451603 0.854868 0.255452
vn -0.451603 0.854868 0.255452
vn -0.451603 0.854868 0.255452
vn -0.680514 0.675902 0.282946
vn -0.680514 0.675902 0.282946
vn -0.680514 0.675902 0.282946
vn -0.680514 0.675902 0.282946
vn -0.925569 0.251394 0.283061
vn -0.925569 0.251394 0.283061
vn -0.925569 0.251394 0.283061
vn -0.925569 0.251394 0.283061
vn -0.007307 0.770535 0.637356
vn -0.007307 0.770535 0.637356
vn -0.007307 0.770535 0.637356
vn -0.007307 0.770535 0.637356
vn 0.006008 0.782447 0.622688
vn 0.006008 0.782447 0.622688
vn 0.006008 0.782447 0.622688
vn 0.006008 0.782447 0.622688
vn 0.922086 -0.256782 -0.289517
vn 0.922086 -0.256782 -0.289517
vn 0.922086 -0.256782 -0.289517
vn 0.922086 -0.256782 -0.289517
vn 0.668407 -0.667653 -0.327828
vn 0.668407 -0.667653 -0.327828
vn 0.668407 -0.667653 -0.327828
vn 0.668407 -0.667653 -0.327828
vn 0.416775 -0.849385 -0.323795
vn 0.416775 -0.849385 -0.323795
vn 0.416775 -0.849385 -0.323795
vn 0.416775 -0.849385 -0.323795
vn -0.416775 -0.849385 -0.323795
vn -0.416775 -0.849385 -0.323795
vn -0.416775 -0.849385 -0.323795
vn -0.416775 -0.849385 -0.323795
vn -0.668408 -0.667659 -0.327815
vn -0.668408 -0.667659 -0.327815
vn -0.668408 -0.667659 -0.327815
vn -0.668408 -0.667659 -0.327815
vn -0.922019 -0.256690 -0.289812
vn -0.922019 -0.256690 -0.289812
vn -0.922019 -0.256690 -0.289812
vn -0.922019 -0.256690 -0.289812
vn 0.000000 0.000000 -1.000000
vn 0.000000 0.000000 -1.000000
vn 0.000000 0.000000 -1.000000
vn 0.000000 0.000000 -1.000000
vn 0.000000 0.000000 -1.000000
vn 0.000000 0.000000 -1.000000
vn 0.000000 0.000000 -1.000000
vn 0.000000 0.000000 -1.000000
vn 0.000000 0.000000 -1.000000
vn 0.000000 0.000000 -1.000000
vn 0.000000 0.000000 -1.000000
vn 0.000000 0.000000 -1.000000
vn 0.000000 0.000000 -1.000000
vn 0.000000 0.000000 -1.000000
vn 0.000000 0.000000 -1.000000
vn 0.000000 0.000000 -1.000000
vn 0.000000 0.000000 -1.000000
vn 0.000000 0.000000 -1.000000
vn 0.000000 0.000000 -1.000000
vn 0.000000 0.000000 -1.000000
vn 0.000000 0.000000 -1.000000
vn 0.000000 0.000000 -1.000000
vn 0.000000 0.000000 -1.000000
vn 0.000000 0.000000 -1.000000
vn 0.925603 0.251380 -0.282962
vn 0.925603 0.251380 -0.282962
vn 0.925603 0.251380 -0.282962
vn 0.925603 0.251380 -0.282962
vn 0.680515 0.675902 -0.282943
vn 0.680515 0.675902 -0.282943
vn 0.680515 0.675902 -0.282943
vn 0.680515 0.675902 -0.282943
vn 0.451603 0.854868 -0.255452
vn 0.451603 0.854868 -0.255452
vn 0.451603 0.854868 -0.255452
vn 0.451603 0.854868 -0.255452
vn -0.451603 0.854868 -0.255452
vn -0.451603 0.854868 -0.255452
vn -0.451603 0.854868 -0.255452
vn -0.451603 0.854868 -0.255452
vn -0.680514 0.675902 -0.282946
vn -0.680514 0.675902 -0.282946
vn -0.680514 0.675902 -0.282946
vn -0.680514 0.675902 -0.282946
vn -0.925569 0.251394 -0.283061
vn -0.925569 0.251394 -0.283061
vn -0.925569 0.251394 -0.283061
vn -0.925569 0.251394 -0.283061
vn -0.007307 0.770535 -0.637356
vn -0.007307 0.770535 -0.637356
vn -0.007307 0.770535 -0.637356
vn -0.007307 0.770535 -0.637356
vn 0.006008 0.782447 -0.622688
vn 0.006008 0.782447 -0.622688
vn 0.006008 0.782447 -0.622688
vn 0.006008 0.782447 -0.622688
vn 0.667965 -0.440731 0.599650
vn 0.667965 -0.440731 0.599650
vn 0.667965 -0.440731 0.599650
vn 0.667965 -0.440731 0.599650
vn -0.669758 -0.421908 0.611079
vn -0.669758 -0.421908 0.611079
vn -0.669758 -0.421908 0.611079
vn -0.669758 -0.421908 0.611079
vn 0.670345 0.558934 0.488088
vn 0.670345 0.558934 0.488088
vn 0.670345 0.558934 0.488088
vn 0.670345 0.558934 0.488088
vn -0.680857 0.565463 0.465495
vn -0.680857 0.565463 0.465495
vn -0.680857 0.565463 0.465495
vn -0.680857 0.565463 0.465495
vn 0.000000 0.000000 1.000000
vn 0.000000 0.000000 1.000000
vn 0.000000 0.000000 1.000000
vn 0.000000 0.000000 1.000000
vn 0.000000 0.000000 1.000000
vn 0.000000 0.000000 1.000000
vn 0.000000 0.000000 1.000000
vn -0.003950 -0.771429 0.636304
vn -0.003950 -0.771429 0.636304
vn -0.003950 -0.771429 0.636304
vn -0.003950 -0.771429 0.636304
vn 0.667965 -0.440731 -0.599650
vn 0.667965 -0.440731 -0.599650
vn 0.667965 -0.440731 -0.599650
vn 0.667965 -0.440731 -0.599650
vn -0.669758 -0.421908 -0.611079
vn -0.669758 -0.421908 -0.611079
vn -0.669758 -0.421908 -0.611079
vn -0.669758 -0.421908 -0.611079
vn 0.670345 0.558934 -0.488088
vn 0.670345 0.558934 -0.488088
vn 0.670345 0.558934 -0.488088
vn 0.670345 0.558934 -0.488088
vn -0.680857 0.565464 -0.465495
vn -0.680857 0.565464 -0.465495
vn -0.680857 0.565464 -0.465495
vn -0.680857 0.565464 -0.465495
vn 0.000000 0.000000 -1.000000
vn 0.000000 0.000000 -1.000000
vn 0.000000 0.000000 -1.000000
vn 0.000000 0.000000 -1.000000
vn 0.000000 0.000000 -1.000000
vn 0.000000 0.000000 -1.000000
vn 0.000000 0.000000 -1.000000
vn -0.003950 -0.771429 -0.636304
vn -0.003950 -0.771429 -0.636304
vn -0.003950 -0.771429 -0.636304
vn -0.003950 -0.771429 -0.636304
s off
f 9/9/1 8/8/2 7/7/3 6/6/4
f 10/10/5 9/9/6 6/6/7 5/5/8
f 11/11/9 10/10/10 5/5/11 4/4/12
f 12/12/13 11/11/14 4/4/15 3/3/16
f 13/13/17 12/12/18 3/3/19 2/2/20
f 14/14/21 13/13/22 2/2/23 1/1/24
f 1/1/25 2/2/26 16/16/27 15/15/28
f 2/2/29 3/3/30 17/17/31 16/16/32
f 3/3/33 4/4/34 18/18/35 17/17/36
f 4/4/37 5/5/38 19/19/39 18/18/40
f 5/5/41 6/6/42 20/20/43 19/19/44
f 6/6/45 7/7/46 21/21/47 20/20/48
f 15/15/49 16/16/50 23/23/51 22/22/52
f 16/16/53 17/17/54 24/24/55 23/23/56
f 17/17/57 18/18/58 25/25/59 24/24/60
f 18/18/61 19/19/62 26/26/63 25/25/64
f 19/19/65 20/20/66 27/27/67 26/26/68
f 20/20/69 21/21/70 28/28/71 27/27/72
f 14/14/73 1/1/74 15/15/75 22/22/76
f 7/7/77 8/8/78 28/28/79 21/21/80
f 9/29/81 34/32/82 35/31/83 8/30/84
f 10/33/85 33/34/86 34/32/87 9/29/88
f 11/35/89 32/36/90 33/34/91 10/33/92
f 12/37/93 31/38/94 32/36/95 11/35/96
f 13/39/97 30/40/98 31/38/99 12/37/100
f 14/41/101 29/42/102 30/40/103 13/39/104
f 29/42/105 36/44/106 37/43/107 30/40/108
f 30/40/109 37/43/110 38/45/111 31/38/112
f 31/38/113 38/45/114 39/46/115 32/36/116
f 32/36/117 39/46/118 40/47/119 33/34/120
f 33/34/121 40/47/122 41/48/123 34/32/124
f 34/32/125 41/48/126 42/49/127 35/31/128
f 36/44/129 22/51/130 23/50/131 37/43/132
f 37/43/133 23/50/134 24/52/135 38/45/136
f 38/45/137 24/52/138 25/53/139 39/46/140
f 39/46/141 25/53/142 26/54/143 40/47/144
f 40/47/145 26/54/146 27/55/147 41/48/148
f 41/48/149 27/55/150 28/56/151 42/49/152
f 14/41/153 22/51/154 36/44/155 29/42/156
f 35/31/157 42/49/158 28/56/159 8/30/160
f 46/57/161 44/58/162 48/59/163 50/60/164
f 45/61/165 47/62/166 51/63/167 49/64/168
f 43/65/169 46/57/170 50/60/171 52/66/172
f 47/62/173 43/65/174 52/66/175 51/63/176
f 46/57/177 47/62/178 45/61/179 44/58/180
f 46/57/181 43/65/182 47/62/183
f 48/59/184 44/58/185 45/61/186 49/64/187
f 56/67/188 50/60/189 48/59/190 54/68/191
f 55/69/192 49/64/193 51/63/194 57/70/195
f 53/71/196 52/66/197 50/60/198 56/67/199
f 57/70/200 51/63/201 52/66/202 53/71/203
f 56/67/204 54/68/205 55/69/206 57/70/207
f 56/67/208 57/70/209 53/71/210
f 48/59/211 49/64/212 55/69/213 54/68/214
