# This file uses centimeters as units for non-parametric coordinates.

v 20.000000 7.649002 -0.000000
v -4.462219 -19.350143 0.000000
v -20.000000 -7.806717 -0.000000
v -15.124512 -1.210373 0.000000
v 18.359741 13.575455 0.000000
v 8.490540 16.880096 0.000000
v -1.197632 -18.836914 -0.000000
v -13.812195 0.652740 0.000000
v 17.933899 14.482819 0.000000
v 10.057617 17.057663 0.000000
v -3.556335 -7.623886 4.000000
v -3.996765 -17.711029 4.000000
v -13.874451 -0.906067 4.000000
v -18.391174 -7.017044 4.000000
v -0.972412 -17.235565 4.000000
v -0.966614 -7.127365 4.000000
v 17.145874 12.791779 4.000000
v 18.665466 7.301407 4.000000
v 7.955505 15.853256 4.000000
v -12.658752 0.855408 4.000000
v 16.751404 13.663101 4.000000
v 9.454651 16.030823 4.000000
v -3.556335 -7.623886 -4.000000
v -3.996765 -17.711029 -4.000000
v -13.874451 -0.906067 -4.000000
v -18.391174 -7.017044 -4.000000
v -0.972412 -17.235565 -4.000000
v -0.966614 -7.127365 -4.000000
v 17.145874 12.791779 -4.000000
v 18.665466 7.301407 -4.000000
v 7.955505 15.853256 -4.000000
v -12.658752 0.855408 -4.000000
v 16.751404 13.663101 -4.000000
v 9.454651 16.030823 -4.000000
vt 0.891290 0.953189
vt 0.859927 0.921453
vt 0.859907 0.920861
vt 0.891277 0.984470
vt 0.891910 0.985010
vt 0.891559 0.985222
vt 0.891034 0.984559
vt 0.891340 0.953013
vt 0.892042 0.953683
vt 0.892049 0.954013
vt 0.860437 0.920453
vt 0.860695 0.920803
vt 0.892018 0.953980
vt 0.892008 0.953666
vt 0.891950 0.985073
vt 0.891634 0.985248
vt 0.891042 0.984532
vt 0.891235 0.984463
vt 0.891993 0.984987
vt 0.892034 0.985051
vt 0.891078 0.984521
vt 0.891088 0.984494
vt 0.891289 0.984421
vt 0.891331 0.984428
vt 0.891339 0.953017
vt 0.891290 0.953189
vt 0.892018 0.953980
vt 0.892049 0.954013
vt 0.859927 0.921453
vt 0.860445 0.920456
vt 0.860695 0.920803
vt 0.859927 0.921453
vt 0.859907 0.920861
vt 0.860445 0.920456
vt 0.860695 0.920803
vt 0.892018 0.953980
vt 0.892008 0.953666
vt 0.892042 0.953683
vt 0.892049 0.954013
vt 0.891290 0.953189
vt 0.891339 0.953017
vt 0.891277 0.984470
vt 0.891910 0.985010
vt 0.891559 0.985222
vt 0.891034 0.984559
vt 0.891950 0.985073
vt 0.891634 0.985248
vt 0.891042 0.984532
vt 0.891235 0.984463
vt 0.860437 0.920453
vt 0.860695 0.920803
vt 0.859927 0.921453
vt 0.892049 0.954013
vt 0.892018 0.953980
vt 0.891290 0.953189
vt 0.891340 0.953013
vt 0.891993 0.984987
vt 0.892034 0.985051
vt 0.891078 0.984521
vt 0.891088 0.984494
vt 0.891289 0.984421
vt 0.891331 0.984428
vn 0.000000 0.000000 1.000000
vn 0.000000 0.000000 1.000000
vn 0.000000 0.000000 1.000000
vn 0.000000 0.000000 1.000000
vn 0.000000 0.000000 1.000000
vn 0.000000 0.000000 1.000000
vn 0.000000 0.000000 1.000000
vn 0.000000 0.000000 1.000000
vn 0.000000 0.000000 1.000000
vn 0.000000 0.000000 1.000000
vn 0.000000 0.000000 1.000000
vn 0.000000 0.000000 1.000000
vn 0.000000 0.000000 1.000000
vn 0.000000 0.000000 1.000000
vn 0.000000 0.000000 1.000000
vn 0.000000 0.000000 1.000000
vn 0.000000 0.000000 1.000000
vn 0.000000 0.000000 1.000000
vn 0.000000 0.000000 1.000000
vn 0.000000 0.000000 1.000000
vn 0.000000 0.000000 1.000000
vn 0.000000 0.000000 1.000000
vn 0.000000 0.000000 1.000000
vn 0.000000 0.000000 1.000000
vn -0.787626 0.582149 0.201860
vn -0.787626 0.582149 0.201860
vn -0.787626 0.582149 0.201860
vn -0.787626 0.582149 0.201860
vn -0.554025 -0.745733 0.370053
vn -0.554025 -0.745733 0.370053
vn -0.554025 -0.745733 0.370053
vn -0.554025 -0.745733 0.370053
vn 0.144849 -0.921365 0.360700
vn 0.144849 -0.921365 0.360700
vn 0.144849 -0.921365 0.360700
vn 0.144849 -0.921365 0.360700
vn 0.911148 0.252180 0.325907
vn 0.911148 0.252180 0.325907
vn 0.911148 0.252180 0.325907
vn 0.911148 0.252180 0.325907
vn 0.764656 -0.611982 0.201940
vn 0.764656 -0.611982 0.201940
vn 0.764656 -0.611982 0.201940
vn 0.764656 -0.611982 0.201940
vn -0.802673 0.559834 0.205676
vn -0.802673 0.559834 0.205676
vn -0.802673 0.559834 0.205676
vn -0.802673 0.559834 0.205676
vn 0.855500 0.394548 0.335338
vn 0.855500 0.394548 0.335338
vn 0.855500 0.394548 0.335338
vn 0.855500 0.394548 0.335338
vn 0.297584 0.913543 0.277279
vn 0.297584 0.913543 0.277279
vn 0.297584 0.913543 0.277279
vn 0.297584 0.913543 0.277279
vn -0.111909 0.966228 0.232121
vn -0.111909 0.966228 0.232121
vn -0.111909 0.966228 0.232121
vn -0.111909 0.966228 0.232121
vn -0.583511 0.801998 0.127729
vn -0.583511 0.801998 0.127729
vn -0.583511 0.801998 0.127729
vn -0.583511 0.801998 0.127729
vn 0.000000 0.000000 -1.000000
vn 0.000000 0.000000 -1.000000
vn 0.000000 0.000000 -1.000000
vn 0.000000 0.000000 -1.000000
vn 0.000000 0.000000 -1.000000
vn 0.000000 0.000000 -1.000000
vn 0.000000 0.000000 -1.000000
vn 0.000000 0.000000 -1.000000
vn 0.000000 0.000000 -1.000000
vn 0.000000 0.000000 -1.000000
vn 0.000000 0.000000 -1.000000
vn 0.000000 0.000000 -1.000000
vn 0.000000 0.000000 -1.000000
vn 0.000000 0.000000 -1.000000
vn 0.000000 0.000000 -1.000000
vn 0.000000 0.000000 -1.000000
vn 0.000000 0.000000 -1.000000
vn 0.000000 0.000000 -1.000000
vn 0.000000 0.000000 -1.000000
vn 0.000000 0.000000 -1.000000
vn 0.000000 0.000000 -1.000000
vn 0.000000 0.000000 -1.000000
vn 0.000000 0.000000 -1.000000
vn 0.000000 0.000000 -1.000000
vn -0.787626 0.582149 -0.201859
vn -0.787626 0.582149 -0.201859
vn -0.787626 0.582149 -0.201859
vn -0.787626 0.582149 -0.201859
vn -0.554025 -0.745733 -0.370053
vn -0.554025 -0.745733 -0.370053
vn -0.554025 -0.745733 -0.370053
vn -0.554025 -0.745733 -0.370053
vn 0.144849 -0.921365 -0.360701
vn 0.144849 -0.921365 -0.360701
vn 0.144849 -0.921365 -0.360701
vn 0.144849 -0.921365 -0.360701
vn 0.911148 0.252180 -0.325907
vn 0.911148 0.252180 -0.325907
vn 0.911148 0.252180 -0.325907
vn 0.911148 0.252180 -0.325907
vn 0.764656 -0.611982 -0.201940
vn 0.764656 -0.611982 -0.201940
vn 0.764656 -0.611982 -0.201940
vn 0.764656 -0.611982 -0.201940
vn -0.802673 0.559834 -0.205676
vn -0.802673 0.559834 -0.205676
vn -0.802673 0.559834 -0.205676
vn -0.802673 0.559834 -0.205676
vn 0.855500 0.394548 -0.335338
vn 0.855500 0.394548 -0.335338
vn 0.855500 0.394548 -0.335338
vn 0.855500 0.394548 -0.335338
vn 0.297584 0.913543 -0.277279
vn 0.297584 0.913543 -0.277279
vn 0.297584 0.913543 -0.277279
vn 0.297584 0.913543 -0.277279
vn -0.111909 0.966228 -0.232121
vn -0.111909 0.966228 -0.232121
vn -0.111909 0.966228 -0.232121
vn -0.111909 0.966228 -0.232121
vn -0.583511 0.801998 -0.127729
vn -0.583511 0.801998 -0.127729
vn -0.583511 0.801998 -0.127729
vn -0.583511 0.801998 -0.127729
s off
f 12/29/1 11/3/2 13/30/3 14/31/4
f 15/27/5 16/14/6 11/9/7 12/28/8
f 18/26/9 17/25/10 16/14/11 15/27/12
f 19/4/13 20/5/14 16/6/15 17/7/16
f 13/15/17 11/16/18 16/6/19 20/5/20
f 21/17/21 22/18/22 19/4/23 17/7/24
f 4/11/25 3/12/26 14/31/27 13/30/28
f 3/12/29 2/2/30 12/29/31 14/31/32
f 2/10/33 7/13/34 15/27/35 12/28/36
f 1/1/37 5/8/38 17/25/39 18/26/40
f 7/13/41 1/1/42 18/26/43 15/27/44
f 8/19/45 4/20/46 13/15/47 20/5/48
f 5/21/49 9/22/50 21/17/51 17/7/52
f 9/22/53 10/23/54 22/18/55 21/17/56
f 10/23/57 6/24/58 19/4/59 22/18/60
f 6/24/61 8/19/62 20/5/63 19/4/64
f 24/32/65 26/35/66 25/34/67 23/33/68
f 27/36/69 24/39/70 23/38/71 28/37/72
f 30/40/73 27/36/74 28/37/75 29/41/76
f 31/42/77 29/45/78 28/44/79 32/43/80
f 25/46/81 32/43/82 28/44/83 23/47/84
f 33/48/85 29/45/86 31/42/87 34/49/88
f 4/50/89 25/34/90 26/35/91 3/51/92
f 3/51/93 26/35/94 24/32/95 2/52/96
f 2/53/97 24/39/98 27/36/99 7/54/100
f 1/55/101 30/40/102 29/41/103 5/56/104
f 7/54/105 27/36/106 30/40/107 1/55/108
f 8/57/109 32/43/110 25/46/111 4/58/112
f 5/59/113 29/45/114 33/48/115 9/60/116
f 9/60/117 33/48/118 34/49/119 10/61/120
f 10/61/121 34/49/122 31/42/123 6/62/124
f 6/62/125 31/42/126 32/43/127 8/57/128
