# This file uses centimeters as units for non-parametric coordinates.

v -3.043964 -17.807158 -1.970708
v 1.931840 -17.517168 -1.970708
v -2.881269 17.807621 -1.970708
v 1.992018 17.646181 -1.970708
v -4.276160 19.542667 0.014646
v 3.164036 19.542667 0.014646
v 3.164036 -19.542667 0.014646
v -4.276160 -19.542667 0.014646
v -4.276160 12.806509 0.014646
v -3.104142 12.806498 -1.970708
v 1.992018 12.806498 -1.970708
v 3.164036 12.806509 0.014646
v -4.276160 -13.719915 0.014646
v -3.043964 -13.719903 -1.970708
v 1.931840 -13.719903 -1.970708
v 3.164036 -13.719915 0.014646
v 3.587740 8.867077 -4.003179
v 7.332749 12.393517 -3.953454
v 5.355719 5.797843 -3.945864
v 9.693075 7.310677 -3.938882
v -0.491551 9.803061 -3.986003
v -0.499251 14.771199 -3.960304
v -4.530566 8.524504 -4.003585
v -7.658077 12.399476 -3.954905
v -4.323246 4.053885 -3.996849
v -8.298767 0.574490 -3.954163
v 8.445810 0.308034 -3.952092
v 4.343178 -3.497118 -3.999351
v 11.250303 -6.320769 -3.953451
v 6.050875 -6.411648 -4.003612
v 7.756503 -12.596267 -3.954608
v 4.615009 -8.886610 -3.998734
v 0.236082 -14.826448 -3.961102
v 0.230051 -10.193252 -3.989343
v -7.443214 -12.618299 -3.955137
v -4.485560 -8.627291 -4.000379
v -11.307328 -6.103174 -3.937805
v -6.003191 -5.117389 -3.945619
v -5.498853 5.997893 -4.001924
v -10.967289 6.306372 -3.952098
v 4.796910 4.661514 0.014646
v 11.376433 6.191540 0.014646
v 2.773418 7.830796 0.014646
v 8.163502 13.355961 0.014646
v -0.438884 8.505578 0.014646
v -0.515198 16.047443 0.014646
v -3.627665 7.563787 0.014646
v -8.473948 13.375878 0.014646
v -4.187655 6.114174 0.014646
v -12.237141 6.345611 0.014646
v -3.526356 5.094002 0.014646
v 9.309225 1.239965 0.014646
v -9.137731 -0.381428 0.014646
v 3.478358 -4.485397 0.014646
v 12.518038 -6.417173 0.014646
v 4.733636 -6.354551 0.014646
v 8.551628 -13.589371 0.014646
v 3.803578 -7.855060 0.014646
v 0.241389 -16.103376 0.014646
v 0.250430 -8.891430 0.014646
v -8.221149 -13.625413 0.014646
v -3.612121 -7.644956 0.014646
v -12.455981 -5.582054 0.014646
v -5.423952 -3.991512 0.014646
v -3.043964 -17.807158 1.999999
v 1.931840 -17.517168 1.999999
v -2.881269 17.807621 1.999999
v 1.992018 17.646181 1.999999
v -3.104142 12.806498 1.999999
v 1.992018 12.806498 1.999999
v -3.043964 -13.719903 1.999999
v 1.931840 -13.719903 1.999999
v 3.587740 8.867077 4.032470
v 7.332749 12.393517 3.982746
v 5.355719 5.797843 3.975155
v 9.693075 7.310677 3.968173
v -0.491551 9.803061 4.015294
v -0.499251 14.771199 3.989595
v -4.530566 8.524504 4.032876
v -7.038065 12.799885 3.984196
v -4.323246 4.053885 4.026140
v -8.298767 0.574490 3.983454
v 8.445810 0.308034 3.981383
v 4.343178 -3.497118 4.028642
v 11.250303 -6.320769 3.982742
v 6.050875 -6.411648 4.032903
v 7.756503 -12.596267 3.983900
v 4.615009 -8.886610 4.028025
v 0.236082 -14.404876 3.990393
v 0.230051 -10.193252 4.018634
v -7.443214 -12.618299 3.984428
v -4.485560 -8.627291 4.029670
v -11.307328 -6.103174 3.967096
v -6.003191 -5.117389 3.974910
v -5.498853 5.997893 4.031215
v -10.967289 6.306372 3.981389
vt 0.327725 0.922847
vt 0.327725 0.922861
vt 0.327738 0.922861
vt 0.327738 0.922847
vt 0.327722 0.922866
vt 0.327742 0.922866
vt 0.327743 0.922847
vt 0.327727 0.922763
vt 0.327729 0.922769
vt 0.327741 0.922772
vt 0.327745 0.922766
vt 0.327723 0.922846
vt 0.327728 0.922779
vt 0.327727 0.922776
vt 0.327741 0.922780
vt 0.327745 0.922779
vt 0.327971 0.951726
vt 0.327994 0.951750
vt 0.328013 0.951714
vt 0.327983 0.951706
vt 0.327944 0.951730
vt 0.327942 0.951765
vt 0.327917 0.951720
vt 0.327893 0.951746
vt 0.327911 0.951702
vt 0.327920 0.951690
vt 0.327895 0.951664
vt 0.327873 0.951702
vt 0.328004 0.951672
vt 0.327980 0.951646
vt 0.328019 0.951634
vt 0.327989 0.951630
vt 0.328000 0.951594
vt 0.327981 0.951614
vt 0.327955 0.951575
vt 0.327954 0.951602
vt 0.327906 0.951581
vt 0.327924 0.951608
vt 0.327878 0.951618
vt 0.327913 0.951629
vt 0.328029 0.951707
vt 0.327988 0.951694
vt 0.327974 0.951715
vt 0.328008 0.951755
vt 0.327952 0.951718
vt 0.327949 0.951773
vt 0.327930 0.951710
vt 0.327892 0.951751
vt 0.327927 0.951699
vt 0.327868 0.951697
vt 0.327932 0.951693
vt 0.328019 0.951674
vt 0.327983 0.951633
vt 0.327895 0.951651
vt 0.328036 0.951627
vt 0.327989 0.951622
vt 0.328013 0.951581
vt 0.327983 0.951612
vt 0.327963 0.951558
vt 0.327961 0.951603
vt 0.327907 0.951565
vt 0.327936 0.951607
vt 0.327874 0.951613
vt 0.327922 0.951630
vt 0.327727 0.922846
vt 0.327742 0.922846
vt 0.327741 0.922861
vt 0.327727 0.922861
vt 0.327744 0.922768
vt 0.327732 0.922765
vt 0.327731 0.922775
vt 0.327744 0.922777
vt 0.327988 0.951718
vt 0.328000 0.951697
vt 0.328032 0.951706
vt 0.328013 0.951745
vt 0.327958 0.951761
vt 0.327959 0.951724
vt 0.327905 0.951741
vt 0.327930 0.951712
vt 0.327924 0.951693
vt 0.327883 0.951692
vt 0.327906 0.951652
vt 0.327933 0.951679
vt 0.327997 0.951633
vt 0.328023 0.951662
vt 0.328006 0.951615
vt 0.328039 0.951620
vt 0.327997 0.951598
vt 0.328017 0.951578
vt 0.327969 0.951586
vt 0.327970 0.951557
vt 0.327937 0.951592
vt 0.327918 0.951563
vt 0.327925 0.951614
vt 0.327887 0.951602
vn 0.000000 0.000000 -1.000000
vn 0.000000 0.000000 -1.000000
vn 0.000000 0.000000 -1.000000
vn 0.000000 0.000000 -1.000000
vn 0.009678 0.738156 -0.674560
vn 0.009678 0.738156 -0.674560
vn 0.009678 0.738156 -0.674560
vn 0.009678 0.738156 -0.674560
vn 0.861144 0.000000 -0.508361
vn 0.861144 0.000000 -0.508361
vn 0.861144 0.000000 -0.508361
vn 0.861144 0.000000 -0.508361
vn 0.016955 -0.725914 -0.687577
vn 0.016955 -0.725914 -0.687577
vn 0.016955 -0.725914 -0.687577
vn 0.016955 -0.725914 -0.687577
vn -0.836514 0.015884 -0.547715
vn -0.836514 0.015884 -0.547715
vn -0.836514 0.015884 -0.547715
vn -0.836514 0.015884 -0.547715
vn -0.849658 0.000000 -0.527334
vn -0.849658 0.000000 -0.527334
vn -0.849658 0.000000 -0.527334
vn -0.849658 0.000000 -0.527334
vn -0.000000 0.000000 -1.000000
vn -0.000000 0.000000 -1.000000
vn -0.000000 0.000000 -1.000000
vn -0.000000 0.000000 -1.000000
vn 0.849658 0.000000 -0.527334
vn 0.849658 0.000000 -0.527334
vn 0.849658 0.000000 -0.527334
vn 0.849658 0.000000 -0.527334
vn 0.009511 -0.004002 -0.999947
vn 0.009511 -0.004002 -0.999947
vn 0.009511 -0.004002 -0.999947
vn 0.009511 -0.004002 -0.999947
vn 0.001428 0.008250 -0.999965
vn 0.001428 0.008250 -0.999965
vn 0.001428 0.008250 -0.999965
vn 0.001428 0.008250 -0.999965
vn -0.001482 0.007885 -0.999968
vn -0.001482 0.007885 -0.999968
vn -0.001482 0.007885 -0.999968
vn -0.001482 0.007885 -0.999968
vn -0.008273 -0.004535 -0.999956
vn -0.008273 -0.004535 -0.999956
vn -0.008273 -0.004535 -0.999956
vn -0.008273 -0.004535 -0.999955
vn 0.000131 0.000482 -1.000000
vn 0.000131 0.000482 -1.000000
vn 0.000131 0.000482 -1.000000
vn 0.000131 0.000482 -1.000000
vn 0.008536 0.004625 -0.999953
vn 0.008536 0.004625 -0.999953
vn 0.008536 0.004625 -0.999953
vn 0.008536 0.004625 -0.999953
vn 0.008935 -0.005459 -0.999945
vn 0.008935 -0.005459 -0.999945
vn 0.008935 -0.005459 -0.999945
vn 0.008935 -0.005459 -0.999945
vn 0.002098 -0.007882 -0.999967
vn 0.002098 -0.007882 -0.999967
vn 0.002098 -0.007882 -0.999967
vn 0.002098 -0.007882 -0.999967
vn -0.001979 -0.007843 -0.999967
vn -0.001979 -0.007843 -0.999967
vn -0.001979 -0.007843 -0.999967
vn -0.001979 -0.007843 -0.999967
vn -0.008126 0.002829 -0.999963
vn -0.008126 0.002829 -0.999963
vn -0.008126 0.002829 -0.999963
vn -0.008126 0.002829 -0.999963
vn -0.009433 0.004163 -0.999947
vn -0.009433 0.004163 -0.999947
vn -0.009433 0.004163 -0.999947
vn -0.009433 0.004163 -0.999947
vn 0.256436 -0.919332 -0.298444
vn 0.256436 -0.919332 -0.298444
vn 0.256436 -0.919332 -0.298444
vn 0.256436 -0.919332 -0.298444
vn -0.819864 -0.500824 -0.277486
vn -0.819864 -0.500824 -0.277486
vn -0.819864 -0.500824 -0.277486
vn -0.819864 -0.500824 -0.277486
vn 0.876437 0.398511 -0.270274
vn 0.876436 0.398511 -0.270274
vn 0.876437 0.398511 -0.270274
vn 0.876436 0.398511 -0.270274
vn -0.206995 -0.933914 -0.291476
vn -0.206995 -0.933914 -0.291476
vn -0.206995 -0.933914 -0.291476
vn -0.206995 -0.933914 -0.291476
vn 0.281268 0.915725 -0.286943
vn 0.281268 0.915725 -0.286943
vn 0.281268 0.915725 -0.286943
vn 0.281268 0.915725 -0.286943
vn 0.281587 -0.914333 -0.291041
vn 0.281587 -0.914333 -0.291041
vn 0.281587 -0.914333 -0.291041
vn 0.281587 -0.914333 -0.291041
vn -0.303029 0.908040 -0.289201
vn -0.303029 0.908040 -0.289201
vn -0.303029 0.908040 -0.289201
vn -0.303029 0.908040 -0.289201
vn 0.895263 -0.344216 -0.282878
vn 0.895263 -0.344216 -0.282878
vn 0.895263 -0.344216 -0.282878
vn 0.895263 -0.344216 -0.282878
vn -0.845026 0.455339 -0.280351
vn -0.845026 0.455339 -0.280351
vn -0.845026 0.455339 -0.280351
vn -0.845026 0.455339 -0.280351
vn 0.273284 0.919042 -0.284039
vn 0.273284 0.919042 -0.284039
vn 0.273284 0.919042 -0.284039
vn 0.273284 0.919042 -0.284039
vn -0.295628 -0.911752 -0.285152
vn -0.295628 -0.911752 -0.285152
vn -0.295628 -0.911752 -0.285152
vn -0.295628 -0.911752 -0.285152
vn 0.885575 0.372787 -0.277103
vn 0.885575 0.372787 -0.277103
vn 0.885575 0.372787 -0.277103
vn 0.885575 0.372787 -0.277103
vn -0.816167 -0.505277 -0.280298
vn -0.816167 -0.505277 -0.280298
vn -0.816166 -0.505277 -0.280298
vn -0.816166 -0.505277 -0.280298
vn 0.838991 -0.465412 -0.281932
vn 0.838991 -0.465412 -0.281932
vn 0.838991 -0.465412 -0.281932
vn 0.838991 -0.465412 -0.281932
vn -0.823905 0.489981 -0.284779
vn -0.823905 0.489981 -0.284779
vn -0.823905 0.489981 -0.284779
vn -0.823905 0.489981 -0.284779
vn 0.274873 -0.916816 -0.289643
vn 0.274873 -0.916816 -0.289644
vn 0.274873 -0.916816 -0.289644
vn 0.274873 -0.916816 -0.289643
vn -0.270935 0.916748 -0.293542
vn -0.270935 0.916748 -0.293542
vn -0.270935 0.916748 -0.293542
vn -0.270935 0.916748 -0.293542
vn -0.266904 -0.919012 -0.290136
vn -0.266904 -0.919012 -0.290136
vn -0.266904 -0.919012 -0.290136
vn -0.266904 -0.919012 -0.290136
vn 0.298297 0.908685 -0.292081
vn 0.298297 0.908685 -0.292081
vn 0.298297 0.908685 -0.292081
vn 0.298297 0.908685 -0.292081
vn -0.849412 -0.472251 -0.235537
vn -0.849412 -0.472251 -0.235537
vn -0.849412 -0.472251 -0.235537
vn -0.849412 -0.472251 -0.235537
vn 0.873165 0.407880 -0.266865
vn 0.873165 0.407880 -0.266865
vn 0.873165 0.407880 -0.266865
vn 0.873165 0.407880 -0.266865
vn -0.199852 0.956298 -0.213431
vn -0.199852 0.956298 -0.213431
vn -0.199852 0.956298 -0.213431
vn -0.199852 0.956298 -0.213431
vn 0.814592 0.504313 -0.286547
vn 0.814591 0.504313 -0.286547
vn 0.814592 0.504313 -0.286547
vn 0.814591 0.504313 -0.286547
vn -0.871651 -0.403490 -0.278244
vn -0.871651 -0.403490 -0.278244
vn -0.871651 -0.403490 -0.278244
vn -0.871651 -0.403490 -0.278244
vn 0.000000 0.000000 1.000000
vn 0.000000 0.000000 1.000000
vn 0.000000 0.000000 1.000000
vn 0.000000 0.000000 1.000000
vn 0.009678 0.738156 0.674560
vn 0.009678 0.738156 0.674560
vn 0.009678 0.738156 0.674560
vn 0.009678 0.738156 0.674560
vn 0.861144 0.000000 0.508361
vn 0.861144 0.000000 0.508361
vn 0.861144 0.000000 0.508361
vn 0.861144 0.000000 0.508361
vn 0.016955 -0.725914 0.687577
vn 0.016955 -0.725914 0.687577
vn 0.016955 -0.725914 0.687577
vn 0.016955 -0.725914 0.687577
vn -0.836514 0.015884 0.547715
vn -0.836514 0.015884 0.547715
vn -0.836514 0.015884 0.547715
vn -0.836514 0.015884 0.547715
vn -0.849658 0.000000 0.527334
vn -0.849658 0.000000 0.527334
vn -0.849658 0.000000 0.527334
vn -0.849658 0.000000 0.527334
vn 0.000000 0.000000 1.000000
vn 0.000000 0.000000 1.000000
vn 0.000000 0.000000 1.000000
vn 0.000000 0.000000 1.000000
vn 0.849658 0.000000 0.527334
vn 0.849658 0.000000 0.527334
vn 0.849658 0.000000 0.527334
vn 0.849658 0.000000 0.527334
vn 0.009511 -0.004002 0.999947
vn 0.009511 -0.004002 0.999947
vn 0.009511 -0.004002 0.999947
vn 0.009511 -0.004002 0.999947
vn 0.001428 0.008250 0.999965
vn 0.001428 0.008250 0.999965
vn 0.001428 0.008250 0.999965
vn 0.001428 0.008250 0.999965
vn -0.001219 0.007715 0.999970
vn -0.001219 0.007715 0.999969
vn -0.001219 0.007715 0.999970
vn -0.001219 0.007715 0.999969
vn -0.008273 -0.004535 0.999956
vn -0.008273 -0.004535 0.999955
vn -0.008273 -0.004535 0.999956
vn -0.008273 -0.004535 0.999956
vn 0.000131 0.000482 1.000000
vn 0.000131 0.000482 1.000000
vn 0.000131 0.000482 1.000000
vn 0.000131 0.000482 1.000000
vn 0.008536 0.004625 0.999953
vn 0.008536 0.004625 0.999953
vn 0.008536 0.004625 0.999953
vn 0.008536 0.004625 0.999953
vn 0.008935 -0.005459 0.999945
vn 0.008935 -0.005459 0.999945
vn 0.008935 -0.005459 0.999945
vn 0.008935 -0.005459 0.999945
vn 0.001945 -0.008363 0.999963
vn 0.001945 -0.008363 0.999963
vn 0.001945 -0.008363 0.999963
vn 0.001945 -0.008363 0.999963
vn -0.001835 -0.008298 0.999964
vn -0.001835 -0.008298 0.999964
vn -0.001835 -0.008298 0.999964
vn -0.001835 -0.008298 0.999964
vn -0.008126 0.002829 0.999963
vn -0.008126 0.002829 0.999963
vn -0.008126 0.002829 0.999963
vn -0.008126 0.002829 0.999963
vn -0.009630 0.004733 0.999942
vn -0.009630 0.004733 0.999942
vn -0.009630 0.004733 0.999942
vn -0.009630 0.004733 0.999942
vn 0.256436 -0.919332 0.298444
vn 0.256436 -0.919332 0.298444
vn 0.256436 -0.919332 0.298444
vn 0.256436 -0.919332 0.298444
vn -0.819864 -0.500823 0.277486
vn -0.819864 -0.500823 0.277486
vn -0.819864 -0.500823 0.277486
vn -0.819864 -0.500823 0.277486
vn 0.876436 0.398511 0.270274
vn 0.876436 0.398511 0.270274
vn 0.876436 0.398511 0.270274
vn 0.876436 0.398511 0.270274
vn -0.206995 -0.933914 0.291476
vn -0.206995 -0.933914 0.291476
vn -0.206995 -0.933914 0.291476
vn -0.206995 -0.933914 0.291476
vn 0.281268 0.915725 0.286943
vn 0.281268 0.915725 0.286943
vn 0.281268 0.915725 0.286943
vn 0.281268 0.915725 0.286943
vn 0.281587 -0.914333 0.291041
vn 0.281587 -0.914333 0.291041
vn 0.281587 -0.914333 0.291041
vn 0.281587 -0.914333 0.291041
vn -0.293957 0.917580 0.267651
vn -0.293957 0.917580 0.267651
vn -0.293957 0.917580 0.267651
vn -0.293957 0.917580 0.267651
vn 0.895263 -0.344216 0.282878
vn 0.895263 -0.344216 0.282878
vn 0.895263 -0.344216 0.282878
vn 0.895263 -0.344216 0.282878
vn -0.824312 0.468808 0.317377
vn -0.824312 0.468808 0.317377
vn -0.824312 0.468808 0.317377
vn -0.824312 0.468808 0.317377
vn 0.273284 0.919042 0.284039
vn 0.273284 0.919042 0.284039
vn 0.273284 0.919042 0.284039
vn 0.273284 0.919042 0.284039
vn -0.295628 -0.911752 0.285152
vn -0.295628 -0.911752 0.285152
vn -0.295628 -0.911752 0.285152
vn -0.295628 -0.911752 0.285152
vn 0.885575 0.372787 0.277103
vn 0.885575 0.372787 0.277103
vn 0.885575 0.372787 0.277103
vn 0.885575 0.372787 0.277103
vn -0.816167 -0.505277 0.280298
vn -0.816167 -0.505277 0.280298
vn -0.816167 -0.505277 0.280298
vn -0.816166 -0.505277 0.280298
vn 0.838991 -0.465412 0.281932
vn 0.838991 -0.465412 0.281932
vn 0.838991 -0.465412 0.281932
vn 0.838991 -0.465412 0.281932
vn -0.823905 0.489981 0.284779
vn -0.823905 0.489981 0.284779
vn -0.823905 0.489981 0.284779
vn -0.823905 0.489981 0.284779
vn 0.248488 -0.909535 0.333166
vn 0.248488 -0.909535 0.333166
vn 0.248488 -0.909535 0.333166
vn 0.248488 -0.909535 0.333166
vn -0.270935 0.916748 0.293542
vn -0.270935 0.916748 0.293542
vn -0.270935 0.916748 0.293542
vn -0.270935 0.916748 0.293542
vn -0.240896 -0.911358 0.333761
vn -0.240896 -0.911358 0.333761
vn -0.240896 -0.911358 0.333761
vn -0.240896 -0.911358 0.333761
vn 0.298297 0.908685 0.292081
vn 0.298297 0.908685 0.292081
vn 0.298297 0.908685 0.292081
vn 0.298297 0.908685 0.292081
vn -0.849412 -0.472251 0.235537
vn -0.849412 -0.472251 0.235537
vn -0.849412 -0.472251 0.235537
vn -0.849412 -0.472251 0.235537
vn 0.873165 0.407880 0.266865
vn 0.873165 0.407880 0.266865
vn 0.873165 0.407880 0.266865
vn 0.873165 0.407880 0.266865
vn -0.199852 0.956298 0.213431
vn -0.199852 0.956298 0.213431
vn -0.199852 0.956298 0.213431
vn -0.199852 0.956298 0.213431
vn 0.814592 0.504313 0.286547
vn 0.814592 0.504313 0.286547
vn 0.814591 0.504313 0.286547
vn 0.814591 0.504313 0.286547
vn -0.871651 -0.403490 0.278244
vn -0.871651 -0.403490 0.278244
vn -0.871651 -0.403490 0.278244
vn -0.871651 -0.403490 0.278244
s off
f 10/1/1 3/2/2 4/3/3 11/4/4
f 3/2/5 5/5/6 6/6/7 4/3/8
f 11/4/9 4/3/10 6/6/11 12/7/12
f 8/8/13 1/9/14 2/10/15 7/11/16
f 5/5/17 3/2/18 10/1/19 9/12/20
f 14/13/21 1/9/22 8/8/23 13/14/24
f 1/9/25 14/13/26 15/15/27 2/10/28
f 2/10/29 15/15/30 16/16/31 7/11/32
f 17/17/33 18/18/34 20/19/35 19/20/36
f 17/17/37 21/21/38 22/22/39 18/18/40
f 21/21/41 23/23/42 24/24/43 22/22/44
f 39/25/45 25/26/46 26/27/47 40/28/48
f 25/26/49 27/29/50 28/30/51 26/27/52
f 27/29/53 29/31/54 30/32/55 28/30/56
f 29/31/57 31/33/58 32/34/59 30/32/60
f 31/33/61 33/35/62 34/36/63 32/34/64
f 33/35/65 35/37/66 36/38/67 34/36/68
f 35/37/69 37/39/70 38/40/71 36/38/72
f 23/23/73 39/25/74 40/28/75 24/24/76
f 20/19/77 42/41/78 41/42/79 19/20/80
f 19/20/81 41/42/82 43/43/83 17/17/84
f 18/18/85 44/44/86 42/41/87 20/19/88
f 17/17/89 43/43/90 45/45/91 21/21/92
f 22/22/93 46/46/94 44/44/95 18/18/96
f 21/21/97 45/45/98 47/47/99 23/23/100
f 24/24/101 48/48/102 46/46/103 22/22/104
f 23/23/105 47/47/106 49/49/107 39/25/108
f 40/28/109 50/50/110 48/48/111 24/24/112
f 25/26/113 51/51/114 52/52/115 27/29/116
f 28/30/117 54/53/118 53/54/119 26/27/120
f 27/29/121 52/52/122 55/55/123 29/31/124
f 30/32/125 56/56/126 54/53/127 28/30/128
f 29/31/129 55/55/130 57/57/131 31/33/132
f 32/34/133 58/58/134 56/56/135 30/32/136
f 31/33/137 57/57/138 59/59/139 33/35/140
f 34/36/141 60/60/142 58/58/143 32/34/144
f 33/35/145 59/59/146 61/61/147 35/37/148
f 36/38/149 62/62/150 60/60/151 34/36/152
f 35/37/153 61/61/154 63/63/155 37/39/156
f 38/40/157 64/64/158 62/62/159 36/38/160
f 37/39/161 63/63/162 64/64/163 38/40/164
f 39/25/165 49/49/166 51/51/167 25/26/168
f 26/27/169 53/54/170 50/50/171 40/28/172
f 69/65/173 70/66/174 68/67/175 67/68/176
f 67/68/177 68/67/178 6/6/179 5/5/180
f 70/66/181 12/7/182 6/6/183 68/67/184
f 8/8/185 7/11/186 66/69/187 65/70/188
f 5/5/189 9/12/190 69/65/191 67/68/192
f 71/71/193 13/14/194 8/8/195 65/70/196
f 65/70/197 66/69/198 72/72/199 71/71/200
f 66/69/201 7/11/202 16/16/203 72/72/204
f 73/73/205 75/74/206 76/75/207 74/76/208
f 73/73/209 74/76/210 78/77/211 77/78/212
f 77/78/213 78/77/214 80/79/215 79/80/216
f 95/81/217 96/82/218 82/83/219 81/84/220
f 81/84/221 82/83/222 84/85/223 83/86/224
f 83/86/225 84/85/226 86/87/227 85/88/228
f 85/88/229 86/87/230 88/89/231 87/90/232
f 87/90/233 88/89/234 90/91/235 89/92/236
f 89/92/237 90/91/238 92/93/239 91/94/240
f 91/94/241 92/93/242 94/95/243 93/96/244
f 79/80/245 80/79/246 96/82/247 95/81/248
f 76/75/249 75/74/250 41/42/251 42/41/252
f 75/74/253 73/73/254 43/43/255 41/42/256
f 74/76/257 76/75/258 42/41/259 44/44/260
f 73/73/261 77/78/262 45/45/263 43/43/264
f 78/77/265 74/76/266 44/44/267 46/46/268
f 77/78/269 79/80/270 47/47/271 45/45/272
f 80/79/273 78/77/274 46/46/275 48/48/276
f 79/80/277 95/81/278 49/49/279 47/47/280
f 96/82/281 80/79/282 48/48/283 50/50/284
f 81/84/285 83/86/286 52/52/287 51/51/288
f 84/85/289 82/83/290 53/54/291 54/53/292
f 83/86/293 85/88/294 55/55/295 52/52/296
f 86/87/297 84/85/298 54/53/299 56/56/300
f 85/88/301 87/90/302 57/57/303 55/55/304
f 88/89/305 86/87/306 56/56/307 58/58/308
f 87/90/309 89/92/310 59/59/311 57/57/312
f 90/91/313 88/89/314 58/58/315 60/60/316
f 89/92/317 91/94/318 61/61/319 59/59/320
f 92/93/321 90/91/322 60/60/323 62/62/324
f 91/94/325 93/96/326 63/63/327 61/61/328
f 94/95/329 92/93/330 62/62/331 64/64/332
f 93/96/333 94/95/334 64/64/335 63/63/336
f 95/81/337 81/84/338 51/51/339 49/49/340
f 82/83/341 96/82/342 50/50/343 53/54/344
