# This file uses centimeters as units for non-parametric coordinates.

v -19.777832 18.905148 0.000000
v 19.777832 18.905151 0.000000
v -12.359985 18.905148 0.000000
v -8.162109 -6.785481 -0.000000
v -2.861694 18.905149 -0.000000
v 3.300659 18.905149 0.000000
v 8.625366 -6.905701 -0.000000
v 12.993896 18.905153 0.000000
v -11.362427 -18.858631 -0.000000
v -4.530029 -18.858631 0.000000
v 0.214355 2.530015 -0.000000
v 4.312378 -18.858629 0.000000
v 11.576782 -18.858629 0.000000
v 9.785889 0.568791 0.000000
v 17.687134 7.876453 0.000000
v 7.766479 -1.950250 0.000000
v 1.530518 -3.018279 -0.000000
v -7.203735 -2.946137 -0.000000
v -0.672241 -1.815876 0.000000
v -10.889160 9.290804 0.000000
v -14.414795 -5.650004 -0.000000
v 0.466431 6.213579 4.000000
v -2.231445 17.980778 4.000000
v -6.027222 -3.030170 4.000000
v -3.319214 -7.992349 4.000000
v -7.994019 -9.175337 4.000000
v -10.690186 -17.177958 4.000000
v -12.023682 8.534501 4.000000
v -13.322388 -5.313869 4.000000
v -5.370361 -17.472075 4.000000
v 2.586304 17.352661 4.000000
v 13.822388 17.686665 4.000000
v 18.620728 17.224478 4.000000
v 11.072388 0.526774 4.000000
v 16.594727 7.750402 4.000000
v 8.247192 -9.682518 4.000000
v 4.858643 -17.430056 4.000000
v 6.842163 -2.202351 4.000000
v 3.093506 -2.051891 4.000000
v 10.862549 -16.967871 4.000000
v -13.200317 18.148844 4.000000
v -18.376099 17.137157 4.000000
v -17.730103 2.806964 2.000000
v 17.546753 2.164771 2.000000
v -18.050171 5.255866 2.000000
v 16.890381 5.464060 2.000000
v -19.462646 5.720746 -0.000000
v 19.524048 5.987943 -0.000000
v -19.524048 1.396433 -0.000000
v 19.452148 1.528187 -0.000000
v 7.255737 2.789739 2.000000
v 9.436523 5.260096 2.000000
v 9.788330 5.878100 0.000000
v 6.681519 1.570044 0.000000
v 17.730103 -7.062125 2.000000
v -17.546753 -6.419932 2.000000
v 18.050171 -9.511027 2.000000
v -16.890381 -9.719221 2.000000
v 19.462646 -9.975907 -0.000000
v -19.524048 -10.243104 0.000000
v 19.524048 -5.651594 -0.000000
v -19.452148 -5.783348 0.000000
v -7.255737 -7.044900 2.000000
v -9.436523 -9.515257 2.000000
v -9.788330 -10.133262 -0.000000
v -6.681519 -5.825205 0.000000
v 0.466431 6.213579 -4.000000
v -2.231445 17.980778 -4.000000
v -6.027222 -3.030170 -4.000000
v -3.319214 -7.992349 -4.000000
v -7.994019 -9.175337 -4.000000
v -10.690186 -17.177958 -4.000000
v -12.023682 8.534501 -4.000000
v -13.322388 -5.313869 -4.000000
v -5.370361 -17.472075 -4.000000
v 2.586304 17.352661 -4.000000
v 13.822388 17.686665 -4.000000
v 18.620728 17.224478 -4.000000
v 11.072388 0.526774 -4.000000
v 16.594727 7.750402 -4.000000
v 8.247192 -9.682518 -4.000000
v 4.858643 -17.430056 -4.000000
v 6.842163 -2.202351 -4.000000
v 3.093506 -2.051891 -4.000000
v 10.862549 -16.967871 -4.000000
v -13.200317 18.148844 -4.000000
v -18.376099 17.137157 -4.000000
v -17.730103 2.806964 -2.000000
v 17.546753 2.164771 -2.000000
v -18.050171 5.255866 -2.000000
v 16.890381 5.464060 -2.000000
v 7.255737 2.789739 -2.000000
v 9.436523 5.260096 -2.000000
v 17.730103 -7.062125 -2.000000
v -17.546753 -6.419932 -2.000000
v 18.050171 -9.511027 -2.000000
v -16.890381 -9.719221 -2.000000
v -7.255737 -7.044900 -2.000000
v -9.436523 -9.515257 -2.000000
vt 0.012071 0.953507
vt 0.011716 0.955089
vt 0.010966 0.951474
vt 0.011351 0.950530
vt 0.010173 0.948854
vt 0.010632 0.949944
vt 0.009808 0.953674
vt 0.009725 0.951039
vt 0.010928 0.948798
vt 0.012354 0.954970
vt 0.015161 0.954945
vt 0.014500 0.955033
vt 0.013961 0.952151
vt 0.014816 0.953525
vt 0.012970 0.948806
vt 0.013395 0.949889
vt 0.013097 0.951631
vt 0.012518 0.951660
vt 0.013840 0.948894
vt 0.009573 0.955121
vt 0.008865 0.954929
vt 0.012028 0.952532
vt 0.011830 0.951705
vt 0.010766 0.951490
vt 0.011609 0.955265
vt 0.010058 0.948534
vt 0.009539 0.950975
vt 0.010001 0.953818
vt 0.010603 0.950759
vt 0.011071 0.948534
vt 0.012475 0.955265
vt 0.015357 0.955265
vt 0.015002 0.953549
vt 0.013742 0.952159
vt 0.014359 0.955265
vt 0.012877 0.948534
vt 0.012252 0.951476
vt 0.013255 0.951679
vt 0.013460 0.950736
vt 0.013962 0.948534
vt 0.008626 0.955265
vt 0.009716 0.955265
vt 0.008975 0.952584
vt 0.013227 0.952581
vt 0.013598 0.953051
vt 0.008920 0.953050
vt 0.013658 0.953169
vt 0.008680 0.953139
vt 0.008669 0.952316
vt 0.013129 0.952349
vt 0.014978 0.952462
vt 0.015302 0.952341
vt 0.015314 0.953190
vt 0.014866 0.953090
vt 0.015009 0.950707
vt 0.010757 0.950710
vt 0.010386 0.950240
vt 0.015063 0.950241
vt 0.010326 0.950122
vt 0.015304 0.950152
vt 0.015314 0.950975
vt 0.010855 0.950942
vt 0.009006 0.950829
vt 0.008682 0.950950
vt 0.008669 0.950101
vt 0.009118 0.950201
vt 0.012071 0.953507
vt 0.011716 0.955089
vt 0.010966 0.951474
vt 0.011351 0.950530
vt 0.010173 0.948854
vt 0.010632 0.949944
vt 0.009808 0.953674
vt 0.009725 0.951039
vt 0.010928 0.948798
vt 0.012354 0.954970
vt 0.015161 0.954945
vt 0.014500 0.955033
vt 0.013961 0.952151
vt 0.014816 0.953525
vt 0.012970 0.948806
vt 0.013395 0.949889
vt 0.013097 0.951631
vt 0.012518 0.951660
vt 0.013840 0.948894
vt 0.009573 0.955121
vt 0.008865 0.954929
vt 0.011609 0.955265
vt 0.010766 0.951490
vt 0.011830 0.951705
vt 0.012028 0.952532
vt 0.010603 0.950759
vt 0.010001 0.953818
vt 0.009539 0.950975
vt 0.010058 0.948534
vt 0.011071 0.948534
vt 0.012475 0.955265
vt 0.015357 0.955265
vt 0.014359 0.955265
vt 0.013742 0.952159
vt 0.015002 0.953549
vt 0.013460 0.950736
vt 0.013255 0.951679
vt 0.012252 0.951476
vt 0.012877 0.948534
vt 0.013962 0.948534
vt 0.009716 0.955265
vt 0.008626 0.955265
vt 0.008975 0.952584
vt 0.013227 0.952581
vt 0.013598 0.953051
vt 0.008920 0.953050
vt 0.013658 0.953169
vt 0.008680 0.953139
vt 0.008669 0.952316
vt 0.013129 0.952349
vt 0.014978 0.952462
vt 0.015302 0.952341
vt 0.015314 0.953190
vt 0.014866 0.953090
vt 0.015009 0.950707
vt 0.010757 0.950710
vt 0.010386 0.950240
vt 0.015063 0.950241
vt 0.010326 0.950122
vt 0.015304 0.950152
vt 0.015314 0.950975
vt 0.010855 0.950942
vt 0.009006 0.950829
vt 0.008682 0.950950
vt 0.008669 0.950101
vt 0.009118 0.950201
vn 0.000000 0.000000 1.000000
vn 0.000000 0.000000 1.000000
vn 0.000000 0.000000 1.000000
vn 0.000000 0.000000 1.000000
vn -0.000000 0.000000 1.000000
vn -0.000000 0.000000 1.000000
vn 0.000000 0.000000 1.000000
vn -0.000000 0.000000 1.000000
vn 0.000000 0.000000 1.000000
vn -0.000000 0.000000 1.000000
vn -0.000000 0.000000 1.000000
vn 0.000000 0.000000 1.000000
vn 0.000000 0.000000 1.000000
vn 0.000000 0.000000 1.000000
vn 0.000000 0.000000 1.000000
vn 0.000000 0.000000 1.000000
vn 0.000000 0.000000 1.000000
vn 0.000000 0.000000 1.000000
vn 0.000000 0.000000 1.000000
vn 0.000000 0.000000 1.000000
vn 0.000000 0.000000 1.000000
vn 0.000000 0.000000 1.000000
vn 0.000000 0.000000 1.000000
vn 0.000000 0.000000 1.000000
vn 0.000000 0.000000 1.000000
vn 0.000000 0.000000 1.000000
vn 0.000000 0.000000 1.000000
vn 0.000000 0.000000 1.000000
vn 0.000000 0.000000 1.000000
vn 0.000000 0.000000 1.000000
vn 0.000000 0.000000 1.000000
vn 0.000000 0.000000 1.000000
vn 0.000000 0.000000 1.000000
vn 0.000000 0.000000 1.000000
vn 0.000000 0.000000 1.000000
vn -0.000000 0.000000 1.000000
vn 0.000000 0.000000 1.000000
vn -0.000000 0.000000 1.000000
vn 0.000000 0.000000 1.000000
vn 0.000000 0.000000 1.000000
vn 0.000000 0.000000 1.000000
vn -0.982450 0.186528 -0.000000
vn -0.982450 0.186528 -0.000000
vn -0.954141 0.181153 0.238323
vn -0.954141 0.181153 0.238323
vn 0.969719 -0.244222 0.000000
vn 0.969719 -0.244222 0.000000
vn 0.948212 -0.238805 0.209444
vn 0.948212 -0.238805 0.209444
vn 0.980584 0.196102 0.000000
vn 0.980584 0.196102 0.000000
vn 0.962351 0.192456 0.191943
vn 0.962351 0.192456 0.191943
vn -0.941328 -0.213421 0.261443
vn -0.941328 -0.213421 0.261443
vn -0.941328 -0.213421 0.261443
vn -0.941328 -0.213421 0.261443
vn -0.022597 -0.933644 0.357488
vn -0.022597 -0.933644 0.357488
vn -0.022597 -0.933644 0.357488
vn -0.022597 -0.933644 0.357488
vn 0.054555 0.953679 0.295840
vn 0.054555 0.953679 0.295840
vn 0.054555 0.953679 0.295840
vn 0.054555 0.953679 0.295840
vn 0.037471 0.939013 0.341833
vn 0.037471 0.939013 0.341833
vn 0.037471 0.939013 0.341833
vn 0.037471 0.939013 0.341833
vn -0.947985 0.159118 0.275693
vn -0.947984 0.159118 0.275693
vn -0.947985 0.159118 0.275693
vn -0.947984 0.159118 0.275693
vn 0.980432 -0.196858 0.000000
vn 0.980432 -0.196858 0.000000
vn 0.955228 -0.191798 0.225284
vn 0.955228 -0.191798 0.225284
vn 0.983830 0.179107 0.000000
vn 0.983830 0.179107 0.000000
vn 0.959215 0.174626 0.222287
vn 0.959215 0.174626 0.222287
vn -0.946763 -0.137897 0.290902
vn -0.946763 -0.137897 0.290902
vn -0.946763 -0.137897 0.290902
vn -0.946763 -0.137897 0.290902
vn 0.032149 -0.922933 0.383615
vn 0.032149 -0.922933 0.383615
vn 0.032149 -0.922933 0.383615
vn 0.032149 -0.922933 0.383615
vn -0.975529 0.219873 0.000000
vn -0.975529 0.219873 0.000000
vn -0.958692 0.216078 0.184986
vn -0.958692 0.216078 0.184987
vn 0.940937 -0.216566 0.260264
vn 0.940937 -0.216566 0.260264
vn 0.940937 -0.216566 0.260264
vn 0.940937 -0.216566 0.260264
vn 0.977493 0.210970 0.000000
vn 0.977493 0.210970 0.000000
vn 0.948793 0.204776 0.240537
vn 0.948793 0.204776 0.240537
vn -0.899558 -0.256785 0.353349
vn -0.899559 -0.256785 0.353349
vn -0.899558 -0.256785 0.353349
vn -0.899558 -0.256785 0.353349
vn -0.959663 0.281153 -0.000000
vn -0.959663 0.281153 0.000000
vn -0.931394 0.272871 0.240926
vn -0.931394 0.272871 0.240926
vn 0.936112 -0.208556 0.283193
vn 0.936112 -0.208556 0.283193
vn 0.936112 -0.208556 0.283193
vn 0.936112 -0.208556 0.283193
vn 0.956325 0.131670 0.260971
vn 0.956325 0.131670 0.260971
vn 0.956325 0.131670 0.260971
vn 0.956325 0.131670 0.260971
vn -0.076262 0.949326 0.304899
vn -0.076262 0.949326 0.304899
vn -0.076262 0.949326 0.304899
vn -0.076262 0.949326 0.304899
vn -0.976315 -0.216355 0.000000
vn -0.976315 -0.216355 0.000000
vn -0.943586 -0.209102 0.256754
vn -0.943586 -0.209102 0.256754
vn 0.000000 0.000000 1.000000
vn -0.000000 0.000000 1.000000
vn -0.000000 0.000000 1.000000
vn 0.000000 0.000000 1.000000
vn -0.002748 0.965066 0.261993
vn -0.005660 0.965036 0.262055
vn -0.006811 0.965023 0.262078
vn -0.002748 0.965066 0.261993
vn 0.002555 -0.836238 0.548361
vn -0.004183 -0.855319 0.518084
vn -0.007753 -0.864976 0.501753
vn 0.002555 -0.836238 0.548361
vn 0.661027 0.049794 0.748708
vn 0.661027 0.049794 0.748708
vn 0.661027 0.049794 0.748708
vn 0.661027 0.049794 0.748708
vn -0.776481 -0.029654 0.629442
vn -0.776482 -0.029654 0.629442
vn -0.776482 -0.029654 0.629442
vn -0.776481 -0.029654 0.629442
vn -0.000000 0.000000 1.000000
vn -0.000000 0.000000 1.000000
vn -0.000000 0.000000 1.000000
vn -0.000000 0.000000 1.000000
vn -0.006811 0.965023 0.262078
vn -0.005660 0.965036 0.262055
vn -0.017614 0.964830 0.262285
vn -0.017614 0.964830 0.262285
vn -0.007753 -0.864976 0.501753
vn -0.004183 -0.855319 0.518084
vn -0.026315 -0.910085 0.413585
vn -0.026315 -0.910085 0.413585
vn 0.000000 0.000000 1.000000
vn 0.000000 0.000000 1.000000
vn 0.000000 0.000000 1.000000
vn 0.000000 0.000000 1.000000
vn 0.002748 -0.965066 0.261993
vn 0.005660 -0.965036 0.262055
vn 0.006811 -0.965023 0.262079
vn 0.002748 -0.965066 0.261993
vn -0.002555 0.836238 0.548361
vn 0.004183 0.855319 0.518084
vn 0.007753 0.864976 0.501753
vn -0.002555 0.836238 0.548361
vn -0.661027 -0.049794 0.748708
vn -0.661027 -0.049794 0.748708
vn -0.661027 -0.049794 0.748708
vn -0.661027 -0.049794 0.748708
vn 0.776481 0.029654 0.629442
vn 0.776481 0.029654 0.629442
vn 0.776481 0.029654 0.629442
vn 0.776481 0.029654 0.629442
vn 0.000000 0.000000 1.000000
vn 0.000000 0.000000 1.000000
vn 0.000000 0.000000 1.000000
vn 0.000000 0.000000 1.000000
vn 0.006811 -0.965023 0.262079
vn 0.005660 -0.965036 0.262055
vn 0.017614 -0.964830 0.262285
vn 0.017614 -0.964830 0.262285
vn 0.007753 0.864976 0.501753
vn 0.004183 0.855319 0.518084
vn 0.026315 0.910085 0.413586
vn 0.026315 0.910085 0.413586
vn 0.000000 0.000000 -1.000000
vn 0.000000 0.000000 -1.000000
vn 0.000000 0.000000 -1.000000
vn 0.000000 0.000000 -1.000000
vn -0.000000 0.000000 -1.000000
vn -0.000000 0.000000 -1.000000
vn 0.000000 0.000000 -1.000000
vn -0.000000 0.000000 -1.000000
vn 0.000000 0.000000 -1.000000
vn -0.000000 0.000000 -1.000000
vn -0.000000 0.000000 -1.000000
vn 0.000000 0.000000 -1.000000
vn 0.000000 0.000000 -1.000000
vn 0.000000 0.000000 -1.000000
vn 0.000000 0.000000 -1.000000
vn 0.000000 0.000000 -1.000000
vn 0.000000 0.000000 -1.000000
vn 0.000000 0.000000 -1.000000
vn 0.000000 0.000000 -1.000000
vn 0.000000 0.000000 -1.000000
vn 0.000000 0.000000 -1.000000
vn 0.000000 0.000000 -1.000000
vn 0.000000 0.000000 -1.000000
vn 0.000000 0.000000 -1.000000
vn 0.000000 0.000000 -1.000000
vn 0.000000 0.000000 -1.000000
vn 0.000000 0.000000 -1.000000
vn 0.000000 0.000000 -1.000000
vn 0.000000 0.000000 -1.000000
vn 0.000000 0.000000 -1.000000
vn 0.000000 0.000000 -1.000000
vn 0.000000 0.000000 -1.000000
vn 0.000000 0.000000 -1.000000
vn 0.000000 0.000000 -1.000000
vn 0.000000 0.000000 -1.000000
vn -0.000000 0.000000 -1.000000
vn 0.000000 0.000000 -1.000000
vn -0.000000 0.000000 -1.000000
vn 0.000000 0.000000 -1.000000
vn 0.000000 0.000000 -1.000000
vn 0.000000 0.000000 -1.000000
vn -0.982450 0.186528 -0.000000
vn -0.954141 0.181153 -0.238323
vn -0.954141 0.181153 -0.238323
vn -0.982450 0.186528 -0.000000
vn 0.969719 -0.244222 0.000000
vn 0.948212 -0.238805 -0.209444
vn 0.948212 -0.238805 -0.209444
vn 0.969719 -0.244222 0.000000
vn 0.980584 0.196102 0.000000
vn 0.962351 0.192456 -0.191943
vn 0.962351 0.192456 -0.191943
vn 0.980584 0.196102 0.000000
vn -0.941328 -0.213421 -0.261443
vn -0.941328 -0.213421 -0.261443
vn -0.941328 -0.213421 -0.261443
vn -0.941328 -0.213421 -0.261443
vn -0.022597 -0.933644 -0.357488
vn -0.022597 -0.933644 -0.357488
vn -0.022597 -0.933644 -0.357488
vn -0.022597 -0.933644 -0.357488
vn 0.054555 0.953679 -0.295839
vn 0.054555 0.953679 -0.295839
vn 0.054555 0.953679 -0.295839
vn 0.054555 0.953679 -0.295839
vn 0.037471 0.939013 -0.341833
vn 0.037471 0.939013 -0.341833
vn 0.037471 0.939013 -0.341833
vn 0.037471 0.939013 -0.341833
vn -0.947985 0.159118 -0.275693
vn -0.947984 0.159118 -0.275693
vn -0.947985 0.159118 -0.275693
vn -0.947984 0.159118 -0.275693
vn 0.980432 -0.196858 0.000000
vn 0.955228 -0.191798 -0.225284
vn 0.955228 -0.191798 -0.225284
vn 0.980432 -0.196858 0.000000
vn 0.983830 0.179107 0.000000
vn 0.959215 0.174626 -0.222287
vn 0.959215 0.174626 -0.222287
vn 0.983830 0.179107 0.000000
vn -0.946763 -0.137897 -0.290902
vn -0.946763 -0.137897 -0.290902
vn -0.946763 -0.137897 -0.290902
vn -0.946763 -0.137897 -0.290902
vn 0.032149 -0.922933 -0.383615
vn 0.032149 -0.922933 -0.383615
vn 0.032149 -0.922933 -0.383615
vn 0.032149 -0.922933 -0.383615
vn -0.975529 0.219873 0.000000
vn -0.958692 0.216078 -0.184987
vn -0.958692 0.216078 -0.184986
vn -0.975529 0.219873 0.000000
vn 0.940937 -0.216566 -0.260264
vn 0.940937 -0.216566 -0.260264
vn 0.940937 -0.216566 -0.260264
vn 0.940937 -0.216566 -0.260264
vn 0.977493 0.210970 0.000000
vn 0.948793 0.204776 -0.240537
vn 0.948793 0.204776 -0.240537
vn 0.977493 0.210970 0.000000
vn -0.899558 -0.256785 -0.353349
vn -0.899558 -0.256785 -0.353349
vn -0.899559 -0.256785 -0.353349
vn -0.899559 -0.256785 -0.353349
vn -0.959663 0.281153 -0.000000
vn -0.931394 0.272871 -0.240926
vn -0.931394 0.272871 -0.240926
vn -0.959663 0.281153 0.000000
vn 0.936112 -0.208556 -0.283193
vn 0.936112 -0.208556 -0.283193
vn 0.936112 -0.208556 -0.283193
vn 0.936112 -0.208556 -0.283193
vn 0.956325 0.131670 -0.260971
vn 0.956325 0.131670 -0.260971
vn 0.956325 0.131670 -0.260971
vn 0.956325 0.131670 -0.260971
vn -0.076262 0.949326 -0.304899
vn -0.076262 0.949326 -0.304899
vn -0.076262 0.949326 -0.304899
vn -0.076262 0.949326 -0.304899
vn -0.976315 -0.216355 0.000000
vn -0.943586 -0.209102 -0.256754
vn -0.943586 -0.209102 -0.256754
vn -0.976315 -0.216355 0.000000
vn 0.000000 0.000000 -1.000000
vn 0.000000 0.000000 -1.000000
vn -0.000000 0.000000 -1.000000
vn -0.000000 0.000000 -1.000000
vn -0.002748 0.965066 -0.261993
vn -0.002748 0.965066 -0.261993
vn -0.006811 0.965023 -0.262078
vn -0.005660 0.965036 -0.262055
vn 0.002555 -0.836238 -0.548361
vn 0.002555 -0.836238 -0.548361
vn -0.007753 -0.864976 -0.501753
vn -0.004183 -0.855319 -0.518084
vn 0.661027 0.049794 -0.748708
vn 0.661027 0.049794 -0.748708
vn 0.661027 0.049794 -0.748708
vn 0.661027 0.049794 -0.748708
vn -0.776482 -0.029654 -0.629442
vn -0.776482 -0.029654 -0.629442
vn -0.776482 -0.029654 -0.629442
vn -0.776482 -0.029654 -0.629442
vn -0.000000 0.000000 -1.000000
vn -0.000000 0.000000 -1.000000
vn -0.000000 0.000000 -1.000000
vn -0.000000 0.000000 -1.000000
vn -0.006811 0.965023 -0.262078
vn -0.017614 0.964830 -0.262286
vn -0.017614 0.964830 -0.262286
vn -0.005660 0.965036 -0.262055
vn -0.007753 -0.864976 -0.501753
vn -0.026315 -0.910085 -0.413586
vn -0.026315 -0.910085 -0.413586
vn -0.004183 -0.855319 -0.518084
vn -0.000000 0.000000 -1.000000
vn -0.000000 0.000000 -1.000000
vn 0.000000 0.000000 -1.000000
vn 0.000000 0.000000 -1.000000
vn 0.002748 -0.965066 -0.261993
vn 0.002748 -0.965066 -0.261993
vn 0.006811 -0.965023 -0.262078
vn 0.005660 -0.965036 -0.262055
vn -0.002555 0.836238 -0.548361
vn -0.002555 0.836238 -0.548361
vn 0.007753 0.864976 -0.501753
vn 0.004183 0.855319 -0.518084
vn -0.661027 -0.049794 -0.748708
vn -0.661027 -0.049794 -0.748708
vn -0.661027 -0.049794 -0.748708
vn -0.661027 -0.049794 -0.748708
vn 0.776481 0.029654 -0.629442
vn 0.776481 0.029654 -0.629442
vn 0.776481 0.029654 -0.629442
vn 0.776481 0.029654 -0.629442
vn 0.000000 0.000000 -1.000000
vn 0.000000 0.000000 -1.000000
vn 0.000000 0.000000 -1.000000
vn 0.000000 0.000000 -1.000000
vn 0.006811 -0.965023 -0.262078
vn 0.017614 -0.964830 -0.262285
vn 0.017614 -0.964830 -0.262285
vn 0.005660 -0.965036 -0.262055
vn 0.007753 0.864976 -0.501753
vn 0.026315 0.910085 -0.413585
vn 0.026315 0.910085 -0.413585
vn 0.004183 0.855319 -0.518084
s off
f 22/1/1 23/2/2 24/3/3 25/4/4
f 27/5/5 26/6/6 28/7/7 29/8/8
f 30/9/9 26/6/10 27/5/11
f 22/1/12 31/10/13 23/2/14
f 33/11/15 32/12/16 34/13/17 35/14/18
f 37/15/19 36/16/20 38/17/21 39/18/22
f 40/19/23 36/16/24 37/15/25
f 35/14/26 34/13/27 36/16/28 40/19/29
f 39/18/30 38/17/31 31/10/32 22/1/33
f 25/4/34 24/3/35 26/6/36 30/9/37
f 29/8/38 28/7/39 41/20/40 42/21/41
f 5/25/42 18/24/43 24/3/44 23/2/45
f 19/23/46 11/22/47 22/1/48 25/4/49
f 4/29/50 20/28/51 28/7/52 26/6/53
f 21/27/54 9/26/55 27/5/56 29/8/57
f 9/26/58 10/30/59 30/9/60 27/5/61
f 6/31/62 5/25/63 23/2/64 31/10/65
f 2/32/66 8/35/67 32/12/68 33/11/69
f 8/35/70 14/34/71 34/13/72 32/12/73
f 15/33/74 2/32/75 33/11/76 35/14/77
f 7/39/78 16/38/79 38/17/80 36/16/81
f 17/37/82 12/36/83 37/15/84 39/18/85
f 12/36/86 13/40/87 40/19/88 37/15/89
f 14/34/90 7/39/91 36/16/92 34/13/93
f 13/40/94 15/33/95 35/14/96 40/19/97
f 16/38/98 6/31/99 31/10/100 38/17/101
f 11/22/102 17/37/103 39/18/104 22/1/105
f 18/24/106 4/29/107 26/6/108 24/3/109
f 10/30/110 19/23/111 25/4/112 30/9/113
f 20/28/114 3/42/115 41/20/116 28/7/117
f 3/42/118 1/41/119 42/21/120 41/20/121
f 1/41/122 21/27/123 29/8/124 42/21/125
f 43/43/126 51/44/127 52/45/128 45/46/129
f 45/46/130 52/45/131 53/47/132 47/48/133
f 49/49/134 54/50/135 51/44/136 43/43/137
f 44/51/138 50/52/139 48/53/140 46/54/141
f 49/49/142 43/43/143 45/46/144 47/48/145
f 52/45/146 51/44/147 44/51/148 46/54/149
f 53/47/150 52/45/151 46/54/152 48/53/153
f 51/44/154 54/50/155 50/52/156 44/51/157
f 55/55/158 63/56/159 64/57/160 57/58/161
f 57/58/162 64/57/163 65/59/164 59/60/165
f 61/61/166 66/62/167 63/56/168 55/55/169
f 56/63/170 62/64/171 60/65/172 58/66/173
f 61/61/174 55/55/175 57/58/176 59/60/177
f 64/57/178 63/56/179 56/63/180 58/66/181
f 65/59/182 64/57/183 58/66/184 60/65/185
f 63/56/186 66/62/187 62/64/188 56/63/189
f 67/67/190 70/70/191 69/69/192 68/68/193
f 72/71/194 74/74/195 73/73/196 71/72/197
f 75/75/198 72/71/199 71/72/200
f 67/67/201 68/68/202 76/76/203
f 78/77/204 80/80/205 79/79/206 77/78/207
f 82/81/208 84/84/209 83/83/210 81/82/211
f 85/85/212 82/81/213 81/82/214
f 80/80/215 85/85/216 81/82/217 79/79/218
f 84/84/219 67/67/220 76/76/221 83/83/222
f 70/70/223 75/75/224 71/72/225 69/69/226
f 74/74/227 87/87/228 86/86/229 73/73/230
f 5/88/231 68/68/232 69/69/233 18/89/234
f 19/90/235 70/70/236 67/67/237 11/91/238
f 4/92/239 71/72/240 73/73/241 20/93/242
f 21/94/243 74/74/244 72/71/245 9/95/246
f 9/95/247 72/71/248 75/75/249 10/96/250
f 6/97/251 76/76/252 68/68/253 5/88/254
f 2/98/255 78/77/256 77/78/257 8/99/258
f 8/99/259 77/78/260 79/79/261 14/100/262
f 15/101/263 80/80/264 78/77/265 2/98/266
f 7/102/267 81/82/268 83/83/269 16/103/270
f 17/104/271 84/84/272 82/81/273 12/105/274
f 12/105/275 82/81/276 85/85/277 13/106/278
f 14/100/279 79/79/280 81/82/281 7/102/282
f 13/106/283 85/85/284 80/80/285 15/101/286
f 16/103/287 83/83/288 76/76/289 6/97/290
f 11/91/291 67/67/292 84/84/293 17/104/294
f 18/89/295 69/69/296 71/72/297 4/92/298
f 10/96/299 75/75/300 70/70/301 19/90/302
f 20/93/303 73/73/304 86/86/305 3/107/306
f 3/107/307 86/86/308 87/87/309 1/108/310
f 1/108/311 87/87/312 74/74/313 21/94/314
f 88/109/315 90/112/316 93/111/317 92/110/318
f 90/112/319 47/114/320 53/113/321 93/111/322
f 49/115/323 88/109/324 92/110/325 54/116/326
f 89/117/327 91/120/328 48/119/329 50/118/330
f 49/115/331 47/114/332 90/112/333 88/109/334
f 93/111/335 91/120/336 89/117/337 92/110/338
f 53/113/339 48/119/340 91/120/341 93/111/342
f 92/110/343 89/117/344 50/118/345 54/116/346
f 94/121/347 96/124/348 99/123/349 98/122/350
f 96/124/351 59/126/352 65/125/353 99/123/354
f 61/127/355 94/121/356 98/122/357 66/128/358
f 95/129/359 97/132/360 60/131/361 62/130/362
f 61/127/363 59/126/364 96/124/365 94/121/366
f 99/123/367 97/132/368 95/129/369 98/122/370
f 65/125/371 60/131/372 97/132/373 99/123/374
f 98/122/375 95/129/376 62/130/377 66/128/378
