# This file uses centimeters as units for non-parametric coordinates.

v 20.000000 8.098224 -0.000000
v 20.000000 -11.576043 -0.000000
v -7.677521 -11.576043 0.000000
v -7.677521 8.098224 0.000000
v 3.393487 -11.576043 -0.000000
v 13.357395 -11.576043 -0.000000
v 13.357395 -17.723103 -0.000000
v 18.769382 7.058902 -2.000000
v 18.544163 -10.321786 -2.000000
v 12.683171 -10.552944 -2.000000
v 3.903861 -10.552944 -2.000000
v -5.904424 7.058904 -2.000000
v -5.645991 -10.321786 -2.000000
v 12.383146 -15.952601 -2.000000
v 18.769382 7.058902 2.000000
v 18.544163 -10.321786 2.000000
v 12.683171 -10.552944 2.000000
v 3.903861 -10.552944 2.000000
v -5.904424 7.058904 2.000000
v -5.645991 -10.321786 2.000000
v 12.383146 -15.952601 2.000000
v -20.000000 16.058064 -0.000000
v -20.000000 -7.489816 0.000000
v 13.099159 -7.489816 -0.000000
v 13.099159 16.058064 0.000000
v -0.140504 -7.489816 -0.000000
v -12.056202 -7.489816 0.000000
v -12.056202 -14.847153 -0.000000
v -18.528322 14.814115 4.000000
v -18.258984 -5.988611 4.000000
v -11.249907 -6.265282 4.000000
v -0.750852 -6.265282 4.000000
v 10.978738 14.814116 4.000000
v 10.669682 -5.988611 4.000000
v -10.891111 -12.728064 4.000000
v -18.528322 14.814115 -4.000000
v -18.258984 -5.988611 -4.000000
v -11.249907 -6.265282 -4.000000
v -0.750852 -6.265282 -4.000000
v 10.978738 14.814116 -4.000000
v 10.669682 -5.988611 -4.000000
v -10.891111 -12.728064 -4.000000
vt 0.484348 0.950879
vt 0.484323 0.951586
vt 0.484102 0.951575
vt 0.483455 0.950864
vt 0.483790 0.951547
vt 0.483472 0.951510
vt 0.484088 0.951780
vt 0.484439 0.950832
vt 0.484418 0.951615
vt 0.484172 0.951593
vt 0.483825 0.951561
vt 0.483469 0.951528
vt 0.483458 0.950821
vt 0.484168 0.951821
vt 0.484429 0.950870
vt 0.484192 0.951530
vt 0.484403 0.951539
vt 0.483574 0.950857
vt 0.483588 0.951471
vt 0.483892 0.951504
vt 0.484178 0.951725
vt 0.985034 0.983207
vt 0.985009 0.983914
vt 0.984788 0.983903
vt 0.984140 0.983192
vt 0.984475 0.983875
vt 0.984158 0.983837
vt 0.984774 0.984108
vt 0.985124 0.983160
vt 0.985103 0.983943
vt 0.984857 0.983920
vt 0.984511 0.983889
vt 0.984154 0.983856
vt 0.984144 0.983149
vt 0.984854 0.984149
vt 0.985114 0.983198
vt 0.984877 0.983858
vt 0.985088 0.983867
vt 0.984259 0.983184
vt 0.984273 0.983798
vt 0.984578 0.983832
vt 0.984863 0.984053
vn -0.000000 0.000000 -1.000000
vn 0.000000 0.000000 -1.000000
vn -0.000000 0.000000 -1.000000
vn -0.000000 0.000000 -1.000000
vn -0.000000 0.000000 -1.000000
vn 0.000000 0.000000 -1.000000
vn 0.000000 0.000000 -1.000000
vn -0.000000 0.000000 -1.000000
vn -0.000000 0.000000 -1.000000
vn -0.000000 0.000000 -1.000000
vn -0.000000 0.000000 -1.000000
vn -0.000000 0.000000 -1.000000
vn -0.000000 0.000000 -1.000000
vn 0.830014 -0.005045 -0.557720
vn 0.830014 -0.005045 -0.557720
vn 0.830014 -0.005045 -0.557720
vn 0.830014 -0.005045 -0.557720
vn 0.015996 -0.865227 -0.501125
vn 0.015996 -0.865227 -0.501126
vn 0.015996 -0.865227 -0.501126
vn 0.015996 -0.865227 -0.501125
vn -0.009711 -0.866317 -0.499400
vn -0.009711 -0.866317 -0.499400
vn -0.009711 -0.866317 -0.499399
vn -0.009711 -0.866317 -0.499400
vn -0.724436 -0.005052 -0.689324
vn -0.724436 -0.005052 -0.689324
vn -0.724436 -0.005052 -0.689324
vn -0.724436 -0.005052 -0.689324
vn -0.468787 -0.748778 -0.468582
vn -0.468787 -0.748778 -0.468582
vn -0.468787 -0.748779 -0.468582
vn -0.468787 -0.748778 -0.468582
vn 0.999663 -0.025975 0.000000
vn 0.999663 -0.025975 0.000000
vn 0.918319 -0.023861 -0.395121
vn 0.918319 -0.023861 -0.395121
vn 0.000000 0.887340 -0.461116
vn 0.000000 0.887340 -0.461116
vn 0.000000 0.887340 -0.461116
vn 0.000000 0.887340 -0.461116
vn -0.000000 0.000000 1.000000
vn -0.000000 0.000000 1.000000
vn 0.000000 0.000000 1.000000
vn -0.000000 0.000000 1.000000
vn 0.000000 0.000000 1.000000
vn -0.000000 0.000000 1.000000
vn 0.000000 0.000000 1.000000
vn -0.000000 0.000000 1.000000
vn -0.000000 0.000000 1.000000
vn -0.000000 0.000000 1.000000
vn -0.000000 0.000000 1.000000
vn -0.000000 0.000000 1.000000
vn -0.000000 0.000000 1.000000
vn 0.830014 -0.005045 0.557720
vn 0.830014 -0.005045 0.557720
vn 0.830014 -0.005045 0.557720
vn 0.830014 -0.005045 0.557720
vn 0.015996 -0.865227 0.501125
vn 0.015996 -0.865227 0.501125
vn 0.015996 -0.865227 0.501125
vn 0.015996 -0.865227 0.501125
vn -0.009711 -0.866317 0.499400
vn -0.009711 -0.866317 0.499400
vn -0.009711 -0.866317 0.499399
vn -0.009711 -0.866317 0.499400
vn -0.724436 -0.005052 0.689324
vn -0.724436 -0.005052 0.689324
vn -0.724436 -0.005052 0.689324
vn -0.724436 -0.005052 0.689324
vn -0.468787 -0.748778 0.468582
vn -0.468787 -0.748778 0.468582
vn -0.468787 -0.748779 0.468582
vn -0.468787 -0.748778 0.468582
vn 0.999663 -0.025975 0.000000
vn 0.918319 -0.023861 0.395121
vn 0.918319 -0.023861 0.395121
vn 0.999663 -0.025975 0.000000
vn 0.000000 0.887340 0.461116
vn 0.000000 0.887340 0.461116
vn 0.000000 0.887340 0.461116
vn 0.000000 0.887340 0.461116
vn 0.000000 0.000000 1.000000
vn 0.000000 0.000000 1.000000
vn 0.000000 0.000000 1.000000
vn 0.000000 0.000000 1.000000
vn 0.000000 0.000000 1.000000
vn 0.000000 0.000000 1.000000
vn 0.000000 0.000000 1.000000
vn 0.000000 0.000000 1.000000
vn 0.000000 0.000000 1.000000
vn 0.000000 0.000000 1.000000
vn 0.000000 0.000000 1.000000
vn 0.000000 0.000000 1.000000
vn 0.000000 0.000000 1.000000
vn -0.927891 -0.005635 0.372810
vn -0.927891 -0.005635 0.372810
vn -0.927891 -0.005635 0.372810
vn -0.927891 -0.005635 0.372810
vn -0.017480 -0.944709 0.327444
vn -0.017480 -0.944709 0.327445
vn -0.017480 -0.944709 0.327445
vn -0.017480 -0.944709 0.327445
vn 0.010605 -0.945275 0.326101
vn 0.010605 -0.945275 0.326102
vn 0.010605 -0.945275 0.326102
vn 0.010605 -0.945275 0.326102
vn 0.869149 -0.006057 0.494513
vn 0.869149 -0.006057 0.494513
vn 0.869149 -0.006057 0.494513
vn 0.869149 -0.006057 0.494513
vn 0.506096 -0.807694 0.302484
vn 0.506096 -0.807694 0.302484
vn 0.506096 -0.807694 0.302484
vn 0.506096 -0.807694 0.302484
vn -0.999663 -0.025953 0.000000
vn -0.999663 -0.025953 0.000000
vn -0.968156 -0.025135 0.249082
vn -0.968156 -0.025135 0.249082
vn -0.000000 0.954890 0.296959
vn -0.000000 0.954890 0.296959
vn -0.000000 0.954890 0.296959
vn -0.000000 0.954890 0.296959
vn 0.000000 0.000000 -1.000000
vn 0.000000 0.000000 -1.000000
vn 0.000000 0.000000 -1.000000
vn 0.000000 0.000000 -1.000000
vn 0.000000 0.000000 -1.000000
vn 0.000000 0.000000 -1.000000
vn 0.000000 0.000000 -1.000000
vn 0.000000 0.000000 -1.000000
vn 0.000000 0.000000 -1.000000
vn 0.000000 0.000000 -1.000000
vn 0.000000 0.000000 -1.000000
vn 0.000000 0.000000 -1.000000
vn 0.000000 0.000000 -1.000000
vn -0.927891 -0.005635 -0.372810
vn -0.927891 -0.005635 -0.372810
vn -0.927891 -0.005635 -0.372810
vn -0.927891 -0.005635 -0.372810
vn -0.017480 -0.944709 -0.327444
vn -0.017480 -0.944709 -0.327444
vn -0.017480 -0.944709 -0.327445
vn -0.017480 -0.944709 -0.327444
vn 0.010605 -0.945275 -0.326101
vn 0.010605 -0.945275 -0.326101
vn 0.010605 -0.945275 -0.326101
vn 0.010605 -0.945275 -0.326101
vn 0.869149 -0.006057 -0.494513
vn 0.869149 -0.006057 -0.494513
vn 0.869149 -0.006057 -0.494513
vn 0.869149 -0.006057 -0.494513
vn 0.506096 -0.807694 -0.302484
vn 0.506096 -0.807694 -0.302484
vn 0.506096 -0.807694 -0.302484
vn 0.506096 -0.807694 -0.302484
vn -0.999663 -0.025953 0.000000
vn -0.968156 -0.025135 -0.249081
vn -0.968156 -0.025135 -0.249082
vn -0.999663 -0.025953 0.000000
vn -0.000000 0.954890 -0.296959
vn -0.000000 0.954890 -0.296959
vn -0.000000 0.954890 -0.296959
vn -0.000000 0.954890 -0.296959
s off
f 8/1/1 9/2/2 10/3/3
f 12/4/4 11/5/5 13/6/6
f 14/7/7 11/5/8 10/3/9
f 8/1/10 10/3/11 11/5/12 12/4/13
f 1/8/14 2/9/15 9/2/16 8/1/17
f 2/9/18 6/10/19 10/3/20 9/2/21
f 5/11/22 3/12/23 13/6/24 11/5/25
f 3/12/26 4/13/27 12/4/28 13/6/29
f 7/14/30 5/11/31 11/5/32 14/7/33
f 6/10/34 7/14/35 14/7/36 10/3/37
f 4/13/38 1/8/39 8/1/40 12/4/41
f 15/15/42 17/16/43 16/17/44
f 19/18/45 20/19/46 18/20/47
f 21/21/48 17/16/49 18/20/50
f 15/15/51 19/18/52 18/20/53 17/16/54
f 1/8/55 15/15/56 16/17/57 2/9/58
f 2/9/59 16/17/60 17/16/61 6/10/62
f 5/11/63 18/20/64 20/19/65 3/12/66
f 3/12/67 20/19/68 19/18/69 4/13/70
f 7/14/71 21/21/72 18/20/73 5/11/74
f 6/10/75 17/16/76 21/21/77 7/14/78
f 4/13/79 19/18/80 15/15/81 1/8/82
f 29/22/83 30/23/84 31/24/85
f 33/25/86 32/26/87 34/27/88
f 35/28/89 32/26/90 31/24/91
f 29/22/92 31/24/93 32/26/94 33/25/95
f 22/29/96 23/30/97 30/23/98 29/22/99
f 23/30/100 27/31/101 31/24/102 30/23/103
f 26/32/104 24/33/105 34/27/106 32/26/107
f 24/33/108 25/34/109 33/25/110 34/27/111
f 28/35/112 26/32/113 32/26/114 35/28/115
f 27/31/116 28/35/117 35/28/118 31/24/119
f 25/34/120 22/29/121 29/22/122 33/25/123
f 36/36/124 38/37/125 37/38/126
f 40/39/127 41/40/128 39/41/129
f 42/42/130 38/37/131 39/41/132
f 36/36/133 40/39/134 39/41/135 38/37/136
f 22/29/137 36/36/138 37/38/139 23/30/140
f 23/30/141 37/38/142 38/37/143 27/31/144
f 26/32/145 39/41/146 41/40/147 24/33/148
f 24/33/149 41/40/150 40/39/151 25/34/152
f 28/35/153 42/42/154 39/41/155 26/32/156
f 27/31/157 38/37/158 42/42/159 28/35/160
f 25/34/161 40/39/162 36/36/163 22/29/164
