# This file uses centimeters as units for non-parametric coordinates.

v 0.893483 14.173749 2.000000
v 0.696601 16.675804 2.000000
v -1.077563 17.595745 2.000000
v -2.851727 16.675804 2.000000
v -3.048609 14.173749 2.000000
v -3.192698 17.301497 0.000000
v -1.077563 18.221436 0.000000
v 1.037572 17.301497 -0.000000
v 1.658816 14.595960 -0.000000
v -3.813942 14.595960 0.000000
v 0.893483 14.173749 -2.000000
v 0.696601 16.675804 -2.000000
v -1.077563 17.595745 -2.000000
v -2.851727 16.675804 -2.000000
v -3.048609 14.173749 -2.000000
v -4.559010 -13.185663 2.000000
v -3.962759 -15.370834 2.000000
v -1.077563 -16.505043 2.000000
v 1.807634 -15.370834 2.000000
v 2.403884 -13.185663 2.000000
v 2.257323 -15.909499 -0.000000
v -1.077563 -17.144474 0.000000
v -4.412447 -15.909499 -0.000000
v -5.391953 -13.563538 -0.000000
v 3.236826 -13.563538 -0.000000
v -4.559010 -13.185663 -2.000000
v -3.962759 -15.370834 -2.000000
v -1.077563 -16.505043 -2.000000
v 1.807634 -15.370834 -2.000000
v 2.403884 -13.185663 -2.000000
v 9.657136 6.200100 4.000000
v 6.780783 11.625093 4.000000
v 1.412028 13.962487 4.000000
v -3.953917 13.962486 4.000000
v -8.935907 11.625093 4.000000
v -11.772758 5.635405 4.000000
v -15.248194 -13.004358 4.000000
v 12.997153 -12.860809 4.000000
v -9.523015 12.285368 -0.000000
v -4.168813 14.864438 -0.000000
v 2.013688 14.864439 -0.000000
v 7.367890 12.285368 -0.000000
v 10.459141 6.441777 0.000000
v 13.687602 -13.716374 -0.000000
v -15.842727 -13.716374 -0.000000
v -12.614265 6.441777 -0.000000
v 10.459141 -8.419249 0.000000
v 9.828389 -9.364895 4.000000
v -11.501981 -8.984211 4.000000
v -12.614265 -8.419250 0.000000
v -15.248194 -9.131265 4.000000
v -15.842727 -8.419250 -0.000000
v 13.687602 -8.419249 -0.000000
v 13.093069 -9.131266 4.000000
v 9.657136 6.200100 -4.000000
v 6.780783 11.625093 -4.000000
v 1.412028 13.962487 -4.000000
v -3.953917 13.962486 -4.000000
v -8.935907 11.625093 -4.000000
v -11.812261 6.200100 -4.000000
v -15.248194 -13.004358 -4.000000
v 12.997153 -12.860809 -4.000000
v 9.828389 -9.364895 -4.000000
v -11.501981 -8.984211 -4.000000
v -15.248194 -9.131265 -4.000000
v 13.093069 -9.131266 -4.000000
v 15.622396 -18.545444 1.866219
v 17.750614 -16.417225 1.866219
v -18.545444 15.622396 1.866219
v -16.417225 17.750614 1.866219
v -18.545444 15.622396 -1.866219
v -16.417225 17.750614 -1.866219
v 15.622396 -18.545444 -1.866219
v 17.750614 -16.417225 -1.866219
v -19.904215 15.985499 0.000000
v 15.985499 -19.904215 0.000000
v 19.109385 -16.780329 0.000000
v -16.780329 19.109385 0.000000
vt 0.171133 0.984318
vt 0.171242 0.984159
vt 0.171501 0.984160
vt 0.171738 0.984435
vt 0.171786 0.984724
vt 0.171578 0.984151
vt 0.171814 0.984421
vt 0.171318 0.984152
vt 0.171207 0.984308
vt 0.171861 0.984705
vt 0.171133 0.984318
vt 0.171242 0.984159
vt 0.171501 0.984160
vt 0.171738 0.984435
vt 0.171786 0.984724
vt 0.171578 0.984151
vt 0.171814 0.984421
vt 0.171318 0.984152
vt 0.171207 0.984308
vt 0.171861 0.984705
vt 0.171133 0.984318
vt 0.171242 0.984159
vt 0.171501 0.984160
vt 0.171738 0.984435
vt 0.171786 0.984724
vt 0.171578 0.984151
vt 0.171814 0.984421
vt 0.171318 0.984152
vt 0.171207 0.984308
vt 0.171861 0.984705
vt 0.171133 0.984318
vt 0.171786 0.984724
vt 0.171738 0.984435
vt 0.171501 0.984160
vt 0.171242 0.984159
vt 0.171578 0.984151
vt 0.171814 0.984421
vt 0.171318 0.984152
vt 0.171207 0.984308
vt 0.171861 0.984705
vt 0.171738 0.984435
vt 0.171242 0.984159
vt 0.171409 0.984112
vt 0.171594 0.984208
vt 0.171671 0.984198
vt 0.171814 0.984421
vt 0.171485 0.984105
vt 0.171318 0.984152
vt 0.171207 0.984308
vt 0.171133 0.984318
vt 0.171142 0.984504
vt 0.171179 0.984478
vt 0.171107 0.984491
vt 0.171066 0.984516
vt 0.171758 0.984996
vt 0.171830 0.984972
vt 0.171737 0.984919
vt 0.171811 0.984896
vt 0.171861 0.984705
vt 0.171786 0.984724
vt 0.171107 0.984491
vt 0.171737 0.984919
vt 0.171179 0.984478
vt 0.171811 0.984896
vt 0.171242 0.984159
vt 0.171738 0.984435
vt 0.171594 0.984208
vt 0.171409 0.984112
vt 0.171671 0.984198
vt 0.171814 0.984421
vt 0.171485 0.984105
vt 0.171318 0.984152
vt 0.171207 0.984308
vt 0.171133 0.984318
vt 0.171142 0.984504
vt 0.171066 0.984516
vt 0.171107 0.984491
vt 0.171179 0.984478
vt 0.171830 0.984972
vt 0.171758 0.984996
vt 0.171737 0.984919
vt 0.171811 0.984896
vt 0.171786 0.984724
vt 0.171861 0.984705
vt 0.171107 0.984491
vt 0.171737 0.984919
vt 0.171179 0.984478
vt 0.171811 0.984896
vt 0.012072 0.951290
vt 0.011296 0.951338
vt 0.011295 0.950546
vt 0.012074 0.950500
vt 0.011187 0.950465
vt 0.011962 0.950419
vt 0.011850 0.950338
vt 0.011078 0.950384
vt 0.011079 0.951169
vt 0.011849 0.951122
vt 0.011961 0.951206
vt 0.011188 0.951254
vn 0.000000 0.000000 1.000000
vn 0.000000 0.000000 1.000000
vn 0.000000 0.000000 1.000000
vn -0.402210 0.850226 0.339621
vn -0.402210 0.850226 0.339621
vn -0.402210 0.850226 0.339621
vn -0.402210 0.850226 0.339621
vn 0.402210 0.850226 0.339621
vn 0.402210 0.850226 0.339621
vn 0.402210 0.850226 0.339621
vn 0.402210 0.850226 0.339621
vn 0.930958 0.146256 0.334555
vn 0.930958 0.146256 0.334555
vn 0.930958 0.146256 0.334555
vn 0.930958 0.146256 0.334555
vn -0.930958 0.146256 0.334555
vn -0.930958 0.146256 0.334555
vn -0.930958 0.146256 0.334555
vn -0.930958 0.146256 0.334555
vn 0.000000 0.000000 -1.000000
vn 0.000000 0.000000 -1.000000
vn 0.000000 0.000000 -1.000000
vn -0.402210 0.850226 -0.339621
vn -0.402210 0.850226 -0.339621
vn -0.402210 0.850226 -0.339621
vn -0.402210 0.850226 -0.339621
vn 0.402210 0.850226 -0.339621
vn 0.402210 0.850226 -0.339621
vn 0.402210 0.850226 -0.339621
vn 0.402210 0.850226 -0.339621
vn 0.930958 0.146256 -0.334555
vn 0.930958 0.146256 -0.334555
vn 0.930958 0.146256 -0.334555
vn 0.930958 0.146256 -0.334555
vn -0.930958 0.146256 -0.334555
vn -0.930958 0.146256 -0.334555
vn -0.930958 0.146256 -0.334555
vn -0.930958 0.146256 -0.334555
vn 0.000000 0.000000 1.000000
vn 0.000000 0.000000 1.000000
vn 0.000000 0.000000 1.000000
vn 0.000000 0.000000 1.000000
vn 0.335272 -0.880227 0.335848
vn 0.335272 -0.880227 0.335848
vn 0.335272 -0.880227 0.335848
vn 0.335272 -0.880227 0.335848
vn -0.335272 -0.880226 0.335849
vn -0.335272 -0.880226 0.335849
vn -0.335272 -0.880226 0.335849
vn -0.335272 -0.880226 0.335849
vn -0.868428 -0.302006 0.393224
vn -0.868428 -0.302006 0.393224
vn -0.868428 -0.302006 0.393224
vn -0.868428 -0.302006 0.393224
vn 0.868428 -0.302006 0.393224
vn 0.868428 -0.302006 0.393224
vn 0.868428 -0.302006 0.393224
vn 0.868428 -0.302006 0.393224
vn 0.000000 0.000000 -1.000000
vn 0.000000 0.000000 -1.000000
vn 0.000000 0.000000 -1.000000
vn 0.335272 -0.880226 -0.335849
vn 0.335272 -0.880226 -0.335849
vn 0.335272 -0.880226 -0.335849
vn 0.335272 -0.880226 -0.335849
vn -0.335272 -0.880226 -0.335849
vn -0.335272 -0.880226 -0.335849
vn -0.335272 -0.880226 -0.335849
vn -0.335272 -0.880226 -0.335849
vn -0.868428 -0.302006 -0.393224
vn -0.868428 -0.302006 -0.393224
vn -0.868428 -0.302006 -0.393224
vn -0.868428 -0.302006 -0.393224
vn 0.868428 -0.302006 -0.393224
vn 0.868428 -0.302006 -0.393224
vn 0.868428 -0.302006 -0.393224
vn 0.868428 -0.302006 -0.393224
vn 0.000000 0.000000 1.000000
vn 0.000000 0.000000 1.000000
vn 0.000000 0.000000 1.000000
vn 0.000000 0.000000 1.000000
vn -0.416895 0.876464 0.240851
vn -0.416895 0.876464 0.240851
vn -0.416895 0.876464 0.240851
vn -0.416895 0.876464 0.240851
vn -0.000000 0.968984 0.247124
vn -0.000000 0.968984 0.247124
vn -0.000000 0.968984 0.247124
vn -0.000000 0.968984 0.247124
vn 0.402288 0.877402 0.261400
vn 0.402288 0.877402 0.261400
vn 0.402288 0.877402 0.261400
vn 0.402288 0.877402 0.261400
vn 0.860628 0.455771 0.227139
vn 0.860628 0.455771 0.227139
vn 0.860628 0.455771 0.227139
vn 0.860628 0.455771 0.227139
vn 0.983805 -0.010454 0.178939
vn 0.983805 -0.010454 0.178939
vn 0.983805 -0.010454 0.178939
vn 0.983805 -0.010454 0.178939
vn 0.002426 -0.976301 0.216404
vn 0.002426 -0.976301 0.216404
vn 0.002426 -0.976301 0.216404
vn 0.002426 -0.976301 0.216404
vn -0.986162 0.000000 0.165783
vn -0.986162 0.000000 0.165783
vn -0.986162 0.000000 0.165783
vn -0.986162 0.000000 0.165783
vn -0.862417 0.432044 0.263773
vn -0.862417 0.432044 0.263773
vn -0.862417 0.432044 0.263773
vn -0.862417 0.432044 0.263773
vn 0.000000 0.000000 1.000000
vn 0.000000 0.000000 1.000000
vn 0.000000 0.000000 1.000000
vn 0.000000 0.000000 1.000000
vn 0.979899 0.005515 0.199416
vn 0.979899 0.005515 0.199416
vn 0.979899 0.005515 0.199416
vn 0.979899 0.005515 0.199416
vn -0.000000 0.000000 1.000000
vn -0.000000 0.000000 1.000000
vn -0.000000 0.000000 1.000000
vn -0.000000 0.000000 1.000000
vn -0.964304 -0.008857 0.264648
vn -0.964304 -0.008857 0.264648
vn -0.964304 -0.008857 0.264648
vn -0.964304 -0.008857 0.264648
vn -0.020725 0.982993 0.182469
vn -0.020725 0.982993 0.182469
vn -0.020725 0.982993 0.182469
vn -0.020725 0.982993 0.182469
vn 0.000000 0.000000 1.000000
vn 0.000000 0.000000 1.000000
vn 0.000000 0.000000 1.000000
vn -0.035058 0.974353 0.222275
vn -0.035058 0.974353 0.222275
vn -0.035058 0.974353 0.222275
vn -0.035058 0.974353 0.222275
vn 0.000000 0.000000 1.000000
vn 0.000000 0.000000 1.000000
vn 0.000000 0.000000 1.000000
vn 0.000000 0.000000 -1.000000
vn 0.000000 0.000000 -1.000000
vn 0.000000 0.000000 -1.000000
vn 0.000000 0.000000 -1.000000
vn -0.416895 0.876464 -0.240852
vn -0.416895 0.876464 -0.240852
vn -0.416895 0.876464 -0.240852
vn -0.416895 0.876464 -0.240852
vn -0.000000 0.968984 -0.247124
vn -0.000000 0.968984 -0.247124
vn -0.000000 0.968984 -0.247124
vn -0.000000 0.968984 -0.247124
vn 0.402288 0.877402 -0.261400
vn 0.402288 0.877402 -0.261400
vn 0.402288 0.877402 -0.261400
vn 0.402288 0.877402 -0.261400
vn 0.860628 0.455771 -0.227139
vn 0.860628 0.455771 -0.227139
vn 0.860628 0.455771 -0.227139
vn 0.860628 0.455771 -0.227139
vn 0.983805 -0.010454 -0.178939
vn 0.983805 -0.010454 -0.178939
vn 0.983805 -0.010454 -0.178939
vn 0.983805 -0.010454 -0.178939
vn 0.002426 -0.976301 -0.216403
vn 0.002426 -0.976301 -0.216403
vn 0.002426 -0.976301 -0.216403
vn 0.002426 -0.976301 -0.216403
vn -0.986162 0.000000 -0.165783
vn -0.986162 0.000000 -0.165783
vn -0.986162 0.000000 -0.165783
vn -0.986162 0.000000 -0.165783
vn -0.860628 0.455771 -0.227139
vn -0.860628 0.455771 -0.227139
vn -0.860628 0.455771 -0.227139
vn -0.860628 0.455771 -0.227139
vn 0.000000 0.000000 -1.000000
vn 0.000000 0.000000 -1.000000
vn 0.000000 0.000000 -1.000000
vn 0.000000 0.000000 -1.000000
vn 0.979899 0.005515 -0.199416
vn 0.979899 0.005515 -0.199416
vn 0.979899 0.005515 -0.199416
vn 0.979899 0.005515 -0.199416
vn 0.000000 0.000000 -1.000000
vn 0.000000 0.000000 -1.000000
vn 0.000000 0.000000 -1.000000
vn 0.000000 0.000000 -1.000000
vn -0.965512 -0.009971 -0.260170
vn -0.965512 -0.009971 -0.260170
vn -0.965512 -0.009971 -0.260170
vn -0.965512 -0.009971 -0.260170
vn -0.020725 0.982993 -0.182469
vn -0.020725 0.982993 -0.182469
vn -0.020725 0.982993 -0.182469
vn -0.020725 0.982993 -0.182469
vn 0.000000 0.000000 -1.000000
vn 0.000000 0.000000 -1.000000
vn 0.000000 0.000000 -1.000000
vn -0.035058 0.974353 -0.222275
vn -0.035058 0.974353 -0.222275
vn -0.035058 0.974353 -0.222275
vn -0.035058 0.974353 -0.222275
vn 0.000000 0.000000 -1.000000
vn 0.000000 0.000000 -1.000000
vn 0.000000 0.000000 -1.000000
vn 0.000000 0.000000 1.000000
vn 0.000000 0.000000 1.000000
vn 0.000000 0.000000 1.000000
vn 0.000000 0.000000 1.000000
vn 0.000000 0.000000 -1.000000
vn 0.000000 0.000000 -1.000000
vn 0.000000 0.000000 -1.000000
vn 0.000000 0.000000 -1.000000
vn 0.000000 0.000000 1.000000
vn 0.000000 0.000000 1.000000
vn 0.000000 0.000000 1.000000
vn 0.000000 0.000000 -1.000000
vn 0.000000 0.000000 -1.000000
vn 0.000000 0.000000 -1.000000
vn 0.000000 0.000000 -1.000000
vn 0.000000 0.000000 1.000000
vn 0.000000 0.000000 1.000000
vn 0.000000 0.000000 1.000000
vn 0.000000 0.000000 1.000000
vn 0.000000 0.000000 -1.000000
vn 0.000000 0.000000 -1.000000
vn 0.000000 0.000000 -1.000000
vn 0.000000 0.000000 -1.000000
vn 0.000000 0.000000 1.000000
vn 0.000000 0.000000 1.000000
vn 0.000000 0.000000 1.000000
vn 0.000000 0.000000 1.000000
vn -0.592215 0.592215 0.546410
vn -0.592215 0.592215 0.546410
vn -0.592215 0.592215 0.546410
vn -0.592215 0.592215 0.546410
vn 0.000000 0.000000 -1.000000
vn 0.000000 0.000000 -1.000000
vn 0.000000 0.000000 -1.000000
vn 0.000000 0.000000 -1.000000
vn 0.592215 -0.592215 0.546410
vn 0.592215 -0.592215 0.546410
vn 0.592215 -0.592215 0.546410
vn 0.592215 -0.592215 0.546410
vn 0.661593 0.661593 0.352974
vn 0.661593 0.661593 0.352974
vn 0.661593 0.661593 0.352974
vn 0.661593 0.661593 0.352974
vn -0.661593 -0.661593 0.352974
vn -0.661593 -0.661593 0.352974
vn -0.661593 -0.661593 0.352974
vn -0.661593 -0.661593 0.352974
vn -0.661593 -0.661593 -0.352974
vn -0.661593 -0.661593 -0.352974
vn -0.661593 -0.661593 -0.352974
vn -0.661593 -0.661593 -0.352974
vn 0.592215 -0.592215 -0.546410
vn 0.592215 -0.592215 -0.546410
vn 0.592215 -0.592215 -0.546410
vn 0.592215 -0.592215 -0.546410
vn 0.661593 0.661593 -0.352974
vn 0.661593 0.661593 -0.352974
vn 0.661593 0.661593 -0.352974
vn 0.661593 0.661593 -0.352974
vn -0.592215 0.592215 -0.546410
vn -0.592215 0.592215 -0.546410
vn -0.592215 0.592215 -0.546410
vn -0.592215 0.592215 -0.546410
s off
f 4/4/1 2/2/2 3/3/3
f 7/6/4 6/7/5 4/4/6 3/3/7
f 8/8/8 7/6/9 3/3/10 2/2/11
f 9/9/12 8/8/13 2/2/14 1/1/15
f 6/7/16 10/10/17 5/5/18 4/4/19
f 12/12/20 14/14/21 13/13/22
f 7/16/23 13/13/24 14/14/25 6/17/26
f 8/18/27 12/12/28 13/13/29 7/16/30
f 9/19/31 11/11/32 12/12/33 8/18/34
f 6/17/35 14/14/36 15/15/37 10/20/38
f 16/21/39 17/22/40 18/23/41 20/25/42
f 22/26/43 21/27/44 19/24/45 18/23/46
f 23/28/47 22/26/48 18/23/49 17/22/50
f 24/29/51 23/28/52 17/22/53 16/21/54
f 21/27/55 25/30/56 20/25/57 19/24/58
f 28/34/59 30/32/60 29/33/61
f 22/36/62 28/34/63 29/33/64 21/37/65
f 23/38/66 27/35/67 28/34/68 22/36/69
f 24/39/70 26/31/71 27/35/72 23/38/73
f 21/37/74 29/33/75 30/32/76 25/40/77
f 35/41/78 32/42/79 33/43/80 34/44/81
f 40/45/82 39/46/83 35/41/84 34/44/85
f 41/47/86 40/45/87 34/44/88 33/43/89
f 42/48/90 41/47/91 33/43/92 32/42/93
f 43/49/94 42/48/95 32/42/96 31/50/97
f 44/51/98 53/52/99 54/53/100 38/54/101
f 38/54/102 37/55/103 45/56/104 44/51/105
f 51/57/106 52/58/107 45/56/108 37/55/109
f 39/46/110 46/59/111 36/60/112 35/41/113
f 48/61/114 49/62/115 37/55/116 38/54/117
f 48/61/118 47/63/119 43/49/120 31/50/121
f 31/50/122 36/60/123 49/62/124 48/61/125
f 46/59/126 50/64/127 49/62/128 36/60/129
f 49/62/130 50/64/131 52/58/132 51/57/133
f 37/55/134 49/62/135 51/57/136
f 47/63/137 48/61/138 54/53/139 53/52/140
f 48/61/141 38/54/142 54/53/143
f 56/65/144 59/66/145 58/67/146 57/68/147
f 40/69/148 58/67/149 59/66/150 39/70/151
f 41/71/152 57/68/153 58/67/154 40/69/155
f 42/72/156 56/65/157 57/68/158 41/71/159
f 43/73/160 55/74/161 56/65/162 42/72/163
f 44/75/164 62/76/165 66/77/166 53/78/167
f 62/76/168 44/75/169 45/79/170 61/80/171
f 65/81/172 61/80/173 45/79/174 52/82/175
f 39/70/176 59/66/177 60/83/178 46/84/179
f 63/85/180 62/76/181 61/80/182 64/86/183
f 63/85/184 55/74/185 43/73/186 47/87/187
f 55/74/188 63/85/189 64/86/190 60/83/191
f 46/84/192 60/83/193 64/86/194 50/88/195
f 64/86/196 65/81/197 52/82/198 50/88/199
f 61/80/200 65/81/201 64/86/202
f 47/87/203 53/78/204 66/77/205 63/85/206
f 63/85/207 66/77/208 62/76/209
f 31/50/210 32/42/211 35/41/212 36/60/213
f 55/74/214 60/83/215 59/66/216 56/65/217
f 20/25/218 18/23/219 19/24/220
f 26/31/221 30/32/222 28/34/223 27/35/224
f 1/1/225 2/2/226 4/4/227 5/5/228
f 11/11/229 15/15/230 14/14/231 12/12/232
f 67/89/233 68/90/234 70/91/235 69/92/236
f 69/92/237 70/91/238 78/93/239 75/94/240
f 71/95/241 72/96/242 74/97/243 73/98/244
f 76/99/245 77/100/246 68/90/247 67/89/248
f 68/90/249 77/100/250 78/93/251 70/91/252
f 76/99/253 67/89/254 69/92/255 75/94/256
f 73/98/257 76/99/258 75/94/259 71/95/260
f 73/98/261 74/97/262 77/100/263 76/99/264
f 78/93/265 77/100/266 74/97/267 72/96/268
f 75/94/269 78/93/270 72/96/271 71/95/272
