# This file uses centimeters as units for non-parametric coordinates.

v -20.000000 20.000000 0.000000
v 16.000000 20.000000 0.000000
v 20.000000 16.000000 0.000000
v 20.000000 -18.458111 0.000000
v -20.000000 -18.458111 0.000000
v 18.836182 -20.000000 0.000000
v -18.324825 -20.000000 0.000000
v -12.798706 20.000000 0.000000
v 12.798706 20.000000 0.000000
v -12.798706 2.401515 2.000000
v -11.518829 5.200000 2.000000
v -12.798706 6.607408 2.000000
v -12.798706 18.741629 2.000000
v -18.725952 18.725952 2.000000
v -18.471840 -16.854452 2.000000
v 12.798706 2.401513 2.000000
v 12.798706 6.607408 2.000000
v 11.518860 5.200000 2.000000
v 12.798706 18.741629 2.000000
v 18.725952 -17.282286 2.000000
v 18.725952 13.755740 2.000000
v 14.879761 18.741629 2.000000
v 10.057983 8.380379 4.000000
v 10.981262 6.580334 4.000000
v 11.657959 7.564850 4.000000
v 4.471252 17.004620 4.000000
v -11.657928 17.863358 4.000000
v 10.057068 17.004620 4.000000
v 11.657959 17.863358 4.000000
v 4.421265 8.401690 4.000000
v -11.657959 7.564850 4.000000
v -10.981293 6.580334 4.000000
v -17.636292 -18.725952 2.000000
v -12.798706 -15.287666 2.000000
v 16.764883 -18.725952 2.000000
v 12.549702 -15.204778 2.000000
v 9.456909 16.349710 2.000000
v 9.457642 9.035289 2.000000
v 5.060913 16.349710 2.000000
v 5.021545 9.053662 2.000000
v -12.798706 2.401515 -2.000000
v -11.518829 5.200000 -2.000000
v -12.798706 6.607409 -2.000000
v -12.798706 18.741629 -2.000000
v -18.725952 18.725952 -2.000000
v -18.471840 -16.854452 -2.000000
v 12.798706 2.401513 -2.000000
v 12.798706 6.607409 -2.000000
v 11.518860 5.200000 -2.000000
v 12.798706 18.741629 -2.000000
v 18.725952 -17.282286 -2.000000
v 18.725952 13.755739 -2.000000
v 14.879761 18.741629 -2.000000
v 10.057983 8.380379 -4.000000
v 10.981262 6.580334 -4.000000
v 11.657959 7.564850 -4.000000
v 4.471252 17.004620 -4.000000
v -11.657928 17.863358 -4.000000
v 10.057068 17.004620 -4.000000
v 11.657959 17.863358 -4.000000
v 4.421265 8.401690 -4.000000
v -11.657959 7.564850 -4.000000
v -10.981293 6.580334 -4.000000
v -17.636292 -18.725952 -2.000000
v -12.798706 -15.287666 -2.000000
v 16.764883 -18.725952 -2.000000
v 12.549702 -15.204778 -2.000000
v 9.456909 16.349710 -2.000000
v 9.457642 9.035289 -2.000000
v 5.060913 16.349710 -2.000000
v 5.021545 9.053662 -2.000000
vt 0.479071 0.946937
vt 0.478911 0.946336
vt 0.478943 0.946302
vt 0.479101 0.946902
vt 0.478948 0.946013
vt 0.479113 0.946042
vt 0.478113 0.946824
vt 0.478341 0.946262
vt 0.478368 0.946295
vt 0.478138 0.946864
vt 0.478371 0.945973
vt 0.478198 0.946058
vt 0.478297 0.945983
vt 0.985124 0.979154
vt 0.985659 0.979117
vt 0.985674 0.979297
vt 0.985126 0.979311
vt 0.985203 0.979365
vt 0.985617 0.979349
vt 0.985197 0.979193
vt 0.985242 0.979325
vt 0.985312 0.979321
vt 0.985293 0.979177
vt 0.478945 0.946376
vt 0.478928 0.946637
vt 0.478314 0.946576
vt 0.478330 0.946334
vt 0.174284 0.985119
vt 0.173303 0.985095
vt 0.173317 0.984416
vt 0.174303 0.984440
vt 0.480597 0.947446
vt 0.480619 0.946449
vt 0.481160 0.946454
vt 0.481154 0.947449
vt 0.985203 0.979365
vt 0.985126 0.979311
vt 0.985293 0.979177
vt 0.985197 0.979193
vt 0.985124 0.979154
vt 0.985659 0.979117
vt 0.985242 0.979325
vt 0.985674 0.979297
vt 0.985617 0.979349
vt 0.985312 0.979321
vt 0.478948 0.946013
vt 0.479113 0.946042
vt 0.479101 0.946902
vt 0.478113 0.946824
vt 0.478198 0.946058
vt 0.478297 0.945983
vt 0.478371 0.945973
vt 0.479071 0.946937
vt 0.478138 0.946864
vt 0.985124 0.979154
vt 0.985659 0.979117
vt 0.478945 0.946376
vt 0.478911 0.946336
vt 0.478943 0.946302
vt 0.478948 0.946013
vt 0.479113 0.946042
vt 0.479101 0.946902
vt 0.478330 0.946334
vt 0.478341 0.946262
vt 0.478368 0.946295
vt 0.478371 0.945973
vt 0.478113 0.946824
vt 0.478198 0.946058
vt 0.478297 0.945983
vt 0.985242 0.979325
vt 0.985203 0.979365
vt 0.985126 0.979311
vt 0.985659 0.979117
vt 0.985293 0.979177
vt 0.985197 0.979193
vt 0.985124 0.979154
vt 0.985312 0.979321
vt 0.985674 0.979297
vt 0.985617 0.979349
vt 0.479071 0.946937
vt 0.478928 0.946637
vt 0.478138 0.946864
vt 0.478314 0.946576
vt 0.174284 0.985119
vt 0.173303 0.985095
vt 0.173317 0.984416
vt 0.174303 0.984440
vt 0.480597 0.947446
vt 0.480619 0.946449
vt 0.481160 0.946454
vt 0.481154 0.947449
vt 0.985203 0.979365
vt 0.985126 0.979311
vt 0.985293 0.979177
vt 0.985197 0.979193
vt 0.985124 0.979154
vt 0.985659 0.979117
vt 0.985242 0.979325
vt 0.985674 0.979297
vt 0.985617 0.979349
vt 0.985312 0.979321
vt 0.478948 0.946013
vt 0.479113 0.946042
vt 0.479101 0.946902
vt 0.478113 0.946824
vt 0.478198 0.946058
vt 0.478297 0.945983
vt 0.478371 0.945973
vt 0.479071 0.946937
vt 0.478138 0.946864
vt 0.985124 0.979154
vt 0.985659 0.979117
vn 0.000000 -0.000000 1.000000
vn 0.000000 -0.000000 1.000000
vn 0.000000 -0.000000 1.000000
vn 0.000000 0.000000 1.000000
vn 0.000000 0.000000 1.000000
vn 0.000000 0.000000 1.000000
vn -0.000000 -0.000000 1.000000
vn -0.000000 -0.000000 1.000000
vn -0.000000 -0.000000 1.000000
vn 0.000000 0.000000 1.000000
vn 0.000000 0.000000 1.000000
vn 0.000000 0.000000 1.000000
vn 0.000000 0.000000 1.000000
vn 0.000000 0.000000 1.000000
vn 0.000000 0.000000 1.000000
vn 0.000000 0.000000 1.000000
vn 0.000000 0.000000 1.000000
vn 0.000000 0.000000 1.000000
vn 0.000000 0.000000 1.000000
vn 0.000000 0.000000 1.000000
vn 0.000000 0.000000 1.000000
vn 0.000000 0.000000 1.000000
vn 0.000000 0.000000 1.000000
vn 0.000000 0.000000 1.000000
vn 0.000000 0.000000 1.000000
vn 0.000000 0.000000 1.000000
vn 0.000000 0.000000 1.000000
vn 0.000000 0.000000 1.000000
vn 0.000000 0.000000 1.000000
vn 0.000000 0.000000 1.000000
vn 0.000000 0.000000 1.000000
vn 0.000000 0.000000 1.000000
vn 0.000000 0.000000 1.000000
vn 0.000000 0.000000 1.000000
vn 0.000000 0.000000 1.000000
vn 0.000000 0.000000 1.000000
vn 0.000000 0.000000 1.000000
vn 0.000000 0.000000 1.000000
vn 0.000000 0.000000 1.000000
vn -0.000000 0.000000 1.000000
vn -0.000000 0.000000 1.000000
vn -0.000000 0.000000 1.000000
vn -0.000000 0.000000 1.000000
vn 0.000000 0.000000 1.000000
vn 0.000000 0.000000 1.000000
vn 0.000000 0.000000 1.000000
vn 0.000000 0.000000 1.000000
vn -0.000000 0.000000 1.000000
vn -0.000000 0.000000 1.000000
vn -0.000000 0.000000 1.000000
vn -0.000000 0.000000 1.000000
vn 0.000000 0.000000 1.000000
vn 0.000000 0.000000 1.000000
vn 0.000000 0.000000 1.000000
vn 0.000000 0.000000 1.000000
vn 0.000000 0.000000 1.000000
vn 0.000000 0.000000 1.000000
vn 0.000000 0.000000 1.000000
vn 0.000000 0.000000 1.000000
vn 0.635659 -0.519956 0.570599
vn 0.635659 -0.519956 0.570599
vn 0.635659 -0.519956 0.570599
vn 0.635659 -0.519956 0.570599
vn 0.000000 -0.950346 0.311195
vn 0.000000 -0.950346 0.311195
vn 0.000000 -0.950346 0.311195
vn 0.000000 -0.950346 0.311195
vn 0.000000 0.915607 0.402075
vn 0.000000 0.915607 0.402075
vn 0.000000 0.915607 0.402075
vn 0.000000 0.915607 0.402075
vn 0.868638 0.000000 0.495448
vn 0.868638 0.000000 0.495448
vn 0.868638 0.000000 0.495448
vn 0.868638 0.000000 0.495448
vn -0.957793 -0.000099 0.287458
vn -0.957793 -0.000099 0.287458
vn -0.957793 -0.000099 0.287458
vn -0.957793 -0.000099 0.287458
vn -0.635663 -0.519959 0.570593
vn -0.635663 -0.519959 0.570593
vn -0.635663 -0.519959 0.570593
vn -0.635663 -0.519959 0.570593
vn 0.000000 -0.823016 0.568018
vn 0.000000 -0.823016 0.568018
vn 0.000000 -0.823016 0.568018
vn 0.000000 -0.823016 0.568018
vn 0.003745 0.950546 0.310563
vn 0.003745 0.950546 0.310563
vn 0.003745 0.950546 0.310563
vn 0.003745 0.950546 0.310563
vn -0.868635 0.000001 0.495453
vn -0.868635 0.000001 0.495453
vn -0.868635 0.000001 0.495453
vn -0.868635 0.000001 0.495453
vn 0.958472 -0.005387 0.285135
vn 0.958472 -0.005387 0.285135
vn 0.958472 -0.005387 0.285135
vn 0.958472 -0.005387 0.285135
vn -0.001009 0.844761 0.535143
vn -0.001009 0.844761 0.535143
vn -0.001009 0.844761 0.535143
vn -0.001009 0.844761 0.535143
vn -0.818907 -0.002811 0.573919
vn -0.818907 -0.002811 0.573919
vn -0.818907 -0.002811 0.573919
vn -0.818907 -0.002811 0.573919
vn 0.843409 0.000000 0.537272
vn 0.843409 0.000000 0.537272
vn 0.843409 0.000000 0.537272
vn 0.843409 0.000000 0.537272
vn 0.525541 0.458886 0.716401
vn 0.525541 0.458886 0.716401
vn 0.525541 0.458886 0.716401
vn 0.525541 0.458886 0.716401
vn 0.000000 0.846402 0.532544
vn 0.000000 0.846402 0.532544
vn 0.000000 0.846402 0.532544
vn 0.000000 0.846402 0.532544
vn -0.606933 -0.446430 0.657520
vn -0.606933 -0.446430 0.657520
vn -0.606933 -0.446430 0.657520
vn -0.606933 -0.446430 0.657520
vn 0.000000 -0.843409 0.537272
vn 0.000000 -0.843409 0.537272
vn 0.000000 -0.843409 0.537272
vn 0.000000 -0.843409 0.537272
vn 0.483471 -0.506033 0.714274
vn 0.483471 -0.506033 0.714274
vn 0.483471 -0.506033 0.714274
vn 0.483471 -0.506033 0.714274
vn 0.000000 0.846402 0.532544
vn 0.000000 0.846402 0.532544
vn 0.000000 0.846402 0.532544
vn 0.000000 0.846402 0.532544
vn 0.000000 0.000000 -1.000000
vn 0.000000 0.000000 -1.000000
vn 0.000000 0.000000 -1.000000
vn 0.000000 0.000000 -1.000000
vn 0.000000 0.000000 -1.000000
vn 0.000000 0.000000 -1.000000
vn 0.000000 0.000000 -1.000000
vn 0.000000 0.000000 -1.000000
vn 0.000000 0.000000 -1.000000
vn 0.000000 0.000000 -1.000000
vn 0.000000 0.000000 -1.000000
vn 0.000000 0.000000 -1.000000
vn 0.000000 0.000000 -1.000000
vn 0.000000 0.000000 -1.000000
vn 0.000000 0.000000 -1.000000
vn 0.000000 0.000000 -1.000000
vn 0.000000 0.000000 -1.000000
vn 0.000000 0.000000 -1.000000
vn 0.000000 0.000000 -1.000000
vn 0.000000 0.000000 -1.000000
vn 0.000000 0.000000 -1.000000
vn 0.000000 0.000000 -1.000000
vn 0.000000 0.000000 -1.000000
vn 0.000000 0.000000 -1.000000
vn 0.000000 0.000000 -1.000000
vn 0.000000 0.000000 -1.000000
vn 0.000000 0.000000 -1.000000
vn 0.000000 0.000000 -1.000000
vn 0.000000 0.000000 -1.000000
vn 0.000000 0.000000 -1.000000
vn 0.000000 0.000000 -1.000000
vn 0.000000 0.000000 -1.000000
vn 0.000000 0.000000 -1.000000
vn 0.000000 0.000000 -1.000000
vn 0.000000 0.000000 -1.000000
vn 0.000000 0.000000 -1.000000
vn 0.000000 0.000000 -1.000000
vn 0.000000 0.000000 -1.000000
vn 0.000000 0.000000 -1.000000
vn -0.000000 0.000000 -1.000000
vn -0.000000 0.000000 -1.000000
vn -0.000000 0.000000 -1.000000
vn -0.000000 0.000000 -1.000000
vn 0.000000 0.000000 -1.000000
vn 0.000000 0.000000 -1.000000
vn 0.000000 0.000000 -1.000000
vn 0.000000 0.000000 -1.000000
vn 0.000000 0.000000 -1.000000
vn 0.000000 0.000000 -1.000000
vn 0.000000 0.000000 -1.000000
vn 0.000000 0.000000 -1.000000
vn 0.000000 0.000000 -1.000000
vn 0.000000 0.000000 -1.000000
vn 0.000000 0.000000 -1.000000
vn 0.000000 0.000000 -1.000000
vn 0.000000 0.000000 -1.000000
vn 0.000000 0.000000 -1.000000
vn 0.000000 0.000000 -1.000000
vn 0.000000 0.000000 -1.000000
vn 0.635660 -0.519956 -0.570599
vn 0.635660 -0.519956 -0.570599
vn 0.635660 -0.519956 -0.570599
vn 0.635660 -0.519956 -0.570599
vn 0.000000 -0.950346 -0.311195
vn 0.000000 -0.950346 -0.311195
vn 0.000000 -0.950346 -0.311195
vn 0.000000 -0.950346 -0.311195
vn 0.000000 0.915607 -0.402075
vn 0.000000 0.915607 -0.402075
vn 0.000000 0.915607 -0.402075
vn 0.000000 0.915607 -0.402075
vn 0.868638 0.000000 -0.495448
vn 0.868638 0.000000 -0.495448
vn 0.868638 0.000000 -0.495448
vn 0.868638 0.000000 -0.495448
vn -0.957793 -0.000099 -0.287458
vn -0.957793 -0.000099 -0.287458
vn -0.957793 -0.000099 -0.287458
vn -0.957793 -0.000099 -0.287458
vn -0.635663 -0.519959 -0.570592
vn -0.635663 -0.519959 -0.570592
vn -0.635663 -0.519959 -0.570592
vn -0.635663 -0.519959 -0.570592
vn 0.000000 -0.823016 -0.568018
vn 0.000000 -0.823016 -0.568018
vn 0.000000 -0.823016 -0.568018
vn 0.000000 -0.823016 -0.568018
vn 0.003745 0.950546 -0.310562
vn 0.003745 0.950546 -0.310562
vn 0.003745 0.950546 -0.310562
vn 0.003745 0.950546 -0.310562
vn -0.868635 0.000001 -0.495453
vn -0.868635 0.000001 -0.495453
vn -0.868635 0.000001 -0.495453
vn -0.868635 0.000001 -0.495453
vn 0.958472 -0.005387 -0.285135
vn 0.958472 -0.005387 -0.285135
vn 0.958472 -0.005387 -0.285135
vn 0.958472 -0.005387 -0.285135
vn -0.001009 0.844761 -0.535143
vn -0.001009 0.844761 -0.535143
vn -0.001009 0.844761 -0.535143
vn -0.001009 0.844761 -0.535143
vn -0.818907 -0.002811 -0.573919
vn -0.818907 -0.002811 -0.573919
vn -0.818907 -0.002811 -0.573919
vn -0.818907 -0.002811 -0.573919
vn 0.843409 0.000000 -0.537272
vn 0.843409 0.000000 -0.537272
vn 0.843409 0.000000 -0.537272
vn 0.843409 0.000000 -0.537272
vn 0.525541 0.458886 -0.716401
vn 0.525541 0.458886 -0.716401
vn 0.525541 0.458886 -0.716401
vn 0.525541 0.458886 -0.716401
vn 0.000000 0.846402 -0.532544
vn 0.000000 0.846402 -0.532544
vn 0.000000 0.846402 -0.532544
vn 0.000000 0.846402 -0.532544
vn -0.606933 -0.446430 -0.657520
vn -0.606933 -0.446430 -0.657520
vn -0.606933 -0.446430 -0.657520
vn -0.606933 -0.446430 -0.657520
vn 0.000000 -0.843409 -0.537272
vn 0.000000 -0.843409 -0.537272
vn 0.000000 -0.843409 -0.537272
vn 0.000000 -0.843409 -0.537272
vn 0.483471 -0.506033 -0.714274
vn 0.483471 -0.506033 -0.714274
vn 0.483471 -0.506033 -0.714274
vn 0.483471 -0.506033 -0.714274
vn 0.000000 0.846402 -0.532544
vn 0.000000 0.846402 -0.532544
vn 0.000000 0.846402 -0.532544
vn 0.000000 0.846402 -0.532544
vn 0.000000 -0.000000 1.000000
vn 0.000000 -0.000000 1.000000
vn 0.000000 -0.000000 1.000000
vn 0.000000 -0.000000 1.000000
vn 0.000000 -0.000000 1.000000
vn 0.000000 -0.000000 1.000000
vn 0.000000 -0.000000 1.000000
vn 0.000000 -0.000000 1.000000
vn 0.000000 0.000000 -1.000000
vn 0.000000 0.000000 -1.000000
vn 0.000000 0.000000 -1.000000
vn 0.000000 0.000000 -1.000000
vn 0.000000 0.000000 -1.000000
vn 0.000000 0.000000 -1.000000
vn 0.000000 0.000000 -1.000000
vn 0.000000 0.000000 -1.000000
s off
f 10/24/1 11/2/2 12/3/3
f 12/3/4 13/46/5 14/47/6
f 16/27/7 17/8/8 18/9/9
f 19/52/10 17/8/11 21/50/12 22/51/13
f 23/42/14 24/36/15 25/37/16
f 10/24/17 16/27/18 18/9/19 11/2/20
f 27/41/21 26/38/22 28/39/23 29/40/24
f 23/42/25 25/37/26 29/40/27 28/39/28
f 30/45/29 31/43/30 32/44/31
f 30/45/32 32/44/33 24/36/34 23/42/35
f 27/41/36 31/43/37 30/45/38 26/38/39
f 33/53/40 34/25/41 10/24/42 15/48/43
f 33/53/44 35/54/45 36/26/46 34/25/47
f 20/49/48 16/27/49 36/26/50 35/54/51
f 34/28/52 36/29/53 16/30/54 10/31/55
f 38/32/56 37/33/57 39/34/58 40/35/59
f 18/18/60 17/17/61 25/37/62 24/36/63
f 39/23/64 37/20/65 28/39/66 26/38/67
f 19/55/68 13/56/69 27/41/70 29/40/71
f 17/17/72 19/55/73 29/40/74 25/37/75
f 37/20/76 38/21/77 23/42/78 28/39/79
f 12/16/80 11/19/81 32/44/82 31/43/83
f 11/19/84 18/18/85 24/36/86 32/44/87
f 38/21/88 40/22/89 30/45/90 23/42/91
f 13/56/92 12/16/93 31/43/94 27/41/95
f 40/22/96 39/23/97 26/38/98 30/45/99
f 8/5/100 1/6/101 14/47/102 13/46/103
f 1/6/104 5/4/105 15/48/106 14/47/107
f 4/7/108 3/12/109 21/50/110 20/49/111
f 3/12/112 2/13/113 22/51/114 21/50/115
f 2/13/116 9/11/117 19/52/118 22/51/119
f 5/4/120 7/1/121 33/53/122 15/48/123
f 7/1/124 6/10/125 35/54/126 33/53/127
f 6/10/128 4/7/129 20/49/130 35/54/131
f 9/14/132 8/15/133 13/56/134 19/55/135
f 41/57/136 43/59/137 42/58/138
f 43/59/139 45/61/140 44/60/141
f 47/63/142 49/65/143 48/64/144
f 50/66/145 53/69/146 52/68/147 48/64/148
f 54/70/149 56/72/150 55/71/151
f 41/57/152 42/58/153 49/65/154 47/63/155
f 58/73/156 60/76/157 59/75/158 57/74/159
f 54/70/160 59/75/161 60/76/162 56/72/163
f 61/77/164 63/79/165 62/78/166
f 61/77/167 54/70/168 55/71/169 63/79/170
f 58/73/171 57/74/172 61/77/173 62/78/174
f 64/80/175 46/62/176 41/57/177 65/81/178
f 64/80/179 65/81/180 67/83/181 66/82/182
f 51/67/183 66/82/184 67/83/185 47/63/186
f 65/84/187 41/87/188 47/86/189 67/85/190
f 69/88/191 71/91/192 70/90/193 68/89/194
f 49/92/195 55/71/196 56/72/197 48/93/198
f 70/94/199 57/74/200 59/75/201 68/95/202
f 50/96/203 60/76/204 58/73/205 44/97/206
f 48/93/207 56/72/208 60/76/209 50/96/210
f 68/95/211 59/75/212 54/70/213 69/98/214
f 43/99/215 62/78/216 63/79/217 42/100/218
f 42/100/219 63/79/220 55/71/221 49/92/222
f 69/98/223 54/70/224 61/77/225 71/101/226
f 44/97/227 58/73/228 62/78/229 43/99/230
f 71/101/231 61/77/232 57/74/233 70/94/234
f 8/102/235 44/60/236 45/61/237 1/103/238
f 1/103/239 45/61/240 46/62/241 5/104/242
f 4/105/243 51/67/244 52/68/245 3/106/246
f 3/106/247 52/68/248 53/69/249 2/107/250
f 2/107/251 53/69/252 50/66/253 9/108/254
f 5/104/255 46/62/256 64/80/257 7/109/258
f 7/109/259 64/80/260 66/82/261 6/110/262
f 6/110/263 66/82/264 51/67/265 4/105/266
f 9/111/267 50/96/268 44/97/269 8/112/270
f 12/3/271 14/47/272 15/48/273 10/24/274
f 21/50/275 17/8/276 16/27/277 20/49/278
f 48/64/279 52/68/280 51/67/281 47/63/282
f 43/59/283 41/57/284 46/62/285 45/61/286
