# This file uses centimeters as units for non-parametric coordinates.

v -17.545073 -6.157193 0.000000
v 4.125133 14.814349 -0.000000
v 10.085677 11.482819 -0.000000
v 11.567958 7.721117 0.000016
v 15.148268 7.609377 0.000110
v 19.604485 0.779014 -0.000220
v 11.505793 -6.157193 -0.000000
v 17.341774 -4.293593 -0.000220
v 18.603645 4.494854 -0.000038
v -19.695202 -2.762642 0.000000
v -16.848207 -4.829312 2.000000
v -18.882248 1.825135 0.000000
v -15.370054 5.527876 0.000000
v -11.635253 5.880221 0.000000
v -10.456205 7.463193 0.000000
v -8.019286 8.410643 0.000000
v -5.490018 7.664862 0.000000
v -2.821711 11.988710 0.000000
v -11.230541 5.160648 2.000000
v -9.968765 6.822934 2.000000
v -15.012482 4.793171 2.000000
v -18.141405 1.489592 2.000000
v -18.200932 -1.745056 2.000000
v 11.388834 -4.816364 2.000000
v 16.229891 -3.336516 2.000000
v 18.101963 0.897082 2.000000
v 17.280792 3.999869 2.000000
v 14.518442 6.584168 2.000000
v 10.620710 6.571946 2.000000
v 9.033541 10.710560 2.000000
v 3.977953 13.500782 2.000000
v -2.313875 11.351206 2.000000
v -5.185149 6.868422 2.000000
v -7.985149 7.598835 2.000000
v -16.848207 -4.829312 -2.000000
v -11.230541 5.160648 -2.000000
v -9.968765 6.822934 -2.000000
v -15.012482 4.793171 -2.000000
v -18.141405 1.489592 -2.000000
v -18.200932 -1.745056 -2.000000
v 11.388834 -4.816364 -2.000000
v 16.229891 -3.336516 -2.000000
v 18.101963 0.897082 -2.000000
v 17.280792 3.999869 -2.000000
v 14.518442 6.584168 -2.000000
v 10.620710 6.571946 -2.000000
v 9.033541 10.710560 -2.000000
v 3.977953 13.500782 -2.000000
v -2.313875 11.351206 -2.000000
v -5.185149 6.868422 -2.000000
v -7.985149 7.598835 -2.000000
v -7.489773 -8.371025 0.000000
v 0.000000 2.190838 0.000000
v 7.489774 -8.371024 0.000000
v 2.621420 -8.371025 0.000000
v -2.621420 -8.371025 0.000000
v 0.000000 0.846219 4.000000
v -2.213548 -7.696473 4.000000
v -5.991364 -7.674191 4.000000
v 6.170766 -7.696473 4.000000
v 2.213549 -7.520849 4.000000
v 0.000000 0.846219 -4.000000
v -2.213548 -7.696473 -4.000000
v -5.991364 -7.674191 -4.000000
v 6.170766 -7.696473 -4.000000
v 2.213549 -7.520849 -4.000000
v -2.621422 -16.537788 0.000000
v 2.621422 -16.537790 0.000000
v 2.209669 -15.511172 4.000000
v -2.209670 -15.774962 4.000000
v 2.209669 -15.511172 -4.000000
v -2.209670 -15.774962 -4.000000
v 1.502970 -1.930166 4.000000
v 3.911032 -3.324388 0.000000
v 1.527498 -1.964124 -4.000000
vt 0.984396 0.981255
vt 0.984309 0.981344
vt 0.984433 0.981280
vt 0.984386 0.981169
vt 0.984302 0.981082
vt 0.983601 0.981337
vt 0.984201 0.981072
vt 0.984168 0.981029
vt 0.984115 0.981009
vt 0.984041 0.981028
vt 0.983964 0.980911
vt 0.983799 0.980856
vt 0.983665 0.980929
vt 0.983623 0.981037
vt 0.983473 0.981298
vt 0.983424 0.981186
vt 0.983447 0.981105
vt 0.983520 0.981037
vt 0.983611 0.981379
vt 0.983463 0.981332
vt 0.983407 0.981203
vt 0.983433 0.981109
vt 0.983521 0.981031
vt 0.983612 0.981028
vt 0.983650 0.980933
vt 0.983800 0.980850
vt 0.984170 0.981033
vt 0.984201 0.981072
vt 0.984296 0.981081
vt 0.984387 0.981175
vt 0.983976 0.980920
vt 0.984044 0.981028
vt 0.984108 0.981009
vt 0.983464 0.981213
vt 0.984280 0.981347
vt 0.983508 0.981316
vt 0.983627 0.981352
vt 0.983484 0.981137
vt 0.983552 0.981075
vt 0.983647 0.981075
vt 0.983686 0.980975
vt 0.983809 0.980908
vt 0.984360 0.981276
vt 0.984351 0.981197
vt 0.984273 0.981116
vt 0.984180 0.981108
vt 0.984149 0.981068
vt 0.984101 0.981049
vt 0.984032 0.981067
vt 0.983962 0.980959
vt 0.984322 0.981382
vt 0.517012 0.951538
vt 0.517920 0.951789
vt 0.517673 0.951664
vt 0.517920 0.951789
vt 0.517919 0.952039
vt 0.517919 0.952039
vt 0.516932 0.951537
vt 0.517922 0.951039
vt 0.517922 0.951039
vt 0.517922 0.951289
vt 0.517922 0.951289
vt 0.517449 0.951277
vt 0.517494 0.951274
vt 0.517919 0.952039
vt 0.517919 0.952039
vt 0.517920 0.951789
vt 0.517922 0.951039
vt 0.517922 0.951289
vt 0.517922 0.951039
vt 0.517497 0.951272
vt 0.517449 0.951277
vt 0.517012 0.951538
vt 0.517673 0.951664
vt 0.516932 0.951537
vt 0.517667 0.951417
vt 0.517667 0.951417
vt 0.517632 0.951643
vt 0.517632 0.951435
vn 0.000000 0.000000 1.000000
vn 0.000000 0.000000 1.000000
vn 0.000000 0.000000 1.000000
vn 0.000000 0.000000 1.000000
vn 0.000000 0.000000 1.000000
vn 0.000000 0.000000 1.000000
vn 0.000000 0.000000 1.000000
vn 0.000000 0.000000 1.000000
vn 0.000000 0.000000 1.000000
vn 0.000000 0.000000 1.000000
vn -0.000000 0.000000 1.000000
vn -0.000000 0.000000 1.000000
vn -0.000000 0.000000 1.000000
vn -0.000000 0.000000 1.000000
vn -0.000000 0.000000 1.000000
vn -0.000000 0.000000 1.000000
vn -0.000000 0.000000 1.000000
vn 0.000000 0.000000 1.000000
vn 0.000000 0.000000 1.000000
vn 0.000000 0.000000 1.000000
vn 0.000000 0.000000 1.000000
vn 0.000000 0.000000 1.000000
vn 0.000000 0.000000 1.000000
vn 0.000000 0.000000 1.000000
vn 0.000000 0.000000 1.000000
vn 0.000000 0.000000 1.000000
vn 0.000000 0.000000 1.000000
vn 0.000000 0.000000 1.000000
vn 0.000000 0.000000 1.000000
vn 0.000000 0.000000 1.000000
vn 0.000000 0.000000 1.000000
vn 0.000000 0.000000 1.000000
vn 0.000000 0.000000 1.000000
vn 0.251710 -0.803781 0.539052
vn 0.251710 -0.803781 0.539052
vn 0.251710 -0.803781 0.539052
vn 0.251710 -0.803781 0.539052
vn 0.746427 -0.331640 0.576942
vn 0.746427 -0.331640 0.576942
vn 0.746427 -0.331640 0.576942
vn 0.746427 -0.331640 0.576942
vn 0.788982 0.210809 0.577120
vn 0.788982 0.210809 0.577120
vn 0.788982 0.210809 0.577120
vn 0.788982 0.210809 0.577120
vn 0.576826 0.629336 0.520776
vn 0.576826 0.629336 0.520776
vn 0.576826 0.629336 0.520776
vn 0.576826 0.629336 0.520776
vn 0.011659 0.876579 0.481116
vn 0.011659 0.876579 0.481116
vn 0.011659 0.876579 0.481116
vn 0.011659 0.876579 0.481116
vn 0.785140 0.305046 0.538982
vn 0.785140 0.305046 0.538982
vn 0.785140 0.305046 0.538982
vn 0.785140 0.305046 0.538982
vn 0.416257 0.749057 0.515406
vn 0.416257 0.749057 0.515406
vn 0.416257 0.749057 0.515406
vn 0.416257 0.749057 0.515406
vn -0.316113 0.841152 0.438789
vn -0.316113 0.841152 0.438789
vn -0.316113 0.841152 0.438789
vn -0.316113 0.841152 0.438789
vn -0.746421 0.561399 0.357332
vn -0.746421 0.561399 0.357332
vn -0.746421 0.561399 0.357332
vn -0.746421 0.561399 0.357332
vn -0.089107 0.930502 0.355283
vn -0.089107 0.930502 0.355283
vn -0.089107 0.930502 0.355283
vn -0.089107 0.930502 0.355283
vn -0.677677 0.642353 0.357962
vn -0.677677 0.642353 0.357962
vn -0.677677 0.642353 0.357962
vn -0.677677 0.642353 0.357962
vn -0.875785 0.097682 0.472714
vn -0.875785 0.097682 0.472714
vn -0.875785 0.097682 0.472714
vn -0.875785 0.097682 0.472714
vn -0.700103 -0.378520 0.605457
vn -0.700103 -0.378520 0.605457
vn -0.700103 -0.378520 0.605457
vn -0.700103 -0.378520 0.605457
vn -0.795700 0.500515 0.341095
vn -0.795700 0.500515 0.341095
vn -0.795700 0.500515 0.341095
vn -0.795700 0.500515 0.341095
vn 0.250776 0.905337 0.342748
vn 0.250776 0.905337 0.342748
vn 0.250776 0.905337 0.342748
vn 0.250776 0.905337 0.342748
vn -0.338904 0.869317 0.359767
vn -0.338904 0.869317 0.359767
vn -0.338904 0.869317 0.359767
vn -0.338904 0.869317 0.359767
vn -0.000000 0.000000 -1.000000
vn -0.000000 0.000000 -1.000000
vn -0.000000 0.000000 -1.000000
vn -0.000000 0.000000 -1.000000
vn 0.000000 0.000000 -1.000000
vn 0.000000 0.000000 -1.000000
vn 0.000000 0.000000 -1.000000
vn 0.000000 0.000000 -1.000000
vn 0.000000 0.000000 -1.000000
vn 0.000000 0.000000 -1.000000
vn 0.000000 0.000000 -1.000000
vn -0.000000 0.000000 -1.000000
vn -0.000000 0.000000 -1.000000
vn -0.000000 0.000000 -1.000000
vn -0.000000 0.000000 -1.000000
vn 0.000000 0.000000 -1.000000
vn 0.000000 0.000000 -1.000000
vn 0.000000 0.000000 -1.000000
vn 0.000000 0.000000 -1.000000
vn 0.000000 0.000000 -1.000000
vn 0.000000 0.000000 -1.000000
vn 0.000000 0.000000 -1.000000
vn 0.000000 0.000000 -1.000000
vn 0.000000 0.000000 -1.000000
vn 0.000000 0.000000 -1.000000
vn 0.000000 0.000000 -1.000000
vn -0.000000 0.000000 -1.000000
vn -0.000000 0.000000 -1.000000
vn -0.000000 0.000000 -1.000000
vn 0.000000 0.000000 -1.000000
vn 0.000000 0.000000 -1.000000
vn 0.000000 0.000000 -1.000000
vn 0.000000 0.000000 -1.000000
vn 0.000000 0.000000 -1.000000
vn 0.000000 0.000000 -1.000000
vn -0.700103 -0.378520 -0.605457
vn -0.700103 -0.378520 -0.605457
vn -0.700103 -0.378520 -0.605457
vn -0.700103 -0.378520 -0.605457
vn 0.000188 -0.831867 -0.554975
vn 0.000188 -0.831867 -0.554975
vn 0.000188 -0.831867 -0.554975
vn 0.000188 -0.831867 -0.554975
vn -0.746421 0.561399 -0.357332
vn -0.746421 0.561399 -0.357332
vn -0.746421 0.561399 -0.357332
vn -0.746421 0.561399 -0.357332
vn -0.089107 0.930502 -0.355283
vn -0.089107 0.930502 -0.355283
vn -0.089107 0.930502 -0.355283
vn -0.089107 0.930502 -0.355283
vn -0.677677 0.642353 -0.357962
vn -0.677677 0.642353 -0.357962
vn -0.677677 0.642353 -0.357962
vn -0.677677 0.642353 -0.357962
vn -0.875785 0.097682 -0.472714
vn -0.875785 0.097682 -0.472714
vn -0.875785 0.097682 -0.472714
vn -0.875785 0.097682 -0.472714
vn 0.251682 -0.803763 -0.539093
vn 0.251682 -0.803763 -0.539093
vn 0.251682 -0.803763 -0.539093
vn 0.251682 -0.803763 -0.539093
vn 0.746372 -0.331616 -0.577027
vn 0.746372 -0.331616 -0.577027
vn 0.746372 -0.331616 -0.577027
vn 0.746372 -0.331616 -0.577027
vn 0.788942 0.210829 -0.577167
vn 0.788942 0.210829 -0.577167
vn 0.788942 0.210829 -0.577167
vn 0.788942 0.210829 -0.577167
vn 0.576819 0.629355 -0.520761
vn 0.576819 0.629355 -0.520761
vn 0.576819 0.629355 -0.520761
vn 0.576819 0.629355 -0.520761
vn 0.011672 0.876590 -0.481096
vn 0.011672 0.876590 -0.481096
vn 0.011672 0.876590 -0.481096
vn 0.011672 0.876590 -0.481096
vn 0.785143 0.305045 -0.538979
vn 0.785143 0.305045 -0.538979
vn 0.785143 0.305045 -0.538979
vn 0.785143 0.305045 -0.538979
vn 0.416257 0.749057 -0.515406
vn 0.416257 0.749057 -0.515406
vn 0.416257 0.749057 -0.515406
vn 0.416257 0.749057 -0.515406
vn -0.316113 0.841152 -0.438789
vn -0.316113 0.841152 -0.438789
vn -0.316113 0.841152 -0.438789
vn -0.316113 0.841152 -0.438789
vn -0.795700 0.500515 -0.341095
vn -0.795700 0.500515 -0.341095
vn -0.795700 0.500515 -0.341095
vn -0.795700 0.500515 -0.341095
vn 0.250776 0.905337 -0.342748
vn 0.250776 0.905337 -0.342748
vn 0.250776 0.905337 -0.342748
vn 0.250776 0.905337 -0.342748
vn -0.338904 0.869317 -0.359767
vn -0.338904 0.869317 -0.359767
vn -0.338904 0.869317 -0.359767
vn -0.338904 0.869317 -0.359767
vn 0.000188 -0.831867 0.554975
vn 0.000188 -0.831867 0.554975
vn 0.000188 -0.831867 0.554975
vn 0.000188 -0.831867 0.554975
vn 0.000000 0.000000 1.000000
vn 0.000000 0.000000 1.000000
vn 0.000000 0.000000 1.000000
vn -0.002540 -0.985519 0.169546
vn -0.002540 -0.985519 0.169546
vn -0.002540 -0.985519 0.169546
vn -0.002540 -0.985519 0.169546
vn -0.800926 0.565834 0.195832
vn -0.800926 0.565834 0.195832
vn -0.800926 0.565834 0.195832
vn -0.800926 0.565834 0.195832
vn -0.019559 -0.982898 0.183110
vn -0.019559 -0.982898 0.183110
vn -0.019559 -0.982898 0.183110
vn -0.019559 -0.982898 0.183110
vn 0.777599 0.593039 0.208913
vn 0.777599 0.593039 0.208913
vn 0.777599 0.593039 0.208913
vn 0.777599 0.593039 0.208913
vn -0.002540 -0.985519 -0.169546
vn -0.002540 -0.985519 -0.169546
vn -0.002540 -0.985519 -0.169546
vn -0.002540 -0.985519 -0.169546
vn -0.019559 -0.982898 -0.183110
vn -0.019559 -0.982898 -0.183110
vn -0.019559 -0.982898 -0.183110
vn -0.019559 -0.982898 -0.183110
vn 0.777536 0.593090 -0.209004
vn 0.777536 0.593090 -0.209004
vn 0.777536 0.593090 -0.209004
vn 0.777536 0.593090 -0.209004
vn 0.000000 0.000000 -1.000000
vn 0.000000 0.000000 -1.000000
vn 0.000000 0.000000 -1.000000
vn -0.800926 0.565834 -0.195832
vn -0.800926 0.565834 -0.195832
vn -0.800926 0.565834 -0.195832
vn -0.800926 0.565834 -0.195832
vn 0.000000 0.000000 1.000000
vn 0.000000 0.000000 1.000000
vn 0.000000 0.000000 1.000000
vn 0.000000 0.000000 1.000000
vn 0.000000 0.000000 1.000000
vn 0.000000 0.000000 1.000000
vn 0.000000 0.000000 -1.000000
vn 0.000000 0.000000 -1.000000
vn 0.000000 0.000000 -1.000000
vn 0.000000 -0.000000 -1.000000
vn 0.000000 -0.000000 -1.000000
vn 0.000000 -0.000000 -1.000000
vn 0.000000 0.000000 1.000000
vn 0.000000 0.000000 1.000000
vn 0.000000 0.000000 1.000000
vn 0.000000 0.000000 -1.000000
vn 0.000000 0.000000 -1.000000
vn 0.000000 0.000000 -1.000000
vn 0.026634 -0.975539 -0.218209
vn 0.026634 -0.975539 -0.218209
vn 0.026634 -0.975539 -0.218209
vn 0.026634 -0.975539 -0.218209
vn 0.026634 -0.975539 0.218209
vn 0.026634 -0.975539 0.218209
vn 0.026634 -0.975539 0.218209
vn 0.026634 -0.975539 0.218209
vn -0.994785 -0.000440 0.101998
vn -0.994785 -0.000440 0.101998
vn -0.994785 -0.000440 0.101998
vn -0.994785 -0.000440 0.101998
vn 0.994782 -0.000444 0.102023
vn 0.994782 -0.000444 0.102023
vn 0.994782 -0.000444 0.102023
vn 0.994782 -0.000444 0.102023
vn -0.994785 -0.000440 -0.101997
vn -0.994785 -0.000440 -0.101997
vn -0.994785 -0.000440 -0.101997
vn -0.994785 -0.000440 -0.101997
vn 0.994782 -0.000444 -0.102023
vn 0.994782 -0.000444 -0.102023
vn 0.994782 -0.000444 -0.102023
vn 0.994782 -0.000444 -0.102023
vn 0.000000 0.000000 1.000000
vn 0.000000 0.000000 1.000000
vn 0.000000 0.000000 1.000000
vn 0.000000 0.000000 -1.000000
vn 0.000000 0.000000 -1.000000
vn 0.000000 0.000000 -1.000000
vn 0.000000 -0.000000 1.000000
vn 0.000000 -0.000000 1.000000
vn 0.000000 -0.000000 1.000000
vn 0.812571 0.530568 0.241300
vn 0.812571 0.530568 0.241300
vn 0.812571 0.530568 0.241300
vn 0.812571 0.530568 0.241300
vn 0.812519 0.530764 -0.241045
vn 0.812519 0.530764 -0.241045
vn 0.812519 0.530764 -0.241045
vn 0.812519 0.530764 -0.241045
vn 0.000000 0.000000 -1.000000
vn 0.000000 0.000000 -1.000000
vn 0.000000 0.000000 -1.000000
s off
f 23/1/1 11/2/2 22/4/3
f 21/5/4 22/4/5 11/2/6 24/6/7
f 21/5/8 24/6/9 19/7/10
f 20/8/11 19/7/12 24/6/13 34/9/14
f 34/9/15 24/6/16 33/10/17
f 32/11/18 33/10/19 24/6/20 31/12/21
f 30/13/22 31/12/23 24/6/24 29/14/25
f 29/14/26 24/6/27 25/15/28 26/16/29
f 29/14/30 26/16/31 27/17/32 28/18/33
f 7/19/34 8/20/35 25/15/36 24/6/37
f 8/20/38 6/21/39 26/16/40 25/15/41
f 6/21/42 9/22/43 27/17/44 26/16/45
f 9/22/46 5/23/47 28/18/48 27/17/49
f 5/23/50 4/24/51 29/14/52 28/18/53
f 4/24/54 3/25/55 30/13/56 29/14/57
f 3/25/58 2/26/59 31/12/60 30/13/61
f 31/12/62 2/26/63 18/31/64 32/11/65
f 15/27/66 14/28/67 19/7/68 20/8/69
f 14/28/70 13/29/71 21/5/72 19/7/73
f 13/29/74 12/30/75 22/4/76 21/5/77
f 12/30/78 10/3/79 23/1/80 22/4/81
f 11/2/82 23/1/83 10/3/84 1/51/85
f 18/31/86 17/32/87 33/10/88 32/11/89
f 17/32/90 16/33/91 34/9/92 33/10/93
f 16/33/94 15/27/95 20/8/96 34/9/97
f 43/34/98 42/36/99 41/37/100 44/38/101
f 45/39/102 44/38/103 41/37/104 46/40/105
f 41/37/106 35/35/107 46/40/108
f 47/41/109 46/40/110 35/35/111 48/42/112
f 40/43/113 39/44/114 35/35/115
f 35/35/116 39/44/117 38/45/118 36/46/119
f 37/47/120 51/48/121 50/49/122 36/46/123
f 36/46/124 50/49/125 35/35/126
f 35/35/127 50/49/128 48/42/129
f 50/49/130 49/50/131 48/42/132
f 35/35/133 1/51/134 10/3/135 40/43/136
f 7/19/137 1/51/138 35/35/139 41/37/140
f 15/27/141 37/47/142 36/46/143 14/28/144
f 14/28/145 36/46/146 38/45/147 13/29/148
f 13/29/149 38/45/150 39/44/151 12/30/152
f 12/30/153 39/44/154 40/43/155 10/3/156
f 7/19/157 41/37/158 42/36/159 8/20/160
f 8/20/161 42/36/162 43/34/163 6/21/164
f 6/21/165 43/34/166 44/38/167 9/22/168
f 9/22/169 44/38/170 45/39/171 5/23/172
f 5/23/173 45/39/174 46/40/175 4/24/176
f 4/24/177 46/40/178 47/41/179 3/25/180
f 3/25/181 47/41/182 48/42/183 2/26/184
f 48/42/185 49/50/186 18/31/187 2/26/188
f 18/31/189 49/50/190 50/49/191 17/32/192
f 17/32/193 50/49/194 51/48/195 16/33/196
f 16/33/197 51/48/198 37/47/199 15/27/200
f 7/19/201 24/6/202 11/2/203 1/51/204
f 57/52/205 58/53/206 70/54/207
f 56/55/208 58/53/209 59/56/210 52/57/211
f 53/58/212 52/57/213 59/56/214 57/52/215
f 54/59/216 60/60/217 61/61/218 55/62/219
f 54/59/220 74/63/221 73/64/222 60/60/223
f 56/55/224 52/65/225 64/66/226 63/67/227
f 54/68/228 55/62/229 66/69/230 65/70/231
f 54/68/232 65/70/233 75/71/234 74/72/235
f 62/73/236 72/74/237 63/67/238
f 53/75/239 62/73/240 64/66/241 52/65/242
f 57/52/243 59/56/244 58/53/245
f 61/61/246 73/64/247 57/52/248
f 75/71/249 65/70/250 66/69/251
f 62/73/252 63/67/253 64/66/254
f 69/76/255 61/61/256 57/52/257
f 62/73/258 66/69/259 71/77/260
f 67/78/261 72/74/262 71/77/263 68/79/264
f 68/79/265 69/76/266 70/54/267 67/78/268
f 67/78/269 70/54/270 58/53/271 56/55/272
f 55/62/273 61/61/274 69/76/275 68/79/276
f 67/78/277 56/55/278 63/67/279 72/74/280
f 55/62/281 68/79/282 71/77/283 66/69/284
f 69/76/285 57/52/286 70/54/287
f 71/77/288 72/74/289 62/73/290
f 61/61/291 60/60/292 73/64/293
f 74/63/294 53/58/295 57/52/296 73/64/297
f 75/71/298 62/73/299 53/75/300 74/72/301
f 62/73/302 75/71/303 66/69/304
