# This file uses centimeters as units for non-parametric coordinates.

v 5.094157 8.062096 0.000000
v 2.734519 11.257439 0.000000
v -2.132234 11.699871 0.000000
v -4.983463 8.406210 0.000000
v -3.522578 4.522639 0.000000
v 1.769722 2.289645 0.000000
v 8.584455 0.540750 -0.000000
v 12.418866 -4.817594 0.000000
v 11.288206 -11.257439 -0.000000
v 5.143316 -15.730919 -0.000000
v -3.607007 -16.271669 -0.000000
v -10.194329 -12.338940 -0.000000
v -12.308172 -7.128073 0.000000
v -5.720849 -6.685640 -0.000000
v -3.137748 -10.611425 -0.000000
v 1.554700 -10.926264 0.000000
v 4.296719 -9.500648 0.000000
v 6.217872 -6.734800 0.000000
v 4.110975 -3.686934 0.000000
v -1.689802 -2.163001 0.000000
v -7.883851 0.688228 -0.000000
v -10.882557 4.473480 -0.000000
v -11.226671 9.536869 -0.000000
v -7.933010 14.206985 -0.000000
v -2.181393 16.271669 -0.000000
v 4.504248 15.780079 0.000000
v 9.420160 13.027166 0.000000
v 11.534002 8.750322 0.000000
v 1.551136 1.779613 4.000000
v -7.373819 1.416845 4.000000
v -0.742599 -1.179367 4.000000
v 7.673683 0.140010 4.000000
v 5.822775 9.227882 4.000000
v 9.967476 9.879679 4.000000
v 8.290803 13.027166 4.000000
v 2.953104 12.423225 4.000000
v -2.460112 12.719934 4.000000
v -7.495840 13.405506 4.000000
v -9.878729 9.318283 4.000000
v -6.112820 8.151194 4.000000
v -9.898923 5.019943 4.000000
v -4.360488 3.721159 4.000000
v 4.402422 -2.557577 4.000000
v 10.961632 -4.708302 4.000000
v 6.982921 -6.443353 4.000000
v 10.486727 -10.893131 4.000000
v 4.879613 -9.937819 4.000000
v 4.779007 -14.783716 4.000000
v 1.481838 -11.582020 4.000000
v -3.279129 -15.360897 4.000000
v -3.939227 -11.157888 4.000000
v -9.356419 -11.974632 4.000000
v -6.376605 -7.778566 4.000000
v -10.450198 -8.184568 4.000000
v -1.707792 15.798069 4.000000
v 4.030647 15.488632 4.000000
v -1.851398 -18.240816 2.000000
v 1.778536 -17.876507 2.000000
v -1.081982 18.605125 2.000000
v 1.264136 18.495832 2.000000
v -1.473590 12.488034 2.000000
v 1.275159 8.456001 2.000000
v -1.561027 -4.126211 2.000000
v 1.945719 -2.982729 2.000000
v -1.573799 19.115158 0.000000
v 1.664876 19.060511 0.000000
v -2.233922 -18.933002 0.000000
v 2.197491 -18.750847 0.000000
v 1.748760 8.456001 0.000000
v -1.819683 12.488034 0.000000
v 2.164304 -2.982729 0.000000
v -1.979982 -4.126210 0.000000
v 1.551136 1.779613 -4.000000
v -7.373819 1.416845 -4.000000
v -0.742599 -1.179367 -4.000000
v 7.673683 0.140010 -4.000000
v 5.822775 9.227882 -4.000000
v 9.967476 9.879679 -4.000000
v 8.290803 13.027166 -4.000000
v 2.953104 12.423225 -4.000000
v -2.460112 12.719934 -4.000000
v -7.495840 13.405506 -4.000000
v -9.878729 9.318283 -4.000000
v -6.112820 8.151194 -4.000000
v -9.898923 5.019943 -4.000000
v -4.360488 3.721159 -4.000000
v 4.402422 -2.557577 -4.000000
v 10.961632 -4.708302 -4.000000
v 6.982921 -6.443353 -4.000000
v 10.486727 -10.893131 -4.000000
v 4.879613 -9.937819 -4.000000
v 4.779007 -14.783716 -4.000000
v 1.481838 -11.582020 -4.000000
v -3.279129 -15.360897 -4.000000
v -3.939227 -11.157888 -4.000000
v -9.356419 -11.974632 -4.000000
v -6.376605 -7.778566 -4.000000
v -10.450198 -8.184568 -4.000000
v -1.707792 15.798069 -4.000000
v 4.030647 15.488632 -4.000000
v -1.851398 -18.240816 -2.000000
v 1.778536 -17.876507 -2.000000
v -1.081982 18.605125 -2.000000
v 1.264136 18.495832 -2.000000
v -1.473590 12.488034 -2.000000
v 1.275159 8.456001 -2.000000
v -1.561027 -4.126211 -2.000000
v 1.945719 -2.982729 -2.000000
vt 0.011569 0.949033
vt 0.009073 0.948970
vt 0.010927 0.948512
vt 0.013280 0.948745
vt 0.012763 0.950345
vt 0.013922 0.950460
vt 0.013453 0.951015
vt 0.011961 0.950908
vt 0.010447 0.950960
vt 0.009039 0.951081
vt 0.008373 0.950361
vt 0.009426 0.950156
vt 0.008367 0.949604
vt 0.009916 0.949375
vt 0.012366 0.948269
vt 0.014200 0.947891
vt 0.013087 0.947585
vt 0.014067 0.946801
vt 0.012499 0.946970
vt 0.012471 0.946116
vt 0.011549 0.946680
vt 0.010218 0.946014
vt 0.010034 0.946755
vt 0.008519 0.946611
vt 0.009352 0.947350
vt 0.008213 0.947278
vt 0.010657 0.951503
vt 0.012262 0.951448
vt 0.011630 0.949123
vt 0.013535 0.948815
vt 0.010662 0.948339
vt 0.008931 0.948841
vt 0.012559 0.950140
vt 0.011899 0.950703
vt 0.013769 0.951015
vt 0.014360 0.950261
vt 0.010539 0.950781
vt 0.009742 0.950201
vt 0.007996 0.950400
vt 0.008917 0.951222
vt 0.010150 0.949517
vt 0.008092 0.949508
vt 0.014607 0.947871
vt 0.012284 0.948071
vt 0.014291 0.946737
vt 0.012873 0.947534
vt 0.012573 0.945949
vt 0.012336 0.947047
vt 0.010126 0.945854
vt 0.011570 0.946795
vt 0.008285 0.946547
vt 0.010258 0.946851
vt 0.007694 0.947464
vt 0.009535 0.947542
vt 0.010525 0.951586
vt 0.012394 0.951499
vt 0.010617 0.945507
vt 0.011632 0.945571
vt 0.011679 0.948195
vt 0.010698 0.947993
vt 0.010832 0.951997
vt 0.011488 0.951978
vt 0.010723 0.950920
vt 0.011491 0.950209
vt 0.010695 0.952087
vt 0.011600 0.952077
vt 0.010510 0.945385
vt 0.011749 0.945417
vt 0.011624 0.950209
vt 0.010626 0.950920
vt 0.011740 0.948195
vt 0.010581 0.947993
vt 0.011569 0.949033
vt 0.009073 0.948970
vt 0.010927 0.948512
vt 0.013280 0.948745
vt 0.012763 0.950345
vt 0.013922 0.950460
vt 0.013453 0.951015
vt 0.011961 0.950908
vt 0.010447 0.950960
vt 0.009039 0.951081
vt 0.008373 0.950361
vt 0.009426 0.950156
vt 0.008367 0.949604
vt 0.009916 0.949375
vt 0.012366 0.948269
vt 0.014200 0.947891
vt 0.013087 0.947585
vt 0.014067 0.946801
vt 0.012499 0.946970
vt 0.012471 0.946116
vt 0.011549 0.946680
vt 0.010218 0.946014
vt 0.010034 0.946755
vt 0.008519 0.946611
vt 0.009352 0.947350
vt 0.008213 0.947278
vt 0.010657 0.951503
vt 0.012262 0.951448
vt 0.008931 0.948841
vt 0.010662 0.948339
vt 0.013535 0.948815
vt 0.011630 0.949123
vt 0.012559 0.950140
vt 0.014360 0.950261
vt 0.013769 0.951015
vt 0.011899 0.950703
vt 0.008917 0.951222
vt 0.007996 0.950400
vt 0.009742 0.950201
vt 0.010539 0.950781
vt 0.008092 0.949508
vt 0.010150 0.949517
vt 0.012284 0.948071
vt 0.014607 0.947871
vt 0.012873 0.947534
vt 0.014291 0.946737
vt 0.012336 0.947047
vt 0.012573 0.945949
vt 0.011570 0.946795
vt 0.010126 0.945854
vt 0.010258 0.946851
vt 0.008285 0.946547
vt 0.009535 0.947542
vt 0.007694 0.947464
vt 0.010525 0.951586
vt 0.012394 0.951499
vt 0.010617 0.945507
vt 0.011632 0.945571
vt 0.011679 0.948195
vt 0.010698 0.947993
vt 0.010832 0.951997
vt 0.011488 0.951978
vt 0.011600 0.952077
vt 0.010695 0.952087
vt 0.011749 0.945417
vt 0.011740 0.948195
vt 0.010723 0.950920
vt 0.011491 0.950209
vt 0.011624 0.950209
vt 0.010510 0.945385
vt 0.010581 0.947993
vt 0.010626 0.950920
vn -0.000000 0.000000 1.000000
vn -0.000000 0.000000 1.000000
vn -0.000000 0.000000 1.000000
vn -0.000000 0.000000 1.000000
vn 0.000000 0.000000 1.000000
vn 0.000000 0.000000 1.000000
vn 0.000000 0.000000 1.000000
vn 0.000000 0.000000 1.000000
vn 0.000000 0.000000 1.000000
vn 0.000000 0.000000 1.000000
vn 0.000000 0.000000 1.000000
vn 0.000000 0.000000 1.000000
vn 0.000000 0.000000 1.000000
vn 0.000000 0.000000 1.000000
vn 0.000000 0.000000 1.000000
vn 0.000000 0.000000 1.000000
vn 0.000000 0.000000 1.000000
vn 0.000000 0.000000 1.000000
vn -0.000000 0.000000 1.000000
vn -0.000000 0.000000 1.000000
vn -0.000000 0.000000 1.000000
vn -0.000000 0.000000 1.000000
vn 0.000000 0.000000 1.000000
vn 0.000000 0.000000 1.000000
vn 0.000000 0.000000 1.000000
vn 0.000000 0.000000 1.000000
vn 0.000000 0.000000 1.000000
vn 0.000000 0.000000 1.000000
vn 0.000000 0.000000 1.000000
vn 0.000000 0.000000 1.000000
vn 0.000000 0.000000 1.000000
vn 0.000000 0.000000 1.000000
vn 0.000000 0.000000 1.000000
vn 0.000000 0.000000 1.000000
vn 0.000000 0.000000 1.000000
vn 0.000000 0.000000 1.000000
vn 0.000000 0.000000 1.000000
vn 0.000000 0.000000 1.000000
vn 0.000000 0.000000 1.000000
vn 0.000000 0.000000 1.000000
vn 0.000000 0.000000 1.000000
vn 0.000000 0.000000 1.000000
vn 0.000000 0.000000 1.000000
vn 0.000000 0.000000 1.000000
vn 0.000000 0.000000 1.000000
vn 0.000000 0.000000 1.000000
vn 0.000000 0.000000 1.000000
vn 0.000000 0.000000 1.000000
vn 0.000000 0.000000 1.000000
vn 0.000000 0.000000 1.000000
vn 0.000000 0.000000 1.000000
vn 0.000000 0.000000 1.000000
vn -0.377595 -0.888996 0.259054
vn -0.377595 -0.888996 0.259054
vn -0.377595 -0.888996 0.259054
vn -0.377595 -0.888996 0.259054
vn 0.253371 0.967369 0.000000
vn 0.253371 0.967369 0.000000
vn 0.250716 0.957235 0.144371
vn 0.250716 0.957235 0.144371
vn 0.120376 -0.950821 0.285392
vn 0.120376 -0.950821 0.285392
vn 0.120376 -0.950821 0.285392
vn 0.120376 -0.950821 0.285392
vn 0.890636 0.454717 -0.000000
vn 0.890636 0.454717 -0.000000
vn 0.866836 0.442565 0.229634
vn 0.866836 0.442565 0.229634
vn -0.745992 -0.610423 0.266232
vn -0.745992 -0.610423 0.266232
vn -0.745992 -0.610423 0.266232
vn -0.745992 -0.610423 0.266232
vn -0.839131 0.543929 -0.000000
vn -0.839131 0.543929 -0.000000
vn -0.812799 0.526861 0.248546
vn -0.812799 0.526860 0.248546
vn 0.770533 -0.637400 -0.000000
vn 0.770533 -0.637400 -0.000000
vn 0.755379 -0.624864 0.197352
vn 0.755379 -0.624864 0.197352
vn -0.959162 -0.033188 0.280905
vn -0.959162 -0.033188 0.280905
vn -0.959162 -0.033188 0.280905
vn -0.959162 -0.033188 0.280905
vn 0.898910 0.347430 0.266932
vn 0.898910 0.347430 0.266932
vn 0.898910 0.347430 0.266932
vn 0.898910 0.347430 0.266932
vn -0.800907 -0.598788 0.000000
vn -0.800907 -0.598789 0.000000
vn -0.777905 -0.581592 0.237938
vn -0.777905 -0.581592 0.237938
vn 0.349148 0.937068 0.000000
vn 0.349148 0.937068 0.000000
vn 0.342385 0.918918 0.195862
vn 0.342385 0.918918 0.195862
vn -0.245811 -0.927107 0.282930
vn -0.245811 -0.927107 0.282930
vn -0.245811 -0.927107 0.282930
vn -0.245811 -0.927107 0.282930
vn 0.820073 0.572259 -0.000000
vn 0.820073 0.572259 -0.000000
vn 0.792987 0.553358 0.254884
vn 0.792987 0.553358 0.254884
vn -0.828450 -0.560063 -0.000000
vn -0.828450 -0.560063 -0.000000
vn -0.810949 -0.548231 0.204462
vn -0.810949 -0.548231 0.204462
vn 0.953377 -0.121247 0.276354
vn 0.953377 -0.121247 0.276354
vn 0.953377 -0.121247 0.276354
vn 0.953377 -0.121247 0.276354
vn -0.841180 0.540755 0.000000
vn -0.841180 0.540755 0.000000
vn -0.831680 0.534648 0.149871
vn -0.831680 0.534647 0.149871
vn 0.576569 -0.817048 0.000000
vn 0.576569 -0.817048 0.000000
vn 0.563342 -0.798305 0.212966
vn 0.563342 -0.798305 0.212966
vn -0.447204 0.894432 0.000000
vn -0.447204 0.894432 0.000000
vn -0.442211 0.884445 0.149021
vn -0.442211 0.884445 0.149022
vn 0.066363 -0.997796 -0.000000
vn 0.066363 -0.997796 -0.000000
vn 0.064646 -0.971973 0.226032
vn 0.064646 -0.971973 0.226032
vn 0.072873 0.997341 0.000000
vn 0.072873 0.997341 0.000000
vn 0.071982 0.985145 0.155912
vn 0.071982 0.985145 0.155912
vn -0.500363 -0.865816 0.000000
vn -0.500363 -0.865816 0.000000
vn -0.489592 -0.847178 0.206372
vn -0.489592 -0.847178 0.206372
vn 0.824136 0.566392 0.000000
vn 0.824136 0.566392 0.000000
vn 0.796404 0.547333 0.257230
vn 0.796404 0.547333 0.257230
vn -0.076400 0.959991 0.269409
vn -0.076400 0.959991 0.269409
vn -0.076400 0.959991 0.269409
vn -0.076400 0.959991 0.269409
vn -0.905089 -0.322542 0.277094
vn -0.905089 -0.322542 0.277094
vn -0.905089 -0.322542 0.277094
vn -0.905088 -0.322542 0.277094
vn -0.360311 0.932832 -0.000000
vn -0.360311 0.932832 -0.000000
vn -0.353997 0.916488 0.186376
vn -0.353997 0.916488 0.186376
vn 0.064340 0.997928 -0.000000
vn 0.064340 0.997928 -0.000000
vn 0.064049 0.993415 0.095001
vn 0.064049 0.993415 0.095001
vn -0.069210 -0.962567 0.262058
vn -0.069210 -0.962567 0.262058
vn -0.069210 -0.962567 0.262058
vn -0.069210 -0.962567 0.262058
vn 0.494060 0.869428 -0.000000
vn 0.494060 0.869428 -0.000000
vn 0.489895 0.862099 0.129567
vn 0.489895 0.862099 0.129567
vn 0.000000 0.000000 1.000000
vn 0.000000 0.000000 1.000000
vn 0.000000 0.000000 1.000000
vn 0.000000 0.000000 1.000000
vn 0.028343 0.965523 0.258769
vn 0.028343 0.965523 0.258769
vn 0.029342 0.999569 0.000000
vn 0.029342 0.999569 0.000000
vn 0.987379 -0.004315 0.158317
vn 0.999991 -0.004370 0.000000
vn 0.999843 0.017747 0.000000
vn 0.986383 0.017582 0.163522
vn 0.000000 0.000000 1.000000
vn 0.000000 0.000000 1.000000
vn 0.000000 0.000000 1.000000
vn 0.000000 0.000000 1.000000
vn 0.981157 0.026533 0.191381
vn 0.999630 0.027195 -0.000000
vn 0.999989 0.004597 -0.000000
vn 0.976791 0.004491 0.214146
vn 0.000000 0.000000 1.000000
vn 0.000000 0.000000 1.000000
vn 0.000000 0.000000 1.000000
vn 0.000000 0.000000 1.000000
vn 0.986383 0.017582 0.163522
vn 0.999843 0.017747 0.000000
vn 0.999630 0.027195 -0.000000
vn 0.981157 0.026533 0.191381
vn 0.062982 -0.929096 0.364436
vn 0.062982 -0.929096 0.364436
vn 0.062982 -0.929096 0.364436
vn 0.062982 -0.929096 0.364436
vn -0.999919 0.012753 -0.000000
vn -0.999823 0.018817 -0.000000
vn -0.980954 0.018462 0.193359
vn -0.981624 0.012501 0.190415
vn -0.998751 0.049960 0.000000
vn -0.999815 0.019209 0.000000
vn -0.980758 0.018948 0.194305
vn -0.976321 0.048838 0.210744
vn -0.999815 0.019209 0.000000
vn -0.999919 0.012753 -0.000000
vn -0.981624 0.012501 0.190415
vn -0.980758 0.018948 0.194305
vn 0.000000 0.000000 -1.000000
vn -0.000000 0.000000 -1.000000
vn -0.000000 0.000000 -1.000000
vn 0.000000 0.000000 -1.000000
vn 0.000000 0.000000 -1.000000
vn 0.000000 0.000000 -1.000000
vn 0.000000 0.000000 -1.000000
vn 0.000000 0.000000 -1.000000
vn 0.000000 0.000000 -1.000000
vn 0.000000 0.000000 -1.000000
vn 0.000000 0.000000 -1.000000
vn 0.000000 0.000000 -1.000000
vn 0.000000 0.000000 -1.000000
vn 0.000000 0.000000 -1.000000
vn 0.000000 0.000000 -1.000000
vn 0.000000 0.000000 -1.000000
vn 0.000000 0.000000 -1.000000
vn 0.000000 0.000000 -1.000000
vn 0.000000 0.000000 -1.000000
vn 0.000000 0.000000 -1.000000
vn -0.000000 0.000000 -1.000000
vn -0.000000 0.000000 -1.000000
vn -0.000000 0.000000 -1.000000
vn -0.000000 0.000000 -1.000000
vn -0.000000 0.000000 -1.000000
vn 0.000000 0.000000 -1.000000
vn 0.000000 0.000000 -1.000000
vn -0.000000 0.000000 -1.000000
vn 0.000000 0.000000 -1.000000
vn 0.000000 0.000000 -1.000000
vn 0.000000 0.000000 -1.000000
vn 0.000000 0.000000 -1.000000
vn 0.000000 0.000000 -1.000000
vn 0.000000 0.000000 -1.000000
vn 0.000000 0.000000 -1.000000
vn 0.000000 0.000000 -1.000000
vn 0.000000 0.000000 -1.000000
vn 0.000000 0.000000 -1.000000
vn 0.000000 0.000000 -1.000000
vn 0.000000 0.000000 -1.000000
vn 0.000000 0.000000 -1.000000
vn 0.000000 0.000000 -1.000000
vn 0.000000 0.000000 -1.000000
vn 0.000000 0.000000 -1.000000
vn 0.000000 0.000000 -1.000000
vn 0.000000 0.000000 -1.000000
vn 0.000000 0.000000 -1.000000
vn 0.000000 0.000000 -1.000000
vn 0.000000 0.000000 -1.000000
vn 0.000000 0.000000 -1.000000
vn 0.000000 0.000000 -1.000000
vn 0.000000 0.000000 -1.000000
vn -0.377595 -0.888996 -0.259054
vn -0.377595 -0.888996 -0.259054
vn -0.377595 -0.888996 -0.259054
vn -0.377595 -0.888996 -0.259054
vn 0.253371 0.967369 0.000000
vn 0.250716 0.957235 -0.144371
vn 0.250716 0.957235 -0.144371
vn 0.253371 0.967369 0.000000
vn 0.120376 -0.950821 -0.285392
vn 0.120376 -0.950821 -0.285392
vn 0.120376 -0.950821 -0.285392
vn 0.120376 -0.950821 -0.285392
vn 0.890636 0.454717 -0.000000
vn 0.866836 0.442565 -0.229634
vn 0.866836 0.442565 -0.229634
vn 0.890636 0.454717 -0.000000
vn -0.745992 -0.610423 -0.266232
vn -0.745992 -0.610423 -0.266232
vn -0.745992 -0.610423 -0.266232
vn -0.745992 -0.610423 -0.266232
vn -0.839131 0.543929 -0.000000
vn -0.812799 0.526860 -0.248546
vn -0.812799 0.526860 -0.248546
vn -0.839131 0.543929 -0.000000
vn 0.770533 -0.637400 -0.000000
vn 0.755379 -0.624864 -0.197352
vn 0.755379 -0.624864 -0.197352
vn 0.770533 -0.637400 -0.000000
vn -0.959162 -0.033188 -0.280905
vn -0.959162 -0.033188 -0.280905
vn -0.959162 -0.033188 -0.280905
vn -0.959162 -0.033188 -0.280905
vn 0.898910 0.347430 -0.266932
vn 0.898910 0.347430 -0.266932
vn 0.898910 0.347430 -0.266932
vn 0.898910 0.347430 -0.266932
vn -0.800907 -0.598788 0.000000
vn -0.777905 -0.581592 -0.237938
vn -0.777905 -0.581592 -0.237938
vn -0.800907 -0.598789 0.000000
vn 0.349148 0.937068 0.000000
vn 0.342385 0.918918 -0.195862
vn 0.342385 0.918918 -0.195862
vn 0.349148 0.937068 0.000000
vn -0.245811 -0.927107 -0.282930
vn -0.245811 -0.927107 -0.282930
vn -0.245811 -0.927107 -0.282930
vn -0.245811 -0.927107 -0.282930
vn 0.820073 0.572259 -0.000000
vn 0.792987 0.553358 -0.254884
vn 0.792987 0.553358 -0.254884
vn 0.820073 0.572259 -0.000000
vn -0.828450 -0.560063 -0.000000
vn -0.810949 -0.548231 -0.204462
vn -0.810949 -0.548231 -0.204462
vn -0.828450 -0.560063 -0.000000
vn 0.953377 -0.121247 -0.276354
vn 0.953377 -0.121247 -0.276354
vn 0.953377 -0.121247 -0.276354
vn 0.953377 -0.121247 -0.276354
vn -0.841180 0.540755 0.000000
vn -0.831680 0.534647 -0.149871
vn -0.831680 0.534648 -0.149871
vn -0.841180 0.540755 0.000000
vn 0.576569 -0.817048 0.000000
vn 0.563342 -0.798305 -0.212966
vn 0.563342 -0.798305 -0.212966
vn 0.576569 -0.817048 0.000000
vn -0.447204 0.894432 0.000000
vn -0.442211 0.884445 -0.149022
vn -0.442211 0.884445 -0.149021
vn -0.447204 0.894432 0.000000
vn 0.066363 -0.997796 -0.000000
vn 0.064646 -0.971973 -0.226032
vn 0.064646 -0.971973 -0.226032
vn 0.066363 -0.997796 -0.000000
vn 0.072873 0.997341 0.000000
vn 0.071982 0.985145 -0.155912
vn 0.071982 0.985145 -0.155912
vn 0.072873 0.997341 0.000000
vn -0.500363 -0.865816 0.000000
vn -0.489592 -0.847178 -0.206372
vn -0.489592 -0.847178 -0.206372
vn -0.500363 -0.865816 0.000000
vn 0.824136 0.566392 0.000000
vn 0.796404 0.547333 -0.257230
vn 0.796404 0.547333 -0.257230
vn 0.824136 0.566392 0.000000
vn -0.076400 0.959991 -0.269409
vn -0.076400 0.959991 -0.269409
vn -0.076400 0.959991 -0.269409
vn -0.076400 0.959991 -0.269409
vn -0.905089 -0.322542 -0.277094
vn -0.905088 -0.322542 -0.277094
vn -0.905089 -0.322542 -0.277094
vn -0.905089 -0.322542 -0.277094
vn -0.360311 0.932832 -0.000000
vn -0.353997 0.916488 -0.186376
vn -0.353997 0.916488 -0.186376
vn -0.360311 0.932832 -0.000000
vn 0.064340 0.997928 -0.000000
vn 0.064049 0.993415 -0.095001
vn 0.064049 0.993415 -0.095001
vn 0.064340 0.997928 -0.000000
vn -0.069210 -0.962567 -0.262058
vn -0.069210 -0.962567 -0.262058
vn -0.069210 -0.962567 -0.262058
vn -0.069210 -0.962567 -0.262058
vn 0.494060 0.869428 -0.000000
vn 0.489895 0.862099 -0.129567
vn 0.489895 0.862099 -0.129567
vn 0.494060 0.869428 -0.000000
vn 0.000000 0.000000 -1.000000
vn 0.000000 0.000000 -1.000000
vn 0.000000 0.000000 -1.000000
vn 0.000000 0.000000 -1.000000
vn 0.028343 0.965523 -0.258769
vn 0.029342 0.999569 0.000000
vn 0.029342 0.999569 0.000000
vn 0.028343 0.965523 -0.258769
vn 0.987379 -0.004315 -0.158317
vn 0.986383 0.017582 -0.163522
vn 0.999843 0.017747 0.000000
vn 0.999991 -0.004370 0.000000
vn 0.000000 0.000000 -1.000000
vn 0.000000 0.000000 -1.000000
vn 0.000000 0.000000 -1.000000
vn 0.000000 0.000000 -1.000000
vn 0.981157 0.026533 -0.191381
vn 0.976791 0.004491 -0.214146
vn 0.999989 0.004597 -0.000000
vn 0.999630 0.027195 -0.000000
vn 0.000000 0.000000 -1.000000
vn 0.000000 0.000000 -1.000000
vn 0.000000 0.000000 -1.000000
vn 0.000000 0.000000 -1.000000
vn 0.986383 0.017582 -0.163522
vn 0.981157 0.026533 -0.191381
vn 0.999630 0.027195 -0.000000
vn 0.999843 0.017747 0.000000
vn 0.062982 -0.929096 -0.364436
vn 0.062982 -0.929096 -0.364436
vn 0.062982 -0.929096 -0.364436
vn 0.062982 -0.929096 -0.364436
vn -0.999919 0.012753 -0.000000
vn -0.981624 0.012501 -0.190415
vn -0.980954 0.018462 -0.193359
vn -0.999823 0.018817 -0.000000
vn -0.998751 0.049960 0.000000
vn -0.976321 0.048838 -0.210744
vn -0.980758 0.018948 -0.194305
vn -0.999815 0.019209 0.000000
vn -0.999815 0.019209 0.000000
vn -0.980758 0.018948 -0.194305
vn -0.981624 0.012501 -0.190415
vn -0.999919 0.012753 -0.000000
s off
f 29/1/1 30/2/2 31/3/3 32/4/4
f 33/5/5 34/6/6 35/7/7 36/8/8
f 37/9/9 38/10/10 39/11/11 40/12/12
f 40/12/13 39/11/14 41/13/15 42/14/16
f 42/14/17 41/13/18 30/2/19 29/1/20
f 32/4/21 31/3/22 43/15/23 44/16/24
f 44/16/25 43/15/26 45/17/27 46/18/28
f 46/18/29 45/17/30 47/19/31 48/20/32
f 48/20/33 47/19/34 49/21/35 50/22/36
f 50/22/37 49/21/38 51/23/39 52/24/40
f 52/24/41 51/23/42 53/25/43 54/26/44
f 55/27/45 38/10/46 37/9/47 56/28/48
f 56/28/49 37/9/50 36/8/51 35/7/52
f 21/32/53 20/31/54 31/3/55 30/2/56
f 7/30/57 6/29/58 29/1/59 32/4/60
f 1/33/61 28/36/62 34/6/63 33/5/64
f 28/36/65 27/35/66 35/7/67 34/6/68
f 2/34/69 1/33/70 33/5/71 36/8/72
f 24/40/73 23/39/74 39/11/75 38/10/76
f 4/38/77 3/37/78 37/9/79 40/12/80
f 23/39/81 22/42/82 41/13/83 39/11/84
f 5/41/85 4/38/86 40/12/87 42/14/88
f 22/42/89 21/32/90 30/2/91 41/13/92
f 6/29/93 5/41/94 42/14/95 29/1/96
f 20/31/97 19/44/98 43/15/99 31/3/100
f 8/43/101 7/30/102 32/4/103 44/16/104
f 19/44/105 18/46/106 45/17/107 43/15/108
f 9/45/109 8/43/110 44/16/111 46/18/112
f 18/46/113 17/48/114 47/19/115 45/17/116
f 10/47/117 9/45/118 46/18/119 48/20/120
f 17/48/121 16/50/122 49/21/123 47/19/124
f 11/49/125 10/47/126 48/20/127 50/22/128
f 16/50/129 15/52/130 51/23/131 49/21/132
f 12/51/133 11/49/134 50/22/135 52/24/136
f 15/52/137 14/54/138 53/25/139 51/23/140
f 14/54/141 13/53/142 54/26/143 53/25/144
f 13/53/145 12/51/146 52/24/147 54/26/148
f 25/55/149 24/40/150 38/10/151 55/27/152
f 26/56/153 25/55/154 55/27/155 56/28/156
f 3/37/157 2/34/158 36/8/159 37/9/160
f 27/35/161 26/56/162 56/28/163 35/7/164
f 57/57/165 58/58/166 64/59/167 63/60/168
f 59/61/169 60/62/170 66/66/171 65/65/172
f 58/58/173 68/68/174 71/71/175 64/59/176
f 61/63/177 62/64/178 60/62/179 59/61/180
f 62/64/181 69/69/182 66/66/183 60/62/184
f 63/60/185 64/59/186 62/64/187 61/63/188
f 64/59/189 71/71/190 69/69/191 62/64/192
f 67/67/193 68/68/194 58/58/195 57/57/196
f 72/72/197 67/67/198 57/57/199 63/60/200
f 65/65/201 70/70/202 61/63/203 59/61/204
f 70/70/205 72/72/206 63/60/207 61/63/208
f 73/73/209 76/76/210 75/75/211 74/74/212
f 77/77/213 80/80/214 79/79/215 78/78/216
f 81/81/217 84/84/218 83/83/219 82/82/220
f 84/84/221 86/86/222 85/85/223 83/83/224
f 86/86/225 73/73/226 74/74/227 85/85/228
f 76/76/229 88/88/230 87/87/231 75/75/232
f 88/88/233 90/90/234 89/89/235 87/87/236
f 90/90/237 92/92/238 91/91/239 89/89/240
f 92/92/241 94/94/242 93/93/243 91/91/244
f 94/94/245 96/96/246 95/95/247 93/93/248
f 96/96/249 98/98/250 97/97/251 95/95/252
f 99/99/253 100/100/254 81/81/255 82/82/256
f 100/100/257 79/79/258 80/80/259 81/81/260
f 21/101/261 74/74/262 75/75/263 20/102/264
f 7/103/265 76/76/266 73/73/267 6/104/268
f 1/105/269 77/77/270 78/78/271 28/106/272
f 28/106/273 78/78/274 79/79/275 27/107/276
f 2/108/277 80/80/278 77/77/279 1/105/280
f 24/109/281 82/82/282 83/83/283 23/110/284
f 4/111/285 84/84/286 81/81/287 3/112/288
f 23/110/289 83/83/290 85/85/291 22/113/292
f 5/114/293 86/86/294 84/84/295 4/111/296
f 22/113/297 85/85/298 74/74/299 21/101/300
f 6/104/301 73/73/302 86/86/303 5/114/304
f 20/102/305 75/75/306 87/87/307 19/115/308
f 8/116/309 88/88/310 76/76/311 7/103/312
f 19/115/313 87/87/314 89/89/315 18/117/316
f 9/118/317 90/90/318 88/88/319 8/116/320
f 18/117/321 89/89/322 91/91/323 17/119/324
f 10/120/325 92/92/326 90/90/327 9/118/328
f 17/119/329 91/91/330 93/93/331 16/121/332
f 11/122/333 94/94/334 92/92/335 10/120/336
f 16/121/337 93/93/338 95/95/339 15/123/340
f 12/124/341 96/96/342 94/94/343 11/122/344
f 15/123/345 95/95/346 97/97/347 14/125/348
f 14/125/349 97/97/350 98/98/351 13/126/352
f 13/126/353 98/98/354 96/96/355 12/124/356
f 25/127/357 99/99/358 82/82/359 24/109/360
f 26/128/361 100/100/362 99/99/363 25/127/364
f 3/112/365 81/81/366 80/80/367 2/108/368
f 27/107/369 79/79/370 100/100/371 26/128/372
f 101/129/373 107/132/374 108/131/375 102/130/376
f 103/133/377 65/136/378 66/135/379 104/134/380
f 102/130/381 108/131/382 71/138/383 68/137/384
f 105/139/385 103/133/386 104/134/387 106/140/388
f 106/140/389 104/134/390 66/135/391 69/141/392
f 107/132/393 105/139/394 106/140/395 108/131/396
f 108/131/397 106/140/398 69/141/399 71/138/400
f 67/142/401 101/129/402 102/130/403 68/137/404
f 72/143/405 107/132/406 101/129/407 67/142/408
f 65/136/409 103/133/410 105/139/411 70/144/412
f 70/144/413 105/139/414 107/132/415 72/143/416
