# This file uses centimeters as units for non-parametric coordinates.

v -0.000000 -7.847919 0.000000
v -1.144127 18.122192 -0.000000
v 7.463505 20.000000 0.000000
v 8.462541 -20.000000 -0.000000
v 14.212414 19.220345 -0.000000
v 17.245441 13.527411 -0.000000
v 16.253746 5.700089 0.000000
v 12.379007 -0.493617 0.000000
v 11.756850 -3.936550 0.000000
v 12.549330 -9.726194 0.000000
v 11.599689 -15.948013 -0.000000
v 7.888761 -15.896685 -0.000000
v 4.404747 -9.514628 -0.000000
v 9.890247 -19.493492 -0.000000
v -7.463505 20.000000 -0.000000
v -8.462541 -20.000000 -0.000000
v -14.212414 19.220345 -0.000000
v -17.245441 13.527411 -0.000000
v -16.253746 5.700089 0.000000
v -12.379007 -0.493617 0.000000
v -11.756850 -3.936550 0.000000
v -12.549330 -9.726194 -0.000000
v -11.599689 -15.948013 -0.000000
v -7.888761 -15.896685 0.000000
v -4.404747 -9.514628 0.000000
v -9.890247 -19.493492 -0.000000
v 6.954982 17.767410 4.000000
v -1.552946 15.952301 4.000000
v 0.306579 -5.405160 4.000000
v 4.997703 -7.786073 4.000000
v 8.882214 -15.555112 4.000000
v 10.293376 -9.277940 4.000000
v 9.133438 -4.043848 4.000000
v 9.742558 -0.121787 4.000000
v 14.211321 6.595093 4.000000
v 14.649683 12.437386 4.000000
v 13.118399 16.692316 4.000000
v -7.122745 17.845512 4.000000
v -12.321404 16.781292 4.000000
v -14.846821 12.749166 4.000000
v -13.599493 6.385693 4.000000
v -10.367276 0.363176 4.000000
v -9.862389 -3.357641 4.000000
v -10.178250 -9.279301 4.000000
v -9.421425 -15.547078 4.000000
v -5.749175 -7.206391 4.000000
v -10.145972 -14.160301 4.000000
v 9.634655 -14.480353 4.000000
v 6.954982 17.767410 -4.000000
v -1.552946 15.952301 -4.000000
v 0.306579 -5.405160 -4.000000
v 4.997703 -7.786073 -4.000000
v 8.882214 -15.555112 -4.000000
v 10.293376 -9.277940 -4.000000
v 9.133438 -4.043848 -4.000000
v 9.742558 -0.121787 -4.000000
v 14.211321 6.595093 -4.000000
v 14.649683 12.437386 -4.000000
v 13.118399 16.692316 -4.000000
v -7.122745 17.845512 -4.000000
v -12.321404 16.781292 -4.000000
v -14.846821 12.749166 -4.000000
v -13.599493 6.385693 -4.000000
v -10.367276 0.363176 -4.000000
v -9.862389 -3.357641 -4.000000
v -10.178250 -9.279301 -4.000000
v -9.421425 -15.547078 -4.000000
v -5.749175 -7.206391 -4.000000
v -10.145972 -14.160301 -4.000000
v 9.634655 -14.480353 -4.000000
vt 0.987741 0.981881
vt 0.987679 0.981242
vt 0.987482 0.981193
vt 0.987458 0.982180
vt 0.987345 0.981213
vt 0.987260 0.981353
vt 0.987309 0.981584
vt 0.987435 0.981734
vt 0.987451 0.981810
vt 0.987390 0.981957
vt 0.987398 0.982123
vt 0.987475 0.982079
vt 0.987572 0.981922
vt 0.987428 0.982152
vt 0.987482 0.981193
vt 0.987679 0.981242
vt 0.987741 0.981881
vt 0.987572 0.981922
vt 0.987475 0.982079
vt 0.987458 0.982180
vt 0.987428 0.982152
vt 0.987398 0.982123
vt 0.987390 0.981957
vt 0.987451 0.981810
vt 0.987435 0.981734
vt 0.987309 0.981584
vt 0.987260 0.981353
vt 0.987345 0.981213
vt 0.987482 0.981193
vt 0.987679 0.981242
vt 0.987741 0.981881
vt 0.987572 0.981922
vt 0.987440 0.982133
vt 0.987390 0.981957
vt 0.987451 0.981810
vt 0.987435 0.981734
vt 0.987309 0.981584
vt 0.987260 0.981353
vt 0.987345 0.981213
vt 0.987482 0.981193
vt 0.987345 0.981213
vt 0.987260 0.981353
vt 0.987309 0.981584
vt 0.987435 0.981734
vt 0.987451 0.981810
vt 0.987390 0.981957
vt 0.987440 0.982133
vt 0.987572 0.981922
vt 0.987741 0.981881
vt 0.987679 0.981242
vt 0.987430 0.982098
vt 0.987430 0.982099
vt 0.987572 0.981922
vt 0.987440 0.982133
vt 0.987430 0.982099
vt 0.987390 0.981957
vt 0.987451 0.981810
vt 0.987679 0.981242
vt 0.987741 0.981881
vt 0.987435 0.981734
vt 0.987309 0.981584
vt 0.987482 0.981193
vt 0.987260 0.981353
vt 0.987345 0.981213
vt 0.987430 0.982098
vt 0.987440 0.982133
vt 0.987572 0.981922
vt 0.987390 0.981957
vt 0.987451 0.981810
vt 0.987741 0.981881
vt 0.987679 0.981242
vt 0.987435 0.981734
vt 0.987309 0.981584
vt 0.987482 0.981193
vt 0.987260 0.981353
vt 0.987345 0.981213
vt 0.987482 0.981193
vt 0.987679 0.981242
vt 0.987741 0.981881
vt 0.987572 0.981922
vt 0.987475 0.982079
vt 0.987458 0.982180
vt 0.987428 0.982152
vt 0.987398 0.982123
vt 0.987390 0.981957
vt 0.987451 0.981810
vt 0.987435 0.981734
vt 0.987309 0.981584
vt 0.987260 0.981353
vt 0.987345 0.981213
vt 0.987482 0.981193
vt 0.987345 0.981213
vt 0.987260 0.981353
vt 0.987309 0.981584
vt 0.987435 0.981734
vt 0.987451 0.981810
vt 0.987390 0.981957
vt 0.987398 0.982123
vt 0.987428 0.982152
vt 0.987458 0.982180
vt 0.987475 0.982079
vt 0.987572 0.981922
vt 0.987741 0.981881
vt 0.987679 0.981242
vn 0.000000 0.000000 1.000000
vn 0.000000 0.000000 1.000000
vn 0.000000 0.000000 1.000000
vn 0.000000 0.000000 1.000000
vn 0.000000 0.000000 1.000000
vn 0.000000 0.000000 1.000000
vn 0.000000 0.000000 1.000000
vn 0.000000 0.000000 1.000000
vn 0.000000 0.000000 1.000000
vn 0.000000 0.000000 1.000000
vn -0.000000 0.000000 1.000000
vn -0.000000 0.000000 1.000000
vn -0.000000 0.000000 1.000000
vn -0.000000 0.000000 1.000000
vn -0.000000 0.000000 1.000000
vn -0.000000 0.000000 1.000000
vn -0.000000 0.000000 1.000000
vn 0.000000 0.000000 1.000000
vn 0.000000 0.000000 1.000000
vn 0.000000 0.000000 1.000000
vn 0.000000 0.000000 1.000000
vn 0.000000 0.000000 1.000000
vn 0.000000 0.000000 1.000000
vn 0.000000 0.000000 1.000000
vn 0.000000 0.000000 1.000000
vn 0.000000 0.000000 1.000000
vn 0.000000 0.000000 1.000000
vn 0.000000 0.000000 1.000000
vn 0.000000 0.000000 1.000000
vn 0.000000 0.000000 1.000000
vn 0.000000 0.000000 1.000000
vn 0.000000 0.000000 1.000000
vn 0.000000 0.000000 1.000000
vn 0.000000 0.000000 1.000000
vn 0.000000 0.000000 1.000000
vn 0.000000 0.000000 1.000000
vn 0.000000 0.000000 1.000000
vn 0.000000 0.000000 1.000000
vn 0.000000 0.000000 1.000000
vn 0.000000 0.000000 1.000000
vn 0.000000 0.000000 1.000000
vn 0.000000 0.000000 1.000000
vn 0.000000 0.000000 1.000000
vn 0.000000 0.000000 1.000000
vn 0.000000 0.000000 1.000000
vn 0.000000 0.000000 1.000000
vn 0.000000 0.000000 1.000000
vn 0.000000 0.000000 1.000000
vn -0.187601 0.869474 0.456969
vn -0.187601 0.869474 0.456969
vn -0.187601 0.869474 0.456969
vn -0.187601 0.869474 0.456969
vn -0.360397 -0.809889 0.462811
vn -0.360397 -0.809889 0.462811
vn -0.360397 -0.809889 0.462811
vn -0.360397 -0.809889 0.462811
vn -0.850625 -0.442924 0.283293
vn -0.850625 -0.442924 0.283293
vn -0.850625 -0.442924 0.283293
vn -0.850625 -0.442924 0.283293
vn -0.959010 -0.134101 0.249634
vn -0.959010 -0.134101 0.249634
vn -0.959010 -0.134101 0.249634
vn 0.234986 -0.662362 0.711377
vn 0.234986 -0.662362 0.711377
vn 0.234986 -0.662362 0.711377
vn 0.741387 -0.395047 0.542479
vn 0.741387 -0.395047 0.542479
vn 0.741387 -0.395047 0.542479
vn 0.741387 -0.395047 0.542479
vn 0.846904 0.149995 0.510152
vn 0.846904 0.149995 0.510152
vn 0.846904 0.149995 0.510152
vn 0.846904 0.149995 0.510152
vn 0.825479 -0.138003 0.547302
vn 0.825479 -0.138003 0.547302
vn 0.825479 -0.138003 0.547302
vn 0.825479 -0.138003 0.547302
vn 0.727416 -0.470095 0.499877
vn 0.727416 -0.470095 0.499877
vn 0.727416 -0.470095 0.499877
vn 0.727416 -0.470095 0.499877
vn 0.862540 -0.090235 0.497878
vn 0.862540 -0.090235 0.497878
vn 0.862540 -0.090235 0.497878
vn 0.862540 -0.090235 0.497878
vn 0.776685 0.356361 0.519391
vn 0.776685 0.356361 0.519391
vn 0.776685 0.356361 0.519391
vn 0.776685 0.356361 0.519391
vn 0.120976 0.842205 0.525411
vn 0.120976 0.842205 0.525411
vn 0.120976 0.842205 0.525411
vn 0.120976 0.842205 0.525411
vn -0.130210 0.843706 0.520775
vn -0.130210 0.843706 0.520775
vn -0.130210 0.843706 0.520775
vn -0.130210 0.843706 0.520775
vn -0.722906 0.413184 0.553792
vn -0.722906 0.413184 0.553792
vn -0.722906 0.413184 0.553792
vn -0.722906 0.413184 0.553792
vn -0.838733 -0.132335 0.528219
vn -0.838733 -0.132335 0.528219
vn -0.838733 -0.132335 0.528219
vn -0.838733 -0.132335 0.528219
vn -0.740833 -0.430990 0.515184
vn -0.740833 -0.430990 0.515184
vn -0.740833 -0.430990 0.515184
vn -0.740833 -0.430990 0.515184
vn -0.879928 -0.138436 0.454490
vn -0.879928 -0.138436 0.454490
vn -0.879928 -0.138436 0.454490
vn -0.879928 -0.138436 0.454490
vn -0.883726 0.083635 0.460472
vn -0.883726 0.083635 0.460472
vn -0.883726 0.083635 0.460472
vn -0.883726 0.083635 0.460472
vn -0.890647 -0.078768 0.447820
vn -0.890647 -0.078768 0.447820
vn -0.890647 -0.078768 0.447820
vn -0.890647 -0.078768 0.447820
vn -0.240114 -0.676816 0.695892
vn -0.240114 -0.676816 0.695892
vn -0.240114 -0.676816 0.695892
vn 0.922184 -0.128952 0.364620
vn 0.922184 -0.128952 0.364620
vn 0.922184 -0.128952 0.364620
vn 0.814373 -0.395841 0.424389
vn 0.814373 -0.395841 0.424389
vn 0.814373 -0.395841 0.424389
vn 0.814373 -0.395841 0.424389
vn 0.269300 -0.812302 0.517342
vn 0.269300 -0.812302 0.517342
vn 0.269300 -0.812302 0.517342
vn 0.269300 -0.812302 0.517342
vn 0.268477 0.846449 0.459830
vn 0.268477 0.846449 0.459830
vn 0.268477 0.846449 0.459830
vn 0.268477 0.846449 0.459830
vn -0.791461 -0.390573 0.470151
vn -0.791461 -0.390573 0.470151
vn -0.791461 -0.390573 0.470151
vn -0.791461 -0.390573 0.470151
vn 0.865510 -0.121851 0.485845
vn 0.865510 -0.121851 0.485845
vn 0.865510 -0.121851 0.485845
vn 0.865510 -0.121851 0.485845
vn 0.000000 0.000000 -1.000000
vn 0.000000 0.000000 -1.000000
vn 0.000000 0.000000 -1.000000
vn 0.000000 0.000000 -1.000000
vn 0.000000 0.000000 -1.000000
vn 0.000000 0.000000 -1.000000
vn 0.000000 0.000000 -1.000000
vn 0.000000 0.000000 -1.000000
vn 0.000000 0.000000 -1.000000
vn 0.000000 0.000000 -1.000000
vn 0.000000 0.000000 -1.000000
vn 0.000000 0.000000 -1.000000
vn 0.000000 0.000000 -1.000000
vn 0.000000 0.000000 -1.000000
vn -0.000000 0.000000 -1.000000
vn -0.000000 0.000000 -1.000000
vn -0.000000 0.000000 -1.000000
vn 0.000000 0.000000 -1.000000
vn 0.000000 0.000000 -1.000000
vn 0.000000 0.000000 -1.000000
vn 0.000000 0.000000 -1.000000
vn 0.000000 0.000000 -1.000000
vn 0.000000 0.000000 -1.000000
vn 0.000000 0.000000 -1.000000
vn 0.000000 0.000000 -1.000000
vn 0.000000 0.000000 -1.000000
vn 0.000000 0.000000 -1.000000
vn 0.000000 0.000000 -1.000000
vn -0.000000 0.000000 -1.000000
vn -0.000000 0.000000 -1.000000
vn -0.000000 0.000000 -1.000000
vn 0.000000 0.000000 -1.000000
vn 0.000000 0.000000 -1.000000
vn 0.000000 0.000000 -1.000000
vn 0.000000 0.000000 -1.000000
vn 0.000000 0.000000 -1.000000
vn 0.000000 0.000000 -1.000000
vn 0.000000 0.000000 -1.000000
vn 0.000000 0.000000 -1.000000
vn 0.000000 0.000000 -1.000000
vn 0.000000 0.000000 -1.000000
vn 0.000000 0.000000 -1.000000
vn 0.000000 0.000000 -1.000000
vn 0.000000 0.000000 -1.000000
vn 0.000000 0.000000 -1.000000
vn 0.000000 0.000000 -1.000000
vn 0.000000 0.000000 -1.000000
vn 0.000000 0.000000 -1.000000
vn -0.187601 0.869474 -0.456969
vn -0.187601 0.869474 -0.456969
vn -0.187601 0.869474 -0.456969
vn -0.187601 0.869474 -0.456969
vn -0.360397 -0.809889 -0.462811
vn -0.360397 -0.809889 -0.462811
vn -0.360397 -0.809889 -0.462811
vn -0.360397 -0.809889 -0.462811
vn -0.850625 -0.442924 -0.283294
vn -0.850625 -0.442924 -0.283294
vn -0.850625 -0.442924 -0.283294
vn -0.850625 -0.442924 -0.283294
vn -0.959010 -0.134101 -0.249634
vn -0.959010 -0.134101 -0.249634
vn -0.959010 -0.134101 -0.249634
vn 0.234986 -0.662363 -0.711377
vn 0.234986 -0.662363 -0.711377
vn 0.234986 -0.662363 -0.711377
vn 0.741387 -0.395047 -0.542479
vn 0.741387 -0.395047 -0.542479
vn 0.741387 -0.395047 -0.542479
vn 0.741387 -0.395047 -0.542479
vn 0.846904 0.149995 -0.510152
vn 0.846904 0.149995 -0.510152
vn 0.846904 0.149995 -0.510152
vn 0.846904 0.149995 -0.510152
vn 0.825479 -0.138003 -0.547302
vn 0.825479 -0.138003 -0.547302
vn 0.825479 -0.138003 -0.547302
vn 0.825479 -0.138003 -0.547302
vn 0.727416 -0.470095 -0.499877
vn 0.727416 -0.470095 -0.499877
vn 0.727416 -0.470095 -0.499877
vn 0.727416 -0.470095 -0.499877
vn 0.862540 -0.090235 -0.497878
vn 0.862540 -0.090235 -0.497878
vn 0.862540 -0.090235 -0.497878
vn 0.862540 -0.090235 -0.497878
vn 0.776685 0.356361 -0.519391
vn 0.776685 0.356361 -0.519391
vn 0.776685 0.356361 -0.519391
vn 0.776685 0.356361 -0.519391
vn 0.120976 0.842205 -0.525411
vn 0.120976 0.842205 -0.525411
vn 0.120976 0.842205 -0.525411
vn 0.120976 0.842205 -0.525411
vn -0.130210 0.843706 -0.520775
vn -0.130210 0.843706 -0.520775
vn -0.130210 0.843706 -0.520775
vn -0.130210 0.843706 -0.520775
vn -0.722906 0.413184 -0.553792
vn -0.722906 0.413184 -0.553792
vn -0.722906 0.413184 -0.553792
vn -0.722906 0.413184 -0.553792
vn -0.838733 -0.132335 -0.528219
vn -0.838733 -0.132335 -0.528219
vn -0.838733 -0.132335 -0.528219
vn -0.838733 -0.132335 -0.528219
vn -0.740833 -0.430990 -0.515184
vn -0.740833 -0.430990 -0.515184
vn -0.740833 -0.430990 -0.515184
vn -0.740833 -0.430990 -0.515184
vn -0.879929 -0.138436 -0.454490
vn -0.879929 -0.138436 -0.454490
vn -0.879929 -0.138436 -0.454490
vn -0.879929 -0.138436 -0.454490
vn -0.883726 0.083635 -0.460472
vn -0.883726 0.083635 -0.460472
vn -0.883726 0.083635 -0.460472
vn -0.883726 0.083635 -0.460472
vn -0.890647 -0.078768 -0.447820
vn -0.890647 -0.078768 -0.447820
vn -0.890647 -0.078768 -0.447820
vn -0.890647 -0.078768 -0.447820
vn -0.240114 -0.676816 -0.695892
vn -0.240114 -0.676816 -0.695892
vn -0.240114 -0.676816 -0.695892
vn 0.922184 -0.128952 -0.364620
vn 0.922184 -0.128952 -0.364620
vn 0.922184 -0.128952 -0.364620
vn 0.814373 -0.395841 -0.424389
vn 0.814373 -0.395841 -0.424389
vn 0.814373 -0.395841 -0.424389
vn 0.814373 -0.395841 -0.424389
vn 0.269300 -0.812302 -0.517342
vn 0.269300 -0.812302 -0.517342
vn 0.269300 -0.812302 -0.517342
vn 0.269300 -0.812302 -0.517342
vn 0.268477 0.846449 -0.459830
vn 0.268477 0.846449 -0.459830
vn 0.268477 0.846449 -0.459830
vn 0.268477 0.846449 -0.459830
vn -0.791461 -0.390573 -0.470151
vn -0.791461 -0.390573 -0.470151
vn -0.791461 -0.390573 -0.470151
vn -0.791461 -0.390573 -0.470151
vn 0.865510 -0.121851 -0.485845
vn 0.865510 -0.121851 -0.485845
vn 0.865510 -0.121851 -0.485845
vn 0.865510 -0.121851 -0.485845
s off
f 30/32/1 31/33/2 48/52/3 32/34/4
f 32/34/5 33/35/6 30/32/7
f 28/30/8 29/31/9 30/32/10
f 28/30/11 30/32/12 33/35/13 34/36/14
f 34/36/15 35/37/16 28/30/17
f 28/30/18 35/37/19 36/38/20 27/29/21
f 27/29/22 36/38/23 37/39/24
f 47/51/25 45/47/26 46/48/27 44/46/28
f 44/46/29 46/48/30 43/45/31
f 29/49/32 28/50/33 46/48/34
f 43/45/35 46/48/36 28/50/37 42/44/38
f 42/44/39 28/50/40 41/43/41
f 40/42/42 41/43/43 28/50/44 38/40/45
f 40/42/46 38/40/47 39/41/48
f 3/3/49 2/2/50 28/30/51 27/29/52
f 1/1/53 13/13/54 30/32/55 29/31/56
f 13/13/57 12/12/58 31/33/59 30/32/60
f 12/12/61 4/4/62 31/33/63
f 4/4/64 14/14/65 31/33/66
f 31/33/67 14/14/68 11/11/69 48/52/70
f 10/10/71 9/9/72 33/35/73 32/34/74
f 9/9/75 8/8/76 34/36/77 33/35/78
f 8/8/79 7/7/80 35/37/81 34/36/82
f 7/7/83 6/6/84 36/38/85 35/37/86
f 6/6/87 5/5/88 37/39/89 36/38/90
f 5/5/91 3/3/92 27/29/93 37/39/94
f 15/15/95 17/28/96 39/41/97 38/40/98
f 17/28/99 18/27/100 40/42/101 39/41/102
f 18/27/103 19/26/104 41/43/105 40/42/106
f 19/26/107 20/25/108 42/44/109 41/43/110
f 20/25/111 21/24/112 43/45/113 42/44/114
f 21/24/115 22/23/116 44/46/117 43/45/118
f 22/23/119 23/22/120 47/51/121 44/46/122
f 26/21/123 16/20/124 45/47/125
f 16/20/126 24/19/127 45/47/128
f 24/19/129 25/18/130 46/48/131 45/47/132
f 25/18/133 1/17/134 29/49/135 46/48/136
f 2/16/137 15/15/138 38/40/139 28/50/140
f 45/47/141 47/51/142 23/22/143 26/21/144
f 11/11/145 10/10/146 32/34/147 48/52/148
f 52/53/149 54/56/150 70/55/151 53/54/152
f 54/56/153 52/53/154 55/57/155
f 50/58/156 52/53/157 51/59/158
f 50/58/159 56/60/160 55/57/161 52/53/162
f 56/60/163 50/58/164 57/61/165
f 50/58/166 49/62/167 58/63/168 57/61/169
f 49/62/170 59/64/171 58/63/172
f 69/65/173 66/68/174 68/67/175 67/66/176
f 66/68/177 65/69/178 68/67/179
f 51/70/180 68/67/181 50/71/182
f 65/69/183 64/72/184 50/71/185 68/67/186
f 64/72/187 63/73/188 50/71/189
f 62/75/190 60/74/191 50/71/192 63/73/193
f 62/75/194 61/76/195 60/74/196
f 3/77/197 49/62/198 50/58/199 2/78/200
f 1/79/201 51/59/202 52/53/203 13/80/204
f 13/80/205 52/53/206 53/54/207 12/81/208
f 12/81/209 53/54/210 4/82/211
f 4/82/212 53/54/213 14/83/214
f 53/54/215 70/55/216 11/84/217 14/83/218
f 10/85/219 54/56/220 55/57/221 9/86/222
f 9/86/223 55/57/224 56/60/225 8/87/226
f 8/87/227 56/60/228 57/61/229 7/88/230
f 7/88/231 57/61/232 58/63/233 6/89/234
f 6/89/235 58/63/236 59/64/237 5/90/238
f 5/90/239 59/64/240 49/62/241 3/77/242
f 15/91/243 60/74/244 61/76/245 17/92/246
f 17/92/247 61/76/248 62/75/249 18/93/250
f 18/93/251 62/75/252 63/73/253 19/94/254
f 19/94/255 63/73/256 64/72/257 20/95/258
f 20/95/259 64/72/260 65/69/261 21/96/262
f 21/96/263 65/69/264 66/68/265 22/97/266
f 22/97/267 66/68/268 69/65/269 23/98/270
f 26/99/271 67/66/272 16/100/273
f 16/100/274 67/66/275 24/101/276
f 24/101/277 67/66/278 68/67/279 25/102/280
f 25/102/281 68/67/282 51/70/283 1/103/284
f 2/104/285 50/71/286 60/74/287 15/91/288
f 67/66/289 26/99/290 23/98/291 69/65/292
f 11/84/293 70/55/294 54/56/295 10/85/296
