# This file uses centimeters as units for non-parametric coordinates.

v -5.027039 18.008789 4.000000
v -11.484177 18.008789 4.000000
v -11.546982 -17.967911 4.000000
v -5.910812 -16.537613 4.000000
v -4.052979 -2.163483 4.000000
v 3.051117 -17.867493 4.000000
v 11.252457 -18.263580 4.000000
v 1.604431 -0.054123 4.000000
v 11.295059 18.229027 4.000000
v 3.482529 16.359085 4.000000
v -4.062500 2.246933 4.000000
v -12.486465 19.011063 -0.000000
v -4.024750 19.011063 0.000000
v -12.486465 -19.011063 0.000000
v -8.448792 -19.011063 -0.000000
v -4.467148 -18.139618 -0.000000
v -4.024750 -4.354706 -0.000000
v 2.260162 -19.011063 -0.000000
v 12.486465 -19.011063 -0.000000
v 2.579742 -0.053009 -0.000000
v 12.486465 19.011063 -0.000000
v 7.606781 19.011063 -0.000000
v 2.466217 18.143974 0.000000
v -4.024750 4.437767 0.000000
v -5.027039 18.008789 -4.000000
v -11.484177 18.008789 -4.000000
v -11.546982 -17.967911 -4.000000
v -5.910812 -16.537613 -4.000000
v -4.052979 -2.163483 -4.000000
v 3.051117 -17.867493 -4.000000
v 11.252457 -18.263580 -4.000000
v 1.604431 -0.054123 -4.000000
v 11.295059 18.229027 -4.000000
v 3.482529 16.359085 -4.000000
v -4.062500 2.246933 -4.000000
vt 0.012945 0.957631
vt 0.012891 0.957629
vt 0.012949 0.957866
vt 0.012901 0.957854
vt 0.012894 0.957762
vt 0.012857 0.957863
vt 0.012793 0.957860
vt 0.012852 0.957746
vt 0.012787 0.957626
vt 0.012849 0.957638
vt 0.012893 0.957732
vt 0.012948 0.957627
vt 0.012895 0.957625
vt 0.012952 0.957862
vt 0.012927 0.957861
vt 0.012902 0.957854
vt 0.012897 0.957757
vt 0.012860 0.957858
vt 0.012796 0.957856
vt 0.012855 0.957742
vt 0.012791 0.957622
vt 0.012821 0.957623
vt 0.012854 0.957629
vt 0.012897 0.957728
vt 0.012949 0.957866
vt 0.012927 0.957861
vt 0.012902 0.957854
vt 0.012901 0.957854
vt 0.012787 0.957626
vt 0.012821 0.957623
vt 0.012854 0.957629
vt 0.012849 0.957638
vt 0.012852 0.957746
vt 0.012893 0.957732
vt 0.012857 0.957863
vt 0.012793 0.957860
vt 0.012894 0.957762
vt 0.012945 0.957631
vt 0.012891 0.957629
vt 0.012895 0.957625
vt 0.012948 0.957627
vt 0.012952 0.957862
vt 0.012897 0.957757
vt 0.012860 0.957858
vt 0.012796 0.957856
vt 0.012855 0.957742
vt 0.012791 0.957622
vt 0.012897 0.957728
vn 0.211953 -0.885646 0.413167
vn 0.211953 -0.885646 0.413167
vn 0.211953 -0.885646 0.413167
vn 0.211953 -0.885646 0.413167
vn -0.189543 0.897019 0.399288
vn -0.189543 0.897019 0.399288
vn -0.189543 0.897019 0.399288
vn -0.189543 0.897019 0.399288
vn 0.000000 0.000000 1.000000
vn 0.000000 0.000000 1.000000
vn 0.000000 0.000000 1.000000
vn 0.000000 0.000000 1.000000
vn 0.000000 0.000000 1.000000
vn 0.000000 0.000000 1.000000
vn 0.000000 0.000000 1.000000
vn 0.000000 0.000000 1.000000
vn 0.000000 0.000000 1.000000
vn 0.000000 0.000000 1.000000
vn 0.000000 0.000000 1.000000
vn 0.000000 0.000000 1.000000
vn 0.000000 0.000000 1.000000
vn 0.000000 0.000000 1.000000
vn 0.000000 0.000000 1.000000
vn 0.000000 0.000000 1.000000
vn 0.000000 0.000000 1.000000
vn 0.000000 0.000000 1.000000
vn 0.000000 0.000000 1.000000
vn 0.000000 0.970013 0.243055
vn 0.000000 0.970013 0.243055
vn 0.000000 0.970013 0.243055
vn 0.000000 0.970013 0.243055
vn -0.971785 0.000825 0.235869
vn -0.971785 0.000825 0.235869
vn -0.971785 0.000825 0.235869
vn -0.971785 0.000825 0.235869
vn 0.972996 -0.079481 0.216705
vn 0.972996 -0.079481 0.216705
vn 0.972996 -0.079481 0.216705
vn 0.972996 -0.079481 0.216705
vn -0.886512 -0.390954 0.247490
vn -0.886512 -0.390954 0.247490
vn -0.886512 -0.390954 0.247490
vn -0.886512 -0.390954 0.247490
vn -0.020919 -0.973226 0.228894
vn -0.020919 -0.973226 0.228894
vn -0.020919 -0.973226 0.228894
vn -0.020919 -0.973226 0.228894
vn 0.867641 0.456487 0.197024
vn 0.867641 0.456487 0.197024
vn 0.867641 0.456487 0.197024
vn 0.867641 0.456487 0.197024
vn 0.869232 -0.456116 0.190772
vn 0.869232 -0.456116 0.190772
vn 0.869232 -0.456116 0.190772
vn 0.869232 -0.456116 0.190772
vn -0.847044 0.427384 0.316005
vn -0.847044 0.427384 0.316005
vn -0.847044 0.427384 0.316005
vn -0.847044 0.427384 0.316005
vn 0.989482 0.031462 0.141195
vn 0.989482 0.031462 0.141195
vn 0.989482 0.031462 0.141195
vn 0.989482 0.031462 0.141195
vn 0.000000 -0.967637 0.252348
vn 0.000000 -0.967637 0.252348
vn 0.000000 -0.967637 0.252348
vn 0.000000 0.981419 0.191877
vn 0.000000 0.981419 0.191877
vn 0.000000 0.981419 0.191877
vn 0.211953 -0.885646 -0.413167
vn 0.211953 -0.885646 -0.413167
vn 0.211953 -0.885646 -0.413167
vn 0.211953 -0.885646 -0.413167
vn -0.189543 0.897019 -0.399288
vn -0.189543 0.897019 -0.399288
vn -0.189543 0.897019 -0.399288
vn -0.189543 0.897019 -0.399288
vn 0.000000 0.000000 -1.000000
vn 0.000000 0.000000 -1.000000
vn 0.000000 0.000000 -1.000000
vn 0.000000 0.000000 -1.000000
vn 0.000000 0.000000 -1.000000
vn 0.000000 0.000000 -1.000000
vn 0.000000 0.000000 -1.000000
vn 0.000000 0.000000 -1.000000
vn 0.000000 0.000000 -1.000000
vn 0.000000 0.000000 -1.000000
vn 0.000000 0.000000 -1.000000
vn 0.000000 0.000000 -1.000000
vn 0.000000 0.000000 -1.000000
vn 0.000000 0.000000 -1.000000
vn 0.000000 0.000000 -1.000000
vn 0.000000 0.000000 -1.000000
vn 0.000000 0.000000 -1.000000
vn 0.000000 0.000000 -1.000000
vn 0.000000 0.000000 -1.000000
vn 0.000000 0.970013 -0.243055
vn 0.000000 0.970013 -0.243055
vn 0.000000 0.970013 -0.243055
vn 0.000000 0.970013 -0.243055
vn -0.971785 0.000825 -0.235869
vn -0.971785 0.000825 -0.235869
vn -0.971785 0.000825 -0.235869
vn -0.971785 0.000825 -0.235869
vn 0.972996 -0.079481 -0.216705
vn 0.972996 -0.079481 -0.216705
vn 0.972996 -0.079481 -0.216705
vn 0.972996 -0.079481 -0.216705
vn -0.886512 -0.390954 -0.247490
vn -0.886512 -0.390954 -0.247490
vn -0.886512 -0.390954 -0.247490
vn -0.886512 -0.390954 -0.247490
vn -0.020919 -0.973226 -0.228894
vn -0.020919 -0.973226 -0.228894
vn -0.020919 -0.973226 -0.228894
vn -0.020919 -0.973226 -0.228894
vn 0.867641 0.456487 -0.197024
vn 0.867641 0.456487 -0.197024
vn 0.867641 0.456487 -0.197024
vn 0.867641 0.456487 -0.197024
vn 0.869232 -0.456116 -0.190772
vn 0.869232 -0.456116 -0.190772
vn 0.869232 -0.456116 -0.190772
vn 0.869232 -0.456116 -0.190772
vn -0.847044 0.427384 -0.316005
vn -0.847044 0.427384 -0.316005
vn -0.847044 0.427384 -0.316005
vn -0.847044 0.427384 -0.316005
vn 0.989482 0.031462 -0.141195
vn 0.989482 0.031462 -0.141195
vn 0.989482 0.031462 -0.141195
vn 0.989482 0.031462 -0.141195
vn 0.000000 -0.967637 -0.252348
vn 0.000000 -0.967637 -0.252348
vn 0.000000 -0.967637 -0.252348
vn 0.000000 0.981419 -0.191877
vn 0.000000 0.981419 -0.191877
vn 0.000000 0.981419 -0.191877
s off
f 3/3/1 15/15/2 16/16/3 4/4/4
f 9/9/5 22/22/6 23/23/7 10/10/8
f 8/8/9 9/9/10 10/10/11 11/11/12
f 6/6/13 7/7/14 8/8/15 5/5/16
f 8/8/17 11/11/18 5/5/19
f 2/1/20 3/3/21 4/4/22 5/5/23
f 2/1/24 5/5/25 11/11/26 1/2/27
f 13/13/28 12/12/29 2/1/30 1/2/31
f 12/12/32 14/14/33 3/3/34 2/1/35
f 16/16/36 17/17/37 5/5/38 4/4/39
f 17/17/40 18/18/41 6/6/42 5/5/43
f 18/18/44 19/19/45 7/7/46 6/6/47
f 19/19/48 20/20/49 8/8/50 7/7/51
f 20/20/52 21/21/53 9/9/54 8/8/55
f 23/23/56 24/24/57 11/11/58 10/10/59
f 24/24/60 13/13/61 1/2/62 11/11/63
f 14/14/64 15/15/65 3/3/66
f 21/21/67 22/22/68 9/9/69
f 27/25/70 28/28/71 16/27/72 15/26/73
f 33/29/74 34/32/75 23/31/76 22/30/77
f 32/33/78 35/34/79 34/32/80 33/29/81
f 30/35/82 29/37/83 32/33/84 31/36/85
f 32/33/86 29/37/87 35/34/88
f 26/38/89 29/37/90 28/28/91 27/25/92
f 26/38/93 25/39/94 35/34/95 29/37/96
f 13/40/97 25/39/98 26/38/99 12/41/100
f 12/41/101 26/38/102 27/25/103 14/42/104
f 16/27/105 28/28/106 29/37/107 17/43/108
f 17/43/109 29/37/110 30/35/111 18/44/112
f 18/44/113 30/35/114 31/36/115 19/45/116
f 19/45/117 31/36/118 32/33/119 20/46/120
f 20/46/121 32/33/122 33/29/123 21/47/124
f 23/31/125 34/32/126 35/34/127 24/48/128
f 24/48/129 35/34/130 25/39/131 13/40/132
f 14/42/133 27/25/134 15/26/135
f 21/47/136 33/29/137 22/30/138
