# This file uses centimeters as units for non-parametric coordinates.

v 10.162834 10.162834 -0.000000
v -5.760900 -14.564770 -0.000000
v 18.479221 1.846449 -0.000000
v 1.846449 18.479223 0.000000
v -14.564769 -5.760900 0.000000
v 18.826984 -2.545204 0.000000
v 12.258438 4.023344 0.000000
v 4.023344 12.258436 -0.000000
v -2.545204 18.826986 -0.000000
v -6.737214 -16.400444 -0.000000
v -16.400446 -6.737214 0.000000
v -17.566580 -17.566580 -0.000000
v -18.875696 -15.950561 -0.000000
v -10.386363 -19.249899 0.000000
v -13.347046 -19.615492 0.000000
v -15.950560 -18.875692 0.000000
v -19.615490 -13.347045 -0.000000
v -19.249899 -10.386363 -0.000000
v -18.298504 -8.581759 -0.000000
v -8.581760 -18.298506 0.000000
v -6.134509 -14.191160 2.000000
v 18.056419 -1.774636 2.000000
v 17.376812 0.744041 4.000000
v -7.691550 -13.101824 4.000000
v 9.118683 9.118683 4.000000
v -10.396687 -10.396687 4.000000
v 3.532500 11.767592 2.000000
v -11.877660 -8.448009 2.000000
v 11.942120 3.707026 2.000000
v -8.448009 -11.877661 2.000000
v 0.702996 17.335768 4.000000
v -13.101823 -7.691551 4.000000
v -1.868039 18.149820 2.000000
v -14.261211 -6.064457 2.000000
v -14.006383 -10.122561 2.000000
v -12.124169 -12.004773 2.000000
v -8.739941 -15.389003 2.000000
v -7.637952 -16.490992 2.000000
v -10.241957 -13.886987 2.000000
v -15.508398 -8.620545 2.000000
v -16.584526 -7.544417 2.000000
v -18.630016 -15.704883 2.000000
v -17.359692 -17.359690 2.000000
v -8.897614 -17.982649 2.000000
v -15.691952 -18.617086 2.000000
v -19.343952 -13.075507 2.000000
v -13.077349 -19.290388 2.000000
v -17.978046 -8.902219 2.000000
v -18.888805 -10.747455 2.000000
v -10.718832 -18.917429 2.000000
v -11.901208 -8.892166 4.000000
v -12.986358 -9.683597 4.000000
v -11.334977 -11.334977 4.000000
v -6.534601 -14.258774 4.000000
v -8.365788 -14.304168 4.000000
v -7.287044 -15.382911 4.000000
v -8.892166 -11.901207 4.000000
v -9.618945 -12.921705 4.000000
v -14.304168 -8.365787 4.000000
v -14.336355 -6.612183 4.000000
v -15.330782 -7.339171 4.000000
v -6.134509 -14.191160 -2.000000
v 18.056419 -1.774636 -2.000000
v 17.376812 0.744041 -4.000000
v -7.691550 -13.101824 -4.000000
v 9.118683 9.118683 -4.000000
v -10.396687 -10.396687 -4.000000
v 3.532500 11.767592 -2.000000
v -11.877660 -8.448009 -2.000000
v 11.942120 3.707026 -2.000000
v -8.448009 -11.877661 -2.000000
v 0.702996 17.335768 -4.000000
v -13.101823 -7.691551 -4.000000
v -1.868039 18.149820 -2.000000
v -14.261211 -6.064457 -2.000000
v -13.451043 -9.686618 -2.000000
v -11.568830 -11.568830 -2.000000
v -8.184601 -14.953059 -2.000000
v -7.082613 -16.055046 -2.000000
v -9.686617 -13.451043 -2.000000
v -14.953058 -8.184602 -2.000000
v -16.029186 -7.108474 -2.000000
v -18.630016 -15.704883 -2.000000
v -17.359692 -17.359690 -2.000000
v -8.897614 -17.982649 -2.000000
v -15.691952 -18.617086 -2.000000
v -19.343952 -13.075507 -2.000000
v -13.077349 -19.290388 -2.000000
v -17.978046 -8.902219 -2.000000
v -18.888805 -10.747455 -2.000000
v -10.718832 -18.917429 -2.000000
v -11.901208 -8.892166 -4.000000
v -12.986358 -9.683597 -4.000000
v -11.334977 -11.334977 -4.000000
v -6.534601 -14.258774 -4.000000
v -8.365788 -14.304168 -4.000000
v -7.287044 -15.382911 -4.000000
v -8.892166 -11.901207 -4.000000
v -9.618945 -12.921705 -4.000000
v -14.304168 -8.365787 -4.000000
v -14.336355 -6.612183 -4.000000
v -15.330782 -7.339171 -4.000000
vt 0.986044 0.989573
vt 0.985459 0.987683
vt 0.985618 0.987588
vt 0.986175 0.989597
vt 0.986444 0.989597
vt 0.986444 0.987582
vt 0.986853 0.987733
vt 0.986614 0.989573
vt 0.986274 0.989573
vt 0.986035 0.987715
vt 0.987270 0.987592
vt 0.986713 0.989597
vt 0.987438 0.987683
vt 0.986851 0.989573
vt 0.987449 0.890417
vt 0.986660 0.890417
vt 0.986583 0.887035
vt 0.981375 0.949334
vt 0.987449 0.887035
vt 0.989474 0.890417
vt 0.988868 0.890417
vt 0.989006 0.887035
vt 0.989672 0.887035
vt 0.988238 0.890417
vt 0.988315 0.887035
vt 0.982145 0.949203
vt 0.986030 0.890417
vt 0.985892 0.887035
vt 0.985424 0.890417
vt 0.982145 0.949203
vt 0.985226 0.887035
vt 0.989983 0.886192
vt 0.989758 0.891260
vt 0.981375 0.949334
vt 0.989758 0.891260
vt 0.989983 0.886192
vt 0.985141 0.891260
vt 0.984706 0.952726
vt 0.984692 0.954324
vt 0.984692 0.954324
vt 0.984706 0.952726
vt 0.982916 0.949334
vt 0.982916 0.949334
vt 0.980493 0.950129
vt 0.980493 0.950129
vt 0.983797 0.950129
vt 0.983797 0.950129
vt 0.979585 0.952726
vt 0.979810 0.951549
vt 0.979810 0.951549
vt 0.979585 0.952726
vt 0.979599 0.954324
vt 0.979599 0.954324
vt 0.984481 0.951549
vt 0.986007 0.989573
vt 0.985382 0.987683
vt 0.985618 0.987474
vt 0.986444 0.987474
vt 0.986853 0.987683
vt 0.986035 0.987683
vt 0.987270 0.987474
vt 0.987505 0.987683
vt 0.986881 0.989573
vt 0.984481 0.951549
vt 0.984915 0.886192
vt 0.984915 0.886192
vt 0.985141 0.891260
vt 0.983929 0.954324
vt 0.981153 0.954324
vt 0.982145 0.954324
vt 0.980362 0.954324
vt 0.983137 0.954324
vt 0.988348 0.891260
vt 0.989224 0.886192
vt 0.987449 0.886192
vt 0.986462 0.886192
vt 0.986550 0.891260
vt 0.988436 0.886192
vt 0.985674 0.886192
vt 0.986044 0.989573
vt 0.985459 0.987683
vt 0.985618 0.987588
vt 0.986175 0.989597
vt 0.986444 0.989597
vt 0.986444 0.987582
vt 0.986853 0.987733
vt 0.986614 0.989573
vt 0.986274 0.989573
vt 0.986035 0.987715
vt 0.987270 0.987592
vt 0.986713 0.989597
vt 0.987438 0.987683
vt 0.986851 0.989573
vt 0.987449 0.890417
vt 0.986660 0.890417
vt 0.986583 0.887035
vt 0.987449 0.887035
vt 0.989474 0.890417
vt 0.988868 0.890417
vt 0.989006 0.887035
vt 0.989672 0.887035
vt 0.988238 0.890417
vt 0.988315 0.887035
vt 0.986030 0.890417
vt 0.985892 0.887035
vt 0.985424 0.890417
vt 0.985226 0.887035
vt 0.986007 0.989573
vt 0.985382 0.987683
vt 0.985618 0.987474
vt 0.986444 0.987474
vt 0.986853 0.987683
vt 0.986035 0.987683
vt 0.987270 0.987474
vt 0.987505 0.987683
vt 0.986881 0.989573
vt 0.989983 0.886192
vt 0.989758 0.891260
vt 0.989758 0.891260
vt 0.989983 0.886192
vt 0.985141 0.891260
vt 0.984915 0.886192
vt 0.984915 0.886192
vt 0.985141 0.891260
vt 0.981375 0.949334
vt 0.982145 0.949203
vt 0.982145 0.949203
vt 0.981375 0.949334
vt 0.984706 0.952726
vt 0.984692 0.954324
vt 0.984692 0.954324
vt 0.984706 0.952726
vt 0.982916 0.949334
vt 0.982916 0.949334
vt 0.980493 0.950129
vt 0.980493 0.950129
vt 0.983797 0.950129
vt 0.983797 0.950129
vt 0.979585 0.952726
vt 0.979810 0.951549
vt 0.979810 0.951549
vt 0.979585 0.952726
vt 0.979599 0.954324
vt 0.979599 0.954324
vt 0.984481 0.951549
vt 0.984481 0.951549
vt 0.986550 0.891260
vt 0.986462 0.886192
vt 0.987449 0.886192
vt 0.989224 0.886192
vt 0.988348 0.891260
vt 0.988436 0.886192
vt 0.985674 0.886192
vt 0.983929 0.954324
vt 0.981153 0.954324
vt 0.982145 0.954324
vt 0.980362 0.954324
vt 0.983137 0.954324
vn 0.322998 -0.605835 0.727073
vn 0.322998 -0.605835 0.727073
vn 0.322998 -0.605835 0.727073
vn 0.322998 -0.605835 0.727073
vn -0.324693 0.285421 0.901726
vn -0.324693 0.285421 0.901726
vn -0.324693 0.285421 0.901726
vn -0.324693 0.285421 0.901726
vn 0.285968 -0.325119 0.901399
vn 0.285968 -0.325119 0.901399
vn 0.285968 -0.325119 0.901399
vn 0.285968 -0.325119 0.901399
vn 0.424252 -0.273955 0.863110
vn 0.424252 -0.273955 0.863110
vn 0.424252 -0.273955 0.863110
vn 0.424252 -0.273955 0.863110
vn -0.273171 0.421940 0.864491
vn -0.273171 0.421940 0.864491
vn -0.273171 0.421940 0.864491
vn -0.273171 0.421940 0.864491
vn -0.590915 0.314384 0.742955
vn -0.590915 0.314384 0.742955
vn -0.590915 0.314384 0.742955
vn -0.590915 0.314384 0.742955
vn 0.000000 0.000000 1.000000
vn 0.000000 0.000000 1.000000
vn 0.000000 0.000000 1.000000
vn 0.000000 0.000000 1.000000
vn 0.000000 0.000000 1.000000
vn 0.000000 0.000000 1.000000
vn 0.000000 0.000000 1.000000
vn 0.000000 0.000000 1.000000
vn 0.000000 0.000000 1.000000
vn 0.000000 0.000000 1.000000
vn 0.000000 0.000000 1.000000
vn 0.000000 0.000000 1.000000
vn 0.000000 0.000000 1.000000
vn 0.000000 0.000000 1.000000
vn 0.000000 0.000000 1.000000
vn 0.000000 0.000000 1.000000
vn 0.000000 0.000000 1.000000
vn 0.000000 0.000000 1.000000
vn 0.000000 0.000000 1.000000
vn 0.000000 0.000000 1.000000
vn 0.000000 0.000000 1.000000
vn 0.000000 0.000000 1.000000
vn 0.000000 0.000000 1.000000
vn 0.000000 0.000000 1.000000
vn 0.418148 -0.834699 0.358370
vn 0.418148 -0.834699 0.358370
vn 0.418148 -0.834699 0.358370
vn 0.418148 -0.834699 0.358370
vn 0.952280 0.054667 0.300290
vn 0.952280 0.054667 0.300290
vn 0.952280 0.054667 0.300290
vn 0.952280 0.054667 0.300290
vn 0.310849 0.898678 0.309436
vn 0.310849 0.898678 0.309436
vn 0.310849 0.898678 0.309436
vn 0.310849 0.898678 0.309436
vn 0.899788 0.334708 0.279916
vn 0.899788 0.334708 0.279916
vn 0.899788 0.334708 0.279916
vn 0.899788 0.334708 0.279916
vn 0.887903 0.321192 0.329337
vn 0.887903 0.321192 0.329337
vn 0.887903 0.321192 0.329337
vn 0.887903 0.321192 0.329337
vn 0.343448 0.892542 0.292255
vn 0.343448 0.892542 0.292255
vn 0.343448 0.892542 0.292255
vn 0.343448 0.892542 0.292255
vn 0.074271 0.952655 0.294842
vn 0.074271 0.952655 0.294842
vn 0.074271 0.952655 0.294842
vn 0.074271 0.952655 0.294842
vn -0.849554 0.424980 0.312491
vn -0.849554 0.424980 0.312491
vn -0.849554 0.424980 0.312491
vn -0.849554 0.424980 0.312491
vn 0.867718 -0.490864 0.078222
vn 0.870469 -0.489300 0.053558
vn 0.819263 -0.491252 0.295770
vn 0.819263 -0.491252 0.295770
vn -0.499325 0.865854 0.031174
vn -0.499768 0.864435 0.054627
vn -0.492843 0.834487 0.246450
vn -0.492843 0.834487 0.246450
vn -0.785208 -0.619232 -0.000000
vn -0.785208 -0.619232 -0.000000
vn -0.775479 -0.611559 0.156932
vn -0.775479 -0.611559 0.156932
vn 0.729567 -0.683902 -0.003192
vn 0.728370 -0.684469 -0.031302
vn 0.713343 -0.653259 0.253759
vn 0.713343 -0.653259 0.253759
vn -0.615804 -0.787899 0.000000
vn -0.615804 -0.787899 0.000000
vn -0.607749 -0.777593 0.161218
vn -0.607749 -0.777593 0.161218
vn -0.963511 -0.267669 -0.000000
vn -0.963511 -0.267669 -0.000000
vn -0.951529 -0.264340 0.157217
vn -0.951529 -0.264340 0.157217
vn -0.261392 -0.965233 0.000000
vn -0.261392 -0.965233 0.000000
vn -0.257462 -0.950723 0.172741
vn -0.257462 -0.950723 0.172741
vn -0.890763 0.454468 -0.000000
vn -0.890763 0.454468 -0.000000
vn -0.868247 0.442981 0.223417
vn -0.868247 0.442981 0.223417
vn -0.988172 0.153351 0.000000
vn -0.988172 0.153351 0.000000
vn -0.975804 0.151431 0.157721
vn -0.975804 0.151431 0.157721
vn -0.690317 0.721553 -0.053138
vn -0.691649 0.721765 -0.026014
vn -0.680194 0.699148 0.220291
vn -0.680194 0.699148 0.220291
vn 0.137527 -0.990498 -0.000000
vn 0.137527 -0.990498 -0.000000
vn 0.135693 -0.977286 0.162789
vn 0.135693 -0.977286 0.162789
vn 0.461497 -0.887142 0.000000
vn 0.461497 -0.887142 0.000000
vn 0.450851 -0.866678 0.213547
vn 0.450851 -0.866678 0.213547
vn 0.697633 0.697634 0.163143
vn 0.697633 0.697634 0.163143
vn 0.697633 0.697634 0.163143
vn -0.628426 -0.628426 0.458433
vn -0.628426 -0.628426 0.458433
vn -0.628426 -0.628426 0.458433
vn -0.628426 -0.628426 0.458433
vn 0.697633 0.697633 0.163144
vn 0.697633 0.697633 0.163144
vn 0.697633 0.697633 0.163144
vn -0.628426 -0.628426 0.458433
vn -0.628426 -0.628426 0.458433
vn -0.628426 -0.628426 0.458433
vn -0.628426 -0.628426 0.458433
vn 0.825398 -0.543815 0.151604
vn 0.825398 -0.543815 0.151604
vn 0.825398 -0.543815 0.151604
vn 0.825398 -0.543815 0.151604
vn 0.697633 0.697633 0.163143
vn 0.697633 0.697633 0.163143
vn 0.697633 0.697633 0.163143
vn -0.610875 -0.633645 0.474685
vn -0.610875 -0.633645 0.474685
vn -0.610875 -0.633645 0.474685
vn -0.610875 -0.633645 0.474685
vn 0.697633 0.697633 0.163143
vn 0.697633 0.697633 0.163143
vn 0.697633 0.697633 0.163143
vn -0.628426 -0.628426 0.458434
vn -0.628426 -0.628426 0.458434
vn -0.628426 -0.628426 0.458434
vn -0.628426 -0.628426 0.458434
vn 0.697634 0.697633 0.163142
vn 0.697634 0.697633 0.163142
vn 0.697634 0.697633 0.163142
vn -0.637804 -0.609213 0.471239
vn -0.637804 -0.609213 0.471239
vn -0.637804 -0.609213 0.471239
vn -0.637804 -0.609213 0.471239
vn 0.641337 0.733532 0.224984
vn 0.641337 0.733532 0.224984
vn 0.641337 0.733532 0.224984
vn -0.539227 0.810628 0.228289
vn -0.539227 0.810628 0.228289
vn -0.539227 0.810628 0.228289
vn -0.539227 0.810628 0.228289
vn -0.628426 -0.628426 0.458434
vn -0.628426 -0.628426 0.458434
vn -0.628426 -0.628426 0.458434
vn -0.628426 -0.628426 0.458434
vn 0.000000 0.000000 1.000000
vn 0.000000 0.000000 1.000000
vn 0.000000 0.000000 1.000000
vn 0.000000 0.000000 1.000000
vn 0.000000 0.000000 1.000000
vn 0.000000 0.000000 1.000000
vn 0.000000 0.000000 1.000000
vn 0.000000 0.000000 1.000000
vn 0.000000 0.000000 1.000000
vn 0.000000 0.000000 1.000000
vn 0.000000 0.000000 1.000000
vn 0.000000 0.000000 1.000000
vn 0.000000 0.000000 1.000000
vn 0.000000 0.000000 1.000000
vn 0.000000 0.000000 1.000000
vn 0.000000 0.000000 1.000000
vn 0.000000 0.000000 1.000000
vn 0.000000 0.000000 1.000000
vn 0.000000 0.000000 1.000000
vn 0.000000 0.000000 1.000000
vn 0.000000 0.000000 1.000000
vn 0.000000 0.000000 1.000000
vn 0.000000 0.000000 1.000000
vn 0.000000 0.000000 1.000000
vn 0.000000 0.000000 1.000000
vn 0.000000 0.000000 1.000000
vn 0.000000 0.000000 1.000000
vn 0.000000 0.000000 1.000000
vn 0.000000 0.000000 1.000000
vn 0.000000 0.000000 1.000000
vn 0.322998 -0.605835 -0.727074
vn 0.322998 -0.605835 -0.727073
vn 0.322998 -0.605835 -0.727073
vn 0.322998 -0.605835 -0.727073
vn -0.324693 0.285421 -0.901726
vn -0.324693 0.285421 -0.901726
vn -0.324693 0.285421 -0.901726
vn -0.324693 0.285421 -0.901726
vn 0.285968 -0.325119 -0.901399
vn 0.285968 -0.325119 -0.901399
vn 0.285968 -0.325119 -0.901399
vn 0.285968 -0.325119 -0.901399
vn 0.424252 -0.273955 -0.863110
vn 0.424252 -0.273955 -0.863110
vn 0.424252 -0.273955 -0.863110
vn 0.424252 -0.273955 -0.863110
vn -0.273170 0.421940 -0.864491
vn -0.273170 0.421940 -0.864491
vn -0.273171 0.421940 -0.864491
vn -0.273170 0.421940 -0.864491
vn -0.590915 0.314384 -0.742955
vn -0.590915 0.314384 -0.742955
vn -0.590915 0.314384 -0.742955
vn -0.590915 0.314384 -0.742955
vn 0.000000 0.000000 -1.000000
vn 0.000000 0.000000 -1.000000
vn 0.000000 0.000000 -1.000000
vn 0.000000 0.000000 -1.000000
vn 0.000000 0.000000 -1.000000
vn 0.000000 0.000000 -1.000000
vn 0.000000 0.000000 -1.000000
vn 0.000000 0.000000 -1.000000
vn 0.000000 0.000000 -1.000000
vn 0.000000 0.000000 -1.000000
vn 0.000000 0.000000 -1.000000
vn 0.000000 0.000000 -1.000000
vn 0.000000 0.000000 -1.000000
vn 0.000000 0.000000 -1.000000
vn 0.000000 0.000000 -1.000000
vn 0.000000 0.000000 -1.000000
vn 0.000000 0.000000 -1.000000
vn 0.000000 0.000000 -1.000000
vn 0.000000 0.000000 -1.000000
vn 0.000000 0.000000 -1.000000
vn 0.000000 0.000000 -1.000000
vn 0.000000 0.000000 -1.000000
vn 0.000000 0.000000 -1.000000
vn 0.000000 0.000000 -1.000000
vn 0.418148 -0.834699 -0.358370
vn 0.418148 -0.834699 -0.358370
vn 0.418148 -0.834699 -0.358370
vn 0.418148 -0.834699 -0.358370
vn 0.952280 0.054667 -0.300290
vn 0.952280 0.054667 -0.300290
vn 0.952280 0.054667 -0.300290
vn 0.952280 0.054667 -0.300290
vn 0.310849 0.898678 -0.309436
vn 0.310849 0.898678 -0.309436
vn 0.310849 0.898678 -0.309436
vn 0.310849 0.898678 -0.309436
vn 0.899788 0.334708 -0.279916
vn 0.899788 0.334708 -0.279916
vn 0.899788 0.334708 -0.279916
vn 0.899788 0.334708 -0.279916
vn 0.887903 0.321192 -0.329337
vn 0.887903 0.321192 -0.329337
vn 0.887903 0.321192 -0.329337
vn 0.887903 0.321192 -0.329337
vn 0.343448 0.892542 -0.292255
vn 0.343448 0.892542 -0.292255
vn 0.343448 0.892542 -0.292255
vn 0.343448 0.892542 -0.292255
vn 0.074271 0.952655 -0.294842
vn 0.074271 0.952655 -0.294842
vn 0.074271 0.952655 -0.294842
vn 0.074271 0.952655 -0.294842
vn -0.849554 0.424980 -0.312491
vn -0.849554 0.424980 -0.312491
vn -0.849554 0.424980 -0.312491
vn -0.849554 0.424980 -0.312491
vn 0.867718 -0.490864 0.078222
vn 0.862181 -0.448485 -0.235595
vn 0.862181 -0.448485 -0.235594
vn 0.870469 -0.489300 0.053558
vn -0.499325 0.865854 0.031174
vn -0.476617 0.850139 -0.223829
vn -0.476617 0.850139 -0.223829
vn -0.499768 0.864435 0.054627
vn -0.785208 -0.619232 -0.000000
vn -0.775479 -0.611559 -0.156932
vn -0.775479 -0.611559 -0.156932
vn -0.785208 -0.619232 -0.000000
vn 0.729567 -0.683902 -0.003192
vn 0.703657 -0.673103 -0.227596
vn 0.703657 -0.673103 -0.227596
vn 0.728370 -0.684469 -0.031302
vn -0.615804 -0.787899 0.000000
vn -0.607749 -0.777593 -0.161218
vn -0.607749 -0.777593 -0.161218
vn -0.615804 -0.787899 0.000000
vn -0.963511 -0.267669 -0.000000
vn -0.951529 -0.264340 -0.157217
vn -0.951529 -0.264340 -0.157217
vn -0.963511 -0.267669 -0.000000
vn -0.261392 -0.965233 0.000000
vn -0.257462 -0.950723 -0.172741
vn -0.257462 -0.950723 -0.172741
vn -0.261392 -0.965233 0.000000
vn -0.890763 0.454468 -0.000000
vn -0.868247 0.442981 -0.223417
vn -0.868247 0.442981 -0.223417
vn -0.890763 0.454468 -0.000000
vn -0.988172 0.153351 0.000000
vn -0.975804 0.151431 -0.157721
vn -0.975804 0.151431 -0.157721
vn -0.988172 0.153351 0.000000
vn -0.690317 0.721553 -0.053138
vn -0.667476 0.705750 -0.237471
vn -0.667476 0.705750 -0.237471
vn -0.691649 0.721765 -0.026014
vn 0.137527 -0.990498 -0.000000
vn 0.135693 -0.977286 -0.162789
vn 0.135693 -0.977286 -0.162789
vn 0.137527 -0.990498 -0.000000
vn 0.461497 -0.887142 0.000000
vn 0.450851 -0.866678 -0.213547
vn 0.450851 -0.866678 -0.213547
vn 0.461497 -0.887142 0.000000
vn 0.697633 0.697634 -0.163143
vn 0.697633 0.697634 -0.163143
vn 0.697633 0.697634 -0.163143
vn -0.697633 -0.697633 -0.163144
vn -0.697633 -0.697633 -0.163144
vn -0.697633 -0.697633 -0.163144
vn -0.697633 -0.697633 -0.163144
vn 0.697633 0.697633 -0.163144
vn 0.697633 0.697633 -0.163144
vn 0.697633 0.697633 -0.163144
vn -0.697633 -0.697634 -0.163143
vn -0.697633 -0.697634 -0.163143
vn -0.697633 -0.697634 -0.163143
vn -0.697633 -0.697634 -0.163143
vn 0.851215 -0.484444 -0.201859
vn 0.851215 -0.484444 -0.201859
vn 0.851215 -0.484444 -0.201859
vn 0.851215 -0.484444 -0.201859
vn 0.697633 0.697633 -0.163143
vn 0.697633 0.697633 -0.163143
vn 0.697633 0.697633 -0.163143
vn -0.681895 -0.707312 -0.186355
vn -0.681895 -0.707312 -0.186355
vn -0.681895 -0.707312 -0.186355
vn -0.681895 -0.707312 -0.186355
vn 0.697633 0.697633 -0.163143
vn 0.697633 0.697633 -0.163143
vn 0.697633 0.697633 -0.163143
vn -0.697633 -0.697633 -0.163144
vn -0.697633 -0.697633 -0.163144
vn -0.697633 -0.697633 -0.163144
vn -0.697633 -0.697633 -0.163144
vn 0.697634 0.697633 -0.163142
vn 0.697634 0.697633 -0.163142
vn 0.697634 0.697633 -0.163142
vn -0.711325 -0.679438 -0.179947
vn -0.711325 -0.679438 -0.179947
vn -0.711325 -0.679438 -0.179947
vn -0.711325 -0.679438 -0.179947
vn 0.641337 0.733532 -0.224983
vn 0.641337 0.733532 -0.224983
vn 0.641337 0.733532 -0.224983
vn -0.523857 0.817109 -0.240639
vn -0.523857 0.817109 -0.240639
vn -0.523857 0.817109 -0.240639
vn -0.523857 0.817109 -0.240639
vn -0.697633 -0.697633 -0.163144
vn -0.697633 -0.697633 -0.163144
vn -0.697633 -0.697633 -0.163144
vn -0.697633 -0.697633 -0.163144
vn 0.000000 0.000000 -1.000000
vn 0.000000 0.000000 -1.000000
vn 0.000000 0.000000 -1.000000
vn 0.000000 0.000000 -1.000000
vn 0.000000 0.000000 -1.000000
vn 0.000000 0.000000 -1.000000
vn 0.000000 0.000000 -1.000000
vn 0.000000 0.000000 -1.000000
vn 0.000000 0.000000 -1.000000
vn 0.000000 0.000000 -1.000000
vn 0.000000 0.000000 -1.000000
vn 0.000000 0.000000 -1.000000
vn 0.000000 0.000000 -1.000000
vn 0.000000 0.000000 -1.000000
vn 0.000000 0.000000 -1.000000
vn 0.000000 0.000000 -1.000000
vn 0.000000 0.000000 -1.000000
vn 0.000000 0.000000 -1.000000
vn 0.000000 0.000000 -1.000000
vn 0.000000 0.000000 -1.000000
vn 0.000000 0.000000 -1.000000
vn 0.000000 0.000000 -1.000000
vn 0.000000 0.000000 -1.000000
vn 0.000000 0.000000 -1.000000
vn 0.000000 0.000000 -1.000000
vn 0.000000 0.000000 -1.000000
vn 0.000000 0.000000 -1.000000
vn 0.000000 0.000000 -1.000000
vn 0.000000 0.000000 -1.000000
vn 0.000000 0.000000 -1.000000
s off
f 21/1/1 22/2/2 23/3/3 24/4/4
f 26/5/5 25/6/6 27/7/7 28/8/8
f 30/9/9 29/10/10 25/6/11 26/5/12
f 28/8/13 27/7/14 31/11/15 32/12/16
f 24/4/17 23/3/18 29/10/19 30/9/20
f 32/12/21 31/11/22 33/13/23 34/14/24
f 26/15/25 51/16/26 52/17/27 53/19/28
f 54/20/29 24/21/30 55/22/31 56/23/32
f 57/24/33 26/15/34 53/19/35 58/25/36
f 51/16/37 32/27/38 59/28/39 52/17/40
f 24/21/41 57/24/42 58/25/43 55/22/44
f 32/27/45 60/29/46 61/31/47 59/28/48
f 2/55/49 6/56/50 22/2/51 21/1/52
f 6/56/53 3/57/54 23/3/55 22/2/56
f 1/58/57 8/59/58 27/7/59 25/6/60
f 7/60/61 1/58/62 25/6/63 29/10/64
f 8/59/65 4/61/66 31/11/67 27/7/68
f 3/57/69 7/60/70 29/10/71 23/3/72
f 4/61/73 9/62/74 33/13/75 31/11/76
f 9/62/77 5/63/78 34/14/79 33/13/80
f 10/32/81 2/33/82 21/35/83 38/36/84
f 5/37/85 11/65/86 41/66/87 34/67/88
f 13/18/89 12/26/90 43/30/91 42/34/92
f 20/38/93 10/39/94 38/40/95 44/41/96
f 12/26/97 16/42/98 45/43/99 43/30/100
f 17/44/101 13/18/102 42/34/103 46/45/104
f 16/42/105 15/46/106 47/47/107 45/43/108
f 19/48/109 18/49/110 49/50/111 48/51/112
f 18/49/113 17/44/114 46/45/115 49/50/116
f 11/52/117 19/48/118 48/51/119 41/53/120
f 15/46/121 14/54/122 50/64/123 47/47/124
f 14/54/125 20/38/126 44/41/127 50/64/128
f 26/15/129 28/77/130 51/16/131
f 35/76/132 36/75/133 53/19/134 52/17/135
f 21/35/136 24/21/137 54/20/138
f 37/74/139 38/36/140 56/23/141 55/22/142
f 38/36/143 21/35/144 54/20/145 56/23/146
f 30/73/147 26/15/148 57/24/149
f 36/75/150 39/78/151 58/25/152 53/19/153
f 28/77/154 32/27/155 51/16/156
f 40/79/157 35/76/158 52/17/159 59/28/160
f 24/21/161 30/73/162 57/24/163
f 39/78/164 37/74/165 55/22/166 58/25/167
f 32/27/168 34/67/169 60/29/170
f 34/67/171 41/66/172 61/31/173 60/29/174
f 41/66/175 40/79/176 59/28/177 61/31/178
f 37/68/179 44/41/180 38/40/181
f 35/69/182 42/34/183 43/30/184 36/70/185
f 35/69/186 40/71/187 46/45/188 42/34/189
f 46/45/190 40/71/191 48/51/192 49/50/193
f 36/70/194 43/30/195 45/43/196 39/72/197
f 39/72/198 45/43/199 47/47/200 37/68/201
f 37/68/202 47/47/203 50/64/204 44/41/205
f 48/51/206 40/71/207 41/53/208
f 62/80/209 65/83/210 64/82/211 63/81/212
f 67/84/213 69/87/214 68/86/215 66/85/216
f 71/88/217 67/84/218 66/85/219 70/89/220
f 69/87/221 73/91/222 72/90/223 68/86/224
f 65/83/225 71/88/226 70/89/227 64/82/228
f 73/91/229 75/93/230 74/92/231 72/90/232
f 67/94/233 94/97/234 93/96/235 92/95/236
f 95/98/237 97/101/238 96/100/239 65/99/240
f 98/102/241 99/103/242 94/97/243 67/94/244
f 92/95/245 93/96/246 100/105/247 73/104/248
f 65/99/249 96/100/250 99/103/251 98/102/252
f 73/104/253 100/105/254 102/107/255 101/106/256
f 2/108/257 62/80/258 63/81/259 6/109/260
f 6/109/261 63/81/262 64/82/263 3/110/264
f 1/111/265 66/85/266 68/86/267 8/112/268
f 7/113/269 70/89/270 66/85/271 1/111/272
f 8/112/273 68/86/274 72/90/275 4/114/276
f 3/110/277 64/82/278 70/89/279 7/113/280
f 4/114/281 72/90/282 74/92/283 9/115/284
f 9/115/285 74/92/286 75/93/287 5/116/288
f 10/117/289 79/120/290 62/119/291 2/118/292
f 5/121/293 75/124/294 82/123/295 11/122/296
f 13/125/297 83/128/298 84/127/299 12/126/300
f 20/129/301 85/132/302 79/131/303 10/130/304
f 12/126/305 84/127/306 86/134/307 16/133/308
f 17/135/309 87/136/310 83/128/311 13/125/312
f 16/133/313 86/134/314 88/138/315 15/137/316
f 19/139/317 89/142/318 90/141/319 18/140/320
f 18/140/321 90/141/322 87/136/323 17/135/324
f 11/143/325 82/144/326 89/142/327 19/139/328
f 15/137/329 88/138/330 91/146/331 14/145/332
f 14/145/333 91/146/334 85/132/335 20/129/336
f 67/94/337 92/95/338 69/147/339
f 76/148/340 93/96/341 94/97/342 77/149/343
f 62/119/344 95/98/345 65/99/346
f 78/150/347 96/100/348 97/101/349 79/120/350
f 79/120/351 97/101/352 95/98/353 62/119/354
f 71/151/355 98/102/356 67/94/357
f 77/149/358 94/97/359 99/103/360 80/152/361
f 69/147/362 92/95/363 73/104/364
f 81/153/365 100/105/366 93/96/367 76/148/368
f 65/99/369 98/102/370 71/151/371
f 80/152/372 99/103/373 96/100/374 78/150/375
f 73/104/376 101/106/377 75/124/378
f 75/124/379 101/106/380 102/107/381 82/123/382
f 82/123/383 102/107/384 100/105/385 81/153/386
f 78/154/387 79/131/388 85/132/389
f 76/155/390 77/156/391 84/127/392 83/128/393
f 76/155/394 83/128/395 87/136/396 81/157/397
f 87/136/398 90/141/399 89/142/400 81/157/401
f 77/156/402 80/158/403 86/134/404 84/127/405
f 80/158/406 78/154/407 88/138/408 86/134/409
f 78/154/410 85/132/411 91/146/412 88/138/413
f 89/142/414 82/144/415 81/157/416
