# This file uses centimeters as units for non-parametric coordinates.

v -18.845833 10.977090 -8.000000
v -11.040726 19.224796 -8.000000
v 0.104309 22.902460 -8.000000
v 10.892860 20.072859 -8.000000
v 19.644653 11.752992 -8.000000
v 22.281235 0.188142 -8.000000
v 18.893890 -11.498242 -8.000000
v 11.474968 -20.070015 -8.000000
v 0.047539 -23.128271 -8.000000
v -11.267616 -19.729027 -8.000000
v -19.695831 -11.306591 -8.000000
v -22.902733 0.349410 -8.000000
v 19.873810 11.445818 0.903378
v 11.750748 19.808226 0.903378
v -0.363445 22.411671 0.903378
v -11.165070 19.160479 0.903378
v -19.841499 11.773178 0.903378
v -23.021675 0.225361 0.903378
v -19.539715 -10.710768 0.903378
v -11.683540 -19.727003 0.903378
v -0.348789 -22.863922 0.903378
v 11.195068 -20.021513 0.903378
v 19.685219 -11.191772 0.903378
v 23.076309 0.078202 0.903378
v 0.000000 0.000000 -8.000000
v 20.784607 12.000000 -0.687019
v 20.784607 12.000000 -6.490082
v 24.000000 0.000000 -6.667202
v 24.000000 0.000000 -0.310436
v 20.784607 -12.000000 -7.234070
v 20.784607 -12.000000 -0.452385
v 12.000000 -20.784607 -6.648884
v 12.000000 -20.784607 -0.416851
v 0.000000 -24.000000 -7.174713
v 0.000000 -24.000000 -0.637486
v -12.000000 -20.784607 -6.788570
v -12.000000 -20.784607 0.021645
v -20.784607 -12.000000 -7.252285
v -20.784607 -12.000000 -0.222576
v -24.000000 0.000000 -7.193405
v -24.000000 0.000000 -0.761219
v -20.784607 12.000000 -6.799301
v -20.784607 12.000000 -0.499886
v -12.000000 20.784607 -7.079597
v -12.000000 20.784607 -0.162571
v 0.000000 24.000000 -6.506866
v 0.000000 24.000000 -0.206844
v 12.000000 20.784607 -6.739407
v 12.000000 20.784607 -0.215458
v -17.017658 9.974701 0.903378
v -19.684387 0.291300 0.903378
v -16.691635 -9.108321 0.903378
v -9.902885 -16.899517 0.903378
v -0.301540 -19.556711 0.903378
v 9.530487 -17.135801 0.903378
v 16.843399 -9.530380 0.903378
v 19.743446 0.107656 0.903378
v 17.013550 9.797712 0.903378
v 10.130753 16.883312 0.903378
v -0.230186 19.109970 0.903378
v -9.600937 16.289457 0.903378
v -16.135208 9.412677 0.000000
v -18.641483 0.311907 0.000000
v 0.000000 0.000001 0.000000
v -15.801609 -8.607556 0.000000
v -9.346432 -16.015928 0.000000
v -0.286777 -18.523209 0.000000
v 9.010307 -16.234016 0.000000
v 15.955330 -9.011195 0.000000
v 18.701927 0.116861 0.000000
v 16.119720 9.282680 0.000000
v 9.624504 15.969277 0.000000
v -0.188545 18.078188 0.000000
v -9.112144 15.392263 0.000000
vt 0.925210 0.914658
vt 0.988453 0.982250
vt 0.988330 0.982059
vt 0.988171 0.982455
vt 0.988171 0.981985
vt 0.988037 0.982049
vt 0.987943 0.982205
vt 0.987918 0.982409
vt 0.987954 0.982621
vt 0.988034 0.982797
vt 0.988168 0.982904
vt 0.988322 0.982894
vt 0.988457 0.982757
vt 0.988518 0.982505
vt 0.987818 0.982203
vt 0.987908 0.982200
vt 0.988005 0.982035
vt 0.987900 0.982033
vt 0.987785 0.982419
vt 0.987881 0.982411
vt 0.987822 0.982642
vt 0.987924 0.982626
vt 0.987913 0.982833
vt 0.988008 0.982812
vt 0.988054 0.982951
vt 0.988156 0.982924
vt 0.988204 0.982956
vt 0.988314 0.982925
vt 0.988346 0.982809
vt 0.988463 0.982780
vt 0.988416 0.982535
vt 0.988524 0.982518
vt 0.988359 0.982233
vt 0.988467 0.982228
vt 0.988212 0.982019
vt 0.988330 0.982022
vt 0.988043 0.981956
vt 0.988149 0.981961
vt 0.987802 0.982215
vt 0.987774 0.982421
vt 0.987811 0.982634
vt 0.987900 0.982827
vt 0.988033 0.982937
vt 0.988184 0.982935
vt 0.988307 0.982777
vt 0.988369 0.982530
vt 0.988318 0.982239
vt 0.988180 0.982057
vt 0.988029 0.981990
vt 0.987884 0.982052
vt 0.988312 0.982518
vt 0.988271 0.982279
vt 0.988261 0.982726
vt 0.988159 0.982865
vt 0.988032 0.982871
vt 0.987917 0.982780
vt 0.987839 0.982612
vt 0.987807 0.982427
vt 0.987831 0.982248
vt 0.987903 0.982111
vt 0.988028 0.982062
vt 0.988157 0.982125
vt 0.924918 0.914363
vt 0.924882 0.914581
vt 0.924923 0.914811
vt 0.925031 0.915008
vt 0.925188 0.915130
vt 0.925363 0.915135
vt 0.925508 0.915005
vt 0.925572 0.914760
vt 0.925524 0.914477
vt 0.925381 0.914254
vt 0.925196 0.914160
vt 0.925028 0.914207
vt 0.988311 0.982512
vt 0.988272 0.982291
vt 0.988263 0.982708
vt 0.988167 0.982840
vt 0.988047 0.982847
vt 0.987938 0.982762
vt 0.987862 0.982603
vt 0.987831 0.982427
vt 0.987855 0.982258
vt 0.987924 0.982130
vt 0.988043 0.982085
vt 0.988166 0.982145
vn 0.000000 0.000000 1.000000
vn 0.000000 0.000000 1.000000
vn 0.000000 0.000000 1.000000
vn 0.000000 0.000000 1.000000
vn 0.000000 0.000000 1.000000
vn 0.000000 0.000000 1.000000
vn 0.000000 0.000000 1.000000
vn 0.000000 0.000000 1.000000
vn 0.000000 0.000000 1.000000
vn 0.000000 0.000000 1.000000
vn 0.000000 0.000000 1.000000
vn 0.000000 0.000000 1.000000
vn 0.000000 0.000000 1.000000
vn 0.000000 0.000000 1.000000
vn 0.000000 0.000000 1.000000
vn 0.000000 0.000000 1.000000
vn 0.000000 0.000000 1.000000
vn 0.000000 0.000000 1.000000
vn 0.000000 0.000000 1.000000
vn 0.000000 0.000000 1.000000
vn 0.000000 0.000000 1.000000
vn 0.000000 0.000000 1.000000
vn 0.000000 0.000000 1.000000
vn 0.000000 0.000000 1.000000
vn 0.000000 0.000000 1.000000
vn 0.000000 0.000000 1.000000
vn 0.000000 0.000000 1.000000
vn 0.000000 0.000000 1.000000
vn 0.000000 0.000000 1.000000
vn 0.000000 0.000000 1.000000
vn 0.000000 0.000000 1.000000
vn 0.000000 0.000000 1.000000
vn 0.000000 0.000000 1.000000
vn 0.000000 0.000000 1.000000
vn 0.000000 0.000000 1.000000
vn 0.000000 0.000000 1.000000
vn 0.000000 0.000000 -1.000000
vn 0.000000 0.000000 -1.000000
vn 0.000000 0.000000 -1.000000
vn 0.000000 0.000000 -1.000000
vn 0.000000 0.000000 -1.000000
vn 0.000000 0.000000 -1.000000
vn 0.000000 0.000000 -1.000000
vn 0.000000 0.000000 -1.000000
vn 0.000000 0.000000 -1.000000
vn 0.000000 0.000000 -1.000000
vn 0.000000 0.000000 -1.000000
vn 0.000000 0.000000 -1.000000
vn 0.000000 0.000000 -1.000000
vn 0.000000 0.000000 -1.000000
vn 0.000000 0.000000 -1.000000
vn -0.000000 0.000000 -1.000000
vn -0.000000 0.000000 -1.000000
vn -0.000000 0.000000 -1.000000
vn 0.000000 0.000000 -1.000000
vn 0.000000 0.000000 -1.000000
vn 0.000000 0.000000 -1.000000
vn 0.000000 0.000000 -1.000000
vn 0.000000 0.000000 -1.000000
vn 0.000000 0.000000 -1.000000
vn 0.000000 0.000000 -1.000000
vn 0.000000 0.000000 -1.000000
vn 0.000000 0.000000 -1.000000
vn 0.000000 0.000000 -1.000000
vn 0.000000 0.000000 -1.000000
vn 0.000000 0.000000 -1.000000
vn 0.000000 0.000000 -1.000000
vn 0.000000 0.000000 -1.000000
vn 0.000000 0.000000 -1.000000
vn -0.000000 0.000000 -1.000000
vn -0.000000 0.000000 -1.000000
vn -0.000000 0.000000 -1.000000
vn 0.707107 0.707107 0.000000
vn 0.707107 0.707107 0.000000
vn 0.707107 0.707107 0.000000
vn 0.707107 0.707107 0.000000
vn 0.965926 0.258819 0.000000
vn 0.965926 0.258819 0.000000
vn 0.965926 0.258819 0.000000
vn 0.965926 0.258819 0.000000
vn 0.965926 -0.258819 0.000000
vn 0.965926 -0.258819 0.000000
vn 0.965926 -0.258819 0.000000
vn 0.965926 -0.258819 0.000000
vn 0.707107 -0.707107 0.000000
vn 0.707107 -0.707107 0.000000
vn 0.707107 -0.707107 0.000000
vn 0.707107 -0.707107 0.000000
vn 0.258819 -0.965926 0.000000
vn 0.258819 -0.965926 0.000000
vn 0.258819 -0.965926 0.000000
vn 0.258819 -0.965926 0.000000
vn -0.258819 -0.965926 0.000000
vn -0.258819 -0.965926 0.000000
vn -0.258819 -0.965926 0.000000
vn -0.258819 -0.965926 0.000000
vn -0.707107 -0.707107 0.000000
vn -0.707107 -0.707107 0.000000
vn -0.707107 -0.707107 0.000000
vn -0.707107 -0.707107 0.000000
vn -0.965926 -0.258819 0.000000
vn -0.965926 -0.258819 0.000000
vn -0.965926 -0.258819 0.000000
vn -0.965926 -0.258819 0.000000
vn -0.965926 0.258819 0.000000
vn -0.965926 0.258819 0.000000
vn -0.965926 0.258819 0.000000
vn -0.965926 0.258819 0.000000
vn -0.707107 0.707107 0.000000
vn -0.707107 0.707107 0.000000
vn -0.707107 0.707107 0.000000
vn -0.707107 0.707107 0.000000
vn -0.258819 0.965926 0.000000
vn -0.258819 0.965926 0.000000
vn -0.258819 0.965926 0.000000
vn -0.258819 0.965926 0.000000
vn 0.258819 0.965926 0.000000
vn 0.258819 0.965926 0.000000
vn 0.258819 0.965926 0.000000
vn 0.258819 0.965926 0.000000
vn 0.545350 0.549900 -0.632617
vn 0.545350 0.549900 -0.632617
vn 0.545350 0.549900 -0.632617
vn 0.545350 0.549900 -0.632617
vn 0.201762 0.783230 -0.588083
vn 0.201762 0.783230 -0.588083
vn 0.201762 0.783230 -0.588083
vn 0.201762 0.783230 -0.588083
vn -0.167366 0.625303 -0.762224
vn -0.167366 0.625303 -0.762224
vn -0.167366 0.625303 -0.762224
vn -0.167366 0.625303 -0.762224
vn -0.350695 0.327142 -0.877491
vn -0.350695 0.327142 -0.877491
vn -0.350695 0.327142 -0.877491
vn -0.350695 0.327142 -0.877491
vn -0.514426 0.179934 -0.838445
vn -0.514426 0.179934 -0.838445
vn -0.514426 0.179934 -0.838445
vn -0.514426 0.179934 -0.838445
vn -0.528017 -0.141265 -0.837402
vn -0.528017 -0.141265 -0.837402
vn -0.528017 -0.141265 -0.837402
vn -0.528017 -0.141265 -0.837402
vn -0.422896 -0.444322 -0.789770
vn -0.422896 -0.444322 -0.789770
vn -0.422896 -0.444322 -0.789770
vn -0.422896 -0.444322 -0.789770
vn -0.202308 -0.671476 -0.712875
vn -0.202308 -0.671476 -0.712875
vn -0.202308 -0.671476 -0.712875
vn -0.202308 -0.671476 -0.712875
vn 0.218495 -0.765156 -0.605637
vn 0.218495 -0.765156 -0.605637
vn 0.218495 -0.765156 -0.605637
vn 0.218495 -0.765156 -0.605637
vn 0.451349 -0.447401 -0.772086
vn 0.451349 -0.447401 -0.772086
vn 0.451349 -0.447401 -0.772086
vn 0.451349 -0.447401 -0.772086
vn 0.483030 -0.113871 -0.868168
vn 0.483030 -0.113871 -0.868168
vn 0.483030 -0.113871 -0.868168
vn 0.483030 -0.113871 -0.868168
vn 0.692132 0.177140 -0.699696
vn 0.692132 0.177140 -0.699696
vn 0.692132 0.177140 -0.699696
vn 0.692132 0.177140 -0.699696
vn 0.796664 0.227825 0.559841
vn 0.796664 0.227825 0.559841
vn 0.796664 0.227825 0.559841
vn 0.796664 0.227825 0.559841
vn 0.731136 -0.211530 0.648610
vn 0.731136 -0.211530 0.648610
vn 0.731136 -0.211530 0.648610
vn 0.731136 -0.211530 0.648610
vn 0.526281 -0.514769 0.676787
vn 0.526281 -0.514769 0.676787
vn 0.526281 -0.514769 0.676787
vn 0.526281 -0.514769 0.676787
vn 0.194890 -0.779145 0.595778
vn 0.194890 -0.779145 0.595778
vn 0.194890 -0.779145 0.595778
vn 0.194890 -0.779145 0.595778
vn -0.180200 -0.730321 0.658907
vn -0.180200 -0.730321 0.658907
vn -0.180200 -0.730321 0.658907
vn -0.180200 -0.730321 0.658907
vn -0.437844 -0.398252 0.806032
vn -0.437844 -0.398252 0.806032
vn -0.437844 -0.398252 0.806032
vn -0.437844 -0.398252 0.806032
vn -0.713855 -0.192634 0.673278
vn -0.713855 -0.192634 0.673278
vn -0.713855 -0.192634 0.673278
vn -0.713855 -0.192634 0.673278
vn -0.826909 0.218839 0.518006
vn -0.826909 0.218839 0.518006
vn -0.826909 0.218839 0.518006
vn -0.826909 0.218839 0.518006
vn -0.478546 0.501662 0.720645
vn -0.478546 0.501662 0.720645
vn -0.478546 0.501662 0.720645
vn -0.478546 0.501662 0.720645
vn -0.151275 0.539078 0.828560
vn -0.151275 0.539078 0.828560
vn -0.151275 0.539078 0.828560
vn -0.151275 0.539078 0.828560
vn 0.151692 0.627506 0.763692
vn 0.151692 0.627506 0.763692
vn 0.151692 0.627506 0.763692
vn 0.151692 0.627506 0.763692
vn 0.591147 0.567123 0.573512
vn 0.591147 0.567123 0.573512
vn 0.591147 0.567123 0.573512
vn 0.591147 0.567123 0.573512
vn -0.000000 0.000000 1.000000
vn -0.000000 0.000000 1.000000
vn -0.000000 0.000000 1.000000
vn -0.000000 0.000000 1.000000
vn 0.000000 0.000000 1.000000
vn 0.000000 0.000000 1.000000
vn 0.000000 0.000000 1.000000
vn 0.000000 0.000000 1.000000
vn 0.000000 0.000000 1.000000
vn 0.000000 0.000000 1.000000
vn 0.000000 0.000000 1.000000
vn 0.000000 0.000000 1.000000
vn 0.000000 0.000000 1.000000
vn 0.000000 0.000000 1.000000
vn 0.000000 0.000000 1.000000
vn 0.000000 0.000000 1.000000
vn -0.000000 0.000000 1.000000
vn -0.000000 0.000000 1.000000
vn -0.000000 0.000000 1.000000
vn -0.000000 0.000000 1.000000
vn 0.000000 0.000000 1.000000
vn 0.000000 0.000000 1.000000
vn 0.000000 0.000000 1.000000
vn 0.000000 0.000000 1.000000
vn 0.000000 0.000000 1.000000
vn 0.000000 0.000000 1.000000
vn 0.000000 0.000000 1.000000
vn 0.000000 0.000000 1.000000
vn -0.000000 0.000000 1.000000
vn -0.000000 0.000000 1.000000
vn -0.000000 0.000000 1.000000
vn -0.000000 0.000000 1.000000
vn 0.000000 0.000000 1.000000
vn 0.000000 0.000000 1.000000
vn 0.000000 0.000000 1.000000
vn 0.000000 0.000000 1.000000
vn 0.000000 0.000000 1.000000
vn 0.000000 0.000000 1.000000
vn 0.000000 0.000000 1.000000
vn 0.000000 0.000000 1.000000
vn 0.000000 0.000000 1.000000
vn 0.000000 0.000000 1.000000
vn 0.000000 0.000000 1.000000
vn 0.000000 0.000000 1.000000
vn 0.000000 0.000000 1.000000
vn 0.000000 0.000000 1.000000
vn 0.000000 0.000000 1.000000
vn 0.000000 0.000000 1.000000
vn 0.646289 -0.177982 0.742047
vn 0.646289 -0.177982 0.742047
vn 0.646289 -0.177982 0.742047
vn 0.646289 -0.177982 0.742047
vn 0.638753 0.203373 0.742047
vn 0.638753 0.203373 0.742047
vn 0.638753 0.203373 0.742047
vn 0.638753 0.203373 0.742047
vn 0.505405 0.440378 0.742047
vn 0.505405 0.440378 0.742047
vn 0.505405 0.440378 0.742047
vn 0.505405 0.440378 0.742047
vn 0.178800 0.646064 0.742046
vn 0.178800 0.646064 0.742046
vn 0.178800 0.646064 0.742046
vn 0.178800 0.646064 0.742046
vn -0.160271 0.650908 0.742046
vn -0.160271 0.650908 0.742046
vn -0.160271 0.650908 0.742046
vn -0.160271 0.650908 0.742046
vn -0.483209 0.464624 0.742047
vn -0.483209 0.464624 0.742047
vn -0.483209 0.464624 0.742047
vn -0.483209 0.464624 0.742047
vn -0.641918 0.193151 0.742047
vn -0.641918 0.193151 0.742047
vn -0.641918 0.193151 0.742047
vn -0.641918 0.193151 0.742047
vn -0.645232 -0.181776 0.742047
vn -0.645232 -0.181776 0.742047
vn -0.645232 -0.181776 0.742047
vn -0.645232 -0.181776 0.742047
vn -0.480839 -0.467077 0.742047
vn -0.480839 -0.467077 0.742047
vn -0.480839 -0.467077 0.742047
vn -0.480839 -0.467077 0.742047
vn -0.140848 -0.655384 0.742047
vn -0.140848 -0.655384 0.742047
vn -0.140848 -0.655384 0.742047
vn -0.140848 -0.655384 0.742047
vn 0.193207 -0.641901 0.742047
vn 0.193207 -0.641901 0.742047
vn 0.193207 -0.641901 0.742047
vn 0.193207 -0.641901 0.742047
vn 0.434571 -0.510406 0.742047
vn 0.434571 -0.510406 0.742047
vn 0.434571 -0.510406 0.742047
vn 0.434571 -0.510406 0.742047
s off
f 62/63/1 63/64/2 64/1/3
f 63/64/4 65/65/5 64/1/6
f 65/65/7 66/66/8 64/1/9
f 66/66/10 67/67/11 64/1/12
f 67/67/13 68/68/14 64/1/15
f 68/68/16 69/69/17 64/1/18
f 69/69/19 70/70/20 64/1/21
f 70/70/22 71/71/23 64/1/24
f 71/71/25 72/72/26 64/1/27
f 72/72/28 73/73/29 64/1/30
f 73/73/31 74/74/32 64/1/33
f 74/74/34 62/63/35 64/1/36
f 1/2/37 2/3/38 25/4/39
f 2/3/40 3/5/41 25/4/42
f 3/5/43 4/6/44 25/4/45
f 4/6/46 5/7/47 25/4/48
f 5/7/49 6/8/50 25/4/51
f 6/8/52 7/9/53 25/4/54
f 7/9/55 8/10/56 25/4/57
f 8/10/58 9/11/59 25/4/60
f 9/11/61 10/12/62 25/4/63
f 10/12/64 11/13/65 25/4/66
f 11/13/67 12/14/68 25/4/69
f 12/14/70 1/2/71 25/4/72
f 26/15/73 27/16/74 48/17/75 49/18/76
f 27/16/77 26/15/78 29/19/79 28/20/80
f 28/20/81 29/19/82 31/21/83 30/22/84
f 30/22/85 31/21/86 33/23/87 32/24/88
f 32/24/89 33/23/90 35/25/91 34/26/92
f 34/26/93 35/25/94 37/27/95 36/28/96
f 36/28/97 37/27/98 39/29/99 38/30/100
f 38/30/101 39/29/102 41/31/103 40/32/104
f 40/32/105 41/31/106 43/33/107 42/34/108
f 42/34/109 43/33/110 45/35/111 44/36/112
f 44/36/113 45/35/114 47/37/115 46/38/116
f 46/38/117 47/37/118 49/18/119 48/17/120
f 48/17/121 27/16/122 5/7/123 4/6/124
f 46/38/125 48/17/126 4/6/127 3/5/128
f 44/36/129 46/38/130 3/5/131 2/3/132
f 42/34/133 44/36/134 2/3/135 1/2/136
f 40/32/137 42/34/138 1/2/139 12/14/140
f 38/30/141 40/32/142 12/14/143 11/13/144
f 36/28/145 38/30/146 11/13/147 10/12/148
f 34/26/149 36/28/150 10/12/151 9/11/152
f 32/24/153 34/26/154 9/11/155 8/10/156
f 30/22/157 32/24/158 8/10/159 7/9/160
f 28/20/161 30/22/162 7/9/163 6/8/164
f 27/16/165 28/20/166 6/8/167 5/7/168
f 13/39/169 24/40/170 29/19/171 26/15/172
f 24/40/173 23/41/174 31/21/175 29/19/176
f 23/41/177 22/42/178 33/23/179 31/21/180
f 22/42/181 21/43/182 35/25/183 33/23/184
f 21/43/185 20/44/186 37/27/187 35/25/188
f 20/44/189 19/45/190 39/29/191 37/27/192
f 19/45/193 18/46/194 41/31/195 39/29/196
f 18/46/197 17/47/198 43/33/199 41/31/200
f 17/47/201 16/48/202 45/35/203 43/33/204
f 16/48/205 15/49/206 47/37/207 45/35/208
f 15/49/209 14/50/210 49/18/211 47/37/212
f 14/50/213 13/39/214 26/15/215 49/18/216
f 17/47/217 18/46/218 51/51/219 50/52/220
f 18/46/221 19/45/222 52/53/223 51/51/224
f 19/45/225 20/44/226 53/54/227 52/53/228
f 20/44/229 21/43/230 54/55/231 53/54/232
f 21/43/233 22/42/234 55/56/235 54/55/236
f 22/42/237 23/41/238 56/57/239 55/56/240
f 23/41/241 24/40/242 57/58/243 56/57/244
f 24/40/245 13/39/246 58/59/247 57/58/248
f 13/39/249 14/50/250 59/60/251 58/59/252
f 14/50/253 15/49/254 60/61/255 59/60/256
f 15/49/257 16/48/258 61/62/259 60/61/260
f 16/48/261 17/47/262 50/52/263 61/62/264
f 50/52/265 51/51/266 63/75/267 62/76/268
f 51/51/269 52/53/270 65/77/271 63/75/272
f 52/53/273 53/54/274 66/78/275 65/77/276
f 53/54/277 54/55/278 67/79/279 66/78/280
f 54/55/281 55/56/282 68/80/283 67/79/284
f 55/56/285 56/57/286 69/81/287 68/80/288
f 56/57/289 57/58/290 70/82/291 69/81/292
f 57/58/293 58/59/294 71/83/295 70/82/296
f 58/59/297 59/60/298 72/84/299 71/83/300
f 59/60/301 60/61/302 73/85/303 72/84/304
f 60/61/305 61/62/306 74/86/307 73/85/308
f 61/62/309 50/52/310 62/76/311 74/86/312
