# This file uses centimeters as units for non-parametric coordinates.

v -3.449521 10.805967 -0.000000
v -4.892841 11.521889 4.000000
v -7.505524 8.435551 4.000000
v -6.789881 7.118366 0.000000
v -3.886577 15.021349 4.000000
v -2.273093 14.941666 0.000000
v -11.775749 14.928230 4.000000
v -13.000460 11.359430 4.000000
v -13.891727 10.994192 0.000000
v -9.527977 19.354698 0.000000
v -9.107481 18.315693 4.000000
v -8.133730 13.125802 4.000000
v -6.027264 16.817539 4.000000
v -5.508783 17.715553 0.000000
v -10.683956 8.751893 0.000000
v -10.225910 9.545275 4.000000
v -13.167429 15.570087 0.000000
v -0.824030 5.416269 4.000000
v -4.619145 -1.168527 4.000000
v 5.477946 2.009198 4.000000
v 1.124632 -4.973106 4.000000
v 6.745817 2.042718 -0.000000
v 1.927397 -6.303031 -0.000000
v -1.770624 6.959688 -0.000000
v -6.589045 -1.386061 0.000000
v 2.647711 4.759103 4.000000
v -2.472711 -4.109729 4.000000
v 12.286551 -15.689213 0.000000
v 10.829747 -14.973297 4.000000
v 8.185151 -18.059629 4.000000
v 8.900795 -19.376820 0.000000
v 11.804097 -11.473835 4.000000
v 13.417580 -11.553520 -0.000000
v -8.916315 -15.270378 4.000000
v -9.668806 -16.554304 0.000000
v -5.587494 -18.518797 -0.000000
v -5.813362 -16.790390 4.000000
v -13.410763 -14.002031 0.000000
v -11.432276 -13.643990 4.000000
v 9.825579 17.210960 0.000000
v 9.133642 15.993065 4.000000
v 11.980505 13.863981 4.000000
v 13.567535 14.658688 0.000000
v 5.744267 19.175453 0.000000
v 5.996782 17.123322 4.000000
v 3.882528 -11.566954 4.000000
v 2.690210 -15.135755 4.000000
v 1.798946 -15.500989 -0.000000
v 6.162694 -7.140483 -0.000000
v 6.583194 -8.179488 4.000000
v 7.558577 -13.369382 4.000000
v 9.663410 -9.677643 4.000000
v 10.181890 -8.779634 -0.000000
v 5.006720 -17.743294 -0.000000
v 5.464766 -16.949909 4.000000
v 2.477840 -10.925095 0.000000
v -4.892841 11.521889 -4.000000
v -7.505524 8.435551 -4.000000
v -3.886577 15.021349 -4.000000
v -11.775749 14.928230 -4.000000
v -13.000460 11.359430 -4.000000
v -9.107481 18.315693 -4.000000
v -8.133730 13.125802 -4.000000
v -6.027264 16.817539 -4.000000
v -10.225910 9.545275 -4.000000
v -0.824030 5.416269 -4.000000
v -4.619145 -1.168527 -4.000000
v 5.477946 2.009198 -4.000000
v 1.124632 -4.973106 -4.000000
v 2.647711 4.759103 -4.000000
v -2.472711 -4.109729 -4.000000
v 10.829747 -14.973297 -4.000000
v 8.185151 -18.059629 -4.000000
v 11.804097 -11.473835 -4.000000
v -8.916315 -15.270378 -4.000000
v -5.813362 -16.790390 -4.000000
v -11.432276 -13.643990 -4.000000
v 9.133642 15.993065 -4.000000
v 11.980505 13.863981 -4.000000
v 5.996782 17.123322 -4.000000
v 3.882528 -11.566954 -4.000000
v 2.690210 -15.135755 -4.000000
v 6.583194 -8.179488 -4.000000
v 7.558577 -13.369382 -4.000000
v 9.663410 -9.677643 -4.000000
v 5.464766 -16.949909 -4.000000
vt 0.453413 0.992692
vt 0.453413 0.992002
vt 0.454900 0.991859
vt 0.455212 0.992476
vt 0.451908 0.991782
vt 0.451615 0.992476
vt 0.453413 0.989062
vt 0.454986 0.988639
vt 0.455289 0.989136
vt 0.451537 0.989136
vt 0.451812 0.988632
vt 0.453413 0.990485
vt 0.451859 0.990157
vt 0.451575 0.990753
vt 0.455252 0.990753
vt 0.454944 0.990198
vt 0.453412 0.988635
vt 0.453429 0.989136
vt 0.451374 0.985476
vt 0.455452 0.985476
vt 0.455033 0.986862
vt 0.451759 0.986893
vt 0.453413 0.992692
vt 0.453413 0.992002
vt 0.454900 0.991859
vt 0.455212 0.992476
vt 0.460145 0.985476
vt 0.460633 0.985472
vt 0.460498 0.987145
vt 0.459947 0.986752
vt 0.446194 0.985472
vt 0.446647 0.985476
vt 0.446828 0.986783
vt 0.446329 0.987145
vt 0.451908 0.991782
vt 0.451615 0.992476
vt 0.451838 0.984197
vt 0.454865 0.984243
vt 0.459980 0.984368
vt 0.460498 0.983800
vt 0.446329 0.983800
vt 0.446896 0.984261
vt 0.453413 0.989062
vt 0.454986 0.988639
vt 0.454944 0.990198
vt 0.453413 0.990485
vt 0.455289 0.989136
vt 0.455252 0.990753
vt 0.451812 0.988632
vt 0.451859 0.990157
vt 0.451537 0.989136
vt 0.451575 0.990753
vt 0.455332 0.987293
vt 0.455332 0.983652
vt 0.451495 0.987293
vt 0.451495 0.983652
vt 0.453412 0.988635
vt 0.453429 0.989136
vt 0.453413 0.992692
vt 0.453413 0.992002
vt 0.454900 0.991859
vt 0.455212 0.992476
vt 0.451908 0.991782
vt 0.451615 0.992476
vt 0.453413 0.989062
vt 0.454986 0.988639
vt 0.454944 0.990198
vt 0.453413 0.990485
vt 0.455289 0.989136
vt 0.455252 0.990753
vt 0.451812 0.988632
vt 0.451859 0.990157
vt 0.451537 0.989136
vt 0.451575 0.990753
vt 0.453412 0.988635
vt 0.453429 0.989136
vt 0.451374 0.985476
vt 0.455452 0.985476
vt 0.455033 0.986862
vt 0.451759 0.986893
vt 0.453413 0.992692
vt 0.453413 0.992002
vt 0.454900 0.991859
vt 0.455212 0.992476
vt 0.460145 0.985476
vt 0.460633 0.985472
vt 0.460498 0.987145
vt 0.459947 0.986752
vt 0.446194 0.985472
vt 0.446647 0.985476
vt 0.446828 0.986783
vt 0.446329 0.987145
vt 0.451908 0.991782
vt 0.451615 0.992476
vt 0.451838 0.984197
vt 0.454865 0.984243
vt 0.459980 0.984368
vt 0.460498 0.983800
vt 0.446329 0.983800
vt 0.446896 0.984261
vt 0.453413 0.989062
vt 0.454986 0.988639
vt 0.454944 0.990198
vt 0.453413 0.990485
vt 0.455289 0.989136
vt 0.455252 0.990753
vt 0.451812 0.988632
vt 0.451859 0.990157
vt 0.451537 0.989136
vt 0.451575 0.990753
vt 0.455332 0.987293
vt 0.455332 0.983652
vt 0.451495 0.987293
vt 0.451495 0.983652
vt 0.453412 0.988635
vt 0.453429 0.989136
vn 0.812022 -0.455772 0.364544
vn 0.810228 -0.459112 0.364345
vn 0.704370 -0.619011 0.347403
vn 0.704370 -0.619011 0.347403
vn 0.894334 -0.255667 0.367152
vn 0.810228 -0.459112 0.364345
vn 0.812022 -0.455772 0.364544
vn 0.894334 -0.255667 0.367152
vn 0.000000 0.000000 1.000000
vn 0.000000 0.000000 1.000000
vn 0.000000 0.000000 1.000000
vn 0.000000 0.000000 1.000000
vn -0.548734 -0.809255 0.209754
vn -0.561219 -0.827667 0.000000
vn -0.475267 -0.879842 0.000000
vn -0.463022 -0.858948 0.218677
vn 0.000000 0.000000 1.000000
vn 0.000000 0.000000 1.000000
vn 0.000000 0.000000 1.000000
vn 0.000000 0.000000 1.000000
vn 0.404202 0.914670 -0.000000
vn 0.394223 0.892089 0.220828
vn 0.511974 0.826564 0.233826
vn 0.525093 0.851045 -0.000000
vn 0.000000 0.000000 1.000000
vn 0.000000 0.000000 1.000000
vn 0.000000 0.000000 1.000000
vn 0.000000 0.000000 1.000000
vn 0.525093 0.851045 -0.000000
vn 0.511974 0.826564 0.233826
vn 0.628244 0.739085 0.243026
vn 0.647661 0.761928 0.000000
vn -0.463022 -0.858948 0.218677
vn -0.475267 -0.879842 0.000000
vn -0.383095 -0.923709 0.000000
vn -0.373236 -0.899938 0.225404
vn 0.000000 0.000000 1.000000
vn 0.000000 0.000000 1.000000
vn 0.000000 0.000000 1.000000
vn 0.000000 0.000000 1.000000
vn -0.972542 0.232727 0.000000
vn -0.935156 0.223781 0.274602
vn -0.839833 0.456598 0.293595
vn -0.881054 0.473017 0.000000
vn -0.881054 0.473017 0.000000
vn -0.839833 0.456598 0.293595
vn -0.717465 0.630999 0.295099
vn -0.717465 0.630999 0.295099
vn 0.000000 0.000000 1.000000
vn -0.000000 0.000000 1.000000
vn 0.000000 0.000000 1.000000
vn 0.000000 0.000000 1.000000
vn 0.811516 -0.455248 0.366320
vn 0.809541 -0.458924 0.366103
vn 0.700087 -0.623238 0.348501
vn 0.700087 -0.623238 0.348501
vn -0.465067 -0.816226 0.342765
vn -0.465341 -0.816076 0.342750
vn -0.409610 -0.844524 0.344962
vn -0.409610 -0.844524 0.344962
vn 0.457720 0.813013 0.359864
vn 0.457444 0.813153 0.359898
vn 0.543189 0.764517 0.347072
vn 0.543189 0.764517 0.347072
vn 0.896175 -0.247118 0.368515
vn 0.809541 -0.458924 0.366103
vn 0.811516 -0.455248 0.366320
vn 0.896175 -0.247118 0.368515
vn 0.000000 0.000000 1.000000
vn -0.000000 0.000000 1.000000
vn -0.000000 0.000000 1.000000
vn 0.000000 0.000000 1.000000
vn -0.522448 -0.782413 0.338936
vn -0.522448 -0.782413 0.338937
vn -0.465341 -0.816076 0.342750
vn -0.465067 -0.816226 0.342765
vn 0.366206 0.854137 0.369246
vn 0.366206 0.854137 0.369246
vn 0.457444 0.813153 0.359898
vn 0.457720 0.813013 0.359864
vn 0.000000 0.000000 1.000000
vn 0.000000 0.000000 1.000000
vn 0.000000 0.000000 1.000000
vn 0.000000 0.000000 1.000000
vn -0.548735 -0.809255 0.209754
vn -0.561219 -0.827667 -0.000000
vn -0.475267 -0.879842 -0.000000
vn -0.463022 -0.858948 0.218677
vn 0.000000 0.000000 1.000000
vn 0.000000 0.000000 1.000000
vn 0.000000 0.000000 1.000000
vn 0.000000 0.000000 1.000000
vn 0.404202 0.914670 0.000000
vn 0.394224 0.892089 0.220827
vn 0.511975 0.826564 0.233825
vn 0.525093 0.851045 0.000000
vn 0.819188 -0.492640 0.293662
vn 0.819188 -0.492639 0.293662
vn 0.819188 -0.492639 0.293662
vn 0.819188 -0.492640 0.293662
vn 0.000000 0.000000 1.000000
vn -0.000000 0.000000 1.000000
vn -0.000000 0.000000 1.000000
vn 0.000000 0.000000 1.000000
vn -0.816002 0.443421 0.370834
vn -0.816002 0.443421 0.370834
vn -0.816002 0.443421 0.370834
vn -0.816002 0.443421 0.370834
vn -0.000000 0.000000 1.000000
vn -0.000000 0.000000 1.000000
vn -0.000000 0.000000 1.000000
vn -0.000000 0.000000 1.000000
vn 0.000000 0.000000 1.000000
vn 0.000000 0.000000 1.000000
vn 0.000000 0.000000 1.000000
vn 0.000000 0.000000 1.000000
vn 0.849175 -0.462374 0.255170
vn 0.878249 -0.478205 0.000000
vn 0.878248 -0.478205 0.000000
vn 0.849175 -0.462374 0.255170
vn -0.807176 0.483699 0.338382
vn -0.807176 0.483699 0.338382
vn -0.807176 0.483699 0.338382
vn -0.807176 0.483699 0.338382
vn 0.000000 0.000000 1.000000
vn 0.000000 0.000000 1.000000
vn 0.000000 0.000000 1.000000
vn 0.000000 0.000000 1.000000
vn 0.000000 0.000000 1.000000
vn 0.000000 0.000000 1.000000
vn 0.000000 0.000000 1.000000
vn 0.000000 0.000000 1.000000
vn 0.525093 0.851045 0.000000
vn 0.511975 0.826564 0.233825
vn 0.628245 0.739085 0.243026
vn 0.647662 0.761928 0.000000
vn -0.463022 -0.858948 0.218677
vn -0.475267 -0.879842 -0.000000
vn -0.383094 -0.923709 -0.000000
vn -0.373235 -0.899938 0.225405
vn 0.000000 0.000000 1.000000
vn 0.000000 0.000000 1.000000
vn 0.000000 0.000000 1.000000
vn 0.000000 0.000000 1.000000
vn -0.974609 0.223913 0.000000
vn -0.936680 0.215199 0.276263
vn -0.839191 0.456532 0.295528
vn -0.881136 0.472864 -0.000000
vn -0.881136 0.472864 -0.000000
vn -0.839191 0.456532 0.295528
vn -0.713360 0.635126 0.296197
vn -0.713360 0.635126 0.296197
vn -0.804627 0.464195 0.370270
vn -0.804626 0.464195 0.370270
vn -0.804626 0.464195 0.370270
vn -0.804626 0.464195 0.370270
vn 0.820713 -0.491084 0.292005
vn 0.820713 -0.491084 0.292005
vn 0.820713 -0.491084 0.292005
vn 0.820713 -0.491084 0.292005
vn 0.812022 -0.455772 -0.364544
vn 0.704370 -0.619011 -0.347403
vn 0.704370 -0.619011 -0.347403
vn 0.810228 -0.459112 -0.364345
vn 0.894334 -0.255667 -0.367152
vn 0.894334 -0.255667 -0.367152
vn 0.812022 -0.455772 -0.364544
vn 0.810228 -0.459112 -0.364345
vn 0.000000 0.000000 -1.000000
vn 0.000000 0.000000 -1.000000
vn 0.000000 0.000000 -1.000000
vn 0.000000 0.000000 -1.000000
vn -0.548735 -0.809255 -0.209754
vn -0.463022 -0.858948 -0.218677
vn -0.475267 -0.879842 0.000000
vn -0.561219 -0.827667 0.000000
vn 0.000000 0.000000 -1.000000
vn 0.000000 0.000000 -1.000000
vn 0.000000 0.000000 -1.000000
vn 0.000000 0.000000 -1.000000
vn 0.404202 0.914670 -0.000000
vn 0.525093 0.851045 -0.000000
vn 0.511974 0.826564 -0.233826
vn 0.394223 0.892089 -0.220828
vn 0.000000 0.000000 -1.000000
vn 0.000000 0.000000 -1.000000
vn 0.000000 0.000000 -1.000000
vn 0.000000 0.000000 -1.000000
vn 0.525093 0.851045 -0.000000
vn 0.647661 0.761928 0.000000
vn 0.628244 0.739085 -0.243026
vn 0.511974 0.826564 -0.233826
vn -0.463022 -0.858948 -0.218677
vn -0.373236 -0.899938 -0.225404
vn -0.383095 -0.923709 0.000000
vn -0.475267 -0.879842 0.000000
vn 0.000000 0.000000 -1.000000
vn 0.000000 0.000000 -1.000000
vn 0.000000 0.000000 -1.000000
vn 0.000000 0.000000 -1.000000
vn -0.972542 0.232727 0.000000
vn -0.881054 0.473017 0.000000
vn -0.839833 0.456598 -0.293595
vn -0.935156 0.223781 -0.274602
vn -0.881054 0.473017 0.000000
vn -0.717465 0.630999 -0.295099
vn -0.717465 0.630999 -0.295099
vn -0.839833 0.456598 -0.293595
vn 0.000000 0.000000 -1.000000
vn 0.000000 0.000000 -1.000000
vn 0.000000 0.000000 -1.000000
vn -0.000000 0.000000 -1.000000
vn 0.811516 -0.455248 -0.366320
vn 0.700087 -0.623238 -0.348501
vn 0.700087 -0.623238 -0.348501
vn 0.809541 -0.458924 -0.366103
vn -0.465067 -0.816227 -0.342764
vn -0.409610 -0.844524 -0.344962
vn -0.409610 -0.844524 -0.344962
vn -0.465341 -0.816076 -0.342750
vn 0.457720 0.813013 -0.359864
vn 0.543189 0.764517 -0.347072
vn 0.543189 0.764517 -0.347072
vn 0.457444 0.813153 -0.359899
vn 0.896175 -0.247118 -0.368515
vn 0.896175 -0.247118 -0.368515
vn 0.811516 -0.455248 -0.366320
vn 0.809541 -0.458924 -0.366103
vn 0.000000 0.000000 -1.000000
vn 0.000000 0.000000 -1.000000
vn -0.000000 0.000000 -1.000000
vn -0.000000 0.000000 -1.000000
vn -0.522448 -0.782413 -0.338936
vn -0.465067 -0.816227 -0.342764
vn -0.465341 -0.816076 -0.342750
vn -0.522448 -0.782413 -0.338936
vn 0.366206 0.854137 -0.369247
vn 0.457720 0.813013 -0.359864
vn 0.457444 0.813153 -0.359899
vn 0.366206 0.854137 -0.369247
vn 0.000000 0.000000 -1.000000
vn 0.000000 0.000000 -1.000000
vn 0.000000 0.000000 -1.000000
vn 0.000000 0.000000 -1.000000
vn -0.548734 -0.809255 -0.209754
vn -0.463022 -0.858948 -0.218677
vn -0.475267 -0.879842 -0.000000
vn -0.561219 -0.827667 -0.000000
vn 0.000000 0.000000 -1.000000
vn 0.000000 0.000000 -1.000000
vn 0.000000 0.000000 -1.000000
vn 0.000000 0.000000 -1.000000
vn 0.404202 0.914670 0.000000
vn 0.525093 0.851045 0.000000
vn 0.511975 0.826564 -0.233825
vn 0.394224 0.892089 -0.220827
vn 0.819188 -0.492640 -0.293662
vn 0.819188 -0.492640 -0.293662
vn 0.819188 -0.492639 -0.293662
vn 0.819188 -0.492639 -0.293662
vn 0.000000 0.000000 -1.000000
vn 0.000000 0.000000 -1.000000
vn -0.000000 0.000000 -1.000000
vn -0.000000 0.000000 -1.000000
vn -0.816002 0.443421 -0.370834
vn -0.816003 0.443421 -0.370834
vn -0.816002 0.443421 -0.370834
vn -0.816002 0.443421 -0.370834
vn -0.000000 0.000000 -1.000000
vn -0.000000 0.000000 -1.000000
vn -0.000000 0.000000 -1.000000
vn -0.000000 0.000000 -1.000000
vn 0.000000 0.000000 -1.000000
vn 0.000000 0.000000 -1.000000
vn 0.000000 0.000000 -1.000000
vn 0.000000 0.000000 -1.000000
vn 0.849175 -0.462374 -0.255170
vn 0.849175 -0.462374 -0.255170
vn 0.878248 -0.478205 0.000000
vn 0.878249 -0.478205 0.000000
vn -0.807176 0.483699 -0.338382
vn -0.807176 0.483699 -0.338382
vn -0.807176 0.483699 -0.338382
vn -0.807176 0.483699 -0.338382
vn 0.000000 0.000000 -1.000000
vn 0.000000 0.000000 -1.000000
vn 0.000000 0.000000 -1.000000
vn 0.000000 0.000000 -1.000000
vn 0.000000 0.000000 -1.000000
vn 0.000000 0.000000 -1.000000
vn 0.000000 0.000000 -1.000000
vn 0.000000 0.000000 -1.000000
vn 0.525093 0.851045 0.000000
vn 0.647662 0.761928 0.000000
vn 0.628245 0.739085 -0.243026
vn 0.511975 0.826564 -0.233825
vn -0.463022 -0.858948 -0.218677
vn -0.373235 -0.899938 -0.225405
vn -0.383094 -0.923709 -0.000000
vn -0.475267 -0.879842 -0.000000
vn 0.000000 0.000000 -1.000000
vn 0.000000 0.000000 -1.000000
vn 0.000000 0.000000 -1.000000
vn 0.000000 0.000000 -1.000000
vn -0.974609 0.223913 0.000000
vn -0.881136 0.472864 -0.000000
vn -0.839191 0.456532 -0.295528
vn -0.936680 0.215199 -0.276263
vn -0.881136 0.472864 -0.000000
vn -0.713360 0.635126 -0.296197
vn -0.713360 0.635126 -0.296197
vn -0.839191 0.456532 -0.295528
vn -0.804627 0.464195 -0.370270
vn -0.804626 0.464195 -0.370270
vn -0.804627 0.464195 -0.370270
vn -0.804626 0.464195 -0.370270
vn 0.820713 -0.491084 -0.292005
vn 0.820713 -0.491084 -0.292005
vn 0.820713 -0.491084 -0.292005
vn 0.820713 -0.491084 -0.292005
s off
f 1/1/1 2/2/2 3/3/3 4/4/4
f 5/5/5 2/2/6 1/1/7 6/6/8
f 7/7/9 8/8/10 16/16/11 12/12/12
f 8/8/13 9/9/14 15/15/15 16/16/16
f 11/11/17 7/7/18 12/12/19 13/13/20
f 10/10/21 11/11/22 13/13/23 14/14/24
f 13/13/25 12/12/26 2/2/27 5/5/28
f 14/14/29 13/13/30 5/5/31 6/6/32
f 16/16/33 15/15/34 4/4/35 3/3/36
f 12/12/37 16/16/38 3/3/39 2/2/40
f 9/9/41 8/8/42 7/17/43 17/18/44
f 17/18/45 7/17/46 11/11/47 10/10/48
f 26/19/49 27/20/50 21/21/51 20/22/52
f 28/23/53 29/24/54 30/25/55 31/26/56
f 34/27/57 35/28/58 36/29/59 37/30/60
f 40/31/61 41/32/62 42/33/63 43/34/64
f 32/35/65 29/24/66 28/23/67 33/36/68
f 18/37/69 19/38/70 27/20/71 26/19/72
f 39/39/73 38/40/74 35/28/75 34/27/76
f 44/41/77 45/42/78 41/32/79 40/31/80
f 46/43/81 47/44/82 55/45/83 51/46/84
f 47/44/85 48/47/86 54/48/87 55/45/88
f 50/49/89 46/43/90 51/46/91 52/50/92
f 49/51/93 50/49/94 52/50/95 53/52/96
f 23/53/97 21/21/98 37/30/99 36/29/100
f 21/21/101 27/20/102 34/27/103 37/30/104
f 19/38/105 25/54/106 38/40/107 39/39/108
f 27/20/109 19/38/110 39/39/111 34/27/112
f 26/19/113 20/22/114 42/33/115 41/32/116
f 20/22/117 22/55/118 43/34/119 42/33/120
f 24/56/121 18/37/122 45/42/123 44/41/124
f 18/37/125 26/19/126 41/32/127 45/42/128
f 52/50/129 51/46/130 29/24/131 32/35/132
f 53/52/133 52/50/134 32/35/135 33/36/136
f 55/45/137 54/48/138 31/26/139 30/25/140
f 51/46/141 55/45/142 30/25/143 29/24/144
f 48/47/145 47/44/146 46/57/147 56/58/148
f 56/58/149 46/57/150 50/49/151 49/51/152
f 18/37/153 24/56/154 25/54/155 19/38/156
f 22/55/157 20/22/158 21/21/159 23/53/160
f 1/59/161 4/62/162 58/61/163 57/60/164
f 59/63/165 6/64/166 1/59/167 57/60/168
f 60/65/169 63/68/170 65/67/171 61/66/172
f 61/66/173 65/67/174 15/70/175 9/69/176
f 62/71/177 64/72/178 63/68/179 60/65/180
f 10/73/181 14/74/182 64/72/183 62/71/184
f 64/72/185 59/63/186 57/60/187 63/68/188
f 14/74/189 6/64/190 59/63/191 64/72/192
f 65/67/193 58/61/194 4/62/195 15/70/196
f 63/68/197 57/60/198 58/61/199 65/67/200
f 9/69/201 17/76/202 60/75/203 61/66/204
f 17/76/205 10/73/206 62/71/207 60/75/208
f 70/77/209 68/80/210 69/79/211 71/78/212
f 28/81/213 31/84/214 73/83/215 72/82/216
f 75/85/217 76/88/218 36/87/219 35/86/220
f 40/89/221 43/92/222 79/91/223 78/90/224
f 74/93/225 33/94/226 28/81/227 72/82/228
f 66/95/229 70/77/230 71/78/231 67/96/232
f 77/97/233 75/85/234 35/86/235 38/98/236
f 44/99/237 40/89/238 78/90/239 80/100/240
f 81/101/241 84/104/242 86/103/243 82/102/244
f 82/102/245 86/103/246 54/106/247 48/105/248
f 83/107/249 85/108/250 84/104/251 81/101/252
f 49/109/253 53/110/254 85/108/255 83/107/256
f 23/111/257 36/87/258 76/88/259 69/79/260
f 69/79/261 76/88/262 75/85/263 71/78/264
f 67/96/265 77/97/266 38/98/267 25/112/268
f 71/78/269 75/85/270 77/97/271 67/96/272
f 70/77/273 78/90/274 79/91/275 68/80/276
f 68/80/277 79/91/278 43/92/279 22/113/280
f 24/114/281 44/99/282 80/100/283 66/95/284
f 66/95/285 80/100/286 78/90/287 70/77/288
f 85/108/289 74/93/290 72/82/291 84/104/292
f 53/110/293 33/94/294 74/93/295 85/108/296
f 86/103/297 73/83/298 31/84/299 54/106/300
f 84/104/301 72/82/302 73/83/303 86/103/304
f 48/105/305 56/116/306 81/115/307 82/102/308
f 56/116/309 49/109/310 83/107/311 81/115/312
f 66/95/313 67/96/314 25/112/315 24/114/316
f 22/113/317 23/111/318 69/79/319 68/80/320
