# This file uses centimeters as units for non-parametric coordinates.

v 5.059673 16.280180 -0.000000
v 0.300706 19.374996 0.000000
v -4.758966 16.801022 0.000000
v -5.059672 11.132228 0.000000
v -0.300705 8.037413 0.000000
v 4.758966 10.611389 -0.000000
v 3.932790 16.117483 4.000000
v 0.471089 18.368673 4.000000
v -3.209348 16.496346 4.000000
v -3.428084 12.372829 4.000000
v 0.033618 10.121641 4.000000
v 3.714054 11.993969 4.000000
v -7.944180 -16.183371 -0.000000
v -5.229871 -16.077028 -0.000000
v -3.892973 -15.581964 0.000000
v -3.811948 -0.636161 -0.000000
v -5.148847 0.659712 0.000000
v -7.984693 0.457665 0.000000
v -8.673398 2.738505 0.000000
v 4.176558 6.911250 0.000000
v 4.217070 -15.176843 0.000000
v 5.513456 -15.890159 0.000000
v 8.673398 -16.061335 0.000000
v 8.390335 -19.406200 0.000000
v -7.665636 -19.538504 0.000000
v 7.279531 -16.596115 4.000000
v 7.260269 -18.981483 4.000000
v 4.627410 -16.630117 4.000000
v 3.407057 -15.475507 4.000000
v 3.505359 5.973580 4.000000
v -7.491216 2.550802 4.000000
v -6.701504 0.874654 4.000000
v -4.321396 1.176534 4.000000
v -3.331648 -0.043388 4.000000
v -3.267348 -15.762601 4.000000
v -4.389399 -16.698120 4.000000
v -6.667502 -16.800125 4.000000
v -6.683221 -18.981483 4.000000
v -3.864241 -10.282063 0.000000
v 4.212536 -12.705093 0.000000
v 3.315365 -12.467695 4.000000
v -3.137254 -10.468405 4.000000
v 3.932790 16.117483 -4.000000
v 0.471089 18.368673 -4.000000
v -3.209348 16.496346 -4.000000
v -3.428084 12.372829 -4.000000
v 0.033618 10.121641 -4.000000
v 3.714054 11.993969 -4.000000
v 7.279531 -16.596115 -4.000000
v 7.260269 -18.981483 -4.000000
v 4.627410 -16.630117 -4.000000
v 3.407057 -15.475507 -4.000000
v 3.505359 5.973580 -4.000000
v -7.491216 2.550802 -4.000000
v -6.701504 0.874654 -4.000000
v -4.321396 1.176534 -4.000000
v -3.331648 -0.043388 -4.000000
v -3.267348 -15.762601 -4.000000
v -4.389399 -16.698120 -4.000000
v -6.667502 -16.800125 -4.000000
v -6.683221 -18.981483 -4.000000
v 3.315365 -12.467695 -4.000000
v -3.137254 -10.468405 -4.000000
vt 0.984357 0.990500
vt 0.986701 0.989820
vt 0.986617 0.990041
vt 0.984912 0.990535
vt 0.989192 0.990385
vt 0.988429 0.990452
vt 0.989340 0.991630
vt 0.988536 0.991357
vt 0.986997 0.992309
vt 0.986832 0.991851
vt 0.984506 0.991744
vt 0.985020 0.991440
vt 0.989467 0.986659
vt 0.986101 0.985339
vt 0.989954 0.986392
vt 0.983695 0.990909
vt 0.991601 0.990938
vt 0.991738 0.990202
vt 0.990401 0.990178
vt 0.989743 0.990070
vt 0.989729 0.988906
vt 0.985752 0.989438
vt 0.985750 0.989981
vt 0.985112 0.990137
vt 0.983556 0.990175
vt 0.984242 0.990292
vt 0.984252 0.990816
vt 0.985548 0.990300
vt 0.986149 0.990046
vt 0.986194 0.989386
vt 0.985770 0.985133
vt 0.992097 0.986049
vt 0.991515 0.986090
vt 0.991758 0.986549
vt 0.991126 0.986458
vt 0.990361 0.986505
vt 0.989703 0.986789
vt 0.989371 0.988947
vt 0.989988 0.990315
vt 0.989435 0.990109
vt 0.991109 0.990337
vt 0.991117 0.990816
vt 0.984357 0.990500
vt 0.986701 0.989820
vt 0.986617 0.990041
vt 0.984912 0.990535
vt 0.989192 0.990385
vt 0.988429 0.990452
vt 0.989340 0.991630
vt 0.988536 0.991357
vt 0.986997 0.992309
vt 0.986832 0.991851
vt 0.984506 0.991744
vt 0.985020 0.991440
vt 0.989467 0.986659
vt 0.986101 0.985339
vt 0.989954 0.986392
vt 0.983695 0.990909
vt 0.983556 0.990175
vt 0.984242 0.990292
vt 0.984252 0.990816
vt 0.985112 0.990137
vt 0.985548 0.990300
vt 0.985750 0.989981
vt 0.986149 0.990046
vt 0.985752 0.989438
vt 0.986194 0.989386
vt 0.985770 0.985133
vt 0.992097 0.986049
vt 0.991515 0.986090
vt 0.991758 0.986549
vt 0.991126 0.986458
vt 0.990361 0.986505
vt 0.989703 0.986789
vt 0.989729 0.988906
vt 0.989371 0.988947
vt 0.989743 0.990070
vt 0.990401 0.990178
vt 0.989988 0.990315
vt 0.989435 0.990109
vt 0.991738 0.990202
vt 0.991109 0.990337
vt 0.991601 0.990938
vt 0.991117 0.990816
vn 0.545173 0.838324 -0.000000
vn 0.545173 0.838324 -0.000000
vn 0.535817 0.823938 0.184463
vn 0.535817 0.823938 0.184463
vn -0.453423 0.891295 0.000000
vn -0.453423 0.891295 0.000000
vn -0.440546 0.865982 0.236630
vn -0.440546 0.865982 0.236630
vn -0.930064 0.049336 0.364069
vn -0.930064 0.049336 0.364069
vn -0.930064 0.049336 0.364069
vn -0.930064 0.049336 0.364069
vn -0.491029 -0.755066 0.434473
vn -0.491029 -0.755066 0.434473
vn -0.491029 -0.755066 0.434473
vn -0.491029 -0.755066 0.434473
vn 0.417071 -0.819838 0.392323
vn 0.417071 -0.819838 0.392323
vn 0.417071 -0.819838 0.392323
vn 0.417071 -0.819838 0.392323
vn 0.961819 -0.051021 0.268889
vn 0.961819 -0.051021 0.268889
vn 0.961819 -0.051021 0.268889
vn 0.961819 -0.051021 0.268889
vn 0.000000 0.000000 1.000000
vn 0.000000 0.000000 1.000000
vn 0.000000 0.000000 1.000000
vn 0.000000 0.000000 1.000000
vn 0.000000 0.000000 1.000000
vn 0.000000 0.000000 1.000000
vn 0.000000 0.000000 1.000000
vn 0.000000 0.000000 1.000000
vn 0.000000 0.000000 1.000000
vn 0.000000 0.000000 1.000000
vn -0.000000 0.000000 1.000000
vn 0.952657 -0.050262 0.299864
vn 0.952657 -0.050262 0.299864
vn 0.952657 -0.050262 0.299864
vn 0.952657 -0.050262 0.299864
vn 0.023595 0.999722 -0.000000
vn 0.023595 0.999722 -0.000000
vn 0.023276 0.986222 0.163781
vn 0.023276 0.986222 0.163781
vn 0.595984 0.802996 0.000000
vn 0.595984 0.802996 0.000000
vn 0.580743 0.782461 0.224707
vn 0.580743 0.782461 0.224707
vn 0.999846 0.017558 0.000000
vn 0.999999 -0.001146 -0.000000
vn 0.980994 -0.001476 0.194032
vn 0.977809 0.017171 0.208794
vn -0.303494 0.952834 -0.000000
vn -0.303494 0.952834 -0.000000
vn -0.299984 0.941814 0.151647
vn -0.299984 0.941814 0.151647
vn -0.897564 -0.335350 0.286215
vn -0.897564 -0.335350 0.286215
vn -0.897564 -0.335350 0.286215
vn -0.897564 -0.335350 0.286215
vn 0.096165 -0.995366 -0.000000
vn 0.096165 -0.995366 -0.000000
vn 0.095771 -0.991286 0.090442
vn 0.095771 -0.991286 0.090442
vn -0.734167 -0.678969 0.000000
vn -0.734167 -0.678969 0.000000
vn -0.717885 -0.663911 0.209436
vn -0.717885 -0.663911 0.209436
vn -0.999975 -0.007080 0.000000
vn -1.000000 0.000263 0.000000
vn -0.987761 0.000826 0.155971
vn -0.988727 -0.007000 0.149565
vn -0.502873 0.864360 0.000000
vn -0.502873 0.864360 0.000000
vn -0.495025 0.850869 0.175990
vn -0.495025 0.850869 0.175990
vn -0.041696 0.999130 0.000000
vn -0.041696 0.999130 0.000000
vn -0.041136 0.985701 0.163405
vn -0.041136 0.985701 0.163405
vn -0.961452 -0.045642 0.271160
vn -0.961452 -0.045642 0.271160
vn -0.961452 -0.045642 0.271160
vn -0.961452 -0.045642 0.271160
vn 0.004410 -0.999990 -0.000000
vn 0.004410 -0.999990 -0.000000
vn 0.004377 -0.992535 0.121882
vn 0.004377 -0.992535 0.121882
vn 0.000000 0.000000 1.000000
vn 0.000000 0.000000 1.000000
vn 0.000000 0.000000 1.000000
vn 0.000000 0.000000 1.000000
vn 0.000000 0.000000 1.000000
vn 0.000000 0.000000 1.000000
vn 0.000000 0.000000 1.000000
vn 0.000000 0.000000 1.000000
vn 0.000000 0.000000 1.000000
vn 0.000000 0.000000 1.000000
vn 0.000000 0.000000 1.000000
vn -0.000000 0.000000 1.000000
vn 0.000000 0.000000 1.000000
vn -0.000000 0.000000 1.000000
vn -0.000000 0.000000 1.000000
vn 0.000000 0.000000 1.000000
vn 0.000000 0.000000 1.000000
vn 0.000000 0.000000 1.000000
vn 0.000000 0.000000 1.000000
vn 0.000000 0.000000 1.000000
vn 0.000000 0.000000 1.000000
vn 0.000000 0.000000 1.000000
vn 0.980994 -0.001476 0.194032
vn 0.999999 -0.001146 -0.000000
vn 0.999992 -0.004047 -0.000000
vn 0.981378 -0.003972 0.192048
vn -0.987761 0.000826 0.155971
vn -1.000000 0.000263 0.000000
vn -0.999888 0.014990 0.000000
vn -0.985787 0.014779 0.167351
vn 0.000000 0.000000 1.000000
vn 0.000000 0.000000 1.000000
vn 0.000000 0.000000 1.000000
vn 0.000000 0.000000 1.000000
vn 0.545173 0.838324 -0.000000
vn 0.535817 0.823938 -0.184463
vn 0.535817 0.823938 -0.184463
vn 0.545173 0.838324 -0.000000
vn -0.453423 0.891295 0.000000
vn -0.440546 0.865982 -0.236630
vn -0.440546 0.865982 -0.236630
vn -0.453423 0.891295 0.000000
vn -0.930064 0.049336 -0.364069
vn -0.930064 0.049336 -0.364069
vn -0.930064 0.049336 -0.364069
vn -0.930064 0.049336 -0.364069
vn -0.491029 -0.755066 -0.434473
vn -0.491029 -0.755066 -0.434473
vn -0.491029 -0.755066 -0.434473
vn -0.491029 -0.755066 -0.434473
vn 0.417071 -0.819838 -0.392323
vn 0.417071 -0.819838 -0.392323
vn 0.417071 -0.819838 -0.392323
vn 0.417071 -0.819838 -0.392323
vn 0.961819 -0.051021 -0.268889
vn 0.961819 -0.051021 -0.268889
vn 0.961819 -0.051021 -0.268889
vn 0.961819 -0.051021 -0.268889
vn 0.000000 0.000000 -1.000000
vn 0.000000 0.000000 -1.000000
vn 0.000000 0.000000 -1.000000
vn 0.000000 0.000000 -1.000000
vn 0.000000 0.000000 -1.000000
vn 0.000000 0.000000 -1.000000
vn 0.000000 0.000000 -1.000000
vn 0.000000 0.000000 -1.000000
vn 0.000000 0.000000 -1.000000
vn 0.000000 0.000000 -1.000000
vn 0.000000 0.000000 -1.000000
vn 0.952657 -0.050262 -0.299864
vn 0.952657 -0.050262 -0.299864
vn 0.952657 -0.050262 -0.299864
vn 0.952657 -0.050262 -0.299864
vn 0.023595 0.999722 -0.000000
vn 0.023276 0.986222 -0.163781
vn 0.023276 0.986222 -0.163781
vn 0.023595 0.999722 -0.000000
vn 0.595984 0.802996 0.000000
vn 0.580743 0.782461 -0.224706
vn 0.580743 0.782461 -0.224706
vn 0.595984 0.802996 0.000000
vn 0.999846 0.017558 0.000000
vn 0.977809 0.017171 -0.208794
vn 0.980994 -0.001476 -0.194032
vn 0.999999 -0.001146 -0.000000
vn -0.303494 0.952834 -0.000000
vn -0.299984 0.941814 -0.151647
vn -0.299984 0.941814 -0.151647
vn -0.303494 0.952834 -0.000000
vn -0.897564 -0.335350 -0.286215
vn -0.897564 -0.335350 -0.286215
vn -0.897564 -0.335350 -0.286215
vn -0.897564 -0.335350 -0.286215
vn 0.096165 -0.995366 -0.000000
vn 0.095771 -0.991286 -0.090442
vn 0.095771 -0.991286 -0.090442
vn 0.096165 -0.995366 -0.000000
vn -0.734167 -0.678969 0.000000
vn -0.717885 -0.663911 -0.209436
vn -0.717885 -0.663911 -0.209436
vn -0.734167 -0.678969 0.000000
vn -0.999975 -0.007080 0.000000
vn -0.988727 -0.007000 -0.149565
vn -0.987761 0.000826 -0.155971
vn -1.000000 0.000263 0.000000
vn -0.502873 0.864360 0.000000
vn -0.495025 0.850869 -0.175990
vn -0.495025 0.850869 -0.175990
vn -0.502873 0.864360 0.000000
vn -0.041696 0.999130 0.000000
vn -0.041136 0.985701 -0.163405
vn -0.041136 0.985701 -0.163405
vn -0.041696 0.999130 0.000000
vn -0.961452 -0.045642 -0.271160
vn -0.961452 -0.045642 -0.271160
vn -0.961452 -0.045642 -0.271160
vn -0.961452 -0.045642 -0.271160
vn 0.004410 -0.999990 -0.000000
vn 0.004377 -0.992535 -0.121882
vn 0.004377 -0.992535 -0.121882
vn 0.004410 -0.999990 -0.000000
vn 0.000000 0.000000 -1.000000
vn 0.000000 0.000000 -1.000000
vn 0.000000 0.000000 -1.000000
vn 0.000000 0.000000 -1.000000
vn 0.000000 0.000000 -1.000000
vn 0.000000 0.000000 -1.000000
vn 0.000000 0.000000 -1.000000
vn 0.000000 0.000000 -1.000000
vn 0.000000 0.000000 -1.000000
vn 0.000000 0.000000 -1.000000
vn 0.000000 0.000000 -1.000000
vn 0.000000 0.000000 -1.000000
vn 0.000000 0.000000 -1.000000
vn 0.000000 0.000000 -1.000000
vn 0.000000 0.000000 -1.000000
vn 0.000000 0.000000 -1.000000
vn 0.000000 0.000000 -1.000000
vn 0.000000 0.000000 -1.000000
vn 0.000000 0.000000 -1.000000
vn 0.000000 0.000000 -1.000000
vn 0.000000 0.000000 -1.000000
vn 0.000000 0.000000 -1.000000
vn 0.980994 -0.001476 -0.194032
vn 0.981378 -0.003972 -0.192048
vn 0.999992 -0.004047 -0.000000
vn 0.999999 -0.001146 -0.000000
vn -0.987761 0.000826 -0.155971
vn -0.985787 0.014779 -0.167351
vn -0.999888 0.014990 0.000000
vn -1.000000 0.000263 0.000000
vn 0.000000 0.000000 -1.000000
vn 0.000000 0.000000 -1.000000
vn 0.000000 0.000000 -1.000000
vn 0.000000 0.000000 -1.000000
s off
f 1/1/1 2/2/2 8/3/3 7/4/4
f 2/2/5 3/5/6 9/6/7 8/3/8
f 3/5/9 4/7/10 10/8/11 9/6/12
f 4/7/13 5/9/14 11/10/15 10/8/16
f 5/9/17 6/11/18 12/12/19 11/10/20
f 6/11/21 1/1/22 7/4/23 12/12/24
f 9/6/25 10/8/26 11/10/27 12/12/28
f 9/6/29 12/12/30 7/4/31 8/3/32
f 34/13/33 30/14/34 33/15/35
f 24/16/36 23/25/37 26/26/38 27/27/39
f 23/25/40 22/24/41 28/28/42 26/26/43
f 22/24/44 21/23/45 29/29/46 28/28/47
f 21/23/48 40/22/49 41/30/50 29/29/51
f 20/31/52 19/32/53 31/33/54 30/14/55
f 19/32/56 18/34/57 32/35/58 31/33/59
f 18/34/60 17/36/61 33/15/62 32/35/63
f 17/36/64 16/37/65 34/13/66 33/15/67
f 16/37/68 39/21/69 42/38/70 34/13/71
f 15/20/72 14/19/73 36/39/74 35/40/75
f 14/19/76 13/18/77 37/41/78 36/39/79
f 13/18/80 25/17/81 38/42/82 37/41/83
f 25/17/84 24/16/85 27/27/86 38/42/87
f 27/27/88 26/26/89 28/28/90
f 36/39/91 28/28/92 29/29/93 35/40/94
f 35/40/95 29/29/96 41/30/97 42/38/98
f 33/15/99 30/14/100 31/33/101 32/35/102
f 38/42/103 36/39/104 37/41/105
f 27/27/106 28/28/107 36/39/108 38/42/109
f 41/30/110 40/22/111 20/31/112 30/14/113
f 42/38/114 39/21/115 15/20/116 35/40/117
f 42/38/118 41/30/119 30/14/120 34/13/121
f 1/43/122 43/46/123 44/45/124 2/44/125
f 2/44/126 44/45/127 45/48/128 3/47/129
f 3/47/130 45/48/131 46/50/132 4/49/133
f 4/49/134 46/50/135 47/52/136 5/51/137
f 5/51/138 47/52/139 48/54/140 6/53/141
f 6/53/142 48/54/143 43/46/144 1/43/145
f 45/48/146 48/54/147 47/52/148 46/50/149
f 45/48/150 44/45/151 43/46/152 48/54/153
f 57/55/154 56/57/155 53/56/156
f 24/58/157 50/61/158 49/60/159 23/59/160
f 23/59/161 49/60/162 51/63/163 22/62/164
f 22/62/165 51/63/166 52/65/167 21/64/168
f 21/64/169 52/65/170 62/67/171 40/66/172
f 20/68/173 53/56/174 54/70/175 19/69/176
f 19/69/177 54/70/178 55/72/179 18/71/180
f 18/71/181 55/72/182 56/57/183 17/73/184
f 17/73/185 56/57/186 57/55/187 16/74/188
f 16/74/189 57/55/190 63/76/191 39/75/192
f 15/77/193 58/80/194 59/79/195 14/78/196
f 14/78/197 59/79/198 60/82/199 13/81/200
f 13/81/201 60/82/202 61/84/203 25/83/204
f 25/83/205 61/84/206 50/61/207 24/58/208
f 50/61/209 51/63/210 49/60/211
f 59/79/212 58/80/213 52/65/214 51/63/215
f 58/80/216 63/76/217 62/67/218 52/65/219
f 56/57/220 55/72/221 54/70/222 53/56/223
f 61/84/224 60/82/225 59/79/226
f 50/61/227 61/84/228 59/79/229 51/63/230
f 62/67/231 53/56/232 20/68/233 40/66/234
f 63/76/235 58/80/236 15/77/237 39/75/238
f 63/76/239 57/55/240 53/56/241 62/67/242
