# This file uses centimeters as units for non-parametric coordinates.

v 0.017208 -19.353870 0.000000
v 19.269587 0.000004 0.000000
v 0.017208 19.353878 0.000000
v 15.245481 -0.143166 -4.000000
v 2.638809 13.061734 -4.000000
v 2.638809 -13.043220 -4.000000
v 15.245481 -0.143166 4.000000
v 2.638809 13.061734 4.000000
v 2.638809 -13.043220 4.000000
v -19.269592 -19.353870 0.000000
v 0.070956 0.000004 0.000000
v -19.269592 19.353878 0.000000
v -4.041320 -0.143166 -4.000000
v -16.647991 13.061734 -4.000000
v -16.647991 -13.043220 -4.000000
v -4.041320 -0.143166 4.000000
v -16.647991 13.061734 4.000000
v -16.647991 -13.043220 4.000000
vt 0.484789 0.983436
vt 0.484042 0.983700
vt 0.484039 0.983169
vt 0.484863 0.983444
vt 0.484097 0.983659
vt 0.484095 0.983224
vt 0.484863 0.983444
vt 0.484097 0.983659
vt 0.484095 0.983224
vt 0.484789 0.983436
vt 0.484042 0.983700
vt 0.484039 0.983169
vt 0.484863 0.983444
vt 0.484095 0.983224
vt 0.484097 0.983659
vt 0.484789 0.983436
vt 0.484042 0.983700
vt 0.484039 0.983169
vt 0.484863 0.983444
vt 0.484097 0.983659
vt 0.484095 0.983224
vt 0.484789 0.983436
vt 0.484042 0.983700
vt 0.484039 0.983169
vn 0.000000 0.000000 -1.000000
vn 0.000000 0.000000 -1.000000
vn 0.000000 0.000000 -1.000000
vn 0.588870 0.576215 -0.566752
vn 0.588871 0.576215 -0.566752
vn 0.588870 0.576215 -0.566752
vn 0.588870 0.576215 -0.566752
vn -0.836374 0.000000 -0.548160
vn -0.836374 0.000000 -0.548160
vn -0.836374 0.000000 -0.548160
vn -0.836374 0.000000 -0.548160
vn 0.592009 -0.584761 -0.554600
vn 0.592009 -0.584761 -0.554600
vn 0.592009 -0.584761 -0.554600
vn 0.592009 -0.584761 -0.554600
vn 0.000000 0.000000 1.000000
vn 0.000000 0.000000 1.000000
vn 0.000000 0.000000 1.000000
vn 0.588870 0.576215 0.566752
vn 0.588870 0.576215 0.566752
vn 0.588870 0.576215 0.566752
vn 0.588871 0.576215 0.566752
vn -0.836374 0.000000 0.548160
vn -0.836374 0.000000 0.548160
vn -0.836374 0.000000 0.548160
vn -0.836374 0.000000 0.548160
vn 0.592009 -0.584761 0.554599
vn 0.592009 -0.584761 0.554599
vn 0.592009 -0.584761 0.554599
vn 0.592009 -0.584761 0.554599
vn 0.000000 0.000000 -1.000000
vn 0.000000 0.000000 -1.000000
vn 0.000000 0.000000 -1.000000
vn 0.585742 0.574740 -0.571473
vn 0.585742 0.574740 -0.571473
vn 0.585742 0.574740 -0.571473
vn 0.585742 0.574740 -0.571473
vn -0.836374 0.000000 -0.548160
vn -0.836374 0.000000 -0.548160
vn -0.836374 0.000000 -0.548160
vn -0.836374 0.000000 -0.548160
vn 0.588902 -0.583302 -0.559421
vn 0.588902 -0.583302 -0.559421
vn 0.588902 -0.583302 -0.559421
vn 0.588902 -0.583302 -0.559421
vn 0.000000 0.000000 1.000000
vn 0.000000 0.000000 1.000000
vn 0.000000 0.000000 1.000000
vn 0.585742 0.574740 0.571473
vn 0.585742 0.574740 0.571473
vn 0.585742 0.574740 0.571473
vn 0.585742 0.574740 0.571473
vn -0.836374 0.000000 0.548160
vn -0.836374 0.000000 0.548160
vn -0.836374 0.000000 0.548160
vn -0.836374 0.000000 0.548160
vn 0.588902 -0.583302 0.559421
vn 0.588902 -0.583302 0.559421
vn 0.588902 -0.583302 0.559421
vn 0.588902 -0.583302 0.559421
s off
f 4/4/1 6/6/2 5/5/3
f 2/1/4 4/4/5 5/5/6 3/2/7
f 3/2/8 5/5/9 6/6/10 1/3/11
f 1/3/12 6/6/13 4/4/14 2/1/15
f 7/7/16 8/8/17 9/9/18
f 2/10/19 3/11/20 8/8/21 7/7/22
f 3/11/23 1/12/24 9/9/25 8/8/26
f 1/12/27 2/10/28 7/7/29 9/9/30
f 13/13/31 15/14/32 14/15/33
f 11/16/34 13/13/35 14/15/36 12/17/37
f 12/17/38 14/15/39 15/14/40 10/18/41
f 10/18/42 15/14/43 13/13/44 11/16/45
f 16/19/46 17/20/47 18/21/48
f 11/22/49 12/23/50 17/20/51 16/19/52
f 12/23/53 10/24/54 18/21/55 17/20/56
f 10/24/57 11/22/58 16/19/59 18/21/60
