# This file uses centimeters as units for non-parametric coordinates.

v 20.000000 7.649002 0.000000
v -3.587463 -20.000000 0.000000
v -20.000000 -7.806717 0.000000
v -15.124512 -1.210373 -0.000000
v 18.359741 13.575455 0.000000
v 9.134888 16.880096 -0.000000
v -2.128540 -20.000000 -0.000000
v -14.696472 -0.472870 0.000000
v 17.933899 14.065353 -0.000000
v 10.057617 16.880096 0.000000
v -2.975464 -8.002090 4.000000
v -3.186340 -18.313065 4.000000
v -13.874451 -0.906067 4.000000
v -18.391235 -7.017044 4.000000
v -1.834778 -18.313065 4.000000
v -1.761963 -8.002090 4.000000
v 17.145874 12.791779 4.000000
v 18.665466 7.301407 4.000000
v 8.599854 15.853256 4.000000
v -13.477905 -0.222839 4.000000
v 16.751343 13.245621 4.000000
v 9.454651 15.853256 4.000000
v -2.975464 -8.002090 -4.000000
v -3.186340 -18.313065 -4.000000
v -13.874451 -0.906067 -4.000000
v -18.391235 -7.017044 -4.000000
v -1.834778 -18.313065 -4.000000
v -1.761963 -8.002090 -4.000000
v 17.145874 12.791779 -4.000000
v 18.665466 7.301407 -4.000000
v 8.599854 15.853256 -4.000000
v -13.477905 -0.222839 -4.000000
v 16.751343 13.245621 -4.000000
v 9.454651 15.853256 -4.000000
vt 0.955205 0.953189
vt 0.955196 0.921453
vt 0.955176 0.920861
vt 0.953224 0.986030
vt 0.953923 0.986523
vt 0.953559 0.986711
vt 0.952950 0.986126
vt 0.955254 0.953013
vt 0.955957 0.953683
vt 0.955964 0.954013
vt 0.955706 0.920453
vt 0.955964 0.920803
vt 0.955933 0.953980
vt 0.955922 0.953666
vt 0.953933 0.986541
vt 0.953594 0.986712
vt 0.952961 0.986112
vt 0.953195 0.986029
vt 0.953937 0.986473
vt 0.953947 0.986492
vt 0.952947 0.986064
vt 0.952958 0.986050
vt 0.953197 0.985964
vt 0.953226 0.985965
vt 0.951883 0.982116
vt 0.951801 0.982145
vt 0.951986 0.982960
vt 0.952168 0.982975
vt 0.952173 0.983007
vt 0.955714 0.920456
vt 0.955964 0.920803
vt 0.955196 0.921453
vt 0.955964 0.954013
vt 0.955933 0.953980
vt 0.955205 0.953189
vt 0.955254 0.953017
vt 0.955196 0.921453
vt 0.955176 0.920861
vt 0.955714 0.920456
vt 0.955964 0.920803
vt 0.955933 0.953980
vt 0.955922 0.953666
vt 0.955957 0.953683
vt 0.955964 0.954013
vt 0.955205 0.953189
vt 0.955254 0.953017
vt 0.952000 0.982983
vt 0.951804 0.982135
vt 0.951874 0.982109
vt 0.952037 0.983045
vt 0.952043 0.983080
vt 0.951677 0.982123
vt 0.951680 0.982112
vt 0.951741 0.982080
vt 0.955706 0.920453
vt 0.955964 0.920803
vt 0.955196 0.921453
vt 0.955964 0.954013
vt 0.955933 0.953980
vt 0.955205 0.953189
vt 0.955254 0.953013
vt 0.951749 0.982087
vn 0.000000 0.000000 1.000000
vn 0.000000 0.000000 1.000000
vn 0.000000 0.000000 1.000000
vn 0.000000 0.000000 1.000000
vn 0.000000 0.000000 1.000000
vn 0.000000 0.000000 1.000000
vn 0.000000 0.000000 1.000000
vn 0.000000 0.000000 1.000000
vn 0.000000 0.000000 1.000000
vn 0.000000 0.000000 1.000000
vn 0.000000 0.000000 1.000000
vn 0.000000 0.000000 1.000000
vn 0.000000 0.000000 1.000000
vn 0.000000 0.000000 1.000000
vn 0.000000 0.000000 1.000000
vn 0.000000 0.000000 1.000000
vn 0.000000 0.000000 1.000000
vn 0.000000 0.000000 1.000000
vn 0.000000 0.000000 1.000000
vn 0.000000 0.000000 1.000000
vn 0.000000 0.000000 1.000000
vn 0.000000 0.000000 1.000000
vn 0.000000 0.000000 1.000000
vn 0.000000 0.000000 1.000000
vn -0.787628 0.582150 0.201852
vn -0.787628 0.582150 0.201852
vn -0.787628 0.582150 0.201852
vn -0.787628 0.582150 0.201852
vn -0.554024 -0.745734 0.370053
vn -0.554024 -0.745734 0.370053
vn -0.554024 -0.745734 0.370053
vn -0.554024 -0.745734 0.370053
vn 0.000000 -0.921411 0.388589
vn 0.000000 -0.921411 0.388589
vn 0.000000 -0.921411 0.388589
vn 0.000000 -0.921411 0.388589
vn 0.911149 0.252175 0.325908
vn 0.911149 0.252175 0.325908
vn 0.911149 0.252175 0.325908
vn 0.911149 0.252175 0.325908
vn 0.764656 -0.611982 0.201939
vn 0.764656 -0.611982 0.201939
vn 0.764656 -0.611982 0.201939
vn 0.764656 -0.611982 0.201939
vn -0.842490 0.488975 0.226084
vn -0.842490 0.488975 0.226084
vn -0.842490 0.488975 0.226084
vn -0.842490 0.488975 0.226084
vn 0.710640 0.617766 0.336685
vn 0.710640 0.617766 0.336685
vn 0.710640 0.617766 0.336685
vn 0.710640 0.617766 0.336685
vn 0.322996 0.903813 0.280706
vn 0.322996 0.903813 0.280706
vn 0.322996 0.903813 0.280706
vn 0.322996 0.903813 0.280706
vn 0.000000 0.968594 0.248647
vn 0.000000 0.968594 0.248647
vn 0.000000 0.968594 0.248647
vn 0.000000 0.968594 0.248647
vn -0.583818 0.801774 0.127731
vn -0.583818 0.801774 0.127731
vn -0.583818 0.801774 0.127731
vn -0.583818 0.801774 0.127731
vn 0.000000 0.000000 -1.000000
vn 0.000000 0.000000 -1.000000
vn 0.000000 0.000000 -1.000000
vn 0.000000 0.000000 -1.000000
vn 0.000000 0.000000 -1.000000
vn 0.000000 0.000000 -1.000000
vn 0.000000 0.000000 -1.000000
vn 0.000000 0.000000 -1.000000
vn 0.000000 0.000000 -1.000000
vn 0.000000 0.000000 -1.000000
vn 0.000000 0.000000 -1.000000
vn 0.000000 0.000000 -1.000000
vn 0.000000 0.000000 -1.000000
vn 0.000000 0.000000 -1.000000
vn 0.000000 0.000000 -1.000000
vn 0.000000 0.000000 -1.000000
vn 0.000000 0.000000 -1.000000
vn 0.000000 0.000000 -1.000000
vn 0.000000 0.000000 -1.000000
vn 0.000000 0.000000 -1.000000
vn 0.000000 0.000000 -1.000000
vn 0.000000 0.000000 -1.000000
vn 0.000000 0.000000 -1.000000
vn 0.000000 0.000000 -1.000000
vn -0.787628 0.582150 -0.201852
vn -0.787628 0.582150 -0.201852
vn -0.787628 0.582150 -0.201852
vn -0.787628 0.582150 -0.201852
vn -0.554024 -0.745734 -0.370053
vn -0.554024 -0.745734 -0.370053
vn -0.554024 -0.745734 -0.370053
vn -0.554024 -0.745734 -0.370053
vn 0.000000 -0.921411 -0.388589
vn 0.000000 -0.921411 -0.388589
vn 0.000000 -0.921411 -0.388589
vn 0.000000 -0.921411 -0.388589
vn 0.911149 0.252175 -0.325908
vn 0.911149 0.252175 -0.325908
vn 0.911149 0.252175 -0.325908
vn 0.911149 0.252175 -0.325908
vn 0.764656 -0.611982 -0.201939
vn 0.764656 -0.611982 -0.201939
vn 0.764656 -0.611982 -0.201939
vn 0.764656 -0.611982 -0.201939
vn -0.842490 0.488975 -0.226084
vn -0.842490 0.488975 -0.226084
vn -0.842490 0.488975 -0.226084
vn -0.842490 0.488975 -0.226084
vn 0.710639 0.617766 -0.336685
vn 0.710639 0.617766 -0.336685
vn 0.710639 0.617766 -0.336685
vn 0.710639 0.617766 -0.336685
vn 0.322996 0.903813 -0.280706
vn 0.322996 0.903813 -0.280706
vn 0.322996 0.903813 -0.280706
vn 0.322996 0.903813 -0.280706
vn 0.000000 0.968594 -0.248647
vn 0.000000 0.968594 -0.248647
vn 0.000000 0.968594 -0.248647
vn 0.000000 0.968594 -0.248647
vn -0.583818 0.801774 -0.127731
vn -0.583818 0.801774 -0.127731
vn -0.583818 0.801774 -0.127731
vn -0.583818 0.801774 -0.127731
s off
f 12/32/1 11/3/2 13/30/3 14/31/4
f 15/34/5 16/14/6 11/9/7 12/33/8
f 18/35/9 17/36/10 16/14/11 15/34/12
f 19/4/13 20/5/14 16/6/15 17/7/16
f 13/15/17 11/16/18 16/6/19 20/5/20
f 21/17/21 22/18/22 19/4/23 17/7/24
f 4/11/25 3/12/26 14/31/27 13/30/28
f 3/12/29 2/2/30 12/32/31 14/31/32
f 2/10/33 7/13/34 15/34/35 12/33/36
f 1/1/37 5/8/38 17/36/39 18/35/40
f 7/13/41 1/1/42 18/35/43 15/34/44
f 8/19/45 4/20/46 13/15/47 20/5/48
f 5/21/49 9/22/50 21/17/51 17/7/52
f 9/22/53 10/23/54 22/18/55 21/17/56
f 10/23/57 6/24/58 19/4/59 22/18/60
f 6/24/61 8/19/62 20/5/63 19/4/64
f 24/37/65 26/40/66 25/39/67 23/38/68
f 27/41/69 24/44/70 23/43/71 28/42/72
f 30/45/73 27/41/74 28/42/75 29/46/76
f 31/25/77 29/26/78 28/27/79 32/28/80
f 25/29/81 32/28/82 28/27/83 23/47/84
f 33/48/85 29/26/86 31/25/87 34/49/88
f 4/55/89 25/39/90 26/40/91 3/56/92
f 3/56/93 26/40/94 24/37/95 2/57/96
f 2/58/97 24/44/98 27/41/99 7/59/100
f 1/60/101 30/45/102 29/46/103 5/61/104
f 7/59/105 27/41/106 30/45/107 1/60/108
f 8/50/109 32/28/110 25/29/111 4/51/112
f 5/52/113 29/26/114 33/48/115 9/53/116
f 9/53/117 33/48/118 34/49/119 10/54/120
f 10/54/121 34/49/122 31/25/123 6/62/124
f 6/62/125 31/25/126 32/28/127 8/50/128
