# This file uses centimeters as units for non-parametric coordinates.

v 0.182381 12.010162 0.030190
v 2.099644 10.972763 0.030190
v 5.085011 19.762070 0.030190
v 6.683109 18.476746 0.030190
v 8.609718 2.620316 0.030190
v 8.671623 5.612564 0.030190
v 5.893583 11.377502 0.030190
v -8.609722 2.419922 0.030190
v -8.671627 5.294632 0.030190
v -6.145664 11.377502 0.030190
v -5.868202 -19.762054 0.030190
v 5.868204 -19.762054 0.030190
v 0.000000 13.831436 0.030190
v 9.765680 3.078094 0.030190
v 9.762114 5.111328 0.030190
v -9.762115 4.677795 0.030190
v -9.765682 2.804855 0.030190
v 5.383728 18.647537 -1.939609
v 6.936470 2.225113 -1.939609
v 4.627792 9.493698 -1.939609
v 6.840549 5.501740 -1.939609
v -7.088577 2.482361 -1.939609
v -4.868671 9.493698 -1.939609
v -6.840546 5.183807 -1.939609
v -4.712681 -18.637878 -1.939610
v 4.525457 -18.529022 -1.939610
v 0.000000 11.274582 -1.939609
v 7.147753 2.917542 -3.999999
v 8.058794 4.692993 -3.999999
v -7.835041 3.174789 -3.999999
v -8.058792 4.375061 -3.999999
v 1.652340 12.324860 -1.939609
v 5.383728 18.647537 2.000000
v 6.936470 2.225113 2.000000
v 4.627792 9.493698 2.000000
v 6.840549 5.501740 2.000000
v -7.088577 2.482361 2.000000
v -4.868671 9.493698 2.000000
v -6.840546 5.183807 2.000000
v -4.712681 -18.637878 2.000000
v 4.525457 -18.529022 2.000000
v 0.000000 11.274582 2.000000
v 7.147753 2.917542 3.999999
v 8.058794 4.692993 3.999999
v -7.835041 3.174789 3.999999
v -8.058792 4.375061 3.999999
v 1.652340 12.324860 2.000000
vt 0.983194 0.984487
vt 0.983217 0.984489
vt 0.983288 0.984540
vt 0.983286 0.984550
vt 0.983219 0.984477
vt 0.983306 0.984537
vt 0.514479 0.982473
vt 0.514475 0.982474
vt 0.514475 0.982474
vt 0.514479 0.982473
vt 0.514479 0.982473
vt 0.514477 0.982467
vt 0.514476 0.982467
vt 0.514479 0.982473
vt 0.514475 0.982474
vt 0.514479 0.982473
vt 0.514479 0.982473
vt 0.514475 0.982474
vt 0.514477 0.982467
vt 0.514477 0.982467
vt 0.514479 0.982473
vt 0.514479 0.982473
vt 0.013600 0.952512
vt 0.013600 0.952513
vt 0.013606 0.952492
vt 0.013606 0.952492
vt 0.514477 0.982467
vt 0.514476 0.982467
vt 0.013600 0.952512
vt 0.013606 0.952492
vt 0.013606 0.952492
vt 0.013600 0.952513
vt 0.514475 0.982474
vt 0.514475 0.982474
vt 0.514475 0.982474
vt 0.514475 0.982474
vt 0.013600 0.952513
vt 0.013600 0.952512
vt 0.013600 0.952512
vt 0.013600 0.952513
vt 0.013605 0.952492
vt 0.013606 0.952492
vt 0.983194 0.984487
vt 0.983217 0.984489
vt 0.983288 0.984540
vt 0.983286 0.984550
vt 0.983219 0.984477
vt 0.983306 0.984537
vt 0.514479 0.982473
vt 0.514475 0.982474
vt 0.514475 0.982474
vt 0.514479 0.982473
vt 0.514479 0.982473
vt 0.514477 0.982467
vt 0.514476 0.982467
vt 0.514479 0.982473
vt 0.514475 0.982474
vt 0.514479 0.982473
vt 0.514479 0.982473
vt 0.514475 0.982474
vt 0.514477 0.982467
vt 0.514477 0.982467
vt 0.514479 0.982473
vt 0.514479 0.982473
vt 0.013600 0.952512
vt 0.013600 0.952513
vt 0.013606 0.952492
vt 0.013606 0.952492
vt 0.514477 0.982467
vt 0.514476 0.982467
vt 0.013600 0.952512
vt 0.013606 0.952492
vt 0.013606 0.952492
vt 0.013600 0.952513
vt 0.514475 0.982474
vt 0.514475 0.982474
vt 0.514475 0.982474
vt 0.514475 0.982474
vt 0.013600 0.952513
vt 0.013600 0.952512
vt 0.013600 0.952512
vt 0.013600 0.952513
vt 0.013605 0.952492
vt 0.013606 0.952492
vn -0.765792 0.469773 -0.439176
vn -0.765792 0.469773 -0.439176
vn -0.765792 0.469773 -0.439176
vn -0.765792 0.469773 -0.439176
vn 0.741579 -0.445959 -0.501181
vn 0.741579 -0.445959 -0.501181
vn 0.741579 -0.445959 -0.501181
vn 0.741579 -0.445959 -0.501181
vn 0.592304 0.736436 -0.326861
vn 0.592304 0.736436 -0.326861
vn 0.592304 0.736436 -0.326861
vn 0.868375 -0.206903 -0.450685
vn 0.868375 -0.206903 -0.450685
vn 0.868375 -0.206903 -0.450685
vn 0.868375 -0.206903 -0.450685
vn 0.651799 0.333405 -0.681175
vn 0.651799 0.333405 -0.681175
vn 0.651799 0.333405 -0.681175
vn 0.651799 0.333405 -0.681175
vn -0.909493 -0.065162 -0.410582
vn -0.909493 -0.065162 -0.410582
vn -0.909493 -0.065162 -0.410582
vn -0.909492 -0.065162 -0.410582
vn -0.673668 0.291554 -0.679093
vn -0.673668 0.291554 -0.679093
vn -0.673668 0.291554 -0.679093
vn -0.673668 0.291554 -0.679093
vn 0.000000 0.000000 -1.000000
vn 0.000000 0.000000 -1.000000
vn 0.000000 0.000000 -1.000000
vn 0.000000 0.000000 -1.000000
vn 0.780896 -0.093276 -0.617658
vn 0.780895 -0.093276 -0.617658
vn 0.780895 -0.093276 -0.617658
vn 0.780896 -0.093276 -0.617658
vn 0.243121 0.604032 -0.758971
vn 0.243121 0.604032 -0.758971
vn 0.243121 0.604032 -0.758971
vn 0.243121 0.604032 -0.758971
vn -0.809717 -0.095692 -0.578966
vn -0.809717 -0.095692 -0.578966
vn -0.809717 -0.095692 -0.578966
vn -0.809717 -0.095692 -0.578966
vn -0.233347 0.606912 -0.759741
vn -0.233347 0.606912 -0.759741
vn -0.233347 0.606912 -0.759741
vn -0.233347 0.606912 -0.759741
vn 0.416783 -0.882896 -0.216303
vn 0.416783 -0.882896 -0.216303
vn 0.416783 -0.882896 -0.216303
vn 0.416783 -0.882896 -0.216303
vn 0.294961 0.920864 -0.254966
vn 0.294961 0.920864 -0.254966
vn 0.294961 0.920864 -0.254966
vn 0.294961 0.920864 -0.254966
vn -0.330832 0.907890 -0.257461
vn -0.330832 0.907890 -0.257461
vn -0.330832 0.907890 -0.257461
vn -0.330832 0.907890 -0.257461
vn -0.280452 -0.932268 -0.228525
vn -0.280452 -0.932268 -0.228525
vn -0.280452 -0.932268 -0.228525
vn -0.280452 -0.932268 -0.228525
vn -0.426387 -0.788024 -0.444087
vn -0.426387 -0.788024 -0.444087
vn -0.426387 -0.788024 -0.444087
vn 0.004453 -0.858020 -0.513597
vn 0.004453 -0.858020 -0.513597
vn 0.004453 -0.858020 -0.513597
vn 0.004453 -0.858020 -0.513597
vn 0.000000 0.000000 -1.000000
vn 0.000000 0.000000 -1.000000
vn 0.000000 0.000000 -1.000000
vn 0.000000 0.000000 -1.000000
vn 0.000000 0.000000 -1.000000
vn 0.000000 0.000000 -1.000000
vn 0.000000 0.000000 -1.000000
vn 0.000000 0.000000 -1.000000
vn -0.019859 0.930674 -0.365309
vn -0.019859 0.930674 -0.365309
vn -0.019859 0.930674 -0.365309
vn -0.019859 0.930674 -0.365309
vn -0.016822 -0.948427 -0.316550
vn -0.016822 -0.948427 -0.316550
vn -0.016822 -0.948427 -0.316550
vn -0.016822 -0.948427 -0.316550
vn 0.000000 0.000000 -1.000000
vn 0.000000 0.000000 -1.000000
vn 0.000000 0.000000 -1.000000
vn -0.765793 0.469774 0.439174
vn -0.765793 0.469774 0.439174
vn -0.765793 0.469774 0.439174
vn -0.765793 0.469774 0.439174
vn 0.741580 -0.445959 0.501178
vn 0.741580 -0.445959 0.501179
vn 0.741580 -0.445959 0.501178
vn 0.741580 -0.445959 0.501178
vn 0.592304 0.736437 0.326859
vn 0.592304 0.736437 0.326859
vn 0.592304 0.736437 0.326859
vn 0.865684 -0.206262 0.456122
vn 0.865684 -0.206262 0.456122
vn 0.865684 -0.206262 0.456122
vn 0.865684 -0.206262 0.456122
vn 0.651801 0.333406 0.681172
vn 0.651801 0.333406 0.681172
vn 0.651801 0.333406 0.681172
vn 0.651801 0.333406 0.681172
vn -0.907152 -0.064994 0.415754
vn -0.907152 -0.064994 0.415754
vn -0.907152 -0.064994 0.415754
vn -0.907152 -0.064994 0.415754
vn -0.673670 0.291555 0.679091
vn -0.673670 0.291555 0.679091
vn -0.673670 0.291555 0.679091
vn -0.673670 0.291555 0.679091
vn 0.000000 0.000000 1.000000
vn 0.000000 0.000000 1.000000
vn 0.000000 0.000000 1.000000
vn 0.000000 0.000000 1.000000
vn 0.780897 -0.093276 0.617656
vn 0.780897 -0.093276 0.617656
vn 0.780897 -0.093276 0.617656
vn 0.780897 -0.093276 0.617656
vn 0.243122 0.604034 0.758969
vn 0.243122 0.604034 0.758969
vn 0.243122 0.604034 0.758969
vn 0.243122 0.604034 0.758969
vn -0.809719 -0.095692 0.578963
vn -0.809719 -0.095692 0.578963
vn -0.809719 -0.095692 0.578963
vn -0.809719 -0.095692 0.578963
vn -0.233348 0.606914 0.759739
vn -0.233348 0.606914 0.759739
vn -0.233348 0.606914 0.759739
vn -0.233348 0.606914 0.759739
vn 0.418921 -0.880911 0.220232
vn 0.418921 -0.880911 0.220232
vn 0.418921 -0.880911 0.220232
vn 0.418921 -0.880911 0.220232
vn 0.297293 0.919048 0.258783
vn 0.297293 0.919047 0.258783
vn 0.297293 0.919047 0.258783
vn 0.297293 0.919047 0.258783
vn -0.333077 0.905976 0.261280
vn -0.333076 0.905976 0.261280
vn -0.333076 0.905976 0.261280
vn -0.333076 0.905976 0.261280
vn -0.282937 -0.930614 0.232171
vn -0.282937 -0.930614 0.232171
vn -0.282937 -0.930614 0.232171
vn -0.282937 -0.930614 0.232171
vn -0.426387 -0.788025 0.444085
vn -0.426387 -0.788025 0.444085
vn -0.426387 -0.788025 0.444085
vn 0.004453 -0.858021 0.513595
vn 0.004453 -0.858021 0.513595
vn 0.004453 -0.858021 0.513595
vn 0.004453 -0.858021 0.513595
vn 0.000000 0.000000 1.000000
vn 0.000000 0.000000 1.000000
vn 0.000000 0.000000 1.000000
vn 0.000000 0.000000 1.000000
vn 0.000000 0.000000 1.000000
vn 0.000000 0.000000 1.000000
vn 0.000000 0.000000 1.000000
vn 0.000000 0.000000 1.000000
vn -0.019779 0.926891 0.374810
vn -0.019779 0.926891 0.374810
vn -0.019779 0.926891 0.374810
vn -0.019779 0.926891 0.374810
vn -0.016770 -0.945527 0.325111
vn -0.016770 -0.945527 0.325111
vn -0.016770 -0.945527 0.325111
vn -0.016770 -0.945527 0.325111
vn 0.000000 0.000000 1.000000
vn 0.000000 0.000000 1.000000
vn 0.000000 0.000000 1.000000
s off
f 1/1/1 3/4/2 18/3/3 32/2/4
f 18/3/5 4/6/6 2/5/7 32/2/8
f 3/4/9 4/6/10 18/3/11
f 29/7/12 15/10/13 14/9/14 28/8/15
f 6/11/16 21/14/17 20/13/18 7/12/19
f 30/15/20 17/18/21 16/17/22 31/16/23
f 23/19/24 24/22/25 9/21/26 10/20/27
f 21/14/28 24/22/29 23/19/30 20/13/31
f 26/23/32 19/26/33 5/25/34 12/24/35
f 20/13/36 27/28/37 13/27/38 7/12/39
f 25/29/40 11/32/41 8/31/42 22/30/43
f 27/28/44 23/19/45 10/20/46 13/27/47
f 19/33/48 28/8/49 14/9/50 5/34/51
f 6/11/52 15/10/53 29/7/54 21/14/55
f 24/22/56 31/16/57 16/17/58 9/21/59
f 8/35/60 17/18/61 30/15/62 22/36/63
f 2/5/64 1/1/65 32/2/66
f 11/37/67 25/40/68 26/39/69 12/38/70
f 25/40/71 22/42/72 19/41/73 26/39/74
f 28/8/75 30/15/76 31/16/77 29/7/78
f 29/7/79 31/16/80 24/22/81 21/14/82
f 22/36/83 30/15/84 28/8/85 19/33/86
f 23/19/87 27/28/88 20/13/89
f 1/43/90 47/44/91 33/45/92 3/46/93
f 33/45/94 47/44/95 2/47/96 4/48/97
f 3/46/98 33/45/99 4/48/100
f 44/49/101 43/50/102 14/51/103 15/52/104
f 6/53/105 7/54/106 35/55/107 36/56/108
f 45/57/109 46/58/110 16/59/111 17/60/112
f 38/61/113 10/62/114 9/63/115 39/64/116
f 36/56/117 35/55/118 38/61/119 39/64/120
f 41/65/121 12/66/122 5/67/123 34/68/124
f 35/55/125 7/54/126 13/69/127 42/70/128
f 40/71/129 37/72/130 8/73/131 11/74/132
f 42/70/133 13/69/134 10/62/135 38/61/136
f 34/75/137 5/76/138 14/51/139 43/50/140
f 6/53/141 36/56/142 44/49/143 15/52/144
f 39/64/145 9/63/146 16/59/147 46/58/148
f 8/77/149 37/78/150 45/57/151 17/60/152
f 2/47/153 47/44/154 1/43/155
f 11/79/156 12/80/157 41/81/158 40/82/159
f 40/82/160 41/81/161 34/83/162 37/84/163
f 43/50/164 44/49/165 46/58/166 45/57/167
f 44/49/168 36/56/169 39/64/170 46/58/171
f 37/78/172 34/75/173 43/50/174 45/57/175
f 38/61/176 35/55/177 42/70/178
