# This file uses centimeters as units for non-parametric coordinates.

v -3.955078 -3.443890 4.000000
v 3.645081 -3.319754 4.000000
v -4.155457 3.835721 4.000000
v 4.068054 3.752964 4.000000
v -4.818420 4.916970 0.000000
v 4.818420 4.916970 0.000000
v -4.818420 -4.916970 0.000000
v 4.818420 -4.916970 0.000000
v -0.001404 -5.293129 4.000000
v -0.001404 5.312557 4.000000
v -5.121826 0.009714 4.000000
v -0.001404 0.009714 4.000000
v 5.119019 0.009714 4.000000
v 0.000000 19.497408 0.000000
v -0.001404 17.635109 4.000000
v 3.733887 17.248100 4.000000
v 4.516785 18.913614 0.000000
v -3.779053 17.041210 4.000000
v -4.516785 18.913614 0.000000
v -0.001404 -17.272448 4.000000
v 0.000000 -19.497408 0.000000
v 4.516785 -18.913614 0.000000
v 3.733887 -16.442490 4.000000
v -4.516785 -18.913614 0.000000
v -3.494080 -16.897648 4.000000
v 18.006226 0.009714 4.000000
v 19.494385 0.000000 0.000000
v 19.155029 4.516766 0.000000
v 17.771118 3.456955 4.000000
v 19.155029 -4.516766 0.000000
v 17.855713 -2.982367 4.000000
v -19.494385 -0.000000 0.000000
v -18.093689 0.009714 4.000000
v -17.673279 3.539712 4.000000
v -19.155029 4.516766 0.000000
v -19.155029 -4.516766 0.000000
v -17.504089 -3.272015 4.000000
v -3.955078 -3.443890 -4.000000
v 3.645081 -3.319754 -4.000000
v -4.155457 3.835721 -4.000000
v 4.068054 3.752964 -4.000000
v -0.001404 -5.293129 -4.000000
v -0.001404 5.312557 -4.000000
v -5.121826 0.009714 -4.000000
v -0.001404 0.009714 -4.000000
v 5.119019 0.009714 -4.000000
v -0.001404 17.635109 -4.000000
v 3.733887 17.248100 -4.000000
v -3.779053 17.041210 -4.000000
v -0.001404 -17.272448 -4.000000
v 3.733887 -16.442490 -4.000000
v -3.494080 -16.897648 -4.000000
v 18.006226 0.009714 -4.000000
v 17.771118 3.456955 -4.000000
v 17.855713 -2.982367 -4.000000
v -18.093689 0.009714 -4.000000
v -17.673279 3.539712 -4.000000
v -17.504089 -3.272015 -4.000000
vt 0.453413 0.987440
vt 0.453413 0.985476
vt 0.455452 0.985476
vt 0.455033 0.986862
vt 0.453413 0.992692
vt 0.453413 0.992002
vt 0.454900 0.991859
vt 0.455212 0.992476
vt 0.453413 0.979077
vt 0.453413 0.978253
vt 0.455212 0.978469
vt 0.454900 0.979384
vt 0.460145 0.985476
vt 0.460633 0.985472
vt 0.460498 0.987145
vt 0.459947 0.986752
vt 0.446194 0.985472
vt 0.446647 0.985476
vt 0.446828 0.986783
vt 0.446329 0.987145
vt 0.451615 0.978469
vt 0.452022 0.979215
vt 0.451908 0.991782
vt 0.451615 0.992476
vt 0.451374 0.985476
vt 0.451759 0.986893
vt 0.451838 0.984197
vt 0.453413 0.983512
vt 0.454865 0.984243
vt 0.459980 0.984368
vt 0.460498 0.983800
vt 0.446329 0.983800
vt 0.446896 0.984261
vt 0.455332 0.987293
vt 0.451495 0.987293
vt 0.455332 0.983652
vt 0.451495 0.983652
vt 0.453413 0.987440
vt 0.453413 0.985476
vt 0.455452 0.985476
vt 0.455033 0.986862
vt 0.453413 0.992692
vt 0.453413 0.992002
vt 0.454900 0.991859
vt 0.455212 0.992476
vt 0.453413 0.979077
vt 0.453413 0.978253
vt 0.455212 0.978469
vt 0.454900 0.979384
vt 0.460145 0.985476
vt 0.460633 0.985472
vt 0.460498 0.987145
vt 0.459947 0.986752
vt 0.446194 0.985472
vt 0.446647 0.985476
vt 0.446828 0.986783
vt 0.446329 0.987145
vt 0.451615 0.978469
vt 0.452022 0.979215
vt 0.451908 0.991782
vt 0.451615 0.992476
vt 0.451374 0.985476
vt 0.451759 0.986893
vt 0.451838 0.984197
vt 0.453413 0.983512
vt 0.454865 0.984243
vt 0.459980 0.984368
vt 0.460498 0.983800
vt 0.446329 0.983800
vt 0.446896 0.984261
vt 0.455332 0.987293
vt 0.451495 0.987293
vt 0.455332 0.983652
vt 0.451495 0.983652
vn -0.000000 0.000000 1.000000
vn 0.000000 0.000000 1.000000
vn 0.000000 0.000000 1.000000
vn -0.000000 0.000000 1.000000
vn -0.011307 0.906273 0.422541
vn -0.012153 0.906230 0.422610
vn 0.106570 0.905876 0.409918
vn 0.106570 0.905875 0.409918
vn 0.026280 -0.866417 0.498629
vn 0.024282 -0.866635 0.498352
vn 0.145107 -0.846992 0.511419
vn 0.145107 -0.846992 0.511419
vn 0.939406 0.005354 0.342765
vn 0.939413 0.005041 0.342750
vn 0.936184 0.067529 0.344962
vn 0.936184 0.067529 0.344962
vn -0.932950 -0.010109 0.359864
vn -0.932933 -0.010418 0.359898
vn -0.933686 0.088157 0.347072
vn -0.933686 0.088157 0.347072
vn -0.104496 -0.873112 0.476190
vn 0.024282 -0.866635 0.498352
vn 0.026280 -0.866417 0.498629
vn -0.104496 -0.873111 0.476190
vn -0.126972 0.894259 0.429160
vn -0.012153 0.906230 0.422610
vn -0.011307 0.906273 0.422541
vn -0.126972 0.894259 0.429160
vn 0.000000 0.000000 1.000000
vn 0.000000 0.000000 1.000000
vn -0.000000 0.000000 1.000000
vn 0.000000 0.000000 1.000000
vn 0.000000 0.000000 1.000000
vn 0.000000 0.000000 1.000000
vn 0.000000 0.000000 1.000000
vn 0.000000 0.000000 1.000000
vn 0.000000 0.000000 1.000000
vn 0.000000 0.000000 1.000000
vn 0.000000 0.000000 1.000000
vn 0.000000 0.000000 1.000000
vn 0.938814 -0.061247 0.338937
vn 0.938814 -0.061247 0.338937
vn 0.939413 0.005041 0.342750
vn 0.939406 0.005354 0.342765
vn -0.922808 -0.109925 0.369246
vn -0.922808 -0.109925 0.369246
vn -0.932933 -0.010418 0.359898
vn -0.932950 -0.010109 0.359864
vn -0.000000 0.000000 1.000000
vn -0.000000 0.000000 1.000000
vn -0.000000 0.000000 1.000000
vn -0.000000 0.000000 1.000000
vn 0.980359 0.022673 0.195913
vn 0.999733 0.023121 0.000000
vn 0.999733 0.023121 0.000000
vn 0.980359 0.022673 0.195913
vn 0.000000 0.000000 1.000000
vn -0.000000 0.000000 1.000000
vn -0.000000 0.000000 1.000000
vn 0.000000 0.000000 1.000000
vn -0.999690 0.024918 0.000000
vn -0.983144 0.024506 0.181183
vn -0.983144 0.024506 0.181183
vn -0.999690 0.024918 0.000000
vn 0.999969 -0.007848 0.000000
vn 0.970451 -0.007616 0.241177
vn 0.970451 -0.007616 0.241177
vn 0.999969 -0.007848 0.000000
vn 0.000000 0.000000 1.000000
vn 0.000000 0.000000 1.000000
vn 0.000000 0.000000 1.000000
vn 0.000000 0.000000 1.000000
vn 0.000000 0.000000 1.000000
vn 0.000000 0.000000 1.000000
vn 0.000000 0.000000 1.000000
vn 0.000000 0.000000 1.000000
vn -0.970274 -0.026956 0.240504
vn -0.999614 -0.027772 0.000000
vn -0.999614 -0.027772 0.000000
vn -0.970274 -0.026956 0.240504
vn 0.023874 0.961532 0.273653
vn 0.023874 0.961532 0.273653
vn 0.023874 0.961532 0.273653
vn 0.023874 0.961532 0.273653
vn -0.000000 0.000000 1.000000
vn 0.000000 0.000000 1.000000
vn 0.000000 0.000000 1.000000
vn 0.000000 0.000000 1.000000
vn 0.023987 -0.928389 0.370834
vn 0.023987 -0.928390 0.370834
vn 0.023987 -0.928389 0.370834
vn 0.023987 -0.928389 0.370834
vn 0.000000 0.000000 1.000000
vn 0.000000 0.000000 1.000000
vn 0.000000 0.000000 1.000000
vn 0.000000 0.000000 1.000000
vn 0.000000 0.000000 1.000000
vn 0.000000 0.000000 1.000000
vn 0.000000 0.000000 1.000000
vn 0.000000 0.000000 1.000000
vn -0.024160 0.966594 0.255170
vn -0.024987 0.999688 0.000000
vn -0.024987 0.999688 0.000000
vn -0.024160 0.966594 0.255170
vn -0.019383 -0.944802 0.327068
vn -0.019383 -0.944802 0.327068
vn -0.019383 -0.944802 0.327068
vn -0.019383 -0.944802 0.327068
vn 0.000000 0.000000 1.000000
vn 0.000000 0.000000 1.000000
vn 0.000000 0.000000 1.000000
vn 0.000000 0.000000 1.000000
vn -0.000000 0.000000 -1.000000
vn -0.000000 0.000000 -1.000000
vn 0.000000 0.000000 -1.000000
vn 0.000000 0.000000 -1.000000
vn -0.011307 0.906273 -0.422541
vn 0.106570 0.905875 -0.409918
vn 0.106570 0.905875 -0.409918
vn -0.012153 0.906230 -0.422610
vn 0.026280 -0.866417 -0.498629
vn 0.145107 -0.846991 -0.511419
vn 0.145107 -0.846991 -0.511419
vn 0.024282 -0.866635 -0.498352
vn 0.939406 0.005354 -0.342765
vn 0.936184 0.067529 -0.344962
vn 0.936184 0.067529 -0.344962
vn 0.939413 0.005041 -0.342750
vn -0.932950 -0.010109 -0.359864
vn -0.933686 0.088157 -0.347072
vn -0.933686 0.088157 -0.347072
vn -0.932933 -0.010418 -0.359898
vn -0.104496 -0.873112 -0.476190
vn -0.104496 -0.873112 -0.476190
vn 0.026280 -0.866417 -0.498629
vn 0.024282 -0.866635 -0.498352
vn -0.126972 0.894259 -0.429160
vn -0.126972 0.894259 -0.429160
vn -0.011307 0.906273 -0.422541
vn -0.012153 0.906230 -0.422610
vn 0.000000 0.000000 -1.000000
vn 0.000000 0.000000 -1.000000
vn -0.000000 0.000000 -1.000000
vn 0.000000 0.000000 -1.000000
vn 0.000000 0.000000 -1.000000
vn 0.000000 0.000000 -1.000000
vn 0.000000 0.000000 -1.000000
vn -0.000000 0.000000 -1.000000
vn 0.000000 0.000000 -1.000000
vn -0.000000 0.000000 -1.000000
vn -0.000000 0.000000 -1.000000
vn 0.000000 0.000000 -1.000000
vn 0.938814 -0.061247 -0.338937
vn 0.939406 0.005354 -0.342765
vn 0.939413 0.005041 -0.342750
vn 0.938814 -0.061247 -0.338937
vn -0.922808 -0.109925 -0.369246
vn -0.932950 -0.010109 -0.359864
vn -0.932933 -0.010418 -0.359898
vn -0.922808 -0.109925 -0.369246
vn -0.000000 0.000000 -1.000000
vn -0.000000 0.000000 -1.000000
vn -0.000000 0.000000 -1.000000
vn -0.000000 0.000000 -1.000000
vn 0.980359 0.022673 -0.195913
vn 0.980359 0.022673 -0.195913
vn 0.999733 0.023121 0.000000
vn 0.999733 0.023121 0.000000
vn 0.000000 0.000000 -1.000000
vn 0.000000 0.000000 -1.000000
vn -0.000000 0.000000 -1.000000
vn -0.000000 0.000000 -1.000000
vn -0.999690 0.024918 0.000000
vn -0.999690 0.024918 0.000000
vn -0.983144 0.024506 -0.181183
vn -0.983144 0.024506 -0.181183
vn 0.999969 -0.007848 0.000000
vn 0.999969 -0.007848 0.000000
vn 0.970451 -0.007616 -0.241177
vn 0.970451 -0.007616 -0.241177
vn -0.000000 0.000000 -1.000000
vn -0.000000 0.000000 -1.000000
vn -0.000000 0.000000 -1.000000
vn -0.000000 0.000000 -1.000000
vn -0.000000 0.000000 -1.000000
vn -0.000000 0.000000 -1.000000
vn 0.000000 0.000000 -1.000000
vn 0.000000 0.000000 -1.000000
vn -0.970274 -0.026956 -0.240504
vn -0.970274 -0.026956 -0.240504
vn -0.999614 -0.027772 0.000000
vn -0.999614 -0.027772 0.000000
vn 0.023874 0.961532 -0.273653
vn 0.023874 0.961532 -0.273653
vn 0.023874 0.961532 -0.273653
vn 0.023874 0.961532 -0.273653
vn -0.000000 0.000000 -1.000000
vn 0.000000 0.000000 -1.000000
vn 0.000000 0.000000 -1.000000
vn 0.000000 0.000000 -1.000000
vn 0.023987 -0.928389 -0.370834
vn 0.023987 -0.928389 -0.370834
vn 0.023987 -0.928389 -0.370834
vn 0.023987 -0.928390 -0.370834
vn 0.000000 0.000000 -1.000000
vn 0.000000 0.000000 -1.000000
vn 0.000000 0.000000 -1.000000
vn -0.000000 0.000000 -1.000000
vn 0.000000 0.000000 -1.000000
vn 0.000000 0.000000 -1.000000
vn 0.000000 0.000000 -1.000000
vn 0.000000 0.000000 -1.000000
vn -0.024160 0.966594 -0.255170
vn -0.024160 0.966594 -0.255170
vn -0.024987 0.999688 0.000000
vn -0.024987 0.999688 0.000000
vn -0.019383 -0.944802 -0.327068
vn -0.019383 -0.944802 -0.327068
vn -0.019383 -0.944802 -0.327068
vn -0.019383 -0.944802 -0.327068
vn 0.000000 0.000000 -1.000000
vn 0.000000 0.000000 -1.000000
vn 0.000000 0.000000 -1.000000
vn 0.000000 0.000000 -1.000000
s off
f 10/1/1 12/2/2 13/3/3 4/4/4
f 14/5/5 15/6/6 16/7/7 17/8/8
f 20/9/9 21/10/10 22/11/11 23/12/12
f 26/13/13 27/14/14 28/15/15 29/16/16
f 32/17/17 33/18/18 34/19/19 35/20/20
f 24/21/21 21/10/22 20/9/23 25/22/24
f 18/23/25 15/6/26 14/5/27 19/24/28
f 11/25/29 12/2/30 10/1/31 3/26/32
f 1/27/33 9/28/34 12/2/35 11/25/36
f 13/3/37 12/2/38 9/28/39 2/29/40
f 31/30/41 30/31/42 27/14/43 26/13/44
f 36/32/45 37/33/46 33/18/47 32/17/48
f 10/1/49 4/4/50 16/7/51 15/6/52
f 4/4/53 6/34/54 17/8/55 16/7/56
f 3/26/57 10/1/58 15/6/59 18/23/60
f 5/35/61 3/26/62 18/23/63 19/24/64
f 8/36/65 2/29/66 23/12/67 22/11/68
f 2/29/69 9/28/70 20/9/71 23/12/72
f 9/28/73 1/27/74 25/22/75 20/9/76
f 1/27/77 7/37/78 24/21/79 25/22/80
f 6/34/81 4/4/82 29/16/83 28/15/84
f 4/4/85 13/3/86 26/13/87 29/16/88
f 2/29/89 8/36/90 30/31/91 31/30/92
f 13/3/93 2/29/94 31/30/95 26/13/96
f 11/25/97 3/26/98 34/19/99 33/18/100
f 3/26/101 5/35/102 35/20/103 34/19/104
f 7/37/105 1/27/106 37/33/107 36/32/108
f 1/27/109 11/25/110 33/18/111 37/33/112
f 43/38/113 41/41/114 46/40/115 45/39/116
f 14/42/117 17/45/118 48/44/119 47/43/120
f 50/46/121 51/49/122 22/48/123 21/47/124
f 53/50/125 54/53/126 28/52/127 27/51/128
f 32/54/129 35/57/130 57/56/131 56/55/132
f 24/58/133 52/59/134 50/46/135 21/47/136
f 49/60/137 19/61/138 14/42/139 47/43/140
f 44/62/141 40/63/142 43/38/143 45/39/144
f 38/64/145 44/62/146 45/39/147 42/65/148
f 46/40/149 39/66/150 42/65/151 45/39/152
f 55/67/153 53/50/154 27/51/155 30/68/156
f 36/69/157 32/54/158 56/55/159 58/70/160
f 43/38/161 47/43/162 48/44/163 41/41/164
f 41/41/165 48/44/166 17/45/167 6/71/168
f 40/63/169 49/60/170 47/43/171 43/38/172
f 5/72/173 19/61/174 49/60/175 40/63/176
f 8/73/177 22/48/178 51/49/179 39/66/180
f 39/66/181 51/49/182 50/46/183 42/65/184
f 42/65/185 50/46/186 52/59/187 38/64/188
f 38/64/189 52/59/190 24/58/191 7/74/192
f 6/71/193 28/52/194 54/53/195 41/41/196
f 41/41/197 54/53/198 53/50/199 46/40/200
f 39/66/201 55/67/202 30/68/203 8/73/204
f 46/40/205 53/50/206 55/67/207 39/66/208
f 44/62/209 56/55/210 57/56/211 40/63/212
f 40/63/213 57/56/214 35/57/215 5/72/216
f 7/74/217 36/69/218 58/70/219 38/64/220
f 38/64/221 58/70/222 56/55/223 44/62/224
