# This file uses centimeters as units for non-parametric coordinates.

v -4.555335 4.999443 4.000000
v -2.220675 1.798111 4.000000
v -1.427303 3.568129 2.000000
v -3.065498 5.792714 2.000000
v 10.000000 -17.320507 -0.000000
v 17.320507 -10.000000 0.000000
v 15.901516 -8.488357 4.000000
v 9.244784 -15.145088 4.000000
v -10.000000 17.320507 0.000000
v -17.320507 10.000000 0.000000
v -15.598478 9.698175 4.000000
v -8.941747 16.354906 4.000000
v 1.756183 2.634666 4.000000
v 0.861730 4.191265 2.000000
v 1.706392 6.485194 2.000000
v -3.190032 8.483535 4.000000
v -2.165456 7.948195 2.000000
v 0.262024 8.294436 2.000000
v 4.625825 2.148100 4.000000
v 5.818908 -1.464065 4.000000
v 6.397597 0.309634 2.000000
v 5.659480 2.460226 2.000000
v 9.616282 -2.332088 4.000000
v 8.792294 -0.262409 2.000000
v 2.844589 6.118759 4.000000
v 10.122529 1.588092 2.000000
v 0.509931 9.043193 4.000000
v 7.039750 4.919436 4.000000
v 7.152887 4.174750 2.000000
v 9.384413 3.738683 2.000000
v 11.948621 0.738395 4.000000
v 10.646758 4.459340 4.000000
v -0.000000 20.000000 -0.000000
v 0.151519 18.791441 4.000000
v 20.000000 0.000000 0.000000
v 18.338051 0.604909 4.000000
v 4.639924 8.682672 3.859618
v 7.839338 7.069632 3.859618
v 7.367068 9.077022 2.140382
v 5.368347 9.996880 2.140382
v 4.484986 11.875314 3.859618
v 5.291852 11.972052 2.140382
v 8.956060 10.417964 2.140382
v 10.621987 9.363307 3.859618
v 6.880844 13.170178 2.140382
v 8.712948 12.393134 2.140382
v 7.053412 13.811953 3.859618
v 10.014801 12.651157 3.859618
v 10.000000 17.320507 -0.000000
v 9.244784 16.354906 4.000000
v 17.320507 10.000000 -0.000000
v 15.901516 9.698175 4.000000
v -18.035013 0.604909 4.000000
v -15.598478 -8.488357 4.000000
v -8.941747 -15.145088 4.000000
v 0.151519 -17.581623 4.000000
v -20.000000 0.000000 0.000000
v 0.000000 -20.000000 -0.000000
v -17.320507 -10.000000 -0.000000
v -10.000000 -17.320507 0.000000
v -4.555335 4.999443 -4.000000
v -2.220675 1.798111 -4.000000
v -1.427303 3.568129 -2.000000
v -3.065498 5.792714 -2.000000
v 15.901516 -8.488357 -4.000000
v 9.244784 -15.145088 -4.000000
v -15.598478 9.698175 -4.000000
v -8.941747 16.354906 -4.000000
v 1.756183 2.634666 -4.000000
v 0.861730 4.191265 -2.000000
v 1.706392 6.485194 -2.000000
v -3.190032 8.483535 -4.000000
v -2.165456 7.948195 -2.000000
v 0.262024 8.294436 -2.000000
v 4.625825 2.148100 -4.000000
v 5.818908 -1.464065 -4.000000
v 6.397597 0.309634 -2.000000
v 5.659480 2.460226 -2.000000
v 9.616282 -2.332088 -4.000000
v 8.792294 -0.262409 -2.000000
v 2.844589 6.118759 -4.000000
v 10.122529 1.588092 -2.000000
v 0.509931 9.043193 -4.000000
v 7.039750 4.919436 -4.000000
v 7.152887 4.174750 -2.000000
v 9.384413 3.738683 -2.000000
v 11.948621 0.738395 -4.000000
v 10.646758 4.459340 -4.000000
v 0.151519 18.791441 -4.000000
v 18.338051 0.604909 -4.000000
v 4.639924 8.682672 -3.859618
v 7.839338 7.069632 -3.859618
v 7.367068 9.077022 -2.140382
v 5.368347 9.996880 -2.140382
v 4.484986 11.875314 -3.859618
v 5.291852 11.972052 -2.140382
v 8.956060 10.417964 -2.140382
v 10.621987 9.363307 -3.859618
v 6.880844 13.170178 -2.140382
v 8.712948 12.393134 -2.140382
v 7.053412 13.811953 -3.859618
v 10.014801 12.651157 -3.859618
v 9.244784 16.354906 -4.000000
v 15.901516 9.698175 -4.000000
v -18.035013 0.604909 -4.000000
v -15.598478 -8.488357 -4.000000
v -8.941747 -15.145088 -4.000000
v 0.151519 -17.581623 -4.000000
vt 0.951735 0.889261
vt 0.952511 0.890037
vt 0.980252 0.856003
vt 0.981213 0.854749
vt 0.952361 0.890198
vt 0.951655 0.889492
vt 0.949613 0.892935
vt 0.948837 0.892159
vt 0.949020 0.892127
vt 0.949726 0.892833
vt 0.950674 0.893219
vt 0.950690 0.893091
vt 0.952795 0.891098
vt 0.981540 0.855442
vt 0.980865 0.856314
vt 0.982851 0.855076
vt 0.982483 0.855686
vt 0.982831 0.856586
vt 0.952619 0.891162
vt 0.980814 0.857369
vt 0.981236 0.857159
vt 0.982236 0.857295
vt 0.951735 0.892935
vt 0.951655 0.892833
vt 0.982338 0.857588
vt 0.984219 0.854376
vt 0.952511 0.892159
vt 0.984719 0.852935
vt 0.952361 0.892127
vt 0.984962 0.853642
vt 0.984653 0.854501
vt 0.986312 0.852588
vt 0.985966 0.853414
vt 0.983299 0.856442
vt 0.948553 0.891098
vt 0.986524 0.854153
vt 0.985231 0.855482
vt 0.948761 0.891162
vt 0.985279 0.855185
vt 0.986215 0.855011
vt 0.987290 0.853814
vt 0.950674 0.888977
vt 0.986744 0.855298
vt 0.950690 0.889233
vt 0.984368 0.857287
vt 0.948837 0.890037
vt 0.985901 0.856552
vt 0.949020 0.890198
vt 0.949613 0.889261
vt 0.949726 0.889492
vt 0.950521 0.892023
vt 0.950769 0.891713
vt 0.951044 0.891942
vt 0.985675 0.857467
vt 0.984717 0.857887
vt 0.951025 0.892336
vt 0.984294 0.858743
vt 0.984681 0.858787
vt 0.986436 0.858079
vt 0.987234 0.857598
vt 0.985442 0.859333
vt 0.950653 0.891344
vt 0.986320 0.858979
vt 0.985525 0.859626
vt 0.986943 0.859097
vt 0.951439 0.891743
vt 0.951005 0.891154
vt 0.951266 0.891453
vt 0.951656 0.891404
vt 0.951782 0.892026
vt 0.950231 0.891255
vt 0.951134 0.890764
vt 0.951342 0.892575
vt 0.951707 0.892432
vt 0.951796 0.891002
vt 0.951545 0.890670
vt 0.949984 0.891595
vt 0.950128 0.891964
vt 0.980252 0.856003
vt 0.981213 0.854749
vt 0.981540 0.855442
vt 0.980865 0.856314
vt 0.951735 0.889261
vt 0.952511 0.890037
vt 0.952361 0.890198
vt 0.951655 0.889492
vt 0.949613 0.892935
vt 0.948837 0.892159
vt 0.949020 0.892127
vt 0.949726 0.892833
vt 0.982851 0.855076
vt 0.982483 0.855686
vt 0.982831 0.856586
vt 0.980814 0.857369
vt 0.981236 0.857159
vt 0.982236 0.857295
vt 0.982338 0.857588
vt 0.984219 0.854376
vt 0.984719 0.852935
vt 0.984962 0.853642
vt 0.984653 0.854501
vt 0.986312 0.852588
vt 0.985966 0.853414
vt 0.983299 0.856442
vt 0.986524 0.854153
vt 0.985231 0.855482
vt 0.985279 0.855185
vt 0.986215 0.855011
vt 0.987290 0.853814
vt 0.986744 0.855298
vt 0.950674 0.893219
vt 0.950690 0.893091
vt 0.952795 0.891098
vt 0.952619 0.891162
vt 0.984368 0.857287
vt 0.985901 0.856552
vt 0.985675 0.857467
vt 0.984717 0.857887
vt 0.984294 0.858743
vt 0.984681 0.858787
vt 0.986436 0.858079
vt 0.987234 0.857598
vt 0.985442 0.859333
vt 0.986320 0.858979
vt 0.985525 0.859626
vt 0.986943 0.859097
vt 0.951735 0.892935
vt 0.951655 0.892833
vt 0.952511 0.892159
vt 0.952361 0.892127
vt 0.948553 0.891098
vt 0.948761 0.891162
vt 0.950674 0.888977
vt 0.950690 0.889233
vt 0.948837 0.890037
vt 0.949020 0.890198
vt 0.949613 0.889261
vt 0.949726 0.889492
vt 0.950521 0.892023
vt 0.950769 0.891713
vt 0.951044 0.891942
vt 0.951025 0.892336
vt 0.950653 0.891344
vt 0.951439 0.891743
vt 0.951005 0.891154
vt 0.951266 0.891453
vt 0.951656 0.891404
vt 0.951782 0.892026
vt 0.950231 0.891255
vt 0.951134 0.890764
vt 0.951342 0.892575
vt 0.951707 0.892432
vt 0.951796 0.891002
vt 0.951545 0.890670
vt 0.949984 0.891595
vt 0.950128 0.891964
vn 0.618069 0.452550 0.642799
vn 0.618069 0.452550 0.642799
vn 0.618069 0.452550 0.642799
vn 0.618069 0.452550 0.642799
vn 0.627853 -0.627853 0.460002
vn 0.627853 -0.627853 0.460002
vn 0.627853 -0.627853 0.460002
vn 0.627853 -0.627853 0.460002
vn -0.665780 0.665780 0.336860
vn -0.665780 0.665780 0.336860
vn -0.665780 0.665780 0.336860
vn -0.665780 0.665780 0.336860
vn -0.175812 0.754691 0.632085
vn -0.175812 0.754691 0.632085
vn -0.175812 0.754691 0.632085
vn -0.175812 0.754691 0.632085
vn 0.000000 0.000000 1.000000
vn 0.000000 0.000000 1.000000
vn 0.000000 0.000000 1.000000
vn 0.000000 0.000000 1.000000
vn 0.809882 -0.325319 0.488117
vn 0.809882 -0.325319 0.488117
vn 0.809882 -0.325319 0.488117
vn 0.809882 -0.325319 0.488117
vn 0.138215 -0.934878 0.326955
vn 0.138215 -0.934878 0.326955
vn 0.138215 -0.934878 0.326955
vn 0.138215 -0.934878 0.326955
vn 0.000000 0.000000 1.000000
vn 0.000000 0.000000 1.000000
vn 0.000000 0.000000 1.000000
vn 0.000000 0.000000 1.000000
vn 0.831546 0.278666 0.480496
vn 0.831546 0.278666 0.480496
vn 0.831546 0.278666 0.480496
vn 0.831546 0.278665 0.480496
vn 0.166540 0.716095 0.677844
vn 0.166540 0.716096 0.677844
vn 0.166540 0.716096 0.677844
vn 0.166540 0.716096 0.677844
vn -0.800771 0.267902 0.535718
vn -0.800771 0.267902 0.535718
vn -0.800771 0.267902 0.535718
vn -0.800771 0.267902 0.535718
vn -0.000000 0.000000 1.000000
vn -0.000000 0.000000 1.000000
vn -0.000000 0.000000 1.000000
vn -0.000000 0.000000 1.000000
vn -0.742042 -0.592393 0.313758
vn -0.742042 -0.592393 0.313758
vn -0.742042 -0.592393 0.313758
vn -0.742042 -0.592393 0.313758
vn 0.724756 -0.631287 0.276054
vn 0.724756 -0.631287 0.276054
vn 0.724756 -0.631287 0.276054
vn 0.724756 -0.631287 0.276054
vn 0.000000 0.000000 1.000000
vn -0.000000 0.000000 1.000000
vn -0.000000 0.000000 1.000000
vn 0.000000 0.000000 1.000000
vn -0.576609 0.429156 0.695232
vn -0.576609 0.429156 0.695232
vn -0.576609 0.429156 0.695232
vn -0.576609 0.429156 0.695232
vn -0.140586 -0.915923 0.375926
vn -0.140586 -0.915923 0.375926
vn -0.140586 -0.915923 0.375926
vn -0.140586 -0.915923 0.375926
vn -0.767037 -0.266496 0.583639
vn -0.767037 -0.266496 0.583639
vn -0.767037 -0.266496 0.583639
vn -0.767037 -0.266496 0.583639
vn -0.247791 0.924768 0.288796
vn -0.247791 0.924768 0.288796
vn -0.247791 0.924768 0.288796
vn -0.247791 0.924768 0.288796
vn 0.883973 -0.236860 0.403099
vn 0.883973 -0.236860 0.403099
vn 0.883973 -0.236860 0.403099
vn 0.883973 -0.236860 0.403099
vn 0.325422 0.667847 0.669389
vn 0.325422 0.667847 0.669389
vn 0.325422 0.667847 0.669389
vn 0.325422 0.667847 0.669389
vn 0.906056 0.040576 0.421207
vn 0.906056 0.040576 0.421207
vn 0.906056 0.040576 0.421207
vn 0.906056 0.040576 0.421207
vn 0.000000 0.000000 1.000000
vn 0.000000 0.000000 1.000000
vn 0.000000 0.000000 1.000000
vn 0.000000 0.000000 1.000000
vn -0.433850 0.521826 0.734487
vn -0.433850 0.521826 0.734487
vn -0.433850 0.521826 0.734487
vn -0.433850 0.521826 0.734487
vn 0.000000 0.000000 1.000000
vn 0.000000 0.000000 1.000000
vn 0.000000 0.000000 1.000000
vn 0.000000 0.000000 1.000000
vn 0.585741 -0.776827 0.231187
vn 0.585741 -0.776827 0.231187
vn 0.585741 -0.776827 0.231187
vn 0.585741 -0.776827 0.231187
vn -0.765201 -0.123627 0.631811
vn -0.765201 -0.123627 0.631811
vn -0.765201 -0.123627 0.631811
vn -0.765201 -0.123627 0.631811
vn -0.347590 -0.859809 0.374046
vn -0.347590 -0.859809 0.374046
vn -0.347590 -0.859809 0.374046
vn -0.347590 -0.859809 0.374046
vn 0.249101 0.929657 0.271451
vn 0.249101 0.929657 0.271451
vn 0.249101 0.929657 0.271451
vn 0.249101 0.929658 0.271451
vn 0.908192 0.243349 0.340541
vn 0.908192 0.243349 0.340541
vn 0.908192 0.243349 0.340541
vn 0.908192 0.243349 0.340541
vn 0.676498 0.676498 0.291032
vn 0.676498 0.676498 0.291032
vn 0.676498 0.676498 0.291032
vn 0.676498 0.676498 0.291032
vn -0.885632 0.237304 0.399177
vn -0.885632 0.237305 0.399177
vn -0.885632 0.237305 0.399177
vn -0.885632 0.237305 0.399177
vn 0.224451 -0.837660 0.497943
vn 0.224451 -0.837660 0.497943
vn 0.224451 -0.837660 0.497943
vn 0.224451 -0.837660 0.497943
vn -0.859209 -0.230224 0.456900
vn -0.859209 -0.230224 0.456900
vn -0.859209 -0.230224 0.456900
vn -0.859209 -0.230224 0.456900
vn -0.222542 -0.830539 0.510569
vn -0.222542 -0.830539 0.510569
vn -0.222542 -0.830539 0.510569
vn -0.222542 -0.830539 0.510569
vn -0.613885 -0.613885 0.496276
vn -0.613885 -0.613885 0.496276
vn -0.613885 -0.613885 0.496276
vn -0.613885 -0.613885 0.496276
vn 0.035217 0.014333 0.999277
vn 0.035217 0.014333 0.999277
vn 0.035217 0.014333 0.999277
vn 0.035217 0.014333 0.999277
vn 0.026041 0.010785 0.999603
vn 0.026041 0.010785 0.999603
vn 0.026041 0.010785 0.999603
vn 0.026041 0.010785 0.999603
vn -0.017172 0.039710 0.999064
vn -0.017172 0.039710 0.999064
vn -0.017172 0.039710 0.999064
vn -0.017172 0.039710 0.999064
vn -0.011782 0.041059 0.999087
vn -0.011782 0.041059 0.999087
vn -0.011782 0.041059 0.999087
vn -0.011782 0.041059 0.999087
vn 0.000000 0.000000 1.000000
vn 0.000000 0.000000 1.000000
vn 0.000000 0.000000 1.000000
vn 0.000000 0.000000 1.000000
vn -0.001284 -0.029959 0.999550
vn -0.001284 -0.029959 0.999550
vn -0.001284 -0.029959 0.999550
vn -0.001284 -0.029959 0.999550
vn -0.037007 -0.045531 0.998277
vn -0.037007 -0.045531 0.998277
vn -0.037007 -0.045531 0.998277
vn -0.037007 -0.045531 0.998277
vn -0.008507 0.008533 0.999927
vn -0.008507 0.008533 0.999927
vn -0.008507 0.008533 0.999927
vn -0.008507 0.008533 0.999927
vn -0.000000 0.000000 1.000000
vn -0.000000 0.000000 1.000000
vn -0.000000 0.000000 1.000000
vn -0.000000 0.000000 1.000000
vn 0.000000 0.000000 1.000000
vn 0.000000 0.000000 1.000000
vn 0.000000 0.000000 1.000000
vn 0.000000 0.000000 1.000000
vn 0.000000 0.000000 1.000000
vn 0.000000 0.000000 1.000000
vn 0.000000 0.000000 1.000000
vn 0.000000 0.000000 1.000000
vn 0.000000 0.000000 1.000000
vn 0.000000 0.000000 1.000000
vn 0.000000 0.000000 1.000000
vn 0.000000 0.000000 1.000000
vn -0.000000 0.000000 1.000000
vn -0.000000 0.000000 1.000000
vn -0.000000 0.000000 1.000000
vn -0.000000 0.000000 1.000000
vn 0.000000 0.000000 1.000000
vn 0.000000 0.000000 1.000000
vn 0.000000 0.000000 1.000000
vn 0.000000 0.000000 1.000000
vn 0.000000 0.000000 1.000000
vn 0.000000 0.000000 1.000000
vn 0.000000 0.000000 1.000000
vn 0.000000 0.000000 1.000000
vn 0.010585 0.000389 0.999944
vn 0.010585 0.000389 0.999944
vn 0.010585 0.000389 0.999944
vn 0.010585 0.000389 0.999944
vn 0.000000 0.000000 1.000000
vn 0.000000 0.000000 1.000000
vn 0.000000 0.000000 1.000000
vn -0.026273 -0.004852 0.999643
vn -0.026273 -0.004852 0.999643
vn -0.026273 -0.004852 0.999643
vn 0.618069 0.452550 -0.642799
vn 0.618069 0.452550 -0.642799
vn 0.618069 0.452550 -0.642799
vn 0.618069 0.452550 -0.642799
vn 0.627853 -0.627853 -0.460002
vn 0.627853 -0.627853 -0.460002
vn 0.627853 -0.627853 -0.460002
vn 0.627853 -0.627853 -0.460002
vn -0.665780 0.665780 -0.336860
vn -0.665780 0.665780 -0.336860
vn -0.665780 0.665780 -0.336860
vn -0.665780 0.665780 -0.336860
vn -0.175812 0.754691 -0.632085
vn -0.175812 0.754691 -0.632085
vn -0.175812 0.754691 -0.632085
vn -0.175812 0.754691 -0.632085
vn 0.000000 0.000000 -1.000000
vn 0.000000 0.000000 -1.000000
vn 0.000000 0.000000 -1.000000
vn 0.000000 0.000000 -1.000000
vn 0.809882 -0.325319 -0.488117
vn 0.809882 -0.325319 -0.488117
vn 0.809882 -0.325319 -0.488117
vn 0.809882 -0.325319 -0.488117
vn 0.138215 -0.934878 -0.326955
vn 0.138215 -0.934878 -0.326956
vn 0.138215 -0.934878 -0.326955
vn 0.138215 -0.934878 -0.326956
vn 0.000000 0.000000 -1.000000
vn 0.000000 0.000000 -1.000000
vn 0.000000 0.000000 -1.000000
vn 0.000000 0.000000 -1.000000
vn 0.831546 0.278665 -0.480496
vn 0.831546 0.278665 -0.480496
vn 0.831546 0.278666 -0.480496
vn 0.831546 0.278666 -0.480496
vn 0.166540 0.716095 -0.677844
vn 0.166540 0.716096 -0.677844
vn 0.166540 0.716096 -0.677844
vn 0.166540 0.716096 -0.677844
vn -0.800771 0.267902 -0.535718
vn -0.800771 0.267902 -0.535718
vn -0.800771 0.267902 -0.535718
vn -0.800771 0.267902 -0.535718
vn -0.000000 0.000000 -1.000000
vn -0.000000 0.000000 -1.000000
vn -0.000000 0.000000 -1.000000
vn -0.000000 0.000000 -1.000000
vn -0.742042 -0.592393 -0.313758
vn -0.742042 -0.592393 -0.313758
vn -0.742042 -0.592393 -0.313758
vn -0.742042 -0.592393 -0.313758
vn 0.724756 -0.631287 -0.276054
vn 0.724756 -0.631287 -0.276054
vn 0.724756 -0.631287 -0.276054
vn 0.724756 -0.631287 -0.276054
vn 0.000000 0.000000 -1.000000
vn 0.000000 0.000000 -1.000000
vn -0.000000 0.000000 -1.000000
vn -0.000000 0.000000 -1.000000
vn -0.576609 0.429156 -0.695232
vn -0.576609 0.429156 -0.695232
vn -0.576609 0.429156 -0.695232
vn -0.576609 0.429156 -0.695232
vn -0.140586 -0.915923 -0.375926
vn -0.140586 -0.915923 -0.375926
vn -0.140586 -0.915923 -0.375926
vn -0.140586 -0.915923 -0.375926
vn -0.767037 -0.266496 -0.583639
vn -0.767037 -0.266496 -0.583639
vn -0.767037 -0.266496 -0.583639
vn -0.767037 -0.266496 -0.583639
vn -0.247791 0.924768 -0.288796
vn -0.247791 0.924768 -0.288796
vn -0.247791 0.924768 -0.288796
vn -0.247791 0.924768 -0.288796
vn 0.883973 -0.236860 -0.403099
vn 0.883973 -0.236860 -0.403099
vn 0.883973 -0.236860 -0.403099
vn 0.883973 -0.236860 -0.403099
vn 0.325422 0.667847 -0.669389
vn 0.325422 0.667846 -0.669389
vn 0.325422 0.667847 -0.669389
vn 0.325422 0.667847 -0.669389
vn 0.906056 0.040576 -0.421207
vn 0.906056 0.040576 -0.421207
vn 0.906056 0.040576 -0.421207
vn 0.906056 0.040576 -0.421207
vn -0.000000 0.000000 -1.000000
vn -0.000000 0.000000 -1.000000
vn -0.000000 0.000000 -1.000000
vn -0.000000 0.000000 -1.000000
vn -0.433850 0.521826 -0.734487
vn -0.433850 0.521826 -0.734487
vn -0.433850 0.521826 -0.734487
vn -0.433850 0.521826 -0.734487
vn 0.000000 0.000000 -1.000000
vn 0.000000 0.000000 -1.000000
vn -0.000000 0.000000 -1.000000
vn -0.000000 0.000000 -1.000000
vn 0.585741 -0.776827 -0.231188
vn 0.585741 -0.776827 -0.231188
vn 0.585741 -0.776827 -0.231188
vn 0.585741 -0.776827 -0.231188
vn -0.765201 -0.123627 -0.631811
vn -0.765201 -0.123627 -0.631811
vn -0.765201 -0.123627 -0.631810
vn -0.765201 -0.123627 -0.631811
vn -0.347590 -0.859808 -0.374046
vn -0.347590 -0.859808 -0.374046
vn -0.347590 -0.859808 -0.374046
vn -0.347590 -0.859809 -0.374046
vn 0.249101 0.929657 -0.271451
vn 0.249101 0.929657 -0.271451
vn 0.249101 0.929657 -0.271451
vn 0.249101 0.929657 -0.271451
vn 0.908192 0.243349 -0.340541
vn 0.908192 0.243349 -0.340541
vn 0.908192 0.243349 -0.340541
vn 0.908192 0.243349 -0.340541
vn 0.676498 0.676498 -0.291032
vn 0.676498 0.676498 -0.291032
vn 0.676498 0.676498 -0.291032
vn 0.676498 0.676498 -0.291032
vn -0.885632 0.237304 -0.399177
vn -0.885632 0.237305 -0.399177
vn -0.885632 0.237305 -0.399177
vn -0.885632 0.237305 -0.399177
vn 0.224451 -0.837661 -0.497943
vn 0.224451 -0.837661 -0.497943
vn 0.224451 -0.837661 -0.497943
vn 0.224451 -0.837660 -0.497943
vn -0.859209 -0.230224 -0.456900
vn -0.859209 -0.230224 -0.456900
vn -0.859209 -0.230224 -0.456900
vn -0.859209 -0.230224 -0.456900
vn -0.222542 -0.830539 -0.510569
vn -0.222542 -0.830538 -0.510569
vn -0.222542 -0.830538 -0.510569
vn -0.222542 -0.830539 -0.510569
vn -0.613885 -0.613885 -0.496276
vn -0.613885 -0.613885 -0.496276
vn -0.613885 -0.613885 -0.496276
vn -0.613885 -0.613885 -0.496276
vn 0.035217 0.014333 -0.999277
vn 0.035217 0.014333 -0.999277
vn 0.035217 0.014333 -0.999277
vn 0.035217 0.014333 -0.999277
vn 0.026041 0.010785 -0.999603
vn 0.026041 0.010785 -0.999603
vn 0.026041 0.010785 -0.999603
vn 0.026041 0.010785 -0.999603
vn -0.017171 0.039710 -0.999064
vn -0.017171 0.039710 -0.999064
vn -0.017171 0.039710 -0.999064
vn -0.017171 0.039710 -0.999064
vn -0.011782 0.041059 -0.999087
vn -0.011782 0.041059 -0.999087
vn -0.011782 0.041059 -0.999087
vn -0.011782 0.041059 -0.999087
vn -0.000000 0.000000 -1.000000
vn -0.000000 0.000000 -1.000000
vn -0.000000 0.000000 -1.000000
vn -0.000000 0.000000 -1.000000
vn -0.001284 -0.029959 -0.999550
vn -0.001284 -0.029959 -0.999550
vn -0.001284 -0.029959 -0.999550
vn -0.001284 -0.029959 -0.999550
vn -0.037008 -0.045531 -0.998277
vn -0.037008 -0.045531 -0.998277
vn -0.037008 -0.045531 -0.998277
vn -0.037008 -0.045531 -0.998277
vn -0.008507 0.008533 -0.999927
vn -0.008507 0.008533 -0.999927
vn -0.008507 0.008533 -0.999927
vn -0.008507 0.008533 -0.999927
vn 0.000000 0.000000 -1.000000
vn 0.000000 0.000000 -1.000000
vn 0.000000 0.000000 -1.000000
vn 0.000000 0.000000 -1.000000
vn 0.000000 0.000000 -1.000000
vn 0.000000 0.000000 -1.000000
vn 0.000000 0.000000 -1.000000
vn 0.000000 0.000000 -1.000000
vn 0.000000 0.000000 -1.000000
vn 0.000000 0.000000 -1.000000
vn 0.000000 0.000000 -1.000000
vn 0.000000 0.000000 -1.000000
vn 0.000000 0.000000 -1.000000
vn 0.000000 0.000000 -1.000000
vn 0.000000 0.000000 -1.000000
vn 0.000000 0.000000 -1.000000
vn -0.000000 0.000000 -1.000000
vn -0.000000 0.000000 -1.000000
vn -0.000000 0.000000 -1.000000
vn -0.000000 0.000000 -1.000000
vn 0.000000 0.000000 -1.000000
vn 0.000000 0.000000 -1.000000
vn 0.000000 0.000000 -1.000000
vn 0.000000 0.000000 -1.000000
vn 0.000000 0.000000 -1.000000
vn 0.000000 0.000000 -1.000000
vn 0.000000 0.000000 -1.000000
vn 0.000000 0.000000 -1.000000
vn 0.010585 0.000389 -0.999944
vn 0.010585 0.000389 -0.999944
vn 0.010585 0.000389 -0.999944
vn 0.010585 0.000389 -0.999944
vn 0.000000 0.000000 -1.000000
vn 0.000000 0.000000 -1.000000
vn 0.000000 0.000000 -1.000000
vn -0.026273 -0.004852 -0.999643
vn -0.026273 -0.004852 -0.999643
vn -0.026273 -0.004852 -0.999643
s off
f 1/3/1 2/4/2 3/14/3 4/15/4
f 5/1/5 6/2/6 7/5/7 8/6/8
f 9/7/9 10/8/10 11/9/11 12/10/12
f 2/4/13 13/16/14 14/17/15 3/14/16
f 14/17/17 15/18/18 4/15/19 3/14/20
f 16/20/21 1/3/22 4/15/23 17/21/24
f 16/20/25 17/21/26 18/22/27 27/25/28
f 17/21/29 4/15/30 15/18/31 18/22/32
f 19/26/33 20/28/34 21/30/35 22/31/36
f 20/28/37 23/32/38 24/33/39 21/30/40
f 13/16/41 25/34/42 15/18/43 14/17/44
f 24/33/45 26/36/46 22/31/47 21/30/48
f 25/34/49 27/25/50 18/22/51 15/18/52
f 28/37/53 19/26/54 22/31/55 29/39/56
f 29/39/57 22/31/58 26/36/59 30/40/60
f 23/32/61 31/41/62 26/36/63 24/33/64
f 32/43/65 28/37/66 29/39/67 30/40/68
f 31/41/69 32/43/70 30/40/71 26/36/72
f 33/11/73 9/7/74 12/10/75 34/12/76
f 6/2/77 35/13/78 36/19/79 7/5/80
f 37/45/81 38/47/82 39/54/83 40/55/84
f 41/57/85 37/45/86 40/55/87 42/58/88
f 39/54/89 43/59/90 42/58/91 40/55/92
f 38/47/93 44/60/94 43/59/95 39/54/96
f 45/61/97 42/58/98 43/59/99 46/63/100
f 47/64/101 41/57/102 42/58/103 45/61/104
f 44/60/105 48/65/106 46/63/107 43/59/108
f 48/65/109 47/64/110 45/61/111 46/63/112
f 49/23/113 33/11/114 34/12/115 50/24/116
f 35/13/117 51/27/118 52/29/119 36/19/120
f 51/27/121 49/23/122 50/24/123 52/29/124
f 10/8/125 57/35/126 53/38/127 11/9/128
f 58/42/129 5/1/130 8/6/131 56/44/132
f 57/35/133 59/46/134 54/48/135 53/38/136
f 60/49/137 58/42/138 56/44/139 55/50/140
f 59/46/141 60/49/142 55/50/143 54/48/144
f 27/51/145 25/52/146 37/53/147 41/56/148
f 25/52/149 13/62/150 38/66/151 37/53/152
f 19/67/153 28/68/154 38/66/155 13/62/156
f 28/68/157 32/69/158 44/70/159 38/66/160
f 13/62/161 2/71/162 20/72/163 19/67/164
f 41/56/165 47/73/166 50/24/167 34/12/168
f 47/73/169 48/74/170 52/29/171 50/24/172
f 36/19/173 52/29/174 44/70/175 32/69/176
f 31/75/177 23/76/178 7/5/179 36/19/180
f 8/6/181 7/5/182 23/76/183 20/72/184
f 56/44/185 8/6/186 20/72/187 2/71/188
f 2/71/189 1/77/190 55/50/191 56/44/192
f 53/38/193 54/48/194 55/50/195 1/77/196
f 1/77/197 16/78/198 11/9/199 53/38/200
f 12/10/201 11/9/202 16/78/203 27/51/204
f 34/12/205 12/10/206 27/51/207 41/56/208
f 32/69/209 31/75/210 36/19/211
f 48/74/212 44/70/213 52/29/214
f 61/79/215 64/82/216 63/81/217 62/80/218
f 5/83/219 66/86/220 65/85/221 6/84/222
f 9/87/223 68/90/224 67/89/225 10/88/226
f 62/80/227 63/81/228 70/92/229 69/91/230
f 70/92/231 63/81/232 64/82/233 71/93/234
f 72/94/235 73/95/236 64/82/237 61/79/238
f 72/94/239 83/97/240 74/96/241 73/95/242
f 73/95/243 74/96/244 71/93/245 64/82/246
f 75/98/247 78/101/248 77/100/249 76/99/250
f 76/99/251 77/100/252 80/103/253 79/102/254
f 69/91/255 70/92/256 71/93/257 81/104/258
f 80/103/259 77/100/260 78/101/261 82/105/262
f 81/104/263 71/93/264 74/96/265 83/97/266
f 84/106/267 85/107/268 78/101/269 75/98/270
f 85/107/271 86/108/272 82/105/273 78/101/274
f 79/102/275 80/103/276 82/105/277 87/109/278
f 88/110/279 86/108/280 85/107/281 84/106/282
f 87/109/283 82/105/284 86/108/285 88/110/286
f 33/111/287 89/112/288 68/90/289 9/87/290
f 6/84/291 65/85/292 90/114/293 35/113/294
f 91/115/295 94/118/296 93/117/297 92/116/298
f 95/119/299 96/120/300 94/118/301 91/115/302
f 93/117/303 94/118/304 96/120/305 97/121/306
f 92/116/307 93/117/308 97/121/309 98/122/310
f 99/123/311 100/124/312 97/121/313 96/120/314
f 101/125/315 99/123/316 96/120/317 95/119/318
f 98/122/319 97/121/320 100/124/321 102/126/322
f 102/126/323 100/124/324 99/123/325 101/125/326
f 49/127/327 103/128/328 89/112/329 33/111/330
f 35/113/331 90/114/332 104/130/333 51/129/334
f 51/129/335 104/130/336 103/128/337 49/127/338
f 10/88/339 67/89/340 105/132/341 57/131/342
f 58/133/343 108/134/344 66/86/345 5/83/346
f 57/131/347 105/132/348 106/136/349 59/135/350
f 60/137/351 107/138/352 108/134/353 58/133/354
f 59/135/355 106/136/356 107/138/357 60/137/358
f 83/139/359 95/142/360 91/141/361 81/140/362
f 81/140/363 91/141/364 92/144/365 69/143/366
f 75/145/367 69/143/368 92/144/369 84/146/370
f 84/146/371 92/144/372 98/148/373 88/147/374
f 69/143/375 75/145/376 76/150/377 62/149/378
f 95/142/379 89/112/380 103/128/381 101/151/382
f 101/151/383 103/128/384 104/130/385 102/152/386
f 90/114/387 88/147/388 98/148/389 104/130/390
f 87/153/391 90/114/392 65/85/393 79/154/394
f 66/86/395 76/150/396 79/154/397 65/85/398
f 108/134/399 62/149/400 76/150/401 66/86/402
f 62/149/403 108/134/404 107/138/405 61/155/406
f 105/132/407 61/155/408 107/138/409 106/136/410
f 61/155/411 105/132/412 67/89/413 72/156/414
f 68/90/415 83/139/416 72/156/417 67/89/418
f 89/112/419 95/142/420 83/139/421 68/90/422
f 88/147/423 90/114/424 87/153/425
f 102/152/426 104/130/427 98/148/428
