# This file uses centimeters as units for non-parametric coordinates.

v -4.603851 18.277557 4.000000
v -10.375031 16.470840 4.000000
v -11.065399 -1.780098 4.000000
v -10.068253 -12.495880 4.000000
v -6.861145 -16.944016 4.000000
v -0.000259 -18.045532 4.000000
v 6.861115 -16.944031 4.000000
v 10.067734 -12.495911 4.000000
v 11.056763 -1.759003 4.000000
v 11.297775 18.328094 4.000000
v 4.680817 18.328094 4.000000
v 4.890045 -1.860565 4.000000
v 3.906998 -10.739304 4.000000
v -0.000290 -13.244247 4.000000
v -3.908035 -10.732407 4.000000
v -4.834213 -0.579247 4.000000
v -7.809250 19.330383 -0.000000
v -11.850952 18.228943 -0.000000
v -12.300049 -1.814659 -0.000000
v -11.300873 -12.958649 -0.000000
v -7.567719 -18.090958 0.000000
v -0.000259 -19.330383 0.000000
v 7.567719 -18.090958 -0.000000
v 11.300354 -12.958649 -0.000000
v 12.300049 -1.814659 -0.000000
v 12.300049 19.330383 -0.000000
v 3.678528 19.330383 -0.000000
v 3.678528 -1.814659 -0.000000
v 3.038834 -10.243332 -0.000000
v -0.000259 -12.360550 0.000000
v -3.038895 -10.243332 0.000000
v -3.645203 -1.152267 0.000000
v -3.678528 19.330383 0.000000
v -4.603851 18.277557 -4.000000
v -10.375031 16.470840 -4.000000
v -11.065399 -1.780098 -4.000000
v -10.068253 -12.495880 -4.000000
v -6.861145 -16.944016 -4.000000
v -0.000259 -18.045532 -4.000000
v 6.861115 -16.944031 -4.000000
v 10.067734 -12.495911 -4.000000
v 11.056763 -1.759003 -4.000000
v 11.297775 18.328094 -4.000000
v 4.680817 18.328094 -4.000000
v 4.890045 -1.860565 -4.000000
v 3.906998 -10.739304 -4.000000
v -0.000290 -13.244247 -4.000000
v -3.908035 -10.732407 -4.000000
v -4.834213 -0.579247 -4.000000
vt 0.013628 0.951698
vt 0.013674 0.951762
vt 0.013688 0.952030
vt 0.013686 0.952179
vt 0.013667 0.952232
vt 0.013623 0.952213
vt 0.013579 0.952160
vt 0.013556 0.952073
vt 0.013545 0.951917
vt 0.013535 0.951627
vt 0.013585 0.951665
vt 0.013594 0.951956
vt 0.013602 0.952075
vt 0.013620 0.952118
vt 0.013637 0.952103
vt 0.013636 0.951972
vt 0.013690 0.951709
vt 0.013714 0.951743
vt 0.013726 0.952023
vt 0.013724 0.952172
vt 0.013705 0.952225
vt 0.013661 0.952206
vt 0.013617 0.952153
vt 0.013593 0.952066
vt 0.013582 0.951910
vt 0.013573 0.951620
vt 0.013623 0.951658
vt 0.013632 0.951949
vt 0.013639 0.952068
vt 0.013658 0.952111
vt 0.013675 0.952096
vt 0.013674 0.951974
vt 0.013666 0.951691
vt 0.013628 0.951698
vt 0.013690 0.951709
vt 0.013714 0.951743
vt 0.013674 0.951762
vt 0.013636 0.951972
vt 0.013688 0.952030
vt 0.013637 0.952103
vt 0.013686 0.952179
vt 0.013667 0.952232
vt 0.013623 0.952213
vt 0.013620 0.952118
vt 0.013579 0.952160
vt 0.013602 0.952075
vt 0.013556 0.952073
vt 0.013545 0.951917
vt 0.013594 0.951956
vt 0.013535 0.951627
vt 0.013585 0.951665
vt 0.013726 0.952023
vt 0.013724 0.952172
vt 0.013705 0.952225
vt 0.013661 0.952206
vt 0.013617 0.952153
vt 0.013593 0.952066
vt 0.013582 0.951910
vt 0.013573 0.951620
vt 0.013623 0.951658
vt 0.013632 0.951949
vt 0.013639 0.952068
vt 0.013658 0.952111
vt 0.013675 0.952096
vt 0.013674 0.951974
vt 0.013666 0.951691
vn -0.253826 0.856476 0.449467
vn -0.253826 0.856476 0.449467
vn -0.253826 0.856476 0.449467
vn -0.253826 0.856476 0.449467
vn 0.000000 0.000000 1.000000
vn 0.000000 0.000000 1.000000
vn 0.000000 0.000000 1.000000
vn 0.000000 0.000000 1.000000
vn 0.000000 0.000000 1.000000
vn 0.000000 0.000000 1.000000
vn 0.000000 0.000000 1.000000
vn 0.000000 0.000000 1.000000
vn 0.000000 0.000000 1.000000
vn 0.000000 0.000000 1.000000
vn 0.000000 0.000000 1.000000
vn 0.000000 0.000000 1.000000
vn 0.000000 0.000000 1.000000
vn 0.000000 0.000000 1.000000
vn 0.000000 0.000000 1.000000
vn 0.000000 0.000000 1.000000
vn 0.000000 0.000000 1.000000
vn 0.000000 0.000000 1.000000
vn 0.000000 0.000000 1.000000
vn 0.000000 0.000000 1.000000
vn 0.000000 0.000000 1.000000
vn 0.000000 0.000000 1.000000
vn 0.000000 0.000000 1.000000
vn 0.000000 0.000000 1.000000
vn 0.000000 0.000000 1.000000
vn 0.000000 0.000000 1.000000
vn 0.000000 0.000000 1.000000
vn 0.000000 0.000000 1.000000
vn 0.000000 0.000000 1.000000
vn 0.000000 0.000000 1.000000
vn -0.944881 0.028115 0.326203
vn -0.944881 0.028115 0.326203
vn -0.944881 0.028115 0.326203
vn -0.944881 0.028115 0.326203
vn -0.950447 -0.086799 0.298522
vn -0.950447 -0.086799 0.298522
vn -0.950447 -0.086799 0.298522
vn -0.950447 -0.086799 0.298522
vn -0.772563 -0.559660 0.299880
vn -0.772563 -0.559660 0.299880
vn -0.772563 -0.559660 0.299880
vn -0.772563 -0.559660 0.299880
vn -0.152788 -0.941704 0.299748
vn -0.152788 -0.941704 0.299748
vn -0.152788 -0.941704 0.299748
vn -0.152788 -0.941704 0.299748
vn 0.152777 -0.941707 0.299747
vn 0.152777 -0.941707 0.299747
vn 0.152777 -0.941707 0.299747
vn 0.152777 -0.941707 0.299747
vn 0.772601 -0.559607 0.299878
vn 0.772601 -0.559607 0.299878
vn 0.772601 -0.559607 0.299878
vn 0.772601 -0.559607 0.299878
vn 0.950133 -0.086356 0.299651
vn 0.950133 -0.086356 0.299651
vn 0.950133 -0.086356 0.299651
vn 0.950133 -0.086356 0.299651
vn 0.962948 -0.005629 0.269629
vn 0.962948 -0.005629 0.269629
vn 0.962948 -0.005629 0.269629
vn 0.962948 -0.005629 0.269629
vn 0.000000 0.970012 0.243058
vn 0.000000 0.970012 0.243058
vn 0.000000 0.970012 0.243058
vn 0.000000 0.970012 0.243058
vn -0.963932 -0.004879 0.266105
vn -0.963932 -0.004879 0.266105
vn -0.963932 -0.004879 0.266105
vn -0.963932 -0.004879 0.266105
vn -0.962379 0.090233 0.256292
vn -0.962379 0.090233 0.256292
vn -0.962379 0.090233 0.256292
vn -0.962379 0.090233 0.256292
vn -0.542827 0.815783 0.199595
vn -0.542827 0.815783 0.199595
vn -0.542827 0.815783 0.199595
vn -0.542827 0.815783 0.199595
vn 0.543456 0.815513 0.198984
vn 0.543456 0.815513 0.198984
vn 0.543456 0.815513 0.198984
vn 0.543456 0.815513 0.198984
vn 0.965789 0.076909 0.247661
vn 0.965789 0.076909 0.247661
vn 0.965789 0.076909 0.247661
vn 0.965789 0.076909 0.247661
vn 0.966865 -0.004843 0.255244
vn 0.966865 -0.004843 0.255244
vn 0.966865 -0.004843 0.255244
vn 0.966865 -0.004843 0.255244
vn 0.000000 0.967063 0.254537
vn 0.000000 0.967063 0.254537
vn 0.000000 0.967063 0.254537
vn -0.253826 0.856476 -0.449467
vn -0.253826 0.856476 -0.449467
vn -0.253826 0.856476 -0.449467
vn -0.253826 0.856476 -0.449467
vn 0.000000 0.000000 -1.000000
vn 0.000000 0.000000 -1.000000
vn 0.000000 0.000000 -1.000000
vn 0.000000 0.000000 -1.000000
vn 0.000000 0.000000 -1.000000
vn 0.000000 0.000000 -1.000000
vn 0.000000 0.000000 -1.000000
vn 0.000000 0.000000 -1.000000
vn 0.000000 0.000000 -1.000000
vn 0.000000 0.000000 -1.000000
vn 0.000000 0.000000 -1.000000
vn 0.000000 0.000000 -1.000000
vn 0.000000 0.000000 -1.000000
vn 0.000000 0.000000 -1.000000
vn 0.000000 0.000000 -1.000000
vn 0.000000 0.000000 -1.000000
vn 0.000000 0.000000 -1.000000
vn 0.000000 0.000000 -1.000000
vn 0.000000 0.000000 -1.000000
vn 0.000000 0.000000 -1.000000
vn 0.000000 0.000000 -1.000000
vn 0.000000 0.000000 -1.000000
vn 0.000000 0.000000 -1.000000
vn 0.000000 0.000000 -1.000000
vn 0.000000 0.000000 -1.000000
vn 0.000000 0.000000 -1.000000
vn 0.000000 0.000000 -1.000000
vn 0.000000 0.000000 -1.000000
vn 0.000000 0.000000 -1.000000
vn 0.000000 0.000000 -1.000000
vn -0.944881 0.028115 -0.326203
vn -0.944881 0.028115 -0.326203
vn -0.944881 0.028115 -0.326203
vn -0.944881 0.028115 -0.326203
vn -0.950447 -0.086799 -0.298522
vn -0.950447 -0.086799 -0.298522
vn -0.950447 -0.086799 -0.298522
vn -0.950447 -0.086799 -0.298522
vn -0.772563 -0.559660 -0.299880
vn -0.772563 -0.559660 -0.299880
vn -0.772563 -0.559660 -0.299880
vn -0.772563 -0.559660 -0.299880
vn -0.152788 -0.941704 -0.299749
vn -0.152788 -0.941704 -0.299749
vn -0.152788 -0.941704 -0.299749
vn -0.152788 -0.941704 -0.299749
vn 0.152777 -0.941707 -0.299747
vn 0.152777 -0.941707 -0.299747
vn 0.152777 -0.941707 -0.299747
vn 0.152777 -0.941707 -0.299747
vn 0.772601 -0.559607 -0.299878
vn 0.772601 -0.559607 -0.299878
vn 0.772601 -0.559607 -0.299878
vn 0.772601 -0.559607 -0.299878
vn 0.950133 -0.086356 -0.299651
vn 0.950133 -0.086356 -0.299651
vn 0.950133 -0.086356 -0.299651
vn 0.950133 -0.086356 -0.299651
vn 0.962948 -0.005629 -0.269629
vn 0.962948 -0.005629 -0.269629
vn 0.962948 -0.005629 -0.269629
vn 0.962948 -0.005629 -0.269629
vn 0.000000 0.970012 -0.243058
vn 0.000000 0.970012 -0.243058
vn 0.000000 0.970012 -0.243058
vn 0.000000 0.970012 -0.243058
vn -0.963932 -0.004879 -0.266105
vn -0.963932 -0.004879 -0.266105
vn -0.963932 -0.004879 -0.266105
vn -0.963932 -0.004879 -0.266105
vn -0.962379 0.090233 -0.256292
vn -0.962379 0.090233 -0.256292
vn -0.962379 0.090233 -0.256292
vn -0.962379 0.090233 -0.256292
vn -0.542827 0.815783 -0.199595
vn -0.542827 0.815783 -0.199595
vn -0.542827 0.815783 -0.199595
vn -0.542827 0.815783 -0.199595
vn 0.543456 0.815513 -0.198984
vn 0.543456 0.815513 -0.198984
vn 0.543456 0.815513 -0.198984
vn 0.543456 0.815513 -0.198984
vn 0.965789 0.076909 -0.247661
vn 0.965789 0.076909 -0.247661
vn 0.965789 0.076909 -0.247661
vn 0.965789 0.076909 -0.247661
vn 0.966865 -0.004843 -0.255244
vn 0.966865 -0.004843 -0.255244
vn 0.966865 -0.004843 -0.255244
vn 0.966865 -0.004843 -0.255244
vn 0.000000 0.967063 -0.254538
vn 0.000000 0.967063 -0.254538
vn 0.000000 0.967063 -0.254538
s off
f 1/1/1 17/17/2 18/18/3 2/2/4
f 16/16/5 1/1/6 2/2/7 3/3/8
f 15/15/9 16/16/10 3/3/11 4/4/12
f 4/4/13 5/5/14 15/15/15
f 15/15/16 5/5/17 6/6/18 14/14/19
f 14/14/20 6/6/21 7/7/22 13/13/23
f 7/7/24 8/8/25 13/13/26
f 13/13/27 8/8/28 9/9/29 12/12/30
f 12/12/31 9/9/32 10/10/33 11/11/34
f 18/18/35 19/19/36 3/3/37 2/2/38
f 19/19/39 20/20/40 4/4/41 3/3/42
f 20/20/43 21/21/44 5/5/45 4/4/46
f 21/21/47 22/22/48 6/6/49 5/5/50
f 22/22/51 23/23/52 7/7/53 6/6/54
f 23/23/55 24/24/56 8/8/57 7/7/58
f 24/24/59 25/25/60 9/9/61 8/8/62
f 25/25/63 26/26/64 10/10/65 9/9/66
f 26/26/67 27/27/68 11/11/69 10/10/70
f 27/27/71 28/28/72 12/12/73 11/11/74
f 28/28/75 29/29/76 13/13/77 12/12/78
f 29/29/79 30/30/80 14/14/81 13/13/82
f 30/30/83 31/31/84 15/15/85 14/14/86
f 31/31/87 32/32/88 16/16/89 15/15/90
f 32/32/91 33/33/92 1/1/93 16/16/94
f 33/33/95 17/17/96 1/1/97
f 34/34/98 35/37/99 18/36/100 17/35/101
f 49/38/102 36/39/103 35/37/104 34/34/105
f 48/40/106 37/41/107 36/39/108 49/38/109
f 37/41/110 48/40/111 38/42/112
f 48/40/113 47/44/114 39/43/115 38/42/116
f 47/44/117 46/46/118 40/45/119 39/43/120
f 40/45/121 46/46/122 41/47/123
f 46/46/124 45/49/125 42/48/126 41/47/127
f 45/49/128 44/51/129 43/50/130 42/48/131
f 18/36/132 35/37/133 36/39/134 19/52/135
f 19/52/136 36/39/137 37/41/138 20/53/139
f 20/53/140 37/41/141 38/42/142 21/54/143
f 21/54/144 38/42/145 39/43/146 22/55/147
f 22/55/148 39/43/149 40/45/150 23/56/151
f 23/56/152 40/45/153 41/47/154 24/57/155
f 24/57/156 41/47/157 42/48/158 25/58/159
f 25/58/160 42/48/161 43/50/162 26/59/163
f 26/59/164 43/50/165 44/51/166 27/60/167
f 27/60/168 44/51/169 45/49/170 28/61/171
f 28/61/172 45/49/173 46/46/174 29/62/175
f 29/62/176 46/46/177 47/44/178 30/63/179
f 30/63/180 47/44/181 48/40/182 31/64/183
f 31/64/184 48/40/185 49/38/186 32/65/187
f 32/65/188 49/38/189 34/34/190 33/66/191
f 33/66/192 34/34/193 17/35/194
