# This file uses centimeters as units for non-parametric coordinates.

v -1.628235 -11.166190 -2.054353
v -6.304097 -18.284410 -0.000000
v 11.306809 -0.062746 -0.000000
v 8.633608 -0.581429 -2.054353
v -0.343329 3.265726 -0.000000
v -3.089810 1.914063 -2.054353
v 1.114789 11.371292 -2.054353
v 5.617435 18.284410 -0.000000
v -11.306809 -0.062746 -0.000000
v -8.975323 0.601765 -2.054353
v -0.343329 -4.198790 -0.000000
v 1.288941 -2.697433 -2.054353
v -1.628235 -11.166190 2.054353
v 8.633608 -0.581429 2.054353
v -3.089810 1.914063 2.054353
v 1.114789 11.371292 2.054353
v -8.975323 0.601765 2.054353
v 1.288941 -2.697433 2.054353
vt 0.172857 0.983212
vt 0.172857 0.983213
vt 0.172857 0.983213
vt 0.172858 0.983213
vt 0.172857 0.983213
vt 0.172857 0.983213
vt 0.172858 0.983213
vt 0.172857 0.983213
vt 0.172857 0.983212
vt 0.172857 0.983213
vt 0.172857 0.983213
vt 0.172857 0.983213
vt 0.172857 0.983212
vt 0.172857 0.983213
vt 0.172858 0.983213
vt 0.172858 0.983213
vt 0.172857 0.983212
vt 0.172857 0.983213
vn -0.776530 0.305661 -0.550974
vn -0.776530 0.305661 -0.550974
vn -0.776530 0.305661 -0.550974
vn -0.776530 0.305661 -0.550974
vn 0.570341 -0.551855 -0.608413
vn 0.570341 -0.551855 -0.608413
vn 0.570341 -0.551855 -0.608413
vn 0.570341 -0.551855 -0.608413
vn 0.192435 0.772307 -0.605402
vn 0.192435 0.772307 -0.605402
vn 0.192435 0.772307 -0.605402
vn 0.192435 0.772307 -0.605402
vn 0.700939 -0.291115 -0.651104
vn 0.700939 -0.291115 -0.651104
vn 0.700939 -0.291115 -0.651105
vn 0.700939 -0.291115 -0.651105
vn -0.615486 0.571045 -0.543217
vn -0.615486 0.571045 -0.543217
vn -0.615486 0.571045 -0.543217
vn -0.615486 0.571045 -0.543217
vn -0.256068 -0.731080 -0.632417
vn -0.256068 -0.731080 -0.632417
vn -0.256068 -0.731080 -0.632417
vn -0.256068 -0.731080 -0.632417
vn 0.570341 -0.551855 0.608413
vn 0.570341 -0.551855 0.608413
vn 0.570341 -0.551855 0.608413
vn 0.570341 -0.551855 0.608413
vn -0.776530 0.305661 0.550974
vn -0.776530 0.305661 0.550974
vn -0.776530 0.305661 0.550974
vn -0.776530 0.305661 0.550974
vn 0.192435 0.772307 0.605402
vn 0.192435 0.772307 0.605402
vn 0.192435 0.772307 0.605402
vn 0.192435 0.772307 0.605402
vn 0.700939 -0.291115 0.651104
vn 0.700939 -0.291115 0.651104
vn 0.700939 -0.291115 0.651104
vn 0.700939 -0.291115 0.651104
vn -0.615486 0.571045 0.543217
vn -0.615486 0.571045 0.543217
vn -0.615486 0.571045 0.543217
vn -0.615486 0.571045 0.543217
vn -0.256068 -0.731080 0.632417
vn -0.256068 -0.731080 0.632417
vn -0.256068 -0.731080 0.632417
vn -0.256068 -0.731080 0.632417
vn 0.000000 0.000000 1.000000
vn -0.000000 0.000000 1.000000
vn -0.000000 0.000000 1.000000
vn 0.000000 0.000000 1.000000
vn -0.000000 0.000000 1.000000
vn -0.000000 0.000000 1.000000
vn -0.000000 0.000000 1.000000
vn -0.000000 0.000000 1.000000
vn -0.000000 0.000000 1.000000
vn -0.000000 0.000000 1.000000
vn 0.000000 0.000000 -1.000000
vn -0.000000 0.000000 -1.000000
vn -0.000000 0.000000 -1.000000
vn 0.000000 0.000000 -1.000000
vn -0.000000 0.000000 -1.000000
vn -0.000000 0.000000 -1.000000
vn -0.000000 0.000000 -1.000000
vn -0.000000 0.000000 -1.000000
vn -0.000000 0.000000 -1.000000
vn -0.000000 0.000000 -1.000000
s off
f 1/1/1 2/2/2 11/3/3 12/4/4
f 2/2/5 1/1/6 4/5/7 3/6/8
f 3/6/9 4/5/10 6/7/11 5/8/12
f 5/8/13 6/7/14 7/9/15 8/10/16
f 8/10/17 7/9/18 10/11/19 9/12/20
f 9/12/21 10/11/22 12/4/23 11/3/24
f 13/13/25 2/2/26 3/6/27 14/14/28
f 2/2/29 13/13/30 18/15/31 11/3/32
f 14/14/33 3/6/34 5/8/35 15/16/36
f 15/16/37 5/8/38 8/10/39 16/17/40
f 16/17/41 8/10/42 9/12/43 17/18/44
f 17/18/45 9/12/46 11/3/47 18/15/48
f 13/13/49 14/14/50 18/15/51
f 16/17/52 17/18/53 15/16/54
f 18/15/55 14/14/56 15/16/57 17/18/58
f 1/1/59 12/4/60 4/5/61
f 7/9/62 6/7/63 10/11/64
f 6/7/65 4/5/66 12/4/67 10/11/68
