# This file uses centimeters as units for non-parametric coordinates.

v -12.620673 11.547453 4.000000
v 12.620673 11.547453 4.000000
v -12.620673 15.468906 4.000000
v 12.620673 15.610219 4.000000
v -14.235106 16.292351 0.000000
v 14.235106 16.292351 0.000000
v -14.423521 10.865320 0.000000
v 14.423521 10.865320 0.000000
v -1.201620 6.824737 4.000000
v -1.201620 -14.392537 4.000000
v 1.201620 6.966050 4.000000
v 1.135485 -14.392537 4.000000
v 2.139620 8.152637 0.000000
v 2.139620 -15.579126 0.000000
v -2.139620 8.152637 0.000000
v -2.139620 -15.579126 0.000000
v -3.563501 15.913980 2.000000
v 3.563501 15.913980 2.000000
v -3.375085 18.744793 2.000000
v 3.422189 18.744793 2.000000
v -4.023819 19.259487 0.000000
v 4.023819 19.259487 0.000000
v -4.165132 15.399287 0.000000
v 4.165132 15.399287 0.000000
v -8.019745 7.097892 4.000000
v -8.019745 -14.430174 4.000000
v -5.711269 7.050788 4.000000
v -5.711269 -14.524380 4.000000
v -4.725887 8.152637 0.000000
v -4.725887 -15.579126 0.000000
v -9.005127 8.152637 0.000000
v -9.005127 -15.579128 0.000000
v 8.047023 6.871841 4.000000
v 8.047023 -14.298331 4.000000
v 5.683991 6.966049 4.000000
v 5.683991 -14.392537 4.000000
v 4.725887 8.152637 0.000000
v 4.725887 -15.579126 0.000000
v 9.005127 8.152637 0.000000
v 9.005127 -15.579128 0.000000
v -11.457726 -18.181049 2.000000
v 11.457726 -18.181049 2.000000
v -11.457726 12.490650 2.000000
v 11.457726 12.490650 2.000000
v -12.131711 11.972505 0.000000
v 12.131711 11.972505 0.000000
v -12.367231 -19.311548 0.000000
v 12.555649 -19.076029 0.000000
v 7.244587 16.292353 0.000000
v 6.339061 15.610218 4.000000
v 6.339061 11.688766 4.000000
v 7.244587 10.865320 0.000000
v 11.316414 3.548377 2.000000
v 12.131710 3.030232 0.000000
v -12.273024 -13.597539 0.000000
v -11.551934 -13.079392 2.000000
v -1.179565 19.259487 0.000000
v -1.009184 18.650585 2.000000
v -1.009184 15.913980 2.000000
v -1.179565 15.399287 0.000000
v -4.725887 0.327634 0.000000
v -5.810607 -0.031554 4.000000
v -8.019745 -0.031555 4.000000
v -9.005127 0.327634 0.000000
v 2.139620 -11.660205 0.000000
v 1.201620 -10.865507 4.000000
v -1.102418 -10.865507 4.000000
v -2.139620 -11.660205 0.000000
v 9.005127 -2.972102 0.000000
v 8.047023 -3.046216 4.000000
v 5.718418 -3.046216 4.000000
v 4.725887 -2.972102 0.000000
v -12.620673 11.547453 -4.000000
v 12.620673 11.547453 -4.000000
v -12.620673 15.468906 -4.000000
v 12.620673 15.610219 -4.000000
v -1.201620 6.824737 -4.000000
v -1.201620 -14.392537 -4.000000
v 1.201620 6.966050 -4.000000
v 1.135485 -14.392537 -4.000000
v -3.563501 15.913980 -2.000000
v 3.563501 15.913980 -2.000000
v -3.375085 18.744793 -2.000000
v 3.422189 18.744793 -2.000000
v -8.019745 7.097892 -4.000000
v -8.019745 -14.430174 -4.000000
v -5.711269 7.050788 -4.000000
v -5.711269 -14.524380 -4.000000
v 8.047023 6.871841 -4.000000
v 8.047023 -14.298331 -4.000000
v 5.683991 6.966049 -4.000000
v 5.683991 -14.392537 -4.000000
v -11.457726 -18.181049 -2.000000
v 11.457726 -18.181049 -2.000000
v -11.457726 12.490650 -2.000000
v 11.457726 12.490650 -2.000000
v 6.339061 15.610218 -4.000000
v 6.339061 11.688766 -4.000000
v 11.316414 3.548377 -2.000000
v -11.551934 -13.079392 -2.000000
v -1.009184 18.650585 -2.000000
v -1.009184 15.913980 -2.000000
v -5.810607 -0.031554 -4.000000
v -8.019745 -0.031555 -4.000000
v 1.201620 -10.865507 -4.000000
v -1.102418 -10.865507 -4.000000
v 8.047023 -3.046216 -4.000000
v 5.718418 -3.046216 -4.000000
vt 0.956802 0.952204
vt 0.956802 0.948087
vt 0.958721 0.947938
vt 0.958721 0.952204
vt 0.957079 0.952920
vt 0.959215 0.952920
vt 0.957079 0.947222
vt 0.959272 0.947222
vt 0.950459 0.947222
vt 0.951009 0.947938
vt 0.951009 0.952056
vt 0.950516 0.952920
vt 0.954557 0.920589
vt 0.954557 0.917716
vt 0.955743 0.915567
vt 0.954745 0.915567
vt 0.954702 0.914408
vt 0.955714 0.914408
vt 0.956149 0.915306
vt 0.956149 0.914018
vt 0.954296 0.915306
vt 0.954296 0.914018
vt 0.954296 0.921818
vt 0.954702 0.921382
vt 0.955743 0.921428
vt 0.956149 0.921818
vt 0.952706 0.919128
vt 0.951749 0.919128
vt 0.955954 0.917716
vt 0.955911 0.920688
vt 0.954505 0.921228
vt 0.956095 0.921228
vt 0.954505 0.917175
vt 0.956138 0.917175
vt 0.953593 0.917175
vt 0.953777 0.917716
vt 0.953834 0.920688
vt 0.953636 0.921228
vt 0.951749 0.914396
vt 0.952749 0.914365
vt 0.953176 0.919246
vt 0.953176 0.914018
vt 0.951322 0.919246
vt 0.951322 0.914018
vt 0.951322 0.921818
vt 0.951749 0.921472
vt 0.952749 0.921456
vt 0.953176 0.921818
vt 0.958708 0.918137
vt 0.957699 0.918137
vt 0.957684 0.914408
vt 0.958708 0.914439
vt 0.957269 0.918162
vt 0.957269 0.914018
vt 0.959123 0.918162
vt 0.959123 0.914018
vt 0.959123 0.921818
vt 0.957269 0.921818
vt 0.957684 0.921428
vt 0.958708 0.921397
vt 0.949966 0.949890
vt 0.955632 0.952915
vt 0.950155 0.949056
vt 0.955476 0.949056
vt 0.955731 0.948893
vt 0.949944 0.948850
vt 0.949999 0.954543
vt 0.955632 0.954543
vt 0.950134 0.949984
vt 0.950155 0.954637
vt 0.955443 0.953010
vt 0.955476 0.954637
vt 0.956802 0.952204
vt 0.956802 0.948087
vt 0.958721 0.947938
vt 0.958721 0.952204
vt 0.957079 0.952920
vt 0.959215 0.952920
vt 0.957079 0.947222
vt 0.959272 0.947222
vt 0.950459 0.947222
vt 0.951009 0.947938
vt 0.951009 0.952056
vt 0.950516 0.952920
vt 0.955743 0.915567
vt 0.954745 0.915567
vt 0.954702 0.914408
vt 0.955714 0.914408
vt 0.956149 0.915306
vt 0.956149 0.914018
vt 0.954296 0.915306
vt 0.954296 0.914018
vt 0.954296 0.921818
vt 0.954702 0.921382
vt 0.955743 0.921428
vt 0.956149 0.921818
vt 0.954557 0.920589
vt 0.954557 0.917716
vt 0.955954 0.917716
vt 0.955911 0.920688
vt 0.954505 0.921228
vt 0.956095 0.921228
vt 0.954505 0.917175
vt 0.956138 0.917175
vt 0.953593 0.917175
vt 0.953777 0.917716
vt 0.953834 0.920688
vt 0.953636 0.921228
vt 0.952706 0.919128
vt 0.951749 0.919128
vt 0.951749 0.914396
vt 0.952749 0.914365
vt 0.953176 0.919246
vt 0.953176 0.914018
vt 0.951322 0.919246
vt 0.951322 0.914018
vt 0.951322 0.921818
vt 0.951749 0.921472
vt 0.952749 0.921456
vt 0.953176 0.921818
vt 0.958708 0.918137
vt 0.957699 0.918137
vt 0.957684 0.914408
vt 0.958708 0.914439
vt 0.957269 0.918162
vt 0.957269 0.914018
vt 0.959123 0.918162
vt 0.959123 0.914018
vt 0.959123 0.921818
vt 0.957269 0.921818
vt 0.957684 0.921428
vt 0.958708 0.921397
vt 0.955443 0.953010
vt 0.955476 0.954637
vt 0.950155 0.954637
vt 0.950134 0.949984
vt 0.955632 0.954543
vt 0.949999 0.954543
vt 0.949944 0.948850
vt 0.955731 0.948893
vt 0.955476 0.949056
vt 0.950155 0.949056
vt 0.955632 0.952915
vt 0.949966 0.949890
vn 0.000000 0.000000 1.000000
vn 0.000000 0.000000 1.000000
vn 0.000000 0.000000 1.000000
vn 0.000000 0.000000 1.000000
vn -0.002435 0.999997 0.000000
vn -0.002754 0.983321 0.181856
vn 0.000000 0.985769 0.168106
vn 0.000000 1.000000 -0.000000
vn 0.000672 -0.982930 0.183979
vn -0.000780 -1.000000 -0.000000
vn -0.010498 -0.999945 -0.000000
vn -0.010323 -0.983325 0.181564
vn 0.919461 0.018255 0.392757
vn 0.919461 0.018255 0.392757
vn 0.919461 0.018255 0.392757
vn 0.919461 0.018255 0.392757
vn -0.919338 0.018529 0.393032
vn -0.919338 0.018529 0.393032
vn -0.919338 0.018529 0.393032
vn -0.919338 0.018529 0.393032
vn 0.000000 0.000000 1.000000
vn 0.000000 0.000000 1.000000
vn 0.000000 0.000000 1.000000
vn 0.000000 0.000000 1.000000
vn 0.999998 -0.001791 0.000000
vn 0.973283 -0.001163 0.229605
vn 0.971246 -0.008627 0.237923
vn 0.999961 -0.008882 0.000000
vn -0.970981 -0.000487 0.239157
vn -1.000000 0.000581 0.000000
vn -0.999911 0.013322 -0.000000
vn -0.971506 0.012943 0.236660
vn 0.000000 -0.958706 0.284398
vn 0.000000 -0.958706 0.284398
vn 0.000000 -0.958706 0.284398
vn 0.000000 -0.958706 0.284398
vn -0.020170 0.953793 0.299787
vn -0.020170 0.953793 0.299787
vn -0.020170 0.953793 0.299787
vn -0.020170 0.953793 0.299787
vn 0.000000 0.000000 1.000000
vn 0.000000 0.000000 1.000000
vn 0.000000 0.000000 1.000000
vn 0.000000 0.000000 1.000000
vn 0.000667 1.000000 -0.000000
vn -0.000647 0.963219 0.268718
vn -0.009416 0.962960 0.269479
vn -0.009777 0.999952 -0.000000
vn 0.000000 -0.968445 0.249226
vn -0.000000 -1.000000 0.000000
vn 0.000000 -1.000000 0.000000
vn 0.000000 -0.968445 0.249226
vn 0.956829 0.040416 0.287829
vn 0.956829 0.040416 0.287829
vn 0.956829 0.040416 0.287829
vn 0.956829 0.040416 0.287829
vn -0.953401 0.046983 0.298025
vn -0.953401 0.046983 0.298025
vn -0.953401 0.046983 0.298025
vn -0.953401 0.046983 0.298025
vn 0.000000 0.000000 1.000000
vn 0.000000 0.000000 1.000000
vn 0.000000 0.000000 1.000000
vn 0.000000 0.000000 1.000000
vn 1.000000 -0.000246 0.000000
vn 0.968247 0.000232 0.249996
vn 0.968175 0.003164 0.250253
vn 0.999995 0.003268 0.000000
vn -0.970972 0.000000 0.239195
vn -1.000000 0.000000 0.000000
vn -1.000000 0.000000 0.000000
vn -0.970972 0.000000 0.239195
vn -0.013785 -0.964000 0.265546
vn -0.014298 -0.999898 -0.000000
vn -0.014298 -0.999898 -0.000000
vn -0.013785 -0.964000 0.265546
vn 0.007150 0.999974 0.000000
vn 0.006904 0.965509 0.260277
vn 0.006904 0.965509 0.260277
vn 0.007150 0.999974 0.000000
vn -0.000000 0.000000 1.000000
vn -0.000000 0.000000 1.000000
vn -0.000000 0.000000 1.000000
vn -0.000000 0.000000 1.000000
vn -0.971587 0.000017 0.236682
vn -1.000000 -0.000017 -0.000000
vn -0.999999 0.001437 -0.000000
vn -0.971580 0.001396 0.236706
vn 1.000000 0.000000 0.000000
vn 0.972492 0.000000 0.232937
vn 0.972492 0.000000 0.232937
vn 1.000000 0.000000 0.000000
vn 0.013551 -0.955495 0.294697
vn 0.013551 -0.955495 0.294697
vn 0.013551 -0.955495 0.294697
vn 0.013551 -0.955495 0.294696
vn 0.013552 0.955495 0.294697
vn 0.013552 0.955495 0.294697
vn 0.013552 0.955495 0.294697
vn 0.013552 0.955495 0.294697
vn 0.000000 0.000000 1.000000
vn 0.000000 0.000000 1.000000
vn 0.000000 0.000000 1.000000
vn 0.000000 0.000000 1.000000
vn 0.000000 0.968041 -0.250793
vn 0.000000 0.968041 -0.250793
vn 0.000000 1.000000 0.000000
vn 0.000000 1.000000 0.000000
vn 0.004392 -0.892051 0.451914
vn 0.004392 -0.892051 0.451914
vn 0.004392 -0.892051 0.451914
vn 0.004392 -0.892051 0.451914
vn 0.915829 0.005043 0.401537
vn 0.911627 0.007375 0.410952
vn 0.936498 -0.007400 0.350594
vn 0.936498 -0.007400 0.350594
vn -0.944561 0.004350 0.328306
vn -0.944561 0.004350 0.328306
vn -0.940572 0.003361 0.339578
vn -0.942167 0.003753 0.335123
vn -0.003434 0.982687 0.185243
vn -0.002754 0.983321 0.181856
vn -0.002435 0.999997 0.000000
vn -0.003494 0.999994 0.000000
vn 0.000000 0.000000 1.000000
vn 0.000000 0.000000 1.000000
vn 0.000000 0.000000 1.000000
vn 0.000000 0.000000 1.000000
vn 0.003478 -0.999994 -0.000000
vn -0.000780 -1.000000 -0.000000
vn 0.000672 -0.982930 0.183979
vn 0.003418 -0.982812 0.184579
vn 0.000000 0.000000 1.000000
vn 0.000000 0.000000 1.000000
vn 0.000000 0.000000 1.000000
vn 0.000000 0.000000 1.000000
vn 0.903654 0.011652 0.428105
vn 0.911627 0.007375 0.410952
vn 0.915829 0.005043 0.401537
vn 0.903654 0.011652 0.428105
vn -0.926014 0.000000 0.377488
vn -0.926014 0.000000 0.377488
vn -0.942167 0.003753 0.335123
vn -0.940572 0.003361 0.339578
vn 0.017422 0.963516 0.267083
vn -0.000647 0.963219 0.268718
vn 0.000667 1.000000 -0.000000
vn 0.018079 0.999837 -0.000000
vn 0.000000 0.000000 1.000000
vn 0.000000 0.000000 1.000000
vn 0.000000 0.000000 1.000000
vn 0.000000 0.000000 1.000000
vn -0.000000 -1.000000 0.000000
vn -0.000000 -1.000000 0.000000
vn 0.000000 -0.968445 0.249226
vn -0.000000 -0.968445 0.249226
vn 0.968379 -0.006453 0.249402
vn 0.968247 0.000232 0.249996
vn 1.000000 -0.000246 0.000000
vn 0.999978 -0.006663 0.000000
vn 0.000000 0.000000 1.000000
vn 0.000000 0.000000 1.000000
vn 0.000000 0.000000 1.000000
vn 0.000000 0.000000 1.000000
vn -1.000000 0.000000 0.000000
vn -1.000000 0.000000 0.000000
vn -0.970972 0.000000 0.239195
vn -0.970972 0.000000 0.239195
vn 0.973589 0.000000 0.228307
vn 0.973283 -0.001163 0.229605
vn 0.999998 -0.001791 0.000000
vn 1.000000 0.000000 0.000000
vn 0.000000 0.000000 1.000000
vn 0.000000 0.000000 1.000000
vn 0.000000 0.000000 1.000000
vn 0.000000 0.000000 1.000000
vn -0.999997 -0.002645 0.000000
vn -1.000000 0.000581 0.000000
vn -0.970981 -0.000487 0.239157
vn -0.970883 -0.002568 0.239540
vn 1.000000 0.000000 0.000000
vn 0.972492 0.000000 0.232937
vn 0.972492 0.000000 0.232937
vn 1.000000 0.000000 0.000000
vn 0.000000 0.000000 1.000000
vn 0.000000 0.000000 1.000000
vn -0.000000 0.000000 1.000000
vn -0.000000 0.000000 1.000000
vn -0.971593 -0.001582 0.236654
vn -0.999999 -0.001629 0.000000
vn -1.000000 -0.000017 -0.000000
vn -0.971587 0.000017 0.236682
vn 0.000000 0.000000 -1.000000
vn 0.000000 0.000000 -1.000000
vn 0.000000 0.000000 -1.000000
vn 0.000000 0.000000 -1.000000
vn -0.002435 0.999997 0.000000
vn 0.000000 1.000000 -0.000000
vn 0.000000 0.985769 -0.168106
vn -0.002754 0.983321 -0.181856
vn 0.000672 -0.982930 -0.183980
vn -0.010323 -0.983325 -0.181564
vn -0.010498 -0.999945 -0.000000
vn -0.000780 -1.000000 -0.000000
vn 0.919461 0.018255 -0.392757
vn 0.919461 0.018255 -0.392757
vn 0.919461 0.018255 -0.392757
vn 0.919461 0.018255 -0.392757
vn -0.919338 0.018529 -0.393032
vn -0.919338 0.018529 -0.393032
vn -0.919338 0.018529 -0.393032
vn -0.919338 0.018529 -0.393032
vn 0.000000 0.000000 -1.000000
vn 0.000000 0.000000 -1.000000
vn 0.000000 0.000000 -1.000000
vn 0.000000 0.000000 -1.000000
vn 0.999998 -0.001791 0.000000
vn 0.999961 -0.008882 0.000000
vn 0.971246 -0.008627 -0.237923
vn 0.973283 -0.001163 -0.229605
vn -0.970981 -0.000487 -0.239157
vn -0.971506 0.012943 -0.236660
vn -0.999911 0.013322 -0.000000
vn -1.000000 0.000581 0.000000
vn 0.000000 -0.958706 -0.284398
vn 0.000000 -0.958706 -0.284398
vn 0.000000 -0.958706 -0.284398
vn 0.000000 -0.958706 -0.284398
vn -0.020170 0.953793 -0.299787
vn -0.020170 0.953793 -0.299787
vn -0.020170 0.953793 -0.299787
vn -0.020170 0.953793 -0.299787
vn 0.000000 0.000000 -1.000000
vn 0.000000 0.000000 -1.000000
vn 0.000000 0.000000 -1.000000
vn 0.000000 0.000000 -1.000000
vn 0.000667 1.000000 -0.000000
vn -0.009777 0.999952 -0.000000
vn -0.009416 0.962960 -0.269480
vn -0.000647 0.963219 -0.268718
vn 0.000000 -0.968445 -0.249226
vn 0.000000 -0.968445 -0.249226
vn 0.000000 -1.000000 0.000000
vn -0.000000 -1.000000 0.000000
vn 0.956829 0.040416 -0.287829
vn 0.956829 0.040416 -0.287829
vn 0.956829 0.040416 -0.287829
vn 0.956829 0.040416 -0.287829
vn -0.953401 0.046983 -0.298025
vn -0.953401 0.046983 -0.298025
vn -0.953401 0.046983 -0.298025
vn -0.953401 0.046983 -0.298025
vn 0.000000 0.000000 -1.000000
vn -0.000000 0.000000 -1.000000
vn -0.000000 0.000000 -1.000000
vn 0.000000 0.000000 -1.000000
vn 1.000000 -0.000246 0.000000
vn 0.999995 0.003268 0.000000
vn 0.968175 0.003164 -0.250253
vn 0.968247 0.000232 -0.249996
vn -0.970972 0.000000 -0.239195
vn -0.970972 0.000000 -0.239195
vn -1.000000 0.000000 0.000000
vn -1.000000 0.000000 0.000000
vn -0.013785 -0.964000 -0.265546
vn -0.013785 -0.964000 -0.265546
vn -0.014298 -0.999898 -0.000000
vn -0.014298 -0.999898 -0.000000
vn 0.007150 0.999974 0.000000
vn 0.007150 0.999974 0.000000
vn 0.006904 0.965509 -0.260277
vn 0.006904 0.965509 -0.260277
vn -0.000000 0.000000 -1.000000
vn -0.000000 0.000000 -1.000000
vn -0.000000 0.000000 -1.000000
vn -0.000000 0.000000 -1.000000
vn -0.971587 0.000017 -0.236682
vn -0.971580 0.001396 -0.236706
vn -0.999999 0.001437 -0.000000
vn -1.000000 -0.000017 -0.000000
vn 1.000000 0.000000 0.000000
vn 1.000000 0.000000 0.000000
vn 0.972492 0.000000 -0.232937
vn 0.972492 0.000000 -0.232937
vn 0.013551 -0.955495 -0.294697
vn 0.013551 -0.955495 -0.294697
vn 0.013551 -0.955495 -0.294697
vn 0.013551 -0.955495 -0.294697
vn 0.013552 0.955495 -0.294697
vn 0.013552 0.955495 -0.294697
vn 0.013552 0.955495 -0.294697
vn 0.013552 0.955495 -0.294697
vn -0.000000 0.000000 -1.000000
vn -0.000000 0.000000 -1.000000
vn -0.000000 0.000000 -1.000000
vn -0.000000 0.000000 -1.000000
vn 0.000000 0.968041 0.250793
vn 0.000000 1.000000 0.000000
vn 0.000000 1.000000 0.000000
vn 0.000000 0.968041 0.250793
vn 0.004392 -0.892051 -0.451914
vn 0.004392 -0.892051 -0.451914
vn 0.004392 -0.892051 -0.451914
vn 0.004392 -0.892051 -0.451914
vn 0.915829 0.005043 -0.401537
vn 0.936498 -0.007400 -0.350594
vn 0.936498 -0.007400 -0.350594
vn 0.911627 0.007375 -0.410952
vn -0.944561 0.004350 -0.328306
vn -0.942167 0.003753 -0.335123
vn -0.940572 0.003361 -0.339578
vn -0.944561 0.004350 -0.328306
vn -0.003434 0.982687 -0.185243
vn -0.003494 0.999994 0.000000
vn -0.002435 0.999997 0.000000
vn -0.002754 0.983321 -0.181856
vn 0.000000 0.000000 -1.000000
vn 0.000000 0.000000 -1.000000
vn 0.000000 0.000000 -1.000000
vn 0.000000 0.000000 -1.000000
vn 0.003478 -0.999994 -0.000000
vn 0.003418 -0.982812 -0.184579
vn 0.000672 -0.982930 -0.183980
vn -0.000780 -1.000000 -0.000000
vn -0.000000 0.000000 -1.000000
vn 0.000000 0.000000 -1.000000
vn 0.000000 0.000000 -1.000000
vn -0.000000 0.000000 -1.000000
vn 0.903654 0.011652 -0.428105
vn 0.903654 0.011652 -0.428105
vn 0.915829 0.005043 -0.401537
vn 0.911627 0.007375 -0.410952
vn -0.926014 0.000000 -0.377488
vn -0.940572 0.003361 -0.339578
vn -0.942167 0.003753 -0.335123
vn -0.926014 0.000000 -0.377488
vn 0.017422 0.963516 -0.267083
vn 0.018079 0.999837 -0.000000
vn 0.000667 1.000000 -0.000000
vn -0.000647 0.963219 -0.268718
vn 0.000000 0.000000 -1.000000
vn 0.000000 0.000000 -1.000000
vn 0.000000 0.000000 -1.000000
vn 0.000000 0.000000 -1.000000
vn -0.000000 -1.000000 0.000000
vn -0.000000 -0.968446 -0.249226
vn 0.000000 -0.968445 -0.249226
vn -0.000000 -1.000000 0.000000
vn 0.968379 -0.006453 -0.249402
vn 0.999978 -0.006663 0.000000
vn 1.000000 -0.000246 0.000000
vn 0.968247 0.000232 -0.249996
vn 0.000000 0.000000 -1.000000
vn 0.000000 0.000000 -1.000000
vn 0.000000 0.000000 -1.000000
vn 0.000000 0.000000 -1.000000
vn -1.000000 0.000000 0.000000
vn -0.970972 0.000000 -0.239195
vn -0.970972 0.000000 -0.239195
vn -1.000000 0.000000 0.000000
vn 0.973589 0.000000 -0.228307
vn 1.000000 0.000000 0.000000
vn 0.999998 -0.001791 0.000000
vn 0.973283 -0.001163 -0.229605
vn 0.000000 0.000000 -1.000000
vn 0.000000 0.000000 -1.000000
vn 0.000000 0.000000 -1.000000
vn 0.000000 0.000000 -1.000000
vn -0.999997 -0.002645 0.000000
vn -0.970883 -0.002568 -0.239540
vn -0.970981 -0.000487 -0.239157
vn -1.000000 0.000581 0.000000
vn 1.000000 0.000000 0.000000
vn 1.000000 0.000000 0.000000
vn 0.972492 0.000000 -0.232937
vn 0.972492 0.000000 -0.232937
vn -0.000000 0.000000 -1.000000
vn -0.000000 0.000000 -1.000000
vn -0.000000 0.000000 -1.000000
vn -0.000000 0.000000 -1.000000
vn -0.971593 -0.001582 -0.236654
vn -0.971587 0.000017 -0.236682
vn -1.000000 -0.000017 -0.000000
vn -0.999999 -0.001629 0.000000
s off
f 50/1/1 51/2/2 2/3/3 4/4/4
f 49/5/5 50/1/6 4/4/7 6/6/8
f 51/2/9 52/7/10 8/8/11 2/3/12
f 2/3/13 8/8/14 6/6/15 4/4/16
f 7/9/17 1/10/18 3/11/19 5/12/20
f 66/15/21 67/16/22 10/17/23 12/18/24
f 65/19/25 66/15/26 12/18/27 14/20/28
f 67/16/29 68/21/30 16/22/31 10/17/32
f 10/17/33 16/22/34 14/20/35 12/18/36
f 15/23/37 9/24/38 11/25/39 13/26/40
f 58/13/41 59/14/42 18/29/43 20/30/44
f 57/31/45 58/13/46 20/30/47 22/32/48
f 59/14/49 60/33/50 24/34/51 18/29/52
f 18/29/53 24/34/54 22/32/55 20/30/56
f 23/35/57 17/36/58 19/37/59 21/38/60
f 62/27/61 63/28/62 26/39/63 28/40/64
f 61/41/65 62/27/66 28/40/67 30/42/68
f 63/28/69 64/43/70 32/44/71 26/39/72
f 26/39/73 32/44/74 30/42/75 28/40/76
f 31/45/77 25/46/78 27/47/79 29/48/80
f 70/49/81 71/50/82 36/51/83 34/52/84
f 71/50/85 72/53/86 38/54/87 36/51/88
f 69/55/89 70/49/90 34/52/91 40/56/92
f 34/52/93 36/51/94 38/54/95 40/56/96
f 39/57/97 37/58/98 35/59/99 33/60/100
f 53/71/101 44/72/102 43/70/103 56/69/104
f 43/70/105 44/72/106 46/68/107 45/67/108
f 47/66/109 48/65/110 42/64/111 41/63/112
f 53/71/113 54/62/114 46/68/115 44/72/116
f 43/70/117 45/67/118 55/61/119 56/69/120
f 3/11/121 50/1/122 49/5/123 5/12/124
f 1/10/125 51/2/126 50/1/127 3/11/128
f 7/9/129 52/7/130 51/2/131 1/10/132
f 53/71/133 56/69/134 41/63/135 42/64/136
f 48/65/137 54/62/138 53/71/139 42/64/140
f 47/66/141 41/63/142 56/69/143 55/61/144
f 19/37/145 58/13/146 57/31/147 21/38/148
f 17/36/149 59/14/150 58/13/151 19/37/152
f 23/35/153 60/33/154 59/14/155 17/36/156
f 27/47/157 62/27/158 61/41/159 29/48/160
f 25/46/161 63/28/162 62/27/163 27/47/164
f 31/45/165 64/43/166 63/28/167 25/46/168
f 11/25/169 66/15/170 65/19/171 13/26/172
f 9/24/173 67/16/174 66/15/175 11/25/176
f 15/23/177 68/21/178 67/16/179 9/24/180
f 39/57/181 33/60/182 70/49/183 69/55/184
f 33/60/185 35/59/186 71/50/187 70/49/188
f 35/59/189 37/58/190 72/53/191 71/50/192
f 97/73/193 76/76/194 74/75/195 98/74/196
f 49/77/197 6/78/198 76/76/199 97/73/200
f 98/74/201 74/75/202 8/80/203 52/79/204
f 74/75/205 76/76/206 6/78/207 8/80/208
f 7/81/209 5/84/210 75/83/211 73/82/212
f 105/85/213 80/88/214 78/87/215 106/86/216
f 65/89/217 14/90/218 80/88/219 105/85/220
f 106/86/221 78/87/222 16/92/223 68/91/224
f 78/87/225 80/88/226 14/90/227 16/92/228
f 15/93/229 13/96/230 79/95/231 77/94/232
f 101/97/233 84/100/234 82/99/235 102/98/236
f 57/101/237 22/102/238 84/100/239 101/97/240
f 102/98/241 82/99/242 24/104/243 60/103/244
f 82/99/245 84/100/246 22/102/247 24/104/248
f 23/105/249 21/108/250 83/107/251 81/106/252
f 103/109/253 88/112/254 86/111/255 104/110/256
f 61/113/257 30/114/258 88/112/259 103/109/260
f 104/110/261 86/111/262 32/116/263 64/115/264
f 86/111/265 88/112/266 30/114/267 32/116/268
f 31/117/269 29/120/270 87/119/271 85/118/272
f 107/121/273 90/124/274 92/123/275 108/122/276
f 108/122/277 92/123/278 38/126/279 72/125/280
f 69/127/281 40/128/282 90/124/283 107/121/284
f 90/124/285 40/128/286 38/126/287 92/123/288
f 39/129/289 89/132/290 91/131/291 37/130/292
f 99/133/293 100/136/294 95/135/295 96/134/296
f 95/135/297 45/138/298 46/137/299 96/134/300
f 47/139/301 93/142/302 94/141/303 48/140/304
f 99/133/305 96/134/306 46/137/307 54/143/308
f 95/135/309 100/136/310 55/144/311 45/138/312
f 75/83/313 5/84/314 49/77/315 97/73/316
f 73/82/317 75/83/318 97/73/319 98/74/320
f 7/81/321 73/82/322 98/74/323 52/79/324
f 99/133/325 94/141/326 93/142/327 100/136/328
f 48/140/329 94/141/330 99/133/331 54/143/332
f 47/139/333 55/144/334 100/136/335 93/142/336
f 83/107/337 21/108/338 57/101/339 101/97/340
f 81/106/341 83/107/342 101/97/343 102/98/344
f 23/105/345 81/106/346 102/98/347 60/103/348
f 87/119/349 29/120/350 61/113/351 103/109/352
f 85/118/353 87/119/354 103/109/355 104/110/356
f 31/117/357 85/118/358 104/110/359 64/115/360
f 79/95/361 13/96/362 65/89/363 105/85/364
f 77/94/365 79/95/366 105/85/367 106/86/368
f 15/93/369 77/94/370 106/86/371 68/91/372
f 39/129/373 69/127/374 107/121/375 89/132/376
f 89/132/377 107/121/378 108/122/379 91/131/380
f 91/131/381 108/122/382 72/125/383 37/130/384
