# This file uses centimeters as units for non-parametric coordinates.

v -8.527401 -19.672457 -0.000000
v -8.527401 19.454096 0.000000
v -1.048514 -19.672457 -0.000000
v -1.048514 19.454096 0.000000
v -1.048514 -12.116291 0.000000
v 2.827394 -12.170873 -0.000000
v 7.631353 -9.659713 -0.000000
v 9.651199 -4.910345 -0.000000
v 9.760380 -1.361966 -0.000000
v 17.512222 -1.361966 0.000000
v 17.512222 -5.510839 -0.000000
v 14.673519 -13.753996 0.000000
v 7.849714 -18.776318 0.000000
v -8.527401 -7.530704 0.000000
v -1.048514 11.030082 -0.000000
v -8.527401 1.889220 0.000000
v -2.010753 -13.472173 4.000000
v -7.696377 -7.268276 4.000000
v -7.565163 -18.010408 4.000000
v -1.092252 -18.272837 4.000000
v 10.613438 -6.266227 4.000000
v 16.243816 -5.642053 4.000000
v 16.287556 -2.892800 4.000000
v 10.766356 -3.155229 4.000000
v 6.887475 -17.507912 4.000000
v 2.433751 -13.745445 4.000000
v 13.405114 -13.316615 4.000000
v 8.112472 -11.496714 4.000000
v -7.306936 2.151648 4.000000
v -7.821892 18.316904 4.000000
v -2.229444 10.855129 4.000000
v -1.879539 17.748310 4.000000
v -2.420847 -1.911158 4.000000
v -1.048514 -0.877223 0.000000
v -15.126166 -1.070777 2.000000
v 5.736585 7.028102 2.000000
v -15.296981 1.238056 2.000000
v 6.462529 9.875347 2.000000
v -16.279140 1.867464 -0.000000
v 7.359282 10.622336 0.000000
v -16.279140 -1.990681 -0.000000
v 7.145770 6.364111 -0.000000
v -15.095216 7.616974 2.000000
v 6.109158 15.712147 2.000000
v -15.308730 9.951653 2.000000
v 5.682131 18.766888 2.000000
v -16.162785 10.387399 0.000000
v 7.262128 19.264881 -0.000000
v -16.162785 6.261326 0.000000
v 7.262128 15.131155 -0.000000
v -4.329472 12.240439 2.000000
v -3.058342 11.148597 0.000000
v -7.800639 12.760979 2.000000
v -8.390499 13.288556 0.000000
v -9.666335 1.400749 2.000000
v -9.598609 0.356136 0.000000
v -9.906607 2.955284 2.000000
v -9.991011 4.161618 -0.000000
v -2.010753 -13.472173 -4.000000
v -7.696377 -7.268276 -4.000000
v -7.565163 -18.010408 -4.000000
v -1.092252 -18.272837 -4.000000
v 10.613438 -6.266227 -4.000000
v 16.243816 -5.642053 -4.000000
v 16.287556 -2.892800 -4.000000
v 10.766356 -3.155229 -4.000000
v 6.887475 -17.507912 -4.000000
v 2.433751 -13.745445 -4.000000
v 13.405114 -13.316615 -4.000000
v 8.112472 -11.496714 -4.000000
v -7.306936 2.151648 -4.000000
v -7.821892 18.316904 -4.000000
v -2.229444 10.855129 -4.000000
v -1.879539 17.748310 -4.000000
v -2.420847 -1.911158 -4.000000
v -15.126166 -1.070777 -2.000000
v 5.736585 7.028102 -2.000000
v -15.296981 1.238056 -2.000000
v 6.462529 9.875347 -2.000000
v -15.095216 7.616974 -2.000000
v 6.109158 15.712147 -2.000000
v -15.308730 9.951653 -2.000000
v 5.682131 18.766888 -2.000000
v -4.329472 12.240439 -2.000000
v -7.800639 12.760979 -2.000000
v -9.666335 1.400749 -2.000000
v -9.906607 2.955284 -2.000000
vt 0.011621 0.949476
vt 0.009927 0.951073
vt 0.009966 0.948308
vt 0.011895 0.948241
vt 0.015383 0.951331
vt 0.017061 0.951491
vt 0.017074 0.952199
vt 0.015429 0.952131
vt 0.014273 0.948438
vt 0.012946 0.949406
vt 0.016215 0.949516
vt 0.014638 0.949985
vt 0.009890 0.957657
vt 0.010043 0.953497
vt 0.011556 0.955737
vt 0.011661 0.957511
vt 0.011499 0.952451
vt 0.011908 0.949825
vt 0.011908 0.947881
vt 0.009680 0.947881
vt 0.009680 0.951005
vt 0.015096 0.951680
vt 0.015129 0.952593
vt 0.017439 0.952593
vt 0.017439 0.951525
vt 0.013063 0.949811
vt 0.014560 0.948111
vt 0.014495 0.950457
vt 0.016593 0.949404
vt 0.009680 0.957950
vt 0.011908 0.957950
vt 0.011908 0.955782
vt 0.009680 0.953429
vt 0.011908 0.952718
vt 0.007663 0.953262
vt 0.007713 0.952668
vt 0.009340 0.953304
vt 0.009269 0.953704
vt 0.007370 0.953424
vt 0.009244 0.954014
vt 0.013930 0.954752
vt 0.009360 0.953035
vt 0.014350 0.954581
vt 0.014413 0.955677
vt 0.014146 0.955485
vt 0.007370 0.952431
vt 0.007659 0.955504
vt 0.007723 0.954903
vt 0.010931 0.956093
vt 0.009896 0.956227
vt 0.007405 0.955616
vt 0.009721 0.956363
vt 0.014041 0.956987
vt 0.011309 0.955812
vt 0.014385 0.956837
vt 0.014385 0.957901
vt 0.013914 0.957773
vt 0.007405 0.954555
vt 0.011621 0.949476
vt 0.009927 0.951073
vt 0.009966 0.948308
vt 0.011895 0.948241
vt 0.015383 0.951331
vt 0.017061 0.951491
vt 0.017074 0.952199
vt 0.015429 0.952131
vt 0.014273 0.948438
vt 0.012946 0.949406
vt 0.016215 0.949516
vt 0.014638 0.949985
vt 0.009890 0.957657
vt 0.010043 0.953497
vt 0.011556 0.955737
vt 0.011661 0.957511
vt 0.011499 0.952451
vt 0.009680 0.951005
vt 0.009680 0.947881
vt 0.011908 0.947881
vt 0.017439 0.951525
vt 0.017439 0.952593
vt 0.015129 0.952593
vt 0.015096 0.951680
vt 0.014560 0.948111
vt 0.013063 0.949811
vt 0.011908 0.949825
vt 0.016593 0.949404
vt 0.014495 0.950457
vt 0.009680 0.957950
vt 0.009680 0.953429
vt 0.011908 0.955782
vt 0.011908 0.957950
vt 0.011908 0.952718
vt 0.007663 0.953262
vt 0.007713 0.952668
vt 0.009340 0.953304
vt 0.009269 0.953704
vt 0.007370 0.953424
vt 0.009244 0.954014
vt 0.013930 0.954752
vt 0.009360 0.953035
vt 0.014350 0.954581
vt 0.014413 0.955677
vt 0.014146 0.955485
vt 0.007370 0.952431
vt 0.007659 0.955504
vt 0.007723 0.954903
vt 0.010931 0.956093
vt 0.009896 0.956227
vt 0.007405 0.955616
vt 0.009721 0.956363
vt 0.014041 0.956987
vt 0.011309 0.955812
vt 0.014385 0.956837
vt 0.014385 0.957901
vt 0.013914 0.957773
vt 0.007405 0.954555
vn -0.000000 0.000000 1.000000
vn -0.000000 0.000000 1.000000
vn -0.000000 0.000000 1.000000
vn -0.000000 0.000000 1.000000
vn 0.000000 0.000000 1.000000
vn 0.000000 0.000000 1.000000
vn 0.000000 0.000000 1.000000
vn 0.000000 0.000000 1.000000
vn -0.000000 0.000000 1.000000
vn 0.000000 0.000000 1.000000
vn 0.000000 0.000000 1.000000
vn -0.000000 0.000000 1.000000
vn 0.000000 0.000000 1.000000
vn 0.000000 0.000000 1.000000
vn 0.000000 0.000000 1.000000
vn 0.000000 0.000000 1.000000
vn 0.000000 0.000000 1.000000
vn 0.000000 0.000000 1.000000
vn 0.000000 0.000000 1.000000
vn 0.000000 0.000000 1.000000
vn 0.000000 0.000000 1.000000
vn 0.000000 0.000000 1.000000
vn 0.000000 0.000000 1.000000
vn 0.000000 0.000000 1.000000
vn 0.000000 0.000000 1.000000
vn 0.000000 0.000000 1.000000
vn -0.000000 0.000000 1.000000
vn 0.000000 0.000000 1.000000
vn -0.999984 -0.005734 0.000000
vn -0.999984 -0.005734 0.000000
vn -0.975482 -0.005593 0.220007
vn -0.975482 -0.005593 0.220007
vn -0.017552 -0.933123 0.359129
vn -0.017552 -0.933123 0.359129
vn -0.017552 -0.933123 0.359129
vn -0.017552 -0.933123 0.359129
vn 0.955054 -0.006056 0.296369
vn 0.955054 -0.006056 0.296369
vn 0.955054 -0.006056 0.296369
vn 0.955054 -0.006056 0.296369
vn -0.018259 0.923478 0.383217
vn -0.018259 0.923478 0.383217
vn -0.018259 0.923478 0.383217
vn -0.018259 0.923478 0.383217
vn -0.999226 0.039328 0.000000
vn -0.999226 0.039328 0.000000
vn -0.966763 0.038050 0.252828
vn -0.966763 0.038050 0.252828
vn 0.092610 -0.941005 0.325474
vn 0.092610 -0.941005 0.325474
vn 0.092610 -0.941005 0.325474
vn 0.092610 -0.941005 0.325474
vn 0.036894 0.936310 0.349230
vn 0.036894 0.936310 0.349230
vn 0.036894 0.936311 0.349230
vn 0.036894 0.936311 0.349230
vn 0.539008 -0.780490 0.316710
vn 0.539008 -0.780490 0.316710
vn 0.539008 -0.780490 0.316710
vn 0.539008 -0.780490 0.316710
vn -0.384821 0.847489 0.365617
vn -0.384821 0.847489 0.365617
vn -0.384821 0.847489 0.365617
vn -0.384821 0.847489 0.365617
vn 0.899256 -0.320740 0.297430
vn 0.899256 -0.320740 0.297430
vn 0.899256 -0.320740 0.297430
vn 0.899256 -0.320740 0.297430
vn -0.865265 0.391960 0.312546
vn -0.865265 0.391960 0.312546
vn -0.865265 0.391960 0.312546
vn -0.865265 0.391960 0.312546
vn -0.999884 -0.015265 0.000000
vn -0.999884 -0.015265 0.000000
vn -0.972483 -0.014847 0.232499
vn -0.972483 -0.014847 0.232499
vn 0.999739 -0.022838 0.000000
vn 0.999739 -0.022838 0.000000
vn 0.970783 -0.022177 0.238933
vn 0.970783 -0.022176 0.238933
vn 0.039879 0.941322 0.335145
vn 0.039879 0.941322 0.335145
vn 0.039879 0.941322 0.335145
vn 0.039879 0.941322 0.335145
vn -0.999786 0.020667 0.000000
vn -0.999786 0.020667 0.000000
vn -0.968779 0.020026 0.247116
vn -0.968779 0.020026 0.247116
vn 0.956101 0.006274 0.292969
vn 0.955269 0.002538 0.295728
vn 0.952954 -0.007392 0.303026
vn 0.952954 -0.007392 0.303026
vn 0.000000 0.000000 1.000000
vn -0.000000 0.000000 1.000000
vn -0.000000 0.000000 1.000000
vn 0.958421 0.017239 0.284837
vn 0.955269 0.002538 0.295728
vn 0.956101 0.006274 0.292969
vn 0.958421 0.017239 0.284837
vn 0.000000 0.000000 1.000000
vn 0.000000 0.000000 1.000000
vn 0.000000 0.000000 1.000000
vn 0.000000 0.000000 1.000000
vn -0.288138 0.838870 0.461816
vn -0.288138 0.838870 0.461816
vn -0.328288 0.861430 0.387511
vn -0.332329 0.863403 0.379595
vn 0.301042 -0.831751 0.466437
vn 0.312247 -0.843338 0.437358
vn 0.315520 -0.846611 0.428599
vn 0.301042 -0.831751 0.466437
vn 0.861730 -0.113934 0.494410
vn 0.861730 -0.113934 0.494410
vn 0.861730 -0.113934 0.494410
vn 0.861730 -0.113934 0.494410
vn -0.881188 -0.024407 0.472136
vn -0.881188 -0.024407 0.472136
vn -0.881188 -0.024407 0.472136
vn -0.881188 -0.024407 0.472136
vn 0.000000 0.000000 1.000000
vn 0.000000 0.000000 1.000000
vn 0.000000 0.000000 1.000000
vn 0.000000 0.000000 1.000000
vn -0.330211 0.883595 0.331996
vn -0.330211 0.883595 0.331996
vn -0.363866 0.909570 0.200709
vn -0.368534 0.929614 0.000000
vn 0.289998 -0.807605 0.513493
vn 0.308575 -0.803533 0.509034
vn 0.302764 -0.804843 0.510453
vn 0.289998 -0.807605 0.513493
vn 0.825161 0.049018 0.562767
vn 0.825161 0.049018 0.562767
vn 0.825161 0.049018 0.562767
vn 0.825161 0.049018 0.562767
vn -0.898301 -0.029687 0.438376
vn -0.898301 -0.029687 0.438376
vn -0.898301 -0.029687 0.438376
vn -0.898301 -0.029687 0.438376
vn 0.000000 0.000000 1.000000
vn 0.000000 0.000000 1.000000
vn 0.000000 0.000000 1.000000
vn 0.000000 0.000000 1.000000
vn -0.368534 0.929614 0.000000
vn -0.363866 0.909570 0.200709
vn -0.376522 0.915532 0.141533
vn -0.380351 0.924842 0.000000
vn 0.302764 -0.804843 0.510453
vn 0.308575 -0.803533 0.509034
vn 0.319171 -0.801061 0.506390
vn 0.319171 -0.801061 0.506390
vn 0.000000 0.000000 1.000000
vn 0.000000 0.000000 1.000000
vn 0.000000 0.000000 1.000000
vn 0.000000 0.000000 1.000000
vn -0.332329 0.863403 0.379595
vn -0.328288 0.861430 0.387511
vn -0.344908 0.869163 0.354393
vn -0.344908 0.869163 0.354393
vn 0.315520 -0.846611 0.428599
vn 0.312247 -0.843338 0.437358
vn 0.347484 -0.875527 0.335720
vn 0.347484 -0.875527 0.335720
vn -0.000000 0.000000 -1.000000
vn -0.000000 0.000000 -1.000000
vn -0.000000 0.000000 -1.000000
vn -0.000000 0.000000 -1.000000
vn 0.000000 0.000000 -1.000000
vn 0.000000 0.000000 -1.000000
vn 0.000000 0.000000 -1.000000
vn 0.000000 0.000000 -1.000000
vn -0.000000 0.000000 -1.000000
vn -0.000000 0.000000 -1.000000
vn 0.000000 0.000000 -1.000000
vn 0.000000 0.000000 -1.000000
vn 0.000000 0.000000 -1.000000
vn 0.000000 0.000000 -1.000000
vn 0.000000 0.000000 -1.000000
vn 0.000000 0.000000 -1.000000
vn 0.000000 0.000000 -1.000000
vn 0.000000 0.000000 -1.000000
vn 0.000000 0.000000 -1.000000
vn 0.000000 0.000000 -1.000000
vn 0.000000 0.000000 -1.000000
vn 0.000000 0.000000 -1.000000
vn -0.000000 0.000000 -1.000000
vn -0.000000 0.000000 -1.000000
vn -0.000000 0.000000 -1.000000
vn -0.000000 0.000000 -1.000000
vn -0.000000 0.000000 -1.000000
vn -0.000000 0.000000 -1.000000
vn -0.999984 -0.005734 0.000000
vn -0.975482 -0.005593 -0.220007
vn -0.975482 -0.005593 -0.220007
vn -0.999984 -0.005734 0.000000
vn -0.017552 -0.933123 -0.359129
vn -0.017552 -0.933123 -0.359129
vn -0.017552 -0.933123 -0.359129
vn -0.017552 -0.933123 -0.359129
vn 0.955054 -0.006056 -0.296369
vn 0.955054 -0.006056 -0.296369
vn 0.955054 -0.006056 -0.296369
vn 0.955054 -0.006056 -0.296369
vn -0.018259 0.923478 -0.383217
vn -0.018259 0.923478 -0.383217
vn -0.018259 0.923478 -0.383217
vn -0.018259 0.923478 -0.383217
vn -0.999226 0.039328 0.000000
vn -0.966763 0.038050 -0.252828
vn -0.966763 0.038050 -0.252828
vn -0.999226 0.039328 0.000000
vn 0.092610 -0.941005 -0.325474
vn 0.092610 -0.941005 -0.325474
vn 0.092610 -0.941005 -0.325474
vn 0.092610 -0.941005 -0.325474
vn 0.036894 0.936310 -0.349230
vn 0.036894 0.936311 -0.349230
vn 0.036894 0.936311 -0.349230
vn 0.036894 0.936310 -0.349230
vn 0.539008 -0.780490 -0.316710
vn 0.539008 -0.780490 -0.316710
vn 0.539008 -0.780491 -0.316710
vn 0.539008 -0.780490 -0.316710
vn -0.384821 0.847489 -0.365617
vn -0.384821 0.847489 -0.365617
vn -0.384821 0.847489 -0.365617
vn -0.384821 0.847489 -0.365617
vn 0.899256 -0.320740 -0.297430
vn 0.899256 -0.320740 -0.297430
vn 0.899256 -0.320740 -0.297430
vn 0.899256 -0.320740 -0.297430
vn -0.865265 0.391960 -0.312546
vn -0.865265 0.391960 -0.312546
vn -0.865265 0.391960 -0.312546
vn -0.865265 0.391960 -0.312546
vn -0.999884 -0.015265 0.000000
vn -0.972483 -0.014847 -0.232499
vn -0.972483 -0.014847 -0.232499
vn -0.999884 -0.015265 0.000000
vn 0.999739 -0.022838 0.000000
vn 0.970783 -0.022176 -0.238933
vn 0.970783 -0.022177 -0.238933
vn 0.999739 -0.022838 0.000000
vn 0.039879 0.941322 -0.335145
vn 0.039879 0.941322 -0.335145
vn 0.039879 0.941322 -0.335145
vn 0.039879 0.941322 -0.335145
vn -0.999786 0.020667 0.000000
vn -0.968779 0.020026 -0.247116
vn -0.968779 0.020026 -0.247116
vn -0.999786 0.020667 0.000000
vn 0.956101 0.006274 -0.292969
vn 0.952954 -0.007392 -0.303026
vn 0.952954 -0.007392 -0.303026
vn 0.955269 0.002538 -0.295728
vn -0.000000 0.000000 -1.000000
vn -0.000000 0.000000 -1.000000
vn -0.000000 0.000000 -1.000000
vn 0.958421 0.017239 -0.284837
vn 0.958421 0.017239 -0.284837
vn 0.956101 0.006274 -0.292969
vn 0.955269 0.002538 -0.295728
vn 0.000000 0.000000 -1.000000
vn 0.000000 0.000000 -1.000000
vn 0.000000 0.000000 -1.000000
vn 0.000000 0.000000 -1.000000
vn -0.288138 0.838870 -0.461816
vn -0.332329 0.863403 -0.379595
vn -0.328288 0.861430 -0.387511
vn -0.288138 0.838869 -0.461816
vn 0.301042 -0.831751 -0.466437
vn 0.301042 -0.831751 -0.466437
vn 0.315520 -0.846611 -0.428599
vn 0.312247 -0.843338 -0.437358
vn 0.861730 -0.113934 -0.494410
vn 0.861730 -0.113934 -0.494410
vn 0.861730 -0.113934 -0.494410
vn 0.861730 -0.113934 -0.494410
vn -0.881188 -0.024407 -0.472136
vn -0.881188 -0.024407 -0.472136
vn -0.881188 -0.024407 -0.472136
vn -0.881188 -0.024407 -0.472136
vn 0.000000 0.000000 -1.000000
vn 0.000000 0.000000 -1.000000
vn 0.000000 0.000000 -1.000000
vn 0.000000 0.000000 -1.000000
vn -0.330211 0.883595 -0.331996
vn -0.368534 0.929614 0.000000
vn -0.363866 0.909570 -0.200709
vn -0.330211 0.883595 -0.331996
vn 0.289998 -0.807605 -0.513494
vn 0.289998 -0.807605 -0.513494
vn 0.302764 -0.804843 -0.510453
vn 0.308575 -0.803533 -0.509034
vn 0.825161 0.049018 -0.562767
vn 0.825161 0.049018 -0.562767
vn 0.825161 0.049018 -0.562767
vn 0.825161 0.049018 -0.562767
vn -0.898301 -0.029687 -0.438376
vn -0.898301 -0.029687 -0.438376
vn -0.898301 -0.029687 -0.438376
vn -0.898301 -0.029687 -0.438376
vn 0.000000 0.000000 -1.000000
vn 0.000000 0.000000 -1.000000
vn 0.000000 0.000000 -1.000000
vn 0.000000 0.000000 -1.000000
vn -0.368534 0.929614 0.000000
vn -0.380351 0.924842 0.000000
vn -0.376522 0.915532 -0.141533
vn -0.363866 0.909570 -0.200709
vn 0.302764 -0.804843 -0.510453
vn 0.319171 -0.801061 -0.506390
vn 0.319171 -0.801061 -0.506390
vn 0.308575 -0.803533 -0.509034
vn 0.000000 0.000000 -1.000000
vn 0.000000 0.000000 -1.000000
vn 0.000000 0.000000 -1.000000
vn 0.000000 0.000000 -1.000000
vn -0.332329 0.863403 -0.379595
vn -0.344907 0.869163 -0.354392
vn -0.344908 0.869163 -0.354392
vn -0.328288 0.861430 -0.387511
vn 0.315520 -0.846611 -0.428599
vn 0.347484 -0.875527 -0.335720
vn 0.347484 -0.875527 -0.335720
vn 0.312247 -0.843338 -0.437358
s off
f 17/1/1 18/2/2 19/3/3 20/4/4
f 21/5/5 22/6/6 23/7/7 24/8/8
f 20/4/9 25/9/10 26/10/11 17/1/12
f 26/10/13 25/9/14 27/11/15 28/12/16
f 28/12/17 27/11/18 22/6/19 21/5/20
f 30/13/21 29/14/22 31/15/23 32/16/24
f 31/15/25 29/14/26 18/2/27 33/17/28
f 14/21/29 1/20/30 19/3/31 18/2/32
f 1/20/33 3/19/34 20/4/35 19/3/36
f 11/25/37 10/24/38 23/7/39 22/6/40
f 10/24/41 9/23/42 24/8/43 23/7/44
f 9/23/45 8/22/46 21/5/47 24/8/48
f 3/19/49 13/27/50 25/9/51 20/4/52
f 6/26/53 5/18/54 17/1/55 26/10/56
f 13/27/57 12/29/58 27/11/59 25/9/60
f 7/28/61 6/26/62 26/10/63 28/12/64
f 12/29/65 11/25/66 22/6/67 27/11/68
f 8/22/69 7/28/70 28/12/71 21/5/72
f 2/30/73 16/33/74 29/14/75 30/13/76
f 15/32/77 4/31/78 32/16/79 31/15/80
f 4/31/81 2/30/82 30/13/83 32/16/84
f 16/33/85 14/21/86 18/2/87 29/14/88
f 33/17/89 34/34/90 15/32/91 31/15/92
f 33/17/93 18/2/94 17/1/95
f 5/18/96 34/34/97 33/17/98 17/1/99
f 37/35/100 35/36/101 55/37/102 57/38/103
f 39/39/104 37/35/105 57/38/106 58/40/107
f 36/41/108 55/37/109 56/42/110 42/43/111
f 36/41/112 42/43/113 40/44/114 38/45/115
f 41/46/116 35/36/117 37/35/118 39/39/119
f 45/47/120 43/48/121 51/49/122 53/50/123
f 47/51/124 45/47/125 53/50/126 54/52/127
f 44/53/128 51/49/129 52/54/130 50/55/131
f 44/53/132 50/55/133 48/56/134 46/57/135
f 49/58/136 43/48/137 45/47/138 47/51/139
f 53/50/140 51/49/141 44/53/142 46/57/143
f 54/52/144 53/50/145 46/57/146 48/56/147
f 52/54/148 51/49/149 43/48/150 49/58/151
f 57/38/152 55/37/153 36/41/154 38/45/155
f 58/40/156 57/38/157 38/45/158 40/44/159
f 56/42/160 55/37/161 35/36/162 41/46/163
f 59/59/164 62/62/165 61/61/166 60/60/167
f 63/63/168 66/66/169 65/65/170 64/64/171
f 62/62/172 59/59/173 68/68/174 67/67/175
f 68/68/176 70/70/177 69/69/178 67/67/179
f 70/70/180 63/63/181 64/64/182 69/69/183
f 72/71/184 74/74/185 73/73/186 71/72/187
f 73/73/188 75/75/189 60/60/190 71/72/191
f 14/76/192 60/60/193 61/61/194 1/77/195
f 1/77/196 61/61/197 62/62/198 3/78/199
f 11/79/200 64/64/201 65/65/202 10/80/203
f 10/80/204 65/65/205 66/66/206 9/81/207
f 9/81/208 66/66/209 63/63/210 8/82/211
f 3/78/212 62/62/213 67/67/214 13/83/215
f 6/84/216 68/68/217 59/59/218 5/85/219
f 13/83/220 67/67/221 69/69/222 12/86/223
f 7/87/224 70/70/225 68/68/226 6/84/227
f 12/86/228 69/69/229 64/64/230 11/79/231
f 8/82/232 63/63/233 70/70/234 7/87/235
f 2/88/236 72/71/237 71/72/238 16/89/239
f 15/90/240 73/73/241 74/74/242 4/91/243
f 4/91/244 74/74/245 72/71/246 2/88/247
f 16/89/248 71/72/249 60/60/250 14/76/251
f 75/75/252 73/73/253 15/90/254 34/92/255
f 75/75/256 59/59/257 60/60/258
f 5/85/259 59/59/260 75/75/261 34/92/262
f 78/93/263 87/96/264 86/95/265 76/94/266
f 39/97/267 58/98/268 87/96/269 78/93/270
f 77/99/271 42/101/272 56/100/273 86/95/274
f 77/99/275 79/103/276 40/102/277 42/101/278
f 41/104/279 39/97/280 78/93/281 76/94/282
f 82/105/283 85/108/284 84/107/285 80/106/286
f 47/109/287 54/110/288 85/108/289 82/105/290
f 81/111/291 50/113/292 52/112/293 84/107/294
f 81/111/295 83/115/296 48/114/297 50/113/298
f 49/116/299 47/109/300 82/105/301 80/106/302
f 85/108/303 83/115/304 81/111/305 84/107/306
f 54/110/307 48/114/308 83/115/309 85/108/310
f 52/112/311 49/116/312 80/106/313 84/107/314
f 87/96/315 79/103/316 77/99/317 86/95/318
f 58/98/319 40/102/320 79/103/321 87/96/322
f 56/100/323 41/104/324 76/94/325 86/95/326
