# This file uses centimeters as units for non-parametric coordinates.

v 5.613358 16.587830 2.000000
v 9.052933 12.910400 2.000000
v 10.512833 8.636780 2.000000
v 11.302322 -13.509705 2.000000
v 13.847855 -15.079407 4.000000
v 14.797775 -18.518494 4.000000
v -14.797806 -18.544128 4.000000
v -13.690231 -14.398376 4.000000
v -10.994766 -13.546387 2.000000
v -10.994766 7.656250 1.046259
v -8.529526 12.193909 2.000000
v -5.669632 16.181885 2.000000
v -0.608719 17.704346 2.000000
v 5.958878 17.427612 0.000000
v 9.700211 13.631836 0.000000
v 11.783188 9.358276 0.000000
v 12.110428 -13.208435 0.000000
v 15.245651 -14.468201 0.000000
v 15.855820 -18.518494 0.000000
v -15.855850 -18.544128 0.000000
v -14.669083 -14.398376 0.000000
v -11.780899 -13.245117 0.000000
v -11.861008 7.962341 0.000000
v -10.058243 12.915344 0.000000
v -6.491348 16.903381 0.000000
v -0.652237 18.544128 0.000000
v -5.086990 7.615845 2.000000
v 4.389084 8.217346 2.000000
v 3.639908 4.062256 2.000000
v -4.715195 4.563477 2.000000
v -10.994766 4.354187 2.000000
v -9.189987 7.355408 2.000000
v -11.445084 -7.670044 0.000000
v -9.124832 -6.702637 2.000000
v 10.593674 0.291809 2.000000
v 11.568375 -0.519653 0.000000
v 5.613358 16.587830 -2.000000
v 9.052933 12.910400 -2.000000
v 10.512833 8.636780 -2.000000
v 11.302322 -13.509705 -2.000000
v 13.847855 -15.079407 -4.000000
v 14.797775 -18.518494 -4.000000
v -14.797806 -18.544128 -4.000000
v -13.690231 -14.398376 -4.000000
v -10.994766 -13.546387 -2.000000
v -10.994766 7.656250 -1.046259
v -8.529526 12.193909 -2.000000
v -5.669632 16.181885 -2.000000
v -0.608719 17.704346 -2.000000
v -5.086990 7.615845 -2.000000
v 4.389084 8.217346 -2.000000
v 3.639908 4.062256 -2.000000
v -4.715195 4.563477 -2.000000
v -10.994766 4.354187 -2.000000
v -9.189987 7.355408 -2.000000
v -9.124832 -6.702637 -2.000000
v 10.593674 0.291809 -2.000000
vt 0.984942 0.918743
vt 0.984901 0.918741
vt 0.984898 0.918730
vt 0.984947 0.918733
vt 0.983492 0.890167
vt 0.983451 0.890168
vt 0.983449 0.890161
vt 0.983493 0.890162
vt 0.983488 0.890170
vt 0.984898 0.918684
vt 0.984935 0.918751
vt 0.984921 0.918754
vt 0.984909 0.918750
vt 0.984943 0.918745
vt 0.984935 0.918753
vt 0.984948 0.918735
vt 0.983489 0.890171
vt 0.983493 0.890169
vt 0.983494 0.890164
vt 0.983448 0.890163
vt 0.983450 0.890169
vt 0.984897 0.918686
vt 0.984896 0.918732
vt 0.984901 0.918742
vt 0.984908 0.918751
vt 0.984921 0.918755
vt 0.983454 0.890171
vt 0.983455 0.890170
vt 0.984948 0.918687
vt 0.984947 0.918685
vt 0.984911 0.918731
vt 0.982393 0.953249
vt 0.982393 0.953251
vt 0.982397 0.953251
vt 0.984910 0.918724
vt 0.982397 0.953249
vt 0.984931 0.918724
vt 0.984932 0.918732
vt 0.984898 0.918723
vt 0.984902 0.918730
vt 0.984897 0.918698
vt 0.984898 0.918697
vt 0.984947 0.918713
vt 0.984948 0.918714
vt 0.984902 0.918730
vt 0.984901 0.918741
vt 0.984898 0.918730
vt 0.983492 0.890167
vt 0.983451 0.890168
vt 0.983449 0.890161
vt 0.983493 0.890162
vt 0.983488 0.890170
vt 0.983455 0.890170
vt 0.984898 0.918723
vt 0.984935 0.918751
vt 0.984921 0.918754
vt 0.984909 0.918750
vt 0.984942 0.918743
vt 0.984943 0.918745
vt 0.984935 0.918753
vt 0.984947 0.918733
vt 0.984948 0.918735
vt 0.984947 0.918713
vt 0.984948 0.918714
vt 0.983493 0.890169
vt 0.983489 0.890171
vt 0.983494 0.890164
vt 0.983448 0.890163
vt 0.983450 0.890169
vt 0.983454 0.890171
vt 0.984897 0.918698
vt 0.984898 0.918697
vt 0.984896 0.918732
vt 0.984901 0.918742
vt 0.984908 0.918751
vt 0.984921 0.918755
vt 0.982397 0.953249
vt 0.982397 0.953251
vt 0.982393 0.953251
vt 0.982393 0.953249
vt 0.984932 0.918732
vt 0.984931 0.918724
vt 0.984898 0.918684
vt 0.984897 0.918686
vt 0.984947 0.918685
vt 0.984948 0.918687
vt 0.984911 0.918731
vt 0.984910 0.918724
vn -0.458142 0.062537 0.886676
vn -0.458142 0.062537 0.886676
vn -0.458142 0.062537 0.886676
vn 0.000000 0.000000 1.000000
vn 0.000000 0.000000 1.000000
vn 0.000000 0.000000 1.000000
vn 0.000000 0.000000 1.000000
vn 0.011057 0.855204 0.518174
vn 0.011057 0.855204 0.518174
vn 0.011057 0.855204 0.518174
vn 0.011057 0.855204 0.518174
vn -0.418988 0.251958 0.872334
vn -0.418988 0.251958 0.872334
vn -0.418988 0.251958 0.872334
vn -0.000000 0.000000 1.000000
vn -0.000000 0.000000 1.000000
vn -0.000000 0.000000 1.000000
vn 0.000000 0.000000 1.000000
vn 0.000000 0.000000 1.000000
vn 0.000000 0.000000 1.000000
vn 0.000000 0.000000 1.000000
vn 0.657705 0.631981 0.409907
vn 0.657705 0.631981 0.409907
vn 0.657705 0.631981 0.409907
vn 0.657705 0.631981 0.409907
vn 0.798754 0.331090 0.502365
vn 0.798755 0.331090 0.502365
vn 0.798755 0.331090 0.502365
vn 0.798754 0.331090 0.502365
vn 0.871956 -0.006410 0.489542
vn 0.893024 0.016591 0.449702
vn 0.902343 0.027639 0.430131
vn 0.871956 -0.006410 0.489542
vn 0.353030 0.896944 0.266198
vn 0.353030 0.896944 0.266198
vn 0.353030 0.896944 0.266198
vn 0.353030 0.896944 0.266198
vn 0.933458 0.194446 0.301409
vn 0.933458 0.194446 0.301409
vn 0.933458 0.194446 0.301409
vn 0.933458 0.194446 0.301409
vn 0.000836 -1.000000 -0.000000
vn 0.000836 -1.000000 -0.000000
vn 0.000836 -1.000000 -0.000000
vn 0.000836 -1.000000 -0.000000
vn -0.936013 0.259004 0.238320
vn -0.936013 0.259004 0.238320
vn -0.936013 0.259004 0.238320
vn -0.936013 0.259004 0.238320
vn -0.292259 0.946972 0.133521
vn -0.292259 0.946972 0.133521
vn -0.292259 0.946972 0.133521
vn -0.292259 0.946972 0.133521
vn -0.800386 0.024368 0.598990
vn -0.800409 -0.011690 0.599340
vn -0.799158 -0.052940 0.598785
vn -0.799158 -0.052940 0.598785
vn -0.799158 -0.052940 0.598785
vn -0.715849 0.256664 0.649372
vn -0.715848 0.256664 0.649372
vn -0.715848 0.256664 0.649372
vn -0.715848 0.256664 0.649372
vn -0.642742 0.517898 0.564504
vn -0.642742 0.517898 0.564504
vn -0.642742 0.517898 0.564504
vn -0.642742 0.517898 0.564504
vn -0.255557 0.880618 0.399002
vn -0.255557 0.880618 0.399002
vn -0.255557 0.880618 0.399002
vn -0.255557 0.880618 0.399002
vn 0.157679 0.906178 0.392401
vn 0.157679 0.906178 0.392401
vn 0.157679 0.906178 0.392401
vn 0.157679 0.906178 0.392401
vn -0.000000 0.000000 1.000000
vn -0.000000 0.000000 1.000000
vn -0.000000 0.000000 1.000000
vn -0.000000 0.000000 1.000000
vn 0.000000 0.000000 1.000000
vn 0.000000 0.000000 1.000000
vn -0.000000 0.000000 1.000000
vn -0.000000 0.000000 1.000000
vn 0.000000 0.000000 1.000000
vn 0.000000 0.000000 1.000000
vn 0.000000 0.000000 1.000000
vn -0.793156 0.140875 0.592501
vn -0.800409 -0.011690 0.599340
vn -0.800386 0.024368 0.598990
vn -0.793156 0.140875 0.592501
vn -0.000000 0.000000 1.000000
vn -0.000000 0.000000 1.000000
vn 0.000000 0.000000 1.000000
vn 0.000000 0.000000 1.000000
vn 0.902343 0.027639 0.430131
vn 0.893024 0.016591 0.449702
vn 0.914569 0.043180 0.402118
vn 0.914569 0.043180 0.402118
vn 0.000000 0.000000 1.000000
vn 0.000000 0.000000 1.000000
vn 0.000000 0.000000 1.000000
vn 0.000000 0.000000 1.000000
vn 0.000000 0.000000 1.000000
vn 0.000000 0.000000 1.000000
vn 0.000000 0.000000 1.000000
vn -0.000000 0.000000 1.000000
vn -0.000000 0.000000 1.000000
vn -0.000000 0.000000 1.000000
vn -0.000000 0.000000 1.000000
vn 0.000000 0.000000 1.000000
vn -0.000000 0.000000 1.000000
vn 0.000000 0.000000 1.000000
vn 0.000000 0.000000 1.000000
vn -0.000000 0.000000 1.000000
vn -0.000000 0.000000 1.000000
vn 0.000000 0.000000 1.000000
vn -0.458142 0.062537 -0.886676
vn -0.458142 0.062537 -0.886676
vn -0.458142 0.062537 -0.886676
vn 0.000000 0.000000 -1.000000
vn 0.000000 0.000000 -1.000000
vn 0.000000 0.000000 -1.000000
vn 0.000000 0.000000 -1.000000
vn 0.011057 0.855204 -0.518174
vn 0.011057 0.855204 -0.518174
vn 0.011057 0.855204 -0.518174
vn 0.011057 0.855204 -0.518174
vn -0.418988 0.251958 -0.872334
vn -0.418988 0.251958 -0.872334
vn -0.418988 0.251958 -0.872334
vn 0.000000 0.000000 -1.000000
vn 0.000000 0.000000 -1.000000
vn 0.000000 0.000000 -1.000000
vn -0.000000 0.000000 -1.000000
vn -0.000000 0.000000 -1.000000
vn -0.000000 0.000000 -1.000000
vn -0.000000 0.000000 -1.000000
vn 0.657705 0.631981 -0.409907
vn 0.657705 0.631981 -0.409907
vn 0.657705 0.631981 -0.409907
vn 0.657705 0.631981 -0.409907
vn 0.798754 0.331090 -0.502365
vn 0.798755 0.331090 -0.502365
vn 0.798755 0.331090 -0.502365
vn 0.798755 0.331090 -0.502365
vn 0.871956 -0.006410 -0.489542
vn 0.871956 -0.006410 -0.489542
vn 0.902343 0.027639 -0.430131
vn 0.893024 0.016591 -0.449702
vn 0.353030 0.896944 -0.266198
vn 0.353030 0.896944 -0.266198
vn 0.353030 0.896944 -0.266198
vn 0.353030 0.896944 -0.266198
vn 0.933458 0.194446 -0.301409
vn 0.933458 0.194446 -0.301409
vn 0.933458 0.194446 -0.301409
vn 0.933458 0.194446 -0.301409
vn 0.000836 -1.000000 0.000000
vn 0.000836 -1.000000 0.000000
vn 0.000836 -1.000000 0.000000
vn 0.000836 -1.000000 0.000000
vn -0.936013 0.259004 -0.238320
vn -0.936013 0.259004 -0.238320
vn -0.936013 0.259004 -0.238320
vn -0.936013 0.259004 -0.238320
vn -0.292259 0.946972 -0.133521
vn -0.292259 0.946972 -0.133521
vn -0.292259 0.946972 -0.133521
vn -0.292259 0.946972 -0.133521
vn -0.800386 0.024368 -0.598990
vn -0.799158 -0.052940 -0.598785
vn -0.799158 -0.052940 -0.598785
vn -0.799158 -0.052940 -0.598785
vn -0.800409 -0.011690 -0.599340
vn -0.715849 0.256664 -0.649372
vn -0.715848 0.256664 -0.649372
vn -0.715848 0.256664 -0.649372
vn -0.715848 0.256664 -0.649372
vn -0.642742 0.517898 -0.564504
vn -0.642742 0.517898 -0.564504
vn -0.642742 0.517898 -0.564504
vn -0.642742 0.517898 -0.564504
vn -0.255557 0.880618 -0.399002
vn -0.255557 0.880618 -0.399002
vn -0.255557 0.880618 -0.399002
vn -0.255557 0.880618 -0.399002
vn 0.157679 0.906178 -0.392401
vn 0.157679 0.906178 -0.392401
vn 0.157679 0.906178 -0.392401
vn 0.157679 0.906178 -0.392401
vn 0.000000 0.000000 -1.000000
vn 0.000000 0.000000 -1.000000
vn 0.000000 0.000000 -1.000000
vn 0.000000 0.000000 -1.000000
vn -0.000000 0.000000 -1.000000
vn -0.000000 0.000000 -1.000000
vn -0.000000 0.000000 -1.000000
vn -0.000000 0.000000 -1.000000
vn -0.000000 0.000000 -1.000000
vn 0.000000 0.000000 -1.000000
vn -0.000000 0.000000 -1.000000
vn -0.793156 0.140875 -0.592501
vn -0.793156 0.140875 -0.592501
vn -0.800386 0.024368 -0.598990
vn -0.800409 -0.011690 -0.599340
vn -0.000000 0.000000 -1.000000
vn 0.000000 0.000000 -1.000000
vn 0.000000 0.000000 -1.000000
vn -0.000000 0.000000 -1.000000
vn 0.902343 0.027639 -0.430131
vn 0.914569 0.043180 -0.402118
vn 0.914569 0.043180 -0.402118
vn 0.893024 0.016591 -0.449702
vn -0.000000 0.000000 -1.000000
vn 0.000000 0.000000 -1.000000
vn -0.000000 0.000000 -1.000000
vn -0.000000 0.000000 -1.000000
vn -0.000000 0.000000 -1.000000
vn -0.000000 0.000000 -1.000000
vn -0.000000 0.000000 -1.000000
vn -0.000000 0.000000 -1.000000
vn -0.000000 0.000000 -1.000000
vn -0.000000 0.000000 -1.000000
vn -0.000000 0.000000 -1.000000
vn 0.000000 0.000000 -1.000000
vn 0.000000 0.000000 -1.000000
vn 0.000000 0.000000 -1.000000
vn -0.000000 0.000000 -1.000000
vn -0.000000 0.000000 -1.000000
vn 0.000000 0.000000 -1.000000
vn -0.000000 0.000000 -1.000000
s off
f 32/40/1 11/2/2 10/3/3
f 5/5/4 8/6/5 7/7/6 6/8/7
f 4/9/8 9/28/9 8/6/10 5/5/11
f 31/39/12 32/40/13 10/3/14
f 1/11/15 13/12/16 12/13/17
f 1/11/18 12/13/19 11/2/20 2/1/21
f 1/11/22 2/1/23 15/14/24 14/15/25
f 2/1/26 3/4/27 16/16/28 15/14/29
f 3/4/30 35/43/31 36/44/32 16/16/33
f 4/9/34 5/5/35 18/18/36 17/17/37
f 5/5/38 6/8/39 19/19/40 18/18/41
f 6/8/42 7/7/43 20/20/44 19/19/45
f 7/7/46 8/6/47 21/21/48 20/20/49
f 8/6/50 9/28/51 22/27/52 21/21/53
f 33/41/54 34/42/55 31/39/56 10/3/57 23/23/58
f 10/3/59 11/2/60 24/24/61 23/23/62
f 11/2/63 12/13/64 25/25/65 24/24/66
f 12/13/67 13/12/68 26/26/69 25/25/70
f 13/12/71 1/11/72 14/15/73 26/26/74
f 27/36/75 30/34/76 29/33/77 28/32/78
f 3/4/79 28/38/80 29/37/81 35/43/82
f 2/1/83 28/38/84 3/4/85
f 9/10/86 34/42/87 33/41/88 22/22/89
f 35/43/90 34/42/91 9/10/92 4/30/93
f 36/44/94 35/43/95 4/30/96 17/29/97
f 27/31/98 11/2/99 32/40/100
f 2/1/101 11/2/102 27/31/103 28/38/104
f 35/43/105 29/37/106 30/35/107 34/42/108
f 31/39/109 30/35/110 27/31/111 32/40/112
f 34/42/113 30/35/114 31/39/115
f 55/45/116 46/47/117 47/46/118
f 41/48/119 42/51/120 43/50/121 44/49/122
f 40/52/123 41/48/124 44/49/125 45/53/126
f 54/54/127 46/47/128 55/45/129
f 37/55/130 48/57/131 49/56/132
f 37/55/133 38/58/134 47/46/135 48/57/136
f 37/55/137 14/60/138 15/59/139 38/58/140
f 38/58/141 15/59/142 16/62/143 39/61/144
f 39/61/145 16/62/146 36/64/147 57/63/148
f 40/52/149 17/66/150 18/65/151 41/48/152
f 41/48/153 18/65/154 19/67/155 42/51/156
f 42/51/157 19/67/158 20/68/159 43/50/160
f 43/50/161 20/68/162 21/69/163 44/49/164
f 44/49/165 21/69/166 22/70/167 45/53/168
f 33/71/169 23/73/170 46/47/171 54/54/172 56/72/173
f 46/47/174 23/73/175 24/74/176 47/46/177
f 47/46/178 24/74/179 25/75/180 48/57/181
f 48/57/182 25/75/183 26/76/184 49/56/185
f 49/56/186 26/76/187 14/60/188 37/55/189
f 50/77/190 51/80/191 52/79/192 53/78/193
f 39/61/194 57/63/195 52/82/196 51/81/197
f 38/58/198 39/61/199 51/81/200
f 45/83/201 22/84/202 33/71/203 56/72/204
f 57/63/205 40/85/206 45/83/207 56/72/208
f 36/64/209 17/86/210 40/85/211 57/63/212
f 50/87/213 55/45/214 47/46/215
f 38/58/216 51/81/217 50/87/218 47/46/219
f 57/63/220 56/72/221 53/88/222 52/82/223
f 54/54/224 55/45/225 50/87/226 53/88/227
f 56/72/228 54/54/229 53/88/230
