# This file uses centimeters as units for non-parametric coordinates.

v 2.519493 -19.226152 0.000000
v 11.617838 -18.170307 0.000000
v 17.364941 -9.932482 0.000000
v 17.758047 1.810605 0.000000
v 11.617836 11.681179 0.000000
v 2.519497 -17.075100 2.000000
v 10.751390 -15.800601 2.000000
v 16.244995 -8.493612 2.000000
v 16.244995 1.867764 2.000000
v 11.078978 10.479913 2.000000
v 2.519497 -11.890468 2.000000
v 9.190540 -11.191915 2.000000
v 12.120172 -6.421986 2.000000
v 12.513279 0.803423 2.000000
v 9.190538 6.878512 2.000000
v -1.537153 12.414631 0.000000
v -2.534161 11.252592 4.000000
v -2.362768 7.217083 4.000000
v -10.948740 -19.197525 0.000000
v -9.102171 -17.090712 2.000000
v -10.651021 -11.627686 2.000000
v 2.235750 -10.464003 -0.000000
v 7.876017 -10.166398 0.000000
v 10.870111 -5.894305 0.000000
v 11.393864 0.850740 0.000000
v 8.531195 5.891585 0.000000
v -1.537153 6.061788 -0.000000
v -12.211731 -10.230556 0.000000
v -1.566450 19.226152 -0.000000
v -2.784633 17.150036 4.000000
v -2.100444 1.040588 4.000000
v -1.507857 -2.153091 0.000000
v -13.773170 8.547951 4.000000
v -17.758047 7.959276 0.000000
v 2.519497 -17.075100 -2.000000
v 10.751390 -15.800601 -2.000000
v 16.244995 -8.493612 -2.000000
v 16.244995 1.867764 -2.000000
v 11.078978 10.479913 -2.000000
v 2.519497 -11.890468 -2.000000
v 9.190540 -11.191915 -2.000000
v 12.120172 -6.421986 -2.000000
v 12.513279 0.803423 -2.000000
v 9.190538 6.878512 -2.000000
v -2.534161 11.252592 -4.000000
v -2.362768 7.217083 -4.000000
v -9.102171 -17.090712 -2.000000
v -10.651021 -11.627686 -2.000000
v -2.784633 17.150036 -4.000000
v -2.100444 1.040588 -4.000000
v -13.773170 8.547951 -4.000000
vt 0.454974 0.972463
vt 0.460663 0.973072
vt 0.460121 0.974441
vt 0.454974 0.973705
vt 0.464256 0.977830
vt 0.463556 0.978661
vt 0.464502 0.984611
vt 0.463556 0.984644
vt 0.460663 0.990312
vt 0.460326 0.989618
vt 0.452438 0.990735
vt 0.451814 0.990064
vt 0.459145 0.977102
vt 0.454974 0.976699
vt 0.460977 0.979857
vt 0.461223 0.984030
vt 0.459145 0.987538
vt 0.451921 0.987734
vt 0.447708 0.973696
vt 0.446553 0.972479
vt 0.446739 0.976851
vt 0.458323 0.977695
vt 0.454797 0.977523
vt 0.460195 0.980162
vt 0.460523 0.984057
vt 0.458733 0.986968
vt 0.452438 0.987066
vt 0.445763 0.977658
vt 0.452419 0.994669
vt 0.451658 0.993470
vt 0.444787 0.988502
vt 0.442296 0.988162
vt 0.452085 0.984167
vt 0.452456 0.982322
vt 0.454974 0.972463
vt 0.460663 0.973072
vt 0.460121 0.974441
vt 0.454974 0.973705
vt 0.464256 0.977830
vt 0.463556 0.978661
vt 0.464502 0.984611
vt 0.463556 0.984644
vt 0.460663 0.990312
vt 0.460326 0.989618
vt 0.452438 0.990735
vt 0.451814 0.990064
vt 0.459145 0.977102
vt 0.454974 0.976699
vt 0.460977 0.979857
vt 0.461223 0.984030
vt 0.459145 0.987538
vt 0.451921 0.987734
vt 0.447708 0.973696
vt 0.446553 0.972479
vt 0.446739 0.976851
vt 0.458323 0.977695
vt 0.454797 0.977523
vt 0.460195 0.980162
vt 0.460523 0.984057
vt 0.458733 0.986968
vt 0.452438 0.987066
vt 0.445763 0.977658
vt 0.452419 0.994669
vt 0.451658 0.993470
vt 0.444787 0.988502
vt 0.442296 0.988162
vt 0.452085 0.984167
vt 0.452456 0.982322
vn 0.087492 -0.650656 0.754316
vn 0.087492 -0.650656 0.754316
vn 0.087492 -0.650656 0.754316
vn 0.087492 -0.650656 0.754316
vn 0.584468 -0.422638 0.692658
vn 0.584467 -0.422638 0.692658
vn 0.584468 -0.422638 0.692658
vn 0.584468 -0.422638 0.692658
vn 0.832637 -0.014808 0.553621
vn 0.832637 -0.014808 0.553621
vn 0.832637 -0.014808 0.553621
vn 0.832637 -0.014808 0.553621
vn 0.735718 0.450053 0.506134
vn 0.735718 0.450053 0.506134
vn 0.735718 0.450053 0.506134
vn 0.735718 0.450053 0.506134
vn 0.080397 0.920226 0.383042
vn 0.080397 0.920226 0.383042
vn 0.080397 0.920226 0.383042
vn 0.080397 0.920226 0.383042
vn 0.000000 0.000000 1.000000
vn 0.000000 0.000000 1.000000
vn 0.000000 0.000000 1.000000
vn 0.000000 0.000000 1.000000
vn 0.000000 0.000000 1.000000
vn 0.000000 0.000000 1.000000
vn 0.000000 0.000000 1.000000
vn 0.000000 0.000000 1.000000
vn 0.000000 0.000000 1.000000
vn 0.000000 0.000000 1.000000
vn 0.000000 0.000000 1.000000
vn 0.000000 0.000000 1.000000
vn 0.000000 0.000000 1.000000
vn 0.000000 0.000000 1.000000
vn 0.000000 0.000000 1.000000
vn 0.000000 0.000000 1.000000
vn 0.155371 -0.034933 0.987238
vn 0.155371 -0.034933 0.987238
vn 0.155371 -0.034933 0.987238
vn 0.155371 -0.034933 0.987238
vn -0.000355 -0.684610 0.728909
vn -0.000355 -0.684610 0.728909
vn -0.000355 -0.684610 0.728909
vn -0.000355 -0.684610 0.728909
vn 0.000000 0.000000 1.000000
vn 0.000000 0.000000 1.000000
vn 0.000000 0.000000 1.000000
vn 0.000000 0.000000 1.000000
vn -0.067830 0.838299 0.540975
vn -0.067830 0.838299 0.540975
vn -0.067830 0.838299 0.540975
vn -0.067830 0.838299 0.540976
vn -0.669473 0.438594 0.599535
vn -0.669472 0.438594 0.599535
vn -0.669473 0.438594 0.599535
vn -0.669472 0.438594 0.599535
vn -0.855459 0.056142 0.514818
vn -0.855459 0.056142 0.514818
vn -0.855459 0.056142 0.514818
vn -0.855459 0.056142 0.514818
vn -0.780698 -0.434416 0.449214
vn -0.780698 -0.434416 0.449214
vn -0.780698 -0.434416 0.449214
vn -0.780698 -0.434416 0.449214
vn 0.008964 -0.941657 0.336455
vn 0.008964 -0.941657 0.336455
vn 0.008964 -0.941657 0.336455
vn 0.008964 -0.941657 0.336455
vn 0.014735 0.820061 0.572086
vn 0.014735 0.820061 0.572086
vn 0.014735 0.820061 0.572086
vn 0.014735 0.820061 0.572086
vn 0.961285 0.021161 0.274744
vn 0.961285 0.021161 0.274744
vn 0.961285 0.021161 0.274744
vn 0.961285 0.021161 0.274744
vn 0.000000 0.000000 1.000000
vn 0.000000 0.000000 1.000000
vn 0.000000 0.000000 1.000000
vn -0.556280 0.760975 0.333870
vn -0.556280 0.760975 0.333870
vn -0.556280 0.760975 0.333870
vn -0.556280 0.760975 0.333870
vn -0.452305 -0.716791 0.530688
vn -0.452305 -0.716791 0.530688
vn -0.452305 -0.716791 0.530689
vn -0.452305 -0.716791 0.530688
vn -0.740505 -0.144295 0.656378
vn -0.740505 -0.144295 0.656378
vn -0.740505 -0.144295 0.656378
vn -0.740505 -0.144295 0.656378
vn 0.000000 0.000000 1.000000
vn 0.000000 0.000000 1.000000
vn 0.000000 0.000000 1.000000
vn 0.986262 0.019985 0.163976
vn 0.999795 0.020259 0.000000
vn 0.999795 0.020259 0.000000
vn 0.986262 0.019985 0.163976
vn 0.000000 0.000000 1.000000
vn 0.000000 0.000000 1.000000
vn 0.000000 0.000000 1.000000
vn 0.087492 -0.650656 -0.754316
vn 0.087492 -0.650656 -0.754316
vn 0.087492 -0.650656 -0.754316
vn 0.087492 -0.650656 -0.754316
vn 0.584468 -0.422638 -0.692658
vn 0.584468 -0.422638 -0.692658
vn 0.584468 -0.422638 -0.692658
vn 0.584468 -0.422638 -0.692658
vn 0.832637 -0.014808 -0.553621
vn 0.832637 -0.014808 -0.553621
vn 0.832637 -0.014808 -0.553621
vn 0.832637 -0.014808 -0.553621
vn 0.735718 0.450053 -0.506134
vn 0.735718 0.450053 -0.506134
vn 0.735718 0.450053 -0.506134
vn 0.735718 0.450053 -0.506134
vn 0.080397 0.920226 -0.383042
vn 0.080397 0.920226 -0.383042
vn 0.080397 0.920226 -0.383042
vn 0.080397 0.920226 -0.383042
vn 0.000000 0.000000 -1.000000
vn 0.000000 0.000000 -1.000000
vn 0.000000 0.000000 -1.000000
vn 0.000000 0.000000 -1.000000
vn 0.000000 0.000000 -1.000000
vn 0.000000 0.000000 -1.000000
vn 0.000000 0.000000 -1.000000
vn 0.000000 0.000000 -1.000000
vn -0.000000 0.000000 -1.000000
vn -0.000000 0.000000 -1.000000
vn -0.000000 0.000000 -1.000000
vn -0.000000 0.000000 -1.000000
vn 0.000000 0.000000 -1.000000
vn 0.000000 0.000000 -1.000000
vn 0.000000 0.000000 -1.000000
vn 0.000000 0.000000 -1.000000
vn 0.155371 -0.034933 -0.987238
vn 0.155371 -0.034933 -0.987238
vn 0.155371 -0.034933 -0.987238
vn 0.155371 -0.034933 -0.987238
vn -0.000355 -0.684610 -0.728909
vn -0.000355 -0.684610 -0.728909
vn -0.000355 -0.684610 -0.728909
vn -0.000355 -0.684610 -0.728909
vn 0.000000 0.000000 -1.000000
vn 0.000000 0.000000 -1.000000
vn 0.000000 0.000000 -1.000000
vn 0.000000 0.000000 -1.000000
vn -0.067830 0.838299 -0.540975
vn -0.067830 0.838299 -0.540975
vn -0.067830 0.838299 -0.540975
vn -0.067830 0.838299 -0.540975
vn -0.669473 0.438594 -0.599535
vn -0.669472 0.438594 -0.599535
vn -0.669473 0.438594 -0.599535
vn -0.669472 0.438594 -0.599535
vn -0.855459 0.056142 -0.514818
vn -0.855459 0.056142 -0.514818
vn -0.855459 0.056142 -0.514818
vn -0.855459 0.056142 -0.514818
vn -0.780698 -0.434416 -0.449214
vn -0.780698 -0.434416 -0.449214
vn -0.780698 -0.434416 -0.449214
vn -0.780698 -0.434416 -0.449214
vn 0.008964 -0.941657 -0.336455
vn 0.008964 -0.941657 -0.336455
vn 0.008964 -0.941657 -0.336455
vn 0.008964 -0.941657 -0.336455
vn 0.014735 0.820061 -0.572086
vn 0.014735 0.820061 -0.572086
vn 0.014735 0.820061 -0.572086
vn 0.014735 0.820061 -0.572086
vn 0.961285 0.021161 -0.274744
vn 0.961285 0.021161 -0.274744
vn 0.961285 0.021161 -0.274744
vn 0.961285 0.021161 -0.274744
vn 0.000000 0.000000 -1.000000
vn 0.000000 0.000000 -1.000000
vn 0.000000 0.000000 -1.000000
vn -0.556280 0.760975 -0.333870
vn -0.556280 0.760975 -0.333870
vn -0.556280 0.760975 -0.333870
vn -0.556280 0.760975 -0.333870
vn -0.452305 -0.716791 -0.530689
vn -0.452305 -0.716791 -0.530689
vn -0.452305 -0.716791 -0.530689
vn -0.452305 -0.716791 -0.530689
vn -0.740505 -0.144295 -0.656378
vn -0.740505 -0.144295 -0.656378
vn -0.740505 -0.144295 -0.656378
vn -0.740505 -0.144295 -0.656378
vn 0.000000 0.000000 -1.000000
vn 0.000000 0.000000 -1.000000
vn 0.000000 0.000000 -1.000000
vn 0.986262 0.019985 -0.163976
vn 0.986262 0.019985 -0.163976
vn 0.999795 0.020259 0.000000
vn 0.999795 0.020259 0.000000
vn 0.000000 0.000000 -1.000000
vn 0.000000 0.000000 -1.000000
vn 0.000000 0.000000 -1.000000
s off
f 1/1/1 2/2/2 7/3/3 6/4/4
f 2/2/5 3/5/6 8/6/7 7/3/8
f 3/5/9 4/7/10 9/8/11 8/6/12
f 4/7/13 5/9/14 10/10/15 9/8/16
f 10/10/17 5/9/18 16/11/19 17/12/20
f 6/4/21 7/3/22 12/13/23 11/14/24
f 7/3/25 8/6/26 13/15/27 12/13/28
f 8/6/29 9/8/30 14/16/31 13/15/32
f 9/8/33 10/10/34 15/17/35 14/16/36
f 15/17/37 10/10/38 17/12/39 18/18/40
f 1/1/41 6/4/42 20/19/43 19/20/44
f 6/4/45 11/14/46 21/21/47 20/19/48
f 11/14/49 12/13/50 23/22/51 22/23/52
f 12/13/53 13/15/54 24/24/55 23/22/56
f 13/15/57 14/16/58 25/25/59 24/24/60
f 14/16/61 15/17/62 26/26/63 25/25/64
f 27/27/65 26/26/66 15/17/67 18/18/68
f 21/21/69 11/14/70 22/23/71 28/28/72
f 17/12/73 16/11/74 29/29/75 30/30/76
f 33/31/77 17/12/78 30/30/79
f 33/31/80 30/30/81 29/29/82 34/32/83
f 31/33/84 33/31/85 34/32/86 32/34/87
f 19/20/88 20/19/89 21/21/90 28/28/91
f 31/33/92 18/18/93 33/31/94
f 31/33/95 32/34/96 27/27/97 18/18/98
f 33/31/99 18/18/100 17/12/101
f 1/35/102 35/38/103 36/37/104 2/36/105
f 2/36/106 36/37/107 37/40/108 3/39/109
f 3/39/110 37/40/111 38/42/112 4/41/113
f 4/41/114 38/42/115 39/44/116 5/43/117
f 39/44/118 45/46/119 16/45/120 5/43/121
f 35/38/122 40/48/123 41/47/124 36/37/125
f 36/37/126 41/47/127 42/49/128 37/40/129
f 37/40/130 42/49/131 43/50/132 38/42/133
f 38/42/134 43/50/135 44/51/136 39/44/137
f 44/51/138 46/52/139 45/46/140 39/44/141
f 1/35/142 19/54/143 47/53/144 35/38/145
f 35/38/146 47/53/147 48/55/148 40/48/149
f 40/48/150 22/57/151 23/56/152 41/47/153
f 41/47/154 23/56/155 24/58/156 42/49/157
f 42/49/158 24/58/159 25/59/160 43/50/161
f 43/50/162 25/59/163 26/60/164 44/51/165
f 27/61/166 46/52/167 44/51/168 26/60/169
f 48/55/170 28/62/171 22/57/172 40/48/173
f 45/46/174 49/64/175 29/63/176 16/45/177
f 51/65/178 49/64/179 45/46/180
f 51/65/181 34/66/182 29/63/183 49/64/184
f 50/67/185 32/68/186 34/66/187 51/65/188
f 19/54/189 28/62/190 48/55/191 47/53/192
f 50/67/193 51/65/194 46/52/195
f 50/67/196 46/52/197 27/61/198 32/68/199
f 51/65/200 45/46/201 46/52/202
