# This file uses centimeters as units for non-parametric coordinates.

v 18.956070 -0.000000 0.000000
v -19.517883 -6.949840 0.000000
v 0.007317 -14.827574 0.000000
v 0.007317 -6.949840 0.000000
v -19.517883 6.949840 0.000000
v 0.007317 14.827574 0.000000
v 0.007317 6.949840 0.000000
v 1.810783 -5.538642 -4.000000
v 1.810783 5.538642 -4.000000
v -17.656364 5.538642 -4.000000
v -17.656364 -5.538642 -4.000000
v 16.833168 -0.000000 -4.000000
v 1.810780 -11.816766 -4.000000
v 1.810780 11.816766 -4.000000
v 1.810783 -5.538642 4.000000
v 1.810783 5.538642 4.000000
v -17.656364 5.538642 4.000000
v -17.656364 -5.538642 4.000000
v 16.833168 -0.000000 4.000000
v 1.810780 -11.816766 4.000000
v 1.675535 11.142934 4.000000
vt 0.484855 0.983223
vt 0.484125 0.983222
vt 0.484127 0.983635
vt 0.484852 0.983638
vt 0.485423 0.983433
vt 0.484857 0.982985
vt 0.484850 0.983872
vt 0.484787 0.983704
vt 0.484042 0.983700
vt 0.484039 0.983169
vt 0.484791 0.983169
vt 0.484793 0.982862
vt 0.485526 0.983439
vt 0.484785 0.984003
vt 0.484865 0.983225
vt 0.484862 0.983663
vt 0.484097 0.983659
vt 0.484095 0.983224
vt 0.485464 0.983446
vt 0.484867 0.982974
vt 0.484860 0.983909
vn 0.000000 0.000000 -1.000000
vn 0.000000 0.000000 -1.000000
vn 0.000000 0.000000 -1.000000
vn 0.000000 0.000000 -1.000000
vn 0.000000 0.000000 -1.000000
vn 0.000000 0.000000 -1.000000
vn 0.000000 0.000000 -1.000000
vn 0.000000 0.000000 -1.000000
vn 0.000000 0.000000 -1.000000
vn 0.000000 0.000000 -1.000000
vn 0.000000 0.000000 -1.000000
vn 0.000000 0.000000 -1.000000
vn 0.000000 0.000000 -1.000000
vn 0.000000 0.943032 -0.332701
vn 0.000000 0.943032 -0.332701
vn 0.000000 0.943032 -0.332701
vn 0.000000 0.943032 -0.332701
vn -0.906630 0.000000 -0.421927
vn -0.906630 0.000000 -0.421927
vn -0.906630 0.000000 -0.421927
vn -0.906630 0.000000 -0.421927
vn 0.000000 -0.943032 -0.332701
vn 0.000000 -0.943032 -0.332701
vn 0.000000 -0.943032 -0.332701
vn 0.000000 -0.943032 -0.332701
vn -0.911626 0.000000 -0.411021
vn -0.911626 0.000000 -0.411021
vn -0.911626 0.000000 -0.411021
vn -0.911626 0.000000 -0.411021
vn 0.587651 -0.749246 -0.305445
vn 0.587651 -0.749246 -0.305444
vn 0.587651 -0.749246 -0.305445
vn 0.587651 -0.749246 -0.305444
vn 0.587651 0.749246 -0.305444
vn 0.587651 0.749246 -0.305445
vn 0.587651 0.749246 -0.305444
vn 0.587651 0.749246 -0.305445
vn -0.911626 -0.000000 -0.411021
vn -0.911626 -0.000000 -0.411021
vn -0.911626 -0.000000 -0.411021
vn -0.911626 -0.000000 -0.411021
vn 0.000000 0.000000 1.000000
vn 0.000000 0.000000 1.000000
vn 0.000000 0.000000 1.000000
vn 0.000000 0.000000 1.000000
vn 0.000000 0.000000 1.000000
vn 0.000000 0.000000 1.000000
vn 0.000000 0.000000 1.000000
vn 0.000000 0.000000 1.000000
vn 0.000000 0.000000 1.000000
vn 0.000000 0.000000 1.000000
vn 0.000000 0.000000 1.000000
vn 0.000000 0.000000 1.000000
vn 0.000000 0.000000 1.000000
vn 0.000000 0.943032 0.332701
vn 0.000000 0.943032 0.332701
vn 0.000000 0.943032 0.332701
vn 0.000000 0.943032 0.332701
vn -0.906630 0.000000 0.421927
vn -0.906630 0.000000 0.421927
vn -0.906630 0.000000 0.421927
vn -0.906630 0.000000 0.421927
vn 0.000000 -0.943032 0.332701
vn 0.000000 -0.943032 0.332701
vn 0.000000 -0.943032 0.332701
vn 0.000000 -0.943032 0.332701
vn -0.911626 0.000000 0.411021
vn -0.911626 0.000000 0.411021
vn -0.911626 0.000000 0.411021
vn -0.911626 0.000000 0.411021
vn 0.587651 -0.749246 0.305444
vn 0.587651 -0.749246 0.305444
vn 0.587651 -0.749246 0.305444
vn 0.587651 -0.749246 0.305444
vn 0.562318 0.738478 0.372088
vn 0.562318 0.738478 0.372088
vn 0.562318 0.738478 0.372088
vn 0.562318 0.738478 0.372088
vn -0.919439 -0.009224 0.393125
vn -0.919439 -0.009224 0.393125
vn -0.919439 -0.009224 0.393125
vn -0.919439 -0.009224 0.393125
s off
f 8/1/1 11/2/2 10/3/3 9/4/4
f 12/5/5 13/6/6 8/1/7
f 12/5/8 9/4/9 14/7/10
f 12/5/11 8/1/12 9/4/13
f 7/8/14 9/4/15 10/3/16 5/9/17
f 5/9/18 10/3/19 11/2/20 2/10/21
f 2/10/22 11/2/23 8/1/24 4/11/25
f 4/11/26 8/1/27 13/6/28 3/12/29
f 3/12/30 13/6/31 12/5/32 1/13/33
f 1/13/34 12/5/35 14/7/36 6/14/37
f 6/14/38 14/7/39 9/4/40 7/8/41
f 15/15/42 16/16/43 17/17/44 18/18/45
f 19/19/46 15/15/47 20/20/48
f 19/19/49 21/21/50 16/16/51
f 19/19/52 16/16/53 15/15/54
f 7/8/55 5/9/56 17/17/57 16/16/58
f 5/9/59 2/10/60 18/18/61 17/17/62
f 2/10/63 4/11/64 15/15/65 18/18/66
f 4/11/67 3/12/68 20/20/69 15/15/70
f 3/12/71 1/13/72 19/19/73 20/20/74
f 1/13/75 6/14/76 21/21/77 19/19/78
f 6/14/79 7/8/80 16/16/81 21/21/82
