# This file uses centimeters as units for non-parametric coordinates.

v 9.696754 18.277618 0.000000
v -0.841774 18.277618 0.000000
v -12.346748 -2.918485 0.000000
v -12.346748 -11.365884 -0.000000
v -0.246750 -11.365884 0.000000
v -0.246750 -19.415884 0.000000
v 9.696754 -19.415884 0.000000
v 9.696754 -11.365884 0.000000
v 12.346756 -11.365884 0.000000
v 12.346756 -2.172382 0.000000
v 9.696754 -2.172382 0.000000
v -0.258247 1.621992 0.000000
v -0.258247 -2.150007 0.000000
v -2.196930 -2.150007 0.000000
v 7.622999 16.136225 4.000000
v 0.691915 15.827155 4.000000
v -10.168778 -3.581243 4.000000
v -10.492081 -9.108897 4.000000
v 2.088995 -9.762723 4.000000
v 2.022487 -17.487547 4.000000
v 7.554943 -17.031628 4.000000
v 8.050941 -8.943797 4.000000
v 10.029705 -9.480750 4.000000
v 10.449835 -3.846861 4.000000
v 7.827431 -4.176119 4.000000
v 1.996093 9.547699 4.000000
v 1.441320 -4.190286 4.000000
v -5.762083 -4.373769 4.000000
v 7.381214 16.445417 -4.000000
v -0.138612 16.061420 -4.000000
v -10.652281 -3.775994 -4.000000
v -10.368836 -8.870644 -4.000000
v 1.741948 -9.407723 -4.000000
v 1.505166 -17.331478 -4.000000
v 7.433591 -17.559523 -4.000000
v 7.346181 -9.394818 -4.000000
v 10.504351 -9.776362 -4.000000
v 10.621161 -4.225467 -4.000000
v 7.949503 -3.909509 -4.000000
v 1.366450 9.617939 -4.000000
v 2.024432 -4.044644 -4.000000
v -5.197531 -4.190426 -4.000000
vt 0.014630 0.949409
vt 0.014979 0.949465
vt 0.014903 0.949597
vt 0.014658 0.949556
vt 0.015333 0.950071
vt 0.015241 0.950158
vt 0.015320 0.950262
vt 0.015234 0.950292
vt 0.014958 0.950194
vt 0.014866 0.950223
vt 0.014958 0.950364
vt 0.014868 0.950396
vt 0.014676 0.950310
vt 0.014696 0.950362
vt 0.014667 0.950139
vt 0.014688 0.950189
vt 0.014590 0.950125
vt 0.014609 0.950174
vt 0.014577 0.949917
vt 0.014602 0.950057
vt 0.014656 0.949931
vt 0.014682 0.950072
vt 0.014959 0.949895
vt 0.014959 0.949985
vt 0.014864 0.950105
vt 0.014859 0.949760
vt 0.015018 0.949996
vt 0.015088 0.950146
vt 0.014736 0.949395
vt 0.014974 0.949434
vt 0.015297 0.949988
vt 0.015289 0.950123
vt 0.014931 0.950058
vt 0.014931 0.950230
vt 0.014764 0.950199
vt 0.014758 0.950026
vt 0.014681 0.950012
vt 0.014676 0.949895
vt 0.014754 0.949908
vt 0.014929 0.949597
vt 0.014931 0.949940
vt 0.015148 0.949978
vn -0.015350 0.867632 0.496970
vn -0.015350 0.867632 0.496970
vn -0.015350 0.867632 0.496970
vn -0.015350 0.867632 0.496970
vn -0.753029 0.414782 0.510787
vn -0.753029 0.414782 0.510787
vn -0.753029 0.414782 0.510787
vn -0.753029 0.414782 0.510787
vn -0.894425 0.020692 0.446738
vn -0.894425 0.020692 0.446738
vn -0.894425 0.020692 0.446738
vn -0.894425 0.020692 0.446738
vn -0.023722 -0.895463 0.444503
vn -0.023722 -0.895463 0.444503
vn -0.023722 -0.895463 0.444503
vn -0.023722 -0.895463 0.444503
vn -0.867364 0.003657 0.497660
vn -0.867364 0.003657 0.497660
vn -0.867364 0.003657 0.497660
vn -0.867364 0.003657 0.497660
vn 0.025928 -0.880122 0.474038
vn 0.025928 -0.880122 0.474038
vn 0.025928 -0.880122 0.474038
vn 0.025928 -0.880122 0.474038
vn 0.896968 -0.027568 0.441235
vn 0.896968 -0.027568 0.441235
vn 0.896968 -0.027568 0.441235
vn 0.896968 -0.027568 0.441235
vn -0.103975 -0.896308 0.431070
vn -0.103975 -0.896308 0.431070
vn -0.103975 -0.896308 0.431070
vn -0.103975 -0.896308 0.431070
vn 0.884211 -0.025054 0.466415
vn 0.884211 -0.025054 0.466415
vn 0.884211 -0.025054 0.466415
vn 0.884211 -0.025054 0.466415
vn -0.057268 0.917036 0.394671
vn -0.057268 0.917036 0.394671
vn -0.057268 0.917036 0.394671
vn -0.057268 0.917036 0.394671
vn 0.896031 0.004494 0.443969
vn 0.896031 0.004494 0.443969
vn 0.896031 0.004494 0.443969
vn 0.896031 0.004494 0.443969
vn -0.904328 0.028652 0.425875
vn -0.904328 0.028652 0.425875
vn -0.904328 0.028652 0.425875
vn -0.904328 0.028652 0.425875
vn -0.017743 0.884046 0.467063
vn -0.017743 0.884046 0.467063
vn -0.017743 0.884046 0.467063
vn -0.017743 0.884046 0.467063
vn 0.788652 -0.432218 0.437283
vn 0.788652 -0.432218 0.437283
vn 0.788652 -0.432218 0.437283
vn 0.788652 -0.432218 0.437283
vn 0.000000 0.000000 1.000000
vn 0.000000 0.000000 1.000000
vn 0.000000 0.000000 1.000000
vn 0.000000 0.000000 1.000000
vn 0.000000 0.000000 1.000000
vn 0.000000 0.000000 1.000000
vn 0.000000 0.000000 1.000000
vn 0.000000 0.000000 1.000000
vn 0.000000 0.000000 1.000000
vn 0.000000 0.000000 1.000000
vn 0.000000 0.000000 1.000000
vn 0.000000 0.000000 1.000000
vn 0.000000 0.000000 1.000000
vn 0.000000 0.000000 1.000000
vn 0.000000 0.000000 1.000000
vn 0.000000 0.000000 1.000000
vn 0.000000 0.000000 1.000000
vn 0.000000 0.000000 1.000000
vn 0.000000 0.000000 1.000000
vn 0.000000 0.000000 1.000000
vn 0.000000 0.000000 1.000000
vn 0.000000 0.000000 1.000000
vn 0.000000 0.000000 1.000000
vn 0.000000 0.000000 1.000000
vn 0.000000 0.000000 1.000000
vn 0.000000 0.000000 1.000000
vn 0.000000 0.000000 1.000000
vn 0.000000 0.000000 1.000000
vn 0.000000 0.000000 1.000000
vn 0.000000 0.000000 1.000000
vn -0.019002 0.893634 -0.448394
vn -0.019002 0.893634 -0.448394
vn -0.019002 0.893634 -0.448394
vn -0.019002 0.893634 -0.448394
vn -0.804818 0.431866 -0.407136
vn -0.804818 0.431866 -0.407136
vn -0.804818 0.431866 -0.407136
vn -0.804818 0.431866 -0.407136
vn -0.907176 -0.018988 -0.420324
vn -0.907176 -0.018988 -0.420324
vn -0.907176 -0.018988 -0.420324
vn -0.907176 -0.018988 -0.420324
vn -0.019288 -0.869484 -0.493584
vn -0.019288 -0.869484 -0.493584
vn -0.019288 -0.869484 -0.493584
vn -0.019288 -0.869484 -0.493584
vn -0.908378 0.013465 -0.417932
vn -0.908378 0.013465 -0.417932
vn -0.908378 0.013465 -0.417932
vn -0.908378 0.013465 -0.417932
vn -0.012893 -0.897320 -0.441192
vn -0.012893 -0.897320 -0.441192
vn -0.012893 -0.897320 -0.441192
vn -0.012893 -0.897320 -0.441192
vn 0.867220 0.004675 -0.497904
vn 0.867220 0.004675 -0.497904
vn 0.867220 0.004675 -0.497904
vn 0.867220 0.004675 -0.497904
vn -0.060655 -0.923340 -0.379163
vn -0.060655 -0.923340 -0.379163
vn -0.060655 -0.923340 -0.379163
vn -0.060655 -0.923340 -0.379163
vn 0.913416 -0.007236 -0.406964
vn 0.913416 -0.007236 -0.406964
vn 0.913416 -0.007236 -0.406964
vn 0.913416 -0.007236 -0.406964
vn 0.053039 0.893329 -0.446263
vn 0.053039 0.893329 -0.446263
vn 0.053039 0.893329 -0.446263
vn 0.053039 0.893329 -0.446263
vn 0.889300 0.012385 -0.457156
vn 0.889300 0.012385 -0.457156
vn 0.889300 0.012385 -0.457156
vn 0.889300 0.012385 -0.457156
vn -0.887732 -0.033503 -0.459140
vn -0.887732 -0.033503 -0.459140
vn -0.887732 -0.033503 -0.459140
vn -0.887732 -0.033503 -0.459140
vn -0.014287 0.897738 -0.440299
vn -0.014287 0.897738 -0.440299
vn -0.014287 0.897738 -0.440299
vn -0.014287 0.897738 -0.440299
vn 0.811916 -0.392679 -0.431967
vn 0.811916 -0.392679 -0.431967
vn 0.811916 -0.392679 -0.431967
vn 0.811916 -0.392679 -0.431967
vn 0.000000 0.000000 -1.000000
vn 0.000000 0.000000 -1.000000
vn 0.000000 0.000000 -1.000000
vn 0.000000 0.000000 -1.000000
vn 0.000000 0.000000 -1.000000
vn 0.000000 0.000000 -1.000000
vn 0.000000 0.000000 -1.000000
vn 0.000000 0.000000 -1.000000
vn 0.000000 0.000000 -1.000000
vn 0.000000 0.000000 -1.000000
vn 0.000000 0.000000 -1.000000
vn 0.000000 0.000000 -1.000000
vn 0.000000 0.000000 -1.000000
vn 0.000000 0.000000 -1.000000
vn 0.000000 0.000000 -1.000000
vn 0.000000 0.000000 -1.000000
vn 0.000000 0.000000 -1.000000
vn 0.000000 0.000000 -1.000000
vn 0.000000 0.000000 -1.000000
vn 0.000000 0.000000 -1.000000
vn 0.000000 0.000000 -1.000000
vn 0.000000 0.000000 -1.000000
vn 0.000000 0.000000 -1.000000
vn 0.000000 0.000000 -1.000000
vn 0.000000 0.000000 -1.000000
vn 0.000000 0.000000 -1.000000
vn 0.000000 0.000000 -1.000000
vn 0.000000 0.000000 -1.000000
vn 0.000000 0.000000 -1.000000
vn 0.000000 0.000000 -1.000000
s off
f 1/1/1 2/2/2 16/3/3 15/4/4
f 2/2/5 3/5/6 17/6/7 16/3/8
f 3/5/9 4/7/10 18/8/11 17/6/12
f 4/7/13 5/9/14 19/10/15 18/8/16
f 5/9/17 6/11/18 20/12/19 19/10/20
f 6/11/21 7/13/22 21/14/23 20/12/24
f 7/13/25 8/15/26 22/16/27 21/14/28
f 8/15/29 9/17/30 23/18/31 22/16/32
f 9/17/33 10/19/34 24/20/35 23/18/36
f 10/19/37 11/21/38 25/22/39 24/20/40
f 11/21/41 1/1/42 15/4/43 25/22/44
f 12/23/45 13/24/46 27/25/47 26/26/48
f 13/24/49 14/27/50 28/28/51 27/25/52
f 14/27/53 12/23/54 26/26/55 28/28/56
f 22/16/57 23/18/58 24/20/59 25/22/60
f 19/10/61 20/12/62 21/14/63 22/16/64
f 25/22/65 15/4/66 16/3/67 26/26/68
f 26/26/69 27/25/70 25/22/71
f 26/26/72 16/3/73 17/6/74 28/28/75
f 17/6/76 18/8/77 28/28/78
f 28/28/79 18/8/80 19/10/81 27/25/82
f 25/22/83 27/25/84 19/10/85 22/16/86
f 1/1/87 29/29/88 30/30/89 2/2/90
f 2/2/91 30/30/92 31/31/93 3/5/94
f 3/5/95 31/31/96 32/32/97 4/7/98
f 4/7/99 32/32/100 33/33/101 5/9/102
f 5/9/103 33/33/104 34/34/105 6/11/106
f 6/11/107 34/34/108 35/35/109 7/13/110
f 7/13/111 35/35/112 36/36/113 8/15/114
f 8/15/115 36/36/116 37/37/117 9/17/118
f 9/17/119 37/37/120 38/38/121 10/19/122
f 10/19/123 38/38/124 39/39/125 11/21/126
f 11/21/127 39/39/128 29/29/129 1/1/130
f 12/23/131 40/40/132 41/41/133 13/24/134
f 13/24/135 41/41/136 42/42/137 14/27/138
f 14/27/139 42/42/140 40/40/141 12/23/142
f 38/38/143 37/37/144 36/36/145 39/39/146
f 36/36/147 35/35/148 34/34/149 33/33/150
f 30/30/151 29/29/152 39/39/153 40/40/154
f 40/40/155 39/39/156 41/41/157
f 31/31/158 30/30/159 40/40/160 42/42/161
f 41/41/162 39/39/163 36/36/164 33/33/165
f 31/31/166 42/42/167 32/32/168
f 33/33/169 32/32/170 42/42/171 41/41/172
