# This file uses centimeters as units for non-parametric coordinates.

v -3.855255 18.008774 4.000000
v -10.312408 18.008774 4.000000
v -10.312408 -18.008774 4.000000
v -3.855255 -18.008774 4.000000
v -3.376404 -3.574272 4.000000
v 3.376404 -3.574272 4.000000
v 3.855255 -18.008774 4.000000
v 9.734741 -18.008774 4.000000
v 10.312408 18.008774 4.000000
v 3.855255 18.008774 4.000000
v 3.376434 2.775314 4.000000
v -3.376404 2.775345 4.000000
v -11.314697 19.011047 0.000000
v -2.852966 19.011047 -0.000000
v -11.314697 -19.011047 0.000000
v -2.852966 -19.011047 -0.000000
v -2.852966 -4.097702 -0.000000
v 2.852966 -4.097702 0.000000
v 2.852966 -19.011047 -0.000000
v 11.314697 -19.011047 0.000000
v 11.314697 19.011047 -0.000000
v 2.852966 19.011047 0.000000
v 2.852966 3.298767 0.000000
v -2.852966 3.298767 -0.000000
v -9.372818 7.164360 4.000000
v -11.314697 6.337296 0.000000
v 10.312408 -5.496559 4.000000
v 11.314697 -7.222031 0.000000
v -3.855255 18.008774 -4.000000
v -10.312408 18.008774 -4.000000
v -10.312408 -18.008774 -4.000000
v -3.855255 -18.008774 -4.000000
v -3.376404 -3.574272 -4.000000
v 3.376404 -3.574272 -4.000000
v 3.855255 -18.008774 -4.000000
v 9.734741 -18.008774 -4.000000
v 10.312408 18.008774 -4.000000
v 3.855255 18.008774 -4.000000
v 3.376434 2.775314 -4.000000
v -3.376404 2.775345 -4.000000
v -9.372818 7.164360 -4.000000
v 10.312408 -5.496559 -4.000000
vt 0.013680 0.951836
vt 0.013622 0.951788
vt 0.013660 0.952218
vt 0.013604 0.952167
vt 0.013611 0.952019
vt 0.013574 0.951986
vt 0.013567 0.952133
vt 0.013512 0.952084
vt 0.013529 0.951708
vt 0.013584 0.951755
vt 0.013577 0.951913
vt 0.013615 0.951946
vt 0.013707 0.951828
vt 0.013649 0.951779
vt 0.013687 0.952209
vt 0.013631 0.952158
vt 0.013638 0.952011
vt 0.013600 0.951978
vt 0.013593 0.952125
vt 0.013538 0.952075
vt 0.013556 0.951700
vt 0.013611 0.951747
vt 0.013604 0.951904
vt 0.013642 0.951937
vt 0.013674 0.951951
vt 0.013700 0.951955
vt 0.013518 0.951953
vt 0.013544 0.951959
vt 0.013615 0.951946
vt 0.013674 0.951951
vt 0.013660 0.952218
vt 0.013604 0.952167
vt 0.013611 0.952019
vt 0.013574 0.951986
vt 0.013577 0.951913
vt 0.013518 0.951953
vt 0.013529 0.951708
vt 0.013584 0.951755
vt 0.013649 0.951779
vt 0.013707 0.951828
vt 0.013680 0.951836
vt 0.013622 0.951788
vt 0.013700 0.951955
vt 0.013687 0.952209
vt 0.013631 0.952158
vt 0.013638 0.952011
vt 0.013600 0.951978
vt 0.013593 0.952125
vt 0.013567 0.952133
vt 0.013538 0.952075
vt 0.013512 0.952084
vt 0.013544 0.951959
vt 0.013556 0.951700
vt 0.013611 0.951747
vt 0.013604 0.951904
vt 0.013642 0.951937
vn 0.000000 0.000000 1.000000
vn 0.000000 0.000000 1.000000
vn 0.000000 0.000000 1.000000
vn 0.000000 0.000000 1.000000
vn 0.000000 0.000000 1.000000
vn 0.000000 0.000000 1.000000
vn 0.000000 0.000000 1.000000
vn 0.000000 0.000000 1.000000
vn 0.000000 0.000000 1.000000
vn 0.000000 0.000000 1.000000
vn 0.000000 0.000000 1.000000
vn 0.000000 0.000000 1.000000
vn 0.000000 0.000000 1.000000
vn 0.000000 0.000000 1.000000
vn 0.000000 0.000000 1.000000
vn 0.000000 0.000000 1.000000
vn 0.000000 0.000000 1.000000
vn 0.000000 0.000000 1.000000
vn 0.000000 0.970013 0.243054
vn 0.000000 0.970013 0.243054
vn 0.000000 0.970013 0.243054
vn 0.000000 0.970013 0.243054
vn -0.939610 0.017475 0.341800
vn -0.939610 0.017475 0.341800
vn -0.939610 0.017475 0.341800
vn -0.939610 0.017475 0.341800
vn 0.000000 -0.970013 0.243054
vn 0.000000 -0.970013 0.243054
vn 0.000000 -0.970013 0.243054
vn 0.000000 -0.970013 0.243054
vn 0.981603 -0.016016 0.190262
vn 0.981603 -0.016016 0.190262
vn 0.981603 -0.016016 0.190262
vn 0.981603 -0.016016 0.190262
vn 0.000000 -0.991547 0.129751
vn 0.000000 -0.991547 0.129751
vn 0.000000 -0.991547 0.129751
vn 0.000000 -0.991547 0.129751
vn -0.981603 -0.016016 0.190262
vn -0.981603 -0.016016 0.190262
vn -0.981603 -0.016016 0.190262
vn -0.981603 -0.016016 0.190262
vn 0.000000 -0.970013 0.243055
vn 0.000000 -0.970013 0.243055
vn 0.000000 -0.970013 0.243055
vn 0.000000 -0.970013 0.243055
vn 0.970012 0.000000 0.243058
vn 0.970012 0.000000 0.243058
vn 0.970012 0.000000 0.243058
vn 0.970012 0.000000 0.243058
vn 0.000000 0.970013 0.243054
vn 0.000000 0.970013 0.243054
vn 0.000000 0.970013 0.243054
vn 0.000000 0.970013 0.243054
vn -0.981644 0.015189 0.190116
vn -0.981644 0.015189 0.190116
vn -0.981644 0.015189 0.190116
vn -0.981644 0.015189 0.190116
vn 0.000002 0.991546 0.129753
vn 0.000002 0.991546 0.129753
vn 0.000002 0.991546 0.129753
vn 0.000002 0.991546 0.129753
vn 0.981645 0.015190 0.190112
vn 0.981645 0.015190 0.190112
vn 0.981645 0.015190 0.190112
vn 0.981645 0.015190 0.190112
vn 0.000000 0.000000 1.000000
vn 0.000000 0.000000 1.000000
vn 0.000000 0.000000 1.000000
vn 0.000000 0.000000 1.000000
vn -0.938071 -0.037478 0.344409
vn -0.938071 -0.037478 0.344409
vn -0.938071 -0.037478 0.344409
vn -0.938071 -0.037478 0.344409
vn 0.000000 0.000000 1.000000
vn 0.000000 0.000000 1.000000
vn 0.000000 0.000000 1.000000
vn 0.000000 0.000000 1.000000
vn 0.949136 -0.022562 0.314056
vn 0.949136 -0.022562 0.314056
vn 0.949136 -0.022562 0.314056
vn 0.949136 -0.022562 0.314056
vn 0.000000 0.000000 -1.000000
vn 0.000000 0.000000 -1.000000
vn 0.000000 0.000000 -1.000000
vn 0.000000 0.000000 -1.000000
vn 0.000000 0.000000 -1.000000
vn 0.000000 0.000000 -1.000000
vn 0.000000 0.000000 -1.000000
vn 0.000000 0.000000 -1.000000
vn 0.000000 0.000000 -1.000000
vn 0.000000 0.000000 -1.000000
vn 0.000000 0.000000 -1.000000
vn 0.000000 0.000000 -1.000000
vn 0.000000 0.000000 -1.000000
vn 0.000000 0.000000 -1.000000
vn 0.000000 0.000000 -1.000000
vn 0.000000 0.000000 -1.000000
vn 0.000000 0.000000 -1.000000
vn 0.000000 0.000000 -1.000000
vn 0.000000 0.970013 -0.243054
vn 0.000000 0.970013 -0.243054
vn 0.000000 0.970013 -0.243054
vn 0.000000 0.970013 -0.243054
vn -0.939610 0.017475 -0.341800
vn -0.939610 0.017475 -0.341800
vn -0.939610 0.017475 -0.341800
vn -0.939610 0.017475 -0.341800
vn 0.000000 -0.970013 -0.243054
vn 0.000000 -0.970013 -0.243054
vn 0.000000 -0.970013 -0.243054
vn 0.000000 -0.970013 -0.243054
vn 0.981603 -0.016016 -0.190262
vn 0.981603 -0.016016 -0.190262
vn 0.981603 -0.016016 -0.190262
vn 0.981603 -0.016016 -0.190262
vn 0.000000 -0.991547 -0.129751
vn 0.000000 -0.991547 -0.129751
vn 0.000000 -0.991547 -0.129751
vn 0.000000 -0.991547 -0.129751
vn -0.981603 -0.016016 -0.190262
vn -0.981603 -0.016016 -0.190262
vn -0.981603 -0.016016 -0.190262
vn -0.981603 -0.016016 -0.190262
vn 0.000000 -0.970013 -0.243054
vn 0.000000 -0.970013 -0.243054
vn 0.000000 -0.970013 -0.243054
vn 0.000000 -0.970013 -0.243054
vn 0.970012 0.000000 -0.243058
vn 0.970012 0.000000 -0.243058
vn 0.970012 0.000000 -0.243058
vn 0.970012 0.000000 -0.243058
vn 0.000000 0.970013 -0.243054
vn 0.000000 0.970013 -0.243054
vn 0.000000 0.970013 -0.243054
vn 0.000000 0.970013 -0.243054
vn -0.981644 0.015189 -0.190116
vn -0.981644 0.015189 -0.190116
vn -0.981644 0.015189 -0.190116
vn -0.981644 0.015189 -0.190116
vn 0.000002 0.991546 -0.129753
vn 0.000002 0.991546 -0.129753
vn 0.000002 0.991546 -0.129753
vn 0.000002 0.991546 -0.129753
vn 0.981645 0.015190 -0.190112
vn 0.981645 0.015190 -0.190112
vn 0.981645 0.015190 -0.190112
vn 0.981645 0.015190 -0.190112
vn 0.000000 0.000000 -1.000000
vn 0.000000 0.000000 -1.000000
vn 0.000000 0.000000 -1.000000
vn 0.000000 0.000000 -1.000000
vn -0.938071 -0.037478 -0.344409
vn -0.938071 -0.037478 -0.344409
vn -0.938071 -0.037478 -0.344409
vn -0.938071 -0.037478 -0.344409
vn 0.000000 0.000000 -1.000000
vn 0.000000 0.000000 -1.000000
vn 0.000000 0.000000 -1.000000
vn 0.000000 0.000000 -1.000000
vn 0.949136 -0.022562 -0.314056
vn 0.949136 -0.022562 -0.314056
vn 0.949136 -0.022562 -0.314056
vn 0.949136 -0.022562 -0.314056
s off
f 12/12/1 25/25/2 3/3/3
f 3/3/4 4/4/5 5/5/6 12/12/7
f 12/12/8 5/5/9 6/6/10 11/11/11
f 6/6/12 27/27/13 9/9/14
f 11/11/15 6/6/16 9/9/17 10/10/18
f 14/14/19 13/13/20 2/1/21 1/2/22
f 25/25/23 26/26/24 15/15/25 3/3/26
f 15/15/27 16/16/28 4/4/29 3/3/30
f 16/16/31 17/17/32 5/5/33 4/4/34
f 17/17/35 18/18/36 6/6/37 5/5/38
f 18/18/39 19/19/40 7/7/41 6/6/42
f 19/19/43 20/20/44 8/8/45 7/7/46
f 27/27/47 28/28/48 21/21/49 9/9/50
f 21/21/51 22/22/52 10/10/53 9/9/54
f 22/22/55 23/23/56 11/11/57 10/10/58
f 23/23/59 24/24/60 12/12/61 11/11/62
f 24/24/63 14/14/64 1/2/65 12/12/66
f 12/12/67 1/2/68 2/1/69 25/25/70
f 13/13/71 26/26/72 25/25/73 2/1/74
f 6/6/75 7/7/76 8/8/77 27/27/78
f 20/20/79 28/28/80 27/27/81 8/8/82
f 40/29/83 31/31/84 41/30/85
f 31/31/86 40/29/87 33/33/88 32/32/89
f 40/29/90 39/35/91 34/34/92 33/33/93
f 34/34/94 37/37/95 42/36/96
f 39/35/97 38/38/98 37/37/99 34/34/100
f 14/39/101 29/42/102 30/41/103 13/40/104
f 41/30/105 31/31/106 15/44/107 26/43/108
f 15/44/109 31/31/110 32/32/111 16/45/112
f 16/45/113 32/32/114 33/33/115 17/46/116
f 17/46/117 33/33/118 34/34/119 18/47/120
f 18/47/121 34/34/122 35/49/123 19/48/124
f 19/48/125 35/49/126 36/51/127 20/50/128
f 42/36/129 37/37/130 21/53/131 28/52/132
f 21/53/133 37/37/134 38/38/135 22/54/136
f 22/54/137 38/38/138 39/35/139 23/55/140
f 23/55/141 39/35/142 40/29/143 24/56/144
f 24/56/145 40/29/146 29/42/147 14/39/148
f 40/29/149 41/30/150 30/41/151 29/42/152
f 13/40/153 30/41/154 41/30/155 26/43/156
f 34/34/157 42/36/158 36/51/159 35/49/160
f 20/50/161 36/51/162 42/36/163 28/52/164
