# This file uses centimeters as units for non-parametric coordinates.

v -7.518037 -9.502128 1.999997
v 7.518048 -9.502128 1.999997
v -14.587565 14.227532 1.999998
v 14.587585 14.227532 1.999998
v -10.760076 -12.948597 -0.000000
v 10.760109 -12.948596 0.000000
v -14.587565 8.417229 1.999998
v 14.587585 8.417229 1.999998
v -13.896421 2.571167 1.999998
v 13.896432 2.571167 1.999998
v -11.449694 -3.391830 1.999997
v 11.449732 -3.391830 1.999997
v 0.000001 14.717182 2.000000
v 0.000001 -14.131907 1.999997
v 0.000008 2.646971 1.999999
v -7.663548 13.496272 1.999997
v 7.663572 13.496272 1.999997
v -0.000000 19.987179 -0.000000
v -9.360403 18.481367 0.000000
v -0.000000 -19.927155 0.000000
v 15.856632 -4.955708 0.000000
v -15.856601 -4.955707 0.000000
v -19.760750 10.279972 0.000000
v -19.185730 19.466549 0.000000
v 19.760754 10.279974 0.000000
v 19.185762 19.466549 0.000000
v -18.892925 2.758871 0.000000
v 18.892931 2.758870 0.000000
v 9.360412 18.481367 0.000000
v -8.306642 14.687422 4.000002
v 0.000001 16.020372 4.000003
v 0.000001 18.607288 4.000002
v -8.806877 17.189669 4.000003
v -8.148926 -10.442568 4.000002
v 0.000001 -15.499620 4.000002
v -9.928339 -12.090804 4.000003
v 0.000001 -18.613213 4.000003
v 8.148930 -10.442568 4.000002
v 12.410539 -3.767013 4.000002
v 9.928377 -12.090804 4.000003
v 14.687044 -4.632442 4.000003
v -12.410506 -3.767013 4.000002
v -14.687036 -4.632441 4.000003
v -15.811695 9.138985 3.999991
v -15.811695 15.489629 3.999991
v -17.951378 18.069643 3.999991
v -18.351425 9.537700 3.999992
v 15.811708 9.138985 3.999991
v 15.811708 15.489629 3.999991
v 18.351452 9.537701 3.999992
v 17.951408 18.069643 3.999991
v -15.062555 2.749318 4.000002
v -17.537855 2.548793 3.999991
v 15.062561 2.749318 4.000002
v 17.537872 2.548793 3.999991
v 8.306665 14.687422 4.000002
v 8.806907 17.189669 4.000003
v -7.518037 -9.502128 -1.999997
v 7.518048 -9.502128 -1.999997
v -14.587565 14.227532 -1.999998
v 14.587585 14.227532 -1.999998
v -14.587565 8.417229 -1.999998
v 14.587585 8.417229 -1.999998
v -13.896421 2.571167 -1.999998
v 13.896432 2.571167 -1.999998
v -11.449694 -3.391830 -1.999997
v 11.449732 -3.391830 -1.999997
v 0.000001 14.717182 -2.000000
v 0.000001 -14.131907 -1.999997
v 0.000008 2.646971 -1.999999
v -7.663548 13.496272 -1.999997
v 7.663572 13.496272 -1.999997
v -8.306642 14.687422 -4.000002
v 0.000001 16.020372 -4.000003
v 0.000001 18.607288 -4.000002
v -8.806877 17.189669 -4.000003
v -8.148926 -10.442568 -4.000002
v 0.000001 -15.499620 -4.000002
v -9.928339 -12.090804 -4.000003
v 0.000001 -18.613213 -4.000003
v 8.148930 -10.442568 -4.000002
v 12.410539 -3.767013 -4.000002
v 9.928377 -12.090804 -4.000003
v 14.687044 -4.632442 -4.000003
v -12.410506 -3.767013 -4.000002
v -14.687036 -4.632441 -4.000003
v -15.811695 9.138985 -3.999991
v -15.811695 15.489629 -3.999991
v -17.951378 18.069643 -3.999991
v -18.351425 9.537700 -3.999992
v 15.811708 9.138985 -3.999991
v 15.811708 15.489629 -3.999991
v 18.351452 9.537701 -3.999992
v 17.951408 18.069643 -3.999991
v -15.062555 2.749318 -4.000002
v -17.537855 2.548793 -3.999991
v 15.062561 2.749318 -4.000002
v 17.537872 2.548793 -3.999991
v 8.306665 14.687422 -4.000002
v 8.806907 17.189669 -4.000003
vt 0.515020 0.919861
vt 0.515020 0.919861
vt 0.515020 0.919861
vt 0.515020 0.919861
vt 0.953046 0.983199
vt 0.953288 0.983247
vt 0.953262 0.983305
vt 0.953031 0.983259
vt 0.515020 0.919861
vt 0.515020 0.919861
vt 0.515020 0.919861
vt 0.515020 0.919861
vt 0.515020 0.919861
vt 0.515020 0.919861
vt 0.515020 0.919861
vt 0.953303 0.984012
vt 0.515020 0.919861
vt 0.953437 0.983833
vt 0.515020 0.919861
vt 0.953273 0.984027
vt 0.953399 0.983858
vt 0.953547 0.983232
vt 0.515020 0.919861
vt 0.953552 0.983467
vt 0.953508 0.983512
vt 0.953506 0.983292
vt 0.515020 0.919861
vt 0.953521 0.983651
vt 0.953479 0.983686
vt 0.952561 0.983193
vt 0.952808 0.983228
vt 0.952802 0.983286
vt 0.952569 0.983253
vt 0.952552 0.983420
vt 0.952577 0.983602
vt 0.952654 0.983787
vt 0.952779 0.983978
vt 0.953247 0.983369
vt 0.953030 0.983325
vt 0.953038 0.984153
vt 0.953024 0.984090
vt 0.953229 0.983986
vt 0.953023 0.984162
vt 0.952717 0.983797
vt 0.952823 0.983960
vt 0.952780 0.983996
vt 0.952661 0.983814
vt 0.953341 0.983833
vt 0.953440 0.983519
vt 0.953446 0.983357
vt 0.952624 0.983321
vt 0.952627 0.983480
vt 0.952564 0.983467
vt 0.953415 0.983678
vt 0.952649 0.983637
vt 0.952588 0.983639
vt 0.952816 0.983350
vt 0.953235 0.983385
vt 0.953038 0.983345
vt 0.953031 0.984040
vt 0.953219 0.983945
vt 0.952751 0.983773
vt 0.952848 0.983922
vt 0.953322 0.983806
vt 0.953412 0.983521
vt 0.953417 0.983374
vt 0.952667 0.983342
vt 0.952669 0.983485
vt 0.953389 0.983665
vt 0.952689 0.983628
vt 0.952842 0.983368
vt 0.953046 0.983199
vt 0.953288 0.983247
vt 0.953262 0.983305
vt 0.953031 0.983259
vt 0.953437 0.983833
vt 0.953303 0.984012
vt 0.953273 0.984027
vt 0.953399 0.983858
vt 0.953547 0.983232
vt 0.953552 0.983467
vt 0.953508 0.983512
vt 0.953506 0.983292
vt 0.515020 0.919861
vt 0.515020 0.919861
vt 0.515020 0.919861
vt 0.953521 0.983651
vt 0.953479 0.983686
vt 0.952561 0.983193
vt 0.952808 0.983228
vt 0.952802 0.983286
vt 0.952569 0.983253
vt 0.515020 0.919861
vt 0.515020 0.919861
vt 0.515020 0.919861
vt 0.515020 0.919861
vt 0.515020 0.919861
vt 0.515020 0.919861
vt 0.515020 0.919861
vt 0.515020 0.919861
vt 0.515020 0.919861
vt 0.515020 0.919861
vt 0.515020 0.919861
vt 0.515020 0.919861
vt 0.953247 0.983369
vt 0.953030 0.983325
vt 0.953024 0.984090
vt 0.953229 0.983986
vt 0.953023 0.984162
vt 0.952717 0.983797
vt 0.952823 0.983960
vt 0.952780 0.983996
vt 0.952661 0.983814
vt 0.953341 0.983833
vt 0.953440 0.983519
vt 0.953446 0.983357
vt 0.952624 0.983321
vt 0.952627 0.983480
vt 0.952564 0.983467
vt 0.953415 0.983678
vt 0.952649 0.983637
vt 0.952588 0.983639
vt 0.952816 0.983350
vt 0.953235 0.983385
vt 0.953038 0.983345
vt 0.953031 0.984040
vt 0.953219 0.983945
vt 0.953038 0.984153
vt 0.952751 0.983773
vt 0.952848 0.983922
vt 0.952654 0.983787
vt 0.952779 0.983978
vt 0.953322 0.983806
vt 0.953412 0.983521
vt 0.953417 0.983374
vt 0.952667 0.983342
vt 0.952669 0.983485
vt 0.952552 0.983420
vt 0.953389 0.983665
vt 0.952689 0.983628
vt 0.952577 0.983602
vt 0.952842 0.983368
vn -0.150385 0.934548 0.322496
vn -0.150385 0.934548 0.322496
vn -0.150385 0.934548 0.322496
vn -0.150385 0.934548 0.322496
vn -0.809675 -0.516432 0.278792
vn -0.809675 -0.516432 0.278792
vn -0.809675 -0.516432 0.278792
vn -0.809675 -0.516432 0.278792
vn -0.943995 0.051949 0.325844
vn -0.943995 0.051949 0.325844
vn -0.943995 0.051949 0.325844
vn -0.943995 0.051949 0.325844
vn -0.000000 -0.000000 1.000000
vn -0.000000 -0.000000 1.000000
vn -0.000000 -0.000000 1.000000
vn -0.943443 -0.109325 0.312992
vn -0.943443 -0.109325 0.312992
vn -0.943443 -0.109325 0.312992
vn -0.943443 -0.109325 0.312992
vn -0.891100 -0.352182 0.286196
vn -0.891100 -0.352182 0.286196
vn -0.891100 -0.352182 0.286196
vn -0.891100 -0.352182 0.286196
vn -0.093393 0.949874 0.298357
vn -0.093393 0.949874 0.298357
vn -0.093393 0.949874 0.298357
vn -0.093393 0.949874 0.298357
vn 0.000000 -0.000000 1.000000
vn 0.000000 -0.000000 1.000000
vn 0.000000 -0.000000 1.000000
vn 0.000000 -0.000000 1.000000
vn 0.000000 -0.000000 1.000000
vn 0.000000 -0.000000 1.000000
vn 0.000000 -0.000000 1.000000
vn 0.000000 -0.000000 1.000000
vn 0.000000 -0.000000 1.000000
vn -0.000000 0.000000 1.000000
vn -0.000000 0.000000 1.000000
vn -0.000000 0.000000 1.000000
vn -0.000000 0.000000 1.000000
vn -0.000000 -0.000000 1.000000
vn -0.000000 -0.000000 1.000000
vn -0.000000 -0.000000 1.000000
vn -0.000000 -0.000000 1.000000
vn -0.000000 -0.000000 1.000000
vn -0.000000 -0.000000 1.000000
vn -0.000000 -0.000000 1.000000
vn -0.000000 -0.000000 1.000000
vn -0.000000 -0.000000 1.000000
vn 0.093394 0.949874 0.298357
vn 0.093394 0.949874 0.298357
vn 0.093394 0.949874 0.298357
vn 0.093394 0.949874 0.298357
vn 0.000000 0.000000 1.000000
vn 0.000000 0.000000 1.000000
vn 0.000000 0.000000 1.000000
vn 0.000000 0.000000 1.000000
vn 0.150385 0.934549 0.322496
vn 0.150385 0.934549 0.322496
vn 0.150385 0.934549 0.322496
vn 0.150385 0.934549 0.322496
vn 0.000000 -0.000000 1.000000
vn 0.000000 -0.000000 1.000000
vn 0.000000 -0.000000 1.000000
vn -0.000000 -0.000000 1.000000
vn -0.000000 -0.000000 1.000000
vn -0.000000 -0.000000 1.000000
vn 0.000000 -0.000000 1.000000
vn 0.000000 -0.000000 1.000000
vn 0.000000 -0.000000 1.000000
vn 0.000000 0.000000 1.000000
vn 0.000000 0.000000 1.000000
vn 0.000000 0.000000 1.000000
vn 0.000000 0.000000 1.000000
vn 0.000000 0.000000 1.000000
vn 0.000000 0.000000 1.000000
vn 0.000000 0.000000 1.000000
vn 0.000000 0.000000 1.000000
vn -0.000000 0.000000 1.000000
vn -0.000000 0.000000 1.000000
vn -0.000000 0.000000 1.000000
vn -0.000000 0.000000 1.000000
vn 0.000000 0.000000 1.000000
vn 0.000000 0.000000 1.000000
vn 0.000000 0.000000 1.000000
vn 0.000000 0.000000 1.000000
vn 0.000000 0.000000 1.000000
vn 0.000000 0.000000 1.000000
vn 0.000000 0.000000 1.000000
vn 0.000000 0.000000 1.000000
vn -0.000000 0.000000 1.000000
vn -0.000000 0.000000 1.000000
vn -0.000000 0.000000 1.000000
vn -0.000000 0.000000 1.000000
vn -0.000002 0.000001 1.000000
vn -0.000002 0.000001 1.000000
vn -0.000002 0.000001 1.000000
vn -0.000002 0.000001 1.000000
vn 0.000002 0.000001 1.000000
vn 0.000002 0.000001 1.000000
vn 0.000002 0.000001 1.000000
vn 0.000002 0.000001 1.000000
vn -0.000002 0.000000 1.000000
vn -0.000002 0.000000 1.000000
vn -0.000002 0.000000 1.000000
vn -0.000002 0.000000 1.000000
vn 0.000002 0.000000 1.000000
vn 0.000002 0.000000 1.000000
vn 0.000002 0.000000 1.000000
vn 0.000002 0.000000 1.000000
vn 0.000001 -0.000001 1.000000
vn 0.000001 -0.000001 1.000000
vn 0.000001 -0.000001 1.000000
vn 0.000001 -0.000001 1.000000
vn -0.000001 -0.000001 1.000000
vn -0.000001 -0.000001 1.000000
vn -0.000001 -0.000001 1.000000
vn -0.000001 -0.000001 1.000000
vn -0.000000 0.000000 1.000000
vn -0.000000 0.000000 1.000000
vn -0.000000 0.000000 1.000000
vn -0.000000 0.000000 1.000000
vn 0.000000 0.000000 1.000000
vn 0.000000 0.000000 1.000000
vn 0.000000 0.000000 1.000000
vn 0.000000 0.000000 1.000000
vn 0.132932 -0.831271 0.539738
vn 0.132932 -0.831271 0.539738
vn 0.132932 -0.831271 0.539738
vn 0.132932 -0.831271 0.539738
vn 0.456147 0.737748 0.497652
vn 0.456147 0.737748 0.497652
vn 0.456147 0.737748 0.497652
vn 0.456147 0.737748 0.497652
vn -0.525698 -0.805561 0.273338
vn -0.525698 -0.805561 0.273338
vn -0.525698 -0.805561 0.273338
vn -0.525698 -0.805561 0.273338
vn -0.749293 0.480154 0.456084
vn -0.749293 0.480154 0.456084
vn -0.749293 0.480154 0.456084
vn -0.749293 0.480154 0.456084
vn 0.809675 -0.516431 0.278794
vn 0.809675 -0.516431 0.278794
vn 0.809675 -0.516431 0.278794
vn 0.809675 -0.516431 0.278794
vn 0.749294 0.480151 0.456086
vn 0.749294 0.480151 0.456086
vn 0.749294 0.480151 0.456086
vn 0.749294 0.480151 0.456086
vn 0.852919 0.000000 0.522043
vn 0.852919 0.000000 0.522043
vn 0.852919 0.000000 0.522043
vn 0.852919 0.000000 0.522043
vn -0.852920 0.000000 0.522041
vn -0.852920 0.000000 0.522041
vn -0.852920 0.000000 0.522041
vn -0.852920 0.000000 0.522041
vn 0.943996 0.051948 0.325841
vn 0.943996 0.051948 0.325841
vn 0.943996 0.051948 0.325841
vn 0.943996 0.051948 0.325841
vn 0.863871 0.101688 0.493343
vn 0.863871 0.101688 0.493343
vn 0.863871 0.101688 0.493343
vn 0.863871 0.101688 0.493343
vn -0.863872 0.101689 0.493340
vn -0.863872 0.101689 0.493340
vn -0.863872 0.101689 0.493340
vn -0.863872 0.101689 0.493340
vn 0.943444 -0.109325 0.312989
vn 0.943444 -0.109325 0.312989
vn 0.943444 -0.109325 0.312989
vn 0.943444 -0.109325 0.312989
vn 0.824369 0.336819 0.454937
vn 0.824369 0.336819 0.454937
vn 0.824369 0.336819 0.454937
vn 0.824369 0.336819 0.454937
vn -0.824371 0.336816 0.454936
vn -0.824371 0.336816 0.454936
vn -0.824371 0.336816 0.454936
vn -0.824371 0.336816 0.454936
vn 0.891100 -0.352181 0.286197
vn 0.891100 -0.352181 0.286197
vn 0.891100 -0.352181 0.286197
vn 0.891100 -0.352181 0.286197
vn 0.092186 -0.867419 0.488965
vn 0.092186 -0.867419 0.488965
vn 0.092186 -0.867419 0.488965
vn 0.092186 -0.867419 0.488965
vn -0.092186 -0.867419 0.488965
vn -0.092186 -0.867419 0.488965
vn -0.092186 -0.867419 0.488965
vn -0.092186 -0.867419 0.488965
vn -0.456147 0.737748 0.497652
vn -0.456147 0.737748 0.497652
vn -0.456147 0.737748 0.497652
vn -0.456147 0.737748 0.497652
vn 0.525696 -0.805562 0.273338
vn 0.525696 -0.805562 0.273338
vn 0.525696 -0.805562 0.273338
vn 0.525696 -0.805562 0.273338
vn -0.132932 -0.831271 0.539739
vn -0.132932 -0.831271 0.539739
vn -0.132932 -0.831271 0.539739
vn -0.132932 -0.831271 0.539739
vn -0.150385 0.934548 -0.322496
vn -0.150385 0.934548 -0.322496
vn -0.150385 0.934548 -0.322496
vn -0.150385 0.934548 -0.322496
vn -0.809675 -0.516432 -0.278792
vn -0.809675 -0.516432 -0.278792
vn -0.809675 -0.516432 -0.278792
vn -0.809675 -0.516432 -0.278792
vn -0.943995 0.051949 -0.325844
vn -0.943995 0.051949 -0.325844
vn -0.943995 0.051949 -0.325844
vn -0.943995 0.051949 -0.325844
vn -0.000000 -0.000000 -1.000000
vn -0.000000 -0.000000 -1.000000
vn -0.000000 -0.000000 -1.000000
vn -0.943443 -0.109325 -0.312992
vn -0.943443 -0.109325 -0.312992
vn -0.943443 -0.109325 -0.312992
vn -0.943443 -0.109325 -0.312992
vn -0.891100 -0.352182 -0.286196
vn -0.891100 -0.352182 -0.286196
vn -0.891100 -0.352182 -0.286196
vn -0.891100 -0.352182 -0.286196
vn -0.093393 0.949874 -0.298357
vn -0.093393 0.949874 -0.298357
vn -0.093393 0.949874 -0.298357
vn -0.093393 0.949874 -0.298357
vn 0.000000 -0.000000 -1.000000
vn 0.000000 -0.000000 -1.000000
vn 0.000000 -0.000000 -1.000000
vn 0.000000 -0.000000 -1.000000
vn 0.000000 -0.000000 -1.000000
vn 0.000000 -0.000000 -1.000000
vn 0.000000 -0.000000 -1.000000
vn 0.000000 -0.000000 -1.000000
vn 0.000000 -0.000000 -1.000000
vn -0.000000 0.000000 -1.000000
vn -0.000000 0.000000 -1.000000
vn -0.000000 0.000000 -1.000000
vn -0.000000 0.000000 -1.000000
vn -0.000000 -0.000000 -1.000000
vn -0.000000 -0.000000 -1.000000
vn -0.000000 -0.000000 -1.000000
vn -0.000000 -0.000000 -1.000000
vn -0.000000 -0.000000 -1.000000
vn -0.000000 -0.000000 -1.000000
vn -0.000000 -0.000000 -1.000000
vn -0.000000 -0.000000 -1.000000
vn -0.000000 -0.000000 -1.000000
vn 0.093394 0.949874 -0.298357
vn 0.093394 0.949874 -0.298357
vn 0.093394 0.949874 -0.298357
vn 0.093394 0.949874 -0.298357
vn 0.000000 0.000000 -1.000000
vn 0.000000 0.000000 -1.000000
vn 0.000000 0.000000 -1.000000
vn 0.000000 0.000000 -1.000000
vn 0.150385 0.934549 -0.322496
vn 0.150385 0.934549 -0.322496
vn 0.150385 0.934549 -0.322496
vn 0.150385 0.934549 -0.322496
vn 0.000000 -0.000000 -1.000000
vn 0.000000 -0.000000 -1.000000
vn 0.000000 -0.000000 -1.000000
vn -0.000000 -0.000000 -1.000000
vn -0.000000 -0.000000 -1.000000
vn -0.000000 -0.000000 -1.000000
vn 0.000000 -0.000000 -1.000000
vn 0.000000 -0.000000 -1.000000
vn 0.000000 -0.000000 -1.000000
vn 0.000000 0.000000 -1.000000
vn 0.000000 0.000000 -1.000000
vn 0.000000 0.000000 -1.000000
vn 0.000000 0.000000 -1.000000
vn 0.000000 0.000000 -1.000000
vn 0.000000 0.000000 -1.000000
vn 0.000000 0.000000 -1.000000
vn 0.000000 0.000000 -1.000000
vn -0.000000 0.000000 -1.000000
vn -0.000000 0.000000 -1.000000
vn -0.000000 0.000000 -1.000000
vn -0.000000 0.000000 -1.000000
vn 0.000000 0.000000 -1.000000
vn 0.000000 0.000000 -1.000000
vn 0.000000 0.000000 -1.000000
vn 0.000000 0.000000 -1.000000
vn 0.000000 0.000000 -1.000000
vn 0.000000 0.000000 -1.000000
vn 0.000000 0.000000 -1.000000
vn 0.000000 0.000000 -1.000000
vn -0.000000 0.000000 -1.000000
vn -0.000000 0.000000 -1.000000
vn -0.000000 0.000000 -1.000000
vn -0.000000 0.000000 -1.000000
vn -0.000002 0.000001 -1.000000
vn -0.000002 0.000001 -1.000000
vn -0.000002 0.000001 -1.000000
vn -0.000002 0.000001 -1.000000
vn 0.000002 0.000001 -1.000000
vn 0.000002 0.000001 -1.000000
vn 0.000002 0.000001 -1.000000
vn 0.000002 0.000001 -1.000000
vn -0.000002 0.000000 -1.000000
vn -0.000002 0.000000 -1.000000
vn -0.000002 0.000000 -1.000000
vn -0.000002 0.000000 -1.000000
vn 0.000002 0.000000 -1.000000
vn 0.000002 0.000000 -1.000000
vn 0.000002 0.000000 -1.000000
vn 0.000002 0.000000 -1.000000
vn 0.000001 -0.000001 -1.000000
vn 0.000001 -0.000001 -1.000000
vn 0.000001 -0.000001 -1.000000
vn 0.000001 -0.000001 -1.000000
vn -0.000001 -0.000001 -1.000000
vn -0.000001 -0.000001 -1.000000
vn -0.000001 -0.000001 -1.000000
vn -0.000001 -0.000001 -1.000000
vn -0.000000 0.000000 -1.000000
vn -0.000000 0.000000 -1.000000
vn -0.000000 0.000000 -1.000000
vn -0.000000 0.000000 -1.000000
vn 0.000000 0.000000 -1.000000
vn 0.000000 0.000000 -1.000000
vn 0.000000 0.000000 -1.000000
vn 0.000000 0.000000 -1.000000
vn 0.132932 -0.831271 -0.539738
vn 0.132932 -0.831271 -0.539738
vn 0.132932 -0.831271 -0.539738
vn 0.132932 -0.831271 -0.539738
vn 0.456147 0.737748 -0.497652
vn 0.456147 0.737748 -0.497652
vn 0.456147 0.737748 -0.497652
vn 0.456147 0.737748 -0.497652
vn -0.525698 -0.805561 -0.273338
vn -0.525698 -0.805561 -0.273338
vn -0.525698 -0.805561 -0.273338
vn -0.525698 -0.805561 -0.273338
vn -0.749293 0.480154 -0.456084
vn -0.749293 0.480154 -0.456084
vn -0.749293 0.480154 -0.456084
vn -0.749293 0.480154 -0.456084
vn 0.809675 -0.516431 -0.278794
vn 0.809675 -0.516431 -0.278794
vn 0.809675 -0.516431 -0.278794
vn 0.809675 -0.516431 -0.278794
vn 0.749293 0.480151 -0.456086
vn 0.749293 0.480151 -0.456086
vn 0.749293 0.480151 -0.456086
vn 0.749293 0.480151 -0.456086
vn 0.852919 0.000000 -0.522043
vn 0.852919 0.000000 -0.522043
vn 0.852919 0.000000 -0.522043
vn 0.852919 0.000000 -0.522043
vn -0.852920 0.000000 -0.522041
vn -0.852920 0.000000 -0.522041
vn -0.852920 0.000000 -0.522041
vn -0.852920 0.000000 -0.522041
vn 0.943996 0.051948 -0.325841
vn 0.943996 0.051948 -0.325841
vn 0.943996 0.051948 -0.325841
vn 0.943996 0.051948 -0.325841
vn 0.863871 0.101688 -0.493343
vn 0.863871 0.101688 -0.493343
vn 0.863871 0.101688 -0.493343
vn 0.863871 0.101688 -0.493343
vn -0.863872 0.101689 -0.493340
vn -0.863872 0.101689 -0.493340
vn -0.863872 0.101689 -0.493340
vn -0.863872 0.101689 -0.493340
vn 0.943444 -0.109325 -0.312989
vn 0.943444 -0.109325 -0.312989
vn 0.943444 -0.109325 -0.312989
vn 0.943444 -0.109325 -0.312989
vn 0.824369 0.336819 -0.454937
vn 0.824369 0.336819 -0.454937
vn 0.824369 0.336819 -0.454937
vn 0.824369 0.336819 -0.454937
vn -0.824371 0.336816 -0.454936
vn -0.824371 0.336816 -0.454936
vn -0.824371 0.336816 -0.454936
vn -0.824371 0.336816 -0.454936
vn 0.891100 -0.352181 -0.286197
vn 0.891100 -0.352181 -0.286197
vn 0.891100 -0.352181 -0.286197
vn 0.891100 -0.352181 -0.286197
vn 0.092186 -0.867418 -0.488965
vn 0.092186 -0.867418 -0.488965
vn 0.092186 -0.867418 -0.488965
vn 0.092186 -0.867418 -0.488965
vn -0.092186 -0.867419 -0.488965
vn -0.092186 -0.867419 -0.488965
vn -0.092186 -0.867419 -0.488965
vn -0.092186 -0.867419 -0.488965
vn -0.456147 0.737748 -0.497652
vn -0.456147 0.737748 -0.497652
vn -0.456147 0.737748 -0.497652
vn -0.456147 0.737748 -0.497652
vn 0.525696 -0.805562 -0.273338
vn 0.525696 -0.805562 -0.273338
vn 0.525696 -0.805562 -0.273338
vn 0.525696 -0.805562 -0.273338
vn -0.132932 -0.831271 -0.539739
vn -0.132932 -0.831271 -0.539739
vn -0.132932 -0.831271 -0.539739
vn -0.132932 -0.831271 -0.539739
s off
f 18/5/1 19/6/2 33/7/3 32/8/4
f 22/18/5 5/16/6 36/20/7 43/21/8
f 24/22/9 23/24/10 47/25/11 46/26/12
f 16/23/13 15/19/14 13/15/15
f 23/24/16 27/28/17 53/29/18 47/25/19
f 27/28/20 22/18/21 43/21/22 53/29/23
f 26/30/24 29/31/25 57/32/26 51/33/27
f 15/19/28 2/2/29 12/14/30
f 15/19/31 12/14/32 10/12/33
f 15/19/34 10/12/35 8/10/36
f 17/27/37 15/19/38 8/10/39 4/4/40
f 9/11/41 15/19/42 7/9/43
f 11/13/44 15/19/45 9/11/46
f 1/1/47 15/19/48 11/13/49
f 19/6/50 24/22/51 46/26/52 33/7/53
f 7/9/54 15/19/55 16/23/56 3/3/57
f 29/31/58 18/5/59 32/8/60 57/32/61
f 13/15/62 15/19/63 17/27/64
f 1/1/65 14/17/66 15/19/67
f 2/2/68 15/19/69 14/17/70
f 30/38/71 31/39/72 32/8/73 33/7/74
f 35/41/75 34/42/76 36/20/77 37/43/78
f 39/44/79 38/45/80 40/46/81 41/47/82
f 34/42/83 42/48/84 43/21/85 36/20/86
f 44/49/87 45/50/88 46/26/89 47/25/90
f 49/51/91 48/52/92 50/53/93 51/33/94
f 52/54/95 44/49/96 47/25/97 53/29/98
f 48/52/99 54/55/100 55/56/101 50/53/102
f 42/48/103 52/54/104 53/29/105 43/21/106
f 54/55/107 39/44/108 41/47/109 55/56/110
f 56/57/111 49/51/112 51/33/113 57/32/114
f 45/50/115 30/38/116 33/7/117 46/26/118
f 38/45/119 35/41/120 37/43/121 40/46/122
f 31/39/123 56/57/124 57/32/125 32/8/126
f 16/58/127 13/59/128 31/39/129 30/38/130
f 14/60/131 1/61/132 34/42/133 35/41/134
f 20/40/135 37/43/136 36/20/137 5/16/138
f 12/62/139 2/63/140 38/45/141 39/44/142
f 21/36/143 41/47/144 40/46/145 6/37/146
f 1/61/147 11/64/148 42/48/149 34/42/150
f 7/65/151 3/66/152 45/50/153 44/49/154
f 4/67/155 8/68/156 48/52/157 49/51/158
f 26/30/159 51/33/160 50/53/161 25/34/162
f 9/69/163 7/65/164 44/49/165 52/54/166
f 8/68/167 10/70/168 54/55/169 48/52/170
f 25/34/171 50/53/172 55/56/173 28/35/174
f 11/64/175 9/69/176 52/54/177 42/48/178
f 10/70/179 12/62/180 39/44/181 54/55/182
f 28/35/183 55/56/184 41/47/185 21/36/186
f 17/71/187 4/67/188 49/51/189 56/57/190
f 3/66/191 16/58/192 30/38/193 45/50/194
f 2/63/195 14/60/196 35/41/197 38/45/198
f 6/37/199 40/46/200 37/43/201 20/40/202
f 13/59/203 17/71/204 56/57/205 31/39/206
f 18/72/207 75/75/208 76/74/209 19/73/210
f 22/76/211 86/79/212 79/78/213 5/77/214
f 24/80/215 89/83/216 90/82/217 23/81/218
f 71/84/219 68/86/220 70/85/221
f 23/81/222 90/82/223 96/88/224 27/87/225
f 27/87/226 96/88/227 86/79/228 22/76/229
f 26/89/230 94/92/231 100/91/232 29/90/233
f 70/85/234 67/94/235 59/93/236
f 70/85/237 65/95/238 67/94/239
f 70/85/240 63/96/241 65/95/242
f 72/97/243 61/98/244 63/96/245 70/85/246
f 64/99/247 62/100/248 70/85/249
f 66/101/250 64/99/251 70/85/252
f 58/102/253 66/101/254 70/85/255
f 19/73/256 76/74/257 89/83/258 24/80/259
f 62/100/260 60/103/261 71/84/262 70/85/263
f 29/90/264 100/91/265 75/75/266 18/72/267
f 68/86/268 72/97/269 70/85/270
f 58/102/271 70/85/272 69/104/273
f 59/93/274 69/104/275 70/85/276
f 73/105/277 76/74/278 75/75/279 74/106/280
f 78/107/281 80/109/282 79/78/283 77/108/284
f 82/110/285 84/113/286 83/112/287 81/111/288
f 77/108/289 79/78/290 86/79/291 85/114/292
f 87/115/293 90/82/294 89/83/295 88/116/296
f 92/117/297 94/92/298 93/119/299 91/118/300
f 95/120/301 96/88/302 90/82/303 87/115/304
f 91/118/305 93/119/306 98/122/307 97/121/308
f 85/114/309 86/79/310 96/88/311 95/120/312
f 97/121/313 98/122/314 84/113/315 82/110/316
f 99/123/317 100/91/318 94/92/319 92/117/320
f 88/116/321 89/83/322 76/74/323 73/105/324
f 81/111/325 83/112/326 80/109/327 78/107/328
f 74/106/329 75/75/330 100/91/331 99/123/332
f 71/124/333 73/105/334 74/106/335 68/125/336
f 69/126/337 78/107/338 77/108/339 58/127/340
f 20/128/341 5/77/342 79/78/343 80/109/344
f 67/129/345 82/110/346 81/111/347 59/130/348
f 21/131/349 6/132/350 83/112/351 84/113/352
f 58/127/353 77/108/354 85/114/355 66/133/356
f 62/134/357 87/115/358 88/116/359 60/135/360
f 61/136/361 92/117/362 91/118/363 63/137/364
f 26/89/365 25/138/366 93/119/367 94/92/368
f 64/139/369 95/120/370 87/115/371 62/134/372
f 63/137/373 91/118/374 97/121/375 65/140/376
f 25/138/377 28/141/378 98/122/379 93/119/380
f 66/133/381 85/114/382 95/120/383 64/139/384
f 65/140/385 97/121/386 82/110/387 67/129/388
f 28/141/389 21/131/390 84/113/391 98/122/392
f 72/142/393 99/123/394 92/117/395 61/136/396
f 60/135/397 88/116/398 73/105/399 71/124/400
f 59/130/401 81/111/402 78/107/403 69/126/404
f 6/132/405 20/128/406 80/109/407 83/112/408
f 68/125/409 74/106/410 99/123/411 72/142/412
