# This file uses centimeters as units for non-parametric coordinates.

v 3.356781 17.916763 4.000000
v -3.356781 17.916763 4.000000
v -11.636200 -18.116989 4.000000
v -5.152344 -17.899643 4.000000
v -3.186493 -12.513977 4.000000
v 3.851135 -12.588623 4.000000
v 5.195984 -17.938858 4.000000
v 11.636200 -18.116989 4.000000
v 0.193512 4.956421 4.000000
v 2.668823 -6.737534 4.000000
v -2.132904 -6.900696 4.000000
v -4.233002 19.011047 -0.000000
v 4.233002 19.011047 0.000000
v -12.752777 -19.011047 0.000000
v -4.286255 -19.011047 0.000000
v -2.985413 -13.207855 0.000000
v 3.328094 -13.205414 -0.000000
v 4.286255 -19.011047 -0.000000
v 12.752777 -19.011047 0.000000
v 2.145355 -6.308151 -0.000000
v 0.086731 5.838913 -0.000000
v -1.905151 -6.377235 -0.000000
v 3.356781 17.916763 -4.000000
v -3.356781 17.916763 -4.000000
v -11.636200 -18.116989 -4.000000
v -5.152344 -17.899643 -4.000000
v -3.186493 -12.513977 -4.000000
v 3.851135 -12.588623 -4.000000
v 5.195984 -17.938858 -4.000000
v 11.636200 -18.116989 -4.000000
v 0.193512 4.956421 -4.000000
v 2.668823 -6.737534 -4.000000
v -2.132904 -6.900696 -4.000000
vt 0.013321 0.951531
vt 0.013269 0.951487
vt 0.013359 0.951946
vt 0.013307 0.951899
vt 0.013300 0.951841
vt 0.013263 0.951802
vt 0.013255 0.951853
vt 0.013205 0.951807
vt 0.013273 0.951743
vt 0.013288 0.951646
vt 0.013295 0.951758
vt 0.013347 0.951523
vt 0.013295 0.951479
vt 0.013385 0.951938
vt 0.013333 0.951891
vt 0.013328 0.951832
vt 0.013289 0.951794
vt 0.013281 0.951845
vt 0.013231 0.951799
vt 0.013299 0.951735
vt 0.013315 0.951629
vt 0.013323 0.951754
vt 0.013321 0.951531
vt 0.013359 0.951946
vt 0.013307 0.951899
vt 0.013300 0.951841
vt 0.013255 0.951853
vt 0.013205 0.951807
vt 0.013269 0.951487
vt 0.013263 0.951802
vt 0.013288 0.951646
vt 0.013273 0.951743
vt 0.013295 0.951758
vt 0.013295 0.951479
vt 0.013347 0.951523
vt 0.013385 0.951938
vt 0.013333 0.951891
vt 0.013328 0.951832
vt 0.013289 0.951794
vt 0.013281 0.951845
vt 0.013231 0.951799
vt 0.013315 0.951629
vt 0.013299 0.951735
vt 0.013323 0.951754
vn 0.000000 0.000000 1.000000
vn 0.000000 0.000000 1.000000
vn 0.000000 0.000000 1.000000
vn 0.000000 0.000000 1.000000
vn 0.000000 0.000000 1.000000
vn 0.000000 0.000000 1.000000
vn 0.000000 0.000000 1.000000
vn 0.000000 0.000000 1.000000
vn 0.000000 0.000000 1.000000
vn 0.000000 0.000000 1.000000
vn 0.000000 0.000000 1.000000
vn 0.000000 0.000000 1.000000
vn 0.000000 0.000000 1.000000
vn 0.000000 0.000000 1.000000
vn 0.000000 0.000000 1.000000
vn 0.000000 0.000000 1.000000
vn 0.000000 0.000000 1.000000
vn 0.000000 0.000000 1.000000
vn 0.000000 0.000000 1.000000
vn 0.000000 0.000000 1.000000
vn 0.000000 0.000000 1.000000
vn 0.000000 0.000000 1.000000
vn 0.000000 0.000000 1.000000
vn 0.000000 0.000000 1.000000
vn 0.000000 0.000000 1.000000
vn 0.000000 0.000000 1.000000
vn 0.000000 0.000000 1.000000
vn 0.000000 0.964557 0.263875
vn 0.000000 0.964557 0.263875
vn 0.000000 0.964557 0.263875
vn 0.000000 0.964557 0.263875
vn -0.946446 0.214697 0.241133
vn -0.946446 0.214697 0.241133
vn -0.946446 0.214697 0.241133
vn -0.946446 0.214697 0.241133
vn 0.014102 -0.969994 0.242720
vn 0.014102 -0.969994 0.242720
vn 0.014102 -0.969994 0.242720
vn 0.014102 -0.969994 0.242720
vn 0.942829 -0.275268 0.187887
vn 0.942829 -0.275268 0.187887
vn 0.942829 -0.275268 0.187887
vn 0.942829 -0.275268 0.187887
vn -0.005337 -0.986795 0.161885
vn -0.005337 -0.986795 0.161885
vn -0.005337 -0.986795 0.161885
vn -0.005337 -0.986795 0.161885
vn -0.956860 -0.197533 0.213074
vn -0.956860 -0.197533 0.213074
vn -0.956860 -0.197533 0.213074
vn -0.956860 -0.197533 0.213074
vn -0.011604 -0.971103 0.238379
vn -0.011604 -0.971103 0.238379
vn -0.011604 -0.971103 0.238379
vn -0.011604 -0.971103 0.238379
vn 0.946446 0.214697 0.241133
vn 0.946446 0.214697 0.241133
vn 0.946446 0.214697 0.241133
vn 0.946446 0.214697 0.241133
vn -0.981321 -0.186621 0.046707
vn -0.981321 -0.186621 0.046707
vn -0.981321 -0.186621 0.046707
vn -0.981321 -0.186621 0.046707
vn -0.026040 0.992531 0.119178
vn -0.026040 0.992531 0.119178
vn -0.026040 0.992531 0.119178
vn -0.026040 0.992531 0.119178
vn 0.984161 -0.176540 -0.016144
vn 0.984161 -0.176540 -0.016144
vn 0.984161 -0.176540 -0.016144
vn 0.984161 -0.176540 -0.016144
vn 0.000000 0.000000 -1.000000
vn 0.000000 0.000000 -1.000000
vn 0.000000 0.000000 -1.000000
vn 0.000000 0.000000 -1.000000
vn 0.000000 0.000000 -1.000000
vn 0.000000 0.000000 -1.000000
vn 0.000000 0.000000 -1.000000
vn 0.000000 0.000000 -1.000000
vn 0.000000 0.000000 -1.000000
vn 0.000000 0.000000 -1.000000
vn 0.000000 0.000000 -1.000000
vn 0.000000 0.000000 -1.000000
vn 0.000000 0.000000 -1.000000
vn 0.000000 0.000000 -1.000000
vn 0.000000 0.000000 -1.000000
vn 0.000000 0.000000 -1.000000
vn 0.000000 0.000000 -1.000000
vn 0.000000 0.000000 -1.000000
vn 0.000000 0.000000 -1.000000
vn 0.000000 0.000000 -1.000000
vn 0.000000 0.000000 -1.000000
vn 0.000000 0.000000 -1.000000
vn 0.000000 0.000000 -1.000000
vn 0.000000 0.000000 -1.000000
vn 0.000000 0.000000 -1.000000
vn 0.000000 0.000000 -1.000000
vn 0.000000 0.000000 -1.000000
vn 0.000000 0.964557 -0.263875
vn 0.000000 0.964557 -0.263875
vn 0.000000 0.964557 -0.263875
vn 0.000000 0.964557 -0.263875
vn -0.946446 0.214697 -0.241133
vn -0.946446 0.214697 -0.241133
vn -0.946446 0.214697 -0.241133
vn -0.946446 0.214697 -0.241133
vn 0.014102 -0.969994 -0.242720
vn 0.014102 -0.969994 -0.242720
vn 0.014102 -0.969994 -0.242720
vn 0.014102 -0.969994 -0.242720
vn 0.942829 -0.275268 -0.187887
vn 0.942829 -0.275268 -0.187887
vn 0.942829 -0.275268 -0.187887
vn 0.942829 -0.275268 -0.187887
vn -0.005337 -0.986795 -0.161885
vn -0.005337 -0.986795 -0.161885
vn -0.005337 -0.986795 -0.161885
vn -0.005337 -0.986795 -0.161885
vn -0.956860 -0.197533 -0.213074
vn -0.956860 -0.197533 -0.213074
vn -0.956860 -0.197533 -0.213074
vn -0.956860 -0.197533 -0.213074
vn -0.011604 -0.971103 -0.238379
vn -0.011604 -0.971103 -0.238379
vn -0.011604 -0.971103 -0.238379
vn -0.011604 -0.971103 -0.238379
vn 0.946446 0.214697 -0.241133
vn 0.946446 0.214697 -0.241133
vn 0.946446 0.214697 -0.241133
vn 0.946446 0.214697 -0.241133
vn -0.981321 -0.186621 -0.046707
vn -0.981321 -0.186621 -0.046707
vn -0.981321 -0.186621 -0.046707
vn -0.981321 -0.186621 -0.046707
vn -0.026040 0.992531 -0.119178
vn -0.026040 0.992531 -0.119178
vn -0.026040 0.992531 -0.119178
vn -0.026040 0.992531 -0.119178
vn 0.984161 -0.176540 0.016144
vn 0.984161 -0.176540 0.016144
vn 0.984161 -0.176540 0.016144
vn 0.984161 -0.176540 0.016144
s off
f 2/1/1 3/3/2 4/4/3 5/5/4
f 7/7/5 8/8/6 1/2/7 6/6/8
f 2/1/9 9/10/10 1/2/11
f 9/10/12 10/9/13 1/2/14
f 1/2/15 10/9/16 6/6/17
f 5/5/18 6/6/19 10/9/20 11/11/21
f 5/5/22 11/11/23 2/1/24
f 11/11/25 9/10/26 2/1/27
f 13/13/28 12/12/29 2/1/30 1/2/31
f 12/12/32 14/14/33 3/3/34 2/1/35
f 14/14/36 15/15/37 4/4/38 3/3/39
f 15/15/40 16/16/41 5/5/42 4/4/43
f 16/16/44 17/17/45 6/6/46 5/5/47
f 17/17/48 18/18/49 7/7/50 6/6/51
f 18/18/52 19/19/53 8/8/54 7/7/55
f 19/19/56 13/13/57 1/2/58 8/8/59
f 21/21/60 20/20/61 10/9/62 9/10/63
f 20/20/64 22/22/65 11/11/66 10/9/67
f 22/22/68 21/21/69 9/10/70 11/11/71
f 24/23/72 27/26/73 26/25/74 25/24/75
f 29/27/76 28/30/77 23/29/78 30/28/79
f 24/23/80 23/29/81 31/31/82
f 31/31/83 23/29/84 32/32/85
f 23/29/86 28/30/87 32/32/88
f 27/26/89 33/33/90 32/32/91 28/30/92
f 27/26/93 24/23/94 33/33/95
f 33/33/96 24/23/97 31/31/98
f 13/34/99 23/29/100 24/23/101 12/35/102
f 12/35/103 24/23/104 25/24/105 14/36/106
f 14/36/107 25/24/108 26/25/109 15/37/110
f 15/37/111 26/25/112 27/26/113 16/38/114
f 16/38/115 27/26/116 28/30/117 17/39/118
f 17/39/119 28/30/120 29/27/121 18/40/122
f 18/40/123 29/27/124 30/28/125 19/41/126
f 19/41/127 30/28/128 23/29/129 13/34/130
f 21/42/131 31/31/132 32/32/133 20/43/134
f 20/43/135 32/32/136 33/33/137 22/44/138
f 22/44/139 33/33/140 31/31/141 21/42/142
