# This file uses centimeters as units for non-parametric coordinates.

v 7.489774 -7.159353 0.000000
v 0.000001 -17.721216 0.000000
v -7.489773 -7.159354 0.000000
v -2.621419 -7.159353 0.000000
v 2.621421 -7.159353 0.000000
v 0.000001 -16.376598 4.000000
v 2.213549 -7.833905 4.000000
v 5.991364 -7.856187 4.000000
v -6.170765 -7.833905 4.000000
v -2.213548 -8.009529 4.000000
v 0.000001 -16.376598 -4.000000
v 2.213549 -7.833905 -4.000000
v 5.991364 -7.856187 -4.000000
v -6.170765 -7.833905 -4.000000
v -2.213548 -8.009529 -4.000000
v 2.621423 1.007409 0.000000
v -2.621421 1.007411 0.000000
v -2.209668 -0.019206 4.000000
v 2.209671 0.244584 4.000000
v -2.209668 -0.019206 -4.000000
v 2.209671 0.244584 -4.000000
v -1.502969 -13.600212 4.000000
v -3.911031 -12.205991 0.000000
v -1.527497 -13.566255 -4.000000
v -17.545073 -6.157193 0.000000
v 4.125133 14.814349 -0.000000
v 10.085677 11.482819 -0.000000
v 11.567958 7.721117 0.000016
v 15.148268 7.609377 0.000110
v 19.604485 0.779014 -0.000220
v 11.505793 -6.157193 -0.000000
v 17.341774 -4.293593 -0.000220
v 18.603645 4.494854 -0.000038
v -19.695202 -2.762642 0.000000
v -16.848207 -4.829312 2.000000
v -18.882248 1.825134 0.000000
v -15.370054 5.527876 0.000000
v -11.635253 5.880221 0.000000
v -10.456205 7.463193 0.000000
v -8.019286 8.410642 0.000000
v -5.490018 7.664862 0.000000
v -2.821711 11.988710 0.000000
v -11.230541 5.160648 2.000000
v -9.968765 6.822934 2.000000
v -15.012482 4.793171 2.000000
v -18.141405 1.489592 2.000000
v -18.200932 -1.745056 2.000000
v 11.388834 -4.816364 2.000000
v 16.229891 -3.336516 2.000000
v 18.101963 0.897082 2.000000
v 17.280792 3.999869 2.000000
v 14.518442 6.584168 2.000000
v 10.620710 6.571946 2.000000
v 9.033541 10.710560 2.000000
v 3.977953 13.500782 2.000000
v -2.313875 11.351207 2.000000
v -5.185149 6.868423 2.000000
v -7.985149 7.598835 2.000000
v -16.848207 -4.829312 -2.000000
v -11.230541 5.160648 -2.000000
v -9.968765 6.822934 -2.000000
v -15.012482 4.793171 -2.000000
v -18.141405 1.489592 -2.000000
v -18.200932 -1.745056 -2.000000
v 11.388834 -4.816364 -2.000000
v 16.229891 -3.336516 -2.000000
v 18.101963 0.897082 -2.000000
v 17.280792 3.999869 -2.000000
v 14.518442 6.584168 -2.000000
v 10.620710 6.571946 -2.000000
v 9.033541 10.710560 -2.000000
v 3.977953 13.500782 -2.000000
v -2.313875 11.351207 -2.000000
v -5.185149 6.868422 -2.000000
v -7.985149 7.598835 -2.000000
vt 0.516932 0.951537
vt 0.517919 0.952039
vt 0.517922 0.951039
vt 0.517919 0.952039
vt 0.517922 0.951039
vt 0.517920 0.951789
vt 0.517919 0.952039
vt 0.517919 0.952039
vt 0.516932 0.951537
vt 0.517922 0.951039
vt 0.517922 0.951039
vt 0.517922 0.951289
vt 0.517012 0.951538
vt 0.517920 0.951789
vt 0.517012 0.951538
vt 0.517667 0.951417
vt 0.517673 0.951664
vt 0.517673 0.951664
vt 0.517667 0.951417
vt 0.517632 0.951643
vt 0.517922 0.951289
vt 0.517920 0.951789
vt 0.517922 0.951289
vt 0.517632 0.951435
vt 0.517494 0.951274
vt 0.517449 0.951277
vt 0.517449 0.951277
vt 0.517497 0.951272
vt 0.984396 0.981255
vt 0.984309 0.981344
vt 0.984386 0.981169
vt 0.984302 0.981082
vt 0.983601 0.981337
vt 0.984201 0.981072
vt 0.984168 0.981029
vt 0.984115 0.981009
vt 0.984041 0.981028
vt 0.983964 0.980911
vt 0.983799 0.980856
vt 0.983665 0.980929
vt 0.983623 0.981037
vt 0.983473 0.981298
vt 0.983424 0.981186
vt 0.983447 0.981105
vt 0.983520 0.981037
vt 0.983611 0.981379
vt 0.983463 0.981332
vt 0.983407 0.981203
vt 0.983433 0.981109
vt 0.983521 0.981031
vt 0.983612 0.981028
vt 0.983650 0.980933
vt 0.983800 0.980850
vt 0.983976 0.980920
vt 0.984170 0.981033
vt 0.984201 0.981072
vt 0.984296 0.981081
vt 0.984387 0.981175
vt 0.984433 0.981280
vt 0.984322 0.981382
vt 0.984044 0.981028
vt 0.984108 0.981009
vt 0.983464 0.981213
vt 0.983508 0.981316
vt 0.983627 0.981352
vt 0.983484 0.981137
vt 0.983552 0.981075
vt 0.983647 0.981075
vt 0.984280 0.981347
vt 0.983686 0.980975
vt 0.983809 0.980908
vt 0.984360 0.981276
vt 0.984351 0.981197
vt 0.984273 0.981116
vt 0.984180 0.981108
vt 0.984149 0.981068
vt 0.984101 0.981049
vt 0.984032 0.981067
vt 0.983962 0.980959
vn 0.000000 0.000000 1.000000
vn 0.000000 0.000000 1.000000
vn 0.000000 0.000000 1.000000
vn 0.002540 0.985519 0.169546
vn 0.002540 0.985519 0.169546
vn 0.002540 0.985519 0.169546
vn 0.002540 0.985519 0.169546
vn 0.800926 -0.565834 0.195832
vn 0.800926 -0.565834 0.195832
vn 0.800926 -0.565834 0.195832
vn 0.800926 -0.565834 0.195832
vn 0.019559 0.982898 0.183110
vn 0.019559 0.982898 0.183110
vn 0.019559 0.982898 0.183110
vn 0.019559 0.982898 0.183110
vn -0.777599 -0.593039 0.208913
vn -0.777599 -0.593039 0.208913
vn -0.777599 -0.593039 0.208913
vn -0.777599 -0.593039 0.208913
vn 0.002540 0.985519 -0.169546
vn 0.002540 0.985519 -0.169546
vn 0.002540 0.985519 -0.169546
vn 0.002540 0.985519 -0.169546
vn 0.019559 0.982898 -0.183110
vn 0.019559 0.982898 -0.183110
vn 0.019559 0.982898 -0.183110
vn 0.019559 0.982898 -0.183110
vn -0.777536 -0.593090 -0.209004
vn -0.777536 -0.593090 -0.209004
vn -0.777536 -0.593090 -0.209004
vn -0.777536 -0.593090 -0.209004
vn 0.000000 0.000000 -1.000000
vn 0.000000 0.000000 -1.000000
vn 0.000000 0.000000 -1.000000
vn 0.800926 -0.565834 -0.195832
vn 0.800926 -0.565834 -0.195832
vn 0.800926 -0.565834 -0.195832
vn 0.800926 -0.565834 -0.195832
vn 0.000000 0.000000 1.000000
vn 0.000000 0.000000 1.000000
vn 0.000000 0.000000 1.000000
vn 0.000000 0.000000 1.000000
vn 0.000000 0.000000 1.000000
vn 0.000000 0.000000 1.000000
vn 0.000000 0.000000 -1.000000
vn 0.000000 0.000000 -1.000000
vn 0.000000 0.000000 -1.000000
vn -0.000000 0.000000 -1.000000
vn -0.000000 0.000000 -1.000000
vn -0.000000 0.000000 -1.000000
vn 0.000000 0.000000 1.000000
vn 0.000000 0.000000 1.000000
vn 0.000000 0.000000 1.000000
vn 0.000000 0.000000 -1.000000
vn 0.000000 0.000000 -1.000000
vn 0.000000 0.000000 -1.000000
vn -0.026634 0.975539 -0.218209
vn -0.026634 0.975539 -0.218209
vn -0.026634 0.975539 -0.218209
vn -0.026634 0.975539 -0.218209
vn -0.026634 0.975539 0.218209
vn -0.026634 0.975539 0.218209
vn -0.026634 0.975539 0.218209
vn -0.026634 0.975539 0.218209
vn 0.994785 0.000440 0.101998
vn 0.994785 0.000440 0.101998
vn 0.994785 0.000440 0.101998
vn 0.994785 0.000440 0.101998
vn -0.994782 0.000444 0.102023
vn -0.994782 0.000444 0.102023
vn -0.994782 0.000444 0.102023
vn -0.994782 0.000444 0.102023
vn 0.994785 0.000440 -0.101997
vn 0.994785 0.000440 -0.101997
vn 0.994785 0.000440 -0.101997
vn 0.994785 0.000440 -0.101997
vn -0.994782 0.000444 -0.102023
vn -0.994782 0.000444 -0.102023
vn -0.994782 0.000444 -0.102023
vn -0.994782 0.000444 -0.102023
vn 0.000000 0.000000 1.000000
vn 0.000000 0.000000 1.000000
vn 0.000000 0.000000 1.000000
vn 0.000000 0.000000 -1.000000
vn 0.000000 0.000000 -1.000000
vn 0.000000 0.000000 -1.000000
vn -0.000000 0.000000 1.000000
vn -0.000000 0.000000 1.000000
vn -0.000000 0.000000 1.000000
vn -0.812571 -0.530568 0.241300
vn -0.812571 -0.530568 0.241300
vn -0.812571 -0.530568 0.241300
vn -0.812571 -0.530568 0.241300
vn -0.812519 -0.530764 -0.241045
vn -0.812519 -0.530764 -0.241045
vn -0.812519 -0.530764 -0.241045
vn -0.812519 -0.530764 -0.241045
vn 0.000000 0.000000 -1.000000
vn 0.000000 0.000000 -1.000000
vn 0.000000 0.000000 -1.000000
vn 0.000000 0.000000 1.000000
vn 0.000000 0.000000 1.000000
vn 0.000000 0.000000 1.000000
vn 0.000000 0.000000 1.000000
vn 0.000000 0.000000 1.000000
vn 0.000000 0.000000 1.000000
vn 0.000000 0.000000 1.000000
vn 0.000000 0.000000 1.000000
vn 0.000000 0.000000 1.000000
vn 0.000000 0.000000 1.000000
vn -0.000000 0.000000 1.000000
vn -0.000000 0.000000 1.000000
vn -0.000000 0.000000 1.000000
vn -0.000000 0.000000 1.000000
vn -0.000000 0.000000 1.000000
vn -0.000000 0.000000 1.000000
vn -0.000000 0.000000 1.000000
vn 0.000000 0.000000 1.000000
vn 0.000000 0.000000 1.000000
vn 0.000000 0.000000 1.000000
vn 0.000000 0.000000 1.000000
vn 0.000000 0.000000 1.000000
vn 0.000000 0.000000 1.000000
vn 0.000000 0.000000 1.000000
vn 0.000000 0.000000 1.000000
vn 0.000000 0.000000 1.000000
vn 0.000000 0.000000 1.000000
vn 0.000000 0.000000 1.000000
vn 0.000000 0.000000 1.000000
vn 0.000000 0.000000 1.000000
vn 0.000000 0.000000 1.000000
vn 0.000000 0.000000 1.000000
vn 0.000000 0.000000 1.000000
vn 0.251710 -0.803781 0.539052
vn 0.251710 -0.803781 0.539052
vn 0.251710 -0.803781 0.539052
vn 0.251710 -0.803781 0.539052
vn 0.746427 -0.331640 0.576942
vn 0.746427 -0.331640 0.576942
vn 0.746427 -0.331640 0.576942
vn 0.746427 -0.331640 0.576942
vn 0.788982 0.210809 0.577120
vn 0.788982 0.210809 0.577120
vn 0.788982 0.210809 0.577120
vn 0.788982 0.210809 0.577120
vn 0.576826 0.629336 0.520776
vn 0.576826 0.629336 0.520776
vn 0.576826 0.629336 0.520776
vn 0.576826 0.629336 0.520776
vn 0.011659 0.876579 0.481116
vn 0.011659 0.876579 0.481116
vn 0.011659 0.876579 0.481116
vn 0.011659 0.876579 0.481116
vn 0.785140 0.305046 0.538982
vn 0.785140 0.305046 0.538982
vn 0.785140 0.305046 0.538982
vn 0.785140 0.305046 0.538982
vn 0.416257 0.749057 0.515406
vn 0.416257 0.749057 0.515406
vn 0.416257 0.749057 0.515406
vn 0.416257 0.749057 0.515406
vn -0.316113 0.841152 0.438789
vn -0.316113 0.841152 0.438789
vn -0.316113 0.841152 0.438789
vn -0.316113 0.841152 0.438789
vn -0.746421 0.561399 0.357332
vn -0.746421 0.561399 0.357332
vn -0.746421 0.561399 0.357332
vn -0.746421 0.561399 0.357332
vn -0.089107 0.930502 0.355283
vn -0.089107 0.930502 0.355283
vn -0.089107 0.930502 0.355283
vn -0.089107 0.930502 0.355283
vn -0.677677 0.642353 0.357962
vn -0.677677 0.642353 0.357962
vn -0.677677 0.642353 0.357962
vn -0.677677 0.642353 0.357962
vn -0.875785 0.097682 0.472714
vn -0.875785 0.097682 0.472714
vn -0.875785 0.097682 0.472714
vn -0.875785 0.097682 0.472714
vn -0.700103 -0.378520 0.605457
vn -0.700103 -0.378520 0.605457
vn -0.700103 -0.378520 0.605457
vn -0.700103 -0.378520 0.605457
vn -0.795700 0.500515 0.341095
vn -0.795700 0.500515 0.341095
vn -0.795700 0.500515 0.341095
vn -0.795700 0.500515 0.341095
vn 0.250776 0.905337 0.342748
vn 0.250776 0.905337 0.342748
vn 0.250776 0.905337 0.342748
vn 0.250776 0.905337 0.342748
vn -0.338904 0.869317 0.359767
vn -0.338904 0.869317 0.359767
vn -0.338904 0.869317 0.359767
vn -0.338904 0.869317 0.359767
vn -0.000000 0.000000 -1.000000
vn -0.000000 0.000000 -1.000000
vn -0.000000 0.000000 -1.000000
vn -0.000000 0.000000 -1.000000
vn 0.000000 0.000000 -1.000000
vn 0.000000 0.000000 -1.000000
vn 0.000000 0.000000 -1.000000
vn 0.000000 0.000000 -1.000000
vn 0.000000 0.000000 -1.000000
vn 0.000000 0.000000 -1.000000
vn 0.000000 0.000000 -1.000000
vn -0.000000 0.000000 -1.000000
vn -0.000000 0.000000 -1.000000
vn -0.000000 0.000000 -1.000000
vn -0.000000 0.000000 -1.000000
vn 0.000000 0.000000 -1.000000
vn 0.000000 0.000000 -1.000000
vn 0.000000 0.000000 -1.000000
vn 0.000000 0.000000 -1.000000
vn 0.000000 0.000000 -1.000000
vn 0.000000 0.000000 -1.000000
vn 0.000000 0.000000 -1.000000
vn 0.000000 0.000000 -1.000000
vn 0.000000 0.000000 -1.000000
vn 0.000000 0.000000 -1.000000
vn 0.000000 0.000000 -1.000000
vn -0.000000 0.000000 -1.000000
vn -0.000000 0.000000 -1.000000
vn -0.000000 0.000000 -1.000000
vn 0.000000 0.000000 -1.000000
vn 0.000000 0.000000 -1.000000
vn 0.000000 0.000000 -1.000000
vn 0.000000 0.000000 -1.000000
vn 0.000000 0.000000 -1.000000
vn 0.000000 0.000000 -1.000000
vn -0.700103 -0.378520 -0.605457
vn -0.700103 -0.378520 -0.605457
vn -0.700103 -0.378520 -0.605457
vn -0.700103 -0.378520 -0.605457
vn 0.000188 -0.831867 -0.554975
vn 0.000188 -0.831867 -0.554975
vn 0.000188 -0.831867 -0.554975
vn 0.000188 -0.831867 -0.554975
vn -0.746421 0.561399 -0.357332
vn -0.746421 0.561399 -0.357332
vn -0.746421 0.561399 -0.357332
vn -0.746421 0.561399 -0.357332
vn -0.089107 0.930502 -0.355283
vn -0.089107 0.930502 -0.355283
vn -0.089107 0.930502 -0.355283
vn -0.089107 0.930502 -0.355283
vn -0.677677 0.642353 -0.357962
vn -0.677677 0.642353 -0.357962
vn -0.677677 0.642353 -0.357962
vn -0.677677 0.642353 -0.357962
vn -0.875785 0.097682 -0.472714
vn -0.875785 0.097682 -0.472714
vn -0.875785 0.097682 -0.472714
vn -0.875785 0.097682 -0.472714
vn 0.251682 -0.803763 -0.539093
vn 0.251682 -0.803763 -0.539093
vn 0.251682 -0.803763 -0.539093
vn 0.251682 -0.803763 -0.539093
vn 0.746372 -0.331616 -0.577027
vn 0.746372 -0.331616 -0.577027
vn 0.746372 -0.331616 -0.577027
vn 0.746372 -0.331616 -0.577027
vn 0.788942 0.210829 -0.577167
vn 0.788942 0.210829 -0.577167
vn 0.788942 0.210829 -0.577167
vn 0.788942 0.210829 -0.577167
vn 0.576819 0.629355 -0.520761
vn 0.576819 0.629355 -0.520761
vn 0.576819 0.629355 -0.520761
vn 0.576819 0.629355 -0.520761
vn 0.011672 0.876590 -0.481096
vn 0.011672 0.876590 -0.481096
vn 0.011672 0.876590 -0.481096
vn 0.011672 0.876590 -0.481096
vn 0.785143 0.305045 -0.538979
vn 0.785143 0.305045 -0.538979
vn 0.785143 0.305045 -0.538979
vn 0.785143 0.305045 -0.538979
vn 0.416257 0.749057 -0.515406
vn 0.416257 0.749057 -0.515406
vn 0.416257 0.749057 -0.515406
vn 0.416257 0.749057 -0.515406
vn -0.316113 0.841152 -0.438789
vn -0.316113 0.841152 -0.438789
vn -0.316113 0.841152 -0.438789
vn -0.316113 0.841152 -0.438789
vn -0.795700 0.500515 -0.341095
vn -0.795700 0.500515 -0.341095
vn -0.795700 0.500515 -0.341095
vn -0.795700 0.500515 -0.341095
vn 0.250776 0.905337 -0.342748
vn 0.250776 0.905337 -0.342748
vn 0.250776 0.905337 -0.342748
vn 0.250776 0.905337 -0.342748
vn -0.338904 0.869317 -0.359767
vn -0.338904 0.869317 -0.359767
vn -0.338904 0.869317 -0.359767
vn -0.338904 0.869317 -0.359767
vn 0.000188 -0.831867 0.554975
vn 0.000188 -0.831867 0.554975
vn 0.000188 -0.831867 0.554975
vn 0.000188 -0.831867 0.554975
s off
f 6/13/1 7/14/2 19/18/3
f 5/22/4 7/14/5 8/4/6 1/2/7
f 2/1/8 1/2/9 8/4/10 6/13/11
f 3/3/12 9/5/13 10/12/14 4/21/15
f 3/3/16 23/27/17 22/25/18 9/5/19
f 5/22/20 1/7/21 13/8/22 12/6/23
f 3/10/24 4/21/25 15/23/26 14/11/27
f 3/10/28 14/11/29 24/28/30 23/26/31
f 11/15/32 21/17/33 12/6/34
f 2/9/35 11/15/36 13/8/37 1/7/38
f 6/13/39 8/4/40 7/14/41
f 10/12/42 22/25/43 6/13/44
f 24/28/45 14/11/46 15/23/47
f 11/15/48 12/6/49 13/8/50
f 18/19/51 10/12/52 6/13/53
f 11/15/54 15/23/55 20/16/56
f 16/20/57 21/17/58 20/16/59 17/24/60
f 17/24/61 18/19/62 19/18/63 16/20/64
f 16/20/65 19/18/66 7/14/67 5/22/68
f 4/21/69 10/12/70 18/19/71 17/24/72
f 16/20/73 5/22/74 12/6/75 21/17/76
f 4/21/77 17/24/78 20/16/79 15/23/80
f 18/19/81 6/13/82 19/18/83
f 20/16/84 21/17/85 11/15/86
f 10/12/87 9/5/88 22/25/89
f 23/27/90 2/1/91 6/13/92 22/25/93
f 24/28/94 11/15/95 2/9/96 23/26/97
f 11/15/98 24/28/99 15/23/100
f 47/29/101 35/30/102 46/31/103
f 45/32/104 46/31/105 35/30/106 48/33/107
f 45/32/108 48/33/109 43/34/110
f 44/35/111 43/34/112 48/33/113 58/36/114
f 58/36/115 48/33/116 57/37/117
f 56/38/118 57/37/119 48/33/120 55/39/121
f 54/40/122 55/39/123 48/33/124 53/41/125
f 53/41/126 48/33/127 49/42/128 50/43/129
f 53/41/130 50/43/131 51/44/132 52/45/133
f 31/46/134 32/47/135 49/42/136 48/33/137
f 32/47/138 30/48/139 50/43/140 49/42/141
f 30/48/142 33/49/143 51/44/144 50/43/145
f 33/49/146 29/50/147 52/45/148 51/44/149
f 29/50/150 28/51/151 53/41/152 52/45/153
f 28/51/154 27/52/155 54/40/156 53/41/157
f 27/52/158 26/53/159 55/39/160 54/40/161
f 55/39/162 26/53/163 42/54/164 56/38/165
f 39/55/166 38/56/167 43/34/168 44/35/169
f 38/56/170 37/57/171 45/32/172 43/34/173
f 37/57/174 36/58/175 46/31/176 45/32/177
f 36/58/178 34/59/179 47/29/180 46/31/181
f 35/30/182 47/29/183 34/59/184 25/60/185
f 42/54/186 41/61/187 57/37/188 56/38/189
f 41/61/190 40/62/191 58/36/192 57/37/193
f 40/62/194 39/55/195 44/35/196 58/36/197
f 67/63/198 66/64/199 65/65/200 68/66/201
f 69/67/202 68/66/203 65/65/204 70/68/205
f 65/65/206 59/69/207 70/68/208
f 71/70/209 70/68/210 59/69/211 72/71/212
f 64/72/213 63/73/214 59/69/215
f 59/69/216 63/73/217 62/74/218 60/75/219
f 61/76/220 75/77/221 74/78/222 60/75/223
f 60/75/224 74/78/225 59/69/226
f 59/69/227 74/78/228 72/71/229
f 74/78/230 73/79/231 72/71/232
f 59/69/233 25/60/234 34/59/235 64/72/236
f 31/46/237 25/60/238 59/69/239 65/65/240
f 39/55/241 61/76/242 60/75/243 38/56/244
f 38/56/245 60/75/246 62/74/247 37/57/248
f 37/57/249 62/74/250 63/73/251 36/58/252
f 36/58/253 63/73/254 64/72/255 34/59/256
f 31/46/257 65/65/258 66/64/259 32/47/260
f 32/47/261 66/64/262 67/63/263 30/48/264
f 30/48/265 67/63/266 68/66/267 33/49/268
f 33/49/269 68/66/270 69/67/271 29/50/272
f 29/50/273 69/67/274 70/68/275 28/51/276
f 28/51/277 70/68/278 71/70/279 27/52/280
f 27/52/281 71/70/282 72/71/283 26/53/284
f 72/71/285 73/79/286 42/54/287 26/53/288
f 42/54/289 73/79/290 74/78/291 41/61/292
f 41/61/293 74/78/294 75/77/295 40/62/296
f 40/62/297 75/77/298 61/76/299 39/55/300
f 31/46/301 48/33/302 35/30/303 25/60/304
