# This file uses centimeters as units for non-parametric coordinates.

v -19.056337 14.928330 2.047183
v -7.416390 14.928330 2.047183
v -1.699489 11.117064 2.047183
v 11.736425 11.117064 2.047183
v -11.501720 4.256783 2.047183
v 11.736425 4.256783 2.047183
v 19.056337 4.256783 2.047183
v -19.056337 -14.952006 2.047183
v 11.736425 -14.952006 2.047183
v -10.783967 3.657429 3.952817
v -17.867146 -14.352653 3.952817
v 11.004025 -14.352653 3.952817
v 17.867146 3.657429 3.952817
v -20.000000 15.668162 0.000000
v -1.783647 11.668162 0.000000
v -7.783647 15.668162 0.000000
v 12.317609 11.668162 0.000000
v -20.000000 -15.691837 0.000000
v 12.317609 4.468163 0.000000
v 20.000000 4.468163 0.000000
v 12.317609 -15.691837 0.000000
v -19.056337 14.928330 -2.047183
v -7.416390 14.928330 -2.047183
v -1.699489 11.117064 -2.047183
v 11.736425 11.117064 -2.047183
v -11.501720 4.256783 -2.047183
v 11.736425 4.256783 -2.047183
v 19.056337 4.256783 -2.047183
v -19.056337 -14.952006 -2.047183
v 11.736425 -14.952006 -2.047183
v -10.783967 3.657429 -3.952817
v -17.867146 -14.352653 -3.952817
v 11.004025 -14.352653 -3.952817
v 17.867146 3.657429 -3.952817
vt 0.925579 0.983443
vt 0.925327 0.983397
vt 0.925227 0.983478
vt 0.924973 0.983443
vt 0.925508 0.983658
vt 0.925002 0.983605
vt 0.925200 0.953671
vt 0.925714 0.984191
vt 0.925023 0.953651
vt 0.925763 0.953676
vt 0.925951 0.954183
vt 0.925182 0.954127
vt 0.925000 0.953648
vt 0.925516 0.983464
vt 0.925248 0.983462
vt 0.925296 0.983399
vt 0.925083 0.983394
vt 0.925729 0.984201
vt 0.925141 0.983539
vt 0.925036 0.953707
vt 0.925214 0.953741
vt 0.925791 0.953653
vt 0.925960 0.954190
vt 0.925146 0.954080
vt 0.925943 0.954249
vt 0.925090 0.954081
vt 0.925227 0.983478
vt 0.925327 0.983397
vt 0.925508 0.983658
vt 0.925579 0.983443
vt 0.925714 0.984191
vt 0.925002 0.983605
vt 0.924973 0.983443
vt 0.925763 0.953676
vt 0.925951 0.954183
vt 0.925182 0.954127
vt 0.925000 0.953648
vt 0.925791 0.953653
vt 0.925960 0.954190
vt 0.925146 0.954080
vt 0.925200 0.953671
vt 0.925023 0.953651
vt 0.925248 0.983462
vt 0.925296 0.983399
vt 0.925083 0.983394
vt 0.925516 0.983464
vt 0.925729 0.984201
vt 0.925141 0.983539
vt 0.925036 0.953707
vt 0.925214 0.953741
vt 0.925943 0.954249
vt 0.925090 0.954081
vn 0.000000 0.000000 1.000000
vn 0.000000 0.000000 1.000000
vn 0.000000 0.000000 1.000000
vn 0.000000 0.000000 1.000000
vn 0.000000 0.000000 1.000000
vn 0.000000 0.000000 1.000000
vn 0.000000 0.000000 1.000000
vn 0.000000 0.000000 1.000000
vn 0.000000 0.000000 1.000000
vn 0.000000 0.000000 1.000000
vn 0.000000 0.000000 1.000000
vn 0.000000 0.000000 1.000000
vn 0.000000 0.000000 1.000000
vn 0.000000 0.000000 1.000000
vn 0.000000 0.000000 1.000000
vn 0.000000 0.000000 1.000000
vn 0.000000 0.000000 1.000000
vn -0.843643 0.331796 0.422112
vn -0.843643 0.331796 0.422112
vn -0.843643 0.331796 0.422112
vn -0.843643 0.331796 0.422112
vn 0.000000 -0.953931 0.300027
vn 0.000000 -0.953931 0.300027
vn 0.000000 -0.953931 0.300027
vn 0.000000 -0.953931 0.300027
vn 0.000000 0.953931 0.300027
vn 0.000000 0.953931 0.300027
vn 0.000000 0.953931 0.300027
vn 0.000000 0.953931 0.300027
vn 0.000000 0.953931 0.300027
vn 0.000000 0.953931 0.300027
vn 0.000000 0.953931 0.300027
vn 0.845329 -0.322131 0.426204
vn 0.845329 -0.322131 0.426204
vn 0.845329 -0.322131 0.426204
vn 0.845329 -0.322131 0.426204
vn 0.554700 0.832050 0.000000
vn 0.554700 0.832050 0.000000
vn 0.554700 0.832050 0.000000
vn 0.554700 0.832050 0.000000
vn 0.000000 1.000000 0.000000
vn 0.000000 1.000000 0.000000
vn 0.000000 1.000000 0.000000
vn 0.000000 1.000000 0.000000
vn -1.000000 0.000000 0.000000
vn -1.000000 0.000000 0.000000
vn -1.000000 0.000000 0.000000
vn -1.000000 0.000000 0.000000
vn 1.000000 0.000000 0.000000
vn 1.000000 0.000000 0.000000
vn 1.000000 0.000000 0.000000
vn 1.000000 0.000000 0.000000
vn 0.000000 1.000000 0.000000
vn 0.000000 1.000000 0.000000
vn 0.000000 1.000000 0.000000
vn 0.000000 1.000000 0.000000
vn 0.000000 -1.000000 0.000000
vn 0.000000 -1.000000 0.000000
vn 0.000000 -1.000000 0.000000
vn 0.000000 -1.000000 0.000000
vn 0.934451 -0.356092 0.000000
vn 0.934451 -0.356092 0.000000
vn 0.934451 -0.356092 0.000000
vn 0.934451 -0.356092 0.000000
vn 0.000000 1.000000 0.000000
vn 0.000000 1.000000 0.000000
vn 0.000000 1.000000 0.000000
vn 0.000000 1.000000 0.000000
vn 0.000000 0.000000 -1.000000
vn 0.000000 0.000000 -1.000000
vn 0.000000 0.000000 -1.000000
vn 0.000000 0.000000 -1.000000
vn 0.000000 0.000000 -1.000000
vn 0.000000 0.000000 -1.000000
vn 0.000000 0.000000 -1.000000
vn 0.000000 0.000000 -1.000000
vn 0.000000 0.000000 -1.000000
vn 0.000000 0.000000 -1.000000
vn 0.000000 0.000000 -1.000000
vn 0.000000 0.000000 -1.000000
vn 0.000000 0.000000 -1.000000
vn 0.000000 0.000000 -1.000000
vn 0.000000 0.000000 -1.000000
vn 0.000000 0.000000 -1.000000
vn 0.000000 0.000000 -1.000000
vn -0.843643 0.331796 -0.422112
vn -0.843643 0.331796 -0.422112
vn -0.843643 0.331796 -0.422112
vn -0.843643 0.331796 -0.422112
vn 0.000000 -0.953931 -0.300027
vn 0.000000 -0.953931 -0.300027
vn 0.000000 -0.953931 -0.300027
vn 0.000000 -0.953931 -0.300027
vn 0.000000 0.953931 -0.300027
vn 0.000000 0.953931 -0.300027
vn 0.000000 0.953931 -0.300027
vn 0.000000 0.953931 -0.300027
vn 0.000000 0.953931 -0.300027
vn 0.000000 0.953931 -0.300027
vn 0.000000 0.953931 -0.300027
vn 0.845329 -0.322131 -0.426204
vn 0.845329 -0.322131 -0.426204
vn 0.845329 -0.322131 -0.426204
vn 0.845329 -0.322131 -0.426204
vn 0.554700 0.832050 0.000000
vn 0.554700 0.832050 0.000000
vn 0.554700 0.832050 0.000000
vn 0.554700 0.832050 0.000000
vn 0.000000 1.000000 0.000000
vn 0.000000 1.000000 0.000000
vn 0.000000 1.000000 0.000000
vn 0.000000 1.000000 0.000000
vn -1.000000 0.000000 0.000000
vn -1.000000 0.000000 0.000000
vn -1.000000 0.000000 0.000000
vn -1.000000 0.000000 0.000000
vn 1.000000 0.000000 0.000000
vn 1.000000 0.000000 0.000000
vn 1.000000 0.000000 0.000000
vn 1.000000 0.000000 0.000000
vn 0.000000 1.000000 0.000000
vn 0.000000 1.000000 0.000000
vn 0.000000 1.000000 0.000000
vn 0.000000 1.000000 0.000000
vn 0.000000 -1.000000 0.000000
vn 0.000000 -1.000000 0.000000
vn 0.000000 -1.000000 0.000000
vn 0.000000 -1.000000 0.000000
vn 0.934451 -0.356092 0.000000
vn 0.934451 -0.356092 0.000000
vn 0.934451 -0.356092 0.000000
vn 0.934451 -0.356092 0.000000
vn 0.000000 1.000000 0.000000
vn 0.000000 1.000000 0.000000
vn 0.000000 1.000000 0.000000
vn 0.000000 1.000000 0.000000
s off
f 3/3/1 2/2/2 5/5/3
f 5/5/4 1/1/5 8/8/6
f 5/5/7 6/6/8 4/4/9 3/3/10
f 10/10/11 11/11/12 12/12/13 13/13/14
f 2/2/15 1/1/16 5/5/17
f 5/22/18 8/23/19 11/11/20 10/10/21
f 11/11/22 8/23/23 9/24/24 12/12/25
f 6/7/26 5/22/27 10/10/28 13/13/29
f 7/9/30 6/7/31 13/13/32
f 9/24/33 7/9/34 13/13/35 12/12/36
f 2/2/37 3/3/38 15/15/39 16/16/40
f 3/3/41 4/4/42 17/17/43 15/15/44
f 14/14/45 18/18/46 8/8/47 1/1/48
f 4/4/49 6/6/50 19/19/51 17/17/52
f 6/7/53 7/9/54 20/20/55 19/21/56
f 18/25/57 21/26/58 9/24/59 8/23/60
f 7/9/61 9/24/62 21/26/63 20/20/64
f 1/1/65 2/2/66 16/16/67 14/14/68
f 24/27/69 26/29/70 23/28/71
f 26/29/72 29/31/73 22/30/74
f 26/29/75 24/27/76 25/33/77 27/32/78
f 31/34/79 34/37/80 33/36/81 32/35/82
f 23/28/83 26/29/84 22/30/85
f 26/38/86 31/34/87 32/35/88 29/39/89
f 32/35/90 33/36/91 30/40/92 29/39/93
f 27/41/94 34/37/95 31/34/96 26/38/97
f 28/42/98 34/37/99 27/41/100
f 30/40/101 33/36/102 34/37/103 28/42/104
f 23/28/105 16/44/106 15/43/107 24/27/108
f 24/27/109 15/43/110 17/45/111 25/33/112
f 14/46/113 22/30/114 29/31/115 18/47/116
f 25/33/117 17/45/118 19/48/119 27/32/120
f 27/41/121 19/50/122 20/49/123 28/42/124
f 18/51/125 29/39/126 30/40/127 21/52/128
f 28/42/129 20/49/130 21/52/131 30/40/132
f 22/30/133 14/46/134 16/44/135 23/28/136
