# This file uses centimeters as units for non-parametric coordinates.

v 13.688896 19.145741 0.000000
v 15.355125 17.576389 0.000000
v 13.924205 17.879597 -2.077878
v 18.083136 15.272135 0.000000
v 19.559092 13.522637 0.000000
v 18.172197 13.987398 -2.077878
v 11.708414 16.275045 0.000000
v 13.391003 14.871290 0.000000
v 12.360169 15.637703 -2.077877
v 15.901410 12.776835 0.000000
v 17.585352 11.372104 0.000000
v 16.545103 12.145961 -2.077877
v 9.966050 13.749509 0.000000
v 11.581229 12.378769 0.000000
v 10.632303 13.160971 -2.077877
v 13.861421 10.443644 0.000000
v 15.475817 9.073604 0.000000
v 14.523777 9.858356 -2.077877
v 4.041154 5.185229 0.000000
v 5.813166 4.558586 0.000000
v 4.699439 4.702867 -2.077876
v 7.710289 3.512973 0.000000
v 8.855400 2.029741 0.000000
v 7.761062 2.323697 -2.077876
v -14.775544 -2.416643 0.000000
v -6.868047 6.526457 0.000000
v 7.964049 5.124285 0.000000
v 14.566142 -3.126455 0.000000
v 12.405802 -3.045599 -2.077881
v 7.299120 4.552519 -2.077881
v -5.177667 4.871881 -2.077881
v -12.052361 -2.605261 -2.077881
v 0.123807 8.193838 0.000000
v 1.124554 6.430971 -2.077881
v 18.265831 -2.751806 0.000000
v 14.781518 -13.687746 0.000000
v 8.009410 -18.391428 0.000000
v -8.724416 -18.391428 0.000000
v -14.620030 -13.687746 0.000000
v -18.460873 -2.751833 0.000000
v -14.277207 -3.802210 -3.999999
v -11.580888 -12.493853 -3.999999
v -6.163121 -16.896425 -3.999999
v 5.470412 -16.372774 -3.999999
v 11.679503 -12.493853 -3.999999
v 14.853534 -4.576910 -3.999999
v -17.928402 -8.232244 0.000000
v -14.294385 -7.670023 -3.999999
v 18.160557 -7.692457 0.000000
v 14.405318 -7.198149 -3.999999
v -13.423028 -2.933905 -3.999999
v 13.300536 -2.548296 -3.999999
v -16.624783 -1.883520 0.000000
v 16.332180 -1.883512 0.000000
v 13.924205 17.879597 2.077878
v 18.172197 13.987398 2.077878
v 12.360169 15.637703 2.077877
v 16.545103 12.145961 2.077877
v 10.632303 13.160971 2.077877
v 14.523777 9.858356 2.077877
v 4.699439 4.702867 2.077876
v 7.761062 2.323697 2.077876
v 12.405802 -3.045599 2.077881
v 7.299120 4.552519 2.077881
v -5.177667 4.871881 2.077881
v -12.052361 -2.605261 2.077881
v 1.124554 6.430971 2.077881
v -14.277207 -3.802210 3.999999
v -11.580888 -12.493853 3.999999
v -6.163121 -16.896425 3.999999
v 5.470412 -16.372774 3.999999
v 11.679503 -12.493853 3.999999
v 14.853534 -4.576910 3.999999
v -14.294385 -7.670023 3.999999
v 14.405318 -7.198149 3.999999
v -13.423028 -2.933905 3.999999
v 13.300536 -2.548296 3.999999
vt 0.013767 0.952634
vt 0.013763 0.952653
vt 0.013799 0.952629
vt 0.013767 0.952634
vt 0.013763 0.952653
vt 0.013799 0.952629
vt 0.013746 0.952641
vt 0.109605 0.953673
vt 0.109560 0.953687
vt 0.013747 0.952642
vt 0.109609 0.953675
vt 0.109562 0.953688
vt 0.013731 0.952631
vt 0.109582 0.953656
vt 0.013744 0.952618
vt 0.013732 0.952631
vt 0.109585 0.953658
vt 0.013745 0.952618
vt 0.109542 0.953674
vt 0.013771 0.952609
vt 0.109540 0.953673
vt 0.013769 0.952608
vt 0.109519 0.953695
vt 0.109518 0.953694
vt 0.013757 0.952627
vt 0.013786 0.952619
vt 0.109544 0.953712
vt 0.013756 0.952626
vt 0.013784 0.952618
vt 0.109543 0.953711
vt 0.013654 0.952578
vt 0.013698 0.952558
vt 0.013682 0.952573
vt 0.013658 0.952581
vt 0.013703 0.952561
vt 0.013686 0.952576
vt 0.983524 0.984442
vt 0.983392 0.984261
vt 0.983414 0.984246
vt 0.983547 0.984452
vt 0.983311 0.984247
vt 0.983311 0.984260
vt 0.983225 0.984260
vt 0.983202 0.984247
vt 0.983102 0.984443
vt 0.983079 0.984452
vt 0.516659 0.921996
vt 0.516973 0.922540
vt 0.516807 0.922568
vt 0.516521 0.922073
vt 0.516037 0.921521
vt 0.515878 0.921628
vt 0.514688 0.921620
vt 0.514521 0.921531
vt 0.513990 0.922008
vt 0.514137 0.922083
vt 0.513809 0.922926
vt 0.513643 0.922994
vt 0.513692 0.922500
vt 0.513861 0.922531
vt 0.516819 0.922923
vt 0.516986 0.922991
vt 0.516731 0.923004
vt 0.513896 0.923007
vt 0.516809 0.923071
vt 0.513808 0.923072
vt 0.013767 0.952634
vt 0.013756 0.952626
vt 0.013784 0.952618
vt 0.013799 0.952629
vt 0.013763 0.952653
vt 0.013767 0.952634
vt 0.013757 0.952627
vt 0.013786 0.952619
vt 0.013799 0.952629
vt 0.013763 0.952653
vt 0.013746 0.952641
vt 0.109605 0.953673
vt 0.109560 0.953687
vt 0.109540 0.953673
vt 0.109582 0.953656
vt 0.013747 0.952642
vt 0.109609 0.953675
vt 0.109562 0.953688
vt 0.109542 0.953674
vt 0.109585 0.953658
vt 0.109518 0.953694
vt 0.109543 0.953711
vt 0.109519 0.953695
vt 0.109544 0.953712
vt 0.013769 0.952608
vt 0.013744 0.952618
vt 0.013682 0.952573
vt 0.013698 0.952558
vt 0.013771 0.952609
vt 0.013745 0.952618
vt 0.013686 0.952576
vt 0.013703 0.952561
vt 0.013654 0.952578
vt 0.013731 0.952631
vt 0.013658 0.952581
vt 0.013732 0.952631
vt 0.983524 0.984442
vt 0.983392 0.984261
vt 0.983414 0.984246
vt 0.983547 0.984452
vt 0.983311 0.984247
vt 0.983311 0.984260
vt 0.983225 0.984260
vt 0.983202 0.984247
vt 0.983102 0.984443
vt 0.983079 0.984452
vt 0.516659 0.921996
vt 0.516973 0.922540
vt 0.516807 0.922568
vt 0.516521 0.922073
vt 0.516037 0.921521
vt 0.515878 0.921628
vt 0.514688 0.921620
vt 0.514521 0.921531
vt 0.513990 0.922008
vt 0.514137 0.922083
vt 0.513809 0.922926
vt 0.513643 0.922994
vt 0.513692 0.922500
vt 0.513861 0.922531
vt 0.516819 0.922923
vt 0.516986 0.922991
vt 0.516731 0.923004
vt 0.513896 0.923007
vt 0.516809 0.923071
vt 0.513808 0.923072
vn 0.688311 -0.490898 -0.534085
vn 0.688311 -0.490898 -0.534085
vn 0.692817 -0.493664 -0.525643
vn 0.692755 -0.493626 -0.525760
vn 0.643873 0.683620 -0.343646
vn 0.643873 0.683620 -0.343646
vn 0.643873 0.683620 -0.343646
vn 0.627325 -0.565859 -0.535039
vn 0.627325 -0.565859 -0.535039
vn 0.631355 -0.569074 -0.526826
vn 0.631599 -0.569269 -0.526324
vn 0.717784 0.605554 -0.343645
vn 0.717784 0.605554 -0.343645
vn 0.717784 0.605554 -0.343645
vn -0.754142 0.522998 -0.397169
vn -0.753217 0.522200 -0.399964
vn -0.753217 0.522200 -0.399964
vn -0.754226 0.523069 -0.396916
vn 0.692817 -0.493664 -0.525643
vn 0.712235 -0.510842 -0.481416
vn 0.711933 -0.510547 -0.482177
vn 0.692755 -0.493626 -0.525760
vn -0.689410 0.605716 -0.397267
vn -0.688574 0.604753 -0.400174
vn -0.688574 0.604753 -0.400174
vn -0.689433 0.605742 -0.397188
vn 0.631355 -0.569074 -0.526826
vn 0.645434 -0.589764 -0.485380
vn 0.645587 -0.590033 -0.484850
vn 0.631599 -0.569269 -0.526324
vn -0.758502 0.527854 -0.382158
vn -0.754142 0.522998 -0.397169
vn -0.754226 0.523069 -0.396916
vn -0.758590 0.527960 -0.381838
vn -0.689794 0.613500 -0.384449
vn -0.689410 0.605716 -0.397267
vn -0.689433 0.605742 -0.397188
vn -0.689795 0.613499 -0.384452
vn 0.712235 -0.510842 -0.481416
vn 0.716521 -0.515040 -0.470459
vn 0.716521 -0.515040 -0.470459
vn 0.711933 -0.510547 -0.482177
vn 0.645434 -0.589764 -0.485380
vn 0.648659 -0.595471 -0.473979
vn 0.648659 -0.595471 -0.473979
vn 0.645587 -0.590033 -0.484850
vn -0.759522 0.529081 -0.378417
vn -0.758502 0.527854 -0.382158
vn -0.758590 0.527960 -0.381838
vn -0.759522 0.529081 -0.378417
vn -0.689639 0.615672 -0.381243
vn -0.689794 0.613500 -0.384449
vn -0.689795 0.613499 -0.384452
vn -0.689639 0.615672 -0.381243
vn -0.503417 0.453197 -0.735652
vn -0.503417 0.453197 -0.735652
vn -0.503417 0.453197 -0.735652
vn -0.503417 0.453197 -0.735652
vn -0.015821 0.775833 -0.630740
vn 0.297431 0.842449 -0.449238
vn 0.297431 0.842449 -0.449238
vn 0.101123 0.813282 -0.573015
vn 0.684505 0.505697 -0.525094
vn 0.684505 0.505697 -0.525093
vn 0.684505 0.505697 -0.525094
vn 0.684505 0.505697 -0.525093
vn -0.000000 0.000000 -1.000000
vn -0.000000 0.000000 -1.000000
vn -0.000000 0.000000 -1.000000
vn -0.000000 0.000000 -1.000000
vn -0.000000 0.000000 -1.000000
vn -0.170834 0.703889 -0.689461
vn -0.170834 0.703889 -0.689461
vn -0.015821 0.775833 -0.630740
vn 0.101123 0.813282 -0.573015
vn 0.668799 -0.361609 -0.649574
vn 0.668799 -0.361609 -0.649574
vn 0.703661 -0.260633 -0.661009
vn 0.709669 -0.240040 -0.662383
vn 0.446753 -0.675715 -0.586363
vn 0.446753 -0.675715 -0.586363
vn 0.446753 -0.675715 -0.586363
vn 0.446753 -0.675715 -0.586363
vn 0.016899 -0.915469 -0.402034
vn 0.016899 -0.915469 -0.402034
vn 0.016899 -0.915469 -0.402034
vn 0.016899 -0.915469 -0.402034
vn -0.513490 -0.637947 -0.573892
vn -0.513490 -0.637947 -0.573892
vn -0.513490 -0.637947 -0.573892
vn -0.513490 -0.637947 -0.573892
vn -0.715855 -0.039459 -0.697133
vn -0.697676 -0.239418 -0.675224
vn -0.700930 -0.218838 -0.678828
vn -0.715855 -0.039459 -0.697133
vn -0.000000 0.000000 -1.000000
vn -0.000000 0.000000 -1.000000
vn -0.000000 0.000000 -1.000000
vn -0.000000 0.000000 -1.000000
vn -0.000000 0.000000 -1.000000
vn -0.000000 0.000000 -1.000000
vn -0.000000 0.000000 -1.000000
vn -0.000000 0.000000 -1.000000
vn -0.697676 -0.239418 -0.675224
vn -0.663715 -0.388819 -0.638986
vn -0.663715 -0.388819 -0.638986
vn -0.700930 -0.218838 -0.678828
vn 0.703661 -0.260633 -0.661009
vn 0.748188 -0.054763 -0.661223
vn 0.748188 -0.054763 -0.661223
vn 0.709669 -0.240040 -0.662383
vn 0.000000 0.000000 -1.000000
vn 0.000000 0.000000 -1.000000
vn 0.000000 0.000000 -1.000000
vn 0.000000 0.000000 -1.000000
vn -0.006317 0.977733 -0.209756
vn -0.006317 0.977733 -0.209756
vn -0.006317 0.977733 -0.209756
vn -0.006317 0.977733 -0.209756
vn -0.439856 0.681399 -0.584997
vn -0.439856 0.681399 -0.584997
vn -0.439856 0.681399 -0.584997
vn -0.439856 0.681399 -0.584997
vn 0.510230 0.614101 -0.602117
vn 0.510230 0.614101 -0.602117
vn 0.510230 0.614101 -0.602117
vn 0.510230 0.614101 -0.602117
vn 0.688311 -0.490898 0.534085
vn 0.692755 -0.493626 0.525760
vn 0.692817 -0.493664 0.525643
vn 0.688311 -0.490898 0.534085
vn 0.643873 0.683620 0.343645
vn 0.643873 0.683620 0.343645
vn 0.643873 0.683620 0.343645
vn 0.627325 -0.565859 0.535039
vn 0.631599 -0.569269 0.526324
vn 0.631355 -0.569074 0.526826
vn 0.627325 -0.565859 0.535039
vn 0.717784 0.605554 0.343645
vn 0.717784 0.605554 0.343645
vn 0.717784 0.605554 0.343645
vn -0.754142 0.522998 0.397169
vn -0.754226 0.523069 0.396916
vn -0.753218 0.522200 0.399963
vn -0.753217 0.522200 0.399963
vn 0.692817 -0.493664 0.525643
vn 0.692755 -0.493626 0.525760
vn 0.711933 -0.510547 0.482177
vn 0.712235 -0.510842 0.481416
vn -0.689410 0.605716 0.397267
vn -0.689433 0.605742 0.397188
vn -0.688574 0.604753 0.400174
vn -0.688574 0.604753 0.400174
vn 0.631355 -0.569074 0.526826
vn 0.631599 -0.569269 0.526324
vn 0.645587 -0.590033 0.484850
vn 0.645434 -0.589764 0.485380
vn -0.758502 0.527854 0.382158
vn -0.758590 0.527960 0.381838
vn -0.754226 0.523069 0.396916
vn -0.754142 0.522998 0.397169
vn -0.689794 0.613500 0.384449
vn -0.689795 0.613499 0.384452
vn -0.689433 0.605742 0.397188
vn -0.689410 0.605716 0.397267
vn 0.712235 -0.510842 0.481416
vn 0.711933 -0.510547 0.482177
vn 0.716521 -0.515040 0.470459
vn 0.716521 -0.515040 0.470459
vn 0.645434 -0.589764 0.485380
vn 0.645587 -0.590033 0.484850
vn 0.648659 -0.595471 0.473979
vn 0.648659 -0.595471 0.473979
vn -0.759522 0.529081 0.378417
vn -0.759522 0.529081 0.378417
vn -0.758590 0.527960 0.381838
vn -0.758502 0.527854 0.382158
vn -0.689639 0.615672 0.381243
vn -0.689639 0.615672 0.381243
vn -0.689795 0.613499 0.384452
vn -0.689794 0.613500 0.384449
vn -0.503417 0.453197 0.735652
vn -0.503417 0.453197 0.735652
vn -0.503417 0.453197 0.735652
vn -0.503417 0.453197 0.735652
vn -0.015821 0.775833 0.630740
vn 0.101123 0.813282 0.573015
vn 0.297431 0.842449 0.449238
vn 0.297431 0.842449 0.449238
vn 0.684505 0.505697 0.525093
vn 0.684505 0.505697 0.525093
vn 0.684505 0.505697 0.525093
vn 0.684505 0.505697 0.525093
vn -0.000000 0.000000 1.000000
vn -0.000000 0.000000 1.000000
vn -0.000000 0.000000 1.000000
vn -0.000000 0.000000 1.000000
vn -0.000000 0.000000 1.000000
vn -0.170834 0.703889 0.689461
vn 0.101123 0.813282 0.573015
vn -0.015821 0.775833 0.630740
vn -0.170834 0.703889 0.689461
vn 0.668799 -0.361609 0.649574
vn 0.709669 -0.240040 0.662383
vn 0.703661 -0.260633 0.661009
vn 0.668799 -0.361609 0.649574
vn 0.446753 -0.675715 0.586363
vn 0.446753 -0.675715 0.586363
vn 0.446753 -0.675715 0.586363
vn 0.446753 -0.675715 0.586363
vn 0.016899 -0.915469 0.402034
vn 0.016899 -0.915469 0.402034
vn 0.016899 -0.915469 0.402034
vn 0.016899 -0.915469 0.402034
vn -0.513490 -0.637947 0.573892
vn -0.513490 -0.637947 0.573892
vn -0.513490 -0.637947 0.573892
vn -0.513490 -0.637947 0.573892
vn -0.715855 -0.039459 0.697133
vn -0.715855 -0.039459 0.697133
vn -0.700930 -0.218838 0.678828
vn -0.697676 -0.239418 0.675224
vn 0.000000 0.000000 1.000000
vn 0.000000 0.000000 1.000000
vn 0.000000 0.000000 1.000000
vn 0.000000 0.000000 1.000000
vn 0.000000 0.000000 1.000000
vn 0.000000 0.000000 1.000000
vn 0.000000 0.000000 1.000000
vn 0.000000 0.000000 1.000000
vn -0.697676 -0.239418 0.675224
vn -0.700930 -0.218838 0.678828
vn -0.663715 -0.388819 0.638986
vn -0.663715 -0.388819 0.638986
vn 0.703661 -0.260633 0.661009
vn 0.709669 -0.240040 0.662383
vn 0.748188 -0.054763 0.661223
vn 0.748188 -0.054763 0.661223
vn 0.000000 0.000000 1.000000
vn 0.000000 0.000000 1.000000
vn 0.000000 0.000000 1.000000
vn 0.000000 0.000000 1.000000
vn -0.006317 0.977733 0.209756
vn -0.006317 0.977733 0.209756
vn -0.006317 0.977733 0.209756
vn -0.006317 0.977733 0.209756
vn -0.439856 0.681399 0.584997
vn -0.439856 0.681399 0.584997
vn -0.439856 0.681399 0.584997
vn -0.439856 0.681399 0.584997
vn 0.510230 0.614101 0.602117
vn 0.510230 0.614101 0.602117
vn 0.510230 0.614101 0.602117
vn 0.510230 0.614101 0.602117
s off
f 3/1/1 2/3/2 8/29/3 9/28/4
f 1/2/5 2/3/6 3/1/7
f 6/4/8 5/6/9 11/26/10 12/25/11
f 4/5/12 5/6/13 6/4/14
f 7/7/15 1/2/16 3/1/17 9/28/18
f 8/8/19 14/14/20 15/21/21 9/9/22
f 10/10/23 4/5/24 6/4/25 12/25/26
f 11/11/27 17/17/28 18/19/29 12/12/30
f 13/24/31 7/30/32 9/9/33 15/21/34
f 16/23/35 10/27/36 12/12/37 18/19/38
f 14/22/39 20/32/40 21/33/41 15/15/42
f 17/20/43 23/35/44 24/36/45 18/18/46
f 19/31/47 13/13/48 15/15/49 21/33/50
f 22/34/51 16/16/52 18/18/53 24/36/54
f 32/37/55 25/40/56 26/39/57 31/38/58
f 33/41/59 27/44/60 30/43/61 34/42/62
f 30/43/63 27/44/64 28/46/65 29/45/66
f 32/37/67 31/38/68 34/42/69 30/43/70 29/45/71
f 31/38/72 26/39/73 33/41/74 34/42/75
f 36/47/76 45/50/77 50/49/78 49/48/79
f 37/51/80 44/52/81 45/50/82 36/47/83
f 44/52/84 37/51/85 38/54/86 43/53/87
f 39/55/88 42/56/89 43/53/90 38/54/91
f 41/57/92 48/60/93 47/59/94 40/58/95
f 46/61/96 50/49/97 45/50/98 44/52/99 43/53/100 42/56/101 48/60/102 41/57/103
f 48/60/104 42/56/105 39/55/106 47/59/107
f 50/49/108 46/61/109 35/62/110 49/48/111
f 41/57/112 51/64/113 52/63/114 46/61/115
f 51/64/116 53/66/117 54/65/118 52/63/119
f 40/58/120 53/66/121 51/64/122 41/57/123
f 46/61/124 52/63/125 54/65/126 35/62/127
f 55/67/128 57/68/129 8/69/130 2/70/131
f 1/71/132 55/67/133 2/70/134
f 56/72/135 58/73/136 11/74/137 5/75/138
f 4/76/139 56/72/140 5/75/141
f 7/77/142 57/68/143 55/67/144 1/71/145
f 8/78/146 57/79/147 59/80/148 14/81/149
f 10/82/150 58/73/151 56/72/152 4/76/153
f 11/83/154 58/84/155 60/85/156 17/86/157
f 13/87/158 59/80/159 57/79/160 7/88/161
f 16/89/162 60/85/163 58/84/164 10/90/165
f 14/91/166 59/92/167 61/93/168 20/94/169
f 17/95/170 60/96/171 62/97/172 23/98/173
f 19/99/174 61/93/175 59/92/176 13/100/177
f 22/101/178 62/97/179 60/96/180 16/102/181
f 66/103/182 65/104/183 26/105/184 25/106/185
f 33/107/186 67/108/187 64/109/188 27/110/189
f 64/109/190 63/111/191 28/112/192 27/110/193
f 66/103/194 63/111/195 64/109/196 67/108/197 65/104/198
f 65/104/199 67/108/200 33/107/201 26/105/202
f 36/113/203 49/114/204 75/115/205 72/116/206
f 37/117/207 36/113/208 72/116/209 71/118/210
f 71/118/211 70/119/212 38/120/213 37/117/214
f 39/121/215 38/120/216 70/119/217 69/122/218
f 68/123/219 40/124/220 47/125/221 74/126/222
f 73/127/223 68/123/224 74/126/225 69/122/226 70/119/227 71/118/228 72/116/229 75/115/230
f 74/126/231 47/125/232 39/121/233 69/122/234
f 75/115/235 49/114/236 35/128/237 73/127/238
f 68/123/239 73/127/240 77/129/241 76/130/242
f 76/130/243 77/129/244 54/131/245 53/132/246
f 40/124/247 68/123/248 76/130/249 53/132/250
f 73/127/251 35/128/252 54/131/253 77/129/254
