# This file uses centimeters as units for non-parametric coordinates.

v -11.498084 -3.249994 2.000000
v 11.607244 -4.027781 2.000000
v -11.711598 -1.038192 2.000000
v 11.180218 -1.133815 2.000000
v -12.565652 -0.625381 0.000000
v 12.760215 -0.662032 0.000000
v -12.565652 -4.534292 -0.000000
v 12.760215 -4.578195 0.000000
v 5.709271 -3.522868 2.000000
v 6.997838 -1.344034 2.000000
v 7.203523 -0.799827 -0.000000
v 5.375511 -4.596380 0.000000
v -8.603417 19.503845 0.000000
v -0.032543 4.340518 -0.000000
v 9.063301 19.503845 -0.000000
v 16.487747 19.503845 -0.000000
v 3.439970 -2.931440 0.000000
v 3.572573 -19.503845 0.000000
v -3.659712 -19.399616 0.000000
v -3.474994 -2.618753 0.000000
v -16.487747 19.503845 0.000000
v -14.897653 18.540150 4.000000
v -9.173754 18.154675 4.000000
v -2.084552 -1.799614 4.000000
v -0.047570 2.846794 4.000000
v 2.544497 -1.431507 4.000000
v 15.042208 18.588337 4.000000
v 9.502022 18.088654 4.000000
v -2.599649 -18.243183 4.000000
v 2.849803 -18.154675 4.000000
v 4.904539 12.033360 -0.000000
v 8.772595 5.527292 0.000000
v 6.665864 5.877624 4.000000
v 5.667406 11.318726 4.000000
v -5.987861 14.537531 -0.000000
v -8.653569 6.185189 0.000000
v -8.121380 7.650550 4.000000
v -6.595052 12.472545 4.000000
v 3.527678 -10.907331 0.000000
v -3.611592 -15.028144 -0.000000
v -2.506097 -14.865922 4.000000
v 2.474095 -11.020606 4.000000
v -11.498084 -3.249994 -2.000000
v 11.607244 -4.027781 -2.000000
v -11.711598 -1.038192 -2.000000
v 11.180218 -1.133815 -2.000000
v 5.709271 -3.522868 -2.000000
v 6.997838 -1.344034 -2.000000
v -14.897653 18.540150 -4.000000
v -9.173754 18.154675 -4.000000
v -2.084552 -1.799614 -4.000000
v -0.047570 2.846794 -4.000000
v 2.544497 -1.431507 -4.000000
v 15.042208 18.588337 -4.000000
v 9.502022 18.088654 -4.000000
v -2.599649 -18.243183 -4.000000
v 2.849803 -18.154675 -4.000000
v 6.665864 5.877624 -4.000000
v 6.208376 11.318726 -4.000000
v -8.121380 7.650550 -4.000000
v -6.595052 12.472545 -4.000000
v -2.506097 -14.865922 -4.000000
v 2.474095 -11.020606 -4.000000
vt 0.015410 0.948675
vt 0.012720 0.948711
vt 0.012518 0.948423
vt 0.015443 0.948383
vt 0.012486 0.948351
vt 0.015577 0.948328
vt 0.015577 0.948845
vt 0.012772 0.948853
vt 0.011798 0.948778
vt 0.011617 0.948851
vt 0.011617 0.948333
vt 0.011864 0.948396
vt 0.015164 0.946072
vt 0.015915 0.946021
vt 0.014856 0.947460
vt 0.014721 0.946823
vt 0.013594 0.948246
vt 0.013189 0.948660
vt 0.012544 0.947694
vt 0.012616 0.946975
vt 0.013912 0.948709
vt 0.013978 0.950436
vt 0.013200 0.949928
vt 0.015066 0.945894
vt 0.014617 0.946550
vt 0.014939 0.947654
vt 0.016164 0.945894
vt 0.013591 0.948049
vt 0.012747 0.946881
vt 0.012215 0.947741
vt 0.013049 0.948858
vt 0.013035 0.949913
vt 0.014151 0.950457
vt 0.014130 0.948817
vt 0.011009 0.945894
vt 0.012033 0.945894
vt 0.011958 0.946081
vt 0.011235 0.946015
vt 0.014158 0.951035
vt 0.013028 0.951049
vt 0.013141 0.950870
vt 0.013993 0.950882
vt 0.015410 0.948675
vt 0.012720 0.948711
vt 0.012518 0.948423
vt 0.015443 0.948383
vt 0.012486 0.948351
vt 0.015577 0.948328
vt 0.015577 0.948845
vt 0.012772 0.948853
vt 0.011798 0.948778
vt 0.011617 0.948851
vt 0.011617 0.948333
vt 0.011864 0.948396
vt 0.015164 0.946072
vt 0.015915 0.946021
vt 0.014856 0.947460
vt 0.014721 0.946823
vt 0.013594 0.948246
vt 0.013189 0.948660
vt 0.012544 0.947694
vt 0.012616 0.946975
vt 0.013912 0.948709
vt 0.013978 0.950436
vt 0.013200 0.949928
vt 0.015066 0.945894
vt 0.016164 0.945894
vt 0.014939 0.947654
vt 0.013591 0.948049
vt 0.014617 0.946550
vt 0.013049 0.948858
vt 0.012215 0.947741
vt 0.011009 0.945894
vt 0.012033 0.945894
vt 0.011958 0.946081
vt 0.011235 0.946015
vt 0.012747 0.946881
vt 0.014130 0.948817
vt 0.014151 0.950457
vt 0.014158 0.951035
vt 0.013028 0.951049
vt 0.013141 0.950870
vt 0.013993 0.950882
vt 0.013035 0.949913
vn 0.000000 0.000000 1.000000
vn 0.000000 0.000000 1.000000
vn 0.000000 0.000000 1.000000
vn 0.000000 0.000000 1.000000
vn 0.012144 0.972924 0.230808
vn 0.003631 0.972957 0.230959
vn 0.001707 0.999999 0.000000
vn 0.012481 0.999922 0.000000
vn -0.008198 -0.860188 0.509912
vn -0.014043 -0.877462 0.479440
vn -0.015743 -0.882288 0.470446
vn -0.008198 -0.860188 0.509912
vn 0.825048 0.051734 0.562690
vn 0.825048 0.051734 0.562690
vn 0.825048 0.051734 0.562690
vn 0.825048 0.051734 0.562690
vn -0.898256 -0.031335 0.438354
vn -0.898256 -0.031335 0.438354
vn -0.898256 -0.031335 0.438354
vn -0.898256 -0.031335 0.438354
vn 0.000000 0.000000 1.000000
vn 0.000000 0.000000 1.000000
vn 0.000000 0.000000 1.000000
vn 0.000000 0.000000 1.000000
vn 0.001707 0.999999 0.000000
vn 0.003631 0.972957 0.230959
vn -0.034741 0.972230 0.231435
vn -0.035711 0.999362 0.000000
vn -0.015743 -0.882288 0.470446
vn -0.014043 -0.877462 0.479440
vn -0.034021 -0.928426 0.369956
vn -0.034021 -0.928426 0.369956
vn 0.000000 0.000000 1.000000
vn 0.000000 0.000000 1.000000
vn 0.000000 0.000000 1.000000
vn 0.000000 0.000000 1.000000
vn 0.000000 0.000000 1.000000
vn 0.000000 0.000000 1.000000
vn 0.000000 0.000000 1.000000
vn 0.000000 0.000000 1.000000
vn 0.000000 0.000000 1.000000
vn 0.000000 0.000000 1.000000
vn 0.000000 0.000000 1.000000
vn 0.000000 0.000000 1.000000
vn 0.000000 0.000000 1.000000
vn 0.000000 0.000000 1.000000
vn 0.000000 0.000000 1.000000
vn 0.027228 0.961222 0.274427
vn 0.027228 0.961222 0.274427
vn 0.027228 0.961222 0.274427
vn 0.027228 0.961222 0.274427
vn -0.856156 -0.516717 0.000000
vn -0.854077 -0.520146 0.000000
vn -0.819995 -0.498114 0.281939
vn -0.828702 -0.500148 0.251206
vn 0.809449 0.510543 0.290066
vn 0.831131 0.470302 0.296711
vn 0.821770 0.488206 0.293853
vn 0.809449 0.510543 0.290066
vn 0.784796 -0.470543 0.403343
vn 0.802243 -0.482850 0.351087
vn 0.799675 -0.481021 0.359358
vn 0.784795 -0.470543 0.403343
vn -0.037026 0.960668 0.275219
vn -0.037026 0.960668 0.275219
vn -0.037026 0.960668 0.275219
vn -0.037026 0.960668 0.275219
vn -0.843692 0.473578 0.252801
vn -0.852289 0.522248 -0.029346
vn -0.827618 0.508804 0.236996
vn -0.843692 0.473578 0.252801
vn -0.955136 0.020926 0.295428
vn -0.999779 0.021023 -0.000000
vn -0.957621 0.020207 0.287321
vn -0.955136 0.020926 0.295428
vn -0.001183 -0.954275 0.298929
vn -0.001183 -0.954275 0.298929
vn -0.001183 -0.954275 0.298929
vn -0.001183 -0.954275 0.298929
vn 0.999643 0.026728 0.000000
vn 0.999916 0.012944 0.000000
vn 0.974214 0.012986 0.225253
vn 0.976737 0.026116 0.212844
vn 0.000000 0.000000 1.000000
vn 0.000000 0.000000 1.000000
vn 0.000000 0.000000 1.000000
vn 0.000000 0.000000 1.000000
vn 0.799675 -0.481021 0.359358
vn 0.802243 -0.482850 0.351087
vn 0.809851 -0.488312 0.325104
vn 0.809851 -0.488312 0.325104
vn -0.827618 0.508804 0.236996
vn -0.852289 0.522248 -0.029346
vn -0.828160 0.559588 -0.031826
vn -0.813768 0.536247 0.224099
vn 0.000000 0.000000 1.000000
vn 0.000000 0.000000 1.000000
vn 0.000000 0.000000 1.000000
vn 0.000000 0.000000 1.000000
vn -0.819995 -0.498114 0.281939
vn -0.854077 -0.520146 0.000000
vn -0.803125 -0.493443 0.333923
vn -0.803125 -0.493443 0.333923
vn 0.821770 0.488206 0.293853
vn 0.831131 0.470302 0.296711
vn 0.856163 0.417632 0.304252
vn 0.856163 0.417632 0.304252
vn 0.000000 0.000000 1.000000
vn 0.000000 0.000000 1.000000
vn 0.000000 0.000000 1.000000
vn 0.000000 0.000000 1.000000
vn -0.957621 0.020207 0.287321
vn -0.999779 0.021023 -0.000000
vn -0.999833 0.018280 -0.000000
vn -0.965840 0.017659 0.258537
vn 0.974214 0.012986 0.225253
vn 0.999916 0.012944 0.000000
vn 1.000000 0.000985 0.000000
vn 0.971618 0.000957 0.236551
vn 0.000000 0.000000 -1.000000
vn 0.000000 0.000000 -1.000000
vn 0.000000 0.000000 -1.000000
vn 0.000000 0.000000 -1.000000
vn 0.012144 0.972924 -0.230808
vn 0.012481 0.999922 0.000000
vn 0.001707 0.999999 0.000000
vn 0.003631 0.972957 -0.230960
vn -0.008198 -0.860188 -0.509912
vn -0.008198 -0.860188 -0.509912
vn -0.015743 -0.882288 -0.470446
vn -0.014043 -0.877462 -0.479440
vn 0.825048 0.051734 -0.562690
vn 0.825048 0.051734 -0.562690
vn 0.825048 0.051734 -0.562690
vn 0.825048 0.051734 -0.562690
vn -0.898256 -0.031335 -0.438354
vn -0.898256 -0.031335 -0.438354
vn -0.898256 -0.031335 -0.438354
vn -0.898256 -0.031335 -0.438354
vn 0.000000 0.000000 -1.000000
vn 0.000000 0.000000 -1.000000
vn 0.000000 0.000000 -1.000000
vn 0.000000 0.000000 -1.000000
vn 0.001707 0.999999 0.000000
vn -0.035711 0.999362 0.000000
vn -0.034741 0.972230 -0.231435
vn 0.003631 0.972957 -0.230960
vn -0.015743 -0.882288 -0.470446
vn -0.034021 -0.928426 -0.369956
vn -0.034021 -0.928426 -0.369956
vn -0.014043 -0.877462 -0.479440
vn 0.000000 0.000000 -1.000000
vn 0.000000 0.000000 -1.000000
vn 0.000000 0.000000 -1.000000
vn 0.000000 0.000000 -1.000000
vn 0.000000 0.000000 -1.000000
vn 0.000000 0.000000 -1.000000
vn 0.000000 0.000000 -1.000000
vn 0.000000 0.000000 -1.000000
vn 0.000000 0.000000 -1.000000
vn 0.000000 0.000000 -1.000000
vn 0.000000 0.000000 -1.000000
vn 0.000000 0.000000 -1.000000
vn 0.000000 0.000000 -1.000000
vn 0.000000 0.000000 -1.000000
vn 0.000000 0.000000 -1.000000
vn 0.027228 0.961223 -0.274427
vn 0.027228 0.961222 -0.274427
vn 0.027228 0.961222 -0.274427
vn 0.027228 0.961223 -0.274427
vn -0.856156 -0.516717 0.000000
vn -0.828702 -0.500148 -0.251206
vn -0.819995 -0.498114 -0.281939
vn -0.854077 -0.520146 0.000000
vn 0.809449 0.510543 -0.290066
vn 0.809449 0.510543 -0.290066
vn 0.821770 0.488206 -0.293853
vn 0.831131 0.470303 -0.296711
vn 0.784796 -0.470543 -0.403343
vn 0.784795 -0.470543 -0.403343
vn 0.799675 -0.481021 -0.359358
vn 0.802243 -0.482850 -0.351087
vn -0.037026 0.960668 -0.275219
vn -0.037026 0.960668 -0.275219
vn -0.037026 0.960668 -0.275219
vn -0.037026 0.960668 -0.275219
vn -0.844725 0.442068 -0.301689
vn -0.844725 0.442068 -0.301689
vn -0.816288 0.499907 -0.289425
vn -0.852289 0.522248 -0.029346
vn -0.955136 0.020926 -0.295428
vn -0.955136 0.020926 -0.295428
vn -0.957621 0.020207 -0.287321
vn -0.999779 0.021023 -0.000000
vn -0.001183 -0.954275 -0.298929
vn -0.001183 -0.954275 -0.298929
vn -0.001183 -0.954275 -0.298929
vn -0.001183 -0.954275 -0.298929
vn 0.999643 0.026728 0.000000
vn 0.976737 0.026116 -0.212844
vn 0.974214 0.012986 -0.225253
vn 0.999916 0.012944 0.000000
vn 0.000000 0.000000 -1.000000
vn 0.000000 0.000000 -1.000000
vn 0.000000 0.000000 -1.000000
vn 0.000000 0.000000 -1.000000
vn 0.799675 -0.481021 -0.359358
vn 0.809851 -0.488312 -0.325104
vn 0.809851 -0.488312 -0.325104
vn 0.802243 -0.482850 -0.351087
vn -0.816288 0.499907 -0.289425
vn -0.789696 0.546812 -0.278166
vn -0.828160 0.559588 -0.031826
vn -0.852289 0.522248 -0.029346
vn 0.000000 0.000000 -1.000000
vn 0.000000 0.000000 -1.000000
vn 0.000000 0.000000 -1.000000
vn 0.000000 0.000000 -1.000000
vn -0.819995 -0.498114 -0.281939
vn -0.803125 -0.493443 -0.333923
vn -0.803125 -0.493443 -0.333923
vn -0.854077 -0.520146 0.000000
vn 0.821770 0.488206 -0.293853
vn 0.856163 0.417632 -0.304252
vn 0.856163 0.417632 -0.304252
vn 0.831131 0.470303 -0.296711
vn 0.000000 0.000000 -1.000000
vn 0.000000 0.000000 -1.000000
vn 0.000000 0.000000 -1.000000
vn 0.000000 0.000000 -1.000000
vn -0.957621 0.020207 -0.287321
vn -0.965840 0.017659 -0.258537
vn -0.999833 0.018280 -0.000000
vn -0.999779 0.021023 -0.000000
vn 0.974214 0.012986 -0.225253
vn 0.971618 0.000957 -0.236551
vn 1.000000 0.000985 0.000000
vn 0.999916 0.012944 0.000000
s off
f 1/1/1 9/2/2 10/3/3 3/4/4
f 3/4/5 10/3/6 11/5/7 5/6/8
f 7/7/9 12/8/10 9/2/11 1/1/12
f 2/9/13 8/10/14 6/11/15 4/12/16
f 7/7/17 1/1/18 3/4/19 5/6/20
f 10/3/21 9/2/22 2/9/23 4/12/24
f 11/5/25 10/3/26 4/12/27 6/11/28
f 9/2/29 12/8/30 8/10/31 2/9/32
f 23/13/33 22/14/34 37/15/35 38/16/36
f 25/17/37 26/18/38 33/19/39 34/20/40
f 26/18/41 24/21/42 41/22/43 42/23/44
f 25/17/45 24/21/46 26/18/47
f 13/24/48 21/27/49 22/14/50 23/13/51
f 21/27/52 36/26/53 37/15/54 22/14/55
f 14/28/56 35/25/57 38/16/58 25/17/59
f 17/31/60 32/30/61 33/19/62 26/18/63
f 16/35/64 15/36/65 28/37/66 27/38/67
f 15/36/68 31/29/69 34/20/70 28/37/71
f 20/34/72 40/33/73 41/22/74 24/21/75
f 19/39/76 18/40/77 30/41/78 29/42/79
f 18/40/80 39/32/81 42/23/82 30/41/83
f 34/20/84 33/19/85 27/38/86 28/37/87
f 33/19/88 32/30/89 16/35/90 27/38/91
f 34/20/92 31/29/93 14/28/94 25/17/95
f 38/16/96 37/15/97 24/21/98 25/17/99
f 37/15/100 36/26/101 20/34/102 24/21/103
f 38/16/104 35/25/105 13/24/106 23/13/107
f 42/23/108 41/22/109 29/42/110 30/41/111
f 41/22/112 40/33/113 19/39/114 29/42/115
f 42/23/116 39/32/117 17/31/118 26/18/119
f 43/43/120 45/46/121 48/45/122 47/44/123
f 45/46/124 5/48/125 11/47/126 48/45/127
f 7/49/128 43/43/129 47/44/130 12/50/131
f 44/51/132 46/54/133 6/53/134 8/52/135
f 7/49/136 5/48/137 45/46/138 43/43/139
f 48/45/140 46/54/141 44/51/142 47/44/143
f 11/47/144 6/53/145 46/54/146 48/45/147
f 47/44/148 44/51/149 8/52/150 12/50/151
f 50/55/152 61/58/153 60/57/154 49/56/155
f 52/59/156 59/62/157 58/61/158 53/60/159
f 53/60/160 63/65/161 62/64/162 51/63/163
f 52/59/164 53/60/165 51/63/166
f 13/66/167 50/55/168 49/56/169 21/67/170
f 21/67/171 49/56/172 60/57/173 36/68/174
f 14/69/175 52/59/176 61/58/177 35/70/178
f 17/71/179 53/60/180 58/61/181 32/72/182
f 16/73/183 54/76/184 55/75/185 15/74/186
f 15/74/187 55/75/188 59/62/189 31/77/190
f 20/78/191 51/63/192 62/64/193 40/79/194
f 19/80/195 56/83/196 57/82/197 18/81/198
f 18/81/199 57/82/200 63/65/201 39/84/202
f 59/62/203 55/75/204 54/76/205 58/61/206
f 58/61/207 54/76/208 16/73/209 32/72/210
f 59/62/211 52/59/212 14/69/213 31/77/214
f 61/58/215 52/59/216 51/63/217 60/57/218
f 60/57/219 51/63/220 20/78/221 36/68/222
f 61/58/223 50/55/224 13/66/225 35/70/226
f 63/65/227 57/82/228 56/83/229 62/64/230
f 62/64/231 56/83/232 19/80/233 40/79/234
f 63/65/235 53/60/236 17/71/237 39/84/238
