# This file uses centimeters as units for non-parametric coordinates.

v -17.489279 -5.183516 2.000000
v 2.364798 -6.320273 2.000000
v -17.638260 -3.407428 2.000000
v 2.997953 -3.764964 2.000000
v -18.494879 -2.923251 0.000000
v 3.780084 -3.094565 0.000000
v -18.494879 -5.891159 0.000000
v 3.593863 -6.916183 0.000000
v -7.223462 -5.549569 2.000000
v -10.679038 -3.694293 2.000000
v -11.528059 -2.976832 0.000000
v -6.156870 -6.463702 -0.000000
v 14.158484 11.154356 -0.000000
v 9.701623 12.750184 0.000000
v 1.723294 12.639598 0.000000
v -4.219836 8.512549 -0.000000
v -6.860288 1.414587 0.000000
v -5.979919 -5.298214 0.000000
v -1.908221 -10.910555 -0.000000
v 5.464856 -12.561245 0.000000
v 13.333139 -11.845945 0.000000
v 16.074844 -17.942196 0.000000
v 6.254685 -18.953970 0.000000
v -1.065798 -17.763647 -0.000000
v -8.386281 -13.359454 0.000000
v -12.671441 -5.800907 -0.000000
v -13.445151 1.400544 -0.000000
v -11.540635 9.018608 -0.000000
v -6.422249 15.089252 0.000000
v 1.671944 18.660219 -0.000000
v 10.361298 19.017317 -0.000000
v 17.503231 16.993769 -0.000000
v 5.223827 -13.181031 4.000000
v 6.031219 -17.501438 4.000000
v 13.281516 -16.750376 4.000000
v 11.783670 -12.706761 4.000000
v 13.779725 12.325066 4.000000
v 15.864477 16.658569 4.000000
v 9.951610 18.384163 4.000000
v 9.598325 13.438836 4.000000
v 1.560211 17.989820 4.000000
v 1.172372 13.259384 4.000000
v -6.161538 14.456098 4.000000
v -5.183950 8.994606 4.000000
v -10.870236 8.683409 4.000000
v -12.663019 1.624010 4.000000
v -0.618865 -16.907026 4.000000
v -2.011519 -11.599209 4.000000
v -7.715882 -12.651811 4.000000
v -6.461977 -6.055732 4.000000
v -11.889309 -4.907042 4.000000
v -7.996565 0.347175 4.000000
v -17.462284 2.685866 2.000000
v 2.689749 2.223526 2.000000
v -17.648506 4.481836 2.000000
v 2.317305 4.965057 2.000000
v -18.393396 4.817037 0.000000
v 3.695348 5.411990 0.000000
v -18.393396 1.643023 -0.000000
v 3.695348 1.702105 0.000000
v -2.454352 2.701844 2.000000
v -1.330488 4.765911 2.000000
v -1.151093 5.281453 0.000000
v -2.745451 1.684878 -0.000000
v -17.489279 -5.183516 -2.000000
v 2.364798 -6.320273 -2.000000
v -17.638260 -3.407428 -2.000000
v 2.997953 -3.764964 -2.000000
v -6.445531 -5.120874 -2.000000
v -10.679038 -3.694293 -2.000000
v 5.223827 -13.181031 -4.000000
v 6.031219 -17.501438 -4.000000
v 13.281516 -16.750376 -4.000000
v 11.783670 -12.706761 -4.000000
v 13.779725 12.325066 -4.000000
v 15.864477 16.658569 -4.000000
v 9.951610 18.384163 -4.000000
v 9.598325 13.438836 -4.000000
v 1.560211 17.989820 -4.000000
v 1.172372 13.259384 -4.000000
v -6.161538 14.456098 -4.000000
v -5.183950 8.994606 -4.000000
v -10.870236 8.683409 -4.000000
v -12.663019 1.624010 -4.000000
v -0.618865 -16.907026 -4.000000
v -2.011519 -11.599209 -4.000000
v -7.715882 -12.651811 -4.000000
v -6.461977 -6.055732 -4.000000
v -11.889309 -4.907042 -4.000000
v -7.996565 0.347175 -4.000000
v -17.462284 2.685866 -2.000000
v 2.689749 2.223526 -2.000000
v -17.648506 4.481836 -2.000000
v 2.317305 4.965057 -2.000000
v -2.454352 2.701844 -2.000000
v -1.330488 4.765911 -2.000000
vt 0.007666 0.951883
vt 0.010591 0.951784
vt 0.009606 0.952285
vt 0.007623 0.952363
vt 0.009364 0.952479
vt 0.007379 0.952494
vt 0.007379 0.951692
vt 0.010895 0.951537
vt 0.013323 0.951576
vt 0.013673 0.951415
vt 0.013726 0.952447
vt 0.013503 0.952266
vt 0.014188 0.949429
vt 0.014368 0.948555
vt 0.016434 0.948758
vt 0.016209 0.949567
vt 0.016825 0.956882
vt 0.017170 0.957783
vt 0.015485 0.958250
vt 0.015536 0.957207
vt 0.013094 0.958143
vt 0.012939 0.957155
vt 0.010893 0.957188
vt 0.010980 0.955909
vt 0.009552 0.955629
vt 0.009041 0.953722
vt 0.011958 0.949891
vt 0.012473 0.948716
vt 0.010586 0.951511
vt 0.010451 0.949866
vt 0.010113 0.953382
vt 0.009261 0.951958
vt 0.014262 0.949610
vt 0.016687 0.949819
vt 0.017230 0.948436
vt 0.014431 0.948163
vt 0.016941 0.956540
vt 0.015568 0.957006
vt 0.015602 0.958421
vt 0.017637 0.957874
vt 0.013109 0.956974
vt 0.013126 0.958324
vt 0.011277 0.955768
vt 0.010819 0.957360
vt 0.008818 0.953662
vt 0.009361 0.955720
vt 0.011989 0.950092
vt 0.012345 0.948485
vt 0.010734 0.951732
vt 0.010260 0.949674
vt 0.010463 0.953694
vt 0.009038 0.951716
vt 0.007673 0.954009
vt 0.011950 0.954013
vt 0.012270 0.954571
vt 0.007620 0.954494
vt 0.012321 0.954710
vt 0.007408 0.954584
vt 0.007408 0.953727
vt 0.011867 0.953738
vt 0.013416 0.953884
vt 0.013702 0.953743
vt 0.013702 0.954745
vt 0.013310 0.954625
vt 0.007666 0.951883
vt 0.010591 0.951784
vt 0.009606 0.952285
vt 0.007623 0.952363
vt 0.009364 0.952479
vt 0.007379 0.952494
vt 0.007379 0.951692
vt 0.010895 0.951537
vt 0.013323 0.951576
vt 0.013673 0.951415
vt 0.013726 0.952447
vt 0.013503 0.952266
vt 0.014188 0.949429
vt 0.014368 0.948555
vt 0.016434 0.948758
vt 0.016209 0.949567
vt 0.016825 0.956882
vt 0.017170 0.957783
vt 0.015485 0.958250
vt 0.015536 0.957207
vt 0.013094 0.958143
vt 0.012939 0.957155
vt 0.010893 0.957188
vt 0.010980 0.955909
vt 0.009552 0.955629
vt 0.009041 0.953722
vt 0.011958 0.949891
vt 0.012473 0.948716
vt 0.010586 0.951511
vt 0.010451 0.949866
vt 0.010113 0.953382
vt 0.009261 0.951958
vt 0.014431 0.948163
vt 0.017230 0.948436
vt 0.016687 0.949819
vt 0.014262 0.949610
vt 0.016941 0.956540
vt 0.017637 0.957874
vt 0.015602 0.958421
vt 0.015568 0.957006
vt 0.013126 0.958324
vt 0.013109 0.956974
vt 0.010819 0.957360
vt 0.011277 0.955768
vt 0.009361 0.955720
vt 0.008818 0.953662
vt 0.012345 0.948485
vt 0.011989 0.950092
vt 0.010260 0.949674
vt 0.010734 0.951732
vt 0.009038 0.951716
vt 0.010463 0.953694
vt 0.007673 0.954009
vt 0.011950 0.954013
vt 0.012270 0.954571
vt 0.007620 0.954494
vt 0.012321 0.954710
vt 0.007408 0.954584
vt 0.007408 0.953727
vt 0.011867 0.953738
vt 0.013416 0.953884
vt 0.013702 0.953743
vt 0.013702 0.954745
vt 0.013310 0.954625
vn 0.000000 0.000000 1.000000
vn 0.000000 0.000000 1.000000
vn 0.000000 0.000000 1.000000
vn 0.000000 0.000000 1.000000
vn 0.023473 0.960168 0.278435
vn 0.009987 0.948422 0.316853
vn 0.013726 0.951848 0.306263
vn 0.023473 0.960168 0.278435
vn -0.038461 -0.926245 0.374954
vn -0.051446 -0.937897 0.343077
vn -0.045063 -0.932317 0.358823
vn -0.038461 -0.926245 0.374954
vn 0.888436 -0.114156 0.444579
vn 0.888436 -0.114156 0.444579
vn 0.888436 -0.114156 0.444579
vn 0.888436 -0.114156 0.444579
vn -0.905594 -0.028440 0.423192
vn -0.905594 -0.028440 0.423192
vn -0.905594 -0.028440 0.423192
vn -0.905594 -0.028440 0.423192
vn 0.000000 0.000000 1.000000
vn 0.000000 0.000000 1.000000
vn 0.000000 0.000000 1.000000
vn 0.000000 0.000000 1.000000
vn 0.013726 0.951848 0.306263
vn 0.009987 0.948422 0.316853
vn 0.006141 0.944763 0.327697
vn 0.006141 0.944763 0.327697
vn -0.045063 -0.932317 0.358823
vn -0.051446 -0.937897 0.343077
vn -0.059754 -0.944732 0.322353
vn -0.059754 -0.944732 0.322353
vn 0.000000 0.000000 1.000000
vn 0.000000 0.000000 1.000000
vn 0.000000 0.000000 1.000000
vn 0.000000 0.000000 1.000000
vn 0.000000 0.000000 1.000000
vn 0.000000 0.000000 1.000000
vn 0.000000 0.000000 1.000000
vn 0.000000 0.000000 1.000000
vn 0.000000 0.000000 1.000000
vn 0.000000 0.000000 1.000000
vn 0.000000 0.000000 1.000000
vn 0.000000 0.000000 1.000000
vn 0.000000 0.000000 1.000000
vn 0.000000 0.000000 1.000000
vn 0.000000 0.000000 1.000000
vn 0.000000 0.000000 1.000000
vn 0.000000 0.000000 1.000000
vn 0.000000 0.000000 1.000000
vn 0.000000 0.000000 1.000000
vn 0.000000 0.000000 1.000000
vn 0.000000 0.000000 1.000000
vn 0.000000 0.000000 1.000000
vn 0.000000 0.000000 1.000000
vn 0.000000 0.000000 1.000000
vn 0.000000 0.000000 1.000000
vn 0.000000 0.000000 1.000000
vn 0.000000 0.000000 1.000000
vn 0.000000 0.000000 1.000000
vn 0.000000 0.000000 1.000000
vn 0.000000 0.000000 1.000000
vn 0.000000 0.000000 1.000000
vn 0.000000 0.000000 1.000000
vn 0.000000 0.000000 1.000000
vn 0.000000 0.000000 1.000000
vn 0.000000 0.000000 1.000000
vn 0.000000 0.000000 1.000000
vn 0.096416 -0.933648 0.344970
vn 0.096416 -0.933648 0.344970
vn 0.096416 -0.933648 0.344970
vn 0.096416 -0.933649 0.344970
vn 0.830164 0.347098 0.436293
vn 0.830164 0.347098 0.436293
vn 0.830164 0.347098 0.436293
vn 0.830164 0.347098 0.436293
vn -0.082169 0.996618 0.000000
vn -0.082169 0.996618 0.000000
vn -0.081059 0.983155 0.163816
vn -0.081059 0.983155 0.163816
vn 0.851356 -0.454386 0.262158
vn 0.851356 -0.454386 0.262158
vn 0.851356 -0.454386 0.262158
vn 0.851356 -0.454386 0.262158
vn 0.276028 0.961150 -0.000000
vn 0.276028 0.961150 -0.000000
vn 0.271324 0.944769 0.183833
vn 0.271324 0.944769 0.183833
vn -0.299295 -0.954161 -0.000000
vn -0.299295 -0.954161 -0.000000
vn -0.293271 -0.934954 0.199630
vn -0.293271 -0.934954 0.199630
vn -0.043951 0.999034 -0.000000
vn -0.043951 0.999034 -0.000000
vn -0.043399 0.986498 0.157915
vn -0.043399 0.986498 0.157915
vn 0.017678 -0.999844 0.000000
vn 0.017678 -0.999844 0.000000
vn 0.017442 -0.986509 0.162775
vn 0.017442 -0.986509 0.162775
vn -0.409766 0.912191 -0.000000
vn -0.409766 0.912191 -0.000000
vn -0.404852 0.901253 0.154393
vn -0.404853 0.901253 0.154393
vn 0.563604 -0.826045 0.000000
vn 0.563604 -0.826045 0.000000
vn 0.550382 -0.806666 0.215334
vn 0.550382 -0.806666 0.215334
vn -0.769573 0.638559 0.000000
vn -0.769573 0.638559 0.000000
vn -0.759078 0.629850 0.164588
vn -0.759078 0.629850 0.164588
vn -0.969707 0.244272 0.000000
vn -0.969707 0.244272 0.000000
vn -0.954456 0.240430 0.176655
vn -0.954456 0.240430 0.176655
vn -0.121710 -0.952723 0.278398
vn -0.121710 -0.952723 0.278398
vn -0.121710 -0.952723 0.278398
vn -0.121710 -0.952723 0.278398
vn 0.216051 0.976382 -0.000000
vn 0.216051 0.976382 -0.000000
vn 0.213031 0.962732 0.166628
vn 0.213031 0.962732 0.166628
vn -0.514885 -0.857259 -0.000000
vn -0.514885 -0.857259 -0.000000
vn -0.500721 -0.833676 0.232945
vn -0.500721 -0.833676 0.232945
vn 0.794659 0.607056 0.000000
vn 0.794659 0.607056 0.000000
vn 0.783692 0.598678 0.165566
vn 0.783692 0.598678 0.165566
vn -0.875206 -0.483751 0.000000
vn -0.875205 -0.483751 0.000000
vn -0.847914 -0.468667 0.247775
vn -0.847915 -0.468667 0.247775
vn 0.983468 0.181083 -0.000000
vn 0.983468 0.181083 -0.000000
vn 0.956256 0.176073 0.233608
vn 0.956256 0.176073 0.233608
vn -0.993711 -0.111974 0.000000
vn -0.993711 -0.111974 0.000000
vn -0.972510 -0.109585 0.205463
vn -0.972510 -0.109585 0.205463
vn 0.944935 -0.327257 0.000000
vn 0.944935 -0.327257 0.000000
vn 0.922056 -0.319334 0.218719
vn 0.922056 -0.319334 0.218719
vn 0.000000 0.000000 1.000000
vn 0.000000 0.000000 1.000000
vn 0.000000 0.000000 1.000000
vn 0.000000 0.000000 1.000000
vn -0.021796 0.977258 0.210930
vn -0.024738 0.976833 0.212567
vn -0.025957 0.999663 -0.000000
vn -0.022297 0.999751 -0.000000
vn 0.001678 -0.889254 0.457411
vn -0.007407 -0.901080 0.433589
vn -0.009710 -0.903966 0.427494
vn 0.001678 -0.889254 0.457411
vn 0.858389 0.049555 0.510600
vn 0.858389 0.049555 0.510600
vn 0.858389 0.049555 0.510600
vn 0.858389 0.049555 0.510600
vn -0.919576 -0.034455 0.391399
vn -0.919576 -0.034455 0.391399
vn -0.919576 -0.034455 0.391399
vn -0.919576 -0.034455 0.391399
vn 0.000000 0.000000 1.000000
vn 0.000000 0.000000 1.000000
vn 0.000000 0.000000 1.000000
vn 0.000000 0.000000 1.000000
vn -0.025957 0.999663 -0.000000
vn -0.024738 0.976833 0.212567
vn -0.037835 0.974805 0.219825
vn -0.038783 0.999248 0.000000
vn -0.009710 -0.903966 0.427494
vn -0.007407 -0.901080 0.433589
vn -0.037210 -0.934914 0.352918
vn -0.037210 -0.934914 0.352918
vn 0.000000 0.000000 -1.000000
vn 0.000000 0.000000 -1.000000
vn 0.000000 0.000000 -1.000000
vn 0.000000 0.000000 -1.000000
vn 0.023473 0.960168 -0.278435
vn 0.023473 0.960168 -0.278434
vn 0.013726 0.951848 -0.306263
vn 0.009987 0.948422 -0.316853
vn -0.019372 -0.888310 -0.458836
vn -0.019372 -0.888310 -0.458836
vn -0.043255 -0.896892 -0.440130
vn -0.049109 -0.898862 -0.435473
vn 0.888436 -0.114156 -0.444579
vn 0.888436 -0.114156 -0.444579
vn 0.888436 -0.114156 -0.444579
vn 0.888436 -0.114156 -0.444579
vn -0.905594 -0.028440 -0.423192
vn -0.905594 -0.028440 -0.423192
vn -0.905594 -0.028440 -0.423192
vn -0.905594 -0.028440 -0.423192
vn 0.000000 0.000000 -1.000000
vn 0.000000 0.000000 -1.000000
vn 0.000000 0.000000 -1.000000
vn 0.000000 0.000000 -1.000000
vn 0.013726 0.951848 -0.306263
vn 0.006141 0.944763 -0.327697
vn 0.006141 0.944763 -0.327697
vn 0.009987 0.948422 -0.316853
vn -0.043255 -0.896892 -0.440130
vn -0.080865 -0.908623 -0.409713
vn -0.080865 -0.908623 -0.409713
vn -0.049109 -0.898862 -0.435473
vn 0.000000 0.000000 -1.000000
vn 0.000000 0.000000 -1.000000
vn 0.000000 0.000000 -1.000000
vn 0.000000 0.000000 -1.000000
vn 0.000000 0.000000 -1.000000
vn 0.000000 0.000000 -1.000000
vn 0.000000 0.000000 -1.000000
vn 0.000000 0.000000 -1.000000
vn 0.000000 0.000000 -1.000000
vn 0.000000 0.000000 -1.000000
vn 0.000000 0.000000 -1.000000
vn 0.000000 0.000000 -1.000000
vn 0.000000 0.000000 -1.000000
vn 0.000000 0.000000 -1.000000
vn 0.000000 0.000000 -1.000000
vn 0.000000 0.000000 -1.000000
vn 0.000000 0.000000 -1.000000
vn 0.000000 0.000000 -1.000000
vn 0.000000 0.000000 -1.000000
vn 0.000000 0.000000 -1.000000
vn 0.000000 0.000000 -1.000000
vn 0.000000 0.000000 -1.000000
vn 0.000000 0.000000 -1.000000
vn 0.000000 0.000000 -1.000000
vn 0.000000 0.000000 -1.000000
vn 0.000000 0.000000 -1.000000
vn 0.000000 0.000000 -1.000000
vn 0.000000 0.000000 -1.000000
vn 0.000000 0.000000 -1.000000
vn 0.000000 0.000000 -1.000000
vn 0.000000 0.000000 -1.000000
vn 0.000000 0.000000 -1.000000
vn 0.000000 0.000000 -1.000000
vn 0.000000 0.000000 -1.000000
vn 0.000000 0.000000 -1.000000
vn 0.000000 0.000000 -1.000000
vn 0.096416 -0.933648 -0.344970
vn 0.096416 -0.933649 -0.344970
vn 0.096416 -0.933648 -0.344970
vn 0.096416 -0.933648 -0.344970
vn 0.830164 0.347098 -0.436293
vn 0.830164 0.347098 -0.436293
vn 0.830164 0.347098 -0.436293
vn 0.830164 0.347097 -0.436293
vn -0.082169 0.996618 0.000000
vn -0.081059 0.983155 -0.163816
vn -0.081059 0.983155 -0.163816
vn -0.082169 0.996618 0.000000
vn 0.851356 -0.454386 -0.262158
vn 0.851356 -0.454386 -0.262158
vn 0.851356 -0.454386 -0.262158
vn 0.851356 -0.454386 -0.262158
vn 0.276028 0.961150 -0.000000
vn 0.271324 0.944769 -0.183833
vn 0.271324 0.944769 -0.183833
vn 0.276028 0.961150 -0.000000
vn -0.299295 -0.954161 -0.000000
vn -0.293271 -0.934954 -0.199630
vn -0.293271 -0.934954 -0.199630
vn -0.299295 -0.954161 -0.000000
vn -0.043951 0.999034 -0.000000
vn -0.043399 0.986498 -0.157915
vn -0.043399 0.986498 -0.157915
vn -0.043951 0.999034 -0.000000
vn 0.017678 -0.999844 0.000000
vn 0.017442 -0.986509 -0.162775
vn 0.017442 -0.986509 -0.162775
vn 0.017678 -0.999844 0.000000
vn -0.409766 0.912191 -0.000000
vn -0.404852 0.901253 -0.154394
vn -0.404852 0.901253 -0.154394
vn -0.409766 0.912191 -0.000000
vn 0.563604 -0.826045 0.000000
vn 0.550382 -0.806666 -0.215334
vn 0.550382 -0.806666 -0.215334
vn 0.563604 -0.826045 0.000000
vn -0.769573 0.638559 0.000000
vn -0.759078 0.629850 -0.164588
vn -0.759078 0.629850 -0.164588
vn -0.769573 0.638559 0.000000
vn -0.969707 0.244272 0.000000
vn -0.954456 0.240430 -0.176655
vn -0.954456 0.240430 -0.176655
vn -0.969707 0.244272 0.000000
vn -0.121710 -0.952723 -0.278398
vn -0.121710 -0.952723 -0.278398
vn -0.121710 -0.952723 -0.278398
vn -0.121710 -0.952723 -0.278398
vn 0.216051 0.976382 -0.000000
vn 0.213031 0.962732 -0.166628
vn 0.213031 0.962732 -0.166628
vn 0.216051 0.976382 -0.000000
vn -0.514885 -0.857259 -0.000000
vn -0.500721 -0.833676 -0.232945
vn -0.500721 -0.833676 -0.232945
vn -0.514885 -0.857259 -0.000000
vn 0.794659 0.607056 0.000000
vn 0.783692 0.598678 -0.165566
vn 0.783692 0.598678 -0.165566
vn 0.794659 0.607056 0.000000
vn -0.875206 -0.483751 0.000000
vn -0.847915 -0.468667 -0.247775
vn -0.847915 -0.468667 -0.247775
vn -0.875205 -0.483751 0.000000
vn 0.983468 0.181083 -0.000000
vn 0.956256 0.176073 -0.233608
vn 0.956256 0.176073 -0.233608
vn 0.983468 0.181083 -0.000000
vn -0.993711 -0.111974 0.000000
vn -0.972510 -0.109585 -0.205463
vn -0.972510 -0.109585 -0.205463
vn -0.993711 -0.111974 0.000000
vn 0.944935 -0.327257 0.000000
vn 0.922056 -0.319334 -0.218719
vn 0.922056 -0.319334 -0.218719
vn 0.944935 -0.327257 0.000000
vn -0.000000 0.000000 -1.000000
vn -0.000000 0.000000 -1.000000
vn -0.000000 0.000000 -1.000000
vn -0.000000 0.000000 -1.000000
vn -0.021796 0.977258 -0.210930
vn -0.022297 0.999751 -0.000000
vn -0.025957 0.999663 -0.000000
vn -0.024738 0.976833 -0.212567
vn 0.001678 -0.889254 -0.457411
vn 0.001678 -0.889254 -0.457411
vn -0.009710 -0.903966 -0.427494
vn -0.007407 -0.901080 -0.433589
vn 0.858389 0.049555 -0.510600
vn 0.858389 0.049555 -0.510600
vn 0.858389 0.049555 -0.510600
vn 0.858389 0.049555 -0.510600
vn -0.919576 -0.034455 -0.391399
vn -0.919576 -0.034455 -0.391399
vn -0.919576 -0.034455 -0.391399
vn -0.919576 -0.034455 -0.391399
vn -0.000000 0.000000 -1.000000
vn 0.000000 0.000000 -1.000000
vn 0.000000 0.000000 -1.000000
vn -0.000000 0.000000 -1.000000
vn -0.025957 0.999663 -0.000000
vn -0.038783 0.999248 0.000000
vn -0.037835 0.974805 -0.219825
vn -0.024738 0.976833 -0.212567
vn -0.009710 -0.903966 -0.427494
vn -0.037210 -0.934914 -0.352918
vn -0.037210 -0.934914 -0.352918
vn -0.007407 -0.901080 -0.433589
s off
f 1/1/1 9/2/2 10/3/3 3/4/4
f 3/4/5 10/3/6 11/5/7 5/6/8
f 7/7/9 12/8/10 9/2/11 1/1/12
f 2/9/13 8/10/14 6/11/15 4/12/16
f 7/7/17 1/1/18 3/4/19 5/6/20
f 10/3/21 9/2/22 2/9/23 4/12/24
f 11/5/25 10/3/26 4/12/27 6/11/28
f 9/2/29 12/8/30 8/10/31 2/9/32
f 33/13/33 34/14/34 35/15/35 36/16/36
f 37/17/37 38/18/38 39/19/39 40/20/40
f 40/20/41 39/19/42 41/21/43 42/22/44
f 42/22/45 41/21/46 43/23/47 44/24/48
f 44/24/49 43/23/50 45/25/51 46/26/52
f 48/27/53 47/28/54 34/14/55 33/13/56
f 50/29/57 49/30/58 47/28/59 48/27/60
f 52/31/61 51/32/62 49/30/63 50/29/64
f 44/24/65 46/26/66 51/32/67 52/31/68
f 23/36/69 22/35/70 35/15/71 34/14/72
f 22/35/73 21/34/74 36/16/75 35/15/76
f 21/34/77 20/33/78 33/13/79 36/16/80
f 13/37/81 32/40/82 38/18/83 37/17/84
f 32/40/85 31/39/86 39/19/87 38/18/88
f 14/38/89 13/37/90 37/17/91 40/20/92
f 31/39/93 30/42/94 41/21/95 39/19/96
f 15/41/97 14/38/98 40/20/99 42/22/100
f 30/42/101 29/44/102 43/23/103 41/21/104
f 16/43/105 15/41/106 42/22/107 44/24/108
f 29/44/109 28/46/110 45/25/111 43/23/112
f 28/46/113 27/45/114 46/26/115 45/25/116
f 24/48/117 23/36/118 34/14/119 47/28/120
f 20/33/121 19/47/122 48/27/123 33/13/124
f 25/50/125 24/48/126 47/28/127 49/30/128
f 19/47/129 18/49/130 50/29/131 48/27/132
f 26/52/133 25/50/134 49/30/135 51/32/136
f 18/49/137 17/51/138 52/31/139 50/29/140
f 27/45/141 26/52/142 51/32/143 46/26/144
f 17/51/145 16/43/146 44/24/147 52/31/148
f 53/53/149 61/54/150 62/55/151 55/56/152
f 55/56/153 62/55/154 63/57/155 57/58/156
f 59/59/157 64/60/158 61/54/159 53/53/160
f 54/61/161 60/62/162 58/63/163 56/64/164
f 59/59/165 53/53/166 55/56/167 57/58/168
f 62/55/169 61/54/170 54/61/171 56/64/172
f 63/57/173 62/55/174 56/64/175 58/63/176
f 61/54/177 64/60/178 60/62/179 54/61/180
f 65/65/181 67/68/182 70/67/183 69/66/184
f 67/68/185 5/70/186 11/69/187 70/67/188
f 7/71/189 65/65/190 69/66/191 12/72/192
f 66/73/193 68/76/194 6/75/195 8/74/196
f 7/71/197 5/70/198 67/68/199 65/65/200
f 70/67/201 68/76/202 66/73/203 69/66/204
f 11/69/205 6/75/206 68/76/207 70/67/208
f 69/66/209 66/73/210 8/74/211 12/72/212
f 71/77/213 74/80/214 73/79/215 72/78/216
f 75/81/217 78/84/218 77/83/219 76/82/220
f 78/84/221 80/86/222 79/85/223 77/83/224
f 80/86/225 82/88/226 81/87/227 79/85/228
f 82/88/229 84/90/230 83/89/231 81/87/232
f 86/91/233 71/77/234 72/78/235 85/92/236
f 88/93/237 86/91/238 85/92/239 87/94/240
f 90/95/241 88/93/242 87/94/243 89/96/244
f 82/88/245 90/95/246 89/96/247 84/90/248
f 23/97/249 72/78/250 73/79/251 22/98/252
f 22/98/253 73/79/254 74/80/255 21/99/256
f 21/99/257 74/80/258 71/77/259 20/100/260
f 13/101/261 75/81/262 76/82/263 32/102/264
f 32/102/265 76/82/266 77/83/267 31/103/268
f 14/104/269 78/84/270 75/81/271 13/101/272
f 31/103/273 77/83/274 79/85/275 30/105/276
f 15/106/277 80/86/278 78/84/279 14/104/280
f 30/105/281 79/85/282 81/87/283 29/107/284
f 16/108/285 82/88/286 80/86/287 15/106/288
f 29/107/289 81/87/290 83/89/291 28/109/292
f 28/109/293 83/89/294 84/90/295 27/110/296
f 24/111/297 85/92/298 72/78/299 23/97/300
f 20/100/301 71/77/302 86/91/303 19/112/304
f 25/113/305 87/94/306 85/92/307 24/111/308
f 19/112/309 86/91/310 88/93/311 18/114/312
f 26/115/313 89/96/314 87/94/315 25/113/316
f 18/114/317 88/93/318 90/95/319 17/116/320
f 27/110/321 84/90/322 89/96/323 26/115/324
f 17/116/325 90/95/326 82/88/327 16/108/328
f 91/117/329 93/120/330 96/119/331 95/118/332
f 93/120/333 57/122/334 63/121/335 96/119/336
f 59/123/337 91/117/338 95/118/339 64/124/340
f 92/125/341 94/128/342 58/127/343 60/126/344
f 59/123/345 57/122/346 93/120/347 91/117/348
f 96/119/349 94/128/350 92/125/351 95/118/352
f 63/121/353 58/127/354 94/128/355 96/119/356
f 95/118/357 92/125/358 60/126/359 64/124/360
