# This file uses centimeters as units for non-parametric coordinates.

v -1.643921 16.757874 -0.077352
v 1.643921 16.757874 -0.077352
v -0.814423 15.750809 -2.154365
v 0.915543 15.750809 -2.154365
v -1.145782 12.733795 -2.154365
v 1.145782 12.733795 -2.154365
v -2.377487 12.022232 -0.077352
v 2.377487 12.022232 -0.077352
v -7.647446 -17.119049 -0.077352
v 7.647446 -17.119049 -0.077352
v -7.647446 7.179367 -0.077352
v 7.647446 7.179367 -0.077352
v -3.539825 12.022232 -0.077352
v 3.539825 12.022232 -0.077352
v -2.084656 11.354080 -2.173944
v 2.084656 11.157043 -2.173944
v -5.120148 6.885757 -2.173944
v 5.369797 7.179367 -2.173944
v -5.071213 -17.119049 -2.173944
v 5.369797 -17.119049 -2.173944
v 7.647446 -0.125473 -0.077352
v 5.369797 -0.125473 -2.173944
v 7.647446 -12.420959 -0.077352
v 5.369797 -12.418610 -2.173944
v 0.967346 -0.125473 -2.173944
v 0.967346 -12.420959 -2.173944
v 6.260513 -11.451553 -4.000000
v 6.260513 -0.805695 -4.000000
v 1.988373 -1.193176 -4.000000
v 1.795151 -11.740738 -4.000000
v 8.277878 -0.805695 -0.077352
v 8.277878 -11.740738 -0.077352
v -8.503677 -19.945435 -0.077349
v -5.737793 -19.945435 -4.000000
v 8.503677 -19.945435 -0.077352
v 6.053482 -19.945435 -4.000000
v -5.737793 -18.196518 -4.000000
v 6.053482 -18.010605 -4.000000
v 3.460770 13.473831 -0.077347
v 11.802414 8.693710 -0.077345
v 3.460770 15.197998 -0.077343
v 11.802414 19.978119 -0.077339
v 11.044067 10.451340 -2.154357
v 11.044067 18.220505 -2.154359
v 4.606583 14.335922 -2.154358
v -8.503677 -18.010605 -0.077349
v 8.503677 -18.010605 -0.077349
v -0.814423 15.750809 1.999661
v 0.915543 15.750809 1.999661
v -1.145782 12.733795 1.999661
v 1.145782 12.733795 1.999661
v -2.084656 11.354080 2.019241
v 2.084656 11.157043 2.019241
v -5.120148 6.885757 2.019241
v 5.369797 7.179367 2.019241
v -5.071213 -17.119049 2.019241
v 5.369797 -17.119049 2.019241
v 5.369797 -0.125473 2.019241
v 5.369797 -12.418610 2.019241
v 0.967346 -0.125473 2.019241
v 0.967346 -12.420959 2.019241
v 6.260513 -11.451553 4.058403
v 6.260513 -0.805695 4.058403
v 1.988373 -1.193176 4.094945
v 1.795151 -11.740738 4.094945
v -5.737793 -19.945435 4.076674
v 6.053482 -19.945435 4.076674
v -5.737793 -18.196518 4.076674
v 6.053482 -18.010605 4.076674
v 11.044067 10.451340 1.999661
v 11.044067 18.220505 1.999661
v 4.606583 14.335922 1.999661
vt 0.983244 0.984619
vt 0.983238 0.984579
vt 0.983283 0.984579
vt 0.983278 0.984619
vt 0.983225 0.984643
vt 0.983212 0.984570
vt 0.983303 0.984571
vt 0.983289 0.984644
vt 0.983015 0.984464
vt 0.982824 0.952003
vt 0.983597 0.952025
vt 0.983112 0.984466
vt 0.013506 0.952655
vt 0.013434 0.952656
vt 0.013394 0.952600
vt 0.013547 0.952606
vt 0.982814 0.951784
vt 0.982654 0.951866
vt 0.983736 0.951899
vt 0.983630 0.951810
vt 0.983679 0.952069
vt 0.013562 0.952375
vt 0.013424 0.952668
vt 0.013373 0.952607
vt 0.013563 0.952610
vt 0.013512 0.952669
vt 0.983113 0.984693
vt 0.983137 0.984702
vt 0.983014 0.984691
vt 0.013376 0.952314
vt 0.983133 0.984474
vt 0.983148 0.984491
vt 0.983149 0.984690
vt 0.983134 0.984672
vt 0.983040 0.984663
vt 0.983036 0.984465
vt 0.982787 0.951892
vt 0.982656 0.951985
vt 0.983733 0.952016
vt 0.983656 0.951930
vt 0.013641 0.952441
vt 0.013642 0.952546
vt 0.013560 0.952492
vt 0.013647 0.952425
vt 0.013649 0.952566
vt 0.013544 0.952500
vt 0.013544 0.952488
vt 0.983136 0.984478
vt 0.013563 0.952521
vt 0.013483 0.952365
vt 0.013483 0.952514
vt 0.013546 0.952367
vt 0.013547 0.952515
vt 0.013398 0.952307
vt 0.013546 0.952311
vt 0.013562 0.952320
vt 0.982710 0.952041
vt 0.983244 0.984619
vt 0.983238 0.984579
vt 0.983283 0.984579
vt 0.983278 0.984619
vt 0.983225 0.984643
vt 0.983212 0.984570
vt 0.983303 0.984571
vt 0.983289 0.984644
vt 0.013483 0.952365
vt 0.013398 0.952307
vt 0.013546 0.952311
vt 0.013546 0.952367
vt 0.013506 0.952655
vt 0.013434 0.952656
vt 0.013394 0.952600
vt 0.013547 0.952606
vt 0.982808 0.951784
vt 0.982654 0.951866
vt 0.983736 0.951899
vt 0.983638 0.951810
vt 0.013562 0.952320
vt 0.013562 0.952375
vt 0.013424 0.952668
vt 0.013373 0.952607
vt 0.013563 0.952610
vt 0.013512 0.952669
vt 0.013547 0.952515
vt 0.013563 0.952521
vt 0.013483 0.952514
vt 0.013376 0.952314
vt 0.983133 0.984474
vt 0.983112 0.984466
vt 0.983136 0.984478
vt 0.983148 0.984491
vt 0.983149 0.984690
vt 0.983134 0.984672
vt 0.983040 0.984663
vt 0.983014 0.984691
vt 0.983015 0.984464
vt 0.983036 0.984465
vt 0.983137 0.984702
vt 0.983113 0.984693
vt 0.982787 0.951892
vt 0.982656 0.951985
vt 0.982710 0.952041
vt 0.983679 0.952069
vt 0.983733 0.952016
vt 0.983656 0.951930
vt 0.982824 0.952003
vt 0.983597 0.952025
vt 0.013641 0.952441
vt 0.013642 0.952546
vt 0.013560 0.952492
vt 0.013647 0.952425
vt 0.013649 0.952566
vt 0.013544 0.952500
vt 0.013544 0.952488
vn 0.000000 0.000000 -1.000000
vn 0.000000 0.000000 -1.000000
vn 0.000000 0.000000 -1.000000
vn 0.000000 0.000000 -1.000000
vn -0.885660 0.121657 -0.448114
vn -0.885660 0.121657 -0.448113
vn -0.885660 0.121657 -0.448114
vn -0.885660 0.121657 -0.448114
vn 0.895674 0.111350 -0.430546
vn 0.895674 0.111350 -0.430546
vn 0.895674 0.111350 -0.430546
vn 0.895674 0.111350 -0.430546
vn 0.000000 0.899809 -0.436283
vn 0.000000 0.899809 -0.436283
vn 0.000000 0.899809 -0.436283
vn 0.000000 0.899809 -0.436283
vn 0.000000 -0.946024 -0.324098
vn 0.000000 -0.946024 -0.324098
vn 0.000000 -0.946024 -0.324098
vn 0.000000 -0.946024 -0.324098
vn 0.000000 0.000000 -1.000000
vn 0.000000 0.000000 -1.000000
vn 0.000000 0.000000 -1.000000
vn 0.000000 0.000000 -1.000000
vn -0.000000 0.000000 -1.000000
vn -0.000000 0.000000 -1.000000
vn -0.000000 0.000000 -1.000000
vn -0.000000 0.000000 -1.000000
vn 0.000000 -1.000000 -0.000000
vn 0.000000 -1.000000 -0.000000
vn 0.000000 -1.000000 -0.000000
vn 0.000000 -1.000000 -0.000000
vn 0.677259 0.000000 -0.735745
vn 0.677259 0.000000 -0.735745
vn 0.677259 0.000000 -0.735745
vn 0.677259 0.000000 -0.735745
vn -0.591754 0.453966 -0.666140
vn -0.591754 0.453966 -0.666140
vn -0.591754 0.453966 -0.666140
vn -0.591754 0.453966 -0.666140
vn 0.594151 0.497976 -0.631668
vn 0.594151 0.497976 -0.631668
vn 0.594151 0.497976 -0.631668
vn 0.594151 0.497976 -0.631668
vn 0.677259 0.000000 -0.735745
vn 0.677259 0.000000 -0.735745
vn 0.677259 0.000000 -0.735745
vn 0.677259 0.000000 -0.735745
vn 0.000000 0.000000 -1.000000
vn 0.000000 0.000000 -1.000000
vn 0.000000 0.000000 -1.000000
vn 0.000000 0.000000 -1.000000
vn -0.634852 -0.000643 -0.772634
vn -0.634852 -0.000643 -0.772634
vn -0.634852 -0.000643 -0.772634
vn -0.634852 -0.000643 -0.772634
vn 0.450638 -0.816417 -0.361094
vn 0.450638 -0.816417 -0.361094
vn 0.450638 -0.816417 -0.361094
vn 0.450638 -0.816417 -0.361094
vn 0.889288 0.000000 -0.457348
vn 0.889288 0.000000 -0.457348
vn 0.889288 0.000000 -0.457348
vn 0.889288 0.000000 -0.457348
vn -0.891842 0.007544 -0.452283
vn -0.891842 0.007544 -0.452283
vn -0.891842 0.007544 -0.452283
vn -0.891842 0.007544 -0.452283
vn 0.414568 0.860597 -0.295814
vn 0.414568 0.860597 -0.295814
vn 0.414568 0.860597 -0.295814
vn 0.414568 0.860597 -0.295814
vn 0.030127 -0.916387 -0.399158
vn 0.030127 -0.916387 -0.399158
vn 0.030127 -0.916387 -0.399158
vn 0.030127 -0.916387 -0.399158
vn -0.039889 0.893004 -0.448278
vn -0.039889 0.893004 -0.448278
vn -0.039889 0.893004 -0.448278
vn -0.039889 0.893004 -0.448278
vn 0.000000 0.000000 -1.000000
vn 0.000000 0.000000 -1.000000
vn 0.000000 0.000000 -1.000000
vn 0.000000 0.000000 -1.000000
vn -0.817267 0.000000 -0.576260
vn -0.817267 0.000000 -0.576260
vn -0.817267 0.000000 -0.576260
vn -0.817267 0.000000 -0.576260
vn 0.848140 0.000000 -0.529772
vn 0.848140 0.000000 -0.529772
vn 0.848140 0.000000 -0.529772
vn 0.848140 0.000000 -0.529772
vn 0.000000 0.000000 -1.000000
vn 0.000000 0.000000 -1.000000
vn 0.000000 0.000000 -1.000000
vn 0.000000 0.000000 -1.000000
vn -0.467192 0.767841 -0.438351
vn -0.467192 0.767841 -0.438351
vn -0.467192 0.767841 -0.438351
vn -0.467192 0.767841 -0.438351
vn -0.007360 0.880181 -0.474581
vn -0.007360 0.880181 -0.474581
vn -0.007360 0.880181 -0.474581
vn -0.007360 0.880181 -0.474581
vn 0.000000 0.000000 -1.000000
vn 0.000000 0.000000 -1.000000
vn 0.000000 0.000000 -1.000000
vn 0.000000 0.000000 -1.000000
vn 0.016448 0.939050 -0.343386
vn 0.016448 0.939050 -0.343386
vn 0.016448 0.939050 -0.343386
vn 0.016448 0.939050 -0.343386
vn 0.000000 -0.000000 -1.000000
vn 0.000000 -0.000000 -1.000000
vn 0.000000 -0.000000 -1.000000
vn 0.939347 0.000000 -0.342968
vn 0.939347 0.000000 -0.342968
vn 0.939347 0.000000 -0.342968
vn 0.939347 0.000000 -0.342968
vn -0.435371 0.742599 -0.508920
vn -0.435371 0.742599 -0.508920
vn -0.435371 0.742599 -0.508920
vn -0.435371 0.742599 -0.508920
vn -0.875600 0.000001 -0.483037
vn -0.875600 0.000001 -0.483037
vn -0.875600 0.000001 -0.483037
vn -0.435369 -0.742596 -0.508925
vn -0.435369 -0.742596 -0.508925
vn -0.435369 -0.742596 -0.508925
vn -0.435369 -0.742596 -0.508925
vn 0.476780 0.795260 -0.374489
vn 0.476780 0.795260 -0.374489
vn 0.476780 0.795260 -0.374489
vn 0.476780 0.795260 -0.374489
vn 0.000000 0.000000 1.000000
vn 0.000000 0.000000 1.000000
vn 0.000000 0.000000 1.000000
vn 0.000000 0.000000 1.000000
vn -0.885660 0.121657 0.448114
vn -0.885660 0.121657 0.448114
vn -0.885660 0.121657 0.448114
vn -0.885660 0.121657 0.448114
vn 0.895674 0.111350 0.430546
vn 0.895674 0.111350 0.430546
vn 0.895674 0.111350 0.430546
vn 0.895674 0.111350 0.430546
vn 0.000000 0.899809 0.436283
vn 0.000000 0.899809 0.436283
vn 0.000000 0.899809 0.436283
vn 0.000000 0.899809 0.436283
vn 0.000000 -0.946024 0.324098
vn 0.000000 -0.946024 0.324098
vn 0.000000 -0.946024 0.324098
vn 0.000000 -0.946024 0.324098
vn 0.000000 0.000000 1.000000
vn 0.000000 0.000000 1.000000
vn 0.000000 0.000000 1.000000
vn 0.000000 0.000000 1.000000
vn 0.000000 0.000000 1.000000
vn 0.000000 0.000000 1.000000
vn 0.000000 0.000000 1.000000
vn 0.000000 0.000000 1.000000
vn 0.000000 -1.000000 0.000000
vn 0.000000 -1.000000 0.000000
vn 0.000000 -1.000000 0.000000
vn 0.000000 -1.000000 0.000000
vn 0.677259 0.000000 0.735745
vn 0.677259 0.000000 0.735745
vn 0.677259 0.000000 0.735745
vn 0.677259 0.000000 0.735745
vn -0.591754 0.453966 0.666140
vn -0.591754 0.453966 0.666140
vn -0.591754 0.453966 0.666140
vn -0.591754 0.453966 0.666140
vn 0.594151 0.497976 0.631668
vn 0.594151 0.497976 0.631668
vn 0.594151 0.497976 0.631668
vn 0.594151 0.497976 0.631668
vn 0.677259 0.000000 0.735745
vn 0.677259 0.000000 0.735745
vn 0.677259 0.000000 0.735745
vn 0.677259 0.000000 0.735745
vn 0.000000 0.000000 1.000000
vn 0.000000 0.000000 1.000000
vn 0.000000 0.000000 1.000000
vn 0.000000 0.000000 1.000000
vn -0.634852 -0.000643 0.772634
vn -0.634852 -0.000643 0.772634
vn -0.634852 -0.000643 0.772634
vn -0.634852 -0.000643 0.772634
vn 0.440216 -0.830124 0.342206
vn 0.440216 -0.830124 0.342206
vn 0.440216 -0.830124 0.342205
vn 0.440216 -0.830124 0.342206
vn 0.898775 0.000000 0.438410
vn 0.898775 0.000000 0.438410
vn 0.898775 0.000000 0.438410
vn 0.898775 0.000000 0.438410
vn -0.913209 0.007725 0.407419
vn -0.913209 0.007725 0.407419
vn -0.913209 0.007725 0.407419
vn -0.913209 0.007725 0.407419
vn 0.404818 0.870800 0.278980
vn 0.404818 0.870800 0.278980
vn 0.404818 0.870800 0.278980
vn 0.404818 0.870800 0.278980
vn 0.032138 -0.932452 0.359861
vn 0.032138 -0.932452 0.359861
vn 0.032138 -0.932452 0.359861
vn 0.032138 -0.932452 0.359861
vn -0.039074 0.913039 0.405997
vn -0.039074 0.913039 0.405997
vn -0.039074 0.913039 0.405997
vn -0.039074 0.913039 0.405997
vn -0.000000 0.000000 1.000000
vn -0.000000 0.000000 1.000000
vn -0.000000 0.000000 1.000000
vn -0.000000 0.000000 1.000000
vn -0.832370 0.000000 0.554220
vn -0.832371 0.000000 0.554220
vn -0.832370 0.000000 0.554220
vn -0.832370 0.000000 0.554220
vn 0.861331 -0.000001 0.508044
vn 0.861331 -0.000001 0.508044
vn 0.861331 -0.000001 0.508044
vn 0.861331 -0.000001 0.508044
vn 0.000000 0.000000 1.000000
vn 0.000000 0.000000 1.000000
vn 0.000000 0.000000 1.000000
vn 0.000000 0.000000 1.000000
vn -0.457465 0.786778 0.414375
vn -0.457465 0.786778 0.414375
vn -0.457465 0.786777 0.414375
vn -0.457465 0.786778 0.414375
vn -0.007543 0.902007 0.431655
vn -0.007543 0.902007 0.431655
vn -0.007543 0.902007 0.431655
vn -0.007543 0.902007 0.431655
vn 0.008370 -0.000076 0.999965
vn 0.008370 -0.000076 0.999965
vn 0.008370 -0.000076 0.999965
vn 0.008370 -0.000076 0.999965
vn 0.016448 0.939050 0.343386
vn 0.016448 0.939050 0.343386
vn 0.016448 0.939050 0.343386
vn 0.016448 0.939050 0.343386
vn 0.000000 0.000000 1.000000
vn 0.000000 0.000000 1.000000
vn 0.000000 0.000000 1.000000
vn 0.939346 -0.000000 0.342970
vn 0.939346 -0.000000 0.342970
vn 0.939346 -0.000000 0.342970
vn 0.939346 -0.000000 0.342970
vn -0.435370 0.742597 0.508923
vn -0.435370 0.742597 0.508923
vn -0.435370 0.742597 0.508923
vn -0.435370 0.742597 0.508923
vn -0.875599 -0.000001 0.483038
vn -0.875599 -0.000001 0.483038
vn -0.875599 -0.000001 0.483038
vn -0.435369 -0.742596 0.508926
vn -0.435369 -0.742596 0.508926
vn -0.435369 -0.742596 0.508926
vn -0.435369 -0.742596 0.508926
vn 0.466910 0.810723 0.353162
vn 0.466910 0.810723 0.353162
vn 0.466910 0.810723 0.353162
vn 0.466910 0.810723 0.353162
s off
f 3/1/1 4/4/2 6/3/3 5/2/4
f 1/5/5 3/1/6 5/2/7 7/6/8
f 8/7/9 6/3/10 4/4/11 2/8/12
f 2/8/13 4/4/14 3/1/15 1/5/16
f 5/2/17 6/3/18 8/7/19 7/6/20
f 26/50/21 24/52/22 20/55/23 19/54/24
f 16/13/25 18/16/26 17/15/27 15/14/28
f 34/17/29 36/20/30 35/19/31 33/18/32
f 10/56/33 20/55/34 24/52/35 23/22/36
f 15/14/37 17/15/38 11/24/39 13/23/40
f 12/25/41 18/16/42 16/13/43 14/26/44
f 22/53/45 18/16/46 12/25/47 21/49/48
f 17/15/49 18/16/50 22/53/51 25/51/52
f 17/15/53 19/54/54 9/30/55 11/24/56
f 27/31/57 32/32/58 23/48/59 24/12/60
f 32/32/61 27/31/62 28/34/63 31/33/64
f 29/35/65 30/36/66 26/9/67 25/29/68
f 28/34/69 22/27/70 21/28/71 31/33/72
f 30/36/73 27/31/74 24/12/75 26/9/76
f 22/27/77 28/34/78 29/35/79 25/29/80
f 25/51/81 26/50/82 19/54/83 17/15/84
f 37/37/85 34/17/86 33/18/87 46/38/88
f 47/39/89 35/19/90 36/20/91 38/40/92
f 38/40/93 36/20/94 34/17/95 37/37/96
f 37/37/97 46/38/98 9/57/99 19/10/100
f 20/11/101 38/40/102 37/37/103 19/10/104
f 28/34/105 27/31/106 30/36/107 29/35/108
f 13/23/109 14/26/110 16/13/111 15/14/112
f 43/41/113 45/43/114 44/42/115
f 40/44/116 43/41/117 44/42/118 42/45/119
f 42/45/120 44/42/121 45/43/122 41/46/123
f 41/46/124 45/43/125 39/47/126
f 39/47/127 45/43/128 43/41/129 40/44/130
f 38/40/131 20/11/132 10/21/133 47/39/134
f 48/58/135 50/59/136 51/60/137 49/61/138
f 1/62/139 7/63/140 50/59/141 48/58/142
f 8/64/143 2/65/144 49/61/145 51/60/146
f 2/65/147 1/62/148 48/58/149 49/61/150
f 50/59/151 7/63/152 8/64/153 51/60/154
f 61/66/155 56/67/156 57/68/157 59/69/158
f 53/70/159 52/71/160 54/72/161 55/73/162
f 66/74/163 33/75/164 35/76/165 67/77/166
f 10/78/167 23/79/168 59/69/169 57/68/170
f 52/71/171 13/80/172 11/81/173 54/72/174
f 12/82/175 14/83/176 53/70/177 55/73/178
f 58/84/179 21/85/180 12/82/181 55/73/182
f 54/72/183 60/86/184 58/84/185 55/73/186
f 54/72/187 11/81/188 9/87/189 56/67/190
f 62/88/191 59/89/192 23/90/193 32/91/194
f 32/91/195 31/92/196 63/93/197 62/88/198
f 64/94/199 60/95/200 61/96/201 65/97/202
f 63/93/203 31/92/204 21/98/205 58/99/206
f 65/97/207 61/96/208 59/89/209 62/88/210
f 58/99/211 60/95/212 64/94/213 63/93/214
f 60/86/215 54/72/216 56/67/217 61/66/218
f 68/100/219 46/101/220 33/75/221 66/74/222
f 47/104/223 69/105/224 67/77/225 35/76/226
f 69/105/227 68/100/228 66/74/229 67/77/230
f 68/100/231 56/106/232 9/102/233 46/101/234
f 57/107/235 56/106/236 68/100/237 69/105/238
f 63/93/239 64/94/240 65/97/241 62/88/242
f 13/80/243 52/71/244 53/70/245 14/83/246
f 70/108/247 71/109/248 72/110/249
f 40/111/250 42/112/251 71/109/252 70/108/253
f 42/112/254 41/113/255 72/110/256 71/109/257
f 41/113/258 39/114/259 72/110/260
f 39/114/261 40/111/262 70/108/263 72/110/264
f 69/105/265 47/104/266 10/103/267 57/107/268
