# This file uses centimeters as units for non-parametric coordinates.

v 7.805664 18.051498 4.000000
v -7.843781 18.032898 4.000000
v -6.971558 -15.879395 4.000000
v -1.367035 -16.605560 4.000000
v -0.899750 -3.041672 4.000000
v 5.172638 -2.562813 4.000000
v 5.172638 2.829124 4.000000
v -0.899750 3.307983 4.000000
v -0.932281 12.134453 4.000000
v 7.007507 13.350060 4.000000
v -8.838043 19.011063 0.000000
v 8.838043 19.011063 0.000000
v -8.397278 -17.802948 0.000000
v -0.376312 -18.238663 0.000000
v -4.430450 -18.238663 0.000000
v -0.376312 -3.565094 0.000000
v 6.174927 -3.565094 0.000000
v 6.174927 3.831406 0.000000
v -0.376312 3.831406 0.000000
v -0.376312 11.614563 0.000000
v 8.358063 11.999847 -0.000000
v 8.838043 15.467278 0.000000
v 7.805664 18.051498 -4.000000
v -7.843781 18.032898 -4.000000
v -6.971558 -15.879395 -4.000000
v -1.367035 -16.605560 -4.000000
v -0.899750 -3.041672 -4.000000
v 5.172638 -2.562813 -4.000000
v 5.172638 2.829124 -4.000000
v -0.899750 3.307983 -4.000000
v -0.932281 12.134453 -4.000000
v 7.007507 13.350060 -4.000000
vt 0.013804 0.951836
vt 0.013718 0.951755
vt 0.013830 0.952328
vt 0.013794 0.952303
vt 0.013782 0.952111
vt 0.013751 0.952080
vt 0.013744 0.951978
vt 0.013776 0.952008
vt 0.013769 0.951900
vt 0.013728 0.951852
vt 0.013844 0.951829
vt 0.013758 0.951749
vt 0.013873 0.952338
vt 0.013834 0.952306
vt 0.013854 0.952325
vt 0.013822 0.952104
vt 0.013790 0.952073
vt 0.013784 0.951971
vt 0.013815 0.952001
vt 0.013809 0.951893
vt 0.013766 0.951848
vt 0.013761 0.951798
vt 0.013830 0.952328
vt 0.013794 0.952303
vt 0.013782 0.952111
vt 0.013804 0.951836
vt 0.013728 0.951852
vt 0.013718 0.951755
vt 0.013769 0.951900
vt 0.013751 0.952080
vt 0.013744 0.951978
vt 0.013776 0.952008
vt 0.013758 0.951749
vt 0.013844 0.951829
vt 0.013873 0.952338
vt 0.013854 0.952325
vt 0.013834 0.952306
vt 0.013822 0.952104
vt 0.013790 0.952073
vt 0.013784 0.951971
vt 0.013815 0.952001
vt 0.013809 0.951893
vt 0.013766 0.951848
vt 0.013761 0.951798
vn 0.000000 0.000000 1.000000
vn 0.000000 0.000000 1.000000
vn 0.000000 0.000000 1.000000
vn 0.000000 0.000000 1.000000
vn 0.000000 0.000000 1.000000
vn 0.000000 0.000000 1.000000
vn 0.000000 0.000000 1.000000
vn 0.000000 0.000000 1.000000
vn 0.000000 0.000000 1.000000
vn 0.000000 0.000000 1.000000
vn 0.000000 0.000000 1.000000
vn 0.000000 0.000000 1.000000
vn 0.000000 0.000000 1.000000
vn 0.000000 0.000000 1.000000
vn 0.000000 0.000000 1.000000
vn 0.000000 0.000000 1.000000
vn -0.000542 0.971897 0.235407
vn -0.000542 0.971897 0.235407
vn -0.000542 0.971897 0.235407
vn -0.000542 0.971897 0.235407
vn -0.956431 -0.017756 0.291417
vn -0.956431 -0.017756 0.291417
vn -0.956431 -0.017756 0.291417
vn -0.956431 -0.017756 0.291417
vn 0.000000 -0.925811 0.377986
vn 0.000000 -0.925811 0.377986
vn 0.000000 -0.925811 0.377986
vn 0.981617 -0.016244 0.190170
vn 0.981617 -0.016244 0.190170
vn 0.981617 -0.016244 0.190170
vn 0.981617 -0.016244 0.190170
vn 0.037186 -0.980288 0.194045
vn 0.037186 -0.980288 0.194045
vn 0.037186 -0.980288 0.194045
vn 0.037186 -0.980288 0.194045
vn 0.970012 0.000000 0.243058
vn 0.970012 0.000000 0.243058
vn 0.970012 0.000000 0.243058
vn 0.970012 0.000000 0.243058
vn 0.037186 0.980288 0.194045
vn 0.037186 0.980288 0.194045
vn 0.037186 0.980288 0.194045
vn 0.037186 0.980288 0.194045
vn 0.991018 0.001941 0.133715
vn 0.991018 0.001941 0.133715
vn 0.991018 0.001941 0.133715
vn 0.991018 0.001941 0.133715
vn 0.092597 -0.964448 0.247519
vn 0.092597 -0.964448 0.247519
vn 0.092597 -0.964448 0.247519
vn 0.092597 -0.964448 0.247519
vn 0.926495 -0.144963 0.347266
vn 0.926495 -0.144963 0.347266
vn 0.926495 -0.144963 0.347266
vn 0.926495 -0.144963 0.347266
vn 0.968270 0.000000 0.249906
vn 0.968270 0.000000 0.249906
vn 0.968270 0.000000 0.249906
vn -0.107397 -0.884714 0.453593
vn -0.107397 -0.884714 0.453593
vn -0.107397 -0.884714 0.453593
vn -0.107397 -0.884714 0.453593
vn 0.000000 0.000000 -1.000000
vn 0.000000 0.000000 -1.000000
vn 0.000000 0.000000 -1.000000
vn 0.000000 0.000000 -1.000000
vn 0.000000 0.000000 -1.000000
vn 0.000000 0.000000 -1.000000
vn 0.000000 0.000000 -1.000000
vn 0.000000 0.000000 -1.000000
vn 0.000000 0.000000 -1.000000
vn 0.000000 0.000000 -1.000000
vn 0.000000 0.000000 -1.000000
vn 0.000000 0.000000 -1.000000
vn 0.000000 0.000000 -1.000000
vn 0.000000 0.000000 -1.000000
vn 0.000000 0.000000 -1.000000
vn 0.000000 0.000000 -1.000000
vn -0.000542 0.971897 -0.235407
vn -0.000542 0.971897 -0.235407
vn -0.000542 0.971897 -0.235407
vn -0.000542 0.971897 -0.235407
vn -0.956431 -0.017756 -0.291417
vn -0.956431 -0.017756 -0.291417
vn -0.956431 -0.017756 -0.291417
vn -0.956431 -0.017756 -0.291417
vn 0.000000 -0.925811 -0.377987
vn 0.000000 -0.925811 -0.377987
vn 0.000000 -0.925811 -0.377987
vn 0.981617 -0.016244 -0.190170
vn 0.981617 -0.016244 -0.190170
vn 0.981617 -0.016244 -0.190170
vn 0.981617 -0.016244 -0.190170
vn 0.037186 -0.980288 -0.194045
vn 0.037186 -0.980288 -0.194045
vn 0.037186 -0.980288 -0.194045
vn 0.037186 -0.980288 -0.194045
vn 0.970012 0.000000 -0.243058
vn 0.970012 0.000000 -0.243058
vn 0.970012 0.000000 -0.243058
vn 0.970012 0.000000 -0.243058
vn 0.037186 0.980288 -0.194045
vn 0.037186 0.980288 -0.194045
vn 0.037186 0.980288 -0.194045
vn 0.037186 0.980288 -0.194045
vn 0.991018 0.001941 -0.133715
vn 0.991018 0.001941 -0.133715
vn 0.991018 0.001941 -0.133715
vn 0.991018 0.001941 -0.133715
vn 0.092597 -0.964448 -0.247519
vn 0.092597 -0.964448 -0.247519
vn 0.092597 -0.964448 -0.247519
vn 0.092597 -0.964448 -0.247519
vn 0.926495 -0.144963 -0.347266
vn 0.926495 -0.144963 -0.347266
vn 0.926495 -0.144963 -0.347266
vn 0.926495 -0.144963 -0.347266
vn 0.968270 0.000000 -0.249906
vn 0.968270 0.000000 -0.249906
vn 0.968270 0.000000 -0.249906
vn -0.107397 -0.884714 -0.453593
vn -0.107397 -0.884714 -0.453593
vn -0.107397 -0.884714 -0.453593
vn -0.107397 -0.884714 -0.453593
s off
f 3/3/1 4/4/2 5/5/3 2/1/4
f 10/10/5 1/2/6 2/1/7 9/9/8
f 5/5/9 6/6/10 7/7/11 8/8/12
f 2/1/13 5/5/14 8/8/15 9/9/16
f 12/12/17 11/11/18 2/1/19 1/2/20
f 11/11/21 13/13/22 3/3/23 2/1/24
f 15/15/25 14/14/26 4/4/27
f 14/14/28 16/16/29 5/5/30 4/4/31
f 16/16/32 17/17/33 6/6/34 5/5/35
f 17/17/36 18/18/37 7/7/38 6/6/39
f 18/18/40 19/19/41 8/8/42 7/7/43
f 19/19/44 20/20/45 9/9/46 8/8/47
f 20/20/48 21/21/49 10/10/50 9/9/51
f 21/21/52 22/22/53 1/2/54 10/10/55
f 22/22/56 12/12/57 1/2/58
f 13/13/59 15/15/60 4/4/61 3/3/62
f 25/23/63 24/26/64 27/25/65 26/24/66
f 32/27/67 31/29/68 24/26/69 23/28/70
f 27/25/71 30/32/72 29/31/73 28/30/74
f 24/26/75 31/29/76 30/32/77 27/25/78
f 12/33/79 23/28/80 24/26/81 11/34/82
f 11/34/83 24/26/84 25/23/85 13/35/86
f 15/36/87 26/24/88 14/37/89
f 14/37/90 26/24/91 27/25/92 16/38/93
f 16/38/94 27/25/95 28/30/96 17/39/97
f 17/39/98 28/30/99 29/31/100 18/40/101
f 18/40/102 29/31/103 30/32/104 19/41/105
f 19/41/106 30/32/107 31/29/108 20/42/109
f 20/42/110 31/29/111 32/27/112 21/43/113
f 21/43/114 32/27/115 23/28/116 22/44/117
f 22/44/118 23/28/119 12/33/120
f 13/35/121 25/23/122 26/24/123 15/36/124
