# This file uses centimeters as units for non-parametric coordinates.

v -20.000000 20.000000 0.000000
v -15.063801 20.000000 -0.000000
v 20.000000 -6.225409 0.000000
v -5.431581 18.537779 -0.000000
v 6.991802 12.999769 0.000000
v 17.093008 1.795897 0.000000
v 19.618687 -14.123495 0.000000
v 13.298249 -20.000000 -0.000000
v 18.462639 -17.750477 0.000000
v 5.899806 -20.000000 -0.000000
v -19.999998 15.648279 0.000000
v -1.265713 -16.876905 -0.000000
v -12.935598 -6.549607 0.000000
v -18.909918 6.377062 -0.000000
v -17.900000 17.900000 4.000000
v -17.123529 16.048876 4.000000
v -16.863342 6.954465 4.000000
v -11.214100 -5.268831 4.000000
v -0.122490 -15.084383 4.000000
v 6.337563 -17.900000 4.000000
v 12.676832 -17.134878 4.000000
v 16.750996 -16.205467 4.000000
v 17.741938 -11.956731 4.000000
v 17.900000 -6.594202 4.000000
v 15.258501 0.694525 4.000000
v 5.730195 11.262959 4.000000
v -6.027368 16.504164 4.000000
v -15.222288 17.900000 4.000000
v 15.518452 -5.640015 4.000000
v 7.012979 0.196870 4.000000
v 0.455303 10.186218 4.000000
v -8.318435 14.757138 4.000000
v 16.458580 -14.593753 4.000000
v -2.268383 8.635501 4.000000
v 4.196023 -2.035214 4.000000
v 12.575579 -7.991969 4.000000
v 5.704333 -14.364845 4.000000
v -2.612277 -3.589411 4.000000
v -7.907200 5.816362 4.000000
v 0.188682 -1.531814 4.000000
v 7.945479 -12.162731 4.000000
v -12.025410 9.389832 4.000000
v -9.438303 1.169227 4.000000
v -3.374543 -7.022583 4.000000
v -17.443840 12.747252 4.000000
v -11.206342 -1.267029 4.000000
v -15.302794 7.453199 4.000000
v -0.844759 9.445644 2.000000
v 5.560707 -0.978997 2.000000
v 14.104573 -6.747232 2.000000
v 17.595261 -13.556673 2.000000
v 6.760316 -13.267677 2.000000
v -1.188708 -2.581352 2.000000
v -10.424813 -0.032845 2.000000
v -13.622637 8.438025 2.000000
v -17.757029 14.555349 2.000000
v -17.900000 17.900000 -4.000000
v -17.123529 16.048876 -4.000000
v -16.863342 6.954465 -4.000000
v -11.214100 -5.268831 -4.000000
v -0.122490 -15.084383 -4.000000
v 6.337563 -17.900000 -4.000000
v 12.676832 -17.134878 -4.000000
v 16.750996 -16.205467 -4.000000
v 17.741938 -11.956731 -4.000000
v 17.900000 -6.594202 -4.000000
v 15.258501 0.694525 -4.000000
v 5.730195 11.262959 -4.000000
v -6.027368 16.504164 -4.000000
v -15.222288 17.900000 -4.000000
v 15.518452 -5.640015 -4.000000
v 7.012979 0.196870 -4.000000
v 0.455303 10.186218 -4.000000
v -8.318435 14.757138 -4.000000
v 16.458580 -14.593753 -4.000000
v -2.268383 8.635501 -4.000000
v 4.196023 -2.035214 -4.000000
v 12.575579 -7.991969 -4.000000
v 5.704333 -14.364845 -4.000000
v -2.612277 -3.589411 -4.000000
v -7.907200 5.816362 -4.000000
v 0.188682 -1.531814 -4.000000
v 7.945479 -12.162731 -4.000000
v -12.025410 9.389832 -4.000000
v -9.438303 1.169227 -4.000000
v -3.374543 -7.022583 -4.000000
v -17.443840 12.747252 -4.000000
v -11.206342 -1.267029 -4.000000
v -15.302794 7.453199 -4.000000
v -0.844759 9.445644 -2.000000
v 5.560707 -0.978997 -2.000000
v 14.104573 -6.747232 -2.000000
v 17.595261 -13.556673 -2.000000
v 6.760316 -13.267677 -2.000000
v -1.188708 -2.581352 -2.000000
v -10.424813 -0.032845 -2.000000
v -13.622637 8.438025 -2.000000
v -17.757029 14.555349 -2.000000
vt 0.894175 0.893154
vt 0.894053 0.893155
vt 0.893184 0.893847
vt 0.893824 0.893201
vt 0.893510 0.893341
vt 0.893267 0.893610
vt 0.893184 0.893993
vt 0.893330 0.894146
vt 0.893221 0.894089
vt 0.893509 0.894148
vt 0.894174 0.893263
vt 0.893706 0.894061
vt 0.893987 0.893813
vt 0.894137 0.893485
vt 0.894175 0.893154
vt 0.894174 0.893263
vt 0.894137 0.893485
vt 0.893987 0.893813
vt 0.893706 0.894061
vt 0.893509 0.894148
vt 0.893331 0.894146
vt 0.893221 0.894089
vt 0.893184 0.893993
vt 0.893184 0.893847
vt 0.893267 0.893610
vt 0.893510 0.893341
vt 0.893824 0.893201
vt 0.894053 0.893155
vt 0.893268 0.893821
vt 0.893507 0.893653
vt 0.893669 0.893388
vt 0.893889 0.893253
vt 0.893204 0.894044
vt 0.893713 0.893404
vt 0.893557 0.893689
vt 0.893322 0.893859
vt 0.893520 0.894032
vt 0.893738 0.893742
vt 0.893889 0.893505
vt 0.893692 0.893708
vt 0.893487 0.894001
vt 0.894023 0.893427
vt 0.893956 0.893646
vt 0.893781 0.893848
vt 0.894164 0.893324
vt 0.894175 0.893262
vt 0.893969 0.893690
vt 0.894076 0.893462
vt 0.893202 0.894041
vt 0.892978 0.859119
vt 0.892811 0.859255
vt 0.892648 0.859524
vt 0.892425 0.859675
vt 0.892312 0.859860
vt 0.892297 0.859809
vt 0.892376 0.859638
vt 0.892602 0.859493
vt 0.892770 0.859242
vt 0.892273 0.859888
vt 0.892259 0.859842
vt 0.892429 0.859950
vt 0.892576 0.859812
vt 0.892778 0.859535
vt 0.892971 0.859339
vt 0.892821 0.859565
vt 0.892606 0.859843
vt 0.893214 0.859155
vt 0.893141 0.859290
vt 0.893044 0.859506
vt 0.892857 0.859665
vt 0.893031 0.859466
vt 0.893090 0.859259
vt 0.893219 0.859096
vt 0.893256 0.859131
vt 0.892790 0.859248
vt 0.892625 0.859509
vt 0.892400 0.859656
vt 0.892304 0.859834
vt 0.892591 0.859827
vt 0.892800 0.859550
vt 0.893038 0.859486
vt 0.893115 0.859275
vt 0.893216 0.859125
vt 0.892400 0.859656
vt 0.892304 0.859834
vt 0.892297 0.859809
vt 0.892376 0.859638
vt 0.892602 0.859493
vt 0.892625 0.859509
vt 0.892770 0.859242
vt 0.892790 0.859248
vt 0.894175 0.893154
vt 0.894174 0.893263
vt 0.894174 0.893263
vt 0.894175 0.893154
vt 0.894164 0.893324
vt 0.894175 0.893262
vt 0.894137 0.893485
vt 0.894137 0.893485
vt 0.893987 0.893813
vt 0.893987 0.893813
vt 0.893706 0.894061
vt 0.893706 0.894061
vt 0.893509 0.894148
vt 0.893509 0.894148
vt 0.893330 0.894146
vt 0.893331 0.894146
vt 0.893221 0.894089
vt 0.893221 0.894089
vt 0.892264 0.859857
vt 0.893184 0.893993
vt 0.893184 0.893847
vt 0.893184 0.893847
vt 0.893184 0.893993
vt 0.893267 0.893610
vt 0.893267 0.893610
vt 0.893510 0.893341
vt 0.893510 0.893341
vt 0.893824 0.893201
vt 0.893824 0.893201
vt 0.894053 0.893155
vt 0.894053 0.893155
vt 0.893889 0.893253
vt 0.893268 0.893821
vt 0.893507 0.893653
vt 0.893669 0.893388
vt 0.893520 0.894032
vt 0.893738 0.893742
vt 0.893781 0.893848
vt 0.893956 0.893646
vt 0.893889 0.893505
vt 0.894023 0.893427
vt 0.893713 0.893404
vt 0.893692 0.893708
vt 0.893557 0.893689
vt 0.893487 0.894001
vt 0.893322 0.893859
vt 0.893204 0.894044
vt 0.892971 0.859339
vt 0.892821 0.859565
vt 0.892800 0.859550
vt 0.892429 0.859950
vt 0.892591 0.859827
vt 0.892606 0.859843
vt 0.894076 0.893462
vt 0.893969 0.893690
vt 0.892857 0.859665
vt 0.893031 0.859466
vt 0.893038 0.859486
vt 0.893115 0.859275
vt 0.893216 0.859125
vt 0.893214 0.859155
vt 0.893141 0.859290
vt 0.893044 0.859506
vt 0.893256 0.859131
vt 0.893202 0.894041
vt 0.892978 0.859119
vt 0.892811 0.859255
vt 0.892648 0.859524
vt 0.892425 0.859675
vt 0.892312 0.859860
vt 0.892576 0.859812
vt 0.892778 0.859535
vt 0.893090 0.859259
vt 0.893219 0.859096
vn -0.776522 -0.338041 0.531735
vn -0.776522 -0.338041 0.531735
vn -0.776522 -0.338041 0.531735
vn -0.776522 -0.338041 0.531735
vn -0.423464 -0.622121 0.658517
vn -0.423464 -0.622121 0.658517
vn -0.423464 -0.622121 0.658517
vn -0.423464 -0.622121 0.658517
vn -0.647124 -0.410932 0.642157
vn -0.647124 -0.410932 0.642157
vn -0.647124 -0.410932 0.642157
vn -0.647124 -0.410932 0.642157
vn -0.854279 -0.106939 0.508695
vn -0.854279 -0.106939 0.508695
vn -0.854279 -0.106939 0.508695
vn -0.854279 -0.106939 0.508695
vn -0.874609 -0.096993 0.475027
vn -0.874609 -0.096993 0.475027
vn -0.874609 -0.096993 0.475027
vn -0.874609 -0.096993 0.475027
vn -0.803712 -0.371452 0.464834
vn -0.803712 -0.371452 0.464834
vn -0.803712 -0.371452 0.464834
vn -0.803712 -0.371452 0.464834
vn -0.586767 -0.663049 0.464834
vn -0.586767 -0.663049 0.464834
vn -0.586767 -0.663049 0.464834
vn -0.586767 -0.663049 0.464834
vn -0.353760 -0.811655 0.464834
vn -0.353760 -0.811655 0.464834
vn -0.353760 -0.811655 0.464834
vn -0.353760 -0.811655 0.464834
vn 0.047242 -0.848224 0.527527
vn 0.047242 -0.848224 0.527527
vn 0.047242 -0.848224 0.527527
vn 0.047242 -0.848224 0.527527
vn 0.277009 -0.805038 0.524575
vn 0.277009 -0.805038 0.524575
vn 0.277009 -0.805038 0.524575
vn 0.277009 -0.805038 0.524575
vn 0.619793 -0.530589 0.578214
vn 0.619793 -0.530589 0.578214
vn 0.619793 -0.530589 0.578214
vn 0.877731 -0.011500 0.479016
vn 0.877731 -0.011500 0.479016
vn 0.877731 -0.011500 0.479016
vn 0.877731 -0.011500 0.479016
vn 0.832419 0.301676 0.464834
vn 0.832419 0.301676 0.464834
vn 0.832419 0.301676 0.464834
vn 0.832419 0.301676 0.464834
vn 0.657594 0.592874 0.464834
vn 0.657594 0.592874 0.464834
vn 0.657594 0.592874 0.464834
vn 0.657594 0.592874 0.464834
vn 0.360491 0.808688 0.464834
vn 0.360491 0.808688 0.464834
vn 0.360491 0.808688 0.464834
vn 0.360491 0.808688 0.464834
vn 0.132886 0.875369 0.464834
vn 0.132886 0.875369 0.464834
vn 0.132886 0.875369 0.464834
vn 0.132886 0.875369 0.464834
vn 0.000000 0.885398 0.464834
vn 0.000000 0.885398 0.464834
vn 0.000000 0.885398 0.464834
vn 0.000000 0.885398 0.464834
vn 0.000000 0.000000 1.000000
vn 0.000000 0.000000 1.000000
vn 0.000000 0.000000 1.000000
vn 0.000000 0.000000 1.000000
vn 0.000000 0.000000 1.000000
vn 0.000000 0.000000 1.000000
vn 0.000000 0.000000 1.000000
vn 0.000000 0.000000 1.000000
vn 0.000000 0.000000 1.000000
vn 0.000000 0.000000 1.000000
vn -0.000000 0.000000 1.000000
vn -0.000000 0.000000 1.000000
vn -0.000000 0.000000 1.000000
vn -0.000000 0.000000 1.000000
vn 0.000000 0.000000 1.000000
vn 0.000000 0.000000 1.000000
vn 0.000000 0.000000 1.000000
vn 0.000000 0.000000 1.000000
vn 0.000000 0.000000 1.000000
vn 0.000000 0.000000 1.000000
vn 0.000000 0.000000 1.000000
vn 0.000000 0.000000 1.000000
vn -0.000000 0.000000 1.000000
vn -0.000000 0.000000 1.000000
vn -0.000000 0.000000 1.000000
vn -0.000000 0.000000 1.000000
vn 0.000000 0.000000 1.000000
vn 0.000000 0.000000 1.000000
vn 0.000000 0.000000 1.000000
vn 0.000000 0.000000 1.000000
vn 0.000000 0.000000 1.000000
vn 0.000000 0.000000 1.000000
vn 0.000000 0.000000 1.000000
vn 0.000000 0.000000 1.000000
vn 0.000000 0.000000 1.000000
vn 0.000000 0.000000 1.000000
vn 0.000000 0.000000 1.000000
vn 0.000000 0.000000 1.000000
vn 0.000000 0.000000 1.000000
vn 0.000000 0.000000 1.000000
vn 0.000000 0.000000 1.000000
vn 0.000000 0.000000 1.000000
vn 0.000000 0.000000 1.000000
vn 0.000000 0.000000 1.000000
vn 0.000000 0.000000 1.000000
vn 0.000000 0.000000 1.000000
vn 0.000000 0.000000 1.000000
vn 0.000000 0.000000 1.000000
vn -0.000000 0.000000 1.000000
vn -0.000000 0.000000 1.000000
vn -0.000000 0.000000 1.000000
vn -0.000000 0.000000 1.000000
vn 0.000000 0.000000 1.000000
vn 0.000000 0.000000 1.000000
vn 0.000000 0.000000 1.000000
vn 0.000000 0.000000 1.000000
vn 0.000000 0.000000 1.000000
vn 0.000000 0.000000 1.000000
vn 0.000000 0.000000 1.000000
vn 0.658240 0.370552 0.655295
vn 0.658240 0.370552 0.655295
vn 0.658240 0.370552 0.655295
vn 0.301792 0.759646 0.576073
vn 0.301792 0.759646 0.576073
vn 0.301792 0.759646 0.576073
vn 0.618713 0.468916 0.630327
vn 0.618713 0.468916 0.630327
vn 0.618713 0.468916 0.630327
vn 0.618713 0.468916 0.630327
vn 0.000000 0.000000 1.000000
vn 0.000000 0.000000 1.000000
vn 0.000000 0.000000 1.000000
vn 0.000000 0.000000 1.000000
vn 0.000000 0.000000 1.000000
vn 0.000000 0.000000 1.000000
vn 0.000000 0.000000 1.000000
vn 0.000000 0.000000 1.000000
vn 0.000000 0.000000 1.000000
vn 0.000000 0.000000 1.000000
vn 0.000000 0.000000 1.000000
vn -0.641756 -0.475042 0.602067
vn -0.641756 -0.475042 0.602067
vn -0.641756 -0.475042 0.602067
vn 0.739406 0.406620 0.536600
vn 0.739406 0.406620 0.536600
vn 0.739406 0.406620 0.536600
vn 0.739406 0.406620 0.536600
vn 0.724732 0.307508 0.616606
vn 0.724732 0.307508 0.616606
vn 0.724732 0.307508 0.616606
vn 0.724732 0.307508 0.616606
vn -0.258021 0.696237 0.669836
vn -0.258021 0.696237 0.669836
vn -0.258021 0.696237 0.669836
vn 0.854835 -0.101995 0.508778
vn 0.854835 -0.101995 0.508778
vn 0.854835 -0.101995 0.508778
vn 0.854835 -0.101995 0.508778
vn 0.557831 0.551308 0.620390
vn 0.557831 0.551308 0.620390
vn 0.557831 0.551308 0.620390
vn 0.654280 0.399163 0.642329
vn 0.654280 0.399163 0.642329
vn 0.654280 0.399163 0.642329
vn 0.654280 0.399163 0.642329
vn 0.426507 0.615605 0.662663
vn 0.426507 0.615605 0.662663
vn 0.426507 0.615605 0.662663
vn 0.426507 0.615605 0.662663
vn 0.664776 0.365503 0.651522
vn 0.664776 0.365503 0.651522
vn 0.664776 0.365503 0.651522
vn 0.664776 0.365503 0.651522
vn 0.783047 0.024319 0.621487
vn 0.783047 0.024319 0.621487
vn 0.783047 0.024319 0.621487
vn -0.562893 -0.535633 0.629483
vn -0.562893 -0.535633 0.629483
vn -0.562893 -0.535633 0.629483
vn -0.617899 -0.455247 0.641055
vn -0.617899 -0.455247 0.641055
vn -0.617899 -0.455247 0.641055
vn -0.617899 -0.455247 0.641055
vn -0.742624 -0.257378 0.618277
vn -0.742624 -0.257378 0.618277
vn -0.742624 -0.257378 0.618277
vn -0.742624 -0.257378 0.618277
vn -0.629806 -0.455113 0.629457
vn -0.629806 -0.455113 0.629457
vn -0.629806 -0.455113 0.629457
vn -0.629806 -0.455113 0.629457
vn -0.707485 -0.440245 0.552855
vn -0.707485 -0.440245 0.552855
vn -0.707485 -0.440245 0.552855
vn -0.511725 -0.563795 0.648284
vn -0.511725 -0.563795 0.648284
vn -0.511725 -0.563795 0.648284
vn 0.478603 0.651253 0.588904
vn 0.478603 0.651253 0.588904
vn 0.478603 0.651253 0.588904
vn -0.391148 -0.750796 0.532268
vn -0.391148 -0.750796 0.532268
vn -0.391148 -0.750796 0.532268
vn -0.776522 -0.338041 -0.531734
vn -0.776522 -0.338041 -0.531734
vn -0.776522 -0.338041 -0.531734
vn -0.776522 -0.338041 -0.531734
vn -0.423464 -0.622121 -0.658517
vn -0.423464 -0.622121 -0.658517
vn -0.423464 -0.622121 -0.658517
vn -0.423464 -0.622121 -0.658517
vn -0.647124 -0.410932 -0.642157
vn -0.647124 -0.410932 -0.642157
vn -0.647124 -0.410932 -0.642157
vn -0.647124 -0.410932 -0.642157
vn -0.854279 -0.106939 -0.508696
vn -0.854279 -0.106939 -0.508696
vn -0.854279 -0.106939 -0.508696
vn -0.854279 -0.106939 -0.508696
vn -0.874609 -0.096993 -0.475027
vn -0.874609 -0.096993 -0.475027
vn -0.874609 -0.096993 -0.475027
vn -0.874609 -0.096993 -0.475027
vn -0.803712 -0.371452 -0.464834
vn -0.803712 -0.371452 -0.464834
vn -0.803712 -0.371452 -0.464834
vn -0.803712 -0.371452 -0.464834
vn -0.586767 -0.663049 -0.464834
vn -0.586767 -0.663049 -0.464834
vn -0.586767 -0.663049 -0.464834
vn -0.586767 -0.663049 -0.464834
vn -0.353760 -0.811655 -0.464834
vn -0.353760 -0.811655 -0.464834
vn -0.353760 -0.811655 -0.464834
vn -0.353760 -0.811655 -0.464834
vn 0.047242 -0.848224 -0.527527
vn 0.047242 -0.848224 -0.527527
vn 0.047242 -0.848224 -0.527527
vn 0.047242 -0.848224 -0.527527
vn 0.277009 -0.805038 -0.524576
vn 0.277009 -0.805038 -0.524576
vn 0.277009 -0.805038 -0.524576
vn 0.277009 -0.805038 -0.524576
vn 0.619793 -0.530589 -0.578215
vn 0.619793 -0.530589 -0.578215
vn 0.619793 -0.530589 -0.578215
vn 0.877731 -0.011500 -0.479016
vn 0.877731 -0.011500 -0.479016
vn 0.877731 -0.011500 -0.479016
vn 0.877731 -0.011500 -0.479016
vn 0.832419 0.301676 -0.464834
vn 0.832419 0.301676 -0.464834
vn 0.832419 0.301676 -0.464834
vn 0.832419 0.301676 -0.464834
vn 0.657594 0.592874 -0.464834
vn 0.657594 0.592874 -0.464834
vn 0.657594 0.592874 -0.464834
vn 0.657594 0.592874 -0.464834
vn 0.360491 0.808688 -0.464834
vn 0.360491 0.808688 -0.464834
vn 0.360491 0.808688 -0.464834
vn 0.360491 0.808688 -0.464834
vn 0.132886 0.875369 -0.464834
vn 0.132886 0.875369 -0.464834
vn 0.132886 0.875369 -0.464834
vn 0.132886 0.875369 -0.464834
vn 0.000000 0.885398 -0.464834
vn 0.000000 0.885398 -0.464834
vn 0.000000 0.885398 -0.464834
vn 0.000000 0.885398 -0.464834
vn 0.000000 0.000000 -1.000000
vn 0.000000 0.000000 -1.000000
vn 0.000000 0.000000 -1.000000
vn 0.000000 0.000000 -1.000000
vn 0.000000 0.000000 -1.000000
vn 0.000000 0.000000 -1.000000
vn 0.000000 0.000000 -1.000000
vn 0.000000 0.000000 -1.000000
vn 0.000000 0.000000 -1.000000
vn 0.000000 0.000000 -1.000000
vn -0.000000 0.000000 -1.000000
vn -0.000000 0.000000 -1.000000
vn -0.000000 0.000000 -1.000000
vn -0.000000 0.000000 -1.000000
vn 0.000000 0.000000 -1.000000
vn 0.000000 0.000000 -1.000000
vn 0.000000 0.000000 -1.000000
vn 0.000000 0.000000 -1.000000
vn 0.000000 0.000000 -1.000000
vn 0.000000 0.000000 -1.000000
vn 0.000000 0.000000 -1.000000
vn 0.000000 0.000000 -1.000000
vn -0.000000 0.000000 -1.000000
vn -0.000000 0.000000 -1.000000
vn -0.000000 0.000000 -1.000000
vn -0.000000 0.000000 -1.000000
vn 0.000000 0.000000 -1.000000
vn 0.000000 0.000000 -1.000000
vn 0.000000 0.000000 -1.000000
vn 0.000000 0.000000 -1.000000
vn 0.000000 0.000000 -1.000000
vn 0.000000 0.000000 -1.000000
vn 0.000000 0.000000 -1.000000
vn 0.000000 0.000000 -1.000000
vn 0.000000 0.000000 -1.000000
vn 0.000000 0.000000 -1.000000
vn 0.000000 0.000000 -1.000000
vn 0.000000 0.000000 -1.000000
vn 0.000000 0.000000 -1.000000
vn 0.000000 0.000000 -1.000000
vn 0.000000 0.000000 -1.000000
vn 0.000000 0.000000 -1.000000
vn 0.000000 0.000000 -1.000000
vn 0.000000 0.000000 -1.000000
vn 0.000000 0.000000 -1.000000
vn 0.000000 0.000000 -1.000000
vn 0.000000 0.000000 -1.000000
vn 0.000000 0.000000 -1.000000
vn -0.000000 0.000000 -1.000000
vn -0.000000 0.000000 -1.000000
vn -0.000000 0.000000 -1.000000
vn -0.000000 0.000000 -1.000000
vn 0.000000 0.000000 -1.000000
vn 0.000000 0.000000 -1.000000
vn 0.000000 0.000000 -1.000000
vn 0.000000 0.000000 -1.000000
vn 0.000000 0.000000 -1.000000
vn 0.000000 0.000000 -1.000000
vn 0.000000 0.000000 -1.000000
vn 0.658240 0.370552 -0.655295
vn 0.658240 0.370552 -0.655295
vn 0.658240 0.370552 -0.655295
vn 0.301792 0.759646 -0.576073
vn 0.301792 0.759646 -0.576073
vn 0.301792 0.759646 -0.576073
vn 0.618713 0.468916 -0.630327
vn 0.618713 0.468916 -0.630327
vn 0.618713 0.468916 -0.630327
vn 0.618713 0.468916 -0.630327
vn 0.000000 0.000000 -1.000000
vn 0.000000 0.000000 -1.000000
vn 0.000000 0.000000 -1.000000
vn 0.000000 0.000000 -1.000000
vn 0.000000 0.000000 -1.000000
vn 0.000000 0.000000 -1.000000
vn 0.000000 0.000000 -1.000000
vn 0.000000 0.000000 -1.000000
vn 0.000000 0.000000 -1.000000
vn 0.000000 0.000000 -1.000000
vn 0.000000 0.000000 -1.000000
vn -0.641756 -0.475042 -0.602067
vn -0.641756 -0.475042 -0.602067
vn -0.641756 -0.475042 -0.602067
vn 0.739405 0.406620 -0.536600
vn 0.739405 0.406620 -0.536600
vn 0.739405 0.406620 -0.536600
vn 0.739405 0.406620 -0.536600
vn 0.724732 0.307508 -0.616606
vn 0.724732 0.307508 -0.616606
vn 0.724732 0.307508 -0.616606
vn 0.724732 0.307508 -0.616606
vn -0.258021 0.696237 -0.669836
vn -0.258021 0.696237 -0.669836
vn -0.258021 0.696237 -0.669836
vn 0.854835 -0.101995 -0.508778
vn 0.854835 -0.101995 -0.508778
vn 0.854835 -0.101995 -0.508778
vn 0.854835 -0.101995 -0.508778
vn 0.557831 0.551308 -0.620390
vn 0.557831 0.551308 -0.620390
vn 0.557831 0.551308 -0.620390
vn 0.654280 0.399163 -0.642329
vn 0.654280 0.399163 -0.642329
vn 0.654280 0.399163 -0.642329
vn 0.654280 0.399163 -0.642329
vn 0.426507 0.615605 -0.662663
vn 0.426507 0.615605 -0.662663
vn 0.426507 0.615605 -0.662663
vn 0.426507 0.615605 -0.662663
vn 0.664776 0.365503 -0.651522
vn 0.664776 0.365503 -0.651522
vn 0.664776 0.365503 -0.651522
vn 0.664776 0.365503 -0.651522
vn 0.783047 0.024318 -0.621487
vn 0.783047 0.024318 -0.621487
vn 0.783047 0.024318 -0.621487
vn -0.562893 -0.535633 -0.629483
vn -0.562893 -0.535633 -0.629483
vn -0.562893 -0.535633 -0.629483
vn -0.617899 -0.455247 -0.641055
vn -0.617899 -0.455247 -0.641055
vn -0.617899 -0.455247 -0.641055
vn -0.617899 -0.455247 -0.641055
vn -0.742624 -0.257378 -0.618277
vn -0.742624 -0.257378 -0.618277
vn -0.742624 -0.257378 -0.618277
vn -0.742624 -0.257378 -0.618277
vn -0.629806 -0.455113 -0.629457
vn -0.629806 -0.455113 -0.629457
vn -0.629806 -0.455113 -0.629457
vn -0.629806 -0.455113 -0.629457
vn -0.707485 -0.440246 -0.552855
vn -0.707485 -0.440246 -0.552855
vn -0.707485 -0.440246 -0.552855
vn -0.511725 -0.563795 -0.648284
vn -0.511725 -0.563795 -0.648284
vn -0.511725 -0.563795 -0.648284
vn 0.478603 0.651253 -0.588904
vn 0.478603 0.651253 -0.588904
vn 0.478603 0.651253 -0.588904
vn -0.391148 -0.750796 -0.532268
vn -0.391148 -0.750796 -0.532268
vn -0.391148 -0.750796 -0.532268
s off
f 50/77/1 51/78/2 23/55/3 29/56/4
f 50/77/5 29/56/6 30/57/7 49/76/8
f 31/58/9 48/75/10 49/76/11 30/57/12
f 1/1/13 11/11/14 16/16/15 15/15/16
f 45/45/17 11/46/18 14/14/19 17/17/20
f 14/14/21 13/13/22 18/18/23 17/17/24
f 13/13/25 12/12/26 19/19/27 18/18/28
f 12/12/29 10/10/30 20/20/31 19/19/32
f 10/10/33 8/8/34 21/21/35 20/20/36
f 8/8/37 9/9/38 22/22/39 21/21/40
f 51/78/41 7/60/42 23/55/43
f 7/7/44 3/3/45 24/24/46 23/23/47
f 3/3/48 6/6/49 25/25/50 24/24/51
f 6/6/52 5/5/53 26/26/54 25/25/55
f 5/5/56 4/4/57 27/27/58 26/26/59
f 4/4/60 2/2/61 28/28/62 27/27/63
f 15/15/64 28/28/65 2/2/66 1/1/67
f 28/28/68 32/32/69 27/27/70
f 23/23/71 24/24/72 29/29/73
f 29/29/74 24/24/75 25/25/76 30/30/77
f 30/30/78 25/25/79 26/26/80 31/31/81
f 31/31/82 26/26/83 27/27/84 32/32/85
f 20/20/86 21/21/87 37/37/88 19/19/89
f 19/19/90 37/37/91 38/38/92 44/44/93
f 43/43/94 44/44/95 38/38/96 39/39/97
f 43/43/98 39/39/99 42/42/100
f 15/15/101 16/16/102 28/28/103
f 28/28/104 16/16/105 42/42/106 32/32/107
f 32/32/108 42/42/109 39/39/110 34/34/111
f 34/34/112 39/39/113 40/40/114 35/35/115
f 35/35/116 40/40/117 41/41/118 36/36/119
f 33/33/120 36/36/121 41/41/122 22/22/123
f 41/41/124 21/21/125 22/22/126
f 39/64/127 38/65/128 53/80/129
f 21/61/130 52/79/131 37/66/132
f 38/65/133 37/66/134 52/79/135 53/80/136
f 45/45/137 17/17/138 47/48/139
f 18/18/140 19/19/141 44/44/142 46/47/143
f 17/17/144 18/18/145 46/47/146 47/48/147
f 44/70/148 43/71/149 54/81/150
f 55/82/151 56/83/152 45/67/153 47/68/154
f 47/68/155 46/69/156 54/81/157 55/82/158
f 11/74/159 45/67/160 56/83/161
f 9/9/162 7/49/163 33/33/164 22/22/165
f 32/50/166 34/51/167 48/75/168
f 48/75/169 34/51/170 35/52/171 49/76/172
f 36/53/173 50/77/174 49/76/175 35/52/176
f 36/53/177 33/54/178 51/78/179 50/77/180
f 33/54/181 7/59/182 51/78/183
f 21/61/184 41/62/185 52/79/186
f 53/80/187 52/79/188 41/62/189 40/63/190
f 55/82/191 54/81/192 43/71/193 42/72/194
f 42/72/195 16/73/196 56/83/197 55/82/198
f 11/74/199 56/83/200 16/73/201
f 39/64/202 53/80/203 40/63/204
f 44/70/205 54/81/206 46/69/207
f 32/50/208 48/75/209 31/58/210
f 92/84/211 71/87/212 65/86/213 93/85/214
f 92/84/215 91/89/216 72/88/217 71/87/218
f 73/90/219 72/88/220 91/89/221 90/91/222
f 1/92/223 57/95/224 58/94/225 11/93/226
f 87/96/227 59/99/228 14/98/229 11/97/230
f 14/98/231 59/99/232 60/101/233 13/100/234
f 13/100/235 60/101/236 61/103/237 12/102/238
f 12/102/239 61/103/240 62/105/241 10/104/242
f 10/104/243 62/105/244 63/107/245 8/106/246
f 8/106/247 63/107/248 64/109/249 9/108/250
f 93/85/251 65/86/252 7/110/253
f 7/111/254 65/114/255 66/113/256 3/112/257
f 3/112/258 66/113/259 67/116/260 6/115/261
f 6/115/262 67/116/263 68/118/264 5/117/265
f 5/117/266 68/118/267 69/120/268 4/119/269
f 4/119/270 69/120/271 70/122/272 2/121/273
f 57/95/274 1/92/275 2/121/276 70/122/277
f 70/122/278 69/120/279 74/123/280
f 65/114/281 71/124/282 66/113/283
f 71/124/284 72/125/285 67/116/286 66/113/287
f 72/125/288 73/126/289 68/118/290 67/116/291
f 73/126/292 74/123/293 69/120/294 68/118/295
f 62/105/296 61/103/297 79/127/298 63/107/299
f 61/103/300 86/129/301 80/128/302 79/127/303
f 85/130/304 81/131/305 80/128/306 86/129/307
f 85/130/308 84/132/309 81/131/310
f 57/95/311 70/122/312 58/94/313
f 70/122/314 74/123/315 84/132/316 58/94/317
f 74/123/318 76/133/319 81/131/320 84/132/321
f 76/133/322 77/135/323 82/134/324 81/131/325
f 77/135/326 78/137/327 83/136/328 82/134/329
f 75/138/330 64/109/331 83/136/332 78/137/333
f 83/136/334 64/109/335 63/107/336
f 81/139/337 95/141/338 80/140/339
f 63/142/340 79/144/341 94/143/342
f 80/140/343 95/141/344 94/143/345 79/144/346
f 87/96/347 89/145/348 59/99/349
f 60/101/350 88/146/351 86/129/352 61/103/353
f 59/99/354 89/145/355 88/146/356 60/101/357
f 86/147/358 96/149/359 85/148/360
f 97/150/361 89/153/362 87/152/363 98/151/364
f 89/153/365 97/150/366 96/149/367 88/154/368
f 11/155/369 98/151/370 87/152/371
f 9/108/372 64/109/373 75/138/374 7/156/375
f 74/157/376 90/91/377 76/158/378
f 90/91/379 91/89/380 77/159/381 76/158/382
f 78/160/383 77/159/384 91/89/385 92/84/386
f 78/160/387 92/84/388 93/85/389 75/161/390
f 75/161/391 93/85/392 7/110/393
f 63/142/394 94/143/395 83/162/396
f 95/141/397 82/163/398 83/162/399 94/143/400
f 97/150/401 84/164/402 85/148/403 96/149/404
f 84/164/405 97/150/406 98/151/407 58/165/408
f 11/155/409 58/165/410 98/151/411
f 81/139/412 82/163/413 95/141/414
f 86/147/415 88/154/416 96/149/417
f 74/157/418 73/90/419 90/91/420
