# This file uses centimeters as units for non-parametric coordinates.

v 8.174698 9.135450 -4.000000
v 1.981997 9.420874 -4.000000
v 0.149673 8.766376 -2.000000
v -2.044611 9.281154 -4.000000
v 4.487521 6.836388 -4.000000
v 6.712536 0.936110 -4.000000
v 6.112467 -4.237951 -4.000000
v 2.710652 -10.957119 -4.000000
v 2.953498 -3.842048 -4.000000
v 2.619151 0.540246 -4.000000
v 1.276679 5.056659 -4.000000
v 2.293007 5.316640 -2.000000
v 3.975603 1.035409 -2.000000
v 4.042611 -3.763494 -2.000000
v 11.511585 6.955685 -4.000000
v 14.509041 1.637410 -4.000000
v 15.399671 -4.099601 -4.000000
v 11.455091 -10.143684 -4.000000
v 6.490023 -14.689255 -4.000000
v 2.036643 -17.955215 -4.000000
v -0.578751 -17.832750 -4.000000
v -4.778425 -13.677483 -4.000000
v -11.016299 -9.121645 -4.000000
v -13.499411 -4.169770 -4.000000
v -12.778611 3.762779 -4.000000
v -8.416039 8.270101 -4.000000
v 8.487326 10.616928 0.000015
v 1.132496 11.005590 0.000015
v -0.945447 9.715858 0.000015
v -4.571046 10.803042 0.000015
v 12.506424 7.894650 0.000015
v 16.306360 2.274174 0.000015
v 16.771835 -4.372442 0.000015
v 12.698668 -11.445195 0.000015
v 7.344145 -15.799550 0.000015
v 2.074306 -19.681961 0.000015
v -1.754166 -19.289001 0.000015
v -6.378878 -15.681817 0.000015
v -13.636662 -11.188911 0.000015
v -17.338974 -4.617671 0.000015
v -16.578085 4.092996 0.000015
v -11.337822 9.644207 0.000015
v -0.713207 14.498796 0.000015
v -0.072405 8.825051 0.000015
v -5.386384 8.862126 0.000015
v -10.272752 13.589950 0.000015
v -3.955877 19.470285 0.000015
v -10.224593 19.734940 0.000015
v -8.680528 17.948442 -2.000001
v -1.725020 10.613858 -2.000001
v -1.964226 14.250974 -2.000001
v -4.752386 17.623363 -2.000001
v -8.023930 13.468082 -2.000001
v -5.511117 10.513044 -2.000001
v 2.513234 17.640862 0.000015
v 6.951766 18.488716 0.000015
v 7.243004 14.293194 0.000015
v 3.806963 10.152193 0.000015
v -0.831135 14.129208 0.000015
v -1.044983 9.819581 0.000015
v 0.338253 11.476992 -2.000001
v 5.604683 16.711231 -2.000001
v 2.937835 16.472910 -2.000001
v 0.509305 14.367283 -2.000001
v 3.091641 11.237868 -2.000001
v 5.743944 13.932593 -2.000001
v 8.174698 9.135450 4.000000
v 1.981997 9.420874 4.000000
v 0.149673 8.766376 2.000000
v -2.044611 9.281154 4.000000
v 4.487521 6.836388 4.000000
v 6.712536 0.936110 4.000000
v 6.112467 -4.237951 4.000000
v 2.710652 -10.957119 4.000000
v 2.953498 -3.842048 4.000000
v 2.619151 0.540246 4.000000
v 1.276679 5.056659 4.000000
v 2.293007 5.316640 2.000000
v 3.975603 1.035409 2.000000
v 4.042611 -3.763494 2.000000
v 11.511585 6.955685 4.000000
v 14.509041 1.637410 4.000000
v 15.399671 -4.099601 4.000000
v 11.455091 -10.143684 4.000000
v 6.490023 -14.689255 4.000000
v 2.036643 -17.955215 4.000000
v -0.578751 -17.832750 4.000000
v -4.778425 -13.677483 4.000000
v -11.016299 -9.121645 4.000000
v -13.499411 -4.169770 4.000000
v -12.778611 3.762779 4.000000
v -8.416039 8.270101 4.000000
v -8.680528 17.948442 2.000000
v -1.725020 10.613858 2.000000
v -1.964226 14.250974 2.000000
v -4.752386 17.623363 2.000000
v -8.023930 13.468082 2.000000
v -5.511117 10.513044 2.000000
v 0.338253 11.476992 2.000000
v 5.604683 16.711231 2.000000
v 2.937835 16.472910 2.000000
v 0.509305 14.367283 2.000000
v 3.091641 11.237868 2.000000
v 5.743944 13.932593 2.000000
vt 0.859027 0.980845
vt 0.858954 0.980739
vt 0.859059 0.980499
vt 0.859176 0.980537
vt 0.859089 0.980138
vt 0.859008 0.980166
vt 0.859316 0.980280
vt 0.859583 0.980751
vt 0.858688 0.980946
vt 0.858850 0.980769
vt 0.858834 0.980853
vt 0.858987 0.980516
vt 0.858936 0.980946
vt 0.859419 0.980820
vt 0.859249 0.980931
vt 0.858934 0.980266
vt 0.859163 0.980098
vt 0.859298 0.980092
vt 0.859527 0.980261
vt 0.859472 0.979871
vt 0.859621 0.980202
vt 0.859563 0.980607
vt 0.858400 0.980919
vt 0.858101 0.980567
vt 0.858440 0.980796
vt 0.858573 0.980507
vt 0.859252 0.980938
vt 0.858904 0.980958
vt 0.858816 0.980894
vt 0.858658 0.980948
vt 0.859452 0.980803
vt 0.859598 0.980575
vt 0.859668 0.980191
vt 0.859827 0.980441
vt 0.859559 0.980222
vt 0.859315 0.980045
vt 0.859103 0.980045
vt 0.858871 0.980207
vt 0.858507 0.980453
vt 0.857961 0.980179
vt 0.857985 0.980584
vt 0.858329 0.980955
vt 0.859222 0.980146
vt 0.859833 0.980476
vt 0.859369 0.980771
vt 0.858079 0.980192
vt 0.858323 0.980783
vt 0.859466 0.979836
vt 0.859450 0.980743
vt 0.295190 0.982172
vt 0.295979 0.982938
vt 0.295515 0.982824
vt 0.295214 0.982451
vt 0.327923 0.951809
vt 0.328354 0.951894
vt 0.328575 0.952235
vt 0.328587 0.952453
vt 0.296057 0.983021
vt 0.295499 0.982884
vt 0.295138 0.982435
vt 0.295110 0.982101
vt 0.327856 0.951750
vt 0.328372 0.951851
vt 0.328638 0.952261
vt 0.328652 0.952523
vt 0.295190 0.982172
vt 0.295979 0.982938
vt 0.295515 0.982824
vt 0.295214 0.982451
vt 0.327923 0.951809
vt 0.328354 0.951894
vt 0.328575 0.952235
vt 0.328587 0.952453
vt 0.296057 0.983021
vt 0.295499 0.982884
vt 0.295138 0.982435
vt 0.295110 0.982101
vt 0.327856 0.951750
vt 0.328372 0.951851
vt 0.328638 0.952261
vt 0.328652 0.952523
vt 0.859027 0.980845
vt 0.858954 0.980739
vt 0.859059 0.980499
vt 0.859176 0.980537
vt 0.859450 0.980743
vt 0.859369 0.980771
vt 0.859316 0.980280
vt 0.859583 0.980751
vt 0.858688 0.980946
vt 0.858850 0.980769
vt 0.858834 0.980853
vt 0.858987 0.980516
vt 0.859008 0.980166
vt 0.859089 0.980138
vt 0.859222 0.980146
vt 0.858936 0.980946
vt 0.859419 0.980820
vt 0.859249 0.980931
vt 0.858934 0.980266
vt 0.859163 0.980098
vt 0.859298 0.980092
vt 0.859527 0.980261
vt 0.859833 0.980476
vt 0.859621 0.980202
vt 0.859563 0.980607
vt 0.858400 0.980919
vt 0.858101 0.980567
vt 0.858079 0.980192
vt 0.858440 0.980796
vt 0.858573 0.980507
vt 0.859252 0.980938
vt 0.858904 0.980958
vt 0.858816 0.980894
vt 0.858658 0.980948
vt 0.859452 0.980803
vt 0.859598 0.980575
vt 0.859668 0.980191
vt 0.859472 0.979871
vt 0.859466 0.979836
vt 0.859559 0.980222
vt 0.859827 0.980441
vt 0.859315 0.980045
vt 0.859103 0.980045
vt 0.858871 0.980207
vt 0.858507 0.980453
vt 0.858323 0.980783
vt 0.857985 0.980584
vt 0.857961 0.980179
vt 0.858329 0.980955
vt 0.295190 0.982172
vt 0.295979 0.982938
vt 0.295515 0.982824
vt 0.295214 0.982451
vt 0.327923 0.951809
vt 0.328354 0.951894
vt 0.328575 0.952235
vt 0.328587 0.952453
vt 0.296057 0.983021
vt 0.295499 0.982884
vt 0.295138 0.982435
vt 0.295110 0.982101
vt 0.327856 0.951750
vt 0.328372 0.951851
vt 0.328638 0.952261
vt 0.328652 0.952523
vt 0.295190 0.982172
vt 0.295979 0.982938
vt 0.295515 0.982824
vt 0.295214 0.982451
vt 0.327923 0.951809
vt 0.328354 0.951894
vt 0.328575 0.952235
vt 0.328587 0.952453
vt 0.296057 0.983021
vt 0.295499 0.982884
vt 0.295138 0.982435
vt 0.295110 0.982101
vt 0.327856 0.951750
vt 0.328372 0.951851
vt 0.328638 0.952261
vt 0.328652 0.952523
vn -0.575256 -0.220781 -0.787614
vn -0.575256 -0.220781 -0.787614
vn -0.575256 -0.220781 -0.787614
vn -0.575256 -0.220781 -0.787614
vn 0.878326 -0.029978 -0.477121
vn 0.878326 -0.029978 -0.477121
vn 0.878326 -0.029978 -0.477121
vn -0.621318 0.314564 -0.717644
vn -0.621318 0.314564 -0.717644
vn -0.621318 0.314564 -0.717644
vn 0.693284 0.493670 -0.525020
vn 0.693284 0.493670 -0.525020
vn 0.693284 0.493670 -0.525020
vn 0.693284 0.493670 -0.525020
vn 0.850205 0.037167 -0.525138
vn 0.850205 0.037167 -0.525139
vn 0.850205 0.037167 -0.525139
vn 0.850205 0.037167 -0.525139
vn -0.636875 0.034041 -0.770215
vn -0.636876 0.034041 -0.770215
vn -0.636876 0.034041 -0.770215
vn -0.636876 0.034041 -0.770215
vn 0.802872 0.276067 -0.528378
vn 0.802872 0.276067 -0.528378
vn 0.802872 0.276067 -0.528378
vn 0.802872 0.276067 -0.528378
vn -0.525188 -0.404613 -0.748643
vn -0.525188 -0.404613 -0.748643
vn -0.525187 -0.404613 -0.748643
vn -0.525188 -0.404613 -0.748643
vn 0.000000 0.000000 -1.000000
vn 0.000000 0.000000 -1.000000
vn 0.000000 0.000000 -1.000000
vn 0.000000 0.000000 -1.000000
vn 0.000000 0.000000 -1.000000
vn 0.000000 0.000000 -1.000000
vn 0.000000 0.000000 -1.000000
vn 0.000000 0.000000 -1.000000
vn 0.000000 0.000000 -1.000000
vn 0.000000 0.000000 -1.000000
vn 0.000000 0.000000 -1.000000
vn 0.000000 0.000000 -1.000000
vn 0.000000 0.000000 -1.000000
vn 0.000000 0.000000 -1.000000
vn -0.000000 0.000000 -1.000000
vn -0.000000 0.000000 -1.000000
vn -0.000000 0.000000 -1.000000
vn -0.000000 0.000000 -1.000000
vn 0.000000 0.000000 -1.000000
vn 0.000000 0.000000 -1.000000
vn 0.000000 0.000000 -1.000000
vn 0.000000 0.000000 -1.000000
vn -0.000000 0.000000 -1.000000
vn -0.000000 0.000000 -1.000000
vn -0.000000 0.000000 -1.000000
vn -0.000000 0.000000 -1.000000
vn -0.000000 0.000000 -1.000000
vn -0.000000 0.000000 -1.000000
vn -0.000000 0.000000 -1.000000
vn -0.000000 0.000000 -1.000000
vn -0.000000 0.000000 -1.000000
vn -0.000000 0.000000 -1.000000
vn -0.000000 0.000000 -1.000000
vn -0.000000 0.000000 -1.000000
vn 0.000000 0.000000 -1.000000
vn 0.000000 0.000000 -1.000000
vn 0.000000 0.000000 -1.000000
vn 0.000000 0.000000 -1.000000
vn 0.000000 0.000000 -1.000000
vn 0.000000 0.000000 -1.000000
vn 0.000000 0.000000 -1.000000
vn 0.000000 0.000000 -1.000000
vn 0.046463 0.933795 -0.354780
vn 0.046463 0.933795 -0.354780
vn 0.046463 0.933795 -0.354780
vn 0.046463 0.933795 -0.354780
vn -0.573789 0.671124 -0.469425
vn -0.573789 0.671124 -0.469425
vn -0.573789 0.671124 -0.469425
vn -0.573789 0.671124 -0.469425
vn 0.320430 0.928241 -0.188928
vn 0.320430 0.928241 -0.188928
vn 0.320430 0.928241 -0.188928
vn 0.320430 0.928241 -0.188928
vn 0.524645 0.787281 -0.323939
vn 0.524645 0.787281 -0.323939
vn 0.524645 0.787281 -0.323939
vn 0.524645 0.787281 -0.323939
vn 0.788509 0.489983 -0.371714
vn 0.788509 0.489983 -0.371714
vn 0.788508 0.489983 -0.371714
vn 0.788508 0.489983 -0.371714
vn 0.923347 0.101114 -0.370415
vn 0.923347 0.101114 -0.370415
vn 0.923347 0.101114 -0.370415
vn 0.923347 0.101114 -0.370415
vn 0.797155 -0.487266 -0.356534
vn 0.797155 -0.487266 -0.356534
vn 0.797155 -0.487266 -0.356534
vn 0.797155 -0.487266 -0.356534
vn 0.606479 -0.703221 -0.371029
vn 0.606479 -0.703221 -0.371029
vn 0.606479 -0.703221 -0.371029
vn 0.606479 -0.703221 -0.371029
vn 0.558774 -0.760044 -0.331821
vn 0.558774 -0.760044 -0.331821
vn 0.558774 -0.760044 -0.331821
vn 0.558774 -0.760044 -0.331821
vn -0.073826 -0.922970 -0.377724
vn -0.073826 -0.922970 -0.377724
vn -0.073826 -0.922970 -0.377724
vn -0.073826 -0.922970 -0.377724
vn -0.577756 -0.656795 -0.484581
vn -0.577756 -0.656795 -0.484581
vn -0.577756 -0.656795 -0.484581
vn -0.577756 -0.656795 -0.484581
vn -0.452683 -0.675150 -0.582452
vn -0.452683 -0.675150 -0.582452
vn -0.452683 -0.675150 -0.582452
vn -0.452683 -0.675150 -0.582452
vn -0.667974 -0.358558 -0.652110
vn -0.667974 -0.358558 -0.652110
vn -0.667974 -0.358558 -0.652110
vn -0.667974 -0.358558 -0.652110
vn -0.722212 0.064296 -0.688677
vn -0.722212 0.064296 -0.688677
vn -0.722212 0.064296 -0.688677
vn -0.722212 0.064296 -0.688677
vn -0.577310 0.551155 -0.602447
vn -0.577310 0.551155 -0.602447
vn -0.577310 0.551155 -0.602447
vn -0.577310 0.551155 -0.602447
vn -0.147581 0.893568 -0.423976
vn -0.147581 0.893568 -0.423976
vn -0.147581 0.893568 -0.423976
vn -0.147581 0.893568 -0.423976
vn -0.000000 0.000000 -1.000000
vn 0.000000 0.000000 -1.000000
vn 0.000000 0.000000 -1.000000
vn -0.000000 0.000000 -1.000000
vn -0.000000 0.000000 -1.000000
vn -0.000000 0.000000 -1.000000
vn -0.000000 0.000000 -1.000000
vn -0.000000 0.000000 -1.000000
vn 0.820795 0.077577 -0.565931
vn 0.820795 0.077577 -0.565931
vn 0.820795 0.077577 -0.565931
vn 0.820795 0.077577 -0.565931
vn 0.657211 0.475022 -0.585173
vn 0.657211 0.475022 -0.585173
vn 0.657211 0.475022 -0.585173
vn 0.657211 0.475022 -0.585173
vn 0.043001 0.743516 -0.667334
vn 0.043001 0.743516 -0.667334
vn 0.043001 0.743516 -0.667334
vn 0.043001 0.743516 -0.667334
vn -0.734951 -0.042086 -0.676813
vn -0.734951 -0.042086 -0.676813
vn -0.734951 -0.042086 -0.676813
vn -0.734951 -0.042086 -0.676813
vn -0.604562 -0.582240 -0.543600
vn -0.604562 -0.582240 -0.543600
vn -0.604562 -0.582240 -0.543600
vn -0.604562 -0.582240 -0.543600
vn 0.005302 -0.757037 -0.653351
vn 0.005302 -0.757037 -0.653351
vn 0.005302 -0.757037 -0.653350
vn 0.005302 -0.757037 -0.653351
vn -0.000000 0.000000 -1.000000
vn -0.000000 0.000000 -1.000000
vn -0.000000 0.000000 -1.000000
vn -0.000000 0.000000 -1.000000
vn -0.000000 0.000000 -1.000000
vn -0.000000 0.000000 -1.000000
vn 0.000000 0.000000 -1.000000
vn 0.000000 0.000000 -1.000000
vn -0.124200 0.812470 -0.569620
vn -0.124200 0.812470 -0.569620
vn -0.124200 0.812470 -0.569621
vn -0.124200 0.812470 -0.569620
vn -0.630091 0.647547 -0.428565
vn -0.630091 0.647547 -0.428565
vn -0.630091 0.647547 -0.428565
vn -0.630091 0.647547 -0.428565
vn -0.835470 0.044663 -0.547718
vn -0.835470 0.044663 -0.547718
vn -0.835470 0.044663 -0.547718
vn -0.835470 0.044663 -0.547718
vn 0.010147 -0.825456 -0.564375
vn 0.010147 -0.825456 -0.564375
vn 0.010147 -0.825456 -0.564375
vn 0.010147 -0.825456 -0.564375
vn 0.658727 -0.586705 -0.471016
vn 0.658727 -0.586705 -0.471016
vn 0.658727 -0.586705 -0.471016
vn 0.658727 -0.586705 -0.471016
vn 0.801122 0.049451 -0.596455
vn 0.801122 0.049451 -0.596455
vn 0.801122 0.049451 -0.596455
vn 0.801122 0.049451 -0.596455
vn -0.575257 -0.220781 0.787614
vn -0.575257 -0.220781 0.787614
vn -0.575257 -0.220781 0.787614
vn -0.575257 -0.220781 0.787614
vn 0.878326 -0.029978 0.477120
vn 0.878327 -0.029978 0.477120
vn 0.878326 -0.029978 0.477120
vn -0.621319 0.314564 0.717644
vn -0.621319 0.314564 0.717644
vn -0.621319 0.314564 0.717644
vn 0.693285 0.493670 0.525020
vn 0.693285 0.493670 0.525020
vn 0.693285 0.493670 0.525020
vn 0.693285 0.493670 0.525020
vn 0.850205 0.037167 0.525138
vn 0.850205 0.037167 0.525138
vn 0.850205 0.037167 0.525138
vn 0.850205 0.037167 0.525138
vn -0.636876 0.034041 0.770214
vn -0.636876 0.034041 0.770214
vn -0.636876 0.034041 0.770215
vn -0.636876 0.034041 0.770215
vn 0.802872 0.276067 0.528377
vn 0.802872 0.276067 0.528377
vn 0.802872 0.276067 0.528377
vn 0.802872 0.276067 0.528377
vn -0.525188 -0.404613 0.748643
vn -0.525188 -0.404613 0.748643
vn -0.525188 -0.404613 0.748643
vn -0.525188 -0.404613 0.748643
vn 0.000000 0.000000 1.000000
vn 0.000000 0.000000 1.000000
vn 0.000000 0.000000 1.000000
vn 0.000000 0.000000 1.000000
vn 0.000000 0.000000 1.000000
vn 0.000000 0.000000 1.000000
vn 0.000000 0.000000 1.000000
vn 0.000000 0.000000 1.000000
vn 0.000000 0.000000 1.000000
vn 0.000000 0.000000 1.000000
vn 0.000000 0.000000 1.000000
vn 0.000000 0.000000 1.000000
vn 0.000000 0.000000 1.000000
vn 0.000000 0.000000 1.000000
vn 0.000000 0.000000 1.000000
vn 0.000000 0.000000 1.000000
vn 0.000000 0.000000 1.000000
vn 0.000000 0.000000 1.000000
vn 0.000000 0.000000 1.000000
vn 0.000000 0.000000 1.000000
vn 0.000000 0.000000 1.000000
vn 0.000000 0.000000 1.000000
vn -0.000000 0.000000 1.000000
vn -0.000000 0.000000 1.000000
vn -0.000000 0.000000 1.000000
vn -0.000000 0.000000 1.000000
vn 0.000000 0.000000 1.000000
vn 0.000000 0.000000 1.000000
vn 0.000000 0.000000 1.000000
vn 0.000000 0.000000 1.000000
vn 0.000000 0.000000 1.000000
vn 0.000000 0.000000 1.000000
vn 0.000000 0.000000 1.000000
vn 0.000000 0.000000 1.000000
vn 0.000000 0.000000 1.000000
vn 0.000000 0.000000 1.000000
vn 0.000000 0.000000 1.000000
vn 0.000000 0.000000 1.000000
vn 0.000000 0.000000 1.000000
vn 0.000000 0.000000 1.000000
vn 0.000000 0.000000 1.000000
vn 0.000000 0.000000 1.000000
vn 0.046463 0.933794 0.354782
vn 0.046463 0.933794 0.354782
vn 0.046463 0.933794 0.354782
vn 0.046463 0.933794 0.354782
vn -0.573789 0.671121 0.469428
vn -0.573789 0.671121 0.469428
vn -0.573789 0.671121 0.469428
vn -0.573789 0.671121 0.469428
vn 0.320430 0.928240 0.188930
vn 0.320430 0.928240 0.188930
vn 0.320430 0.928240 0.188930
vn 0.320430 0.928240 0.188930
vn 0.524645 0.787280 0.323941
vn 0.524645 0.787280 0.323941
vn 0.524645 0.787280 0.323941
vn 0.524645 0.787280 0.323941
vn 0.788508 0.489982 0.371716
vn 0.788508 0.489982 0.371716
vn 0.788508 0.489983 0.371716
vn 0.788508 0.489983 0.371716
vn 0.923346 0.101114 0.370417
vn 0.923346 0.101114 0.370417
vn 0.923346 0.101114 0.370417
vn 0.923346 0.101114 0.370417
vn 0.797154 -0.487265 0.356536
vn 0.797154 -0.487265 0.356536
vn 0.797154 -0.487265 0.356536
vn 0.797154 -0.487265 0.356536
vn 0.606479 -0.703221 0.371032
vn 0.606479 -0.703221 0.371032
vn 0.606479 -0.703221 0.371032
vn 0.606479 -0.703221 0.371032
vn 0.558773 -0.760043 0.331824
vn 0.558773 -0.760043 0.331824
vn 0.558773 -0.760043 0.331824
vn 0.558773 -0.760043 0.331824
vn -0.073825 -0.922969 0.377726
vn -0.073825 -0.922969 0.377726
vn -0.073825 -0.922969 0.377726
vn -0.073825 -0.922969 0.377726
vn -0.577755 -0.656794 0.484584
vn -0.577755 -0.656794 0.484584
vn -0.577755 -0.656794 0.484584
vn -0.577755 -0.656794 0.484584
vn -0.452682 -0.675148 0.582455
vn -0.452682 -0.675148 0.582455
vn -0.452682 -0.675148 0.582455
vn -0.452682 -0.675148 0.582455
vn -0.667972 -0.358557 0.652112
vn -0.667972 -0.358557 0.652112
vn -0.667972 -0.358557 0.652112
vn -0.667972 -0.358557 0.652112
vn -0.722209 0.064296 0.688680
vn -0.722209 0.064296 0.688680
vn -0.722209 0.064296 0.688680
vn -0.722209 0.064296 0.688680
vn -0.577308 0.551153 0.602450
vn -0.577308 0.551153 0.602450
vn -0.577308 0.551153 0.602450
vn -0.577308 0.551153 0.602450
vn -0.147580 0.893567 0.423979
vn -0.147580 0.893567 0.423979
vn -0.147580 0.893567 0.423979
vn -0.147580 0.893567 0.423979
vn 0.000000 0.000000 1.000000
vn 0.000000 0.000000 1.000000
vn 0.000000 0.000000 1.000000
vn 0.000000 0.000000 1.000000
vn 0.000000 0.000000 1.000000
vn 0.000000 0.000000 1.000000
vn 0.000000 0.000000 1.000000
vn 0.000000 0.000000 1.000000
vn 0.820791 0.077576 0.565937
vn 0.820791 0.077576 0.565937
vn 0.820791 0.077576 0.565937
vn 0.820791 0.077576 0.565937
vn 0.657207 0.475020 0.585179
vn 0.657207 0.475020 0.585179
vn 0.657207 0.475020 0.585179
vn 0.657207 0.475020 0.585179
vn 0.043001 0.743511 0.667340
vn 0.043001 0.743511 0.667340
vn 0.043001 0.743511 0.667340
vn 0.043001 0.743511 0.667340
vn -0.734946 -0.042085 0.676819
vn -0.734946 -0.042085 0.676819
vn -0.734946 -0.042085 0.676818
vn -0.734946 -0.042085 0.676818
vn -0.604560 -0.582237 0.543606
vn -0.604560 -0.582237 0.543607
vn -0.604560 -0.582237 0.543607
vn -0.604560 -0.582237 0.543607
vn 0.005302 -0.757032 0.653357
vn 0.005302 -0.757032 0.653356
vn 0.005302 -0.757032 0.653357
vn 0.005302 -0.757032 0.653357
vn 0.000000 0.000000 1.000000
vn 0.000000 0.000000 1.000000
vn 0.000000 0.000000 1.000000
vn 0.000000 0.000000 1.000000
vn 0.000000 0.000000 1.000000
vn 0.000000 0.000000 1.000000
vn 0.000000 0.000000 1.000000
vn 0.000000 0.000000 1.000000
vn -0.124199 0.812465 0.569627
vn -0.124199 0.812465 0.569627
vn -0.124199 0.812465 0.569627
vn -0.124199 0.812465 0.569627
vn -0.630089 0.647545 0.428571
vn -0.630089 0.647545 0.428571
vn -0.630089 0.647545 0.428571
vn -0.630089 0.647545 0.428571
vn -0.835466 0.044663 0.547724
vn -0.835466 0.044663 0.547724
vn -0.835466 0.044663 0.547724
vn -0.835466 0.044663 0.547724
vn 0.010147 -0.825452 0.564381
vn 0.010147 -0.825452 0.564381
vn 0.010147 -0.825452 0.564381
vn 0.010147 -0.825452 0.564381
vn 0.658725 -0.586703 0.471021
vn 0.658725 -0.586703 0.471021
vn 0.658725 -0.586703 0.471021
vn 0.658725 -0.586703 0.471021
vn 0.801117 0.049451 0.596461
vn 0.801117 0.049451 0.596461
vn 0.801117 0.049451 0.596461
vn 0.801117 0.049451 0.596461
s off
f 5/1/1 6/4/2 13/3/3 12/2/4
f 14/49/5 8/7/6 9/45/7
f 7/8/8 8/7/9 14/49/10
f 4/9/11 3/11/12 12/2/13 11/10/14
f 13/3/15 14/5/16 9/6/17 10/12/18
f 6/4/19 7/43/20 14/5/21 13/3/22
f 12/2/23 13/3/24 10/12/25 11/10/26
f 3/11/27 2/13/28 5/1/29 12/2/30
f 5/1/31 2/13/32 1/15/33 15/14/34
f 8/7/35 21/17/36 22/16/37
f 8/7/38 19/19/39 20/18/40 21/17/41
f 8/7/42 18/44/43 19/19/44
f 17/21/45 18/44/46 8/7/47 7/8/48
f 7/43/49 6/4/50 16/22/51 17/21/52
f 6/4/53 5/1/54 15/14/55 16/22/56
f 4/9/57 11/10/58 25/24/59 26/23/60
f 11/10/61 10/12/62 24/46/63 25/24/64
f 9/6/65 23/26/66 24/25/67 10/12/68
f 9/6/69 8/7/70 22/16/71 23/26/72
f 2/13/73 28/28/74 27/27/75 1/15/76
f 3/11/77 29/29/78 28/28/79 2/13/80
f 4/9/81 30/30/82 29/29/83 3/11/84
f 1/15/85 27/27/86 31/31/87 15/14/88
f 32/32/89 16/22/90 15/14/91 31/31/92
f 16/22/93 32/32/94 33/33/95 17/21/96
f 17/21/97 33/33/98 34/48/99 18/20/100
f 18/44/101 34/34/102 35/35/103 19/19/104
f 19/19/105 35/35/106 36/36/107 20/18/108
f 20/18/109 36/36/110 37/37/111 21/17/112
f 21/17/113 37/37/114 38/38/115 22/16/116
f 22/16/117 38/38/118 39/39/119 23/26/120
f 23/26/121 39/39/122 40/47/123 24/25/124
f 24/46/125 40/40/126 41/41/127 25/24/128
f 25/24/129 41/41/130 42/42/131 26/23/132
f 26/23/133 42/42/134 30/30/135 4/9/136
f 49/50/137 52/53/138 51/52/139 50/51/140
f 49/54/141 50/57/142 54/56/143 53/55/144
f 44/58/145 50/51/146 51/52/147 43/59/148
f 43/59/149 51/52/150 52/53/151 47/60/152
f 47/60/153 52/53/154 49/50/155 48/61/156
f 49/54/157 53/55/158 46/63/159 48/62/160
f 46/63/161 53/55/162 54/56/163 45/64/164
f 45/64/165 54/56/166 50/57/167 44/65/168
f 61/66/169 64/69/170 63/68/171 62/67/172
f 61/70/173 62/73/174 66/72/175 65/71/176
f 56/74/177 62/67/178 63/68/179 55/75/180
f 55/75/181 63/68/182 64/69/183 59/76/184
f 59/76/185 64/69/186 61/66/187 60/77/188
f 61/70/189 65/71/190 58/79/191 60/78/192
f 58/79/193 65/71/194 66/72/195 57/80/196
f 57/80/197 66/72/198 62/73/199 56/81/200
f 71/82/201 78/83/202 79/84/203 72/85/204
f 80/86/205 75/87/206 74/88/207
f 73/89/208 80/86/209 74/88/210
f 70/90/211 77/91/212 78/83/213 69/92/214
f 79/84/215 76/93/216 75/94/217 80/95/218
f 72/85/219 79/84/220 80/95/221 73/96/222
f 78/83/223 77/91/224 76/93/225 79/84/226
f 69/92/227 78/83/228 71/82/229 68/97/230
f 71/82/231 81/98/232 67/99/233 68/97/234
f 74/88/235 88/100/236 87/101/237
f 74/88/238 87/101/239 86/102/240 85/103/241
f 74/88/242 85/103/243 84/104/244
f 83/105/245 73/89/246 74/88/247 84/104/248
f 73/96/249 83/105/250 82/106/251 72/85/252
f 72/85/253 82/106/254 81/98/255 71/82/256
f 70/90/257 92/107/258 91/108/259 77/91/260
f 77/91/261 91/108/262 90/109/263 76/93/264
f 75/94/265 76/93/266 90/110/267 89/111/268
f 75/94/269 89/111/270 88/100/271 74/88/272
f 68/97/273 67/99/274 27/112/275 28/113/276
f 69/92/277 68/97/278 28/113/279 29/114/280
f 70/90/281 69/92/282 29/114/283 30/115/284
f 67/99/285 81/98/286 31/116/287 27/112/288
f 32/117/289 31/116/290 81/98/291 82/106/292
f 82/106/293 83/105/294 33/118/295 32/117/296
f 83/105/297 84/119/298 34/120/299 33/118/300
f 84/104/301 85/103/302 35/121/303 34/122/304
f 85/103/305 86/102/306 36/123/307 35/121/308
f 86/102/309 87/101/310 37/124/311 36/123/312
f 87/101/313 88/100/314 38/125/315 37/124/316
f 88/100/317 89/111/318 39/126/319 38/125/320
f 89/111/321 90/110/322 40/127/323 39/126/324
f 90/109/325 91/108/326 41/128/327 40/129/328
f 91/108/329 92/107/330 42/130/331 41/128/332
f 92/107/333 70/90/334 30/115/335 42/130/336
f 93/131/337 94/132/338 95/133/339 96/134/340
f 93/135/341 97/136/342 98/137/343 94/138/344
f 44/139/345 43/140/346 95/133/347 94/132/348
f 43/140/349 47/141/350 96/134/351 95/133/352
f 47/141/353 48/142/354 93/131/355 96/134/356
f 93/135/357 48/143/358 46/144/359 97/136/360
f 46/144/361 45/145/362 98/137/363 97/136/364
f 45/145/365 44/146/366 94/138/367 98/137/368
f 99/147/369 100/148/370 101/149/371 102/150/372
f 99/151/373 103/152/374 104/153/375 100/154/376
f 56/155/377 55/156/378 101/149/379 100/148/380
f 55/156/381 59/157/382 102/150/383 101/149/384
f 59/157/385 60/158/386 99/147/387 102/150/388
f 99/151/389 60/159/390 58/160/391 103/152/392
f 58/160/393 57/161/394 104/153/395 103/152/396
f 57/161/397 56/162/398 100/154/399 104/153/400
