# This file uses centimeters as units for non-parametric coordinates.

v -7.013444 0.258772 4.000000
v -1.769047 2.319668 4.000000
v -5.283946 16.770054 4.000000
v 7.814571 17.545404 4.000000
v 5.759651 1.258699 4.000000
v -2.831955 -1.169753 4.000000
v -6.787859 -15.425064 4.000000
v -8.329520 -2.402063 0.000000
v -6.451793 19.591776 0.000000
v 9.519940 19.591776 0.000000
v -0.669672 3.198404 0.000000
v 7.514326 3.198404 0.000000
v -8.687000 -19.386520 -0.000000
v -3.591070 -2.402063 -0.000000
v -7.013444 0.258772 -4.000000
v -1.769047 2.319668 -4.000000
v -5.283946 16.770054 -4.000000
v 7.814571 17.545404 -4.000000
v 5.759651 1.258699 -4.000000
v -2.831955 -1.169753 -4.000000
v -6.787859 -15.425064 -4.000000
vt 0.143145 0.982520
vt 0.142940 0.982376
vt 0.142667 0.981956
vt 0.143095 0.981956
vt 0.143018 0.982520
vt 0.142721 0.982376
vt 0.143155 0.982956
vt 0.143149 0.982514
vt 0.143100 0.981963
vt 0.142682 0.981963
vt 0.142949 0.982374
vt 0.142735 0.982374
vt 0.143158 0.982940
vt 0.143025 0.982514
vt 0.143145 0.982520
vt 0.143095 0.981956
vt 0.142667 0.981956
vt 0.142940 0.982376
vt 0.142721 0.982376
vt 0.143018 0.982520
vt 0.143155 0.982956
vt 0.143149 0.982514
vt 0.143100 0.981963
vt 0.142682 0.981963
vt 0.142949 0.982374
vt 0.142735 0.982374
vt 0.143158 0.982940
vt 0.143025 0.982514
vn 0.000000 -0.000000 1.000000
vn 0.000000 -0.000000 1.000000
vn 0.000000 -0.000000 1.000000
vn 0.000000 -0.000000 1.000000
vn 0.000000 0.000000 1.000000
vn 0.000000 0.000000 1.000000
vn 0.000000 0.000000 1.000000
vn 0.000000 0.000000 1.000000
vn 0.000000 0.000000 1.000000
vn 0.000000 0.000000 1.000000
vn 0.000000 0.000000 1.000000
vn -0.980760 0.139629 0.136431
vn -0.980760 0.139629 0.136431
vn -0.980760 0.139629 0.136431
vn -0.980760 0.139629 0.136431
vn -0.017277 0.984414 0.175015
vn -0.017277 0.984414 0.175015
vn -0.017277 0.984414 0.175015
vn -0.017277 0.984414 0.175015
vn 0.724311 -0.688351 0.039333
vn 0.724311 -0.688351 -0.039333
vn 0.724311 -0.688351 -0.039333
vn 0.724311 -0.688351 0.039333
vn 0.044121 0.993004 -0.109525
vn 0.044121 0.993004 -0.109525
vn 0.044121 0.993004 0.109525
vn 0.044121 0.993004 0.109525
vn 0.667653 -0.742816 0.049640
vn 0.667653 -0.742816 0.049640
vn 0.667653 -0.742816 -0.049640
vn 0.667653 -0.742816 -0.049640
vn -0.913626 0.402301 0.058657
vn -0.913626 0.402301 -0.058657
vn -0.913626 0.402301 -0.058657
vn -0.913626 0.402301 0.058657
vn -0.103581 -0.982918 0.152131
vn -0.103581 -0.982918 0.152131
vn -0.103581 -0.982918 0.152131
vn -0.103581 -0.982918 0.152131
vn 0.000000 -0.000000 -1.000000
vn 0.000000 -0.000000 -1.000000
vn 0.000000 -0.000000 -1.000000
vn 0.000000 -0.000000 -1.000000
vn 0.000000 0.000000 -1.000000
vn 0.000000 0.000000 -1.000000
vn 0.000000 0.000000 -1.000000
vn 0.000000 0.000000 -1.000000
vn 0.000000 0.000000 -1.000000
vn 0.000000 0.000000 -1.000000
vn 0.000000 0.000000 -1.000000
vn -0.980760 0.139629 -0.136431
vn -0.980760 0.139629 -0.136431
vn -0.980760 0.139629 -0.136431
vn -0.980760 0.139629 -0.136431
vn -0.017277 0.984414 -0.175015
vn -0.017277 0.984414 -0.175015
vn -0.017277 0.984414 -0.175015
vn -0.017277 0.984414 -0.175015
vn 0.724311 -0.688351 -0.039333
vn 0.724311 -0.688351 -0.039333
vn 0.724311 -0.688351 -0.039333
vn 0.724311 -0.688351 -0.039333
vn 0.044121 0.993004 -0.109525
vn 0.044121 0.993004 -0.109525
vn 0.044121 0.993004 -0.109525
vn 0.044121 0.993004 -0.109525
vn 0.667653 -0.742816 -0.049640
vn 0.667653 -0.742816 -0.049640
vn 0.667653 -0.742816 -0.049640
vn 0.667653 -0.742816 -0.049640
vn -0.913626 0.402301 -0.058657
vn -0.913626 0.402301 -0.058657
vn -0.913626 0.402301 -0.058657
vn -0.913626 0.402301 -0.058657
vn -0.103581 -0.982918 -0.152131
vn -0.103581 -0.982918 -0.152131
vn -0.103581 -0.982918 -0.152131
vn -0.103581 -0.982918 -0.152131
s off
f 1/1/1 2/2/2 4/3/3 3/4/4
f 2/2/5 1/1/6 6/5/7 5/6/8
f 5/6/9 6/5/10 7/7/11
f 8/8/12 1/1/13 3/4/14 9/9/15
f 3/4/16 4/3/17 10/10/18 9/9/19
f 2/2/20 11/11/21 10/10/22 4/3/23
f 12/12/24 11/11/25 2/2/26 5/6/27
f 5/6/28 7/7/29 13/13/30 12/12/31
f 6/5/32 14/14/33 13/13/34 7/7/35
f 1/1/36 8/8/37 14/14/38 6/5/39
f 15/15/40 17/16/41 18/17/42 16/18/43
f 16/18/44 19/19/45 20/20/46 15/15/47
f 19/19/48 21/21/49 20/20/50
f 8/22/51 9/23/52 17/16/53 15/15/54
f 17/16/55 9/23/56 10/24/57 18/17/58
f 16/18/59 18/17/60 10/24/61 11/25/62
f 12/26/63 19/19/64 16/18/65 11/25/66
f 19/19/67 12/26/68 13/27/69 21/21/70
f 20/20/71 21/21/72 13/27/73 14/28/74
f 15/15/75 20/20/76 14/28/77 8/22/78
