# This file uses centimeters as units for non-parametric coordinates.

v -10.005720 -19.241890 0.000000
v 10.005720 -19.063160 0.000000
v -9.737622 14.793868 0.000000
v 9.782306 14.525771 0.000000
v -8.713521 13.726312 -4.000000
v -8.907493 -18.024384 -4.000000
v 8.597138 13.532340 -4.000000
v 8.752316 -17.896225 -4.000000
v -6.763441 -15.458085 -4.000000
v -6.647058 10.966043 -4.000000
v 6.647058 -15.419290 -4.000000
v 6.647058 11.160014 -4.000000
v -6.136722 -14.665077 0.000000
v -6.418101 10.472727 0.000000
v 5.815003 -14.860218 0.000000
v 6.338407 10.692703 0.000000
v -4.136806 13.520734 -2.000000
v 4.199187 13.506648 -2.000000
v -3.512471 17.679462 -2.000000
v 3.708773 18.163559 -2.000000
v -5.012918 13.074382 0.000000
v 5.012918 13.074382 0.000000
v -4.594336 19.197662 0.000000
v 4.591784 19.241890 0.000000
v -8.713521 13.726312 4.000000
v -8.907493 -18.024384 4.000000
v 8.597138 13.532340 4.000000
v 8.752316 -17.896225 4.000000
v -6.763441 -15.458085 4.000000
v -6.647058 10.966043 4.000000
v 6.647058 -15.419290 4.000000
v 6.647058 11.160014 4.000000
v -4.136806 13.520734 2.000000
v 4.199187 13.506648 2.000000
v -3.512471 17.679462 2.000000
v 3.708773 18.163559 2.000000
v 9.847245 4.762509 0.000000
v 8.642243 4.397030 -4.000000
v 6.647058 3.434234 -4.000000
v 6.186270 3.265261 0.000000
v 6.600998 3.434234 4.000000
v 8.365299 4.397030 4.000000
v -9.934053 -10.143622 0.000000
v -8.670407 -9.536944 4.000000
v -6.732330 -8.394519 4.000000
v -6.211938 -7.945365 0.000000
v -6.732330 -8.394519 -4.000000
v -8.855640 -9.536944 -4.000000
v 4.205844 -19.114960 0.000000
v 3.634009 -17.933369 -4.000000
v 2.760320 -15.430533 -4.000000
v 2.351059 -14.707549 0.000000
v 2.760320 -15.339223 4.000000
v 3.634009 -17.795872 4.000000
vt 0.017686 0.983548
vt 0.017686 0.978947
vt 0.012484 0.979112
vt 0.012484 0.983404
vt 0.017686 0.978972
vt 0.012484 0.979129
vt 0.012484 0.983378
vt 0.017686 0.983512
vt 0.012484 0.979459
vt 0.012484 0.983031
vt 0.012484 0.979464
vt 0.012484 0.983057
vt 0.017686 0.979566
vt 0.017686 0.982964
vt 0.017686 0.979540
vt 0.017686 0.982994
vt 0.015085 0.983938
vt 0.015085 0.983376
vt 0.015085 0.983374
vt 0.015085 0.984004
vt 0.017686 0.984149
vt 0.017686 0.984143
vt 0.017686 0.983316
vt 0.017686 0.983316
vt 0.017686 0.983548
vt 0.017686 0.978947
vt 0.012484 0.979112
vt 0.012484 0.983404
vt 0.017686 0.978972
vt 0.012484 0.979129
vt 0.012484 0.983378
vt 0.017686 0.983512
vt 0.012484 0.979459
vt 0.012484 0.983031
vt 0.012484 0.979464
vt 0.012484 0.983057
vt 0.017686 0.979566
vt 0.017686 0.982964
vt 0.017686 0.979540
vt 0.017686 0.982994
vt 0.015085 0.983938
vt 0.015085 0.983376
vt 0.015085 0.983374
vt 0.015085 0.984004
vt 0.017686 0.984149
vt 0.017686 0.984143
vt 0.017686 0.983316
vt 0.017686 0.983316
vt 0.017686 0.982192
vt 0.017686 0.982192
vt 0.012484 0.982143
vt 0.012484 0.982013
vt 0.017686 0.981990
vt 0.017686 0.981990
vt 0.012484 0.982013
vt 0.012484 0.982143
vt 0.017686 0.980177
vt 0.017686 0.980177
vt 0.012484 0.980259
vt 0.012484 0.980414
vt 0.017686 0.980474
vt 0.017686 0.980474
vt 0.012484 0.980414
vt 0.012484 0.980259
vt 0.017686 0.978965
vt 0.017686 0.978965
vt 0.012484 0.979124
vt 0.012484 0.979463
vt 0.017686 0.979547
vt 0.017686 0.979547
vt 0.012484 0.979463
vt 0.012484 0.979124
vn -0.967038 0.006792 -0.254543
vn -0.967038 0.006792 -0.254543
vn -0.966635 0.006789 -0.256066
vn -0.966507 0.006789 -0.256548
vn 0.007807 -0.958305 -0.285642
vn 0.007806 -0.958232 -0.285885
vn 0.007812 -0.958996 -0.283311
vn 0.007812 -0.958996 -0.283311
vn 0.012147 0.968250 -0.249688
vn 0.012147 0.968250 -0.249688
vn 0.012147 0.968250 -0.249688
vn 0.012147 0.968250 -0.249688
vn 0.956609 0.005570 -0.291322
vn 0.956526 0.005570 -0.291595
vn 0.957875 0.005578 -0.287133
vn 0.957875 0.005578 -0.287133
vn 0.000000 -0.000000 -1.000000
vn 0.000000 -0.000000 -1.000000
vn 0.000000 -0.000000 -1.000000
vn 0.000000 -0.000000 -1.000000
vn 0.000000 0.000000 -1.000000
vn 0.000000 0.000000 -1.000000
vn 0.000000 0.000000 -1.000000
vn 0.000000 0.000000 -1.000000
vn -0.000000 -0.000000 -1.000000
vn -0.000000 -0.000000 -1.000000
vn -0.000000 -0.000000 -1.000000
vn -0.000000 -0.000000 -1.000000
vn 0.000000 -0.000000 -1.000000
vn 0.000000 -0.000000 -1.000000
vn 0.000000 -0.000000 -1.000000
vn 0.000000 -0.000000 -1.000000
vn 0.995638 0.003186 -0.093242
vn 0.995638 0.003186 -0.093242
vn 0.994450 0.003182 -0.105165
vn 0.994158 0.003181 -0.107889
vn 0.006555 0.984281 -0.176489
vn 0.005581 0.983990 -0.178138
vn 0.019003 0.987679 -0.155334
vn 0.019003 0.987679 -0.155334
vn -0.990025 0.009940 -0.140545
vn -0.989816 0.009938 -0.142009
vn -0.995432 0.009994 -0.094946
vn -0.995432 0.009994 -0.094946
vn 0.015775 -0.992763 -0.119052
vn 0.015775 -0.992763 -0.119052
vn 0.015775 -0.992763 -0.119052
vn 0.015775 -0.992763 -0.119052
vn 0.000000 0.000000 -1.000000
vn 0.000000 0.000000 -1.000000
vn 0.000000 0.000000 -1.000000
vn 0.000000 0.000000 -1.000000
vn -0.026979 0.837858 -0.545222
vn -0.026979 0.837858 -0.545222
vn -0.026979 0.837858 -0.545222
vn -0.026979 0.837858 -0.545222
vn -0.884838 0.089750 -0.457173
vn -0.884838 0.089750 -0.457173
vn -0.884838 0.089750 -0.457173
vn -0.884838 0.089750 -0.457173
vn 0.913347 0.076915 -0.399852
vn 0.913347 0.076915 -0.399852
vn 0.913347 0.076915 -0.399852
vn 0.913347 0.076915 -0.399852
vn -0.961408 0.003058 0.275109
vn -0.960992 0.007276 0.276480
vn -0.961094 0.006262 0.276151
vn -0.961408 0.003058 0.275109
vn 0.008351 -0.953889 0.300045
vn 0.007165 -0.954021 0.299654
vn -0.004248 -0.955219 0.295868
vn -0.004248 -0.955219 0.295868
vn 0.012147 0.968250 0.249689
vn 0.012147 0.968250 0.249689
vn 0.012147 0.968250 0.249689
vn 0.012147 0.968250 0.249689
vn 0.947228 0.005954 0.320505
vn 0.947346 0.005079 0.320170
vn 0.949060 -0.008382 0.314983
vn 0.949060 -0.008382 0.314983
vn 0.000000 -0.000000 1.000000
vn 0.000000 -0.000000 1.000000
vn 0.000000 -0.000000 1.000000
vn 0.000000 -0.000000 1.000000
vn 0.000000 0.000000 1.000000
vn 0.000000 0.000000 1.000000
vn 0.000000 0.000000 1.000000
vn 0.000000 0.000000 1.000000
vn -0.000000 -0.000000 1.000000
vn -0.000000 0.000000 1.000000
vn -0.000000 0.000000 1.000000
vn -0.000000 0.000000 1.000000
vn 0.000000 -0.000000 1.000000
vn 0.000000 -0.000000 1.000000
vn 0.000000 -0.000000 1.000000
vn 0.000000 -0.000000 1.000000
vn 0.995638 0.003186 0.093242
vn 0.994158 0.003181 0.107889
vn 0.994450 0.003182 0.105165
vn 0.995638 0.003186 0.093242
vn 0.005133 0.986003 0.166647
vn 0.007045 0.986288 0.164884
vn 0.031323 0.989314 0.142393
vn 0.031323 0.989314 0.142393
vn -0.990617 0.009897 0.136307
vn -0.990818 0.009995 0.134834
vn -0.995945 0.013027 0.089020
vn -0.995945 0.013027 0.089020
vn 0.015775 -0.992763 0.119052
vn 0.015775 -0.992763 0.119052
vn 0.015775 -0.992763 0.119052
vn 0.015775 -0.992763 0.119052
vn 0.000000 0.000000 1.000000
vn 0.000000 0.000000 1.000000
vn 0.000000 0.000000 1.000000
vn 0.000000 0.000000 1.000000
vn -0.026979 0.837857 0.545222
vn -0.026979 0.837857 0.545222
vn -0.026979 0.837857 0.545222
vn -0.026979 0.837857 0.545222
vn -0.884838 0.089750 0.457173
vn -0.884838 0.089750 0.457173
vn -0.884838 0.089750 0.457173
vn -0.884838 0.089750 0.457173
vn 0.913347 0.076915 0.399852
vn 0.913347 0.076915 0.399852
vn 0.913347 0.076915 0.399852
vn 0.913347 0.076915 0.399852
vn 0.956026 0.005567 -0.293230
vn 0.956026 0.005567 -0.293230
vn 0.956526 0.005570 -0.291595
vn 0.956609 0.005570 -0.291322
vn -0.000000 -0.000000 -1.000000
vn -0.000000 -0.000000 -1.000000
vn -0.000000 -0.000000 -1.000000
vn -0.000000 -0.000000 -1.000000
vn -0.987068 0.009910 -0.159999
vn -0.987067 0.009910 -0.159999
vn -0.989816 0.009938 -0.142009
vn -0.990025 0.009940 -0.140545
vn -0.987971 0.008689 0.154397
vn -0.990818 0.009995 0.134834
vn -0.990617 0.009897 0.136307
vn -0.987971 0.008689 0.154397
vn -0.000000 -0.000000 1.000000
vn -0.000000 0.000000 1.000000
vn -0.000000 -0.000000 1.000000
vn -0.000000 -0.000000 1.000000
vn 0.946502 0.011195 0.322505
vn 0.947346 0.005079 0.320170
vn 0.947228 0.005954 0.320505
vn 0.946502 0.011195 0.322505
vn -0.961094 0.006262 0.276151
vn -0.960992 0.007276 0.276480
vn -0.959976 0.016854 0.279575
vn -0.959976 0.016854 0.279575
vn 0.000000 -0.000000 1.000000
vn 0.000000 -0.000000 1.000000
vn 0.000000 -0.000000 1.000000
vn 0.000000 -0.000000 1.000000
vn 0.994450 0.003182 0.105165
vn 0.994158 0.003181 0.107889
vn 0.989802 0.003167 0.142418
vn 0.989802 0.003167 0.142418
vn 0.994158 0.003181 -0.107889
vn 0.994450 0.003182 -0.105165
vn 0.989801 0.003167 -0.142418
vn 0.989802 0.003167 -0.142418
vn 0.000000 -0.000000 -1.000000
vn 0.000000 -0.000000 -1.000000
vn 0.000000 -0.000000 -1.000000
vn 0.000000 -0.000000 -1.000000
vn -0.966507 0.006789 -0.256548
vn -0.966635 0.006789 -0.256066
vn -0.965291 0.006780 -0.261090
vn -0.965291 0.006780 -0.261090
vn 0.007804 -0.957968 -0.286769
vn 0.007806 -0.958232 -0.285885
vn 0.007807 -0.958305 -0.285642
vn 0.007804 -0.957968 -0.286769
vn 0.000000 0.000000 -1.000000
vn 0.000000 0.000000 -1.000000
vn 0.000000 0.000000 -1.000000
vn 0.000000 0.000000 -1.000000
vn 0.000814 0.982510 -0.186207
vn 0.000814 0.982510 -0.186207
vn 0.005581 0.983990 -0.178138
vn 0.006555 0.984281 -0.176489
vn -0.004176 0.984521 0.175215
vn 0.007045 0.986288 0.164884
vn 0.005133 0.986003 0.166647
vn -0.004176 0.984521 0.175215
vn 0.000000 0.000000 1.000000
vn 0.000000 0.000000 1.000000
vn 0.000000 0.000000 1.000000
vn 0.000000 0.000000 1.000000
vn 0.012667 -0.953394 0.301463
vn 0.012667 -0.953394 0.301463
vn 0.007165 -0.954021 0.299654
vn 0.008351 -0.953889 0.300045
s off
f 3/1/1 5/4/2 48/64/3 43/57/4
f 49/66/5 50/67/6 8/6/7 2/5/8
f 5/4/9 3/1/10 4/8/11 7/7/12
f 37/50/13 38/51/14 7/7/15 4/8/16
f 5/4/17 10/10/18 47/63/19 48/64/20
f 50/67/21 51/68/22 11/11/23 8/6/24
f 38/51/25 39/52/26 12/12/27 7/7/28
f 7/7/29 12/12/30 10/10/31 5/4/32
f 10/10/33 14/14/34 46/62/35 47/63/36
f 51/68/37 52/69/38 15/15/39 11/11/40
f 39/52/41 40/53/42 16/16/43 12/12/44
f 12/12/45 16/16/46 14/14/47 10/10/48
f 19/17/49 20/20/50 18/19/51 17/18/52
f 19/17/53 23/22/54 24/21/55 20/20/56
f 17/18/57 21/23/58 23/22/59 19/17/60
f 20/20/61 24/21/62 22/24/63 18/19/64
f 3/25/65 43/58/66 44/59/67 25/28/68
f 54/72/69 49/65/70 2/29/71 28/30/72
f 25/28/73 27/31/74 4/32/75 3/25/76
f 42/56/77 37/49/78 4/32/79 27/31/80
f 25/28/81 44/59/82 45/60/83 30/34/84
f 53/71/85 54/72/86 28/30/87 31/35/88
f 41/55/89 42/56/90 27/31/91 32/36/92
f 27/31/93 25/28/94 30/34/95 32/36/96
f 30/34/97 45/60/98 46/61/99 14/38/100
f 52/70/101 53/71/102 31/35/103 15/39/104
f 40/54/105 41/55/106 32/36/107 16/40/108
f 32/36/109 30/34/110 14/38/111 16/40/112
f 35/41/113 33/42/114 34/43/115 36/44/116
f 35/41/117 36/44/118 24/45/119 23/46/120
f 33/42/121 35/41/122 23/46/123 21/47/124
f 36/44/125 34/43/126 22/48/127 24/45/128
f 2/5/129 8/6/130 38/51/131 37/50/132
f 8/6/133 11/11/134 39/52/135 38/51/136
f 11/11/137 15/15/138 40/53/139 39/52/140
f 31/35/141 41/55/142 40/54/143 15/39/144
f 28/30/145 42/56/146 41/55/147 31/35/148
f 2/29/149 37/49/150 42/56/151 28/30/152
f 44/59/153 43/58/154 1/26/155 26/27/156
f 45/60/157 44/59/158 26/27/159 29/33/160
f 46/61/161 45/60/162 29/33/163 13/37/164
f 47/63/165 46/62/166 13/13/167 9/9/168
f 48/64/169 47/63/170 9/9/171 6/3/172
f 43/57/173 48/64/174 6/3/175 1/2/176
f 6/3/177 50/67/178 49/66/179 1/2/180
f 6/3/181 9/9/182 51/68/183 50/67/184
f 9/9/185 13/13/186 52/69/187 51/68/188
f 29/33/189 53/71/190 52/70/191 13/37/192
f 26/27/193 54/72/194 53/71/195 29/33/196
f 26/27/197 1/26/198 49/65/199 54/72/200
