# This file uses centimeters as units for non-parametric coordinates.

v 15.640613 13.829279 4.000000
v 15.640613 17.036301 4.000000
v 12.863251 18.639807 4.000000
v 10.085886 17.036301 4.000000
v 10.085886 13.829280 4.000000
v 12.863250 12.225768 4.000000
v 16.420076 17.486326 0.000000
v 16.420076 13.379253 0.000000
v 12.863250 11.325716 0.000000
v 9.306420 13.379254 0.000000
v 9.306420 17.486326 0.000000
v 12.863251 19.539860 0.000000
v 15.640613 13.829279 -4.000000
v 15.640613 17.036301 -4.000000
v 12.863251 18.639807 -4.000000
v 10.085886 17.036301 -4.000000
v 10.085886 13.829280 -4.000000
v 12.863250 12.225768 -4.000000
v -18.261768 6.656212 0.000000
v -17.125200 10.606718 0.000000
v -16.380495 3.215731 -0.000000
v 6.354308 -0.449184 0.000000
v 9.456215 4.077283 0.000000
v 10.222344 9.962232 0.000000
v 6.789676 15.643407 0.000000
v 5.402259 14.644718 2.000000
v 2.623233 11.113536 2.000000
v 2.371572 4.367178 2.000000
v 5.020928 0.549503 2.000000
v 7.737834 4.514156 2.000000
v 8.408874 9.668678 2.000000
v 1.735399 10.746893 4.000000
v -15.456337 6.880731 4.000000
v 1.509978 4.703950 4.000000
v -14.508648 9.980138 4.000000
v 4.224668 13.909894 4.000000
v -13.924385 4.181479 4.000000
v 3.883096 1.284328 4.000000
v 5.402259 14.644718 -2.000000
v 2.623233 11.113536 -2.000000
v 2.371572 4.367178 -2.000000
v 5.020928 0.549503 -2.000000
v 7.737834 4.514156 -2.000000
v 8.408874 9.668678 -2.000000
v 1.735399 10.746893 -4.000000
v -15.456337 6.880731 -4.000000
v 1.509978 4.703950 -4.000000
v -14.508648 9.980138 -4.000000
v 4.224668 13.909894 -4.000000
v -13.924385 4.181479 -4.000000
v 3.883096 1.284328 -4.000000
v 9.549345 -19.733072 4.000000
v 16.192255 -19.733072 4.000000
v 9.549345 -17.465178 4.000000
v 16.192255 -17.465178 4.000000
v 16.620800 -17.198246 0.000000
v 9.120799 -17.198246 0.000000
v 9.120799 -20.000004 0.000000
v 16.620800 -20.000004 0.000000
v 9.549345 -19.733072 -4.000000
v 16.192255 -19.733072 -4.000000
v 9.549345 -17.465178 -4.000000
v 16.192255 -17.465178 -4.000000
v 11.870799 -17.550262 2.000000
v 13.870799 -17.550262 2.000000
v 11.870799 14.498493 2.000000
v 13.870799 14.498493 2.000000
v 14.497986 -17.550262 -0.000000
v 11.243613 -17.550262 -0.000000
v 11.243613 14.498493 -0.000000
v 14.497986 14.498493 -0.000000
v 11.870799 -17.550262 -2.000000
v 13.870799 -17.550262 -2.000000
v 11.870799 14.498493 -2.000000
v 13.870799 14.498493 -2.000000
v 7.341148 3.156560 1.000000
v 11.784775 1.965894 1.000000
v 7.858787 5.088411 1.000000
v 12.302414 3.897745 1.000000
v 7.858787 5.088411 -1.000000
v 12.302414 3.897745 -1.000000
v 7.341148 3.156560 -1.000000
v 11.784775 1.965894 -1.000000
v 8.503196 8.891002 1.000000
v 12.351470 9.922144 1.000000
v 7.985558 10.822853 1.000000
v 11.833832 11.853995 1.000000
v 7.985558 10.822853 -1.000000
v 11.833832 11.853995 -1.000000
v 8.503196 8.891002 -1.000000
v 12.351470 9.922144 -1.000000
vt 0.013215 0.950103
vt 0.013212 0.949721
vt 0.013456 0.949619
vt 0.013708 0.949918
vt 0.013704 0.950312
vt 0.013455 0.950396
vt 0.013487 0.950009
vt 0.013489 0.949530
vt 0.013790 0.950373
vt 0.014114 0.950267
vt 0.014127 0.949769
vt 0.013804 0.949395
vt 0.013215 0.950103
vt 0.013212 0.949721
vt 0.013456 0.949619
vt 0.013708 0.949918
vt 0.013704 0.950312
vt 0.013455 0.950396
vt 0.013487 0.950009
vt 0.013489 0.949530
vt 0.013790 0.950373
vt 0.014114 0.950267
vt 0.014127 0.949769
vt 0.013804 0.949395
vt 0.075996 0.951179
vt 0.076058 0.951235
vt 0.076068 0.951423
vt 0.076004 0.951527
vt 0.075940 0.951429
vt 0.075924 0.951302
vt 0.114695 0.981353
vt 0.115337 0.981499
vt 0.114702 0.981578
vt 0.114607 0.981236
vt 0.115311 0.981394
vt 0.115287 0.981590
vt 0.114619 0.981703
vt 0.114554 0.981750
vt 0.114451 0.981591
vt 0.114496 0.981580
vt 0.114589 0.981723
vt 0.114426 0.981385
vt 0.114473 0.981395
vt 0.114539 0.981185
vt 0.114576 0.981215
vt 0.115393 0.981375
vt 0.115364 0.981613
vt 0.114680 0.981586
vt 0.114671 0.981342
vt 0.115426 0.981503
vt 0.075996 0.951179
vt 0.075924 0.951302
vt 0.075940 0.951429
vt 0.076004 0.951527
vt 0.076068 0.951423
vt 0.076058 0.951235
vt 0.114695 0.981353
vt 0.114702 0.981578
vt 0.115337 0.981499
vt 0.114607 0.981236
vt 0.115311 0.981394
vt 0.114619 0.981703
vt 0.115287 0.981590
vt 0.114554 0.981750
vt 0.114589 0.981723
vt 0.114496 0.981580
vt 0.114451 0.981591
vt 0.114473 0.981395
vt 0.114426 0.981385
vt 0.114576 0.981215
vt 0.114539 0.981185
vt 0.115393 0.981375
vt 0.115364 0.981613
vt 0.114680 0.981586
vt 0.114671 0.981342
vt 0.115426 0.981503
vt 0.143113 0.920247
vt 0.142164 0.920211
vt 0.142162 0.919909
vt 0.143114 0.919943
vt 0.142243 0.919767
vt 0.143162 0.919799
vt 0.143161 0.920093
vt 0.142244 0.920059
vt 0.143113 0.920247
vt 0.143114 0.919943
vt 0.142162 0.919909
vt 0.142164 0.920211
vt 0.143162 0.919799
vt 0.142243 0.919767
vt 0.143161 0.920093
vt 0.142244 0.920059
vt 0.143154 0.920247
vt 0.143093 0.920245
vt 0.143091 0.919247
vt 0.143155 0.919247
vt 0.143159 0.919247
vt 0.143158 0.920238
vt 0.143097 0.920236
vt 0.143095 0.919247
vt 0.143154 0.920247
vt 0.143155 0.919247
vt 0.143091 0.919247
vt 0.143093 0.920245
vt 0.143159 0.919247
vt 0.143158 0.920238
vt 0.143095 0.919247
vt 0.143097 0.920236
vt 0.074380 0.955219
vt 0.073424 0.955206
vt 0.073424 0.954635
vt 0.074382 0.954645
vt 0.073494 0.954587
vt 0.074424 0.954596
vt 0.073494 0.955142
vt 0.074421 0.955154
vt 0.074380 0.955219
vt 0.073424 0.955206
vt 0.073424 0.954635
vt 0.074382 0.954645
vt 0.073494 0.954587
vt 0.074424 0.954596
vt 0.073494 0.955142
vt 0.074421 0.955154
vn 0.000000 0.000000 1.000000
vn 0.000000 0.000000 1.000000
vn 0.000000 0.000000 1.000000
vn 0.000000 0.000000 1.000000
vn 0.000000 0.000000 1.000000
vn 0.000000 0.000000 1.000000
vn 1.000000 0.000000 0.000000
vn 1.000000 0.000000 0.000000
vn 0.981538 0.000000 0.191268
vn 0.981538 0.000000 0.191268
vn 0.500000 -0.866025 0.000000
vn 0.500000 -0.866025 0.000000
vn 0.490769 -0.850036 0.191269
vn 0.490769 -0.850036 0.191269
vn -0.500000 -0.866025 0.000000
vn -0.500000 -0.866025 0.000000
vn -0.490769 -0.850036 0.191269
vn -0.490769 -0.850036 0.191269
vn -1.000000 0.000000 0.000000
vn -1.000000 0.000000 0.000000
vn -0.981538 0.000000 0.191269
vn -0.981538 0.000000 0.191269
vn -0.499999 0.866026 0.000000
vn -0.499999 0.866026 0.000000
vn -0.490768 0.850037 0.191269
vn -0.490768 0.850037 0.191269
vn 0.500000 0.866026 -0.000000
vn 0.499999 0.866026 -0.000000
vn 0.490768 0.850037 0.191269
vn 0.490768 0.850037 0.191269
vn 0.000000 0.000000 -1.000000
vn 0.000000 0.000000 -1.000000
vn 0.000000 0.000000 -1.000000
vn 0.000000 0.000000 -1.000000
vn 0.000000 0.000000 -1.000000
vn 0.000000 0.000000 -1.000000
vn 1.000000 0.000000 0.000000
vn 0.981538 0.000000 -0.191268
vn 0.981538 0.000000 -0.191268
vn 1.000000 0.000000 0.000000
vn 0.500000 -0.866025 0.000000
vn 0.490769 -0.850036 -0.191269
vn 0.490769 -0.850036 -0.191269
vn 0.500000 -0.866025 0.000000
vn -0.500000 -0.866025 0.000000
vn -0.490769 -0.850036 -0.191269
vn -0.490769 -0.850036 -0.191269
vn -0.500000 -0.866025 0.000000
vn -1.000000 0.000000 0.000000
vn -0.981538 0.000000 -0.191269
vn -0.981538 0.000000 -0.191269
vn -1.000000 0.000000 0.000000
vn -0.499999 0.866026 0.000000
vn -0.490768 0.850037 -0.191269
vn -0.490768 0.850037 -0.191269
vn -0.499999 0.866026 0.000000
vn 0.500000 0.866026 -0.000000
vn 0.490768 0.850037 -0.191269
vn 0.490768 0.850037 -0.191269
vn 0.499999 0.866026 -0.000000
vn 0.000000 0.000000 1.000000
vn 0.000000 0.000000 1.000000
vn 0.000000 0.000000 1.000000
vn 0.000000 0.000000 1.000000
vn 0.000000 0.000000 1.000000
vn 0.000000 0.000000 1.000000
vn 0.000000 0.000000 1.000000
vn 0.000000 0.000000 1.000000
vn 0.000000 0.000000 1.000000
vn 0.000000 0.000000 1.000000
vn 0.000000 0.000000 1.000000
vn 0.000000 0.000000 1.000000
vn 0.000000 0.000000 1.000000
vn 0.000000 0.000000 1.000000
vn 0.000000 0.000000 1.000000
vn 0.000000 0.000000 1.000000
vn 0.000000 0.000000 1.000000
vn 0.000000 0.000000 1.000000
vn 0.000000 0.000000 1.000000
vn 0.000000 0.000000 1.000000
vn 0.000000 0.000000 1.000000
vn 0.634049 -0.434502 0.639680
vn 0.706089 -0.252092 0.661731
vn 0.700772 -0.268789 0.660810
vn 0.634049 -0.434502 0.639680
vn 0.706089 -0.252092 0.661731
vn 0.744358 -0.096904 0.660712
vn 0.744358 -0.096904 0.660712
vn 0.700772 -0.268789 0.660810
vn 0.651505 0.393651 0.648521
vn 0.651505 0.393651 0.648521
vn 0.651505 0.393651 0.648521
vn 0.651505 0.393651 0.648521
vn -0.194780 0.924841 0.326694
vn -0.194780 0.924841 0.326694
vn -0.194780 0.924841 0.326694
vn -0.148428 -0.920750 0.360816
vn -0.148428 -0.920750 0.360816
vn -0.148428 -0.920750 0.360816
vn 0.915764 -0.034161 0.400261
vn 0.915764 -0.034161 0.400261
vn 0.915764 -0.034161 0.400261
vn 0.915764 -0.034161 0.400261
vn -0.195212 0.945309 0.261309
vn -0.195212 0.945309 0.261309
vn -0.195212 0.945309 0.261309
vn -0.195212 0.945309 0.261309
vn 0.764910 -0.601981 0.229200
vn 0.764909 -0.601981 0.229200
vn 0.764909 -0.601981 0.229200
vn 0.764909 -0.601981 0.229200
vn -0.148995 -0.942292 0.299809
vn -0.148995 -0.942292 0.299809
vn -0.148995 -0.942292 0.299809
vn -0.148995 -0.942292 0.299809
vn 0.795518 0.552067 0.249747
vn 0.795518 0.552067 0.249747
vn 0.795518 0.552067 0.249747
vn 0.795518 0.552066 0.249747
vn -0.798823 0.236166 0.553270
vn -0.798823 0.236166 0.553270
vn -0.798823 0.236166 0.553270
vn -0.798823 0.236166 0.553270
vn -0.733778 -0.407925 0.543293
vn -0.733778 -0.407925 0.543293
vn -0.733778 -0.407925 0.543293
vn -0.733778 -0.407925 0.543293
vn -0.000000 0.000000 -1.000000
vn -0.000000 0.000000 -1.000000
vn -0.000000 0.000000 -1.000000
vn -0.000000 0.000000 -1.000000
vn -0.000000 0.000000 -1.000000
vn -0.000000 0.000000 -1.000000
vn 0.000000 0.000000 -1.000000
vn 0.000000 0.000000 -1.000000
vn 0.000000 0.000000 -1.000000
vn 0.000000 0.000000 -1.000000
vn 0.000000 0.000000 -1.000000
vn 0.000000 0.000000 -1.000000
vn 0.000000 0.000000 -1.000000
vn 0.000000 0.000000 -1.000000
vn 0.000000 0.000000 -1.000000
vn 0.000000 0.000000 -1.000000
vn 0.000000 0.000000 -1.000000
vn 0.000000 0.000000 -1.000000
vn 0.000000 0.000000 -1.000000
vn 0.000000 0.000000 -1.000000
vn 0.000000 0.000000 -1.000000
vn 0.634049 -0.434502 -0.639680
vn 0.634049 -0.434502 -0.639680
vn 0.700773 -0.268789 -0.660810
vn 0.706089 -0.252093 -0.661731
vn 0.706089 -0.252093 -0.661731
vn 0.700773 -0.268789 -0.660810
vn 0.744358 -0.096904 -0.660712
vn 0.744358 -0.096904 -0.660712
vn 0.651505 0.393651 -0.648522
vn 0.651505 0.393651 -0.648522
vn 0.651505 0.393651 -0.648522
vn 0.651505 0.393651 -0.648522
vn -0.194780 0.924841 -0.326695
vn -0.194780 0.924841 -0.326695
vn -0.194780 0.924841 -0.326695
vn -0.148428 -0.920750 -0.360816
vn -0.148428 -0.920750 -0.360816
vn -0.148428 -0.920750 -0.360816
vn 0.915764 -0.034161 -0.400261
vn 0.915764 -0.034161 -0.400261
vn 0.915764 -0.034161 -0.400261
vn 0.915764 -0.034161 -0.400261
vn -0.195212 0.945309 -0.261309
vn -0.195212 0.945309 -0.261309
vn -0.195212 0.945309 -0.261309
vn -0.195212 0.945309 -0.261309
vn 0.764910 -0.601981 -0.229200
vn 0.764909 -0.601981 -0.229200
vn 0.764909 -0.601981 -0.229200
vn 0.764909 -0.601981 -0.229200
vn -0.148995 -0.942292 -0.299809
vn -0.148995 -0.942292 -0.299809
vn -0.148995 -0.942292 -0.299809
vn -0.148995 -0.942292 -0.299809
vn 0.795518 0.552067 -0.249747
vn 0.795518 0.552066 -0.249747
vn 0.795518 0.552067 -0.249747
vn 0.795518 0.552067 -0.249747
vn -0.798823 0.236166 -0.553270
vn -0.798823 0.236166 -0.553270
vn -0.798823 0.236166 -0.553270
vn -0.798823 0.236166 -0.553270
vn -0.733778 -0.407925 -0.543293
vn -0.733778 -0.407925 -0.543293
vn -0.733778 -0.407925 -0.543293
vn -0.733778 -0.407925 -0.543293
vn 0.000000 0.000000 1.000000
vn 0.000000 0.000000 1.000000
vn 0.000000 0.000000 1.000000
vn 0.000000 0.000000 1.000000
vn 0.000000 0.997781 0.066585
vn 0.000000 0.997781 0.066585
vn 0.000000 0.997781 0.066585
vn 0.000000 0.997781 0.066585
vn 0.000000 -0.997781 0.066585
vn 0.000000 -0.997781 0.066585
vn 0.000000 -0.997781 0.066585
vn 0.000000 -0.997781 0.066585
vn 0.994310 0.000000 0.106527
vn 0.994310 0.000000 0.106527
vn 0.994310 0.000000 0.106527
vn 0.994310 0.000000 0.106527
vn -0.994310 0.000000 0.106527
vn -0.994310 0.000000 0.106527
vn -0.994310 0.000000 0.106527
vn -0.994310 0.000000 0.106527
vn 0.000000 0.000000 -1.000000
vn 0.000000 0.000000 -1.000000
vn 0.000000 0.000000 -1.000000
vn 0.000000 0.000000 -1.000000
vn 0.000000 0.997781 -0.066585
vn 0.000000 0.997781 -0.066585
vn 0.000000 0.997781 -0.066585
vn 0.000000 0.997781 -0.066585
vn 0.000000 -0.997781 -0.066585
vn 0.000000 -0.997781 -0.066585
vn 0.000000 -0.997781 -0.066585
vn 0.000000 -0.997781 -0.066585
vn 0.994310 0.000000 -0.106527
vn 0.994310 0.000000 -0.106527
vn 0.994310 0.000000 -0.106527
vn 0.994310 0.000000 -0.106527
vn -0.994310 0.000000 -0.106527
vn -0.994310 0.000000 -0.106527
vn -0.994310 0.000000 -0.106527
vn -0.994310 0.000000 -0.106527
vn 0.000000 0.000000 1.000000
vn 0.000000 0.000000 1.000000
vn 0.000000 0.000000 1.000000
vn 0.000000 0.000000 1.000000
vn -0.954183 0.000000 0.299225
vn -0.954183 0.000000 0.299225
vn -0.954183 0.000000 0.299225
vn -0.954183 0.000000 0.299225
vn 0.954183 0.000000 0.299225
vn 0.954183 0.000000 0.299225
vn 0.954183 0.000000 0.299225
vn 0.954183 0.000000 0.299225
vn 0.000000 0.000000 -1.000000
vn 0.000000 0.000000 -1.000000
vn 0.000000 0.000000 -1.000000
vn 0.000000 0.000000 -1.000000
vn -0.954183 0.000000 -0.299225
vn -0.954183 0.000000 -0.299225
vn -0.954183 0.000000 -0.299225
vn -0.954183 0.000000 -0.299225
vn 0.954183 0.000000 -0.299225
vn 0.954183 0.000000 -0.299225
vn 0.954183 0.000000 -0.299225
vn 0.954183 0.000000 -0.299225
vn 0.000000 0.000000 1.000000
vn 0.000000 0.000000 1.000000
vn 0.000000 0.000000 1.000000
vn 0.000000 0.000000 1.000000
vn 0.258819 0.965926 0.000000
vn 0.258819 0.965926 0.000000
vn 0.258819 0.965926 0.000000
vn 0.258819 0.965926 0.000000
vn 0.000000 0.000000 -1.000000
vn 0.000000 0.000000 -1.000000
vn 0.000000 0.000000 -1.000000
vn 0.000000 0.000000 -1.000000
vn -0.258819 -0.965926 0.000000
vn -0.258819 -0.965926 0.000000
vn -0.258819 -0.965926 0.000000
vn -0.258819 -0.965926 0.000000
vn 0.000000 0.000000 1.000000
vn 0.000000 0.000000 1.000000
vn 0.000000 0.000000 1.000000
vn 0.000000 0.000000 1.000000
vn -0.258819 0.965926 0.000000
vn -0.258819 0.965926 0.000000
vn -0.258819 0.965926 0.000000
vn -0.258819 0.965926 0.000000
vn 0.000000 0.000000 -1.000000
vn 0.000000 0.000000 -1.000000
vn 0.000000 0.000000 -1.000000
vn 0.000000 0.000000 -1.000000
vn 0.258819 -0.965926 0.000000
vn 0.258819 -0.965926 0.000000
vn 0.258819 -0.965926 0.000000
vn 0.258819 -0.965926 0.000000
s off
f 1/1/1 2/2/2 3/3/3 4/4/4 5/5/5 6/6/6
f 8/7/7 7/8/8 2/2/9 1/1/10
f 9/9/11 8/7/12 1/1/13 6/6/14
f 10/10/15 9/9/16 6/6/17 5/5/18
f 11/11/19 10/10/20 5/5/21 4/4/22
f 12/12/23 11/11/24 4/4/25 3/3/26
f 7/8/27 12/12/28 3/3/29 2/2/30
f 13/13/31 18/18/32 17/17/33 16/16/34 15/15/35 14/14/36
f 8/19/37 13/13/38 14/14/39 7/20/40
f 9/21/41 18/18/42 13/13/43 8/19/44
f 10/22/45 17/17/46 18/18/47 9/21/48
f 11/23/49 16/16/50 17/17/51 10/22/52
f 12/24/53 15/15/54 16/16/55 11/23/56
f 7/20/57 14/14/58 15/15/59 12/24/60
f 26/25/61 27/26/62 28/27/63 29/28/64 30/29/65 31/30/66
f 32/31/67 33/32/68 34/33/69
f 36/34/70 35/35/71 32/31/72
f 34/33/73 37/36/74 38/37/75
f 32/31/76 35/35/77 33/32/78
f 34/33/79 33/32/80 37/36/81
f 22/38/82 23/39/83 30/40/84 29/41/85
f 23/39/86 24/42/87 31/43/88 30/40/89
f 24/42/90 25/44/91 26/45/92 31/43/93
f 25/44/94 20/46/95 26/45/96
f 21/47/97 22/38/98 29/41/99
f 28/48/100 27/49/101 32/31/102 34/33/103
f 26/45/104 20/46/105 35/35/106 36/34/107
f 27/49/108 26/45/109 36/34/110 32/31/111
f 21/47/112 29/41/113 38/37/114 37/36/115
f 29/41/116 28/48/117 34/33/118 38/37/119
f 20/46/120 19/50/121 33/32/122 35/35/123
f 19/50/124 21/47/125 37/36/126 33/32/127
f 39/51/128 44/52/129 43/53/130 42/54/131 41/55/132 40/56/133
f 45/57/134 47/58/135 46/59/136
f 49/60/137 45/57/138 48/61/139
f 47/58/140 51/62/141 50/63/142
f 45/57/143 46/59/144 48/61/145
f 47/58/146 50/63/147 46/59/148
f 22/64/149 42/65/150 43/66/151 23/67/152
f 23/67/153 43/66/154 44/68/155 24/69/156
f 24/69/157 44/68/158 39/70/159 25/71/160
f 25/71/161 39/70/162 20/72/163
f 21/73/164 42/65/165 22/64/166
f 41/74/167 47/58/168 45/57/169 40/75/170
f 39/70/171 49/60/172 48/61/173 20/72/174
f 40/75/175 45/57/176 49/60/177 39/70/178
f 21/73/179 50/63/180 51/62/181 42/65/182
f 42/65/183 51/62/184 47/58/185 41/74/186
f 20/72/187 48/61/188 46/59/189 19/76/190
f 19/76/191 46/59/192 50/63/193 21/73/194
f 52/77/195 53/78/196 55/79/197 54/80/198
f 54/80/199 55/79/200 56/81/201 57/82/202
f 58/83/203 59/84/204 53/78/205 52/77/206
f 53/78/207 59/84/208 56/81/209 55/79/210
f 58/83/211 52/77/212 54/80/213 57/82/214
f 60/85/215 62/86/216 63/87/217 61/88/218
f 62/86/219 57/89/220 56/90/221 63/87/222
f 58/91/223 60/85/224 61/88/225 59/92/226
f 61/88/227 63/87/228 56/90/229 59/92/230
f 58/91/231 57/89/232 62/86/233 60/85/234
f 64/93/235 65/94/236 67/95/237 66/96/238
f 70/97/239 69/98/240 64/93/241 66/96/242
f 65/94/243 68/99/244 71/100/245 67/95/246
f 72/101/247 74/102/248 75/103/249 73/104/250
f 70/105/251 74/102/252 72/101/253 69/106/254
f 73/104/255 75/103/256 71/107/257 68/108/258
f 76/109/259 77/110/260 79/111/261 78/112/262
f 78/112/263 79/111/264 81/113/265 80/114/266
f 80/114/267 81/113/268 83/115/269 82/116/270
f 82/116/271 83/115/272 77/110/273 76/109/274
f 84/117/275 85/118/276 87/119/277 86/120/278
f 86/120/279 87/119/280 89/121/281 88/122/282
f 88/122/283 89/121/284 91/123/285 90/124/286
f 90/124/287 91/123/288 85/118/289 84/117/290
