# This file uses centimeters as units for non-parametric coordinates.

v -2.315743 -4.711389 4.000000
v 2.190123 -4.962630 4.000000
v -3.279469 17.828096 4.000000
v 3.111976 18.150938 4.000000
v -3.991319 19.239649 0.000000
v 3.991319 19.239649 0.000000
v -3.278834 -6.051342 -0.000000
v 3.278835 -6.377586 0.000000
v -2.959970 11.974056 4.000000
v 2.758683 4.430823 4.000000
v -3.812401 12.534716 0.000000
v 3.610220 4.957982 -0.000000
v 2.131272 -3.549148 4.000000
v 3.339314 -3.784889 -0.000000
v 2.804089 -11.011714 0.000000
v -2.804088 -11.011714 0.000000
v -5.179286 -15.125680 0.000000
v -2.804088 -19.239649 0.000000
v 2.804088 -19.239649 0.000000
v 5.179286 -15.125681 0.000000
v 1.800682 -11.602655 4.000000
v -1.800680 -11.700496 4.000000
v -3.674954 -14.204463 4.000000
v -2.051922 -17.643742 4.000000
v 2.135669 -17.392500 4.000000
v 3.674954 -14.623199 4.000000
v -2.315743 -4.711389 -4.000000
v 1.332343 -4.962630 -4.000000
v -3.279469 17.828096 -4.000000
v 3.111976 18.150938 -4.000000
v -2.959970 11.974056 -4.000000
v 2.758683 4.430823 -4.000000
v 1.273492 -3.549148 -4.000000
v 0.942901 -11.602655 -4.000000
v -1.800680 -11.700496 -4.000000
v -3.674954 -14.204463 -4.000000
v -2.051922 -17.643742 -4.000000
v 1.277889 -17.392500 -4.000000
v 3.674954 -14.623199 -4.000000
vt 0.454483 0.985271
vt 0.452562 0.985117
vt 0.452226 0.983876
vt 0.454828 0.982879
vt 0.454999 0.982106
vt 0.452037 0.982063
vt 0.451566 0.981919
vt 0.455380 0.981919
vt 0.454998 0.985448
vt 0.451947 0.985491
vt 0.452530 0.985304
vt 0.451915 0.985148
vt 0.451770 0.983807
vt 0.455284 0.982805
vt 0.452202 0.985917
vt 0.454744 0.985917
vt 0.454207 0.986008
vt 0.452739 0.985995
vt 0.456015 0.986461
vt 0.455210 0.986339
vt 0.454744 0.987004
vt 0.454342 0.986793
vt 0.452202 0.987004
vt 0.452559 0.986760
vt 0.450930 0.986461
vt 0.451735 0.986394
vt 0.454483 0.985271
vt 0.452562 0.985117
vt 0.452226 0.983876
vt 0.454828 0.982879
vt 0.454999 0.982106
vt 0.452037 0.982063
vt 0.451566 0.981919
vt 0.455380 0.981919
vt 0.454998 0.985448
vt 0.451947 0.985491
vt 0.452530 0.985304
vt 0.451915 0.985148
vt 0.451770 0.983807
vt 0.455284 0.982805
vt 0.452202 0.985917
vt 0.454744 0.985917
vt 0.454207 0.986008
vt 0.452739 0.985995
vt 0.456015 0.986461
vt 0.455210 0.986339
vt 0.454744 0.987004
vt 0.454342 0.986793
vt 0.452202 0.987004
vt 0.452559 0.986760
vt 0.450930 0.986461
vt 0.451735 0.986394
vn 0.000000 0.000000 1.000000
vn 0.000000 0.000000 1.000000
vn 0.000000 0.000000 1.000000
vn 0.000000 0.000000 1.000000
vn -0.021435 0.954379 0.297826
vn -0.021435 0.954379 0.297826
vn -0.021435 0.954379 0.297826
vn -0.021435 0.954379 0.297826
vn -0.049305 -0.944596 0.324510
vn -0.049305 -0.944596 0.324510
vn -0.049305 -0.944596 0.324510
vn -0.049305 -0.944596 0.324510
vn 0.966643 -0.042483 0.252581
vn 0.995947 -0.063206 -0.063995
vn 0.998878 -0.043966 -0.017614
vn 0.973995 -0.036686 0.223579
vn -0.999443 -0.033374 0.000000
vn -0.973999 -0.032524 0.224208
vn -0.976069 -0.033994 0.214789
vn -0.999378 -0.035253 0.000000
vn 0.000000 0.000000 1.000000
vn 0.000000 0.000000 1.000000
vn 0.000000 0.000000 1.000000
vn 0.000000 0.000000 1.000000
vn 0.973995 -0.036686 0.223579
vn 0.998878 -0.043966 -0.017614
vn 0.999656 -0.026218 0.000000
vn 0.978122 -0.025653 0.206445
vn -0.999378 -0.035253 0.000000
vn -0.976069 -0.033994 0.214789
vn -0.982435 -0.038989 0.182489
vn -0.999214 -0.039655 0.000000
vn 0.000000 0.000000 1.000000
vn 0.000000 0.000000 1.000000
vn 0.000000 0.000000 1.000000
vn 0.961151 -0.000391 0.276021
vn 0.961151 -0.000391 0.276021
vn 0.995947 -0.063206 -0.063995
vn 0.966643 -0.042483 0.252581
vn -0.011098 0.999729 0.020483
vn -0.011142 0.999903 0.008410
vn -0.010490 0.987392 0.157948
vn -0.010490 0.987392 0.157948
vn -0.841463 0.540315 0.000000
vn -0.841463 0.540315 0.000000
vn -0.816708 0.524420 0.240774
vn -0.816708 0.524420 0.240774
vn -0.821591 -0.434900 0.368577
vn -0.821591 -0.434900 0.368577
vn -0.821591 -0.434900 0.368578
vn -0.821591 -0.434900 0.368578
vn 0.023555 -0.918376 0.395006
vn 0.023555 -0.918376 0.395006
vn 0.023555 -0.918377 0.395006
vn 0.023555 -0.918376 0.395006
vn 0.812229 -0.461911 0.356262
vn 0.812229 -0.461911 0.356262
vn 0.812229 -0.461911 0.356262
vn 0.812229 -0.461911 0.356262
vn 0.828401 0.493414 0.265133
vn 0.828401 0.493414 0.265133
vn 0.828401 0.493414 0.265133
vn 0.828401 0.493414 0.265133
vn 0.000000 0.000000 1.000000
vn 0.000000 0.000000 1.000000
vn 0.000000 0.000000 1.000000
vn 0.000000 0.000000 1.000000
vn 0.000000 0.000000 1.000000
vn 0.000000 0.000000 1.000000
vn 0.000000 0.000000 1.000000
vn 0.000000 0.000000 1.000000
vn -0.000000 0.000000 -1.000000
vn -0.000000 0.000000 -1.000000
vn -0.000000 0.000000 -1.000000
vn -0.000000 0.000000 -1.000000
vn -0.021435 0.954379 -0.297826
vn -0.021435 0.954379 -0.297826
vn -0.021435 0.954379 -0.297826
vn -0.021435 0.954379 -0.297826
vn -0.053538 -0.946160 -0.319242
vn -0.053538 -0.946160 -0.319242
vn -0.053538 -0.946160 -0.319242
vn -0.053538 -0.946160 -0.319242
vn 0.929514 -0.079204 -0.360181
vn 0.962929 -0.057035 -0.263658
vn 0.998878 -0.043966 -0.017614
vn 0.995947 -0.063206 -0.063995
vn -0.999443 -0.033374 0.000000
vn -0.999378 -0.035253 0.000000
vn -0.976069 -0.033994 -0.214789
vn -0.973998 -0.032524 -0.224208
vn -0.000000 0.000000 -1.000000
vn 0.000000 0.000000 -1.000000
vn 0.000000 0.000000 -1.000000
vn -0.000000 0.000000 -1.000000
vn 0.962929 -0.057035 -0.263658
vn 0.978122 -0.025653 -0.206445
vn 0.999656 -0.026218 0.000000
vn 0.998878 -0.043966 -0.017614
vn -0.999378 -0.035253 0.000000
vn -0.999214 -0.039655 0.000000
vn -0.982435 -0.038989 -0.182489
vn -0.976069 -0.033994 -0.214789
vn -0.000000 0.000000 -1.000000
vn -0.000000 0.000000 -1.000000
vn 0.000000 0.000000 -1.000000
vn 0.893846 -0.000363 -0.448374
vn 0.929514 -0.079204 -0.360181
vn 0.995947 -0.063206 -0.063995
vn 0.893846 -0.000363 -0.448374
vn -0.011098 0.999729 0.020483
vn -0.011569 0.987573 -0.156737
vn -0.011569 0.987573 -0.156737
vn -0.011142 0.999903 0.008410
vn -0.841463 0.540315 0.000000
vn -0.816708 0.524420 -0.240774
vn -0.816708 0.524420 -0.240774
vn -0.841463 0.540315 0.000000
vn -0.821591 -0.434900 -0.368577
vn -0.821591 -0.434900 -0.368577
vn -0.821591 -0.434900 -0.368577
vn -0.821591 -0.434900 -0.368577
vn 0.025786 -0.917328 -0.397296
vn 0.025786 -0.917328 -0.397296
vn 0.025786 -0.917328 -0.397296
vn 0.025786 -0.917328 -0.397296
vn 0.741264 -0.513929 -0.431746
vn 0.741264 -0.513928 -0.431746
vn 0.741264 -0.513929 -0.431746
vn 0.741264 -0.513929 -0.431746
vn 0.767836 0.549657 -0.329099
vn 0.767836 0.549657 -0.329099
vn 0.767836 0.549657 -0.329098
vn 0.767836 0.549657 -0.329099
vn 0.000000 0.000000 -1.000000
vn 0.000000 0.000000 -1.000000
vn 0.000000 0.000000 -1.000000
vn 0.000000 0.000000 -1.000000
vn 0.000000 0.000000 -1.000000
vn 0.000000 0.000000 -1.000000
vn 0.000000 0.000000 -1.000000
vn 0.000000 0.000000 -1.000000
s off
f 1/1/1 13/2/2 10/3/3 9/4/4
f 3/5/5 4/6/6 6/7/7 5/8/8
f 7/9/9 8/10/10 2/11/11 1/1/12
f 13/2/13 14/12/14 12/13/15 10/3/16
f 7/9/17 1/1/18 9/4/19 11/14/20
f 9/4/21 10/3/22 4/6/23 3/5/24
f 10/3/25 12/13/26 6/7/27 4/6/28
f 11/14/29 9/4/30 3/5/31 5/8/32
f 1/1/33 2/11/34 13/2/35
f 2/11/36 8/10/37 14/12/38 13/2/39
f 15/15/40 16/16/41 22/17/42 21/18/43
f 16/16/44 17/19/45 23/20/46 22/17/47
f 17/19/48 18/21/49 24/22/50 23/20/51
f 18/21/52 19/23/53 25/24/54 24/22/55
f 19/23/56 20/25/57 26/26/58 25/24/59
f 20/25/60 15/15/61 21/18/62 26/26/63
f 23/20/64 24/22/65 25/24/66 26/26/67
f 23/20/68 26/26/69 21/18/70 22/17/71
f 27/27/72 31/30/73 32/29/74 33/28/75
f 29/31/76 5/34/77 6/33/78 30/32/79
f 7/35/80 27/27/81 28/37/82 8/36/83
f 33/28/84 32/29/85 12/39/86 14/38/87
f 7/35/88 11/40/89 31/30/90 27/27/91
f 31/30/92 29/31/93 30/32/94 32/29/95
f 32/29/96 30/32/97 6/33/98 12/39/99
f 11/40/100 5/34/101 29/31/102 31/30/103
f 27/27/104 33/28/105 28/37/106
f 28/37/107 33/28/108 14/38/109 8/36/110
f 15/41/111 34/44/112 35/43/113 16/42/114
f 16/42/115 35/43/116 36/46/117 17/45/118
f 17/45/119 36/46/120 37/48/121 18/47/122
f 18/47/123 37/48/124 38/50/125 19/49/126
f 19/49/127 38/50/128 39/52/129 20/51/130
f 20/51/131 39/52/132 34/44/133 15/41/134
f 36/46/135 39/52/136 38/50/137 37/48/138
f 36/46/139 35/43/140 34/44/141 39/52/142
