# This file uses centimeters as units for non-parametric coordinates.

v 3.969908 10.184108 2.000000
v 5.222480 13.384714 2.000000
v 3.896599 17.170200 2.000000
v 0.224268 18.511141 2.000000
v -3.669823 17.022652 2.000000
v -5.380581 13.625182 2.000000
v -3.712882 9.975234 2.000000
v 0.146167 8.167189 2.000000
v -4.445759 17.863691 0.000000
v -0.000001 19.809916 0.000000
v 4.445758 17.863691 0.000000
v 6.245374 13.446271 0.000000
v 4.673963 9.146618 0.000000
v 0.000000 7.094972 0.000000
v -4.673963 9.146619 0.000000
v -6.245374 13.446270 0.000000
v 3.969908 10.184108 -2.000000
v 5.222480 13.384714 -2.000000
v 3.896599 17.170200 -2.000000
v 0.224268 18.511141 -2.000000
v -3.669823 17.022652 -2.000000
v -5.380581 13.625182 -2.000000
v -3.712882 9.975233 -2.000000
v 0.146167 8.167189 -2.000000
v 1.000000 -7.467137 1.000000
v -1.000000 -7.467137 1.000000
v 0.000000 -19.050888 1.000000
v 0.000000 -19.050888 -1.000000
v 1.000000 -7.467137 -1.000000
v -1.000000 -7.467137 -1.000000
v -1.353491 -7.099956 0.000000
v 1.353491 -7.099956 0.000000
v 0.000000 -19.900213 0.000000
v 1.000000 -15.683698 1.000000
v -1.000000 -15.683698 1.000000
v -1.353491 -15.601208 0.000000
v -1.000000 -15.683698 -1.000000
v 1.000000 -15.683698 -1.000000
v 1.353491 -15.601208 0.000000
v 2.085467 -16.012863 -1.000000
v -2.085467 -16.012863 -1.000000
v -2.822660 -15.949649 0.000000
v -2.085467 -16.012863 1.000000
v 2.085467 -16.012863 1.000000
v 2.822660 -15.949649 -0.000000
v -10.000000 -7.467137 1.000000
v -12.000000 -7.467137 1.000000
v -11.000000 -19.050888 1.000000
v -11.000000 -19.050888 -1.000000
v -10.000000 -7.467137 -1.000000
v -12.000000 -7.467137 -1.000000
v -12.353491 -7.099956 0.000000
v -9.646509 -7.099956 0.000000
v -11.000000 -19.900213 0.000000
v -10.000000 -15.683698 1.000000
v -12.000000 -15.683698 1.000000
v -12.353491 -15.601208 0.000000
v -12.000000 -15.683698 -1.000000
v -10.000000 -15.683698 -1.000000
v -9.646509 -15.601208 0.000000
v -8.914534 -16.012863 -1.000000
v -13.085466 -16.012863 -1.000000
v -13.822660 -15.949649 -0.000000
v -13.085466 -16.012863 1.000000
v -8.914534 -16.012863 1.000000
v -8.177340 -15.949649 0.000000
v 12.000000 -7.467137 1.000000
v 10.000000 -7.467137 1.000000
v 11.000000 -19.050888 1.000000
v 11.000000 -19.050888 -1.000000
v 12.000000 -7.467137 -1.000000
v 10.000000 -7.467137 -1.000000
v 9.646509 -7.099956 0.000000
v 12.353491 -7.099956 0.000000
v 11.000000 -19.900213 0.000000
v 12.000000 -15.683698 1.000000
v 10.000000 -15.683698 1.000000
v 9.646509 -15.601208 0.000000
v 10.000000 -15.683698 -1.000000
v 12.000000 -15.683698 -1.000000
v 12.353491 -15.601208 0.000000
v 13.085466 -16.012863 -1.000000
v 8.914534 -16.012863 -1.000000
v 8.177340 -15.949649 -0.000000
v 8.914534 -16.012863 1.000000
v 13.085466 -16.012863 1.000000
v 13.822660 -15.949649 0.000000
v 13.910709 4.122669 1.000000
v -13.910620 4.122668 1.000000
v 13.910709 4.122669 -1.000000
v -13.910620 4.122668 -1.000000
v -15.062321 4.990367 0.000000
v 15.062275 4.990367 0.000000
v 17.530840 -4.021650 1.000000
v -17.530872 -4.021650 1.000000
v -19.435486 -4.746928 0.000000
v -17.530872 -4.021650 -1.000000
v 17.530840 -4.021650 -1.000000
v 19.435469 -4.746929 0.000000
vt 0.139993 0.981632
vt 0.139827 0.981264
vt 0.139991 0.980895
vt 0.140568 0.980846
vt 0.140750 0.981253
vt 0.140696 0.981267
vt 0.140530 0.980895
vt 0.140272 0.980750
vt 0.140260 0.980807
vt 0.139978 0.980846
vt 0.139798 0.981251
vt 0.139980 0.981653
vt 0.140272 0.981750
vt 0.140260 0.981721
vt 0.140566 0.981657
vt 0.140528 0.981636
vt 0.139993 0.981632
vt 0.139991 0.980895
vt 0.139827 0.981264
vt 0.140568 0.980846
vt 0.140530 0.980895
vt 0.140696 0.981267
vt 0.140750 0.981253
vt 0.140272 0.980750
vt 0.140260 0.980807
vt 0.139978 0.980846
vt 0.139798 0.981251
vt 0.139980 0.981653
vt 0.140272 0.981750
vt 0.140260 0.981721
vt 0.140566 0.981657
vt 0.140528 0.981636
vt 0.145522 0.985019
vt 0.144832 0.984944
vt 0.144838 0.984926
vt 0.145528 0.985000
vt 0.145438 0.984586
vt 0.144750 0.984512
vt 0.144745 0.984531
vt 0.145432 0.984605
vt 0.145323 0.984953
vt 0.144636 0.984879
vt 0.144680 0.985086
vt 0.145367 0.985161
vt 0.144794 0.984719
vt 0.144788 0.984737
vt 0.145477 0.984812
vt 0.145483 0.984793
vt 0.144723 0.985293
vt 0.145412 0.985368
vt 0.145140 0.984405
vt 0.145184 0.984611
vt 0.145229 0.984818
vt 0.145522 0.985019
vt 0.144832 0.984944
vt 0.144838 0.984926
vt 0.145528 0.985000
vt 0.145438 0.984586
vt 0.144750 0.984512
vt 0.144745 0.984531
vt 0.145432 0.984605
vt 0.145323 0.984953
vt 0.144636 0.984879
vt 0.144680 0.985086
vt 0.145367 0.985161
vt 0.144794 0.984719
vt 0.144788 0.984737
vt 0.145477 0.984812
vt 0.145483 0.984793
vt 0.144723 0.985293
vt 0.145412 0.985368
vt 0.145140 0.984405
vt 0.145184 0.984611
vt 0.145229 0.984818
vt 0.145522 0.985019
vt 0.144832 0.984944
vt 0.144838 0.984926
vt 0.145528 0.985000
vt 0.145438 0.984586
vt 0.144750 0.984512
vt 0.144745 0.984531
vt 0.145432 0.984605
vt 0.145323 0.984953
vt 0.144636 0.984879
vt 0.144680 0.985086
vt 0.145367 0.985161
vt 0.144794 0.984719
vt 0.144788 0.984737
vt 0.145477 0.984812
vt 0.145483 0.984793
vt 0.144723 0.985293
vt 0.145412 0.985368
vt 0.145140 0.984405
vt 0.145184 0.984611
vt 0.145229 0.984818
vt 0.145323 0.984953
vt 0.144636 0.984879
vt 0.144680 0.985086
vt 0.145367 0.985161
vt 0.144723 0.985293
vt 0.145412 0.985368
vt 0.144832 0.984944
vt 0.145522 0.985019
vt 0.144788 0.984737
vt 0.144745 0.984531
vt 0.145432 0.984605
vt 0.145477 0.984812
vn 0.000000 -0.000000 1.000000
vn 0.000000 -0.000000 1.000000
vn 0.000000 -0.000000 1.000000
vn -0.834334 0.374775 0.404266
vn -0.834334 0.374775 0.404266
vn -0.834334 0.374775 0.404266
vn -0.834334 0.374775 0.404266
vn -0.328001 0.796421 0.508065
vn -0.328001 0.796421 0.508065
vn -0.328001 0.796421 0.508065
vn -0.328001 0.796421 0.508065
vn 0.336746 0.831640 0.441563
vn 0.336746 0.831640 0.441563
vn 0.336746 0.831640 0.441563
vn 0.336746 0.831640 0.441563
vn 0.857070 0.326563 0.398482
vn 0.857070 0.326563 0.398482
vn 0.857070 0.326563 0.398482
vn 0.857070 0.326563 0.398482
vn 0.840388 -0.316421 0.440028
vn 0.840388 -0.316421 0.440028
vn 0.840388 -0.316421 0.440028
vn 0.840388 -0.316421 0.440028
vn 0.380622 -0.794976 0.472378
vn 0.380622 -0.794976 0.472378
vn 0.380622 -0.794976 0.472378
vn 0.380622 -0.794976 0.472378
vn -0.361559 -0.799336 0.479934
vn -0.361559 -0.799336 0.479934
vn -0.361559 -0.799336 0.479934
vn -0.361559 -0.799336 0.479934
vn -0.822381 -0.335084 0.459792
vn -0.822381 -0.335084 0.459792
vn -0.822381 -0.335084 0.459792
vn -0.822381 -0.335084 0.459792
vn 0.000000 0.000000 1.000000
vn 0.000000 0.000000 1.000000
vn 0.000000 0.000000 1.000000
vn 0.000000 0.000000 1.000000
vn 0.000000 0.000000 1.000000
vn 0.000000 0.000000 1.000000
vn 0.000000 0.000000 1.000000
vn 0.000000 0.000000 1.000000
vn 0.000000 0.000000 1.000000
vn 0.000000 0.000000 1.000000
vn 0.000000 0.000000 1.000000
vn 0.000000 0.000000 -1.000000
vn 0.000000 0.000000 -1.000000
vn 0.000000 0.000000 -1.000000
vn -0.834334 0.374775 -0.404266
vn -0.834334 0.374775 -0.404266
vn -0.834334 0.374775 -0.404266
vn -0.834334 0.374775 -0.404266
vn -0.328001 0.796421 -0.508065
vn -0.328001 0.796421 -0.508065
vn -0.328001 0.796421 -0.508065
vn -0.328001 0.796421 -0.508065
vn 0.336746 0.831640 -0.441563
vn 0.336746 0.831640 -0.441563
vn 0.336746 0.831640 -0.441563
vn 0.336746 0.831640 -0.441563
vn 0.857070 0.326563 -0.398482
vn 0.857070 0.326563 -0.398482
vn 0.857070 0.326563 -0.398482
vn 0.857070 0.326563 -0.398482
vn 0.840388 -0.316421 -0.440028
vn 0.840388 -0.316421 -0.440028
vn 0.840388 -0.316421 -0.440028
vn 0.840388 -0.316421 -0.440028
vn 0.380622 -0.794976 -0.472378
vn 0.380622 -0.794976 -0.472378
vn 0.380622 -0.794976 -0.472378
vn 0.380622 -0.794976 -0.472378
vn -0.361559 -0.799336 -0.479934
vn -0.361559 -0.799336 -0.479934
vn -0.361559 -0.799336 -0.479934
vn -0.361559 -0.799336 -0.479934
vn -0.822381 -0.335084 -0.459792
vn -0.822381 -0.335084 -0.459792
vn -0.822381 -0.335084 -0.459792
vn -0.822381 -0.335084 -0.459792
vn 0.000000 0.000000 -1.000000
vn 0.000000 0.000000 -1.000000
vn 0.000000 0.000000 -1.000000
vn 0.000000 0.000000 -1.000000
vn 0.000000 -0.000000 -1.000000
vn 0.000000 -0.000000 -1.000000
vn 0.000000 -0.000000 -1.000000
vn 0.000000 0.000000 -1.000000
vn 0.000000 0.000000 -1.000000
vn 0.000000 0.000000 -1.000000
vn 0.000000 0.000000 -1.000000
vn 0.000000 0.000000 1.000000
vn 0.000000 0.000000 1.000000
vn 0.000000 0.000000 1.000000
vn 0.000000 0.000000 1.000000
vn 0.000000 0.000000 -1.000000
vn 0.000000 0.000000 -1.000000
vn 0.000000 0.000000 -1.000000
vn 0.000000 0.000000 -1.000000
vn 0.000000 0.938720 -0.344681
vn 0.000000 0.938720 -0.344681
vn 0.000000 0.938720 -0.344681
vn 0.000000 0.938720 -0.344681
vn -0.250896 0.945899 -0.205734
vn -0.250896 0.945899 -0.205734
vn -0.250896 0.945899 -0.205734
vn -0.250896 0.945899 -0.205734
vn 0.250896 0.945899 -0.205734
vn 0.250896 0.945899 -0.205734
vn 0.250896 0.945899 -0.205734
vn 0.250896 0.945899 -0.205734
vn 0.000000 0.938720 0.344681
vn 0.000000 0.938720 0.344681
vn 0.000000 0.938720 0.344681
vn 0.000000 0.938720 0.344681
vn 0.250896 0.945899 0.205734
vn 0.250896 0.945899 0.205734
vn 0.250896 0.945899 0.205734
vn 0.250896 0.945899 0.205734
vn -0.250896 0.945899 0.205734
vn -0.250896 0.945899 0.205734
vn -0.250896 0.945899 0.205734
vn -0.250896 0.945899 0.205734
vn 0.000000 0.000000 1.000000
vn 0.000000 0.000000 1.000000
vn 0.000000 0.000000 1.000000
vn 0.000000 0.000000 1.000000
vn -0.942828 0.000000 0.333281
vn -0.942828 0.000000 0.333281
vn -0.942828 0.000000 0.333281
vn -0.942828 0.000000 0.333281
vn -0.942828 0.000000 -0.333281
vn -0.942828 0.000000 -0.333281
vn -0.942828 0.000000 -0.333281
vn -0.942828 0.000000 -0.333281
vn 0.000000 0.000000 -1.000000
vn 0.000000 0.000000 -1.000000
vn 0.000000 0.000000 -1.000000
vn 0.000000 0.000000 -1.000000
vn 0.942828 0.000000 -0.333281
vn 0.942828 0.000000 -0.333281
vn 0.942828 0.000000 -0.333281
vn 0.942828 0.000000 -0.333281
vn 0.942828 0.000000 0.333281
vn 0.942828 0.000000 0.333281
vn 0.942828 0.000000 0.333281
vn 0.942828 0.000000 0.333281
vn 0.000000 0.000000 -1.000000
vn 0.000000 0.000000 -1.000000
vn 0.000000 0.000000 -1.000000
vn -0.723803 -0.508331 -0.466593
vn -0.723803 -0.508331 -0.466593
vn -0.723803 -0.508331 -0.466593
vn -0.723803 -0.508331 -0.466593
vn -0.723803 -0.508331 0.466593
vn -0.723803 -0.508331 0.466593
vn -0.723803 -0.508331 0.466593
vn -0.723803 -0.508331 0.466593
vn 0.000000 0.000000 1.000000
vn 0.000000 0.000000 1.000000
vn 0.000000 0.000000 1.000000
vn 0.723803 -0.508331 0.466593
vn 0.723803 -0.508331 0.466593
vn 0.723803 -0.508331 0.466593
vn 0.723803 -0.508331 0.466593
vn 0.723803 -0.508331 -0.466593
vn 0.723803 -0.508331 -0.466593
vn 0.723803 -0.508331 -0.466593
vn 0.723803 -0.508331 -0.466593
vn 0.000000 0.000000 1.000000
vn 0.000000 0.000000 1.000000
vn 0.000000 0.000000 1.000000
vn 0.000000 0.000000 1.000000
vn 0.000000 0.000000 -1.000000
vn 0.000000 0.000000 -1.000000
vn 0.000000 0.000000 -1.000000
vn 0.000000 0.000000 -1.000000
vn 0.000000 0.938720 -0.344681
vn 0.000000 0.938720 -0.344681
vn 0.000000 0.938720 -0.344681
vn 0.000000 0.938720 -0.344681
vn -0.250896 0.945899 -0.205734
vn -0.250896 0.945899 -0.205734
vn -0.250896 0.945899 -0.205734
vn -0.250896 0.945899 -0.205734
vn 0.250896 0.945899 -0.205734
vn 0.250896 0.945899 -0.205734
vn 0.250896 0.945899 -0.205734
vn 0.250896 0.945899 -0.205734
vn 0.000000 0.938720 0.344681
vn 0.000000 0.938720 0.344681
vn 0.000000 0.938720 0.344681
vn 0.000000 0.938720 0.344681
vn 0.250896 0.945899 0.205734
vn 0.250896 0.945899 0.205734
vn 0.250896 0.945899 0.205734
vn 0.250896 0.945899 0.205734
vn -0.250896 0.945899 0.205734
vn -0.250896 0.945899 0.205734
vn -0.250896 0.945899 0.205734
vn -0.250896 0.945899 0.205734
vn 0.000000 0.000000 1.000000
vn 0.000000 0.000000 1.000000
vn 0.000000 0.000000 1.000000
vn 0.000000 0.000000 1.000000
vn -0.942828 0.000000 0.333281
vn -0.942828 0.000000 0.333281
vn -0.942828 0.000000 0.333281
vn -0.942828 0.000000 0.333281
vn -0.942828 0.000000 -0.333281
vn -0.942828 0.000000 -0.333281
vn -0.942828 0.000000 -0.333281
vn -0.942828 0.000000 -0.333281
vn 0.000000 0.000000 -1.000000
vn 0.000000 0.000000 -1.000000
vn 0.000000 0.000000 -1.000000
vn 0.000000 0.000000 -1.000000
vn 0.942828 0.000000 -0.333281
vn 0.942828 0.000000 -0.333281
vn 0.942828 0.000000 -0.333281
vn 0.942828 0.000000 -0.333281
vn 0.942828 0.000000 0.333281
vn 0.942828 0.000000 0.333281
vn 0.942828 0.000000 0.333281
vn 0.942828 0.000000 0.333281
vn 0.000000 0.000000 -1.000000
vn 0.000000 0.000000 -1.000000
vn 0.000000 0.000000 -1.000000
vn -0.723803 -0.508331 -0.466593
vn -0.723803 -0.508331 -0.466593
vn -0.723803 -0.508331 -0.466593
vn -0.723803 -0.508331 -0.466593
vn -0.723803 -0.508331 0.466593
vn -0.723803 -0.508331 0.466593
vn -0.723803 -0.508331 0.466593
vn -0.723803 -0.508331 0.466593
vn 0.000000 0.000000 1.000000
vn 0.000000 0.000000 1.000000
vn 0.000000 0.000000 1.000000
vn 0.723803 -0.508331 0.466593
vn 0.723803 -0.508331 0.466593
vn 0.723803 -0.508331 0.466593
vn 0.723803 -0.508331 0.466593
vn 0.723803 -0.508331 -0.466593
vn 0.723803 -0.508331 -0.466593
vn 0.723803 -0.508331 -0.466593
vn 0.723803 -0.508331 -0.466593
vn 0.000000 0.000000 1.000000
vn 0.000000 0.000000 1.000000
vn 0.000000 0.000000 1.000000
vn 0.000000 0.000000 1.000000
vn 0.000000 0.000000 -1.000000
vn 0.000000 0.000000 -1.000000
vn 0.000000 0.000000 -1.000000
vn 0.000000 0.000000 -1.000000
vn 0.000000 0.938720 -0.344681
vn 0.000000 0.938720 -0.344681
vn 0.000000 0.938720 -0.344681
vn 0.000000 0.938720 -0.344681
vn -0.250896 0.945899 -0.205734
vn -0.250896 0.945899 -0.205734
vn -0.250896 0.945899 -0.205734
vn -0.250896 0.945899 -0.205734
vn 0.250896 0.945899 -0.205734
vn 0.250896 0.945899 -0.205734
vn 0.250896 0.945899 -0.205734
vn 0.250896 0.945899 -0.205734
vn 0.000000 0.938720 0.344681
vn 0.000000 0.938720 0.344681
vn 0.000000 0.938720 0.344681
vn 0.000000 0.938720 0.344681
vn 0.250896 0.945899 0.205734
vn 0.250896 0.945899 0.205734
vn 0.250896 0.945899 0.205734
vn 0.250896 0.945899 0.205734
vn -0.250896 0.945899 0.205734
vn -0.250896 0.945899 0.205734
vn -0.250896 0.945899 0.205734
vn -0.250896 0.945899 0.205734
vn 0.000000 0.000000 1.000000
vn 0.000000 0.000000 1.000000
vn 0.000000 0.000000 1.000000
vn 0.000000 0.000000 1.000000
vn -0.942828 0.000000 0.333281
vn -0.942828 0.000000 0.333281
vn -0.942828 0.000000 0.333281
vn -0.942828 0.000000 0.333281
vn -0.942828 0.000000 -0.333281
vn -0.942828 0.000000 -0.333281
vn -0.942828 0.000000 -0.333281
vn -0.942828 0.000000 -0.333281
vn 0.000000 0.000000 -1.000000
vn 0.000000 0.000000 -1.000000
vn 0.000000 0.000000 -1.000000
vn 0.000000 0.000000 -1.000000
vn 0.942828 0.000000 -0.333281
vn 0.942828 0.000000 -0.333281
vn 0.942828 0.000000 -0.333281
vn 0.942828 0.000000 -0.333281
vn 0.942828 0.000000 0.333281
vn 0.942828 0.000000 0.333281
vn 0.942828 0.000000 0.333281
vn 0.942828 0.000000 0.333281
vn 0.000000 0.000000 -1.000000
vn 0.000000 0.000000 -1.000000
vn 0.000000 0.000000 -1.000000
vn -0.723803 -0.508331 -0.466593
vn -0.723803 -0.508331 -0.466593
vn -0.723803 -0.508331 -0.466593
vn -0.723803 -0.508331 -0.466593
vn -0.723803 -0.508331 0.466593
vn -0.723803 -0.508331 0.466593
vn -0.723803 -0.508331 0.466593
vn -0.723803 -0.508331 0.466593
vn 0.000000 0.000000 1.000000
vn 0.000000 0.000000 1.000000
vn 0.000000 0.000000 1.000000
vn 0.723803 -0.508331 0.466593
vn 0.723803 -0.508331 0.466593
vn 0.723803 -0.508331 0.466593
vn 0.723803 -0.508331 0.466593
vn 0.723803 -0.508331 -0.466593
vn 0.723803 -0.508331 -0.466593
vn 0.723803 -0.508331 -0.466593
vn 0.723803 -0.508331 -0.466593
vn -0.000000 0.755304 -0.655375
vn -0.000000 0.755304 -0.655375
vn -0.000000 0.755304 -0.655375
vn -0.000000 0.755304 -0.655375
vn -0.000000 0.755303 0.655375
vn -0.000000 0.755303 0.655375
vn -0.000000 0.755303 0.655375
vn -0.000000 0.755303 0.655375
vn 0.000000 0.000000 1.000000
vn 0.000000 0.000000 1.000000
vn 0.000000 0.000000 1.000000
vn 0.000000 0.000000 1.000000
vn -0.524619 0.234514 0.818400
vn -0.524619 0.234514 0.818400
vn -0.524619 0.234514 0.818400
vn -0.524619 0.234514 0.818400
vn -0.524619 0.234514 -0.818400
vn -0.524619 0.234514 -0.818400
vn -0.524619 0.234514 -0.818400
vn -0.524619 0.234514 -0.818400
vn 0.000000 0.000000 -1.000000
vn 0.000000 0.000000 -1.000000
vn 0.000000 0.000000 -1.000000
vn 0.000000 0.000000 -1.000000
vn 0.524633 0.234518 -0.818390
vn 0.524633 0.234518 -0.818390
vn 0.524633 0.234518 -0.818390
vn 0.524633 0.234518 -0.818390
vn 0.524633 0.234518 0.818390
vn 0.524633 0.234518 0.818390
vn 0.524633 0.234518 0.818390
vn 0.524633 0.234518 0.818390
vn -0.000000 -0.809503 0.587115
vn -0.000000 -0.809503 0.587115
vn -0.000000 -0.809503 0.587115
vn -0.000000 -0.809503 0.587115
vn -0.000000 -0.809503 -0.587115
vn -0.000000 -0.809503 -0.587115
vn -0.000000 -0.809503 -0.587115
vn -0.000000 -0.809503 -0.587115
s off
f 1/1/1 2/2/2 3/3/3
f 9/4/4 16/5/5 6/6/6 5/7/7
f 10/8/8 9/4/9 5/7/10 4/9/11
f 11/10/12 10/8/13 4/9/14 3/3/15
f 12/11/16 11/10/17 3/3/18 2/2/19
f 13/12/20 12/11/21 2/2/22 1/1/23
f 14/13/24 13/12/25 1/1/26 8/14/27
f 15/15/28 14/13/29 8/14/30 7/16/31
f 16/5/32 15/15/33 7/16/34 6/6/35
f 8/14/36 4/9/37 5/7/38 7/16/39
f 7/16/40 5/7/41 6/6/42
f 1/1/43 3/3/44 4/9/45 8/14/46
f 17/17/47 19/18/48 18/19/49
f 9/20/50 21/21/51 22/22/52 16/23/53
f 10/24/54 20/25/55 21/21/56 9/20/57
f 11/26/58 19/18/59 20/25/60 10/24/61
f 12/27/62 18/19/63 19/18/64 11/26/65
f 13/28/66 17/17/67 18/19/68 12/27/69
f 14/29/70 24/30/71 17/17/72 13/28/73
f 15/31/74 23/32/75 24/30/76 14/29/77
f 16/23/78 22/22/79 23/32/80 15/31/81
f 24/30/82 23/32/83 21/21/84 20/25/85
f 23/32/86 22/22/87 21/21/88
f 17/17/89 24/30/90 20/25/91 19/18/92
f 34/33/93 35/34/94 43/35/95 44/36/96
f 40/37/97 41/38/98 37/39/99 38/40/100
f 29/41/101 30/42/102 31/43/103 32/44/104
f 41/38/105 42/45/106 36/46/107 37/39/108
f 38/40/109 39/47/110 45/48/111 40/37/112
f 32/44/113 31/43/114 26/49/115 25/50/116
f 44/36/117 45/48/118 39/47/119 34/33/120
f 35/34/121 36/46/122 42/45/123 43/35/124
f 25/50/125 26/49/126 35/34/127 34/33/128
f 26/49/129 31/43/130 36/46/131 35/34/132
f 37/39/133 36/46/134 31/43/135 30/42/136
f 38/40/137 37/39/138 30/42/139 29/41/140
f 29/41/141 32/44/142 39/47/143 38/40/144
f 34/33/145 39/47/146 32/44/147 25/50/148
f 28/51/149 41/38/150 40/37/151
f 33/52/152 42/45/153 41/38/154 28/51/155
f 43/35/156 42/45/157 33/52/158 27/53/159
f 44/36/160 43/35/161 27/53/162
f 33/52/163 45/48/164 44/36/165 27/53/166
f 40/37/167 45/48/168 33/52/169 28/51/170
f 55/54/171 56/55/172 64/56/173 65/57/174
f 61/58/175 62/59/176 58/60/177 59/61/178
f 50/62/179 51/63/180 52/64/181 53/65/182
f 62/59/183 63/66/184 57/67/185 58/60/186
f 59/61/187 60/68/188 66/69/189 61/58/190
f 53/65/191 52/64/192 47/70/193 46/71/194
f 65/57/195 66/69/196 60/68/197 55/54/198
f 56/55/199 57/67/200 63/66/201 64/56/202
f 46/71/203 47/70/204 56/55/205 55/54/206
f 47/70/207 52/64/208 57/67/209 56/55/210
f 58/60/211 57/67/212 52/64/213 51/63/214
f 59/61/215 58/60/216 51/63/217 50/62/218
f 50/62/219 53/65/220 60/68/221 59/61/222
f 55/54/223 60/68/224 53/65/225 46/71/226
f 49/72/227 62/59/228 61/58/229
f 54/73/230 63/66/231 62/59/232 49/72/233
f 64/56/234 63/66/235 54/73/236 48/74/237
f 65/57/238 64/56/239 48/74/240
f 54/73/241 66/69/242 65/57/243 48/74/244
f 61/58/245 66/69/246 54/73/247 49/72/248
f 76/75/249 77/76/250 85/77/251 86/78/252
f 82/79/253 83/80/254 79/81/255 80/82/256
f 71/83/257 72/84/258 73/85/259 74/86/260
f 83/80/261 84/87/262 78/88/263 79/81/264
f 80/82/265 81/89/266 87/90/267 82/79/268
f 74/86/269 73/85/270 68/91/271 67/92/272
f 86/78/273 87/90/274 81/89/275 76/75/276
f 77/76/277 78/88/278 84/87/279 85/77/280
f 67/92/281 68/91/282 77/76/283 76/75/284
f 68/91/285 73/85/286 78/88/287 77/76/288
f 79/81/289 78/88/290 73/85/291 72/84/292
f 80/82/293 79/81/294 72/84/295 71/83/296
f 71/83/297 74/86/298 81/89/299 80/82/300
f 76/75/301 81/89/302 74/86/303 67/92/304
f 70/93/305 83/80/306 82/79/307
f 75/94/308 84/87/309 83/80/310 70/93/311
f 85/77/312 84/87/313 75/94/314 69/95/315
f 86/78/316 85/77/317 69/95/318
f 75/94/319 87/90/320 86/78/321 69/95/322
f 82/79/323 87/90/324 75/94/325 70/93/326
f 90/96/327 91/97/328 92/98/329 93/99/330
f 93/99/331 92/98/332 89/100/333 88/101/334
f 88/101/335 89/100/336 95/102/337 94/103/338
f 89/100/339 92/98/340 96/104/341 95/102/342
f 97/105/343 96/104/344 92/98/345 91/97/346
f 98/106/347 97/105/348 91/97/349 90/96/350
f 90/96/351 93/99/352 99/107/353 98/106/354
f 94/103/355 99/107/356 93/99/357 88/101/358
f 95/102/359 96/104/360 99/107/361 94/103/362
f 96/104/363 97/105/364 98/106/365 99/107/366
