# This file uses centimeters as units for non-parametric coordinates.

v 4.532573 14.789528 -2.000000
v -0.000000 16.262249 -2.000000
v -0.000000 17.493309 0.000000
v -4.532573 14.789527 -2.000000
v -5.617096 15.708598 0.000000
v -7.333857 10.933890 -2.000000
v -8.216208 11.220583 0.000000
v -7.333857 6.168061 -2.000000
v -8.216208 5.881368 0.000000
v -4.466739 2.560927 -2.000000
v -5.077895 1.561852 0.000000
v -2.272450 1.236251 -2.000000
v -3.154800 0.639934 0.000000
v 3.926241 2.697037 -2.000000
v 5.077896 1.561853 0.000000
v 7.333857 6.168062 -2.000000
v 8.216208 5.881369 0.000000
v 7.333857 10.933890 -2.000000
v 8.216208 11.220583 0.000000
v 1.901751 1.236252 -2.000000
v 1.369189 -2.490818 -2.000000
v -1.656453 -13.980811 -2.000000
v 1.564751 -13.980811 -2.000000
v 2.784101 -14.312414 0.000000
v 0.000001 -16.153603 -2.000000
v 1.871030 14.417009 -2.000000
v 1.325706 13.666436 0.000000
v -0.000000 15.024928 -2.000000
v -1.871030 14.417009 -2.000000
v -3.027378 12.825403 -2.000000
v -3.027378 10.858100 -2.000000
v -2.282654 8.948763 -2.000000
v 0.000002 8.448187 -2.000000
v 1.868633 9.263215 -2.000000
v 3.027378 10.858094 -2.000000
v 3.027378 12.825404 -2.000000
v 1.564751 -12.653488 -2.000000
v 2.480801 -12.236918 0.000000
v -0.470908 -5.298279 -2.000000
v 0.913749 -5.275888 0.000000
v 1.410604 -7.533961 -2.000000
v -0.448594 -9.967103 -2.000000
v 5.077896 15.540100 0.000000
v 4.532573 14.789528 2.000000
v -0.000000 16.262249 2.000000
v -0.000000 14.097173 0.000000
v -0.000000 15.024928 2.000000
v 1.871030 14.417009 2.000000
v -4.532573 14.789527 2.000000
v -1.325706 13.666436 0.000000
v -1.871030 14.417009 2.000000
v -7.333857 10.933890 2.000000
v -2.145028 12.538714 0.000000
v -3.027378 12.825403 2.000000
v -7.333857 6.168061 2.000000
v -2.145028 11.144791 0.000000
v -3.499179 10.858100 2.000000
v -4.513283 2.285875 2.000000
v -1.325705 10.017077 0.000000
v -1.868632 9.263206 2.000000
v -2.272450 1.236251 2.000000
v 0.000000 9.598536 0.000000
v 0.000002 8.673255 2.000000
v 2.784101 0.639935 0.000000
v 1.901751 1.236252 2.000000
v 4.513284 2.285875 2.000000
v 1.325706 10.017084 0.000000
v 1.868633 9.263215 2.000000
v 6.927954 6.471362 2.000000
v 2.145028 11.144787 0.000000
v 3.027378 10.858094 2.000000
v 7.333857 10.933890 2.000000
v 2.145028 12.538715 0.000000
v 3.027378 12.825404 2.000000
v -0.470909 -5.298279 2.000000
v 2.784101 -7.502645 0.000000
v 0.837704 -7.533961 2.000000
v 0.913749 -9.945573 0.000000
v -0.448594 -9.967103 2.000000
v 1.564751 -13.980811 2.000000
v 0.000001 -17.493309 0.000000
v 0.000001 -16.153603 2.000000
v -2.784100 -14.312414 0.000000
v -1.901750 -13.980811 2.000000
v 2.784101 -2.897531 0.000000
v 1.901751 -2.490818 2.000000
v 1.564751 -12.653488 2.000000
vt 0.108429 0.983817
vt 0.108429 0.983817
vt 0.108429 0.983817
vt 0.108429 0.983817
vt 0.108429 0.983817
vt 0.108429 0.983818
vt 0.108429 0.983817
vt 0.108429 0.983817
vt 0.108429 0.983817
vt 0.108429 0.983817
vt 0.108429 0.983818
vt 0.108429 0.983818
vt 0.108429 0.983818
vt 0.108429 0.983818
vt 0.108429 0.983818
vt 0.108429 0.983818
vt 0.108429 0.983817
vt 0.108429 0.983817
vt 0.108429 0.983818
vt 0.108429 0.983818
vt 0.108429 0.983818
vt 0.108429 0.983818
vt 0.108429 0.983818
vt 0.108429 0.983818
vt 0.108429 0.983818
vt 0.108429 0.983818
vt 0.108429 0.983818
vt 0.108429 0.983818
vt 0.108429 0.983818
vt 0.108429 0.983818
vt 0.108429 0.983817
vt 0.108429 0.983817
vt 0.108429 0.983817
vt 0.108429 0.983817
vt 0.108429 0.983817
vt 0.108429 0.983817
vt 0.108429 0.983817
vt 0.108429 0.983817
vt 0.108429 0.983817
vt 0.108429 0.983817
vt 0.108429 0.983817
vt 0.108429 0.983817
vt 0.108429 0.983817
vt 0.108429 0.983817
vt 0.108429 0.983817
vt 0.108429 0.983817
vt 0.108429 0.983817
vt 0.108429 0.983818
vt 0.108429 0.983817
vt 0.108429 0.983818
vt 0.108429 0.983817
vt 0.108429 0.983817
vt 0.108429 0.983817
vt 0.108429 0.983817
vt 0.108429 0.983817
vt 0.108429 0.983817
vt 0.108429 0.983817
vt 0.108429 0.983817
vt 0.108429 0.983817
vt 0.108429 0.983817
vt 0.108429 0.983817
vt 0.108429 0.983817
vt 0.108429 0.983817
vt 0.108429 0.983817
vt 0.108429 0.983817
vt 0.108429 0.983817
vt 0.108429 0.983817
vt 0.108429 0.983817
vt 0.108429 0.983818
vt 0.108429 0.983817
vt 0.108429 0.983818
vt 0.108429 0.983817
vt 0.108429 0.983818
vt 0.108429 0.983818
vt 0.108429 0.983817
vt 0.108429 0.983817
vt 0.108429 0.983818
vt 0.108429 0.983818
vt 0.108429 0.983818
vt 0.108429 0.983818
vt 0.108429 0.983817
vt 0.108429 0.983818
vt 0.108429 0.983817
vt 0.108429 0.983817
vt 0.108429 0.983817
vt 0.108429 0.983817
vt 0.108429 0.983818
vn 0.740184 0.537775 -0.403639
vn 0.740184 0.537775 -0.403639
vn 0.740184 0.537775 -0.403639
vn 0.740184 0.537775 -0.403639
vn 0.298833 0.838290 -0.456036
vn 0.298833 0.838290 -0.456036
vn 0.298833 0.838290 -0.456036
vn 0.298833 0.838290 -0.456036
vn -0.262654 0.818391 -0.511125
vn -0.262654 0.818391 -0.511125
vn -0.262654 0.818391 -0.511125
vn -0.262654 0.818391 -0.511125
vn -0.727267 0.470721 -0.499505
vn -0.727267 0.470721 -0.499505
vn -0.727267 0.470721 -0.499505
vn -0.727267 0.470721 -0.499505
vn -0.914918 0.000000 -0.403639
vn -0.914918 0.000000 -0.403639
vn -0.914918 0.000000 -0.403639
vn -0.914918 0.000000 -0.403639
vn -0.715277 -0.541912 -0.441261
vn -0.715277 -0.541912 -0.441261
vn -0.715277 -0.541912 -0.441261
vn -0.715277 -0.541912 -0.441261
vn -0.423392 -0.775960 -0.467574
vn -0.423392 -0.775960 -0.467574
vn -0.423392 -0.775960 -0.467575
vn -0.423392 -0.775960 -0.467574
vn -0.890427 -0.029122 -0.454194
vn -0.890427 -0.029122 -0.454194
vn -0.890427 -0.029122 -0.454194
vn -0.890427 -0.029122 -0.454194
vn 0.409736 -0.742584 -0.529798
vn 0.409736 -0.742584 -0.529798
vn 0.409736 -0.742584 -0.529798
vn 0.409736 -0.742584 -0.529798
vn 0.651283 -0.547235 -0.525704
vn 0.651283 -0.547235 -0.525704
vn 0.651283 -0.547235 -0.525704
vn 0.651283 -0.547235 -0.525704
vn 0.914918 0.000000 -0.403639
vn 0.914918 0.000000 -0.403639
vn 0.914918 0.000000 -0.403639
vn 0.914918 0.000000 -0.403639
vn 0.858546 -0.062940 -0.508859
vn 0.858546 -0.062940 -0.508859
vn 0.858546 -0.062940 -0.508859
vn 0.858546 -0.062940 -0.508859
vn 0.689615 -0.493419 -0.530064
vn 0.689615 -0.493419 -0.530064
vn 0.689615 -0.493419 -0.530064
vn 0.689615 -0.493419 -0.530064
vn -0.692885 -0.574705 -0.435460
vn -0.692885 -0.574705 -0.435460
vn -0.692885 -0.574705 -0.435460
vn -0.692885 -0.574705 -0.435460
vn 0.694228 -0.563928 -0.447251
vn 0.694228 -0.563928 -0.447251
vn 0.694228 -0.563928 -0.447251
vn 0.694228 -0.563928 -0.447251
vn 0.878761 0.078326 -0.470790
vn 0.878761 0.078326 -0.470790
vn 0.878761 0.078326 -0.470790
vn 0.878761 0.078326 -0.470790
vn -0.282719 -0.870141 -0.403639
vn -0.282719 -0.870141 -0.403639
vn -0.282719 -0.870141 -0.403639
vn -0.282719 -0.870141 -0.403639
vn -0.740189 -0.537769 -0.403639
vn -0.740189 -0.537769 -0.403639
vn -0.740189 -0.537769 -0.403639
vn -0.740189 -0.537769 -0.403639
vn 0.282719 -0.870141 -0.403639
vn 0.282719 -0.870141 -0.403639
vn 0.282719 -0.870141 -0.403639
vn 0.282719 -0.870141 -0.403639
vn 0.740189 -0.537769 -0.403639
vn 0.740189 -0.537769 -0.403639
vn 0.740189 -0.537769 -0.403639
vn 0.740189 -0.537769 -0.403639
vn 0.914918 0.000000 -0.403639
vn 0.914918 0.000000 -0.403639
vn 0.914918 0.000000 -0.403639
vn 0.914918 0.000000 -0.403639
vn 0.774398 0.398806 -0.491184
vn 0.774398 0.398806 -0.491184
vn 0.774398 0.398806 -0.491184
vn 0.774398 0.398806 -0.491184
vn 0.211983 0.832222 -0.512319
vn 0.211983 0.832222 -0.512319
vn 0.211983 0.832222 -0.512319
vn 0.211983 0.832222 -0.512319
vn -0.323116 0.836706 -0.442175
vn -0.323116 0.836706 -0.442175
vn -0.323116 0.836706 -0.442175
vn -0.323116 0.836706 -0.442175
vn -0.740185 0.537775 -0.403639
vn -0.740185 0.537775 -0.403639
vn -0.740185 0.537775 -0.403639
vn -0.740185 0.537775 -0.403639
vn -0.914918 0.000000 -0.403639
vn -0.914918 0.000000 -0.403639
vn -0.914918 0.000000 -0.403639
vn -0.914918 0.000000 -0.403639
vn 0.718373 0.516713 -0.465777
vn 0.718373 0.516713 -0.465777
vn 0.718373 0.516713 -0.465777
vn 0.718373 0.516713 -0.465777
vn 0.674499 0.567096 -0.472708
vn 0.674499 0.567096 -0.472708
vn 0.674499 0.567096 -0.472708
vn 0.674499 0.567096 -0.472708
vn 0.700294 -0.535633 -0.471896
vn 0.700294 -0.535633 -0.471896
vn 0.700294 -0.535633 -0.471896
vn 0.700294 -0.535633 -0.471896
vn 0.740185 0.537775 0.403639
vn 0.740185 0.537775 0.403639
vn 0.740185 0.537775 0.403639
vn 0.740185 0.537775 0.403639
vn 0.298833 0.838290 0.456036
vn 0.298833 0.838290 0.456036
vn 0.298833 0.838290 0.456036
vn 0.298833 0.838290 0.456036
vn -0.262654 0.818391 0.511125
vn -0.262654 0.818391 0.511125
vn -0.262654 0.818391 0.511125
vn -0.262654 0.818391 0.511125
vn 0.282719 -0.870141 0.403639
vn 0.282719 -0.870141 0.403639
vn 0.282719 -0.870141 0.403639
vn 0.282719 -0.870141 0.403639
vn -0.282719 -0.870141 0.403639
vn -0.282719 -0.870141 0.403639
vn -0.282719 -0.870141 0.403639
vn -0.282719 -0.870141 0.403639
vn -0.740189 -0.537769 0.403639
vn -0.740189 -0.537769 0.403639
vn -0.740189 -0.537769 0.403639
vn -0.740189 -0.537769 0.403639
vn -0.727267 0.470720 0.499505
vn -0.727267 0.470720 0.499505
vn -0.727267 0.470720 0.499505
vn -0.727267 0.470720 0.499505
vn 0.740189 -0.537769 0.403639
vn 0.740189 -0.537769 0.403639
vn 0.740189 -0.537769 0.403639
vn 0.740189 -0.537769 0.403639
vn -0.914918 0.000000 0.403639
vn -0.914918 0.000000 0.403639
vn -0.914918 0.000000 0.403639
vn -0.914918 0.000000 0.403639
vn 0.866354 -0.121606 0.484400
vn 0.866354 -0.121606 0.484400
vn 0.866354 -0.121606 0.484400
vn 0.866354 -0.121606 0.484400
vn -0.740184 -0.537776 0.403639
vn -0.740184 -0.537776 0.403639
vn -0.740184 -0.537776 0.403639
vn -0.740184 -0.537776 0.403639
vn 0.657746 0.591856 0.465915
vn 0.657746 0.591856 0.465915
vn 0.657746 0.591856 0.465915
vn 0.657746 0.591856 0.465915
vn -0.389786 -0.823234 0.412739
vn -0.389786 -0.823234 0.412739
vn -0.389786 -0.823234 0.412739
vn -0.389786 -0.823234 0.412739
vn 0.275450 0.872470 0.403639
vn 0.275450 0.872470 0.403639
vn 0.275450 0.872469 0.403639
vn 0.275450 0.872469 0.403639
vn -0.912756 -0.022431 0.407889
vn -0.912756 -0.022431 0.407889
vn -0.912756 -0.022431 0.407889
vn -0.912756 -0.022431 0.407889
vn -0.275454 0.872468 0.403639
vn -0.275454 0.872468 0.403639
vn -0.275454 0.872468 0.403639
vn -0.275454 0.872468 0.403639
vn 0.914918 0.000000 0.403639
vn 0.914918 0.000000 0.403639
vn 0.914918 0.000000 0.403639
vn 0.914918 0.000000 0.403639
vn 0.341196 -0.848918 0.403639
vn 0.341196 -0.848917 0.403639
vn 0.341196 -0.848918 0.403639
vn 0.341196 -0.848918 0.403639
vn 0.728248 -0.475479 0.493533
vn 0.728248 -0.475479 0.493533
vn 0.728248 -0.475479 0.493533
vn 0.728248 -0.475479 0.493533
vn -0.740185 0.537775 0.403639
vn -0.740185 0.537775 0.403639
vn -0.740185 0.537775 0.403639
vn -0.740185 0.537775 0.403639
vn 0.877192 -0.036326 0.478763
vn 0.877192 -0.036326 0.478763
vn 0.877192 -0.036326 0.478763
vn 0.877192 -0.036326 0.478764
vn -0.914918 0.000000 0.403639
vn -0.914918 0.000000 0.403639
vn -0.914918 0.000000 0.403639
vn -0.914918 0.000000 0.403639
vn 0.692387 -0.566508 0.446842
vn 0.692387 -0.566508 0.446842
vn 0.692387 -0.566508 0.446842
vn 0.692387 -0.566508 0.446842
vn 0.671609 0.478443 0.565715
vn 0.671609 0.478443 0.565715
vn 0.671609 0.478443 0.565715
vn 0.671609 0.478443 0.565715
vn 0.691838 -0.447879 0.566361
vn 0.691838 -0.447879 0.566361
vn 0.691838 -0.447879 0.566361
vn 0.691838 -0.447879 0.566361
vn 0.718373 0.516713 0.465777
vn 0.718373 0.516713 0.465777
vn 0.718373 0.516713 0.465777
vn 0.718373 0.516713 0.465777
vn 0.878761 0.078326 0.470790
vn 0.878761 0.078326 0.470790
vn 0.878761 0.078326 0.470790
vn 0.878761 0.078326 0.470790
vn 0.694228 -0.563928 0.447251
vn 0.694228 -0.563928 0.447251
vn 0.694228 -0.563928 0.447251
vn 0.694228 -0.563928 0.447251
vn -0.688459 -0.602578 0.403639
vn -0.688459 -0.602578 0.403639
vn -0.688459 -0.602578 0.403639
vn -0.688459 -0.602578 0.403639
vn 0.000000 0.000000 1.000000
vn 0.000000 0.000000 1.000000
vn 0.000000 0.000000 1.000000
vn 0.000000 0.000000 1.000000
vn 0.000000 0.000000 1.000000
vn 0.000000 0.000000 1.000000
vn 0.000000 0.000000 1.000000
vn 0.000000 0.000000 1.000000
vn 0.000000 0.000000 1.000000
vn 0.000000 0.000000 1.000000
vn 0.000000 0.000000 1.000000
vn 0.000000 0.000000 1.000000
vn 0.000000 0.000000 1.000000
vn 0.000000 0.000000 1.000000
vn 0.000000 0.000000 1.000000
vn 0.000000 0.000000 1.000000
vn 0.000000 0.000000 1.000000
vn 0.000000 0.000000 1.000000
vn 0.000000 0.000000 1.000000
vn 0.000000 0.000000 1.000000
vn -0.000000 0.000000 1.000000
vn -0.000000 0.000000 1.000000
vn -0.000000 0.000000 1.000000
vn -0.000000 0.000000 1.000000
vn 0.000000 0.000000 1.000000
vn 0.000000 0.000000 1.000000
vn 0.000000 0.000000 1.000000
vn 0.000000 0.000000 1.000000
vn 0.000000 0.000000 1.000000
vn 0.000000 0.000000 1.000000
vn 0.000000 0.000000 1.000000
vn 0.000000 0.000000 1.000000
vn 0.000000 0.000000 1.000000
vn 0.000000 0.000000 1.000000
vn 0.000000 0.000000 1.000000
vn 0.000000 0.000000 1.000000
vn 0.000000 0.000000 1.000000
vn 0.000000 0.000000 1.000000
vn 0.000000 0.000000 1.000000
vn 0.000000 0.000000 1.000000
vn 0.000000 0.000000 1.000000
vn 0.000000 0.000000 1.000000
vn 0.000000 0.000000 1.000000
vn 0.000000 0.000000 1.000000
vn 0.000000 0.000000 1.000000
vn 0.000000 0.000000 1.000000
vn 0.000000 0.000000 1.000000
vn 0.000000 0.000000 1.000000
vn 0.000000 0.000000 1.000000
vn 0.000000 0.000000 1.000000
vn 0.000000 0.000000 -1.000000
vn 0.000000 0.000000 -1.000000
vn 0.000000 0.000000 -1.000000
vn 0.000000 0.000000 -1.000000
vn 0.000000 0.000000 -1.000000
vn 0.000000 0.000000 -1.000000
vn 0.000000 0.000000 -1.000000
vn 0.000000 0.000000 -1.000000
vn 0.000000 0.000000 -1.000000
vn 0.000000 0.000000 -1.000000
vn 0.000000 0.000000 -1.000000
vn 0.000000 0.000000 -1.000000
vn 0.000000 0.000000 -1.000000
vn 0.000000 0.000000 -1.000000
vn 0.000000 0.000000 -1.000000
vn 0.000000 0.000000 -1.000000
vn 0.000000 0.000000 -1.000000
vn 0.000000 0.000000 -1.000000
vn 0.000000 0.000000 -1.000000
vn 0.000000 0.000000 -1.000000
vn 0.000000 0.000000 -1.000000
vn 0.000000 0.000000 -1.000000
vn 0.000000 0.000000 -1.000000
vn 0.000000 0.000000 -1.000000
vn 0.000000 0.000000 -1.000000
vn 0.000000 0.000000 -1.000000
vn 0.000000 0.000000 -1.000000
vn 0.000000 0.000000 -1.000000
vn 0.000000 0.000000 -1.000000
vn 0.000000 0.000000 -1.000000
vn 0.000000 0.000000 -1.000000
vn 0.000000 0.000000 -1.000000
vn -0.000000 0.000000 -1.000000
vn -0.000000 0.000000 -1.000000
vn -0.000000 0.000000 -1.000000
vn -0.000000 0.000000 -1.000000
vn 0.000000 0.000000 -1.000000
vn 0.000000 0.000000 -1.000000
vn 0.000000 0.000000 -1.000000
vn 0.000000 0.000000 -1.000000
vn 0.000000 0.000000 -1.000000
vn 0.000000 0.000000 -1.000000
vn 0.000000 0.000000 -1.000000
vn 0.000000 0.000000 -1.000000
vn 0.000000 0.000000 -1.000000
vn 0.000000 0.000000 -1.000000
vn 0.000000 0.000000 -1.000000
vn 0.000000 0.000000 1.000000
vn 0.000000 0.000000 1.000000
vn 0.000000 0.000000 1.000000
vn 0.000000 0.000000 1.000000
vn 0.000000 0.000000 1.000000
vn 0.000000 0.000000 1.000000
vn 0.000000 0.000000 1.000000
vn -0.000000 0.000000 1.000000
vn -0.000000 0.000000 1.000000
vn -0.000000 0.000000 1.000000
vn -0.000000 0.000000 1.000000
vn 0.000000 0.000000 -1.000000
vn 0.000000 0.000000 -1.000000
vn 0.000000 0.000000 -1.000000
vn 0.000000 0.000000 -1.000000
vn 0.000000 0.000000 -1.000000
vn 0.000000 0.000000 -1.000000
vn 0.000000 0.000000 -1.000000
vn -0.000000 0.000000 -1.000000
vn -0.000000 0.000000 -1.000000
vn -0.000000 0.000000 -1.000000
vn -0.000000 0.000000 -1.000000
vn 0.000000 0.000000 -1.000000
vn 0.000000 0.000000 -1.000000
vn 0.000000 0.000000 -1.000000
s off
f 1/1/1 43/2/2 19/3/3 18/4/4
f 43/2/5 1/1/6 2/5/7 3/6/8
f 3/6/9 2/5/10 4/7/11 5/8/12
f 5/8/13 4/7/14 6/9/15 7/10/16
f 7/10/17 6/9/18 8/11/19 9/12/20
f 9/12/21 8/11/22 10/13/23 11/14/24
f 11/14/25 10/13/26 12/15/27 13/16/28
f 13/16/29 12/15/30 22/17/31 83/18/32
f 14/19/33 15/20/34 64/21/35 20/22/36
f 15/20/37 14/19/38 16/23/39 17/24/40
f 17/24/41 16/23/42 18/4/43 19/3/44
f 20/22/45 64/21/46 85/25/47 21/26/48
f 21/26/49 85/25/50 40/27/51 39/28/52
f 83/18/53 22/17/54 25/29/55 81/30/56
f 23/31/57 24/32/58 81/30/59 25/29/60
f 24/32/61 23/31/62 37/33/63 38/34/64
f 26/35/65 27/36/66 46/37/67 28/38/68
f 27/36/69 26/35/70 36/39/71 73/40/72
f 28/38/73 46/37/74 50/41/75 29/42/76
f 29/42/77 50/41/78 53/43/79 30/44/80
f 30/44/81 53/43/82 56/45/83 31/46/84
f 31/46/85 56/45/86 59/47/87 32/48/88
f 32/48/89 59/47/90 62/49/91 33/50/92
f 33/50/93 62/49/94 67/51/95 34/52/96
f 34/52/97 67/51/98 70/53/99 35/54/100
f 35/54/101 70/53/102 73/40/103 36/39/104
f 38/34/105 37/33/106 42/55/107 78/56/108
f 39/28/109 40/27/110 76/57/111 41/58/112
f 41/58/113 76/57/114 78/56/115 42/55/116
f 43/2/117 44/59/118 72/60/119 19/3/120
f 44/59/121 43/2/122 3/6/123 45/61/124
f 45/61/125 3/6/126 5/8/127 49/62/128
f 46/37/129 47/63/130 51/64/131 50/41/132
f 47/63/133 46/37/134 27/36/135 48/65/136
f 48/65/137 27/36/138 73/40/139 74/66/140
f 49/62/141 5/8/142 7/10/143 52/67/144
f 50/41/145 51/64/146 54/68/147 53/43/148
f 52/67/149 7/10/150 9/12/151 55/69/152
f 53/43/153 54/68/154 57/70/155 56/45/156
f 55/69/157 9/12/158 11/14/159 58/71/160
f 56/45/161 57/70/162 60/72/163 59/47/164
f 58/71/165 11/14/166 13/16/167 61/73/168
f 59/47/169 60/72/170 63/74/171 62/49/172
f 61/73/173 13/16/174 83/18/175 84/75/176
f 62/49/177 63/74/178 68/76/179 67/51/180
f 64/21/181 65/77/182 86/78/183 85/25/184
f 65/77/185 64/21/186 15/20/187 66/79/188
f 66/79/189 15/20/190 17/24/191 69/80/192
f 67/51/193 68/76/194 71/81/195 70/53/196
f 69/80/197 17/24/198 19/3/199 72/60/200
f 70/53/201 71/81/202 74/66/203 73/40/204
f 75/82/205 40/27/206 85/25/207 86/78/208
f 40/27/209 75/82/210 77/83/211 76/57/212
f 76/57/213 77/83/214 79/84/215 78/56/216
f 78/56/217 79/84/218 87/85/219 38/34/220
f 80/86/221 24/32/222 38/34/223 87/85/224
f 24/32/225 80/86/226 82/87/227 81/30/228
f 81/30/229 82/87/230 84/75/231 83/18/232
f 44/59/233 45/61/234 47/63/235 48/65/236
f 45/61/237 49/62/238 51/64/239 47/63/240
f 49/62/241 52/67/242 54/68/243 51/64/244
f 52/67/245 55/69/246 57/70/247 54/68/248
f 55/69/249 58/71/250 60/72/251 57/70/252
f 60/72/253 58/71/254 61/73/255 63/74/256
f 63/74/257 61/73/258 65/77/259
f 61/73/260 75/82/261 86/78/262 65/77/263
f 63/74/264 65/77/265 66/79/266 68/76/267
f 66/79/268 69/80/269 71/81/270 68/76/271
f 69/80/272 72/60/273 74/66/274 71/81/275
f 72/60/276 44/59/277 48/65/278 74/66/279
f 82/87/280 80/86/281 84/75/282
f 1/1/283 26/35/284 28/38/285 2/5/286
f 2/5/287 28/38/288 29/42/289 4/7/290
f 4/7/291 29/42/292 30/44/293 6/9/294
f 6/9/295 30/44/296 31/46/297 8/11/298
f 8/11/299 31/46/300 32/48/301 10/13/302
f 32/48/303 33/50/304 12/15/305 10/13/306
f 12/15/307 33/50/308 20/22/309 21/26/310
f 33/50/311 34/52/312 14/19/313 20/22/314
f 14/19/315 34/52/316 35/54/317 16/23/318
f 16/23/319 35/54/320 36/39/321 18/4/322
f 18/4/323 36/39/324 26/35/325 1/1/326
f 25/29/327 22/17/328 23/31/329
f 77/83/330 75/82/331 79/84/332
f 84/75/333 80/86/334 87/85/335 79/84/336
f 61/73/337 84/75/338 79/84/339 75/82/340
f 41/58/341 42/55/342 39/28/343
f 37/33/344 23/31/345 22/17/346 42/55/347
f 42/55/348 22/17/349 12/15/350 39/28/351
f 39/28/352 12/15/353 21/26/354
