# This file uses centimeters as units for non-parametric coordinates.

v -3.110090 -2.589874 4.000000
v 3.105534 -2.591904 4.000000
v 10.930393 16.128616 4.000000
v 5.007500 17.813049 4.000000
v -5.107857 17.873199 4.000000
v -11.565399 18.199951 4.000000
v -0.200884 6.648804 4.000000
v 3.299988 -17.964355 4.000000
v -2.793390 -16.287567 4.000000
v 4.233000 -19.011047 0.000000
v 0.176823 -19.011047 0.000000
v 12.465393 17.728500 -0.000000
v 4.233000 -2.812027 0.000000
v 4.286249 19.011047 0.000000
v 8.342674 19.011047 -0.000000
v -0.086716 5.952492 0.000000
v -12.752769 19.011047 -0.000000
v -4.286249 19.011047 -0.000000
v -4.233000 -2.812027 -0.000000
v -4.047953 -17.986465 -0.000000
v -3.110090 -2.589874 -4.000000
v 3.105534 -2.591904 -4.000000
v 10.930393 16.128616 -4.000000
v 5.007500 17.813049 -4.000000
v -5.107857 17.873199 -4.000000
v -11.565399 18.199951 -4.000000
v -0.200884 6.648804 -4.000000
v 3.299988 -17.964355 -4.000000
v -2.793390 -16.287567 -4.000000
vt 0.013321 0.951531
vt 0.013269 0.951487
vt 0.013359 0.951946
vt 0.013307 0.951899
vt 0.013255 0.951853
vt 0.013205 0.951807
vt 0.013288 0.951646
vt 0.013321 0.951531
vt 0.013269 0.951487
vt 0.013347 0.951523
vt 0.013322 0.951502
vt 0.013385 0.951938
vt 0.013347 0.951523
vt 0.013333 0.951891
vt 0.013358 0.951913
vt 0.013315 0.951629
vt 0.013231 0.951799
vt 0.013281 0.951845
vt 0.013295 0.951479
vt 0.013295 0.951479
vt 0.013307 0.951899
vt 0.013333 0.951891
vt 0.013315 0.951629
vt 0.013288 0.951646
vt 0.013281 0.951845
vt 0.013255 0.951853
vt 0.013321 0.951531
vt 0.013359 0.951946
vt 0.013269 0.951487
vt 0.013205 0.951807
vt 0.013269 0.951487
vt 0.013321 0.951531
vt 0.013295 0.951479
vt 0.013295 0.951479
vt 0.013322 0.951502
vt 0.013347 0.951523
vt 0.013347 0.951523
vt 0.013385 0.951938
vt 0.013358 0.951913
vt 0.013231 0.951799
vn -0.925847 0.366220 0.093224
vn -0.925847 0.366220 0.093224
vn -0.925847 0.366220 0.093224
vn -0.925847 0.366220 0.093224
vn 0.928641 0.348256 0.127846
vn 0.928641 0.348256 0.127846
vn 0.928641 0.348256 0.127846
vn 0.928641 0.348256 0.127846
vn 0.000000 0.000000 1.000000
vn 0.000000 0.000000 1.000000
vn 0.000000 0.000000 1.000000
vn 0.000000 0.000000 1.000000
vn 0.000000 0.000000 1.000000
vn 0.000000 0.000000 1.000000
vn 0.000000 0.000000 1.000000
vn 0.000000 0.000000 1.000000
vn 0.000000 0.000000 1.000000
vn 0.000000 0.000000 1.000000
vn 0.000000 0.000000 1.000000
vn 0.000000 0.000000 1.000000
vn 0.000000 0.000000 1.000000
vn 0.000000 0.000000 1.000000
vn 0.000000 0.000000 1.000000
vn -0.957335 -0.016637 0.288500
vn -0.957335 -0.016637 0.288500
vn -0.957335 -0.016637 0.288500
vn -0.957335 -0.016637 0.288500
vn 0.000000 -0.967427 0.253150
vn 0.000000 -0.967427 0.253150
vn 0.000000 -0.967427 0.253150
vn 0.899458 -0.367867 0.235901
vn 0.899458 -0.367867 0.235901
vn 0.899458 -0.367867 0.235901
vn 0.899458 -0.367867 0.235901
vn 0.000000 0.957958 0.286908
vn 0.000000 0.957958 0.286908
vn 0.000000 0.957958 0.286908
vn 0.021272 0.971587 0.235724
vn 0.021272 0.971587 0.235724
vn 0.021272 0.971587 0.235724
vn 0.021272 0.971587 0.235724
vn -0.903137 -0.359770 0.234327
vn -0.903137 -0.359770 0.234327
vn -0.903137 -0.359770 0.234327
vn -0.903137 -0.359770 0.234327
vn 0.252553 0.855094 0.452804
vn 0.252553 0.855094 0.452804
vn 0.252553 0.855094 0.452804
vn 0.252553 0.855094 0.452804
vn 0.968606 0.005966 0.248529
vn 0.968606 0.005966 0.248529
vn 0.968606 0.005966 0.248529
vn 0.968606 0.005966 0.248529
vn -0.229163 -0.875312 0.425808
vn -0.229163 -0.875312 0.425808
vn -0.229163 -0.875312 0.425808
vn -0.229163 -0.875312 0.425808
vn -0.925847 0.366220 -0.093224
vn -0.925847 0.366220 -0.093224
vn -0.925847 0.366220 -0.093224
vn -0.925847 0.366220 -0.093224
vn 0.928641 0.348256 -0.127846
vn 0.928641 0.348256 -0.127846
vn 0.928641 0.348256 -0.127846
vn 0.928641 0.348256 -0.127846
vn 0.000000 0.000000 -1.000000
vn 0.000000 0.000000 -1.000000
vn 0.000000 0.000000 -1.000000
vn 0.000000 0.000000 -1.000000
vn 0.000000 0.000000 -1.000000
vn 0.000000 0.000000 -1.000000
vn 0.000000 0.000000 -1.000000
vn 0.000000 0.000000 -1.000000
vn 0.000000 0.000000 -1.000000
vn 0.000000 0.000000 -1.000000
vn 0.000000 0.000000 -1.000000
vn 0.000000 0.000000 -1.000000
vn 0.000000 0.000000 -1.000000
vn 0.000000 0.000000 -1.000000
vn 0.000000 0.000000 -1.000000
vn -0.957335 -0.016637 -0.288500
vn -0.957335 -0.016637 -0.288500
vn -0.957335 -0.016637 -0.288500
vn -0.957335 -0.016637 -0.288500
vn 0.000000 -0.967427 -0.253150
vn 0.000000 -0.967427 -0.253150
vn 0.000000 -0.967427 -0.253150
vn 0.899458 -0.367867 -0.235901
vn 0.899458 -0.367867 -0.235901
vn 0.899458 -0.367867 -0.235901
vn 0.899458 -0.367867 -0.235901
vn 0.000000 0.957958 -0.286908
vn 0.000000 0.957958 -0.286908
vn 0.000000 0.957958 -0.286908
vn 0.021272 0.971587 -0.235724
vn 0.021272 0.971587 -0.235724
vn 0.021272 0.971587 -0.235724
vn 0.021272 0.971587 -0.235724
vn -0.903137 -0.359770 -0.234327
vn -0.903137 -0.359770 -0.234327
vn -0.903137 -0.359770 -0.234327
vn -0.903137 -0.359770 -0.234327
vn 0.252553 0.855094 -0.452804
vn 0.252553 0.855094 -0.452804
vn 0.252553 0.855094 -0.452804
vn 0.252553 0.855094 -0.452804
vn 0.968606 0.005966 -0.248529
vn 0.968606 0.005966 -0.248529
vn 0.968606 0.005966 -0.248529
vn 0.968606 0.005966 -0.248529
vn -0.229163 -0.875312 -0.425808
vn -0.229163 -0.875312 -0.425808
vn -0.229163 -0.875312 -0.425808
vn -0.229163 -0.875312 -0.425808
s off
f 4/4/1 14/14/2 16/16/3 7/7/4
f 7/7/5 16/16/6 18/18/7 5/5/8
f 2/1/9 3/3/10 4/4/11 7/7/12
f 2/1/13 7/7/14 1/2/15
f 1/2/16 7/7/17 5/5/18 6/6/19
f 2/1/20 1/2/21 9/9/22 8/8/23
f 1/2/24 19/19/25 20/20/26 9/9/27
f 11/11/28 10/10/29 8/8/30
f 13/13/31 12/12/32 3/3/33 2/1/34
f 15/15/35 14/14/36 4/4/37
f 18/18/38 17/17/39 6/6/40 5/5/41
f 17/17/42 19/19/43 1/2/44 6/6/45
f 12/12/46 15/15/47 4/4/48 3/3/49
f 10/10/50 13/13/51 2/1/52 8/8/53
f 20/20/54 11/11/55 8/8/56 9/9/57
f 24/21/58 27/24/59 16/23/60 14/22/61
f 27/24/62 25/26/63 18/25/64 16/23/65
f 22/27/66 27/24/67 24/21/68 23/28/69
f 22/27/70 21/29/71 27/24/72
f 21/29/73 26/30/74 25/26/75 27/24/76
f 22/27/77 28/32/78 29/31/79 21/29/80
f 21/29/81 29/31/82 20/34/83 19/33/84
f 11/35/85 28/32/86 10/36/87
f 13/37/88 22/27/89 23/28/90 12/38/91
f 15/39/92 24/21/93 14/22/94
f 18/25/95 25/26/96 26/30/97 17/40/98
f 17/40/99 26/30/100 21/29/101 19/33/102
f 12/38/103 23/28/104 24/21/105 15/39/106
f 10/36/107 28/32/108 22/27/109 13/37/110
f 20/34/111 29/31/112 28/32/113 11/35/114
