# This file uses centimeters as units for non-parametric coordinates.

v -20.000000 -19.713024 -0.000000
v 20.000000 -20.000000 -0.000000
v -20.000000 20.000000 0.000000
v 20.000000 20.000000 0.000000
v -8.399020 20.000000 -0.000000
v -5.599580 19.714333 0.000000
v -8.445147 5.387173 0.000000
v -5.593800 5.734824 0.000000
v -5.529280 8.477359 -0.000000
v -8.528288 8.534901 0.000000
v 8.208282 8.258365 0.000000
v 5.390715 8.501992 -0.000000
v 5.533923 5.582875 -0.000000
v 8.287514 5.477426 0.000000
v 5.599580 19.714333 0.000000
v 8.399020 20.000000 -0.000000
v 8.513605 -8.181452 -0.000000
v 8.298116 -5.812495 0.000000
v 5.524246 -5.417402 -0.000000
v 5.497013 -8.616486 -0.000000
v 19.721405 -5.599580 -0.000000
v 20.000000 -8.399020 0.000000
v 20.000000 8.399020 0.000000
v 19.721405 5.599580 -0.000000
v -5.412358 -8.449950 -0.000000
v -5.657578 -5.631090 0.000000
v -8.532437 -5.416336 0.000000
v -8.610791 -8.411438 0.000000
v -20.000000 5.599580 -0.000000
v -20.000000 8.399020 0.000000
v -20.000000 -8.399020 0.000000
v -20.000000 -5.599580 -0.000000
v -5.599580 -20.000000 0.000000
v -8.399020 -19.713024 -0.000000
v 8.399020 -20.000000 -0.000000
v 5.599580 -20.000000 0.000000
v 3.936531 18.377810 4.000000
v 4.084468 10.114624 4.000000
v -4.045759 18.364826 4.000000
v -3.901288 10.138562 4.000000
v 10.269606 -4.168731 4.000000
v 9.766899 4.260354 4.000000
v 18.307455 -4.214496 4.000000
v 17.950508 4.020910 4.000000
v -9.920835 3.822088 4.000000
v -10.147180 -4.121500 4.000000
v -18.150684 3.761836 4.000000
v -18.465322 -4.161005 4.000000
v -4.184720 -9.908916 4.000000
v 4.148624 -9.959864 4.000000
v -4.230898 -18.520195 4.000000
v 3.820081 -18.429634 4.000000
v 9.932693 10.199576 4.000000
v 10.108894 18.584391 4.000000
v 18.271086 9.749745 4.000000
v 18.219398 18.183712 4.000000
v -18.130598 18.646700 4.000000
v -18.201372 9.855901 4.000000
v -10.234862 9.783289 4.000000
v -9.907511 18.636843 4.000000
v -18.315180 -9.910552 4.000000
v -10.133024 -9.920859 4.000000
v -18.136345 -18.231346 4.000000
v -9.819158 -18.271200 4.000000
v 10.272046 -9.897266 4.000000
v 18.217867 -9.786283 4.000000
v 9.917101 -18.287851 4.000000
v 18.175970 -18.609463 4.000000
v -3.774242 3.965211 4.000000
v 3.920667 3.726081 4.000000
v -4.022048 -3.870689 4.000000
v 4.252294 -4.070551 4.000000
v 3.936531 18.377810 -4.000000
v 4.084468 10.114624 -4.000000
v -4.045759 18.364826 -4.000000
v -3.901288 10.138562 -4.000000
v 10.269606 -4.168731 -4.000000
v 9.766899 4.260354 -4.000000
v 18.307455 -4.214496 -4.000000
v 17.950508 4.020910 -4.000000
v -9.920835 3.822088 -4.000000
v -10.147180 -4.121500 -4.000000
v -18.150684 3.761836 -4.000000
v -18.465322 -4.161005 -4.000000
v -4.184720 -9.908916 -4.000000
v 4.148624 -9.959864 -4.000000
v -4.230898 -18.520195 -4.000000
v 3.820081 -18.429634 -4.000000
v 9.932693 10.199576 -4.000000
v 10.108894 18.584391 -4.000000
v 18.271086 9.749745 -4.000000
v 18.219398 18.183712 -4.000000
v -18.130598 18.646700 -4.000000
v -18.201372 9.855901 -4.000000
v -10.234862 9.783289 -4.000000
v -9.907511 18.636843 -4.000000
v -18.315180 -9.910552 -4.000000
v -10.133024 -9.920859 -4.000000
v -18.136345 -18.231346 -4.000000
v -9.819158 -18.271200 -4.000000
v 10.272046 -9.897266 -4.000000
v 18.217867 -9.786283 -4.000000
v 9.917101 -18.287851 -4.000000
v 18.175970 -18.609463 -4.000000
v -3.774242 3.965211 -4.000000
v 3.920667 3.726081 -4.000000
v -4.022048 -3.870689 -4.000000
v 4.252294 -4.070551 -4.000000
vt 0.985415 0.982667
vt 0.985483 0.982955
vt 0.985770 0.982954
vt 0.985483 0.983025
vt 0.985413 0.983025
vt 0.984780 0.983025
vt 0.985067 0.982957
vt 0.985068 0.982669
vt 0.985136 0.983025
vt 0.985135 0.983658
vt 0.985067 0.983370
vt 0.984780 0.983369
vt 0.985136 0.983301
vt 0.985413 0.983303
vt 0.985481 0.983661
vt 0.985482 0.983304
vt 0.985768 0.983304
vt 0.985137 0.982956
vt 0.985137 0.982668
vt 0.985414 0.982955
vt 0.985067 0.983025
vt 0.985067 0.983301
vt 0.984780 0.983300
vt 0.985770 0.983024
vt 0.985136 0.983370
vt 0.985412 0.983373
vt 0.985412 0.983661
vt 0.984781 0.982956
vt 0.984781 0.982671
vt 0.985771 0.982664
vt 0.985484 0.982666
vt 0.985482 0.983373
vt 0.985768 0.983374
vt 0.985767 0.983664
vt 0.985066 0.983657
vt 0.984779 0.983654
vt 0.985137 0.982956
vt 0.985137 0.982668
vt 0.985415 0.982667
vt 0.985414 0.982955
vt 0.985067 0.983025
vt 0.985067 0.983301
vt 0.984780 0.983300
vt 0.984780 0.983025
vt 0.985482 0.983304
vt 0.985483 0.983025
vt 0.985770 0.983024
vt 0.985768 0.983304
vt 0.985136 0.983370
vt 0.985412 0.983373
vt 0.985412 0.983661
vt 0.985135 0.983658
vt 0.985068 0.982669
vt 0.985067 0.982957
vt 0.984781 0.982956
vt 0.984781 0.982671
vt 0.985771 0.982664
vt 0.985770 0.982954
vt 0.985483 0.982955
vt 0.985484 0.982666
vt 0.985482 0.983373
vt 0.985768 0.983374
vt 0.985767 0.983664
vt 0.985481 0.983661
vt 0.984780 0.983369
vt 0.985067 0.983370
vt 0.985066 0.983657
vt 0.984779 0.983654
vt 0.985136 0.983025
vt 0.985413 0.983025
vt 0.985413 0.983303
vt 0.985136 0.983301
vt 0.985137 0.982956
vt 0.985137 0.982668
vt 0.985415 0.982667
vt 0.985414 0.982955
vt 0.985067 0.983025
vt 0.985067 0.983301
vt 0.984780 0.983300
vt 0.984780 0.983025
vt 0.985482 0.983304
vt 0.985483 0.983025
vt 0.985770 0.983024
vt 0.985768 0.983304
vt 0.985136 0.983370
vt 0.985412 0.983373
vt 0.985412 0.983661
vt 0.985135 0.983658
vt 0.985068 0.982669
vt 0.985067 0.982957
vt 0.984781 0.982956
vt 0.984781 0.982671
vt 0.985771 0.982664
vt 0.985770 0.982954
vt 0.985483 0.982955
vt 0.985484 0.982666
vt 0.985482 0.983373
vt 0.985768 0.983374
vt 0.985767 0.983664
vt 0.985481 0.983661
vt 0.984780 0.983369
vt 0.985067 0.983370
vt 0.985066 0.983657
vt 0.984779 0.983654
vt 0.985136 0.983025
vt 0.985413 0.983025
vt 0.985413 0.983303
vt 0.985136 0.983301
vt 0.985137 0.982956
vt 0.985137 0.982668
vt 0.985415 0.982667
vt 0.985414 0.982955
vt 0.985067 0.983025
vt 0.985067 0.983301
vt 0.984780 0.983300
vt 0.984780 0.983025
vt 0.985482 0.983304
vt 0.985483 0.983025
vt 0.985770 0.983024
vt 0.985768 0.983304
vt 0.985136 0.983370
vt 0.985412 0.983373
vt 0.985412 0.983661
vt 0.985135 0.983658
vt 0.985068 0.982669
vt 0.985067 0.982957
vt 0.984781 0.982956
vt 0.984781 0.982671
vt 0.985771 0.982664
vt 0.985770 0.982954
vt 0.985483 0.982955
vt 0.985484 0.982666
vt 0.985482 0.983373
vt 0.985768 0.983374
vt 0.985767 0.983664
vt 0.985481 0.983661
vt 0.984780 0.983369
vt 0.985067 0.983370
vt 0.985066 0.983657
vt 0.984779 0.983654
vt 0.985136 0.983025
vt 0.985413 0.983025
vt 0.985413 0.983303
vt 0.985136 0.983301
vn 0.000000 0.000000 1.000000
vn 0.000000 0.000000 1.000000
vn 0.000000 0.000000 1.000000
vn 0.000000 0.000000 1.000000
vn -0.000000 0.000000 1.000000
vn -0.000000 0.000000 1.000000
vn -0.000000 0.000000 1.000000
vn -0.000000 0.000000 1.000000
vn 0.000000 0.000000 1.000000
vn 0.000000 0.000000 1.000000
vn 0.000000 0.000000 1.000000
vn 0.000000 0.000000 1.000000
vn 0.000000 0.000000 1.000000
vn 0.000000 0.000000 1.000000
vn 0.000000 0.000000 1.000000
vn 0.000000 0.000000 1.000000
vn 0.000000 0.000000 1.000000
vn 0.000000 0.000000 1.000000
vn 0.000000 0.000000 1.000000
vn 0.000000 0.000000 1.000000
vn 0.000000 0.000000 1.000000
vn 0.000000 0.000000 1.000000
vn 0.000000 0.000000 1.000000
vn 0.000000 0.000000 1.000000
vn 0.000000 0.000000 1.000000
vn 0.000000 0.000000 1.000000
vn 0.000000 0.000000 1.000000
vn 0.000000 0.000000 1.000000
vn 0.000000 0.000000 1.000000
vn 0.000000 0.000000 1.000000
vn 0.000000 0.000000 1.000000
vn 0.000000 0.000000 1.000000
vn -0.000000 0.000000 1.000000
vn -0.000000 0.000000 1.000000
vn -0.000000 0.000000 1.000000
vn -0.000000 0.000000 1.000000
vn 0.937471 -0.002849 0.348052
vn 0.937471 -0.002849 0.348052
vn 0.937471 -0.002849 0.348052
vn 0.937471 -0.002849 0.348052
vn -0.000642 0.947995 0.318284
vn -0.000642 0.947995 0.318284
vn -0.000642 0.947995 0.318284
vn -0.000642 0.947995 0.318284
vn -0.929024 -0.009959 0.369886
vn -0.929024 -0.009959 0.369886
vn -0.929024 -0.009959 0.369886
vn -0.929024 -0.009959 0.369886
vn 0.000034 -0.925503 0.378741
vn 0.000034 -0.925503 0.378741
vn 0.000034 -0.925503 0.378741
vn 0.000034 -0.925503 0.378741
vn -0.917490 -0.023883 0.397042
vn -0.917490 -0.023883 0.397042
vn -0.917490 -0.023883 0.397042
vn -0.917490 -0.023883 0.397042
vn 0.007810 -0.935367 0.353591
vn 0.007810 -0.935367 0.353591
vn 0.007810 -0.935367 0.353591
vn 0.007810 -0.935367 0.353591
vn 0.928805 0.017059 0.370176
vn 0.928805 0.017059 0.370176
vn 0.928805 0.017059 0.370176
vn 0.928805 0.017059 0.370176
vn 0.005488 0.943938 0.330076
vn 0.005488 0.943938 0.330076
vn 0.005488 0.943938 0.330076
vn 0.005488 0.943938 0.330076
vn 0.932880 -0.015607 0.359848
vn 0.932880 -0.015607 0.359848
vn 0.932880 -0.015607 0.359848
vn 0.932880 -0.015607 0.359848
vn 0.007078 0.920310 0.391127
vn 0.007078 0.920310 0.391127
vn 0.007078 0.920310 0.391127
vn 0.007078 0.920310 0.391127
vn -0.920616 0.015148 0.390176
vn -0.920616 0.015148 0.390176
vn -0.920616 0.015148 0.390176
vn -0.920616 0.015148 0.390176
vn 0.010652 -0.946202 0.323401
vn 0.010652 -0.946202 0.323401
vn 0.010652 -0.946202 0.323401
vn 0.010652 -0.946202 0.323401
vn 0.010665 0.943668 0.330721
vn 0.010665 0.943668 0.330721
vn 0.010665 0.943668 0.330721
vn 0.010665 0.943668 0.330721
vn -0.951113 0.011011 0.308646
vn -0.951113 0.011011 0.308646
vn -0.951113 0.011011 0.308646
vn -0.951113 0.011011 0.308646
vn 0.004395 -0.934305 0.356449
vn 0.004395 -0.934305 0.356449
vn 0.004395 -0.934305 0.356449
vn 0.004395 -0.934305 0.356449
vn 0.931189 -0.010599 0.364383
vn 0.931189 -0.010599 0.364383
vn 0.931189 -0.010599 0.364383
vn 0.931189 -0.010599 0.364383
vn -0.919177 0.016758 0.393488
vn -0.919177 0.016758 0.393488
vn -0.919177 0.016758 0.393488
vn -0.919177 0.016758 0.393488
vn -0.014202 -0.924676 0.380489
vn -0.014202 -0.924676 0.380489
vn -0.014202 -0.924676 0.380489
vn -0.014202 -0.924676 0.380489
vn 0.915704 0.002362 0.401847
vn 0.915704 0.002362 0.401847
vn 0.915704 0.002362 0.401847
vn 0.915704 0.002362 0.401847
vn 0.018843 0.926974 0.374652
vn 0.018843 0.926974 0.374652
vn 0.018843 0.926974 0.374652
vn 0.018843 0.926974 0.374652
vn -0.909017 0.003155 0.416747
vn -0.909017 0.003155 0.416747
vn -0.909017 0.003155 0.416747
vn -0.909017 0.003155 0.416747
vn 0.003083 -0.947309 0.320305
vn 0.003083 -0.947309 0.320305
vn 0.003083 -0.947309 0.320305
vn 0.003083 -0.947309 0.320305
vn 0.927775 -0.020850 0.372558
vn 0.927775 -0.020850 0.372558
vn 0.927775 -0.020850 0.372558
vn 0.927775 -0.020850 0.372558
vn 0.000471 0.946907 0.321508
vn 0.000471 0.946907 0.321508
vn 0.000471 0.946907 0.321508
vn 0.000471 0.946907 0.321508
vn 0.001086 0.935528 0.353251
vn 0.001086 0.935528 0.353251
vn 0.001086 0.935528 0.353251
vn 0.001086 0.935528 0.353251
vn -0.914093 -0.008089 0.405424
vn -0.914093 -0.008089 0.405424
vn -0.914093 -0.008089 0.405424
vn -0.914093 -0.008089 0.405424
vn -0.001879 -0.939214 0.343328
vn -0.001879 -0.939214 0.343328
vn -0.001879 -0.939214 0.343328
vn -0.001879 -0.939214 0.343328
vn 0.938187 0.024382 0.345268
vn 0.938187 0.024382 0.345268
vn 0.938187 0.024382 0.345268
vn 0.938187 0.024382 0.345268
vn 0.005114 0.932303 0.361641
vn 0.005114 0.932303 0.361641
vn 0.005114 0.932303 0.361641
vn 0.005114 0.932303 0.361641
vn -0.925176 0.021495 0.378930
vn -0.925176 0.021495 0.378930
vn -0.925176 0.021495 0.378930
vn -0.925176 0.021495 0.378930
vn -0.015100 -0.932424 0.361050
vn -0.015100 -0.932424 0.361050
vn -0.015100 -0.932424 0.361050
vn -0.015100 -0.932424 0.361050
vn 0.911657 -0.001870 0.410949
vn 0.911657 -0.001870 0.410949
vn 0.911657 -0.001870 0.410949
vn 0.911657 -0.001870 0.410949
vn 0.018924 0.910813 0.412385
vn 0.018924 0.910813 0.412385
vn 0.018924 0.910813 0.412385
vn 0.018924 0.910813 0.412385
vn -0.917932 0.014895 0.396459
vn -0.917932 0.014895 0.396459
vn -0.917932 0.014895 0.396459
vn -0.917932 0.014895 0.396459
vn 0.000662 -0.932167 0.362029
vn 0.000662 -0.932167 0.362029
vn 0.000662 -0.932167 0.362029
vn 0.000662 -0.932167 0.362029
vn 0.940242 0.016104 0.340126
vn 0.940242 0.016104 0.340126
vn 0.940242 0.016104 0.340126
vn 0.940242 0.016104 0.340126
vn 0.000000 0.000000 -1.000000
vn 0.000000 0.000000 -1.000000
vn 0.000000 0.000000 -1.000000
vn 0.000000 0.000000 -1.000000
vn 0.000000 0.000000 -1.000000
vn 0.000000 0.000000 -1.000000
vn 0.000000 0.000000 -1.000000
vn 0.000000 0.000000 -1.000000
vn 0.000000 0.000000 -1.000000
vn 0.000000 0.000000 -1.000000
vn 0.000000 0.000000 -1.000000
vn 0.000000 0.000000 -1.000000
vn 0.000000 0.000000 -1.000000
vn 0.000000 0.000000 -1.000000
vn 0.000000 0.000000 -1.000000
vn 0.000000 0.000000 -1.000000
vn 0.000000 0.000000 -1.000000
vn 0.000000 0.000000 -1.000000
vn 0.000000 0.000000 -1.000000
vn 0.000000 0.000000 -1.000000
vn 0.000000 0.000000 -1.000000
vn 0.000000 0.000000 -1.000000
vn 0.000000 0.000000 -1.000000
vn 0.000000 0.000000 -1.000000
vn 0.000000 0.000000 -1.000000
vn 0.000000 0.000000 -1.000000
vn 0.000000 0.000000 -1.000000
vn 0.000000 0.000000 -1.000000
vn 0.000000 0.000000 -1.000000
vn 0.000000 0.000000 -1.000000
vn 0.000000 0.000000 -1.000000
vn 0.000000 0.000000 -1.000000
vn -0.000000 0.000000 -1.000000
vn -0.000000 0.000000 -1.000000
vn -0.000000 0.000000 -1.000000
vn -0.000000 0.000000 -1.000000
vn 0.937471 -0.002849 -0.348052
vn 0.937471 -0.002849 -0.348052
vn 0.937471 -0.002849 -0.348052
vn 0.937471 -0.002849 -0.348052
vn -0.000642 0.947995 -0.318284
vn -0.000642 0.947995 -0.318284
vn -0.000642 0.947995 -0.318284
vn -0.000642 0.947995 -0.318284
vn -0.929024 -0.009959 -0.369886
vn -0.929024 -0.009959 -0.369886
vn -0.929024 -0.009959 -0.369886
vn -0.929024 -0.009959 -0.369886
vn 0.000034 -0.925502 -0.378742
vn 0.000034 -0.925502 -0.378742
vn 0.000034 -0.925502 -0.378742
vn 0.000034 -0.925502 -0.378742
vn -0.917490 -0.023883 -0.397042
vn -0.917490 -0.023883 -0.397042
vn -0.917490 -0.023883 -0.397042
vn -0.917490 -0.023883 -0.397042
vn 0.007810 -0.935367 -0.353591
vn 0.007810 -0.935367 -0.353591
vn 0.007810 -0.935367 -0.353591
vn 0.007810 -0.935367 -0.353591
vn 0.928805 0.017059 -0.370176
vn 0.928805 0.017059 -0.370176
vn 0.928805 0.017059 -0.370176
vn 0.928805 0.017059 -0.370176
vn 0.005488 0.943938 -0.330076
vn 0.005488 0.943938 -0.330076
vn 0.005488 0.943938 -0.330076
vn 0.005488 0.943938 -0.330076
vn 0.932880 -0.015607 -0.359848
vn 0.932880 -0.015607 -0.359848
vn 0.932880 -0.015607 -0.359848
vn 0.932880 -0.015607 -0.359848
vn 0.007078 0.920310 -0.391127
vn 0.007078 0.920310 -0.391127
vn 0.007078 0.920310 -0.391127
vn 0.007078 0.920310 -0.391127
vn -0.920616 0.015148 -0.390176
vn -0.920616 0.015148 -0.390176
vn -0.920616 0.015148 -0.390176
vn -0.920616 0.015148 -0.390176
vn 0.010652 -0.946202 -0.323402
vn 0.010652 -0.946202 -0.323402
vn 0.010652 -0.946202 -0.323402
vn 0.010652 -0.946202 -0.323402
vn 0.010665 0.943668 -0.330721
vn 0.010665 0.943668 -0.330721
vn 0.010665 0.943668 -0.330721
vn 0.010665 0.943668 -0.330721
vn -0.951113 0.011011 -0.308646
vn -0.951113 0.011011 -0.308646
vn -0.951113 0.011011 -0.308646
vn -0.951113 0.011011 -0.308646
vn 0.004395 -0.934305 -0.356449
vn 0.004395 -0.934305 -0.356449
vn 0.004395 -0.934305 -0.356449
vn 0.004395 -0.934305 -0.356449
vn 0.931189 -0.010599 -0.364383
vn 0.931189 -0.010599 -0.364383
vn 0.931189 -0.010599 -0.364383
vn 0.931189 -0.010599 -0.364383
vn -0.919177 0.016758 -0.393489
vn -0.919177 0.016758 -0.393489
vn -0.919177 0.016758 -0.393489
vn -0.919177 0.016758 -0.393489
vn -0.014202 -0.924676 -0.380489
vn -0.014202 -0.924676 -0.380489
vn -0.014202 -0.924676 -0.380489
vn -0.014202 -0.924676 -0.380489
vn 0.915704 0.002362 -0.401847
vn 0.915704 0.002362 -0.401847
vn 0.915704 0.002362 -0.401847
vn 0.915704 0.002362 -0.401847
vn 0.018843 0.926974 -0.374652
vn 0.018843 0.926974 -0.374652
vn 0.018843 0.926974 -0.374652
vn 0.018843 0.926974 -0.374652
vn -0.909017 0.003155 -0.416747
vn -0.909017 0.003155 -0.416747
vn -0.909017 0.003155 -0.416747
vn -0.909017 0.003155 -0.416747
vn 0.003083 -0.947309 -0.320305
vn 0.003083 -0.947309 -0.320305
vn 0.003083 -0.947309 -0.320305
vn 0.003083 -0.947309 -0.320305
vn 0.927775 -0.020850 -0.372558
vn 0.927775 -0.020850 -0.372558
vn 0.927775 -0.020850 -0.372558
vn 0.927775 -0.020850 -0.372558
vn 0.000471 0.946907 -0.321508
vn 0.000471 0.946907 -0.321508
vn 0.000471 0.946907 -0.321508
vn 0.000471 0.946907 -0.321508
vn 0.001086 0.935528 -0.353251
vn 0.001086 0.935528 -0.353251
vn 0.001086 0.935528 -0.353251
vn 0.001086 0.935528 -0.353251
vn -0.914093 -0.008089 -0.405424
vn -0.914093 -0.008089 -0.405424
vn -0.914093 -0.008089 -0.405424
vn -0.914093 -0.008089 -0.405424
vn -0.001879 -0.939214 -0.343328
vn -0.001879 -0.939214 -0.343328
vn -0.001879 -0.939214 -0.343328
vn -0.001879 -0.939214 -0.343328
vn 0.938187 0.024382 -0.345268
vn 0.938187 0.024382 -0.345268
vn 0.938187 0.024382 -0.345268
vn 0.938187 0.024382 -0.345268
vn 0.005114 0.932303 -0.361641
vn 0.005114 0.932303 -0.361641
vn 0.005114 0.932303 -0.361641
vn 0.005114 0.932303 -0.361641
vn -0.925176 0.021495 -0.378930
vn -0.925176 0.021495 -0.378930
vn -0.925176 0.021495 -0.378930
vn -0.925176 0.021495 -0.378930
vn -0.015100 -0.932424 -0.361050
vn -0.015100 -0.932424 -0.361050
vn -0.015100 -0.932424 -0.361050
vn -0.015100 -0.932424 -0.361050
vn 0.911657 -0.001870 -0.410949
vn 0.911657 -0.001870 -0.410949
vn 0.911657 -0.001870 -0.410949
vn 0.911657 -0.001870 -0.410949
vn 0.018924 0.910813 -0.412385
vn 0.018924 0.910813 -0.412385
vn 0.018924 0.910813 -0.412385
vn 0.018924 0.910813 -0.412385
vn -0.917932 0.014895 -0.396459
vn -0.917932 0.014895 -0.396459
vn -0.917932 0.014895 -0.396459
vn -0.917932 0.014895 -0.396459
vn 0.000662 -0.932167 -0.362029
vn 0.000662 -0.932167 -0.362029
vn 0.000662 -0.932167 -0.362029
vn 0.000662 -0.932167 -0.362029
vn 0.940242 0.016104 -0.340126
vn 0.940242 0.016104 -0.340126
vn 0.940242 0.016104 -0.340126
vn 0.940242 0.016104 -0.340126
s off
f 38/37/1 37/38/2 39/39/3 40/40/4
f 42/41/5 41/42/6 43/43/7 44/44/8
f 46/45/9 45/46/10 47/47/11 48/48/12
f 50/49/13 49/50/14 51/51/15 52/52/16
f 54/53/17 53/54/18 55/55/19 56/56/20
f 57/57/21 58/58/22 59/59/23 60/60/24
f 62/61/25 61/62/26 63/63/27 64/64/28
f 66/65/29 65/66/30 67/67/31 68/68/32
f 70/69/33 69/70/34 71/71/35 72/72/36
f 12/18/37 15/19/38 37/38/39 38/37/40
f 15/19/41 6/1/42 39/39/43 37/38/44
f 6/1/45 9/20/46 40/40/47 39/39/48
f 9/20/49 12/18/50 38/37/51 40/40/52
f 14/21/53 18/22/54 41/42/55 42/41/56
f 18/22/57 21/23/58 43/43/59 41/42/60
f 21/23/61 24/6/62 44/44/63 43/43/64
f 24/6/65 14/21/66 42/41/67 44/44/68
f 27/16/69 7/4/70 45/46/71 46/45/72
f 7/4/73 29/24/74 47/47/75 45/46/76
f 29/24/77 32/17/78 48/48/79 47/47/80
f 32/17/81 27/16/82 46/45/83 48/48/84
f 20/25/85 25/26/86 49/50/87 50/49/88
f 25/26/89 33/27/90 51/51/91 49/50/92
f 33/27/93 36/10/94 52/52/95 51/51/96
f 36/10/97 20/25/98 50/49/99 52/52/100
f 16/8/101 11/7/102 53/54/103 54/53/104
f 11/7/105 23/28/106 55/55/107 53/54/108
f 23/28/109 4/29/110 56/56/111 55/55/112
f 4/29/113 16/8/114 54/53/115 56/56/116
f 3/30/117 30/3/118 58/58/119 57/57/120
f 30/3/121 10/2/122 59/59/123 58/58/124
f 10/2/125 5/31/126 60/60/127 59/59/128
f 5/31/129 3/30/130 57/57/131 60/60/132
f 28/32/133 31/33/134 61/62/135 62/61/136
f 31/33/137 1/34/138 63/63/139 61/62/140
f 1/34/141 34/15/142 64/64/143 63/63/144
f 34/15/145 28/32/146 62/61/147 64/64/148
f 22/12/149 17/11/150 65/66/151 66/65/152
f 17/11/153 35/35/154 67/67/155 65/66/156
f 35/35/157 2/36/158 68/68/159 67/67/160
f 2/36/161 22/12/162 66/65/163 68/68/164
f 13/9/165 8/5/166 69/70/167 70/69/168
f 8/5/169 26/14/170 71/71/171 69/70/172
f 26/14/173 19/13/174 72/72/175 71/71/176
f 19/13/177 13/9/178 70/69/179 72/72/180
f 74/73/181 76/76/182 75/75/183 73/74/184
f 78/77/185 80/80/186 79/79/187 77/78/188
f 82/81/189 84/84/190 83/83/191 81/82/192
f 86/85/193 88/88/194 87/87/195 85/86/196
f 90/89/197 92/92/198 91/91/199 89/90/200
f 93/93/201 96/96/202 95/95/203 94/94/204
f 98/97/205 100/100/206 99/99/207 97/98/208
f 102/101/209 104/104/210 103/103/211 101/102/212
f 106/105/213 108/108/214 107/107/215 105/106/216
f 12/109/217 74/73/218 73/74/219 15/110/220
f 15/110/221 73/74/222 75/75/223 6/111/224
f 6/111/225 75/75/226 76/76/227 9/112/228
f 9/112/229 76/76/230 74/73/231 12/109/232
f 14/113/233 78/77/234 77/78/235 18/114/236
f 18/114/237 77/78/238 79/79/239 21/115/240
f 21/115/241 79/79/242 80/80/243 24/116/244
f 24/116/245 80/80/246 78/77/247 14/113/248
f 27/117/249 82/81/250 81/82/251 7/118/252
f 7/118/253 81/82/254 83/83/255 29/119/256
f 29/119/257 83/83/258 84/84/259 32/120/260
f 32/120/261 84/84/262 82/81/263 27/117/264
f 20/121/265 86/85/266 85/86/267 25/122/268
f 25/122/269 85/86/270 87/87/271 33/123/272
f 33/123/273 87/87/274 88/88/275 36/124/276
f 36/124/277 88/88/278 86/85/279 20/121/280
f 16/125/281 90/89/282 89/90/283 11/126/284
f 11/126/285 89/90/286 91/91/287 23/127/288
f 23/127/289 91/91/290 92/92/291 4/128/292
f 4/128/293 92/92/294 90/89/295 16/125/296
f 3/129/297 93/93/298 94/94/299 30/130/300
f 30/130/301 94/94/302 95/95/303 10/131/304
f 10/131/305 95/95/306 96/96/307 5/132/308
f 5/132/309 96/96/310 93/93/311 3/129/312
f 28/133/313 98/97/314 97/98/315 31/134/316
f 31/134/317 97/98/318 99/99/319 1/135/320
f 1/135/321 99/99/322 100/100/323 34/136/324
f 34/136/325 100/100/326 98/97/327 28/133/328
f 22/137/329 102/101/330 101/102/331 17/138/332
f 17/138/333 101/102/334 103/103/335 35/139/336
f 35/139/337 103/103/338 104/104/339 2/140/340
f 2/140/341 104/104/342 102/101/343 22/137/344
f 13/141/345 106/105/346 105/106/347 8/142/348
f 8/142/349 105/106/350 107/107/351 26/143/352
f 26/143/353 107/107/354 108/108/355 19/144/356
f 19/144/357 108/108/358 106/105/359 13/141/360
