# This file uses centimeters as units for non-parametric coordinates.

v 10.731796 18.277618 0.000000
v -10.731796 18.277618 -0.000000
v -10.731796 9.434116 -0.000000
v -1.503723 9.434116 0.000000
v -7.252213 -19.415884 -0.000000
v 3.183807 -19.415884 0.000000
v 8.780300 16.341166 4.000000
v -8.931107 15.807413 4.000000
v -8.761761 11.164409 4.000000
v 0.683124 11.357217 4.000000
v -4.394962 -17.297026 4.000000
v 1.229324 -17.413939 4.000000
v 8.260345 16.238928 -4.000000
v -8.973625 16.232029 -4.000000
v -8.552904 11.141767 -4.000000
v 0.977382 11.843081 -4.000000
v -4.626852 -17.211813 -4.000000
v 1.351984 -17.401909 -4.000000
vt 0.014643 0.949406
vt 0.015333 0.949518
vt 0.015235 0.949642
vt 0.014684 0.949550
vt 0.015320 0.949747
vt 0.015229 0.949768
vt 0.015030 0.949698
vt 0.014920 0.949715
vt 0.015185 0.950367
vt 0.015090 0.950396
vt 0.014897 0.950311
vt 0.014910 0.950361
vt 0.014760 0.949395
vt 0.015294 0.949482
vt 0.015287 0.949607
vt 0.014988 0.949557
vt 0.015145 0.950235
vt 0.014971 0.950202
vn -0.011935 0.875941 0.482271
vn -0.011935 0.875941 0.482271
vn -0.011935 0.875941 0.482271
vn -0.011935 0.875941 0.482271
vn -0.904903 -0.011363 0.425466
vn -0.904903 -0.011363 0.425466
vn -0.904903 -0.011363 0.425466
vn -0.904903 -0.011363 0.425466
vn 0.009411 -0.911434 0.411339
vn 0.009411 -0.911434 0.411339
vn 0.009411 -0.911434 0.411339
vn 0.009411 -0.911434 0.411339
vn -0.869701 0.163742 0.465627
vn -0.869701 0.163742 0.465627
vn -0.869701 0.163742 0.465627
vn -0.869701 0.163742 0.465627
vn -0.006469 -0.888677 0.458488
vn -0.006469 -0.888677 0.458488
vn -0.006469 -0.888677 0.458488
vn -0.006469 -0.888677 0.458488
vn 0.882253 -0.186443 0.432284
vn 0.882253 -0.186443 0.432284
vn 0.882253 -0.186443 0.432284
vn 0.882253 -0.186443 0.432284
vn 0.000000 0.000000 1.000000
vn 0.000000 0.000000 1.000000
vn 0.000000 0.000000 1.000000
vn 0.000000 0.000000 1.000000
vn 0.000000 0.000000 1.000000
vn 0.000000 0.000000 1.000000
vn 0.000000 0.000000 1.000000
vn 0.000000 0.000000 1.000000
vn -0.000159 0.890648 -0.454693
vn -0.000159 0.890648 -0.454693
vn -0.000159 0.890648 -0.454693
vn -0.000159 0.890648 -0.454693
vn -0.897356 -0.027095 -0.440474
vn -0.897356 -0.027095 -0.440474
vn -0.897356 -0.027095 -0.440474
vn -0.897356 -0.027095 -0.440474
vn 0.033517 -0.896492 -0.441791
vn 0.033517 -0.896492 -0.441791
vn 0.033517 -0.896492 -0.441791
vn 0.033517 -0.896492 -0.441791
vn -0.872263 0.171014 -0.458161
vn -0.872263 0.171014 -0.458161
vn -0.872263 0.171014 -0.458161
vn -0.872263 0.171014 -0.458161
vn -0.010239 -0.884110 -0.467167
vn -0.010239 -0.884110 -0.467167
vn -0.010239 -0.884110 -0.467167
vn -0.010239 -0.884110 -0.467167
vn 0.867194 -0.175742 -0.465929
vn 0.867194 -0.175742 -0.465929
vn 0.867194 -0.175742 -0.465929
vn 0.867194 -0.175742 -0.465929
vn -0.000000 0.000000 -1.000000
vn -0.000000 0.000000 -1.000000
vn -0.000000 0.000000 -1.000000
vn -0.000000 0.000000 -1.000000
vn -0.000000 0.000000 -1.000000
vn -0.000000 0.000000 -1.000000
vn -0.000000 0.000000 -1.000000
vn -0.000000 0.000000 -1.000000
s off
f 1/1/1 2/2/2 8/3/3 7/4/4
f 2/2/5 3/5/6 9/6/7 8/3/8
f 3/5/9 4/7/10 10/8/11 9/6/12
f 4/7/13 5/9/14 11/10/15 10/8/16
f 5/9/17 6/11/18 12/12/19 11/10/20
f 6/11/21 1/1/22 7/4/23 12/12/24
f 10/8/25 11/10/26 12/12/27 7/4/28
f 10/8/29 7/4/30 8/3/31 9/6/32
f 1/1/33 13/13/34 14/14/35 2/2/36
f 2/2/37 14/14/38 15/15/39 3/5/40
f 3/5/41 15/15/42 16/16/43 4/7/44
f 4/7/45 16/16/46 17/17/47 5/9/48
f 5/9/49 17/17/50 18/18/51 6/11/52
f 6/11/53 18/18/54 13/13/55 1/1/56
f 18/18/57 17/17/58 16/16/59 13/13/60
f 14/14/61 13/13/62 16/16/63 15/15/64
