# This file uses centimeters as units for non-parametric coordinates.

v 19.980692 10.162090 -0.000000
v 18.094187 12.643029 -0.000000
v -18.030891 12.643044 -0.000000
v -19.917404 10.162103 -0.000000
v -19.917414 -9.259921 -0.000000
v -17.751736 -11.141700 0.000000
v -12.586320 -14.059330 -0.000000
v -5.121791 -11.028083 -0.000000
v 18.094191 -10.827641 -0.000000
v 19.980709 -8.346699 -0.000000
v 16.828247 8.525762 -0.000000
v 15.483738 10.029144 -0.000000
v -15.450259 10.029154 -0.000000
v -16.890453 8.525770 0.000000
v -16.890457 -7.058376 0.000000
v -15.572231 -8.487545 0.000000
v -9.855265 -10.669958 0.000000
v -5.050103 -8.414701 -0.000000
v 15.290230 -8.221697 0.000000
v 16.828260 -6.971079 0.000000
v 19.125151 9.583086 2.000000
v 17.587984 9.028427 2.000000
v 17.319550 11.931880 2.000000
v 16.193405 10.620749 2.000000
v -17.256256 11.931890 2.000000
v -16.124941 10.620759 2.000000
v -19.061867 9.583099 2.000000
v -17.629581 9.028439 2.000000
v -19.061871 -8.804411 2.000000
v -17.629589 -7.477633 2.000000
v -16.989075 -10.585958 2.000000
v -16.252369 -8.991350 2.000000
v -12.045183 -13.348182 2.000000
v -10.556913 -11.418680 2.000000
v -4.900779 -10.478391 2.000000
v -5.259361 -8.914197 2.000000
v 17.319557 -10.288627 2.000000
v 15.991237 -8.709774 2.000000
v 19.125172 -7.939833 2.000000
v 17.587996 -7.385172 2.000000
v -8.473147 -10.804774 2.000000
v -8.126227 -10.199681 0.000000
v -9.332436 -13.285830 -0.000000
v -8.930844 -12.615879 2.000000
v -10.561649 -9.203646 2.000000
v -9.871641 -8.578640 0.000000
v -12.090506 -11.414683 -0.000000
v -11.570631 -10.844398 2.000000
v 18.915024 9.583086 -2.000000
v 17.299437 9.028427 -2.000000
v 17.129293 11.931880 -2.000000
v 15.927710 10.620749 -2.000000
v -17.065998 11.931890 -2.000000
v -15.861050 10.620759 -2.000000
v -18.851738 9.583099 -2.000000
v -17.341034 9.028439 -2.000000
v -18.851744 -8.804411 -2.000000
v -17.341042 -7.477633 -2.000000
v -16.801758 -10.585958 -2.000000
v -15.986389 -8.991350 -2.000000
v -11.912275 -13.348182 -2.000000
v -10.384262 -11.418680 -2.000000
v -4.846497 -10.478391 -2.000000
v -5.173520 -8.914197 -2.000000
v 17.129299 -10.288627 -2.000000
v 15.728855 -8.709774 -2.000000
v 18.915045 -7.939833 -2.000000
v 17.299448 -7.385172 -2.000000
v -8.334642 -10.804774 -2.000000
v -8.832211 -12.615879 -2.000000
v -10.388922 -9.203646 -2.000000
v -11.442946 -10.844398 -2.000000
vt 0.984367 0.855848
vt 0.984367 0.855848
vt 0.984367 0.855848
vt 0.984367 0.855848
vt 0.984367 0.855848
vt 0.984367 0.855848
vt 0.984367 0.855848
vt 0.984367 0.855848
vt 0.984367 0.855848
vt 0.984367 0.855848
vt 0.984367 0.855848
vt 0.984367 0.855848
vt 0.984367 0.855848
vt 0.984367 0.855848
vt 0.984367 0.855848
vt 0.984367 0.855848
vt 0.984367 0.855848
vt 0.984367 0.855848
vt 0.984367 0.855848
vt 0.984367 0.855848
vt 0.984367 0.855848
vt 0.984367 0.855848
vt 0.984367 0.855848
vt 0.984367 0.855848
vt 0.984367 0.855848
vt 0.984367 0.855848
vt 0.984367 0.855848
vt 0.984367 0.855848
vt 0.984367 0.855848
vt 0.984367 0.855848
vt 0.984367 0.855848
vt 0.984367 0.855848
vt 0.984367 0.855848
vt 0.984367 0.855848
vt 0.984367 0.855848
vt 0.984367 0.855848
vt 0.984367 0.855848
vt 0.984367 0.855848
vt 0.984367 0.855848
vt 0.984367 0.855848
vt 0.984367 0.855848
vt 0.984367 0.855848
vt 0.984367 0.855848
vt 0.984367 0.855848
vt 0.984367 0.855848
vt 0.984367 0.855848
vt 0.984367 0.855848
vt 0.984367 0.855848
vt 0.984367 0.855848
vt 0.984367 0.855848
vt 0.984367 0.855848
vt 0.984367 0.855848
vt 0.984367 0.855848
vt 0.984367 0.855848
vt 0.984367 0.855848
vt 0.984367 0.855848
vt 0.984367 0.855848
vt 0.984367 0.855848
vt 0.984367 0.855848
vt 0.984367 0.855848
vt 0.984367 0.855848
vt 0.984367 0.855848
vt 0.984367 0.855848
vt 0.984367 0.855848
vt 0.984367 0.855848
vt 0.984367 0.855848
vt 0.984367 0.855848
vt 0.984367 0.855848
vt 0.984367 0.855848
vt 0.984367 0.855848
vt 0.984367 0.855848
vt 0.984367 0.855848
vt 0.984367 0.855848
vt 0.984367 0.855848
vt 0.984367 0.855848
vt 0.984367 0.855848
vt 0.984367 0.855848
vt 0.984367 0.855848
vt 0.984367 0.855848
vt 0.984367 0.855848
vt 0.984367 0.855848
vt 0.984367 0.855848
vt 0.984367 0.855848
vt 0.984367 0.855848
vt 0.984367 0.855848
vt 0.984367 0.855848
vt 0.984367 0.855848
vt 0.984367 0.855848
vt 0.984367 0.855848
vt 0.984367 0.855848
vt 0.984367 0.855848
vt 0.984367 0.855848
vt 0.984367 0.855848
vt 0.984367 0.855848
vt 0.984367 0.855848
vt 0.984367 0.855848
vt 0.984367 0.855848
vt 0.984367 0.855848
vt 0.984367 0.855848
vt 0.984367 0.855848
vt 0.984367 0.855848
vt 0.984367 0.855848
vt 0.984367 0.855848
vt 0.984367 0.855848
vt 0.984367 0.855848
vt 0.984367 0.855848
vt 0.984367 0.855848
vt 0.984367 0.855848
vt 0.984367 0.855848
vt 0.984367 0.855848
vt 0.984367 0.855848
vt 0.984367 0.855848
vt 0.984367 0.855848
vt 0.984367 0.855848
vt 0.984367 0.855848
vt 0.984367 0.855848
vt 0.984367 0.855848
vt 0.984367 0.855848
vt 0.984367 0.855848
vt 0.984367 0.855848
vt 0.984367 0.855848
vt 0.984367 0.855848
vt 0.984367 0.855848
vt 0.984367 0.855848
vt 0.984367 0.855848
vt 0.984367 0.855848
vt 0.984367 0.855848
vt 0.984367 0.855848
vt 0.984367 0.855848
vt 0.984367 0.855848
vt 0.984367 0.855848
vt 0.984367 0.855848
vt 0.984367 0.855848
vt 0.984367 0.855848
vt 0.984367 0.855848
vt 0.984367 0.855848
vt 0.984367 0.855848
vt 0.984367 0.855848
vt 0.984367 0.855848
vt 0.984367 0.855848
vt 0.984367 0.855848
vt 0.984367 0.855848
vt 0.984367 0.855848
vt 0.984367 0.855848
vt 0.984367 0.855848
vt 0.984367 0.855848
vt 0.984367 0.855848
vt 0.984367 0.855848
vt 0.984367 0.855848
vt 0.984367 0.855848
vt 0.984367 0.855848
vt 0.984367 0.855848
vt 0.984367 0.855848
vt 0.984367 0.855848
vt 0.984367 0.855848
vt 0.984367 0.855848
vt 0.984367 0.855848
vt 0.984367 0.855848
vt 0.984367 0.855848
vt 0.984367 0.855848
vt 0.984367 0.855848
vt 0.984367 0.855848
vt 0.984367 0.855848
vt 0.984367 0.855848
vt 0.984367 0.855848
vt 0.984367 0.855848
vt 0.984367 0.855848
vt 0.984367 0.855848
vt 0.984367 0.855848
vt 0.984367 0.855848
vt 0.984367 0.855848
vt 0.984367 0.855848
vt 0.984367 0.855848
vt 0.984367 0.855848
vt 0.984367 0.855848
vt 0.984367 0.855848
vn -0.000000 0.000000 1.000000
vn -0.000000 0.000000 1.000000
vn -0.000000 0.000000 1.000000
vn -0.000000 0.000000 1.000000
vn -0.000000 0.000000 1.000000
vn -0.000000 0.000000 1.000000
vn -0.000000 0.000000 1.000000
vn -0.000000 0.000000 1.000000
vn 0.000000 -0.000000 1.000000
vn 0.000000 -0.000000 1.000000
vn 0.000000 -0.000000 1.000000
vn 0.000000 -0.000000 1.000000
vn 0.000000 0.000000 1.000000
vn 0.000000 0.000000 1.000000
vn 0.000000 0.000000 1.000000
vn 0.000000 0.000000 1.000000
vn -0.000000 0.000000 1.000000
vn -0.000000 0.000000 1.000000
vn -0.000000 0.000000 1.000000
vn -0.000000 0.000000 1.000000
vn -0.000000 0.000000 1.000000
vn -0.000000 0.000000 1.000000
vn -0.000000 0.000000 1.000000
vn -0.000000 0.000000 1.000000
vn 0.000000 0.000000 1.000000
vn 0.000000 0.000000 1.000000
vn 0.000000 0.000000 1.000000
vn 0.000000 0.000000 1.000000
vn -0.000000 0.000000 1.000000
vn -0.000000 0.000000 1.000000
vn -0.000000 0.000000 1.000000
vn -0.000000 0.000000 1.000000
vn 0.000000 0.000000 1.000000
vn 0.000000 0.000000 1.000000
vn 0.000000 0.000000 1.000000
vn 0.000000 0.000000 1.000000
vn 0.000000 0.000000 1.000000
vn 0.000000 0.000000 1.000000
vn 0.000000 0.000000 1.000000
vn 0.000000 0.000000 1.000000
vn -0.934825 -0.000001 0.355109
vn -0.934825 -0.000001 0.355109
vn -0.934825 -0.000001 0.355109
vn -0.934825 -0.000001 0.355109
vn 0.704952 0.538902 0.461116
vn 0.704952 0.538902 0.461116
vn 0.704952 0.538902 0.461116
vn 0.704952 0.538902 0.461116
vn -0.681321 -0.602835 0.415200
vn -0.681321 -0.602835 0.415200
vn -0.681321 -0.602835 0.415200
vn -0.681321 -0.602835 0.415200
vn 0.000000 0.942209 0.335027
vn 0.000000 0.942209 0.335027
vn 0.000000 0.942209 0.335027
vn 0.000000 0.942209 0.335027
vn -0.000000 -0.958927 0.283652
vn -0.000000 -0.958927 0.283652
vn -0.000000 -0.958927 0.283652
vn -0.000000 -0.958927 0.283652
vn -0.704950 0.538904 0.461116
vn -0.704950 0.538904 0.461116
vn -0.704950 0.538904 0.461116
vn -0.704950 0.538904 0.461116
vn 0.662046 -0.629781 0.406290
vn 0.662046 -0.629781 0.406290
vn 0.662046 -0.629781 0.406290
vn 0.662046 -0.629781 0.406290
vn -0.919412 0.000000 0.393297
vn -0.919412 0.000000 0.393297
vn -0.919412 0.000000 0.393297
vn -0.919412 0.000000 0.393297
vn 0.937995 -0.000000 0.346650
vn 0.937995 -0.000000 0.346650
vn 0.937995 -0.000000 0.346650
vn 0.937995 -0.000000 0.346650
vn -0.595012 -0.688430 0.414757
vn -0.595012 -0.688430 0.414757
vn -0.595012 -0.688430 0.414757
vn -0.595012 -0.688430 0.414757
vn 0.680497 0.623281 0.385284
vn 0.680497 0.623281 0.385284
vn 0.680497 0.623281 0.385284
vn 0.680497 0.623281 0.385284
vn -0.045932 -0.957632 0.284307
vn -0.045932 -0.957632 0.284307
vn -0.045932 -0.957632 0.284307
vn -0.045932 -0.957632 0.284307
vn 0.025562 0.959774 0.279607
vn 0.025562 0.959774 0.279607
vn 0.025562 0.959774 0.279607
vn 0.025562 0.959774 0.279607
vn 0.221485 -0.936689 0.271216
vn 0.221485 -0.936689 0.271216
vn 0.221485 -0.936689 0.271216
vn 0.221485 -0.936689 0.271216
vn -0.265103 0.932299 0.246046
vn -0.265103 0.932299 0.246046
vn -0.265103 0.932299 0.246046
vn -0.265103 0.932299 0.246046
vn 0.008284 -0.964574 0.263682
vn 0.008284 -0.964574 0.263682
vn 0.008284 -0.964574 0.263682
vn 0.008284 -0.964574 0.263682
vn -0.009274 0.970540 0.240760
vn -0.009274 0.970540 0.240760
vn -0.009274 0.970540 0.240760
vn -0.009274 0.970540 0.240760
vn 0.719720 -0.550197 0.423422
vn 0.719720 -0.550197 0.423422
vn 0.719720 -0.550197 0.423422
vn 0.719720 -0.550197 0.423422
vn -0.588128 0.715922 0.376246
vn -0.588128 0.715922 0.376246
vn -0.588128 0.715922 0.376246
vn -0.588128 0.715922 0.376246
vn 0.919412 0.000001 0.393296
vn 0.919412 0.000001 0.393296
vn 0.919412 0.000001 0.393296
vn 0.919412 0.000001 0.393296
vn -0.497536 0.851424 0.165938
vn -0.497536 0.851424 0.165938
vn -0.497536 0.851424 0.165938
vn -0.497536 0.851424 0.165938
vn 0.461836 -0.865905 0.192139
vn 0.461836 -0.865905 0.192139
vn 0.461836 -0.865905 0.192139
vn 0.461836 -0.865905 0.192139
vn 0.000000 0.000000 1.000000
vn 0.000000 0.000000 1.000000
vn 0.000000 0.000000 1.000000
vn 0.000000 0.000000 1.000000
vn 0.943966 0.004628 0.330009
vn 0.943966 0.004628 0.330009
vn 0.943966 0.004628 0.330009
vn 0.943966 0.004628 0.330009
vn -0.963368 0.181573 0.197367
vn -0.963368 0.181573 0.197367
vn -0.963368 0.181573 0.197367
vn -0.963368 0.181573 0.197367
vn -0.000000 0.000000 1.000000
vn -0.000000 0.000000 1.000000
vn -0.000000 0.000000 1.000000
vn -0.000000 0.000000 1.000000
vn -0.000000 0.000000 -1.000000
vn -0.000000 0.000000 -1.000000
vn -0.000000 0.000000 -1.000000
vn -0.000000 0.000000 -1.000000
vn 0.000000 0.000000 -1.000000
vn 0.000000 0.000000 -1.000000
vn 0.000000 0.000000 -1.000000
vn 0.000000 0.000000 -1.000000
vn 0.000000 -0.000000 -1.000000
vn 0.000000 -0.000000 -1.000000
vn 0.000000 -0.000000 -1.000000
vn 0.000000 -0.000000 -1.000000
vn 0.000000 0.000000 -1.000000
vn 0.000000 0.000000 -1.000000
vn 0.000000 0.000000 -1.000000
vn 0.000000 0.000000 -1.000000
vn 0.000000 0.000000 -1.000000
vn 0.000000 0.000000 -1.000000
vn 0.000000 0.000000 -1.000000
vn 0.000000 0.000000 -1.000000
vn 0.000000 0.000000 -1.000000
vn 0.000000 0.000000 -1.000000
vn 0.000000 0.000000 -1.000000
vn 0.000000 0.000000 -1.000000
vn 0.000000 0.000000 -1.000000
vn 0.000000 0.000000 -1.000000
vn 0.000000 0.000000 -1.000000
vn 0.000000 0.000000 -1.000000
vn 0.000000 0.000000 -1.000000
vn 0.000000 0.000000 -1.000000
vn 0.000000 0.000000 -1.000000
vn 0.000000 0.000000 -1.000000
vn 0.000000 0.000000 -1.000000
vn 0.000000 0.000000 -1.000000
vn 0.000000 0.000000 -1.000000
vn 0.000000 0.000000 -1.000000
vn 0.000000 0.000000 -1.000000
vn 0.000000 0.000000 -1.000000
vn 0.000000 0.000000 -1.000000
vn 0.000000 0.000000 -1.000000
vn -0.973352 -0.000001 -0.229316
vn -0.973352 -0.000001 -0.229316
vn -0.973352 -0.000001 -0.229316
vn -0.973352 -0.000001 -0.229316
vn 0.682798 0.519158 -0.514064
vn 0.682798 0.519158 -0.514064
vn 0.682798 0.519158 -0.514064
vn 0.682798 0.519158 -0.514064
vn -0.708941 -0.622040 -0.332369
vn -0.708941 -0.622040 -0.332369
vn -0.708941 -0.622040 -0.332369
vn -0.708941 -0.622040 -0.332369
vn 0.000000 0.942209 -0.335027
vn 0.000000 0.942209 -0.335027
vn 0.000000 0.942209 -0.335027
vn 0.000000 0.942209 -0.335027
vn -0.000000 -0.958927 -0.283653
vn -0.000000 -0.958927 -0.283653
vn -0.000000 -0.958927 -0.283653
vn -0.000000 -0.958927 -0.283653
vn -0.682797 0.519159 -0.514064
vn -0.682797 0.519159 -0.514064
vn -0.682797 0.519159 -0.514064
vn -0.682797 0.519159 -0.514064
vn 0.687790 -0.648792 -0.325599
vn 0.687790 -0.648792 -0.325599
vn 0.687790 -0.648792 -0.325599
vn 0.687790 -0.648792 -0.325599
vn -0.882536 0.000000 -0.470245
vn -0.882536 0.000000 -0.470245
vn -0.882536 0.000000 -0.470245
vn -0.882536 0.000000 -0.470245
vn 0.975549 -0.000000 -0.219783
vn 0.975549 -0.000000 -0.219783
vn 0.975549 -0.000000 -0.219783
vn 0.975549 -0.000000 -0.219783
vn -0.581625 -0.669320 -0.462301
vn -0.581625 -0.669320 -0.462301
vn -0.581625 -0.669320 -0.462301
vn -0.581625 -0.669320 -0.462301
vn 0.706012 0.641236 -0.300605
vn 0.706012 0.641236 -0.300605
vn 0.706012 0.641236 -0.300605
vn 0.706012 0.641236 -0.300605
vn -0.046131 -0.956604 -0.287715
vn -0.046131 -0.956604 -0.287715
vn -0.046131 -0.956604 -0.287715
vn -0.046131 -0.956604 -0.287715
vn 0.025793 0.960505 -0.277064
vn 0.025793 0.960505 -0.277064
vn 0.025793 0.960505 -0.277064
vn 0.025793 0.960505 -0.277064
vn 0.223404 -0.939720 -0.258877
vn 0.223404 -0.939720 -0.258877
vn 0.223404 -0.939720 -0.258877
vn 0.223404 -0.939720 -0.258877
vn -0.265958 0.926932 -0.264694
vn -0.265958 0.926932 -0.264694
vn -0.265958 0.926932 -0.264694
vn -0.265958 0.926932 -0.264694
vn 0.008328 -0.964500 -0.263951
vn 0.008328 -0.964500 -0.263951
vn 0.008328 -0.964500 -0.263951
vn 0.008328 -0.964500 -0.263951
vn -0.009353 0.970634 -0.240380
vn -0.009353 0.970634 -0.240380
vn -0.009353 0.970634 -0.240380
vn -0.009353 0.970634 -0.240380
vn 0.698312 -0.530958 -0.480046
vn 0.698312 -0.530958 -0.480046
vn 0.698312 -0.530958 -0.480046
vn 0.698312 -0.530958 -0.480046
vn -0.607808 0.733702 -0.303729
vn -0.607808 0.733702 -0.303729
vn -0.607808 0.733702 -0.303729
vn -0.607808 0.733702 -0.303729
vn 0.882536 0.000001 -0.470245
vn 0.882536 0.000001 -0.470245
vn 0.882536 0.000001 -0.470245
vn 0.882536 0.000001 -0.470245
vn -0.498236 0.845483 -0.192145
vn -0.498236 0.845483 -0.192145
vn -0.498236 0.845483 -0.192145
vn -0.498236 0.845483 -0.192145
vn 0.465343 -0.867784 -0.174376
vn 0.465343 -0.867784 -0.174376
vn 0.465343 -0.867784 -0.174376
vn 0.465343 -0.867784 -0.174376
vn 0.000000 0.000000 -1.000000
vn 0.000000 0.000000 -1.000000
vn 0.000000 0.000000 -1.000000
vn 0.000000 0.000000 -1.000000
vn 0.967043 0.004724 -0.254572
vn 0.967043 0.004724 -0.254572
vn 0.967043 0.004724 -0.254572
vn 0.967043 0.004724 -0.254572
vn -0.949916 0.178075 -0.256806
vn -0.949916 0.178075 -0.256806
vn -0.949916 0.178075 -0.256806
vn -0.949916 0.178075 -0.256806
vn -0.000000 0.000000 -1.000000
vn -0.000000 0.000000 -1.000000
vn -0.000000 0.000000 -1.000000
vn -0.000000 0.000000 -1.000000
s off
f 21/43/1 23/44/2 24/45/3 22/46/4
f 24/48/5 23/47/6 25/49/7 26/50/8
f 25/51/9 27/52/10 28/53/11 26/54/12
f 28/56/13 27/55/14 29/57/15 30/58/16
f 30/60/17 29/59/18 31/61/19 32/62/20
f 31/63/21 48/88/22 45/85/23 32/66/24
f 33/67/25 44/84/26 41/81/27 34/70/28
f 36/72/29 35/71/30 37/73/31 38/74/32
f 37/75/33 39/76/34 40/77/35 38/78/36
f 40/80/37 39/79/38 21/41/39 22/42/40
f 40/80/41 22/42/42 11/2/43 20/40/44
f 1/3/45 2/4/46 23/44/47 21/43/48
f 12/5/49 11/6/50 22/46/51 24/45/52
f 23/47/53 2/7/54 3/9/55 25/49/56
f 24/48/57 26/50/58 13/10/59 12/8/60
f 3/11/61 4/12/62 27/52/63 25/51/64
f 14/13/65 13/14/66 26/54/67 28/53/68
f 27/55/69 4/15/70 5/17/71 29/57/72
f 28/56/73 30/58/74 15/18/75 14/16/76
f 29/59/77 5/19/78 6/21/79 31/61/80
f 30/60/81 32/62/82 16/22/83 15/20/84
f 6/23/85 47/87/86 48/88/87 31/63/88
f 46/86/89 16/26/90 32/66/91 45/85/92
f 7/27/93 43/83/94 44/84/95 33/67/96
f 42/82/97 17/30/98 34/70/99 41/81/100
f 35/71/101 8/31/102 9/33/103 37/73/104
f 36/72/105 38/74/106 19/34/107 18/32/108
f 9/35/109 10/36/110 39/76/111 37/75/112
f 20/37/113 19/38/114 38/78/115 40/77/116
f 39/79/117 10/39/118 1/1/119 21/41/120
f 18/29/121 42/82/122 41/81/123 36/69/124
f 44/84/125 43/83/126 8/28/127 35/68/128
f 41/81/129 44/84/130 35/68/131 36/69/132
f 17/25/133 46/86/134 45/85/135 34/65/136
f 48/88/137 47/87/138 7/24/139 33/64/140
f 45/85/141 48/88/142 33/64/143 34/65/144
f 49/89/145 50/92/146 52/91/147 51/90/148
f 52/93/149 54/96/150 53/95/151 51/94/152
f 53/97/153 54/100/154 56/99/155 55/98/156
f 56/101/157 58/104/158 57/103/159 55/102/160
f 58/105/161 60/108/162 59/107/163 57/106/164
f 59/109/165 60/112/166 71/111/167 72/110/168
f 61/113/169 62/116/170 69/115/171 70/114/172
f 64/117/173 66/120/174 65/119/175 63/118/176
f 65/121/177 66/124/178 68/123/179 67/122/180
f 68/125/181 50/128/182 49/127/183 67/126/184
f 68/125/185 20/130/186 11/129/187 50/128/188
f 1/131/189 49/89/190 51/90/191 2/132/192
f 12/133/193 52/91/194 50/92/195 11/134/196
f 51/94/197 53/95/198 3/136/199 2/135/200
f 52/93/201 12/138/202 13/137/203 54/96/204
f 3/139/205 53/97/206 55/98/207 4/140/208
f 14/141/209 56/99/210 54/100/211 13/142/212
f 55/102/213 57/103/214 5/144/215 4/143/216
f 56/101/217 14/146/218 15/145/219 58/104/220
f 57/106/221 59/107/222 6/148/223 5/147/224
f 58/105/225 15/150/226 16/149/227 60/108/228
f 6/151/229 59/109/230 72/110/231 47/152/232
f 46/153/233 71/111/234 60/112/235 16/154/236
f 7/155/237 61/113/238 70/114/239 43/156/240
f 42/157/241 69/115/242 62/116/243 17/158/244
f 63/118/245 65/119/246 9/160/247 8/159/248
f 64/117/249 18/162/250 19/161/251 66/120/252
f 9/163/253 65/121/254 67/122/255 10/164/256
f 20/165/257 68/123/258 66/124/259 19/166/260
f 67/126/261 49/127/262 1/168/263 10/167/264
f 18/169/265 64/170/266 69/115/267 42/157/268
f 70/114/269 63/172/270 8/171/271 43/156/272
f 69/115/273 64/170/274 63/172/275 70/114/276
f 17/173/277 62/174/278 71/111/279 46/153/280
f 72/110/281 61/176/282 7/175/283 47/152/284
f 71/111/285 62/174/286 61/176/287 72/110/288
