# This file uses centimeters as units for non-parametric coordinates.

v 23.188499 -23.387020 0.000000
v -21.740314 -21.990351 0.000000
v 21.743513 23.166513 0.000000
v -22.865623 22.706945 0.000000
v 22.800369 21.979904 -8.000000
v 21.940508 -22.463249 -8.000000
v -22.669777 -22.354939 -8.000000
v -23.397383 23.398148 -8.000000
v 24.000000 24.000000 -6.799720
v 24.000000 24.000000 -1.200280
v -24.000000 24.000000 -1.200280
v -24.000000 24.000000 -6.799720
v -24.000000 -24.000000 -1.200280
v -24.000000 -24.000000 -6.799720
v 24.000000 -24.000000 -1.200280
v 24.000000 -24.000000 -6.799720
v -13.675156 22.001026 0.000000
v 21.956188 4.195375 0.000000
v 23.292646 2.791947 -8.000000
v -15.102181 23.386589 -8.000000
v 24.000000 4.193588 -1.200280
v 24.000000 3.636215 -6.799720
v -14.895687 24.000000 -6.799720
v -13.831094 24.000000 -1.200280
v -6.953168 -22.617529 0.000000
v -21.844736 -9.362463 0.000000
v -5.783904 -22.528427 -8.000000
v -21.634096 -8.222205 -8.000000
v -24.000000 -8.081715 -6.799720
v -24.000000 -9.226398 -1.200280
v -6.276699 -24.000000 -6.799720
v -7.551184 -24.000000 -1.200280
vt 0.921908 0.919479
vt 0.921911 0.918479
vt 0.920920 0.919469
vt 0.921908 0.919479
vt 0.920922 0.918485
vt 0.920920 0.919469
vt 0.921911 0.918479
vt 0.920922 0.918485
vt 0.921911 0.918479
vt 0.920922 0.918485
vt 0.920922 0.918485
vt 0.920920 0.919469
vt 0.920920 0.919469
vt 0.921908 0.919479
vt 0.921908 0.919479
vt 0.921911 0.918479
vt 0.921136 0.918484
vt 0.921910 0.918889
vt 0.921910 0.918906
vt 0.921105 0.918484
vt 0.921910 0.918891
vt 0.921910 0.918903
vt 0.921109 0.918484
vt 0.921131 0.918484
vt 0.921253 0.919472
vt 0.920920 0.919171
vt 0.921290 0.919473
vt 0.920920 0.919138
vt 0.920920 0.919143
vt 0.920920 0.919166
vt 0.921285 0.919473
vt 0.921258 0.919472
vn -0.000000 0.000000 -1.000000
vn -0.000000 0.000000 -1.000000
vn -0.000000 0.000000 -1.000000
vn 0.000000 0.000000 1.000000
vn 0.000000 0.000000 1.000000
vn 0.000000 0.000000 1.000000
vn 1.000000 0.000000 -0.000000
vn 1.000000 0.000000 -0.000000
vn 1.000000 0.000000 -0.000000
vn 1.000000 0.000000 -0.000000
vn 0.000000 1.000000 0.000000
vn 0.000000 1.000000 0.000000
vn 0.000000 1.000000 0.000000
vn 0.000000 1.000000 0.000000
vn -1.000000 0.000000 0.000000
vn -1.000000 0.000000 0.000000
vn -1.000000 0.000000 0.000000
vn -1.000000 0.000000 0.000000
vn 0.000000 -1.000000 0.000000
vn 0.000000 -1.000000 0.000000
vn 0.000000 -1.000000 0.000000
vn 0.000000 -1.000000 0.000000
vn 0.487031 0.002671 0.873381
vn 0.487031 0.002671 0.873381
vn 0.487031 0.002671 0.873381
vn 0.487031 0.002671 0.873381
vn -0.009597 -0.769395 0.638701
vn -0.009597 -0.769395 0.638701
vn -0.009597 -0.769395 0.638701
vn -0.009597 -0.769395 0.638701
vn -0.477091 -0.001818 0.878852
vn -0.477091 -0.001818 0.878852
vn -0.477091 -0.001818 0.878852
vn -0.477091 -0.001818 0.878852
vn 0.021681 0.594587 0.803739
vn 0.021681 0.594587 0.803739
vn 0.021681 0.594587 0.803739
vn 0.021681 0.594587 0.803739
vn 0.000593 0.892228 -0.451585
vn 0.000593 0.892228 -0.451585
vn 0.000593 0.892228 -0.451585
vn 0.000593 0.892228 -0.451585
vn -0.549999 0.018955 -0.834950
vn -0.549999 0.018955 -0.834950
vn -0.549999 0.018955 -0.834950
vn -0.549999 0.018955 -0.834950
vn 0.000701 -0.623505 -0.781819
vn 0.000701 -0.623505 -0.781819
vn 0.000701 -0.623505 -0.781819
vn 0.000701 -0.623505 -0.781819
vn 0.777315 0.009675 -0.629037
vn 0.777315 0.009675 -0.629037
vn 0.777315 0.009675 -0.629037
vn 0.777315 0.009675 -0.629037
vn -0.000000 0.000000 -1.000000
vn -0.000000 0.000000 -1.000000
vn -0.000000 0.000000 -1.000000
vn -0.000000 0.000000 -1.000000
vn -0.000000 0.000000 -1.000000
vn -0.000000 0.000000 -1.000000
vn -0.000000 0.000000 -1.000000
vn -0.000000 0.000000 -1.000000
vn -0.000000 0.000000 -1.000000
vn -0.000000 0.000000 -1.000000
vn 0.000000 0.000000 1.000000
vn 0.000000 0.000000 1.000000
vn 0.000000 0.000000 1.000000
vn 0.000000 0.000000 1.000000
vn 0.000000 0.000000 1.000000
vn 0.000000 0.000000 1.000000
vn 0.000000 0.000000 1.000000
vn 0.000000 0.000000 1.000000
vn 0.000000 0.000000 1.000000
vn 0.000000 0.000000 1.000000
vn 1.000000 0.000000 -0.000000
vn 1.000000 0.000000 -0.000000
vn 1.000000 0.000000 -0.000000
vn 1.000000 0.000000 -0.000000
vn 0.000000 1.000000 0.000000
vn 0.000000 1.000000 0.000000
vn 0.000000 1.000000 0.000000
vn 0.000000 1.000000 0.000000
vn 0.645253 0.014256 0.763836
vn 0.645253 0.014256 0.763836
vn 0.645253 0.014256 0.763836
vn 0.645253 0.014256 0.763836
vn -0.010358 0.650974 0.759029
vn -0.010358 0.650974 0.759029
vn -0.010358 0.650974 0.759029
vn -0.010358 0.650974 0.759029
vn 0.012273 0.670028 -0.742235
vn 0.012273 0.670028 -0.742235
vn 0.012273 0.670028 -0.742235
vn 0.012273 0.670028 -0.742235
vn 0.652862 -0.016690 -0.757293
vn 0.652862 -0.016690 -0.757293
vn 0.652862 -0.016690 -0.757293
vn 0.652862 -0.016690 -0.757293
vn -1.000000 0.000000 0.000000
vn -1.000000 0.000000 0.000000
vn -1.000000 0.000000 0.000000
vn -1.000000 0.000000 0.000000
vn 0.000000 -1.000000 0.000000
vn 0.000000 -1.000000 0.000000
vn 0.000000 -1.000000 0.000000
vn 0.000000 -1.000000 0.000000
vn -0.011468 -0.571172 0.820750
vn -0.011468 -0.571172 0.820750
vn -0.011468 -0.571172 0.820750
vn -0.011468 -0.571172 0.820750
vn -0.592067 -0.009257 0.805836
vn -0.592067 -0.009257 0.805836
vn -0.592067 -0.009257 0.805836
vn -0.592067 -0.009257 0.805836
vn -0.631341 -0.017476 -0.775309
vn -0.631341 -0.017476 -0.775309
vn -0.631341 -0.017476 -0.775309
vn -0.631341 -0.017476 -0.775309
vn -0.003053 -0.609089 -0.793096
vn -0.003053 -0.609089 -0.793096
vn -0.003053 -0.609089 -0.793096
vn -0.003053 -0.609089 -0.793096
vn -0.000000 0.000000 -1.000000
vn -0.000000 0.000000 -1.000000
vn -0.000000 0.000000 -1.000000
vn 0.000000 0.000000 1.000000
vn 0.000000 0.000000 1.000000
vn 0.000000 0.000000 1.000000
s off
f 5/16/1 19/19/2 20/20/3
f 3/7/4 17/17/5 18/18/6
f 9/9/7 10/2/8 21/21/9 22/22/10
f 10/2/11 9/9/12 23/23/13 24/24/14
f 11/8/15 12/11/16 29/29/17 30/30/18
f 13/6/19 14/13/20 31/31/21 32/32/22
f 3/7/23 18/18/24 21/21/25 10/2/26
f 1/1/27 25/25/28 32/32/29 15/4/30
f 2/3/31 26/26/32 30/30/33 13/6/34
f 4/5/35 17/17/36 24/24/37 11/8/38
f 12/11/39 23/23/40 20/20/41 8/10/42
f 14/13/43 29/29/44 28/28/45 7/12/46
f 16/15/47 31/31/48 27/27/49 6/14/50
f 9/9/51 22/22/52 19/19/53 5/16/54
f 8/10/55 20/20/56 28/28/57
f 28/28/58 20/20/59 19/19/60 27/27/61
f 19/19/62 6/14/63 27/27/64
f 4/5/65 26/26/66 17/17/67
f 18/18/68 17/17/69 26/26/70 25/25/71
f 18/18/72 25/25/73 1/1/74
f 22/22/75 21/21/76 15/4/77 16/15/78
f 24/24/79 23/23/80 12/11/81 11/8/82
f 21/21/83 18/18/84 1/1/85 15/4/86
f 24/24/87 17/17/88 3/7/89 10/2/90
f 20/20/91 23/23/92 9/9/93 5/16/94
f 19/19/95 22/22/96 16/15/97 6/14/98
f 30/30/99 29/29/100 14/13/101 13/6/102
f 32/32/103 31/31/104 16/15/105 15/4/106
f 32/32/107 25/25/108 2/3/109 13/6/110
f 30/30/111 26/26/112 4/5/113 11/8/114
f 28/28/115 29/29/116 12/11/117 8/10/118
f 27/27/119 31/31/120 14/13/121 7/12/122
f 28/28/123 27/27/124 7/12/125
f 25/25/126 26/26/127 2/3/128
