# This file uses centimeters as units for non-parametric coordinates.

v -3.750941 15.677097 3.858496
v -4.504229 -12.660423 3.858496
v -14.148318 -17.965582 3.858496
v -6.657859 -17.480543 3.858496
v -7.570729 15.275616 3.858496
v -17.384735 -12.432419 3.858496
v -14.610184 -7.536317 3.858496
v -8.324855 -8.611849 3.858496
v -7.507011 10.077114 3.858496
v -3.750942 12.791355 3.858496
v 17.960766 17.967964 3.858496
v 17.960766 -11.282422 3.858496
v 8.493518 -15.242788 3.858496
v 15.938219 -15.815037 3.858496
v 12.858456 16.905426 3.858496
v 5.756819 -11.054419 3.858496
v 8.251760 -6.174971 3.858496
v 14.207916 -6.748887 3.858496
v 14.785102 15.272441 3.858496
v 17.606276 9.818956 3.858496
v -14.989068 -19.033178 0.000000
v -6.396273 -19.035702 0.000000
v -8.255330 16.183363 0.000000
v -3.973831 16.879053 0.000000
v -2.900868 -13.412764 0.000000
v -19.028084 -13.171210 0.000000
v -15.478379 -5.964236 0.000000
v -9.684668 -6.937281 0.000000
v -8.520528 10.675943 0.000000
v -2.777434 11.673707 0.000000
v 19.028084 19.035702 0.000000
v 19.028082 13.970209 0.000000
v 8.292552 -17.655176 0.000000
v 16.885347 -17.657701 0.000000
v 14.608401 18.718607 0.000000
v 19.028084 -12.034762 0.000000
v 4.253536 -11.793209 0.000000
v 7.803241 -4.586235 0.000000
v 12.710732 -5.559280 0.000000
v 14.086037 13.220786 0.000000
v -3.750941 15.677097 -3.858496
v -4.504229 -12.660423 -3.858496
v -14.148318 -17.965582 -3.858496
v -6.657859 -17.480543 -3.858496
v -7.570729 15.275616 -3.858496
v -17.384735 -12.432419 -3.858496
v -14.610184 -7.536317 -3.858496
v -8.324855 -8.611849 -3.858496
v -7.507011 10.077114 -3.858496
v -3.750942 12.791355 -3.858496
v 17.960766 17.967964 -3.858496
v 17.960766 -11.282422 -3.858496
v 8.493518 -15.242788 -3.858496
v 15.938219 -15.815037 -3.858496
v 12.858456 16.905426 -3.858496
v 5.756819 -11.054419 -3.858496
v 8.251760 -6.174971 -3.858496
v 14.207916 -6.748887 -3.858496
v 14.785102 15.272441 -3.858496
v 17.606276 9.818956 -3.858496
vt 0.664965 0.985108
vt 0.664965 0.983494
vt 0.664965 0.984336
vt 0.664965 0.985233
vt 0.664965 0.977690
vt 0.664965 0.976433
vt 0.664965 0.985614
vt 0.664965 0.985107
vt 0.664965 0.983414
vt 0.664965 0.985944
vt 0.664965 0.978269
vt 0.664965 0.976861
vt 0.664965 0.974936
vt 0.664965 0.974786
vt 0.670876 0.974454
vt 0.670876 0.974453
vt 0.670876 0.985606
vt 0.670876 0.985390
vt 0.670876 0.976200
vt 0.664965 0.976504
vt 0.670876 0.976274
vt 0.664965 0.978024
vt 0.670876 0.978512
vt 0.670876 0.978210
vt 0.670876 0.983680
vt 0.670876 0.983989
vt 0.670876 0.984703
vt 0.670876 0.986276
vt 0.664965 0.975454
vt 0.664965 0.975631
vt 0.670876 0.974882
vt 0.670876 0.974881
vt 0.670876 0.986177
vt 0.670876 0.976627
vt 0.664965 0.976932
vt 0.670876 0.976702
vt 0.664965 0.978447
vt 0.670876 0.978940
vt 0.670876 0.978638
vt 0.670876 0.984470
vt 0.676787 0.985108
vt 0.676787 0.985233
vt 0.676787 0.984336
vt 0.676787 0.983494
vt 0.676787 0.976433
vt 0.676787 0.977690
vt 0.676787 0.985614
vt 0.676787 0.985944
vt 0.676787 0.983414
vt 0.676787 0.985107
vt 0.676787 0.976861
vt 0.676787 0.978269
vt 0.676787 0.974936
vt 0.676787 0.974786
vt 0.676787 0.976504
vt 0.676787 0.978024
vt 0.676787 0.975454
vt 0.676787 0.975631
vt 0.676787 0.976932
vt 0.676787 0.978447
vn -0.000000 0.000000 1.000000
vn -0.000000 0.000000 1.000000
vn -0.000000 0.000000 1.000000
vn -0.000000 0.000000 1.000000
vn -0.000000 0.000000 1.000000
vn -0.000000 0.000000 1.000000
vn 0.000000 0.000000 1.000000
vn 0.000000 0.000000 1.000000
vn 0.000000 0.000000 1.000000
vn -0.000000 0.000000 1.000000
vn -0.000000 0.000000 1.000000
vn -0.000000 0.000000 1.000000
vn -0.000000 0.000000 1.000000
vn -0.000000 0.000000 1.000000
vn -0.000000 0.000000 1.000000
vn -0.000000 0.000000 1.000000
vn -0.000000 0.000000 1.000000
vn 0.000000 0.000000 1.000000
vn 0.000000 0.000000 1.000000
vn 0.000000 0.000000 1.000000
vn 0.028413 -0.947076 0.319748
vn 0.028413 -0.947076 0.319748
vn 0.028413 -0.947076 0.319748
vn 0.028413 -0.947076 0.319748
vn -0.129009 0.952579 0.275591
vn -0.089960 0.937617 0.335829
vn -0.090365 0.937798 0.335216
vn -0.129009 0.952579 0.275591
vn 0.940206 -0.093476 0.327529
vn 0.828925 -0.448396 0.334401
vn 0.828925 -0.448396 0.334401
vn 0.938430 -0.106694 0.328581
vn -0.783305 -0.500116 0.369212
vn -0.783305 -0.500116 0.369212
vn -0.783305 -0.500116 0.369212
vn -0.783305 -0.500116 0.369212
vn -0.839515 0.438674 0.320594
vn -0.839514 0.438674 0.320594
vn -0.839514 0.438674 0.320594
vn -0.839515 0.438674 0.320594
vn 0.156997 0.925703 0.344129
vn 0.156997 0.925703 0.344129
vn 0.156997 0.925703 0.344129
vn 0.156997 0.925703 0.344129
vn -0.950136 0.051874 0.307492
vn -0.955784 0.045456 0.290536
vn -0.957520 0.043397 0.285083
vn -0.950136 0.051874 0.307492
vn -0.955784 0.045456 0.290536
vn -0.975711 0.018362 0.218289
vn -0.975711 0.018362 0.218289
vn -0.957520 0.043397 0.285083
vn 0.947185 -0.016431 0.320267
vn 0.940206 -0.093476 0.327529
vn 0.938430 -0.106694 0.328581
vn 0.947185 -0.016431 0.320267
vn 0.956343 -0.025655 0.291119
vn 0.951284 0.004425 0.308283
vn 0.953491 -0.007858 0.301320
vn 0.956343 -0.025655 0.291119
vn -0.031415 -0.876551 0.480282
vn -0.031415 -0.876551 0.480282
vn -0.031415 -0.876552 0.480282
vn -0.031415 -0.876551 0.480282
vn -0.088559 0.935221 0.342810
vn -0.136684 0.943369 0.302280
vn -0.136684 0.943369 0.302280
vn -0.099054 0.937313 0.334115
vn 0.946152 -0.054496 0.319102
vn 0.867961 -0.355993 0.346283
vn 0.867961 -0.355993 0.346283
vn 0.943982 -0.073472 0.321713
vn -0.766814 -0.516969 0.380446
vn -0.766814 -0.516969 0.380447
vn -0.766814 -0.516969 0.380446
vn -0.766814 -0.516969 0.380446
vn -0.862266 0.431235 0.265583
vn -0.862266 0.431235 0.265583
vn -0.862266 0.431235 0.265582
vn -0.862266 0.431235 0.265582
vn 0.134234 0.942669 0.305544
vn 0.134234 0.942669 0.305544
vn 0.134234 0.942669 0.305544
vn 0.134234 0.942669 0.305544
vn -0.962129 0.046041 0.268678
vn -0.962129 0.046041 0.268678
vn -0.962129 0.046041 0.268678
vn -0.962129 0.046041 0.268678
vn 0.951284 0.004425 0.308283
vn 0.946152 -0.054496 0.319102
vn 0.943982 -0.073472 0.321713
vn 0.953491 -0.007858 0.301320
vn 0.104534 -0.918647 0.380999
vn 0.104534 -0.918647 0.380999
vn 0.104534 -0.918647 0.380999
vn 0.104534 -0.918647 0.380999
vn -0.089960 0.937617 0.335829
vn -0.088559 0.935221 0.342810
vn -0.099054 0.937313 0.334115
vn -0.090365 0.937798 0.335216
vn 0.000000 0.000000 1.000000
vn 0.000000 0.000000 1.000000
vn 0.000000 0.000000 1.000000
vn -0.000000 0.000000 1.000000
vn -0.000000 0.000000 1.000000
vn -0.000000 0.000000 1.000000
vn -0.000000 0.000000 1.000000
vn -0.000000 0.000000 1.000000
vn -0.000000 0.000000 1.000000
vn -0.000000 0.000000 1.000000
vn -0.000000 0.000000 1.000000
vn -0.000000 0.000000 1.000000
vn 0.000000 0.000000 1.000000
vn -0.000000 0.000000 1.000000
vn -0.000000 0.000000 1.000000
vn -0.000000 0.000000 1.000000
vn 0.000000 0.000000 -1.000000
vn 0.000000 0.000000 -1.000000
vn 0.000000 0.000000 -1.000000
vn 0.000000 0.000000 -1.000000
vn 0.000000 0.000000 -1.000000
vn 0.000000 0.000000 -1.000000
vn 0.000000 0.000000 -1.000000
vn 0.000000 0.000000 -1.000000
vn 0.000000 0.000000 -1.000000
vn 0.000000 0.000000 -1.000000
vn 0.000000 0.000000 -1.000000
vn 0.000000 0.000000 -1.000000
vn 0.000000 0.000000 -1.000000
vn -0.000000 0.000000 -1.000000
vn 0.000000 0.000000 -1.000000
vn 0.000000 0.000000 -1.000000
vn 0.000000 0.000000 -1.000000
vn 0.000000 0.000000 -1.000000
vn 0.000000 0.000000 -1.000000
vn 0.000000 0.000000 -1.000000
vn 0.028413 -0.947076 -0.319748
vn 0.028413 -0.947076 -0.319748
vn 0.028413 -0.947076 -0.319748
vn 0.028413 -0.947077 -0.319748
vn -0.129009 0.952579 -0.275591
vn -0.129009 0.952579 -0.275591
vn -0.090365 0.937798 -0.335216
vn -0.089960 0.937617 -0.335829
vn 0.940206 -0.093476 -0.327529
vn 0.938430 -0.106694 -0.328581
vn 0.828925 -0.448396 -0.334401
vn 0.828925 -0.448396 -0.334401
vn -0.783305 -0.500116 -0.369213
vn -0.783305 -0.500116 -0.369213
vn -0.783305 -0.500116 -0.369213
vn -0.783305 -0.500116 -0.369213
vn -0.839515 0.438674 -0.320594
vn -0.839515 0.438674 -0.320594
vn -0.839514 0.438674 -0.320594
vn -0.839514 0.438674 -0.320594
vn 0.156997 0.925703 -0.344129
vn 0.156997 0.925703 -0.344129
vn 0.156997 0.925703 -0.344129
vn 0.156997 0.925703 -0.344129
vn -0.950136 0.051874 -0.307492
vn -0.950136 0.051874 -0.307492
vn -0.957520 0.043397 -0.285083
vn -0.955784 0.045456 -0.290536
vn -0.955784 0.045456 -0.290536
vn -0.957520 0.043397 -0.285083
vn -0.975711 0.018362 -0.218289
vn -0.975711 0.018362 -0.218289
vn 0.947185 -0.016431 -0.320267
vn 0.947185 -0.016431 -0.320267
vn 0.938430 -0.106694 -0.328581
vn 0.940206 -0.093476 -0.327529
vn 0.956343 -0.025655 -0.291119
vn 0.956343 -0.025655 -0.291119
vn 0.953491 -0.007858 -0.301320
vn 0.951284 0.004425 -0.308283
vn -0.031415 -0.876551 -0.480282
vn -0.031415 -0.876551 -0.480282
vn -0.031415 -0.876551 -0.480282
vn -0.031415 -0.876551 -0.480282
vn -0.088560 0.935221 -0.342810
vn -0.099054 0.937313 -0.334115
vn -0.136684 0.943369 -0.302280
vn -0.136684 0.943369 -0.302280
vn 0.946152 -0.054496 -0.319102
vn 0.943982 -0.073472 -0.321713
vn 0.867961 -0.355993 -0.346283
vn 0.867961 -0.355993 -0.346283
vn -0.766814 -0.516969 -0.380446
vn -0.766814 -0.516969 -0.380446
vn -0.766814 -0.516969 -0.380446
vn -0.766814 -0.516969 -0.380446
vn -0.862266 0.431235 -0.265583
vn -0.862266 0.431235 -0.265582
vn -0.862266 0.431235 -0.265582
vn -0.862266 0.431235 -0.265583
vn 0.134234 0.942669 -0.305543
vn 0.134234 0.942669 -0.305543
vn 0.134234 0.942669 -0.305544
vn 0.134234 0.942669 -0.305544
vn -0.962129 0.046041 -0.268678
vn -0.962129 0.046041 -0.268678
vn -0.962129 0.046041 -0.268678
vn -0.962129 0.046041 -0.268678
vn 0.951284 0.004425 -0.308283
vn 0.953491 -0.007858 -0.301320
vn 0.943982 -0.073472 -0.321713
vn 0.946152 -0.054496 -0.319102
vn 0.104534 -0.918647 -0.380999
vn 0.104534 -0.918647 -0.380999
vn 0.104534 -0.918647 -0.380999
vn 0.104534 -0.918647 -0.380999
vn -0.089960 0.937617 -0.335829
vn -0.090365 0.937798 -0.335216
vn -0.099054 0.937313 -0.334115
vn -0.088560 0.935221 -0.342810
vn 0.000000 0.000000 -1.000000
vn -0.000000 0.000000 -1.000000
vn -0.000000 0.000000 -1.000000
vn 0.000000 0.000000 -1.000000
vn 0.000000 0.000000 -1.000000
vn -0.000000 0.000000 -1.000000
vn -0.000000 0.000000 -1.000000
vn -0.000000 0.000000 -1.000000
vn -0.000000 0.000000 -1.000000
vn 0.000000 0.000000 -1.000000
vn -0.000000 0.000000 -1.000000
vn 0.000000 0.000000 -1.000000
vn -0.000000 0.000000 -1.000000
vn -0.000000 0.000000 -1.000000
vn -0.000000 0.000000 -1.000000
vn -0.000000 0.000000 -1.000000
s off
f 5/1/1 9/2/2 10/3/3 1/4/4
f 10/3/5 9/2/6 8/5/7 2/6/8
f 15/7/9 19/8/10 20/9/11 11/10/12
f 20/9/13 19/8/14 18/11/15 12/12/16
f 19/8/17 15/7/18 1/4/19 10/3/20
f 4/13/21 3/14/22 21/15/23 22/16/24
f 5/1/25 1/4/26 24/17/27 23/18/28
f 2/6/29 4/13/30 22/16/31 25/19/32
f 3/14/33 6/20/34 26/21/35 21/15/36
f 6/20/37 7/22/38 27/23/39 26/21/40
f 7/22/41 8/5/42 28/24/43 27/23/44
f 8/5/45 9/2/46 29/25/47 28/24/48
f 9/2/49 5/1/50 23/18/51 29/25/52
f 10/3/53 2/6/54 25/19/55 30/26/56
f 11/10/57 20/9/58 32/27/59 31/28/60
f 14/29/61 13/30/62 33/31/63 34/32/64
f 15/7/65 11/10/66 31/28/67 35/33/68
f 12/12/69 14/29/70 34/32/71 36/34/72
f 13/30/73 16/35/74 37/36/75 33/31/76
f 16/35/77 17/37/78 38/38/79 37/36/80
f 17/37/81 18/11/82 39/39/83 38/38/84
f 18/11/85 19/8/86 40/40/87 39/39/88
f 20/9/89 12/12/90 36/34/91 32/27/92
f 19/8/93 10/3/94 30/26/95 40/40/96
f 1/4/97 15/7/98 35/33/99 24/17/100
f 2/6/101 8/5/102 7/22/103 6/20/104 4/13/105
f 12/12/106 18/11/107 17/37/108 16/35/109 14/29/110
f 14/29/111 16/35/112 13/30/113
f 4/13/114 6/20/115 3/14/116
f 45/41/117 41/42/118 50/43/119 49/44/120
f 50/43/121 42/45/122 48/46/123 49/44/124
f 55/47/125 51/48/126 60/49/127 59/50/128
f 60/49/129 52/51/130 58/52/131 59/50/132
f 59/50/133 50/43/134 41/42/135 55/47/136
f 44/53/137 22/16/138 21/15/139 43/54/140
f 45/41/141 23/18/142 24/17/143 41/42/144
f 42/45/145 25/19/146 22/16/147 44/53/148
f 43/54/149 21/15/150 26/21/151 46/55/152
f 46/55/153 26/21/154 27/23/155 47/56/156
f 47/56/157 27/23/158 28/24/159 48/46/160
f 48/46/161 28/24/162 29/25/163 49/44/164
f 49/44/165 29/25/166 23/18/167 45/41/168
f 50/43/169 30/26/170 25/19/171 42/45/172
f 51/48/173 31/28/174 32/27/175 60/49/176
f 54/57/177 34/32/178 33/31/179 53/58/180
f 55/47/181 35/33/182 31/28/183 51/48/184
f 52/51/185 36/34/186 34/32/187 54/57/188
f 53/58/189 33/31/190 37/36/191 56/59/192
f 56/59/193 37/36/194 38/38/195 57/60/196
f 57/60/197 38/38/198 39/39/199 58/52/200
f 58/52/201 39/39/202 40/40/203 59/50/204
f 60/49/205 32/27/206 36/34/207 52/51/208
f 59/50/209 40/40/210 30/26/211 50/43/212
f 41/42/213 24/17/214 35/33/215 55/47/216
f 42/45/217 44/53/218 46/55/219 47/56/220 48/46/221
f 52/51/222 54/57/223 56/59/224 57/60/225 58/52/226
f 54/57/227 53/58/228 56/59/229
f 44/53/230 43/54/231 46/55/232
