# This file uses centimeters as units for non-parametric coordinates.

v 20.000000 7.649000 0.000000
v -3.587466 -20.000000 0.000000
v -20.000000 -7.806721 0.000000
v -15.124497 -1.210366 -0.000000
v 18.359756 13.575456 0.000000
v 9.134885 16.880098 -0.000000
v -2.128524 -20.000000 -0.000000
v -14.696467 -0.472872 0.000000
v 17.933884 14.065347 -0.000000
v 10.057588 16.880098 0.000000
v -2.975439 -8.002089 4.000000
v -3.186368 -18.313072 4.000000
v -13.874479 -0.906061 4.000000
v -18.391205 -7.017036 4.000000
v -1.834779 -18.313072 4.000000
v -1.761986 -8.002089 4.000000
v 17.145897 12.791780 4.000000
v 18.665443 7.301409 4.000000
v 9.054964 13.134644 4.000000
v -10.257233 -0.809194 4.000000
v -2.246943 -5.696018 4.000000
v 13.770262 11.590414 4.000000
v -13.477935 -0.222834 4.000000
v -12.003987 -0.740511 4.000000
v -11.782730 -0.218425 4.000000
v -2.808359 -6.674860 4.000000
v -2.017967 -6.493447 4.000000
v 16.751373 13.245622 4.000000
v 14.985935 12.792445 4.000000
v 15.131159 12.366236 4.000000
v 9.454637 15.853261 4.000000
v 9.245907 14.952785 4.000000
v 8.599839 15.853261 4.000000
v 8.737235 14.648915 4.000000
v -2.975439 -8.002089 -4.000000
v -3.186368 -18.313072 -4.000000
v -13.874479 -0.906061 -4.000000
v -18.391205 -7.017036 -4.000000
v -1.834779 -18.313072 -4.000000
v -1.761986 -8.002089 -4.000000
v 17.145897 12.791780 -4.000000
v 18.665443 7.301409 -4.000000
v 9.054964 13.134644 -4.000000
v -10.257233 -0.809194 -4.000000
v -2.246943 -5.696018 -4.000000
v 13.770262 11.590414 -4.000000
v -13.477935 -0.222834 -4.000000
v -12.003987 -0.740511 -4.000000
v -11.782730 -0.218425 -4.000000
v -2.808359 -6.674860 -4.000000
v -2.017967 -6.493447 -4.000000
v 16.751373 13.245622 -4.000000
v 14.985935 12.792445 -4.000000
v 15.131159 12.366236 -4.000000
v 9.454637 15.853261 -4.000000
v 9.245907 14.952785 -4.000000
v 8.599839 15.853261 -4.000000
v 8.737235 14.648915 -4.000000
vt 0.139991 0.953189
vt 0.108628 0.921453
vt 0.108615 0.920860
vt 0.140627 0.986101
vt 0.140382 0.986291
vt 0.139798 0.985734
vt 0.140026 0.985652
vt 0.140041 0.953013
vt 0.140743 0.953682
vt 0.140750 0.954013
vt 0.109138 0.920453
vt 0.109396 0.920803
vt 0.140719 0.953980
vt 0.140359 0.986268
vt 0.140715 0.953655
vt 0.140603 0.986083
vt 0.139820 0.985726
vt 0.140001 0.985661
vt 0.140603 0.986083
vt 0.140627 0.986101
vt 0.140382 0.986291
vt 0.140359 0.986268
vt 0.139798 0.985734
vt 0.139820 0.985726
vt 0.140001 0.985661
vt 0.140026 0.985652
vt 0.140615 0.986092
vt 0.140371 0.986280
vt 0.139809 0.985730
vt 0.140013 0.985657
vt 0.146996 0.944785
vt 0.147017 0.944799
vt 0.146986 0.944847
vt 0.148184 0.945349
vt 0.147739 0.945759
vt 0.118043 0.918982
vt 0.118068 0.918899
vt 0.118154 0.919041
vt 0.119044 0.918427
vt 0.119004 0.918683
vt 0.110425 0.932288
vt 0.109776 0.931306
vt 0.109805 0.931322
vt 0.110762 0.932303
vt 0.110987 0.933026
vt 0.148561 0.945698
vt 0.109138 0.920453
vt 0.109396 0.920803
vt 0.108628 0.921453
vt 0.140750 0.954013
vt 0.140719 0.953980
vt 0.139991 0.953189
vt 0.140041 0.953013
vt 0.140603 0.986083
vt 0.140627 0.986101
vt 0.139798 0.985734
vt 0.139820 0.985726
vt 0.140001 0.985661
vt 0.140026 0.985652
vt 0.108628 0.921453
vt 0.108615 0.920860
vt 0.109138 0.920453
vt 0.109396 0.920803
vt 0.140719 0.953980
vt 0.140715 0.953655
vt 0.140743 0.953682
vt 0.140750 0.954013
vt 0.139991 0.953189
vt 0.140041 0.953013
vt 0.140013 0.985657
vt 0.140615 0.986092
vt 0.140371 0.986280
vt 0.139809 0.985730
vt 0.140603 0.986083
vt 0.140627 0.986101
vt 0.140627 0.986101
vt 0.140603 0.986083
vt 0.140382 0.986291
vt 0.140382 0.986291
vt 0.140359 0.986268
vt 0.140359 0.986268
vt 0.139798 0.985734
vt 0.139820 0.985726
vt 0.139820 0.985726
vt 0.139798 0.985734
vt 0.140001 0.985661
vt 0.140001 0.985661
vt 0.140026 0.985652
vt 0.140026 0.985652
vt 0.148184 0.945349
vt 0.148561 0.945698
vt 0.147739 0.945759
vt 0.110987 0.933026
vt 0.110425 0.932288
vt 0.110762 0.932303
vt 0.118043 0.918982
vt 0.118068 0.918899
vt 0.118154 0.919041
vt 0.119044 0.918427
vt 0.119004 0.918683
vt 0.146996 0.944785
vt 0.147017 0.944799
vt 0.146986 0.944847
vt 0.109776 0.931306
vt 0.109805 0.931322
vt 0.109138 0.920453
vt 0.109396 0.920803
vt 0.108628 0.921453
vt 0.140750 0.954013
vt 0.140719 0.953980
vt 0.139991 0.953189
vt 0.140041 0.953013
vt 0.140603 0.986083
vt 0.140627 0.986101
vt 0.139798 0.985734
vt 0.139820 0.985726
vt 0.140001 0.985661
vt 0.140026 0.985652
vn 0.000000 0.000000 1.000000
vn 0.000000 0.000000 1.000000
vn 0.000000 0.000000 1.000000
vn 0.000000 0.000000 1.000000
vn 0.000000 0.000000 1.000000
vn 0.000000 0.000000 1.000000
vn 0.000000 0.000000 1.000000
vn 0.000000 0.000000 1.000000
vn 0.000000 0.000000 1.000000
vn 0.000000 0.000000 1.000000
vn 0.000000 0.000000 1.000000
vn 0.000000 0.000000 1.000000
vn 0.000000 0.000000 1.000000
vn 0.000000 0.000000 1.000000
vn 0.000000 0.000000 1.000000
vn 0.000000 0.000000 1.000000
vn 0.000000 0.000000 1.000000
vn 0.000000 0.000000 1.000000
vn 0.000000 0.000000 1.000000
vn 0.000000 0.000000 1.000000
vn 0.000000 0.000000 1.000000
vn 0.000000 0.000000 1.000000
vn 0.000000 0.000000 1.000000
vn 0.000000 0.000000 1.000000
vn 0.000000 0.000000 1.000000
vn 0.000000 0.000000 1.000000
vn 0.000000 0.000000 1.000000
vn 0.000000 0.000000 1.000000
vn 0.000000 0.000000 1.000000
vn 0.000000 0.000000 1.000000
vn 0.000000 0.000000 1.000000
vn 0.000000 0.000000 1.000000
vn 0.000000 0.000000 1.000000
vn 0.000000 0.000000 1.000000
vn 0.000000 0.000000 1.000000
vn 0.000000 0.000000 1.000000
vn 0.000000 0.000000 1.000000
vn 0.000000 0.000000 1.000000
vn 0.000000 0.000000 1.000000
vn 0.000000 0.000000 1.000000
vn 0.000000 0.000000 1.000000
vn 0.000000 0.000000 1.000000
vn 0.000000 0.000000 1.000000
vn 0.000000 0.000000 1.000000
vn -0.000000 0.000000 1.000000
vn -0.000000 0.000000 1.000000
vn -0.000000 0.000000 1.000000
vn -0.000000 0.000000 1.000000
vn 0.000000 0.000000 1.000000
vn 0.000000 0.000000 1.000000
vn 0.000000 0.000000 1.000000
vn -0.000000 0.000000 1.000000
vn -0.000000 0.000000 1.000000
vn -0.000000 0.000000 1.000000
vn -0.000000 0.000000 1.000000
vn 0.000000 0.000000 1.000000
vn 0.000000 0.000000 1.000000
vn 0.000000 0.000000 1.000000
vn 0.000000 0.000000 1.000000
vn 0.000000 0.000000 1.000000
vn 0.000000 0.000000 1.000000
vn 0.000000 0.000000 1.000000
vn 0.000000 0.000000 1.000000
vn 0.000000 0.000000 1.000000
vn 0.000000 0.000000 1.000000
vn 0.000000 0.000000 1.000000
vn 0.000000 0.000000 1.000000
vn 0.000000 0.000000 1.000000
vn 0.000000 0.000000 1.000000
vn 0.000000 0.000000 1.000000
vn 0.000000 0.000000 1.000000
vn 0.000000 0.000000 1.000000
vn 0.000000 0.000000 1.000000
vn 0.000000 0.000000 1.000000
vn 0.000000 0.000000 1.000000
vn 0.000000 0.000000 1.000000
vn -0.787628 0.582150 0.201852
vn -0.787628 0.582150 0.201852
vn -0.787628 0.582150 0.201852
vn -0.787628 0.582150 0.201852
vn -0.554024 -0.745734 0.370053
vn -0.554024 -0.745734 0.370053
vn -0.554024 -0.745734 0.370053
vn -0.554024 -0.745734 0.370053
vn 0.000000 -0.921411 0.388589
vn 0.000000 -0.921411 0.388589
vn 0.000000 -0.921411 0.388589
vn 0.000000 -0.921411 0.388589
vn 0.911149 0.252175 0.325908
vn 0.911149 0.252175 0.325908
vn 0.911149 0.252175 0.325908
vn 0.911149 0.252175 0.325908
vn 0.764656 -0.611982 0.201939
vn 0.764656 -0.611982 0.201939
vn 0.764656 -0.611982 0.201939
vn 0.764656 -0.611982 0.201939
vn -0.842490 0.488975 0.226084
vn -0.842490 0.488975 0.226084
vn -0.842490 0.488975 0.226084
vn -0.842490 0.488975 0.226084
vn 0.710640 0.617766 0.336685
vn 0.710640 0.617766 0.336685
vn 0.710640 0.617766 0.336685
vn 0.710640 0.617766 0.336685
vn 0.322996 0.903813 0.280706
vn 0.322996 0.903813 0.280706
vn 0.322996 0.903813 0.280706
vn 0.322996 0.903813 0.280706
vn 0.000000 0.968594 0.248647
vn 0.000000 0.968594 0.248647
vn 0.000000 0.968594 0.248647
vn 0.000000 0.968594 0.248647
vn -0.583818 0.801774 0.127731
vn -0.583818 0.801774 0.127731
vn -0.583818 0.801774 0.127731
vn -0.583818 0.801774 0.127731
vn 0.000000 0.000000 -1.000000
vn 0.000000 0.000000 -1.000000
vn 0.000000 0.000000 -1.000000
vn 0.000000 0.000000 -1.000000
vn 0.000000 0.000000 -1.000000
vn 0.000000 0.000000 -1.000000
vn 0.000000 0.000000 -1.000000
vn 0.000000 0.000000 -1.000000
vn 0.000000 0.000000 -1.000000
vn 0.000000 0.000000 -1.000000
vn 0.000000 0.000000 -1.000000
vn 0.000000 0.000000 -1.000000
vn -0.000000 0.000000 -1.000000
vn -0.000000 0.000000 -1.000000
vn -0.000000 0.000000 -1.000000
vn -0.000000 0.000000 -1.000000
vn 0.000000 0.000000 -1.000000
vn 0.000000 0.000000 -1.000000
vn 0.000000 0.000000 -1.000000
vn 0.000000 0.000000 -1.000000
vn 0.000000 0.000000 -1.000000
vn 0.000000 0.000000 -1.000000
vn 0.000000 0.000000 -1.000000
vn 0.000000 0.000000 -1.000000
vn 0.000000 0.000000 -1.000000
vn 0.000000 0.000000 -1.000000
vn 0.000000 0.000000 -1.000000
vn 0.000000 0.000000 -1.000000
vn 0.000000 0.000000 -1.000000
vn 0.000000 0.000000 -1.000000
vn 0.000000 0.000000 -1.000000
vn 0.000000 0.000000 -1.000000
vn 0.000000 0.000000 -1.000000
vn 0.000000 0.000000 -1.000000
vn 0.000000 0.000000 -1.000000
vn 0.000000 0.000000 -1.000000
vn 0.000000 0.000000 -1.000000
vn 0.000000 0.000000 -1.000000
vn 0.000000 0.000000 -1.000000
vn 0.000000 0.000000 -1.000000
vn 0.000000 0.000000 -1.000000
vn 0.000000 0.000000 -1.000000
vn 0.000000 0.000000 -1.000000
vn 0.000000 0.000000 -1.000000
vn 0.000000 0.000000 -1.000000
vn 0.000000 0.000000 -1.000000
vn 0.000000 0.000000 -1.000000
vn 0.000000 0.000000 -1.000000
vn 0.000000 0.000000 -1.000000
vn 0.000000 0.000000 -1.000000
vn 0.000000 0.000000 -1.000000
vn 0.000000 0.000000 -1.000000
vn 0.000000 0.000000 -1.000000
vn 0.000000 0.000000 -1.000000
vn 0.000000 0.000000 -1.000000
vn 0.000000 0.000000 -1.000000
vn 0.000000 0.000000 -1.000000
vn 0.000000 0.000000 -1.000000
vn 0.000000 0.000000 -1.000000
vn 0.000000 0.000000 -1.000000
vn 0.000000 0.000000 -1.000000
vn 0.000000 0.000000 -1.000000
vn 0.000000 0.000000 -1.000000
vn 0.000000 0.000000 -1.000000
vn 0.000000 0.000000 -1.000000
vn 0.000000 0.000000 -1.000000
vn 0.000000 0.000000 -1.000000
vn 0.000000 0.000000 -1.000000
vn 0.000000 0.000000 -1.000000
vn 0.000000 0.000000 -1.000000
vn 0.000000 0.000000 -1.000000
vn 0.000000 0.000000 -1.000000
vn 0.000001 0.000000 -1.000000
vn 0.000001 0.000000 -1.000000
vn 0.000001 0.000000 -1.000000
vn 0.000001 0.000000 -1.000000
vn -0.787628 0.582150 -0.201852
vn -0.787628 0.582150 -0.201852
vn -0.787628 0.582150 -0.201852
vn -0.787628 0.582150 -0.201852
vn -0.554024 -0.745734 -0.370053
vn -0.554024 -0.745734 -0.370053
vn -0.554024 -0.745734 -0.370053
vn -0.554024 -0.745734 -0.370053
vn 0.000000 -0.921411 -0.388589
vn 0.000000 -0.921411 -0.388589
vn 0.000000 -0.921411 -0.388589
vn 0.000000 -0.921411 -0.388589
vn 0.911149 0.252175 -0.325908
vn 0.911149 0.252175 -0.325908
vn 0.911149 0.252175 -0.325908
vn 0.911149 0.252175 -0.325908
vn 0.764656 -0.611982 -0.201939
vn 0.764656 -0.611982 -0.201939
vn 0.764656 -0.611982 -0.201939
vn 0.764656 -0.611982 -0.201939
vn -0.842490 0.488975 -0.226084
vn -0.842490 0.488975 -0.226084
vn -0.842490 0.488975 -0.226084
vn -0.842490 0.488975 -0.226084
vn 0.710639 0.617766 -0.336685
vn 0.710639 0.617766 -0.336685
vn 0.710639 0.617766 -0.336685
vn 0.710639 0.617766 -0.336685
vn 0.322996 0.903813 -0.280706
vn 0.322996 0.903813 -0.280706
vn 0.322996 0.903813 -0.280706
vn 0.322996 0.903813 -0.280706
vn 0.000000 0.968594 -0.248647
vn 0.000000 0.968594 -0.248647
vn 0.000000 0.968594 -0.248647
vn 0.000000 0.968594 -0.248647
vn -0.583818 0.801774 -0.127731
vn -0.583818 0.801774 -0.127731
vn -0.583818 0.801774 -0.127731
vn -0.583818 0.801774 -0.127731
s off
f 12/49/1 11/3/2 13/47/3 14/48/4
f 15/51/5 16/15/6 11/9/7 12/50/8
f 18/52/9 17/53/10 16/15/11 15/51/12
f 19/30/13 20/27/14 21/28/15 22/29/16
f 23/54/17 13/55/18 24/20/19 25/19/20
f 13/55/21 11/5/22 26/21/23 24/20/24
f 11/5/25 16/14/26 27/22/27 26/21/28
f 17/56/29 28/57/30 29/24/31 30/23/32
f 28/57/33 31/58/34 32/25/35 29/24/36
f 31/58/37 33/59/38 34/26/39 32/25/40
f 33/59/41 23/54/42 25/19/43 34/26/44
f 16/14/45 17/56/46 30/23/47 27/22/48
f 25/34/49 24/46/50 20/35/51
f 24/20/52 26/21/53 21/28/54 20/27/55
f 26/45/56 27/41/57 21/44/58
f 30/36/59 29/37/60 22/38/61
f 29/37/62 32/39/63 19/40/64 22/38/65
f 32/31/66 34/32/67 19/33/68
f 34/32/69 25/34/70 20/35/71 19/33/72
f 27/41/73 30/42/74 22/43/75 21/44/76
f 4/11/77 3/12/78 14/48/79 13/47/80
f 3/12/81 2/2/82 12/49/83 14/48/84
f 2/10/85 7/13/86 15/51/87 12/50/88
f 1/1/89 5/8/90 17/53/91 18/52/92
f 7/13/93 1/1/94 18/52/95 15/51/96
f 8/16/97 4/4/98 13/55/99 23/54/100
f 5/6/101 9/17/102 28/57/103 17/56/104
f 9/17/105 10/18/106 31/58/107 28/57/108
f 10/18/109 6/7/110 33/59/111 31/58/112
f 6/7/113 8/16/114 23/54/115 33/59/116
f 36/60/117 38/63/118 37/62/119 35/61/120
f 39/64/121 36/67/122 35/66/123 40/65/124
f 42/68/125 39/64/126 40/65/127 41/69/128
f 43/70/129 46/73/130 45/72/131 44/71/132
f 47/74/133 49/77/134 48/76/135 37/75/136
f 37/75/137 48/76/138 50/79/139 35/78/140
f 35/78/141 50/79/142 51/81/143 40/80/144
f 41/82/145 54/85/146 53/84/147 52/83/148
f 52/83/149 53/84/150 56/87/151 55/86/152
f 55/86/153 56/87/154 58/89/155 57/88/156
f 57/88/157 58/89/158 49/77/159 47/74/160
f 40/80/161 51/81/162 54/85/163 41/82/164
f 49/90/165 44/92/166 48/91/167
f 48/76/168 44/71/169 45/72/170 50/79/171
f 50/93/172 45/95/173 51/94/174
f 54/96/175 46/98/176 53/97/177
f 53/97/178 46/98/179 43/100/180 56/99/181
f 56/101/182 43/103/183 58/102/184
f 58/102/185 43/103/186 44/92/187 49/90/188
f 51/94/189 45/95/190 46/105/191 54/104/192
f 4/106/193 37/62/194 38/63/195 3/107/196
f 3/107/197 38/63/198 36/60/199 2/108/200
f 2/109/201 36/67/202 39/64/203 7/110/204
f 1/111/205 42/68/206 41/69/207 5/112/208
f 7/110/209 39/64/210 42/68/211 1/111/212
f 8/113/213 47/74/214 37/75/215 4/114/216
f 5/115/217 41/82/218 52/83/219 9/116/220
f 9/116/221 52/83/222 55/86/223 10/117/224
f 10/117/225 55/86/226 57/88/227 6/118/228
f 6/118/229 57/88/230 47/74/231 8/113/232
