# This file uses centimeters as units for non-parametric coordinates.

v 10.301579 -8.887366 1.000000
v 8.887366 -10.301579 1.000000
v 17.785421 -17.785421 1.000000
v 17.785421 -17.785421 -1.000000
v 10.301579 -8.887366 -1.000000
v 8.887366 -10.301579 -1.000000
v 8.377773 -10.291899 0.000000
v 10.291899 -8.377773 0.000000
v 18.385984 -18.385984 0.000000
v 16.111565 -14.697351 1.000000
v 14.697351 -16.111565 1.000000
v 14.389067 -16.303192 0.000000
v 14.697351 -16.111565 -1.000000
v 16.111565 -14.697351 -1.000000
v 16.303192 -14.389067 0.000000
v 17.111862 -14.162566 -1.000000
v 14.162566 -17.111862 -1.000000
v 13.596593 -17.588436 0.000000
v 14.162566 -17.111862 1.000000
v 17.111862 -14.162566 1.000000
v 17.588436 -13.596593 0.000000
v -4.791620 7.617897 1.000000
v -7.690320 4.719197 1.000000
v -4.791620 7.617897 -1.000000
v -7.690320 4.719197 -1.000000
v -8.941243 5.017879 0.000000
v -5.017879 8.941243 0.000000
v 16.648947 1.418317 1.000000
v -1.418281 -16.649021 1.000000
v -1.886887 -18.143326 0.000000
v -1.418281 -16.649021 -1.000000
v 16.649021 1.418281 -1.000000
v 18.143326 1.886887 0.000000
v -8.784263 9.166211 2.000000
v -7.531690 12.366817 2.000000
v -8.857572 16.152304 2.000000
v -12.529902 17.493244 2.000000
v -16.423994 16.004757 2.000000
v -18.134752 12.607285 2.000000
v -16.467052 8.957337 2.000000
v -12.608004 7.149292 2.000000
v -17.199928 16.845795 0.000000
v -12.754171 18.792019 0.000000
v -8.308413 16.845795 0.000000
v -6.508797 12.428374 0.000000
v -8.080208 8.128721 0.000000
v -12.754170 6.077075 0.000000
v -17.428133 8.128722 0.000000
v -18.999544 12.428373 0.000000
v -8.784263 9.166211 -2.000000
v -7.531690 12.366817 -2.000000
v -8.857572 16.152304 -2.000000
v -12.529902 17.493244 -2.000000
v -16.423994 16.004757 -2.000000
v -18.134752 12.607285 -2.000000
v -16.467052 8.957336 -2.000000
v -12.608004 7.149292 -2.000000
vt 0.145522 0.985019
vt 0.144832 0.984944
vt 0.144838 0.984926
vt 0.145528 0.985000
vt 0.145438 0.984586
vt 0.144750 0.984512
vt 0.144745 0.984531
vt 0.145432 0.984605
vt 0.145323 0.984953
vt 0.144636 0.984879
vt 0.144680 0.985086
vt 0.145367 0.985161
vt 0.144794 0.984719
vt 0.144788 0.984737
vt 0.145477 0.984812
vt 0.145483 0.984793
vt 0.144723 0.985293
vt 0.145412 0.985368
vt 0.145140 0.984405
vt 0.145184 0.984611
vt 0.145229 0.984818
vt 0.145323 0.984953
vt 0.144636 0.984879
vt 0.144680 0.985086
vt 0.145367 0.985161
vt 0.144723 0.985293
vt 0.145412 0.985368
vt 0.144832 0.984944
vt 0.145522 0.985019
vt 0.144788 0.984737
vt 0.144745 0.984531
vt 0.145432 0.984605
vt 0.145477 0.984812
vt 0.139993 0.981632
vt 0.139827 0.981264
vt 0.139991 0.980895
vt 0.140568 0.980846
vt 0.140750 0.981253
vt 0.140696 0.981267
vt 0.140530 0.980895
vt 0.140272 0.980750
vt 0.140260 0.980807
vt 0.139978 0.980846
vt 0.139798 0.981251
vt 0.139980 0.981653
vt 0.140272 0.981750
vt 0.140260 0.981721
vt 0.140566 0.981657
vt 0.140528 0.981636
vt 0.139993 0.981632
vt 0.139991 0.980895
vt 0.139827 0.981264
vt 0.140568 0.980846
vt 0.140530 0.980895
vt 0.140696 0.981267
vt 0.140750 0.981253
vt 0.140272 0.980750
vt 0.140260 0.980807
vt 0.139978 0.980846
vt 0.139798 0.981251
vt 0.139980 0.981653
vt 0.140272 0.981750
vt 0.140260 0.981721
vt 0.140566 0.981657
vt 0.140528 0.981636
vn 0.000000 0.000000 1.000000
vn 0.000000 0.000000 1.000000
vn 0.000000 0.000000 1.000000
vn 0.000000 0.000000 1.000000
vn 0.000000 0.000000 -1.000000
vn 0.000000 0.000000 -1.000000
vn 0.000000 0.000000 -1.000000
vn 0.000000 0.000000 -1.000000
vn -0.663775 0.663775 -0.344681
vn -0.663775 0.663775 -0.344681
vn -0.663775 0.663775 -0.344681
vn -0.663775 0.663775 -0.344681
vn -0.846262 0.491441 -0.205735
vn -0.846262 0.491441 -0.205735
vn -0.846262 0.491441 -0.205735
vn -0.846262 0.491441 -0.205735
vn -0.491441 0.846262 -0.205734
vn -0.491441 0.846262 -0.205734
vn -0.491441 0.846262 -0.205734
vn -0.491441 0.846262 -0.205734
vn -0.663775 0.663775 0.344681
vn -0.663775 0.663775 0.344681
vn -0.663775 0.663775 0.344681
vn -0.663775 0.663775 0.344681
vn -0.491441 0.846262 0.205734
vn -0.491441 0.846262 0.205734
vn -0.491441 0.846262 0.205734
vn -0.491441 0.846262 0.205734
vn -0.846262 0.491441 0.205734
vn -0.846262 0.491441 0.205734
vn -0.846262 0.491441 0.205734
vn -0.846262 0.491441 0.205734
vn 0.000000 0.000000 1.000000
vn 0.000000 0.000000 1.000000
vn 0.000000 0.000000 1.000000
vn 0.000000 0.000000 1.000000
vn -0.666680 -0.666680 0.333282
vn -0.666680 -0.666680 0.333282
vn -0.666680 -0.666680 0.333282
vn -0.666680 -0.666680 0.333282
vn -0.666680 -0.666680 -0.333282
vn -0.666680 -0.666680 -0.333282
vn -0.666680 -0.666680 -0.333282
vn -0.666680 -0.666680 -0.333282
vn 0.000000 0.000000 -1.000000
vn 0.000000 0.000000 -1.000000
vn 0.000000 0.000000 -1.000000
vn 0.000000 0.000000 -1.000000
vn 0.666680 0.666680 -0.333282
vn 0.666680 0.666680 -0.333282
vn 0.666680 0.666680 -0.333282
vn 0.666680 0.666680 -0.333282
vn 0.666680 0.666680 0.333282
vn 0.666680 0.666680 0.333282
vn 0.666680 0.666680 0.333282
vn 0.666680 0.666680 0.333282
vn 0.000000 0.000000 -1.000000
vn 0.000000 0.000000 -1.000000
vn 0.000000 0.000000 -1.000000
vn -0.152362 -0.871251 -0.466591
vn -0.152362 -0.871251 -0.466591
vn -0.152362 -0.871251 -0.466591
vn -0.152362 -0.871251 -0.466591
vn -0.152362 -0.871251 0.466592
vn -0.152362 -0.871251 0.466592
vn -0.152362 -0.871251 0.466592
vn -0.152362 -0.871251 0.466592
vn 0.000000 0.000000 1.000000
vn 0.000000 0.000000 1.000000
vn 0.000000 0.000000 1.000000
vn 0.871250 0.152362 0.466593
vn 0.871250 0.152362 0.466593
vn 0.871250 0.152362 0.466593
vn 0.871250 0.152362 0.466593
vn 0.871250 0.152362 -0.466593
vn 0.871250 0.152362 -0.466593
vn 0.871250 0.152362 -0.466593
vn 0.871250 0.152362 -0.466593
vn -0.476662 0.476662 -0.738638
vn -0.476662 0.476662 -0.738638
vn -0.476662 0.476662 -0.738638
vn -0.476662 0.476662 -0.738638
vn -0.476662 0.476662 0.738638
vn -0.476662 0.476662 0.738638
vn -0.476662 0.476662 0.738638
vn -0.476662 0.476662 0.738638
vn 0.000000 0.000000 1.000000
vn 0.000000 0.000000 1.000000
vn 0.000000 0.000000 1.000000
vn 0.000000 0.000000 1.000000
vn -0.679094 -0.203234 0.705356
vn -0.679094 -0.203234 0.705356
vn -0.679094 -0.203234 0.705356
vn -0.679094 -0.203234 0.705356
vn -0.679094 -0.203234 -0.705356
vn -0.679094 -0.203234 -0.705356
vn -0.679094 -0.203234 -0.705356
vn -0.679094 -0.203234 -0.705356
vn -0.000000 0.000000 -1.000000
vn -0.000000 0.000000 -1.000000
vn -0.000000 0.000000 -1.000000
vn -0.000000 0.000000 -1.000000
vn 0.197486 0.664574 -0.720653
vn 0.197486 0.664574 -0.720653
vn 0.197486 0.664574 -0.720653
vn 0.197486 0.664574 -0.720653
vn 0.197487 0.664576 0.720651
vn 0.197487 0.664576 0.720651
vn 0.197487 0.664576 0.720651
vn 0.197487 0.664576 0.720651
vn 0.572395 -0.572394 0.587137
vn 0.572395 -0.572394 0.587137
vn 0.572395 -0.572394 0.587137
vn 0.572395 -0.572394 0.587137
vn 0.572405 -0.572405 -0.587115
vn 0.572405 -0.572405 -0.587115
vn 0.572405 -0.572405 -0.587115
vn 0.572405 -0.572405 -0.587115
vn 0.000000 -0.000000 1.000000
vn 0.000000 -0.000000 1.000000
vn 0.000000 -0.000000 1.000000
vn -0.834334 0.374775 0.404266
vn -0.834334 0.374775 0.404266
vn -0.834334 0.374775 0.404266
vn -0.834334 0.374775 0.404266
vn -0.328001 0.796421 0.508064
vn -0.328001 0.796421 0.508064
vn -0.328001 0.796421 0.508064
vn -0.328001 0.796421 0.508064
vn 0.336746 0.831639 0.441563
vn 0.336746 0.831639 0.441563
vn 0.336746 0.831639 0.441563
vn 0.336746 0.831639 0.441563
vn 0.857069 0.326563 0.398483
vn 0.857069 0.326563 0.398483
vn 0.857069 0.326563 0.398483
vn 0.857069 0.326563 0.398483
vn 0.840388 -0.316421 0.440028
vn 0.840388 -0.316421 0.440028
vn 0.840388 -0.316421 0.440028
vn 0.840388 -0.316421 0.440028
vn 0.380622 -0.794976 0.472377
vn 0.380622 -0.794976 0.472377
vn 0.380622 -0.794976 0.472377
vn 0.380622 -0.794976 0.472377
vn -0.361559 -0.799336 0.479935
vn -0.361559 -0.799336 0.479935
vn -0.361559 -0.799336 0.479935
vn -0.361559 -0.799336 0.479935
vn -0.822381 -0.335084 0.459792
vn -0.822381 -0.335084 0.459792
vn -0.822381 -0.335084 0.459792
vn -0.822381 -0.335084 0.459792
vn 0.000000 0.000000 1.000000
vn 0.000000 0.000000 1.000000
vn 0.000000 0.000000 1.000000
vn 0.000000 0.000000 1.000000
vn 0.000000 0.000000 1.000000
vn 0.000000 0.000000 1.000000
vn 0.000000 0.000000 1.000000
vn 0.000000 0.000000 1.000000
vn 0.000000 0.000000 1.000000
vn 0.000000 0.000000 1.000000
vn 0.000000 0.000000 1.000000
vn 0.000000 0.000000 -1.000000
vn 0.000000 0.000000 -1.000000
vn 0.000000 0.000000 -1.000000
vn -0.834334 0.374775 -0.404265
vn -0.834334 0.374775 -0.404265
vn -0.834334 0.374775 -0.404265
vn -0.834334 0.374775 -0.404265
vn -0.328001 0.796421 -0.508065
vn -0.328001 0.796421 -0.508065
vn -0.328001 0.796421 -0.508065
vn -0.328001 0.796421 -0.508065
vn 0.336746 0.831639 -0.441563
vn 0.336746 0.831639 -0.441563
vn 0.336746 0.831639 -0.441563
vn 0.336746 0.831639 -0.441563
vn 0.857069 0.326563 -0.398483
vn 0.857069 0.326563 -0.398483
vn 0.857069 0.326563 -0.398483
vn 0.857069 0.326563 -0.398483
vn 0.840388 -0.316421 -0.440028
vn 0.840388 -0.316421 -0.440028
vn 0.840388 -0.316421 -0.440028
vn 0.840388 -0.316421 -0.440028
vn 0.380622 -0.794976 -0.472378
vn 0.380622 -0.794976 -0.472378
vn 0.380622 -0.794976 -0.472378
vn 0.380622 -0.794976 -0.472378
vn -0.361559 -0.799336 -0.479935
vn -0.361559 -0.799336 -0.479935
vn -0.361559 -0.799336 -0.479935
vn -0.361559 -0.799336 -0.479935
vn -0.822381 -0.335084 -0.459792
vn -0.822381 -0.335084 -0.459792
vn -0.822381 -0.335084 -0.459792
vn -0.822381 -0.335084 -0.459792
vn 0.000000 0.000000 -1.000000
vn 0.000000 0.000000 -1.000000
vn 0.000000 0.000000 -1.000000
vn 0.000000 0.000000 -1.000000
vn 0.000000 -0.000000 -1.000000
vn 0.000000 -0.000000 -1.000000
vn 0.000000 -0.000000 -1.000000
vn 0.000000 0.000000 -1.000000
vn 0.000000 0.000000 -1.000000
vn 0.000000 0.000000 -1.000000
vn 0.000000 0.000000 -1.000000
s off
f 10/1/1 11/2/2 19/3/3 20/4/4
f 16/5/5 17/6/6 13/7/7 14/8/8
f 5/9/9 6/10/10 7/11/11 8/12/12
f 17/6/13 18/13/14 12/14/15 13/7/16
f 14/8/17 15/15/18 21/16/19 16/5/20
f 8/12/21 7/11/22 2/17/23 1/18/24
f 20/4/25 21/16/26 15/15/27 10/1/28
f 11/2/29 12/14/30 18/13/31 19/3/32
f 1/18/33 2/17/34 11/2/35 10/1/36
f 2/17/37 7/11/38 12/14/39 11/2/40
f 13/7/41 12/14/42 7/11/43 6/10/44
f 14/8/45 13/7/46 6/10/47 5/9/48
f 5/9/49 8/12/50 15/15/51 14/8/52
f 10/1/53 15/15/54 8/12/55 1/18/56
f 4/19/57 17/6/58 16/5/59
f 9/20/60 18/13/61 17/6/62 4/19/63
f 19/3/64 18/13/65 9/20/66 3/21/67
f 20/4/68 19/3/69 3/21/70
f 9/20/71 21/16/72 20/4/73 3/21/74
f 16/5/75 21/16/76 9/20/77 4/19/78
f 24/22/79 25/23/80 26/24/81 27/25/82
f 27/25/83 26/24/84 23/26/85 22/27/86
f 22/27/87 23/26/88 29/28/89 28/29/90
f 23/26/91 26/24/92 30/30/93 29/28/94
f 31/31/95 30/30/96 26/24/97 25/23/98
f 32/32/99 31/31/100 25/23/101 24/22/102
f 24/22/103 27/25/104 33/33/105 32/32/106
f 28/29/107 33/33/108 27/25/109 22/27/110
f 29/28/111 30/30/112 33/33/113 28/29/114
f 30/30/115 31/31/116 32/32/117 33/33/118
f 34/34/119 35/35/120 36/36/121
f 42/37/122 49/38/123 39/39/124 38/40/125
f 43/41/126 42/37/127 38/40/128 37/42/129
f 44/43/130 43/41/131 37/42/132 36/36/133
f 45/44/134 44/43/135 36/36/136 35/35/137
f 46/45/138 45/44/139 35/35/140 34/34/141
f 47/46/142 46/45/143 34/34/144 41/47/145
f 48/48/146 47/46/147 41/47/148 40/49/149
f 49/38/150 48/48/151 40/49/152 39/39/153
f 41/47/154 37/42/155 38/40/156 40/49/157
f 40/49/158 38/40/159 39/39/160
f 34/34/161 36/36/162 37/42/163 41/47/164
f 50/50/165 52/51/166 51/52/167
f 42/53/168 54/54/169 55/55/170 49/56/171
f 43/57/172 53/58/173 54/54/174 42/53/175
f 44/59/176 52/51/177 53/58/178 43/57/179
f 45/60/180 51/52/181 52/51/182 44/59/183
f 46/61/184 50/50/185 51/52/186 45/60/187
f 47/62/188 57/63/189 50/50/190 46/61/191
f 48/64/192 56/65/193 57/63/194 47/62/195
f 49/56/196 55/55/197 56/65/198 48/64/199
f 57/63/200 56/65/201 54/54/202 53/58/203
f 56/65/204 55/55/205 54/54/206
f 50/50/207 57/63/208 53/58/209 52/51/210
