# This file uses centimeters as units for non-parametric coordinates.

v 0.153732 19.381962 0.000000
v -7.850113 16.985760 -0.000000
v -11.435356 10.038736 0.000000
v -12.231834 -0.621008 0.000000
v -11.354553 -11.453310 -0.000000
v -7.460419 -18.262451 -0.000000
v 1.034698 -20.503557 -0.000000
v 8.051453 -18.433739 -0.000000
v 11.410080 -13.316047 -0.000000
v 12.231842 -7.105154 -0.000000
v 9.946014 1.603348 0.000000
v 1.659180 5.104052 -0.000000
v -1.220642 4.731590 -0.000000
v -1.623962 4.591311 0.000000
v -1.135681 9.178377 0.000000
v 0.094284 10.110771 0.000000
v 0.775665 9.551893 -0.000000
v 1.233932 5.730118 -0.000000
v 12.041031 5.730118 0.000000
v 9.088745 16.045933 0.000000
v 0.388351 -3.980862 0.000000
v 2.150024 -4.789894 0.000000
v 2.639938 -7.430908 0.000000
v 2.148300 -10.426209 0.000000
v 0.414383 -11.407799 -0.000000
v -0.677032 -11.038820 -0.000000
v -1.448303 -9.044377 0.000000
v -1.727234 -4.532931 0.000000
v -1.043137 -4.245896 -0.000000
v 0.165445 17.083374 4.000000
v -6.079741 15.508655 4.000000
v -9.464476 9.942739 4.000000
v -10.558947 -0.903016 4.000000
v -9.750969 -11.071337 4.000000
v -6.608635 -16.843796 4.000000
v 0.942449 -18.842403 4.000000
v 6.657907 -16.279007 4.000000
v 9.807260 -12.573060 4.000000
v 10.120823 -7.321655 4.000000
v 8.534333 0.094881 4.000000
v 1.778939 2.945469 4.000000
v -0.598532 2.309794 4.000000
v -3.784748 1.924933 4.000000
v -3.052328 9.912163 4.000000
v 0.420686 12.580743 4.000000
v 2.294069 11.024020 4.000000
v 3.428750 7.848625 4.000000
v 9.887801 7.358395 4.000000
v 7.733282 14.845312 4.000000
v 1.089074 -1.515581 4.000000
v 4.130235 -3.874213 4.000000
v 4.569812 -7.887082 4.000000
v 4.097385 -11.259493 4.000000
v 0.628031 -13.381451 4.000000
v -2.194816 -12.676970 4.000000
v -3.213495 -9.723768 4.000000
v -3.496302 -3.384654 4.000000
v -1.557568 -2.025350 4.000000
v -0.115039 17.648844 -4.000000
v -6.647172 14.818968 -4.000000
v -9.435832 9.735306 -4.000000
v -10.174302 -0.814627 -4.000000
v -9.195292 -11.035875 -4.000000
v -6.583131 -16.976778 -4.000000
v 0.982095 -18.340258 -4.000000
v 6.549356 -17.154440 -4.000000
v 9.614565 -12.704495 -4.000000
v 9.926361 -7.622627 -4.000000
v 8.708591 0.450538 -4.000000
v 0.965144 2.574440 -4.000000
v -0.775015 2.511500 -4.000000
v -4.280238 1.305894 -4.000000
v -3.455192 10.564436 -4.000000
v 0.225476 12.843370 -4.000000
v 2.364274 10.936931 -4.000000
v 3.186455 7.455562 -4.000000
v 9.376002 7.751582 -4.000000
v 7.710972 14.543328 -4.000000
v 0.847564 -1.519055 -4.000000
v 4.287261 -3.112580 -4.000000
v 4.551544 -7.815525 -4.000000
v 4.456163 -12.060920 -4.000000
v 0.530867 -13.174993 -4.000000
v -2.219084 -13.026971 -4.000000
v -3.158218 -9.174129 -4.000000
v -3.600167 -3.375756 -4.000000
v -1.834682 -2.430436 -4.000000
vt 0.014951 0.949416
vt 0.015216 0.949525
vt 0.015136 0.949646
vt 0.014918 0.949557
vt 0.015324 0.949729
vt 0.015230 0.949817
vt 0.015333 0.949995
vt 0.015242 0.950068
vt 0.015291 0.950233
vt 0.015205 0.950294
vt 0.015169 0.950354
vt 0.015104 0.950396
vt 0.014927 0.950353
vt 0.014897 0.950394
vt 0.014730 0.950273
vt 0.014730 0.950327
vt 0.014630 0.950149
vt 0.014649 0.950225
vt 0.014598 0.950010
vt 0.014621 0.950105
vt 0.014654 0.949821
vt 0.014670 0.949947
vt 0.014905 0.949781
vt 0.014880 0.949915
vt 0.014994 0.949806
vt 0.014946 0.949934
vt 0.015007 0.949812
vt 0.015046 0.949979
vt 0.014992 0.949695
vt 0.015020 0.949760
vt 0.014953 0.949664
vt 0.014917 0.949680
vt 0.014932 0.949675
vt 0.014836 0.949720
vt 0.014918 0.949768
vt 0.014826 0.949791
vt 0.014585 0.949710
vt 0.014625 0.949756
vt 0.014663 0.949460
vt 0.014678 0.949590
vt 0.014945 0.950003
vt 0.014892 0.950012
vt 0.014804 0.950053
vt 0.014904 0.950037
vt 0.014878 0.950069
vt 0.014785 0.950139
vt 0.014894 0.950137
vt 0.014808 0.950237
vt 0.014944 0.950168
vt 0.014907 0.950296
vt 0.014976 0.950166
vt 0.014990 0.950291
vt 0.014999 0.950126
vt 0.015027 0.950230
vt 0.015008 0.950027
vt 0.015040 0.950093
vt 0.014987 0.950017
vt 0.014973 0.950059
vt 0.014988 0.949395
vt 0.015199 0.949483
vt 0.015289 0.949651
vt 0.015298 0.949902
vt 0.015260 0.950127
vt 0.015160 0.950230
vt 0.014958 0.950231
vt 0.014796 0.950166
vt 0.014718 0.950065
vt 0.014693 0.949945
vt 0.014742 0.949786
vt 0.014947 0.949753
vt 0.015012 0.949771
vt 0.015108 0.949814
vt 0.015085 0.949597
vt 0.014985 0.949518
vt 0.014906 0.949559
vt 0.014896 0.949629
vt 0.014701 0.949596
vt 0.014754 0.949431
vt 0.014969 0.949874
vt 0.014872 0.949891
vt 0.014852 0.949977
vt 0.014873 0.950075
vt 0.014969 0.950132
vt 0.015050 0.950127
vt 0.015087 0.950066
vt 0.015101 0.949928
vt 0.015036 0.949895
vn -0.238715 0.856592 0.457455
vn -0.238715 0.856592 0.457455
vn -0.238715 0.856592 0.457455
vn -0.238715 0.856592 0.457455
vn -0.780056 0.434508 0.450239
vn -0.780056 0.434508 0.450239
vn -0.780056 0.434508 0.450239
vn -0.780056 0.434508 0.450239
vn -0.905733 0.079640 0.416298
vn -0.905733 0.079640 0.416298
vn -0.905733 0.079640 0.416298
vn -0.905733 0.079640 0.416298
vn -0.922531 -0.074031 0.378756
vn -0.922531 -0.074031 0.378756
vn -0.922531 -0.074031 0.378756
vn -0.922531 -0.074031 0.378756
vn -0.816471 -0.456625 0.353369
vn -0.816471 -0.456625 0.353369
vn -0.816471 -0.456625 0.353369
vn -0.816471 -0.456625 0.353369
vn -0.237471 -0.898765 0.368549
vn -0.237471 -0.898765 0.368549
vn -0.237471 -0.898765 0.368549
vn -0.237471 -0.898765 0.368549
vn 0.304415 -0.836541 0.455555
vn 0.304415 -0.836541 0.455555
vn 0.304415 -0.836541 0.455555
vn 0.304415 -0.836541 0.455555
vn 0.715056 -0.527398 0.458853
vn 0.715056 -0.527398 0.458853
vn 0.715056 -0.527398 0.458853
vn 0.715056 -0.527398 0.458853
vn 0.901152 -0.089258 0.424216
vn 0.901152 -0.089258 0.424216
vn 0.901152 -0.089258 0.424216
vn 0.901152 -0.089258 0.424216
vn 0.877109 0.210632 0.431641
vn 0.877109 0.210632 0.431641
vn 0.877109 0.210632 0.431641
vn 0.877109 0.210632 0.431641
vn 0.349974 0.828870 0.436456
vn 0.349974 0.828870 0.436456
vn 0.349974 0.828870 0.436456
vn 0.349974 0.828870 0.436456
vn -0.162926 0.849638 0.501567
vn -0.162926 0.849638 0.501567
vn -0.162926 0.849638 0.501567
vn -0.162926 0.849638 0.501567
vn -0.124047 0.847907 0.515429
vn -0.124047 0.847907 0.515429
vn -0.124047 0.847907 0.515429
vn -0.124047 0.847907 0.515429
vn 0.895919 -0.086975 0.435620
vn 0.895919 -0.086975 0.435620
vn 0.895919 -0.086975 0.435620
vn 0.895919 -0.086975 0.435620
vn 0.556698 -0.727064 0.401828
vn 0.556698 -0.727064 0.401828
vn 0.556698 -0.727064 0.401828
vn 0.556698 -0.727064 0.401828
vn -0.564336 -0.681483 0.465946
vn -0.564336 -0.681483 0.465946
vn -0.564336 -0.681483 0.465946
vn -0.564336 -0.681483 0.465946
vn -0.853561 -0.194318 0.483398
vn -0.853561 -0.194318 0.483398
vn -0.853561 -0.194318 0.483398
vn -0.853561 -0.194318 0.483398
vn -0.025702 -0.905248 0.424105
vn -0.025702 -0.905248 0.424105
vn -0.025702 -0.905248 0.424105
vn -0.025702 -0.905248 0.424105
vn 0.890366 0.255406 0.376850
vn 0.890366 0.255406 0.376850
vn 0.890366 0.255406 0.376850
vn 0.890366 0.255406 0.376850
vn 0.289817 0.858044 0.423990
vn 0.289817 0.858044 0.423990
vn 0.289817 0.858044 0.423990
vn 0.289817 0.858044 0.423990
vn -0.485000 -0.735360 0.473309
vn -0.485000 -0.735360 0.473309
vn -0.485000 -0.735360 0.473309
vn -0.485000 -0.735360 0.473309
vn -0.888649 -0.124137 0.441467
vn -0.888649 -0.124137 0.441467
vn -0.888649 -0.124137 0.441467
vn -0.888649 -0.124137 0.441467
vn -0.883097 0.133700 0.449737
vn -0.883097 0.133700 0.449737
vn -0.883097 0.133700 0.449737
vn -0.883097 0.133700 0.449737
vn -0.468909 0.786153 0.402601
vn -0.468909 0.786153 0.402601
vn -0.468909 0.786153 0.402601
vn -0.468909 0.786153 0.402601
vn 0.238571 0.869925 0.431641
vn 0.238571 0.869925 0.431641
vn 0.238571 0.869925 0.431641
vn 0.238571 0.869925 0.431641
vn 0.846276 0.306164 0.435981
vn 0.846276 0.306164 0.435981
vn 0.846276 0.306164 0.435981
vn 0.846276 0.306164 0.435981
vn 0.914710 0.047355 0.401327
vn 0.914710 0.047355 0.401327
vn 0.914710 0.047355 0.401327
vn 0.914710 0.047355 0.401327
vn 0.473908 -0.754996 0.453202
vn 0.473908 -0.754996 0.453202
vn 0.473908 -0.754996 0.453202
vn 0.473908 -0.754996 0.453202
vn 0.162082 -0.853110 0.495916
vn 0.162082 -0.853110 0.495916
vn 0.162082 -0.853110 0.495916
vn 0.162082 -0.853110 0.495916
vn -0.000000 0.000000 1.000000
vn -0.000000 0.000000 1.000000
vn -0.000000 0.000000 1.000000
vn -0.000000 0.000000 1.000000
vn -0.000000 0.000000 1.000000
vn -0.000000 0.000000 1.000000
vn -0.000000 0.000000 1.000000
vn -0.000000 0.000000 1.000000
vn -0.000000 0.000000 1.000000
vn -0.000000 0.000000 1.000000
vn -0.000000 0.000000 1.000000
vn -0.000000 0.000000 1.000000
vn -0.000000 0.000000 1.000000
vn -0.000000 0.000000 1.000000
vn -0.000000 0.000000 1.000000
vn -0.000000 0.000000 1.000000
vn -0.000000 0.000000 1.000000
vn -0.000000 0.000000 1.000000
vn -0.000000 0.000000 1.000000
vn -0.000000 0.000000 1.000000
vn -0.000000 0.000000 1.000000
vn -0.000000 0.000000 1.000000
vn -0.000000 0.000000 1.000000
vn -0.000000 0.000000 1.000000
vn -0.000000 0.000000 1.000000
vn -0.000000 0.000000 1.000000
vn -0.000000 0.000000 1.000000
vn -0.000000 0.000000 1.000000
vn -0.000000 0.000000 1.000000
vn -0.000000 0.000000 1.000000
vn -0.000000 0.000000 1.000000
vn -0.000000 0.000000 1.000000
vn -0.000000 0.000000 1.000000
vn -0.000000 0.000000 1.000000
vn -0.000000 0.000000 1.000000
vn -0.000000 0.000000 1.000000
vn -0.000000 0.000000 1.000000
vn -0.000000 0.000000 1.000000
vn -0.000000 0.000000 1.000000
vn -0.000000 0.000000 1.000000
vn -0.000000 0.000000 1.000000
vn -0.000000 0.000000 1.000000
vn -0.000000 0.000000 1.000000
vn -0.000000 0.000000 1.000000
vn -0.000000 0.000000 1.000000
vn -0.000000 0.000000 1.000000
vn -0.000000 0.000000 1.000000
vn -0.000000 0.000000 1.000000
vn -0.000000 0.000000 1.000000
vn -0.000000 0.000000 1.000000
vn -0.000000 0.000000 1.000000
vn -0.000000 0.000000 1.000000
vn -0.000000 0.000000 1.000000
vn -0.000000 0.000000 1.000000
vn -0.000000 0.000000 1.000000
vn -0.000000 0.000000 1.000000
vn -0.000000 0.000000 1.000000
vn -0.000000 0.000000 1.000000
vn -0.000000 0.000000 1.000000
vn -0.000000 0.000000 1.000000
vn -0.000000 0.000000 1.000000
vn -0.000000 0.000000 1.000000
vn -0.000000 0.000000 1.000000
vn -0.302819 0.842272 -0.445958
vn -0.302819 0.842272 -0.445958
vn -0.302819 0.842272 -0.445958
vn -0.302819 0.842272 -0.445958
vn -0.790897 0.419020 -0.445987
vn -0.790897 0.419020 -0.445987
vn -0.790897 0.419020 -0.445987
vn -0.790897 0.419020 -0.445987
vn -0.888406 0.064294 -0.454534
vn -0.888406 0.064294 -0.454534
vn -0.888406 0.064294 -0.454534
vn -0.888406 0.064294 -0.454534
vn -0.881061 -0.077683 -0.466580
vn -0.881061 -0.077683 -0.466580
vn -0.881061 -0.077683 -0.466580
vn -0.881061 -0.077683 -0.466580
vn -0.816838 -0.416829 -0.398784
vn -0.816838 -0.416829 -0.398784
vn -0.816838 -0.416829 -0.398784
vn -0.816838 -0.416829 -0.398784
vn -0.200208 -0.892031 -0.405213
vn -0.200208 -0.892031 -0.405213
vn -0.200208 -0.892031 -0.405213
vn -0.200208 -0.892031 -0.405213
vn 0.227088 -0.877764 -0.421855
vn 0.227088 -0.877764 -0.421855
vn 0.227088 -0.877764 -0.421855
vn 0.227088 -0.877764 -0.421855
vn 0.750224 -0.503710 -0.428299
vn 0.750224 -0.503710 -0.428299
vn 0.750224 -0.503710 -0.428299
vn 0.750224 -0.503710 -0.428299
vn 0.885938 -0.088930 -0.455199
vn 0.885938 -0.088930 -0.455199
vn 0.885938 -0.088930 -0.455199
vn 0.885938 -0.088930 -0.455199
vn 0.883806 0.184517 -0.429930
vn 0.883806 0.184517 -0.429930
vn 0.883806 0.184517 -0.429930
vn 0.883806 0.184517 -0.429930
vn 0.294431 0.839136 -0.457342
vn 0.294431 0.839136 -0.457342
vn 0.294431 0.839136 -0.457342
vn 0.294431 0.839136 -0.457342
vn -0.080875 0.858152 -0.506985
vn -0.080875 0.858152 -0.506985
vn -0.080875 0.858152 -0.506985
vn -0.080875 0.858152 -0.506985
vn -0.283985 0.824712 -0.489083
vn -0.283985 0.824712 -0.489083
vn -0.283985 0.824712 -0.489083
vn -0.283985 0.824712 -0.489083
vn 0.854875 -0.081089 -0.512457
vn 0.854875 -0.081089 -0.512457
vn 0.854875 -0.081089 -0.512457
vn 0.854875 -0.081089 -0.512457
vn 0.473321 -0.723784 -0.502099
vn 0.473321 -0.723784 -0.502099
vn 0.473321 -0.723784 -0.502099
vn 0.473321 -0.723784 -0.502099
vn -0.581765 -0.665505 -0.467604
vn -0.581765 -0.665505 -0.467604
vn -0.581765 -0.665505 -0.467604
vn -0.581765 -0.665505 -0.467604
vn -0.879882 -0.154268 -0.449453
vn -0.879882 -0.154268 -0.449453
vn -0.879882 -0.154268 -0.449453
vn -0.879882 -0.154268 -0.449453
vn 0.015761 -0.904941 -0.425245
vn 0.015761 -0.904941 -0.425245
vn 0.015761 -0.904941 -0.425245
vn 0.015761 -0.904941 -0.425245
vn 0.873425 0.235737 -0.426096
vn 0.873425 0.235737 -0.426096
vn 0.873425 0.235737 -0.426096
vn 0.873425 0.235737 -0.426096
vn 0.326971 0.850784 -0.411409
vn 0.326971 0.850784 -0.411409
vn 0.326971 0.850784 -0.411409
vn 0.326971 0.850784 -0.411409
vn -0.358656 -0.776465 -0.518139
vn -0.358656 -0.776465 -0.518139
vn -0.358656 -0.776465 -0.518139
vn -0.358656 -0.776465 -0.518139
vn -0.882588 -0.090638 -0.461328
vn -0.882588 -0.090638 -0.461328
vn -0.882588 -0.090638 -0.461328
vn -0.882588 -0.090638 -0.461328
vn -0.874785 0.070921 -0.479293
vn -0.874785 0.070921 -0.479293
vn -0.874785 0.070921 -0.479293
vn -0.874785 0.070921 -0.479293
vn -0.310104 0.837417 -0.450076
vn -0.310104 0.837417 -0.450076
vn -0.310104 0.837417 -0.450076
vn -0.310104 0.837417 -0.450076
vn 0.119826 0.890320 -0.439285
vn 0.119826 0.890320 -0.439285
vn 0.119826 0.890320 -0.439285
vn 0.119826 0.890320 -0.439285
vn 0.870469 0.254623 -0.421250
vn 0.870469 0.254623 -0.421250
vn 0.870469 0.254623 -0.421250
vn 0.870469 0.254623 -0.421250
vn 0.913823 0.063896 -0.401055
vn 0.913823 0.063896 -0.401055
vn 0.913823 0.063896 -0.401055
vn 0.913823 0.063896 -0.401055
vn 0.404905 -0.804839 -0.433919
vn 0.404905 -0.804839 -0.433919
vn 0.404905 -0.804839 -0.433919
vn 0.404905 -0.804839 -0.433919
vn 0.243393 -0.851107 -0.465163
vn 0.243393 -0.851107 -0.465163
vn 0.243393 -0.851107 -0.465163
vn 0.243393 -0.851107 -0.465163
vn 0.000000 0.000000 -1.000000
vn 0.000000 0.000000 -1.000000
vn 0.000000 0.000000 -1.000000
vn 0.000000 0.000000 -1.000000
vn 0.000000 0.000000 -1.000000
vn 0.000000 0.000000 -1.000000
vn 0.000000 0.000000 -1.000000
vn 0.000000 0.000000 -1.000000
vn 0.000000 0.000000 -1.000000
vn 0.000000 0.000000 -1.000000
vn 0.000000 0.000000 -1.000000
vn 0.000000 0.000000 -1.000000
vn 0.000000 0.000000 -1.000000
vn 0.000000 0.000000 -1.000000
vn 0.000000 0.000000 -1.000000
vn 0.000000 0.000000 -1.000000
vn 0.000000 0.000000 -1.000000
vn 0.000000 0.000000 -1.000000
vn 0.000000 0.000000 -1.000000
vn 0.000000 0.000000 -1.000000
vn 0.000000 0.000000 -1.000000
vn 0.000000 0.000000 -1.000000
vn 0.000000 0.000000 -1.000000
vn 0.000000 0.000000 -1.000000
vn 0.000000 0.000000 -1.000000
vn 0.000000 0.000000 -1.000000
vn 0.000000 0.000000 -1.000000
vn 0.000000 0.000000 -1.000000
vn 0.000000 0.000000 -1.000000
vn 0.000000 0.000000 -1.000000
vn 0.000000 0.000000 -1.000000
vn 0.000000 0.000000 -1.000000
vn 0.000000 0.000000 -1.000000
vn 0.000000 0.000000 -1.000000
vn 0.000000 0.000000 -1.000000
vn 0.000000 0.000000 -1.000000
vn 0.000000 0.000000 -1.000000
vn 0.000000 0.000000 -1.000000
vn 0.000000 0.000000 -1.000000
vn 0.000000 0.000000 -1.000000
vn 0.000000 0.000000 -1.000000
vn 0.000000 0.000000 -1.000000
vn 0.000000 0.000000 -1.000000
vn 0.000000 0.000000 -1.000000
vn 0.000000 0.000000 -1.000000
vn 0.000000 0.000000 -1.000000
vn 0.000000 0.000000 -1.000000
vn 0.000000 0.000000 -1.000000
vn 0.000000 0.000000 -1.000000
vn 0.000000 0.000000 -1.000000
vn 0.000000 0.000000 -1.000000
vn 0.000000 0.000000 -1.000000
vn 0.000000 0.000000 -1.000000
vn 0.000000 0.000000 -1.000000
vn 0.000000 0.000000 -1.000000
vn 0.000000 0.000000 -1.000000
vn 0.000000 0.000000 -1.000000
vn 0.000000 0.000000 -1.000000
vn 0.000000 0.000000 -1.000000
vn 0.000000 0.000000 -1.000000
vn 0.000000 0.000000 -1.000000
vn 0.000000 0.000000 -1.000000
vn 0.000000 0.000000 -1.000000
vn 0.000000 0.000000 -1.000000
vn 0.000000 0.000000 -1.000000
s off
f 1/1/1 2/2/2 31/3/3 30/4/4
f 2/2/5 3/5/6 32/6/7 31/3/8
f 3/5/9 4/7/10 33/8/11 32/6/12
f 4/7/13 5/9/14 34/10/15 33/8/16
f 5/9/17 6/11/18 35/12/19 34/10/20
f 6/11/21 7/13/22 36/14/23 35/12/24
f 7/13/25 8/15/26 37/16/27 36/14/28
f 8/15/29 9/17/30 38/18/31 37/16/32
f 9/17/33 10/19/34 39/20/35 38/18/36
f 10/19/37 11/21/38 40/22/39 39/20/40
f 11/21/41 12/23/42 41/24/43 40/22/44
f 12/23/45 13/25/46 42/26/47 41/24/48
f 13/25/49 14/27/50 43/28/51 42/26/52
f 14/27/53 15/29/54 44/30/55 43/28/56
f 15/29/57 16/31/58 45/32/59 44/30/60
f 16/31/61 17/33/62 46/34/63 45/32/64
f 17/33/65 18/35/66 47/36/67 46/34/68
f 18/35/69 19/37/70 48/38/71 47/36/72
f 19/37/73 20/39/74 49/40/75 48/38/76
f 20/39/77 1/1/78 30/4/79 49/40/80
f 21/41/81 22/42/82 51/43/83 50/44/84
f 22/42/85 23/45/86 52/46/87 51/43/88
f 23/45/89 24/47/90 53/48/91 52/46/92
f 24/47/93 25/49/94 54/50/95 53/48/96
f 25/49/97 26/51/98 55/52/99 54/50/100
f 26/51/101 27/53/102 56/54/103 55/52/104
f 27/53/105 28/55/106 57/56/107 56/54/108
f 28/55/109 29/57/110 58/58/111 57/56/112
f 29/57/113 21/41/114 50/44/115 58/58/116
f 47/36/117 48/38/118 49/40/119 46/34/120
f 46/34/121 49/40/122 30/4/123 45/32/124
f 45/32/125 30/4/126 31/3/127 44/30/128
f 31/3/129 32/6/130 44/30/131
f 43/28/132 44/30/133 32/6/134 33/8/135
f 43/28/136 33/8/137 34/10/138 42/26/139
f 34/10/140 57/56/141 42/26/142
f 57/56/143 58/58/144 42/26/145
f 57/56/146 34/10/147 56/54/148
f 42/26/149 58/58/150 50/44/151 41/24/152
f 56/54/153 34/10/154 35/12/155 55/52/156
f 55/52/157 35/12/158 36/14/159 54/50/160
f 54/50/161 36/14/162 37/16/163 53/48/164
f 37/16/165 38/18/166 53/48/167
f 53/48/168 38/18/169 39/20/170 52/46/171
f 40/22/172 41/24/173 50/44/174 51/43/175
f 39/20/176 40/22/177 51/43/178 52/46/179
f 1/1/180 59/59/181 60/60/182 2/2/183
f 2/2/184 60/60/185 61/61/186 3/5/187
f 3/5/188 61/61/189 62/62/190 4/7/191
f 4/7/192 62/62/193 63/63/194 5/9/195
f 5/9/196 63/63/197 64/64/198 6/11/199
f 6/11/200 64/64/201 65/65/202 7/13/203
f 7/13/204 65/65/205 66/66/206 8/15/207
f 8/15/208 66/66/209 67/67/210 9/17/211
f 9/17/212 67/67/213 68/68/214 10/19/215
f 10/19/216 68/68/217 69/69/218 11/21/219
f 11/21/220 69/69/221 70/70/222 12/23/223
f 12/23/224 70/70/225 71/71/226 13/25/227
f 13/25/228 71/71/229 72/72/230 14/27/231
f 14/27/232 72/72/233 73/73/234 15/29/235
f 15/29/236 73/73/237 74/74/238 16/31/239
f 16/31/240 74/74/241 75/75/242 17/33/243
f 17/33/244 75/75/245 76/76/246 18/35/247
f 18/35/248 76/76/249 77/77/250 19/37/251
f 19/37/252 77/77/253 78/78/254 20/39/255
f 20/39/256 78/78/257 59/59/258 1/1/259
f 21/41/260 79/79/261 80/80/262 22/42/263
f 22/42/264 80/80/265 81/81/266 23/45/267
f 23/45/268 81/81/269 82/82/270 24/47/271
f 24/47/272 82/82/273 83/83/274 25/49/275
f 25/49/276 83/83/277 84/84/278 26/51/279
f 26/51/280 84/84/281 85/85/282 27/53/283
f 27/53/284 85/85/285 86/86/286 28/55/287
f 28/55/288 86/86/289 87/87/290 29/57/291
f 29/57/292 87/87/293 79/79/294 21/41/295
f 78/78/296 77/77/297 76/76/298 75/75/299
f 59/59/300 78/78/301 75/75/302 74/74/303
f 60/60/304 59/59/305 74/74/306 73/73/307
f 60/60/308 73/73/309 61/61/310
f 61/61/311 73/73/312 72/72/313 62/62/314
f 63/63/315 62/62/316 72/72/317 85/85/318
f 70/70/319 69/69/320 68/68/321 80/80/322
f 65/65/323 64/64/324 63/63/325 84/84/326
f 84/84/327 83/83/328 65/65/329
f 84/84/330 63/63/331 85/85/332
f 85/85/333 72/72/334 86/86/335
f 86/86/336 72/72/337 87/87/338
f 87/87/339 72/72/340 71/71/341 79/79/342
f 79/79/343 71/71/344 70/70/345 80/80/346
f 66/66/347 65/65/348 83/83/349 82/82/350
f 66/66/351 82/82/352 67/67/353
f 68/68/354 67/67/355 82/82/356 81/81/357
f 81/81/358 80/80/359 68/68/360
