# This file uses centimeters as units for non-parametric coordinates.

v -18.214375 -18.214375 0.000000
v 18.214375 -18.214375 -0.000000
v -18.214375 18.214375 -0.000000
v 18.214375 18.214375 0.000000
v -13.631913 13.728157 -0.000000
v 13.631913 13.728157 0.000000
v -13.631913 -13.728157 -0.000000
v 13.631913 -13.728157 -0.000000
v -18.214375 5.432534 -0.000000
v -13.631912 5.432534 -0.000000
v 13.631912 5.432534 -0.000000
v 18.214375 5.432534 0.000000
v -18.214375 -5.432534 -0.000000
v -13.631913 -5.432534 -0.000000
v 13.631913 -5.432534 -0.000000
v 18.214375 -5.432534 0.000000
v -4.528756 -18.214375 0.000000
v -4.528756 -13.728157 0.000000
v -4.528756 13.728157 0.000000
v -4.528756 18.214375 -0.000000
v 4.528756 -18.214375 0.000000
v 4.528756 -13.728156 0.000000
v 4.528756 13.728156 0.000000
v 4.528756 18.214375 0.000000
v -14.281083 14.726880 2.000000
v -17.565205 17.515268 2.000000
v -17.465334 5.931895 2.000000
v -14.480826 6.880683 2.000000
v -5.627352 14.327392 2.000000
v -5.227862 17.315525 2.000000
v -14.281083 -14.377327 2.000000
v -17.165716 -17.315525 2.000000
v -5.677288 -17.814886 2.000000
v -6.126713 -14.776816 2.000000
v -14.380955 -6.680938 2.000000
v -17.764950 -6.481194 2.000000
v 17.715015 -6.331385 2.000000
v 17.665077 -17.665077 2.000000
v 14.880318 -6.231512 2.000000
v 14.331019 -14.577072 2.000000
v 5.777160 -14.277454 2.000000
v 5.227862 -17.515268 2.000000
v 14.430891 14.277455 2.000000
v 17.565205 17.515268 2.000000
v 5.277798 17.565205 2.000000
v 5.627352 14.227518 2.000000
v 17.914759 6.131640 2.000000
v 14.181210 6.730875 2.000000
v -14.281083 14.726880 -2.000000
v -17.565205 17.515268 -2.000000
v -17.465334 5.931895 -2.000000
v -14.480826 6.880683 -2.000000
v -5.627352 14.327392 -2.000000
v -5.227862 17.315525 -2.000000
v -14.281083 -14.377327 -2.000000
v -17.165716 -17.315525 -2.000000
v -5.677288 -17.814886 -2.000000
v -6.126713 -14.776816 -2.000000
v -14.380955 -6.680938 -2.000000
v -17.764950 -6.481194 -2.000000
v 17.715015 -6.331385 -2.000000
v 17.665077 -17.665077 -2.000000
v 14.880318 -6.231512 -2.000000
v 14.331019 -14.577072 -2.000000
v 5.777160 -14.277454 -2.000000
v 5.227862 -17.515268 -2.000000
v 14.430891 14.277455 -2.000000
v 17.565205 17.515268 -2.000000
v 5.277798 17.565205 -2.000000
v 5.627352 14.227518 -2.000000
v 17.914759 6.131640 -2.000000
v 14.181210 6.730875 -2.000000
vt 0.449421 0.988085
vt 0.448688 0.988760
vt 0.448710 0.985956
vt 0.449376 0.986186
vt 0.449421 0.981040
vt 0.448777 0.980329
vt 0.451340 0.980208
vt 0.451240 0.980943
vt 0.456548 0.980244
vt 0.456560 0.982988
vt 0.455927 0.983012
vt 0.455805 0.980992
vt 0.455827 0.987976
vt 0.456526 0.988760
vt 0.453785 0.988772
vt 0.453863 0.987964
vt 0.451352 0.987988
vt 0.451441 0.988712
vt 0.456604 0.986004
vt 0.455771 0.986149
vt 0.449399 0.982903
vt 0.448644 0.982951
vt 0.453896 0.981064
vt 0.453774 0.980281
vt 0.448543 0.988929
vt 0.448543 0.985835
vt 0.449566 0.985835
vt 0.449566 0.987843
vt 0.451597 0.987843
vt 0.451597 0.988929
vt 0.448543 0.980111
vt 0.451597 0.980111
vt 0.451597 0.981197
vt 0.449566 0.981197
vt 0.449566 0.983205
vt 0.448543 0.983205
vt 0.456671 0.980111
vt 0.456671 0.983205
vt 0.455649 0.983205
vt 0.455649 0.981197
vt 0.453618 0.981197
vt 0.453618 0.980111
vt 0.456671 0.988929
vt 0.453618 0.988929
vt 0.453618 0.987843
vt 0.455649 0.987843
vt 0.456671 0.985835
vt 0.455649 0.985835
vt 0.449421 0.988085
vt 0.448688 0.988760
vt 0.448710 0.985956
vt 0.449376 0.986186
vt 0.449421 0.981040
vt 0.448777 0.980329
vt 0.451340 0.980208
vt 0.451240 0.980943
vt 0.456548 0.980244
vt 0.456560 0.982988
vt 0.455927 0.983012
vt 0.455805 0.980992
vt 0.455827 0.987976
vt 0.456526 0.988760
vt 0.453785 0.988772
vt 0.453863 0.987964
vt 0.451352 0.987988
vt 0.451441 0.988712
vt 0.456604 0.986004
vt 0.455771 0.986149
vt 0.449399 0.982903
vt 0.448644 0.982951
vt 0.453896 0.981064
vt 0.453774 0.980281
vt 0.448543 0.988929
vt 0.448543 0.985835
vt 0.449566 0.985835
vt 0.449566 0.987843
vt 0.451597 0.987843
vt 0.451597 0.988929
vt 0.448543 0.980111
vt 0.451597 0.980111
vt 0.451597 0.981197
vt 0.449566 0.981197
vt 0.449566 0.983205
vt 0.448543 0.983205
vt 0.456671 0.980111
vt 0.456671 0.983205
vt 0.455649 0.983205
vt 0.455649 0.981197
vt 0.453618 0.981197
vt 0.453618 0.980111
vt 0.456671 0.988929
vt 0.453618 0.988929
vt 0.453618 0.987843
vt 0.455649 0.987843
vt 0.456671 0.985835
vt 0.455649 0.985835
vn 0.000000 0.000000 1.000000
vn 0.000000 0.000000 1.000000
vn 0.000000 0.000000 1.000000
vn 0.000000 0.000000 1.000000
vn 0.000000 0.000000 1.000000
vn 0.000000 0.000000 1.000000
vn 0.000000 0.000000 1.000000
vn 0.000000 0.000000 1.000000
vn 0.000000 0.000000 1.000000
vn 0.000000 0.000000 1.000000
vn 0.000000 0.000000 1.000000
vn 0.000000 0.000000 1.000000
vn -0.000000 0.000000 1.000000
vn -0.000000 0.000000 1.000000
vn 0.000000 0.000000 1.000000
vn 0.000000 0.000000 1.000000
vn 0.000000 0.000000 1.000000
vn 0.000000 0.000000 1.000000
vn 0.000000 0.000000 1.000000
vn 0.000000 0.000000 1.000000
vn -0.000000 0.000000 1.000000
vn -0.000000 0.000000 1.000000
vn -0.000000 0.000000 1.000000
vn -0.000000 0.000000 1.000000
vn 0.000000 0.000000 1.000000
vn 0.000000 0.000000 1.000000
vn 0.000000 0.000000 1.000000
vn 0.000000 0.000000 1.000000
vn 0.000000 0.000000 1.000000
vn 0.000000 0.000000 1.000000
vn 0.000000 0.000000 1.000000
vn 0.000000 0.000000 1.000000
vn -0.944043 -0.003869 0.329800
vn -0.944043 -0.003869 0.329800
vn -0.944043 -0.003869 0.329800
vn -0.944043 -0.003869 0.329800
vn 0.111888 -0.892349 0.437258
vn 0.111888 -0.892349 0.437258
vn 0.111888 -0.892349 0.437258
vn 0.111888 -0.892349 0.437258
vn 0.934071 -0.011558 0.356900
vn 0.934071 -0.011558 0.356900
vn 0.934071 -0.011558 0.356900
vn 0.934071 -0.011558 0.356900
vn -0.020958 -0.931557 0.362990
vn -0.020958 -0.931557 0.362990
vn -0.020958 -0.931557 0.362990
vn -0.020958 -0.931557 0.362990
vn 0.912393 -0.048766 0.406400
vn 0.912393 -0.048766 0.406400
vn 0.912393 -0.048766 0.406400
vn 0.912393 -0.048766 0.406400
vn 0.007128 0.928586 0.371048
vn 0.007128 0.928586 0.371048
vn 0.007128 0.928586 0.371048
vn 0.007128 0.928586 0.371048
vn -0.018867 -0.951119 0.308248
vn -0.018867 -0.951119 0.308248
vn -0.018867 -0.951119 0.308248
vn -0.018867 -0.951119 0.308248
vn 0.819666 0.048959 0.570746
vn 0.819666 0.048959 0.570746
vn 0.819666 0.048959 0.570746
vn 0.819666 0.048959 0.570746
vn 0.021203 0.915964 0.400700
vn 0.021203 0.915964 0.400700
vn 0.021203 0.915964 0.400700
vn 0.021203 0.915964 0.400700
vn 0.943100 0.005890 0.332457
vn 0.943100 0.005890 0.332457
vn 0.943100 0.005890 0.332457
vn 0.943100 0.005890 0.332457
vn 0.021720 0.866273 0.499098
vn 0.021720 0.866273 0.499098
vn 0.021720 0.866273 0.499098
vn 0.021720 0.866273 0.499098
vn -0.936504 -0.023763 0.349850
vn -0.936504 -0.023763 0.349850
vn -0.936504 -0.023763 0.349850
vn -0.936504 -0.023763 0.349850
vn 0.999998 -0.002071 0.000000
vn 0.999998 -0.002071 0.000000
vn 0.967352 -0.002003 0.253430
vn 0.967352 -0.002003 0.253430
vn 0.012405 0.921273 0.388718
vn 0.012405 0.921273 0.388718
vn 0.012405 0.921273 0.388718
vn 0.012405 0.921273 0.388718
vn -0.893867 0.029505 0.447359
vn -0.893867 0.029505 0.447359
vn -0.893867 0.029505 0.447359
vn -0.893867 0.029505 0.447359
vn 0.016057 0.946277 0.322957
vn 0.016057 0.946277 0.322957
vn 0.016057 0.946277 0.322957
vn 0.016057 0.946277 0.322957
vn -0.898200 0.063876 0.434921
vn -0.898200 0.063876 0.434921
vn -0.898200 0.063876 0.434921
vn -0.898200 0.063876 0.434921
vn -0.005474 -0.954516 0.298110
vn -0.005474 -0.954516 0.298110
vn -0.005474 -0.954516 0.298110
vn -0.005474 -0.954516 0.298110
vn 0.001822 0.947628 0.319370
vn 0.001822 0.947628 0.319370
vn 0.001822 0.947628 0.319370
vn 0.001822 0.947628 0.319370
vn -0.907662 -0.040552 0.417739
vn -0.907662 -0.040552 0.417739
vn -0.907662 -0.040552 0.417739
vn -0.907662 -0.040552 0.417739
vn 0.002789 -0.999996 -0.000000
vn 0.002789 -0.999996 -0.000000
vn 0.002698 -0.967620 0.252396
vn 0.002698 -0.967620 0.252396
vn 0.999895 0.014464 0.000000
vn 0.999895 0.014464 0.000000
vn 0.972907 0.014073 0.230770
vn 0.972907 0.014073 0.230770
vn -0.949582 0.014966 0.313161
vn -0.949582 0.014966 0.313162
vn -0.949582 0.014966 0.313161
vn -0.949582 0.014966 0.313162
vn -0.064218 -0.891201 0.449040
vn -0.064218 -0.891201 0.449040
vn -0.064218 -0.891201 0.449040
vn -0.064218 -0.891201 0.449040
vn 0.000000 0.000000 -1.000000
vn 0.000000 0.000000 -1.000000
vn 0.000000 0.000000 -1.000000
vn 0.000000 0.000000 -1.000000
vn 0.000000 0.000000 -1.000000
vn 0.000000 0.000000 -1.000000
vn 0.000000 0.000000 -1.000000
vn 0.000000 0.000000 -1.000000
vn 0.000000 0.000000 -1.000000
vn 0.000000 0.000000 -1.000000
vn 0.000000 0.000000 -1.000000
vn 0.000000 0.000000 -1.000000
vn -0.000000 0.000000 -1.000000
vn 0.000000 0.000000 -1.000000
vn 0.000000 0.000000 -1.000000
vn -0.000000 0.000000 -1.000000
vn 0.000000 0.000000 -1.000000
vn 0.000000 0.000000 -1.000000
vn 0.000000 0.000000 -1.000000
vn 0.000000 0.000000 -1.000000
vn -0.000000 0.000000 -1.000000
vn -0.000000 0.000000 -1.000000
vn -0.000000 0.000000 -1.000000
vn -0.000000 0.000000 -1.000000
vn 0.000000 0.000000 -1.000000
vn 0.000000 0.000000 -1.000000
vn 0.000000 0.000000 -1.000000
vn 0.000000 0.000000 -1.000000
vn 0.000000 0.000000 -1.000000
vn 0.000000 0.000000 -1.000000
vn 0.000000 0.000000 -1.000000
vn 0.000000 0.000000 -1.000000
vn -0.944043 -0.003869 -0.329800
vn -0.944043 -0.003869 -0.329800
vn -0.944043 -0.003869 -0.329800
vn -0.944043 -0.003869 -0.329800
vn 0.111888 -0.892349 -0.437258
vn 0.111888 -0.892349 -0.437258
vn 0.111888 -0.892349 -0.437258
vn 0.111888 -0.892349 -0.437258
vn 0.934071 -0.011558 -0.356900
vn 0.934071 -0.011558 -0.356900
vn 0.934071 -0.011558 -0.356900
vn 0.934071 -0.011558 -0.356900
vn -0.020958 -0.931557 -0.362990
vn -0.020958 -0.931557 -0.362990
vn -0.020958 -0.931557 -0.362990
vn -0.020958 -0.931557 -0.362990
vn 0.912393 -0.048766 -0.406400
vn 0.912393 -0.048766 -0.406400
vn 0.912393 -0.048766 -0.406400
vn 0.912393 -0.048766 -0.406400
vn 0.007128 0.928586 -0.371048
vn 0.007128 0.928586 -0.371048
vn 0.007128 0.928586 -0.371048
vn 0.007128 0.928586 -0.371048
vn -0.018867 -0.951119 -0.308248
vn -0.018867 -0.951119 -0.308248
vn -0.018867 -0.951119 -0.308248
vn -0.018867 -0.951119 -0.308248
vn 0.819666 0.048959 -0.570746
vn 0.819666 0.048959 -0.570746
vn 0.819666 0.048959 -0.570746
vn 0.819666 0.048959 -0.570746
vn 0.021203 0.915964 -0.400699
vn 0.021203 0.915964 -0.400699
vn 0.021203 0.915964 -0.400699
vn 0.021203 0.915964 -0.400699
vn 0.943100 0.005890 -0.332457
vn 0.943100 0.005890 -0.332457
vn 0.943100 0.005890 -0.332457
vn 0.943100 0.005890 -0.332457
vn 0.021720 0.866273 -0.499098
vn 0.021720 0.866273 -0.499098
vn 0.021720 0.866273 -0.499098
vn 0.021720 0.866273 -0.499098
vn -0.936504 -0.023763 -0.349850
vn -0.936504 -0.023763 -0.349850
vn -0.936504 -0.023763 -0.349850
vn -0.936504 -0.023763 -0.349850
vn 0.999998 -0.002071 0.000000
vn 0.967352 -0.002003 -0.253430
vn 0.967352 -0.002003 -0.253430
vn 0.999998 -0.002071 0.000000
vn 0.012405 0.921273 -0.388718
vn 0.012405 0.921273 -0.388718
vn 0.012405 0.921273 -0.388718
vn 0.012405 0.921273 -0.388718
vn -0.893867 0.029505 -0.447359
vn -0.893867 0.029505 -0.447359
vn -0.893867 0.029505 -0.447359
vn -0.893867 0.029505 -0.447359
vn 0.016057 0.946278 -0.322957
vn 0.016057 0.946278 -0.322957
vn 0.016057 0.946278 -0.322957
vn 0.016057 0.946278 -0.322957
vn -0.898200 0.063876 -0.434921
vn -0.898200 0.063876 -0.434921
vn -0.898200 0.063876 -0.434921
vn -0.898200 0.063876 -0.434921
vn -0.005474 -0.954516 -0.298110
vn -0.005474 -0.954516 -0.298110
vn -0.005474 -0.954516 -0.298110
vn -0.005474 -0.954516 -0.298110
vn 0.001822 0.947628 -0.319370
vn 0.001822 0.947628 -0.319370
vn 0.001822 0.947628 -0.319370
vn 0.001822 0.947628 -0.319370
vn -0.907662 -0.040552 -0.417739
vn -0.907662 -0.040552 -0.417739
vn -0.907662 -0.040552 -0.417739
vn -0.907662 -0.040552 -0.417739
vn 0.002789 -0.999996 -0.000000
vn 0.002698 -0.967620 -0.252397
vn 0.002698 -0.967620 -0.252397
vn 0.002789 -0.999996 -0.000000
vn 0.999895 0.014464 0.000000
vn 0.972907 0.014073 -0.230770
vn 0.972907 0.014073 -0.230770
vn 0.999895 0.014464 0.000000
vn -0.949582 0.014966 -0.313162
vn -0.949582 0.014966 -0.313162
vn -0.949582 0.014966 -0.313162
vn -0.949582 0.014966 -0.313162
vn -0.064218 -0.891201 -0.449040
vn -0.064218 -0.891201 -0.449040
vn -0.064218 -0.891201 -0.449040
vn -0.064218 -0.891201 -0.449040
s off
f 25/1/1 26/2/2 27/3/3 28/4/4
f 31/5/5 32/6/6 33/7/7 34/8/8
f 38/9/9 37/10/10 39/11/11 40/12/12
f 43/13/13 44/14/14 45/15/15 46/16/16
f 25/1/17 29/17/18 30/18/19 26/2/20
f 47/19/21 44/14/22 43/13/23 48/20/24
f 31/5/25 35/21/26 36/22/27 32/6/28
f 38/9/29 40/12/30 41/23/31 42/24/32
f 3/25/33 9/26/34 27/3/35 26/2/36
f 9/26/37 10/27/38 28/4/39 27/3/40
f 10/27/41 5/28/42 25/1/43 28/4/44
f 5/28/45 19/29/46 29/17/47 25/1/48
f 19/29/49 20/30/50 30/18/51 29/17/52
f 20/30/53 3/25/54 26/2/55 30/18/56
f 1/31/57 17/32/58 33/7/59 32/6/60
f 17/32/61 18/33/62 34/8/63 33/7/64
f 18/33/65 7/34/66 31/5/67 34/8/68
f 7/34/69 14/35/70 35/21/71 31/5/72
f 14/35/73 13/36/74 36/22/75 35/21/76
f 13/36/77 1/31/78 32/6/79 36/22/80
f 2/37/81 16/38/82 37/10/83 38/9/84
f 16/38/85 15/39/86 39/11/87 37/10/88
f 15/39/89 8/40/90 40/12/91 39/11/92
f 8/40/93 22/41/94 41/23/95 40/12/96
f 22/41/97 21/42/98 42/24/99 41/23/100
f 21/42/101 2/37/102 38/9/103 42/24/104
f 4/43/105 24/44/106 45/15/107 44/14/108
f 24/44/109 23/45/110 46/16/111 45/15/112
f 23/45/113 6/46/114 43/13/115 46/16/116
f 12/47/117 4/43/118 44/14/119 47/19/120
f 6/46/121 11/48/122 48/20/123 43/13/124
f 11/48/125 12/47/126 47/19/127 48/20/128
f 49/49/129 52/52/130 51/51/131 50/50/132
f 55/53/133 58/56/134 57/55/135 56/54/136
f 62/57/137 64/60/138 63/59/139 61/58/140
f 67/61/141 70/64/142 69/63/143 68/62/144
f 49/49/145 50/50/146 54/66/147 53/65/148
f 71/67/149 72/68/150 67/61/151 68/62/152
f 55/53/153 56/54/154 60/70/155 59/69/156
f 62/57/157 66/72/158 65/71/159 64/60/160
f 3/73/161 50/50/162 51/51/163 9/74/164
f 9/74/165 51/51/166 52/52/167 10/75/168
f 10/75/169 52/52/170 49/49/171 5/76/172
f 5/76/173 49/49/174 53/65/175 19/77/176
f 19/77/177 53/65/178 54/66/179 20/78/180
f 20/78/181 54/66/182 50/50/183 3/73/184
f 1/79/185 56/54/186 57/55/187 17/80/188
f 17/80/189 57/55/190 58/56/191 18/81/192
f 18/81/193 58/56/194 55/53/195 7/82/196
f 7/82/197 55/53/198 59/69/199 14/83/200
f 14/83/201 59/69/202 60/70/203 13/84/204
f 13/84/205 60/70/206 56/54/207 1/79/208
f 2/85/209 62/57/210 61/58/211 16/86/212
f 16/86/213 61/58/214 63/59/215 15/87/216
f 15/87/217 63/59/218 64/60/219 8/88/220
f 8/88/221 64/60/222 65/71/223 22/89/224
f 22/89/225 65/71/226 66/72/227 21/90/228
f 21/90/229 66/72/230 62/57/231 2/85/232
f 4/91/233 68/62/234 69/63/235 24/92/236
f 24/92/237 69/63/238 70/64/239 23/93/240
f 23/93/241 70/64/242 67/61/243 6/94/244
f 12/95/245 71/67/246 68/62/247 4/91/248
f 6/94/249 67/61/250 72/68/251 11/96/252
f 11/96/253 72/68/254 71/67/255 12/95/256
