# This file uses centimeters as units for non-parametric coordinates.

v 20.000000 -4.789091 0.000000
v 20.000000 -15.232307 0.000000
v 9.090910 -15.232307 -0.000000
v 9.090910 -4.789091 -0.000000
v 19.268639 -5.520453 4.000000
v 19.268639 -14.500945 4.000000
v 10.212261 -5.520453 4.000000
v 9.822272 -14.500945 4.000000
v 19.268637 -5.520453 -4.000000
v 19.268639 -14.500945 -4.000000
v 10.212261 -5.520453 -4.000000
v 9.822272 -14.500945 -4.000000
v -5.454545 1.900790 0.000000
v 5.454545 1.900790 0.000000
v -5.454545 12.344007 0.000000
v 5.454545 12.344007 -0.000000
v -4.723182 11.612644 4.000000
v -4.723182 2.632152 4.000000
v 4.723182 11.612644 4.000000
v 4.723182 2.632152 4.000000
v -4.723182 11.612644 -4.000000
v -4.723182 2.632152 -4.000000
v 4.723182 11.612644 -4.000000
v 4.723182 2.632152 -4.000000
v -20.000000 0.198814 -0.000000
v -20.000000 -10.244402 -0.000000
v -9.090909 -10.244402 -0.000000
v -9.090910 0.198814 -0.000000
v -19.268639 -0.532548 4.000000
v -19.268639 -9.513040 4.000000
v -9.822272 -0.532548 4.000000
v -9.822272 -9.513040 4.000000
v -19.268639 -0.532548 -4.000000
v -19.268637 -9.513040 -4.000000
v -9.822272 -0.532548 -4.000000
v -9.822272 -9.513040 -4.000000
v -16.363636 20.000000 -0.000000
v -12.727272 20.000000 0.000000
v -1.818181 20.000000 0.000000
v 1.818182 20.000000 0.000000
v 12.727276 20.000000 0.000000
v 16.363640 20.000000 0.000000
v -16.363636 -20.000000 0.000000
v -12.727272 -20.000000 0.000000
v -1.818181 -20.000000 0.000000
v 1.818182 -20.000000 0.000000
v 12.727276 -20.000000 0.000000
v 16.363640 -20.000000 0.000000
v -1.818181 7.122398 -0.000000
v 1.818182 7.122398 -0.000000
v 12.727276 -10.010699 -0.000000
v 16.363640 -10.010699 0.000000
v -13.306901 -19.022575 2.000000
v -15.632274 -19.268639 2.000000
v -15.633519 19.037369 2.000000
v -13.458634 19.268639 2.000000
v 1.436241 7.110232 2.000000
v 1.241220 -19.268639 2.000000
v -1.436240 7.110232 2.000000
v -1.086819 -19.268639 2.000000
v -1.086819 19.268639 2.000000
v 1.086820 19.268639 2.000000
v 15.981698 -9.994667 2.000000
v 15.632277 -19.268639 2.000000
v 13.109218 -9.994667 2.000000
v 13.458638 -19.268639 2.000000
v 13.361352 19.171627 2.000000
v 15.632277 19.268639 2.000000
v -13.306901 -19.022575 -2.000000
v -15.632274 -19.268639 -2.000000
v -15.633519 19.037369 -2.000000
v -13.458634 19.268639 -2.000000
v 1.436241 7.110232 -2.000000
v 1.241220 -19.268639 -2.000000
v -1.436240 7.110232 -2.000000
v -1.086819 -19.268639 -2.000000
v -1.086819 19.268639 -2.000000
v 1.086820 19.268639 -2.000000
v 15.981698 -9.994667 -2.000000
v 15.632277 -19.268639 -2.000000
v 13.109218 -9.994667 -2.000000
v 13.458638 -19.268639 -2.000000
v 13.361352 19.171627 -2.000000
v 15.632277 19.268639 -2.000000
v -15.981694 -5.006761 2.000000
v -16.363636 -5.022794 -0.000000
v -15.981694 -5.006761 -2.000000
v -13.109214 -5.006761 -2.000000
v -12.727272 -5.022794 -0.000000
v -13.109214 -5.006761 2.000000
vt 0.981418 0.985743
vt 0.981408 0.985492
vt 0.981680 0.985492
vt 0.981686 0.985743
vt 0.981426 0.985473
vt 0.981435 0.985717
vt 0.981690 0.985473
vt 0.981695 0.985717
vt 0.981418 0.985743
vt 0.981686 0.985743
vt 0.981680 0.985492
vt 0.981408 0.985492
vt 0.981426 0.985473
vt 0.981435 0.985717
vt 0.981690 0.985473
vt 0.981695 0.985717
vt 0.982042 0.985055
vt 0.982041 0.985313
vt 0.982043 0.985327
vt 0.982044 0.985061
vt 0.981775 0.985313
vt 0.981771 0.985055
vt 0.981764 0.985061
vt 0.981768 0.985327
vt 0.982042 0.985055
vt 0.982044 0.985061
vt 0.982043 0.985327
vt 0.982041 0.985313
vt 0.981775 0.985313
vt 0.981768 0.985327
vt 0.981764 0.985061
vt 0.981771 0.985055
vt 0.982132 0.985624
vt 0.982134 0.985369
vt 0.982408 0.985369
vt 0.982401 0.985624
vt 0.982395 0.985354
vt 0.982389 0.985601
vt 0.982128 0.985601
vt 0.982130 0.985354
vt 0.982132 0.985624
vt 0.982401 0.985624
vt 0.982408 0.985369
vt 0.982134 0.985369
vt 0.982395 0.985354
vt 0.982389 0.985601
vt 0.982128 0.985601
vt 0.982130 0.985354
vt 0.982906 0.950516
vt 0.982889 0.949967
vt 0.982983 0.949966
vt 0.982989 0.950514
vt 0.982572 0.950521
vt 0.982551 0.950333
vt 0.982638 0.950331
vt 0.982655 0.950520
vt 0.982579 0.949662
vt 0.982478 0.949663
vt 0.982979 0.949658
vt 0.982880 0.949659
vt 0.983278 0.949656
vt 0.983378 0.949654
vt 0.983340 0.950222
vt 0.983252 0.950224
vt 0.983238 0.950511
vt 0.983234 0.950482
vt 0.983248 0.950197
vt 0.983316 0.950481
vt 0.983321 0.950509
vt 0.983371 0.949633
vt 0.983335 0.950196
vt 0.983274 0.949634
vt 0.982906 0.950487
vt 0.982890 0.949943
vt 0.982982 0.949942
vt 0.982988 0.950486
vt 0.982979 0.949637
vt 0.982880 0.949638
vt 0.982576 0.950492
vt 0.982556 0.950305
vt 0.982642 0.950304
vt 0.982659 0.950491
vt 0.982584 0.949641
vt 0.982485 0.949641
vt 0.983238 0.950511
vt 0.983321 0.950509
vt 0.983340 0.950222
vt 0.983252 0.950224
vt 0.982906 0.950516
vt 0.982989 0.950514
vt 0.982983 0.949966
vt 0.982889 0.949967
vt 0.982572 0.950521
vt 0.982655 0.950520
vt 0.982638 0.950331
vt 0.982551 0.950333
vt 0.982579 0.949662
vt 0.982478 0.949663
vt 0.982979 0.949658
vt 0.982880 0.949659
vt 0.983316 0.950481
vt 0.983335 0.950196
vt 0.983234 0.950482
vt 0.983278 0.949656
vt 0.983274 0.949634
vt 0.983248 0.950197
vt 0.983378 0.949654
vt 0.983371 0.949633
vt 0.982906 0.950487
vt 0.982890 0.949943
vt 0.982982 0.949942
vt 0.982988 0.950486
vt 0.982979 0.949637
vt 0.982880 0.949638
vt 0.982576 0.950492
vt 0.982556 0.950305
vt 0.982642 0.950304
vt 0.982659 0.950491
vt 0.982584 0.949641
vt 0.982485 0.949641
vn 0.983693 0.000000 0.179859
vn 0.983693 0.000000 0.179859
vn 0.983693 0.000000 0.179859
vn 0.983693 0.000000 0.179859
vn -0.974030 0.019557 0.225575
vn -0.974030 0.019557 0.225575
vn -0.974030 0.019557 0.225575
vn -0.974030 0.019557 0.225575
vn 0.983692 -0.000000 -0.179859
vn 0.983692 -0.000000 -0.179859
vn 0.983692 -0.000000 -0.179859
vn 0.983692 -0.000000 -0.179859
vn -0.974030 0.019557 -0.225575
vn -0.974030 0.019557 -0.225575
vn -0.974030 0.019557 -0.225575
vn -0.974030 0.019557 -0.225575
vn 0.000000 0.983692 0.179859
vn 0.000000 0.983692 0.179859
vn 0.000000 0.983692 0.179859
vn 0.000000 0.983692 0.179859
vn 0.000000 0.983692 -0.179859
vn 0.000000 0.983692 -0.179859
vn 0.000000 0.983692 -0.179859
vn 0.000000 0.983692 -0.179859
vn 0.000000 0.000000 -1.000000
vn 0.000000 0.000000 -1.000000
vn 0.000000 0.000000 -1.000000
vn 0.000000 0.000000 -1.000000
vn 0.000000 -0.983692 -0.179859
vn 0.000000 -0.983693 -0.179859
vn 0.000000 -0.983692 -0.179859
vn 0.000000 -0.983692 -0.179859
vn 0.000000 -0.983693 0.179859
vn 0.000000 -0.983692 0.179859
vn 0.000000 -0.983692 0.179859
vn 0.000000 -0.983692 0.179859
vn 0.000000 0.000000 1.000000
vn 0.000000 0.000000 1.000000
vn 0.000000 0.000000 1.000000
vn 0.000000 0.000000 1.000000
vn -0.983692 0.000000 0.179859
vn -0.983692 0.000000 0.179859
vn -0.983692 0.000000 0.179859
vn -0.983692 0.000000 0.179859
vn 0.983692 0.000000 0.179859
vn 0.983692 0.000000 0.179859
vn 0.983692 0.000000 0.179859
vn 0.983692 0.000000 0.179859
vn -0.983692 0.000000 -0.179859
vn -0.983692 0.000000 -0.179859
vn -0.983692 0.000000 -0.179859
vn -0.983692 0.000000 -0.179859
vn 0.983692 -0.000000 -0.179859
vn 0.983692 -0.000000 -0.179859
vn 0.983692 -0.000000 -0.179859
vn 0.983692 -0.000000 -0.179859
vn 0.000000 0.000000 1.000000
vn 0.000000 0.000000 1.000000
vn 0.000000 0.000000 1.000000
vn 0.000000 0.000000 1.000000
vn 0.000000 -0.983692 0.179859
vn 0.000000 -0.983692 0.179859
vn 0.000000 -0.983692 0.179859
vn 0.000000 -0.983692 0.179859
vn 0.000000 -0.983692 -0.179859
vn 0.000000 -0.983692 -0.179859
vn 0.000000 -0.983692 -0.179859
vn 0.000000 -0.983692 -0.179859
vn 0.000000 0.000000 -1.000000
vn 0.000000 0.000000 -1.000000
vn 0.000000 0.000000 -1.000000
vn 0.000000 0.000000 -1.000000
vn 0.000000 0.983692 -0.179859
vn 0.000000 0.983692 -0.179859
vn 0.000000 0.983692 -0.179859
vn 0.000000 0.983692 -0.179859
vn 0.000000 0.983692 0.179859
vn 0.000000 0.983692 0.179859
vn 0.000000 0.983692 0.179859
vn 0.000000 0.983692 0.179859
vn 0.000000 0.000000 1.000000
vn 0.000000 0.000000 1.000000
vn 0.000000 0.000000 1.000000
vn 0.000000 0.000000 1.000000
vn -0.983692 0.000000 0.179859
vn -0.983693 0.000000 0.179859
vn -0.983693 0.000000 0.179859
vn -0.983693 0.000000 0.179859
vn 0.983692 0.000000 0.179859
vn 0.983692 0.000000 0.179859
vn 0.983692 0.000000 0.179859
vn 0.983692 0.000000 0.179859
vn 0.000000 0.983692 0.179859
vn 0.000000 0.983692 0.179859
vn 0.000000 0.983692 0.179859
vn 0.000000 0.983692 0.179859
vn 0.000000 -0.983692 0.179859
vn 0.000000 -0.983692 0.179859
vn 0.000000 -0.983692 0.179859
vn 0.000000 -0.983692 0.179859
vn 0.000000 0.000000 -1.000000
vn 0.000000 0.000000 -1.000000
vn 0.000000 0.000000 -1.000000
vn 0.000000 0.000000 -1.000000
vn -0.983692 0.000000 -0.179859
vn -0.983692 0.000000 -0.179859
vn -0.983692 0.000000 -0.179859
vn -0.983692 0.000000 -0.179859
vn 0.983692 0.000000 -0.179859
vn 0.983692 0.000000 -0.179859
vn 0.983692 0.000000 -0.179859
vn 0.983692 0.000000 -0.179859
vn -0.000000 -0.983693 -0.179859
vn -0.000000 -0.983692 -0.179859
vn -0.000000 -0.983692 -0.179859
vn -0.000000 -0.983693 -0.179859
vn 0.000000 0.983692 -0.179859
vn 0.000000 0.983692 -0.179859
vn 0.000000 0.983692 -0.179859
vn 0.000000 0.983692 -0.179859
vn 0.000000 0.000000 1.000000
vn 0.000000 0.000000 1.000000
vn 0.000000 0.000000 1.000000
vn 0.000000 0.000000 1.000000
vn 0.000000 0.000000 1.000000
vn 0.000000 0.000000 1.000000
vn 0.000000 0.000000 1.000000
vn 0.000000 0.000000 1.000000
vn 0.000000 0.000000 1.000000
vn 0.000000 0.000000 1.000000
vn 0.000000 0.000000 1.000000
vn 0.000000 0.000000 1.000000
vn 0.000000 0.000000 1.000000
vn 0.000000 0.000000 1.000000
vn 0.000000 0.000000 1.000000
vn 0.000000 0.000000 1.000000
vn 0.000000 0.000000 1.000000
vn 0.000000 0.000000 1.000000
vn 0.000000 0.000000 1.000000
vn 0.000000 0.000000 1.000000
vn 0.971904 -0.006627 0.235284
vn 0.971904 -0.006627 0.235284
vn 0.966486 0.001842 0.256714
vn 0.966443 0.001904 0.256872
vn 0.037950 -0.919459 0.391350
vn 0.037950 -0.919459 0.391350
vn 0.037950 -0.919459 0.391350
vn 0.037950 -0.919459 0.391350
vn -0.963018 0.006834 0.269350
vn -0.963018 0.006834 0.269350
vn -0.962959 -0.000058 0.269647
vn -0.962960 0.000022 0.269643
vn -0.036622 0.920214 0.389698
vn -0.036622 0.920214 0.389698
vn -0.036622 0.920214 0.389698
vn -0.036622 0.920214 0.389698
vn 0.972297 -0.003544 0.233722
vn 0.972297 -0.003544 0.233722
vn 0.972297 -0.003544 0.233722
vn 0.972297 -0.003544 0.233722
vn -0.963070 -0.006290 0.269178
vn -0.963070 -0.006290 0.269178
vn -0.963070 -0.006290 0.269178
vn -0.963070 -0.006290 0.269178
vn 0.000000 -0.939175 0.343439
vn 0.000000 -0.939175 0.343439
vn 0.000000 -0.939175 0.343439
vn 0.000000 -0.939175 0.343439
vn -0.962647 0.013435 0.270427
vn -0.962647 0.013435 0.270427
vn -0.962647 0.013435 0.270427
vn -0.962647 0.013435 0.270427
vn 0.962647 0.013435 0.270427
vn 0.962647 0.013435 0.270427
vn 0.962647 0.013435 0.270427
vn 0.962647 0.013435 0.270427
vn 0.000000 0.939175 0.343439
vn 0.000000 0.939175 0.343439
vn 0.000000 0.939175 0.343439
vn 0.000000 0.939175 0.343439
vn 0.962387 -0.017457 0.271119
vn 0.962387 -0.017457 0.271119
vn 0.962388 -0.017457 0.271119
vn 0.962387 -0.017457 0.271119
vn -0.962387 -0.017457 0.271119
vn -0.962387 -0.017457 0.271119
vn -0.962387 -0.017457 0.271119
vn -0.962388 -0.017457 0.271119
vn 0.000000 -0.939175 0.343438
vn 0.000000 -0.939175 0.343438
vn 0.000000 -0.939175 0.343438
vn 0.000000 -0.939175 0.343438
vn -0.969014 0.004129 0.246972
vn -0.969014 0.004129 0.246972
vn -0.969014 0.004129 0.246972
vn -0.969014 0.004129 0.246972
vn 0.963103 0.005677 0.269072
vn 0.963103 0.005677 0.269072
vn 0.963103 0.005677 0.269072
vn 0.963103 0.005677 0.269072
vn -0.015301 0.931692 0.362926
vn -0.015301 0.931692 0.362926
vn -0.015301 0.931692 0.362926
vn -0.015301 0.931692 0.362926
vn 0.000000 0.000000 -1.000000
vn 0.000000 0.000000 -1.000000
vn 0.000000 0.000000 -1.000000
vn 0.000000 0.000000 -1.000000
vn 0.000000 0.000000 -1.000000
vn 0.000000 0.000000 -1.000000
vn 0.000000 0.000000 -1.000000
vn 0.000000 0.000000 -1.000000
vn 0.000000 0.000000 -1.000000
vn 0.000000 0.000000 -1.000000
vn 0.000000 0.000000 -1.000000
vn 0.000000 0.000000 -1.000000
vn 0.000000 0.000000 -1.000000
vn 0.000000 0.000000 -1.000000
vn 0.000000 0.000000 -1.000000
vn 0.000000 0.000000 -1.000000
vn 0.000000 0.000000 -1.000000
vn 0.000000 0.000000 -1.000000
vn 0.000000 0.000000 -1.000000
vn 0.000000 0.000000 -1.000000
vn -0.962760 -0.011505 -0.270111
vn -0.962761 -0.011505 -0.270111
vn -0.962959 -0.000058 -0.269647
vn -0.962960 0.000022 -0.269643
vn 0.037950 -0.919459 -0.391350
vn 0.037950 -0.919459 -0.391350
vn 0.037950 -0.919459 -0.391350
vn 0.037950 -0.919459 -0.391350
vn 0.963043 0.006826 -0.269261
vn 0.963043 0.006826 -0.269261
vn 0.966486 0.001842 -0.256714
vn 0.966443 0.001904 -0.256872
vn -0.036622 0.920214 -0.389698
vn -0.036622 0.920214 -0.389698
vn -0.036622 0.920214 -0.389698
vn -0.036622 0.920214 -0.389698
vn 0.972297 -0.003544 -0.233722
vn 0.972297 -0.003544 -0.233722
vn 0.972297 -0.003544 -0.233722
vn 0.972297 -0.003544 -0.233722
vn -0.963070 -0.006290 -0.269178
vn -0.963070 -0.006290 -0.269178
vn -0.963070 -0.006290 -0.269178
vn -0.963070 -0.006290 -0.269178
vn 0.000000 -0.939175 -0.343440
vn 0.000000 -0.939175 -0.343440
vn 0.000000 -0.939175 -0.343440
vn 0.000000 -0.939175 -0.343440
vn -0.962647 0.013435 -0.270427
vn -0.962647 0.013435 -0.270427
vn -0.962647 0.013435 -0.270427
vn -0.962647 0.013435 -0.270427
vn 0.962647 0.013435 -0.270427
vn 0.962647 0.013435 -0.270427
vn 0.962647 0.013435 -0.270427
vn 0.962647 0.013435 -0.270427
vn 0.000000 0.939175 -0.343439
vn 0.000000 0.939175 -0.343439
vn 0.000000 0.939175 -0.343439
vn 0.000000 0.939175 -0.343439
vn 0.962387 -0.017457 -0.271119
vn 0.962387 -0.017457 -0.271119
vn 0.962388 -0.017457 -0.271119
vn 0.962387 -0.017457 -0.271119
vn -0.962387 -0.017457 -0.271119
vn -0.962388 -0.017457 -0.271119
vn -0.962387 -0.017457 -0.271119
vn -0.962387 -0.017457 -0.271119
vn 0.000000 -0.939175 -0.343438
vn 0.000000 -0.939175 -0.343438
vn 0.000000 -0.939175 -0.343438
vn 0.000000 -0.939175 -0.343438
vn -0.969014 0.004129 -0.246972
vn -0.969014 0.004129 -0.246972
vn -0.969014 0.004129 -0.246972
vn -0.969014 0.004129 -0.246972
vn 0.963103 0.005677 -0.269072
vn 0.963103 0.005677 -0.269072
vn 0.963103 0.005677 -0.269072
vn 0.963103 0.005677 -0.269072
vn -0.015301 0.931693 -0.362925
vn -0.015301 0.931693 -0.362925
vn -0.015301 0.931693 -0.362925
vn -0.015301 0.931693 -0.362925
vn 0.971904 -0.006627 -0.235284
vn 0.966443 0.001904 -0.256872
vn 0.966486 0.001842 -0.256714
vn 0.971904 -0.006627 -0.235284
vn -0.962760 -0.011505 0.270111
vn -0.962960 0.000022 0.269643
vn -0.962959 -0.000058 0.269647
vn -0.962761 -0.011505 0.270111
vn 0.000000 0.000000 1.000000
vn 0.000000 0.000000 1.000000
vn 0.000000 0.000000 1.000000
vn 0.000000 0.000000 1.000000
vn -0.963018 0.006834 -0.269350
vn -0.962960 0.000022 -0.269643
vn -0.962959 -0.000058 -0.269647
vn -0.963018 0.006834 -0.269350
vn 0.000000 0.000000 -1.000000
vn 0.000000 0.000000 -1.000000
vn 0.000000 0.000000 -1.000000
vn 0.000000 0.000000 -1.000000
vn 0.963043 0.006826 0.269261
vn 0.966443 0.001904 0.256872
vn 0.966486 0.001842 0.256714
vn 0.963043 0.006826 0.269261
s off
f 2/6/1 1/5/2 5/2/3 6/1/4
f 4/7/5 3/8/6 8/4/7 7/3/8
f 2/14/9 10/9/10 9/12/11 1/13/12
f 4/15/13 11/11/14 12/10/15 3/16/16
f 5/2/17 1/5/18 4/7/19 7/3/20
f 1/13/21 9/12/22 11/11/23 4/15/24
f 9/12/25 10/9/26 12/10/27 11/11/28
f 10/9/29 2/14/30 3/16/31 12/10/32
f 2/6/33 6/1/34 8/4/35 3/8/36
f 6/1/37 5/2/38 7/3/39 8/4/40
f 15/17/41 13/18/42 18/19/43 17/20/44
f 14/21/45 16/22/46 19/23/47 20/24/48
f 15/25/49 21/26/50 22/27/51 13/28/52
f 14/29/53 24/30/54 23/31/55 16/32/56
f 17/20/57 18/19/58 20/24/59 19/23/60
f 18/19/61 13/18/62 14/21/63 20/24/64
f 13/28/65 22/27/66 24/30/67 14/29/68
f 22/27/69 21/26/70 23/31/71 24/30/72
f 21/26/73 15/25/74 16/32/75 23/31/76
f 15/17/77 17/20/78 19/23/79 16/22/80
f 32/33/81 31/34/82 29/35/83 30/36/84
f 25/37/85 26/38/86 30/36/87 29/35/88
f 27/39/89 28/40/90 31/34/91 32/33/92
f 25/37/93 29/35/94 31/34/95 28/40/96
f 32/33/97 30/36/98 26/38/99 27/39/100
f 36/41/101 34/42/102 33/43/103 35/44/104
f 25/45/105 33/43/106 34/42/107 26/46/108
f 27/47/109 36/41/110 35/44/111 28/48/112
f 36/41/113 27/47/114 26/46/115 34/42/116
f 25/45/117 28/48/118 35/44/119 33/43/120
f 58/49/121 57/50/122 59/51/123 60/52/124
f 64/53/125 63/54/126 65/55/127 66/56/128
f 67/57/129 65/55/130 63/54/131 68/58/132
f 61/59/133 59/51/134 57/50/135 62/60/136
f 56/61/137 55/62/138 85/63/139 90/64/140
f 53/65/141 44/66/142 89/67/143 90/64/144
f 43/68/145 44/66/146 53/65/147 54/69/148
f 55/62/149 37/70/150 86/71/151 85/63/152
f 38/72/153 37/70/154 55/62/155 56/61/156
f 46/73/157 50/74/158 57/50/159 58/49/160
f 49/75/161 45/76/162 60/52/163 59/51/164
f 45/76/165 46/73/166 58/49/167 60/52/168
f 39/77/169 49/75/170 59/51/171 61/59/172
f 50/74/173 40/78/174 62/60/175 57/50/176
f 40/78/177 39/77/178 61/59/179 62/60/180
f 48/79/181 52/80/182 63/54/183 64/53/184
f 51/81/185 47/82/186 66/56/187 65/55/188
f 47/82/189 48/79/190 64/53/191 66/56/192
f 41/83/193 51/81/194 65/55/195 67/57/196
f 52/80/197 42/84/198 68/58/199 63/54/200
f 42/84/201 41/83/202 67/57/203 68/58/204
f 69/85/205 70/86/206 87/87/207 88/88/208
f 74/89/209 76/90/210 75/91/211 73/92/212
f 80/93/213 82/94/214 81/95/215 79/96/216
f 83/97/217 84/98/218 79/96/219 81/95/220
f 77/99/221 78/100/222 73/92/223 75/91/224
f 70/86/225 43/101/226 86/102/227 87/87/228
f 43/101/229 70/86/230 69/85/231 44/103/232
f 72/104/233 38/105/234 89/106/235 88/88/236
f 38/105/237 72/104/238 71/107/239 37/108/240
f 46/109/241 74/89/242 73/92/243 50/110/244
f 49/111/245 75/91/246 76/90/247 45/112/248
f 45/112/249 76/90/250 74/89/251 46/109/252
f 39/113/253 77/99/254 75/91/255 49/111/256
f 50/110/257 73/92/258 78/100/259 40/114/260
f 40/114/261 78/100/262 77/99/263 39/113/264
f 48/115/265 80/93/266 79/96/267 52/116/268
f 51/117/269 81/95/270 82/94/271 47/118/272
f 47/118/273 82/94/274 80/93/275 48/115/276
f 41/119/277 83/97/278 81/95/279 51/117/280
f 52/116/281 79/96/282 84/98/283 42/120/284
f 42/120/285 84/98/286 83/97/287 41/119/288
f 69/85/289 88/88/290 89/106/291 44/103/292
f 54/69/293 85/63/294 86/71/295 43/68/296
f 53/65/297 90/64/298 85/63/299 54/69/300
f 71/107/301 87/87/302 86/102/303 37/108/304
f 72/104/305 88/88/306 87/87/307 71/107/308
f 56/61/309 90/64/310 89/67/311 38/72/312
