# This file uses centimeters as units for non-parametric coordinates.

v -13.515129 -9.452888 4.000001
v -1.662059 -16.516624 4.000001
v -12.656872 -4.146079 4.000001
v -1.056587 -14.120905 4.000000
v -6.241261 -13.367718 4.000001
v -3.261302 -12.566116 4.000001
v 13.802449 12.227532 4.000000
v 15.832932 6.992236 4.000000
v 0.682933 -5.105297 4.000000
v 2.521513 -6.854033 4.000000
v 9.688010 2.137256 4.000000
v 7.714402 4.583456 4.000000
v -13.118697 -2.991511 0.000000
v -0.250718 -14.120049 0.000000
v -16.055172 -9.452887 0.000000
v -1.774370 -17.912437 0.000000
v -6.241260 -14.602659 0.000000
v -3.607670 -11.642464 0.000000
v 13.802449 14.416135 0.000000
v 17.685419 6.751943 0.000000
v 0.682935 -3.736897 0.000000
v 2.911884 -8.025534 0.000000
v 10.223441 0.765381 0.000000
v 7.714402 6.427564 0.000000
v -13.515129 -9.452888 -4.000001
v -1.662059 -16.516624 -4.000001
v -12.656872 -4.146079 -4.000001
v -1.056587 -14.120905 -4.000000
v -6.241261 -13.367718 -4.000001
v -3.261302 -12.566116 -4.000001
v 13.802449 12.227532 -4.000000
v 15.832932 6.992236 -4.000000
v 0.682933 -5.105297 -4.000000
v 2.521513 -6.854033 -4.000000
v 9.688010 2.137256 -4.000000
v 7.714402 4.583456 -4.000000
vt 0.229932 0.978525
vt 0.228889 0.978232
vt 0.230492 0.977082
vt 0.230703 0.977957
vt 0.228889 0.977781
vt 0.230452 0.976572
vt 0.230986 0.977958
vt 0.226593 0.980623
vt 0.229811 0.978863
vt 0.226431 0.981044
vt 0.226343 0.979051
vt 0.231312 0.981251
vt 0.231956 0.980612
vt 0.234464 0.983896
vt 0.233773 0.984790
vt 0.232092 0.980184
vt 0.234651 0.983395
vt 0.237263 0.985582
vt 0.236615 0.985669
vt 0.235904 0.987582
vt 0.235904 0.988381
vt 0.225454 0.979051
vt 0.233773 0.985463
vt 0.231312 0.981750
vt 0.229932 0.978525
vt 0.228889 0.978232
vt 0.230492 0.977082
vt 0.230703 0.977957
vt 0.228889 0.977781
vt 0.230452 0.976572
vt 0.230986 0.977958
vt 0.226593 0.980623
vt 0.229811 0.978863
vt 0.226431 0.981044
vt 0.226343 0.979051
vt 0.231312 0.981251
vt 0.231956 0.980612
vt 0.234464 0.983896
vt 0.233773 0.984790
vt 0.232092 0.980184
vt 0.234651 0.983395
vt 0.237263 0.985582
vt 0.236615 0.985669
vt 0.235904 0.987582
vt 0.235904 0.988381
vt 0.225454 0.979051
vt 0.233773 0.985463
vt 0.231312 0.981750
vn 0.000000 -0.000000 1.000000
vn 0.000000 0.000000 1.000000
vn 0.000000 0.000000 1.000000
vn 0.000000 -0.000000 1.000000
vn -0.486528 -0.830234 0.272034
vn -0.496681 -0.824435 0.271321
vn -0.560159 -0.784563 0.265863
vn -0.560159 -0.784563 0.265863
vn 0.936627 -0.322262 0.137393
vn 0.945594 -0.325348 -0.000000
vn 0.909430 -0.415857 0.000000
vn 0.897266 -0.404322 0.177306
vn 0.664974 0.736477 0.124142
vn 0.664974 0.736477 0.124142
vn 0.670158 0.742219 -0.000000
vn 0.670158 0.742219 -0.000000
vn 0.000000 0.000000 1.000000
vn 0.000000 0.000000 1.000000
vn 0.000000 -0.000000 1.000000
vn 0.000000 0.000000 1.000000
vn 0.000000 -0.000000 1.000000
vn 0.000000 -0.000000 1.000000
vn 0.000000 -0.000000 1.000000
vn 0.000000 0.000000 1.000000
vn 0.792935 -0.554509 0.252535
vn 0.833158 -0.553034 0.000000
vn 0.687106 -0.662341 0.298648
vn 0.673864 -0.674007 0.302692
vn 0.000000 -0.000000 1.000000
vn 0.000000 -0.000000 1.000000
vn 0.000000 -0.000000 1.000000
vn 0.000000 -0.000000 1.000000
vn 0.897266 -0.404322 0.177306
vn 0.909430 -0.415857 0.000000
vn 0.833158 -0.553034 0.000000
vn 0.792935 -0.554509 0.252535
vn 0.673864 -0.674007 0.302692
vn 0.687106 -0.662341 0.298648
vn 0.589332 -0.739653 0.324965
vn 0.589332 -0.739653 0.324965
vn 0.000000 0.000000 1.000000
vn 0.000000 -0.000000 1.000000
vn 0.000000 0.000000 1.000000
vn 0.000000 0.000000 1.000000
vn 0.867781 0.397813 0.297827
vn 0.867781 0.397813 0.297827
vn 0.867781 0.397813 0.297827
vn 0.867781 0.397813 0.297827
vn -0.883239 0.284806 0.372524
vn -0.883239 0.284806 0.372524
vn -0.883239 0.284806 0.372524
vn -0.883239 0.284806 0.372524
vn -0.450655 -0.849535 0.274226
vn -0.496681 -0.824435 0.271321
vn -0.486528 -0.830234 0.272034
vn -0.450655 -0.849535 0.274226
vn -0.801034 0.598618 0.000000
vn -0.839238 0.543764 0.000000
vn -0.833718 0.515149 0.198835
vn -0.781113 0.571867 0.250662
vn -0.839238 0.543764 0.000000
vn -0.881412 0.472348 0.000000
vn -0.868439 0.465396 0.170939
vn -0.833718 0.515149 0.198835
vn -0.753602 0.586972 0.295886
vn -0.801034 0.598618 0.000000
vn -0.781113 0.571867 0.250662
vn -0.753602 0.586972 0.295886
vn 0.000000 -0.000000 -1.000000
vn 0.000000 -0.000000 -1.000000
vn -0.000000 0.000000 -1.000000
vn 0.000000 0.000000 -1.000000
vn -0.486528 -0.830234 -0.272034
vn -0.560159 -0.784563 -0.265863
vn -0.560159 -0.784563 -0.265863
vn -0.496681 -0.824435 -0.271321
vn 0.936627 -0.322262 -0.137393
vn 0.897266 -0.404322 -0.177306
vn 0.909430 -0.415857 0.000000
vn 0.945594 -0.325348 -0.000000
vn 0.664974 0.736477 -0.124142
vn 0.670158 0.742219 -0.000000
vn 0.670158 0.742219 -0.000000
vn 0.664974 0.736477 -0.124142
vn 0.000000 0.000000 -1.000000
vn 0.000000 0.000000 -1.000000
vn 0.000000 -0.000000 -1.000000
vn 0.000000 0.000000 -1.000000
vn 0.000000 -0.000000 -1.000000
vn 0.000000 0.000000 -1.000000
vn 0.000000 -0.000000 -1.000000
vn 0.000000 -0.000000 -1.000000
vn 0.792935 -0.554509 -0.252535
vn 0.673864 -0.674007 -0.302692
vn 0.687106 -0.662341 -0.298648
vn 0.833158 -0.553034 0.000000
vn 0.000000 -0.000000 -1.000000
vn 0.000000 -0.000000 -1.000000
vn 0.000000 -0.000000 -1.000000
vn 0.000000 -0.000000 -1.000000
vn 0.897266 -0.404322 -0.177306
vn 0.792935 -0.554509 -0.252535
vn 0.833158 -0.553034 0.000000
vn 0.909430 -0.415857 0.000000
vn 0.673864 -0.674007 -0.302692
vn 0.589332 -0.739653 -0.324965
vn 0.589331 -0.739653 -0.324965
vn 0.687106 -0.662341 -0.298648
vn 0.000000 0.000000 -1.000000
vn 0.000000 0.000000 -1.000000
vn 0.000000 0.000000 -1.000000
vn 0.000000 -0.000000 -1.000000
vn 0.867781 0.397813 -0.297827
vn 0.867781 0.397813 -0.297827
vn 0.867781 0.397813 -0.297827
vn 0.867781 0.397813 -0.297827
vn -0.883239 0.284806 -0.372524
vn -0.883239 0.284806 -0.372524
vn -0.883239 0.284806 -0.372524
vn -0.883239 0.284806 -0.372524
vn -0.450655 -0.849535 -0.274226
vn -0.450655 -0.849535 -0.274226
vn -0.486528 -0.830234 -0.272034
vn -0.496681 -0.824435 -0.271321
vn -0.801034 0.598618 0.000000
vn -0.781113 0.571867 -0.250662
vn -0.833718 0.515149 -0.198835
vn -0.839238 0.543764 0.000000
vn -0.839238 0.543764 0.000000
vn -0.833718 0.515149 -0.198835
vn -0.868439 0.465396 -0.170939
vn -0.881412 0.472348 0.000000
vn -0.753602 0.586972 -0.295886
vn -0.753602 0.586972 -0.295886
vn -0.781113 0.571867 -0.250662
vn -0.801034 0.598618 0.000000
s off
f 6/1/1 5/2/2 2/3/3 4/4/4
f 5/2/5 17/5/6 16/6/7 2/3/8
f 2/3/9 16/6/10 14/7/11 4/4/12
f 3/8/13 6/1/14 18/9/15 13/10/16
f 1/11/17 5/2/18 6/1/19 3/8/20
f 9/12/21 10/13/22 11/14/23 12/15/24
f 10/13/25 22/16/26 23/17/27 11/14/28
f 6/1/29 4/4/30 10/13/31 9/12/32
f 4/4/33 14/7/34 22/16/35 10/13/36
f 11/14/37 23/17/38 20/18/39 8/19/40
f 12/15/41 11/14/42 8/19/43 7/20/44
f 20/18/45 19/21/46 7/20/47 8/19/48
f 13/10/49 15/22/50 1/11/51 3/8/52
f 15/22/53 17/5/54 5/2/55 1/11/56
f 24/23/57 21/24/58 9/12/59 12/15/60
f 21/24/61 18/9/62 6/1/63 9/12/64
f 19/21/65 24/23/66 12/15/67 7/20/68
f 30/25/69 28/28/70 26/27/71 29/26/72
f 29/26/73 26/27/74 16/30/75 17/29/76
f 26/27/77 28/28/78 14/31/79 16/30/80
f 27/32/81 13/34/82 18/33/83 30/25/84
f 25/35/85 27/32/86 30/25/87 29/26/88
f 33/36/89 36/39/90 35/38/91 34/37/92
f 34/37/93 35/38/94 23/41/95 22/40/96
f 30/25/97 33/36/98 34/37/99 28/28/100
f 28/28/101 34/37/102 22/40/103 14/31/104
f 35/38/105 32/43/106 20/42/107 23/41/108
f 36/39/109 31/44/110 32/43/111 35/38/112
f 20/42/113 32/43/114 31/44/115 19/45/116
f 13/34/117 27/32/118 25/35/119 15/46/120
f 15/46/121 25/35/122 29/26/123 17/29/124
f 24/47/125 36/39/126 33/36/127 21/48/128
f 21/48/129 33/36/130 30/25/131 18/33/132
f 19/45/133 31/44/134 36/39/135 24/47/136
