# This file uses centimeters as units for non-parametric coordinates.

v -23.188499 -23.387020 -8.000000
v 21.740314 -21.990351 -8.000000
v -21.743513 23.166513 -8.000000
v 22.865623 22.706945 -8.000000
v -22.800369 21.979904 0.000000
v -21.940508 -22.463249 0.000000
v 22.669777 -21.679047 0.000000
v 23.397383 22.354441 0.000000
v -24.000000 24.000000 -1.200280
v -24.000000 24.000000 -6.799720
v 24.000000 24.000000 -6.799720
v 24.000000 24.000000 -1.200280
v 24.000000 -24.000000 -6.799720
v 24.000000 -24.000000 -1.200280
v -24.000000 -24.000000 -6.799720
v -24.000000 -24.000000 -1.200280
v 13.675156 22.001026 -8.000000
v -21.956188 4.195375 -8.000000
v 15.102181 23.386589 0.000000
v -24.000000 4.193588 -6.799720
v -24.000000 8.129162 -1.200280
v 14.895687 24.000000 -1.200280
v 13.831094 24.000000 -6.799720
v 6.953168 -22.617529 -8.000000
v 21.844736 -9.362463 -8.000000
v 5.783904 -22.528427 0.000000
v 24.000000 -8.081715 -1.200280
v 24.000000 -9.226398 -6.799720
v 6.276699 -24.000000 -1.200280
v 7.551184 -24.000000 -6.799720
v -24.000000 -9.641382 -1.200280
v -24.000000 -9.548643 -6.799720
v 24.000000 8.594714 -1.200280
v 24.000000 8.410007 -6.799720
v -23.097801 10.386584 0.000000
v -22.032804 6.577384 0.000000
v 14.555643 10.369669 0.000000
v 14.659297 8.843179 -1.049927
v 15.092878 7.375895 0.000000
v 22.667028 10.772682 0.000000
v 22.500124 7.307947 0.000000
v -22.542936 -11.211104 0.000000
v -22.664232 -8.220278 0.000000
v -10.641374 -7.678116 0.000000
v -9.363868 -9.788724 -1.049927
v -7.935102 -11.170012 0.000000
v 21.743479 -9.714810 0.000000
v 21.717424 -6.727919 0.000000
vt 0.921908 0.919479
vt 0.921911 0.918479
vt 0.920920 0.919469
vt 0.921908 0.919479
vt 0.920922 0.918485
vt 0.920920 0.919469
vt 0.921911 0.918479
vt 0.920922 0.918485
vt 0.920922 0.918485
vt 0.921908 0.919479
vt 0.921136 0.918484
vt 0.921910 0.918889
vt 0.921910 0.918891
vt 0.921109 0.918484
vt 0.921131 0.918484
vt 0.921253 0.919472
vt 0.920920 0.919171
vt 0.920920 0.919166
vt 0.921285 0.919473
vt 0.921258 0.919472
vt 0.921909 0.919178
vt 0.920921 0.918805
vt 0.921911 0.918479
vt 0.921911 0.918479
vt 0.921908 0.919479
vt 0.921911 0.918842
vt 0.921909 0.919185
vt 0.920920 0.919469
vt 0.920920 0.919469
vt 0.920920 0.919142
vt 0.920921 0.918800
vt 0.921909 0.919223
vt 0.920922 0.918485
vt 0.921105 0.918484
vt 0.921919 0.918739
vt 0.921029 0.918753
vt 0.920916 0.919108
vt 0.921919 0.918809
vt 0.921011 0.918815
vt 0.921290 0.919473
vt 0.921582 0.919205
vt 0.921909 0.919156
vt 0.921641 0.919141
vt 0.920921 0.918756
vt 0.920921 0.918817
vt 0.920922 0.919175
vt 0.921020 0.918786
vt 0.921615 0.919176
vn 0.000000 -0.000000 1.000000
vn 0.000000 -0.000000 1.000000
vn 0.000000 -0.000000 1.000000
vn 0.000000 0.000000 -1.000000
vn 0.000000 0.000000 -1.000000
vn 0.000000 0.000000 -1.000000
vn -1.000000 0.000000 0.000000
vn -1.000000 0.000000 0.000000
vn -1.000000 0.000000 0.000000
vn -1.000000 0.000000 0.000000
vn 0.000000 1.000000 0.000000
vn 0.000000 1.000000 0.000000
vn 0.000000 1.000000 0.000000
vn 0.000000 1.000000 0.000000
vn 1.000000 0.000000 0.000000
vn 1.000000 0.000000 0.000000
vn 1.000000 0.000000 0.000000
vn 1.000000 0.000000 0.000000
vn 0.000000 -1.000000 0.000000
vn 0.000000 -1.000000 0.000000
vn 0.000000 -1.000000 0.000000
vn 0.000000 -1.000000 0.000000
vn -0.487031 0.002671 -0.873381
vn -0.487031 0.002671 -0.873381
vn -0.487031 0.002671 -0.873381
vn -0.487031 0.002671 -0.873381
vn 0.009597 -0.769395 -0.638701
vn 0.009597 -0.769395 -0.638701
vn 0.009597 -0.769395 -0.638701
vn 0.009597 -0.769395 -0.638701
vn 0.477091 -0.001818 -0.878852
vn 0.477091 -0.001818 -0.878852
vn 0.477091 -0.001818 -0.878852
vn 0.477091 -0.001818 -0.878852
vn -0.021681 0.594587 -0.803739
vn -0.021681 0.594587 -0.803739
vn -0.021681 0.594587 -0.803739
vn -0.021681 0.594587 -0.803739
vn 0.042950 0.724038 0.688421
vn 0.042950 0.724038 0.688421
vn 0.042950 0.724038 0.688421
vn 0.042950 0.724038 0.688421
vn 0.558566 0.018556 0.829252
vn 0.558566 0.018556 0.829252
vn 0.558566 0.018556 0.829252
vn 0.558566 0.018556 0.829252
vn -0.000701 -0.623505 0.781819
vn -0.000701 -0.623505 0.781819
vn -0.000701 -0.623505 0.781819
vn -0.000701 -0.623505 0.781819
vn -0.752743 0.008152 0.658264
vn -0.752743 0.008152 0.658264
vn -0.752743 0.008152 0.658264
vn -0.752743 0.008152 0.658264
vn 0.000000 0.000000 -1.000000
vn 0.000000 0.000000 -1.000000
vn 0.000000 0.000000 -1.000000
vn 0.000000 0.000000 -1.000000
vn 0.000000 0.000000 -1.000000
vn 0.000000 0.000000 -1.000000
vn 0.000000 0.000000 -1.000000
vn 0.000000 0.000000 -1.000000
vn 0.000000 0.000000 -1.000000
vn 0.000000 0.000000 -1.000000
vn -1.000000 0.000000 0.000000
vn -1.000000 0.000000 0.000000
vn -1.000000 0.000000 0.000000
vn -1.000000 0.000000 0.000000
vn 0.000000 1.000000 0.000000
vn 0.000000 1.000000 0.000000
vn 0.000000 1.000000 0.000000
vn 0.000000 1.000000 0.000000
vn -0.701991 0.020580 -0.711888
vn -0.701991 0.020580 -0.711888
vn -0.701991 0.020580 -0.711888
vn -0.701991 0.020580 -0.711888
vn 0.010358 0.650974 -0.759029
vn 0.010358 0.650974 -0.759029
vn 0.010358 0.650974 -0.759029
vn 0.010358 0.650974 -0.759029
vn -0.012273 0.670028 0.742235
vn -0.012273 0.670028 0.742235
vn -0.012273 0.670028 0.742235
vn -0.012273 0.670028 0.742235
vn 1.000000 0.000000 0.000000
vn 1.000000 0.000000 0.000000
vn 1.000000 0.000000 0.000000
vn 1.000000 0.000000 0.000000
vn 0.000000 -1.000000 0.000000
vn 0.000000 -1.000000 0.000000
vn 0.000000 -1.000000 0.000000
vn 0.000000 -1.000000 0.000000
vn 0.011468 -0.571172 -0.820750
vn 0.011468 -0.571172 -0.820750
vn 0.011468 -0.571172 -0.820750
vn 0.011468 -0.571172 -0.820750
vn 0.640049 -0.013710 -0.768212
vn 0.640049 -0.013710 -0.768212
vn 0.640049 -0.013710 -0.768212
vn 0.640049 -0.013710 -0.768212
vn 0.013015 -0.530314 0.847701
vn 0.013015 -0.530314 0.847701
vn 0.013015 -0.530314 0.847701
vn 0.013015 -0.530314 0.847701
vn 0.000000 0.000000 -1.000000
vn 0.000000 0.000000 -1.000000
vn 0.000000 0.000000 -1.000000
vn -1.000000 0.000000 0.000000
vn -1.000000 0.000000 0.000000
vn -1.000000 0.000000 0.000000
vn -1.000000 0.000000 0.000000
vn -0.506405 0.000000 -0.862296
vn -0.506405 0.000000 -0.862296
vn -0.506405 0.000000 -0.862296
vn 1.000000 0.000000 0.000000
vn 1.000000 0.000000 0.000000
vn 1.000000 0.000000 0.000000
vn 1.000000 0.000000 0.000000
vn 0.486545 0.000000 -0.873656
vn 0.486545 0.000000 -0.873656
vn 0.486545 0.000000 -0.873656
vn -0.587583 0.011392 0.809084
vn -0.587583 0.011392 0.809084
vn -0.587583 0.011392 0.809084
vn -0.587583 0.011392 0.809084
vn 0.776015 -0.021001 0.630364
vn 0.776015 -0.021001 0.630364
vn 0.776015 -0.021001 0.630364
vn 0.776015 -0.021001 0.630364
vn -0.563838 -0.013263 0.825779
vn -0.563838 -0.013263 0.825779
vn -0.563838 -0.013263 0.825779
vn -0.563838 -0.013263 0.825779
vn 0.000000 0.000000 1.000000
vn 0.000000 0.000000 1.000000
vn 0.000000 0.000000 1.000000
vn 0.535627 -0.013650 0.844344
vn 0.535627 -0.013650 0.844344
vn 0.535627 -0.013650 0.844344
vn 0.535627 -0.013650 0.844344
vn 0.002980 -0.511590 0.859224
vn 0.002980 -0.511590 0.859224
vn 0.002980 -0.511590 0.859224
vn 0.002980 -0.511590 0.859224
vn -0.013390 0.590682 0.806793
vn -0.013390 0.590682 0.806793
vn -0.013390 0.590682 0.806793
vn -0.013390 0.590682 0.806793
vn 0.003202 -0.537378 0.843335
vn 0.003202 -0.537378 0.843335
vn 0.003202 -0.537378 0.843335
vn 0.003202 -0.537378 0.843335
vn -0.001894 0.605180 0.796086
vn -0.001894 0.605180 0.796086
vn -0.001894 0.605180 0.796086
vn -0.001894 0.605180 0.796086
vn -0.000000 -0.000000 1.000000
vn -0.000000 -0.000000 1.000000
vn -0.000000 -0.000000 1.000000
vn -0.000000 -0.000000 1.000000
vn 0.000000 -0.000000 1.000000
vn 0.000000 -0.000000 1.000000
vn 0.000000 -0.000000 1.000000
vn -0.000000 0.000000 1.000000
vn -0.000000 0.000000 1.000000
vn -0.000000 0.000000 1.000000
vn -0.000000 0.000000 1.000000
vn 0.000000 0.000000 1.000000
vn 0.000000 0.000000 1.000000
vn 0.000000 0.000000 1.000000
vn 0.000000 0.000000 1.000000
vn 0.000000 0.000000 1.000000
vn 0.000000 0.000000 1.000000
vn 0.000000 0.000000 1.000000
vn -0.000000 0.000000 1.000000
vn -0.000000 0.000000 1.000000
vn -0.000000 0.000000 1.000000
vn 0.000000 0.000000 1.000000
vn 0.000000 0.000000 1.000000
vn 0.000000 0.000000 1.000000
vn 0.011947 -0.515733 0.856666
vn 0.011947 -0.515733 0.856666
vn 0.011947 -0.515733 0.856666
vn 0.011947 -0.515733 0.856666
vn 0.018851 0.628215 0.777812
vn 0.018851 0.628215 0.777812
vn 0.018851 0.628215 0.777812
vn 0.018851 0.628215 0.777812
vn 0.023275 -0.527628 0.849156
vn 0.023275 -0.527628 0.849156
vn 0.023275 -0.527628 0.849156
vn 0.023275 -0.527628 0.849156
vn -0.028342 0.602944 0.797280
vn -0.028342 0.602944 0.797280
vn -0.028342 0.602944 0.797280
vn -0.028342 0.602944 0.797280
s off
f 5/24/1 35/35/2 19/34/3
f 3/7/4 17/11/5 18/12/6
f 9/23/7 10/2/8 20/13/9 21/26/10
f 10/2/11 9/23/12 22/14/13 23/15/14
f 11/8/15 12/9/16 33/31/17 34/22/18
f 13/6/19 14/29/20 29/19/21 30/20/22
f 3/7/23 18/12/24 20/13/25 10/2/26
f 1/1/27 24/16/28 30/20/29 15/4/30
f 2/3/31 25/17/32 28/18/33 13/6/34
f 4/5/35 17/11/36 23/15/37 11/8/38
f 12/9/39 22/14/40 19/34/41 8/33/42
f 14/29/43 27/30/44 47/46/45 7/28/46
f 16/10/47 29/19/48 26/40/49 6/25/50
f 9/23/51 21/26/52 35/35/53 5/24/54
f 4/5/55 25/17/56 17/11/57
f 18/12/58 17/11/59 25/17/60 24/16/61
f 18/12/62 24/16/63 1/1/64
f 31/27/65 32/21/66 15/4/67 16/10/68
f 23/15/69 22/14/70 12/9/71 11/8/72
f 32/21/73 18/12/74 1/1/75 15/4/76
f 23/15/77 17/11/78 3/7/79 10/2/80
f 19/34/81 22/14/82 9/23/83 5/24/84
f 28/18/85 27/30/86 14/29/87 13/6/88
f 30/20/89 29/19/90 16/10/91 15/4/92
f 30/20/93 24/16/94 2/3/95 13/6/96
f 34/22/97 25/17/98 4/5/99 11/8/100
f 26/40/101 29/19/102 14/29/103 7/28/104
f 24/16/105 25/17/106 2/3/107
f 21/26/108 20/13/109 32/21/110 31/27/111
f 20/13/112 18/12/113 32/21/114
f 34/22/115 33/31/116 27/30/117 28/18/118
f 28/18/119 25/17/120 34/22/121
f 36/38/122 21/26/123 31/27/124 43/42/125
f 40/44/126 33/31/127 12/9/128 8/33/129
f 42/32/130 31/27/131 16/10/132 6/25/133
f 47/46/134 26/40/135 7/28/136
f 48/37/137 27/30/138 33/31/139 41/45/140
f 35/35/141 21/26/142 38/47/143 37/36/144
f 21/26/145 36/38/146 39/39/147 38/47/148
f 43/42/149 31/27/150 45/48/151 44/43/152
f 31/27/153 42/32/154 46/41/155 45/48/156
f 8/33/157 19/34/158 37/36/159 40/44/160
f 35/35/161 37/36/162 19/34/163
f 44/43/164 48/37/165 39/39/166 36/38/167
f 41/45/168 39/39/169 48/37/170
f 46/41/171 42/32/172 6/25/173 26/40/174
f 47/46/175 46/41/176 26/40/177
f 36/38/178 43/42/179 44/43/180
f 37/36/181 38/47/182 33/31/183 40/44/184
f 38/47/185 39/39/186 41/45/187 33/31/188
f 44/43/189 45/48/190 27/30/191 48/37/192
f 45/48/193 46/41/194 47/46/195 27/30/196
