# This file uses centimeters as units for non-parametric coordinates.

v 0.000000 -20.000000 0.000000
v -0.000000 20.000000 0.000000
v -12.000000 0.000000 -0.000000
v 12.000000 -0.000000 -0.000000
v -8.268190 0.000000 4.000000
v 0.000000 13.780317 4.000000
v 8.268190 0.000000 4.000000
v 0.000000 -13.780317 4.000000
v -8.268190 0.000000 -4.000000
v -0.000000 13.780317 -4.000000
v 8.268190 -0.000000 -4.000000
v 0.000000 -13.780317 -4.000000
vt 0.012612 0.945925
vt 0.012825 0.946279
vt 0.012402 0.946279
vt 0.012612 0.946632
vt 0.012620 0.945778
vt 0.012921 0.946279
vt 0.012323 0.946278
vt 0.012620 0.946778
vt 0.012402 0.946279
vt 0.012612 0.945925
vt 0.012825 0.946279
vt 0.012612 0.946632
vt 0.012620 0.945778
vt 0.012921 0.946279
vt 0.012323 0.946278
vt 0.012620 0.946778
vn 0.000000 0.000000 1.000000
vn 0.000000 0.000000 1.000000
vn 0.000000 0.000000 1.000000
vn 0.000000 0.000000 1.000000
vn -0.669590 0.401754 0.624695
vn -0.669590 0.401754 0.624695
vn -0.669590 0.401754 0.624695
vn -0.669590 0.401754 0.624695
vn 0.669590 0.401754 0.624695
vn 0.669590 0.401754 0.624695
vn 0.669590 0.401754 0.624695
vn 0.669590 0.401754 0.624695
vn 0.669590 -0.401754 0.624695
vn 0.669590 -0.401754 0.624695
vn 0.669590 -0.401754 0.624695
vn 0.669590 -0.401754 0.624695
vn -0.669590 -0.401754 0.624695
vn -0.669590 -0.401754 0.624695
vn -0.669590 -0.401754 0.624695
vn -0.669590 -0.401754 0.624695
vn 0.000000 0.000000 -1.000000
vn 0.000000 0.000000 -1.000000
vn 0.000000 0.000000 -1.000000
vn 0.000000 0.000000 -1.000000
vn -0.669589 0.401754 -0.624695
vn -0.669589 0.401754 -0.624695
vn -0.669589 0.401754 -0.624695
vn -0.669589 0.401754 -0.624695
vn 0.669589 0.401754 -0.624695
vn 0.669589 0.401754 -0.624695
vn 0.669589 0.401754 -0.624695
vn 0.669589 0.401754 -0.624695
vn 0.669589 -0.401754 -0.624695
vn 0.669589 -0.401754 -0.624695
vn 0.669589 -0.401754 -0.624695
vn 0.669589 -0.401754 -0.624695
vn -0.669589 -0.401754 -0.624695
vn -0.669589 -0.401754 -0.624695
vn -0.669589 -0.401754 -0.624695
vn -0.669589 -0.401754 -0.624695
s off
f 7/3/1 6/1/2 5/2/3 8/4/4
f 2/5/5 3/6/6 5/2/7 6/1/8
f 4/7/9 2/5/10 6/1/11 7/3/12
f 1/8/13 4/7/14 7/3/15 8/4/16
f 3/6/17 1/8/18 8/4/19 5/2/20
f 11/9/21 12/12/22 9/11/23 10/10/24
f 2/13/25 10/10/26 9/11/27 3/14/28
f 4/15/29 11/9/30 10/10/31 2/13/32
f 1/16/33 12/12/34 11/9/35 4/15/36
f 3/14/37 9/11/38 12/12/39 1/16/40
