# This file uses centimeters as units for non-parametric coordinates.

v -19.156479 -12.468288 2.000000
v 19.156479 -12.468288 2.000000
v -19.156479 12.468288 2.000000
v 19.156479 12.468288 2.000000
v -16.600006 9.908958 2.000000
v -16.600006 -9.908958 2.000000
v 16.600006 -9.908958 2.000000
v 16.600006 9.908958 2.000000
v -16.600006 0.470119 2.000000
v 3.898911 -9.908958 2.000000
v -12.616287 4.075806 2.000000
v -0.720810 -5.997070 2.000000
v 5.539932 -1.066383 2.000000
v -12.341736 2.435513 4.000000
v 1.304718 -8.866032 4.000000
v -15.071274 -0.035011 4.000000
v -15.071274 -8.866032 4.000000
v 5.531815 -2.133751 4.000000
v 14.309235 -9.165691 4.000000
v 0.735107 -5.911434 4.000000
v 4.578201 -9.165691 4.000000
v 15.544189 5.743618 2.000000
v 13.716522 8.522247 2.000000
v 10.187119 8.772663 2.000000
v 7.660568 7.014824 2.000000
v 6.960571 3.683647 2.000000
v 8.999390 1.148418 2.000000
v 12.303040 0.580223 2.000000
v 14.785339 2.398670 2.000000
v 14.392334 5.466282 4.000000
v 14.189957 2.779884 4.000000
v 12.993073 7.501347 4.000000
v 10.718552 7.823792 4.000000
v 8.566833 6.675137 4.000000
v 7.998566 4.150829 4.000000
v 9.518997 1.997734 4.000000
v 11.967682 1.611141 4.000000
v -20.000000 -13.308956 0.000000
v 20.000000 -13.308956 0.000000
v -20.000000 13.308958 0.000000
v 20.000000 13.308958 0.000000
v -19.156479 -12.468288 -2.000000
v 19.156479 -12.468288 -2.000000
v -19.156479 12.468288 -2.000000
v 19.156479 12.468288 -2.000000
v -16.600006 9.908958 -2.000000
v -16.600006 -9.908958 -2.000000
v 16.600006 -9.908958 -2.000000
v 16.600006 9.908958 -2.000000
v -16.600006 0.470119 -2.000000
v 3.898911 -9.908958 -2.000000
v -12.616287 4.075806 -2.000000
v -0.720810 -5.997070 -2.000000
v 5.539932 -1.066383 -2.000000
v -12.341736 2.435513 -4.000000
v 1.304718 -8.866032 -4.000000
v -15.071274 -0.035011 -4.000000
v -15.071274 -8.866032 -4.000000
v 5.531815 -2.133751 -4.000000
v 14.309235 -9.165691 -4.000000
v 0.735107 -5.911434 -4.000000
v 4.578201 -9.165691 -4.000000
v 15.544189 5.743618 -2.000000
v 13.716522 8.522247 -2.000000
v 10.187119 8.772663 -2.000000
v 7.660568 7.014824 -2.000000
v 6.960571 3.683647 -2.000000
v 8.999390 1.148418 -2.000000
v 12.303040 0.580223 -2.000000
v 14.785339 2.398670 -2.000000
v 14.392334 5.466282 -4.000000
v 14.189957 2.779884 -4.000000
v 12.993073 7.501347 -4.000000
v 10.718552 7.823792 -4.000000
v 8.566833 6.675137 -4.000000
v 7.998566 4.150829 -4.000000
v 9.518997 1.997734 -4.000000
v 11.967682 1.611141 -4.000000
vt 0.987091 0.982702
vt 0.987174 0.983555
vt 0.986407 0.983409
vt 0.986324 0.982645
vt 0.987215 0.982635
vt 0.987242 0.983578
vt 0.986254 0.983569
vt 0.986293 0.982639
vt 0.987243 0.983055
vt 0.986632 0.983572
vt 0.424384 0.952855
vt 0.424303 0.952811
vt 0.424483 0.952851
vt 0.231192 0.921026
vt 0.231906 0.920437
vt 0.232065 0.920602
vt 0.232048 0.921036
vt 0.233549 0.954155
vt 0.234088 0.953725
vt 0.234401 0.953973
vt 0.234171 0.954163
vt 0.233491 0.954177
vt 0.234126 0.953667
vt 0.234491 0.953963
vt 0.234219 0.954186
vt 0.231125 0.921057
vt 0.231345 0.920877
vt 0.231934 0.920393
vt 0.232125 0.920571
vt 0.232105 0.921070
vt 0.424427 0.953097
vt 0.424520 0.953085
vt 0.424619 0.953157
vt 0.424335 0.952938
vt 0.424358 0.953039
vt 0.424316 0.953398
vt 0.424577 0.953010
vt 0.424556 0.952907
vt 0.139800 0.986262
vt 0.139773 0.985936
vt 0.139941 0.985688
vt 0.140216 0.985648
vt 0.140477 0.985789
vt 0.140545 0.986096
vt 0.140361 0.986356
vt 0.140067 0.986402
vt 0.139753 0.986303
vt 0.139661 0.985912
vt 0.139872 0.985585
vt 0.140285 0.985554
vt 0.140581 0.985762
vt 0.140661 0.986153
vt 0.140424 0.986449
vt 0.140041 0.986514
vt 0.987150 0.983505
vt 0.986597 0.983231
vt 0.986432 0.982688
vt 0.986986 0.982802
vt 0.987091 0.982702
vt 0.987174 0.983555
vt 0.987242 0.983578
vt 0.987243 0.983055
vt 0.987215 0.982635
vt 0.986407 0.983409
vt 0.986254 0.983569
vt 0.986632 0.983572
vt 0.986324 0.982645
vt 0.986293 0.982639
vt 0.231192 0.921026
vt 0.231906 0.920437
vt 0.232065 0.920602
vt 0.232048 0.921036
vt 0.233549 0.954155
vt 0.234088 0.953725
vt 0.234401 0.953973
vt 0.234171 0.954163
vt 0.231125 0.921057
vt 0.231345 0.920877
vt 0.231934 0.920393
vt 0.232125 0.920571
vt 0.232105 0.921070
vt 0.233491 0.954177
vt 0.234126 0.953667
vt 0.234491 0.953963
vt 0.234219 0.954186
vt 0.421279 0.952070
vt 0.421180 0.952063
vt 0.421361 0.952028
vt 0.421237 0.952308
vt 0.421043 0.952362
vt 0.421143 0.952293
vt 0.421350 0.952609
vt 0.421307 0.952252
vt 0.421329 0.952152
vt 0.140477 0.985789
vt 0.139773 0.985936
vt 0.139941 0.985688
vt 0.140216 0.985648
vt 0.139753 0.986303
vt 0.139661 0.985912
vt 0.139800 0.986262
vt 0.139872 0.985585
vt 0.140285 0.985554
vt 0.140581 0.985762
vt 0.140661 0.986153
vt 0.140545 0.986096
vt 0.140424 0.986449
vt 0.140361 0.986356
vt 0.140041 0.986514
vt 0.140067 0.986402
vt 0.421086 0.952218
vt 0.420361 0.952030
vt 0.987150 0.983505
vt 0.986597 0.983231
vt 0.986432 0.982688
vt 0.986986 0.982802
vt 0.425303 0.952837
vt 0.425170 0.953023
vt 0.424802 0.953319
vt 0.425296 0.953146
vt 0.421106 0.952117
vt 0.420860 0.952518
vt 0.420492 0.952217
vt 0.420366 0.952334
vn 0.000000 0.000000 1.000000
vn 0.000000 0.000000 1.000000
vn 0.000000 0.000000 1.000000
vn 0.000000 0.000000 1.000000
vn 0.000000 0.000000 1.000000
vn 0.000000 0.000000 1.000000
vn 0.000000 0.000000 1.000000
vn 0.000000 0.000000 1.000000
vn 0.000000 0.000000 1.000000
vn 0.000000 0.000000 1.000000
vn 0.000000 0.000000 1.000000
vn 0.000000 0.000000 1.000000
vn 0.000000 0.000000 1.000000
vn 0.000000 0.000000 1.000000
vn 0.000000 0.000000 1.000000
vn 0.000000 0.000000 1.000000
vn 0.000000 0.000000 1.000000
vn 0.000000 0.000000 1.000000
vn 0.000000 0.000000 1.000000
vn 0.000000 0.000000 1.000000
vn 0.000000 0.000000 1.000000
vn 0.000000 0.000000 1.000000
vn 0.582710 0.699637 0.413468
vn 0.582710 0.699637 0.413468
vn 0.582710 0.699637 0.413468
vn 0.582710 0.699637 0.413468
vn 0.569283 0.672290 0.473227
vn 0.569283 0.672290 0.473227
vn 0.569283 0.672290 0.473227
vn -0.549701 0.607333 0.573564
vn -0.549701 0.607333 0.573564
vn -0.549701 0.607333 0.573564
vn -0.549701 0.607333 0.573564
vn -0.794488 0.000000 0.607280
vn -0.794488 0.000000 0.607280
vn -0.794488 0.000000 0.607280
vn -0.794488 0.000000 0.607280
vn 0.000000 -0.886685 0.462374
vn 0.000000 -0.886685 0.462374
vn 0.000000 -0.886685 0.462374
vn 0.000000 -0.886685 0.462374
vn 0.575573 0.719262 0.389073
vn 0.575573 0.719262 0.389073
vn 0.575573 0.719262 0.389073
vn 0.575573 0.719262 0.389073
vn -0.571104 0.725159 0.384689
vn -0.571104 0.725159 0.384689
vn -0.571104 0.725159 0.384689
vn -0.571104 0.725159 0.384689
vn -0.577280 -0.681736 0.449427
vn -0.577280 -0.681736 0.449427
vn -0.577280 -0.681736 0.449427
vn -0.577280 -0.681736 0.449427
vn 0.000000 -0.937363 0.348355
vn 0.000000 -0.937363 0.348355
vn 0.000000 -0.937363 0.348355
vn 0.000000 -0.937363 0.348355
vn 0.000000 0.000000 1.000000
vn 0.000000 0.000000 1.000000
vn 0.000000 0.000000 1.000000
vn 0.000000 0.000000 1.000000
vn 0.000000 0.000000 1.000000
vn 0.000000 0.000000 1.000000
vn 0.000000 0.000000 1.000000
vn 0.000000 0.000000 1.000000
vn 0.000000 0.000000 1.000000
vn 0.000000 0.000000 1.000000
vn 0.000000 0.000000 1.000000
vn 0.000000 0.000000 1.000000
vn 0.000000 0.000000 1.000000
vn 0.000000 0.000000 1.000000
vn 0.000000 0.000000 1.000000
vn 0.000000 0.000000 1.000000
vn 0.000000 0.000000 1.000000
vn 0.000000 0.000000 1.000000
vn 0.000000 0.000000 1.000000
vn 0.000000 0.000000 1.000000
vn 0.000000 0.000000 1.000000
vn 0.000000 0.000000 1.000000
vn 0.000000 0.000000 1.000000
vn 0.000000 0.000000 1.000000
vn 0.000000 0.000000 1.000000
vn 0.000000 0.000000 1.000000
vn 0.905419 -0.144298 0.399243
vn 0.905419 -0.144298 0.399243
vn 0.905419 -0.144298 0.399243
vn 0.905419 -0.144298 0.399243
vn 0.721588 0.483727 0.495297
vn 0.721588 0.483727 0.495297
vn 0.721588 0.483727 0.495297
vn 0.721588 0.483727 0.495297
vn 0.088038 0.891958 0.443465
vn 0.088038 0.891958 0.443465
vn 0.088038 0.891958 0.443465
vn 0.088038 0.891958 0.443465
vn -0.478828 0.770717 0.420381
vn -0.478828 0.770717 0.420381
vn -0.478828 0.770717 0.420381
vn -0.478828 0.770717 0.420381
vn -0.885091 0.191706 0.424101
vn -0.885091 0.191706 0.424101
vn -0.885091 0.191706 0.424101
vn -0.885091 0.191706 0.424101
vn -0.709773 -0.538841 0.453732
vn -0.709773 -0.538841 0.453732
vn -0.709773 -0.538841 0.453732
vn -0.709773 -0.538841 0.453732
vn -0.148119 -0.892377 0.426292
vn -0.148119 -0.892377 0.426292
vn -0.148119 -0.892377 0.426292
vn -0.148119 -0.892377 0.426292
vn 0.493721 -0.777570 0.389390
vn 0.493721 -0.777570 0.389390
vn 0.493721 -0.777570 0.389390
vn 0.493721 -0.777570 0.389390
vn 0.000000 0.000000 1.000000
vn 0.000000 0.000000 1.000000
vn 0.000000 0.000000 1.000000
vn 0.000000 0.000000 1.000000
vn 0.000000 0.000000 1.000000
vn 0.000000 0.000000 1.000000
vn 0.000000 0.000000 1.000000
vn 0.000000 0.000000 1.000000
vn 0.000000 0.000000 1.000000
vn 0.000000 0.000000 1.000000
vn 0.000000 0.000000 1.000000
vn 0.000000 0.000000 1.000000
vn 0.000000 0.000000 1.000000
vn 0.000000 0.000000 1.000000
vn 0.000000 0.000000 1.000000
vn 0.000000 0.000000 1.000000
vn 0.000000 0.000000 1.000000
vn 0.000000 0.000000 1.000000
vn 0.000000 0.000000 1.000000
vn 0.000000 -0.921872 0.387494
vn 0.000000 -0.921872 0.387494
vn 0.000000 -0.921872 0.387494
vn 0.000000 -0.921872 0.387494
vn 0.000000 0.921872 0.387495
vn 0.000000 0.921872 0.387495
vn 0.000000 0.921872 0.387495
vn 0.000000 0.921872 0.387495
vn -0.921402 0.000000 0.388611
vn -0.921402 0.000000 0.388611
vn -0.921402 0.000000 0.388611
vn -0.921402 0.000000 0.388611
vn 0.921402 0.000000 0.388611
vn 0.921402 0.000000 0.388611
vn 0.921402 0.000000 0.388611
vn 0.921402 0.000000 0.388611
vn 0.000000 0.000000 1.000000
vn 0.000000 0.000000 1.000000
vn 0.000000 0.000000 1.000000
vn 0.000000 0.000000 1.000000
vn 0.000000 0.000000 1.000000
vn 0.000000 0.000000 1.000000
vn 0.000000 0.000000 1.000000
vn 0.000000 0.000000 1.000000
vn 0.000000 0.000000 -1.000000
vn 0.000000 0.000000 -1.000000
vn 0.000000 0.000000 -1.000000
vn 0.000000 0.000000 -1.000000
vn 0.000000 0.000000 -1.000000
vn 0.000000 0.000000 -1.000000
vn 0.000000 0.000000 -1.000000
vn 0.000000 0.000000 -1.000000
vn 0.000000 0.000000 -1.000000
vn 0.000000 0.000000 -1.000000
vn 0.000000 0.000000 -1.000000
vn 0.000000 0.000000 -1.000000
vn 0.000000 0.000000 -1.000000
vn 0.000000 0.000000 -1.000000
vn 0.000000 0.000000 -1.000000
vn 0.000000 0.000000 -1.000000
vn 0.000000 0.000000 -1.000000
vn 0.000000 0.000000 -1.000000
vn 0.000000 0.000000 -1.000000
vn 0.000000 0.000000 -1.000000
vn 0.000000 0.000000 -1.000000
vn 0.000000 0.000000 -1.000000
vn 0.000000 0.000000 -1.000000
vn 0.582710 0.699637 -0.413468
vn 0.582710 0.699637 -0.413468
vn 0.582710 0.699637 -0.413468
vn 0.582710 0.699637 -0.413468
vn 0.569283 0.672290 -0.473227
vn 0.569283 0.672290 -0.473227
vn 0.569283 0.672290 -0.473227
vn -0.549701 0.607333 -0.573564
vn -0.549701 0.607333 -0.573564
vn -0.549701 0.607333 -0.573564
vn -0.549701 0.607333 -0.573564
vn -0.794488 0.000000 -0.607280
vn -0.794488 0.000000 -0.607280
vn -0.794488 0.000000 -0.607280
vn -0.794488 0.000000 -0.607280
vn 0.000000 -0.886685 -0.462374
vn 0.000000 -0.886685 -0.462374
vn 0.000000 -0.886685 -0.462374
vn 0.000000 -0.886685 -0.462374
vn 0.575573 0.719262 -0.389073
vn 0.575573 0.719262 -0.389073
vn 0.575573 0.719262 -0.389073
vn 0.575573 0.719262 -0.389073
vn -0.571104 0.725159 -0.384689
vn -0.571104 0.725159 -0.384689
vn -0.571104 0.725159 -0.384689
vn -0.571104 0.725159 -0.384689
vn -0.577280 -0.681736 -0.449427
vn -0.577280 -0.681736 -0.449427
vn -0.577280 -0.681736 -0.449427
vn -0.577280 -0.681736 -0.449427
vn 0.000000 -0.937363 -0.348355
vn 0.000000 -0.937363 -0.348355
vn 0.000000 -0.937363 -0.348355
vn 0.000000 -0.937363 -0.348355
vn 0.000000 0.000000 -1.000000
vn 0.000000 0.000000 -1.000000
vn 0.000000 0.000000 -1.000000
vn 0.000000 0.000000 -1.000000
vn 0.000000 0.000000 -1.000000
vn 0.000000 0.000000 -1.000000
vn 0.000000 0.000000 -1.000000
vn 0.000000 0.000000 -1.000000
vn 0.000000 0.000000 -1.000000
vn 0.000000 0.000000 -1.000000
vn 0.000000 0.000000 -1.000000
vn 0.000000 0.000000 -1.000000
vn 0.000000 0.000000 -1.000000
vn 0.000000 0.000000 -1.000000
vn 0.000000 0.000000 -1.000000
vn 0.000000 0.000000 -1.000000
vn 0.000000 0.000000 -1.000000
vn 0.000000 0.000000 -1.000000
vn 0.000000 0.000000 -1.000000
vn 0.000000 0.000000 -1.000000
vn 0.000000 0.000000 -1.000000
vn 0.000000 0.000000 -1.000000
vn 0.000000 0.000000 -1.000000
vn 0.000000 0.000000 -1.000000
vn 0.000000 0.000000 -1.000000
vn 0.000000 0.000000 -1.000000
vn 0.905419 -0.144298 -0.399243
vn 0.905419 -0.144298 -0.399243
vn 0.905419 -0.144298 -0.399243
vn 0.905419 -0.144298 -0.399243
vn 0.721588 0.483727 -0.495297
vn 0.721588 0.483727 -0.495297
vn 0.721588 0.483727 -0.495297
vn 0.721588 0.483727 -0.495297
vn 0.088038 0.891957 -0.443465
vn 0.088038 0.891957 -0.443465
vn 0.088038 0.891957 -0.443465
vn 0.088038 0.891957 -0.443465
vn -0.478828 0.770717 -0.420381
vn -0.478828 0.770717 -0.420381
vn -0.478828 0.770717 -0.420381
vn -0.478828 0.770717 -0.420381
vn -0.885091 0.191706 -0.424101
vn -0.885091 0.191706 -0.424101
vn -0.885091 0.191706 -0.424101
vn -0.885091 0.191706 -0.424101
vn -0.709773 -0.538841 -0.453732
vn -0.709773 -0.538841 -0.453732
vn -0.709773 -0.538841 -0.453732
vn -0.709773 -0.538841 -0.453732
vn -0.148119 -0.892377 -0.426292
vn -0.148119 -0.892377 -0.426292
vn -0.148119 -0.892377 -0.426292
vn -0.148119 -0.892377 -0.426292
vn 0.493721 -0.777570 -0.389390
vn 0.493721 -0.777570 -0.389390
vn 0.493721 -0.777570 -0.389390
vn 0.493721 -0.777570 -0.389390
vn 0.000000 0.000000 -1.000000
vn 0.000000 0.000000 -1.000000
vn 0.000000 0.000000 -1.000000
vn 0.000000 0.000000 -1.000000
vn 0.000000 0.000000 -1.000000
vn 0.000000 0.000000 -1.000000
vn 0.000000 0.000000 -1.000000
vn 0.000000 0.000000 -1.000000
vn 0.000000 0.000000 -1.000000
vn 0.000000 0.000000 -1.000000
vn 0.000000 0.000000 -1.000000
vn 0.000000 0.000000 -1.000000
vn 0.000000 0.000000 -1.000000
vn 0.000000 0.000000 -1.000000
vn 0.000000 0.000000 -1.000000
vn 0.000000 0.000000 -1.000000
vn 0.000000 0.000000 -1.000000
vn 0.000000 0.000000 -1.000000
vn 0.000000 0.000000 -1.000000
vn 0.000000 -0.921872 -0.387494
vn 0.000000 -0.921872 -0.387494
vn 0.000000 -0.921872 -0.387494
vn 0.000000 -0.921872 -0.387494
vn 0.000000 0.921872 -0.387495
vn 0.000000 0.921872 -0.387495
vn 0.000000 0.921872 -0.387495
vn 0.000000 0.921872 -0.387495
vn -0.921402 0.000000 -0.388611
vn -0.921402 0.000000 -0.388611
vn -0.921402 0.000000 -0.388611
vn -0.921402 0.000000 -0.388611
vn 0.921402 0.000000 -0.388611
vn 0.921402 0.000000 -0.388611
vn 0.921402 0.000000 -0.388611
vn 0.921402 0.000000 -0.388611
vn 0.000000 0.000000 -1.000000
vn 0.000000 0.000000 -1.000000
vn 0.000000 0.000000 -1.000000
vn 0.000000 0.000000 -1.000000
vn 0.000000 0.000000 -1.000000
vn 0.000000 0.000000 -1.000000
vn 0.000000 0.000000 -1.000000
vn 0.000000 0.000000 -1.000000
vn 0.000000 0.000000 1.000000
vn 0.000000 0.000000 1.000000
vn 0.000000 0.000000 1.000000
vn 0.000000 0.000000 1.000000
vn 0.000000 0.000000 1.000000
vn 0.000000 0.000000 1.000000
vn 0.000000 0.000000 1.000000
vn 0.000000 0.000000 1.000000
vn 0.000000 0.000000 -1.000000
vn 0.000000 0.000000 -1.000000
vn 0.000000 0.000000 -1.000000
vn 0.000000 0.000000 -1.000000
vn 0.000000 0.000000 -1.000000
vn 0.000000 0.000000 -1.000000
vn 0.000000 0.000000 -1.000000
s off
f 3/1/1 9/9/2 5/5/3
f 10/10/4 2/3/5 7/7/6
f 2/3/7 4/4/8 8/8/9 7/7/10
f 4/4/11 3/1/12 5/5/13 8/8/14
f 15/14/15 14/15/16 16/16/17 17/17/18
f 19/18/19 18/19/20 20/20/21 21/21/22
f 10/26/23 12/27/24 14/15/25 15/14/26
f 12/27/27 11/28/28 14/15/29
f 11/28/30 9/29/31 16/16/32 14/15/33
f 9/29/34 6/30/35 17/17/36 16/16/37
f 6/30/38 10/26/39 15/14/40 17/17/41
f 7/22/42 13/23/43 18/19/44 19/18/45
f 13/23/46 12/24/47 20/20/48 18/19/49
f 12/24/50 10/25/51 21/21/52 20/20/53
f 10/25/54 7/22/55 19/18/56 21/21/57
f 23/11/58 8/12/59 24/13/60
f 28/31/61 27/32/62 13/33/63
f 8/12/64 22/34/65 29/35/66 7/36/67
f 8/12/68 23/11/69 22/34/70
f 26/37/71 25/38/72 5/117/73
f 5/117/74 25/38/75 24/13/76
f 13/33/77 27/32/78 26/37/79
f 34/43/80 30/40/81 32/41/82 33/42/83
f 29/47/84 22/48/85 30/40/86 31/39/87
f 22/48/88 23/49/89 32/41/90 30/40/91
f 23/49/92 24/50/93 33/42/94 32/41/95
f 24/50/96 25/51/97 34/43/98 33/42/99
f 25/51/100 26/52/101 35/44/102 34/43/103
f 26/52/104 27/53/105 36/45/106 35/44/107
f 27/53/108 28/54/109 37/46/110 36/45/111
f 28/54/112 29/47/113 31/39/114 37/46/115
f 7/36/116 28/31/117 13/33/118
f 7/36/119 29/35/120 28/31/121
f 13/33/122 11/118/123 12/119/124
f 11/118/125 5/117/126 9/120/127
f 13/33/128 26/37/129 5/117/130 11/118/131
f 5/117/132 24/13/133 8/12/134
f 2/3/135 1/2/136 38/55/137 39/56/138
f 3/1/139 4/4/140 41/57/141 40/58/142
f 1/2/143 3/1/144 40/58/145 38/55/146
f 4/4/147 2/3/148 39/56/149 41/57/150
f 31/39/151 35/44/152 36/45/153 37/46/154
f 31/39/155 30/40/156 34/43/157 35/44/158
f 44/59/159 46/63/160 50/62/161
f 42/60/162 47/61/163 51/66/164 43/64/165
f 43/64/166 48/65/167 49/68/168 45/67/169
f 45/67/170 49/68/171 46/63/172 44/59/173
f 56/69/174 58/72/175 57/71/176 55/70/177
f 60/73/178 62/76/179 61/75/180 59/74/181
f 51/77/182 56/69/183 55/70/184 53/78/185
f 53/78/186 55/70/187 52/79/188
f 52/79/189 55/70/190 57/71/191 50/80/192
f 50/80/193 57/71/194 58/72/195 47/81/196
f 47/81/197 58/72/198 56/69/199 51/77/200
f 48/82/201 60/73/202 59/74/203 54/83/204
f 54/83/205 59/74/206 61/75/207 53/84/208
f 53/84/209 61/75/210 62/76/211 51/85/212
f 51/85/213 62/76/214 60/73/215 48/82/216
f 64/86/217 65/87/218 49/88/219
f 69/89/220 54/90/221 68/91/222
f 49/88/223 48/92/224 70/93/225 63/94/226
f 49/88/227 63/94/228 64/86/229
f 67/111/230 46/112/231 66/121/232
f 46/112/233 65/87/234 66/121/235
f 54/90/236 67/111/237 68/91/238
f 75/95/239 74/98/240 73/97/241 71/96/242
f 70/99/243 72/101/244 71/96/245 63/100/246
f 63/100/247 71/96/248 73/97/249 64/102/250
f 64/102/251 73/97/252 74/98/253 65/103/254
f 65/103/255 74/98/256 75/95/257 66/104/258
f 66/104/259 75/95/260 76/106/261 67/105/262
f 67/105/263 76/106/264 77/108/265 68/107/266
f 68/107/267 77/108/268 78/110/269 69/109/270
f 69/109/271 78/110/272 72/101/273 70/99/274
f 48/92/275 54/90/276 69/89/277
f 48/92/278 69/89/279 70/93/280
f 54/90/281 53/122/282 52/123/283
f 52/123/284 50/124/285 46/112/286
f 54/90/287 52/123/288 46/112/289 67/111/290
f 46/112/291 49/88/292 65/87/293
f 43/64/294 39/114/295 38/113/296 42/60/297
f 44/59/298 40/116/299 41/115/300 45/67/301
f 42/60/302 38/113/303 40/116/304 44/59/305
f 45/67/306 41/115/307 39/114/308 43/64/309
f 72/101/310 78/110/311 77/108/312 76/106/313
f 72/101/314 76/106/315 75/95/316 71/96/317
f 3/1/318 1/2/319 6/6/320 9/9/321
f 1/2/322 2/3/323 10/10/324 6/6/325
f 44/59/326 50/62/327 47/61/328 42/60/329
f 43/64/330 51/66/331 48/65/332
