# This file uses centimeters as units for non-parametric coordinates.

v 5.117425 14.650910 0.000000
v 0.304138 17.781052 -0.000000
v -4.813286 15.177698 -0.000000
v -5.117424 9.444199 0.000000
v -0.304138 6.314059 -0.000000
v 4.813287 8.917416 -0.000000
v 2.896508 13.823466 4.000000
v 0.346958 15.481472 4.000000
v -2.363691 14.102500 4.000000
v -2.524790 11.065522 4.000000
v 0.024760 9.407517 4.000000
v 2.735408 10.786491 4.000000
v -7.896372 -8.937328 -0.000000
v -5.198398 -8.865813 -0.000000
v -3.869545 -8.404432 -0.000000
v -4.046640 0.682539 -0.000000
v -5.375494 1.350949 0.000000
v -7.211180 1.377460 0.000000
v -8.621202 5.739135 0.000000
v 4.151423 9.627966 -0.000000
v 4.191691 -8.026877 0.000000
v 5.480276 -8.691660 0.000000
v 8.621202 -8.823596 -0.000000
v 8.339842 -14.898840 -0.000000
v -7.619505 -15.022142 -0.000000
v 5.361388 -10.270160 4.000000
v 5.347202 -12.026988 4.000000
v 3.408096 -10.295202 4.000000
v 2.509304 -9.444832 4.000000
v 2.581704 6.352463 4.000000
v -5.517294 3.831581 4.000000
v -4.935670 2.597094 4.000000
v -3.182716 2.819430 4.000000
v -2.453765 1.920955 4.000000
v -2.406408 -9.656276 4.000000
v -3.232800 -10.345286 4.000000
v -4.910628 -10.420415 4.000000
v -4.922205 -12.026988 4.000000
v -3.840986 -6.395512 0.000000
v 4.187185 -7.178292 -0.000000
v 2.441772 -7.229571 4.000000
v -2.310594 -5.757091 4.000000
v 15.774112 9.940713 2.000000
v 9.107188 16.607635 2.000000
v 0.000000 19.047901 2.000000
v -9.107188 16.607635 2.000000
v -15.774112 9.940713 2.000000
v -18.214376 0.833524 2.000000
v -15.774112 -8.273665 2.000000
v -9.107188 -14.940589 2.000000
v 0.000000 -17.380854 2.000000
v 9.107188 -14.940589 2.000000
v 15.774112 -8.273665 2.000000
v 18.214376 0.833524 2.000000
v -17.320507 10.000000 0.000000
v -10.000000 17.320507 0.000000
v 0.000000 20.000000 0.000000
v 10.000000 17.320507 -0.000000
v 17.320507 10.000000 -0.000000
v 20.000000 0.000000 0.000000
v 17.320507 -10.000000 0.000000
v 10.000000 -17.320507 -0.000000
v -0.000000 -20.000000 -0.000000
v -10.000000 -17.320507 -0.000000
v -17.320507 -10.000000 0.000000
v -20.000000 0.000000 0.000000
v 2.896508 13.823466 -4.000000
v 0.346958 15.481472 -4.000000
v -2.363691 14.102500 -4.000000
v -2.524790 11.065522 -4.000000
v 0.024760 9.407517 -4.000000
v 2.735408 10.786491 -4.000000
v 5.361388 -10.270160 -4.000000
v 5.347202 -12.026988 -4.000000
v 3.408096 -10.295202 -4.000000
v 2.509304 -9.444832 -4.000000
v 2.581704 6.352463 -4.000000
v -5.517294 3.831581 -4.000000
v -4.935670 2.597094 -4.000000
v -3.182716 2.819430 -4.000000
v -2.453765 1.920955 -4.000000
v -2.406408 -9.656276 -4.000000
v -3.232800 -10.345286 -4.000000
v -4.910628 -10.420415 -4.000000
v -4.922205 -12.026988 -4.000000
v 2.441772 -7.229571 -4.000000
v -2.310594 -5.757091 -4.000000
v 15.774112 9.940713 -2.000000
v 9.107188 16.607635 -2.000000
v 0.000000 19.047901 -2.000000
v -9.107188 16.607635 -2.000000
v -15.774112 9.940713 -2.000000
v -18.214376 0.833524 -2.000000
v -15.774112 -8.273665 -2.000000
v -9.107188 -14.940589 -2.000000
v -0.000000 -17.380854 -2.000000
v 9.107188 -14.940589 -2.000000
v 15.774112 -8.273665 -2.000000
v 18.214376 0.833524 -2.000000
vt 0.981563 0.988333
vt 0.984413 0.987507
vt 0.984311 0.987776
vt 0.982238 0.988377
vt 0.987442 0.988194
vt 0.986515 0.988275
vt 0.987623 0.989707
vt 0.986646 0.989376
vt 0.984773 0.990533
vt 0.984573 0.989977
vt 0.981743 0.989846
vt 0.982369 0.989477
vt 0.987777 0.983662
vt 0.983683 0.982056
vt 0.988370 0.983337
vt 0.980758 0.988831
vt 0.990372 0.988866
vt 0.990539 0.987971
vt 0.988914 0.987942
vt 0.988113 0.987810
vt 0.988096 0.986395
vt 0.983260 0.987042
vt 0.983257 0.987702
vt 0.982481 0.987892
vt 0.980588 0.987938
vt 0.981423 0.988081
vt 0.981435 0.988718
vt 0.983011 0.988090
vt 0.983742 0.987782
vt 0.983797 0.986979
vt 0.983281 0.981806
vt 0.990976 0.982920
vt 0.990268 0.982970
vt 0.990563 0.983529
vt 0.989795 0.983417
vt 0.988865 0.983475
vt 0.988065 0.983821
vt 0.987661 0.986445
vt 0.988410 0.988108
vt 0.987739 0.987858
vt 0.989775 0.988135
vt 0.989784 0.988718
vt 0.547508 0.957750
vt 0.552645 0.957750
vt 0.550077 0.958439
vt 0.547256 0.957951
vt 0.545192 0.955887
vt 0.545628 0.955870
vt 0.550077 0.958707
vt 0.552897 0.957951
vt 0.554962 0.955887
vt 0.554526 0.955870
vt 0.555718 0.953066
vt 0.555214 0.953301
vt 0.554962 0.950246
vt 0.554526 0.950733
vt 0.552897 0.948181
vt 0.552645 0.948852
vt 0.550077 0.947425
vt 0.550077 0.948164
vt 0.547256 0.948181
vt 0.547508 0.948852
vt 0.545192 0.950246
vt 0.545628 0.950733
vt 0.544436 0.953066
vt 0.544940 0.953301
vt 0.981563 0.988333
vt 0.984413 0.987507
vt 0.984311 0.987776
vt 0.982238 0.988377
vt 0.987442 0.988194
vt 0.986515 0.988275
vt 0.987623 0.989707
vt 0.986646 0.989376
vt 0.984773 0.990533
vt 0.984573 0.989977
vt 0.981743 0.989846
vt 0.982369 0.989477
vt 0.987777 0.983662
vt 0.983683 0.982056
vt 0.988370 0.983337
vt 0.980758 0.988831
vt 0.980588 0.987938
vt 0.981423 0.988081
vt 0.981435 0.988718
vt 0.982481 0.987892
vt 0.983011 0.988090
vt 0.983257 0.987702
vt 0.983742 0.987782
vt 0.983260 0.987042
vt 0.983797 0.986979
vt 0.983281 0.981806
vt 0.990976 0.982920
vt 0.990268 0.982970
vt 0.990563 0.983529
vt 0.989795 0.983417
vt 0.988865 0.983475
vt 0.988065 0.983821
vt 0.988096 0.986395
vt 0.987661 0.986445
vt 0.988113 0.987810
vt 0.988914 0.987942
vt 0.988410 0.988108
vt 0.987739 0.987858
vt 0.990539 0.987971
vt 0.989775 0.988135
vt 0.990372 0.988866
vt 0.989784 0.988718
vt 0.547508 0.957750
vt 0.552645 0.957750
vt 0.550077 0.958439
vt 0.547256 0.957951
vt 0.545192 0.955887
vt 0.545628 0.955870
vt 0.550077 0.958707
vt 0.552897 0.957951
vt 0.554962 0.955887
vt 0.554526 0.955870
vt 0.555718 0.953066
vt 0.555214 0.953301
vt 0.554962 0.950246
vt 0.554526 0.950733
vt 0.552897 0.948181
vt 0.552645 0.948852
vt 0.550077 0.947425
vt 0.550077 0.948164
vt 0.547256 0.948181
vt 0.547508 0.948852
vt 0.545192 0.950246
vt 0.545628 0.950733
vt 0.544436 0.953066
vt 0.544940 0.953301
vn 0.492230 0.756913 0.429876
vn 0.492230 0.756912 0.429876
vn 0.492230 0.756913 0.429876
vn 0.492230 0.756913 0.429876
vn -0.402736 0.791660 0.459433
vn -0.402736 0.791660 0.459433
vn -0.402736 0.791660 0.459433
vn -0.402736 0.791660 0.459433
vn -0.846512 0.044904 0.530473
vn -0.846512 0.044904 0.530473
vn -0.846512 0.044904 0.530473
vn -0.846512 0.044904 0.530473
vn -0.448058 -0.688989 0.569682
vn -0.448058 -0.688989 0.569682
vn -0.448059 -0.688989 0.569682
vn -0.448058 -0.688989 0.569682
vn 0.379820 -0.746613 0.546174
vn 0.379820 -0.746613 0.546174
vn 0.379820 -0.746613 0.546174
vn 0.379820 -0.746613 0.546174
vn 0.877386 -0.046542 0.477523
vn 0.877386 -0.046542 0.477523
vn 0.877386 -0.046542 0.477523
vn 0.877386 -0.046542 0.477523
vn 0.000000 0.000000 1.000000
vn 0.000000 0.000000 1.000000
vn 0.000000 0.000000 1.000000
vn 0.000000 0.000000 1.000000
vn 0.000000 0.000000 1.000000
vn 0.000000 0.000000 1.000000
vn 0.000000 0.000000 1.000000
vn 0.000000 0.000000 1.000000
vn -0.000000 0.000000 1.000000
vn -0.000000 0.000000 1.000000
vn 0.000000 0.000000 1.000000
vn 0.784994 -0.029622 0.618795
vn 0.784994 -0.029622 0.618795
vn 0.784994 -0.029622 0.618795
vn 0.784994 -0.029622 0.618795
vn 0.019511 0.929816 0.367508
vn 0.019511 0.929816 0.367508
vn 0.019511 0.929816 0.367508
vn 0.019511 0.929816 0.367508
vn 0.493051 0.711802 0.500238
vn 0.493051 0.711802 0.500238
vn 0.493051 0.711802 0.500238
vn 0.493051 0.711802 0.500238
vn 0.917523 0.021573 0.397098
vn 0.923701 -0.000914 0.383114
vn 0.923688 -0.000867 0.383144
vn 0.917523 0.021573 0.397098
vn -0.243254 0.792095 0.559834
vn -0.243254 0.792095 0.559834
vn -0.243254 0.792095 0.559834
vn -0.243254 0.792095 0.559834
vn -0.806190 -0.286919 0.517432
vn -0.806190 -0.286919 0.517432
vn -0.806190 -0.286919 0.517432
vn -0.806190 -0.286919 0.517432
vn 0.052115 -0.955057 0.291805
vn 0.052115 -0.955057 0.291805
vn 0.052115 -0.955057 0.291805
vn 0.052115 -0.955057 0.291804
vn -0.529498 -0.695395 0.485857
vn -0.529498 -0.695395 0.485857
vn -0.529498 -0.695395 0.485857
vn -0.529498 -0.695395 0.485857
vn -0.929544 -0.021974 0.368057
vn -0.931809 -0.008492 0.362851
vn -0.931292 -0.011672 0.364086
vn -0.929544 -0.021974 0.368057
vn -0.420663 0.788108 0.449365
vn -0.420663 0.788108 0.449365
vn -0.420663 0.788108 0.449365
vn -0.420663 0.788108 0.449365
vn -0.031196 0.930866 0.364026
vn -0.031196 0.930866 0.364026
vn -0.031196 0.930866 0.364026
vn -0.031196 0.930866 0.364026
vn -0.812408 -0.028021 0.582416
vn -0.812408 -0.028021 0.582415
vn -0.812408 -0.028021 0.582416
vn -0.812408 -0.028021 0.582415
vn 0.003791 -0.806316 0.591473
vn 0.003791 -0.806316 0.591473
vn 0.003791 -0.806316 0.591473
vn 0.003791 -0.806316 0.591473
vn 0.000000 0.000000 1.000000
vn 0.000000 0.000000 1.000000
vn 0.000000 0.000000 1.000000
vn 0.000000 0.000000 1.000000
vn 0.000000 0.000000 1.000000
vn 0.000000 0.000000 1.000000
vn 0.000000 0.000000 1.000000
vn 0.000000 0.000000 1.000000
vn 0.000000 0.000000 1.000000
vn -0.000000 0.000000 1.000000
vn -0.000000 0.000000 1.000000
vn 0.000000 0.000000 1.000000
vn -0.000000 0.000000 1.000000
vn 0.000000 0.000000 1.000000
vn 0.000000 0.000000 1.000000
vn 0.000000 0.000000 1.000000
vn 0.000000 0.000000 1.000000
vn 0.000000 0.000000 1.000000
vn 0.000000 0.000000 1.000000
vn 0.000000 0.000000 1.000000
vn 0.000000 0.000000 1.000000
vn 0.000000 0.000000 1.000000
vn 0.923688 -0.000867 0.383144
vn 0.923701 -0.000914 0.383114
vn 0.924282 -0.003168 0.381697
vn 0.924282 -0.003168 0.381697
vn -0.931292 -0.011672 0.364086
vn -0.931809 -0.008492 0.362851
vn -0.935899 0.019702 0.351716
vn -0.935899 0.019702 0.351716
vn -0.000000 0.000000 1.000000
vn -0.000000 0.000000 1.000000
vn -0.000000 0.000000 1.000000
vn -0.000000 0.000000 1.000000
vn 0.000000 0.000000 1.000000
vn 0.000000 0.000000 1.000000
vn 0.000000 0.000000 1.000000
vn -0.614927 0.614927 0.493689
vn -0.614927 0.614927 0.493689
vn -0.614927 0.614927 0.493689
vn -0.614927 0.614927 0.493689
vn -0.235150 0.877591 0.417777
vn -0.235150 0.877591 0.417777
vn -0.235150 0.877591 0.417777
vn -0.235150 0.877591 0.417777
vn 0.235150 0.877591 0.417777
vn 0.235150 0.877591 0.417777
vn 0.235150 0.877591 0.417777
vn 0.235150 0.877591 0.417777
vn 0.614927 0.614927 0.493689
vn 0.614927 0.614927 0.493689
vn 0.614927 0.614927 0.493689
vn 0.614927 0.614927 0.493689
vn 0.771063 0.206606 0.602309
vn 0.771063 0.206606 0.602309
vn 0.771063 0.206606 0.602309
vn 0.771063 0.206606 0.602309
vn 0.693245 -0.185755 0.696353
vn 0.693245 -0.185755 0.696353
vn 0.693245 -0.185754 0.696353
vn 0.693245 -0.185754 0.696353
vn 0.462364 -0.462364 0.756597
vn 0.462364 -0.462364 0.756597
vn 0.462364 -0.462364 0.756597
vn 0.462364 -0.462364 0.756597
vn 0.160510 -0.599030 0.784474
vn 0.160510 -0.599030 0.784474
vn 0.160510 -0.599030 0.784474
vn 0.160510 -0.599030 0.784474
vn -0.160510 -0.599030 0.784474
vn -0.160510 -0.599030 0.784474
vn -0.160510 -0.599030 0.784474
vn -0.160510 -0.599030 0.784474
vn -0.462364 -0.462364 0.756597
vn -0.462364 -0.462364 0.756597
vn -0.462364 -0.462364 0.756597
vn -0.462364 -0.462364 0.756597
vn -0.693245 -0.185755 0.696353
vn -0.693245 -0.185755 0.696353
vn -0.693245 -0.185754 0.696353
vn -0.693245 -0.185755 0.696353
vn -0.771063 0.206606 0.602309
vn -0.771063 0.206606 0.602309
vn -0.771063 0.206606 0.602309
vn -0.771063 0.206606 0.602309
vn 0.000000 0.000000 1.000000
vn 0.000000 0.000000 1.000000
vn 0.000000 0.000000 1.000000
vn 0.000000 0.000000 1.000000
vn 0.000000 0.000000 1.000000
vn 0.000000 0.000000 1.000000
vn 0.000000 0.000000 1.000000
vn 0.000000 0.000000 1.000000
vn 0.000000 0.000000 1.000000
vn 0.000000 0.000000 1.000000
vn 0.000000 0.000000 1.000000
vn 0.000000 0.000000 1.000000
vn 0.000000 0.000000 1.000000
vn 0.000000 0.000000 1.000000
vn 0.000000 0.000000 1.000000
vn 0.000000 0.000000 1.000000
vn 0.000000 0.000000 1.000000
vn 0.000000 0.000000 1.000000
vn 0.000000 0.000000 1.000000
vn 0.492230 0.756913 -0.429876
vn 0.492230 0.756913 -0.429876
vn 0.492230 0.756913 -0.429876
vn 0.492230 0.756913 -0.429876
vn -0.402736 0.791660 -0.459433
vn -0.402736 0.791660 -0.459433
vn -0.402736 0.791660 -0.459433
vn -0.402736 0.791660 -0.459433
vn -0.846512 0.044904 -0.530473
vn -0.846512 0.044904 -0.530473
vn -0.846512 0.044904 -0.530473
vn -0.846512 0.044904 -0.530473
vn -0.448058 -0.688989 -0.569682
vn -0.448058 -0.688989 -0.569682
vn -0.448059 -0.688989 -0.569682
vn -0.448059 -0.688990 -0.569682
vn 0.379820 -0.746613 -0.546174
vn 0.379820 -0.746613 -0.546174
vn 0.379820 -0.746613 -0.546174
vn 0.379820 -0.746613 -0.546174
vn 0.877386 -0.046542 -0.477523
vn 0.877386 -0.046542 -0.477523
vn 0.877386 -0.046542 -0.477523
vn 0.877386 -0.046542 -0.477523
vn 0.000000 0.000000 -1.000000
vn 0.000000 0.000000 -1.000000
vn 0.000000 0.000000 -1.000000
vn 0.000000 0.000000 -1.000000
vn 0.000000 0.000000 -1.000000
vn 0.000000 0.000000 -1.000000
vn 0.000000 0.000000 -1.000000
vn 0.000000 0.000000 -1.000000
vn 0.000000 0.000000 -1.000000
vn 0.000000 0.000000 -1.000000
vn 0.000000 0.000000 -1.000000
vn 0.784994 -0.029622 -0.618795
vn 0.784994 -0.029622 -0.618795
vn 0.784994 -0.029622 -0.618795
vn 0.784994 -0.029622 -0.618795
vn 0.019511 0.929816 -0.367508
vn 0.019511 0.929816 -0.367508
vn 0.019511 0.929816 -0.367508
vn 0.019511 0.929816 -0.367508
vn 0.493051 0.711802 -0.500238
vn 0.493051 0.711802 -0.500238
vn 0.493051 0.711802 -0.500238
vn 0.493051 0.711802 -0.500238
vn 0.917523 0.021573 -0.397098
vn 0.917523 0.021573 -0.397098
vn 0.923688 -0.000867 -0.383144
vn 0.923701 -0.000914 -0.383114
vn -0.243254 0.792095 -0.559834
vn -0.243254 0.792095 -0.559834
vn -0.243254 0.792095 -0.559834
vn -0.243254 0.792095 -0.559834
vn -0.806190 -0.286919 -0.517432
vn -0.806190 -0.286919 -0.517432
vn -0.806190 -0.286919 -0.517432
vn -0.806190 -0.286919 -0.517432
vn 0.052115 -0.955057 -0.291804
vn 0.052115 -0.955057 -0.291804
vn 0.052115 -0.955057 -0.291804
vn 0.052115 -0.955057 -0.291804
vn -0.529498 -0.695395 -0.485857
vn -0.529498 -0.695395 -0.485857
vn -0.529498 -0.695395 -0.485857
vn -0.529498 -0.695395 -0.485857
vn -0.929544 -0.021974 -0.368057
vn -0.929544 -0.021974 -0.368057
vn -0.931292 -0.011672 -0.364086
vn -0.931809 -0.008492 -0.362851
vn -0.420663 0.788108 -0.449365
vn -0.420663 0.788108 -0.449365
vn -0.420663 0.788108 -0.449365
vn -0.420663 0.788108 -0.449365
vn -0.031196 0.930866 -0.364026
vn -0.031196 0.930866 -0.364026
vn -0.031196 0.930866 -0.364026
vn -0.031196 0.930866 -0.364026
vn -0.812408 -0.028021 -0.582415
vn -0.812408 -0.028021 -0.582415
vn -0.812408 -0.028021 -0.582415
vn -0.812408 -0.028021 -0.582415
vn 0.003791 -0.806316 -0.591473
vn 0.003791 -0.806316 -0.591473
vn 0.003791 -0.806316 -0.591473
vn 0.003791 -0.806316 -0.591473
vn 0.000000 0.000000 -1.000000
vn 0.000000 0.000000 -1.000000
vn 0.000000 0.000000 -1.000000
vn 0.000000 0.000000 -1.000000
vn 0.000000 0.000000 -1.000000
vn 0.000000 0.000000 -1.000000
vn 0.000000 0.000000 -1.000000
vn 0.000000 0.000000 -1.000000
vn 0.000000 0.000000 -1.000000
vn 0.000000 0.000000 -1.000000
vn 0.000000 0.000000 -1.000000
vn 0.000000 0.000000 -1.000000
vn 0.000000 0.000000 -1.000000
vn 0.000000 0.000000 -1.000000
vn 0.000000 0.000000 -1.000000
vn 0.000000 0.000000 -1.000000
vn 0.000000 0.000000 -1.000000
vn 0.000000 0.000000 -1.000000
vn 0.000000 0.000000 -1.000000
vn 0.000000 0.000000 -1.000000
vn 0.000000 0.000000 -1.000000
vn 0.000000 0.000000 -1.000000
vn 0.923688 -0.000867 -0.383144
vn 0.924282 -0.003168 -0.381697
vn 0.924282 -0.003168 -0.381697
vn 0.923701 -0.000914 -0.383114
vn -0.931292 -0.011672 -0.364086
vn -0.935899 0.019702 -0.351716
vn -0.935899 0.019702 -0.351716
vn -0.931809 -0.008492 -0.362851
vn 0.000000 0.000000 -1.000000
vn 0.000000 0.000000 -1.000000
vn 0.000000 0.000000 -1.000000
vn 0.000000 0.000000 -1.000000
vn 0.000000 0.000000 -1.000000
vn 0.000000 0.000000 -1.000000
vn 0.000000 0.000000 -1.000000
vn -0.614927 0.614927 -0.493689
vn -0.614927 0.614927 -0.493689
vn -0.614927 0.614927 -0.493689
vn -0.614927 0.614927 -0.493689
vn -0.235150 0.877591 -0.417777
vn -0.235150 0.877591 -0.417777
vn -0.235150 0.877591 -0.417777
vn -0.235150 0.877591 -0.417777
vn 0.235150 0.877591 -0.417777
vn 0.235150 0.877591 -0.417777
vn 0.235150 0.877591 -0.417777
vn 0.235150 0.877591 -0.417777
vn 0.614927 0.614927 -0.493689
vn 0.614927 0.614927 -0.493689
vn 0.614927 0.614927 -0.493689
vn 0.614927 0.614927 -0.493689
vn 0.771063 0.206606 -0.602309
vn 0.771063 0.206606 -0.602309
vn 0.771063 0.206606 -0.602309
vn 0.771063 0.206606 -0.602309
vn 0.693245 -0.185755 -0.696353
vn 0.693245 -0.185755 -0.696353
vn 0.693245 -0.185755 -0.696353
vn 0.693245 -0.185755 -0.696353
vn 0.462364 -0.462364 -0.756597
vn 0.462364 -0.462364 -0.756597
vn 0.462364 -0.462364 -0.756597
vn 0.462364 -0.462364 -0.756597
vn 0.160510 -0.599030 -0.784474
vn 0.160510 -0.599030 -0.784474
vn 0.160510 -0.599030 -0.784474
vn 0.160510 -0.599030 -0.784474
vn -0.160510 -0.599030 -0.784474
vn -0.160510 -0.599030 -0.784474
vn -0.160510 -0.599030 -0.784474
vn -0.160510 -0.599030 -0.784474
vn -0.462364 -0.462364 -0.756597
vn -0.462364 -0.462364 -0.756597
vn -0.462364 -0.462364 -0.756597
vn -0.462364 -0.462364 -0.756597
vn -0.693245 -0.185755 -0.696353
vn -0.693245 -0.185754 -0.696353
vn -0.693245 -0.185754 -0.696353
vn -0.693245 -0.185755 -0.696353
vn -0.771063 0.206606 -0.602309
vn -0.771063 0.206606 -0.602309
vn -0.771063 0.206606 -0.602309
vn -0.771063 0.206606 -0.602309
vn 0.000000 0.000000 -1.000000
vn 0.000000 0.000000 -1.000000
vn 0.000000 0.000000 -1.000000
vn 0.000000 0.000000 -1.000000
vn 0.000000 0.000000 -1.000000
vn 0.000000 0.000000 -1.000000
vn 0.000000 0.000000 -1.000000
vn 0.000000 0.000000 -1.000000
vn 0.000000 0.000000 -1.000000
vn 0.000000 0.000000 -1.000000
vn 0.000000 0.000000 -1.000000
vn 0.000000 0.000000 -1.000000
vn 0.000000 0.000000 -1.000000
vn 0.000000 0.000000 -1.000000
vn 0.000000 0.000000 -1.000000
vn 0.000000 0.000000 -1.000000
vn 0.000000 0.000000 -1.000000
vn 0.000000 0.000000 -1.000000
vn 0.000000 0.000000 -1.000000
s off
f 1/1/1 2/2/2 8/3/3 7/4/4
f 2/2/5 3/5/6 9/6/7 8/3/8
f 3/5/9 4/7/10 10/8/11 9/6/12
f 4/7/13 5/9/14 11/10/15 10/8/16
f 5/9/17 6/11/18 12/12/19 11/10/20
f 6/11/21 1/1/22 7/4/23 12/12/24
f 9/6/25 10/8/26 11/10/27 12/12/28
f 9/6/29 12/12/30 7/4/31 8/3/32
f 34/13/33 30/14/34 33/15/35
f 24/16/36 23/25/37 26/26/38 27/27/39
f 23/25/40 22/24/41 28/28/42 26/26/43
f 22/24/44 21/23/45 29/29/46 28/28/47
f 21/23/48 40/22/49 41/30/50 29/29/51
f 20/31/52 19/32/53 31/33/54 30/14/55
f 19/32/56 18/34/57 32/35/58 31/33/59
f 18/34/60 17/36/61 33/15/62 32/35/63
f 17/36/64 16/37/65 34/13/66 33/15/67
f 16/37/68 39/21/69 42/38/70 34/13/71
f 15/20/72 14/19/73 36/39/74 35/40/75
f 14/19/76 13/18/77 37/41/78 36/39/79
f 13/18/80 25/17/81 38/42/82 37/41/83
f 25/17/84 24/16/85 27/27/86 38/42/87
f 27/27/88 26/26/89 28/28/90
f 36/39/91 28/28/92 29/29/93 35/40/94
f 35/40/95 29/29/96 41/30/97 42/38/98
f 33/15/99 30/14/100 31/33/101 32/35/102
f 38/42/103 36/39/104 37/41/105
f 27/27/106 28/28/107 36/39/108 38/42/109
f 41/30/110 40/22/111 20/31/112 30/14/113
f 42/38/114 39/21/115 15/20/116 35/40/117
f 42/38/118 41/30/119 30/14/120 34/13/121
f 46/43/122 44/44/123 45/45/124
f 56/46/125 55/47/126 47/48/127 46/43/128
f 57/49/129 56/46/130 46/43/131 45/45/132
f 58/50/133 57/49/134 45/45/135 44/44/136
f 59/51/137 58/50/138 44/44/139 43/52/140
f 60/53/141 59/51/142 43/52/143 54/54/144
f 61/55/145 60/53/146 54/54/147 53/56/148
f 62/57/149 61/55/150 53/56/151 52/58/152
f 63/59/153 62/57/154 52/58/155 51/60/156
f 64/61/157 63/59/158 51/60/159 50/62/160
f 65/63/161 64/61/162 50/62/163 49/64/164
f 66/65/165 65/63/166 49/64/167 48/66/168
f 55/47/169 66/65/170 48/66/171 47/48/172
f 43/52/173 44/44/174 46/43/175 47/48/176
f 43/52/177 47/48/178 48/66/179 54/54/180
f 53/56/181 49/64/182 50/62/183 52/58/184
f 54/54/185 48/66/186 49/64/187 53/56/188
f 52/58/189 50/62/190 51/60/191
f 1/67/192 67/70/193 68/69/194 2/68/195
f 2/68/196 68/69/197 69/72/198 3/71/199
f 3/71/200 69/72/201 70/74/202 4/73/203
f 4/73/204 70/74/205 71/76/206 5/75/207
f 5/75/208 71/76/209 72/78/210 6/77/211
f 6/77/212 72/78/213 67/70/214 1/67/215
f 69/72/216 72/78/217 71/76/218 70/74/219
f 69/72/220 68/69/221 67/70/222 72/78/223
f 81/79/224 80/81/225 77/80/226
f 24/82/227 74/85/228 73/84/229 23/83/230
f 23/83/231 73/84/232 75/87/233 22/86/234
f 22/86/235 75/87/236 76/89/237 21/88/238
f 21/88/239 76/89/240 86/91/241 40/90/242
f 20/92/243 77/80/244 78/94/245 19/93/246
f 19/93/247 78/94/248 79/96/249 18/95/250
f 18/95/251 79/96/252 80/81/253 17/97/254
f 17/97/255 80/81/256 81/79/257 16/98/258
f 16/98/259 81/79/260 87/100/261 39/99/262
f 15/101/263 82/104/264 83/103/265 14/102/266
f 14/102/267 83/103/268 84/106/269 13/105/270
f 13/105/271 84/106/272 85/108/273 25/107/274
f 25/107/275 85/108/276 74/85/277 24/82/278
f 74/85/279 75/87/280 73/84/281
f 83/103/282 82/104/283 76/89/284 75/87/285
f 82/104/286 87/100/287 86/91/288 76/89/289
f 80/81/290 79/96/291 78/94/292 77/80/293
f 85/108/294 84/106/295 83/103/296
f 74/85/297 85/108/298 83/103/299 75/87/300
f 86/91/301 77/80/302 20/92/303 40/90/304
f 87/100/305 82/104/306 15/101/307 39/99/308
f 87/100/309 81/79/310 77/80/311 86/91/312
f 91/109/313 90/111/314 89/110/315
f 56/112/316 91/109/317 92/114/318 55/113/319
f 57/115/320 90/111/321 91/109/322 56/112/323
f 58/116/324 89/110/325 90/111/326 57/115/327
f 59/117/328 88/118/329 89/110/330 58/116/331
f 60/119/332 99/120/333 88/118/334 59/117/335
f 61/121/336 98/122/337 99/120/338 60/119/339
f 62/123/340 97/124/341 98/122/342 61/121/343
f 63/125/344 96/126/345 97/124/346 62/123/347
f 64/127/348 95/128/349 96/126/350 63/125/351
f 65/129/352 94/130/353 95/128/354 64/127/355
f 66/131/356 93/132/357 94/130/358 65/129/359
f 55/113/360 92/114/361 93/132/362 66/131/363
f 88/118/364 92/114/365 91/109/366 89/110/367
f 88/118/368 99/120/369 93/132/370 92/114/371
f 98/122/372 97/124/373 95/128/374 94/130/375
f 99/120/376 98/122/377 94/130/378 93/132/379
f 97/124/380 96/126/381 95/128/382
