# This file uses centimeters as units for non-parametric coordinates.

v -23.188499 -23.387020 -8.000000
v 21.740314 -21.990351 -8.000000
v -21.743513 23.166513 -8.000000
v 22.865623 22.706945 -8.000000
v -22.800369 21.979904 0.782545
v -21.940508 -22.463249 0.782545
v 22.669777 -22.354939 0.782545
v 23.397383 23.398148 0.782545
v -24.000000 24.000000 -0.417735
v -24.000000 24.000000 -6.799720
v 24.000000 24.000000 -6.799720
v 24.000000 24.000000 -0.417735
v 24.000000 -24.000000 -6.799720
v 24.000000 -24.000000 -0.417735
v -24.000000 -24.000000 -6.799720
v -24.000000 -24.000000 -0.417735
v 13.675156 22.001026 -8.000000
v -21.956188 4.195375 -8.000000
v -23.292646 2.791947 0.782545
v 15.102181 23.386589 0.782545
v -24.000000 4.193588 -6.799720
v -24.000000 3.636215 -0.417735
v 14.895687 24.000000 -0.417735
v 13.831094 24.000000 -6.799720
v 6.953168 -22.617529 -8.000000
v 21.844736 -9.362463 -8.000000
v 5.783904 -22.528427 0.782545
v 21.634096 -8.222205 0.782545
v 24.000000 -8.081715 -0.417735
v 24.000000 -9.226398 -6.799720
v 6.276699 -24.000000 -0.417735
v 7.551184 -24.000000 -6.799720
v -20.874727 20.642538 0.782545
v -21.051662 2.922042 0.782545
v 15.699620 21.051006 0.782545
v 20.838211 21.053387 0.782545
v 20.269743 -8.548286 0.782545
v 5.984554 -20.630875 0.782545
v -20.548147 -20.585781 0.782545
v 20.566580 -20.520821 0.782545
v -19.951601 19.720503 0.000000
v -20.119274 2.927371 0.000000
v 15.705041 20.118721 0.000000
v 19.887840 20.120659 0.000000
v 19.337234 -8.550891 0.000000
v 5.981828 -19.698582 0.000000
v -19.635584 -19.655045 0.000000
v 19.611069 -19.595718 0.000000
vt 0.987235 0.886730
vt 0.986543 0.886750
vt 0.987232 0.887098
vt 0.987318 0.886702
vt 0.987284 0.886712
vt 0.987277 0.887099
vt 0.987309 0.887120
vt 0.986513 0.886697
vt 0.986539 0.886708
vt 0.986333 0.886706
vt 0.986318 0.886696
vt 0.986332 0.887367
vt 0.986346 0.887367
vt 0.986352 0.887650
vt 0.986339 0.887687
vt 0.986700 0.887678
vt 0.986671 0.887642
vt 0.987246 0.887612
vt 0.986682 0.887610
vt 0.987266 0.887629
vt 0.986398 0.887604
vt 0.986391 0.887365
vt 0.986359 0.886735
vt 0.986507 0.886708
vt 0.986329 0.886707
vt 0.986379 0.887374
vt 0.986363 0.887661
vt 0.987298 0.887664
vt 0.986710 0.887656
vt 0.987264 0.887642
vt 0.987301 0.887139
vt 0.987300 0.886743
vt 0.987256 0.887137
vt 0.987260 0.886771
vt 0.986495 0.886759
vt 0.986385 0.886758
vt 0.986408 0.887380
vt 0.987238 0.887606
vt 0.986706 0.887619
vt 0.986406 0.887623
vt 0.921911 0.918479
vt 0.921910 0.918906
vt 0.921105 0.918484
vt 0.920922 0.918485
vt 0.920920 0.919138
vt 0.921908 0.919479
vt 0.921290 0.919473
vt 0.920920 0.919469
vt 0.987234 0.887136
vt 0.987237 0.886791
vt 0.986496 0.886780
vt 0.986407 0.886779
vt 0.986429 0.887377
vt 0.987216 0.887584
vt 0.986705 0.887596
vt 0.986427 0.887600
vn 0.000000 0.000000 1.000000
vn 0.000000 0.000000 1.000000
vn 0.000000 0.000000 1.000000
vn 0.000000 0.000000 -1.000000
vn 0.000000 0.000000 -1.000000
vn 0.000000 0.000000 -1.000000
vn -1.000000 0.000000 0.000000
vn -1.000000 0.000000 0.000000
vn -1.000000 0.000000 0.000000
vn -1.000000 0.000000 0.000000
vn 0.000000 1.000000 0.000000
vn 0.000000 1.000000 0.000000
vn 0.000000 1.000000 0.000000
vn 0.000000 1.000000 0.000000
vn 1.000000 0.000000 0.000000
vn 1.000000 0.000000 0.000000
vn 1.000000 0.000000 0.000000
vn 1.000000 0.000000 0.000000
vn 0.000000 -1.000000 0.000000
vn 0.000000 -1.000000 0.000000
vn 0.000000 -1.000000 0.000000
vn 0.000000 -1.000000 0.000000
vn -0.487031 0.002671 -0.873381
vn -0.487031 0.002671 -0.873381
vn -0.487031 0.002671 -0.873381
vn -0.487031 0.002671 -0.873381
vn 0.009597 -0.769395 -0.638701
vn 0.009597 -0.769395 -0.638701
vn 0.009597 -0.769395 -0.638701
vn 0.009597 -0.769395 -0.638701
vn 0.477091 -0.001818 -0.878852
vn 0.477091 -0.001818 -0.878852
vn 0.477091 -0.001818 -0.878852
vn 0.477091 -0.001818 -0.878852
vn -0.021681 0.594587 -0.803739
vn -0.021681 0.594587 -0.803739
vn -0.021681 0.594587 -0.803739
vn -0.021681 0.594587 -0.803739
vn -0.000593 0.892228 0.451585
vn -0.000593 0.892228 0.451585
vn -0.000593 0.892228 0.451585
vn -0.000593 0.892228 0.451585
vn 0.549999 0.018955 0.834950
vn 0.549999 0.018955 0.834950
vn 0.549999 0.018955 0.834950
vn 0.549999 0.018955 0.834950
vn -0.000701 -0.623505 0.781819
vn -0.000701 -0.623505 0.781819
vn -0.000701 -0.623505 0.781819
vn -0.000701 -0.623505 0.781819
vn -0.777315 0.009675 0.629037
vn -0.777315 0.009675 0.629037
vn -0.777315 0.009675 0.629037
vn -0.777315 0.009675 0.629037
vn 0.000000 0.000000 1.000000
vn 0.000000 0.000000 1.000000
vn 0.000000 0.000000 1.000000
vn 0.000000 0.000000 1.000000
vn 0.000000 0.000000 1.000000
vn 0.000000 0.000000 1.000000
vn 0.000000 0.000000 1.000000
vn 0.000000 0.000000 1.000000
vn 0.000000 0.000000 1.000000
vn 0.000000 0.000000 1.000000
vn 0.000000 0.000000 -1.000000
vn 0.000000 0.000000 -1.000000
vn 0.000000 0.000000 -1.000000
vn 0.000000 0.000000 -1.000000
vn 0.000000 0.000000 -1.000000
vn 0.000000 0.000000 -1.000000
vn 0.000000 0.000000 -1.000000
vn 0.000000 0.000000 -1.000000
vn 0.000000 0.000000 -1.000000
vn 0.000000 0.000000 -1.000000
vn -1.000000 0.000000 0.000000
vn -1.000000 0.000000 0.000000
vn -1.000000 0.000000 0.000000
vn -1.000000 0.000000 0.000000
vn 0.000000 1.000000 0.000000
vn 0.000000 1.000000 0.000000
vn 0.000000 1.000000 0.000000
vn 0.000000 1.000000 0.000000
vn -0.645253 0.014256 -0.763836
vn -0.645253 0.014256 -0.763836
vn -0.645253 0.014256 -0.763836
vn -0.645253 0.014256 -0.763836
vn 0.010358 0.650974 -0.759029
vn 0.010358 0.650974 -0.759029
vn 0.010358 0.650974 -0.759029
vn 0.010358 0.650974 -0.759029
vn -0.012273 0.670028 0.742235
vn -0.012273 0.670028 0.742235
vn -0.012273 0.670028 0.742235
vn -0.012273 0.670028 0.742235
vn -0.652862 -0.016690 0.757293
vn -0.652862 -0.016690 0.757293
vn -0.652862 -0.016690 0.757293
vn -0.652862 -0.016690 0.757293
vn 1.000000 0.000000 0.000000
vn 1.000000 0.000000 0.000000
vn 1.000000 0.000000 0.000000
vn 1.000000 0.000000 0.000000
vn 0.000000 -1.000000 0.000000
vn 0.000000 -1.000000 0.000000
vn 0.000000 -1.000000 0.000000
vn 0.000000 -1.000000 0.000000
vn 0.011468 -0.571172 -0.820750
vn 0.011468 -0.571172 -0.820750
vn 0.011468 -0.571172 -0.820750
vn 0.011468 -0.571172 -0.820750
vn 0.592067 -0.009257 -0.805836
vn 0.592067 -0.009257 -0.805836
vn 0.592067 -0.009257 -0.805836
vn 0.592067 -0.009257 -0.805836
vn 0.631341 -0.017476 0.775309
vn 0.631341 -0.017476 0.775309
vn 0.631341 -0.017476 0.775309
vn 0.631341 -0.017476 0.775309
vn 0.003053 -0.609089 0.793096
vn 0.003053 -0.609089 0.793096
vn 0.003053 -0.609089 0.793096
vn 0.003053 -0.609089 0.793096
vn 0.000000 0.000000 1.000000
vn 0.000000 0.000000 1.000000
vn 0.000000 0.000000 1.000000
vn 0.000000 0.000000 -1.000000
vn 0.000000 0.000000 -1.000000
vn 0.000000 0.000000 -1.000000
vn 0.000000 0.000000 1.000000
vn 0.000000 0.000000 1.000000
vn 0.000000 0.000000 1.000000
vn 0.000000 0.000000 1.000000
vn -0.000000 0.000000 1.000000
vn -0.000000 0.000000 1.000000
vn -0.000000 0.000000 1.000000
vn -0.000000 0.000000 1.000000
vn 0.000000 0.000000 1.000000
vn 0.000000 0.000000 1.000000
vn 0.000000 0.000000 1.000000
vn 0.000000 0.000000 1.000000
vn -0.000000 0.000000 1.000000
vn -0.000000 0.000000 1.000000
vn -0.000000 0.000000 1.000000
vn -0.000000 0.000000 1.000000
vn -0.000000 0.000000 1.000000
vn -0.000000 0.000000 1.000000
vn -0.000000 0.000000 1.000000
vn -0.000000 0.000000 1.000000
vn 0.000000 0.000000 1.000000
vn 0.000000 0.000000 1.000000
vn 0.000000 0.000000 1.000000
vn 0.000000 0.000000 1.000000
vn 0.000000 0.000000 1.000000
vn 0.000000 0.000000 1.000000
vn 0.000000 0.000000 1.000000
vn 0.000000 0.000000 1.000000
vn 0.000000 0.000000 1.000000
vn 0.000000 0.000000 1.000000
vn 0.000000 0.000000 1.000000
vn 0.000000 0.000000 1.000000
vn 0.642882 -0.006419 0.765938
vn 0.642882 -0.006419 0.765938
vn 0.642882 -0.006419 0.765938
vn 0.642882 -0.006419 0.765938
vn 0.007180 -0.642875 0.765938
vn 0.007180 -0.642875 0.765938
vn 0.007180 -0.642875 0.765938
vn 0.007180 -0.642875 0.765938
vn 0.000298 -0.642914 0.765938
vn 0.000298 -0.642914 0.765938
vn 0.000298 -0.642914 0.765938
vn 0.000298 -0.642914 0.765938
vn -0.642796 0.012344 0.765938
vn -0.642796 0.012344 0.765938
vn -0.642796 0.012344 0.765938
vn -0.642796 0.012344 0.765938
vn 0.642767 0.013767 0.765938
vn 0.642767 0.013767 0.765938
vn 0.642767 0.013767 0.765938
vn 0.642767 0.013767 0.765938
vn 0.001093 0.642914 0.765938
vn 0.001093 0.642914 0.765938
vn 0.001093 0.642914 0.765938
vn 0.001093 0.642914 0.765938
vn -0.004852 0.642897 0.765938
vn -0.004852 0.642897 0.765938
vn -0.004852 0.642897 0.765938
vn -0.004852 0.642897 0.765938
vn -0.642717 -0.015935 0.765938
vn -0.642717 -0.015935 0.765938
vn -0.642717 -0.015935 0.765938
vn -0.642717 -0.015935 0.765938
s off
f 41/41/1 42/42/2 43/43/3
f 3/1/4 17/2/5 18/3/6
f 9/4/7 10/5/8 21/6/9 22/7/10
f 10/5/11 9/4/12 23/8/13 24/9/14
f 11/10/15 12/11/16 29/12/17 30/13/18
f 13/14/19 14/15/20 31/16/21 32/17/22
f 3/1/23 18/3/24 21/6/25 10/5/26
f 1/18/27 25/19/28 32/17/29 15/20/30
f 2/21/31 26/22/32 30/13/33 13/14/34
f 4/23/35 17/2/36 24/9/37 11/10/38
f 12/11/39 23/8/40 20/24/41 8/25/42
f 14/15/43 29/12/44 28/26/45 7/27/46
f 16/28/47 31/16/48 27/29/49 6/30/50
f 9/4/51 22/7/52 19/31/53 5/32/54
f 44/44/55 43/43/56 45/45/57
f 45/45/58 43/43/59 42/42/60 46/47/61
f 42/42/62 47/46/63 46/47/64
f 4/23/65 26/22/66 17/2/67
f 18/3/68 17/2/69 26/22/70 25/19/71
f 18/3/72 25/19/73 1/18/74
f 22/7/75 21/6/76 15/20/77 16/28/78
f 24/9/79 23/8/80 12/11/81 11/10/82
f 21/6/83 18/3/84 1/18/85 15/20/86
f 24/9/87 17/2/88 3/1/89 10/5/90
f 20/24/91 23/8/92 9/4/93 5/32/94
f 19/31/95 22/7/96 16/28/97 6/30/98
f 30/13/99 29/12/100 14/15/101 13/14/102
f 32/17/103 31/16/104 16/28/105 15/20/106
f 32/17/107 25/19/108 2/21/109 13/14/110
f 30/13/111 26/22/112 4/23/113 11/10/114
f 28/26/115 29/12/116 12/11/117 8/25/118
f 27/29/119 31/16/120 14/15/121 7/27/122
f 45/45/123 46/47/124 48/48/125
f 25/19/126 26/22/127 2/21/128
f 5/32/129 19/31/130 34/33/131 33/34/132
f 20/24/133 5/32/134 33/34/135 35/35/136
f 8/25/137 20/24/138 35/35/139 36/36/140
f 28/26/141 8/25/142 36/36/143 37/37/144
f 19/31/145 6/30/146 39/38/147 34/33/148
f 6/30/149 27/29/150 38/39/151 39/38/152
f 27/29/153 7/27/154 40/40/155 38/39/156
f 7/27/157 28/26/158 37/37/159 40/40/160
f 33/34/161 34/33/162 42/49/163 41/50/164
f 35/35/165 33/34/166 41/50/167 43/51/168
f 36/36/169 35/35/170 43/51/171 44/52/172
f 37/37/173 36/36/174 44/52/175 45/53/176
f 34/33/177 39/38/178 47/54/179 42/49/180
f 39/38/181 38/39/182 46/55/183 47/54/184
f 38/39/185 40/40/186 48/56/187 46/55/188
f 40/40/189 37/37/190 45/53/191 48/56/192
