# This file uses centimeters as units for non-parametric coordinates.

v 13.892734 3.603512 2.576618
v 7.694909 5.111400 2.576618
v 15.295576 10.076412 2.576618
v 13.640283 8.994115 2.576618
v 11.046276 -6.308155 2.576618
v 6.352162 -11.002270 2.576618
v 0.000000 -12.704326 2.576618
v -6.352162 -11.002270 2.576618
v -10.794122 -6.144014 2.576618
v -12.412919 0.624445 2.576618
v -11.002270 6.352162 2.576618
v -6.352162 11.002270 2.576618
v -0.010851 12.132846 2.576618
v 6.352163 11.002270 2.576618
v 10.419811 6.934619 2.576618
v 7.434919 7.227651 0.000000
v 14.317254 -8.317143 2.576618
v 16.056204 -9.270055 -0.000000
v 8.284765 -14.349633 2.576618
v 9.270055 -16.056204 -0.000000
v 0.000000 -16.569530 2.576618
v 0.000000 -18.540110 -0.000000
v -8.284765 -14.349633 2.576618
v -9.270055 -16.056204 -0.000000
v -14.932449 -8.284765 2.576618
v -16.056204 -9.270055 -0.000000
v -16.569530 0.000000 2.576618
v -18.540110 0.000000 -0.000000
v -14.349633 8.284765 2.576618
v -16.056204 9.270055 -0.000000
v -8.284765 14.349633 2.576618
v -9.270055 16.056204 -0.000000
v 0.001485 16.201172 2.576618
v 8.284765 14.349633 2.576618
v 9.270055 16.056204 -0.000000
v 11.514950 -4.161385 2.576618
v 9.825770 -2.769273 0.000001
v 15.342864 -4.470879 2.576618
v 17.331861 -3.489099 -0.000000
v 10.419811 6.934619 -2.576618
v 3.662162 4.618543 0.000001
v 7.694907 5.111400 -2.576617
v 15.431976 0.770513 0.000001
v 13.892734 3.603512 -2.576617
v 17.545973 13.019859 -0.000001
v 15.295576 10.076412 -2.576618
v 13.814706 11.511551 -0.000000
v 13.640283 8.994115 -2.576618
v 11.514950 -4.161385 -2.576618
v 9.295698 -5.366873 0.000000
v 11.046278 -6.308154 -2.576618
v 15.342864 -4.470880 -2.576618
v 14.317254 -8.317143 -2.576618
v 5.366873 -9.295698 0.000000
v 6.352162 -11.002268 -2.576618
v 8.284765 -14.349633 -2.576618
v 0.000000 -10.733747 0.000000
v 0.000000 -12.704325 -2.576618
v 0.000000 -16.569530 -2.576618
v -5.366873 -9.295698 0.000000
v -6.352162 -11.002268 -2.576618
v -8.284765 -14.349633 -2.576618
v -9.295698 -5.366873 0.000000
v -10.794119 -6.144014 -2.576618
v -14.932449 -8.284765 -2.576618
v -10.733747 0.000000 0.000000
v -12.412916 0.624445 -2.576618
v -16.569530 0.000000 -2.576618
v -9.295698 5.366873 0.000000
v -11.002268 6.352162 -2.576618
v -14.349633 8.284765 -2.576618
v -5.366873 9.295698 0.000000
v -6.352162 11.002268 -2.576618
v -8.284765 14.349633 -2.576618
v 0.000000 10.733747 0.049221
v 0.000000 12.454546 -2.576618
v 0.000000 17.209110 -2.576618
v 0.000000 18.177404 0.019372
v 5.366873 9.295698 0.000000
v 6.352163 11.002268 -2.576618
v 8.284765 14.349633 -2.576618
vt 0.327961 0.953725
vt 0.327961 0.953725
vt 0.327961 0.953725
vt 0.327961 0.953724
vt 0.327960 0.953725
vt 0.327961 0.953725
vt 0.327961 0.953724
vt 0.327960 0.953724
vt 0.327961 0.953725
vt 0.327961 0.953724
vt 0.327960 0.953725
vt 0.327960 0.953725
vt 0.327961 0.953724
vt 0.327960 0.953724
vt 0.327960 0.953724
vt 0.327960 0.953725
vt 0.327961 0.953725
vt 0.327960 0.953725
vt 0.327961 0.953725
vt 0.327961 0.953725
vt 0.327961 0.953724
vt 0.327960 0.953725
vt 0.327960 0.953724
vt 0.327961 0.953724
vt 0.327961 0.953725
vt 0.327961 0.953725
vt 0.327960 0.953725
vt 0.327961 0.953724
vt 0.327961 0.953724
vt 0.327960 0.953725
vt 0.327961 0.953724
vt 0.327961 0.953725
vt 0.327960 0.953724
vt 0.327960 0.953725
vt 0.327961 0.953724
vt 0.327961 0.953724
vt 0.327961 0.953725
vt 0.327961 0.953725
vt 0.327960 0.953725
vt 0.327960 0.953725
vt 0.327961 0.953725
vt 0.327961 0.953725
vt 0.327960 0.953725
vt 0.327960 0.953725
vt 0.327961 0.953724
vt 0.327961 0.953724
vt 0.327961 0.953725
vt 0.327961 0.953725
vt 0.327961 0.953724
vt 0.327961 0.953724
vt 0.327960 0.953725
vt 0.327960 0.953725
vt 0.327961 0.953725
vt 0.327961 0.953725
vt 0.327961 0.953724
vt 0.327960 0.953725
vt 0.327960 0.953725
vt 0.327961 0.953725
vt 0.327961 0.953724
vt 0.327961 0.953724
vt 0.327960 0.953725
vt 0.327961 0.953725
vt 0.327961 0.953725
vt 0.327961 0.953724
vt 0.327960 0.953725
vt 0.327961 0.953724
vt 0.327960 0.953725
vt 0.327961 0.953725
vt 0.327961 0.953725
vt 0.327960 0.953725
vt 0.327960 0.953725
vt 0.327961 0.953724
vt 0.327961 0.953724
vt 0.327961 0.953725
vt 0.327961 0.953725
vt 0.327961 0.953724
vt 0.327961 0.953724
vt 0.327960 0.953725
vt 0.327960 0.953725
vt 0.327961 0.953725
vt 0.327961 0.953725
vn 0.798042 -0.149906 0.583659
vn 0.798041 -0.149906 0.583659
vn 0.798041 -0.149906 0.583659
vn 0.798042 -0.149906 0.583659
vn -0.227795 -0.764190 0.603426
vn -0.227795 -0.764190 0.603426
vn -0.227795 -0.764190 0.603426
vn -0.227795 -0.764190 0.603426
vn -0.453985 0.665529 0.592427
vn -0.453985 0.665529 0.592427
vn -0.453985 0.665529 0.592427
vn -0.453985 0.665529 0.592427
vn -0.346560 0.720590 0.600538
vn -0.346560 0.720590 0.600538
vn -0.346560 0.720590 0.600538
vn -0.346560 0.720590 0.600538
vn 0.568747 0.568746 0.594184
vn 0.568747 0.568746 0.594184
vn 0.568747 0.568746 0.594184
vn 0.568747 0.568746 0.594184
vn -0.568747 0.568746 0.594184
vn -0.568747 0.568747 0.594184
vn -0.568747 0.568746 0.594184
vn -0.568747 0.568747 0.594184
vn -0.784175 0.165078 0.598180
vn -0.784175 0.165078 0.598180
vn -0.784175 0.165078 0.598180
vn -0.784175 0.165078 0.598180
vn -0.208175 0.776922 0.594184
vn -0.208175 0.776922 0.594184
vn -0.208176 0.776922 0.594184
vn -0.208175 0.776922 0.594184
vn 0.208175 0.776922 0.594184
vn 0.208175 0.776922 0.594184
vn 0.208175 0.776922 0.594184
vn 0.208175 0.776922 0.594184
vn 0.598343 0.569996 0.563107
vn 0.598343 0.569996 0.563107
vn 0.598343 0.569996 0.563107
vn 0.598343 0.569996 0.563107
vn 0.829616 0.208977 0.517751
vn 0.829616 0.208977 0.517751
vn 0.829616 0.208977 0.517751
vn 0.829616 0.208977 0.517751
vn 0.788252 -0.202395 0.581115
vn 0.788252 -0.202395 0.581115
vn 0.788252 -0.202395 0.581115
vn 0.788252 -0.202395 0.581115
vn 0.568746 -0.568746 0.594184
vn 0.568746 -0.568746 0.594184
vn 0.568746 -0.568746 0.594184
vn 0.568746 -0.568746 0.594184
vn 0.178665 -0.824667 0.536660
vn 0.178665 -0.824667 0.536660
vn 0.178665 -0.824667 0.536660
vn 0.178665 -0.824667 0.536660
vn -0.178427 -0.825079 0.536105
vn -0.178427 -0.825079 0.536105
vn -0.178427 -0.825079 0.536105
vn -0.178427 -0.825079 0.536105
vn -0.568746 -0.568746 0.594185
vn -0.568747 -0.568746 0.594185
vn -0.568747 -0.568746 0.594185
vn -0.568747 -0.568746 0.594185
vn 0.795926 -0.190256 0.574722
vn 0.795926 -0.190256 0.574722
vn 0.795926 -0.190256 0.574722
vn 0.795926 -0.190256 0.574722
vn 0.568746 -0.568746 0.594184
vn 0.568746 -0.568746 0.594184
vn 0.568746 -0.568746 0.594184
vn 0.568746 -0.568746 0.594184
vn 0.208176 -0.776922 0.594184
vn 0.208176 -0.776922 0.594184
vn 0.208176 -0.776922 0.594184
vn 0.208176 -0.776922 0.594184
vn -0.208176 -0.776922 0.594184
vn -0.208176 -0.776922 0.594184
vn -0.208176 -0.776922 0.594184
vn -0.208176 -0.776922 0.594184
vn -0.576832 -0.602992 0.551058
vn -0.576832 -0.602992 0.551058
vn -0.576832 -0.602992 0.551058
vn -0.576832 -0.602992 0.551058
vn -0.824343 -0.193514 0.531988
vn -0.824343 -0.193514 0.531988
vn -0.824343 -0.193514 0.531988
vn -0.824343 -0.193514 0.531988
vn -0.776922 0.208176 0.594184
vn -0.776922 0.208176 0.594184
vn -0.776922 0.208176 0.594184
vn -0.776922 0.208176 0.594184
vn -0.568746 0.568747 0.594184
vn -0.568747 0.568747 0.594184
vn -0.568747 0.568747 0.594184
vn -0.568746 0.568747 0.594184
vn -0.177859 0.783087 0.595937
vn -0.177859 0.783087 0.595937
vn -0.177859 0.783087 0.595937
vn -0.177859 0.783087 0.595937
vn 0.177898 0.783128 0.595872
vn 0.177898 0.783128 0.595872
vn 0.177898 0.783128 0.595872
vn 0.177898 0.783128 0.595872
vn 0.082042 0.903378 0.420924
vn 0.082042 0.903378 0.420924
vn 0.082042 0.903378 0.420924
vn 0.082042 0.903378 0.420924
vn -0.568747 -0.568747 -0.594184
vn -0.568747 -0.568746 -0.594184
vn -0.568747 -0.568746 -0.594184
vn -0.568747 -0.568747 -0.594184
vn -0.453985 0.665529 -0.592427
vn -0.453985 0.665529 -0.592427
vn -0.453985 0.665529 -0.592427
vn -0.453985 0.665529 -0.592427
vn -0.227795 -0.764190 -0.603426
vn -0.227795 -0.764190 -0.603426
vn -0.227795 -0.764190 -0.603426
vn -0.227795 -0.764190 -0.603426
vn 0.798042 -0.149906 -0.583659
vn 0.798042 -0.149906 -0.583659
vn 0.798042 -0.149906 -0.583659
vn 0.798042 -0.149906 -0.583659
vn -0.346560 0.720590 -0.600538
vn -0.346560 0.720590 -0.600538
vn -0.346560 0.720590 -0.600538
vn -0.346560 0.720590 -0.600538
vn 0.568747 0.568746 -0.594184
vn 0.568747 0.568746 -0.594184
vn 0.568747 0.568746 -0.594184
vn 0.568747 0.568746 -0.594184
vn 0.082042 0.903378 -0.420924
vn 0.082042 0.903378 -0.420924
vn 0.082042 0.903378 -0.420924
vn 0.082042 0.903378 -0.420924
vn -0.784175 0.165078 -0.598180
vn -0.784175 0.165078 -0.598180
vn -0.784175 0.165078 -0.598180
vn -0.784175 0.165078 -0.598180
vn -0.568746 0.568747 -0.594184
vn -0.568746 0.568747 -0.594184
vn -0.568746 0.568747 -0.594184
vn -0.568746 0.568747 -0.594184
vn 0.795926 -0.190256 -0.574722
vn 0.795926 -0.190256 -0.574722
vn 0.795926 -0.190256 -0.574722
vn 0.795926 -0.190256 -0.574722
vn 0.568746 -0.568746 -0.594184
vn 0.568746 -0.568746 -0.594184
vn 0.568746 -0.568746 -0.594184
vn 0.568746 -0.568746 -0.594184
vn -0.208176 0.776922 -0.594184
vn -0.208176 0.776922 -0.594184
vn -0.208176 0.776922 -0.594184
vn -0.208176 0.776922 -0.594184
vn 0.208176 -0.776922 -0.594184
vn 0.208176 -0.776922 -0.594184
vn 0.208176 -0.776922 -0.594184
vn 0.208176 -0.776922 -0.594184
vn 0.208176 0.776922 -0.594184
vn 0.208176 0.776922 -0.594184
vn 0.208176 0.776922 -0.594184
vn 0.208176 0.776922 -0.594184
vn -0.208176 -0.776922 -0.594184
vn -0.208176 -0.776922 -0.594184
vn -0.208176 -0.776922 -0.594184
vn -0.208176 -0.776922 -0.594184
vn 0.598344 0.569997 -0.563106
vn 0.598344 0.569997 -0.563106
vn 0.598344 0.569997 -0.563106
vn 0.598344 0.569997 -0.563106
vn -0.576832 -0.602992 -0.551058
vn -0.576832 -0.602992 -0.551059
vn -0.576832 -0.602992 -0.551058
vn -0.576832 -0.602992 -0.551058
vn 0.829616 0.208977 -0.517750
vn 0.829616 0.208977 -0.517750
vn 0.829616 0.208977 -0.517750
vn 0.829616 0.208977 -0.517750
vn -0.824343 -0.193514 -0.531988
vn -0.824343 -0.193514 -0.531988
vn -0.824343 -0.193514 -0.531988
vn -0.824343 -0.193514 -0.531988
vn 0.788253 -0.202395 -0.581115
vn 0.788252 -0.202395 -0.581115
vn 0.788253 -0.202395 -0.581114
vn 0.788253 -0.202395 -0.581115
vn -0.776922 0.208176 -0.594184
vn -0.776922 0.208176 -0.594184
vn -0.776922 0.208176 -0.594184
vn -0.776922 0.208176 -0.594184
vn 0.568747 -0.568746 -0.594184
vn 0.568747 -0.568747 -0.594184
vn 0.568747 -0.568747 -0.594184
vn 0.568747 -0.568746 -0.594184
vn -0.568746 0.568747 -0.594184
vn -0.568746 0.568747 -0.594184
vn -0.568746 0.568747 -0.594184
vn -0.568746 0.568747 -0.594184
vn 0.199787 -0.800427 -0.565157
vn 0.199787 -0.800426 -0.565157
vn 0.199787 -0.800426 -0.565157
vn 0.199787 -0.800427 -0.565157
vn -0.238725 0.843279 -0.481550
vn -0.238725 0.843279 -0.481550
vn -0.238725 0.843279 -0.481550
vn -0.238725 0.843279 -0.481550
vn -0.199787 -0.800427 -0.565157
vn -0.199787 -0.800427 -0.565157
vn -0.199787 -0.800427 -0.565157
vn -0.199787 -0.800427 -0.565157
vn 0.238725 0.843279 -0.481550
vn 0.238725 0.843279 -0.481550
vn 0.238725 0.843279 -0.481550
vn 0.238725 0.843279 -0.481550
vn -0.000000 -0.000000 -1.000000
vn -0.000000 -0.000000 -1.000000
vn -0.000000 -0.000000 -1.000000
vn 0.000000 -0.000000 -1.000000
vn 0.000000 -0.000000 -1.000000
vn 0.000000 -0.000000 -1.000000
vn 0.000000 -0.000000 -1.000000
vn 0.000000 -0.000000 -1.000000
vn 0.000000 -0.000000 -1.000000
vn -0.000000 0.000000 -1.000000
vn -0.000000 0.000000 -1.000000
vn -0.000000 0.000000 -1.000000
vn -0.000000 0.000000 -1.000000
vn -0.000000 0.000000 -1.000000
vn -0.000000 0.000000 -1.000000
vn -0.000000 0.000000 -1.000000
vn -0.000000 0.000000 -1.000000
vn -0.000000 0.000000 -1.000000
vn -0.000000 0.000000 -1.000000
vn -0.000000 0.000000 -1.000000
vn -0.000000 0.000000 -1.000000
vn 0.000000 0.000000 -1.000000
vn 0.000000 0.000000 -1.000000
vn 0.000000 0.000000 -1.000000
vn 0.000000 0.000000 -1.000000
vn 0.000000 0.000000 -1.000000
vn 0.000000 0.000000 -1.000000
vn 0.000000 0.000000 -1.000000
vn 0.000000 0.000000 -1.000000
vn 0.000000 0.000000 -1.000000
vn 0.000000 0.000000 -1.000000
vn 0.000000 0.000000 -1.000000
vn 0.000000 0.000000 -1.000000
vn 0.000000 -0.000000 -1.000000
vn 0.000000 -0.000000 -1.000000
vn 0.000000 -0.000000 -1.000000
vn 0.000000 -0.000000 -1.000000
vn 0.000000 -0.000000 -1.000000
vn 0.000000 -0.000000 -1.000000
vn 0.000000 -0.000000 -1.000000
vn 0.000000 -0.000000 -1.000000
vn 0.000000 -0.000000 -1.000000
vn 0.000000 -0.000000 -1.000000
vn 0.000000 -0.000000 -1.000000
vn 0.000000 -0.000000 -1.000000
vn -0.000000 -0.000000 -1.000000
vn -0.000000 -0.000000 -1.000000
vn -0.000000 -0.000000 -1.000000
vn -0.000000 -0.000000 -1.000000
vn -0.000000 -0.000000 -1.000000
vn -0.000000 -0.000000 -1.000000
vn -0.000000 -0.000000 -1.000000
vn -0.000000 -0.000000 -1.000000
vn 0.000000 0.000000 1.000000
vn 0.000000 0.000000 1.000000
vn 0.000000 0.000000 1.000000
vn 0.000000 0.000000 1.000000
vn 0.000000 0.000000 1.000000
vn 0.000000 0.000000 1.000000
vn 0.000000 0.000000 1.000000
vn 0.000000 0.000000 1.000000
vn 0.000000 0.000000 1.000000
vn 0.000000 -0.000000 1.000000
vn 0.000000 -0.000000 1.000000
vn 0.000000 -0.000000 1.000000
vn 0.000000 -0.000000 1.000000
vn 0.000000 -0.000000 1.000000
vn 0.000000 -0.000000 1.000000
vn 0.000000 -0.000000 1.000000
vn 0.000000 -0.000000 1.000000
vn 0.000000 -0.000000 1.000000
vn 0.000000 -0.000000 1.000000
vn 0.000000 -0.000000 1.000000
vn 0.000000 -0.000000 1.000000
vn 0.000000 -0.000000 1.000000
vn 0.000000 -0.000000 1.000000
vn 0.000000 -0.000000 1.000000
vn 0.000000 -0.000000 1.000000
vn -0.000000 -0.000000 1.000000
vn -0.000000 -0.000000 1.000000
vn -0.000000 -0.000000 1.000000
vn -0.000000 -0.000000 1.000000
vn -0.000000 -0.000000 1.000000
vn -0.000000 -0.000000 1.000000
vn -0.000000 -0.000000 1.000000
vn -0.000000 -0.000000 1.000000
vn -0.000000 0.000000 1.000000
vn -0.000000 0.000000 1.000000
vn -0.000000 0.000000 1.000000
vn -0.000000 0.000000 1.000000
vn -0.000000 0.000000 1.000000
vn -0.000000 0.000000 1.000000
vn -0.000000 0.000000 1.000000
vn -0.000000 0.000000 1.000000
vn -0.000000 0.000000 1.000000
vn -0.000000 0.000000 1.000000
vn -0.000000 0.000000 1.000000
vn -0.000000 0.000000 1.000000
vn 0.000000 0.000000 1.000000
vn 0.000000 0.000000 1.000000
vn 0.000000 0.000000 1.000000
vn 0.000000 0.000000 1.000000
vn 0.000000 0.000000 1.000000
vn 0.000000 0.000000 1.000000
vn 0.000000 0.000000 1.000000
vn 0.000000 0.000000 1.000000
s off
f 1/1/1 43/2/2 45/3/3 3/4/4
f 43/2/5 1/1/6 2/5/7 41/6/8
f 41/6/9 2/5/10 15/7/11 16/8/12
f 3/4/13 45/3/14 47/9/15 4/10/16
f 4/10/17 47/9/18 35/11/19 34/12/20
f 5/13/21 50/14/22 54/15/23 6/16/24
f 50/14/25 5/13/26 36/17/27 37/18/28
f 6/16/29 54/15/30 57/19/31 7/20/32
f 7/20/33 57/19/34 60/21/35 8/22/36
f 8/22/37 60/21/38 63/23/39 9/24/40
f 9/24/41 63/23/42 66/25/43 10/26/44
f 10/26/45 66/25/46 69/27/47 11/28/48
f 11/28/49 69/27/50 72/29/51 12/30/52
f 12/30/53 72/29/54 75/31/55 13/32/56
f 13/32/57 75/31/58 79/33/59 14/34/60
f 14/34/61 79/33/62 16/8/63 15/7/64
f 17/35/65 18/36/66 39/37/67 38/38/68
f 18/36/69 17/35/70 19/39/71 20/40/72
f 20/40/73 19/39/74 21/41/75 22/42/76
f 22/42/77 21/41/78 23/43/79 24/44/80
f 24/44/81 23/43/82 25/45/83 26/46/84
f 26/46/85 25/45/86 27/47/87 28/48/88
f 28/48/89 27/47/90 29/49/91 30/50/92
f 30/50/93 29/49/94 31/51/95 32/52/96
f 32/52/97 31/51/98 33/53/99 78/54/100
f 78/54/101 33/53/102 34/12/103 35/11/104
f 37/18/105 36/17/106 38/38/107 39/37/108
f 40/55/109 16/8/110 79/33/111 80/56/112
f 16/8/113 40/55/114 42/57/115 41/6/116
f 41/6/117 42/57/118 44/58/119 43/2/120
f 43/2/121 44/58/122 46/59/123 45/3/124
f 45/3/125 46/59/126 48/60/127 47/9/128
f 47/9/129 48/60/130 81/61/131 35/11/132
f 49/62/133 37/18/134 39/37/135 52/63/136
f 37/18/137 49/62/138 51/64/139 50/14/140
f 50/14/141 51/64/142 55/65/143 54/15/144
f 52/63/145 39/37/146 18/36/147 53/66/148
f 53/66/149 18/36/150 20/40/151 56/67/152
f 54/15/153 55/65/154 58/68/155 57/19/156
f 56/67/157 20/40/158 22/42/159 59/69/160
f 57/19/161 58/68/162 61/70/163 60/21/164
f 59/69/165 22/42/166 24/44/167 62/71/168
f 60/21/169 61/70/170 64/72/171 63/23/172
f 62/71/173 24/44/174 26/46/175 65/73/176
f 63/23/177 64/72/178 67/74/179 66/25/180
f 65/73/181 26/46/182 28/48/183 68/75/184
f 66/25/185 67/74/186 70/76/187 69/27/188
f 68/75/189 28/48/190 30/50/191 71/77/192
f 69/27/193 70/76/194 73/78/195 72/29/196
f 71/77/197 30/50/198 32/52/199 74/79/200
f 72/29/201 73/78/202 76/80/203 75/31/204
f 74/79/205 32/52/206 78/54/207 77/81/208
f 75/31/209 76/80/210 80/56/211 79/33/212
f 77/81/213 78/54/214 35/11/215 81/61/216
f 42/57/217 40/55/218 44/58/219
f 46/59/220 44/58/221 48/60/222
f 40/55/223 48/60/224 44/58/225
f 51/64/226 49/62/227 52/63/228 53/66/229
f 55/65/230 51/64/231 53/66/232 56/67/233
f 58/68/234 55/65/235 56/67/236 59/69/237
f 61/70/238 58/68/239 59/69/240 62/71/241
f 64/72/242 61/70/243 62/71/244 65/73/245
f 67/74/246 64/72/247 65/73/248 68/75/249
f 70/76/250 67/74/251 68/75/252 71/77/253
f 73/78/254 70/76/255 71/77/256 74/79/257
f 76/80/258 73/78/259 74/79/260 77/81/261
f 80/56/262 76/80/263 77/81/264 81/61/265
f 40/55/266 80/56/267 81/61/268 48/60/269
f 2/5/270 1/1/271 15/7/272
f 3/4/273 4/10/274 1/1/275
f 15/7/276 1/1/277 4/10/278
f 5/13/279 17/35/280 38/38/281 36/17/282
f 6/16/283 19/39/284 17/35/285 5/13/286
f 7/20/287 21/41/288 19/39/289 6/16/290
f 8/22/291 23/43/292 21/41/293 7/20/294
f 9/24/295 25/45/296 23/43/297 8/22/298
f 10/26/299 27/47/300 25/45/301 9/24/302
f 11/28/303 29/49/304 27/47/305 10/26/306
f 12/30/307 31/51/308 29/49/309 11/28/310
f 13/32/311 33/53/312 31/51/313 12/30/314
f 14/34/315 34/12/316 33/53/317 13/32/318
f 15/7/319 4/10/320 34/12/321 14/34/322
