# This file uses centimeters as units for non-parametric coordinates.

v -20.000000 -0.475842 -0.000000
v 20.000000 1.048561 -0.000000
v 15.331344 13.465746 0.000000
v 7.082769 14.119112 -0.000000
v -2.352922 13.237326 0.000000
v -11.602460 9.940627 0.000000
v -17.549604 5.047888 -0.000000
v -19.011948 -6.247636 -0.000000
v -13.422167 -11.757158 -0.000000
v -3.563248 -14.054819 0.000000
v 5.803383 -13.207615 0.000000
v 14.164287 -9.405267 0.000000
v 18.703398 -4.397677 0.000000
v 18.935066 5.471895 0.000000
v 14.648506 8.163499 0.000000
v 7.840794 8.913414 -0.000000
v 0.807819 7.399293 -0.000000
v -1.327073 5.130429 0.000000
v 2.683395 6.320843 -0.000000
v 8.807931 6.696117 0.000000
v 14.170679 5.627719 0.000000
v 16.335846 3.623858 -0.000000
v 16.918985 0.515582 0.000000
v 15.782691 -3.564740 0.000000
v 12.657486 -6.592915 0.000000
v 5.405779 -10.224492 -0.000000
v -2.993678 -11.170446 -0.000000
v -11.337100 -9.322853 0.000000
v -15.865352 -5.276934 0.000000
v -16.753061 -0.119646 0.000000
v -14.800424 3.996859 -0.000000
v -10.388577 7.562687 -0.000000
v -2.063199 10.812558 -0.000000
v 7.224848 11.433785 0.000000
v 14.421796 10.737133 0.000000
v 0.369120 6.025496 2.000000
v 2.146318 6.688818 2.000000
v 1.651523 7.057633 2.000000
v 7.871891 8.306218 2.000000
v 8.845506 7.250073 2.000000
v 14.445433 7.580542 2.000000
v 14.407277 6.091553 2.000000
v 18.417505 5.099914 2.000000
v 16.781403 3.870029 2.000000
v 19.381382 1.047777 2.000000
v 17.450817 0.492660 2.000000
v 18.154182 -4.108219 2.000000
v 16.232510 -3.832167 2.000000
v 13.802080 -8.909143 2.000000
v 12.975697 -7.041527 2.000000
v 14.766362 13.091537 2.000000
v 14.060295 11.293413 2.000000
v 7.086983 13.522955 2.000000
v 7.233244 11.998910 2.000000
v 5.647670 -12.618751 2.000000
v 5.560611 -10.746748 2.000000
v -2.222765 12.649156 2.000000
v -2.182945 11.349371 2.000000
v -11.301894 9.410041 2.000000
v -10.664579 8.038145 2.000000
v -17.057392 4.673747 2.000000
v -15.219520 4.326836 2.000000
v -17.260735 -0.050056 2.000000
v -19.378504 -0.553300 2.000000
v -18.454742 -5.956779 2.000000
v -16.306726 -5.521523 2.000000
v -13.121109 -11.210718 2.000000
v -11.576815 -9.790627 2.000000
v -3.521112 -13.448485 2.000000
v -3.022607 -11.716915 2.000000
v 0.369120 6.025496 -2.000000
v 2.146318 6.688818 -2.000000
v 1.651523 7.057633 -2.000000
v 7.871891 8.306218 -2.000000
v 8.845506 7.250073 -2.000000
v 14.445433 7.580542 -2.000000
v 14.407277 6.091553 -2.000000
v 18.417505 5.099914 -2.000000
v 16.781403 3.870029 -2.000000
v 19.381382 1.047777 -2.000000
v 17.450817 0.492660 -2.000000
v 18.154182 -4.108219 -2.000000
v 16.232510 -3.832167 -2.000000
v 13.802080 -8.909143 -2.000000
v 12.975697 -7.041527 -2.000000
v 14.766362 13.091537 -2.000000
v 14.060295 11.293413 -2.000000
v 7.086983 13.522955 -2.000000
v 7.233244 11.998910 -2.000000
v 5.647670 -12.618751 -2.000000
v 5.560611 -10.746748 -2.000000
v -2.222765 12.649156 -2.000000
v -2.182945 11.349371 -2.000000
v -11.301894 9.410041 -2.000000
v -10.664579 8.038145 -2.000000
v -17.057392 4.673747 -2.000000
v -15.219520 4.326836 -2.000000
v -17.260735 -0.050056 -2.000000
v -19.378504 -0.553300 -2.000000
v -18.454742 -5.956779 -2.000000
v -16.306726 -5.521523 -2.000000
v -13.121109 -11.210718 -2.000000
v -11.576815 -9.790627 -2.000000
v -3.521112 -13.448485 -2.000000
v -3.022607 -11.716915 -2.000000
vt 0.016251 0.951551
vt 0.015262 0.951512
vt 0.015378 0.951207
vt 0.015582 0.951191
vt 0.015815 0.951211
vt 0.016044 0.951292
vt 0.016191 0.951413
vt 0.016226 0.951695
vt 0.016087 0.951832
vt 0.015844 0.951887
vt 0.015612 0.951863
vt 0.015406 0.951769
vt 0.015294 0.951646
vt 0.015289 0.951403
vt 0.015395 0.951337
vt 0.015563 0.951319
vt 0.015737 0.951355
vt 0.015790 0.951411
vt 0.015691 0.951382
vt 0.015539 0.951373
vt 0.015406 0.951399
vt 0.015353 0.951449
vt 0.015338 0.951525
vt 0.015366 0.951625
vt 0.015443 0.951700
vt 0.015622 0.951790
vt 0.015830 0.951815
vt 0.016036 0.951771
vt 0.016148 0.951670
vt 0.016171 0.951542
vt 0.016123 0.951440
vt 0.016014 0.951351
vt 0.015808 0.951271
vt 0.015578 0.951257
vt 0.015400 0.951274
vt 0.015790 0.951411
vt 0.015691 0.951382
vt 0.015737 0.951355
vt 0.015563 0.951319
vt 0.015539 0.951373
vt 0.015395 0.951337
vt 0.015406 0.951399
vt 0.015289 0.951403
vt 0.015353 0.951449
vt 0.015262 0.951512
vt 0.015338 0.951525
vt 0.015294 0.951646
vt 0.015366 0.951625
vt 0.015406 0.951769
vt 0.015443 0.951700
vt 0.015400 0.951274
vt 0.015378 0.951207
vt 0.015582 0.951191
vt 0.015578 0.951257
vt 0.015612 0.951863
vt 0.015622 0.951790
vt 0.015815 0.951211
vt 0.015808 0.951271
vt 0.016044 0.951292
vt 0.016014 0.951351
vt 0.016191 0.951413
vt 0.016123 0.951440
vt 0.016171 0.951542
vt 0.016251 0.951551
vt 0.016226 0.951695
vt 0.016148 0.951670
vt 0.016087 0.951832
vt 0.016036 0.951771
vt 0.015844 0.951887
vt 0.015830 0.951815
vt 0.015790 0.951411
vt 0.015691 0.951382
vt 0.015737 0.951355
vt 0.015563 0.951319
vt 0.015539 0.951373
vt 0.015395 0.951337
vt 0.015406 0.951399
vt 0.015289 0.951403
vt 0.015353 0.951449
vt 0.015262 0.951512
vt 0.015338 0.951525
vt 0.015294 0.951646
vt 0.015366 0.951625
vt 0.015406 0.951769
vt 0.015443 0.951700
vt 0.015400 0.951274
vt 0.015378 0.951207
vt 0.015582 0.951191
vt 0.015578 0.951257
vt 0.015612 0.951863
vt 0.015622 0.951790
vt 0.015815 0.951211
vt 0.015808 0.951271
vt 0.016044 0.951292
vt 0.016014 0.951351
vt 0.016191 0.951413
vt 0.016123 0.951440
vt 0.016171 0.951542
vt 0.016251 0.951551
vt 0.016226 0.951695
vt 0.016148 0.951670
vt 0.016087 0.951832
vt 0.016036 0.951771
vt 0.015844 0.951887
vt 0.015830 0.951815
vt 0.015790 0.951411
vt 0.015691 0.951382
vt 0.015737 0.951355
vt 0.015563 0.951319
vt 0.015539 0.951373
vt 0.015395 0.951337
vt 0.015406 0.951399
vt 0.015289 0.951403
vt 0.015353 0.951449
vt 0.015262 0.951512
vt 0.015338 0.951525
vt 0.015294 0.951646
vt 0.015366 0.951625
vt 0.015406 0.951769
vt 0.015443 0.951700
vt 0.015400 0.951274
vt 0.015378 0.951207
vt 0.015582 0.951191
vt 0.015578 0.951257
vt 0.015612 0.951863
vt 0.015622 0.951790
vt 0.015815 0.951211
vt 0.015808 0.951271
vt 0.016044 0.951292
vt 0.016014 0.951351
vt 0.016191 0.951413
vt 0.016123 0.951440
vt 0.016171 0.951542
vt 0.016251 0.951551
vt 0.016226 0.951695
vt 0.016148 0.951670
vt 0.016087 0.951832
vt 0.016036 0.951771
vt 0.015844 0.951887
vt 0.015830 0.951815
vn 0.000000 0.000000 1.000000
vn 0.000000 0.000000 1.000000
vn 0.000000 0.000000 1.000000
vn 0.000000 0.000000 1.000000
vn 0.000000 0.000000 1.000000
vn 0.000000 0.000000 1.000000
vn 0.000000 0.000000 1.000000
vn 0.000000 0.000000 1.000000
vn 0.000000 0.000000 1.000000
vn 0.000000 0.000000 1.000000
vn 0.000000 0.000000 1.000000
vn 0.000000 0.000000 1.000000
vn 0.000000 0.000000 1.000000
vn 0.000000 0.000000 1.000000
vn 0.000000 0.000000 1.000000
vn 0.000000 0.000000 1.000000
vn 0.000000 0.000000 1.000000
vn 0.000000 0.000000 1.000000
vn 0.000000 0.000000 1.000000
vn 0.000000 0.000000 1.000000
vn 0.000000 0.000000 1.000000
vn 0.000000 0.000000 1.000000
vn 0.000000 0.000000 1.000000
vn 0.000000 0.000000 1.000000
vn 0.000000 0.000000 1.000000
vn 0.000000 0.000000 1.000000
vn 0.000000 0.000000 1.000000
vn 0.000000 0.000000 1.000000
vn 0.000000 0.000000 1.000000
vn 0.000000 0.000000 1.000000
vn 0.000000 0.000000 1.000000
vn 0.000000 0.000000 1.000000
vn 0.000000 0.000000 1.000000
vn 0.000000 0.000000 1.000000
vn 0.000000 0.000000 1.000000
vn 0.000000 0.000000 1.000000
vn 0.000000 0.000000 1.000000
vn 0.000000 0.000000 1.000000
vn 0.000000 0.000000 1.000000
vn 0.000000 0.000000 1.000000
vn 0.000000 0.000000 1.000000
vn 0.000000 0.000000 1.000000
vn 0.000000 0.000000 1.000000
vn 0.000000 0.000000 1.000000
vn 0.000000 0.000000 1.000000
vn 0.000000 0.000000 1.000000
vn 0.000000 0.000000 1.000000
vn -0.000000 0.000000 1.000000
vn -0.000000 0.000000 1.000000
vn -0.000000 0.000000 1.000000
vn -0.000000 0.000000 1.000000
vn 0.000000 0.000000 1.000000
vn 0.000000 0.000000 1.000000
vn 0.000000 0.000000 1.000000
vn 0.000000 0.000000 1.000000
vn 0.000000 0.000000 1.000000
vn 0.000000 0.000000 1.000000
vn 0.000000 0.000000 1.000000
vn 0.000000 0.000000 1.000000
vn 0.000000 0.000000 1.000000
vn 0.000000 0.000000 1.000000
vn 0.000000 0.000000 1.000000
vn 0.000000 0.000000 1.000000
vn 0.000000 0.000000 1.000000
vn 0.000000 0.000000 1.000000
vn 0.000000 0.000000 1.000000
vn 0.000000 0.000000 1.000000
vn 0.298376 -0.931577 0.207692
vn 0.298376 -0.931577 0.207692
vn 0.298376 -0.931577 0.207692
vn 0.298376 -0.931577 0.207692
vn -0.657451 0.680613 0.323301
vn -0.657451 0.680613 0.323301
vn -0.657451 0.680613 0.323301
vn -0.657451 0.680613 0.323301
vn -0.196669 0.943467 0.266815
vn -0.196669 0.943467 0.266815
vn -0.196669 0.943467 0.266815
vn -0.196669 0.943467 0.266815
vn 0.070842 -0.970032 0.232422
vn 0.070842 -0.970032 0.232422
vn 0.070842 -0.970032 0.232422
vn 0.070842 -0.970032 0.232422
vn 0.104973 0.951935 0.287750
vn 0.104973 0.951935 0.287750
vn 0.104973 0.951935 0.287750
vn 0.104973 0.951935 0.287750
vn -0.193169 -0.947622 0.254360
vn -0.193169 -0.947622 0.254360
vn -0.193169 -0.947622 0.254360
vn -0.193169 -0.947622 0.254360
vn 0.508681 0.812223 0.285549
vn 0.508681 0.812223 0.285549
vn 0.508681 0.812223 0.285549
vn 0.508681 0.812223 0.285549
vn -0.661601 -0.710752 0.238988
vn -0.661601 -0.710752 0.238988
vn -0.661601 -0.710752 0.238988
vn -0.661601 -0.710752 0.238988
vn 0.932038 0.223106 0.285532
vn 0.932038 0.223106 0.285532
vn 0.932038 0.223106 0.285532
vn 0.932038 0.223106 0.285532
vn -0.952430 -0.183940 0.242990
vn -0.952430 -0.183940 0.242990
vn -0.952430 -0.183940 0.242990
vn -0.952430 -0.183940 0.242990
vn 0.931602 -0.221762 0.287993
vn 0.931602 -0.221762 0.287993
vn 0.931602 -0.221762 0.287993
vn 0.931602 -0.221762 0.287993
vn -0.932870 0.261333 0.247908
vn -0.932870 0.261333 0.247908
vn -0.932870 0.261333 0.247908
vn -0.932870 0.261333 0.247908
vn 0.709515 -0.643161 0.287981
vn 0.709515 -0.643161 0.287981
vn 0.709515 -0.643161 0.287981
vn 0.709515 -0.643161 0.287981
vn -0.676106 0.691767 0.253650
vn -0.676106 0.691767 0.253650
vn -0.676106 0.691767 0.253650
vn -0.676106 0.691767 0.253650
vn 0.917154 -0.327337 0.227331
vn 0.917154 -0.327337 0.227331
vn 0.917154 -0.327337 0.227331
vn 0.917154 -0.327337 0.227331
vn 0.065895 0.967545 0.243957
vn 0.065895 0.967545 0.243957
vn 0.065895 0.967545 0.243957
vn 0.065895 0.967545 0.243957
vn -0.096042 -0.960596 0.260827
vn -0.096042 -0.960596 0.260827
vn -0.096042 -0.960596 0.260827
vn -0.096042 -0.960596 0.260827
vn 0.396514 -0.871750 0.287800
vn 0.396514 -0.871750 0.287800
vn 0.396514 -0.871750 0.287800
vn 0.396514 -0.871750 0.287800
vn -0.431915 0.863430 0.260648
vn -0.431915 0.863430 0.260648
vn -0.431915 0.863430 0.260648
vn -0.431915 0.863430 0.260648
vn -0.089364 0.954197 0.285522
vn -0.089364 0.954197 0.285522
vn -0.089364 0.954197 0.285522
vn -0.089364 0.954197 0.285522
vn 0.065328 -0.961559 0.266713
vn 0.065328 -0.961559 0.266713
vn 0.065328 -0.961559 0.266713
vn 0.065328 -0.961559 0.266713
vn -0.321744 0.902280 0.287004
vn -0.321744 0.902280 0.287004
vn -0.321744 0.902280 0.287004
vn -0.321744 0.902280 0.287004
vn 0.350927 -0.898941 0.262213
vn 0.350927 -0.898941 0.262213
vn 0.350927 -0.898941 0.262213
vn 0.350927 -0.898941 0.262213
vn -0.608481 0.739517 0.287863
vn -0.608481 0.739517 0.287863
vn -0.608481 0.739517 0.287863
vn -0.608481 0.739517 0.287863
vn 0.609002 -0.750403 0.256929
vn 0.609002 -0.750403 0.256929
vn 0.609002 -0.750403 0.256929
vn 0.609002 -0.750403 0.256929
vn 0.877473 -0.412614 0.244521
vn 0.877473 -0.412614 0.244521
vn 0.877473 -0.412614 0.244521
vn 0.877473 -0.412614 0.244521
vn -0.875403 0.388529 0.287601
vn -0.875403 0.388529 0.287601
vn -0.875403 0.388529 0.287601
vn -0.875403 0.388529 0.287601
vn -0.944253 -0.161538 0.286866
vn -0.944253 -0.161538 0.286866
vn -0.944253 -0.161538 0.286866
vn -0.944253 -0.161538 0.286866
vn 0.957838 0.165971 0.234520
vn 0.957838 0.165971 0.234520
vn 0.957838 0.165971 0.234520
vn 0.957838 0.165971 0.234520
vn -0.672327 -0.682319 0.287084
vn -0.672327 -0.682319 0.287084
vn -0.672327 -0.682319 0.287084
vn -0.672327 -0.682319 0.287084
vn 0.648810 0.722402 0.239128
vn 0.648810 0.722402 0.239128
vn 0.648810 0.722402 0.239128
vn 0.648810 0.722402 0.239128
vn -0.217411 -0.932786 0.287477
vn -0.217411 -0.932786 0.287477
vn -0.217411 -0.932786 0.287477
vn -0.217411 -0.932786 0.287477
vn 0.210846 0.944067 0.253539
vn 0.210846 0.944067 0.253539
vn 0.210846 0.944067 0.253539
vn 0.210846 0.944067 0.253539
vn 0.086301 -0.953893 0.287473
vn 0.086301 -0.953893 0.287473
vn 0.086301 -0.953893 0.287473
vn 0.086301 -0.953893 0.287473
vn -0.108267 0.959577 0.259789
vn -0.108267 0.959577 0.259789
vn -0.108267 0.959577 0.259789
vn -0.108267 0.959577 0.259789
vn 0.000000 0.000000 -1.000000
vn 0.000000 0.000000 -1.000000
vn 0.000000 0.000000 -1.000000
vn 0.000000 0.000000 -1.000000
vn 0.000000 0.000000 -1.000000
vn 0.000000 0.000000 -1.000000
vn 0.000000 0.000000 -1.000000
vn 0.000000 0.000000 -1.000000
vn 0.000000 0.000000 -1.000000
vn 0.000000 0.000000 -1.000000
vn 0.000000 0.000000 -1.000000
vn 0.000000 0.000000 -1.000000
vn 0.000000 0.000000 -1.000000
vn 0.000000 0.000000 -1.000000
vn 0.000000 0.000000 -1.000000
vn 0.000000 0.000000 -1.000000
vn 0.000000 0.000000 -1.000000
vn 0.000000 0.000000 -1.000000
vn 0.000000 0.000000 -1.000000
vn 0.000000 0.000000 -1.000000
vn 0.000000 0.000000 -1.000000
vn 0.000000 0.000000 -1.000000
vn 0.000000 0.000000 -1.000000
vn 0.000000 0.000000 -1.000000
vn 0.000000 0.000000 -1.000000
vn 0.000000 0.000000 -1.000000
vn 0.000000 0.000000 -1.000000
vn 0.000000 0.000000 -1.000000
vn 0.000000 0.000000 -1.000000
vn 0.000000 0.000000 -1.000000
vn 0.000000 0.000000 -1.000000
vn 0.000000 0.000000 -1.000000
vn 0.000000 0.000000 -1.000000
vn 0.000000 0.000000 -1.000000
vn 0.000000 0.000000 -1.000000
vn 0.000000 0.000000 -1.000000
vn 0.000000 0.000000 -1.000000
vn 0.000000 0.000000 -1.000000
vn 0.000000 0.000000 -1.000000
vn 0.000000 0.000000 -1.000000
vn 0.000000 0.000000 -1.000000
vn 0.000000 0.000000 -1.000000
vn 0.000000 0.000000 -1.000000
vn 0.000000 0.000000 -1.000000
vn 0.000000 0.000000 -1.000000
vn 0.000000 0.000000 -1.000000
vn 0.000000 0.000000 -1.000000
vn 0.000000 0.000000 -1.000000
vn 0.000000 0.000000 -1.000000
vn 0.000000 0.000000 -1.000000
vn 0.000000 0.000000 -1.000000
vn 0.000000 0.000000 -1.000000
vn 0.000000 0.000000 -1.000000
vn 0.000000 0.000000 -1.000000
vn 0.000000 0.000000 -1.000000
vn 0.000000 0.000000 -1.000000
vn 0.000000 0.000000 -1.000000
vn 0.000000 0.000000 -1.000000
vn 0.000000 0.000000 -1.000000
vn 0.000000 0.000000 -1.000000
vn 0.000000 0.000000 -1.000000
vn 0.000000 0.000000 -1.000000
vn 0.000000 0.000000 -1.000000
vn 0.000000 0.000000 -1.000000
vn 0.000000 0.000000 -1.000000
vn 0.000000 0.000000 -1.000000
vn 0.000000 0.000000 -1.000000
vn 0.298376 -0.931577 -0.207692
vn 0.298376 -0.931577 -0.207692
vn 0.298376 -0.931577 -0.207692
vn 0.298376 -0.931577 -0.207692
vn -0.657451 0.680613 -0.323301
vn -0.657451 0.680613 -0.323301
vn -0.657451 0.680613 -0.323301
vn -0.657451 0.680613 -0.323301
vn -0.196669 0.943467 -0.266815
vn -0.196669 0.943467 -0.266815
vn -0.196669 0.943467 -0.266815
vn -0.196669 0.943467 -0.266815
vn 0.070842 -0.970032 -0.232422
vn 0.070842 -0.970032 -0.232422
vn 0.070842 -0.970032 -0.232422
vn 0.070842 -0.970032 -0.232422
vn 0.104973 0.951935 -0.287750
vn 0.104973 0.951935 -0.287750
vn 0.104973 0.951935 -0.287750
vn 0.104973 0.951935 -0.287750
vn -0.193169 -0.947622 -0.254360
vn -0.193169 -0.947622 -0.254360
vn -0.193169 -0.947622 -0.254360
vn -0.193169 -0.947622 -0.254360
vn 0.508681 0.812223 -0.285549
vn 0.508681 0.812223 -0.285549
vn 0.508681 0.812223 -0.285549
vn 0.508681 0.812223 -0.285549
vn -0.661601 -0.710752 -0.238988
vn -0.661601 -0.710752 -0.238988
vn -0.661601 -0.710752 -0.238988
vn -0.661601 -0.710752 -0.238988
vn 0.932038 0.223106 -0.285532
vn 0.932038 0.223106 -0.285532
vn 0.932038 0.223106 -0.285532
vn 0.932038 0.223106 -0.285532
vn -0.952430 -0.183940 -0.242990
vn -0.952430 -0.183940 -0.242990
vn -0.952430 -0.183940 -0.242990
vn -0.952430 -0.183940 -0.242990
vn 0.931602 -0.221762 -0.287993
vn 0.931602 -0.221762 -0.287993
vn 0.931602 -0.221762 -0.287993
vn 0.931602 -0.221762 -0.287993
vn -0.932870 0.261333 -0.247908
vn -0.932870 0.261333 -0.247908
vn -0.932870 0.261333 -0.247908
vn -0.932870 0.261333 -0.247908
vn 0.709515 -0.643161 -0.287981
vn 0.709515 -0.643161 -0.287981
vn 0.709515 -0.643161 -0.287981
vn 0.709515 -0.643161 -0.287981
vn -0.676106 0.691767 -0.253650
vn -0.676106 0.691767 -0.253650
vn -0.676106 0.691767 -0.253650
vn -0.676106 0.691767 -0.253650
vn 0.917154 -0.327337 -0.227331
vn 0.917154 -0.327337 -0.227331
vn 0.917154 -0.327337 -0.227331
vn 0.917154 -0.327337 -0.227331
vn 0.065895 0.967545 -0.243956
vn 0.065895 0.967545 -0.243956
vn 0.065895 0.967545 -0.243956
vn 0.065895 0.967545 -0.243956
vn -0.096042 -0.960596 -0.260827
vn -0.096042 -0.960596 -0.260827
vn -0.096042 -0.960596 -0.260827
vn -0.096042 -0.960596 -0.260827
vn 0.396514 -0.871750 -0.287800
vn 0.396514 -0.871750 -0.287800
vn 0.396514 -0.871750 -0.287800
vn 0.396514 -0.871750 -0.287800
vn -0.431915 0.863430 -0.260648
vn -0.431915 0.863430 -0.260648
vn -0.431915 0.863430 -0.260648
vn -0.431915 0.863430 -0.260648
vn -0.089364 0.954197 -0.285522
vn -0.089364 0.954197 -0.285522
vn -0.089364 0.954197 -0.285522
vn -0.089364 0.954197 -0.285522
vn 0.065328 -0.961559 -0.266713
vn 0.065328 -0.961559 -0.266713
vn 0.065328 -0.961559 -0.266713
vn 0.065328 -0.961559 -0.266713
vn -0.321744 0.902280 -0.287004
vn -0.321744 0.902280 -0.287004
vn -0.321744 0.902280 -0.287004
vn -0.321744 0.902280 -0.287004
vn 0.350927 -0.898941 -0.262213
vn 0.350927 -0.898941 -0.262213
vn 0.350927 -0.898941 -0.262213
vn 0.350927 -0.898941 -0.262213
vn -0.608481 0.739517 -0.287863
vn -0.608481 0.739517 -0.287863
vn -0.608481 0.739517 -0.287863
vn -0.608481 0.739517 -0.287863
vn 0.609002 -0.750403 -0.256929
vn 0.609002 -0.750403 -0.256929
vn 0.609002 -0.750403 -0.256929
vn 0.609002 -0.750403 -0.256929
vn 0.877473 -0.412614 -0.244521
vn 0.877473 -0.412614 -0.244521
vn 0.877473 -0.412614 -0.244521
vn 0.877473 -0.412614 -0.244521
vn -0.875403 0.388529 -0.287601
vn -0.875403 0.388529 -0.287601
vn -0.875403 0.388529 -0.287601
vn -0.875403 0.388529 -0.287601
vn -0.944253 -0.161538 -0.286866
vn -0.944253 -0.161538 -0.286866
vn -0.944253 -0.161538 -0.286866
vn -0.944253 -0.161538 -0.286866
vn 0.957838 0.165971 -0.234520
vn 0.957838 0.165971 -0.234520
vn 0.957838 0.165971 -0.234520
vn 0.957838 0.165971 -0.234520
vn -0.672327 -0.682319 -0.287084
vn -0.672327 -0.682319 -0.287084
vn -0.672327 -0.682319 -0.287084
vn -0.672327 -0.682319 -0.287084
vn 0.648810 0.722402 -0.239128
vn 0.648810 0.722402 -0.239128
vn 0.648810 0.722402 -0.239128
vn 0.648810 0.722402 -0.239128
vn -0.217411 -0.932786 -0.287477
vn -0.217411 -0.932786 -0.287477
vn -0.217411 -0.932786 -0.287477
vn -0.217411 -0.932786 -0.287477
vn 0.210846 0.944067 -0.253538
vn 0.210846 0.944067 -0.253538
vn 0.210846 0.944067 -0.253538
vn 0.210846 0.944067 -0.253538
vn 0.086301 -0.953893 -0.287473
vn 0.086301 -0.953893 -0.287473
vn 0.086301 -0.953893 -0.287473
vn 0.086301 -0.953893 -0.287473
vn -0.108267 0.959577 -0.259789
vn -0.108267 0.959577 -0.259789
vn -0.108267 0.959577 -0.259789
vn -0.108267 0.959577 -0.259789
s off
f 36/36/1 37/37/2 38/38/3
f 39/39/4 38/38/5 37/37/6 40/40/7
f 41/41/8 39/39/9 40/40/10 42/42/11
f 43/43/12 41/41/13 42/42/14 44/44/15
f 45/45/16 43/43/17 44/44/18 46/46/19
f 47/47/20 45/45/21 46/46/22 48/48/23
f 49/49/24 47/47/25 48/48/26 50/50/27
f 52/51/28 51/52/29 53/53/30 54/54/31
f 55/55/32 49/49/33 50/50/34 56/56/35
f 54/54/36 53/53/37 57/57/38 58/58/39
f 58/58/40 57/57/41 59/59/42 60/60/43
f 60/60/44 59/59/45 61/61/46 62/62/47
f 63/63/48 62/62/49 61/61/50 64/64/51
f 63/63/52 64/64/53 65/65/54 66/66/55
f 66/66/56 65/65/57 67/67/58 68/68/59
f 68/68/60 67/67/61 69/69/62 70/70/63
f 70/70/64 69/69/65 55/55/66 56/56/67
f 18/18/68 19/19/69 37/37/70 36/36/71
f 17/17/72 18/18/73 36/36/74 38/38/75
f 16/16/76 17/17/77 38/38/78 39/39/79
f 19/19/80 20/20/81 40/40/82 37/37/83
f 15/15/84 16/16/85 39/39/86 41/41/87
f 20/20/88 21/21/89 42/42/90 40/40/91
f 14/14/92 15/15/93 41/41/94 43/43/95
f 21/21/96 22/22/97 44/44/98 42/42/99
f 2/2/100 14/14/101 43/43/102 45/45/103
f 22/22/104 23/23/105 46/46/106 44/44/107
f 13/13/108 2/2/109 45/45/110 47/47/111
f 23/23/112 24/24/113 48/48/114 46/46/115
f 12/12/116 13/13/117 47/47/118 49/49/119
f 24/24/120 25/25/121 50/50/122 48/48/123
f 35/35/124 3/3/125 51/52/126 52/51/127
f 3/3/128 4/4/129 53/53/130 51/52/131
f 34/34/132 35/35/133 52/51/134 54/54/135
f 11/11/136 12/12/137 49/49/138 55/55/139
f 25/25/140 26/26/141 56/56/142 50/50/143
f 4/4/144 5/5/145 57/57/146 53/53/147
f 33/33/148 34/34/149 54/54/150 58/58/151
f 5/5/152 6/6/153 59/59/154 57/57/155
f 32/32/156 33/33/157 58/58/158 60/60/159
f 6/6/160 7/7/161 61/61/162 59/59/163
f 31/31/164 32/32/165 60/60/166 62/62/167
f 30/30/168 31/31/169 62/62/170 63/63/171
f 7/7/172 1/1/173 64/64/174 61/61/175
f 1/1/176 8/8/177 65/65/178 64/64/179
f 29/29/180 30/30/181 63/63/182 66/66/183
f 8/8/184 9/9/185 67/67/186 65/65/187
f 28/28/188 29/29/189 66/66/190 68/68/191
f 9/9/192 10/10/193 69/69/194 67/67/195
f 27/27/196 28/28/197 68/68/198 70/70/199
f 10/10/200 11/11/201 55/55/202 69/69/203
f 26/26/204 27/27/205 70/70/206 56/56/207
f 71/71/208 73/73/209 72/72/210
f 74/74/211 75/75/212 72/72/213 73/73/214
f 76/76/215 77/77/216 75/75/217 74/74/218
f 78/78/219 79/79/220 77/77/221 76/76/222
f 80/80/223 81/81/224 79/79/225 78/78/226
f 82/82/227 83/83/228 81/81/229 80/80/230
f 84/84/231 85/85/232 83/83/233 82/82/234
f 87/86/235 89/89/236 88/88/237 86/87/238
f 90/90/239 91/91/240 85/85/241 84/84/242
f 89/89/243 93/93/244 92/92/245 88/88/246
f 93/93/247 95/95/248 94/94/249 92/92/250
f 95/95/251 97/97/252 96/96/253 94/94/254
f 98/98/255 99/99/256 96/96/257 97/97/258
f 98/98/259 101/101/260 100/100/261 99/99/262
f 101/101/263 103/103/264 102/102/265 100/100/266
f 103/103/267 105/105/268 104/104/269 102/102/270
f 105/105/271 91/91/272 90/90/273 104/104/274
f 18/106/275 71/71/276 72/72/277 19/107/278
f 17/108/279 73/73/280 71/71/281 18/106/282
f 16/109/283 74/74/284 73/73/285 17/108/286
f 19/107/287 72/72/288 75/75/289 20/110/290
f 15/111/291 76/76/292 74/74/293 16/109/294
f 20/110/295 75/75/296 77/77/297 21/112/298
f 14/113/299 78/78/300 76/76/301 15/111/302
f 21/112/303 77/77/304 79/79/305 22/114/306
f 2/115/307 80/80/308 78/78/309 14/113/310
f 22/114/311 79/79/312 81/81/313 23/116/314
f 13/117/315 82/82/316 80/80/317 2/115/318
f 23/116/319 81/81/320 83/83/321 24/118/322
f 12/119/323 84/84/324 82/82/325 13/117/326
f 24/118/327 83/83/328 85/85/329 25/120/330
f 35/121/331 87/86/332 86/87/333 3/122/334
f 3/122/335 86/87/336 88/88/337 4/123/338
f 34/124/339 89/89/340 87/86/341 35/121/342
f 11/125/343 90/90/344 84/84/345 12/119/346
f 25/120/347 85/85/348 91/91/349 26/126/350
f 4/123/351 88/88/352 92/92/353 5/127/354
f 33/128/355 93/93/356 89/89/357 34/124/358
f 5/127/359 92/92/360 94/94/361 6/129/362
f 32/130/363 95/95/364 93/93/365 33/128/366
f 6/129/367 94/94/368 96/96/369 7/131/370
f 31/132/371 97/97/372 95/95/373 32/130/374
f 30/133/375 98/98/376 97/97/377 31/132/378
f 7/131/379 96/96/380 99/99/381 1/134/382
f 1/134/383 99/99/384 100/100/385 8/135/386
f 29/136/387 101/101/388 98/98/389 30/133/390
f 8/135/391 100/100/392 102/102/393 9/137/394
f 28/138/395 103/103/396 101/101/397 29/136/398
f 9/137/399 102/102/400 104/104/401 10/139/402
f 27/140/403 105/105/404 103/103/405 28/138/406
f 10/139/407 104/104/408 90/90/409 11/125/410
f 26/126/411 91/91/412 105/105/413 27/140/414
