# This file uses centimeters as units for non-parametric coordinates.

v -5.180023 17.849808 4.000000
v -11.838593 18.033592 4.000000
v -10.860046 -14.672073 4.000000
v -5.236572 -17.933258 4.000000
v -4.414093 -0.017479 4.000000
v 5.115082 -17.844284 4.000000
v 11.838593 -18.033585 4.000000
v 10.860168 14.672073 4.000000
v 5.236603 17.933258 4.000000
v 4.410461 -1.038971 4.000000
v -12.832611 19.011047 0.000000
v -4.424225 19.011047 0.000000
v -12.391815 -17.030548 0.000000
v -8.425049 -19.011047 -0.000000
v -3.995819 -2.247841 -0.000000
v -4.370911 -19.011047 -0.000000
v 4.370911 -19.011047 -0.000000
v 12.832611 -19.011047 0.000000
v 12.391876 17.030548 0.000000
v 4.370911 19.011047 -0.000000
v 8.425049 19.011047 -0.000000
v 4.025269 0.568092 -0.000000
v -5.180023 17.849808 -4.000000
v -11.838593 18.033592 -4.000000
v -10.860046 -14.672073 -4.000000
v -5.236572 -17.933258 -4.000000
v -4.414093 -0.017479 -4.000000
v 5.115082 -17.844284 -4.000000
v 11.838593 -18.033585 -4.000000
v 10.860168 14.672073 -4.000000
v 5.236603 17.933258 -4.000000
v 4.410461 -1.038971 -4.000000
vt 0.013155 0.951431
vt 0.013119 0.951406
vt 0.013169 0.951812
vt 0.013138 0.951831
vt 0.013129 0.951622
vt 0.013101 0.951804
vt 0.013066 0.951779
vt 0.013052 0.951403
vt 0.013082 0.951381
vt 0.013092 0.951603
vt 0.013186 0.951426
vt 0.013150 0.951402
vt 0.013202 0.951829
vt 0.013186 0.951839
vt 0.013159 0.951618
vt 0.013168 0.951827
vt 0.013132 0.951800
vt 0.013096 0.951774
vt 0.013080 0.951377
vt 0.013112 0.951377
vt 0.013095 0.951366
vt 0.013122 0.951599
vt 0.013169 0.951812
vt 0.013138 0.951831
vt 0.013129 0.951622
vt 0.013155 0.951431
vt 0.013052 0.951403
vt 0.013082 0.951381
vt 0.013092 0.951603
vt 0.013066 0.951779
vt 0.013101 0.951804
vt 0.013119 0.951406
vt 0.013150 0.951402
vt 0.013186 0.951426
vt 0.013202 0.951829
vt 0.013186 0.951839
vt 0.013168 0.951827
vt 0.013159 0.951618
vt 0.013132 0.951800
vt 0.013096 0.951774
vt 0.013080 0.951377
vt 0.013095 0.951366
vt 0.013112 0.951377
vt 0.013122 0.951599
vn 0.000000 0.000000 1.000000
vn 0.000000 0.000000 1.000000
vn 0.000000 0.000000 1.000000
vn 0.000000 0.000000 1.000000
vn 0.000000 0.000000 1.000000
vn 0.000000 0.000000 1.000000
vn 0.000000 0.000000 1.000000
vn 0.000000 0.000000 1.000000
vn 0.000000 0.000000 1.000000
vn 0.000000 0.000000 1.000000
vn 0.000000 0.000000 1.000000
vn 0.000000 0.000000 1.000000
vn 0.000000 0.000000 1.000000
vn 0.000000 0.000000 1.000000
vn 0.000000 0.000000 1.000000
vn 0.000000 0.000000 1.000000
vn 0.011784 0.966094 0.257922
vn 0.011784 0.966094 0.257922
vn 0.011784 0.966094 0.257922
vn 0.011784 0.966094 0.257922
vn -0.952437 -0.019664 0.304101
vn -0.952437 -0.019664 0.304101
vn -0.952437 -0.019664 0.304101
vn -0.952437 -0.019664 0.304101
vn -0.400301 -0.732395 0.550778
vn -0.400301 -0.732395 0.550778
vn -0.400301 -0.732395 0.550778
vn -0.400301 -0.732395 0.550778
vn 0.984499 -0.033998 0.172063
vn 0.984499 -0.033998 0.172063
vn 0.984499 -0.033998 0.172063
vn 0.984499 -0.033998 0.172063
vn -0.865323 -0.447694 0.225360
vn -0.865323 -0.447694 0.225360
vn -0.865323 -0.447694 0.225360
vn -0.865323 -0.447694 0.225360
vn -0.012041 -0.965931 0.258520
vn -0.012041 -0.965931 0.258520
vn -0.012041 -0.965931 0.258520
vn -0.012041 -0.965931 0.258520
vn 0.952439 0.019661 0.304094
vn 0.952439 0.019661 0.304094
vn 0.952439 0.019661 0.304094
vn 0.952439 0.019661 0.304094
vn 0.000000 0.965563 0.260168
vn 0.000000 0.965563 0.260168
vn 0.000000 0.965563 0.260168
vn -0.985891 0.030877 0.164517
vn -0.985891 0.030877 0.164517
vn -0.985891 0.030877 0.164517
vn -0.985891 0.030877 0.164517
vn 0.884189 0.427271 0.188812
vn 0.884189 0.427271 0.188812
vn 0.884189 0.427271 0.188812
vn 0.884189 0.427271 0.188812
vn 0.400298 0.732400 0.550774
vn 0.400298 0.732400 0.550774
vn 0.400298 0.732400 0.550774
vn 0.400298 0.732400 0.550774
vn 0.000000 -0.965563 0.260168
vn 0.000000 -0.965563 0.260168
vn 0.000000 -0.965563 0.260168
vn 0.000000 0.000000 -1.000000
vn 0.000000 0.000000 -1.000000
vn 0.000000 0.000000 -1.000000
vn 0.000000 0.000000 -1.000000
vn 0.000000 0.000000 -1.000000
vn 0.000000 0.000000 -1.000000
vn 0.000000 0.000000 -1.000000
vn 0.000000 0.000000 -1.000000
vn 0.000000 0.000000 -1.000000
vn 0.000000 0.000000 -1.000000
vn 0.000000 0.000000 -1.000000
vn 0.000000 0.000000 -1.000000
vn 0.000000 0.000000 -1.000000
vn 0.000000 0.000000 -1.000000
vn 0.000000 0.000000 -1.000000
vn 0.000000 0.000000 -1.000000
vn 0.011784 0.966094 -0.257922
vn 0.011784 0.966094 -0.257922
vn 0.011784 0.966094 -0.257922
vn 0.011784 0.966094 -0.257922
vn -0.952437 -0.019664 -0.304101
vn -0.952437 -0.019664 -0.304101
vn -0.952437 -0.019664 -0.304101
vn -0.952437 -0.019664 -0.304101
vn -0.400301 -0.732395 -0.550778
vn -0.400301 -0.732395 -0.550778
vn -0.400301 -0.732395 -0.550778
vn -0.400301 -0.732395 -0.550778
vn 0.984499 -0.033998 -0.172063
vn 0.984499 -0.033998 -0.172063
vn 0.984499 -0.033998 -0.172063
vn 0.984499 -0.033998 -0.172063
vn -0.865323 -0.447694 -0.225360
vn -0.865323 -0.447694 -0.225360
vn -0.865323 -0.447694 -0.225360
vn -0.865323 -0.447694 -0.225360
vn -0.012041 -0.965931 -0.258520
vn -0.012041 -0.965931 -0.258520
vn -0.012041 -0.965931 -0.258520
vn -0.012041 -0.965931 -0.258520
vn 0.952439 0.019661 -0.304094
vn 0.952439 0.019661 -0.304094
vn 0.952439 0.019661 -0.304094
vn 0.952439 0.019661 -0.304094
vn 0.000000 0.965563 -0.260168
vn 0.000000 0.965563 -0.260168
vn 0.000000 0.965563 -0.260168
vn -0.985891 0.030877 -0.164517
vn -0.985891 0.030877 -0.164517
vn -0.985891 0.030877 -0.164517
vn -0.985891 0.030877 -0.164517
vn 0.884189 0.427271 -0.188812
vn 0.884189 0.427271 -0.188812
vn 0.884189 0.427271 -0.188812
vn 0.884189 0.427271 -0.188812
vn 0.400298 0.732400 -0.550774
vn 0.400298 0.732400 -0.550774
vn 0.400298 0.732400 -0.550774
vn 0.400298 0.732400 -0.550774
vn 0.000000 -0.965563 -0.260168
vn 0.000000 -0.965563 -0.260168
vn 0.000000 -0.965563 -0.260168
s off
f 3/3/1 4/4/2 5/5/3 2/1/4
f 8/8/5 9/9/6 10/10/7 7/7/8
f 6/6/9 7/7/10 10/10/11 5/5/12
f 5/5/13 10/10/14 1/2/15 2/1/16
f 12/12/17 11/11/18 2/1/19 1/2/20
f 11/11/21 13/13/22 3/3/23 2/1/24
f 13/13/25 14/14/26 4/4/27 3/3/28
f 16/16/29 15/15/30 5/5/31 4/4/32
f 15/15/33 17/17/34 6/6/35 5/5/36
f 17/17/37 18/18/38 7/7/39 6/6/40
f 18/18/41 19/19/42 8/8/43 7/7/44
f 21/21/45 20/20/46 9/9/47
f 20/20/48 22/22/49 10/10/50 9/9/51
f 22/22/52 12/12/53 1/2/54 10/10/55
f 19/19/56 21/21/57 9/9/58 8/8/59
f 14/14/60 16/16/61 4/4/62
f 25/23/63 24/26/64 27/25/65 26/24/66
f 30/27/67 29/30/68 32/29/69 31/28/70
f 28/31/71 27/25/72 32/29/73 29/30/74
f 27/25/75 24/26/76 23/32/77 32/29/78
f 12/33/79 23/32/80 24/26/81 11/34/82
f 11/34/83 24/26/84 25/23/85 13/35/86
f 13/35/87 25/23/88 26/24/89 14/36/90
f 16/37/91 26/24/92 27/25/93 15/38/94
f 15/38/95 27/25/96 28/31/97 17/39/98
f 17/39/99 28/31/100 29/30/101 18/40/102
f 18/40/103 29/30/104 30/27/105 19/41/106
f 21/42/107 31/28/108 20/43/109
f 20/43/110 31/28/111 32/29/112 22/44/113
f 22/44/114 32/29/115 23/32/116 12/33/117
f 19/41/118 30/27/119 31/28/120 21/42/121
f 14/36/122 26/24/123 16/37/124
