# This file uses centimeters as units for non-parametric coordinates.

v 10.072723 18.328094 4.000000
v 3.615570 18.328094 4.000000
v 3.834900 0.242538 4.000000
v 3.545502 -7.592911 4.000000
v 2.500183 -11.894318 4.000000
v 0.566620 -12.760834 4.000000
v -1.968140 -11.354309 4.000000
v -2.697784 -6.702759 4.000000
v -10.000916 -6.578384 4.000000
v -8.715820 -12.609344 4.000000
v -5.935150 -16.766159 4.000000
v 0.663330 -18.029465 4.000000
v 6.808716 -16.581741 4.000000
v 9.267426 -11.273285 4.000000
v 9.838867 0.291260 4.000000
v 2.613281 19.330383 -0.000000
v 11.075012 19.330383 0.000000
v 2.613281 0.262573 -0.000000
v 2.365692 -7.709778 -0.000000
v 1.736084 -11.304871 -0.000000
v 0.650665 -11.842682 0.000000
v -1.154449 -10.808990 0.000000
v -1.761108 -5.649490 0.000000
v -11.075012 -5.649490 -0.000000
v -10.041351 -13.237366 -0.000000
v -6.666016 -17.890182 -0.000000
v 0.692688 -19.330383 -0.000000
v 7.667877 -17.635590 -0.000000
v 10.524841 -11.586075 -0.000000
v 11.075012 0.262573 -0.000000
v 10.072723 18.328094 -4.000000
v 3.615570 18.328094 -4.000000
v 3.834900 0.242538 -4.000000
v 3.545502 -7.592911 -4.000000
v 2.500183 -11.894318 -4.000000
v 0.566620 -12.760834 -4.000000
v -1.968140 -11.354309 -4.000000
v -2.697784 -6.702759 -4.000000
v -10.000916 -6.578384 -4.000000
v -8.715820 -12.609344 -4.000000
v -5.935150 -16.766159 -4.000000
v 0.663330 -18.029465 -4.000000
v 6.808716 -16.581741 -4.000000
v 9.267426 -11.273285 -4.000000
v 9.838867 0.291260 -4.000000
vt 0.013385 0.957567
vt 0.013312 0.957565
vt 0.013380 0.957725
vt 0.013380 0.957789
vt 0.013384 0.957821
vt 0.013394 0.957825
vt 0.013409 0.957818
vt 0.013416 0.957775
vt 0.013496 0.957778
vt 0.013484 0.957839
vt 0.013454 0.957877
vt 0.013391 0.957887
vt 0.013332 0.957871
vt 0.013309 0.957820
vt 0.013307 0.957723
vt 0.013385 0.957562
vt 0.013312 0.957559
vt 0.013380 0.957719
vt 0.013380 0.957785
vt 0.013385 0.957815
vt 0.013394 0.957819
vt 0.013410 0.957811
vt 0.013416 0.957769
vt 0.013496 0.957772
vt 0.013485 0.957834
vt 0.013455 0.957871
vt 0.013392 0.957880
vt 0.013332 0.957864
vt 0.013309 0.957814
vt 0.013308 0.957717
vt 0.013416 0.957775
vt 0.013496 0.957778
vt 0.013484 0.957839
vt 0.013409 0.957818
vt 0.013454 0.957877
vt 0.013391 0.957887
vt 0.013394 0.957825
vt 0.013332 0.957871
vt 0.013384 0.957821
vt 0.013309 0.957820
vt 0.013380 0.957789
vt 0.013307 0.957723
vt 0.013380 0.957725
vt 0.013312 0.957565
vt 0.013385 0.957567
vt 0.013312 0.957559
vt 0.013385 0.957562
vt 0.013380 0.957719
vt 0.013380 0.957785
vt 0.013385 0.957815
vt 0.013394 0.957819
vt 0.013410 0.957811
vt 0.013416 0.957769
vt 0.013496 0.957772
vt 0.013485 0.957834
vt 0.013455 0.957871
vt 0.013392 0.957880
vt 0.013332 0.957864
vt 0.013309 0.957814
vt 0.013308 0.957717
vn 0.000000 0.000000 1.000000
vn 0.000000 0.000000 1.000000
vn 0.000000 0.000000 1.000000
vn 0.000000 0.000000 1.000000
vn 0.000000 0.000000 1.000000
vn 0.000000 0.000000 1.000000
vn 0.000000 0.000000 1.000000
vn 0.000000 0.000000 1.000000
vn 0.000000 0.000000 1.000000
vn 0.000000 0.000000 1.000000
vn 0.000000 0.000000 1.000000
vn 0.000000 0.000000 1.000000
vn 0.000000 0.000000 1.000000
vn 0.000000 0.000000 1.000000
vn 0.000000 0.000000 1.000000
vn 0.000000 0.000000 1.000000
vn 0.000000 0.000000 1.000000
vn 0.000000 0.000000 1.000000
vn 0.000000 0.000000 1.000000
vn 0.000000 0.000000 1.000000
vn 0.000000 0.000000 1.000000
vn 0.000000 0.000000 1.000000
vn 0.000000 0.000000 1.000000
vn 0.000000 0.000000 1.000000
vn 0.000000 0.000000 1.000000
vn 0.000000 0.000000 1.000000
vn 0.000000 0.000000 1.000000
vn 0.000000 0.970012 0.243058
vn 0.000000 0.970012 0.243058
vn 0.000000 0.970012 0.243058
vn 0.000000 0.970012 0.243058
vn -0.963637 -0.005689 0.267153
vn -0.963637 -0.005689 0.267153
vn -0.963637 -0.005689 0.267153
vn -0.963637 -0.005689 0.267153
vn -0.957381 0.032522 0.286992
vn -0.957381 0.032522 0.286992
vn -0.957381 0.032522 0.286992
vn -0.957381 0.032522 0.286992
vn -0.949038 0.201301 0.242497
vn -0.949038 0.201301 0.242497
vn -0.949038 0.201301 0.242497
vn -0.949038 0.201301 0.242497
vn -0.413035 0.887930 0.202441
vn -0.413035 0.887930 0.202441
vn -0.413035 0.887930 0.202441
vn -0.413035 0.887930 0.202441
vn 0.479218 0.852280 0.209687
vn 0.479218 0.852280 0.209687
vn 0.479218 0.852280 0.209687
vn 0.479218 0.852280 0.209687
vn 0.962663 0.131119 0.236827
vn 0.962663 0.131119 0.236827
vn 0.962663 0.131119 0.236827
vn 0.962663 0.131119 0.236827
vn 0.007265 0.970653 0.240374
vn 0.007265 0.970653 0.240374
vn 0.007265 0.970653 0.240374
vn 0.007265 0.970653 0.240374
vn -0.946959 -0.161230 0.277980
vn -0.946959 -0.161230 0.277980
vn -0.946959 -0.161230 0.277980
vn -0.946959 -0.161230 0.277980
vn -0.776978 -0.542938 0.318628
vn -0.776978 -0.542938 0.318628
vn -0.776978 -0.542938 0.318628
vn -0.776978 -0.542938 0.318628
vn -0.181418 -0.936592 0.299806
vn -0.181418 -0.936592 0.299806
vn -0.181418 -0.936592 0.299806
vn -0.181418 -0.936592 0.299806
vn 0.222344 -0.928328 0.297944
vn 0.222344 -0.928328 0.297944
vn 0.222344 -0.928328 0.297944
vn 0.222344 -0.928328 0.297944
vn 0.864601 -0.404644 0.297874
vn 0.864601 -0.404644 0.297874
vn 0.864601 -0.404644 0.297874
vn 0.864601 -0.404644 0.297874
vn 0.953147 -0.045661 0.299040
vn 0.953147 -0.045661 0.299040
vn 0.953147 -0.045661 0.299040
vn 0.953147 -0.045661 0.299040
vn 0.963187 -0.006071 0.268765
vn 0.963187 -0.006071 0.268765
vn 0.963187 -0.006071 0.268765
vn 0.963187 -0.006071 0.268765
vn 0.000000 0.000000 -1.000000
vn 0.000000 0.000000 -1.000000
vn 0.000000 0.000000 -1.000000
vn 0.000000 0.000000 -1.000000
vn 0.000000 0.000000 -1.000000
vn 0.000000 0.000000 -1.000000
vn 0.000000 0.000000 -1.000000
vn 0.000000 0.000000 -1.000000
vn 0.000000 0.000000 -1.000000
vn 0.000000 0.000000 -1.000000
vn 0.000000 0.000000 -1.000000
vn 0.000000 0.000000 -1.000000
vn 0.000000 0.000000 -1.000000
vn 0.000000 0.000000 -1.000000
vn 0.000000 0.000000 -1.000000
vn 0.000000 0.000000 -1.000000
vn 0.000000 0.000000 -1.000000
vn 0.000000 0.000000 -1.000000
vn 0.000000 0.000000 -1.000000
vn 0.000000 0.000000 -1.000000
vn 0.000000 0.000000 -1.000000
vn 0.000000 0.000000 -1.000000
vn 0.000000 0.000000 -1.000000
vn 0.000000 0.000000 -1.000000
vn 0.000000 0.000000 -1.000000
vn 0.000000 0.000000 -1.000000
vn 0.000000 0.000000 -1.000000
vn 0.000000 0.970012 -0.243058
vn 0.000000 0.970012 -0.243058
vn 0.000000 0.970012 -0.243058
vn 0.000000 0.970012 -0.243058
vn -0.963637 -0.005689 -0.267153
vn -0.963637 -0.005689 -0.267153
vn -0.963637 -0.005689 -0.267153
vn -0.963637 -0.005689 -0.267153
vn -0.957381 0.032522 -0.286992
vn -0.957381 0.032522 -0.286992
vn -0.957381 0.032522 -0.286992
vn -0.957381 0.032522 -0.286992
vn -0.949038 0.201301 -0.242497
vn -0.949038 0.201301 -0.242497
vn -0.949038 0.201301 -0.242497
vn -0.949038 0.201301 -0.242497
vn -0.413035 0.887930 -0.202441
vn -0.413035 0.887930 -0.202441
vn -0.413035 0.887930 -0.202441
vn -0.413035 0.887930 -0.202441
vn 0.479218 0.852280 -0.209687
vn 0.479218 0.852280 -0.209687
vn 0.479218 0.852280 -0.209687
vn 0.479218 0.852280 -0.209687
vn 0.962663 0.131119 -0.236827
vn 0.962663 0.131119 -0.236827
vn 0.962663 0.131119 -0.236827
vn 0.962663 0.131119 -0.236827
vn 0.007265 0.970653 -0.240374
vn 0.007265 0.970653 -0.240374
vn 0.007265 0.970653 -0.240374
vn 0.007265 0.970653 -0.240374
vn -0.946959 -0.161230 -0.277980
vn -0.946959 -0.161230 -0.277980
vn -0.946959 -0.161230 -0.277980
vn -0.946959 -0.161230 -0.277980
vn -0.776978 -0.542938 -0.318628
vn -0.776978 -0.542938 -0.318628
vn -0.776978 -0.542938 -0.318628
vn -0.776978 -0.542938 -0.318628
vn -0.181418 -0.936592 -0.299806
vn -0.181418 -0.936592 -0.299806
vn -0.181418 -0.936592 -0.299806
vn -0.181418 -0.936592 -0.299806
vn 0.222344 -0.928328 -0.297944
vn 0.222344 -0.928328 -0.297944
vn 0.222344 -0.928328 -0.297944
vn 0.222344 -0.928328 -0.297944
vn 0.864601 -0.404644 -0.297874
vn 0.864601 -0.404644 -0.297874
vn 0.864601 -0.404644 -0.297874
vn 0.864601 -0.404644 -0.297874
vn 0.953147 -0.045661 -0.299040
vn 0.953147 -0.045661 -0.299040
vn 0.953147 -0.045661 -0.299040
vn 0.953147 -0.045661 -0.299040
vn 0.963187 -0.006071 -0.268765
vn 0.963187 -0.006071 -0.268765
vn 0.963187 -0.006071 -0.268765
vn 0.963187 -0.006071 -0.268765
s off
f 8/8/1 9/9/2 10/10/3 7/7/4
f 10/10/5 11/11/6 7/7/7
f 7/7/8 11/11/9 12/12/10 6/6/11
f 6/6/12 12/12/13 13/13/14 5/5/15
f 5/5/16 13/13/17 14/14/18 4/4/19
f 4/4/20 14/14/21 15/15/22 3/3/23
f 15/15/24 1/2/25 2/1/26 3/3/27
f 17/17/28 16/16/29 2/1/30 1/2/31
f 16/16/32 18/18/33 3/3/34 2/1/35
f 18/18/36 19/19/37 4/4/38 3/3/39
f 19/19/40 20/20/41 5/5/42 4/4/43
f 20/20/44 21/21/45 6/6/46 5/5/47
f 21/21/48 22/22/49 7/7/50 6/6/51
f 22/22/52 23/23/53 8/8/54 7/7/55
f 23/23/56 24/24/57 9/9/58 8/8/59
f 24/24/60 25/25/61 10/10/62 9/9/63
f 25/25/64 26/26/65 11/11/66 10/10/67
f 26/26/68 27/27/69 12/12/70 11/11/71
f 27/27/72 28/28/73 13/13/74 12/12/75
f 28/28/76 29/29/77 14/14/78 13/13/79
f 29/29/80 30/30/81 15/15/82 14/14/83
f 30/30/84 17/17/85 1/2/86 15/15/87
f 38/31/88 37/34/89 40/33/90 39/32/91
f 40/33/92 37/34/93 41/35/94
f 37/34/95 36/37/96 42/36/97 41/35/98
f 36/37/99 35/39/100 43/38/101 42/36/102
f 35/39/103 34/41/104 44/40/105 43/38/106
f 34/41/107 33/43/108 45/42/109 44/40/110
f 45/42/111 33/43/112 32/45/113 31/44/114
f 17/46/115 31/44/116 32/45/117 16/47/118
f 16/47/119 32/45/120 33/43/121 18/48/122
f 18/48/123 33/43/124 34/41/125 19/49/126
f 19/49/127 34/41/128 35/39/129 20/50/130
f 20/50/131 35/39/132 36/37/133 21/51/134
f 21/51/135 36/37/136 37/34/137 22/52/138
f 22/52/139 37/34/140 38/31/141 23/53/142
f 23/53/143 38/31/144 39/32/145 24/54/146
f 24/54/147 39/32/148 40/33/149 25/55/150
f 25/55/151 40/33/152 41/35/153 26/56/154
f 26/56/155 41/35/156 42/36/157 27/57/158
f 27/57/159 42/36/160 43/38/161 28/58/162
f 28/58/163 43/38/164 44/40/165 29/59/166
f 29/59/167 44/40/168 45/42/169 30/60/170
f 30/60/171 45/42/172 31/44/173 17/46/174
