# This file uses centimeters as units for non-parametric coordinates.

v -0.000015 -15.664711 -4.130154
v -0.000015 -1.147903 -4.030860
v -0.000015 16.690231 -3.573967
v -0.000015 -19.462204 0.000000
v -0.000015 -12.722733 -4.111652
v 10.413147 -12.727058 -3.709864
v 13.098389 -0.866470 -3.544817
v 14.094864 13.929115 -3.114290
v 12.676331 -15.816315 0.000000
v 16.025467 -0.112709 0.000000
v 16.582703 11.561157 0.000000
v 14.500809 16.813293 0.000000
v -0.000015 19.462204 0.000000
v -10.413177 -12.727058 -3.709864
v -13.098419 -0.866470 -3.544817
v -14.094894 13.929115 -3.114290
v -12.676300 -15.816315 0.000000
v -16.025467 -0.112709 0.000000
v -16.582703 11.561157 0.000000
v -14.500809 16.813293 0.000000
v -0.000015 -15.664711 4.130154
v -0.000015 -1.147903 4.030860
v -0.000015 16.690231 3.573967
v -0.000015 -12.722733 4.111652
v 10.413147 -12.727058 3.709864
v 13.098389 -0.866470 3.544817
v 14.094864 13.929115 3.114290
v -10.413177 -12.727058 3.709864
v -13.098419 -0.866470 3.544817
v -14.094894 13.929115 3.114290
vt 0.024336 0.186569
vt 0.024336 0.186569
vt 0.024336 0.186569
vt 0.024336 0.186569
vt 0.190135 0.653648
vt 0.150085 0.652829
vt 0.150085 0.704706
vt 0.193181 0.696677
vt 0.024336 0.186569
vt 0.024336 0.186569
vt 0.024336 0.186569
vt 0.024336 0.186569
vt 0.024336 0.186569
vt 0.024336 0.186569
vt 0.024336 0.186569
vt 0.024336 0.186569
vt 0.028460 0.185286
vt 0.027414 0.185286
vt 0.027414 0.185286
vt 0.024336 0.186569
vt 0.024336 0.186569
vt 0.024336 0.186569
vt 0.024336 0.186569
vt 0.024336 0.186569
vt 0.024336 0.186569
vt 0.024336 0.186569
vt 0.024336 0.186569
vt 0.024336 0.186569
vt 0.110035 0.653648
vt 0.106988 0.696677
vt 0.024336 0.186569
vt 0.024336 0.186569
vt 0.024336 0.186569
vt 0.024336 0.186569
vt 0.024336 0.186569
vt 0.024336 0.186569
vt 0.024336 0.186569
vt 0.024336 0.186569
vt 0.028460 0.185286
vt 0.027414 0.185286
vt 0.027414 0.185286
vt 0.024336 0.186569
vt 0.024336 0.186569
vt 0.024336 0.186569
vt 0.024336 0.186569
vt 0.024336 0.186569
vt 0.150085 0.610625
vt 0.118248 0.610612
vt 0.181922 0.610612
vt 0.024336 0.186569
vt 0.024336 0.186569
vt 0.024336 0.186569
vt 0.024336 0.186569
vt 0.190135 0.653648
vt 0.193181 0.696677
vt 0.150085 0.704706
vt 0.150085 0.652829
vt 0.024336 0.186569
vt 0.024336 0.186569
vt 0.024336 0.186569
vt 0.024336 0.186569
vt 0.024336 0.186569
vt 0.024336 0.186569
vt 0.024336 0.186569
vt 0.024336 0.186569
vt 0.028460 0.185286
vt 0.027414 0.185286
vt 0.027414 0.185286
vt 0.024336 0.186569
vt 0.024336 0.186569
vt 0.024336 0.186569
vt 0.024336 0.186569
vt 0.024336 0.186569
vt 0.024336 0.186569
vt 0.024336 0.186569
vt 0.024336 0.186569
vt 0.024336 0.186569
vt 0.110035 0.653648
vt 0.106988 0.696677
vt 0.024336 0.186569
vt 0.024336 0.186569
vt 0.024336 0.186569
vt 0.024336 0.186569
vt 0.024336 0.186569
vt 0.024336 0.186569
vt 0.024336 0.186569
vt 0.024336 0.186569
vt 0.028460 0.185286
vt 0.027414 0.185286
vt 0.027414 0.185286
vt 0.024336 0.186569
vt 0.024336 0.186569
vt 0.024336 0.186569
vt 0.024336 0.186569
vt 0.024336 0.186569
vt 0.118248 0.610612
vt 0.150085 0.610625
vt 0.181922 0.610612
vn 0.145630 -0.419697 -0.895906
vn 0.145630 -0.419697 -0.895906
vn 0.145630 -0.419697 -0.895906
vn 0.145630 -0.419697 -0.895906
vn 0.037116 0.026032 -0.998972
vn 0.037116 0.026032 -0.998972
vn 0.037116 0.026032 -0.998972
vn 0.037116 0.026032 -0.998972
vn 0.377661 -0.028822 -0.925495
vn 0.377662 -0.028822 -0.925495
vn 0.377662 -0.028822 -0.925495
vn 0.377662 -0.028822 -0.925495
vn 0.461425 -0.000710 -0.887179
vn 0.461425 -0.000710 -0.887179
vn 0.461425 -0.000710 -0.887179
vn 0.461425 -0.000710 -0.887179
vn 0.036962 0.005563 -0.999301
vn 0.036962 0.005563 -0.999301
vn 0.036962 0.005563 -0.999301
vn 0.487550 0.004132 -0.873085
vn 0.487550 0.004132 -0.873085
vn 0.487550 0.004132 -0.873085
vn 0.085798 0.290357 -0.953064
vn 0.085798 0.290357 -0.953064
vn 0.085798 0.290357 -0.953064
vn 0.085798 0.290357 -0.953064
vn -0.145630 -0.419697 -0.895906
vn -0.145630 -0.419697 -0.895906
vn -0.145630 -0.419697 -0.895906
vn -0.145630 -0.419697 -0.895906
vn -0.037116 0.026032 -0.998972
vn -0.037116 0.026032 -0.998972
vn -0.037116 0.026032 -0.998972
vn -0.037116 0.026032 -0.998972
vn -0.377661 -0.028822 -0.925495
vn -0.377661 -0.028822 -0.925495
vn -0.377661 -0.028822 -0.925495
vn -0.377661 -0.028822 -0.925495
vn -0.461425 -0.000710 -0.887179
vn -0.461425 -0.000710 -0.887179
vn -0.461425 -0.000710 -0.887179
vn -0.461425 -0.000710 -0.887179
vn -0.036962 0.005563 -0.999301
vn -0.036962 0.005563 -0.999301
vn -0.036962 0.005563 -0.999301
vn -0.487552 0.004131 -0.873084
vn -0.487552 0.004131 -0.873084
vn -0.487552 0.004131 -0.873084
vn -0.085798 0.290358 -0.953064
vn -0.085798 0.290358 -0.953064
vn -0.085798 0.290358 -0.953064
vn -0.085798 0.290358 -0.953064
vn -0.036962 0.005563 -0.999301
vn -0.036962 0.005563 -0.999301
vn -0.036962 0.005563 -0.999301
vn -0.036962 0.005563 -0.999301
vn 0.036962 0.005563 -0.999301
vn 0.036962 0.005563 -0.999301
vn 0.036962 0.005563 -0.999301
vn 0.036962 0.005563 -0.999301
vn 0.145630 -0.419697 0.895906
vn 0.145630 -0.419697 0.895906
vn 0.145630 -0.419697 0.895906
vn 0.145630 -0.419697 0.895906
vn 0.037116 0.026032 0.998972
vn 0.037116 0.026032 0.998972
vn 0.037116 0.026032 0.998972
vn 0.037116 0.026032 0.998972
vn 0.377661 -0.028822 0.925495
vn 0.377662 -0.028822 0.925495
vn 0.377662 -0.028822 0.925495
vn 0.377662 -0.028822 0.925495
vn 0.461425 -0.000710 0.887179
vn 0.461425 -0.000710 0.887179
vn 0.461425 -0.000710 0.887179
vn 0.461425 -0.000710 0.887179
vn 0.036962 0.005563 0.999301
vn 0.036962 0.005563 0.999301
vn 0.036962 0.005563 0.999301
vn 0.487550 0.004132 0.873085
vn 0.487550 0.004132 0.873085
vn 0.487550 0.004132 0.873085
vn 0.085798 0.290357 0.953064
vn 0.085798 0.290357 0.953064
vn 0.085798 0.290357 0.953064
vn 0.085798 0.290357 0.953064
vn -0.145630 -0.419697 0.895906
vn -0.145630 -0.419697 0.895906
vn -0.145630 -0.419697 0.895906
vn -0.145630 -0.419697 0.895906
vn -0.037116 0.026032 0.998972
vn -0.037116 0.026032 0.998972
vn -0.037116 0.026032 0.998972
vn -0.037116 0.026032 0.998972
vn -0.377661 -0.028822 0.925495
vn -0.377661 -0.028822 0.925495
vn -0.377661 -0.028822 0.925495
vn -0.377661 -0.028822 0.925495
vn -0.461425 -0.000710 0.887179
vn -0.461425 -0.000710 0.887179
vn -0.461425 -0.000710 0.887179
vn -0.461425 -0.000710 0.887179
vn -0.036962 0.005563 0.999301
vn -0.036962 0.005563 0.999301
vn -0.036962 0.005563 0.999301
vn -0.487552 0.004131 0.873084
vn -0.487552 0.004131 0.873084
vn -0.487552 0.004131 0.873084
vn -0.085798 0.290358 0.953064
vn -0.085798 0.290358 0.953064
vn -0.085798 0.290358 0.953064
vn -0.085798 0.290358 0.953064
vn -0.036962 0.005563 0.999301
vn -0.036962 0.005563 0.999301
vn -0.036962 0.005563 0.999301
vn -0.036962 0.005563 0.999301
vn 0.036962 0.005563 0.999301
vn 0.036962 0.005563 0.999301
vn 0.036962 0.005563 0.999301
vn 0.036962 0.005563 0.999301
s off
f 9/1/1 4/2/2 1/3/3 6/4/4
f 7/5/5 2/6/6 3/7/7 8/8/8
f 7/9/9 10/10/10 9/11/11 6/12/12
f 8/13/13 11/14/14 10/15/15 7/16/16
f 6/17/17 1/18/18 5/19/19
f 8/20/20 12/21/21 11/22/22
f 8/20/23 3/23/24 13/24/25 12/21/26
f 17/25/27 14/26/28 1/27/29 4/28/30
f 15/29/31 16/30/32 3/7/33 2/6/34
f 15/31/35 14/32/36 17/33/37 18/34/38
f 16/35/39 15/36/40 18/37/41 19/38/42
f 14/39/43 5/40/44 1/41/45
f 16/42/46 19/43/47 20/44/48
f 16/42/49 20/44/50 13/45/51 3/46/52
f 2/6/53 5/47/54 14/48/55 15/29/56
f 7/5/57 6/49/58 5/47/59 2/6/60
f 9/50/61 25/51/62 21/52/63 4/53/64
f 26/54/65 27/55/66 23/56/67 22/57/68
f 26/58/69 25/59/70 9/60/71 10/61/72
f 27/62/73 26/63/74 10/64/75 11/65/76
f 25/66/77 24/67/78 21/68/79
f 27/69/80 11/70/81 12/71/82
f 27/69/83 12/71/84 13/72/85 23/73/86
f 17/74/87 4/75/88 21/76/89 28/77/90
f 29/78/91 22/57/92 23/56/93 30/79/94
f 29/80/95 18/81/96 17/82/97 28/83/98
f 30/84/99 19/85/100 18/86/101 29/87/102
f 28/88/103 21/89/104 24/90/105
f 30/91/106 20/92/107 19/93/108
f 30/91/109 23/94/110 13/95/111 20/92/112
f 22/57/113 29/78/114 28/96/115 24/97/116
f 26/54/117 22/57/118 24/97/119 25/98/120
