# This file uses centimeters as units for non-parametric coordinates.

v 11.565386 8.906315 0.000000
v 13.113390 10.314419 0.000000
v 13.195946 13.274574 0.000000
v 11.206297 13.271423 0.000000
v 9.669687 16.372162 0.000000
v -11.565387 8.642979 0.000000
v -13.113390 10.051079 0.000000
v -13.195946 13.274574 0.000000
v -11.206298 13.271423 0.000000
v -8.722277 17.616882 0.000000
v -8.414864 -17.616882 0.000000
v 8.414865 -17.616882 0.000000
v 10.928829 3.482304 0.000000
v -10.928829 3.482304 0.000000
v 9.379879 -9.739204 0.000000
v -9.379880 -9.739204 0.000000
v 9.413700 8.386967 -2.000000
v 10.892784 12.111332 -4.000000
v 10.825330 10.222618 -4.000000
v -9.560212 8.725025 -2.000000
v -10.892786 12.111332 -4.000000
v -10.825330 9.959282 -4.000000
v -6.488908 -16.218689 -2.000000
v 5.716817 -15.576973 -2.000000
v 8.532211 3.525581 -2.000000
v -8.915901 3.525581 -2.000000
v 7.348083 -9.739197 -2.000000
v -7.348084 -9.739197 -2.000000
v 4.755304 -0.266232 -2.000000
v 4.326787 -5.109421 -2.000000
v 0.617208 -7.384239 -2.000000
v -3.470586 -5.125977 -2.000000
v -4.157077 -0.812698 -2.000000
v 0.367540 2.111408 -2.000000
v 10.244121 12.689968 -2.000000
v 8.840362 15.655758 -2.000000
v -8.426687 16.060337 -2.000000
v -10.244122 12.689968 -2.000000
v 9.413700 8.386967 2.000000
v 10.892784 12.111332 4.000000
v 10.825330 10.222618 4.000000
v -9.560212 8.725025 2.000000
v -10.892786 12.111332 4.000000
v -10.825330 9.959282 4.000000
v -6.488908 -16.218689 2.000000
v 5.716817 -15.576973 2.000000
v 8.532211 3.525581 2.000000
v -8.915901 3.525581 2.000000
v 7.348083 -9.739197 2.000000
v -7.348084 -9.739197 2.000000
v 4.755304 -0.266232 2.000000
v 4.326787 -5.109421 2.000000
v 0.617208 -7.384239 2.000000
v -3.470586 -5.125977 2.000000
v -4.157077 -0.812698 2.000000
v 0.367540 2.111408 2.000000
v 10.244121 12.689968 2.000000
v 8.840362 15.655758 2.000000
v -8.426687 16.060337 2.000000
v -10.244122 12.689968 2.000000
vt 0.481593 0.920230
vt 0.481593 0.920230
vt 0.481626 0.920276
vt 0.481592 0.920268
vt 0.481643 0.920326
vt 0.481643 0.920326
vt 0.481619 0.920332
vt 0.481619 0.920332
vt 0.481645 0.920278
vt 0.481627 0.920276
vt 0.481643 0.920326
vt 0.481619 0.920332
vt 0.983264 0.984579
vt 0.983264 0.984579
vt 0.983264 0.984579
vt 0.983264 0.984579
vt 0.983265 0.984577
vt 0.983265 0.984577
vt 0.481592 0.920268
vt 0.481643 0.920326
vt 0.481619 0.920332
vt 0.481645 0.920278
vt 0.983265 0.984577
vt 0.983265 0.984577
vt 0.983266 0.984570
vt 0.983266 0.984570
vt 0.983267 0.984567
vt 0.983267 0.984567
vt 0.983266 0.984570
vt 0.983267 0.984567
vt 0.983266 0.984570
vt 0.983267 0.984567
vt 0.920245 0.953279
vt 0.920245 0.953279
vt 0.920248 0.953268
vt 0.920248 0.953268
vt 0.920248 0.953268
vt 0.920247 0.953272
vt 0.920248 0.953269
vt 0.920245 0.953279
vt 0.920245 0.953279
vt 0.920248 0.953268
vt 0.920247 0.953271
vt 0.922089 0.888829
vt 0.922090 0.888826
vt 0.922088 0.888830
vt 0.922087 0.888837
vt 0.922086 0.888840
vt 0.922087 0.888837
vt 0.920246 0.953275
vt 0.920246 0.953277
vt 0.920246 0.953275
vt 0.481592 0.920268
vt 0.481593 0.920230
vt 0.481593 0.920230
vt 0.481592 0.920268
vt 0.481643 0.920326
vt 0.481619 0.920332
vt 0.481619 0.920332
vt 0.481643 0.920326
vt 0.481592 0.920268
vt 0.481626 0.920276
vt 0.481645 0.920278
vt 0.481592 0.920268
vt 0.481643 0.920326
vt 0.481619 0.920332
vt 0.983264 0.984579
vt 0.983264 0.984579
vt 0.983264 0.984579
vt 0.983264 0.984579
vt 0.983265 0.984577
vt 0.983265 0.984577
vt 0.481643 0.920326
vt 0.481619 0.920332
vt 0.481627 0.920276
vt 0.481592 0.920268
vt 0.481592 0.920268
vt 0.481645 0.920278
vt 0.983265 0.984577
vt 0.983265 0.984577
vt 0.983267 0.984567
vt 0.983267 0.984567
vt 0.983266 0.984570
vt 0.983266 0.984570
vt 0.983266 0.984570
vt 0.983267 0.984567
vt 0.983267 0.984567
vt 0.983266 0.984570
vt 0.920248 0.953268
vt 0.920245 0.953279
vt 0.920245 0.953279
vt 0.920248 0.953268
vt 0.920248 0.953268
vt 0.920247 0.953272
vt 0.920248 0.953269
vt 0.920245 0.953279
vt 0.920248 0.953268
vt 0.920245 0.953279
vt 0.920247 0.953271
vt 0.922089 0.888829
vt 0.922090 0.888826
vt 0.922088 0.888830
vt 0.922087 0.888837
vt 0.922086 0.888840
vt 0.922087 0.888837
vt 0.920246 0.953275
vt 0.920246 0.953277
vt 0.920246 0.953275
vt 0.481593 0.920230
vt 0.481593 0.920230
vt 0.481593 0.920230
vt 0.481593 0.920230
vn 0.574582 -0.739930 -0.349799
vn 0.574582 -0.739930 -0.349799
vn 0.574582 -0.739930 -0.349799
vn 0.574582 -0.739930 -0.349799
vn -0.001567 0.960455 -0.278431
vn -0.001567 0.960455 -0.278431
vn -0.001567 0.960455 -0.278431
vn -0.001567 0.960455 -0.278431
vn 0.868818 -0.026879 -0.494401
vn 0.868818 -0.026879 -0.494401
vn 0.868818 -0.026879 -0.494401
vn 0.868818 -0.026879 -0.494401
vn -0.001459 -0.793269 -0.608869
vn -0.001459 -0.793269 -0.608869
vn -0.001459 -0.793269 -0.608869
vn -0.001459 -0.793269 -0.608869
vn 0.016723 -0.756659 -0.653596
vn 0.016723 -0.756659 -0.653596
vn 0.016723 -0.756659 -0.653596
vn 0.016723 -0.756659 -0.653596
vn -0.692545 -0.087993 -0.715988
vn -0.692545 -0.087993 -0.715988
vn -0.692545 -0.087993 -0.715988
vn -0.692545 -0.087993 -0.715988
vn -0.494960 -0.794037 -0.352873
vn -0.494960 -0.794037 -0.352873
vn -0.494960 -0.794037 -0.352873
vn -0.494960 -0.794037 -0.352873
vn 0.001567 0.960455 -0.278431
vn 0.001567 0.960455 -0.278431
vn 0.001567 0.960455 -0.278431
vn 0.001567 0.960455 -0.278431
vn -0.868700 -0.024242 -0.494746
vn -0.868699 -0.024242 -0.494746
vn -0.868700 -0.024242 -0.494746
vn -0.868700 -0.024242 -0.494746
vn 0.000000 0.000000 -1.000000
vn 0.000000 0.000000 -1.000000
vn 0.000000 0.000000 -1.000000
vn 0.000000 0.000000 -1.000000
vn 0.000000 0.000000 -1.000000
vn 0.000000 0.000000 -1.000000
vn 0.000000 0.000000 -1.000000
vn 0.000000 0.000000 -1.000000
vn 0.611799 -0.115811 -0.782490
vn 0.611799 -0.115811 -0.782489
vn 0.611799 -0.115811 -0.782490
vn 0.611799 -0.115811 -0.782490
vn 0.662981 -0.097851 -0.742214
vn 0.662981 -0.097851 -0.742214
vn 0.662981 -0.097851 -0.742214
vn 0.662981 -0.097851 -0.742214
vn -0.000000 0.000000 -1.000000
vn -0.000000 0.000000 -1.000000
vn -0.000000 0.000000 -1.000000
vn -0.000000 0.000000 -1.000000
vn -0.701490 -0.086728 -0.707382
vn -0.701490 -0.086728 -0.707382
vn -0.701490 -0.086728 -0.707382
vn -0.701490 -0.086728 -0.707382
vn 0.668332 -0.068964 -0.740659
vn 0.668332 -0.068964 -0.740659
vn 0.668332 -0.068964 -0.740659
vn 0.668332 -0.068964 -0.740659
vn -0.000000 0.000000 -1.000000
vn -0.000000 0.000000 -1.000000
vn -0.000000 0.000000 -1.000000
vn -0.700327 -0.082411 -0.709049
vn -0.700327 -0.082411 -0.709049
vn -0.700327 -0.082411 -0.709049
vn -0.700327 -0.082411 -0.709049
vn 0.000000 0.000000 -1.000000
vn 0.000000 0.000000 -1.000000
vn 0.000000 0.000000 -1.000000
vn 0.000000 0.000000 -1.000000
vn 0.000000 0.000000 -1.000000
vn 0.000000 0.000000 -1.000000
vn 0.000000 0.000000 -1.000000
vn 0.000000 0.000000 -1.000000
vn 0.000000 0.000000 -1.000000
vn 0.000000 0.000000 -1.000000
vn 0.000000 0.000000 -1.000000
vn 0.000000 0.000000 -1.000000
vn 0.000000 0.000000 -1.000000
vn 0.000000 0.000000 -1.000000
vn 0.000000 0.000000 -1.000000
vn 0.000000 0.000000 -1.000000
vn 0.000000 0.000000 -1.000000
vn 0.000000 0.000000 -1.000000
vn 0.000000 0.000000 -1.000000
vn 0.000000 0.000000 -1.000000
vn 0.000000 0.000000 -1.000000
vn 0.000000 0.000000 -1.000000
vn -0.000000 0.000000 -1.000000
vn -0.000000 0.000000 -1.000000
vn -0.000000 0.000000 -1.000000
vn -0.000000 0.000000 -1.000000
vn 0.000000 0.000001 -1.000000
vn 0.000000 0.000001 -1.000000
vn 0.000000 0.000001 -1.000000
vn 0.790294 0.383045 -0.478238
vn 0.790294 0.383045 -0.478238
vn 0.790294 0.383045 -0.478238
vn 0.790294 0.383045 -0.478238
vn 0.040074 0.866431 -0.497686
vn 0.040074 0.866431 -0.497686
vn 0.040074 0.866431 -0.497686
vn 0.040074 0.866431 -0.497686
vn -0.770178 0.429363 -0.471670
vn -0.770178 0.429363 -0.471670
vn -0.770178 0.429363 -0.471670
vn -0.770178 0.429363 -0.471670
vn 0.000000 0.960604 -0.277920
vn 0.000000 0.960604 -0.277920
vn 0.000000 0.960604 -0.277920
vn 0.000000 0.960604 -0.277920
vn 0.000000 0.000000 -1.000000
vn 0.000000 0.000000 -1.000000
vn 0.000000 0.000000 -1.000000
vn 0.000000 0.000000 -1.000000
vn 0.574582 -0.739930 0.349799
vn 0.574582 -0.739930 0.349799
vn 0.574582 -0.739930 0.349799
vn 0.574582 -0.739930 0.349799
vn -0.001567 0.960455 0.278431
vn -0.001567 0.960455 0.278431
vn -0.001567 0.960455 0.278431
vn -0.001567 0.960455 0.278431
vn 0.868818 -0.026879 0.494401
vn 0.868818 -0.026879 0.494401
vn 0.868818 -0.026879 0.494401
vn 0.868818 -0.026879 0.494401
vn -0.001459 -0.793269 0.608869
vn -0.001459 -0.793269 0.608869
vn -0.001459 -0.793269 0.608869
vn -0.001459 -0.793269 0.608869
vn 0.016723 -0.756659 0.653596
vn 0.016723 -0.756659 0.653596
vn 0.016723 -0.756659 0.653596
vn 0.016723 -0.756659 0.653596
vn -0.692545 -0.087993 0.715988
vn -0.692545 -0.087993 0.715988
vn -0.692545 -0.087993 0.715988
vn -0.692545 -0.087993 0.715988
vn -0.494960 -0.794037 0.352873
vn -0.494960 -0.794037 0.352873
vn -0.494960 -0.794037 0.352873
vn -0.494960 -0.794037 0.352873
vn 0.001567 0.960455 0.278431
vn 0.001567 0.960455 0.278431
vn 0.001567 0.960455 0.278431
vn 0.001567 0.960455 0.278431
vn -0.868700 -0.024242 0.494746
vn -0.868700 -0.024242 0.494746
vn -0.868700 -0.024242 0.494746
vn -0.868700 -0.024242 0.494746
vn 0.000000 0.000000 1.000000
vn 0.000000 0.000000 1.000000
vn 0.000000 0.000000 1.000000
vn 0.000000 0.000000 1.000000
vn -0.000000 0.000000 1.000000
vn -0.000000 0.000000 1.000000
vn -0.000000 0.000000 1.000000
vn -0.000000 0.000000 1.000000
vn 0.611799 -0.115811 0.782490
vn 0.611799 -0.115811 0.782490
vn 0.611799 -0.115811 0.782490
vn 0.611799 -0.115811 0.782489
vn 0.662981 -0.097851 0.742214
vn 0.662981 -0.097851 0.742214
vn 0.662981 -0.097851 0.742214
vn 0.662981 -0.097851 0.742214
vn -0.000000 0.000000 1.000000
vn -0.000000 0.000000 1.000000
vn -0.000000 0.000000 1.000000
vn -0.000000 0.000000 1.000000
vn -0.701490 -0.086728 0.707382
vn -0.701490 -0.086728 0.707382
vn -0.701490 -0.086728 0.707382
vn -0.701490 -0.086728 0.707382
vn 0.668332 -0.068964 0.740659
vn 0.668332 -0.068964 0.740659
vn 0.668332 -0.068964 0.740659
vn 0.668332 -0.068964 0.740659
vn -0.000000 0.000000 1.000000
vn -0.000000 0.000000 1.000000
vn -0.000000 0.000000 1.000000
vn -0.700327 -0.082411 0.709049
vn -0.700327 -0.082411 0.709049
vn -0.700327 -0.082411 0.709049
vn -0.700327 -0.082411 0.709049
vn 0.000000 0.000000 1.000000
vn 0.000000 0.000000 1.000000
vn 0.000000 0.000000 1.000000
vn 0.000000 0.000000 1.000000
vn 0.000000 0.000000 1.000000
vn 0.000000 0.000000 1.000000
vn 0.000000 0.000000 1.000000
vn 0.000000 0.000000 1.000000
vn 0.000000 0.000000 1.000000
vn 0.000000 0.000000 1.000000
vn 0.000000 0.000000 1.000000
vn 0.000000 0.000000 1.000000
vn 0.000000 0.000000 1.000000
vn 0.000000 0.000000 1.000000
vn 0.000000 0.000000 1.000000
vn 0.000000 0.000000 1.000000
vn 0.000000 0.000000 1.000000
vn 0.000000 0.000000 1.000000
vn 0.000000 0.000000 1.000000
vn 0.000000 0.000000 1.000000
vn 0.000000 0.000000 1.000000
vn 0.000000 0.000000 1.000000
vn -0.000000 0.000000 1.000000
vn -0.000000 0.000000 1.000000
vn -0.000000 0.000000 1.000000
vn -0.000000 0.000000 1.000000
vn 0.000000 0.000001 1.000000
vn 0.000000 0.000001 1.000000
vn 0.000000 0.000001 1.000000
vn 0.790294 0.383045 0.478238
vn 0.790294 0.383045 0.478238
vn 0.790294 0.383045 0.478238
vn 0.790294 0.383045 0.478238
vn 0.040074 0.866431 0.497686
vn 0.040074 0.866431 0.497686
vn 0.040074 0.866431 0.497686
vn 0.040074 0.866431 0.497686
vn -0.770179 0.429363 0.471670
vn -0.770179 0.429363 0.471670
vn -0.770178 0.429363 0.471670
vn -0.770178 0.429363 0.471670
vn 0.000000 0.960604 0.277920
vn 0.000000 0.960604 0.277920
vn 0.000000 0.960604 0.277920
vn 0.000000 0.960604 0.277920
vn 0.000000 0.000000 1.000000
vn 0.000000 0.000000 1.000000
vn 0.000000 0.000000 1.000000
vn 0.000000 0.000000 1.000000
s off
f 19/6/1 2/5/2 1/8/3 17/7/4
f 35/53/5 4/4/6 3/9/7 18/3/8
f 18/3/9 3/9/10 2/5/11 19/6/12
f 22/11/13 19/6/14 17/7/15 20/12/16
f 24/16/17 12/15/18 11/14/19 23/13/20
f 23/13/21 11/14/22 16/18/23 28/17/24
f 20/12/25 6/21/26 7/20/27 22/11/28
f 21/10/29 8/22/30 9/19/31 38/56/32
f 22/11/33 7/20/34 8/22/35 21/10/36
f 21/10/37 18/3/38 19/6/39 22/11/40
f 24/16/41 23/13/42 28/17/43 27/23/44
f 27/23/45 15/24/46 12/15/47 24/16/48
f 1/27/49 13/26/50 25/25/51 17/28/52
f 26/29/53 20/30/54 17/28/55 25/25/56
f 26/29/57 14/31/58 6/32/59 20/30/60
f 25/36/61 13/35/62 15/34/63 27/33/64
f 26/37/65 34/39/66 33/38/67
f 28/41/68 16/40/69 14/42/70 26/37/71
f 25/36/72 29/43/73 34/39/74
f 29/44/75 30/49/76 31/48/77 32/47/78 33/46/79 34/45/80
f 30/50/81 29/43/82 25/36/83 27/33/84
f 31/51/85 30/50/86 27/33/87
f 28/41/88 31/51/89 27/33/90
f 28/41/91 32/52/92 31/51/93
f 28/41/94 26/37/95 33/38/96 32/52/97
f 26/37/98 25/36/99 34/39/100
f 5/1/101 4/4/102 35/53/103 36/54/104
f 5/1/105 36/54/106 37/55/107 10/2/108
f 10/2/109 37/55/110 38/56/111 9/19/112
f 18/3/113 21/10/114 38/56/115 35/53/116
f 36/54/117 35/53/118 38/56/119 37/55/120
f 41/57/121 39/58/122 1/59/123 2/60/124
f 57/61/125 40/62/126 3/63/127 4/64/128
f 40/62/129 41/57/130 2/60/131 3/63/132
f 44/65/133 42/66/134 39/58/135 41/57/136
f 46/67/137 45/68/138 11/69/139 12/70/140
f 45/68/141 50/71/142 16/72/143 11/69/144
f 42/66/145 44/65/146 7/73/147 6/74/148
f 43/75/149 60/76/150 9/77/151 8/78/152
f 44/65/153 43/75/154 8/78/155 7/73/156
f 43/75/157 44/65/158 41/57/159 40/62/160
f 46/67/161 49/79/162 50/71/163 45/68/164
f 49/79/165 46/67/166 12/70/167 15/80/168
f 1/81/169 39/82/170 47/83/171 13/84/172
f 48/85/173 47/83/174 39/82/175 42/86/176
f 48/85/177 42/86/178 6/87/179 14/88/180
f 47/89/181 49/90/182 15/91/183 13/92/184
f 48/93/185 55/94/186 56/95/187
f 50/96/188 48/93/189 14/97/190 16/98/191
f 47/89/192 56/95/193 51/99/194
f 51/100/195 56/101/196 55/102/197 54/103/198 53/104/199 52/105/200
f 52/106/201 49/90/202 47/89/203 51/99/204
f 53/107/205 49/90/206 52/106/207
f 50/96/208 49/90/209 53/107/210
f 50/96/211 53/107/212 54/108/213
f 50/96/214 54/108/215 55/94/216 48/93/217
f 48/93/218 56/95/219 47/89/220
f 5/109/221 58/110/222 57/61/223 4/64/224
f 5/109/225 10/111/226 59/112/227 58/110/228
f 10/111/229 9/77/230 60/76/231 59/112/232
f 40/62/233 57/61/234 60/76/235 43/75/236
f 58/110/237 59/112/238 60/76/239 57/61/240
