# This file uses centimeters as units for non-parametric coordinates.

v -18.501709 -11.665596 2.000000
v -19.091919 -7.565781 2.000000
v 18.605957 -11.144913 2.000000
v 18.883545 -7.426933 2.000000
v 19.543091 -12.012711 -0.000000
v 19.543091 -6.802116 -0.000000
v -19.543091 -12.012711 -0.000000
v -19.543091 -6.802124 -0.000000
v 18.953003 11.630890 2.000000
v 18.467041 7.843483 2.000000
v -18.293457 10.901924 2.000000
v -18.814209 7.288086 2.000000
v -19.543091 12.012711 0.000000
v -19.543091 6.802116 -0.000000
v 19.543091 12.012711 0.000000
v 19.543091 6.802124 0.000000
v 11.327148 18.665878 4.000000
v 7.813477 18.575134 4.000000
v 10.601196 -18.302879 4.000000
v 7.329468 -18.665878 4.000000
v 11.690186 -19.543137 -0.000000
v 6.996704 -19.543137 0.000000
v 11.690186 19.543137 -0.000000
v 6.996704 19.543137 -0.000000
v -11.236450 -18.000381 4.000000
v -7.601685 -18.272629 4.000000
v -11.206177 18.363380 4.000000
v -7.692383 18.998634 4.000000
v -11.690186 19.543137 -0.000000
v -6.996704 19.543137 -0.000000
v -11.690186 -19.543137 -0.000000
v -6.996704 -19.543137 0.000000
v -2.223267 11.283760 2.000000
v 1.020508 7.392220 2.000000
v -2.472046 12.012711 0.000000
v 0.285767 6.802124 -0.000000
v -3.401367 -11.735023 2.000000
v 2.463379 -7.600494 2.000000
v -2.581787 -12.012711 -0.000000
v 3.768921 -6.802124 0.000000
v -15.183350 -11.144913 2.000000
v -16.193359 -7.461647 2.000000
v -17.017578 -12.012711 -0.000000
v -18.027588 -6.802124 0.000000
v 11.085205 15.473740 4.000000
v 7.971680 7.433601 4.000000
v 11.690186 16.125198 -0.000000
v 6.996704 16.222343 -0.000000
v -10.873413 -2.914085 4.000000
v -7.601685 0.289970 4.000000
v -11.690186 -2.611107 -0.000000
v -6.996704 0.108948 -0.000000
v 17.061279 -7.565781 2.000000
v 17.223267 -6.802124 -0.000000
v -18.501709 -11.665596 -2.000000
v -19.091919 -7.565781 -2.000000
v 18.605957 -11.144913 -2.000000
v 18.883545 -7.426933 -2.000000
v 18.953003 11.630890 -2.000000
v 18.467041 7.843483 -2.000000
v -18.293457 10.901924 -2.000000
v -18.814209 7.288086 -2.000000
v 11.327148 18.665878 -4.000000
v 7.813477 18.575134 -4.000000
v 10.601196 -18.302879 -4.000000
v 7.329468 -18.665878 -4.000000
v -11.236450 -18.000381 -4.000000
v -7.601685 -18.272629 -4.000000
v -11.206177 18.363380 -4.000000
v -7.692383 18.998634 -4.000000
v -2.223267 11.283760 -2.000000
v 1.020508 7.392220 -2.000000
v -3.401367 -11.735023 -2.000000
v 2.463379 -7.600494 -2.000000
v -15.183350 -11.144913 -2.000000
v -16.193359 -7.461647 -2.000000
v 11.085205 15.473740 -4.000000
v 7.971680 7.433601 -4.000000
v -10.873413 -2.914085 -4.000000
v -7.601685 0.289970 -4.000000
v 17.061279 -7.565781 -2.000000
vt 0.447343 0.979531
vt 0.448483 0.979710
vt 0.448136 0.980976
vt 0.447140 0.980940
vt 0.460099 0.979710
vt 0.460421 0.979411
vt 0.460421 0.981202
vt 0.460195 0.980988
vt 0.446985 0.979411
vt 0.446985 0.981202
vt 0.447506 0.981202
vt 0.447853 0.979411
vt 0.460218 0.987539
vt 0.452939 0.987420
vt 0.454054 0.986082
vt 0.460051 0.986237
vt 0.447414 0.987289
vt 0.446985 0.987670
vt 0.446985 0.985879
vt 0.447235 0.986046
vt 0.460421 0.987670
vt 0.460421 0.985879
vt 0.453801 0.985879
vt 0.452853 0.987670
vt 0.457597 0.989958
vt 0.456389 0.989927
vt 0.456443 0.986096
vt 0.457514 0.988860
vt 0.457347 0.977249
vt 0.456223 0.977124
vt 0.456108 0.976822
vt 0.457722 0.976822
vt 0.457722 0.990259
vt 0.456108 0.990259
vt 0.456108 0.989118
vt 0.457722 0.989084
vt 0.449840 0.977353
vt 0.451090 0.977259
vt 0.451090 0.983640
vt 0.449965 0.982539
vt 0.449851 0.989854
vt 0.451058 0.990072
vt 0.451298 0.990259
vt 0.449684 0.990259
vt 0.449684 0.976822
vt 0.451298 0.976822
vt 0.451298 0.983578
vt 0.449684 0.982643
vt 0.454550 0.980928
vt 0.452534 0.979507
vt 0.459568 0.980940
vt 0.454999 0.981202
vt 0.459624 0.981202
vt 0.452815 0.979411
vt 0.447343 0.979531
vt 0.448483 0.979710
vt 0.448136 0.980976
vt 0.447140 0.980940
vt 0.460099 0.979710
vt 0.460421 0.979411
vt 0.460421 0.981202
vt 0.460195 0.980988
vt 0.446985 0.979411
vt 0.446985 0.981202
vt 0.447506 0.981202
vt 0.447853 0.979411
vt 0.460218 0.987539
vt 0.452939 0.987420
vt 0.454054 0.986082
vt 0.460051 0.986237
vt 0.447414 0.987289
vt 0.446985 0.987670
vt 0.446985 0.985879
vt 0.447235 0.986046
vt 0.460421 0.987670
vt 0.460421 0.985879
vt 0.453801 0.985879
vt 0.452853 0.987670
vt 0.457597 0.989958
vt 0.456389 0.989927
vt 0.456443 0.986096
vt 0.457514 0.988860
vt 0.457347 0.977249
vt 0.456223 0.977124
vt 0.456108 0.976822
vt 0.457722 0.976822
vt 0.457722 0.990259
vt 0.456108 0.990259
vt 0.456108 0.989118
vt 0.457722 0.989084
vt 0.449840 0.977353
vt 0.451090 0.977259
vt 0.451090 0.983640
vt 0.449965 0.982539
vt 0.449851 0.989854
vt 0.451058 0.990072
vt 0.451298 0.990259
vt 0.449684 0.990259
vt 0.449684 0.976822
vt 0.451298 0.976822
vt 0.451298 0.983578
vt 0.449684 0.982643
vt 0.454550 0.980928
vt 0.452534 0.979507
vt 0.459568 0.980940
vt 0.454999 0.981202
vt 0.459624 0.981202
vt 0.452815 0.979411
vn 0.000000 0.000000 1.000000
vn 0.000000 0.000000 1.000000
vn 0.000000 0.000000 1.000000
vn 0.000000 0.000000 1.000000
vn 0.927751 -0.028844 0.372083
vn 0.927751 -0.028844 0.372083
vn 0.927751 -0.028844 0.372083
vn 0.927751 -0.028844 0.372083
vn -0.937257 -0.059415 0.343539
vn -0.937257 -0.059415 0.343539
vn -0.937257 -0.059415 0.343539
vn -0.937257 -0.059415 0.343539
vn -0.022125 0.937854 0.346325
vn 0.002219 0.939612 0.342233
vn -0.002515 0.939315 0.343045
vn -0.022125 0.937854 0.346325
vn 0.088747 -0.996054 -0.000000
vn 0.018491 -0.999829 -0.000000
vn -0.013580 -0.960815 0.276857
vn 0.086322 -0.968829 0.232204
vn 0.000000 0.000000 1.000000
vn 0.000000 0.000000 1.000000
vn 0.000000 0.000000 1.000000
vn 0.000000 0.000000 1.000000
vn -0.891811 0.052628 0.449336
vn -0.891811 0.052628 0.449336
vn -0.891811 0.052628 0.449336
vn -0.891811 0.052628 0.449336
vn 0.919051 -0.049636 0.391001
vn 0.919051 -0.049636 0.391001
vn 0.919051 -0.049636 0.391001
vn 0.919051 -0.049636 0.391001
vn 0.011379 -0.925545 0.378467
vn 0.007863 -0.943470 0.331364
vn 0.005942 -0.952210 0.305387
vn 0.011379 -0.925545 0.378467
vn -0.007745 0.963680 0.266946
vn -0.009090 0.939287 0.343012
vn -0.008896 0.943244 0.331980
vn -0.007745 0.963680 0.266946
vn 0.000000 0.000000 1.000000
vn 0.000000 0.000000 1.000000
vn 0.000000 0.000000 1.000000
vn 0.000000 0.000000 1.000000
vn 0.043966 -0.964738 0.259512
vn 0.043966 -0.964738 0.259512
vn 0.043966 -0.964738 0.259512
vn 0.043966 -0.964738 0.259512
vn -0.011056 0.999939 0.000000
vn -0.011056 0.999939 0.000000
vn -0.010772 0.974225 0.225323
vn -0.010772 0.974225 0.225323
vn -0.978474 -0.010704 0.206093
vn -0.999940 -0.010938 0.000000
vn -0.999998 -0.002211 0.000000
vn -0.984974 0.009462 0.172443
vn 0.999331 -0.036578 0.000000
vn 0.992907 -0.036343 0.113199
vn 0.979542 -0.008901 0.201042
vn 0.999949 -0.010066 0.000000
vn 0.000000 0.000000 1.000000
vn 0.000000 0.000000 1.000000
vn 0.000000 0.000000 1.000000
vn 0.000000 0.000000 1.000000
vn -0.075480 0.975173 0.208184
vn -0.075480 0.975173 0.208184
vn -0.077170 0.997018 0.000000
vn -0.077171 0.997018 0.000000
vn -0.030830 -0.943103 0.331067
vn -0.030830 -0.943103 0.331067
vn -0.030830 -0.943103 0.331067
vn -0.030830 -0.943103 0.331067
vn 0.988755 0.000000 0.149544
vn 1.000000 0.000000 0.000000
vn 0.999999 0.001154 0.000000
vn 0.987879 0.001207 0.155222
vn -0.999936 0.011338 0.000000
vn -0.987828 0.011200 0.155145
vn -0.987543 0.000828 0.157349
vn -1.000000 -0.000033 0.000000
vn 0.000000 0.000000 1.000000
vn 0.000000 0.000000 1.000000
vn 0.000000 0.000000 1.000000
vn 0.000000 0.000000 1.000000
vn 0.005942 -0.952210 0.305387
vn 0.007863 -0.943470 0.331364
vn 0.002536 -0.965897 0.258914
vn 0.002536 -0.965897 0.258914
vn -0.008896 0.943244 0.331980
vn -0.009090 0.939287 0.343012
vn -0.010450 0.906972 0.421062
vn -0.010450 0.906972 0.421062
vn 0.000000 0.000000 1.000000
vn 0.000000 0.000000 1.000000
vn 0.000000 0.000000 1.000000
vn 0.000000 0.000000 1.000000
vn 0.000640 0.934988 0.354679
vn 0.002116 0.937685 0.347480
vn -0.004661 0.933447 0.358685
vn -0.005371 0.933810 0.357730
vn -0.004217 -0.959863 0.280437
vn 0.003720 -0.959855 0.280470
vn 0.012834 -0.959772 0.280488
vn 0.012834 -0.959772 0.280488
vn 0.000000 0.000000 1.000000
vn 0.000000 0.000000 1.000000
vn 0.000000 0.000000 1.000000
vn 0.000000 0.000000 1.000000
vn -0.002515 0.939315 0.343045
vn 0.002219 0.939612 0.342233
vn 0.002116 0.937685 0.347480
vn 0.000640 0.934988 0.354679
vn -0.013580 -0.960815 0.276857
vn 0.018491 -0.999829 -0.000000
vn 0.003720 -0.959855 0.280470
vn -0.004217 -0.959863 0.280437
vn 0.000000 0.000000 1.000000
vn 0.000000 0.000000 1.000000
vn 0.000000 0.000000 1.000000
vn 0.000000 0.000000 1.000000
vn -0.984974 0.009462 0.172443
vn -0.999998 -0.002211 0.000000
vn -0.999946 0.010380 0.000000
vn -0.985190 0.010227 0.171160
vn 0.999949 -0.010066 0.000000
vn 0.979542 -0.008901 0.201042
vn 0.978184 -0.006818 0.207629
vn 0.999976 -0.006970 0.000000
vn 0.000000 0.000000 1.000000
vn 0.000000 0.000000 1.000000
vn 0.000000 0.000000 1.000000
vn 0.000000 0.000000 1.000000
vn 0.987879 0.001207 0.155222
vn 0.999999 0.001154 0.000000
vn 0.999997 0.002378 0.000000
vn 0.987020 0.002347 0.160579
vn -1.000000 -0.000033 0.000000
vn -0.987543 0.000828 0.157349
vn -0.987230 -0.007564 0.159119
vn -0.999971 -0.007662 0.000000
vn 0.000000 0.000000 1.000000
vn 0.000000 0.000000 1.000000
vn 0.000000 0.000000 1.000000
vn -0.005371 0.933810 0.357730
vn -0.004661 0.933447 0.358685
vn -0.031720 0.946229 0.321939
vn -0.031720 0.946229 0.321939
vn 0.000000 0.000000 -1.000000
vn 0.000000 0.000000 -1.000000
vn 0.000000 0.000000 -1.000000
vn 0.000000 0.000000 -1.000000
vn 0.927751 -0.028844 -0.372083
vn 0.927751 -0.028844 -0.372083
vn 0.927751 -0.028844 -0.372083
vn 0.927751 -0.028844 -0.372083
vn -0.937257 -0.059415 -0.343539
vn -0.937257 -0.059415 -0.343539
vn -0.937257 -0.059415 -0.343539
vn -0.937257 -0.059415 -0.343539
vn -0.022125 0.937854 -0.346325
vn -0.022125 0.937854 -0.346325
vn -0.002515 0.939315 -0.343045
vn 0.002219 0.939612 -0.342233
vn 0.088747 -0.996054 -0.000000
vn 0.086322 -0.968829 -0.232204
vn -0.013580 -0.960815 -0.276857
vn 0.018491 -0.999829 -0.000000
vn 0.000000 0.000000 -1.000000
vn 0.000000 0.000000 -1.000000
vn 0.000000 0.000000 -1.000000
vn 0.000000 0.000000 -1.000000
vn -0.891811 0.052628 -0.449336
vn -0.891811 0.052628 -0.449336
vn -0.891811 0.052628 -0.449336
vn -0.891811 0.052628 -0.449336
vn 0.919051 -0.049636 -0.391001
vn 0.919051 -0.049636 -0.391001
vn 0.919051 -0.049636 -0.391001
vn 0.919051 -0.049636 -0.391001
vn 0.011379 -0.925545 -0.378467
vn 0.011379 -0.925545 -0.378467
vn 0.005942 -0.952210 -0.305387
vn 0.007863 -0.943470 -0.331364
vn -0.007745 0.963680 -0.266946
vn -0.007745 0.963680 -0.266946
vn -0.008896 0.943245 -0.331980
vn -0.009090 0.939287 -0.343012
vn 0.000000 0.000000 -1.000000
vn 0.000000 0.000000 -1.000000
vn 0.000000 0.000000 -1.000000
vn 0.000000 0.000000 -1.000000
vn 0.043966 -0.964739 -0.259512
vn 0.043966 -0.964739 -0.259512
vn 0.043966 -0.964739 -0.259512
vn 0.043966 -0.964739 -0.259512
vn -0.011056 0.999939 0.000000
vn -0.010772 0.974225 -0.225323
vn -0.010772 0.974225 -0.225323
vn -0.011056 0.999939 0.000000
vn -0.978474 -0.010704 -0.206093
vn -0.984974 0.009462 -0.172443
vn -0.999998 -0.002211 0.000000
vn -0.999940 -0.010938 0.000000
vn 0.999331 -0.036578 0.000000
vn 0.999949 -0.010066 0.000000
vn 0.979542 -0.008901 -0.201042
vn 0.992907 -0.036343 -0.113199
vn 0.000000 0.000000 -1.000000
vn 0.000000 0.000000 -1.000000
vn 0.000000 0.000000 -1.000000
vn 0.000000 0.000000 -1.000000
vn -0.075480 0.975173 -0.208184
vn -0.077171 0.997018 0.000000
vn -0.077170 0.997018 0.000000
vn -0.075480 0.975173 -0.208184
vn -0.030830 -0.943103 -0.331067
vn -0.030830 -0.943103 -0.331067
vn -0.030830 -0.943103 -0.331067
vn -0.030830 -0.943103 -0.331067
vn 0.988755 0.000000 -0.149544
vn 0.987879 0.001207 -0.155222
vn 0.999999 0.001154 0.000000
vn 1.000000 0.000000 0.000000
vn -0.999936 0.011338 0.000000
vn -1.000000 -0.000033 0.000000
vn -0.987543 0.000828 -0.157349
vn -0.987828 0.011200 -0.155145
vn 0.000000 0.000000 -1.000000
vn 0.000000 0.000000 -1.000000
vn 0.000000 0.000000 -1.000000
vn 0.000000 0.000000 -1.000000
vn 0.005942 -0.952210 -0.305387
vn 0.002536 -0.965897 -0.258914
vn 0.002536 -0.965897 -0.258914
vn 0.007863 -0.943470 -0.331364
vn -0.008896 0.943245 -0.331980
vn -0.010450 0.906972 -0.421062
vn -0.010450 0.906972 -0.421062
vn -0.009090 0.939287 -0.343012
vn 0.000000 0.000000 -1.000000
vn 0.000000 0.000000 -1.000000
vn 0.000000 0.000000 -1.000000
vn 0.000000 0.000000 -1.000000
vn 0.000640 0.934988 -0.354679
vn -0.005371 0.933810 -0.357730
vn -0.004661 0.933447 -0.358684
vn 0.002116 0.937685 -0.347480
vn -0.004217 -0.959863 -0.280436
vn 0.012834 -0.959772 -0.280487
vn 0.012834 -0.959772 -0.280487
vn 0.003720 -0.959856 -0.280470
vn 0.000000 0.000000 -1.000000
vn 0.000000 0.000000 -1.000000
vn 0.000000 0.000000 -1.000000
vn 0.000000 0.000000 -1.000000
vn -0.002515 0.939315 -0.343045
vn 0.000640 0.934988 -0.354679
vn 0.002116 0.937685 -0.347480
vn 0.002219 0.939612 -0.342233
vn -0.013580 -0.960815 -0.276857
vn -0.004217 -0.959863 -0.280436
vn 0.003720 -0.959856 -0.280470
vn 0.018491 -0.999829 -0.000000
vn 0.000000 0.000000 -1.000000
vn 0.000000 0.000000 -1.000000
vn 0.000000 0.000000 -1.000000
vn 0.000000 0.000000 -1.000000
vn -0.984974 0.009462 -0.172443
vn -0.985190 0.010227 -0.171160
vn -0.999946 0.010380 0.000000
vn -0.999998 -0.002211 0.000000
vn 0.999949 -0.010066 0.000000
vn 0.999976 -0.006970 0.000000
vn 0.978184 -0.006818 -0.207629
vn 0.979542 -0.008901 -0.201042
vn 0.000000 0.000000 -1.000000
vn 0.000000 0.000000 -1.000000
vn 0.000000 0.000000 -1.000000
vn 0.000000 0.000000 -1.000000
vn 0.987879 0.001207 -0.155222
vn 0.987020 0.002347 -0.160579
vn 0.999997 0.002378 0.000000
vn 0.999999 0.001154 0.000000
vn -1.000000 -0.000033 0.000000
vn -0.999971 -0.007662 0.000000
vn -0.987230 -0.007564 -0.159119
vn -0.987543 0.000828 -0.157349
vn 0.000000 0.000000 -1.000000
vn 0.000000 0.000000 -1.000000
vn 0.000000 0.000000 -1.000000
vn -0.005371 0.933810 -0.357730
vn -0.031720 0.946229 -0.321939
vn -0.031720 0.946229 -0.321939
vn -0.004661 0.933447 -0.358684
s off
f 1/1/1 41/2/2 42/3/3 2/4/4
f 3/5/5 5/6/6 6/7/7 4/8/8
f 7/9/9 1/1/10 2/4/11 8/10/12
f 2/4/13 42/3/14 44/11/15 8/10/16
f 7/9/17 43/12/18 41/2/19 1/1/20
f 9/13/21 33/14/22 34/15/23 10/16/24
f 11/17/25 13/18/26 14/19/27 12/20/28
f 15/21/29 9/13/30 10/16/31 16/22/32
f 10/16/33 34/15/34 36/23/35 16/22/36
f 15/21/37 35/24/38 33/14/39 9/13/40
f 17/25/41 18/26/42 46/27/43 45/28/44
f 19/29/45 20/30/46 22/31/47 21/32/48
f 23/33/49 24/34/50 18/26/51 17/25/52
f 18/26/53 24/34/54 48/35/55 46/27/56
f 23/33/57 17/25/58 45/28/59 47/36/60
f 25/37/61 26/38/62 50/39/63 49/40/64
f 27/41/65 28/42/66 30/43/67 29/44/68
f 31/45/69 32/46/70 26/38/71 25/37/72
f 26/38/73 32/46/74 52/47/75 50/39/76
f 31/45/77 25/37/78 49/40/79 51/48/80
f 34/15/81 33/14/82 11/17/83 12/20/84
f 36/23/85 34/15/86 12/20/87 14/19/88
f 33/14/89 35/24/90 13/18/91 11/17/92
f 38/49/93 37/50/94 3/5/95 53/51/96
f 40/52/97 38/49/98 53/51/99 54/53/100
f 37/50/101 39/54/102 5/6/103 3/5/104
f 42/3/105 41/2/106 37/50/107 38/49/108
f 44/11/109 42/3/110 38/49/111 40/52/112
f 41/2/113 43/12/114 39/54/115 37/50/116
f 45/28/117 46/27/118 20/30/119 19/29/120
f 46/27/121 48/35/122 22/31/123 20/30/124
f 47/36/125 45/28/126 19/29/127 21/32/128
f 49/40/129 50/39/130 28/42/131 27/41/132
f 50/39/133 52/47/134 30/43/135 28/42/136
f 51/48/137 49/40/138 27/41/139 29/44/140
f 53/51/141 3/5/142 4/8/143
f 54/53/144 53/51/145 4/8/146 6/7/147
f 55/55/148 56/58/149 76/57/150 75/56/151
f 57/59/152 58/62/153 6/61/154 5/60/155
f 7/63/156 8/64/157 56/58/158 55/55/159
f 56/58/160 8/64/161 44/65/162 76/57/163
f 7/63/164 55/55/165 75/56/166 43/66/167
f 59/67/168 60/70/169 72/69/170 71/68/171
f 61/71/172 62/74/173 14/73/174 13/72/175
f 15/75/176 16/76/177 60/70/178 59/67/179
f 60/70/180 16/76/181 36/77/182 72/69/183
f 15/75/184 59/67/185 71/68/186 35/78/187
f 63/79/188 77/82/189 78/81/190 64/80/191
f 65/83/192 21/86/193 22/85/194 66/84/195
f 23/87/196 63/79/197 64/80/198 24/88/199
f 64/80/200 78/81/201 48/89/202 24/88/203
f 23/87/204 47/90/205 77/82/206 63/79/207
f 67/91/208 79/94/209 80/93/210 68/92/211
f 69/95/212 29/98/213 30/97/214 70/96/215
f 31/99/216 67/91/217 68/92/218 32/100/219
f 68/92/220 80/93/221 52/101/222 32/100/223
f 31/99/224 51/102/225 79/94/226 67/91/227
f 72/69/228 62/74/229 61/71/230 71/68/231
f 36/77/232 14/73/233 62/74/234 72/69/235
f 71/68/236 61/71/237 13/72/238 35/78/239
f 74/103/240 81/105/241 57/59/242 73/104/243
f 40/106/244 54/107/245 81/105/246 74/103/247
f 73/104/248 57/59/249 5/60/250 39/108/251
f 76/57/252 74/103/253 73/104/254 75/56/255
f 44/65/256 40/106/257 74/103/258 76/57/259
f 75/56/260 73/104/261 39/108/262 43/66/263
f 77/82/264 65/83/265 66/84/266 78/81/267
f 78/81/268 66/84/269 22/85/270 48/89/271
f 47/90/272 21/86/273 65/83/274 77/82/275
f 79/94/276 69/95/277 70/96/278 80/93/279
f 80/93/280 70/96/281 30/97/282 52/101/283
f 51/102/284 29/98/285 69/95/286 79/94/287
f 81/105/288 58/62/289 57/59/290
f 54/107/291 6/61/292 58/62/293 81/105/294
