# This file uses centimeters as units for non-parametric coordinates.

v -16.109051 -16.634369 -3.999999
v 16.595848 -16.634369 -3.999999
v -16.870682 16.886578 -2.000000
v 17.357479 16.886578 -2.000000
v 16.209915 -0.227503 -2.000000
v -15.723118 -0.227503 -2.000000
v -15.926769 10.562033 -2.000000
v 16.413567 10.562033 -2.000000
v -16.583797 14.043792 -2.000000
v 17.070595 14.043792 -2.000000
v -16.440350 12.622397 -2.000000
v 16.927147 12.622397 -2.000000
v -17.502134 -18.046776 0.000000
v 17.988932 -18.046776 0.000000
v -17.083323 -0.242189 0.000000
v 17.570120 -0.242189 0.000000
v -17.806459 18.068832 0.000000
v 18.181051 18.171432 0.000000
v 17.791122 11.466519 0.000000
v -17.304325 11.466519 0.000000
v -17.861656 12.850120 0.000000
v 18.348454 12.850120 0.000000
v -18.017326 14.392605 0.000000
v 18.504124 14.392605 0.000000
v 18.767851 -9.570641 0.000000
v 17.313620 -8.823640 -3.999999
v -16.826822 -8.823640 -3.999999
v -18.281054 -9.570641 0.000000
v -7.396363 17.840572 0.000000
v -6.796617 16.435701 -2.000000
v -6.683581 13.592915 -2.000000
v -6.627060 12.171520 -2.000000
v -6.424703 10.111156 -2.000000
v -7.494440 -0.707194 -2.000000
v -7.560771 -8.332585 -3.999999
v -6.499768 -17.341583 -3.999999
v -7.074226 -18.814238 0.000000
v 6.250351 18.704008 0.000000
v 5.778786 17.231356 -2.000000
v 5.697279 14.388569 -2.000000
v 5.656524 12.967175 -2.000000
v 5.510613 10.906809 -2.000000
v 5.845577 0.655914 -2.000000
v 6.063459 -7.595341 -3.999999
v 5.105631 -17.341583 -3.999999
v 5.519850 -18.814238 0.000000
v -15.742547 -16.321001 3.999999
v 15.811563 -16.212252 3.999999
v -16.302723 16.576532 2.000000
v 17.096708 16.418556 2.000000
v 15.894692 -0.490183 2.000000
v -15.150007 -0.385060 2.000000
v -15.926769 10.562033 2.000000
v 16.413567 10.562033 2.000000
v -16.583797 14.043792 2.000000
v 17.070595 14.043792 2.000000
v -16.440350 12.622397 2.000000
v 16.927147 12.622397 2.000000
v 17.313620 -8.823640 3.999999
v -16.826822 -8.823640 3.999999
v -6.796617 16.435701 2.000000
v -6.683581 13.592915 2.000000
v -6.627060 12.171520 2.000000
v -6.424703 10.111156 2.000000
v -7.494440 -0.707194 2.000000
v -7.560771 -8.332585 3.999999
v -6.499768 -17.341583 3.999999
v 5.778786 17.231356 2.000000
v 5.697279 14.388569 2.000000
v 5.656524 12.967175 2.000000
v 5.510613 10.906809 2.000000
v 5.845577 0.655914 2.000000
v 6.063459 -7.595341 3.999999
v 5.105631 -17.341583 3.999999
vt 0.421750 0.945272
vt 0.421750 0.945272
vt 0.984696 0.980656
vt 0.984696 0.980656
vt 0.984696 0.980656
vt 0.984696 0.980656
vt 0.984696 0.980656
vt 0.984696 0.980656
vt 0.984696 0.980656
vt 0.984696 0.980656
vt 0.984696 0.980656
vt 0.984696 0.980656
vt 0.011919 0.958107
vt 0.011919 0.958107
vt 0.011919 0.958107
vt 0.011919 0.958107
vt 0.421750 0.945271
vt 0.421750 0.945271
vt 0.421750 0.945272
vt 0.421750 0.945272
vt 0.421750 0.945271
vt 0.421750 0.945271
vt 0.011919 0.958107
vt 0.011919 0.958107
vt 0.011919 0.958107
vt 0.011919 0.958107
vt 0.984696 0.980656
vt 0.984696 0.980656
vt 0.984696 0.980656
vt 0.984696 0.980656
vt 0.984696 0.980656
vt 0.984696 0.980656
vt 0.984696 0.980656
vt 0.984696 0.980656
vt 0.984696 0.980656
vt 0.984696 0.980656
vt 0.984696 0.980656
vt 0.984696 0.980656
vt 0.984696 0.980656
vt 0.984696 0.980656
vt 0.984696 0.980656
vt 0.984696 0.980656
vt 0.984696 0.980656
vt 0.984696 0.980656
vt 0.984696 0.980656
vt 0.984696 0.980656
vt 0.984696 0.980656
vt 0.984696 0.980656
vt 0.984696 0.980656
vt 0.984696 0.980656
vt 0.984696 0.980656
vt 0.984696 0.980656
vt 0.984696 0.980656
vt 0.984696 0.980656
vt 0.421750 0.945271
vt 0.421750 0.945271
vt 0.421750 0.945271
vt 0.421750 0.945271
vt 0.984696 0.980656
vt 0.984696 0.980656
vt 0.984696 0.980656
vt 0.984696 0.980656
vt 0.011919 0.958107
vt 0.011919 0.958107
vt 0.984696 0.980656
vt 0.984696 0.980656
vt 0.421750 0.945271
vt 0.984696 0.980656
vt 0.421750 0.945271
vt 0.421750 0.945272
vt 0.421750 0.945272
vt 0.984696 0.980656
vt 0.984696 0.980656
vt 0.984696 0.980656
vt 0.984696 0.980656
vt 0.011919 0.958107
vt 0.011919 0.958107
vt 0.984696 0.980656
vt 0.984696 0.980656
vt 0.421750 0.945271
vt 0.984696 0.980656
vt 0.421750 0.945271
vt 0.421750 0.945272
vt 0.421750 0.945272
vt 0.421750 0.945272
vt 0.421750 0.945272
vt 0.421750 0.945271
vt 0.421750 0.945271
vt 0.984696 0.980656
vt 0.984696 0.980656
vt 0.984696 0.980656
vt 0.984696 0.980656
vt 0.984696 0.980656
vt 0.984696 0.980656
vt 0.984696 0.980656
vt 0.984696 0.980656
vt 0.011919 0.958107
vt 0.011919 0.958107
vt 0.011919 0.958107
vt 0.011919 0.958107
vt 0.984696 0.980656
vt 0.984696 0.980656
vt 0.421750 0.945272
vt 0.421750 0.945272
vt 0.421750 0.945271
vt 0.421750 0.945272
vt 0.421750 0.945272
vt 0.421750 0.945271
vt 0.421750 0.945271
vt 0.984696 0.980656
vt 0.984696 0.980656
vt 0.984696 0.980656
vt 0.984696 0.980656
vt 0.984696 0.980656
vt 0.984696 0.980656
vt 0.984696 0.980656
vt 0.984696 0.980656
vt 0.984696 0.980656
vt 0.984696 0.980656
vt 0.984696 0.980656
vt 0.984696 0.980656
vt 0.984696 0.980656
vt 0.984696 0.980656
vt 0.984696 0.980656
vt 0.984696 0.980656
vt 0.984696 0.980656
vt 0.984696 0.980656
vt 0.984696 0.980656
vt 0.984696 0.980656
vt 0.984696 0.980656
vt 0.984696 0.980656
vt 0.984696 0.980656
vt 0.984696 0.980656
vt 0.984696 0.980656
vt 0.984696 0.980656
vt 0.984696 0.980656
vt 0.984696 0.980656
vt 0.011919 0.958107
vt 0.011919 0.958107
vt 0.011919 0.958107
vt 0.011919 0.958107
vt 0.011919 0.958107
vt 0.011919 0.958107
vt 0.421750 0.945271
vt 0.421750 0.945271
vt 0.421750 0.945271
vt 0.421750 0.945271
vt 0.421750 0.945271
vt 0.984696 0.980656
vt 0.984696 0.980656
vt 0.984696 0.980656
vt 0.984696 0.980656
vt 0.984696 0.980656
vt 0.984696 0.980656
vt 0.984696 0.980656
vt 0.984696 0.980656
vt 0.011919 0.958107
vt 0.011919 0.958107
vt 0.984696 0.980656
vt 0.984696 0.980656
vt 0.984696 0.980656
vt 0.984696 0.980656
vt 0.984696 0.980656
vt 0.984696 0.980656
vt 0.421750 0.945271
vt 0.421750 0.945271
vt 0.421750 0.945272
vt 0.421750 0.945272
vn 0.000000 0.000000 -1.000000
vn 0.000000 0.000000 -1.000000
vn 0.000000 0.000000 -1.000000
vn 0.000000 0.000000 -1.000000
vn 0.000000 0.000000 -1.000000
vn 0.000000 0.000000 -1.000000
vn 0.000000 0.000000 -1.000000
vn 0.000000 0.000000 -1.000000
vn 0.000000 0.000000 -1.000000
vn 0.000000 0.000000 -1.000000
vn 0.000000 0.000000 -1.000000
vn 0.000000 0.000000 -1.000000
vn 0.000000 0.000000 -1.000000
vn 0.000000 0.000000 -1.000000
vn 0.000000 0.000000 -1.000000
vn 0.000000 0.000000 -1.000000
vn 0.000000 0.000000 -1.000000
vn 0.000000 0.000000 -1.000000
vn 0.000000 0.000000 -1.000000
vn 0.000000 0.000000 -1.000000
vn 0.057544 -0.934920 -0.350163
vn 0.057544 -0.934920 -0.350163
vn 0.030284 -0.936970 -0.348095
vn 0.027126 -0.937162 -0.347838
vn -0.931133 -0.085567 -0.354500
vn -0.931133 -0.085567 -0.354500
vn -0.931133 -0.085567 -0.354500
vn -0.931132 -0.085567 -0.354500
vn 0.931133 -0.085567 -0.354500
vn 0.931133 -0.085567 -0.354500
vn 0.931133 -0.085567 -0.354500
vn 0.931132 -0.085567 -0.354500
vn -0.017803 0.814023 -0.580560
vn -0.007652 0.815081 -0.579297
vn 0.030538 0.818288 -0.573997
vn 0.030538 0.818288 -0.573997
vn 0.826733 -0.015605 -0.562378
vn 0.826733 -0.015605 -0.562378
vn 0.826733 -0.015605 -0.562378
vn 0.826733 -0.015605 -0.562378
vn -0.826733 -0.015605 -0.562378
vn -0.826733 -0.015605 -0.562378
vn -0.826733 -0.015605 -0.562378
vn -0.826733 -0.015605 -0.562378
vn -0.824543 -0.256394 -0.504372
vn -0.824543 -0.256394 -0.504372
vn -0.824543 -0.256394 -0.504372
vn -0.824543 -0.256394 -0.504372
vn 0.824543 -0.256394 -0.504372
vn 0.824543 -0.256394 -0.504372
vn 0.824543 -0.256394 -0.504372
vn 0.824543 -0.256394 -0.504372
vn -0.862031 -0.010052 -0.506756
vn -0.862031 -0.010052 -0.506756
vn -0.862031 -0.010052 -0.506756
vn -0.862031 -0.010052 -0.506756
vn 0.870072 0.004755 -0.492902
vn 0.870072 0.004755 -0.492902
vn 0.870072 0.004755 -0.492902
vn 0.870072 0.004755 -0.492902
vn -0.816765 -0.082429 -0.571052
vn -0.816765 -0.082429 -0.571052
vn -0.816765 -0.082429 -0.571052
vn -0.816765 -0.082429 -0.571052
vn 0.816765 -0.082429 -0.571052
vn 0.816765 -0.082429 -0.571052
vn 0.816765 -0.082429 -0.571052
vn 0.816765 -0.082429 -0.571052
vn 0.901276 0.160616 -0.402374
vn 0.901276 0.160616 -0.402374
vn 0.901276 0.160616 -0.402374
vn 0.901276 0.160616 -0.402374
vn 0.000714 0.238732 -0.971085
vn -0.000189 0.238980 -0.971025
vn 0.022728 0.232631 -0.972299
vn 0.022728 0.232631 -0.972299
vn -0.901276 0.160616 -0.402374
vn -0.901276 0.160616 -0.402374
vn -0.901276 0.160616 -0.402374
vn -0.901276 0.160616 -0.402374
vn 0.027989 0.844213 -0.535276
vn 0.027989 0.844213 -0.535276
vn -0.011639 0.828092 -0.560471
vn -0.023125 0.823035 -0.567519
vn 0.000000 0.000000 -1.000000
vn 0.000000 0.000000 -1.000000
vn 0.000000 0.000000 -1.000000
vn 0.000000 0.000000 -1.000000
vn 0.000000 0.000000 -1.000000
vn 0.000000 0.000000 -1.000000
vn 0.000000 0.000000 -1.000000
vn 0.000000 0.000000 -1.000000
vn 0.000000 0.000000 -1.000000
vn 0.000000 0.000000 -1.000000
vn 0.000000 0.000000 -1.000000
vn 0.000000 0.000000 -1.000000
vn -0.000000 0.000000 -1.000000
vn -0.000000 0.000000 -1.000000
vn -0.000000 0.000000 -1.000000
vn -0.000000 0.000000 -1.000000
vn -0.000156 0.239425 -0.970915
vn -0.000156 0.239425 -0.970915
vn -0.011667 0.242285 -0.970135
vn -0.011157 0.242159 -0.970172
vn -0.000000 0.000000 -1.000000
vn -0.000000 0.000000 -1.000000
vn -0.000000 0.000000 -1.000000
vn -0.000000 0.000000 -1.000000
vn -0.033887 -0.936295 -0.349576
vn -0.068664 -0.932969 -0.353347
vn -0.068664 -0.932969 -0.353347
vn -0.028631 -0.936697 -0.348970
vn -0.023125 0.823035 -0.567519
vn -0.011639 0.828092 -0.560471
vn -0.007652 0.815081 -0.579297
vn -0.017803 0.814023 -0.580560
vn 0.000000 0.000000 -1.000000
vn 0.000000 0.000000 -1.000000
vn 0.000000 0.000000 -1.000000
vn 0.000000 0.000000 -1.000000
vn 0.000000 0.000000 -1.000000
vn 0.000000 0.000000 -1.000000
vn 0.000000 0.000000 -1.000000
vn 0.000000 0.000000 -1.000000
vn 0.000000 0.000000 -1.000000
vn 0.000000 0.000000 -1.000000
vn 0.000000 0.000000 -1.000000
vn 0.000000 0.000000 -1.000000
vn -0.000000 0.000000 -1.000000
vn -0.000000 0.000000 -1.000000
vn 0.000000 0.000000 -1.000000
vn 0.000000 0.000000 -1.000000
vn -0.011157 0.242159 -0.970172
vn -0.011667 0.242285 -0.970135
vn -0.000189 0.238980 -0.971025
vn 0.000714 0.238732 -0.971085
vn -0.000000 0.000000 -1.000000
vn -0.000000 0.000000 -1.000000
vn 0.000000 0.000000 -1.000000
vn 0.000000 0.000000 -1.000000
vn 0.030284 -0.936970 -0.348095
vn -0.033887 -0.936295 -0.349576
vn -0.028631 -0.936697 -0.348970
vn 0.027126 -0.937162 -0.347838
vn -0.000000 0.000000 1.000000
vn 0.000000 0.000000 1.000000
vn 0.000000 0.000000 1.000000
vn 0.000000 0.000000 1.000000
vn 0.000000 0.000000 1.000000
vn 0.000000 0.000000 1.000000
vn 0.000000 0.000000 1.000000
vn 0.000000 0.000000 1.000000
vn 0.000000 0.000000 1.000000
vn 0.000000 0.000000 1.000000
vn 0.000000 0.000000 1.000000
vn 0.000000 0.000000 1.000000
vn 0.000000 0.000000 1.000000
vn 0.000000 0.000000 1.000000
vn 0.000000 0.000000 1.000000
vn 0.000000 0.000000 1.000000
vn 0.000000 0.000000 1.000000
vn 0.000000 0.000000 1.000000
vn 0.000000 0.000000 1.000000
vn 0.000000 0.000000 1.000000
vn 0.074708 -0.912787 0.401546
vn 0.035260 -0.927421 0.372353
vn 0.039174 -0.926080 0.375289
vn 0.074708 -0.912787 0.401546
vn -0.910878 -0.106247 0.398765
vn -0.910878 -0.106247 0.398765
vn -0.910878 -0.106247 0.398765
vn -0.910878 -0.106247 0.398765
vn 0.887001 -0.127530 0.443807
vn 0.887001 -0.127530 0.443807
vn 0.887001 -0.127530 0.443807
vn 0.887002 -0.127530 0.443807
vn -0.010494 0.793888 0.607974
vn 0.044509 0.769137 0.637532
vn 0.044509 0.769137 0.637532
vn 0.001012 0.789005 0.614386
vn 0.798242 -0.025948 0.601778
vn 0.798241 -0.025948 0.601778
vn 0.798241 -0.025948 0.601778
vn 0.798241 -0.025948 0.601778
vn -0.774264 -0.034099 0.631944
vn -0.774264 -0.034099 0.631944
vn -0.774264 -0.034099 0.631944
vn -0.774264 -0.034099 0.631944
vn -0.824543 -0.256394 0.504372
vn -0.824543 -0.256394 0.504372
vn -0.824543 -0.256394 0.504372
vn -0.824543 -0.256394 0.504373
vn 0.824543 -0.256394 0.504372
vn 0.824543 -0.256394 0.504372
vn 0.824543 -0.256394 0.504373
vn 0.824543 -0.256394 0.504372
vn -0.790474 0.062630 0.609285
vn -0.790474 0.062630 0.609285
vn -0.790474 0.062630 0.609285
vn -0.790474 0.062630 0.609285
vn 0.835914 0.040339 0.547376
vn 0.835914 0.040339 0.547376
vn 0.835914 0.040339 0.547376
vn 0.835914 0.040339 0.547376
vn -0.816765 -0.082429 0.571052
vn -0.816765 -0.082429 0.571052
vn -0.816765 -0.082429 0.571052
vn -0.816765 -0.082429 0.571052
vn 0.816765 -0.082429 0.571052
vn 0.816765 -0.082429 0.571052
vn 0.816765 -0.082429 0.571052
vn 0.816765 -0.082429 0.571052
vn 0.878174 0.180276 0.443071
vn 0.878174 0.180276 0.443071
vn 0.878174 0.180276 0.443071
vn 0.878174 0.180276 0.443071
vn 0.002082 0.240789 0.970575
vn 0.026403 0.236843 0.971189
vn 0.026403 0.236843 0.971189
vn 0.000888 0.240979 0.970530
vn -0.862716 0.192231 0.467726
vn -0.862716 0.192231 0.467726
vn -0.862716 0.192231 0.467726
vn -0.862716 0.192231 0.467727
vn 0.015077 0.813541 0.581313
vn -0.027367 0.811642 0.583513
vn -0.017944 0.812191 0.583116
vn 0.015077 0.813541 0.581313
vn 0.000000 0.000000 1.000000
vn 0.000000 0.000000 1.000000
vn 0.000000 0.000000 1.000000
vn 0.000000 0.000000 1.000000
vn 0.000000 0.000000 1.000000
vn 0.000000 0.000000 1.000000
vn 0.000000 0.000000 1.000000
vn 0.000000 0.000000 1.000000
vn 0.000000 0.000000 1.000000
vn 0.000000 0.000000 1.000000
vn 0.000000 0.000000 1.000000
vn 0.000000 0.000000 1.000000
vn -0.000000 0.000000 1.000000
vn -0.000000 0.000000 1.000000
vn -0.000000 0.000000 1.000000
vn -0.000000 0.000000 1.000000
vn -0.002414 0.241872 0.970305
vn -0.012273 0.243199 0.969899
vn -0.012756 0.243264 0.969876
vn -0.002414 0.241872 0.970305
vn 0.000000 0.000000 1.000000
vn -0.000000 0.000000 1.000000
vn -0.000000 0.000000 1.000000
vn 0.000000 0.000000 1.000000
vn -0.041129 -0.928809 0.368270
vn -0.034927 -0.930397 0.364886
vn -0.083326 -0.916693 0.390809
vn -0.083326 -0.916693 0.390809
vn -0.027367 0.811642 0.583513
vn -0.010494 0.793888 0.607974
vn 0.001012 0.789005 0.614386
vn -0.017944 0.812191 0.583116
vn 0.000000 0.000000 1.000000
vn 0.000000 0.000000 1.000000
vn 0.000000 0.000000 1.000000
vn 0.000000 0.000000 1.000000
vn 0.000000 0.000000 1.000000
vn 0.000000 0.000000 1.000000
vn 0.000000 0.000000 1.000000
vn 0.000000 0.000000 1.000000
vn 0.000000 0.000000 1.000000
vn 0.000000 0.000000 1.000000
vn 0.000000 0.000000 1.000000
vn 0.000000 0.000000 1.000000
vn -0.000000 0.000000 1.000000
vn 0.000000 0.000000 1.000000
vn 0.000000 0.000000 1.000000
vn -0.000000 0.000000 1.000000
vn -0.012273 0.243199 0.969899
vn 0.002082 0.240789 0.970575
vn 0.000888 0.240979 0.970530
vn -0.012756 0.243264 0.969876
vn -0.000000 0.000000 1.000000
vn -0.000000 0.000000 1.000000
vn 0.000000 0.000000 1.000000
vn -0.000000 0.000000 1.000000
vn 0.039174 -0.926080 0.375289
vn 0.035260 -0.927421 0.372353
vn -0.034927 -0.930397 0.364886
vn -0.041129 -0.928809 0.368270
s off
f 45/83/1 44/82/2 26/56/3 2/2/4
f 40/75/5 39/74/6 4/4/7 10/10/8
f 43/81/9 42/79/10 8/8/11 5/5/12
f 41/77/13 40/76/14 10/15/15 12/14/16
f 42/79/17 41/78/18 12/12/19 8/8/20
f 2/2/21 14/20/22 46/84/23 45/83/24
f 28/58/25 27/57/26 1/1/27 13/19/28
f 2/2/29 26/56/30 25/55/31 14/20/32
f 39/73/33 38/72/34 18/33/35 4/32/36
f 8/35/37 19/38/38 16/37/39 5/36/40
f 6/39/41 15/42/42 20/41/43 7/40/44
f 7/43/45 20/46/46 21/45/47 11/44/48
f 12/47/49 22/50/50 19/49/51 8/48/52
f 9/51/53 23/54/54 17/53/55 3/52/56
f 4/30/57 18/27/58 24/28/59 10/29/60
f 11/13/61 21/25/62 23/26/63 9/16/64
f 10/15/65 24/23/66 22/24/67 12/14/68
f 5/17/69 16/22/70 25/55/71 26/56/72
f 44/82/73 43/80/74 5/17/75 26/56/76
f 28/58/77 15/21/78 6/18/79 27/57/80
f 3/31/81 17/34/82 29/59/83 30/60/84
f 9/9/85 3/3/86 30/61/87 31/62/88
f 11/13/89 9/16/90 31/63/91 32/64/92
f 7/7/93 11/11/94 32/65/95 33/66/96
f 6/6/97 7/7/98 33/66/99 34/68/100
f 27/57/101 6/18/102 34/67/103 35/69/104
f 1/1/105 27/57/106 35/69/107 36/70/108
f 37/71/109 13/19/110 1/1/111 36/70/112
f 30/60/113 29/59/114 38/72/115 39/73/116
f 31/62/117 30/61/118 39/74/119 40/75/120
f 32/64/121 31/63/122 40/76/123 41/77/124
f 33/66/125 32/65/126 41/78/127 42/79/128
f 34/68/129 33/66/130 42/79/131 43/81/132
f 35/69/133 34/67/134 43/80/135 44/82/136
f 36/70/137 35/69/138 44/82/139 45/83/140
f 46/84/141 37/71/142 36/70/143 45/83/144
f 74/85/145 48/86/146 59/87/147 73/88/148
f 69/89/149 56/90/150 50/91/151 68/92/152
f 72/93/153 51/94/154 54/95/155 71/96/156
f 70/97/157 58/98/158 56/99/159 69/100/160
f 71/96/161 54/95/162 58/101/163 70/102/164
f 48/86/165 74/85/166 46/103/167 14/104/168
f 28/105/169 13/106/170 47/107/171 60/108/172
f 48/86/173 14/104/174 25/109/175 59/87/176
f 68/110/177 50/111/178 18/112/179 38/113/180
f 54/114/181 51/115/182 16/116/183 19/117/184
f 52/118/185 53/119/186 20/120/187 15/121/188
f 53/122/189 57/123/190 21/124/191 20/125/192
f 58/126/193 54/127/194 19/128/195 22/129/196
f 55/130/197 49/131/198 17/132/199 23/133/200
f 50/134/201 56/135/202 24/136/203 18/137/204
f 57/138/205 55/139/206 23/140/207 21/141/208
f 56/99/209 58/98/210 22/142/211 24/143/212
f 51/144/213 59/87/214 25/109/215 16/145/216
f 73/88/217 59/87/218 51/144/219 72/146/220
f 28/105/221 60/108/222 52/147/223 15/148/224
f 49/149/225 61/150/226 29/151/227 17/152/228
f 55/153/229 62/154/230 61/155/231 49/156/232
f 57/138/233 63/157/234 62/158/235 55/139/236
f 53/159/237 64/160/238 63/161/239 57/162/240
f 52/163/241 65/164/242 64/160/243 53/159/244
f 60/108/245 66/165/246 65/166/247 52/147/248
f 47/107/249 67/167/250 66/165/251 60/108/252
f 37/168/253 67/167/254 47/107/255 13/106/256
f 61/150/257 68/110/258 38/113/259 29/151/260
f 62/154/261 69/89/262 68/92/263 61/155/264
f 63/157/265 70/97/266 69/100/267 62/158/268
f 64/160/269 71/96/270 70/102/271 63/161/272
f 65/164/273 72/93/274 71/96/275 64/160/276
f 66/165/277 73/88/278 72/146/279 65/166/280
f 67/167/281 74/85/282 73/88/283 66/165/284
f 46/103/285 74/85/286 67/167/287 37/168/288
