# This file uses centimeters as units for non-parametric coordinates.

v 17.158810 -2.405602 -4.000000
v 4.186695 -2.629906 -4.000000
v 3.504544 1.642630 -4.000000
v 2.255317 0.357128 -2.000000
v 2.255317 -4.193580 -2.000000
v 1.135974 -1.059642 -4.000000
v 1.525702 -4.722628 -4.000000
v 2.255317 -5.947209 -2.000000
v 17.522724 6.747553 -4.000000
v 15.497819 9.424096 -4.000000
v 16.592766 -4.226879 -2.000000
v 19.375536 -2.594221 0.000000
v 19.375536 7.888782 0.000000
v 17.215584 11.050649 0.000000
v 18.304672 -4.226879 0.000000
v -18.304672 -14.629790 0.000000
v -15.448812 -17.428066 0.000000
v 15.907598 -17.428066 0.000000
v 18.304672 -14.689657 0.000000
v -16.592766 -13.656183 -2.000000
v -14.003992 -16.192755 -2.000000
v 14.419873 -16.192755 -2.000000
v 16.195713 -13.312925 -2.000000
v -17.522724 -2.594221 -4.000000
v -3.990528 -2.237674 -4.000000
v -3.504544 1.933672 -4.000000
v -2.255317 0.357128 -2.000000
v -2.255317 -4.193580 -2.000000
v -1.525702 -0.766669 -4.000000
v -1.525702 -4.722628 -4.000000
v -2.255317 -5.947209 -2.000000
v -17.522724 6.747553 -4.000000
v -15.497819 9.424096 -4.000000
v -16.592766 -4.226879 -2.000000
v -19.375536 -2.594221 0.000000
v -19.375536 7.888782 0.000000
v -17.215584 11.050649 0.000000
v -18.304672 -4.226879 0.000000
v -6.659336 9.960760 -2.000000
v 6.538527 9.960760 -2.000000
v -7.475319 9.960760 0.000000
v 7.475320 9.960760 0.000000
v -4.971708 9.960760 -2.000000
v 4.939278 9.960760 -2.000000
v -4.255407 9.960760 0.000000
v 4.222978 9.960760 0.000000
v -4.943823 16.774717 -2.000000
v -6.659336 14.978295 -2.000000
v -7.475319 15.738758 0.000000
v -5.686311 17.533787 0.000000
v 6.538527 14.988691 -2.000000
v 4.985393 16.598316 -2.000000
v 5.691512 17.645765 0.000000
v 7.475320 15.514400 0.000000
v -4.036691 15.115688 -2.000000
v -4.946843 14.300990 -2.000000
v 4.963451 14.261712 -2.000000
v 3.954452 15.188246 -2.000000
v -3.384017 14.434000 0.000000
v -4.255407 13.488269 0.000000
v 4.222978 13.505349 0.000000
v 3.350687 14.451080 0.000000
v 17.158810 -2.405602 4.000000
v 4.186695 -2.629906 4.000000
v 3.504544 1.642630 4.000000
v 2.255317 0.357128 2.000000
v 2.255317 -4.193580 2.000000
v 1.135974 -1.059642 4.000000
v 1.525702 -4.722628 4.000000
v 2.255317 -5.947209 2.000000
v 17.522724 6.170593 4.000000
v 15.497819 8.847136 4.000000
v 16.592766 -4.226879 2.000000
v -16.592766 -13.656183 2.000000
v -14.003992 -16.192755 2.000000
v 14.419873 -16.192755 2.000000
v 16.195713 -13.312925 2.000000
v -17.522724 -2.594221 4.000000
v -3.990528 -2.237674 4.000000
v -3.504544 1.933672 4.000000
v -2.255317 0.357128 2.000000
v -2.255317 -4.193580 2.000000
v -1.525702 -0.766669 4.000000
v -1.525702 -4.722628 4.000000
v -2.255317 -5.947209 2.000000
v -17.522724 6.747553 4.000000
v -15.497819 9.424096 4.000000
v -16.592766 -4.226879 2.000000
v -6.659336 9.960760 2.000000
v 6.538527 9.960760 2.000000
v -4.971708 9.960760 2.000000
v 4.939278 9.960760 2.000000
v -4.943823 16.774717 2.000000
v -6.659336 14.978295 2.000000
v 6.538527 14.988691 2.000000
v 4.985393 16.598316 2.000000
v -4.036691 15.115688 2.000000
v -4.946843 14.300990 2.000000
v 4.963451 14.261712 2.000000
v 3.954452 15.188246 2.000000
vt 0.109347 0.981525
vt 0.109337 0.981515
vt 0.109690 0.954013
vt 0.109347 0.981492
vt 0.105613 0.920373
vt 0.105613 0.920166
vt 0.105642 0.920108
vt 0.109456 0.981504
vt 0.109457 0.981581
vt 0.109808 0.954027
vt 0.109466 0.981588
vt 0.109466 0.981504
vt 0.109450 0.981612
vt 0.109441 0.981602
vt 0.109820 0.954027
vt 0.109293 0.981525
vt 0.105411 0.920431
vt 0.105454 0.920373
vt 0.105454 0.920166
vt 0.105411 0.920107
vt 0.109518 0.953953
vt 0.109542 0.953929
vt 0.109553 0.953938
vt 0.109531 0.953961
vt 0.109800 0.953930
vt 0.109790 0.953939
vt 0.109820 0.953953
vt 0.109808 0.953961
vt 0.109293 0.981492
vt 0.109302 0.981480
vt 0.109183 0.981581
vt 0.109183 0.981504
vt 0.109531 0.954027
vt 0.109170 0.981588
vt 0.109171 0.981504
vt 0.109187 0.981613
vt 0.109199 0.981602
vt 0.109185 0.981492
vt 0.106882 0.921204
vt 0.106793 0.921112
vt 0.106870 0.921077
vt 0.106928 0.921119
vt 0.106843 0.921232
vt 0.106752 0.921140
vt 0.107472 0.921110
vt 0.107392 0.921203
vt 0.107339 0.921120
vt 0.107403 0.921073
vt 0.107511 0.921126
vt 0.107420 0.921230
vt 0.106905 0.921025
vt 0.106960 0.921073
vt 0.107302 0.921072
vt 0.107356 0.921024
vt 0.106793 0.920894
vt 0.106752 0.920886
vt 0.107471 0.920893
vt 0.107510 0.920885
vt 0.106868 0.920894
vt 0.107401 0.920893
vt 0.106905 0.920886
vt 0.107355 0.920885
vt 0.109452 0.981492
vt 0.109518 0.954027
vt 0.109196 0.981492
vt 0.109650 0.954013
vt 0.109650 0.953998
vt 0.109441 0.981492
vt 0.105642 0.920198
vt 0.109690 0.953998
vt 0.105411 0.920197
vt 0.109302 0.981515
vt 0.105643 0.920431
vt 0.109337 0.981480
vt 0.109347 0.981525
vt 0.109337 0.981515
vt 0.109337 0.981480
vt 0.109347 0.981492
vt 0.105643 0.920431
vt 0.105613 0.920373
vt 0.105613 0.920166
vt 0.105642 0.920198
vt 0.105642 0.920108
vt 0.109456 0.981504
vt 0.109457 0.981581
vt 0.109441 0.981492
vt 0.109466 0.981588
vt 0.109466 0.981504
vt 0.109450 0.981612
vt 0.109441 0.981602
vt 0.109452 0.981492
vt 0.109293 0.981525
vt 0.109302 0.981515
vt 0.105411 0.920431
vt 0.105454 0.920373
vt 0.105454 0.920166
vt 0.105411 0.920107
vt 0.109518 0.953953
vt 0.109542 0.953929
vt 0.109553 0.953938
vt 0.109531 0.953961
vt 0.109800 0.953930
vt 0.109790 0.953939
vt 0.109820 0.953953
vt 0.109808 0.953961
vt 0.109293 0.981492
vt 0.109302 0.981480
vt 0.105411 0.920197
vt 0.109183 0.981581
vt 0.109183 0.981504
vt 0.109196 0.981492
vt 0.109170 0.981588
vt 0.109171 0.981504
vt 0.109187 0.981613
vt 0.109199 0.981602
vt 0.109185 0.981492
vt 0.106882 0.921204
vt 0.106793 0.921112
vt 0.106870 0.921077
vt 0.106928 0.921119
vt 0.106843 0.921232
vt 0.106752 0.921140
vt 0.107472 0.921110
vt 0.107392 0.921203
vt 0.107339 0.921120
vt 0.107403 0.921073
vt 0.107511 0.921126
vt 0.107420 0.921230
vt 0.106905 0.921025
vt 0.106960 0.921073
vt 0.107302 0.921072
vt 0.107356 0.921024
vt 0.106793 0.920894
vt 0.106752 0.920886
vt 0.107471 0.920893
vt 0.107510 0.920885
vt 0.106868 0.920894
vt 0.107401 0.920893
vt 0.106905 0.920886
vt 0.107355 0.920885
vt 0.109531 0.954027
vt 0.109518 0.954027
vt 0.109808 0.954027
vt 0.109690 0.954013
vt 0.109690 0.953998
vt 0.109650 0.953998
vt 0.109650 0.954013
vt 0.109820 0.954027
vn -0.760538 -0.058799 -0.646625
vn -0.760538 -0.058799 -0.646625
vn -0.760538 -0.058799 -0.646625
vn -0.760538 -0.058799 -0.646625
vn 0.898828 0.042648 -0.436221
vn 0.898829 0.042648 -0.436221
vn 0.898829 0.042648 -0.436221
vn 0.898829 0.042648 -0.436221
vn 0.939440 0.000000 -0.342715
vn 0.939440 0.000000 -0.342715
vn 0.939440 0.000000 -0.342715
vn 0.000000 0.000000 -1.000000
vn 0.000000 0.000000 -1.000000
vn 0.000000 0.000000 -1.000000
vn 0.000000 0.000000 -1.000000
vn 0.005350 -0.764989 -0.644022
vn 0.005350 -0.764989 -0.644022
vn 0.005350 -0.764989 -0.644022
vn 0.005350 -0.764989 -0.644022
vn 0.891979 -0.016531 -0.451774
vn 0.891979 -0.016531 -0.451774
vn 0.891979 -0.016531 -0.451774
vn 0.891979 -0.016531 -0.451774
vn 0.707844 0.507369 -0.491462
vn 0.707844 0.507369 -0.491462
vn 0.707844 0.507369 -0.491462
vn 0.707844 0.507369 -0.491462
vn 0.671124 -0.583132 -0.457765
vn 0.671124 -0.583132 -0.457765
vn 0.671124 -0.583132 -0.457765
vn 0.671124 -0.583132 -0.457765
vn -0.020542 -0.813090 -0.581775
vn -0.020542 -0.813090 -0.581775
vn -0.020542 -0.813090 -0.581775
vn -0.020542 -0.813090 -0.581775
vn 0.034398 0.842109 -0.538210
vn 0.034398 0.842109 -0.538210
vn 0.034398 0.842109 -0.538210
vn 0.034398 0.842109 -0.538210
vn 0.000000 0.000000 -1.000000
vn 0.000000 0.000000 -1.000000
vn 0.000000 0.000000 -1.000000
vn 0.000000 0.000000 -1.000000
vn 0.000000 -0.852834 -0.522182
vn 0.000000 -0.852834 -0.522182
vn 0.000000 -0.852834 -0.522182
vn 0.000000 -0.852834 -0.522182
vn 0.000000 0.000000 -1.000000
vn 0.000000 0.000000 -1.000000
vn 0.000000 0.000000 -1.000000
vn -0.508225 -0.518683 -0.687514
vn -0.508224 -0.518683 -0.687514
vn -0.508225 -0.518683 -0.687514
vn -0.508225 -0.518683 -0.687514
vn 0.000000 -0.850795 -0.525498
vn 0.000000 -0.850795 -0.525498
vn 0.000000 -0.850795 -0.525498
vn 0.000000 -0.850795 -0.525498
vn 0.537010 -0.398861 -0.743324
vn 0.537010 -0.398861 -0.743324
vn 0.537010 -0.398861 -0.743324
vn 0.537010 -0.398861 -0.743324
vn 0.000000 0.000000 -1.000000
vn 0.000000 0.000000 -1.000000
vn 0.000000 0.000000 -1.000000
vn 0.000000 0.000000 -1.000000
vn 0.781911 -0.043567 -0.621866
vn 0.781911 -0.043567 -0.621866
vn 0.781911 -0.043567 -0.621866
vn 0.781911 -0.043567 -0.621866
vn -0.939440 0.000000 -0.342715
vn -0.939440 0.000000 -0.342715
vn -0.939440 0.000000 -0.342715
vn -0.939440 0.000000 -0.342715
vn -0.939440 0.000000 -0.342715
vn -0.939440 0.000000 -0.342715
vn -0.939440 0.000000 -0.342715
vn 0.000000 0.000000 -1.000000
vn 0.000000 0.000000 -1.000000
vn 0.000000 0.000000 -1.000000
vn 0.000000 0.000000 -1.000000
vn 0.010363 -0.740869 -0.671569
vn 0.010363 -0.740869 -0.671569
vn 0.010363 -0.740869 -0.671569
vn 0.010363 -0.740869 -0.671569
vn -0.907384 0.000000 -0.420303
vn -0.907384 0.000000 -0.420303
vn -0.907384 0.000000 -0.420303
vn -0.907384 0.000000 -0.420303
vn 0.000000 0.926341 -0.376686
vn 0.000000 0.926341 -0.376686
vn 0.000000 0.926341 -0.376686
vn 0.000000 0.926341 -0.376686
vn -0.707844 0.507369 -0.491462
vn -0.707844 0.507369 -0.491462
vn -0.707844 0.507369 -0.491462
vn -0.707844 0.507369 -0.491462
vn -0.658405 -0.643030 -0.391171
vn -0.658405 -0.643030 -0.391171
vn -0.658405 -0.643030 -0.391171
vn -0.658405 -0.643030 -0.391171
vn 0.000000 0.000000 -1.000000
vn 0.000000 0.000000 -1.000000
vn 0.000000 0.000000 -1.000000
vn -0.000000 0.000000 -1.000000
vn -0.000000 0.000000 -1.000000
vn -0.000000 0.000000 -1.000000
vn -0.000000 0.000000 -1.000000
vn -0.000000 0.000000 -1.000000
vn -0.000000 0.000000 -1.000000
vn -0.000000 0.000000 -1.000000
vn -0.000000 0.000000 -1.000000
vn -0.628665 0.613448 -0.477977
vn -0.628665 0.613448 -0.477977
vn -0.628665 0.613448 -0.477977
vn -0.628665 0.613448 -0.477977
vn -0.000000 0.000000 -1.000000
vn -0.000000 0.000000 -1.000000
vn -0.000000 0.000000 -1.000000
vn -0.000000 0.000000 -1.000000
vn 0.648804 0.578730 -0.494090
vn 0.648804 0.578730 -0.494090
vn 0.648804 0.578730 -0.494090
vn 0.648804 0.578730 -0.494090
vn 0.628188 -0.635722 -0.448596
vn 0.628188 -0.635722 -0.448596
vn 0.628188 -0.635722 -0.448596
vn 0.628188 -0.635722 -0.448596
vn -0.630500 -0.633540 -0.448438
vn -0.630500 -0.633540 -0.448438
vn -0.630500 -0.633540 -0.448438
vn -0.630500 -0.633540 -0.448438
vn -0.925903 0.000000 -0.377761
vn -0.925903 0.000000 -0.377761
vn -0.925903 0.000000 -0.377761
vn -0.925903 0.000000 -0.377761
vn 0.002756 0.911371 -0.411577
vn 0.002756 0.911371 -0.411577
vn 0.002756 0.911371 -0.411577
vn 0.002756 0.911371 -0.411577
vn 0.905582 0.000000 -0.424172
vn 0.905582 0.000000 -0.424172
vn 0.905582 0.000000 -0.424172
vn 0.905582 0.000000 -0.424172
vn -0.000000 0.000000 -1.000000
vn -0.000000 0.000000 -1.000000
vn -0.000000 0.000000 -1.000000
vn -0.000000 0.000000 -1.000000
vn 0.000000 0.000000 -1.000000
vn 0.000000 0.000000 -1.000000
vn 0.000000 0.000000 -1.000000
vn 0.000000 0.000000 -1.000000
vn 0.000000 0.000000 -1.000000
vn 0.000000 0.000000 -1.000000
vn 0.000000 0.000000 -1.000000
vn 0.000000 0.000000 -1.000000
vn 0.943094 -0.002981 -0.332513
vn 0.943094 -0.002981 -0.332513
vn 0.943094 -0.002981 -0.332513
vn 0.943094 -0.002981 -0.332513
vn 0.005737 -0.942427 -0.334362
vn 0.005737 -0.942427 -0.334362
vn 0.005737 -0.942427 -0.334362
vn 0.005737 -0.942427 -0.334362
vn -0.939797 0.002896 -0.341720
vn -0.939797 0.002896 -0.341720
vn -0.939797 0.002896 -0.341720
vn -0.939797 0.002896 -0.341720
vn -0.759703 0.000000 -0.650270
vn -0.759703 0.000000 -0.650270
vn -0.759703 0.000000 -0.650270
vn -0.759703 0.000000 -0.650270
vn 0.000000 0.000000 -1.000000
vn 0.000000 0.000000 -1.000000
vn 0.000000 0.000000 -1.000000
vn 0.000000 0.000000 -1.000000
vn 0.720515 -0.014634 -0.693285
vn 0.720515 -0.014634 -0.693285
vn 0.720515 -0.014634 -0.693285
vn 0.720515 -0.014634 -0.693285
vn -0.760538 -0.058799 0.646625
vn -0.760538 -0.058799 0.646625
vn -0.760538 -0.058799 0.646625
vn -0.760538 -0.058799 0.646625
vn 0.898829 0.042648 0.436221
vn 0.898829 0.042648 0.436221
vn 0.898829 0.042648 0.436221
vn 0.898829 0.042648 0.436221
vn 0.939440 0.000000 0.342715
vn 0.939440 0.000000 0.342715
vn 0.939440 0.000000 0.342715
vn -0.000000 0.000000 1.000000
vn -0.000000 0.000000 1.000000
vn -0.000000 0.000000 1.000000
vn -0.000000 0.000000 1.000000
vn 0.005350 -0.764989 0.644022
vn 0.005350 -0.764989 0.644022
vn 0.005350 -0.764989 0.644022
vn 0.005350 -0.764989 0.644022
vn 0.892490 -0.017041 0.450745
vn 0.892490 -0.017041 0.450745
vn 0.892490 -0.017041 0.450745
vn 0.892490 -0.017041 0.450745
vn 0.681979 0.488830 0.544013
vn 0.681979 0.488830 0.544013
vn 0.681979 0.488830 0.544013
vn 0.681979 0.488830 0.544013
vn 0.671124 -0.583132 0.457765
vn 0.671124 -0.583132 0.457765
vn 0.671124 -0.583132 0.457765
vn 0.671124 -0.583132 0.457765
vn -0.020542 -0.813090 0.581775
vn -0.020542 -0.813090 0.581775
vn -0.020542 -0.813090 0.581775
vn -0.020542 -0.813090 0.581775
vn 0.034398 0.842109 0.538210
vn 0.034398 0.842109 0.538210
vn 0.034398 0.842109 0.538210
vn 0.034398 0.842109 0.538210
vn 0.000000 0.000000 1.000000
vn 0.000000 0.000000 1.000000
vn 0.000000 0.000000 1.000000
vn 0.000000 0.000000 1.000000
vn 0.000000 -0.852834 0.522182
vn 0.000000 -0.852834 0.522182
vn 0.000000 -0.852834 0.522182
vn 0.000000 -0.852834 0.522182
vn 0.000000 0.000000 1.000000
vn 0.000000 0.000000 1.000000
vn 0.000000 0.000000 1.000000
vn -0.508225 -0.518683 0.687514
vn -0.508225 -0.518683 0.687514
vn -0.508225 -0.518683 0.687514
vn -0.508225 -0.518683 0.687514
vn 0.000000 -0.850795 0.525498
vn 0.000000 -0.850795 0.525498
vn 0.000000 -0.850795 0.525498
vn 0.000000 -0.850795 0.525498
vn 0.537010 -0.398861 0.743324
vn 0.537010 -0.398861 0.743324
vn 0.537010 -0.398861 0.743324
vn 0.537010 -0.398861 0.743324
vn 0.000000 0.000000 1.000000
vn 0.000000 0.000000 1.000000
vn 0.000000 0.000000 1.000000
vn 0.000000 0.000000 1.000000
vn 0.781911 -0.043567 0.621866
vn 0.781911 -0.043567 0.621866
vn 0.781911 -0.043567 0.621866
vn 0.781911 -0.043567 0.621866
vn -0.939439 0.000000 0.342715
vn -0.939439 0.000000 0.342715
vn -0.939440 0.000000 0.342715
vn -0.939440 0.000000 0.342715
vn -0.939440 0.000000 0.342715
vn -0.939440 0.000000 0.342715
vn -0.939440 0.000000 0.342715
vn 0.000000 0.000000 1.000000
vn 0.000000 0.000000 1.000000
vn 0.000000 0.000000 1.000000
vn 0.000000 0.000000 1.000000
vn 0.010363 -0.740869 0.671569
vn 0.010363 -0.740869 0.671569
vn 0.010363 -0.740869 0.671569
vn 0.010363 -0.740869 0.671569
vn -0.907384 0.000000 0.420303
vn -0.907384 0.000000 0.420303
vn -0.907384 0.000000 0.420303
vn -0.907384 0.000000 0.420303
vn 0.007954 0.901931 0.431807
vn 0.007954 0.901931 0.431807
vn 0.007954 0.901931 0.431807
vn 0.007954 0.901931 0.431807
vn -0.707844 0.507369 0.491462
vn -0.707844 0.507369 0.491462
vn -0.707844 0.507369 0.491462
vn -0.707844 0.507369 0.491462
vn -0.658405 -0.643030 0.391171
vn -0.658405 -0.643030 0.391171
vn -0.658405 -0.643030 0.391171
vn -0.658405 -0.643030 0.391172
vn 0.000000 0.000000 1.000000
vn 0.000000 0.000000 1.000000
vn 0.000000 0.000000 1.000000
vn -0.000000 0.000000 1.000000
vn -0.000000 0.000000 1.000000
vn -0.000000 0.000000 1.000000
vn -0.000000 0.000000 1.000000
vn -0.000000 0.000000 1.000000
vn -0.000000 0.000000 1.000000
vn -0.000000 0.000000 1.000000
vn -0.000000 0.000000 1.000000
vn -0.628665 0.613448 0.477977
vn -0.628665 0.613448 0.477977
vn -0.628665 0.613448 0.477977
vn -0.628665 0.613448 0.477977
vn -0.000000 0.000000 1.000000
vn -0.000000 0.000000 1.000000
vn -0.000000 0.000000 1.000000
vn -0.000000 0.000000 1.000000
vn 0.648804 0.578730 0.494090
vn 0.648804 0.578730 0.494091
vn 0.648804 0.578730 0.494090
vn 0.648804 0.578730 0.494090
vn 0.628188 -0.635722 0.448596
vn 0.628188 -0.635722 0.448596
vn 0.628188 -0.635722 0.448596
vn 0.628188 -0.635722 0.448596
vn -0.630500 -0.633540 0.448438
vn -0.630500 -0.633540 0.448438
vn -0.630500 -0.633540 0.448438
vn -0.630500 -0.633540 0.448438
vn -0.925903 0.000000 0.377761
vn -0.925903 0.000000 0.377761
vn -0.925903 0.000000 0.377761
vn -0.925903 0.000000 0.377761
vn 0.002756 0.911371 0.411577
vn 0.002756 0.911371 0.411577
vn 0.002756 0.911371 0.411577
vn 0.002756 0.911371 0.411577
vn 0.905582 0.000000 0.424172
vn 0.905582 0.000000 0.424172
vn 0.905582 0.000000 0.424172
vn 0.905582 0.000000 0.424172
vn -0.000000 0.000000 1.000000
vn -0.000000 0.000000 1.000000
vn -0.000000 0.000000 1.000000
vn -0.000000 0.000000 1.000000
vn 0.000000 0.000000 1.000000
vn 0.000000 0.000000 1.000000
vn 0.000000 0.000000 1.000000
vn 0.000000 0.000000 1.000000
vn 0.000000 0.000000 1.000000
vn 0.000000 0.000000 1.000000
vn 0.000000 0.000000 1.000000
vn 0.000000 0.000000 1.000000
vn 0.943094 -0.002981 0.332513
vn 0.943094 -0.002981 0.332513
vn 0.943094 -0.002981 0.332513
vn 0.943094 -0.002981 0.332513
vn 0.005737 -0.942427 0.334362
vn 0.005737 -0.942427 0.334362
vn 0.005737 -0.942427 0.334362
vn 0.005737 -0.942427 0.334362
vn -0.939797 0.002896 0.341720
vn -0.939797 0.002896 0.341720
vn -0.939797 0.002896 0.341720
vn -0.939797 0.002896 0.341720
vn -0.759703 0.000000 0.650270
vn -0.759703 0.000000 0.650270
vn -0.759703 0.000000 0.650270
vn -0.759703 0.000000 0.650270
vn 0.000000 0.000000 1.000000
vn 0.000000 0.000000 1.000000
vn 0.000000 0.000000 1.000000
vn 0.000000 0.000000 1.000000
vn 0.720515 -0.014634 0.693285
vn 0.720515 -0.014634 0.693285
vn 0.720515 -0.014634 0.693285
vn 0.720515 -0.014634 0.693285
vn 0.000000 0.000000 -1.000000
vn 0.000000 0.000000 -1.000000
vn 0.000000 0.000000 -1.000000
vn 0.000000 0.000000 -1.000000
vn -0.000000 0.000000 -1.000000
vn -0.000000 0.000000 -1.000000
vn -0.000000 0.000000 -1.000000
vn -0.000000 0.000000 -1.000000
vn 0.000000 0.000000 1.000000
vn 0.000000 0.000000 1.000000
vn 0.000000 0.000000 1.000000
vn 0.000000 0.000000 1.000000
vn 0.000000 0.000000 1.000000
vn 0.000000 0.000000 1.000000
vn 0.000000 0.000000 1.000000
vn 0.000000 0.000000 1.000000
s off
f 3/1/1 2/4/2 5/74/3 4/2/4
f 4/73/5 5/69/6 7/6/7 6/5/8
f 7/6/9 5/69/10 8/7/11
f 3/1/12 9/9/13 1/8/14 2/4/15
f 2/4/16 1/8/17 11/68/18 5/74/19
f 13/11/20 12/12/21 1/8/22 9/9/23
f 9/9/24 10/14/25 14/13/26 13/11/27
f 11/68/28 1/8/29 12/12/30 15/63/31
f 4/2/32 27/72/33 26/16/34 3/1/35
f 6/5/36 29/18/37 27/17/38 4/73/39
f 7/6/40 30/19/41 29/18/42 6/5/43
f 31/20/44 30/19/45 7/6/46 8/7/47
f 10/14/48 9/9/49 3/1/50
f 16/21/51 20/24/52 21/23/53 17/22/54
f 17/22/55 21/23/56 22/26/57 18/25/58
f 18/25/59 22/26/60 23/28/61 19/27/62
f 23/28/63 22/26/64 21/23/65 20/24/66
f 26/16/67 27/72/68 28/30/69 25/29/70
f 27/17/71 29/18/72 30/19/73 28/71/74
f 30/19/75 31/20/76 28/71/77
f 26/16/78 25/29/79 24/32/80 32/31/81
f 25/29/82 28/30/83 34/65/84 24/32/85
f 36/34/86 32/31/87 24/32/88 35/35/89
f 14/13/90 10/14/91 33/37/92 37/36/93
f 32/31/94 36/34/95 37/36/96 33/37/97
f 34/65/98 38/38/99 35/35/100 24/32/101
f 33/37/102 26/16/103 32/31/104
f 10/14/105 3/1/106 26/16/107 33/37/108
f 47/39/109 55/42/110 56/41/111 48/40/112
f 48/40/113 49/44/114 50/43/115 47/39/116
f 51/45/117 57/48/118 58/47/119 52/46/120
f 52/46/121 53/50/122 54/49/123 51/45/124
f 55/42/125 59/52/126 60/51/127 56/41/128
f 57/48/129 61/54/130 62/53/131 58/47/132
f 39/55/133 41/56/134 49/44/135 48/40/136
f 47/39/137 50/43/138 53/50/139 52/46/140
f 51/45/141 54/49/142 42/58/143 40/57/144
f 48/40/145 56/41/146 43/59/147 39/55/148
f 52/46/149 58/47/150 55/42/151 47/39/152
f 40/57/153 44/60/154 57/48/155 51/45/156
f 56/41/157 60/51/158 45/61/159 43/59/160
f 58/47/161 62/53/162 59/52/163 55/42/164
f 44/60/165 46/62/166 61/54/167 57/48/168
f 34/33/169 20/24/170 16/21/171 38/64/172
f 8/70/173 23/28/174 20/24/175 31/67/176
f 19/27/177 23/28/178 11/10/179 15/15/180
f 65/75/181 66/76/182 67/77/183 64/78/184
f 66/79/185 68/80/186 69/81/187 67/82/188
f 69/81/189 70/83/190 67/82/191
f 65/75/192 64/78/193 63/84/194 71/85/195
f 64/78/196 67/77/197 73/86/198 63/84/199
f 13/87/200 71/85/201 63/84/202 12/88/203
f 71/85/204 13/87/205 14/89/206 72/90/207
f 73/86/208 15/91/209 12/88/210 63/84/211
f 66/76/212 65/75/213 80/92/214 81/93/215
f 68/80/216 66/79/217 81/94/218 83/95/219
f 69/81/220 68/80/221 83/95/222 84/96/223
f 85/97/224 70/83/225 69/81/226 84/96/227
f 72/90/228 65/75/229 71/85/230
f 16/98/231 17/99/232 75/100/233 74/101/234
f 17/99/235 18/102/236 76/103/237 75/100/238
f 18/102/239 19/104/240 77/105/241 76/103/242
f 77/105/243 74/101/244 75/100/245 76/103/246
f 80/92/247 79/106/248 82/107/249 81/93/250
f 81/94/251 82/108/252 84/96/253 83/95/254
f 84/96/255 82/108/256 85/97/257
f 80/92/258 86/109/259 78/110/260 79/106/261
f 79/106/262 78/110/263 88/111/264 82/107/265
f 36/112/266 35/113/267 78/110/268 86/109/269
f 14/89/270 37/114/271 87/115/272 72/90/273
f 86/109/274 87/115/275 37/114/276 36/112/277
f 88/111/278 78/110/279 35/113/280 38/116/281
f 87/115/282 86/109/283 80/92/284
f 72/90/285 87/115/286 80/92/287 65/75/288
f 93/117/289 94/118/290 98/119/291 97/120/292
f 94/118/293 93/117/294 50/121/295 49/122/296
f 95/123/297 96/124/298 100/125/299 99/126/300
f 96/124/301 95/123/302 54/127/303 53/128/304
f 97/120/305 98/119/306 60/129/307 59/130/308
f 99/126/309 100/125/310 62/131/311 61/132/312
f 89/133/313 94/118/314 49/122/315 41/134/316
f 93/117/317 96/124/318 53/128/319 50/121/320
f 95/123/321 90/135/322 42/136/323 54/127/324
f 94/118/325 89/133/326 91/137/327 98/119/328
f 96/124/329 93/117/330 97/120/331 100/125/332
f 90/135/333 95/123/334 99/126/335 92/138/336
f 98/119/337 91/137/338 45/139/339 60/129/340
f 100/125/341 97/120/342 59/130/343 62/131/344
f 92/138/345 99/126/346 61/132/347 46/140/348
f 88/141/349 38/142/350 16/98/351 74/101/352
f 74/101/353 85/146/354 82/147/355 88/141/356
f 19/104/357 15/148/358 73/143/359 77/105/360
f 11/10/361 23/28/362 8/70/363 5/3/364
f 31/67/365 20/24/366 34/33/367 28/66/368
f 73/143/369 67/144/370 70/145/371 77/105/372
f 77/105/373 70/145/374 85/146/375 74/101/376
