# This file uses centimeters as units for non-parametric coordinates.

v -17.408382 -6.906769 2.000000
v -8.504375 6.472237 2.000000
v -15.326435 2.710457 2.000000
v -4.937969 -15.180206 2.000000
v -3.226284 13.469650 2.000000
v 5.549488 15.609070 2.000000
v 14.687428 12.387390 2.000000
v 18.320164 4.789589 2.000000
v 18.082539 -4.540398 2.000000
v 11.952778 -10.993813 2.000000
v 3.092930 -11.385323 2.000000
v -14.830769 -12.765907 2.000000
v 11.329624 7.570396 2.000000
v 13.529881 2.240196 2.000000
v 11.902485 -4.494461 2.000000
v 4.956699 -6.828796 2.000000
v -1.607861 -3.952675 2.000000
v -3.113354 1.107002 2.000000
v -0.334209 7.031929 2.000000
v 4.484257 9.600525 2.000000
v 4.882435 6.507126 4.000000
v 9.451374 5.100708 4.000000
v 1.366428 4.727470 4.000000
v -0.559994 0.928062 4.000000
v 0.483555 -2.314217 4.000000
v 5.033894 -4.307846 4.000000
v 9.142826 -2.689529 4.000000
v 10.270893 1.978691 4.000000
v -9.829556 8.044022 0.000000
v -17.304241 3.530975 0.000000
v -19.658298 -7.053108 0.000000
v -3.973721 14.613304 0.000000
v 4.960377 17.467033 0.000000
v 15.630085 13.376328 0.000000
v 19.658283 4.329636 0.000000
v 19.344395 -5.064201 0.000000
v 12.569843 -12.212769 0.000000
v 3.471699 -13.429695 0.000000
v -5.161922 -17.467033 0.000000
v -16.039875 -14.752953 0.000000
v -17.408382 -6.906769 -2.000000
v -8.504375 6.472237 -2.000000
v -15.326435 2.710457 -2.000000
v -4.937969 -15.180206 -2.000000
v -3.226284 13.469650 -2.000000
v 5.549488 15.609070 -2.000000
v 14.687428 12.387390 -2.000000
v 18.320164 4.789589 -2.000000
v 18.082539 -4.540398 -2.000000
v 11.952778 -10.993813 -2.000000
v 3.092930 -11.385323 -2.000000
v -14.830769 -12.765907 -2.000000
v 11.329624 7.570396 -2.000000
v 13.529881 2.240196 -2.000000
v 11.902485 -4.494461 -2.000000
v 4.956699 -6.828796 -2.000000
v -1.607861 -3.952675 -2.000000
v -3.113354 1.107002 -2.000000
v -0.334209 7.031929 -2.000000
v 4.484257 9.600525 -2.000000
v 4.882435 6.507126 -4.000000
v 9.451374 5.100708 -4.000000
v 1.366428 4.727470 -4.000000
v -0.559994 0.928062 -4.000000
v 0.483555 -2.314217 -4.000000
v 5.033894 -4.307846 -4.000000
v 9.142826 -2.689529 -4.000000
v 10.270893 1.978691 -4.000000
vt 0.983363 0.984485
vt 0.983340 0.984522
vt 0.143059 0.983077
vt 0.983316 0.984474
vt 0.142987 0.983099
vt 0.983267 0.984491
vt 0.143005 0.983123
vt 0.143054 0.983108
vt 0.143091 0.983127
vt 0.143112 0.983159
vt 0.143101 0.983203
vt 0.143052 0.983224
vt 0.143008 0.983207
vt 0.142996 0.983157
vt 0.983353 0.984545
vt 0.983346 0.984572
vt 0.983316 0.984585
vt 0.983285 0.984574
vt 0.983277 0.984543
vt 0.983439 0.984542
vt 0.983391 0.984522
vt 0.983397 0.984515
vt 0.983443 0.984538
vt 0.983450 0.984595
vt 0.983456 0.984595
vt 0.983367 0.984480
vt 0.983320 0.984465
vt 0.983264 0.984487
vt 0.983248 0.984531
vt 0.983243 0.984534
vt 0.983249 0.984581
vt 0.983244 0.984583
vt 0.983282 0.984616
vt 0.983280 0.984621
vt 0.983329 0.984618
vt 0.983327 0.984627
vt 0.983377 0.984640
vt 0.983378 0.984651
vt 0.983431 0.984627
vt 0.983436 0.984636
vt 0.983318 0.984510
vt 0.983287 0.984519
vt 0.143110 0.983104
vt 0.143139 0.983157
vt 0.143123 0.983220
vt 0.143054 0.983250
vt 0.142981 0.983225
vt 0.142964 0.983155
vt 0.983363 0.984485
vt 0.983340 0.984522
vt 0.983318 0.984510
vt 0.983316 0.984474
vt 0.983287 0.984519
vt 0.983267 0.984491
vt 0.143005 0.983123
vt 0.143091 0.983127
vt 0.143112 0.983159
vt 0.142996 0.983157
vt 0.142987 0.983099
vt 0.143059 0.983077
vt 0.143054 0.983108
vt 0.143110 0.983104
vt 0.143139 0.983157
vt 0.143123 0.983220
vt 0.143101 0.983203
vt 0.143054 0.983250
vt 0.143052 0.983224
vt 0.142981 0.983225
vt 0.143008 0.983207
vt 0.142964 0.983155
vt 0.983439 0.984542
vt 0.983391 0.984522
vt 0.983397 0.984515
vt 0.983443 0.984538
vt 0.983450 0.984595
vt 0.983456 0.984595
vt 0.983367 0.984480
vt 0.983320 0.984465
vt 0.983264 0.984487
vt 0.983248 0.984531
vt 0.983243 0.984534
vt 0.983249 0.984581
vt 0.983244 0.984583
vt 0.983282 0.984616
vt 0.983280 0.984621
vt 0.983329 0.984618
vt 0.983327 0.984627
vt 0.983377 0.984640
vt 0.983378 0.984651
vt 0.983431 0.984627
vt 0.983436 0.984636
vt 0.983353 0.984545
vt 0.983277 0.984543
vt 0.983285 0.984574
vt 0.983316 0.984585
vt 0.983346 0.984572
vn 0.000000 0.000000 1.000000
vn 0.000000 0.000000 1.000000
vn 0.000000 0.000000 1.000000
vn 0.000000 0.000000 1.000000
vn 0.000000 0.000000 1.000000
vn 0.000000 0.000000 1.000000
vn 0.000000 0.000000 1.000000
vn 0.000000 0.000000 1.000000
vn 0.000000 0.000000 1.000000
vn 0.000000 0.000000 1.000000
vn 0.000000 0.000000 1.000000
vn 0.000000 0.000000 1.000000
vn 0.164564 0.546589 0.821072
vn 0.164564 0.546589 0.821072
vn 0.164564 0.546589 0.821072
vn 0.164564 0.546589 0.821072
vn -0.263946 0.505915 0.821208
vn -0.263946 0.505915 0.821208
vn -0.263946 0.505915 0.821208
vn -0.263946 0.505915 0.821208
vn -0.568471 0.275081 0.775352
vn -0.568471 0.275081 0.775352
vn -0.568471 0.275081 0.775352
vn -0.568471 0.275081 0.775352
vn -0.606855 -0.186329 0.772664
vn -0.606855 -0.186329 0.772664
vn -0.606855 -0.186329 0.772664
vn -0.606855 -0.186329 0.772664
vn -0.260732 -0.595105 0.760177
vn -0.260732 -0.595105 0.760177
vn -0.260732 -0.595105 0.760177
vn -0.260732 -0.595105 0.760177
vn 0.210927 -0.589917 0.779428
vn 0.210927 -0.589917 0.779428
vn 0.210927 -0.589917 0.779428
vn 0.210927 -0.589917 0.779428
vn 0.526193 -0.127153 0.840805
vn 0.526193 -0.127153 0.840805
vn 0.526193 -0.127153 0.840805
vn 0.526193 -0.127153 0.840805
vn 0.537354 0.191984 0.821214
vn 0.537354 0.191984 0.821214
vn 0.537354 0.191984 0.821214
vn 0.537354 0.191984 0.821214
vn -0.366588 0.633369 0.681511
vn -0.366588 0.633369 0.681511
vn -0.366588 0.633369 0.681511
vn -0.366588 0.633369 0.681511
vn -0.667419 0.146559 0.730118
vn -0.667419 0.146559 0.730118
vn -0.667419 0.146559 0.730118
vn -0.667419 0.146559 0.730118
vn -0.594465 0.487866 0.639217
vn -0.594465 0.487866 0.639217
vn -0.594465 0.487866 0.639217
vn -0.594465 0.487866 0.639217
vn -0.210565 0.746839 0.630789
vn -0.210565 0.746839 0.630789
vn -0.210565 0.746839 0.630789
vn -0.210565 0.746839 0.630789
vn 0.283947 0.769151 0.572521
vn 0.283947 0.769151 0.572521
vn 0.283947 0.769151 0.572521
vn 0.283947 0.769151 0.572521
vn 0.788089 0.362732 0.497334
vn 0.788089 0.362732 0.497334
vn 0.788089 0.362732 0.497334
vn 0.788089 0.362732 0.497334
vn 0.835416 -0.024607 0.549067
vn 0.835416 -0.024607 0.549067
vn 0.835416 -0.024607 0.549067
vn 0.835416 -0.024607 0.549067
vn 0.610863 -0.579530 0.539436
vn 0.610863 -0.579530 0.539436
vn 0.610863 -0.579530 0.539436
vn 0.610863 -0.579530 0.539436
vn 0.068484 -0.764611 0.640844
vn 0.068484 -0.764611 0.640843
vn 0.068484 -0.764611 0.640844
vn 0.068484 -0.764611 0.640844
vn 0.301311 -0.641095 0.705839
vn 0.301311 -0.641095 0.705839
vn 0.301311 -0.641095 0.705839
vn 0.301311 -0.641095 0.705839
vn -0.640507 -0.292692 0.709988
vn -0.640507 -0.292692 0.709988
vn -0.640507 -0.292692 0.709988
vn -0.640507 -0.292692 0.709988
vn -0.159394 -0.645573 0.746880
vn -0.159394 -0.645573 0.746880
vn -0.159394 -0.645573 0.746880
vn -0.159394 -0.645573 0.746880
vn 0.000000 0.000000 1.000000
vn 0.000000 0.000000 1.000000
vn 0.000000 0.000000 1.000000
vn 0.000000 0.000000 1.000000
vn 0.000000 0.000000 1.000000
vn 0.000000 0.000000 1.000000
vn 0.000000 0.000000 1.000000
vn 0.000000 0.000000 1.000000
vn 0.000000 0.000000 1.000000
vn 0.000000 0.000000 1.000000
vn 0.000000 0.000000 1.000000
vn 0.000000 0.000000 1.000000
vn 0.000000 0.000000 1.000000
vn 0.000000 0.000000 1.000000
vn 0.000000 0.000000 1.000000
vn 0.000000 0.000000 1.000000
vn 0.000000 0.000000 1.000000
vn 0.000000 0.000000 1.000000
vn 0.000000 0.000000 1.000000
vn 0.000000 0.000000 1.000000
vn 0.000000 0.000000 1.000000
vn 0.000000 0.000000 1.000000
vn 0.000000 0.000000 1.000000
vn -0.000000 -0.000000 1.000000
vn -0.000000 -0.000000 1.000000
vn -0.000000 -0.000000 1.000000
vn 0.000000 -0.000000 1.000000
vn 0.000000 -0.000000 1.000000
vn 0.000000 -0.000000 1.000000
vn -0.000000 -0.000000 1.000000
vn -0.000000 -0.000000 1.000000
vn -0.000000 -0.000000 1.000000
vn -0.000000 -0.000000 1.000000
vn -0.000000 0.000000 1.000000
vn -0.000000 0.000000 1.000000
vn -0.000000 0.000000 1.000000
vn 0.000000 0.000000 1.000000
vn 0.000000 0.000000 1.000000
vn 0.000000 0.000000 1.000000
vn 0.000000 0.000000 1.000000
vn 0.000000 0.000000 1.000000
vn 0.000000 0.000000 1.000000
vn 0.000000 0.000000 1.000000
vn 0.000000 0.000000 1.000000
vn 0.000000 0.000000 1.000000
vn 0.000000 0.000000 1.000000
vn 0.000000 0.000000 -1.000000
vn 0.000000 0.000000 -1.000000
vn 0.000000 0.000000 -1.000000
vn 0.000000 0.000000 -1.000000
vn 0.000000 0.000000 -1.000000
vn 0.000000 0.000000 -1.000000
vn 0.000000 0.000000 -1.000000
vn 0.000000 0.000000 -1.000000
vn 0.000000 0.000000 -1.000000
vn 0.000000 0.000000 -1.000000
vn 0.000000 0.000000 -1.000000
vn 0.000000 0.000000 -1.000000
vn 0.164563 0.546589 -0.821072
vn 0.164564 0.546589 -0.821072
vn 0.164564 0.546589 -0.821072
vn 0.164563 0.546589 -0.821072
vn -0.263946 0.505915 -0.821208
vn -0.263946 0.505915 -0.821208
vn -0.263946 0.505915 -0.821208
vn -0.263946 0.505915 -0.821208
vn -0.568471 0.275081 -0.775352
vn -0.568471 0.275081 -0.775352
vn -0.568471 0.275081 -0.775352
vn -0.568471 0.275081 -0.775352
vn -0.606855 -0.186329 -0.772664
vn -0.606855 -0.186329 -0.772664
vn -0.606855 -0.186329 -0.772664
vn -0.606855 -0.186329 -0.772664
vn -0.260732 -0.595105 -0.760177
vn -0.260732 -0.595105 -0.760177
vn -0.260732 -0.595105 -0.760177
vn -0.260732 -0.595105 -0.760177
vn 0.210927 -0.589917 -0.779428
vn 0.210927 -0.589917 -0.779428
vn 0.210927 -0.589917 -0.779428
vn 0.210927 -0.589917 -0.779428
vn 0.526193 -0.127153 -0.840805
vn 0.526193 -0.127153 -0.840805
vn 0.526193 -0.127153 -0.840805
vn 0.526193 -0.127153 -0.840805
vn 0.537354 0.191984 -0.821214
vn 0.537354 0.191984 -0.821214
vn 0.537354 0.191984 -0.821215
vn 0.537354 0.191984 -0.821215
vn -0.366588 0.633369 -0.681511
vn -0.366588 0.633369 -0.681511
vn -0.366588 0.633369 -0.681511
vn -0.366588 0.633369 -0.681511
vn -0.667419 0.146559 -0.730118
vn -0.667419 0.146559 -0.730118
vn -0.667419 0.146559 -0.730118
vn -0.667419 0.146559 -0.730118
vn -0.594465 0.487866 -0.639217
vn -0.594465 0.487866 -0.639217
vn -0.594465 0.487866 -0.639217
vn -0.594465 0.487866 -0.639217
vn -0.210565 0.746839 -0.630789
vn -0.210565 0.746839 -0.630789
vn -0.210565 0.746839 -0.630789
vn -0.210565 0.746839 -0.630789
vn 0.283947 0.769151 -0.572522
vn 0.283947 0.769151 -0.572522
vn 0.283947 0.769151 -0.572522
vn 0.283947 0.769151 -0.572521
vn 0.788089 0.362732 -0.497334
vn 0.788089 0.362732 -0.497334
vn 0.788089 0.362732 -0.497334
vn 0.788089 0.362732 -0.497334
vn 0.835416 -0.024607 -0.549067
vn 0.835416 -0.024607 -0.549067
vn 0.835416 -0.024607 -0.549067
vn 0.835416 -0.024607 -0.549067
vn 0.610863 -0.579530 -0.539436
vn 0.610863 -0.579530 -0.539436
vn 0.610863 -0.579530 -0.539436
vn 0.610863 -0.579530 -0.539436
vn 0.068484 -0.764611 -0.640844
vn 0.068484 -0.764611 -0.640844
vn 0.068484 -0.764611 -0.640844
vn 0.068484 -0.764611 -0.640844
vn 0.301311 -0.641095 -0.705839
vn 0.301311 -0.641095 -0.705839
vn 0.301311 -0.641095 -0.705839
vn 0.301311 -0.641095 -0.705839
vn -0.640507 -0.292692 -0.709988
vn -0.640507 -0.292692 -0.709988
vn -0.640507 -0.292692 -0.709988
vn -0.640507 -0.292692 -0.709988
vn -0.159394 -0.645573 -0.746880
vn -0.159394 -0.645573 -0.746880
vn -0.159394 -0.645573 -0.746880
vn -0.159394 -0.645573 -0.746880
vn 0.000000 0.000000 -1.000000
vn 0.000000 0.000000 -1.000000
vn 0.000000 0.000000 -1.000000
vn 0.000000 0.000000 -1.000000
vn 0.000000 0.000000 -1.000000
vn 0.000000 0.000000 -1.000000
vn 0.000000 0.000000 -1.000000
vn 0.000000 0.000000 -1.000000
vn 0.000000 0.000000 -1.000000
vn 0.000000 0.000000 -1.000000
vn 0.000000 0.000000 -1.000000
vn 0.000000 0.000000 -1.000000
vn 0.000000 0.000000 -1.000000
vn 0.000000 0.000000 -1.000000
vn 0.000000 0.000000 -1.000000
vn 0.000000 0.000000 -1.000000
vn 0.000000 0.000000 -1.000000
vn 0.000000 0.000000 -1.000000
vn 0.000000 0.000000 -1.000000
vn 0.000000 0.000000 -1.000000
vn 0.000000 0.000000 -1.000000
vn 0.000000 0.000000 -1.000000
vn 0.000000 0.000000 -1.000000
vn -0.000000 -0.000000 -1.000000
vn -0.000000 -0.000000 -1.000000
vn -0.000000 -0.000000 -1.000000
vn 0.000000 -0.000000 -1.000000
vn 0.000000 -0.000000 -1.000000
vn 0.000000 -0.000000 -1.000000
vn -0.000000 -0.000000 -1.000000
vn -0.000000 -0.000000 -1.000000
vn -0.000000 -0.000000 -1.000000
vn -0.000000 -0.000000 -1.000000
vn -0.000000 0.000000 -1.000000
vn -0.000000 0.000000 -1.000000
vn -0.000000 0.000000 -1.000000
vn 0.000000 0.000000 -1.000000
vn 0.000000 0.000000 -1.000000
vn 0.000000 0.000000 -1.000000
vn 0.000000 0.000000 -1.000000
vn 0.000000 0.000000 -1.000000
vn 0.000000 0.000000 -1.000000
vn 0.000000 0.000000 -1.000000
vn 0.000000 0.000000 -1.000000
vn 0.000000 0.000000 -1.000000
vn 0.000000 0.000000 -1.000000
s off
f 5/1/1 19/2/2 20/41/3 6/4/4
f 6/4/5 20/41/6 13/42/7 7/6/8
f 22/7/9 23/9/10 24/10/11 28/14/12
f 13/5/13 20/3/14 21/8/15 22/7/16
f 20/3/17 19/43/18 23/9/19 21/8/20
f 19/43/21 18/44/22 24/10/23 23/9/24
f 18/44/25 17/45/26 25/11/27 24/10/28
f 17/45/29 16/46/30 26/12/31 25/11/32
f 16/46/33 15/47/34 27/13/35 26/12/36
f 15/47/37 14/48/38 28/14/39 27/13/40
f 14/48/41 13/5/42 22/7/43 28/14/44
f 3/20/45 2/21/46 29/22/47 30/23/48
f 1/24/49 3/20/50 30/23/51 31/25/52
f 2/21/53 5/1/54 32/26/55 29/22/56
f 5/1/57 6/4/58 33/27/59 32/26/60
f 6/4/61 7/6/62 34/28/63 33/27/64
f 7/6/65 8/29/66 35/30/67 34/28/68
f 8/29/69 9/31/70 36/32/71 35/30/72
f 9/31/73 10/33/74 37/34/75 36/32/76
f 10/33/77 11/35/78 38/36/79 37/34/80
f 11/35/81 4/37/82 39/38/83 38/36/84
f 12/39/85 1/24/86 31/25/87 40/40/88
f 4/37/89 12/39/90 40/40/91 39/38/92
f 2/21/93 18/15/94 19/2/95 5/1/96
f 14/19/97 8/29/98 7/6/99 13/42/100
f 15/18/101 9/31/102 8/29/103 14/19/104
f 16/17/105 10/33/106 9/31/107 15/18/108
f 16/17/109 11/35/110 10/33/111
f 3/20/112 17/16/113 18/15/114 2/21/115
f 1/24/116 17/16/117 3/20/118
f 4/37/119 17/16/120 12/39/121
f 11/35/122 16/17/123 17/16/124 4/37/125
f 12/39/126 17/16/127 1/24/128
f 28/14/129 24/10/130 25/11/131 27/13/132
f 22/7/133 21/8/134 23/9/135
f 27/13/136 25/11/137 26/12/138
f 45/49/139 46/52/140 60/51/141 59/50/142
f 46/52/143 47/54/144 53/53/145 60/51/146
f 62/55/147 68/58/148 64/57/149 63/56/150
f 53/59/151 62/55/152 61/61/153 60/60/154
f 60/60/155 61/61/156 63/56/157 59/62/158
f 59/62/159 63/56/160 64/57/161 58/63/162
f 58/63/163 64/57/164 65/65/165 57/64/166
f 57/64/167 65/65/168 66/67/169 56/66/170
f 56/66/171 66/67/172 67/69/173 55/68/174
f 55/68/175 67/69/176 68/58/177 54/70/178
f 54/70/179 68/58/180 62/55/181 53/59/182
f 43/71/183 30/74/184 29/73/185 42/72/186
f 41/75/187 31/76/188 30/74/189 43/71/190
f 42/72/191 29/73/192 32/77/193 45/49/194
f 45/49/195 32/77/196 33/78/197 46/52/198
f 46/52/199 33/78/200 34/79/201 47/54/202
f 47/54/203 34/79/204 35/81/205 48/80/206
f 48/80/207 35/81/208 36/83/209 49/82/210
f 49/82/211 36/83/212 37/85/213 50/84/214
f 50/84/215 37/85/216 38/87/217 51/86/218
f 51/86/219 38/87/220 39/89/221 44/88/222
f 52/90/223 40/91/224 31/76/225 41/75/226
f 44/88/227 39/89/228 40/91/229 52/90/230
f 42/72/231 45/49/232 59/50/233 58/92/234
f 54/93/235 53/53/236 47/54/237 48/80/238
f 55/94/239 54/93/240 48/80/241 49/82/242
f 56/95/243 55/94/244 49/82/245 50/84/246
f 56/95/247 50/84/248 51/86/249
f 43/71/250 42/72/251 58/92/252 57/96/253
f 41/75/254 43/71/255 57/96/256
f 44/88/257 52/90/258 57/96/259
f 51/86/260 44/88/261 57/96/262 56/95/263
f 52/90/264 41/75/265 57/96/266
f 68/58/267 67/69/268 65/65/269 64/57/270
f 62/55/271 63/56/272 61/61/273
f 67/69/274 66/67/275 65/65/276
