# This file uses centimeters as units for non-parametric coordinates.

v -4.136806 -11.155755 -2.000000
v 4.199187 -11.210340 -2.000000
v -3.863880 -10.035694 -2.000000
v 3.871678 -3.073238 -2.000000
v -5.012918 -12.885481 0.000000
v 5.012918 -12.885481 0.000000
v -5.012918 -10.167159 0.000000
v 5.012918 -1.823277 0.000000
v -10.005720 -19.241890 0.000000
v 10.005720 -19.063160 0.000000
v -9.737622 14.793868 0.000000
v 9.782306 14.525771 0.000000
v -8.713521 13.726312 -4.000000
v -8.907493 -18.024384 -4.000000
v 8.597138 13.532340 -4.000000
v 8.752316 -17.896225 -4.000000
v -6.763441 -15.458085 -4.000000
v -6.647058 10.966043 -4.000000
v 6.647058 -15.419290 -4.000000
v 6.647058 11.160014 -4.000000
v -6.136722 -14.665077 0.000000
v -6.418101 10.472727 0.000000
v 5.815003 -14.860218 0.000000
v 6.338407 10.692703 0.000000
v -4.136806 13.520734 -2.000000
v 4.199187 13.506648 -2.000000
v -3.512471 17.679462 -2.000000
v 3.708773 18.163559 -2.000000
v -5.012918 13.074382 0.000000
v 5.012918 13.074382 0.000000
v -4.594336 19.197662 0.000000
v 4.591784 19.241890 0.000000
v -4.136806 -11.155755 2.000000
v 4.199187 -11.210340 2.000000
v -3.987428 -10.035694 2.000000
v 3.871678 -4.118977 2.000000
v -8.713521 13.726312 4.000000
v -8.907493 -18.024384 4.000000
v 8.597138 13.532340 4.000000
v 8.752316 -17.896225 4.000000
v -6.763441 -15.458085 4.000000
v -6.647058 10.966043 4.000000
v 6.647058 -15.419290 4.000000
v 6.647058 11.160014 4.000000
v -4.136806 13.520734 2.000000
v 4.199187 13.506648 2.000000
v -3.512471 17.679462 2.000000
v 3.708773 18.163559 2.000000
v 9.847245 4.762509 0.000000
v 8.642243 4.397030 -4.000000
v 6.647058 3.434234 -4.000000
v 6.186270 3.265261 0.000000
v 6.600998 3.434234 4.000000
v 8.365299 4.397030 4.000000
v -9.934053 -10.143622 0.000000
v -8.670407 -9.536944 4.000000
v -6.732330 -8.394519 4.000000
v -6.211938 -7.945365 0.000000
v -6.732330 -8.394519 -4.000000
v -8.855640 -9.536944 -4.000000
v 4.205844 -19.114960 0.000000
v 3.634009 -17.933369 -4.000000
v 2.760320 -15.430533 -4.000000
v 2.351059 -14.707549 0.000000
v 2.760320 -15.339223 4.000000
v 3.634009 -17.795874 4.000000
vt 0.081245 0.981195
vt 0.081245 0.978662
vt 0.081245 0.978655
vt 0.081245 0.981216
vt 0.083846 0.978428
vt 0.083846 0.978428
vt 0.083846 0.981385
vt 0.083846 0.981385
vt 0.083846 0.982170
vt 0.083846 0.977569
vt 0.078644 0.977734
vt 0.078644 0.982026
vt 0.083846 0.977593
vt 0.078644 0.977751
vt 0.078644 0.981999
vt 0.083846 0.982134
vt 0.078644 0.978081
vt 0.078644 0.981652
vt 0.078644 0.978086
vt 0.078644 0.981679
vt 0.083846 0.978188
vt 0.083846 0.981586
vt 0.083846 0.978161
vt 0.083846 0.981615
vt 0.081245 0.982560
vt 0.081245 0.981998
vt 0.081245 0.981996
vt 0.081245 0.982625
vt 0.083846 0.982771
vt 0.083846 0.982765
vt 0.083846 0.981937
vt 0.083846 0.981937
vt 0.081245 0.981195
vt 0.081245 0.978662
vt 0.081245 0.978655
vt 0.081245 0.981216
vt 0.083846 0.978428
vt 0.083846 0.978428
vt 0.083846 0.981385
vt 0.083846 0.981385
vt 0.083846 0.982170
vt 0.083846 0.977569
vt 0.078644 0.977734
vt 0.078644 0.982026
vt 0.083846 0.977593
vt 0.078644 0.977751
vt 0.078644 0.981999
vt 0.083846 0.982134
vt 0.078644 0.978081
vt 0.078644 0.981652
vt 0.078644 0.978086
vt 0.078644 0.981679
vt 0.083846 0.978188
vt 0.083846 0.981586
vt 0.083846 0.978161
vt 0.083846 0.981615
vt 0.081245 0.982560
vt 0.081245 0.981998
vt 0.081245 0.981996
vt 0.081245 0.982625
vt 0.083846 0.982771
vt 0.083846 0.982765
vt 0.083846 0.981937
vt 0.083846 0.981937
vt 0.083846 0.980814
vt 0.083846 0.980814
vt 0.078644 0.980764
vt 0.078644 0.980634
vt 0.083846 0.980611
vt 0.083846 0.980611
vt 0.078644 0.980634
vt 0.078644 0.980764
vt 0.083846 0.978799
vt 0.083846 0.978799
vt 0.078644 0.978881
vt 0.078644 0.979035
vt 0.083846 0.979096
vt 0.083846 0.979096
vt 0.078644 0.979035
vt 0.078644 0.978881
vt 0.083846 0.977586
vt 0.083846 0.977586
vt 0.078644 0.977746
vt 0.078644 0.978084
vt 0.083846 0.978169
vt 0.083846 0.978169
vt 0.078644 0.978084
vt 0.078644 0.977746
vn 0.000000 0.000000 -1.000000
vn 0.000000 0.000000 -1.000000
vn 0.000000 0.000000 -1.000000
vn 0.000000 0.000000 -1.000000
vn -0.002264 -0.761463 -0.648205
vn -0.002264 -0.761463 -0.648205
vn -0.002264 -0.761463 -0.648205
vn -0.002264 -0.761463 -0.648205
vn -0.638477 0.740885 -0.208414
vn -0.638477 0.740885 -0.208414
vn -0.638477 0.740885 -0.208414
vn -0.638477 0.740885 -0.208414
vn -0.902045 0.064139 -0.426850
vn -0.902045 0.064139 -0.426850
vn -0.902045 0.064139 -0.426850
vn -0.902045 0.064139 -0.426850
vn 0.898973 0.015335 -0.437736
vn 0.898973 0.015335 -0.437736
vn 0.898973 0.015335 -0.437736
vn 0.898973 0.015335 -0.437736
vn -0.967038 0.006792 -0.254543
vn -0.967038 0.006792 -0.254543
vn -0.966635 0.006789 -0.256066
vn -0.966507 0.006789 -0.256548
vn 0.007807 -0.958305 -0.285642
vn 0.007806 -0.958232 -0.285885
vn 0.007812 -0.958996 -0.283311
vn 0.007812 -0.958996 -0.283311
vn 0.012147 0.968250 -0.249688
vn 0.012147 0.968250 -0.249688
vn 0.012147 0.968250 -0.249688
vn 0.012147 0.968250 -0.249688
vn 0.956609 0.005570 -0.291322
vn 0.956526 0.005570 -0.291595
vn 0.957875 0.005578 -0.287133
vn 0.957875 0.005578 -0.287133
vn 0.000000 -0.000000 -1.000000
vn 0.000000 -0.000000 -1.000000
vn 0.000000 -0.000000 -1.000000
vn 0.000000 -0.000000 -1.000000
vn 0.000000 0.000000 -1.000000
vn 0.000000 0.000000 -1.000000
vn 0.000000 0.000000 -1.000000
vn 0.000000 0.000000 -1.000000
vn -0.000000 -0.000000 -1.000000
vn -0.000000 -0.000000 -1.000000
vn -0.000000 -0.000000 -1.000000
vn -0.000000 -0.000000 -1.000000
vn 0.000000 -0.000000 -1.000000
vn 0.000000 -0.000000 -1.000000
vn 0.000000 -0.000000 -1.000000
vn 0.000000 -0.000000 -1.000000
vn 0.995638 0.003186 -0.093242
vn 0.995638 0.003186 -0.093242
vn 0.994450 0.003182 -0.105165
vn 0.994158 0.003181 -0.107889
vn 0.006555 0.984281 -0.176489
vn 0.005581 0.983990 -0.178138
vn 0.019003 0.987679 -0.155334
vn 0.019003 0.987679 -0.155334
vn -0.990025 0.009940 -0.140545
vn -0.989816 0.009938 -0.142009
vn -0.995432 0.009994 -0.094946
vn -0.995432 0.009994 -0.094946
vn 0.015775 -0.992763 -0.119052
vn 0.015775 -0.992763 -0.119052
vn 0.015775 -0.992763 -0.119052
vn 0.015775 -0.992763 -0.119052
vn 0.000000 0.000000 -1.000000
vn 0.000000 0.000000 -1.000000
vn 0.000000 0.000000 -1.000000
vn 0.000000 0.000000 -1.000000
vn -0.026979 0.837858 -0.545222
vn -0.026979 0.837858 -0.545222
vn -0.026979 0.837858 -0.545222
vn -0.026979 0.837858 -0.545222
vn -0.884838 0.089750 -0.457173
vn -0.884838 0.089750 -0.457173
vn -0.884838 0.089750 -0.457173
vn -0.884838 0.089750 -0.457173
vn 0.913347 0.076915 -0.399852
vn 0.913347 0.076915 -0.399852
vn 0.913347 0.076915 -0.399852
vn 0.913347 0.076915 -0.399852
vn 0.000000 0.000000 1.000000
vn 0.000000 0.000000 1.000000
vn 0.000000 0.000000 1.000000
vn 0.000000 0.000000 1.000000
vn -0.002264 -0.761463 0.648205
vn -0.002264 -0.761463 0.648205
vn -0.002264 -0.761463 0.648205
vn -0.002264 -0.761463 0.648205
vn -0.577840 0.724699 0.375383
vn -0.577840 0.724699 0.375383
vn -0.577840 0.724699 0.375383
vn -0.577840 0.724699 0.375383
vn -0.908854 0.035370 0.415612
vn -0.908854 0.035370 0.415612
vn -0.908854 0.035370 0.415612
vn -0.908854 0.035370 0.415612
vn 0.897325 0.016189 0.441073
vn 0.897325 0.016189 0.441073
vn 0.897325 0.016189 0.441073
vn 0.897325 0.016189 0.441073
vn -0.961408 0.003058 0.275109
vn -0.960992 0.007276 0.276480
vn -0.961094 0.006262 0.276151
vn -0.961408 0.003058 0.275109
vn 0.008351 -0.953889 0.300044
vn 0.007165 -0.954021 0.299653
vn -0.004248 -0.955220 0.295867
vn -0.004248 -0.955220 0.295867
vn 0.012147 0.968250 0.249689
vn 0.012147 0.968250 0.249689
vn 0.012147 0.968250 0.249689
vn 0.012147 0.968250 0.249689
vn 0.947228 0.005954 0.320505
vn 0.947346 0.005079 0.320170
vn 0.949060 -0.008382 0.314983
vn 0.949060 -0.008382 0.314983
vn 0.000000 -0.000000 1.000000
vn 0.000000 -0.000000 1.000000
vn 0.000000 -0.000000 1.000000
vn 0.000000 -0.000000 1.000000
vn 0.000000 0.000000 1.000000
vn 0.000000 0.000000 1.000000
vn 0.000000 0.000000 1.000000
vn 0.000000 0.000000 1.000000
vn -0.000000 -0.000000 1.000000
vn -0.000000 0.000000 1.000000
vn -0.000000 0.000000 1.000000
vn -0.000000 0.000000 1.000000
vn 0.000000 -0.000000 1.000000
vn 0.000000 -0.000000 1.000000
vn 0.000000 -0.000000 1.000000
vn 0.000000 -0.000000 1.000000
vn 0.995638 0.003186 0.093242
vn 0.994158 0.003181 0.107889
vn 0.994450 0.003182 0.105165
vn 0.995638 0.003186 0.093242
vn 0.005133 0.986003 0.166647
vn 0.007045 0.986288 0.164884
vn 0.031323 0.989314 0.142393
vn 0.031323 0.989314 0.142393
vn -0.990617 0.009897 0.136307
vn -0.990818 0.009995 0.134834
vn -0.995945 0.013027 0.089020
vn -0.995945 0.013027 0.089020
vn 0.015775 -0.992763 0.119052
vn 0.015775 -0.992763 0.119052
vn 0.015775 -0.992763 0.119052
vn 0.015775 -0.992763 0.119052
vn 0.000000 0.000000 1.000000
vn 0.000000 0.000000 1.000000
vn 0.000000 0.000000 1.000000
vn 0.000000 0.000000 1.000000
vn -0.026979 0.837857 0.545222
vn -0.026979 0.837857 0.545222
vn -0.026979 0.837857 0.545222
vn -0.026979 0.837857 0.545222
vn -0.884838 0.089750 0.457173
vn -0.884838 0.089750 0.457173
vn -0.884838 0.089750 0.457173
vn -0.884838 0.089750 0.457173
vn 0.913347 0.076915 0.399852
vn 0.913347 0.076915 0.399852
vn 0.913347 0.076915 0.399852
vn 0.913347 0.076915 0.399852
vn 0.956026 0.005567 -0.293230
vn 0.956026 0.005567 -0.293230
vn 0.956526 0.005570 -0.291595
vn 0.956609 0.005570 -0.291322
vn -0.000000 -0.000000 -1.000000
vn -0.000000 -0.000000 -1.000000
vn -0.000000 -0.000000 -1.000000
vn -0.000000 -0.000000 -1.000000
vn -0.987068 0.009910 -0.159999
vn -0.987067 0.009910 -0.159999
vn -0.989816 0.009938 -0.142009
vn -0.990025 0.009940 -0.140545
vn -0.987971 0.008689 0.154397
vn -0.990818 0.009995 0.134834
vn -0.990617 0.009897 0.136307
vn -0.987971 0.008689 0.154397
vn -0.000000 -0.000000 1.000000
vn -0.000000 0.000000 1.000000
vn -0.000000 -0.000000 1.000000
vn -0.000000 -0.000000 1.000000
vn 0.946502 0.011195 0.322505
vn 0.947346 0.005079 0.320170
vn 0.947228 0.005954 0.320505
vn 0.946502 0.011195 0.322505
vn -0.961094 0.006262 0.276151
vn -0.960992 0.007276 0.276480
vn -0.959976 0.016854 0.279575
vn -0.959976 0.016854 0.279575
vn 0.000000 -0.000000 1.000000
vn 0.000000 -0.000000 1.000000
vn 0.000000 -0.000000 1.000000
vn 0.000000 -0.000000 1.000000
vn 0.994450 0.003182 0.105165
vn 0.994158 0.003181 0.107889
vn 0.989802 0.003167 0.142418
vn 0.989802 0.003167 0.142418
vn 0.994158 0.003181 -0.107889
vn 0.994450 0.003182 -0.105165
vn 0.989801 0.003167 -0.142418
vn 0.989802 0.003167 -0.142418
vn 0.000000 -0.000000 -1.000000
vn 0.000000 -0.000000 -1.000000
vn 0.000000 -0.000000 -1.000000
vn 0.000000 -0.000000 -1.000000
vn -0.966507 0.006789 -0.256548
vn -0.966635 0.006789 -0.256066
vn -0.965291 0.006780 -0.261090
vn -0.965291 0.006780 -0.261090
vn 0.007804 -0.957968 -0.286769
vn 0.007806 -0.958232 -0.285885
vn 0.007807 -0.958305 -0.285642
vn 0.007804 -0.957968 -0.286769
vn 0.000000 0.000000 -1.000000
vn 0.000000 0.000000 -1.000000
vn 0.000000 0.000000 -1.000000
vn 0.000000 0.000000 -1.000000
vn 0.000814 0.982510 -0.186207
vn 0.000814 0.982510 -0.186207
vn 0.005581 0.983990 -0.178138
vn 0.006555 0.984281 -0.176489
vn -0.004176 0.984521 0.175215
vn 0.007045 0.986288 0.164884
vn 0.005133 0.986003 0.166647
vn -0.004176 0.984521 0.175215
vn 0.000000 0.000000 1.000000
vn 0.000000 0.000000 1.000000
vn 0.000000 0.000000 1.000000
vn 0.000000 0.000000 1.000000
vn 0.012667 -0.953394 0.301463
vn 0.012667 -0.953394 0.301463
vn 0.007165 -0.954021 0.299653
vn 0.008351 -0.953889 0.300044
s off
f 3/1/1 4/4/2 2/3/3 1/2/4
f 2/3/5 6/6/6 5/5/7 1/2/8
f 3/1/9 7/8/10 8/7/11 4/4/12
f 1/2/13 5/5/14 7/8/15 3/1/16
f 4/4/17 8/7/18 6/6/19 2/3/20
f 11/9/21 13/12/22 60/80/23 55/73/24
f 61/82/25 62/83/26 16/14/27 10/13/28
f 13/12/29 11/9/30 12/16/31 15/15/32
f 49/66/33 50/67/34 15/15/35 12/16/36
f 13/12/37 18/18/38 59/79/39 60/80/40
f 62/83/41 63/84/42 19/19/43 16/14/44
f 50/67/45 51/68/46 20/20/47 15/15/48
f 15/15/49 20/20/50 18/18/51 13/12/52
f 18/18/53 22/22/54 58/78/55 59/79/56
f 63/84/57 64/85/58 23/23/59 19/19/60
f 51/68/61 52/69/62 24/24/63 20/20/64
f 20/20/65 24/24/66 22/22/67 18/18/68
f 27/25/69 28/28/70 26/27/71 25/26/72
f 27/25/73 31/30/74 32/29/75 28/28/76
f 25/26/77 29/31/78 31/30/79 27/25/80
f 28/28/81 32/29/82 30/32/83 26/27/84
f 35/33/85 33/34/86 34/35/87 36/36/88
f 34/35/89 33/34/90 5/37/91 6/38/92
f 35/33/93 36/36/94 8/39/95 7/40/96
f 33/34/97 35/33/98 7/40/99 5/37/100
f 36/36/101 34/35/102 6/38/103 8/39/104
f 11/41/105 55/74/106 56/75/107 37/44/108
f 66/88/109 61/81/110 10/45/111 40/46/112
f 37/44/113 39/47/114 12/48/115 11/41/116
f 54/72/117 49/65/118 12/48/119 39/47/120
f 37/44/121 56/75/122 57/76/123 42/50/124
f 65/87/125 66/88/126 40/46/127 43/51/128
f 53/71/129 54/72/130 39/47/131 44/52/132
f 39/47/133 37/44/134 42/50/135 44/52/136
f 42/50/137 57/76/138 58/77/139 22/54/140
f 64/86/141 65/87/142 43/51/143 23/55/144
f 52/70/145 53/71/146 44/52/147 24/56/148
f 44/52/149 42/50/150 22/54/151 24/56/152
f 47/57/153 45/58/154 46/59/155 48/60/156
f 47/57/157 48/60/158 32/61/159 31/62/160
f 45/58/161 47/57/162 31/62/163 29/63/164
f 48/60/165 46/59/166 30/64/167 32/61/168
f 10/13/169 16/14/170 50/67/171 49/66/172
f 16/14/173 19/19/174 51/68/175 50/67/176
f 19/19/177 23/23/178 52/69/179 51/68/180
f 43/51/181 53/71/182 52/70/183 23/55/184
f 40/46/185 54/72/186 53/71/187 43/51/188
f 10/45/189 49/65/190 54/72/191 40/46/192
f 56/75/193 55/74/194 9/42/195 38/43/196
f 57/76/197 56/75/198 38/43/199 41/49/200
f 58/77/201 57/76/202 41/49/203 21/53/204
f 59/79/205 58/78/206 21/21/207 17/17/208
f 60/80/209 59/79/210 17/17/211 14/11/212
f 55/73/213 60/80/214 14/11/215 9/10/216
f 14/11/217 62/83/218 61/82/219 9/10/220
f 14/11/221 17/17/222 63/84/223 62/83/224
f 17/17/225 21/21/226 64/85/227 63/84/228
f 41/49/229 65/87/230 64/86/231 21/53/232
f 38/43/233 66/88/234 65/87/235 41/49/236
f 38/43/237 9/42/238 61/81/239 66/88/240
