# This file uses centimeters as units for non-parametric coordinates.

v -10.221000 -6.713837 4.000000
v 9.955721 -6.713837 4.000000
v -10.329973 11.929235 4.000000
v 10.301956 11.929235 4.000000
v 9.124798 -12.079474 4.000000
v -9.152418 -12.079474 4.000000
v 9.554290 -9.597673 4.000000
v -9.534379 -9.597673 4.000000
v -17.254953 -13.436692 4.000000
v 16.086567 -13.504518 4.000000
v -17.894175 -12.215127 4.000000
v 18.009151 -12.215127 4.000000
v -11.685574 -14.047126 0.000000
v 11.657953 -14.047126 0.000000
v 10.754848 -14.047126 2.000000
v -10.830000 -14.047126 2.000000
v -11.168307 -16.297531 0.000000
v 11.140687 -16.297531 0.000000
v 10.380177 -15.890574 2.000000
v -10.502861 -15.958402 2.000000
v 7.898371 4.197148 2.000000
v 13.295704 5.512100 2.000000
v 7.224967 6.124424 2.000000
v 12.622301 7.669008 2.000000
v 15.315872 5.533749 2.000000
v 16.147102 7.475445 2.000000
v 17.116615 2.967716 2.000000
v 18.943823 3.097213 2.000000
v 14.928141 -4.134316 2.000000
v 16.149876 -4.692592 2.000000
v 13.079836 -6.444861 2.000000
v 13.274509 -7.598777 2.000000
v 9.911854 -7.737694 2.000000
v 10.106527 -8.347873 2.000000
v -8.510569 -11.168291 2.000000
v 8.673077 -11.168291 2.000000
v 9.719968 -10.908148 0.000000
v -9.889744 11.081982 4.000000
v 9.855484 11.081982 4.000000
v -10.902954 12.879873 0.000000
v 10.961502 12.879873 0.000000
v -11.242413 -6.713837 0.000000
v 11.132788 -6.713837 -0.000000
v 9.588041 -11.469042 -0.000000
v -9.395411 -11.469042 -0.000000
v 10.960016 -9.600282 0.000000
v 10.962487 -9.597672 -0.000000
v -10.785093 -9.597673 0.000000
v -19.415199 -11.469042 0.000000
v 19.387579 -11.469042 0.000000
v -17.254953 -14.047124 -0.000000
v 17.227331 -14.047124 -0.000000
v -13.954580 -14.047126 -0.000000
v 13.926960 -14.047126 -0.000000
v 7.224967 6.961194 0.000000
v 12.622301 8.276145 0.000000
v 7.898371 3.099395 -0.000000
v 13.295704 4.544880 -0.000000
v 15.315872 4.175817 -0.000000
v 16.147102 8.254498 0.000000
v 16.285524 2.967716 -0.000000
v 19.468212 3.097213 0.000000
v 14.487880 -3.664828 -0.000000
v 16.723913 -4.692592 0.000000
v 13.079835 -5.789109 0.000000
v 13.274509 -7.967801 0.000000
v 9.701898 -6.925244 0.000000
v 10.801455 -8.589816 0.000000
v 9.588305 -11.467662 -0.000000
v -9.746394 -10.823340 0.000000
v -10.454302 11.989418 -0.000000
v 10.505396 11.989419 0.000000
v -10.221000 -6.713837 -4.000000
v 9.955721 -6.713837 -4.000000
v -10.329973 11.929235 -4.000000
v 10.301956 11.929235 -4.000000
v 9.124798 -12.079474 -4.000000
v -9.152418 -12.079474 -4.000000
v 9.554290 -9.597673 -4.000000
v -9.534379 -9.597673 -4.000000
v -17.254953 -13.436692 -4.000000
v 16.086567 -13.504518 -4.000000
v -17.894175 -12.215127 -4.000000
v 18.009151 -12.215127 -4.000000
v 10.754848 -14.047126 -2.000000
v -10.830000 -14.047126 -2.000000
v 10.380177 -15.890574 -2.000000
v -10.502861 -15.958402 -2.000000
v 7.898371 4.197148 -2.000000
v 13.295704 5.512100 -2.000000
v 7.224967 6.124424 -2.000000
v 12.622301 7.669008 -2.000000
v 15.315872 5.533749 -2.000000
v 16.147102 7.475445 -2.000000
v 17.116615 2.967716 -2.000000
v 18.943823 3.097213 -2.000000
v 14.928141 -4.134316 -2.000000
v 16.149876 -4.692592 -2.000000
v 13.079836 -6.444861 -2.000000
v 13.274509 -7.598777 -2.000000
v 9.911854 -7.737694 -2.000000
v 10.106527 -8.347873 -2.000000
v -8.510569 -11.168291 -2.000000
v 8.673077 -11.168291 -2.000000
v -9.889744 11.081982 -4.000000
v 8.959636 11.081982 -4.000000
vt 0.451175 0.985326
vt 0.456028 0.985326
vt 0.456148 0.985539
vt 0.451057 0.985539
vt 0.456188 0.980130
vt 0.455950 0.979732
vt 0.456233 0.979801
vt 0.451031 0.980130
vt 0.451307 0.979732
vt 0.453168 0.948648
vt 0.454751 0.950472
vt 0.453043 0.950290
vt 0.454357 0.944805
vt 0.456297 0.980854
vt 0.458716 0.944805
vt 0.458567 0.945351
vt 0.454487 0.945260
vt 0.459682 0.948557
vt 0.460058 0.950290
vt 0.458641 0.947828
vt 0.458817 0.947828
vt 0.454423 0.947828
vt 0.454256 0.947828
vt 0.458322 0.950472
vt 0.454877 0.951696
vt 0.458234 0.951696
vt 0.458438 0.952223
vt 0.457406 0.980973
vt 0.453979 0.980367
vt 0.454407 0.979373
vt 0.457834 0.980085
vt 0.456128 0.986474
vt 0.456004 0.986755
vt 0.452697 0.980357
vt 0.452169 0.979463
vt 0.451553 0.981540
vt 0.450393 0.981480
vt 0.452943 0.984813
vt 0.452167 0.985071
vt 0.450845 0.980854
vt 0.454116 0.985878
vt 0.453993 0.986410
vt 0.450902 0.985777
vt 0.456327 0.985777
vt 0.450569 0.980854
vt 0.456615 0.980854
vt 0.458413 0.951292
vt 0.454704 0.951292
vt 0.456568 0.980129
vt 0.456569 0.980130
vt 0.450693 0.980130
vt 0.452746 0.951292
vt 0.460327 0.951292
vt 0.453168 0.947828
vt 0.459905 0.947828
vt 0.453813 0.947828
vt 0.459260 0.947828
vt 0.457834 0.979700
vt 0.454407 0.979093
vt 0.457406 0.981479
vt 0.453979 0.980813
vt 0.452697 0.980983
vt 0.452169 0.979103
vt 0.452081 0.981540
vt 0.450060 0.981480
vt 0.453222 0.984597
vt 0.451803 0.985071
vt 0.454116 0.985576
vt 0.453993 0.986580
vt 0.456261 0.986100
vt 0.455563 0.986867
vt 0.458413 0.951294
vt 0.450973 0.979822
vt 0.454635 0.952386
vt 0.451023 0.985554
vt 0.456203 0.985554
vt 0.451175 0.985326
vt 0.456028 0.985326
vt 0.456148 0.985539
vt 0.451057 0.985539
vt 0.456327 0.985777
vt 0.450902 0.985777
vt 0.456203 0.985554
vt 0.456188 0.980130
vt 0.451031 0.980130
vt 0.451307 0.979732
vt 0.455950 0.979732
vt 0.450693 0.980130
vt 0.450973 0.979822
vt 0.456297 0.980854
vt 0.450845 0.980854
vt 0.450569 0.980854
vt 0.453168 0.948648
vt 0.454751 0.950472
vt 0.453043 0.950290
vt 0.454357 0.944805
vt 0.458716 0.944805
vt 0.458567 0.945351
vt 0.454487 0.945260
vt 0.459682 0.948557
vt 0.459905 0.947828
vt 0.460327 0.951292
vt 0.460058 0.950290
vt 0.454423 0.947828
vt 0.458641 0.947828
vt 0.453168 0.947828
vt 0.453813 0.947828
vt 0.454256 0.947828
vt 0.458817 0.947828
vt 0.458322 0.950472
vt 0.457406 0.980973
vt 0.453979 0.980367
vt 0.454407 0.979373
vt 0.457834 0.980085
vt 0.454407 0.979093
vt 0.457834 0.979700
vt 0.456128 0.986474
vt 0.456261 0.986100
vt 0.455563 0.986867
vt 0.456004 0.986755
vt 0.453979 0.980813
vt 0.452697 0.980983
vt 0.452697 0.980357
vt 0.452169 0.979463
vt 0.452081 0.981540
vt 0.451553 0.981540
vt 0.450393 0.981480
vt 0.453222 0.984597
vt 0.452943 0.984813
vt 0.452167 0.985071
vt 0.454116 0.985576
vt 0.454116 0.985878
vt 0.453993 0.986410
vt 0.454704 0.951292
vt 0.452746 0.951292
vt 0.454877 0.951696
vt 0.454635 0.952386
vt 0.458234 0.951696
vt 0.458438 0.952223
vt 0.458413 0.951292
vt 0.458413 0.951294
vt 0.456615 0.980854
vt 0.451023 0.985554
vt 0.456568 0.980129
vt 0.456569 0.980130
vt 0.456233 0.979801
vt 0.459260 0.947828
vt 0.457406 0.981479
vt 0.452169 0.979103
vt 0.450060 0.981480
vt 0.451803 0.985071
vt 0.453993 0.986580
vn 0.000000 0.000000 1.000000
vn 0.000000 0.000000 1.000000
vn 0.000000 0.000000 1.000000
vn 0.000000 0.000000 1.000000
vn 0.000000 0.972902 0.231220
vn 0.000000 0.972902 0.231220
vn 0.000000 0.972902 0.231220
vn 0.000000 0.972902 0.231220
vn 0.886785 -0.460603 0.038172
vn 0.886785 -0.460603 0.038172
vn 0.886785 -0.460603 0.038172
vn 0.886785 -0.460603 0.038172
vn 0.000000 -0.786473 0.617624
vn 0.000000 -0.786473 0.617624
vn 0.000000 -0.786473 0.617624
vn 0.000000 -0.786473 0.617624
vn -0.687769 -0.683065 0.245757
vn -0.687769 -0.683065 0.245757
vn -0.687769 -0.683065 0.245757
vn -0.687769 -0.683065 0.245757
vn 0.000000 0.000000 1.000000
vn 0.000000 0.000000 1.000000
vn 0.000000 0.000000 1.000000
vn 0.000000 0.000000 1.000000
vn -0.944910 -0.187410 0.268369
vn -0.944910 -0.187410 0.268369
vn -0.944910 -0.187410 0.268369
vn -0.944910 -0.187410 0.268369
vn 0.000000 -0.000000 1.000000
vn 0.000000 -0.000000 1.000000
vn 0.000000 -0.000000 1.000000
vn 0.001544 -0.983038 0.183395
vn 0.001544 -0.983038 0.183395
vn 0.001544 -0.983038 0.183395
vn 0.001544 -0.983038 0.183395
vn 0.674592 -0.712157 0.194315
vn 0.674592 -0.712157 0.194315
vn 0.674592 -0.712157 0.194315
vn 0.674592 -0.712157 0.194315
vn -0.001187 -0.960961 0.276682
vn -0.001187 -0.960961 0.276682
vn -0.001187 -0.960961 0.276682
vn -0.001187 -0.960961 0.276682
vn -0.032937 -0.993841 0.105809
vn -0.032937 -0.993841 0.105809
vn -0.032937 -0.993841 0.105809
vn -0.032937 -0.993841 0.105809
vn -0.032937 -0.993841 0.105809
vn 0.898254 -0.195705 0.393498
vn 0.898254 -0.195705 0.393498
vn 0.898254 -0.195705 0.393498
vn 0.898254 -0.195705 0.393498
vn 0.000000 0.000000 1.000000
vn 0.000000 0.000000 1.000000
vn 0.000000 0.000000 1.000000
vn 0.000000 0.000000 1.000000
vn -0.913198 -0.185288 0.362957
vn -0.913198 -0.185288 0.362957
vn -0.913198 -0.185288 0.362957
vn -0.913198 -0.185288 0.362957
vn 0.000000 -0.000000 1.000000
vn 0.000000 -0.000000 1.000000
vn 0.000000 -0.000000 1.000000
vn 0.000000 -0.000000 1.000000
vn 0.000000 -0.000000 1.000000
vn 0.000000 -0.000000 1.000000
vn 0.000000 -0.000000 1.000000
vn 0.000000 0.000000 1.000000
vn 0.000000 0.000000 1.000000
vn 0.000000 0.000000 1.000000
vn 0.000000 0.000000 1.000000
vn -0.241774 0.912689 0.329460
vn -0.241774 0.912689 0.329460
vn -0.241774 0.912689 0.329460
vn -0.241774 0.912689 0.329460
vn -0.856024 -0.487039 -0.173251
vn -0.856024 -0.487039 -0.173251
vn -0.856024 -0.487039 -0.173251
vn -0.856024 -0.487039 -0.173251
vn -0.074135 -0.862169 0.501168
vn -0.074135 -0.862169 0.501168
vn -0.074135 -0.862169 0.501168
vn -0.074135 -0.862169 0.501168
vn 0.000000 0.000000 1.000000
vn 0.000000 0.000000 1.000000
vn 0.000000 0.000000 1.000000
vn 0.000000 0.000000 1.000000
vn -0.756438 -0.555261 0.345669
vn -0.756438 -0.555261 0.345669
vn -0.756438 -0.555261 0.345669
vn -0.756438 -0.555261 0.345669
vn 0.000000 0.000000 1.000000
vn 0.000000 0.000000 1.000000
vn 0.000000 0.000000 1.000000
vn 0.000000 0.000000 1.000000
vn -0.909818 0.264052 0.320167
vn -0.909818 0.264052 0.320167
vn -0.909818 0.264052 0.320167
vn -0.909818 0.264052 0.320167
vn 0.000000 0.000000 1.000000
vn 0.000000 0.000000 1.000000
vn 0.000000 0.000000 1.000000
vn 0.000000 0.000000 1.000000
vn -0.781012 0.573472 0.247286
vn -0.781012 0.573472 0.247286
vn -0.781012 0.573472 0.247286
vn -0.781012 0.573472 0.247286
vn 0.000000 0.000000 1.000000
vn 0.000000 0.000000 1.000000
vn 0.000000 0.000000 1.000000
vn 0.000000 0.000000 1.000000
vn -0.327074 0.881445 0.340702
vn -0.327074 0.881445 0.340702
vn -0.327074 0.881445 0.340702
vn -0.327074 0.881445 0.340702
vn 0.000000 0.000000 1.000000
vn 0.000000 0.000000 1.000000
vn 0.000000 0.000000 1.000000
vn 0.000000 0.000000 1.000000
vn -0.007127 0.985641 0.168701
vn -0.007127 0.985641 0.168701
vn -0.007127 0.985641 0.168701
vn -0.007127 0.985641 0.168701
vn -0.798033 -0.433785 0.418299
vn -0.798033 -0.433785 0.418299
vn -0.798033 -0.433785 0.418299
vn 0.000000 0.910008 0.414592
vn 0.000000 0.910008 0.414592
vn 0.000000 0.910008 0.414592
vn 0.000000 0.910008 0.414592
vn 0.877667 -0.206433 0.432534
vn 0.877667 -0.206433 0.432534
vn 0.877667 -0.206433 0.432534
vn 0.877667 -0.206433 0.432534
vn 0.000000 0.000000 1.000000
vn 0.000000 0.000000 1.000000
vn 0.000000 0.000000 1.000000
vn 0.000000 0.000000 1.000000
vn 0.974236 0.019422 0.224692
vn 0.974236 0.019422 0.224692
vn 0.974236 0.019422 0.224692
vn 0.974236 0.019422 0.224692
vn -0.890092 -0.455305 0.020816
vn -0.890092 -0.455305 0.020816
vn -0.890092 -0.455305 0.020816
vn -0.890092 -0.455305 0.020816
vn 0.687314 -0.681359 0.251694
vn 0.687314 -0.681359 0.251694
vn 0.687314 -0.681359 0.251694
vn 0.687314 -0.681359 0.251694
vn 0.687314 -0.681359 0.251694
vn 0.947343 -0.093907 0.306142
vn 0.947343 -0.093907 0.306142
vn 0.947343 -0.093907 0.306142
vn 0.947343 -0.093907 0.306142
vn -0.796975 -0.587187 0.141571
vn -0.796975 -0.587187 0.141571
vn -0.796975 -0.587187 0.141571
vn -0.796975 -0.587187 0.141571
vn 0.031059 -0.994451 0.100513
vn 0.031059 -0.994451 0.100513
vn 0.031059 -0.994451 0.100513
vn 0.031059 -0.994451 0.100513
vn 0.031059 -0.994451 0.100513
vn 0.221581 -0.866491 0.447320
vn 0.221581 -0.866491 0.447320
vn 0.221581 -0.866491 0.447320
vn 0.221581 -0.866491 0.447320
vn -0.973883 -0.226570 0.014783
vn -0.973883 -0.226570 0.014783
vn -0.973883 -0.226570 0.014783
vn -0.973883 -0.226570 0.014783
vn 0.028833 0.944478 0.327307
vn 0.028833 0.944478 0.327307
vn 0.028833 0.944478 0.327307
vn 0.028833 0.944478 0.327307
vn 0.822776 0.527879 0.210675
vn 0.822776 0.527879 0.210675
vn 0.822776 0.527879 0.210675
vn 0.822776 0.527879 0.210675
vn 0.912197 -0.324268 0.250495
vn 0.912197 -0.324268 0.250495
vn 0.912197 -0.324268 0.250495
vn 0.912197 -0.324268 0.250495
vn 0.689487 -0.705479 0.164032
vn 0.689487 -0.705479 0.164032
vn 0.689487 -0.705479 0.164032
vn 0.689487 -0.705479 0.164032
vn 0.232056 -0.954726 0.186142
vn 0.232056 -0.954726 0.186142
vn 0.232056 -0.954726 0.186142
vn 0.232056 -0.954726 0.186142
vn 0.007156 0.985629 0.168775
vn 0.007156 0.985629 0.168775
vn 0.007156 0.985629 0.168775
vn 0.007156 0.985629 0.168775
vn -0.979811 0.030049 0.197653
vn -0.979811 0.030049 0.197653
vn -0.979811 0.030049 0.197653
vn -0.979811 0.030049 0.197653
vn 0.000000 0.000000 -1.000000
vn 0.000000 0.000000 -1.000000
vn 0.000000 0.000000 -1.000000
vn 0.000000 0.000000 -1.000000
vn 0.000000 0.972902 -0.231219
vn 0.000000 0.972902 -0.231219
vn 0.000000 0.972902 -0.231219
vn 0.000000 0.972902 -0.231219
vn 0.694654 -0.718927 -0.024513
vn 0.694654 -0.718927 -0.024513
vn 0.694654 -0.718927 -0.024513
vn 0.694654 -0.718927 -0.024513
vn 0.000000 -0.786473 -0.617625
vn 0.000000 -0.786473 -0.617625
vn 0.000000 -0.786473 -0.617625
vn 0.000000 -0.786473 -0.617625
vn -0.687769 -0.683065 -0.245757
vn -0.687769 -0.683065 -0.245757
vn -0.687769 -0.683065 -0.245757
vn -0.687769 -0.683065 -0.245757
vn 0.000000 0.000000 -1.000000
vn 0.000000 0.000000 -1.000000
vn 0.000000 0.000000 -1.000000
vn 0.000000 0.000000 -1.000000
vn -0.944910 -0.187410 -0.268369
vn -0.944910 -0.187410 -0.268369
vn -0.944910 -0.187410 -0.268369
vn -0.944910 -0.187410 -0.268369
vn 0.000000 -0.000000 -1.000000
vn 0.000000 -0.000000 -1.000000
vn 0.000000 -0.000000 -1.000000
vn 0.001544 -0.983038 -0.183395
vn 0.001544 -0.983038 -0.183395
vn 0.001544 -0.983038 -0.183395
vn 0.001544 -0.983038 -0.183395
vn 0.674592 -0.712157 -0.194315
vn 0.674592 -0.712157 -0.194315
vn 0.674592 -0.712157 -0.194315
vn 0.674592 -0.712157 -0.194315
vn -0.001187 -0.960961 -0.276682
vn -0.001187 -0.960961 -0.276682
vn -0.001187 -0.960961 -0.276682
vn -0.001187 -0.960961 -0.276682
vn -0.032937 -0.993841 -0.105809
vn -0.032937 -0.993841 -0.105809
vn -0.032937 -0.993841 -0.105809
vn -0.032937 -0.993841 -0.105809
vn -0.032937 -0.993841 -0.105809
vn 0.898254 -0.195705 -0.393498
vn 0.898254 -0.195705 -0.393498
vn 0.898254 -0.195705 -0.393498
vn 0.898254 -0.195705 -0.393498
vn 0.000000 0.000000 -1.000000
vn 0.000000 0.000000 -1.000000
vn 0.000000 0.000000 -1.000000
vn 0.000000 0.000000 -1.000000
vn -0.913198 -0.185288 -0.362957
vn -0.913198 -0.185288 -0.362957
vn -0.913198 -0.185288 -0.362957
vn -0.913198 -0.185288 -0.362957
vn 0.000000 -0.000000 -1.000000
vn 0.000000 -0.000000 -1.000000
vn 0.000000 -0.000000 -1.000000
vn 0.000000 -0.000000 -1.000000
vn 0.000000 -0.000000 -1.000000
vn 0.000000 -0.000000 -1.000000
vn 0.000000 -0.000000 -1.000000
vn 0.000000 0.000000 -1.000000
vn 0.000000 0.000000 -1.000000
vn 0.000000 0.000000 -1.000000
vn 0.000000 0.000000 -1.000000
vn -0.241774 0.912689 -0.329460
vn -0.241774 0.912689 -0.329460
vn -0.241774 0.912689 -0.329460
vn -0.241774 0.912689 -0.329460
vn -0.856024 -0.487039 0.173251
vn -0.856024 -0.487039 0.173251
vn -0.856024 -0.487039 0.173251
vn -0.856024 -0.487039 0.173251
vn -0.074135 -0.862169 -0.501168
vn -0.074135 -0.862169 -0.501168
vn -0.074135 -0.862169 -0.501168
vn -0.074135 -0.862169 -0.501168
vn 0.000000 0.000000 -1.000000
vn 0.000000 0.000000 -1.000000
vn 0.000000 0.000000 -1.000000
vn 0.000000 0.000000 -1.000000
vn -0.756438 -0.555261 -0.345669
vn -0.756438 -0.555261 -0.345669
vn -0.756438 -0.555261 -0.345669
vn -0.756438 -0.555261 -0.345669
vn 0.000000 0.000000 -1.000000
vn 0.000000 0.000000 -1.000000
vn 0.000000 0.000000 -1.000000
vn 0.000000 0.000000 -1.000000
vn -0.909818 0.264052 -0.320167
vn -0.909818 0.264052 -0.320167
vn -0.909818 0.264052 -0.320167
vn -0.909818 0.264052 -0.320167
vn 0.000000 0.000000 -1.000000
vn 0.000000 0.000000 -1.000000
vn 0.000000 0.000000 -1.000000
vn 0.000000 0.000000 -1.000000
vn -0.781012 0.573472 -0.247286
vn -0.781012 0.573472 -0.247286
vn -0.781012 0.573472 -0.247286
vn -0.781012 0.573472 -0.247286
vn 0.000000 0.000000 -1.000000
vn 0.000000 0.000000 -1.000000
vn 0.000000 0.000000 -1.000000
vn 0.000000 0.000000 -1.000000
vn -0.327074 0.881445 -0.340702
vn -0.327074 0.881445 -0.340702
vn -0.327074 0.881445 -0.340702
vn -0.327074 0.881445 -0.340702
vn 0.000000 0.000000 -1.000000
vn 0.000000 0.000000 -1.000000
vn 0.000000 0.000000 -1.000000
vn 0.000000 0.000000 -1.000000
vn -0.007127 0.985641 -0.168702
vn -0.007127 0.985641 -0.168702
vn -0.007127 0.985641 -0.168702
vn -0.007127 0.985641 -0.168702
vn -0.798033 -0.433785 -0.418299
vn -0.798033 -0.433785 -0.418299
vn -0.798033 -0.433785 -0.418299
vn 0.000000 0.910008 -0.414592
vn 0.000000 0.910008 -0.414592
vn 0.000000 0.910008 -0.414592
vn 0.000000 0.910008 -0.414592
vn 0.877668 -0.206433 -0.432533
vn 0.877668 -0.206433 -0.432533
vn 0.877668 -0.206433 -0.432533
vn 0.877668 -0.206433 -0.432533
vn 0.000000 0.000000 -1.000000
vn 0.000000 0.000000 -1.000000
vn 0.000000 0.000000 -1.000000
vn 0.000000 0.000000 -1.000000
vn 0.944372 0.042006 -0.326185
vn 0.944372 0.042006 -0.326185
vn 0.944372 0.042006 -0.326185
vn 0.944372 0.042006 -0.326185
vn -0.890092 -0.455305 -0.020816
vn -0.890092 -0.455305 -0.020816
vn -0.890092 -0.455305 -0.020816
vn -0.890092 -0.455305 -0.020816
vn 0.687314 -0.681359 -0.251694
vn 0.687314 -0.681359 -0.251694
vn 0.687314 -0.681359 -0.251694
vn 0.687314 -0.681359 -0.251694
vn 0.687314 -0.681359 -0.251694
vn 0.947343 -0.093907 -0.306142
vn 0.947343 -0.093907 -0.306142
vn 0.947343 -0.093907 -0.306142
vn 0.947343 -0.093907 -0.306142
vn -0.796975 -0.587187 -0.141571
vn -0.796975 -0.587187 -0.141571
vn -0.796975 -0.587187 -0.141571
vn -0.796975 -0.587187 -0.141571
vn 0.031059 -0.994451 -0.100513
vn 0.031059 -0.994451 -0.100513
vn 0.031059 -0.994451 -0.100513
vn 0.031059 -0.994451 -0.100513
vn 0.031059 -0.994451 -0.100513
vn 0.221581 -0.866491 -0.447320
vn 0.221581 -0.866491 -0.447320
vn 0.221581 -0.866491 -0.447320
vn 0.221581 -0.866491 -0.447320
vn -0.973883 -0.226570 -0.014783
vn -0.973883 -0.226570 -0.014783
vn -0.973883 -0.226570 -0.014783
vn -0.973883 -0.226570 -0.014783
vn 0.028833 0.944478 -0.327307
vn 0.028833 0.944478 -0.327307
vn 0.028833 0.944478 -0.327307
vn 0.028833 0.944478 -0.327307
vn 0.822776 0.527879 -0.210675
vn 0.822776 0.527879 -0.210675
vn 0.822776 0.527879 -0.210675
vn 0.822776 0.527879 -0.210675
vn 0.912197 -0.324268 -0.250495
vn 0.912197 -0.324268 -0.250495
vn 0.912197 -0.324268 -0.250495
vn 0.912197 -0.324268 -0.250495
vn 0.689487 -0.705479 -0.164032
vn 0.689487 -0.705479 -0.164032
vn 0.689487 -0.705479 -0.164032
vn 0.689487 -0.705479 -0.164032
vn 0.232056 -0.954726 -0.186142
vn 0.232056 -0.954726 -0.186142
vn 0.232056 -0.954726 -0.186142
vn 0.232056 -0.954726 -0.186142
vn 0.007156 0.985629 -0.168775
vn 0.007156 0.985629 -0.168775
vn 0.007156 0.985629 -0.168775
vn 0.007156 0.985629 -0.168775
vn -0.979811 0.030049 -0.197653
vn -0.979811 0.030049 -0.197653
vn -0.979811 0.030049 -0.197653
vn -0.979811 0.030049 -0.197653
vn -0.614192 0.773707 -0.155385
vn -0.614192 0.773707 -0.155385
vn -0.614192 0.773707 -0.155385
vn -0.614192 0.773707 0.155385
vn -0.614192 0.773707 0.155385
vn -0.614192 0.773707 0.155385
vn 0.651695 0.734908 0.187626
vn 0.651695 0.734908 0.187626
vn 0.651695 0.734908 0.187626
vn 0.651694 0.734909 -0.187626
vn 0.651694 0.734909 -0.187626
vn 0.651694 0.734909 -0.187626
s off
f 38/1/1 39/2/2 4/3/3 3/4/4
f 3/4/5 4/3/6 41/44/7 40/43/8
f 39/2/9 72/76/10 41/44/11 4/3/12
f 7/5/13 8/8/14 35/9/15 36/6/16
f 8/8/17 48/51/18 70/73/19 35/9/20
f 2/14/21 1/40/22 8/8/23 7/5/24
f 1/40/25 42/45/26 48/51/27 8/8/28
f 9/10/29 6/11/30 11/12/31
f 17/13/32 18/15/33 19/16/34 20/17/35
f 10/18/36 52/55/37 50/53/38 12/19/39
f 10/18/40 9/10/41 16/22/42 15/20/43
f 9/10/44 51/54/45 53/56/46 13/23/47 16/22/48
f 14/21/49 15/20/50 19/16/51 18/15/52
f 15/20/53 16/22/54 20/17/55 19/16/56
f 16/22/57 13/23/58 17/13/59 20/17/60
f 5/24/61 10/18/62 12/19/63
f 9/10/64 10/18/65 5/24/66 6/11/67
f 21/28/68 22/29/69 24/30/70 23/31/71
f 23/31/72 24/30/73 56/59/74 55/58/75
f 33/32/76 67/70/77 68/71/78 34/33/79
f 22/29/80 58/61/81 59/62/82 25/34/83
f 24/30/84 22/29/85 25/34/86 26/35/87
f 25/34/88 59/62/89 61/64/90 27/36/91
f 26/35/92 25/34/93 27/36/94 28/37/95
f 27/36/96 61/64/97 63/66/98 29/38/99
f 28/37/100 27/36/101 29/38/102 30/39/103
f 29/38/104 63/66/105 65/68/106 31/41/107
f 30/39/108 29/38/109 31/41/110 32/42/111
f 31/41/112 65/68/113 67/70/114 33/32/115
f 32/42/116 31/41/117 33/32/118 34/33/119
f 6/11/120 45/48/121 49/52/122 11/12/123
f 35/25/124 70/74/125 45/48/126
f 36/26/127 35/25/128 6/11/129 5/24/130
f 37/27/131 36/26/132 44/47/133 69/72/134
f 1/40/135 2/14/136 39/2/137 38/1/138
f 2/14/139 43/46/140 72/76/141 39/2/142
f 40/43/143 71/75/144 38/1/145 3/4/146
f 46/49/147 47/50/148 7/5/149 36/6/150 37/7/151
f 47/50/152 43/46/153 2/14/154 7/5/155
f 49/52/156 51/54/157 9/10/158 11/12/159
f 54/57/160 52/55/161 10/18/162 15/20/163 14/21/164
f 57/60/165 58/61/166 22/29/167 21/28/168
f 55/58/169 57/60/170 21/28/171 23/31/172
f 60/63/173 56/59/174 24/30/175 26/35/176
f 62/65/177 60/63/178 26/35/179 28/37/180
f 64/67/181 62/65/182 28/37/183 30/39/184
f 66/69/185 64/67/186 30/39/187 32/42/188
f 68/71/189 66/69/190 32/42/191 34/33/192
f 50/53/193 44/47/194 5/24/195 12/19/196
f 71/75/197 42/45/198 1/40/199 38/1/200
f 105/77/201 75/80/202 76/79/203 106/78/204
f 75/80/205 40/82/206 41/81/207 76/79/208
f 106/78/209 76/79/210 41/81/211 72/83/212
f 79/84/213 104/87/214 103/86/215 80/85/216
f 80/85/217 103/86/218 70/89/219 48/88/220
f 74/90/221 79/84/222 80/85/223 73/91/224
f 73/91/225 80/85/226 48/88/227 42/92/228
f 81/93/229 83/95/230 78/94/231
f 17/96/232 88/99/233 87/98/234 18/97/235
f 82/100/236 84/103/237 50/102/238 52/101/239
f 82/100/240 85/105/241 86/104/242 81/93/243
f 81/93/244 86/104/245 13/108/246 53/107/247 51/106/248
f 14/109/249 18/97/250 87/98/251 85/105/252
f 85/105/253 87/98/254 88/99/255 86/104/256
f 86/104/257 88/99/258 17/96/259 13/108/260
f 77/110/261 84/103/262 82/100/263
f 81/93/264 78/94/265 77/110/266 82/100/267
f 89/111/268 91/114/269 92/113/270 90/112/271
f 91/114/272 55/116/273 56/115/274 92/113/275
f 101/117/276 102/120/277 68/119/278 67/118/279
f 90/112/280 93/123/281 59/122/282 58/121/283
f 92/113/284 94/124/285 93/123/286 90/112/287
f 93/123/288 95/126/289 61/125/290 59/122/291
f 94/124/292 96/127/293 95/126/294 93/123/295
f 95/126/296 97/129/297 63/128/298 61/125/299
f 96/127/300 98/130/301 97/129/302 95/126/303
f 97/129/304 99/132/305 65/131/306 63/128/307
f 98/130/308 100/133/309 99/132/310 97/129/311
f 99/132/312 101/117/313 67/118/314 65/131/315
f 100/133/316 102/120/317 101/117/318 99/132/319
f 78/94/320 83/95/321 49/135/322 45/134/323
f 103/136/324 45/134/325 70/137/326
f 104/138/327 77/110/328 78/94/329 103/136/330
f 37/139/331 69/141/332 44/140/333 104/138/334
f 73/91/335 105/77/336 106/78/337 74/90/338
f 74/90/339 106/78/340 72/83/341 43/142/342
f 40/82/343 75/80/344 105/77/345 71/143/346
f 46/144/347 37/146/348 104/87/349 79/84/350 47/145/351
f 47/145/352 79/84/353 74/90/354 43/142/355
f 49/135/356 83/95/357 81/93/358 51/106/359
f 54/147/360 14/109/361 85/105/362 82/100/363 52/101/364
f 57/148/365 89/111/366 90/112/367 58/121/368
f 55/116/369 91/114/370 89/111/371 57/148/372
f 60/149/373 94/124/374 92/113/375 56/115/376
f 62/150/377 96/127/378 94/124/379 60/149/380
f 64/151/381 98/130/382 96/127/383 62/150/384
f 66/152/385 100/133/386 98/130/387 64/151/388
f 68/119/389 102/120/390 100/133/391 66/152/392
f 50/102/393 84/103/394 77/110/395 44/140/396
f 71/143/397 105/77/398 73/91/399 42/92/400
f 103/136/401 78/94/402 45/134/403
f 35/25/404 45/48/405 6/11/406
f 44/47/407 36/26/408 5/24/409
f 104/138/410 44/140/411 77/110/412
