# This file uses centimeters as units for non-parametric coordinates.

v 7.513576 13.291267 -0.000000
v 8.326601 12.320027 2.010344
v 13.590844 7.194584 1.978746
v 5.434266 10.933311 -0.000000
v 6.418004 10.285797 2.007103
v 11.496643 5.212839 1.976177
v 8.051180 13.735638 4.024384
v 15.016043 6.839423 3.979756
v 15.648661 7.658595 3.981401
v 8.786065 14.387813 4.025115
v 7.655356 14.134178 0.000000
v 8.820192 15.149338 -0.000000
v 3.765539 9.864048 -0.000000
v 4.501715 10.015716 4.018606
v 5.119497 10.774768 4.020051
v 4.804348 11.093483 -0.000000
v 11.243147 3.209344 3.974890
v 12.117250 3.911718 3.975471
v -13.260172 -10.098070 1.984482
v -8.699526 -14.613763 1.955261
v 13.909197 16.827881 2.024599
v 18.111712 12.699862 1.994103
v 13.929417 18.261478 -0.000000
v 19.379284 12.714218 -0.000000
v -10.940515 -12.394917 1.969619
v 15.953390 17.681868 -0.000000
v 15.010881 16.206026 2.019390
v -10.576438 -9.182531 1.981372
v 18.678661 14.745139 -0.000000
v 17.327709 13.915531 2.000256
v -7.731877 -11.999108 1.963146
v 17.382488 11.825182 1.991877
v 12.906794 16.340010 2.025185
v 12.261522 17.044979 0.000000
v -9.488874 -15.136264 1.955177
v -15.964842 -17.469227 1.962193
v -13.801062 -10.866522 1.982806
v -14.411880 -16.273930 2.356055
v -13.382972 -16.693174 2.350752
v -15.352370 -15.888118 2.360909
v -11.592520 -13.053464 1.968655
v 14.494712 6.378488 -0.000000
v 12.189943 4.246071 -0.000000
v 15.339899 6.525364 0.000000
v 16.365704 7.709233 0.000000
v 14.868223 9.187260 0.000000
v 8.559158 5.180783 0.000000
v 11.252155 2.552578 -0.000000
v 12.375913 3.596761 -0.000000
v 18.540146 11.518670 0.000000
v -13.789882 -9.570386 -0.000000
v -8.112970 -15.191398 0.000000
v 18.253853 11.111610 -0.000000
v -8.953678 -15.663043 -0.000000
v -16.971668 -18.472191 0.000000
v -14.251617 -10.417280 -0.000000
v -12.995852 -17.146664 -0.000000
v -15.847024 -15.810410 -0.000000
v 8.326538 12.319978 -2.010345
v 13.590823 7.194560 -1.978746
v 6.418036 10.285802 -2.007103
v 11.496599 5.212832 -1.976178
v 8.051158 13.735664 -4.024382
v 15.016056 6.839407 -3.979756
v 15.648636 7.658609 -3.981401
v 8.786096 14.387792 -4.025113
v 4.501710 10.015713 -4.018602
v 5.119473 10.774792 -4.020049
v 11.243155 3.209312 -3.974891
v 12.117244 3.911706 -3.975471
v -13.260173 -10.098091 -1.984483
v -8.699539 -14.613738 -1.955261
v 13.909229 16.827839 -2.024600
v 18.111679 12.699903 -1.994104
v -10.940437 -12.394890 -1.969619
v 15.010822 16.206015 -2.019390
v -10.576489 -9.182504 -1.981372
v 17.327749 13.915508 -2.000256
v -7.731894 -11.999061 -1.963146
v 17.382492 11.825182 -1.991877
v 12.906795 16.339998 -2.025186
v -9.488885 -15.136238 -1.955177
v -15.964761 -17.469175 -1.962194
v -13.801069 -10.866539 -1.982806
v -14.411896 -16.274021 -2.356055
v -13.382981 -16.693108 -2.350752
v -15.352412 -15.888169 -2.360909
v -11.592505 -13.053373 -1.968656
v 6.105200 9.213085 1.984765
v 7.002621 8.324547 1.979015
v 9.847210 5.507998 1.960789
v 10.665846 4.697392 1.955544
v 5.575344 9.740624 0.000283
v 11.252259 4.119617 0.000283
v 6.108114 9.216008 -1.984196
v 7.005481 8.327517 -1.983725
v 9.850050 5.510929 -1.965499
v 10.668685 4.700304 -1.954974
v 9.638366 13.077392 2.025232
v 8.961550 13.750503 0.000000
v 14.155684 8.604604 1.991985
v 14.953903 7.817161 -0.000000
v 14.158604 8.607546 -1.991765
v 9.641333 13.080377 -2.025135
vt 0.942886 0.958746
vt 0.961958 0.958746
vt 0.961711 0.961693
vt 0.943010 0.961559
vt 0.941834 0.958746
vt 0.942054 0.963166
vt 0.943145 0.947737
vt 0.944440 0.948407
vt 0.944263 0.956406
vt 0.942792 0.956741
vt 0.960420 0.948407
vt 0.960641 0.956674
vt 0.942301 0.942189
vt 0.943072 0.943997
vt 0.942886 0.946792
vt 0.942054 0.946792
vt 0.961711 0.943730
vt 0.961958 0.946926
vt 0.774979 0.983481
vt 0.773643 0.982663
vt 0.774418 0.981464
vt 0.775672 0.981478
vt 0.770263 0.985536
vt 0.989744 0.833337
vt 0.984858 0.826008
vt 0.771353 0.984922
vt 0.772284 0.986378
vt 0.921741 0.949334
vt 0.916532 0.956135
vt 0.770283 0.986950
vt 0.773697 0.980601
vt 0.774559 0.979898
vt 0.774842 0.980299
vt 0.923392 0.957392
vt 0.918974 0.960834
vt 0.916187 0.957392
vt 0.930353 0.957392
vt 0.927810 0.960834
vt 0.203694 0.983168
vt 0.202972 0.983078
vt 0.203612 0.982441
vt 0.929926 0.956135
vt 0.923392 0.956135
vt 0.923392 0.949495
vt 0.925197 0.949676
vt 0.980388 0.832063
vt 0.984858 0.832666
vt 0.961914 0.956741
vt 0.961648 0.947741
vt 0.962876 0.958746
vt 0.962673 0.963230
vt 0.958579 0.963220
vt 0.955341 0.942317
vt 0.962663 0.942395
vt 0.962787 0.946792
vt 0.768634 0.985750
vt 0.914558 0.957392
vt 0.932191 0.957392
vt 0.769272 0.985054
vt 0.931605 0.956135
vt 0.984858 0.818815
vt 0.915149 0.956135
vt 0.992132 0.832445
vt 0.926079 0.949436
vt 0.920969 0.949117
vt 0.978299 0.831257
vt 0.942886 0.958746
vt 0.961958 0.958746
vt 0.961711 0.961693
vt 0.943010 0.961559
vt 0.962876 0.958746
vt 0.962673 0.963230
vt 0.941834 0.958746
vt 0.942054 0.963166
vt 0.943145 0.947737
vt 0.944440 0.948407
vt 0.944263 0.956406
vt 0.942792 0.956741
vt 0.960420 0.948407
vt 0.960641 0.956674
vt 0.961648 0.947741
vt 0.961914 0.956741
vt 0.942301 0.942189
vt 0.943072 0.943997
vt 0.942886 0.946792
vt 0.942054 0.946792
vt 0.961711 0.943730
vt 0.961958 0.946926
vt 0.962663 0.942395
vt 0.962787 0.946792
vt 0.958579 0.963220
vt 0.955341 0.942317
vt 0.774419 0.981464
vt 0.773643 0.982663
vt 0.770263 0.985536
vt 0.771352 0.984922
vt 0.773697 0.980601
vt 0.769272 0.985054
vt 0.765371 0.982500
vt 0.766040 0.981837
vt 0.770507 0.977425
vt 0.771296 0.976648
vt 0.770510 0.977428
vt 0.766043 0.981840
vt 0.923392 0.957392
vt 0.918974 0.960834
vt 0.916187 0.957392
vt 0.930353 0.957392
vt 0.927810 0.960834
vt 0.198832 0.979304
vt 0.203694 0.983168
vt 0.203612 0.982441
vt 0.202972 0.983078
vt 0.929926 0.956135
vt 0.923392 0.956135
vt 0.923392 0.949495
vt 0.925197 0.949676
vt 0.916532 0.956135
vt 0.921741 0.949334
vt 0.914558 0.957392
vt 0.915149 0.956135
vt 0.926079 0.949436
vt 0.931605 0.956135
vt 0.980388 0.832063
vt 0.978299 0.831257
vt 0.984858 0.818815
vt 0.984858 0.826008
vt 0.989744 0.833337
vt 0.984858 0.832666
vt 0.992132 0.832445
vt 0.920969 0.949117
vt 0.932191 0.957392
vt 0.204216 0.982648
vt 0.199657 0.978485
vt 0.199859 0.978284
vt 0.203190 0.983669
vt 0.198832 0.979304
vt 0.199017 0.979121
vt 0.204335 0.982529
vt 0.199978 0.978165
vt 0.203058 0.983800
vt 0.198700 0.979435
vt 0.204216 0.982648
vt 0.199858 0.978283
vt 0.199656 0.978484
vt 0.203190 0.983669
vt 0.199016 0.979121
vn 0.002504 -0.003943 0.999989
vn 0.002504 -0.003943 0.999989
vn 0.002504 -0.003943 0.999989
vn 0.002504 -0.003943 0.999989
vn 0.764555 -0.633116 0.120912
vn 0.770212 -0.637788 -0.000001
vn 0.770212 -0.637788 -0.000001
vn 0.764555 -0.633116 0.120912
vn -0.659661 0.751563 -0.000001
vn -0.653483 0.744503 0.136659
vn -0.653483 0.744503 0.136659
vn -0.659661 0.751563 -0.000001
vn -0.634489 0.575706 0.515739
vn -0.634489 0.575706 0.515739
vn -0.634489 0.575706 0.515739
vn -0.634489 0.575706 0.515739
vn 0.002329 -0.003768 0.999990
vn 0.002329 -0.003768 0.999990
vn 0.002329 -0.003768 0.999990
vn 0.002329 -0.003768 0.999990
vn 0.584247 -0.625015 0.517699
vn 0.584247 -0.625015 0.517699
vn 0.584247 -0.625015 0.517699
vn 0.584247 -0.625015 0.517699
vn -0.768358 0.640021 0.000002
vn -0.763427 0.635922 0.113059
vn -0.763427 0.635922 0.113059
vn -0.768358 0.640021 0.000002
vn 0.002504 -0.003942 0.999989
vn 0.002504 -0.003942 0.999989
vn 0.002504 -0.003942 0.999989
vn 0.002504 -0.003942 0.999989
vn 0.653901 -0.748027 0.113442
vn 0.658154 -0.752884 0.000002
vn 0.658154 -0.752884 0.000002
vn 0.653901 -0.748027 0.113442
vn -0.652175 -0.665728 0.362593
vn -0.652175 -0.665728 0.362593
vn -0.652175 -0.665728 0.362593
vn -0.652175 -0.665728 0.362593
vn -0.211936 -0.967234 0.139788
vn -0.214033 -0.976827 0.000001
vn -0.214033 -0.976827 0.000001
vn -0.211936 -0.967234 0.139788
vn 0.694779 0.706066 0.136941
vn 0.694779 0.706066 0.136941
vn 0.701387 0.712781 0.000001
vn 0.701387 0.712781 0.000000
vn 0.701387 0.712781 0.000001
vn -0.981002 -0.193999 0.000000
vn -0.969791 -0.191797 0.150730
vn -0.969791 -0.191797 0.150730
vn -0.981002 -0.193999 0.000001
vn -0.697716 -0.703579 0.134794
vn -0.697716 -0.703579 0.134794
vn -0.704142 -0.710059 0.000001
vn -0.704142 -0.710059 0.000001
vn -0.704142 -0.710059 0.000001
vn 0.379637 0.922770 0.066117
vn 0.380467 0.924795 0.000000
vn 0.380467 0.924795 0.000000
vn 0.379637 0.922770 0.066117
vn 0.680694 0.687092 0.254088
vn 0.680694 0.687092 0.254088
vn 0.680694 0.687092 0.254088
vn 0.680694 0.687092 0.254088
vn 0.750983 0.342346 0.564645
vn 0.750983 0.342347 0.564645
vn 0.750983 0.342346 0.564645
vn 0.750983 0.342346 0.564645
vn 0.286959 0.743918 0.603524
vn 0.286959 0.743918 0.603524
vn 0.286959 0.743918 0.603524
vn 0.286959 0.743918 0.603524
vn 0.560759 0.538597 0.628858
vn 0.560759 0.538597 0.628858
vn 0.560759 0.538597 0.628858
vn 0.560759 0.538597 0.628858
vn 0.002504 -0.003942 0.999989
vn 0.002504 -0.003942 0.999989
vn 0.002504 -0.003942 0.999989
vn 0.002503 -0.003942 0.999989
vn 0.002503 -0.003942 0.999989
vn 0.002503 -0.003942 0.999989
vn 0.705718 -0.528770 0.471555
vn 0.705718 -0.528770 0.471555
vn 0.705718 -0.528770 0.471555
vn 0.705718 -0.528770 0.471555
vn 0.705718 -0.528770 0.471555
vn -0.475663 0.745400 0.467037
vn -0.475663 0.745400 0.467037
vn -0.475663 0.745400 0.467037
vn -0.475663 0.745400 0.467037
vn 0.002504 -0.003942 0.999989
vn 0.002504 -0.003942 0.999989
vn 0.002504 -0.003942 0.999989
vn 0.064197 0.072904 0.995271
vn 0.064197 0.072904 0.995271
vn 0.064197 0.072904 0.995271
vn 0.064197 0.072904 0.995271
vn 0.056950 0.062346 0.996429
vn 0.056950 0.062346 0.996428
vn 0.056950 0.062346 0.996428
vn 0.056950 0.062346 0.996428
vn -0.804622 0.499086 0.321709
vn -0.804622 0.499086 0.321709
vn -0.804622 0.499086 0.321709
vn -0.804622 0.499086 0.321709
vn 0.355636 -0.891938 0.279231
vn 0.355636 -0.891938 0.279231
vn 0.355636 -0.891938 0.279231
vn 0.355636 -0.891938 0.279231
vn -0.906069 0.348396 0.240126
vn -0.933381 0.358888 -0.000002
vn -0.933381 0.358888 -0.000001
vn -0.906069 0.348396 0.240126
vn -0.082172 -0.213979 0.973376
vn -0.082172 -0.213979 0.973376
vn -0.082172 -0.213979 0.973376
vn -0.082559 -0.213499 0.973449
vn -0.082559 -0.213499 0.973449
vn -0.082559 -0.213499 0.973449
vn 0.002503 -0.003942 0.999989
vn 0.002503 -0.003942 0.999989
vn 0.002503 -0.003942 0.999989
vn 0.002503 -0.003942 0.999989
vn 0.002504 -0.003942 0.999989
vn 0.002504 -0.003942 0.999989
vn 0.002504 -0.003942 0.999989
vn 0.002504 -0.003942 0.999989
vn 0.002980 -0.004528 0.999985
vn 0.001701 -0.003964 0.999991
vn 0.003085 -0.004574 0.999985
vn 0.003086 -0.004553 0.999985
vn 0.003112 -0.004580 0.999985
vn 0.002503 -0.003941 0.999989
vn 0.002980 -0.004528 0.999985
vn 0.003085 -0.004574 0.999985
vn 0.003112 -0.004580 0.999985
vn 0.003086 -0.004553 0.999985
vn 0.903950 0.427638 -0.000002
vn 0.903950 0.427638 -0.000002
vn 0.902711 0.427041 0.052422
vn 0.902711 0.427041 0.052422
vn 0.279171 -0.921214 0.270976
vn 0.279171 -0.921214 0.270976
vn 0.279171 -0.921214 0.270976
vn 0.279171 -0.921214 0.270977
vn -0.954775 0.297330 0.000003
vn -0.954775 0.297330 0.000001
vn -0.927598 0.288866 0.236892
vn -0.927598 0.288866 0.236892
vn 0.485007 -0.795276 0.363737
vn 0.485007 -0.795276 0.363737
vn 0.485007 -0.795276 0.363737
vn 0.485007 -0.795276 0.363736
vn 0.002504 -0.003942 -0.999989
vn 0.002504 -0.003942 -0.999989
vn 0.002504 -0.003942 -0.999989
vn 0.002504 -0.003942 -0.999989
vn 0.764567 -0.633101 -0.120914
vn 0.764567 -0.633101 -0.120914
vn 0.770212 -0.637788 -0.000001
vn 0.770212 -0.637788 -0.000001
vn -0.659661 0.751563 -0.000001
vn -0.659661 0.751563 -0.000001
vn -0.653461 0.744521 -0.136661
vn -0.653461 0.744521 -0.136661
vn -0.634491 0.575702 -0.515740
vn -0.634491 0.575702 -0.515740
vn -0.634491 0.575702 -0.515740
vn -0.634492 0.575702 -0.515740
vn 0.002329 -0.003768 -0.999990
vn 0.002329 -0.003768 -0.999990
vn 0.002329 -0.003768 -0.999990
vn 0.002329 -0.003768 -0.999990
vn 0.584242 -0.625017 -0.517702
vn 0.584242 -0.625017 -0.517702
vn 0.584242 -0.625017 -0.517702
vn 0.584242 -0.625017 -0.517702
vn -0.768358 0.640021 0.000002
vn -0.768358 0.640021 0.000002
vn -0.763435 0.635913 -0.113055
vn -0.763435 0.635913 -0.113055
vn 0.002504 -0.003942 -0.999989
vn 0.002504 -0.003942 -0.999989
vn 0.002504 -0.003942 -0.999989
vn 0.002504 -0.003942 -0.999989
vn 0.653909 -0.748021 -0.113437
vn 0.653909 -0.748021 -0.113437
vn 0.658154 -0.752884 0.000002
vn 0.658154 -0.752884 0.000002
vn -0.652167 -0.665724 -0.362616
vn -0.652167 -0.665724 -0.362616
vn -0.652167 -0.665724 -0.362616
vn -0.652167 -0.665724 -0.362616
vn -0.211926 -0.967237 -0.139784
vn -0.211926 -0.967237 -0.139784
vn -0.214033 -0.976827 0.000001
vn -0.214033 -0.976827 0.000001
vn 0.694780 0.706065 -0.136941
vn 0.701387 0.712781 0.000001
vn 0.701387 0.712781 0.000000
vn 0.701387 0.712781 0.000001
vn 0.694780 0.706065 -0.136941
vn -0.981002 -0.193999 0.000000
vn -0.981002 -0.193999 0.000001
vn -0.969798 -0.191768 -0.150723
vn -0.969798 -0.191768 -0.150723
vn -0.697716 -0.703579 -0.134792
vn -0.704142 -0.710059 0.000001
vn -0.704142 -0.710059 0.000001
vn -0.704142 -0.710059 0.000001
vn -0.697716 -0.703579 -0.134792
vn 0.379632 0.922772 -0.066115
vn 0.379632 0.922772 -0.066115
vn 0.380467 0.924795 0.000000
vn 0.380467 0.924795 0.000000
vn 0.680696 0.687089 -0.254089
vn 0.680696 0.687089 -0.254089
vn 0.680696 0.687089 -0.254089
vn 0.680696 0.687089 -0.254089
vn 0.750988 0.342337 -0.564644
vn 0.750988 0.342337 -0.564644
vn 0.750988 0.342337 -0.564644
vn 0.750988 0.342337 -0.564644
vn 0.286958 0.743912 -0.603531
vn 0.286958 0.743912 -0.603531
vn 0.286958 0.743912 -0.603531
vn 0.286958 0.743912 -0.603531
vn 0.560752 0.538600 -0.628863
vn 0.560752 0.538600 -0.628863
vn 0.560752 0.538600 -0.628863
vn 0.560752 0.538600 -0.628863
vn 0.002504 -0.003942 -0.999989
vn 0.002504 -0.003942 -0.999989
vn 0.002504 -0.003942 -0.999989
vn 0.002504 -0.003942 -0.999989
vn 0.002504 -0.003942 -0.999989
vn 0.002504 -0.003942 -0.999989
vn 0.705723 -0.528754 -0.471565
vn 0.705723 -0.528754 -0.471565
vn 0.705723 -0.528754 -0.471565
vn 0.705723 -0.528754 -0.471565
vn 0.705723 -0.528754 -0.471565
vn -0.475650 0.745401 -0.467049
vn -0.475650 0.745401 -0.467049
vn -0.475650 0.745401 -0.467049
vn -0.475650 0.745401 -0.467049
vn 0.002504 -0.003942 -0.999989
vn 0.002504 -0.003942 -0.999989
vn 0.002504 -0.003942 -0.999989
vn 0.064195 0.072903 -0.995271
vn 0.064195 0.072903 -0.995271
vn 0.064195 0.072903 -0.995271
vn 0.064195 0.072903 -0.995271
vn 0.056947 0.062345 -0.996429
vn 0.056947 0.062345 -0.996429
vn 0.056947 0.062345 -0.996429
vn 0.056947 0.062345 -0.996429
vn -0.804619 0.499089 -0.321712
vn -0.804619 0.499089 -0.321712
vn -0.804619 0.499089 -0.321712
vn -0.804619 0.499089 -0.321712
vn 0.355631 -0.891934 -0.279250
vn 0.355631 -0.891934 -0.279250
vn 0.355631 -0.891934 -0.279250
vn 0.355631 -0.891934 -0.279250
vn -0.906072 0.348378 -0.240140
vn -0.906072 0.348378 -0.240139
vn -0.933381 0.358888 -0.000001
vn -0.933381 0.358888 -0.000002
vn -0.082157 -0.214023 -0.973367
vn -0.082157 -0.214023 -0.973367
vn -0.082157 -0.214023 -0.973368
vn -0.082571 -0.213513 -0.973445
vn -0.082571 -0.213513 -0.973445
vn -0.082571 -0.213513 -0.973445
vn 0.002504 -0.003942 -0.999989
vn 0.002504 -0.003942 -0.999989
vn 0.002504 -0.003942 -0.999989
vn 0.002504 -0.003942 -0.999989
vn 0.002503 -0.003943 -0.999989
vn 0.002503 -0.003943 -0.999989
vn 0.002503 -0.003943 -0.999989
vn 0.002503 -0.003943 -0.999989
vn 0.002981 -0.004528 -0.999985
vn 0.003085 -0.004574 -0.999985
vn 0.001702 -0.003963 -0.999991
vn 0.003086 -0.004553 -0.999985
vn 0.002503 -0.003943 -0.999989
vn 0.003112 -0.004580 -0.999985
vn 0.002981 -0.004528 -0.999985
vn 0.003086 -0.004553 -0.999985
vn 0.003112 -0.004580 -0.999985
vn 0.003085 -0.004574 -0.999985
vn 0.903950 0.427638 -0.000002
vn 0.902703 0.427058 -0.052426
vn 0.902703 0.427058 -0.052426
vn 0.903950 0.427638 -0.000002
vn 0.279174 -0.921208 -0.270993
vn 0.279174 -0.921208 -0.270993
vn 0.279174 -0.921208 -0.270993
vn 0.279174 -0.921208 -0.270993
vn -0.954775 0.297330 0.000003
vn -0.927599 0.288868 -0.236887
vn -0.927599 0.288868 -0.236887
vn -0.954775 0.297330 0.000001
vn 0.485006 -0.795271 -0.363749
vn 0.485006 -0.795271 -0.363749
vn 0.485006 -0.795271 -0.363749
vn 0.485006 -0.795271 -0.363749
vn 0.002492 -0.002445 0.999994
vn 0.002492 -0.002445 0.999994
vn 0.002492 -0.002445 0.999994
vn 0.002492 -0.002445 0.999994
vn 0.004052 -0.004010 0.999984
vn 0.004052 -0.004010 0.999984
vn 0.004052 -0.004010 0.999984
vn 0.004052 -0.004010 0.999984
vn 0.003280 -0.003159 0.999990
vn 0.003280 -0.003159 0.999990
vn 0.003280 -0.003159 0.999990
vn 0.003280 -0.003159 0.999990
vn -0.660774 0.662624 0.352573
vn -0.660774 0.662624 0.352573
vn -0.660774 0.662624 0.352573
vn -0.660774 0.662624 0.352573
vn 0.650786 -0.652619 0.388029
vn 0.650786 -0.652619 0.388029
vn 0.650786 -0.652619 0.388029
vn 0.650786 -0.652619 0.388029
vn 0.001008 -0.001068 -0.999999
vn 0.001008 -0.001068 -0.999999
vn 0.001008 -0.001068 -0.999999
vn 0.001008 -0.001068 -0.999999
vn 0.005541 -0.005616 -0.999969
vn 0.005541 -0.005616 -0.999969
vn 0.005541 -0.005616 -0.999969
vn 0.005541 -0.005616 -0.999969
vn -0.660769 0.662628 -0.352574
vn -0.660769 0.662628 -0.352574
vn -0.660769 0.662628 -0.352574
vn -0.660769 0.662628 -0.352574
vn 0.003146 -0.003293 -0.999990
vn 0.003146 -0.003293 -0.999990
vn 0.003146 -0.003293 -0.999990
vn 0.003146 -0.003293 -0.999990
vn 0.650787 -0.652608 -0.388046
vn 0.650787 -0.652608 -0.388046
vn 0.650787 -0.652608 -0.388046
vn 0.650787 -0.652608 -0.388046
vn -0.639052 0.640157 0.426393
vn -0.639052 0.640157 0.426393
vn -0.639052 0.640157 0.426393
vn -0.639052 0.640157 0.426393
vn 0.003710 -0.003693 0.999986
vn 0.003710 -0.003693 0.999986
vn 0.003710 -0.003693 0.999986
vn 0.003710 -0.003693 0.999986
vn 0.615686 -0.616786 0.490415
vn 0.615686 -0.616786 0.490415
vn 0.615686 -0.616786 0.490415
vn 0.615686 -0.616786 0.490415
vn 0.615667 -0.616786 -0.490437
vn 0.615667 -0.616786 -0.490437
vn 0.615667 -0.616786 -0.490437
vn 0.615667 -0.616786 -0.490437
vn -0.639051 0.640153 -0.426400
vn -0.639051 0.640153 -0.426400
vn -0.639051 0.640153 -0.426400
vn -0.639051 0.640153 -0.426400
vn 0.003692 -0.003724 -0.999986
vn 0.003692 -0.003724 -0.999986
vn 0.003692 -0.003724 -0.999986
vn 0.003692 -0.003724 -0.999986
s off
f 7/1/1 8/2/2 9/3/3 10/4/4
f 8/2/5 44/50/6 45/51/7 9/3/8
f 11/5/9 7/1/10 10/4/11 12/6/12
f 4/7/13 5/8/14 2/9/15 1/10/16
f 5/8/17 6/11/18 3/12/19 2/9/20
f 6/11/21 43/49/22 42/48/23 3/12/24
f 13/13/25 14/14/26 15/15/27 16/16/28
f 14/14/29 17/17/30 18/18/31 15/15/32
f 17/17/33 48/54/34 49/55/35 18/18/36
f 2/9/37 3/12/38 8/2/39 7/1/40
f 3/12/41 42/48/42 44/50/43 8/2/44
f 10/4/45 9/3/46 45/51/47 46/52/48 12/6/49
f 1/10/50 2/9/51 7/1/52 11/5/53
f 17/17/54 14/14/55 13/13/56 47/53/57 48/54/58
f 5/8/59 4/7/60 16/16/61 15/15/62
f 6/11/63 5/8/64 15/15/65 18/18/66
f 29/19/67 30/20/68 22/21/69 24/22/70
f 21/23/71 27/26/72 26/27/73 23/30/74
f 30/20/75 29/19/76 26/27/77 27/26/78
f 25/34/79 28/35/80 19/36/81
f 20/37/82 31/38/83 25/34/84
f 32/31/85 53/32/86 50/33/87 24/22/88 22/21/89
f 21/23/90 23/30/91 34/56/92 33/59/93
f 25/39/94 31/40/95 28/41/96
f 35/42/97 41/43/98 38/44/99 39/45/100
f 41/43/101 37/29/102 40/28/103 38/44/104
f 19/36/105 51/57/106 56/62/107 37/29/108
f 39/45/109 57/64/110 54/60/111 35/42/112
f 40/46/113 58/66/114 55/61/115 36/25/116
f 39/24/117 38/47/118 36/25/119
f 38/47/120 40/46/121 36/25/122
f 20/37/123 25/34/124 41/43/125 35/42/126
f 25/34/127 19/36/128 37/29/129 41/43/130
f 32/31/131 22/21/132 30/20/133
f 33/59/134 27/26/135 21/23/136
f 32/31/137 30/20/138 27/26/139 33/59/140
f 49/55/141 43/49/142 6/11/143 18/18/144
f 55/61/145 57/63/146 39/24/147 36/25/148
f 56/62/149 58/65/150 40/28/151 37/29/152
f 54/60/153 52/58/154 20/37/155 35/42/156
f 63/67/157 66/70/158 65/69/159 64/68/160
f 64/68/161 65/69/162 45/72/163 44/71/164
f 11/73/165 12/74/166 66/70/167 63/67/168
f 4/75/169 1/78/170 59/77/171 61/76/172
f 61/76/173 59/77/174 60/80/175 62/79/176
f 62/79/177 60/80/178 42/82/179 43/81/180
f 13/83/181 16/86/182 68/85/183 67/84/184
f 67/84/185 68/85/186 70/88/187 69/87/188
f 69/87/189 70/88/190 49/90/191 48/89/192
f 59/77/193 63/67/194 64/68/195 60/80/196
f 60/80/197 64/68/198 44/71/199 42/82/200
f 66/70/201 12/74/202 46/91/203 45/72/204 65/69/205
f 1/78/206 11/73/207 63/67/208 59/77/209
f 69/87/210 48/89/211 47/92/212 13/83/213 67/84/214
f 61/76/215 68/85/216 16/86/217 4/75/218
f 62/79/219 70/88/220 68/85/221 61/76/222
f 29/19/223 24/22/224 74/93/225 78/94/226
f 73/95/227 23/30/228 26/27/229 76/96/230
f 78/94/231 76/96/232 26/27/233 29/19/234
f 75/105/235 71/107/236 77/106/237
f 72/108/238 75/105/239 79/109/240
f 80/97/241 74/93/242 24/22/243 50/33/244 53/32/245
f 73/95/246 81/98/247 34/56/248 23/30/249
f 75/111/250 77/112/251 79/113/252
f 82/114/253 86/117/254 85/116/255 88/115/256
f 88/115/257 85/116/258 87/119/259 84/118/260
f 71/107/261 84/118/262 56/121/263 51/120/264
f 86/117/265 82/114/266 54/123/267 57/122/268
f 87/124/269 83/127/270 55/126/271 58/125/272
f 86/128/273 83/127/274 85/129/275
f 85/129/276 83/127/277 87/124/278
f 72/108/279 82/114/280 88/115/281 75/105/282
f 75/105/283 88/115/284 84/118/285 71/107/286
f 80/97/287 78/94/288 74/93/289
f 81/98/290 73/95/291 76/96/292
f 80/97/293 81/98/294 76/96/295 78/94/296
f 49/90/297 70/88/298 62/79/299 43/81/300
f 55/126/301 83/127/302 86/128/303 57/130/304
f 56/121/305 84/118/306 87/119/307 58/131/308
f 54/123/309 82/114/310 72/108/311 52/132/312
f 19/133/313 28/41/314 90/134/315 89/135/316
f 31/40/317 20/136/318 92/137/319 91/138/320
f 28/41/321 31/40/322 91/138/323 90/134/324
f 51/139/325 19/133/326 89/135/327 93/140/328
f 20/136/329 52/141/330 94/142/331 92/137/332
f 77/112/333 71/143/334 95/144/335 96/145/336
f 72/146/337 79/113/338 97/147/339 98/110/340
f 71/143/341 51/139/342 93/140/343 95/144/344
f 79/113/345 77/112/346 96/145/347 97/147/348
f 52/141/349 72/146/350 98/110/351 94/142/352
f 33/59/353 34/56/354 100/99/355 99/100/356
f 32/31/357 33/59/358 99/100/359 101/101/360
f 53/32/361 32/31/362 101/101/363 102/102/364
f 80/97/365 53/32/366 102/102/367 103/103/368
f 34/56/369 81/98/370 104/104/371 100/99/372
f 81/98/373 80/97/374 103/103/375 104/104/376
