# This file uses centimeters as units for non-parametric coordinates.

v -15.198303 -16.451977 3.999998
v 15.401489 -13.471256 3.999998
v -15.401489 17.331753 3.999998
v 15.401489 17.331753 3.999998
v -17.252258 19.182484 0.000000
v 17.252258 18.992077 -0.000000
v -16.596924 -19.395348 -0.000000
v 16.871399 -15.004635 0.000000
v -11.648438 -9.718189 3.999998
v 11.648438 -9.331207 3.999998
v -12.210205 13.578690 3.999998
v 11.985046 13.861115 3.999998
v -10.818237 -8.887974 2.000000
v 10.818237 -8.887974 2.000000
v -10.818237 12.748470 2.000000
v 10.818237 12.748470 2.000000
v -12.445496 -13.471256 3.999998
v -11.389709 -15.321980 0.000000
v -15.147644 -10.981564 3.999998
v -16.807922 -10.384270 -0.000000
v 7.413696 16.991756 3.999998
v 5.394897 18.992077 0.000000
v 15.202148 -1.719597 3.999998
v 16.998352 2.111366 -0.000000
v -15.198303 -16.451977 -3.999998
v 15.401489 -13.471256 -3.999998
v -15.401489 17.331753 -3.999998
v 15.401489 17.331753 -3.999998
v -11.648438 -9.718189 -3.999998
v 11.648438 -9.331207 -3.999998
v -12.210205 13.578690 -3.999998
v 11.985046 13.861115 -3.999998
v -10.818237 -8.887974 -2.000000
v 10.818237 -8.887974 -2.000000
v -10.818237 12.748470 -2.000000
v 10.818237 12.748470 -2.000000
v -12.445496 -13.471256 -3.999998
v -15.147644 -10.981564 -3.999998
v 7.413696 16.991756 -3.999998
v 15.202148 -1.719597 -3.999998
vt 0.484907 0.957489
vt 0.491656 0.957399
vt 0.491059 0.957928
vt 0.484360 0.957978
vt 0.484554 0.947772
vt 0.486094 0.948850
vt 0.485782 0.949339
vt 0.484968 0.948551
vt 0.493960 0.952448
vt 0.494491 0.953462
vt 0.494566 0.957928
vt 0.494019 0.957489
vt 0.484983 0.949998
vt 0.484491 0.950156
vt 0.493008 0.956570
vt 0.485851 0.956496
vt 0.486018 0.950332
vt 0.492909 0.950435
vt 0.492663 0.950552
vt 0.486263 0.950552
vt 0.486263 0.956276
vt 0.492663 0.956276
vt 0.494454 0.948934
vt 0.494019 0.949339
vt 0.459687 0.971404
vt 0.459687 0.982646
vt 0.448447 0.982646
vt 0.448447 0.971404
vt 0.484907 0.957489
vt 0.491656 0.957399
vt 0.491059 0.957928
vt 0.484360 0.957978
vt 0.484554 0.947772
vt 0.486094 0.948850
vt 0.485782 0.949339
vt 0.484968 0.948551
vt 0.493960 0.952448
vt 0.494491 0.953462
vt 0.494566 0.957928
vt 0.494019 0.957489
vt 0.484983 0.949998
vt 0.484491 0.950156
vt 0.493008 0.956570
vt 0.485851 0.956496
vt 0.486018 0.950332
vt 0.492909 0.950435
vt 0.492663 0.950552
vt 0.486263 0.950552
vt 0.486263 0.956276
vt 0.492663 0.956276
vt 0.494454 0.948934
vt 0.494019 0.949339
vt 0.459687 0.971404
vt 0.459687 0.982646
vt 0.448447 0.982646
vt 0.448447 0.971404
vn 0.010535 0.902969 0.429577
vn -0.000666 0.905694 0.423932
vn 0.005334 0.904253 0.426964
vn 0.010535 0.902969 0.429577
vn 0.611475 -0.690004 0.387289
vn 0.096853 -0.910876 0.401153
vn 0.110551 -0.908772 0.402384
vn 0.611475 -0.690004 0.387289
vn 0.921624 -0.002098 0.388077
vn 0.915806 -0.008377 0.401534
vn 0.912811 -0.011514 0.408221
vn 0.912811 -0.011514 0.408221
vn -0.932985 -0.010330 0.359768
vn -0.932985 -0.010330 0.359768
vn -0.920672 -0.010896 0.390184
vn -0.919728 -0.010937 0.392404
vn -0.000000 0.000000 1.000000
vn -0.000000 0.000000 1.000000
vn -0.000000 0.000000 1.000000
vn -0.000000 0.000000 1.000000
vn -0.000000 0.000000 1.000000
vn -0.000000 0.000000 1.000000
vn 0.000000 0.000000 1.000000
vn 0.000000 0.000000 1.000000
vn 0.000000 0.000000 1.000000
vn -0.000000 0.000000 1.000000
vn -0.000000 0.000000 1.000000
vn 0.000000 0.000000 1.000000
vn 0.000000 0.000000 1.000000
vn -0.008206 0.952844 0.303350
vn -0.008206 0.952844 0.303350
vn -0.008206 0.952844 0.303350
vn -0.008206 0.952844 0.303350
vn 0.005542 -0.899371 0.437151
vn 0.005542 -0.899371 0.437151
vn 0.005542 -0.899371 0.437151
vn 0.005542 -0.899371 0.437151
vn 0.874110 0.010928 0.485605
vn 0.874110 0.010928 0.485605
vn 0.874110 0.010928 0.485605
vn 0.874110 0.010928 0.485605
vn -0.895123 0.006721 0.445768
vn -0.895123 0.006721 0.445768
vn -0.895123 0.006721 0.445768
vn -0.895123 0.006721 0.445768
vn 0.110551 -0.908772 0.402384
vn 0.096853 -0.910876 0.401153
vn 0.005206 -0.920385 0.390978
vn 0.005206 -0.920385 0.390978
vn -0.916877 -0.011060 0.399016
vn -0.919728 -0.010937 0.392404
vn -0.920672 -0.010896 0.390184
vn -0.916877 -0.011060 0.399016
vn 0.000000 0.000000 1.000000
vn -0.000000 0.000000 1.000000
vn 0.000000 0.000000 1.000000
vn 0.000000 0.000000 1.000000
vn -0.000000 0.000000 1.000000
vn -0.000000 0.000000 1.000000
vn -0.000000 0.000000 1.000000
vn 0.000000 0.000000 1.000000
vn 0.000000 0.000000 1.000000
vn 0.000000 0.000000 1.000000
vn 0.000000 0.000000 1.000000
vn 0.000000 0.000000 1.000000
vn -0.000000 0.000000 1.000000
vn -0.000000 0.000000 1.000000
vn 0.005334 0.904253 0.426964
vn -0.000666 0.905694 0.423932
vn -0.015575 0.909090 0.416309
vn -0.015575 0.909090 0.416309
vn -0.000000 0.000000 1.000000
vn -0.000000 0.000000 1.000000
vn -0.000000 0.000000 1.000000
vn 0.925579 0.002321 0.378547
vn 0.925579 0.002321 0.378547
vn 0.915806 -0.008377 0.401534
vn 0.921624 -0.002098 0.388077
vn 0.010535 0.902969 -0.429577
vn 0.010535 0.902969 -0.429577
vn 0.005334 0.904253 -0.426964
vn -0.000666 0.905694 -0.423932
vn 0.611475 -0.690004 -0.387289
vn 0.611475 -0.690004 -0.387289
vn 0.110551 -0.908772 -0.402384
vn 0.096853 -0.910876 -0.401153
vn 0.921624 -0.002098 -0.388077
vn 0.912811 -0.011514 -0.408221
vn 0.912811 -0.011514 -0.408221
vn 0.915806 -0.008377 -0.401534
vn -0.932985 -0.010330 -0.359768
vn -0.919728 -0.010937 -0.392404
vn -0.920672 -0.010896 -0.390184
vn -0.932985 -0.010330 -0.359768
vn 0.000000 0.000000 -1.000000
vn 0.000000 0.000000 -1.000000
vn 0.000000 0.000000 -1.000000
vn 0.000000 0.000000 -1.000000
vn 0.000000 0.000000 -1.000000
vn 0.000000 0.000000 -1.000000
vn 0.000000 0.000000 -1.000000
vn 0.000000 0.000000 -1.000000
vn 0.000000 0.000000 -1.000000
vn -0.000000 0.000000 -1.000000
vn -0.000000 0.000000 -1.000000
vn -0.000000 0.000000 -1.000000
vn -0.000000 0.000000 -1.000000
vn -0.008206 0.952844 -0.303350
vn -0.008206 0.952844 -0.303350
vn -0.008206 0.952844 -0.303350
vn -0.008206 0.952844 -0.303350
vn 0.005542 -0.899371 -0.437152
vn 0.005542 -0.899371 -0.437152
vn 0.005542 -0.899371 -0.437152
vn 0.005542 -0.899371 -0.437152
vn 0.874110 0.010928 -0.485605
vn 0.874110 0.010928 -0.485605
vn 0.874110 0.010928 -0.485605
vn 0.874110 0.010928 -0.485605
vn -0.895123 0.006721 -0.445768
vn -0.895123 0.006721 -0.445768
vn -0.895123 0.006721 -0.445768
vn -0.895123 0.006721 -0.445768
vn 0.110551 -0.908772 -0.402384
vn 0.005206 -0.920385 -0.390978
vn 0.005206 -0.920385 -0.390978
vn 0.096853 -0.910876 -0.401153
vn -0.916877 -0.011060 -0.399016
vn -0.916877 -0.011060 -0.399016
vn -0.920672 -0.010896 -0.390184
vn -0.919728 -0.010937 -0.392404
vn 0.000000 0.000000 -1.000000
vn 0.000000 0.000000 -1.000000
vn 0.000000 0.000000 -1.000000
vn 0.000000 0.000000 -1.000000
vn 0.000000 0.000000 -1.000000
vn -0.000000 0.000000 -1.000000
vn 0.000000 0.000000 -1.000000
vn 0.000000 0.000000 -1.000000
vn 0.000000 0.000000 -1.000000
vn 0.000000 0.000000 -1.000000
vn 0.000000 0.000000 -1.000000
vn 0.000000 0.000000 -1.000000
vn 0.000000 0.000000 -1.000000
vn 0.000000 0.000000 -1.000000
vn 0.005334 0.904253 -0.426964
vn -0.015575 0.909090 -0.416309
vn -0.015575 0.909090 -0.416309
vn -0.000666 0.905694 -0.423932
vn -0.000000 0.000000 -1.000000
vn -0.000000 0.000000 -1.000000
vn -0.000000 0.000000 -1.000000
vn 0.925579 0.002321 -0.378547
vn 0.921624 -0.002098 -0.388077
vn 0.915806 -0.008377 -0.401534
vn 0.925579 0.002321 -0.378547
s off
f 3/1/1 21/2/2 22/3/3 5/4/4
f 7/5/5 18/6/6 17/7/7 1/8/8
f 23/9/9 24/10/10 6/11/11 4/12/12
f 7/5/13 1/8/14 19/13/15 20/14/16
f 12/15/17 21/2/18 3/1/19 11/16/20
f 19/13/21 17/7/22 9/17/23 11/16/24 3/1/25
f 10/18/26 23/9/27 4/12/28 12/15/29
f 9/17/30 10/18/31 14/19/32 13/20/33
f 12/15/34 11/16/35 15/21/36 16/22/37
f 11/16/38 9/17/39 13/20/40 15/21/41
f 10/18/42 12/15/43 16/22/44 14/19/45
f 17/7/46 18/6/47 8/23/48 2/24/49
f 5/4/50 20/14/51 19/13/52 3/1/53
f 9/17/54 17/7/55 2/24/56 10/18/57
f 17/7/58 19/13/59 1/8/60
f 14/25/61 16/26/62 15/27/63 13/28/64
f 4/12/65 21/2/66 12/15/67
f 22/3/68 21/2/69 4/12/70 6/11/71
f 2/24/72 23/9/73 10/18/74
f 2/24/75 8/23/76 24/10/77 23/9/78
f 27/29/79 5/32/80 22/31/81 39/30/82
f 7/33/83 25/36/84 37/35/85 18/34/86
f 40/37/87 28/40/88 6/39/89 24/38/90
f 7/33/91 20/42/92 38/41/93 25/36/94
f 32/43/95 31/44/96 27/29/97 39/30/98
f 38/41/99 27/29/100 31/44/101 29/45/102 37/35/103
f 30/46/104 32/43/105 28/40/106 40/37/107
f 29/45/108 33/48/109 34/47/110 30/46/111
f 32/43/112 36/50/113 35/49/114 31/44/115
f 31/44/116 35/49/117 33/48/118 29/45/119
f 30/46/120 34/47/121 36/50/122 32/43/123
f 37/35/124 26/52/125 8/51/126 18/34/127
f 5/32/128 27/29/129 38/41/130 20/42/131
f 29/45/132 30/46/133 26/52/134 37/35/135
f 37/35/136 25/36/137 38/41/138
f 34/53/139 33/56/140 35/55/141 36/54/142
f 28/40/143 32/43/144 39/30/145
f 22/31/146 6/39/147 28/40/148 39/30/149
f 26/52/150 30/46/151 40/37/152
f 26/52/153 40/37/154 24/38/155 8/51/156
