# This file uses centimeters as units for non-parametric coordinates.

v -0.000244 18.341507 4.000000
v -7.443298 16.552048 4.000000
v -10.401001 10.871544 4.000000
v -10.846985 0.113846 4.000000
v -10.106628 -10.678345 4.000000
v -7.428955 -16.698929 4.000000
v -0.000244 -18.345947 4.000000
v 7.430847 -16.697250 4.000000
v 10.148621 -10.661163 4.000000
v 11.052002 -0.040932 4.000000
v 10.402405 10.862236 4.000000
v 7.443359 16.552040 4.000000
v -0.000305 13.201866 4.000000
v 2.718445 11.913231 4.000000
v 3.916382 7.413322 4.000000
v 4.188904 -0.048187 4.000000
v 3.963928 -8.017921 4.000000
v 2.665466 -12.021729 4.000000
v -0.000244 -13.106644 4.000000
v -2.665466 -12.021729 4.000000
v -3.963806 -8.014687 4.000000
v -4.135864 -0.192802 4.000000
v -3.905640 7.406723 4.000000
v -2.718628 11.911888 4.000000
v -8.277161 17.619583 -0.000000
v -0.000244 19.649940 -0.000000
v -11.655518 11.210602 -0.000000
v -12.185425 0.027321 -0.000000
v -11.490723 -11.234909 -0.000000
v -8.277161 -17.753845 -0.000000
v -0.000244 -19.649933 0.000000
v 8.277161 -17.753845 0.000000
v 11.513184 -11.231735 0.000000
v 12.300049 -0.053284 0.000000
v 11.655579 11.210602 -0.000000
v 8.277161 17.619583 -0.000000
v 1.949463 11.302917 -0.000000
v -0.000244 12.192154 -0.000000
v 2.756042 7.476936 -0.000000
v 2.971191 -0.053024 -0.000000
v 2.790466 -7.865601 -0.000000
v 1.949463 -11.377625 0.000000
v -0.000244 -12.107773 -0.000000
v -1.949402 -11.377625 0.000000
v -2.790466 -7.865601 0.000000
v -2.940918 -0.128304 -0.000000
v -2.749817 7.475792 -0.000000
v -1.949402 11.302917 -0.000000
v -0.000244 18.341507 -4.000000
v -7.443298 16.552048 -4.000000
v -10.401001 10.871544 -4.000000
v -10.846985 0.113846 -4.000000
v -10.106628 -10.678345 -4.000000
v -7.428955 -16.698929 -4.000000
v -0.000244 -18.345947 -4.000000
v 7.430847 -16.697250 -4.000000
v 10.148621 -10.661163 -4.000000
v 11.052002 -0.040932 -4.000000
v 10.402405 10.862236 -4.000000
v 7.443359 16.552040 -4.000000
v -0.000305 13.201866 -4.000000
v 2.718445 11.913231 -4.000000
v 3.916382 7.413322 -4.000000
v 4.188904 -0.048187 -4.000000
v 3.963928 -8.017921 -4.000000
v 2.665466 -12.021729 -4.000000
v -0.000244 -13.106644 -4.000000
v -2.665466 -12.021729 -4.000000
v -3.963806 -8.014687 -4.000000
v -4.135864 -0.192802 -4.000000
v -3.905640 7.406723 -4.000000
v -2.718628 11.911888 -4.000000
vt 0.013308 0.951589
vt 0.013254 0.951530
vt 0.013328 0.951674
vt 0.013326 0.951797
vt 0.013317 0.951913
vt 0.013293 0.951971
vt 0.013239 0.951952
vt 0.013186 0.951893
vt 0.013169 0.951807
vt 0.013167 0.951687
vt 0.013175 0.951570
vt 0.013199 0.951516
vt 0.013238 0.951612
vt 0.013251 0.951611
vt 0.013231 0.951652
vt 0.013227 0.951729
vt 0.013225 0.951813
vt 0.013229 0.951855
vt 0.013242 0.951871
vt 0.013255 0.951873
vt 0.013261 0.951839
vt 0.013265 0.951758
vt 0.013267 0.951676
vt 0.013264 0.951629
vt 0.013336 0.951582
vt 0.013282 0.951523
vt 0.013356 0.951667
vt 0.013355 0.951791
vt 0.013345 0.951909
vt 0.013321 0.951964
vt 0.013266 0.951944
vt 0.013214 0.951886
vt 0.013195 0.951802
vt 0.013194 0.951681
vt 0.013203 0.951563
vt 0.013227 0.951509
vt 0.013266 0.951605
vt 0.013279 0.951604
vt 0.013259 0.951643
vt 0.013255 0.951722
vt 0.013253 0.951807
vt 0.013257 0.951848
vt 0.013269 0.951865
vt 0.013282 0.951866
vt 0.013289 0.951832
vt 0.013293 0.951750
vt 0.013295 0.951667
vt 0.013291 0.951622
vt 0.013317 0.951913
vt 0.013293 0.951971
vt 0.013239 0.951952
vt 0.013242 0.951871
vt 0.013186 0.951893
vt 0.013169 0.951807
vt 0.013255 0.951873
vt 0.013229 0.951855
vt 0.013261 0.951839
vt 0.013326 0.951797
vt 0.013265 0.951758
vt 0.013225 0.951813
vt 0.013167 0.951687
vt 0.013227 0.951729
vt 0.013175 0.951570
vt 0.013231 0.951652
vt 0.013238 0.951612
vt 0.013199 0.951516
vt 0.013254 0.951530
vt 0.013251 0.951611
vt 0.013308 0.951589
vt 0.013264 0.951629
vt 0.013328 0.951674
vt 0.013267 0.951676
vt 0.013282 0.951523
vt 0.013336 0.951582
vt 0.013356 0.951667
vt 0.013355 0.951791
vt 0.013345 0.951909
vt 0.013321 0.951964
vt 0.013266 0.951944
vt 0.013214 0.951886
vt 0.013195 0.951802
vt 0.013194 0.951681
vt 0.013203 0.951563
vt 0.013227 0.951509
vt 0.013279 0.951604
vt 0.013266 0.951605
vt 0.013259 0.951643
vt 0.013255 0.951722
vt 0.013253 0.951807
vt 0.013257 0.951848
vt 0.013269 0.951865
vt 0.013282 0.951866
vt 0.013289 0.951832
vt 0.013293 0.951750
vt 0.013295 0.951667
vt 0.013291 0.951622
vn 0.000000 0.000000 1.000000
vn 0.000000 0.000000 1.000000
vn 0.000000 0.000000 1.000000
vn 0.000000 0.000000 1.000000
vn 0.000000 0.000000 1.000000
vn 0.000000 0.000000 1.000000
vn 0.000000 0.000000 1.000000
vn 0.000000 0.000000 1.000000
vn 0.000000 0.000000 1.000000
vn 0.000000 0.000000 1.000000
vn 0.000000 0.000000 1.000000
vn 0.000000 0.000000 1.000000
vn 0.000000 0.000000 1.000000
vn 0.000000 0.000000 1.000000
vn 0.000000 0.000000 1.000000
vn 0.000000 0.000000 1.000000
vn 0.000000 0.000000 1.000000
vn 0.000000 0.000000 1.000000
vn 0.000000 0.000000 1.000000
vn 0.000000 0.000000 1.000000
vn 0.000000 0.000000 1.000000
vn 0.000000 0.000000 1.000000
vn 0.000000 0.000000 1.000000
vn 0.000000 0.000000 1.000000
vn 0.000000 0.000000 1.000000
vn 0.000000 0.000000 1.000000
vn 0.000000 0.000000 1.000000
vn 0.000000 0.000000 1.000000
vn 0.000000 0.000000 1.000000
vn 0.000000 0.000000 1.000000
vn 0.000000 0.000000 1.000000
vn 0.000000 0.000000 1.000000
vn 0.000000 0.000000 1.000000
vn 0.000000 0.000000 1.000000
vn 0.000000 0.000000 1.000000
vn 0.000000 0.000000 1.000000
vn 0.000000 0.000000 1.000000
vn 0.000000 0.000000 1.000000
vn 0.000000 0.000000 1.000000
vn 0.000000 0.000000 1.000000
vn 0.000000 0.000000 1.000000
vn 0.000000 0.000000 1.000000
vn 0.000000 0.000000 1.000000
vn 0.000000 0.000000 1.000000
vn 0.000000 0.000000 1.000000
vn 0.000000 0.000000 1.000000
vn 0.000000 0.000000 1.000000
vn 0.000000 0.000000 1.000000
vn 0.000000 0.000000 1.000000
vn 0.000000 0.000000 1.000000
vn 0.000000 0.000000 1.000000
vn 0.000000 0.000000 1.000000
vn -0.225327 0.927303 0.298892
vn -0.225327 0.927303 0.298892
vn -0.225327 0.927303 0.298892
vn -0.225327 0.927303 0.298892
vn -0.845328 0.443034 0.298567
vn -0.845328 0.443034 0.298567
vn -0.845328 0.443034 0.298567
vn -0.845328 0.443034 0.298567
vn -0.950038 0.042256 0.309260
vn -0.950038 0.042256 0.309260
vn -0.950038 0.042256 0.309260
vn -0.950038 0.042256 0.309260
vn -0.943381 -0.061385 0.325983
vn -0.943381 -0.061385 0.325983
vn -0.943381 -0.061385 0.325983
vn -0.943381 -0.061385 0.325983
vn -0.857380 -0.402809 0.320381
vn -0.857380 -0.402809 0.320381
vn -0.857380 -0.402809 0.320381
vn -0.857380 -0.402809 0.320381
vn -0.210139 -0.931487 0.296941
vn -0.210139 -0.931487 0.296941
vn -0.210139 -0.931487 0.296941
vn -0.210139 -0.931487 0.296941
vn 0.210187 -0.931433 0.297075
vn 0.210187 -0.931433 0.297075
vn 0.210187 -0.931433 0.297075
vn 0.210187 -0.931433 0.297075
vn 0.856317 -0.405977 0.319225
vn 0.856317 -0.405977 0.319225
vn 0.856317 -0.405977 0.319225
vn 0.856317 -0.405977 0.319225
vn 0.946439 -0.073386 0.314432
vn 0.946439 -0.073386 0.314432
vn 0.946439 -0.073386 0.314432
vn 0.946439 -0.073386 0.314432
vn 0.952295 0.055593 0.300073
vn 0.952295 0.055593 0.300073
vn 0.952295 0.055593 0.300073
vn 0.952295 0.055593 0.300073
vn 0.845337 0.442796 0.298894
vn 0.845337 0.442796 0.298894
vn 0.845337 0.442796 0.298894
vn 0.845337 0.442796 0.298894
vn 0.225313 0.927307 0.298891
vn 0.225313 0.927307 0.298891
vn 0.225313 0.927307 0.298891
vn 0.225313 0.927307 0.298891
vn -0.412531 -0.884296 0.218723
vn -0.412531 -0.884296 0.218723
vn -0.412531 -0.884296 0.218723
vn -0.412531 -0.884296 0.218723
vn -0.943090 -0.227055 0.242957
vn -0.943090 -0.227055 0.242957
vn -0.943090 -0.227055 0.242957
vn -0.943090 -0.227055 0.242957
vn -0.958144 -0.031168 0.284586
vn -0.958144 -0.031168 0.284586
vn -0.958144 -0.031168 0.284586
vn -0.958144 -0.031168 0.284586
vn -0.957702 0.024619 0.286708
vn -0.957702 0.024619 0.286708
vn -0.957702 0.024619 0.286708
vn -0.957702 0.024619 0.286708
vn -0.932098 0.265332 0.246560
vn -0.932098 0.265332 0.246560
vn -0.932098 0.265332 0.246560
vn -0.932098 0.265332 0.246560
vn -0.357137 0.908143 0.218471
vn -0.357137 0.908143 0.218471
vn -0.357137 0.908143 0.218471
vn -0.357137 0.908143 0.218471
vn 0.357206 0.908115 0.218474
vn 0.357206 0.908115 0.218474
vn 0.357206 0.908115 0.218474
vn 0.357206 0.908115 0.218474
vn 0.932157 0.265227 0.246450
vn 0.932157 0.265227 0.246450
vn 0.932157 0.265227 0.246450
vn 0.932157 0.265227 0.246450
vn 0.958532 0.019868 0.284290
vn 0.958532 0.019868 0.284290
vn 0.958532 0.019868 0.284290
vn 0.958532 0.019868 0.284290
vn 0.959217 -0.026582 0.281418
vn 0.959217 -0.026582 0.281418
vn 0.959217 -0.026582 0.281418
vn 0.959217 -0.026582 0.281418
vn 0.943732 -0.225100 0.242283
vn 0.943732 -0.225100 0.242283
vn 0.943732 -0.225100 0.242283
vn 0.943732 -0.225100 0.242283
vn 0.412822 -0.884190 0.218600
vn 0.412822 -0.884190 0.218600
vn 0.412822 -0.884190 0.218600
vn 0.412822 -0.884190 0.218600
vn 0.000000 0.000000 -1.000000
vn 0.000000 0.000000 -1.000000
vn 0.000000 0.000000 -1.000000
vn 0.000000 0.000000 -1.000000
vn 0.000000 0.000000 -1.000000
vn 0.000000 0.000000 -1.000000
vn 0.000000 0.000000 -1.000000
vn 0.000000 0.000000 -1.000000
vn 0.000000 0.000000 -1.000000
vn 0.000000 0.000000 -1.000000
vn 0.000000 0.000000 -1.000000
vn 0.000000 0.000000 -1.000000
vn 0.000000 0.000000 -1.000000
vn 0.000000 0.000000 -1.000000
vn 0.000000 0.000000 -1.000000
vn 0.000000 0.000000 -1.000000
vn 0.000000 0.000000 -1.000000
vn 0.000000 0.000000 -1.000000
vn 0.000000 0.000000 -1.000000
vn 0.000000 0.000000 -1.000000
vn 0.000000 0.000000 -1.000000
vn 0.000000 0.000000 -1.000000
vn 0.000000 0.000000 -1.000000
vn 0.000000 0.000000 -1.000000
vn 0.000000 0.000000 -1.000000
vn 0.000000 0.000000 -1.000000
vn 0.000000 0.000000 -1.000000
vn 0.000000 0.000000 -1.000000
vn 0.000000 0.000000 -1.000000
vn 0.000000 0.000000 -1.000000
vn 0.000000 0.000000 -1.000000
vn 0.000000 0.000000 -1.000000
vn 0.000000 0.000000 -1.000000
vn 0.000000 0.000000 -1.000000
vn 0.000000 0.000000 -1.000000
vn 0.000000 0.000000 -1.000000
vn 0.000000 0.000000 -1.000000
vn 0.000000 0.000000 -1.000000
vn 0.000000 0.000000 -1.000000
vn 0.000000 0.000000 -1.000000
vn 0.000000 0.000000 -1.000000
vn 0.000000 0.000000 -1.000000
vn 0.000000 0.000000 -1.000000
vn 0.000000 0.000000 -1.000000
vn 0.000000 0.000000 -1.000000
vn 0.000000 0.000000 -1.000000
vn 0.000000 0.000000 -1.000000
vn 0.000000 0.000000 -1.000000
vn 0.000000 0.000000 -1.000000
vn 0.000000 0.000000 -1.000000
vn 0.000000 0.000000 -1.000000
vn 0.000000 0.000000 -1.000000
vn -0.225327 0.927303 -0.298892
vn -0.225327 0.927303 -0.298892
vn -0.225327 0.927303 -0.298892
vn -0.225327 0.927303 -0.298892
vn -0.845328 0.443034 -0.298567
vn -0.845328 0.443034 -0.298567
vn -0.845328 0.443034 -0.298567
vn -0.845328 0.443034 -0.298567
vn -0.950038 0.042256 -0.309260
vn -0.950038 0.042256 -0.309260
vn -0.950038 0.042256 -0.309260
vn -0.950038 0.042256 -0.309260
vn -0.943381 -0.061385 -0.325983
vn -0.943381 -0.061385 -0.325983
vn -0.943381 -0.061385 -0.325983
vn -0.943381 -0.061385 -0.325983
vn -0.857380 -0.402809 -0.320381
vn -0.857380 -0.402809 -0.320381
vn -0.857380 -0.402809 -0.320381
vn -0.857380 -0.402809 -0.320381
vn -0.210138 -0.931487 -0.296941
vn -0.210138 -0.931487 -0.296941
vn -0.210138 -0.931487 -0.296941
vn -0.210138 -0.931487 -0.296941
vn 0.210187 -0.931433 -0.297075
vn 0.210187 -0.931433 -0.297075
vn 0.210187 -0.931433 -0.297075
vn 0.210187 -0.931433 -0.297075
vn 0.856317 -0.405977 -0.319225
vn 0.856317 -0.405977 -0.319225
vn 0.856317 -0.405977 -0.319225
vn 0.856317 -0.405977 -0.319225
vn 0.946439 -0.073386 -0.314432
vn 0.946439 -0.073386 -0.314432
vn 0.946439 -0.073386 -0.314432
vn 0.946439 -0.073386 -0.314432
vn 0.952295 0.055593 -0.300073
vn 0.952295 0.055593 -0.300073
vn 0.952295 0.055593 -0.300073
vn 0.952295 0.055593 -0.300073
vn 0.845337 0.442796 -0.298894
vn 0.845337 0.442796 -0.298894
vn 0.845337 0.442796 -0.298894
vn 0.845337 0.442796 -0.298894
vn 0.225313 0.927307 -0.298891
vn 0.225313 0.927307 -0.298891
vn 0.225313 0.927307 -0.298891
vn 0.225313 0.927307 -0.298891
vn -0.412531 -0.884296 -0.218723
vn -0.412531 -0.884296 -0.218723
vn -0.412531 -0.884296 -0.218723
vn -0.412531 -0.884296 -0.218723
vn -0.943090 -0.227055 -0.242957
vn -0.943090 -0.227055 -0.242957
vn -0.943090 -0.227055 -0.242957
vn -0.943090 -0.227055 -0.242957
vn -0.958144 -0.031168 -0.284586
vn -0.958144 -0.031168 -0.284586
vn -0.958144 -0.031168 -0.284586
vn -0.958144 -0.031168 -0.284586
vn -0.957702 0.024619 -0.286708
vn -0.957702 0.024619 -0.286708
vn -0.957702 0.024619 -0.286708
vn -0.957702 0.024619 -0.286708
vn -0.932098 0.265332 -0.246560
vn -0.932098 0.265332 -0.246560
vn -0.932098 0.265332 -0.246560
vn -0.932098 0.265332 -0.246560
vn -0.357137 0.908143 -0.218471
vn -0.357137 0.908143 -0.218471
vn -0.357137 0.908143 -0.218471
vn -0.357137 0.908143 -0.218471
vn 0.357206 0.908115 -0.218474
vn 0.357206 0.908115 -0.218474
vn 0.357206 0.908115 -0.218474
vn 0.357206 0.908115 -0.218474
vn 0.932157 0.265227 -0.246450
vn 0.932157 0.265227 -0.246450
vn 0.932157 0.265227 -0.246450
vn 0.932157 0.265227 -0.246450
vn 0.958532 0.019868 -0.284290
vn 0.958532 0.019868 -0.284290
vn 0.958532 0.019868 -0.284290
vn 0.958532 0.019868 -0.284290
vn 0.959217 -0.026582 -0.281418
vn 0.959217 -0.026582 -0.281418
vn 0.959217 -0.026582 -0.281418
vn 0.959217 -0.026582 -0.281418
vn 0.943732 -0.225100 -0.242283
vn 0.943732 -0.225100 -0.242283
vn 0.943732 -0.225100 -0.242283
vn 0.943732 -0.225100 -0.242283
vn 0.412822 -0.884190 -0.218600
vn 0.412822 -0.884190 -0.218600
vn 0.412822 -0.884190 -0.218600
vn 0.412822 -0.884190 -0.218600
s off
f 5/5/1 6/6/2 7/7/3 19/19/4
f 7/7/5 8/8/6 9/9/7 19/19/8
f 19/19/9 20/20/10 5/5/11
f 19/19/12 9/9/13 18/18/14
f 20/20/15 21/21/16 5/5/17
f 4/4/18 5/5/19 21/21/20 22/22/21
f 18/18/22 9/9/23 17/17/24
f 17/17/25 9/9/26 10/10/27 16/16/28
f 16/16/29 10/10/30 11/11/31 15/15/32
f 14/13/33 15/15/34 11/11/35 12/12/36
f 14/13/37 12/12/38 1/2/39 13/14/40
f 13/14/41 1/2/42 2/1/43 24/24/44
f 24/24/45 2/1/46 3/3/47 23/23/48
f 23/23/49 3/3/50 4/4/51 22/22/52
f 26/26/53 25/25/54 2/1/55 1/2/56
f 25/25/57 27/27/58 3/3/59 2/1/60
f 27/27/61 28/28/62 4/4/63 3/3/64
f 28/28/65 29/29/66 5/5/67 4/4/68
f 29/29/69 30/30/70 6/6/71 5/5/72
f 30/30/73 31/31/74 7/7/75 6/6/76
f 31/31/77 32/32/78 8/8/79 7/7/80
f 32/32/81 33/33/82 9/9/83 8/8/84
f 33/33/85 34/34/86 10/10/87 9/9/88
f 34/34/89 35/35/90 11/11/91 10/10/92
f 35/35/93 36/36/94 12/12/95 11/11/96
f 36/36/97 26/26/98 1/2/99 12/12/100
f 38/38/101 37/37/102 14/13/103 13/14/104
f 37/37/105 39/39/106 15/15/107 14/13/108
f 39/39/109 40/40/110 16/16/111 15/15/112
f 40/40/113 41/41/114 17/17/115 16/16/116
f 41/41/117 42/42/118 18/18/119 17/17/120
f 42/42/121 43/43/122 19/19/123 18/18/124
f 43/43/125 44/44/126 20/20/127 19/19/128
f 44/44/129 45/45/130 21/21/131 20/20/132
f 45/45/133 46/46/134 22/22/135 21/21/136
f 46/46/137 47/47/138 23/23/139 22/22/140
f 47/47/141 48/48/142 24/24/143 23/23/144
f 48/48/145 38/38/146 13/14/147 24/24/148
f 53/49/149 67/52/150 55/51/151 54/50/152
f 55/51/153 67/52/154 57/54/155 56/53/156
f 67/52/157 53/49/158 68/55/159
f 67/52/160 66/56/161 57/54/162
f 68/55/163 53/49/164 69/57/165
f 52/58/166 70/59/167 69/57/168 53/49/169
f 66/56/170 65/60/171 57/54/172
f 65/60/173 64/62/174 58/61/175 57/54/176
f 64/62/177 63/64/178 59/63/179 58/61/180
f 62/65/181 60/66/182 59/63/183 63/64/184
f 62/65/185 61/68/186 49/67/187 60/66/188
f 61/68/189 72/70/190 50/69/191 49/67/192
f 72/70/193 71/72/194 51/71/195 50/69/196
f 71/72/197 70/59/198 52/58/199 51/71/200
f 26/73/201 49/67/202 50/69/203 25/74/204
f 25/74/205 50/69/206 51/71/207 27/75/208
f 27/75/209 51/71/210 52/58/211 28/76/212
f 28/76/213 52/58/214 53/49/215 29/77/216
f 29/77/217 53/49/218 54/50/219 30/78/220
f 30/78/221 54/50/222 55/51/223 31/79/224
f 31/79/225 55/51/226 56/53/227 32/80/228
f 32/80/229 56/53/230 57/54/231 33/81/232
f 33/81/233 57/54/234 58/61/235 34/82/236
f 34/82/237 58/61/238 59/63/239 35/83/240
f 35/83/241 59/63/242 60/66/243 36/84/244
f 36/84/245 60/66/246 49/67/247 26/73/248
f 38/85/249 61/68/250 62/65/251 37/86/252
f 37/86/253 62/65/254 63/64/255 39/87/256
f 39/87/257 63/64/258 64/62/259 40/88/260
f 40/88/261 64/62/262 65/60/263 41/89/264
f 41/89/265 65/60/266 66/56/267 42/90/268
f 42/90/269 66/56/270 67/52/271 43/91/272
f 43/91/273 67/52/274 68/55/275 44/92/276
f 44/92/277 68/55/278 69/57/279 45/93/280
f 45/93/281 69/57/282 70/59/283 46/94/284
f 46/94/285 70/59/286 71/72/287 47/95/288
f 47/95/289 71/72/290 72/70/291 48/96/292
f 48/96/293 72/70/294 61/68/295 38/85/296
