# This file uses centimeters as units for non-parametric coordinates.

v 2.323792 -17.781906 -0.000000
v 17.416687 -0.494324 1.998207
v -20.000000 5.165802 -0.000000
v 4.040833 -13.334763 1.311902
v 14.752075 -5.696365 1.998207
v 16.423035 3.696732 2.058844
v 14.177002 2.311035 1.998207
v 11.134705 -3.675018 1.998207
v 0.545837 -10.965881 1.998207
v -4.786438 -12.937927 -0.000000
v -6.813293 -10.638626 -0.000000
v -9.044678 15.545364 -0.000000
v -11.526062 13.157455 -0.000000
v -18.244080 10.270493 0.000000
v -4.010010 12.550095 -0.000000
v -3.828979 -12.689880 -0.000000
v -3.793884 11.177948 3.825912
v 11.483154 4.854767 3.825912
v 10.379211 1.434937 3.825912
v 4.231750 -1.694000 3.825912
v -4.272339 -4.380859 3.825912
v -6.061157 -9.382980 3.825912
v -4.270386 -11.414474 3.141292
v 1.054382 -8.866058 3.141292
v 10.378357 -2.711197 3.113917
v 13.225159 2.237671 3.002428
v -18.810791 5.157822 3.825912
v -17.259338 9.667969 3.825912
v -9.131348 14.328491 3.825912
v -11.323730 12.218704 3.825912
v 12.560242 5.248642 2.058844
v 4.705322 -14.345551 -0.000000
v 16.064819 -6.213211 -0.000000
v 18.883423 -0.482010 -0.000000
v 17.594360 3.870239 -0.000000
v 13.466492 5.528656 -0.000000
v 11.513672 1.754929 3.002428
v 10.378906 -0.052658 3.002428
v 3.437012 -3.487915 3.141292
v -3.959839 -10.023972 3.141292
v -4.706116 -8.847015 3.141292
v -3.827942 -5.704071 3.141292
v 17.416687 -0.494324 -1.998207
v 4.040833 -13.334763 -1.311902
v 14.752075 -5.696365 -1.998207
v 16.423035 3.696732 -2.058844
v 14.177002 2.311035 -1.998207
v 11.134705 -3.675018 -1.998207
v 0.545837 -10.965881 -1.998207
v -3.793884 11.177948 -3.825912
v 11.483154 4.854767 -3.825912
v 10.379211 1.434937 -3.825912
v 4.231750 -1.694000 -3.825912
v -4.272339 -4.380859 -3.825912
v -6.061157 -9.382980 -3.825912
v -4.270386 -11.414474 -3.141292
v 1.054382 -8.866058 -3.141292
v 10.378357 -2.711197 -3.113917
v 13.225159 2.237671 -3.002428
v -18.810791 5.157822 -3.825912
v -17.259338 9.667969 -3.825912
v -9.131348 14.328491 -3.825912
v -11.323730 12.218704 -3.825912
v 12.560242 5.248642 -2.058844
v 11.513672 1.754929 -3.002428
v 10.378906 -0.052658 -3.002428
v 3.437012 -3.487915 -3.141292
v -3.959839 -10.023972 -3.141292
v -4.706116 -8.847015 -3.141292
v -3.827942 -5.704071 -3.141292
vt 0.890431 0.985807
vt 0.890029 0.985961
vt 0.890006 0.985967
vt 0.890434 0.985813
vt 0.890434 0.986438
vt 0.890799 0.920830
vt 0.890487 0.921201
vt 0.890317 0.986382
vt 0.890303 0.986319
vt 0.890449 0.986387
vt 0.890037 0.986191
vt 0.890055 0.986159
vt 0.889962 0.986040
vt 0.889984 0.986034
vt 0.889904 0.986005
vt 0.890793 0.985867
vt 0.890843 0.985988
vt 0.890800 0.985969
vt 0.890754 0.985858
vt 0.890558 0.985744
vt 0.890540 0.985746
vt 0.890435 0.921064
vt 0.890752 0.920715
vt 0.890622 0.985799
vt 0.890598 0.985796
vt 0.890028 0.986046
vt 0.889456 0.986648
vt 0.889418 0.986811
vt 0.889377 0.986704
vt 0.889269 0.986482
vt 0.889097 0.986536
vt 0.889183 0.986170
vt 0.888983 0.986187
vt 0.889213 0.985825
vt 0.889989 0.985979
vt 0.890057 0.986092
vt 0.890240 0.986179
vt 0.890440 0.986350
vt 0.890056 0.986047
vt 0.890219 0.986127
vt 0.890435 0.986236
vt 0.890460 0.986319
vt 0.890498 0.986329
vt 0.890447 0.986197
vt 0.890590 0.920651
vt 0.890418 0.920663
vt 0.890531 0.920599
vt 0.889473 0.920918
vt 0.889531 0.920736
vt 0.889629 0.920792
vt 0.890503 0.921258
vt 0.890448 0.921320
vt 0.890436 0.921261
vt 0.890004 0.920822
vt 0.890031 0.920910
vt 0.890199 0.920993
vt 0.890082 0.921494
vt 0.890250 0.921368
vt 0.890473 0.921471
vt 0.890171 0.921722
vt 0.889580 0.921144
vt 0.890843 0.920849
vt 0.890421 0.921313
vt 0.888823 0.954656
vt 0.888858 0.954530
vt 0.888902 0.954679
vt 0.888681 0.954596
vt 0.888637 0.954604
vt 0.888823 0.954535
vt 0.888952 0.954761
vt 0.888951 0.954881
vt 0.889268 0.954920
vt 0.889376 0.955166
vt 0.889597 0.955023
vt 0.889604 0.955219
vt 0.889637 0.955166
vt 0.890431 0.985807
vt 0.890029 0.985961
vt 0.890006 0.985967
vt 0.890434 0.985813
vt 0.890799 0.920830
vt 0.890487 0.921201
vt 0.890435 0.921064
vt 0.890752 0.920715
vt 0.890590 0.920651
vt 0.890418 0.920663
vt 0.890531 0.920599
vt 0.889755 0.921048
vt 0.889524 0.920985
vt 0.889674 0.920864
vt 0.890503 0.921258
vt 0.890448 0.921320
vt 0.890436 0.921261
vt 0.890421 0.921313
vt 0.890434 0.986438
vt 0.890317 0.986382
vt 0.890303 0.986319
vt 0.890449 0.986387
vt 0.890037 0.986191
vt 0.890055 0.986159
vt 0.889962 0.986040
vt 0.889984 0.986034
vt 0.889904 0.986005
vt 0.890843 0.920849
vt 0.890793 0.985867
vt 0.890843 0.985988
vt 0.890800 0.985969
vt 0.890754 0.985858
vt 0.890558 0.985744
vt 0.890540 0.985746
vt 0.890622 0.985799
vt 0.890598 0.985796
vt 0.888823 0.954656
vt 0.888858 0.954530
vt 0.888902 0.954679
vt 0.889021 0.985817
vt 0.889322 0.986628
vt 0.889008 0.986448
vt 0.888898 0.986143
vt 0.888919 0.985811
vt 0.890004 0.920822
vt 0.890031 0.920910
vt 0.890199 0.920993
vt 0.888681 0.954596
vt 0.888637 0.954604
vt 0.888823 0.954535
vt 0.889989 0.985979
vt 0.888952 0.954761
vt 0.888951 0.954881
vt 0.889268 0.954920
vt 0.889376 0.955166
vt 0.890440 0.986350
vt 0.889580 0.920812
vt 0.890102 0.921526
vt 0.890273 0.921422
vt 0.889627 0.921204
vt 0.889795 0.921112
vt 0.890056 0.986047
vt 0.890028 0.986046
vt 0.890057 0.986092
vt 0.890240 0.986179
vt 0.890219 0.986127
vt 0.889597 0.955023
vt 0.889604 0.955219
vt 0.889637 0.955166
vt 0.890460 0.986319
vt 0.890498 0.986329
vt 0.890435 0.986236
vt 0.890447 0.986197
vn 0.353047 0.875212 0.330701
vn 0.353047 0.875212 0.330701
vn 0.353047 0.875212 0.330701
vn 0.353047 0.875212 0.330701
vn -0.000000 0.000000 1.000000
vn -0.000000 0.000000 1.000000
vn -0.000000 0.000000 1.000000
vn -0.000000 0.000000 1.000000
vn 0.000000 0.000000 1.000000
vn 0.000000 0.000000 1.000000
vn 0.000000 0.000000 1.000000
vn -0.015760 -0.018200 0.999710
vn -0.015760 -0.018200 0.999710
vn -0.015760 -0.018200 0.999710
vn -0.663974 -0.645079 0.378169
vn -0.663974 -0.645079 0.378169
vn -0.663974 -0.645079 0.378169
vn -0.663974 -0.645079 0.378169
vn 0.230536 -0.889865 0.393691
vn 0.230536 -0.889865 0.393691
vn 0.230536 -0.889865 0.393691
vn 0.214573 -0.768857 0.602343
vn 0.214573 -0.768857 0.602343
vn 0.214573 -0.768857 0.602343
vn 0.214573 -0.768857 0.602343
vn 0.361706 -0.534123 0.764122
vn 0.361706 -0.534123 0.764122
vn 0.361706 -0.534123 0.764122
vn 0.361706 -0.534123 0.764122
vn 0.654446 -0.345601 0.672504
vn 0.654446 -0.345601 0.672504
vn 0.654446 -0.345601 0.672504
vn 0.654446 -0.345601 0.672504
vn 0.475147 -0.787342 0.392845
vn 0.475147 -0.787342 0.392845
vn 0.475147 -0.787342 0.392845
vn -0.728350 -0.622527 0.286298
vn -0.728350 -0.622527 0.286298
vn -0.728350 -0.622527 0.286298
vn -0.728350 -0.622527 0.286298
vn -0.907071 0.312020 0.282605
vn -0.907071 0.312020 0.282605
vn -0.907071 0.312020 0.282605
vn -0.907071 0.312020 0.282605
vn 0.490570 0.827920 0.271828
vn 0.490570 0.827920 0.271828
vn 0.490570 0.827920 0.271828
vn 0.490570 0.827920 0.271828
vn -0.678125 0.704672 0.208768
vn -0.678125 0.704672 0.208768
vn -0.678125 0.704672 0.208768
vn -0.678125 0.704672 0.208768
vn -0.383364 0.892095 0.239164
vn -0.383364 0.892095 0.239164
vn -0.383364 0.892095 0.239164
vn -0.383364 0.892095 0.239164
vn -0.079556 0.282054 0.956094
vn -0.079556 0.282054 0.956094
vn -0.079556 0.282054 0.956094
vn 0.624646 -0.432905 0.649931
vn 0.624646 -0.432905 0.649931
vn 0.624646 -0.432905 0.649931
vn 0.460012 -0.669173 0.583607
vn 0.460012 -0.669173 0.583607
vn 0.460012 -0.669173 0.583607
vn 0.460012 -0.669173 0.583607
vn 0.739765 -0.371005 0.561340
vn 0.739765 -0.371005 0.561340
vn 0.739765 -0.371005 0.561340
vn 0.739765 -0.371005 0.561340
vn 0.814464 0.213791 0.539390
vn 0.814464 0.213791 0.539390
vn 0.814464 0.213791 0.539390
vn 0.814464 0.213791 0.539390
vn 0.358018 0.891124 0.278786
vn 0.358018 0.891124 0.278786
vn 0.358018 0.891124 0.278786
vn 0.358018 0.891124 0.278786
vn 0.358021 0.891122 0.278789
vn 0.358021 0.891122 0.278789
vn 0.358021 0.891122 0.278789
vn -0.025233 0.031357 0.999190
vn -0.025233 0.031357 0.999190
vn -0.025233 0.031357 0.999190
vn -0.025233 0.031357 0.999190
vn 0.129551 0.322460 0.937676
vn 0.129551 0.322460 0.937676
vn 0.129551 0.322460 0.937676
vn 0.002473 0.013138 0.999911
vn 0.002473 0.013138 0.999911
vn 0.002473 0.013138 0.999911
vn 0.002473 0.013138 0.999911
vn 0.000000 0.000000 1.000000
vn 0.000000 0.000000 1.000000
vn 0.000000 0.000000 1.000000
vn -0.181238 -0.319904 0.929954
vn -0.181238 -0.319904 0.929954
vn -0.181238 -0.319904 0.929954
vn -0.181238 -0.319904 0.929954
vn 0.036025 -0.097122 0.994620
vn 0.036025 -0.097122 0.994620
vn 0.036025 -0.097122 0.994620
vn 0.036025 -0.097122 0.994620
vn -0.000000 0.000000 1.000000
vn -0.000000 0.000000 1.000000
vn -0.000000 0.000000 1.000000
vn -0.000000 0.000000 1.000000
vn 0.772056 -0.156067 0.616095
vn 0.772056 -0.156067 0.616095
vn 0.772056 -0.156067 0.616095
vn 0.772056 -0.156067 0.616095
vn 0.610920 -0.383523 0.692594
vn 0.610920 -0.383523 0.692594
vn 0.610920 -0.383523 0.692594
vn 0.236008 -0.452420 0.860009
vn 0.236008 -0.452420 0.860009
vn 0.236008 -0.452420 0.860009
vn 0.236008 -0.452420 0.860009
vn 0.000000 0.000000 1.000000
vn 0.000000 0.000000 1.000000
vn 0.000000 0.000000 1.000000
vn 0.000000 0.000000 1.000000
vn 0.000000 0.000000 1.000000
vn 0.000000 0.000000 1.000000
vn 0.000000 0.000000 1.000000
vn 0.324454 0.055064 0.944297
vn 0.324454 0.055064 0.944297
vn 0.324454 0.055064 0.944297
vn 0.324454 0.055064 0.944297
vn 0.545175 -0.178510 0.819096
vn 0.545175 -0.178510 0.819096
vn 0.545175 -0.178510 0.819096
vn 0.545175 -0.178510 0.819096
vn 0.127753 -0.410879 0.902695
vn 0.127753 -0.410879 0.902695
vn 0.127753 -0.410879 0.902695
vn 0.127753 -0.410879 0.902695
vn 0.000000 0.000000 1.000000
vn 0.000000 0.000000 1.000000
vn 0.000000 0.000000 1.000000
vn 0.000000 0.000000 1.000000
vn 0.000000 0.000000 1.000000
vn 0.000000 0.000000 1.000000
vn 0.000000 0.000000 1.000000
vn -0.000000 0.000000 1.000000
vn -0.000000 0.000000 1.000000
vn -0.000000 0.000000 1.000000
vn -0.000000 0.000000 1.000000
vn 0.353047 0.875212 -0.330701
vn 0.353047 0.875212 -0.330701
vn 0.353047 0.875212 -0.330701
vn 0.353047 0.875212 -0.330701
vn 0.000000 0.000000 -1.000000
vn 0.000000 0.000000 -1.000000
vn 0.000000 0.000000 -1.000000
vn 0.000000 0.000000 -1.000000
vn 0.000000 0.000000 -1.000000
vn 0.000000 0.000000 -1.000000
vn 0.000000 0.000000 -1.000000
vn -0.015760 -0.018200 -0.999710
vn -0.015760 -0.018200 -0.999710
vn -0.015760 -0.018200 -0.999710
vn -0.663974 -0.645079 -0.378169
vn -0.663974 -0.645079 -0.378169
vn -0.663974 -0.645079 -0.378169
vn -0.663974 -0.645079 -0.378169
vn 0.230536 -0.889865 -0.393691
vn 0.230536 -0.889865 -0.393691
vn 0.230536 -0.889865 -0.393691
vn 0.214573 -0.768857 -0.602343
vn 0.214573 -0.768857 -0.602343
vn 0.214573 -0.768857 -0.602343
vn 0.214573 -0.768857 -0.602343
vn 0.361706 -0.534123 -0.764122
vn 0.361706 -0.534123 -0.764122
vn 0.361706 -0.534123 -0.764122
vn 0.361706 -0.534123 -0.764122
vn 0.654446 -0.345601 -0.672504
vn 0.654446 -0.345601 -0.672504
vn 0.654446 -0.345601 -0.672504
vn 0.654446 -0.345601 -0.672504
vn 0.475147 -0.787342 -0.392845
vn 0.475147 -0.787342 -0.392845
vn 0.475147 -0.787342 -0.392845
vn -0.728350 -0.622527 -0.286298
vn -0.728350 -0.622527 -0.286298
vn -0.728350 -0.622527 -0.286298
vn -0.728350 -0.622527 -0.286298
vn -0.907071 0.312020 -0.282605
vn -0.907071 0.312020 -0.282605
vn -0.907071 0.312020 -0.282605
vn -0.907071 0.312020 -0.282605
vn 0.490570 0.827920 -0.271828
vn 0.490570 0.827920 -0.271828
vn 0.490570 0.827920 -0.271828
vn 0.490570 0.827920 -0.271828
vn -0.678125 0.704672 -0.208768
vn -0.678125 0.704672 -0.208768
vn -0.678125 0.704672 -0.208768
vn -0.678125 0.704672 -0.208768
vn -0.383364 0.892094 -0.239165
vn -0.383364 0.892094 -0.239165
vn -0.383364 0.892094 -0.239165
vn -0.383364 0.892094 -0.239165
vn -0.079556 0.282054 -0.956094
vn -0.079556 0.282054 -0.956094
vn -0.079556 0.282054 -0.956094
vn 0.624646 -0.432905 -0.649931
vn 0.624646 -0.432905 -0.649931
vn 0.624646 -0.432905 -0.649931
vn 0.460012 -0.669173 -0.583607
vn 0.460012 -0.669173 -0.583607
vn 0.460012 -0.669173 -0.583607
vn 0.460012 -0.669173 -0.583607
vn 0.739765 -0.371005 -0.561340
vn 0.739765 -0.371005 -0.561340
vn 0.739765 -0.371005 -0.561340
vn 0.739765 -0.371005 -0.561340
vn 0.814464 0.213791 -0.539390
vn 0.814464 0.213791 -0.539390
vn 0.814464 0.213791 -0.539390
vn 0.814464 0.213791 -0.539390
vn 0.358018 0.891124 -0.278786
vn 0.358018 0.891124 -0.278786
vn 0.358018 0.891124 -0.278786
vn 0.358018 0.891124 -0.278786
vn 0.358021 0.891122 -0.278789
vn 0.358021 0.891122 -0.278789
vn 0.358021 0.891122 -0.278789
vn -0.025233 0.031357 -0.999190
vn -0.025233 0.031357 -0.999190
vn -0.025233 0.031357 -0.999190
vn -0.025233 0.031357 -0.999190
vn 0.129551 0.322460 -0.937676
vn 0.129551 0.322460 -0.937676
vn 0.129551 0.322460 -0.937676
vn 0.002473 0.013138 -0.999911
vn 0.002473 0.013138 -0.999911
vn 0.002473 0.013138 -0.999911
vn 0.002473 0.013138 -0.999911
vn 0.000000 0.000000 -1.000000
vn 0.000000 0.000000 -1.000000
vn 0.000000 0.000000 -1.000000
vn -0.181238 -0.319904 -0.929954
vn -0.181238 -0.319904 -0.929954
vn -0.181238 -0.319904 -0.929954
vn -0.181238 -0.319904 -0.929954
vn 0.036025 -0.097122 -0.994620
vn 0.036025 -0.097122 -0.994620
vn 0.036025 -0.097122 -0.994620
vn 0.036025 -0.097122 -0.994620
vn -0.000000 0.000000 -1.000000
vn -0.000000 0.000000 -1.000000
vn -0.000000 0.000000 -1.000000
vn -0.000000 0.000000 -1.000000
vn 0.772056 -0.156067 -0.616095
vn 0.772056 -0.156067 -0.616095
vn 0.772056 -0.156067 -0.616095
vn 0.772056 -0.156067 -0.616095
vn 0.610920 -0.383523 -0.692594
vn 0.610920 -0.383523 -0.692594
vn 0.610920 -0.383523 -0.692594
vn 0.236008 -0.452420 -0.860009
vn 0.236008 -0.452420 -0.860009
vn 0.236008 -0.452420 -0.860009
vn 0.236008 -0.452420 -0.860009
vn 0.000000 0.000000 -1.000000
vn 0.000000 0.000000 -1.000000
vn 0.000000 0.000000 -1.000000
vn 0.000000 0.000000 -1.000000
vn 0.000000 0.000000 -1.000000
vn 0.000000 0.000000 -1.000000
vn 0.000000 0.000000 -1.000000
vn 0.324454 0.055064 -0.944297
vn 0.324454 0.055064 -0.944297
vn 0.324454 0.055064 -0.944297
vn 0.324454 0.055064 -0.944297
vn 0.545175 -0.178510 -0.819096
vn 0.545175 -0.178510 -0.819096
vn 0.545175 -0.178510 -0.819096
vn 0.545175 -0.178510 -0.819096
vn 0.127753 -0.410879 -0.902695
vn 0.127753 -0.410879 -0.902695
vn 0.127753 -0.410879 -0.902695
vn 0.127753 -0.410879 -0.902695
vn 0.000000 0.000000 -1.000000
vn 0.000000 0.000000 -1.000000
vn 0.000000 0.000000 -1.000000
vn 0.000000 0.000000 -1.000000
vn 0.000000 0.000000 -1.000000
vn 0.000000 0.000000 -1.000000
vn 0.000000 0.000000 -1.000000
vn 0.000000 0.000000 -1.000000
vn 0.000000 0.000000 -1.000000
vn 0.000000 0.000000 -1.000000
vn 0.000000 0.000000 -1.000000
s off
f 17/1/1 18/2/2 31/3/3 15/4/4
f 27/6/5 22/7/6 21/22/7 28/23/8
f 30/45/9 17/46/10 29/47/11
f 2/48/12 6/49/13 7/50/14
f 11/51/15 10/52/16 23/53/17 22/7/18
f 10/52/19 16/63/20 23/53/21
f 16/5/22 9/8/23 24/9/24 23/10/25
f 9/8/26 8/11/27 25/12/28 24/9/29
f 8/11/30 7/13/31 26/14/32 25/12/33
f 7/13/34 6/15/35 26/14/36
f 3/62/37 11/51/38 22/7/39 27/6/40
f 14/16/41 3/17/42 27/18/43 28/19/44
f 15/4/45 12/20/46 29/21/47 17/1/48
f 12/20/49 13/24/50 30/25/51 29/21/52
f 13/24/53 14/16/54 28/19/55 30/25/56
f 26/64/57 31/65/58 37/66/59
f 4/27/60 1/28/61 32/29/62
f 5/30/63 4/27/64 32/29/65 33/31/66
f 2/32/67 5/30/68 33/31/69 34/33/70
f 6/34/71 2/32/72 34/33/73 35/116/74
f 31/65/75 6/67/76 35/68/77 36/69/78
f 15/4/79 31/3/80 36/35/81
f 26/64/82 37/66/83 38/70/84 25/71/85
f 6/67/86 31/65/87 26/64/88
f 25/71/89 38/70/90 39/72/91 24/73/92
f 24/9/93 40/38/94 23/10/95
f 4/57/96 9/58/97 16/59/98 1/60/99
f 5/61/100 8/88/101 9/58/102 4/57/103
f 2/48/104 7/50/105 8/88/106 5/61/107
f 19/39/108 37/26/109 31/3/110 18/2/111
f 38/36/112 37/26/113 19/39/114
f 39/37/115 38/36/116 19/39/117 20/40/118
f 24/73/119 39/72/120 42/74/121 40/75/122
f 42/74/123 41/76/124 40/75/125
f 23/10/126 40/38/127 41/42/128 22/43/129
f 22/43/130 41/42/131 42/41/132 21/44/133
f 21/44/134 42/41/135 39/37/136 20/40/137
f 28/23/138 21/22/139 20/56/140 30/45/141
f 30/45/142 20/56/143 19/55/144
f 30/45/145 19/55/146 18/54/147 17/46/148
f 50/77/149 15/80/150 64/79/151 51/78/152
f 60/81/153 61/84/154 54/83/155 55/82/156
f 63/85/157 62/87/158 50/86/159
f 43/89/160 47/90/161 46/133/162
f 11/91/163 55/82/164 56/93/165 10/92/166
f 10/92/167 56/93/168 16/94/169
f 16/95/170 56/98/171 57/97/172 49/96/173
f 49/96/174 57/97/175 58/100/176 48/99/177
f 48/99/178 58/100/179 59/102/180 47/101/181
f 47/101/182 59/102/183 46/103/184
f 3/104/185 60/81/186 55/82/187 11/91/188
f 14/105/189 61/108/190 60/107/191 3/106/192
f 15/80/193 50/77/194 62/110/195 12/109/196
f 12/109/197 62/110/198 63/112/199 13/111/200
f 13/111/201 63/112/202 61/108/203 14/105/204
f 59/113/205 65/115/206 64/114/207
f 44/117/208 32/29/209 1/28/210
f 45/118/211 33/31/212 32/29/213 44/117/214
f 43/119/215 34/33/216 33/31/217 45/118/218
f 46/120/219 35/116/220 34/33/221 43/119/222
f 64/114/223 36/126/224 35/125/225 46/124/226
f 15/80/227 36/127/228 64/79/229
f 59/113/230 58/129/231 66/128/232 65/115/233
f 46/124/234 59/113/235 64/114/236
f 58/129/237 57/131/238 67/130/239 66/128/240
f 57/97/241 56/98/242 68/132/243
f 44/134/244 1/60/245 16/59/246 49/135/247
f 45/136/248 44/134/249 49/135/250 48/137/251
f 43/89/252 45/136/253 48/137/254 47/90/255
f 52/138/256 51/78/257 64/79/258 65/139/259
f 66/140/260 52/138/261 65/139/262
f 67/141/263 53/142/264 52/138/265 66/140/266
f 57/131/267 68/144/268 70/143/269 67/130/270
f 70/143/271 68/144/272 69/145/273
f 56/98/274 55/147/275 69/146/276 68/132/277
f 55/147/278 54/149/279 70/148/280 69/146/281
f 54/149/282 53/142/283 67/141/284 70/148/285
f 61/84/286 63/85/287 53/123/288 54/83/289
f 63/85/290 52/122/291 53/123/292
f 63/85/293 50/86/294 51/121/295 52/122/296
