# This file uses centimeters as units for non-parametric coordinates.

v 14.880920 9.135878 -0.000000
v 5.684021 15.267643 -0.000000
v -5.684021 15.424841 0.000000
v -14.880920 9.135872 0.000000
v -18.393860 -1.675764 0.000000
v -14.880920 -12.880390 0.000000
v -5.684021 -19.483751 0.000000
v 5.684021 -19.523050 0.000000
v 14.880920 -12.919687 0.000000
v 18.393860 -1.675763 -0.000000
v 13.261169 8.415904 4.000000
v 6.563049 13.481390 4.000000
v -6.248657 13.743103 4.000000
v -13.339783 8.415898 4.000000
v -17.168945 -1.675764 4.000000
v -13.889954 -12.121118 4.000000
v -5.305481 -18.476007 4.000000
v 5.305481 -18.436708 4.000000
v 14.047180 -12.356912 4.000000
v 17.168945 -1.675763 4.000000
v 10.783936 6.143694 4.000000
v 5.264404 10.406526 4.000000
v -4.978088 10.669244 4.000000
v -10.783936 6.143693 4.000000
v -13.329651 -1.691288 4.000000
v -10.783936 -9.526270 4.000000
v -4.119080 -14.368553 4.000000
v 4.119080 -14.368553 4.000000
v 10.783936 -9.526268 4.000000
v 13.329651 -1.691288 4.000000
v 9.605469 5.322660 -0.000000
v 3.904724 9.635778 -0.000000
v -3.770020 9.635777 0.000000
v -9.605469 5.322657 0.000000
v -11.872986 -1.656114 0.000000
v -9.369629 -8.634887 -0.000000
v -3.668945 -12.712206 0.000000
v 3.668945 -12.678520 -0.000000
v 9.437012 -8.634885 -0.000000
v 11.872986 -1.656114 0.000000
v -1.904785 3.755544 2.000000
v 1.904785 3.755544 2.000000
v -1.706726 18.126255 2.000000
v 1.706726 18.126255 2.000000
v -2.316650 19.238035 0.000000
v 2.316650 19.238035 0.000000
v -2.585571 2.115652 0.000000
v 2.585571 2.115652 0.000000
v 13.261169 8.415904 -4.000000
v 6.563049 13.481390 -4.000000
v -6.248657 13.743103 -4.000000
v -13.339783 8.415898 -4.000000
v -17.168945 -1.675764 -4.000000
v -13.889954 -12.121118 -4.000000
v -5.305481 -18.476007 -4.000000
v 5.305481 -18.436708 -4.000000
v 14.047180 -12.356912 -4.000000
v 17.168945 -1.675763 -4.000000
v 10.783936 6.143694 -4.000000
v 5.264404 10.406526 -4.000000
v -4.978088 10.669244 -4.000000
v -10.783936 6.143693 -4.000000
v -13.329651 -1.691288 -4.000000
v -10.783936 -9.526270 -4.000000
v -4.119080 -14.368553 -4.000000
v 4.119080 -14.368553 -4.000000
v 10.783936 -9.526268 -4.000000
v 13.329651 -1.691288 -4.000000
v -1.904785 3.755544 -2.000000
v 1.904785 3.755544 -2.000000
v -1.706726 18.126255 -2.000000
v 1.706726 18.126255 -2.000000
vt 0.025442 0.981328
vt 0.021614 0.983751
vt 0.021980 0.983045
vt 0.024768 0.981044
vt 0.016882 0.983813
vt 0.013054 0.981328
vt 0.013695 0.981044
vt 0.016647 0.983148
vt 0.011591 0.977057
vt 0.012101 0.977057
vt 0.013054 0.972631
vt 0.013466 0.972931
vt 0.016882 0.970022
vt 0.017039 0.970420
vt 0.021614 0.970007
vt 0.021456 0.970436
vt 0.025442 0.972615
vt 0.025095 0.972838
vt 0.026904 0.977057
vt 0.026394 0.977057
vt 0.021654 0.982305
vt 0.024176 0.980456
vt 0.014319 0.980456
vt 0.016972 0.982419
vt 0.013155 0.977057
vt 0.014319 0.973659
vt 0.017365 0.971558
vt 0.021130 0.971558
vt 0.024176 0.973659
vt 0.025340 0.977057
vt 0.021144 0.982261
vt 0.023912 0.980274
vt 0.014583 0.980274
vt 0.017417 0.982261
vt 0.013482 0.977057
vt 0.014698 0.973841
vt 0.017466 0.971962
vt 0.021029 0.971977
vt 0.023830 0.973841
vt 0.025013 0.977057
vt 0.018568 0.979203
vt 0.019927 0.979203
vt 0.019857 0.984880
vt 0.018639 0.984880
vt 0.020074 0.985319
vt 0.018421 0.985319
vt 0.018325 0.978555
vt 0.020170 0.978555
vt 0.025442 0.981328
vt 0.021614 0.983751
vt 0.021980 0.983045
vt 0.024768 0.981044
vt 0.016882 0.983813
vt 0.013054 0.981328
vt 0.013695 0.981044
vt 0.016647 0.983148
vt 0.011591 0.977057
vt 0.012101 0.977057
vt 0.013054 0.972631
vt 0.013466 0.972931
vt 0.016882 0.970022
vt 0.017039 0.970420
vt 0.021614 0.970007
vt 0.021456 0.970436
vt 0.025442 0.972615
vt 0.025095 0.972838
vt 0.026904 0.977057
vt 0.026394 0.977057
vt 0.021654 0.982305
vt 0.024176 0.980456
vt 0.014319 0.980456
vt 0.016972 0.982419
vt 0.013155 0.977057
vt 0.014319 0.973659
vt 0.017365 0.971558
vt 0.021130 0.971558
vt 0.024176 0.973659
vt 0.025340 0.977057
vt 0.021144 0.982261
vt 0.023912 0.980274
vt 0.014583 0.980274
vt 0.017417 0.982261
vt 0.013482 0.977057
vt 0.014698 0.973841
vt 0.017466 0.971962
vt 0.021029 0.971977
vt 0.023830 0.973841
vt 0.025013 0.977057
vt 0.018568 0.979203
vt 0.019927 0.979203
vt 0.019857 0.984880
vt 0.018639 0.984880
vt 0.020074 0.985319
vt 0.018421 0.985319
vt 0.018325 0.978555
vt 0.020170 0.978555
vn 0.550165 0.780984 0.295606
vn 0.550165 0.780984 0.295605
vn 0.550165 0.780984 0.295605
vn 0.550165 0.780984 0.295605
vn -0.553765 0.776480 0.300704
vn -0.553765 0.776480 0.300704
vn -0.553765 0.776480 0.300704
vn -0.553765 0.776480 0.300704
vn -0.888836 0.312196 0.335417
vn -0.888836 0.312196 0.335417
vn -0.888836 0.312196 0.335417
vn -0.888836 0.312196 0.335417
vn -0.915730 -0.287279 0.280909
vn -0.915730 -0.287279 0.280909
vn -0.915730 -0.287279 0.280909
vn -0.915730 -0.287279 0.280909
vn -0.567241 -0.778371 0.269030
vn -0.567241 -0.778371 0.269030
vn -0.567241 -0.778371 0.269030
vn -0.567241 -0.778371 0.269030
vn -0.000000 -1.000000 0.000000
vn -0.000000 -1.000000 0.000000
vn 0.000000 -0.967406 0.253229
vn 0.000000 -0.967406 0.253229
vn 0.577309 -0.816526 -0.000000
vn 0.577309 -0.816526 -0.000000
vn 0.559301 -0.791055 0.247821
vn 0.559301 -0.791055 0.247821
vn 0.957137 -0.289637 0.000000
vn 0.957137 -0.289637 0.000000
vn 0.924816 -0.279857 0.257672
vn 0.924816 -0.279857 0.257672
vn 0.885196 0.314246 0.343042
vn 0.885196 0.314246 0.343042
vn 0.885196 0.314246 0.343042
vn 0.885196 0.314246 0.343042
vn 0.000000 0.000000 1.000000
vn 0.000000 0.000000 1.000000
vn 0.000000 0.000000 1.000000
vn 0.000000 0.000000 1.000000
vn 0.000000 0.000000 1.000000
vn 0.000000 0.000000 1.000000
vn 0.000000 0.000000 1.000000
vn 0.000000 0.000000 1.000000
vn -0.000000 0.000000 1.000000
vn -0.000000 0.000000 1.000000
vn -0.000000 0.000000 1.000000
vn -0.000000 0.000000 1.000000
vn 0.000000 0.000000 1.000000
vn 0.000000 0.000000 1.000000
vn 0.000000 0.000000 1.000000
vn 0.000000 0.000000 1.000000
vn 0.000000 0.000000 1.000000
vn 0.000000 0.000000 1.000000
vn 0.000000 0.000000 1.000000
vn 0.000000 0.000000 1.000000
vn 0.000000 0.000000 1.000000
vn 0.000000 0.000000 1.000000
vn 0.000000 0.000000 1.000000
vn 0.000000 0.000000 1.000000
vn 0.000000 0.000000 1.000000
vn 0.000000 0.000000 1.000000
vn 0.000000 0.000000 1.000000
vn 0.000000 0.000000 1.000000
vn -0.000000 0.000000 1.000000
vn -0.000000 0.000000 1.000000
vn -0.000000 0.000000 1.000000
vn -0.000000 0.000000 1.000000
vn 0.000000 0.000000 1.000000
vn 0.000000 0.000000 1.000000
vn 0.000000 0.000000 1.000000
vn 0.000000 0.000000 1.000000
vn -0.573033 -0.749723 0.330980
vn -0.573033 -0.749723 0.330980
vn -0.573033 -0.749723 0.330980
vn -0.573033 -0.749723 0.330980
vn 0.568045 -0.748165 0.342892
vn 0.568045 -0.748165 0.342892
vn 0.568045 -0.748165 0.342892
vn 0.568045 -0.748165 0.342892
vn 0.899437 -0.292242 0.324974
vn 0.899437 -0.292242 0.324974
vn 0.899437 -0.292242 0.324974
vn 0.899437 -0.292242 0.324974
vn 0.885667 0.301868 0.352803
vn 0.885667 0.301868 0.352803
vn 0.885667 0.301868 0.352803
vn 0.885667 0.301868 0.352803
vn 0.544174 0.754407 0.367076
vn 0.544174 0.754407 0.367076
vn 0.544174 0.754407 0.367076
vn 0.544174 0.754407 0.367076
vn -0.001995 0.922540 0.385896
vn -0.001995 0.922540 0.385896
vn -0.001995 0.922540 0.385896
vn -0.001995 0.922540 0.385896
vn -0.541149 0.757160 0.365878
vn -0.541149 0.757160 0.365878
vn -0.541149 0.757160 0.365878
vn -0.541149 0.757160 0.365878
vn -0.889207 0.299030 0.346255
vn -0.889207 0.299030 0.346255
vn -0.889207 0.299030 0.346255
vn -0.889207 0.299030 0.346255
vn -0.899437 -0.292242 0.324974
vn -0.899437 -0.292242 0.324974
vn -0.899437 -0.292242 0.324974
vn -0.899437 -0.292242 0.324974
vn 0.941093 0.338148 0.000000
vn 0.915945 0.329112 0.229632
vn 0.915945 0.329112 0.229632
vn 0.941093 0.338148 0.000000
vn -0.901519 0.318699 0.292735
vn -0.901519 0.318699 0.292735
vn -0.901519 0.318699 0.292735
vn -0.901519 0.318699 0.292735
vn 0.000000 0.000000 1.000000
vn 0.000000 0.000000 1.000000
vn 0.000000 0.000000 1.000000
vn 0.000000 0.000000 1.000000
vn 0.000000 0.874033 0.485866
vn 0.000000 0.874033 0.485866
vn 0.000000 0.874033 0.485866
vn 0.000000 0.874033 0.485866
vn 0.000000 -0.773288 0.634055
vn 0.000000 -0.773288 0.634055
vn 0.000000 -0.773288 0.634055
vn 0.000000 -0.773288 0.634055
vn 0.952130 0.014118 0.305367
vn 0.952130 0.014118 0.305367
vn 0.952130 0.014118 0.305367
vn 0.952130 0.014118 0.305367
vn -0.952130 0.014118 0.305367
vn -0.952130 0.014118 0.305367
vn -0.952130 0.014118 0.305367
vn -0.952130 0.014118 0.305367
vn 0.550165 0.780984 -0.295605
vn 0.550165 0.780984 -0.295605
vn 0.550165 0.780984 -0.295605
vn 0.550165 0.780984 -0.295605
vn -0.553765 0.776480 -0.300704
vn -0.553765 0.776480 -0.300704
vn -0.553765 0.776480 -0.300704
vn -0.553765 0.776480 -0.300704
vn -0.888836 0.312196 -0.335417
vn -0.888836 0.312196 -0.335417
vn -0.888836 0.312196 -0.335417
vn -0.888836 0.312196 -0.335417
vn -0.915730 -0.287279 -0.280909
vn -0.915730 -0.287279 -0.280909
vn -0.915730 -0.287279 -0.280909
vn -0.915730 -0.287279 -0.280909
vn -0.567241 -0.778371 -0.269030
vn -0.567241 -0.778371 -0.269030
vn -0.567241 -0.778371 -0.269030
vn -0.567241 -0.778371 -0.269030
vn -0.000000 -1.000000 0.000000
vn -0.000000 -0.967406 -0.253229
vn -0.000000 -0.967406 -0.253229
vn -0.000000 -1.000000 0.000000
vn 0.577309 -0.816526 -0.000000
vn 0.559301 -0.791055 -0.247821
vn 0.559301 -0.791055 -0.247821
vn 0.577309 -0.816526 -0.000000
vn 0.957137 -0.289637 0.000000
vn 0.924816 -0.279857 -0.257672
vn 0.924816 -0.279857 -0.257672
vn 0.957137 -0.289637 0.000000
vn 0.885196 0.314246 -0.343042
vn 0.885196 0.314246 -0.343042
vn 0.885196 0.314246 -0.343042
vn 0.885196 0.314246 -0.343042
vn 0.000000 0.000000 -1.000000
vn 0.000000 0.000000 -1.000000
vn 0.000000 0.000000 -1.000000
vn 0.000000 0.000000 -1.000000
vn 0.000000 0.000000 -1.000000
vn 0.000000 0.000000 -1.000000
vn 0.000000 0.000000 -1.000000
vn 0.000000 0.000000 -1.000000
vn -0.000000 0.000000 -1.000000
vn -0.000000 0.000000 -1.000000
vn -0.000000 0.000000 -1.000000
vn -0.000000 0.000000 -1.000000
vn 0.000000 0.000000 -1.000000
vn 0.000000 0.000000 -1.000000
vn 0.000000 0.000000 -1.000000
vn 0.000000 0.000000 -1.000000
vn 0.000000 0.000000 -1.000000
vn 0.000000 0.000000 -1.000000
vn 0.000000 0.000000 -1.000000
vn 0.000000 0.000000 -1.000000
vn 0.000000 0.000000 -1.000000
vn 0.000000 0.000000 -1.000000
vn 0.000000 0.000000 -1.000000
vn 0.000000 0.000000 -1.000000
vn 0.000000 0.000000 -1.000000
vn 0.000000 0.000000 -1.000000
vn 0.000000 0.000000 -1.000000
vn 0.000000 0.000000 -1.000000
vn -0.000000 0.000000 -1.000000
vn -0.000000 0.000000 -1.000000
vn -0.000000 0.000000 -1.000000
vn -0.000000 0.000000 -1.000000
vn 0.000000 0.000000 -1.000000
vn 0.000000 0.000000 -1.000000
vn 0.000000 0.000000 -1.000000
vn 0.000000 0.000000 -1.000000
vn -0.573033 -0.749723 -0.330980
vn -0.573033 -0.749723 -0.330980
vn -0.573033 -0.749723 -0.330980
vn -0.573033 -0.749723 -0.330980
vn 0.568045 -0.748165 -0.342892
vn 0.568045 -0.748165 -0.342892
vn 0.568045 -0.748165 -0.342892
vn 0.568045 -0.748165 -0.342892
vn 0.899437 -0.292242 -0.324974
vn 0.899437 -0.292242 -0.324974
vn 0.899437 -0.292242 -0.324974
vn 0.899437 -0.292242 -0.324974
vn 0.885667 0.301868 -0.352803
vn 0.885667 0.301868 -0.352803
vn 0.885667 0.301868 -0.352803
vn 0.885667 0.301868 -0.352803
vn 0.544174 0.754407 -0.367076
vn 0.544174 0.754407 -0.367076
vn 0.544174 0.754407 -0.367076
vn 0.544174 0.754407 -0.367076
vn -0.001995 0.922540 -0.385896
vn -0.001995 0.922540 -0.385896
vn -0.001995 0.922540 -0.385896
vn -0.001995 0.922540 -0.385896
vn -0.541149 0.757160 -0.365878
vn -0.541149 0.757160 -0.365878
vn -0.541149 0.757160 -0.365878
vn -0.541149 0.757160 -0.365878
vn -0.889207 0.299030 -0.346255
vn -0.889207 0.299030 -0.346255
vn -0.889207 0.299030 -0.346255
vn -0.889207 0.299030 -0.346255
vn -0.899437 -0.292242 -0.324974
vn -0.899437 -0.292242 -0.324974
vn -0.899437 -0.292242 -0.324974
vn -0.899437 -0.292242 -0.324974
vn 0.941093 0.338148 0.000000
vn 0.941093 0.338148 0.000000
vn 0.915945 0.329112 -0.229632
vn 0.915945 0.329112 -0.229632
vn -0.901519 0.318699 -0.292735
vn -0.901519 0.318699 -0.292735
vn -0.901519 0.318699 -0.292735
vn -0.901519 0.318699 -0.292735
vn 0.000000 0.000000 -1.000000
vn 0.000000 0.000000 -1.000000
vn 0.000000 0.000000 -1.000000
vn 0.000000 0.000000 -1.000000
vn 0.000000 0.874033 -0.485867
vn 0.000000 0.874033 -0.485867
vn 0.000000 0.874033 -0.485867
vn 0.000000 0.874033 -0.485867
vn 0.000000 -0.773288 -0.634055
vn 0.000000 -0.773288 -0.634055
vn 0.000000 -0.773288 -0.634055
vn 0.000000 -0.773288 -0.634055
vn 0.952130 0.014118 -0.305367
vn 0.952130 0.014118 -0.305367
vn 0.952130 0.014118 -0.305367
vn 0.952130 0.014118 -0.305367
vn -0.952130 0.014118 -0.305367
vn -0.952130 0.014118 -0.305367
vn -0.952130 0.014118 -0.305367
vn -0.952130 0.014118 -0.305367
s off
f 1/1/1 2/2/2 12/3/3 11/4/4
f 3/5/5 4/6/6 14/7/7 13/8/8
f 4/6/9 5/9/10 15/10/11 14/7/12
f 5/9/13 6/11/14 16/12/15 15/10/16
f 6/11/17 7/13/18 17/14/19 16/12/20
f 7/13/21 8/15/22 18/16/23 17/14/24
f 8/15/25 9/17/26 19/18/27 18/16/28
f 9/17/29 10/19/30 20/20/31 19/18/32
f 10/19/33 1/1/34 11/4/35 20/20/36
f 11/4/37 12/3/38 22/21/39 21/22/40
f 13/8/41 14/7/42 24/23/43 23/24/44
f 14/7/45 15/10/46 25/25/47 24/23/48
f 15/10/49 16/12/50 26/26/51 25/25/52
f 16/12/53 17/14/54 27/27/55 26/26/56
f 17/14/57 18/16/58 28/28/59 27/27/60
f 18/16/61 19/18/62 29/29/63 28/28/64
f 19/18/65 20/20/66 30/30/67 29/29/68
f 20/20/69 11/4/70 21/22/71 30/30/72
f 21/22/73 22/21/74 32/31/75 31/32/76
f 23/24/77 24/23/78 34/33/79 33/34/80
f 24/23/81 25/25/82 35/35/83 34/33/84
f 25/25/85 26/26/86 36/36/87 35/35/88
f 26/26/89 27/27/90 37/37/91 36/36/92
f 27/27/93 28/28/94 38/38/95 37/37/96
f 28/28/97 29/29/98 39/39/99 38/38/100
f 29/29/101 30/30/102 40/40/103 39/39/104
f 30/30/105 21/22/106 31/32/107 40/40/108
f 3/5/109 13/8/110 23/24/111 33/34/112
f 12/3/113 2/2/114 32/31/115 22/21/116
f 41/41/117 42/42/118 44/43/119 43/44/120
f 43/44/121 44/43/122 46/45/123 45/46/124
f 47/47/125 48/48/126 42/42/127 41/41/128
f 42/42/129 48/48/130 46/45/131 44/43/132
f 47/47/133 41/41/134 43/44/135 45/46/136
f 1/49/137 49/52/138 50/51/139 2/50/140
f 3/53/141 51/56/142 52/55/143 4/54/144
f 4/54/145 52/55/146 53/58/147 5/57/148
f 5/57/149 53/58/150 54/60/151 6/59/152
f 6/59/153 54/60/154 55/62/155 7/61/156
f 7/61/157 55/62/158 56/64/159 8/63/160
f 8/63/161 56/64/162 57/66/163 9/65/164
f 9/65/165 57/66/166 58/68/167 10/67/168
f 10/67/169 58/68/170 49/52/171 1/49/172
f 49/52/173 59/70/174 60/69/175 50/51/176
f 51/56/177 61/72/178 62/71/179 52/55/180
f 52/55/181 62/71/182 63/73/183 53/58/184
f 53/58/185 63/73/186 64/74/187 54/60/188
f 54/60/189 64/74/190 65/75/191 55/62/192
f 55/62/193 65/75/194 66/76/195 56/64/196
f 56/64/197 66/76/198 67/77/199 57/66/200
f 57/66/201 67/77/202 68/78/203 58/68/204
f 58/68/205 68/78/206 59/70/207 49/52/208
f 59/70/209 31/80/210 32/79/211 60/69/212
f 61/72/213 33/82/214 34/81/215 62/71/216
f 62/71/217 34/81/218 35/83/219 63/73/220
f 63/73/221 35/83/222 36/84/223 64/74/224
f 64/74/225 36/84/226 37/85/227 65/75/228
f 65/75/229 37/85/230 38/86/231 66/76/232
f 66/76/233 38/86/234 39/87/235 67/77/236
f 67/77/237 39/87/238 40/88/239 68/78/240
f 68/78/241 40/88/242 31/80/243 59/70/244
f 3/53/245 33/82/246 61/72/247 51/56/248
f 50/51/249 60/69/250 32/79/251 2/50/252
f 69/89/253 71/92/254 72/91/255 70/90/256
f 71/92/257 45/94/258 46/93/259 72/91/260
f 47/95/261 69/89/262 70/90/263 48/96/264
f 70/90/265 72/91/266 46/93/267 48/96/268
f 47/95/269 45/94/270 71/92/271 69/89/272
