# This file uses centimeters as units for non-parametric coordinates.

v -20.000000 -13.540531 0.000000
v 20.000000 -13.540531 0.000000
v -0.000000 -13.540531 0.000000
v -19.457966 10.689748 2.000000
v -0.209024 -1.185003 2.049788
v 18.874470 9.850453 2.000000
v -18.208633 7.873291 4.000000
v 0.216495 -3.519782 4.000000
v -17.962082 -12.268532 4.000000
v -0.174759 -11.838396 4.000000
v 17.979362 7.576902 4.000000
v 17.907318 -12.236095 4.000000
v -20.000000 10.459469 0.000000
v 20.000000 10.459469 0.000000
v -19.457966 10.689748 -2.000000
v 0.175832 -1.027741 -2.049788
v 18.874470 9.850453 -2.000000
v -18.208633 7.873291 -4.000000
v -0.281172 -3.032956 -4.000000
v -17.962082 -12.268532 -4.000000
v -0.174759 -11.838396 -4.000000
v 17.979362 7.576902 -4.000000
v 17.907318 -12.236095 -4.000000
v -16.974653 11.065699 4.000000
v -18.466202 11.757073 0.000000
v -16.877729 11.009138 -4.000000
v 16.747892 10.351414 4.000000
v 18.220348 11.757073 0.000000
v 16.662125 10.298723 -4.000000
v -0.078583 1.110395 4.000000
v 0.330592 1.069559 -4.000000
vt 0.983874 0.984398
vt 0.983503 0.984225
vt 0.983683 0.984297
vt 0.983901 0.983800
vt 0.985412 0.951764
vt 0.983260 0.983771
vt 0.985895 0.951484
vt 0.983595 0.984064
vt 0.984090 0.983768
vt 0.984088 0.984367
vt 0.983594 0.984362
vt 0.983101 0.983766
vt 0.983100 0.984357
vt 0.983759 0.983821
vt 0.983461 0.983785
vt 0.985834 0.951472
vt 0.983264 0.983779
vt 0.983922 0.983789
vt 0.985413 0.951704
vt 0.983595 0.984064
vt 0.984090 0.983768
vt 0.984088 0.984367
vt 0.983594 0.984362
vt 0.983101 0.983766
vt 0.983100 0.984357
vt 0.983874 0.984398
vt 0.983683 0.984297
vt 0.983503 0.984225
vt 0.983759 0.983821
vt 0.983461 0.983785
vt 0.983870 0.983799
vt 0.983741 0.983819
vt 0.983741 0.983819
vt 0.983892 0.983789
vt 0.983285 0.983772
vt 0.983481 0.983787
vt 0.983481 0.983787
vt 0.983288 0.983779
vt 0.983627 0.984017
vt 0.983629 0.984015
vt 0.984921 0.951462
vt 0.984957 0.951534
vt 0.985420 0.951819
vt 0.985863 0.951542
vt 0.985427 0.951765
vt 0.984913 0.951459
vt 0.984977 0.951450
vt 0.985434 0.951713
vt 0.985417 0.951821
vt 0.984943 0.951533
vt 0.985913 0.951482
vt 0.985898 0.951541
vt 0.984988 0.951453
vt 0.985864 0.951469
vn 0.372557 -0.658197 0.654200
vn 0.372557 -0.658197 0.654200
vn 0.372557 -0.658197 0.654200
vn 0.372557 -0.658197 0.654200
vn 0.000000 0.000000 1.000000
vn 0.000000 0.000000 1.000000
vn 0.000000 0.000000 1.000000
vn 0.000000 0.000000 1.000000
vn 0.000000 0.000000 1.000000
vn 0.000000 0.000000 1.000000
vn 0.000000 0.000000 1.000000
vn 0.000000 0.000000 1.000000
vn 0.392329 0.636659 0.663885
vn 0.392329 0.636659 0.663885
vn 0.392329 0.636659 0.663885
vn 0.392329 0.636659 0.663885
vn -0.878588 -0.015664 0.477324
vn -0.878588 -0.015664 0.477324
vn -0.878588 -0.015664 0.477324
vn -0.878588 -0.015664 0.477324
vn 0.010678 -0.938078 0.346260
vn 0.010678 -0.938078 0.346260
vn 0.010678 -0.938078 0.346260
vn 0.010678 -0.938078 0.346260
vn -0.374571 0.625139 0.684761
vn -0.374571 0.625139 0.684761
vn -0.374571 0.625139 0.684761
vn -0.374571 0.625139 0.684761
vn -0.009785 -0.936942 0.349349
vn -0.009785 -0.936942 0.349349
vn -0.009785 -0.936942 0.349349
vn -0.009785 -0.936942 0.349349
vn 0.895078 0.001184 0.445908
vn 0.895078 0.001184 0.445908
vn 0.895078 0.001184 0.445908
vn 0.895078 0.001184 0.445908
vn -0.467810 0.854906 0.224254
vn -0.467810 0.854906 0.224254
vn -0.467810 0.854906 0.224254
vn -0.467810 0.854906 0.224254
vn -0.965182 0.000000 0.261581
vn -0.965182 0.000000 0.261581
vn -0.965182 0.000000 0.261581
vn 0.871477 0.000000 0.490437
vn 0.871477 0.000000 0.490437
vn 0.871477 0.000000 0.490437
vn -0.381366 -0.647247 -0.660023
vn -0.381366 -0.647247 -0.660023
vn -0.381366 -0.647247 -0.660023
vn -0.381366 -0.647247 -0.660023
vn 0.000000 0.000000 -1.000000
vn 0.000000 0.000000 -1.000000
vn 0.000000 0.000000 -1.000000
vn 0.000000 0.000000 -1.000000
vn 0.000000 0.000000 -1.000000
vn 0.000000 0.000000 -1.000000
vn 0.000000 0.000000 -1.000000
vn 0.000000 0.000000 -1.000000
vn 0.374715 0.623633 -0.686054
vn 0.374715 0.623633 -0.686054
vn 0.374715 0.623633 -0.686054
vn 0.374715 0.623633 -0.686054
vn -0.878588 -0.015664 -0.477324
vn -0.878588 -0.015664 -0.477324
vn -0.878588 -0.015664 -0.477324
vn -0.878588 -0.015664 -0.477324
vn 0.010678 -0.938078 -0.346260
vn 0.010678 -0.938078 -0.346260
vn 0.010678 -0.938078 -0.346260
vn 0.010678 -0.938078 -0.346260
vn -0.398572 0.686946 -0.607656
vn -0.398572 0.686946 -0.607656
vn -0.398572 0.686946 -0.607656
vn -0.398572 0.686946 -0.607656
vn -0.009785 -0.936942 -0.349349
vn -0.009785 -0.936942 -0.349349
vn -0.009785 -0.936942 -0.349349
vn -0.009785 -0.936942 -0.349349
vn 0.895078 0.001184 -0.445909
vn 0.895078 0.001184 -0.445909
vn 0.895078 0.001184 -0.445909
vn 0.895078 0.001184 -0.445909
vn -0.452333 0.860373 -0.234846
vn -0.452333 0.860373 -0.234846
vn -0.452333 0.860373 -0.234846
vn -0.452333 0.860373 -0.234846
vn -0.965182 0.000000 -0.261581
vn -0.965182 0.000000 -0.261581
vn -0.965182 0.000000 -0.261581
vn 0.871477 0.000000 -0.490437
vn 0.871477 0.000000 -0.490437
vn 0.871477 0.000000 -0.490437
vn 0.009813 0.967278 0.253529
vn 0.009813 0.967278 0.253529
vn 0.009813 0.967278 0.253529
vn 0.009813 0.967278 0.253529
vn 0.009752 0.963975 -0.265814
vn 0.009752 0.963975 -0.265814
vn 0.009752 0.963975 -0.265814
vn 0.009752 0.963975 -0.265814
vn 0.556324 0.684725 0.470803
vn 0.556324 0.684725 0.470803
vn 0.556324 0.684725 0.470803
vn 0.556324 0.684725 0.470803
vn 0.542139 0.689622 -0.480112
vn 0.542139 0.689622 -0.480112
vn 0.542139 0.689622 -0.480112
vn 0.542139 0.689622 -0.480112
vn -0.000000 0.000000 1.000000
vn -0.000000 0.000000 1.000000
vn -0.000000 0.000000 1.000000
vn -0.380925 -0.629169 0.677527
vn -0.380925 -0.629169 0.677527
vn -0.380925 -0.629169 0.677527
vn -0.380925 -0.629169 0.677527
vn -0.000000 0.000000 -1.000000
vn -0.000000 0.000000 -1.000000
vn -0.000000 0.000000 -1.000000
vn 0.385942 -0.670803 -0.633303
vn 0.385942 -0.670803 -0.633303
vn 0.385942 -0.670803 -0.633303
vn 0.385942 -0.670803 -0.633303
s off
f 5/5/1 6/7/2 27/16/3 30/19/4
f 8/8/5 7/9/6 9/10/7 10/11/8
f 11/12/9 8/8/10 10/11/11 12/13/12
f 5/5/13 4/41/14 7/42/15 8/43/16
f 4/4/17 1/1/18 9/10/19 7/9/20
f 1/1/21 3/3/22 10/11/23 9/10/24
f 6/7/25 5/5/26 8/43/27 11/44/28
f 3/3/29 2/2/30 12/13/31 10/11/32
f 2/2/33 6/6/34 11/12/35 12/13/36
f 13/14/37 4/4/38 24/31/39 25/33/40
f 1/1/41 4/4/42 13/14/43
f 6/6/44 2/2/45 14/15/46
f 16/45/47 15/46/48 26/47/49 31/48/50
f 19/20/51 21/23/52 20/22/53 18/21/54
f 22/24/55 23/25/56 21/23/57 19/20/58
f 16/45/59 19/49/60 18/50/61 15/46/62
f 15/18/63 18/21/64 20/22/65 1/26/66
f 1/26/67 20/22/68 21/23/69 3/27/70
f 17/51/71 22/52/72 19/49/73 16/45/74
f 3/27/75 21/23/76 23/25/77 2/28/78
f 2/28/79 23/25/80 22/24/81 17/17/82
f 13/29/83 25/32/84 26/34/85 15/18/86
f 1/26/87 13/29/88 15/18/89
f 17/17/90 14/30/91 2/28/92
f 25/33/93 24/31/94 27/35/95 28/37/96
f 26/34/97 25/32/98 28/36/99 29/38/100
f 28/37/101 27/35/102 6/6/103 14/15/104
f 29/38/105 28/36/106 14/30/107 17/17/108
f 24/31/109 30/39/110 27/35/111
f 5/5/112 30/19/113 24/53/114 4/41/115
f 29/38/116 31/40/117 26/34/118
f 16/45/119 31/48/120 29/54/121 17/51/122
