# This file uses centimeters as units for non-parametric coordinates.

v -18.845831 10.977090 -8.000000
v -11.040726 19.224796 -8.000000
v 0.104309 22.902460 -8.000000
v 10.892858 20.072859 -8.000000
v 19.644651 11.752992 -8.000000
v 22.281233 0.188142 -8.000000
v 18.893894 -11.498242 -8.000000
v 11.474966 -20.070015 -8.000000
v 0.047540 -23.128271 -8.000000
v -11.267614 -19.729027 -8.000000
v -19.695831 -11.306591 -8.000000
v -22.902731 0.349410 -8.000000
v 19.873812 11.445817 -0.000000
v 11.750746 19.808228 -0.000000
v -0.363446 22.411669 0.000000
v -11.165068 19.160477 0.000000
v -19.841501 11.773178 0.000000
v -23.021671 0.225361 0.000000
v -19.539717 -10.710768 0.000000
v -11.683542 -19.727003 0.000000
v -0.348787 -22.863922 0.000000
v 11.195066 -20.021515 -0.000000
v 19.685221 -11.191771 -0.000000
v 23.076303 0.078202 -0.000000
v -0.000000 0.000001 -0.000001
v -0.000000 0.000000 -8.000000
v 20.784607 12.000000 -1.590398
v 20.784607 12.000000 -6.490083
v 24.000000 0.000000 -6.667201
v 24.000000 0.000000 -1.213812
v 20.784607 -12.000000 -7.234072
v 20.784607 -12.000000 -1.355764
v 12.000000 -20.784607 -6.648884
v 12.000000 -20.784607 -1.320227
v -0.000000 -24.000000 -7.174712
v -0.000000 -24.000000 -1.540864
v -12.000000 -20.784607 -6.788571
v -12.000000 -20.784607 -0.881733
v -20.784607 -12.000000 -7.252285
v -20.784607 -12.000000 -1.125953
v -24.000000 0.000000 -7.193404
v -24.000000 0.000000 -1.664595
v -20.784607 12.000000 -6.799299
v -20.784607 12.000000 -1.403262
v -12.000000 20.784607 -7.079597
v -12.000000 20.784607 -1.065949
v -0.000000 24.000000 -6.506868
v -0.000000 24.000000 -1.110223
v 12.000000 20.784607 -6.739407
v 12.000000 20.784607 -1.118835
vt 0.925210 0.914658
vt 0.925136 0.914674
vt 0.925460 0.914489
vt 0.925304 0.914263
vt 0.925316 0.914262
vt 0.925119 0.914167
vt 0.925131 0.914166
vt 0.924953 0.914215
vt 0.924964 0.914214
vt 0.924844 0.914373
vt 0.924855 0.914372
vt 0.924810 0.914594
vt 0.924821 0.914592
vt 0.924851 0.914828
vt 0.924862 0.914825
vt 0.924960 0.915029
vt 0.924970 0.915026
vt 0.925117 0.915153
vt 0.925127 0.915150
vt 0.925290 0.915160
vt 0.925301 0.915156
vt 0.925434 0.915029
vt 0.925445 0.915025
vt 0.925497 0.914780
vt 0.925508 0.914777
vt 0.925448 0.914491
vt 0.925572 0.914760
vt 0.925513 0.914479
vt 0.925508 0.915005
vt 0.925561 0.914763
vt 0.925363 0.915135
vt 0.925497 0.915008
vt 0.925188 0.915130
vt 0.925352 0.915139
vt 0.925031 0.915008
vt 0.925178 0.915133
vt 0.924923 0.914811
vt 0.925020 0.915012
vt 0.924882 0.914581
vt 0.924912 0.914813
vt 0.924918 0.914363
vt 0.924871 0.914583
vt 0.925028 0.914207
vt 0.924907 0.914365
vt 0.925196 0.914160
vt 0.925017 0.914208
vt 0.925381 0.914254
vt 0.925185 0.914161
vt 0.925524 0.914477
vt 0.925370 0.914255
vn 0.000000 -0.000000 1.000000
vn 0.000000 -0.000000 1.000000
vn 0.000000 -0.000000 1.000000
vn 0.000000 0.000000 1.000000
vn 0.000000 0.000000 1.000000
vn 0.000000 0.000000 1.000000
vn 0.000000 0.000000 1.000000
vn 0.000000 0.000000 1.000000
vn 0.000000 0.000000 1.000000
vn 0.000000 0.000000 1.000000
vn 0.000000 0.000000 1.000000
vn 0.000000 0.000000 1.000000
vn -0.000000 0.000000 1.000000
vn -0.000000 0.000000 1.000000
vn -0.000000 0.000000 1.000000
vn -0.000000 0.000000 1.000000
vn -0.000000 0.000000 1.000000
vn -0.000000 0.000000 1.000000
vn -0.000000 0.000000 1.000000
vn -0.000000 0.000000 1.000000
vn -0.000000 0.000000 1.000000
vn -0.000000 -0.000000 1.000000
vn -0.000000 -0.000000 1.000000
vn -0.000000 -0.000000 1.000000
vn -0.000000 -0.000000 1.000000
vn -0.000000 -0.000000 1.000000
vn -0.000000 -0.000000 1.000000
vn -0.000000 -0.000000 1.000000
vn -0.000000 -0.000000 1.000000
vn -0.000000 -0.000000 1.000000
vn 0.000000 -0.000000 1.000000
vn 0.000000 -0.000000 1.000000
vn 0.000000 -0.000000 1.000000
vn 0.000000 -0.000000 1.000000
vn 0.000000 -0.000000 1.000000
vn 0.000000 -0.000000 1.000000
vn 0.000000 0.000000 -1.000000
vn 0.000000 0.000000 -1.000000
vn 0.000000 0.000000 -1.000000
vn 0.000000 0.000000 -1.000000
vn 0.000000 0.000000 -1.000000
vn 0.000000 0.000000 -1.000000
vn 0.000000 0.000000 -1.000000
vn 0.000000 0.000000 -1.000000
vn 0.000000 0.000000 -1.000000
vn 0.000000 0.000000 -1.000000
vn 0.000000 0.000000 -1.000000
vn 0.000000 0.000000 -1.000000
vn 0.000000 0.000000 -1.000000
vn 0.000000 0.000000 -1.000000
vn 0.000000 0.000000 -1.000000
vn -0.000000 0.000000 -1.000000
vn -0.000000 0.000000 -1.000000
vn -0.000000 0.000000 -1.000000
vn 0.000000 0.000000 -1.000000
vn 0.000000 0.000000 -1.000000
vn 0.000000 0.000000 -1.000000
vn 0.000000 0.000000 -1.000000
vn 0.000000 0.000000 -1.000000
vn 0.000000 0.000000 -1.000000
vn 0.000000 0.000000 -1.000000
vn 0.000000 0.000000 -1.000000
vn 0.000000 0.000000 -1.000000
vn 0.000000 0.000000 -1.000000
vn 0.000000 0.000000 -1.000000
vn 0.000000 0.000000 -1.000000
vn 0.000000 0.000000 -1.000000
vn 0.000000 0.000000 -1.000000
vn 0.000000 0.000000 -1.000000
vn -0.000000 0.000000 -1.000000
vn -0.000000 0.000000 -1.000000
vn -0.000000 0.000000 -1.000000
vn 0.707107 0.707107 0.000000
vn 0.707107 0.707107 0.000000
vn 0.707107 0.707107 0.000000
vn 0.707107 0.707107 0.000000
vn 0.965926 0.258819 0.000000
vn 0.965926 0.258819 0.000000
vn 0.965926 0.258819 0.000000
vn 0.965926 0.258819 0.000000
vn 0.965926 -0.258819 0.000000
vn 0.965926 -0.258819 0.000000
vn 0.965926 -0.258819 0.000000
vn 0.965926 -0.258819 0.000000
vn 0.707107 -0.707107 0.000000
vn 0.707107 -0.707107 0.000000
vn 0.707107 -0.707107 0.000000
vn 0.707107 -0.707107 0.000000
vn 0.258819 -0.965926 0.000000
vn 0.258819 -0.965926 0.000000
vn 0.258819 -0.965926 0.000000
vn 0.258819 -0.965926 0.000000
vn -0.258819 -0.965926 0.000000
vn -0.258819 -0.965926 0.000000
vn -0.258819 -0.965926 0.000000
vn -0.258819 -0.965926 0.000000
vn -0.707107 -0.707107 0.000000
vn -0.707107 -0.707107 0.000000
vn -0.707107 -0.707107 0.000000
vn -0.707107 -0.707107 0.000000
vn -0.965926 -0.258819 0.000000
vn -0.965926 -0.258819 0.000000
vn -0.965926 -0.258819 0.000000
vn -0.965926 -0.258819 0.000000
vn -0.965926 0.258819 0.000000
vn -0.965926 0.258819 0.000000
vn -0.965926 0.258819 0.000000
vn -0.965926 0.258819 0.000000
vn -0.707107 0.707107 0.000000
vn -0.707107 0.707107 0.000000
vn -0.707107 0.707107 0.000000
vn -0.707107 0.707107 0.000000
vn -0.258819 0.965926 0.000000
vn -0.258819 0.965926 0.000000
vn -0.258819 0.965926 0.000000
vn -0.258819 0.965926 0.000000
vn 0.258819 0.965926 0.000000
vn 0.258819 0.965926 0.000000
vn 0.258819 0.965926 0.000000
vn 0.258819 0.965926 0.000000
vn 0.545350 0.549900 -0.632617
vn 0.545350 0.549900 -0.632617
vn 0.545350 0.549900 -0.632617
vn 0.545350 0.549900 -0.632617
vn 0.201762 0.783230 -0.588084
vn 0.201762 0.783230 -0.588084
vn 0.201762 0.783230 -0.588084
vn 0.201762 0.783230 -0.588084
vn -0.167366 0.625302 -0.762224
vn -0.167366 0.625302 -0.762224
vn -0.167366 0.625302 -0.762224
vn -0.167366 0.625302 -0.762224
vn -0.350696 0.327142 -0.877491
vn -0.350696 0.327142 -0.877491
vn -0.350696 0.327142 -0.877491
vn -0.350696 0.327142 -0.877491
vn -0.514426 0.179934 -0.838445
vn -0.514426 0.179934 -0.838445
vn -0.514426 0.179934 -0.838445
vn -0.514426 0.179934 -0.838445
vn -0.528017 -0.141265 -0.837402
vn -0.528017 -0.141265 -0.837402
vn -0.528017 -0.141265 -0.837402
vn -0.528017 -0.141265 -0.837402
vn -0.422896 -0.444321 -0.789771
vn -0.422896 -0.444321 -0.789771
vn -0.422896 -0.444321 -0.789771
vn -0.422896 -0.444321 -0.789771
vn -0.202308 -0.671476 -0.712875
vn -0.202308 -0.671476 -0.712875
vn -0.202308 -0.671476 -0.712875
vn -0.202308 -0.671476 -0.712875
vn 0.218495 -0.765156 -0.605637
vn 0.218495 -0.765156 -0.605637
vn 0.218495 -0.765156 -0.605637
vn 0.218495 -0.765156 -0.605637
vn 0.451349 -0.447401 -0.772086
vn 0.451349 -0.447401 -0.772086
vn 0.451349 -0.447401 -0.772086
vn 0.451349 -0.447401 -0.772086
vn 0.483030 -0.113871 -0.868168
vn 0.483030 -0.113871 -0.868168
vn 0.483030 -0.113871 -0.868168
vn 0.483030 -0.113871 -0.868168
vn 0.692131 0.177140 -0.699697
vn 0.692131 0.177140 -0.699697
vn 0.692131 0.177140 -0.699697
vn 0.692131 0.177140 -0.699697
vn 0.796664 0.227825 0.559842
vn 0.796664 0.227825 0.559842
vn 0.796664 0.227825 0.559842
vn 0.796664 0.227825 0.559842
vn 0.731136 -0.211530 0.648611
vn 0.731136 -0.211530 0.648611
vn 0.731136 -0.211530 0.648611
vn 0.731136 -0.211530 0.648611
vn 0.526281 -0.514769 0.676787
vn 0.526281 -0.514769 0.676787
vn 0.526281 -0.514769 0.676787
vn 0.526281 -0.514769 0.676787
vn 0.194890 -0.779144 0.595779
vn 0.194890 -0.779144 0.595779
vn 0.194890 -0.779144 0.595779
vn 0.194890 -0.779144 0.595779
vn -0.180200 -0.730322 0.658907
vn -0.180200 -0.730322 0.658907
vn -0.180200 -0.730322 0.658907
vn -0.180200 -0.730322 0.658907
vn -0.437844 -0.398252 0.806032
vn -0.437844 -0.398252 0.806032
vn -0.437844 -0.398252 0.806032
vn -0.437844 -0.398252 0.806032
vn -0.713854 -0.192634 0.673279
vn -0.713854 -0.192634 0.673279
vn -0.713854 -0.192634 0.673279
vn -0.713854 -0.192634 0.673279
vn -0.826909 0.218839 0.518007
vn -0.826909 0.218839 0.518007
vn -0.826909 0.218839 0.518007
vn -0.826909 0.218839 0.518007
vn -0.478546 0.501662 0.720645
vn -0.478546 0.501662 0.720645
vn -0.478546 0.501662 0.720645
vn -0.478546 0.501662 0.720645
vn -0.151275 0.539077 0.828560
vn -0.151275 0.539077 0.828560
vn -0.151275 0.539077 0.828560
vn -0.151275 0.539077 0.828560
vn 0.151692 0.627506 0.763692
vn 0.151692 0.627506 0.763692
vn 0.151692 0.627506 0.763692
vn 0.151692 0.627506 0.763692
vn 0.591147 0.567123 0.573512
vn 0.591147 0.567123 0.573512
vn 0.591147 0.567123 0.573512
vn 0.591147 0.567123 0.573512
s off
f 17/41/1 18/39/2 25/1/3
f 18/39/4 19/37/5 25/1/6
f 19/37/7 20/35/8 25/1/9
f 20/35/10 21/33/11 25/1/12
f 21/33/13 22/31/14 25/1/15
f 22/31/16 23/29/17 25/1/18
f 23/29/19 24/27/20 25/1/21
f 24/27/22 13/49/23 25/1/24
f 13/49/25 14/47/26 25/1/27
f 14/47/28 15/45/29 25/1/30
f 15/45/31 16/43/32 25/1/33
f 16/43/34 17/41/35 25/1/36
f 1/10/37 2/8/38 26/2/39
f 2/8/40 3/6/41 26/2/42
f 3/6/43 4/4/44 26/2/45
f 4/4/46 5/26/47 26/2/48
f 5/26/49 6/24/50 26/2/51
f 6/24/52 7/22/53 26/2/54
f 7/22/55 8/20/56 26/2/57
f 8/20/58 9/18/59 26/2/60
f 9/18/61 10/16/62 26/2/63
f 10/16/64 11/14/65 26/2/66
f 11/14/67 12/12/68 26/2/69
f 12/12/70 1/10/71 26/2/72
f 27/28/73 28/3/74 49/5/75 50/50/76
f 28/3/77 27/28/78 30/30/79 29/25/80
f 29/25/81 30/30/82 32/32/83 31/23/84
f 31/23/85 32/32/86 34/34/87 33/21/88
f 33/21/89 34/34/90 36/36/91 35/19/92
f 35/19/93 36/36/94 38/38/95 37/17/96
f 37/17/97 38/38/98 40/40/99 39/15/100
f 39/15/101 40/40/102 42/42/103 41/13/104
f 41/13/105 42/42/106 44/44/107 43/11/108
f 43/11/109 44/44/110 46/46/111 45/9/112
f 45/9/113 46/46/114 48/48/115 47/7/116
f 47/7/117 48/48/118 50/50/119 49/5/120
f 49/5/121 28/3/122 5/26/123 4/4/124
f 47/7/125 49/5/126 4/4/127 3/6/128
f 45/9/129 47/7/130 3/6/131 2/8/132
f 43/11/133 45/9/134 2/8/135 1/10/136
f 41/13/137 43/11/138 1/10/139 12/12/140
f 39/15/141 41/13/142 12/12/143 11/14/144
f 37/17/145 39/15/146 11/14/147 10/16/148
f 35/19/149 37/17/150 10/16/151 9/18/152
f 33/21/153 35/19/154 9/18/155 8/20/156
f 31/23/157 33/21/158 8/20/159 7/22/160
f 29/25/161 31/23/162 7/22/163 6/24/164
f 28/3/165 29/25/166 6/24/167 5/26/168
f 13/49/169 24/27/170 30/30/171 27/28/172
f 24/27/173 23/29/174 32/32/175 30/30/176
f 23/29/177 22/31/178 34/34/179 32/32/180
f 22/31/181 21/33/182 36/36/183 34/34/184
f 21/33/185 20/35/186 38/38/187 36/36/188
f 20/35/189 19/37/190 40/40/191 38/38/192
f 19/37/193 18/39/194 42/42/195 40/40/196
f 18/39/197 17/41/198 44/44/199 42/42/200
f 17/41/201 16/43/202 46/46/203 44/44/204
f 16/43/205 15/45/206 48/48/207 46/46/208
f 15/45/209 14/47/210 50/50/211 48/48/212
f 14/47/213 13/49/214 27/28/215 50/50/216
