# This file uses centimeters as units for non-parametric coordinates.

v -5.791848 17.908005 4.000000
v -12.922260 18.008789 4.000000
v -12.986840 -17.966919 4.000000
v -7.351911 -16.496750 4.000000
v -5.470180 -1.761749 4.000000
v -1.523578 -15.775406 4.000000
v 1.613297 -15.777985 4.000000
v 5.470201 -1.769463 4.000000
v 7.042919 -15.219345 4.000000
v 12.124005 -15.695343 4.000000
v 11.683126 15.805801 4.000000
v 5.702048 17.862244 4.000000
v 0.027182 -1.129333 4.000000
v -13.924542 19.011063 0.000000
v -4.929662 19.011063 0.000000
v -13.924542 -19.011063 0.000000
v -9.886869 -19.011063 0.000000
v -5.905215 -18.114548 0.000000
v -5.462810 -5.548660 0.000000
v -2.502825 -17.815720 0.000000
v 2.602421 -17.815720 0.000000
v 5.462818 -5.548660 0.000000
v 5.757754 -17.451935 -0.000000
v 13.472847 -17.721161 -0.000000
v 13.306795 17.685783 0.000000
v 4.929662 19.011063 0.000000
v 9.221736 19.011063 0.000000
v 0.026897 0.570023 0.000000
v -5.791848 17.908005 -4.000000
v -12.922260 18.008789 -4.000000
v -12.986840 -17.966919 -4.000000
v -7.351911 -16.496750 -4.000000
v -5.470180 -1.761749 -4.000000
v -1.523578 -15.775406 -4.000000
v 1.613297 -15.777985 -4.000000
v 5.470201 -1.769463 -4.000000
v 7.042919 -15.219345 -4.000000
v 12.124005 -15.695343 -4.000000
v 11.683126 15.805801 -4.000000
v 5.702048 17.862244 -4.000000
v 0.027182 -1.129333 -4.000000
vt 0.012887 0.957422
vt 0.012775 0.957418
vt 0.012848 0.957862
vt 0.012756 0.957839
vt 0.012761 0.957661
vt 0.012708 0.957830
vt 0.012648 0.957828
vt 0.012626 0.957656
vt 0.012605 0.957819
vt 0.012518 0.957821
vt 0.012553 0.957440
vt 0.012653 0.957414
vt 0.012694 0.957647
vt 0.012883 0.957414
vt 0.012771 0.957410
vt 0.012843 0.957853
vt 0.012794 0.957851
vt 0.012745 0.957839
vt 0.012756 0.957652
vt 0.012704 0.957834
vt 0.012641 0.957832
vt 0.012621 0.957647
vt 0.012603 0.957826
vt 0.012508 0.957826
vt 0.012543 0.957418
vt 0.012648 0.957406
vt 0.012595 0.957404
vt 0.012689 0.957639
vt 0.012848 0.957862
vt 0.012794 0.957851
vt 0.012745 0.957839
vt 0.012756 0.957839
vt 0.012887 0.957422
vt 0.012761 0.957661
vt 0.012775 0.957418
vt 0.012694 0.957647
vt 0.012605 0.957819
vt 0.012518 0.957821
vt 0.012553 0.957440
vt 0.012626 0.957656
vt 0.012653 0.957414
vt 0.012708 0.957830
vt 0.012648 0.957828
vt 0.012771 0.957410
vt 0.012883 0.957414
vt 0.012843 0.957853
vt 0.012756 0.957652
vt 0.012704 0.957834
vt 0.012641 0.957832
vt 0.012621 0.957647
vt 0.012603 0.957826
vt 0.012508 0.957826
vt 0.012543 0.957418
vt 0.012595 0.957404
vt 0.012648 0.957406
vt 0.012689 0.957639
vn 0.217195 -0.882530 0.417094
vn 0.217195 -0.882530 0.417094
vn 0.217195 -0.882530 0.417094
vn 0.217195 -0.882530 0.417094
vn 0.000000 0.000000 1.000000
vn 0.000000 0.000000 1.000000
vn 0.000000 0.000000 1.000000
vn 0.000000 0.000000 1.000000
vn 0.000000 0.000000 1.000000
vn 0.000000 0.000000 1.000000
vn 0.000000 0.000000 1.000000
vn 0.000000 0.000000 1.000000
vn 0.000000 0.000000 1.000000
vn 0.000000 0.000000 1.000000
vn 0.000000 0.000000 1.000000
vn 0.000000 0.000000 1.000000
vn 0.000000 0.000000 1.000000
vn 0.000000 0.000000 1.000000
vn 0.000000 0.000000 1.000000
vn 0.000000 0.000000 1.000000
vn 0.000000 0.000000 1.000000
vn 0.000000 0.000000 1.000000
vn 0.000000 0.000000 1.000000
vn 0.000000 0.000000 1.000000
vn 0.000000 0.000000 1.000000
vn 0.000000 0.000000 1.000000
vn 0.000000 0.000000 1.000000
vn 0.006044 0.967081 0.254398
vn 0.006044 0.967081 0.254398
vn 0.006044 0.967081 0.254398
vn 0.006044 0.967081 0.254398
vn -0.971834 0.000848 0.235664
vn -0.971834 0.000848 0.235664
vn -0.971834 0.000848 0.235664
vn -0.971834 0.000848 0.235664
vn 0.969232 -0.082511 0.231909
vn 0.969232 -0.082511 0.231909
vn 0.969232 -0.082511 0.231909
vn 0.969232 -0.082511 0.231909
vn -0.925697 -0.243274 0.289659
vn -0.925697 -0.243274 0.289659
vn -0.925697 -0.243274 0.289659
vn -0.925697 -0.243274 0.289659
vn -0.000279 -0.890924 0.454153
vn -0.000279 -0.890924 0.454153
vn -0.000279 -0.890924 0.454153
vn -0.000279 -0.890924 0.454153
vn 0.928240 -0.237303 0.286458
vn 0.928240 -0.237303 0.286458
vn 0.928240 -0.237303 0.286458
vn 0.928240 -0.237303 0.286458
vn -0.974748 -0.071805 0.211448
vn -0.974748 -0.071805 0.211448
vn -0.974748 -0.071805 0.211448
vn -0.974748 -0.071805 0.211448
vn -0.051351 -0.881736 0.468940
vn -0.051351 -0.881736 0.468940
vn -0.051351 -0.881736 0.468940
vn -0.051351 -0.881736 0.468940
vn 0.937401 0.008503 0.348149
vn 0.937401 0.008503 0.348149
vn 0.937401 0.008503 0.348149
vn 0.937401 0.008503 0.348149
vn 0.000000 0.961144 0.276046
vn 0.000000 0.961144 0.276046
vn 0.000000 0.961144 0.276046
vn -0.945446 0.267162 0.186430
vn -0.945446 0.267162 0.186430
vn -0.945446 0.267162 0.186430
vn -0.945446 0.267162 0.186430
vn 0.942341 0.270937 0.196435
vn 0.942341 0.270937 0.196435
vn 0.942341 0.270937 0.196435
vn 0.942341 0.270937 0.196435
vn 0.277427 0.825798 0.491010
vn 0.277427 0.825798 0.491010
vn 0.277427 0.825798 0.491010
vn 0.277427 0.825798 0.491010
vn 0.000000 -0.967578 0.252573
vn 0.000000 -0.967578 0.252573
vn 0.000000 -0.967578 0.252573
vn 0.217195 -0.882530 -0.417094
vn 0.217195 -0.882530 -0.417094
vn 0.217195 -0.882530 -0.417094
vn 0.217195 -0.882530 -0.417094
vn 0.000000 0.000000 -1.000000
vn 0.000000 0.000000 -1.000000
vn 0.000000 0.000000 -1.000000
vn 0.000000 0.000000 -1.000000
vn 0.000000 0.000000 -1.000000
vn 0.000000 0.000000 -1.000000
vn 0.000000 0.000000 -1.000000
vn 0.000000 0.000000 -1.000000
vn 0.000000 0.000000 -1.000000
vn 0.000000 0.000000 -1.000000
vn 0.000000 0.000000 -1.000000
vn 0.000000 0.000000 -1.000000
vn 0.000000 0.000000 -1.000000
vn 0.000000 0.000000 -1.000000
vn 0.000000 0.000000 -1.000000
vn 0.000000 0.000000 -1.000000
vn 0.000000 0.000000 -1.000000
vn 0.000000 0.000000 -1.000000
vn 0.000000 0.000000 -1.000000
vn 0.000000 0.000000 -1.000000
vn 0.000000 0.000000 -1.000000
vn 0.000000 0.000000 -1.000000
vn 0.000000 0.000000 -1.000000
vn 0.006044 0.967081 -0.254398
vn 0.006044 0.967081 -0.254398
vn 0.006044 0.967081 -0.254398
vn 0.006044 0.967081 -0.254398
vn -0.971834 0.000848 -0.235664
vn -0.971834 0.000848 -0.235664
vn -0.971834 0.000848 -0.235664
vn -0.971834 0.000848 -0.235664
vn 0.969232 -0.082511 -0.231909
vn 0.969232 -0.082511 -0.231909
vn 0.969232 -0.082511 -0.231909
vn 0.969232 -0.082511 -0.231909
vn -0.925697 -0.243274 -0.289659
vn -0.925697 -0.243274 -0.289659
vn -0.925697 -0.243274 -0.289659
vn -0.925697 -0.243274 -0.289659
vn -0.000279 -0.890924 -0.454153
vn -0.000279 -0.890924 -0.454153
vn -0.000279 -0.890924 -0.454153
vn -0.000279 -0.890924 -0.454153
vn 0.928240 -0.237303 -0.286458
vn 0.928240 -0.237303 -0.286458
vn 0.928240 -0.237303 -0.286458
vn 0.928240 -0.237303 -0.286458
vn -0.974748 -0.071805 -0.211448
vn -0.974748 -0.071805 -0.211448
vn -0.974748 -0.071805 -0.211448
vn -0.974748 -0.071805 -0.211448
vn -0.051351 -0.881736 -0.468940
vn -0.051351 -0.881736 -0.468940
vn -0.051351 -0.881736 -0.468940
vn -0.051351 -0.881736 -0.468940
vn 0.937401 0.008503 -0.348149
vn 0.937401 0.008503 -0.348149
vn 0.937401 0.008503 -0.348149
vn 0.937401 0.008503 -0.348149
vn 0.000000 0.961144 -0.276046
vn 0.000000 0.961144 -0.276046
vn 0.000000 0.961144 -0.276046
vn -0.945446 0.267162 -0.186430
vn -0.945446 0.267162 -0.186430
vn -0.945446 0.267162 -0.186430
vn -0.945446 0.267162 -0.186430
vn 0.942341 0.270937 -0.196435
vn 0.942341 0.270937 -0.196435
vn 0.942341 0.270937 -0.196435
vn 0.942341 0.270937 -0.196435
vn 0.277427 0.825798 -0.491010
vn 0.277427 0.825798 -0.491010
vn 0.277427 0.825798 -0.491010
vn 0.277427 0.825798 -0.491010
vn 0.000000 -0.967578 -0.252573
vn 0.000000 -0.967578 -0.252573
vn 0.000000 -0.967578 -0.252573
s off
f 3/3/1 17/17/2 18/18/3 4/4/4
f 2/1/5 3/3/6 4/4/7 5/5/8
f 1/2/9 2/1/10 5/5/11 13/13/12
f 9/9/13 10/10/14 11/11/15 8/8/16
f 8/8/17 11/11/18 12/12/19 13/13/20
f 5/5/21 6/6/22 13/13/23
f 13/13/24 6/6/25 7/7/26 8/8/27
f 15/15/28 14/14/29 2/1/30 1/2/31
f 14/14/32 16/16/33 3/3/34 2/1/35
f 18/18/36 19/19/37 5/5/38 4/4/39
f 19/19/40 20/20/41 6/6/42 5/5/43
f 20/20/44 21/21/45 7/7/46 6/6/47
f 21/21/48 22/22/49 8/8/50 7/7/51
f 22/22/52 23/23/53 9/9/54 8/8/55
f 23/23/56 24/24/57 10/10/58 9/9/59
f 24/24/60 25/25/61 11/11/62 10/10/63
f 27/27/64 26/26/65 12/12/66
f 26/26/67 28/28/68 13/13/69 12/12/70
f 28/28/71 15/15/72 1/2/73 13/13/74
f 25/25/75 27/27/76 12/12/77 11/11/78
f 16/16/79 17/17/80 3/3/81
f 31/29/82 32/32/83 18/31/84 17/30/85
f 30/33/86 33/34/87 32/32/88 31/29/89
f 29/35/90 41/36/91 33/34/92 30/33/93
f 37/37/94 36/40/95 39/39/96 38/38/97
f 36/40/98 41/36/99 40/41/100 39/39/101
f 33/34/102 41/36/103 34/42/104
f 41/36/105 36/40/106 35/43/107 34/42/108
f 15/44/109 29/35/110 30/33/111 14/45/112
f 14/45/113 30/33/114 31/29/115 16/46/116
f 18/31/117 32/32/118 33/34/119 19/47/120
f 19/47/121 33/34/122 34/42/123 20/48/124
f 20/48/125 34/42/126 35/43/127 21/49/128
f 21/49/129 35/43/130 36/40/131 22/50/132
f 22/50/133 36/40/134 37/37/135 23/51/136
f 23/51/137 37/37/138 38/38/139 24/52/140
f 24/52/141 38/38/142 39/39/143 25/53/144
f 27/54/145 40/41/146 26/55/147
f 26/55/148 40/41/149 41/36/150 28/56/151
f 28/56/152 41/36/153 29/35/154 15/44/155
f 25/53/156 39/39/157 40/41/158 27/54/159
f 16/46/160 31/29/161 17/30/162
