# This file uses centimeters as units for non-parametric coordinates.

v 19.122292 5.157932 2.043885
v -5.502400 -19.122292 2.043885
v -19.122292 -2.459630 2.043885
v 2.656201 17.791107 2.043885
v -20.000000 -7.710419 0.000000
v -11.709566 -18.351891 0.000000
v -16.880608 -14.007017 0.000000
v 13.399936 17.942104 0.000000
v 17.536953 14.218772 0.000000
v 20.000000 8.543329 0.000000
v 8.633038 20.000000 0.000000
v -18.307005 -11.540577 0.000000
v -13.689490 -17.048456 0.000000
v 4.590145 13.285869 3.956115
v 7.600277 9.333266 3.956115
v -15.779737 -12.521857 3.956115
v -10.661361 -16.567451 3.956115
v 13.751122 5.963806 3.956115
v -18.055004 -7.077084 3.956115
v 20.000000 5.394680 0.000000
v -5.754959 -20.000000 0.000000
v -20.000000 -2.572526 0.000000
v 4.275441 20.000000 0.000000
v -7.650350 7.588701 0.000000
v -7.946850 6.672423 2.043885
v -6.594262 2.515684 3.956115
v -4.199185 -1.788942 3.956115
v 0.916280 -5.177257 3.956115
v 5.708673 -6.736754 2.043885
v 5.974732 -7.047078 0.000000
v 4.211289 17.719717 2.061689
v 5.785214 13.883689 3.468681
v 12.698589 16.852571 0.795243
v 8.367838 18.844109 0.878354
v 16.574949 13.487102 0.873126
v 19.166136 6.608490 1.457294
v 14.105855 7.262833 3.460263
v 8.460298 10.332369 3.410465
v 5.111952 18.972414 0.950824
v 19.034945 8.884552 1.031235
vt 0.929433 0.929158
vt 0.929329 0.929422
vt 0.929256 0.929386
vt 0.920965 0.916313
vt 0.921060 0.916279
vt 0.929342 0.929163
vt 0.920946 0.916393
vt 0.921150 0.916320
vt 0.928807 0.929157
vt 0.929079 0.929040
vt 0.929096 0.929102
vt 0.928846 0.929218
vt 0.920895 0.916333
vt 0.921270 0.916343
vt 0.920776 0.916518
vt 0.920915 0.916367
vt 0.928781 0.929858
vt 0.921117 0.916279
vt 0.920810 0.916393
vt 0.921258 0.916327
vt 0.928473 0.929895
vt 0.920745 0.916507
vt 0.928467 0.929775
vt 0.920301 0.915889
vt 0.920604 0.916174
vt 0.920472 0.916261
vt 0.920144 0.915976
vt 0.920349 0.916299
vt 0.920010 0.915997
vt 0.920426 0.915679
vt 0.920694 0.915959
vt 0.920665 0.916064
vt 0.920378 0.915788
vt 0.920682 0.915938
vt 0.920384 0.915629
vt 0.919992 0.915993
vt 0.920342 0.916304
vt 0.920978 0.916190
vt 0.920992 0.916192
vt 0.920770 0.916554
vt 0.920634 0.916614
vt 0.920636 0.916629
vt 0.928761 0.929779
vt 0.929148 0.929658
vt 0.929096 0.929597
vt 0.928572 0.929370
vt 0.928624 0.929411
vt 0.929328 0.929039
vt 0.929284 0.929094
vt 0.928434 0.929870
vt 0.928433 0.929692
vt 0.922198 0.949691
vt 0.922099 0.949947
vt 0.921631 0.949754
vt 0.921916 0.949622
vt 0.921198 0.950391
vt 0.921376 0.949975
vt 0.921533 0.950396
vt 0.921916 0.950188
vt 0.922131 0.949613
vt 0.928515 0.929663
vt 0.921252 0.950263
vn 0.175163 0.401577 0.898918
vn 0.175163 0.401577 0.898918
vn 0.175163 0.401577 0.898918
vn 0.000000 0.000000 1.000000
vn 0.000000 0.000000 1.000000
vn 0.000000 0.000000 1.000000
vn 0.000000 0.000000 1.000000
vn 0.271131 -0.308945 0.911614
vn 0.271131 -0.308945 0.911614
vn 0.271131 -0.308945 0.911614
vn 0.271131 -0.308945 0.911614
vn -0.292526 0.291171 0.910850
vn -0.292526 0.291171 0.910850
vn -0.292526 0.291171 0.910850
vn -0.292526 0.291171 0.910850
vn -0.000000 0.000000 1.000000
vn -0.000000 0.000000 1.000000
vn -0.000000 0.000000 1.000000
vn -0.000000 0.000000 1.000000
vn 0.172518 0.336520 0.925739
vn 0.172518 0.336520 0.925739
vn 0.172518 0.336520 0.925739
vn 0.373075 0.217143 0.902033
vn 0.373075 0.217143 0.902033
vn 0.373075 0.217143 0.902033
vn 0.373075 0.217143 0.902033
vn 0.279666 0.195253 0.940034
vn 0.279666 0.195253 0.940034
vn 0.279666 0.195253 0.940034
vn 0.182019 0.287989 0.940176
vn 0.182019 0.287989 0.940176
vn 0.182019 0.287989 0.940176
vn 0.182019 0.287989 0.940176
vn -0.573912 -0.672908 0.466712
vn -0.573912 -0.672908 0.466712
vn -0.573912 -0.672908 0.466712
vn -0.573912 -0.672908 0.466712
vn -0.487364 -0.740309 0.463054
vn -0.487364 -0.740309 0.463054
vn -0.487364 -0.740309 0.463054
vn -0.255164 -0.854253 0.452926
vn -0.255164 -0.854253 0.452926
vn -0.255164 -0.854253 0.452926
vn -0.895696 -0.023132 0.444066
vn -0.895696 -0.023132 0.444066
vn -0.895696 -0.023132 0.444066
vn -0.813336 -0.359509 0.457425
vn -0.813336 -0.359509 0.457425
vn -0.813336 -0.359509 0.457425
vn -0.818623 -0.383035 0.427949
vn -0.818623 -0.383035 0.427949
vn -0.818623 -0.383035 0.427949
vn -0.818623 -0.383035 0.427949
vn -0.918859 0.000000 0.394587
vn -0.918859 0.000000 0.394587
vn -0.918859 0.000000 0.394587
vn 0.042414 0.645642 0.762461
vn 0.042414 0.645642 0.762461
vn 0.042414 0.645642 0.762461
vn -0.709584 0.679393 0.186860
vn -0.709584 0.679393 0.186860
vn -0.709584 0.679393 0.186860
vn -0.709584 0.679393 0.186860
vn -0.243543 -0.879919 0.407959
vn -0.243543 -0.879919 0.407959
vn -0.243543 -0.879919 0.407959
vn 0.650769 -0.733730 0.195293
vn 0.650769 -0.733730 0.195293
vn 0.650769 -0.733730 0.195293
vn 0.650769 -0.733730 0.195293
vn -0.616324 0.751509 0.235327
vn -0.616324 0.751509 0.235327
vn -0.616324 0.751509 0.235327
vn -0.616324 0.751509 0.235327
vn -0.266656 0.322357 0.908284
vn -0.266656 0.322357 0.908284
vn -0.266656 0.322357 0.908284
vn -0.266656 0.322357 0.908284
vn 0.000000 0.000000 1.000000
vn 0.000000 0.000000 1.000000
vn 0.000000 0.000000 1.000000
vn 0.000000 0.000000 1.000000
vn -0.000000 0.000000 1.000000
vn -0.000000 0.000000 1.000000
vn -0.000000 0.000000 1.000000
vn -0.000000 0.000000 1.000000
vn 0.257184 -0.246508 0.934393
vn 0.257184 -0.246508 0.934393
vn 0.257184 -0.246508 0.934393
vn 0.257184 -0.246508 0.934393
vn 0.727261 -0.658443 0.193766
vn 0.727261 -0.658443 0.193766
vn 0.727261 -0.658443 0.193766
vn 0.727261 -0.658443 0.193766
vn 0.080030 0.397418 0.914141
vn 0.080030 0.397418 0.914141
vn 0.080030 0.397418 0.914141
vn 0.080030 0.397418 0.914141
vn 0.236037 0.513357 0.825076
vn 0.236037 0.513357 0.825076
vn 0.236037 0.513357 0.825076
vn 0.236037 0.513357 0.825076
vn 0.371648 0.292933 0.880947
vn 0.371648 0.292933 0.880947
vn 0.371648 0.292933 0.880947
vn 0.371648 0.292933 0.880947
vn 0.297604 0.218264 0.929405
vn 0.297604 0.218264 0.929405
vn 0.297604 0.218264 0.929405
vn 0.297604 0.218264 0.929405
vn 0.366781 0.423718 0.828212
vn 0.366781 0.423718 0.828212
vn 0.366781 0.423718 0.828212
vn 0.366781 0.423718 0.828212
vn 0.175169 0.328093 0.928262
vn 0.175169 0.328093 0.928262
vn 0.175169 0.328093 0.928262
vn 0.175169 0.328093 0.928262
vn 0.018140 0.644853 0.764091
vn 0.018140 0.644853 0.764091
vn 0.018140 0.644853 0.764091
vn 0.018140 0.644853 0.764091
vn 0.007655 0.670521 0.741851
vn 0.007655 0.670521 0.741851
vn 0.007655 0.670521 0.741851
vn 0.007655 0.670521 0.741851
vn 0.904494 0.136109 0.404184
vn 0.904494 0.136109 0.404184
vn 0.904494 0.136109 0.404184
vn 0.867954 0.000000 0.496644
vn 0.867954 0.000000 0.496644
vn 0.867954 0.000000 0.496644
vn 0.746743 0.163716 0.644649
vn 0.746743 0.163716 0.644649
vn 0.746743 0.163716 0.644649
vn 0.634193 0.314636 0.706261
vn 0.634193 0.314636 0.706261
vn 0.634193 0.314636 0.706261
vn 0.634193 0.314636 0.706261
s off
f 31/52/1 32/53/2 33/54/3
f 15/24/4 27/25/5 28/26/6 18/27/7
f 18/27/8 28/26/9 29/28/10 1/29/11
f 4/30/12 25/31/13 26/32/14 14/33/15
f 14/33/16 26/32/17 27/25/18 15/24/19
f 31/52/20 33/54/21 34/55/22
f 36/56/23 40/62/24 35/57/25 37/58/26
f 38/59/27 33/54/28 32/53/29
f 37/58/30 35/57/31 33/54/32 38/59/33
f 7/4/34 13/5/35 17/8/36 16/7/37
f 13/5/38 6/18/39 17/8/40
f 6/18/41 2/14/42 17/8/43
f 3/15/44 5/19/45 19/16/46
f 5/19/47 12/13/48 19/16/49
f 12/13/50 7/4/51 16/7/52 19/16/53
f 5/19/54 3/15/55 22/22/56
f 31/52/57 34/55/58 39/60/59
f 24/34/60 25/31/61 4/30/62 23/35/63
f 2/14/64 6/18/65 21/20/66
f 20/36/67 1/29/68 29/28/69 30/37/70
f 3/38/71 25/31/72 24/34/73 22/39/74
f 26/32/75 25/31/76 3/38/77 19/16/78
f 27/25/79 26/32/80 19/16/81 16/7/82
f 28/26/83 27/25/84 16/7/85 17/40/86
f 29/28/87 28/26/88 17/40/89 2/41/90
f 30/37/91 29/28/92 2/41/93 21/42/94
f 4/1/95 14/2/96 32/3/97 31/6/98
f 8/9/99 11/10/100 34/11/101 33/12/102
f 18/17/103 1/21/104 36/23/105 37/43/106
f 14/2/107 15/44/108 38/45/109 32/3/110
f 9/46/111 8/9/112 33/12/113 35/47/114
f 15/44/115 18/17/116 37/43/117 38/45/118
f 11/10/119 23/48/120 39/49/121 34/11/122
f 23/48/123 4/1/124 31/6/125 39/49/126
f 1/21/127 20/50/128 36/23/129
f 20/50/130 10/51/131 36/23/132
f 10/51/133 40/61/134 36/23/135
f 10/51/136 9/46/137 35/47/138 40/61/139
