# This file uses centimeters as units for non-parametric coordinates.

v -4.853650 -16.642704 2.000000
v -3.987263 -16.887564 2.000000
v -2.031867 -3.289087 2.000000
v 0.455274 -3.992000 2.000000
v -2.710110 -3.097403 0.000000
v 1.276305 -4.224039 0.000000
v -5.446544 -17.585033 0.000000
v -3.975319 -18.000830 0.000000
v -4.560006 -17.258907 2.000000
v -5.150325 -19.347654 0.000000
v -0.716902 -3.660721 0.000000
v -0.716902 -3.660721 2.000000
v -4.420457 -16.765135 2.000000
v -8.130322 -1.832602 4.000000
v 6.617083 -6.071967 4.000000
v -7.198362 1.534148 4.000000
v 7.392526 -2.589512 4.000000
v -8.488967 1.898897 0.000000
v 8.815501 -2.991671 0.000000
v -9.755121 -2.266794 0.000000
v 7.713905 -7.203870 0.000000
v -3.051336 4.562578 4.000000
v 5.771552 2.104800 4.000000
v 6.969837 2.087762 0.000000
v -4.257608 5.260850 0.000000
v 0.578539 14.694332 1.929802
v 7.919238 12.619712 1.929802
v 8.812735 12.367193 0.000000
v -0.447327 14.984261 0.000000
v -1.856267 5.027020 2.070198
v 4.702057 3.173513 2.070198
v 5.496276 2.949052 0.000000
v -2.551208 5.223423 0.000000
v -2.101337 16.101566 4.000000
v 10.906173 12.425400 4.000000
v -1.060579 18.390249 4.000000
v 11.297914 14.826036 4.000000
v -5.327364 3.377537 4.000000
v 7.212816 -0.345232 4.000000
v 8.450906 -0.516461 0.000000
v -6.882709 3.817107 0.000000
v 0.124241 12.311413 1.965788
v 5.453628 5.909445 1.965788
v 6.454048 5.626707 0.000000
v -0.986583 12.482410 0.000000
v 6.588254 16.005362 4.000000
v 9.405376 12.328640 0.000000
v 11.696394 12.202068 -0.000000
v -0.972478 15.261617 0.000000
v -2.979359 16.349712 0.000000
v 12.007336 15.099617 0.000000
v -1.714002 18.985786 0.000000
v 5.938242 16.797321 0.000000
v -4.853650 -16.642704 -2.000000
v -3.987263 -16.887564 -2.000000
v -2.031867 -3.289087 -2.000000
v 0.455274 -3.992000 -2.000000
v -4.560006 -17.258907 -2.000000
v -0.716902 -3.660721 -2.000000
v -4.420457 -16.765135 -2.000000
v -8.130322 -1.832602 -4.000000
v 6.617083 -6.071967 -4.000000
v -7.198362 1.534148 -4.000000
v 7.392526 -2.589512 -4.000000
v -3.051336 4.562578 -4.000000
v 5.771552 2.104800 -4.000000
v 0.578539 14.694332 -1.929802
v 7.919238 12.619712 -1.929802
v -1.856267 5.027020 -2.070198
v 4.702057 3.173513 -2.070198
v -2.101337 16.101566 -4.000000
v 10.906173 12.425400 -4.000000
v -1.060579 18.390249 -4.000000
v 11.297914 14.826036 -4.000000
v -5.327364 3.377537 -4.000000
v 7.212816 -0.345232 -4.000000
v 0.124241 12.311413 -1.965788
v 5.453628 5.909445 -1.965788
v 6.588254 16.005362 -4.000000
vt 0.953521 0.988455
vt 0.953521 0.985527
vt 0.954145 0.985527
vt 0.955208 0.988455
vt 0.953521 0.988455
vt 0.956388 0.988455
vt 0.953521 0.985417
vt 0.953521 0.984950
vt 0.954580 0.985297
vt 0.952463 0.985297
vt 0.952899 0.985527
vt 0.951630 0.988455
vt 0.950655 0.988455
vt 0.612707 0.987074
vt 0.605849 0.986073
vt 0.612850 0.986073
vt 0.607157 0.981684
vt 0.605370 0.978242
vt 0.613318 0.978213
vt 0.613214 0.979689
vt 0.605361 0.979689
vt 0.606045 0.987102
vt 0.610194 0.987013
vt 0.604622 0.977885
vt 0.614024 0.977885
vt 0.613980 0.979689
vt 0.604666 0.979689
vt 0.606033 0.980635
vt 0.612808 0.980564
vt 0.611745 0.981378
vt 0.607001 0.981364
vt 0.613449 0.980635
vt 0.612344 0.981507
vt 0.605196 0.980635
vt 0.606301 0.981507
vt 0.607383 0.985813
vt 0.607492 0.984812
vt 0.611050 0.982860
vt 0.611334 0.985813
vt 0.611589 0.982860
vt 0.611815 0.985813
vt 0.606914 0.984755
vt 0.606831 0.985813
vt 0.611061 0.981684
vt 0.607531 0.981684
vt 0.611488 0.981684
vt 0.612116 0.985865
vt 0.613275 0.986073
vt 0.606530 0.985865
vt 0.605376 0.986073
vt 0.613022 0.987263
vt 0.605636 0.987266
vt 0.609758 0.987256
vt 0.953521 0.988455
vt 0.953521 0.985527
vt 0.954145 0.985527
vt 0.955208 0.988455
vt 0.953521 0.988455
vt 0.956388 0.988455
vt 0.953521 0.985417
vt 0.953521 0.984950
vt 0.954580 0.985297
vt 0.952463 0.985297
vt 0.952899 0.985527
vt 0.951630 0.988455
vt 0.950655 0.988455
vt 0.605370 0.978242
vt 0.613318 0.978213
vt 0.613214 0.979689
vt 0.605361 0.979689
vt 0.606045 0.987102
vt 0.610194 0.987013
vt 0.609758 0.987256
vt 0.605636 0.987266
vt 0.604622 0.977885
vt 0.614024 0.977885
vt 0.613980 0.979689
vt 0.604666 0.979689
vt 0.606033 0.980635
vt 0.612808 0.980564
vt 0.611745 0.981378
vt 0.607001 0.981364
vt 0.613449 0.980635
vt 0.612344 0.981507
vt 0.605196 0.980635
vt 0.606301 0.981507
vt 0.607383 0.985813
vt 0.607492 0.984812
vt 0.611050 0.982860
vt 0.611334 0.985813
vt 0.611589 0.982860
vt 0.611815 0.985813
vt 0.606914 0.984755
vt 0.606831 0.985813
vt 0.611061 0.981684
vt 0.607531 0.981684
vt 0.611488 0.981684
vt 0.607157 0.981684
vt 0.612850 0.986073
vt 0.605849 0.986073
vt 0.612116 0.985865
vt 0.613275 0.986073
vt 0.605376 0.986073
vt 0.606530 0.985865
vt 0.613022 0.987263
vt 0.612707 0.987074
vn -0.000000 0.000000 1.000000
vn -0.000000 0.000000 1.000000
vn -0.000000 0.000000 1.000000
vn -0.000000 0.000000 1.000000
vn 0.271966 0.962307 0.000000
vn 0.271966 0.962307 -0.000000
vn 0.271966 0.962307 0.000000
vn 0.271966 0.962307 0.000000
vn -0.197437 -0.698595 0.687739
vn -0.197437 -0.698595 0.687739
vn 0.634589 -0.645515 0.424979
vn 0.634589 -0.645515 0.424979
vn 0.897550 -0.326218 0.296625
vn 0.897550 -0.326218 0.296625
vn 0.897550 -0.326218 0.296625
vn 0.897550 -0.326218 0.296625
vn -0.945572 0.188774 0.265062
vn -0.945572 0.188774 0.265062
vn -0.945572 0.188774 0.265062
vn -0.945572 0.188774 0.265062
vn -0.878595 -0.217860 0.424979
vn -0.197437 -0.698595 0.687739
vn -0.197437 -0.698595 0.687739
vn -0.878595 -0.217860 0.424979
vn 0.271966 0.962307 -0.000000
vn 0.271966 0.962307 -0.000000
vn 0.271966 0.962307 0.000000
vn 0.271966 0.962307 0.000000
vn 0.000000 0.000000 1.000000
vn -0.000000 0.000000 1.000000
vn -0.000000 0.000000 1.000000
vn 0.000000 0.000000 1.000000
vn 0.000000 0.000000 1.000000
vn 0.000000 0.000000 1.000000
vn -0.000000 0.000000 1.000000
vn -0.000000 0.000000 1.000000
vn -0.000000 0.000000 1.000000
vn 0.000000 0.000000 1.000000
vn 0.000000 0.000000 1.000000
vn 0.000000 0.000000 1.000000
vn 0.000000 0.000000 1.000000
vn 0.000000 0.000000 1.000000
vn 0.284349 0.951348 0.118670
vn 0.270742 0.954652 0.123846
vn 0.276445 0.961030 0.000000
vn 0.286373 0.958118 0.000000
vn -0.273941 -0.961746 0.000000
vn -0.273941 -0.961746 0.000000
vn -0.268289 -0.941902 0.202095
vn -0.268289 -0.941902 0.202095
vn 0.916555 -0.223585 0.331566
vn 0.916555 -0.223585 0.331566
vn 0.916555 -0.223585 0.331566
vn 0.916555 -0.223585 0.331566
vn -0.906799 0.264622 0.328163
vn -0.906799 0.264622 0.328164
vn -0.906799 0.264622 0.328163
vn -0.906799 0.264622 0.328163
vn 0.000000 0.000000 1.000000
vn 0.000000 0.000000 1.000000
vn 0.000000 0.000000 1.000000
vn 0.000000 0.000000 1.000000
vn 0.839491 0.485387 0.244242
vn 0.865710 0.500547 -0.000000
vn 0.865710 0.500547 -0.000000
vn 0.839491 0.485387 0.244242
vn -0.454143 0.846708 0.277199
vn -0.454143 0.846708 0.277199
vn -0.454143 0.846708 0.277199
vn -0.454143 0.846708 0.277199
vn 0.004359 0.006515 0.999969
vn 0.006707 0.009825 0.999929
vn 0.009654 0.013978 0.999856
vn 0.004359 0.006515 0.999969
vn 0.849223 -0.290255 0.441103
vn 0.848754 -0.290838 0.441622
vn 0.840927 -0.300406 0.450109
vn 0.840927 -0.300406 0.450109
vn -0.876721 0.208428 0.433495
vn -0.876364 0.207902 0.434469
vn -0.853891 0.177285 0.489327
vn -0.853891 0.177285 0.489327
vn 0.251339 0.896695 0.364372
vn 0.251339 0.896695 0.364372
vn 0.251339 0.896695 0.364372
vn 0.251339 0.896695 0.364372
vn 0.528820 0.837061 0.140280
vn 0.534101 0.845421 0.000000
vn 0.534101 0.845421 0.000000
vn 0.528820 0.837061 0.140280
vn -0.040636 0.999174 0.000000
vn -0.040126 0.986626 0.157984
vn -0.040126 0.986626 0.157984
vn -0.040636 0.999174 0.000000
vn -0.260347 -0.921195 0.289170
vn -0.260347 -0.921195 0.289170
vn -0.260347 -0.921195 0.289170
vn -0.260347 -0.921195 0.289170
vn -0.080974 -0.995053 0.057551
vn -0.081109 -0.996705 0.000000
vn -0.081109 -0.996705 0.000000
vn -0.081109 -0.996705 0.000000
vn -0.080974 -0.995053 0.057551
vn -0.449916 -0.893071 0.000000
vn -0.448992 -0.891238 0.064044
vn -0.448992 -0.891238 0.064044
vn -0.449916 -0.893071 0.000000
vn -0.449916 -0.893071 0.000000
vn 0.000000 0.000000 1.000000
vn 0.000000 0.000000 1.000000
vn 0.000000 0.000000 1.000000
vn 0.000000 0.000000 1.000000
vn 0.974778 -0.129282 0.181915
vn 0.991319 -0.131476 0.000000
vn 0.991319 -0.131476 0.000000
vn 0.974778 -0.129282 0.181915
vn 0.000000 0.000000 1.000000
vn 0.000000 0.000000 1.000000
vn 0.000000 0.000000 1.000000
vn 0.000000 0.000000 1.000000
vn 0.945538 0.109050 0.306701
vn 0.945538 0.109050 0.306701
vn 0.945538 0.109050 0.306701
vn 0.945538 0.109050 0.306701
vn -0.697436 0.644716 0.312928
vn -0.697436 0.644716 0.312928
vn -0.697436 0.644716 0.312928
vn -0.697436 0.644716 0.312928
vn 0.009654 0.013978 0.999856
vn 0.006707 0.009825 0.999929
vn 0.012165 0.017518 0.999773
vn 0.012165 0.017518 0.999773
vn 0.867974 -0.265975 0.419378
vn 0.867974 -0.265975 0.419378
vn 0.848754 -0.290838 0.441622
vn 0.849223 -0.290255 0.441103
vn -0.883230 0.218278 0.415041
vn -0.883230 0.218278 0.415041
vn -0.876364 0.207902 0.434469
vn -0.876721 0.208428 0.433495
vn 0.000000 0.000000 1.000000
vn 0.000000 0.000000 1.000000
vn 0.000000 0.000000 1.000000
vn -0.905626 0.424077 0.000000
vn -0.905626 0.424077 0.000000
vn -0.884828 0.414338 0.213080
vn -0.884828 0.414338 0.213080
vn 0.257888 0.966175 -0.000000
vn 0.276445 0.961030 0.000000
vn 0.270742 0.954652 0.123846
vn 0.255717 0.958039 0.129503
vn 0.000000 0.000000 -1.000000
vn 0.000000 0.000000 -1.000000
vn 0.000000 0.000000 -1.000000
vn 0.000000 0.000000 -1.000000
vn 0.271966 0.962307 0.000000
vn 0.271966 0.962307 0.000000
vn 0.271966 0.962307 0.000000
vn 0.271966 0.962307 0.000000
vn -0.197437 -0.698595 -0.687738
vn 0.634589 -0.645515 -0.424979
vn 0.634589 -0.645515 -0.424979
vn -0.197437 -0.698595 -0.687738
vn 0.897550 -0.326218 -0.296625
vn 0.897550 -0.326218 -0.296625
vn 0.897550 -0.326218 -0.296625
vn 0.897550 -0.326218 -0.296625
vn -0.945572 0.188774 -0.265062
vn -0.945572 0.188774 -0.265062
vn -0.945572 0.188774 -0.265062
vn -0.945572 0.188774 -0.265062
vn -0.878596 -0.217860 -0.424979
vn -0.878596 -0.217860 -0.424979
vn -0.197437 -0.698595 -0.687738
vn -0.197437 -0.698595 -0.687738
vn 0.271966 0.962307 0.000000
vn 0.271966 0.962307 0.000000
vn 0.271966 0.962307 0.000000
vn 0.271966 0.962307 0.000000
vn 0.000000 0.000000 -1.000000
vn 0.000000 0.000000 -1.000000
vn 0.000000 0.000000 -1.000000
vn 0.000000 0.000000 -1.000000
vn 0.000000 0.000000 -1.000000
vn 0.000000 0.000000 -1.000000
vn 0.000000 0.000000 -1.000000
vn 0.000000 0.000000 -1.000000
vn 0.000000 0.000000 -1.000000
vn 0.000000 0.000000 -1.000000
vn 0.000000 0.000000 -1.000000
vn 0.000000 0.000000 -1.000000
vn 0.000000 0.000000 -1.000000
vn 0.000000 0.000000 -1.000000
vn 0.284349 0.951348 -0.118670
vn 0.286373 0.958118 0.000000
vn 0.276445 0.961030 0.000000
vn 0.270742 0.954652 -0.123846
vn -0.273941 -0.961746 0.000000
vn -0.268289 -0.941902 -0.202095
vn -0.268289 -0.941902 -0.202095
vn -0.273941 -0.961746 0.000000
vn 0.916555 -0.223585 -0.331566
vn 0.916555 -0.223585 -0.331566
vn 0.916555 -0.223585 -0.331566
vn 0.916555 -0.223585 -0.331566
vn -0.906799 0.264622 -0.328163
vn -0.906799 0.264622 -0.328164
vn -0.906799 0.264622 -0.328163
vn -0.906799 0.264622 -0.328163
vn 0.000000 0.000000 -1.000000
vn 0.000000 0.000000 -1.000000
vn 0.000000 0.000000 -1.000000
vn 0.000000 0.000000 -1.000000
vn 0.839491 0.485387 -0.244242
vn 0.839491 0.485387 -0.244242
vn 0.865710 0.500547 -0.000000
vn 0.865710 0.500547 -0.000000
vn -0.454143 0.846708 -0.277199
vn -0.454143 0.846708 -0.277199
vn -0.454143 0.846708 -0.277199
vn -0.454143 0.846708 -0.277199
vn 0.004359 0.006515 -0.999969
vn 0.004359 0.006515 -0.999969
vn 0.009654 0.013978 -0.999856
vn 0.006707 0.009825 -0.999929
vn 0.849223 -0.290255 -0.441103
vn 0.840927 -0.300406 -0.450109
vn 0.840927 -0.300406 -0.450109
vn 0.848754 -0.290838 -0.441621
vn -0.876721 0.208428 -0.433495
vn -0.853891 0.177285 -0.489327
vn -0.853891 0.177285 -0.489327
vn -0.876364 0.207902 -0.434469
vn 0.251339 0.896695 -0.364373
vn 0.251339 0.896695 -0.364373
vn 0.251339 0.896695 -0.364373
vn 0.251339 0.896695 -0.364373
vn 0.528820 0.837061 -0.140280
vn 0.528820 0.837061 -0.140280
vn 0.534101 0.845421 0.000000
vn 0.534101 0.845421 0.000000
vn -0.040636 0.999174 0.000000
vn -0.040636 0.999174 0.000000
vn -0.040126 0.986626 -0.157984
vn -0.040126 0.986626 -0.157984
vn -0.260347 -0.921195 -0.289170
vn -0.260347 -0.921195 -0.289170
vn -0.260347 -0.921195 -0.289170
vn -0.260347 -0.921195 -0.289170
vn -0.080974 -0.995053 -0.057550
vn -0.080974 -0.995053 -0.057550
vn -0.081109 -0.996705 0.000000
vn -0.081109 -0.996705 0.000000
vn -0.081109 -0.996705 0.000000
vn -0.449916 -0.893071 0.000000
vn -0.449916 -0.893071 0.000000
vn -0.449916 -0.893071 0.000000
vn -0.448992 -0.891238 -0.064043
vn -0.448992 -0.891238 -0.064043
vn 0.000000 0.000000 -1.000000
vn 0.000000 0.000000 -1.000000
vn 0.000000 0.000000 -1.000000
vn 0.000000 0.000000 -1.000000
vn 0.974778 -0.129282 -0.181915
vn 0.974778 -0.129282 -0.181915
vn 0.991319 -0.131476 0.000000
vn 0.991319 -0.131476 0.000000
vn 0.000000 0.000000 -1.000000
vn 0.000000 0.000000 -1.000000
vn 0.000000 0.000000 -1.000000
vn 0.000000 0.000000 -1.000000
vn 0.945538 0.109050 -0.306701
vn 0.945538 0.109050 -0.306701
vn 0.945538 0.109050 -0.306701
vn 0.945538 0.109050 -0.306701
vn -0.697436 0.644716 -0.312928
vn -0.697436 0.644716 -0.312928
vn -0.697436 0.644716 -0.312928
vn -0.697436 0.644716 -0.312928
vn 0.009654 0.013978 -0.999856
vn 0.012165 0.017518 -0.999773
vn 0.012165 0.017518 -0.999773
vn 0.006707 0.009825 -0.999929
vn 0.867974 -0.265975 -0.419378
vn 0.849223 -0.290255 -0.441103
vn 0.848754 -0.290838 -0.441621
vn 0.867974 -0.265975 -0.419378
vn -0.883230 0.218278 -0.415042
vn -0.876721 0.208428 -0.433495
vn -0.876364 0.207902 -0.434469
vn -0.883230 0.218278 -0.415042
vn 0.000000 0.000000 -1.000000
vn 0.000000 0.000000 -1.000000
vn 0.000000 0.000000 -1.000000
vn -0.905626 0.424077 0.000000
vn -0.884828 0.414338 -0.213080
vn -0.884828 0.414338 -0.213080
vn -0.905626 0.424077 0.000000
vn 0.257888 0.966175 -0.000000
vn 0.255717 0.958039 -0.129503
vn 0.270742 0.954652 -0.123846
vn 0.276445 0.961030 0.000000
s off
f 12/1/1 13/2/2 2/3/3 4/4/4
f 11/5/5 12/1/6 4/4/7 6/6/8
f 9/7/9 10/8/10 8/9/11 2/3/12
f 2/3/13 8/9/14 6/6/15 4/4/16
f 7/10/17 1/11/18 3/12/19 5/13/20
f 7/10/21 10/8/22 9/7/23 1/11/24
f 3/12/25 12/1/26 11/5/27 5/13/28
f 1/11/29 13/2/30 12/1/31 3/12/32
f 1/11/33 9/7/34 13/2/35
f 2/3/36 13/2/37 9/7/38
f 14/18/39 15/19/40 17/20/41 16/21/42
f 36/22/43 46/23/44 53/53/45 52/52/46
f 20/24/47 21/25/48 15/19/49 14/18/50
f 15/19/51 21/25/52 19/26/53 17/20/54
f 20/24/55 14/18/56 16/21/57 18/27/58
f 38/28/59 39/29/60 23/30/61 22/31/62
f 39/29/63 40/32/64 24/33/65 23/30/66
f 41/34/67 38/28/68 22/31/69 25/35/70
f 26/36/71 42/37/72 43/38/73 27/39/74
f 43/38/75 44/40/76 28/41/77 27/39/78
f 45/42/79 42/37/80 26/36/81 29/43/82
f 22/31/83 23/30/84 31/44/85 30/45/86
f 23/30/87 24/33/88 32/46/89 31/44/90
f 25/35/91 22/31/92 30/45/93 33/17/94
f 26/36/95 27/39/96 35/16/97 34/15/98
f 27/39/99 28/41/100 47/47/101 48/48/102 35/16/103
f 29/43/104 26/36/105 34/15/106 50/50/107 49/49/108
f 34/15/109 35/16/110 46/23/111 36/22/112
f 35/16/113 48/48/114 51/51/115 37/14/116
f 16/21/117 17/20/118 39/29/119 38/28/120
f 17/20/121 19/26/122 40/32/123 39/29/124
f 18/27/125 16/21/126 38/28/127 41/34/128
f 43/38/129 42/37/130 30/45/131 31/44/132
f 31/44/133 32/46/134 44/40/135 43/38/136
f 33/17/137 30/45/138 42/37/139 45/42/140
f 46/23/141 35/16/142 37/14/143
f 52/52/144 50/50/145 34/15/146 36/22/147
f 51/51/148 53/53/149 46/23/150 37/14/151
f 59/54/152 57/57/153 55/56/154 60/55/155
f 11/58/156 6/59/157 57/57/158 59/54/159
f 58/60/160 55/56/161 8/62/162 10/61/163
f 55/56/164 57/57/165 6/59/166 8/62/167
f 7/63/168 5/66/169 56/65/170 54/64/171
f 7/63/172 54/64/173 58/60/174 10/61/175
f 56/65/176 5/66/177 11/58/178 59/54/179
f 54/64/180 56/65/181 59/54/182 60/55/183
f 54/64/184 60/55/185 58/60/186
f 55/56/187 58/60/188 60/55/189
f 61/67/190 63/70/191 64/69/192 62/68/193
f 73/71/194 52/74/195 53/73/196 79/72/197
f 20/75/198 61/67/199 62/68/200 21/76/201
f 62/68/202 64/69/203 19/77/204 21/76/205
f 20/75/206 18/78/207 63/70/208 61/67/209
f 75/79/210 65/82/211 66/81/212 76/80/213
f 76/80/214 66/81/215 24/84/216 40/83/217
f 41/85/218 25/86/219 65/82/220 75/79/221
f 67/87/222 68/90/223 78/89/224 77/88/225
f 78/89/226 68/90/227 28/92/228 44/91/229
f 45/93/230 29/94/231 67/87/232 77/88/233
f 65/82/234 69/96/235 70/95/236 66/81/237
f 66/81/238 70/95/239 32/97/240 24/84/241
f 25/86/242 33/98/243 69/96/244 65/82/245
f 67/87/246 71/100/247 72/99/248 68/90/249
f 68/90/250 72/99/251 48/102/252 47/101/253 28/92/254
f 29/94/255 49/104/256 50/103/257 71/100/258 67/87/259
f 71/100/260 73/71/261 79/72/262 72/99/263
f 72/99/264 74/106/265 51/105/266 48/102/267
f 63/70/268 75/79/269 76/80/270 64/69/271
f 64/69/272 76/80/273 40/83/274 19/77/275
f 18/78/276 41/85/277 75/79/278 63/70/279
f 78/89/280 70/95/281 69/96/282 77/88/283
f 70/95/284 78/89/285 44/91/286 32/97/287
f 33/98/288 45/93/289 77/88/290 69/96/291
f 79/72/292 74/106/293 72/99/294
f 52/74/295 73/71/296 71/100/297 50/103/298
f 51/105/299 74/106/300 79/72/301 53/73/302
