# This file uses centimeters as units for non-parametric coordinates.

v 13.943572 10.541231 2.000000
v 17.033972 11.032977 2.000000
v 13.400986 12.905365 2.000000
v 16.881197 13.163126 2.000000
v 12.613017 13.782481 0.000000
v 17.490618 13.948709 0.000000
v 13.216645 9.542439 0.000000
v 17.911097 9.822949 0.000000
v 8.872997 10.881107 2.000000
v 11.174195 11.068866 2.000000
v 9.418776 15.431939 2.000000
v 10.367045 15.653914 2.000000
v 8.791855 16.376143 0.000000
v 10.942232 16.782734 0.000000
v 8.415891 9.744051 0.000000
v 11.809576 10.020947 0.000000
v 16.493685 15.230059 0.000000
v -18.435581 5.358261 0.000000
v 17.062820 8.254633 0.000000
v -15.185931 -19.005491 0.000000
v -15.366132 2.520251 0.000000
v -17.256844 12.476299 0.000000
v -17.593697 -16.387753 0.000000
v -5.353926 -18.119925 0.000000
v -5.186006 -15.292032 0.000000
v -3.976205 3.449573 0.000000
v 15.507081 5.039246 0.000000
v -13.898416 2.638574 4.000000
v -5.341942 4.172132 4.000000
v -16.046770 5.205955 4.000000
v -16.000097 -14.000240 4.000000
v -6.659560 -14.060976 4.000000
v -13.880519 -16.319382 4.000000
v -7.823040 -16.078594 4.000000
v 15.461314 7.378394 4.000000
v 14.901475 13.478863 4.000000
v -14.897231 10.612904 4.000000
v 13.913108 5.447532 4.000000
v 5.610698 6.446628 2.000000
v 3.303757 6.540344 2.000000
v 4.044544 -0.843139 2.000000
v 4.751596 -1.355377 0.000000
v 2.678682 -3.094874 0.000000
v 6.233469 8.274591 0.000000
v 2.831311 8.412800 0.000000
v 3.220170 0.124124 2.000000
v 2.588714 0.412995 0.000000
v -5.636258 -1.839851 2.000000
v -6.243859 -1.856263 0.000000
v -6.293722 -4.477106 0.000000
v -5.670068 -3.616997 2.000000
v 2.324194 -1.098925 2.000000
v 1.716941 -1.106688 0.000000
v 1.715105 -3.489392 0.000000
v 2.296605 -2.391710 2.000000
v -0.246137 5.529500 2.000000
v -2.553078 5.623217 2.000000
v -0.337989 1.078929 2.000000
v -1.523616 1.000677 2.000000
v 0.169352 0.065442 0.000000
v -2.014525 -0.076404 0.000000
v 0.345963 6.602470 0.000000
v -3.056194 6.740679 0.000000
v -2.621649 6.131598 4.000000
v -1.579159 11.478393 4.000000
v -4.772928 13.494883 0.000000
v 17.018469 8.798220 0.000000
v 15.362424 8.455992 4.000000
v -2.437501 7.076067 4.000000
v -15.427168 6.018963 4.000000
v -17.810818 6.473519 0.000000
v 13.943572 10.541231 -2.000000
v 17.033972 11.032977 -2.000000
v 13.400986 12.905365 -2.000000
v 16.881197 13.163126 -2.000000
v 8.872997 10.881107 -2.000000
v 11.174195 11.068866 -2.000000
v 9.418776 15.431939 -2.000000
v 10.586062 15.653914 -2.000000
v -13.898416 2.638574 -4.000000
v -5.341942 4.172132 -4.000000
v -16.046770 5.205955 -4.000000
v -16.000097 -14.000240 -4.000000
v -6.659560 -14.060976 -4.000000
v -13.880519 -16.319382 -4.000000
v -7.823040 -16.078594 -4.000000
v 15.461314 7.378394 -4.000000
v 14.901475 13.478863 -4.000000
v -14.897231 10.612904 -4.000000
v 13.913108 5.447532 -4.000000
v 5.610698 6.446628 -2.000000
v 3.303757 6.540344 -2.000000
v 4.044544 -0.843139 -2.000000
v 3.220170 0.124124 -2.000000
v -5.636258 -1.839851 -2.000000
v -5.670068 -3.616997 -2.000000
v 2.324194 -1.098925 -2.000000
v 2.296605 -2.391710 -2.000000
v -0.246137 5.529500 -2.000000
v -2.553078 5.623217 -2.000000
v -0.337989 1.078929 -2.000000
v -1.523616 1.000677 -2.000000
v -2.621649 6.131598 -4.000000
v -1.579159 11.478393 -4.000000
v 15.362424 8.455992 -4.000000
v -2.437501 7.076067 -4.000000
v -15.427168 6.018963 -4.000000
v -0.493525 2.393992 2.000000
v -2.010480 2.366554 2.000000
v -2.504997 1.937921 0.000000
v -2.010480 2.366554 -2.000000
v -0.493525 2.393992 -2.000000
v 0.038860 1.997016 0.000000
vt 0.986663 0.920565
vt 0.984863 0.920320
vt 0.984819 0.917285
vt 0.986827 0.917320
vt 0.984421 0.916676
vt 0.987224 0.916567
vt 0.987141 0.921341
vt 0.984436 0.921348
vt 0.991683 0.921123
vt 0.989308 0.921123
vt 0.989527 0.916023
vt 0.990743 0.916162
vt 0.989068 0.914812
vt 0.991307 0.915066
vt 0.992247 0.922333
vt 0.988744 0.922333
vt 0.982395 0.896216
vt 0.985135 0.896421
vt 0.981855 0.897283
vt 0.984829 0.889441
vt 0.981751 0.889441
vt 0.982277 0.888452
vt 0.984733 0.888452
vt 0.978820 0.858181
vt 0.983331 0.858034
vt 0.988780 0.954179
vt 0.981074 0.954179
vt 0.989992 0.896426
vt 0.990428 0.897128
vt 0.981406 0.897418
vt 0.982003 0.896217
vt 0.981291 0.888916
vt 0.981873 0.887821
vt 0.984772 0.887821
vt 0.984878 0.888916
vt 0.985201 0.896217
vt 0.983419 0.858837
vt 0.989216 0.955651
vt 0.980691 0.955651
vt 0.979050 0.858840
vt 0.990406 0.896217
vt 0.990888 0.897418
vt 0.984763 0.889436
vt 0.985050 0.889008
vt 0.985885 0.891976
vt 0.984997 0.892093
vt 0.984452 0.888121
vt 0.985307 0.888771
vt 0.984327 0.888425
vt 0.984068 0.887990
vt 0.986183 0.892713
vt 0.984874 0.892885
vt 0.981627 0.888892
vt 0.981392 0.888905
vt 0.981291 0.887821
vt 0.981558 0.888156
vt 0.984528 0.889578
vt 0.984378 0.888960
vt 0.984144 0.888977
vt 0.983982 0.891760
vt 0.983095 0.891877
vt 0.982959 0.889960
vt 0.983419 0.889953
vt 0.982736 0.889530
vt 0.983583 0.889515
vt 0.984245 0.892185
vt 0.982936 0.892357
vt 0.985508 0.897217
vt 0.989966 0.858481
vt 0.984509 0.954179
vt 0.983844 0.955651
vt 0.989216 0.948827
vt 0.988780 0.948009
vt 0.984196 0.948180
vt 0.980745 0.948307
vt 0.980328 0.948827
vt 0.989966 0.858953
vt 0.989403 0.858775
vt 0.989407 0.857836
vt 0.978266 0.859400
vt 0.978026 0.858481
vt 0.986663 0.920565
vt 0.984863 0.920320
vt 0.984819 0.917285
vt 0.986827 0.917320
vt 0.984421 0.916676
vt 0.987224 0.916567
vt 0.987141 0.921341
vt 0.984436 0.921348
vt 0.991683 0.921123
vt 0.989308 0.921123
vt 0.989527 0.916023
vt 0.990743 0.916162
vt 0.989068 0.914812
vt 0.991307 0.915066
vt 0.992247 0.922333
vt 0.988744 0.922333
vt 0.982395 0.896216
vt 0.985135 0.896421
vt 0.981855 0.897283
vt 0.984829 0.889441
vt 0.981751 0.889441
vt 0.982277 0.888452
vt 0.984733 0.888452
vt 0.978820 0.858181
vt 0.983331 0.858034
vt 0.983419 0.858837
vt 0.979050 0.858840
vt 0.985508 0.897217
vt 0.981406 0.897418
vt 0.982003 0.896217
vt 0.981291 0.888916
vt 0.981873 0.887821
vt 0.984772 0.887821
vt 0.984878 0.888916
vt 0.985201 0.896217
vt 0.989966 0.858481
vt 0.989966 0.858953
vt 0.989403 0.858775
vt 0.989407 0.857836
vt 0.984509 0.954179
vt 0.983844 0.955651
vt 0.980691 0.955651
vt 0.981074 0.954179
vt 0.978266 0.859400
vt 0.978026 0.858481
vt 0.990406 0.896217
vt 0.989992 0.896426
vt 0.990888 0.897418
vt 0.990428 0.897128
vt 0.984763 0.889436
vt 0.985050 0.889008
vt 0.985885 0.891976
vt 0.984997 0.892093
vt 0.984452 0.888121
vt 0.985307 0.888771
vt 0.984327 0.888425
vt 0.984068 0.887990
vt 0.986183 0.892713
vt 0.984874 0.892885
vt 0.981627 0.888892
vt 0.981392 0.888905
vt 0.981291 0.887821
vt 0.981558 0.888156
vt 0.984528 0.889578
vt 0.984378 0.888960
vt 0.984144 0.888977
vt 0.983982 0.891760
vt 0.983095 0.891877
vt 0.982959 0.889960
vt 0.983419 0.889953
vt 0.982736 0.889530
vt 0.983583 0.889515
vt 0.984245 0.892185
vt 0.982936 0.892357
vt 0.989216 0.955651
vt 0.988780 0.954179
vt 0.988780 0.948009
vt 0.989216 0.948827
vt 0.984196 0.948180
vt 0.980745 0.948307
vt 0.980328 0.948827
vt 0.983586 0.890487
vt 0.982999 0.890527
vt 0.982795 0.890366
vt 0.982795 0.890366
vt 0.982999 0.890527
vt 0.983586 0.890487
vt 0.983779 0.890304
vt 0.983779 0.890304
vn 0.000000 0.000000 1.000000
vn 0.000000 0.000000 1.000000
vn 0.000000 0.000000 1.000000
vn 0.000000 0.000000 1.000000
vn -0.046755 0.921650 0.385194
vn -0.046755 0.921650 0.385194
vn -0.046755 0.921650 0.385194
vn -0.046755 0.921650 0.385194
vn 0.086379 -0.870752 0.484077
vn 0.086379 -0.870751 0.484077
vn 0.086378 -0.870751 0.484077
vn 0.086379 -0.870752 0.484077
vn 0.936842 0.085846 0.339055
vn 0.936842 0.085846 0.339055
vn 0.936842 0.085846 0.339055
vn 0.936842 0.085846 0.339055
vn 0.000000 0.000000 1.000000
vn 0.000000 0.000000 1.000000
vn 0.000000 0.000000 1.000000
vn 0.000000 0.000000 1.000000
vn -0.177066 0.872884 0.454667
vn -0.177066 0.872883 0.454667
vn -0.177066 0.872884 0.454667
vn -0.177066 0.872883 0.454667
vn 0.946949 0.139745 0.289413
vn 0.990253 0.136578 0.027304
vn 0.990159 0.136664 0.030139
vn 0.946949 0.139745 0.289413
vn -0.996620 0.082146 0.000000
vn -0.963098 0.079383 0.257179
vn -0.963098 0.079383 0.257179
vn -0.996620 0.082146 0.000000
vn -0.000000 0.000000 1.000000
vn -0.000000 0.000000 1.000000
vn 0.000000 0.000000 1.000000
vn -0.000000 0.000000 1.000000
vn -0.000000 0.000000 1.000000
vn 0.000000 0.000000 1.000000
vn 0.000000 0.000000 1.000000
vn -0.000000 0.000000 1.000000
vn -0.000000 0.000000 1.000000
vn -0.000000 0.000000 1.000000
vn -0.000000 0.000000 1.000000
vn 0.000000 0.000000 1.000000
vn 0.000000 0.000000 1.000000
vn -0.000000 0.000000 1.000000
vn 0.000000 0.000000 1.000000
vn 0.000000 0.000000 1.000000
vn -0.000000 0.000000 1.000000
vn 0.000000 0.000000 1.000000
vn -0.680375 -0.656763 0.325196
vn -0.680375 -0.656763 0.325196
vn -0.680375 -0.656763 0.325196
vn -0.680375 -0.656763 0.325196
vn -0.605000 -0.554813 0.571102
vn -0.605000 -0.554813 0.571102
vn -0.605000 -0.554813 0.571102
vn -0.605000 -0.554813 0.571102
vn 0.060640 -0.855446 0.514330
vn 0.060640 -0.855446 0.514330
vn 0.060640 -0.855446 0.514330
vn 0.060640 -0.855446 0.514330
vn 0.832813 -0.228832 0.504042
vn 0.832813 -0.228832 0.504042
vn 0.832813 -0.228832 0.504042
vn 0.832813 -0.228832 0.504042
vn 0.935453 -0.063943 0.347618
vn 0.935453 -0.063943 0.347618
vn 0.935453 -0.063943 0.347618
vn 0.935453 -0.063943 0.347618
vn -0.939257 0.114392 0.323589
vn -0.939257 0.114392 0.323589
vn -0.939257 0.114392 0.323589
vn -0.939257 0.114392 0.323589
vn 0.918726 0.081175 0.386463
vn 0.916578 0.079124 0.391949
vn 0.916609 0.079153 0.391871
vn 0.918726 0.081175 0.386463
vn -0.082627 0.890825 0.446770
vn -0.073914 0.885654 0.458425
vn -0.064234 0.879674 0.471219
vn -0.064234 0.879674 0.471219
vn -0.838382 0.148131 0.524569
vn -0.836632 0.159677 0.523975
vn -0.738589 0.476634 0.476767
vn -0.738589 0.476634 0.476767
vn 0.073758 -0.997276 0.000000
vn 0.073758 -0.997276 0.000000
vn 0.072736 -0.983452 0.165926
vn 0.072736 -0.983452 0.165926
vn 0.817479 -0.493061 0.297689
vn 0.817479 -0.493061 0.297689
vn 0.817479 -0.493061 0.297689
vn 0.817479 -0.493061 0.297689
vn 0.000000 0.000000 1.000000
vn 0.000000 0.000000 1.000000
vn 0.000000 0.000000 1.000000
vn 0.000000 0.000000 1.000000
vn 0.564517 -0.733423 0.378696
vn 0.564517 -0.733423 0.378696
vn 0.564517 -0.733423 0.378696
vn 0.301062 -0.862839 0.406042
vn 0.210276 -0.888726 0.407370
vn 0.950404 -0.171212 0.259650
vn 0.950404 -0.171212 0.259650
vn 0.950404 -0.171212 0.259650
vn 0.950404 -0.171212 0.259650
vn -0.960663 0.021736 0.276864
vn -0.960663 0.021736 0.276864
vn -0.960663 0.021736 0.276864
vn -0.960663 0.021736 0.276864
vn -0.273739 0.957756 0.088154
vn -0.203139 0.979150 -0.000000
vn -0.093209 0.995647 0.000000
vn -0.093186 0.995399 0.022286
vn 0.210276 -0.888726 0.407370
vn 0.301062 -0.862839 0.406042
vn 0.125433 -0.905493 0.405400
vn 0.125433 -0.905493 0.405400
vn 0.000000 0.000000 1.000000
vn 0.000000 0.000000 1.000000
vn 0.000000 0.000000 1.000000
vn 0.000000 0.000000 1.000000
vn -0.805454 0.519132 0.285914
vn -0.805454 0.519132 0.285914
vn -0.203139 0.979150 -0.000000
vn -0.273739 0.957756 0.088154
vn 0.000000 0.000000 1.000000
vn 0.000000 0.000000 1.000000
vn 0.000000 0.000000 1.000000
vn 0.000000 0.000000 1.000000
vn 0.000000 0.000000 1.000000
vn 0.000000 0.000000 1.000000
vn 0.000000 0.000000 1.000000
vn 0.000000 0.000000 1.000000
vn 0.057788 -0.884678 0.462607
vn 0.057788 -0.884678 0.462607
vn 0.057788 -0.884678 0.462607
vn 0.057788 -0.884678 0.462607
vn -0.954191 -0.167660 0.247809
vn -0.982801 -0.184667 0.000000
vn -0.960651 -0.277758 0.000000
vn -0.909180 -0.262876 0.322937
vn 0.999870 -0.016101 -0.000000
vn 0.967550 -0.031306 0.250734
vn 0.971221 0.085564 0.222280
vn 0.996142 0.087760 0.000000
vn 0.000000 0.000000 1.000000
vn -0.000000 0.000000 1.000000
vn 0.000000 0.000000 1.000000
vn 0.000000 0.000000 1.000000
vn -0.000000 0.000000 1.000000
vn -0.000000 0.000000 1.000000
vn 0.000000 0.000000 1.000000
vn 0.000000 0.000000 1.000000
vn -0.088494 0.894194 0.438846
vn -0.073914 0.885654 0.458425
vn -0.082627 0.890825 0.446770
vn -0.088494 0.894194 0.438846
vn 0.916609 0.079153 0.391871
vn 0.916578 0.079124 0.391949
vn 0.916290 0.078851 0.392677
vn 0.916290 0.078851 0.392677
vn -0.000000 0.000000 1.000000
vn -0.000000 0.000000 1.000000
vn -0.000000 0.000000 1.000000
vn -0.000000 0.000000 1.000000
vn 0.000000 0.000000 1.000000
vn -0.000000 0.000000 1.000000
vn -0.000000 0.000000 1.000000
vn 0.000000 0.000000 1.000000
vn -0.845751 0.086509 0.526518
vn -0.836632 0.159677 0.523975
vn -0.838382 0.148131 0.524569
vn -0.845751 0.086509 0.526518
vn 0.000000 0.000000 -1.000000
vn 0.000000 0.000000 -1.000000
vn 0.000000 0.000000 -1.000000
vn 0.000000 0.000000 -1.000000
vn -0.046755 0.921651 -0.385194
vn -0.046755 0.921650 -0.385194
vn -0.046755 0.921650 -0.385194
vn -0.046755 0.921651 -0.385194
vn 0.086379 -0.870752 -0.484077
vn 0.086379 -0.870752 -0.484077
vn 0.086378 -0.870751 -0.484077
vn 0.086379 -0.870751 -0.484077
vn 0.936841 0.085846 -0.339055
vn 0.936841 0.085846 -0.339055
vn 0.936841 0.085846 -0.339055
vn 0.936842 0.085846 -0.339055
vn 0.000000 0.000000 -1.000000
vn 0.000000 0.000000 -1.000000
vn 0.000000 0.000000 -1.000000
vn 0.000000 0.000000 -1.000000
vn -0.165033 0.871068 -0.462606
vn -0.165033 0.871068 -0.462606
vn -0.165033 0.871068 -0.462606
vn -0.165033 0.871068 -0.462606
vn 0.962609 0.123476 -0.241116
vn 0.962609 0.123476 -0.241116
vn 0.990159 0.136664 0.030139
vn 0.990253 0.136578 0.027304
vn -0.996620 0.082146 0.000000
vn -0.996620 0.082146 0.000000
vn -0.963098 0.079383 -0.257179
vn -0.963098 0.079383 -0.257179
vn -0.000000 0.000000 -1.000000
vn 0.000000 0.000000 -1.000000
vn -0.000000 0.000000 -1.000000
vn -0.000000 0.000000 -1.000000
vn 0.000000 0.000000 -1.000000
vn 0.000000 0.000000 -1.000000
vn -0.000000 0.000000 -1.000000
vn -0.000000 0.000000 -1.000000
vn -0.000000 0.000000 -1.000000
vn -0.000000 0.000000 -1.000000
vn -0.000000 0.000000 -1.000000
vn 0.000000 0.000000 -1.000000
vn 0.000000 0.000000 -1.000000
vn 0.000000 0.000000 -1.000000
vn 0.000000 0.000000 -1.000000
vn 0.000000 0.000000 -1.000000
vn 0.000000 0.000000 -1.000000
vn -0.000000 0.000000 -1.000000
vn -0.680375 -0.656763 -0.325196
vn -0.680375 -0.656763 -0.325196
vn -0.680375 -0.656763 -0.325196
vn -0.680375 -0.656763 -0.325196
vn -0.605000 -0.554813 -0.571102
vn -0.605000 -0.554813 -0.571102
vn -0.605000 -0.554813 -0.571102
vn -0.605000 -0.554813 -0.571102
vn 0.060640 -0.855446 -0.514330
vn 0.060640 -0.855446 -0.514329
vn 0.060640 -0.855446 -0.514329
vn 0.060640 -0.855446 -0.514330
vn 0.832813 -0.228832 -0.504042
vn 0.832813 -0.228832 -0.504042
vn 0.832813 -0.228832 -0.504042
vn 0.832813 -0.228832 -0.504042
vn 0.935453 -0.063943 -0.347618
vn 0.935453 -0.063943 -0.347618
vn 0.935453 -0.063943 -0.347618
vn 0.935453 -0.063943 -0.347618
vn -0.939257 0.114392 -0.323589
vn -0.939257 0.114392 -0.323589
vn -0.939257 0.114392 -0.323589
vn -0.939257 0.114392 -0.323589
vn 0.918726 0.081175 -0.386463
vn 0.918726 0.081175 -0.386463
vn 0.916609 0.079153 -0.391871
vn 0.916578 0.079124 -0.391949
vn -0.082627 0.890825 -0.446769
vn -0.064234 0.879674 -0.471219
vn -0.064234 0.879674 -0.471219
vn -0.073914 0.885654 -0.458425
vn -0.838382 0.148131 -0.524569
vn -0.738589 0.476634 -0.476767
vn -0.738589 0.476634 -0.476767
vn -0.836632 0.159677 -0.523975
vn 0.073758 -0.997276 0.000000
vn 0.072736 -0.983452 -0.165926
vn 0.072736 -0.983452 -0.165926
vn 0.073758 -0.997276 0.000000
vn 0.817480 -0.493061 -0.297689
vn 0.817480 -0.493061 -0.297689
vn 0.817479 -0.493061 -0.297689
vn 0.817479 -0.493061 -0.297689
vn 0.000000 0.000000 -1.000000
vn 0.000000 0.000000 -1.000000
vn 0.000000 0.000000 -1.000000
vn 0.000000 0.000000 -1.000000
vn 0.564517 -0.733423 -0.378696
vn 0.210276 -0.888726 -0.407370
vn 0.301062 -0.862839 -0.406042
vn 0.564517 -0.733423 -0.378696
vn 0.564517 -0.733423 -0.378696
vn 0.950404 -0.171212 -0.259650
vn 0.950404 -0.171212 -0.259650
vn 0.950404 -0.171212 -0.259650
vn 0.950404 -0.171212 -0.259650
vn -0.960663 0.021736 -0.276864
vn -0.960663 0.021736 -0.276864
vn -0.960663 0.021736 -0.276864
vn -0.960663 0.021736 -0.276864
vn -0.273739 0.957756 -0.088154
vn -0.093186 0.995399 -0.022286
vn -0.093209 0.995647 0.000000
vn -0.203139 0.979150 -0.000000
vn 0.210276 -0.888726 -0.407370
vn 0.125433 -0.905493 -0.405400
vn 0.125433 -0.905493 -0.405400
vn 0.301062 -0.862839 -0.406042
vn 0.000000 0.000000 -1.000000
vn 0.000000 0.000000 -1.000000
vn 0.000000 0.000000 -1.000000
vn 0.000000 0.000000 -1.000000
vn -0.805454 0.519132 -0.285914
vn -0.273739 0.957756 -0.088154
vn -0.203139 0.979150 -0.000000
vn -0.805454 0.519132 -0.285914
vn 0.000000 0.000000 -1.000000
vn 0.000000 0.000000 -1.000000
vn 0.000000 0.000000 -1.000000
vn 0.000000 0.000000 -1.000000
vn 0.000000 0.000000 -1.000000
vn 0.000000 0.000000 -1.000000
vn 0.000000 0.000000 -1.000000
vn 0.000000 0.000000 -1.000000
vn 0.057788 -0.884678 -0.462607
vn 0.057788 -0.884678 -0.462607
vn 0.057788 -0.884678 -0.462607
vn 0.057788 -0.884678 -0.462607
vn -0.982801 -0.184667 0.000000
vn -0.954191 -0.167660 -0.247809
vn -0.909180 -0.262876 -0.322936
vn -0.960651 -0.277758 0.000000
vn 0.967550 -0.031306 -0.250734
vn 0.999870 -0.016101 -0.000000
vn 0.996142 0.087760 0.000000
vn 0.971221 0.085564 -0.222280
vn 0.000000 0.000000 -1.000000
vn 0.000000 0.000000 -1.000000
vn 0.000000 0.000000 -1.000000
vn -0.000000 0.000000 -1.000000
vn 0.000000 0.000000 -1.000000
vn 0.000000 0.000000 -1.000000
vn 0.000000 0.000000 -1.000000
vn 0.000000 0.000000 -1.000000
vn -0.088494 0.894194 -0.438846
vn -0.088494 0.894194 -0.438846
vn -0.082627 0.890825 -0.446769
vn -0.073914 0.885654 -0.458425
vn 0.916609 0.079153 -0.391871
vn 0.916290 0.078851 -0.392677
vn 0.916290 0.078851 -0.392677
vn 0.916578 0.079124 -0.391949
vn 0.000000 0.000000 -1.000000
vn 0.000000 0.000000 -1.000000
vn 0.000000 0.000000 -1.000000
vn 0.000000 0.000000 -1.000000
vn 0.000000 0.000000 -1.000000
vn 0.000000 0.000000 -1.000000
vn 0.000000 0.000000 -1.000000
vn 0.000000 0.000000 -1.000000
vn -0.845751 0.086509 -0.526518
vn -0.845751 0.086509 -0.526518
vn -0.838382 0.148131 -0.524569
vn -0.836632 0.159677 -0.523975
vn 0.000000 0.000000 1.000000
vn 0.000000 0.000000 1.000000
vn 0.000000 0.000000 1.000000
vn 0.000000 0.000000 1.000000
vn -0.966957 -0.131232 0.218568
vn -0.990916 -0.134483 0.000000
vn -0.982801 -0.184667 0.000000
vn -0.954191 -0.167660 0.247809
vn -0.966957 -0.131232 -0.218568
vn -0.954191 -0.167660 -0.247809
vn -0.982801 -0.184667 0.000000
vn -0.990916 -0.134483 0.000000
vn 0.000000 0.000000 -1.000000
vn 0.000000 0.000000 -1.000000
vn 0.000000 0.000000 -1.000000
vn 0.000000 0.000000 -1.000000
vn 0.997444 -0.071448 -0.000000
vn 0.999870 -0.016101 -0.000000
vn 0.967550 -0.031306 -0.250734
vn 0.963366 -0.069007 -0.259161
vn 0.997444 -0.071448 -0.000000
vn 0.963366 -0.069007 0.259161
vn 0.967550 -0.031306 0.250734
vn 0.999870 -0.016101 -0.000000
s off
f 1/1/1 2/2/2 4/3/3 3/4/4
f 3/4/5 4/3/6 6/5/7 5/6/8
f 7/7/9 8/8/10 2/2/11 1/1/12
f 2/2/13 8/8/14 6/5/15 4/3/16
f 9/9/17 10/10/18 12/11/19 11/12/20
f 11/12/21 12/11/22 14/13/23 13/14/24
f 10/10/25 16/16/26 14/13/27 12/11/28
f 15/15/29 9/9/30 11/12/31 13/14/32
f 28/17/33 29/18/34 30/19/35
f 32/20/36 31/21/37 33/22/38 34/23/39
f 32/20/40 29/18/41 28/17/42 31/21/43
f 30/24/44 64/25/45 69/37/46 70/40/47
f 30/19/48 29/18/49 64/68/50
f 18/30/51 21/31/52 28/17/53 30/19/54
f 23/32/55 20/33/56 33/22/57 31/21/58
f 20/33/59 24/34/60 34/23/61 33/22/62
f 24/34/63 25/35/64 32/20/65 34/23/66
f 25/35/67 26/36/68 29/18/69 32/20/70
f 21/31/71 23/32/72 31/21/73 28/17/74
f 19/69/75 67/77/76 68/78/77 35/79/78
f 65/70/79 66/71/80 22/39/81 37/27/82
f 70/40/83 71/80/84 18/81/85 30/24/86
f 26/36/87 27/41/88 38/28/89 29/18/90
f 27/41/91 19/42/92 35/29/93 38/28/94
f 46/43/95 41/44/96 39/45/97 40/46/98
f 43/47/99 42/48/100 41/44/101 55/49/102 54/50/103
f 41/44/104 42/48/105 44/51/106 39/45/107
f 40/46/108 45/52/109 47/57/110 46/43/111
f 52/58/112 53/59/113 49/54/114 48/53/115
f 54/50/116 55/49/117 51/56/118 50/55/119
f 55/49/120 52/58/121 48/53/122 51/56/123
f 46/43/124 47/57/125 53/59/126 52/58/127
f 41/44/128 46/43/129 52/58/130 55/49/131
f 108/163/132 109/164/133 59/62/134 58/63/135
f 58/63/136 59/62/137 61/64/138 60/65/139
f 109/164/140 110/166/141 61/64/142 59/62/143
f 113/169/144 108/163/145 58/63/146 60/65/147
f 64/68/148 29/18/149 38/28/150 35/29/151
f 68/78/152 69/37/153 64/25/154 35/79/155
f 17/38/156 66/71/157 65/70/158 36/26/159
f 68/73/160 67/72/161 17/38/162 36/26/163
f 65/70/164 69/74/165 68/73/166 36/26/167
f 70/75/168 69/74/169 65/70/170 37/27/171
f 22/39/172 71/76/173 70/75/174 37/27/175
f 72/82/176 74/85/177 75/84/178 73/83/179
f 74/85/180 5/87/181 6/86/182 75/84/183
f 7/88/184 72/82/185 73/83/186 8/89/187
f 73/83/188 75/84/189 6/86/190 8/89/191
f 76/90/192 78/93/193 79/92/194 77/91/195
f 78/93/196 13/95/197 14/94/198 79/92/199
f 77/91/200 79/92/201 14/94/202 16/97/203
f 15/96/204 13/95/205 78/93/206 76/90/207
f 80/98/208 82/100/209 81/99/210
f 84/101/211 86/104/212 85/103/213 83/102/214
f 84/101/215 83/102/216 80/98/217 81/99/218
f 82/105/219 107/108/220 106/107/221 103/106/222
f 82/100/223 103/109/224 81/99/225
f 18/110/226 82/100/227 80/98/228 21/111/229
f 23/112/230 83/102/231 85/103/232 20/113/233
f 20/113/234 85/103/235 86/104/236 24/114/237
f 24/114/238 86/104/239 84/101/240 25/115/241
f 25/115/242 84/101/243 81/99/244 26/116/245
f 21/111/246 80/98/247 83/102/248 23/112/249
f 19/117/250 87/120/251 105/119/252 67/118/253
f 104/121/254 89/124/255 22/123/256 66/122/257
f 107/108/258 82/105/259 18/126/260 71/125/261
f 26/116/262 81/99/263 90/128/264 27/127/265
f 27/127/266 90/128/267 87/130/268 19/129/269
f 94/131/270 92/134/271 91/133/272 93/132/273
f 43/135/274 54/138/275 98/137/276 93/132/277 42/136/278
f 93/132/279 91/133/280 44/139/281 42/136/282
f 92/134/283 94/131/284 47/145/285 45/140/286
f 97/146/287 95/141/288 49/142/289 53/147/290
f 54/138/291 50/143/292 96/144/293 98/137/294
f 98/137/295 96/144/296 95/141/297 97/146/298
f 94/131/299 97/146/300 53/147/301 47/145/302
f 93/132/303 98/137/304 97/146/305 94/131/306
f 111/167/307 112/168/308 101/151/309 102/150/310
f 101/151/311 60/153/312 61/152/313 102/150/314
f 110/165/315 111/167/316 102/150/317 61/152/318
f 112/168/319 113/170/320 60/153/321 101/151/322
f 103/109/323 87/130/324 90/128/325 81/99/326
f 105/119/327 87/120/328 103/106/329 106/107/330
f 17/156/331 88/157/332 104/121/333 66/122/334
f 105/158/335 88/157/336 17/156/337 67/159/338
f 104/121/339 88/157/340 105/158/341 106/160/342
f 107/161/343 89/124/344 104/121/345 106/160/346
f 22/123/347 89/124/348 107/161/349 71/162/350
f 56/60/351 57/61/352 109/164/353 108/163/354
f 57/61/355 63/67/356 110/166/357 109/164/358
f 100/149/359 111/167/360 110/165/361 63/155/362
f 99/148/363 112/168/364 111/167/365 100/149/366
f 62/154/367 113/170/368 112/168/369 99/148/370
f 62/66/371 56/60/372 108/163/373 113/169/374
