# This file uses centimeters as units for non-parametric coordinates.

v -21.874472 12.741175 -5.719803
v -12.815037 22.314337 -5.719803
v 0.121072 26.583025 -5.719803
v 12.643410 23.298689 -5.719803
v 22.801670 13.641769 -5.719803
v 25.861965 0.218377 -5.719803
v 21.930254 -13.346080 -5.719803
v 13.319065 -23.295389 -5.719803
v 0.055179 -26.845127 -5.719803
v -13.078390 -22.899601 -5.719803
v -22.861071 -13.123629 -5.719803
v -26.583342 0.405562 -5.719803
v 23.067652 13.285230 0.903378
v 13.639165 22.991528 0.903378
v -0.421853 26.013363 0.903378
v -12.959364 22.239685 0.903378
v -23.030148 13.665199 0.903378
v -26.721399 0.261577 0.903378
v -22.679867 -12.432053 0.903378
v -13.561156 -22.897253 0.903378
v -0.404842 -26.538294 0.903378
v 12.994184 -23.239090 0.903378
v 22.848753 -12.990357 0.903378
v 26.784813 0.090770 0.903378
v 24.124819 13.928473 -0.687019
v 24.124819 13.928473 -4.209885
v 27.856947 0.000000 -4.387005
v 27.856947 0.000000 -0.310436
v 24.124819 -13.928473 -4.953873
v 24.124819 -13.928473 -0.452385
v 13.928473 -24.124819 -4.368687
v 13.928473 -24.124819 -0.416851
v 0.000000 -27.856947 -4.894516
v 0.000000 -27.856947 -0.637486
v -13.928473 -24.124819 -4.508373
v -13.928473 -24.124819 0.021645
v -24.124819 -13.928473 -4.972088
v -24.124819 -13.928473 -0.222576
v -27.856947 0.000000 -4.913208
v -27.856947 0.000000 -0.761219
v -24.124819 13.928473 -4.519104
v -24.124819 13.928473 -0.499886
v -13.928473 24.124819 -4.799400
v -13.928473 24.124819 -0.162571
v 0.000000 27.856947 -4.226669
v 0.000000 27.856947 -0.206844
v 13.928473 24.124819 -4.459209
v 13.928473 24.124819 -0.215458
v -19.752499 11.577696 0.903378
v -22.847790 0.338114 0.903378
v -19.374084 -10.572084 0.903378
v -11.494339 -19.615372 0.903378
v -0.350000 -22.699594 0.903378
v 11.062095 -19.889629 0.903378
v 19.550236 -11.061971 0.903378
v 22.916338 0.124957 0.903378
v 19.747730 11.372264 0.903378
v 11.758826 19.596563 0.903378
v -0.267179 22.181059 0.903378
v -11.143866 18.907272 0.903378
v -18.728235 10.925351 0.000000
v -21.637283 0.362032 0.000000
v -18.341024 -9.990843 0.000000
v -10.848460 -18.589785 0.000000
v -0.332864 -21.500000 0.000000
v 10.458319 -18.842922 0.000000
v 18.519449 -10.459349 0.000000
v 21.707439 0.135641 0.000000
v 18.710258 10.774463 0.000000
v 11.171221 18.535637 0.000000
v -0.218846 20.983463 0.000000
v -10.576521 17.865894 0.000000
v -18.679470 10.739342 -5.719803
v -10.781917 19.084732 -5.719803
v 0.228305 22.717913 -5.719803
v 10.778999 19.950697 -5.719803
v 19.436649 11.720327 -5.719803
v 22.036194 0.317936 -5.719803
v 18.603001 -11.526625 -5.719803
v 11.266397 -20.003284 -5.719803
v 0.105618 -22.990177 -5.719803
v -11.125738 -19.616110 -5.719803
v -19.549931 -11.197694 -5.719803
v -22.692837 0.225704 -5.719803
v -17.786921 10.178208 -4.719803
v -10.210202 18.184572 -4.719803
v 0.261850 21.640163 -4.719803
v 10.259383 19.018032 -4.719803
v 18.497942 11.186068 -4.719803
v 20.968628 0.348889 -4.719803
v 17.672958 -11.021223 -4.719803
v 10.692370 -19.086546 -4.719803
v 0.121924 -21.915447 -4.719803
v -10.578970 -18.700741 -4.719803
v -18.625559 -10.659667 -4.719803
v -21.606049 0.173405 -4.719803
vt 0.012850 0.952101
vt 0.012727 0.951910
vt 0.012568 0.951837
vt 0.012434 0.951900
vt 0.012340 0.952056
vt 0.012315 0.952260
vt 0.012351 0.952472
vt 0.012431 0.952649
vt 0.012565 0.952755
vt 0.012719 0.952746
vt 0.012854 0.952609
vt 0.012915 0.952357
vt 0.012215 0.952054
vt 0.012305 0.952052
vt 0.012402 0.951886
vt 0.012297 0.951884
vt 0.012182 0.952271
vt 0.012278 0.952262
vt 0.012219 0.952493
vt 0.012321 0.952477
vt 0.012310 0.952685
vt 0.012405 0.952664
vt 0.012451 0.952803
vt 0.012554 0.952775
vt 0.012601 0.952807
vt 0.012711 0.952777
vt 0.012743 0.952660
vt 0.012860 0.952632
vt 0.012813 0.952386
vt 0.012921 0.952370
vt 0.012756 0.952085
vt 0.012864 0.952080
vt 0.012609 0.951871
vt 0.012727 0.951874
vt 0.012441 0.951807
vt 0.012546 0.951812
vt 0.012199 0.952066
vt 0.012172 0.952273
vt 0.012208 0.952485
vt 0.012297 0.952678
vt 0.012430 0.952789
vt 0.012581 0.952787
vt 0.012704 0.952628
vt 0.012766 0.952382
vt 0.012715 0.952090
vt 0.012577 0.951909
vt 0.012426 0.951841
vt 0.012281 0.951903
vt 0.012709 0.952370
vt 0.012668 0.952131
vt 0.012658 0.952578
vt 0.012556 0.952717
vt 0.012429 0.952723
vt 0.012314 0.952631
vt 0.012236 0.952464
vt 0.012204 0.952279
vt 0.012228 0.952100
vt 0.012300 0.951963
vt 0.012425 0.951914
vt 0.012554 0.951977
vt 0.012708 0.952364
vt 0.012669 0.952142
vt 0.012660 0.952559
vt 0.012564 0.952691
vt 0.012444 0.952698
vt 0.012335 0.952613
vt 0.012259 0.952454
vt 0.012228 0.952279
vt 0.012252 0.952110
vt 0.012321 0.951981
vt 0.012440 0.951937
vt 0.012563 0.951997
vt 0.012850 0.952101
vt 0.012727 0.951910
vt 0.012568 0.951837
vt 0.012434 0.951900
vt 0.012340 0.952056
vt 0.012315 0.952260
vt 0.012351 0.952472
vt 0.012431 0.952649
vt 0.012565 0.952755
vt 0.012719 0.952746
vt 0.012854 0.952609
vt 0.012915 0.952357
vt 0.012850 0.952101
vt 0.012727 0.951910
vt 0.012568 0.951837
vt 0.012434 0.951900
vt 0.012340 0.952056
vt 0.012315 0.952260
vt 0.012351 0.952472
vt 0.012431 0.952649
vt 0.012565 0.952755
vt 0.012719 0.952746
vt 0.012854 0.952609
vt 0.012915 0.952357
vn 0.707107 0.707107 0.000000
vn 0.707107 0.707107 0.000000
vn 0.707107 0.707107 0.000000
vn 0.707107 0.707107 0.000000
vn 0.965926 0.258819 0.000000
vn 0.965926 0.258819 0.000000
vn 0.965926 0.258819 0.000000
vn 0.965926 0.258819 0.000000
vn 0.965926 -0.258819 0.000000
vn 0.965926 -0.258819 0.000000
vn 0.965926 -0.258819 0.000000
vn 0.965926 -0.258819 0.000000
vn 0.707107 -0.707107 0.000000
vn 0.707107 -0.707107 0.000000
vn 0.707107 -0.707107 0.000000
vn 0.707107 -0.707107 0.000000
vn 0.258819 -0.965926 0.000000
vn 0.258819 -0.965926 0.000000
vn 0.258819 -0.965926 0.000000
vn 0.258819 -0.965926 0.000000
vn -0.258819 -0.965926 0.000000
vn -0.258819 -0.965926 0.000000
vn -0.258819 -0.965926 0.000000
vn -0.258819 -0.965926 0.000000
vn -0.707107 -0.707107 0.000000
vn -0.707107 -0.707107 0.000000
vn -0.707107 -0.707107 0.000000
vn -0.707107 -0.707107 0.000000
vn -0.965926 -0.258819 0.000000
vn -0.965926 -0.258819 0.000000
vn -0.965926 -0.258819 0.000000
vn -0.965926 -0.258819 0.000000
vn -0.965926 0.258819 0.000000
vn -0.965926 0.258819 0.000000
vn -0.965926 0.258819 0.000000
vn -0.965926 0.258819 0.000000
vn -0.707107 0.707107 0.000000
vn -0.707107 0.707107 0.000000
vn -0.707107 0.707107 0.000000
vn -0.707107 0.707107 0.000000
vn -0.258819 0.965926 0.000000
vn -0.258819 0.965926 0.000000
vn -0.258819 0.965926 0.000000
vn -0.258819 0.965926 0.000000
vn 0.258819 0.965926 0.000000
vn 0.258819 0.965926 0.000000
vn 0.258819 0.965926 0.000000
vn 0.258819 0.965926 0.000000
vn 0.510999 0.515263 -0.688029
vn 0.510999 0.515262 -0.688029
vn 0.510999 0.515263 -0.688029
vn 0.510999 0.515262 -0.688029
vn 0.190640 0.740053 -0.644964
vn 0.190640 0.740053 -0.644964
vn 0.190640 0.740053 -0.644964
vn 0.190640 0.740053 -0.644964
vn -0.152673 0.570406 -0.807049
vn -0.152673 0.570406 -0.807049
vn -0.152673 0.570406 -0.807049
vn -0.152673 0.570406 -0.807049
vn -0.311515 0.290592 -0.904718
vn -0.311515 0.290592 -0.904718
vn -0.107339 0.100130 -0.989168
vn -0.106048 0.098926 -0.989428
vn -0.461205 0.161319 -0.872505
vn -0.461205 0.161319 -0.872506
vn -0.461205 0.161319 -0.872505
vn -0.461205 0.161319 -0.872505
vn -0.473506 -0.126682 -0.871633
vn -0.473506 -0.126682 -0.871633
vn -0.473506 -0.126682 -0.871633
vn -0.473506 -0.126682 -0.871633
vn -0.383409 -0.402834 -0.831097
vn -0.383409 -0.402834 -0.831097
vn -0.383409 -0.402834 -0.831097
vn -0.383409 -0.402834 -0.831097
vn -0.186519 -0.619072 -0.762864
vn -0.186519 -0.619072 -0.762864
vn -0.186519 -0.619072 -0.762864
vn -0.186519 -0.619072 -0.762864
vn 0.205783 -0.720639 -0.662068
vn 0.205783 -0.720639 -0.662068
vn 0.205783 -0.720639 -0.662068
vn 0.205783 -0.720639 -0.662068
vn 0.410828 -0.407234 -0.815709
vn 0.410828 -0.407234 -0.815709
vn 0.410828 -0.407234 -0.815709
vn 0.410828 -0.407234 -0.815709
vn 0.430024 -0.101375 -0.897108
vn 0.430024 -0.101375 -0.897108
vn 0.127926 -0.030158 -0.991325
vn 0.138072 -0.032549 -0.989887
vn 0.639877 0.163766 -0.750825
vn 0.639877 0.163766 -0.750825
vn 0.639877 0.163766 -0.750825
vn 0.639877 0.163766 -0.750825
vn 0.756558 0.216356 0.617098
vn 0.756558 0.216356 0.617098
vn 0.756558 0.216356 0.617098
vn 0.756558 0.216356 0.617098
vn 0.682952 -0.197590 0.703231
vn 0.682952 -0.197590 0.703231
vn 0.682952 -0.197590 0.703231
vn 0.682952 -0.197590 0.703231
vn 0.488840 -0.478148 0.729665
vn 0.488840 -0.478148 0.729665
vn 0.488840 -0.478147 0.729665
vn 0.488840 -0.478148 0.729665
vn 0.183886 -0.735154 0.652483
vn 0.183886 -0.735154 0.652483
vn 0.183886 -0.735154 0.652483
vn 0.183886 -0.735154 0.652483
vn -0.167982 -0.680805 0.712943
vn -0.167982 -0.680805 0.712943
vn -0.167982 -0.680805 0.712943
vn -0.167982 -0.680805 0.712943
vn -0.395500 -0.359736 0.845086
vn -0.395499 -0.359736 0.845086
vn -0.395499 -0.359736 0.845086
vn -0.395499 -0.359736 0.845086
vn -0.663540 -0.179057 0.726397
vn -0.663540 -0.179057 0.726397
vn -0.663540 -0.179057 0.726397
vn -0.663540 -0.179057 0.726397
vn -0.790884 0.209305 0.575059
vn -0.790884 0.209305 0.575059
vn -0.790885 0.209305 0.575059
vn -0.790884 0.209305 0.575059
vn -0.440476 0.461753 0.769913
vn -0.440476 0.461753 0.769913
vn -0.440476 0.461753 0.769913
vn -0.440476 0.461753 0.769913
vn -0.135937 0.484421 0.864209
vn -0.135937 0.484421 0.864209
vn -0.135937 0.484421 0.864209
vn -0.135937 0.484421 0.864209
vn 0.138330 0.572232 0.808341
vn 0.138330 0.572232 0.808341
vn 0.138330 0.572232 0.808341
vn 0.138330 0.572232 0.808341
vn 0.560031 0.537271 0.630639
vn 0.560030 0.537271 0.630639
vn 0.560030 0.537271 0.630639
vn 0.560030 0.537271 0.630639
vn -0.000000 0.000000 1.000000
vn -0.000000 0.000000 1.000000
vn -0.000000 0.000000 1.000000
vn -0.000000 0.000000 1.000000
vn -0.000000 0.000000 1.000000
vn -0.000000 0.000000 1.000000
vn -0.000000 0.000000 1.000000
vn -0.000000 0.000000 1.000000
vn 0.000000 0.000000 1.000000
vn 0.000000 0.000000 1.000000
vn 0.000000 0.000000 1.000000
vn 0.000000 0.000000 1.000000
vn 0.000000 0.000000 1.000000
vn 0.000000 0.000000 1.000000
vn 0.000000 0.000000 1.000000
vn 0.000000 0.000000 1.000000
vn -0.000000 0.000000 1.000000
vn -0.000000 0.000000 1.000000
vn -0.000000 0.000000 1.000000
vn -0.000000 0.000000 1.000000
vn 0.000000 0.000000 1.000000
vn 0.000000 0.000000 1.000000
vn 0.000000 0.000000 1.000000
vn 0.000000 0.000000 1.000000
vn -0.000000 0.000000 1.000000
vn -0.000000 0.000000 1.000000
vn -0.000000 0.000000 1.000000
vn -0.000000 0.000000 1.000000
vn 0.000000 0.000000 1.000000
vn 0.000000 0.000000 1.000000
vn 0.000000 0.000000 1.000000
vn 0.000000 0.000000 1.000000
vn 0.000000 0.000000 1.000000
vn 0.000000 0.000000 1.000000
vn 0.000000 0.000000 1.000000
vn 0.000000 0.000000 1.000000
vn 0.000000 0.000000 1.000000
vn 0.000000 0.000000 1.000000
vn 0.000000 0.000000 1.000000
vn 0.000000 0.000000 1.000000
vn -0.000000 0.000000 1.000000
vn -0.000000 0.000000 1.000000
vn -0.000000 0.000000 1.000000
vn -0.000000 0.000000 1.000000
vn 0.000000 0.000000 1.000000
vn 0.000000 0.000000 1.000000
vn 0.000000 0.000000 1.000000
vn 0.000000 0.000000 1.000000
vn 0.592153 -0.163074 0.789153
vn 0.592153 -0.163074 0.789153
vn 0.592153 -0.163074 0.789153
vn 0.592153 -0.163074 0.789153
vn 0.585248 0.186338 0.789153
vn 0.585248 0.186338 0.789153
vn 0.585248 0.186338 0.789153
vn 0.585248 0.186338 0.789153
vn 0.463070 0.403490 0.789153
vn 0.463070 0.403490 0.789153
vn 0.463070 0.403490 0.789153
vn 0.463070 0.403490 0.789153
vn 0.163822 0.591946 0.789153
vn 0.163822 0.591946 0.789153
vn 0.163822 0.591946 0.789153
vn 0.163822 0.591946 0.789153
vn -0.146846 0.596384 0.789153
vn -0.146846 0.596384 0.789153
vn -0.146846 0.596384 0.789153
vn -0.146846 0.596384 0.789153
vn -0.442734 0.425706 0.789152
vn -0.442734 0.425706 0.789152
vn -0.442734 0.425706 0.789152
vn -0.442734 0.425706 0.789152
vn -0.588149 0.176972 0.789153
vn -0.588149 0.176972 0.789153
vn -0.588149 0.176972 0.789153
vn -0.588149 0.176972 0.789153
vn -0.591185 -0.166549 0.789152
vn -0.591185 -0.166549 0.789152
vn -0.591185 -0.166549 0.789152
vn -0.591185 -0.166549 0.789152
vn -0.440563 -0.427953 0.789152
vn -0.440563 -0.427953 0.789152
vn -0.440563 -0.427953 0.789152
vn -0.440563 -0.427953 0.789152
vn -0.129050 -0.600487 0.789153
vn -0.129050 -0.600487 0.789153
vn -0.129050 -0.600487 0.789153
vn -0.129050 -0.600487 0.789153
vn 0.177023 -0.588134 0.789153
vn 0.177023 -0.588134 0.789153
vn 0.177023 -0.588134 0.789153
vn 0.177023 -0.588134 0.789153
vn 0.398170 -0.467653 0.789152
vn 0.398170 -0.467653 0.789152
vn 0.398170 -0.467653 0.789152
vn 0.398170 -0.467653 0.789152
vn -0.106048 0.098926 -0.989428
vn -0.107339 0.100130 -0.989168
vn 0.000000 0.000000 -1.000000
vn 0.000000 0.000000 -1.000000
vn -0.107339 0.100130 -0.989168
vn 0.000000 0.000000 -1.000000
vn 0.000000 0.000000 -1.000000
vn 0.000000 0.000000 -1.000000
vn 0.000000 0.000000 -1.000000
vn 0.000000 0.000000 -1.000000
vn 0.000000 0.000000 -1.000000
vn 0.000000 0.000000 -1.000000
vn 0.000000 0.000000 -1.000000
vn -0.000000 0.000000 -1.000000
vn -0.000000 0.000000 -1.000000
vn 0.000000 0.000000 -1.000000
vn -0.000000 0.000000 -1.000000
vn 0.138072 -0.032549 -0.989887
vn -0.000000 0.000000 -1.000000
vn -0.000000 0.000000 -1.000000
vn 0.138072 -0.032549 -0.989887
vn 0.127926 -0.030158 -0.991325
vn 0.000000 0.000000 -1.000000
vn -0.000000 0.000000 -1.000000
vn 0.127926 -0.030158 -0.991325
vn 0.000000 0.000000 -1.000000
vn 0.000000 0.000000 -1.000000
vn 0.000000 0.000000 -1.000000
vn 0.000000 0.000000 -1.000000
vn 0.000000 0.000000 -1.000000
vn 0.000000 0.000000 -1.000000
vn 0.000000 0.000000 -1.000000
vn 0.000000 0.000000 -1.000000
vn 0.000000 0.000000 -1.000000
vn 0.000000 0.000000 -1.000000
vn 0.000000 0.000000 -1.000000
vn 0.000000 0.000000 -1.000000
vn -0.000000 0.000000 -1.000000
vn -0.000000 0.000000 -1.000000
vn 0.000000 0.000000 -1.000000
vn -0.000000 0.000000 -1.000000
vn -0.000000 0.000000 -1.000000
vn -0.000000 0.000000 -1.000000
vn -0.000000 0.000000 -1.000000
vn -0.000000 0.000000 -1.000000
vn -0.106048 0.098926 -0.989428
vn 0.000000 0.000000 -1.000000
vn -0.000000 0.000000 -1.000000
vn 0.581706 -0.367714 -0.725538
vn 0.366386 -0.577647 -0.729442
vn 0.366385 -0.577647 -0.729442
vn 0.581706 -0.367714 -0.725538
vn 0.366386 -0.577647 -0.729442
vn 0.027472 -0.679455 -0.733202
vn 0.027472 -0.679455 -0.733202
vn 0.366385 -0.577647 -0.729442
vn 0.027472 -0.679455 -0.733202
vn -0.339832 -0.593185 -0.729826
vn -0.339832 -0.593185 -0.729826
vn 0.027472 -0.679455 -0.733202
vn -0.339832 -0.593185 -0.729826
vn -0.589337 -0.337989 -0.733789
vn -0.589337 -0.337989 -0.733789
vn -0.339832 -0.593185 -0.729826
vn -0.589337 -0.337989 -0.733789
vn -0.683037 0.024924 -0.729958
vn -0.683037 0.024924 -0.729958
vn -0.589337 -0.337989 -0.733789
vn -0.683037 0.024924 -0.729958
vn -0.606958 0.321307 -0.726886
vn -0.606958 0.321307 -0.726886
vn -0.683037 0.024924 -0.729958
vn -0.606958 0.321307 -0.726886
vn -0.357808 0.576909 -0.734268
vn -0.357808 0.576909 -0.734268
vn -0.606958 0.321307 -0.726886
vn -0.357808 0.576909 -0.734268
vn 0.012057 0.681048 -0.732139
vn 0.012057 0.681048 -0.732139
vn -0.357808 0.576909 -0.734268
vn 0.012057 0.681048 -0.732139
vn 0.352034 0.586558 -0.729398
vn 0.352034 0.586558 -0.729398
vn 0.012057 0.681048 -0.732139
vn 0.352034 0.586558 -0.729398
vn 0.589860 0.344235 -0.730457
vn 0.589860 0.344235 -0.730457
vn 0.352034 0.586558 -0.729398
vn 0.589860 0.344235 -0.730457
vn 0.676162 -0.027016 -0.736257
vn 0.676162 -0.027017 -0.736257
vn 0.589860 0.344235 -0.730457
vn 0.676162 -0.027016 -0.736257
vn 0.581706 -0.367714 -0.725538
vn 0.581706 -0.367714 -0.725538
vn 0.676162 -0.027017 -0.736257
vn 0.957535 0.283688 -0.051463
vn 0.957535 0.283688 -0.051463
vn 0.957535 0.283688 -0.051463
vn 0.957535 0.283688 -0.051463
vn 0.729662 0.681390 -0.057451
vn 0.729662 0.681390 -0.057451
vn 0.729662 0.681390 -0.057451
vn 0.729662 0.681390 -0.057451
vn 0.277216 0.960265 -0.032280
vn 0.277216 0.960265 -0.032280
vn 0.277216 0.960265 -0.032280
vn 0.277216 0.960265 -0.032280
vn -0.247833 0.965026 -0.085463
vn -0.247833 0.965026 -0.085463
vn -0.247833 0.965026 -0.085463
vn -0.247833 0.965026 -0.085463
vn -0.737933 0.674804 -0.009705
vn -0.737933 0.674804 -0.009705
vn -0.737933 0.674804 -0.009705
vn -0.737933 0.674804 -0.009705
vn -0.948392 0.279947 0.148935
vn -0.948392 0.279947 0.148935
vn -0.948392 0.279947 0.148935
vn -0.948392 0.279947 0.148935
vn -0.965896 -0.245921 0.081044
vn -0.965896 -0.245921 0.081044
vn -0.965896 -0.245921 0.081044
vn -0.965896 -0.245921 0.081044
vn -0.702843 -0.711157 0.016349
vn -0.702843 -0.711157 0.016349
vn -0.702843 -0.711157 0.016349
vn -0.702843 -0.711157 0.016349
vn -0.229353 -0.967524 -0.106278
vn -0.229353 -0.967524 -0.106278
vn -0.229353 -0.967524 -0.106278
vn -0.229353 -0.967524 -0.106278
vn 0.300171 -0.951213 -0.071353
vn 0.300171 -0.951213 -0.071353
vn 0.300171 -0.951213 -0.071353
vn 0.300171 -0.951213 -0.071353
vn 0.683265 -0.718991 0.127285
vn 0.683265 -0.718991 0.127285
vn 0.683265 -0.718991 0.127285
vn 0.683265 -0.718991 0.127285
vn 0.942661 -0.308360 0.127690
vn 0.942661 -0.308360 0.127690
vn 0.942661 -0.308360 0.127689
vn 0.942661 -0.308360 0.127690
s off
f 25/13/1 26/14/2 47/15/3 48/16/4
f 26/14/5 25/13/6 28/17/7 27/18/8
f 27/18/9 28/17/10 30/19/11 29/20/12
f 29/20/13 30/19/14 32/21/15 31/22/16
f 31/22/17 32/21/18 34/23/19 33/24/20
f 33/24/21 34/23/22 36/25/23 35/26/24
f 35/26/25 36/25/26 38/27/27 37/28/28
f 37/28/29 38/27/30 40/29/31 39/30/32
f 39/30/33 40/29/34 42/31/35 41/32/36
f 41/32/37 42/31/38 44/33/39 43/34/40
f 43/34/41 44/33/42 46/35/43 45/36/44
f 45/36/45 46/35/46 48/16/47 47/15/48
f 47/15/49 26/14/50 5/5/51 4/4/52
f 45/36/53 47/15/54 4/4/55 3/3/56
f 43/34/57 45/36/58 3/3/59 2/2/60
f 41/32/61 43/34/62 2/2/63 1/1/64
f 39/30/65 41/32/66 1/1/67 12/12/68
f 37/28/69 39/30/70 12/12/71 11/11/72
f 35/26/73 37/28/74 11/11/75 10/10/76
f 33/24/77 35/26/78 10/10/79 9/9/80
f 31/22/81 33/24/82 9/9/83 8/8/84
f 29/20/85 31/22/86 8/8/87 7/7/88
f 27/18/89 29/20/90 7/7/91 6/6/92
f 26/14/93 27/18/94 6/6/95 5/5/96
f 13/37/97 24/38/98 28/17/99 25/13/100
f 24/38/101 23/39/102 30/19/103 28/17/104
f 23/39/105 22/40/106 32/21/107 30/19/108
f 22/40/109 21/41/110 34/23/111 32/21/112
f 21/41/113 20/42/114 36/25/115 34/23/116
f 20/42/117 19/43/118 38/27/119 36/25/120
f 19/43/121 18/44/122 40/29/123 38/27/124
f 18/44/125 17/45/126 42/31/127 40/29/128
f 17/45/129 16/46/130 44/33/131 42/31/132
f 16/46/133 15/47/134 46/35/135 44/33/136
f 15/47/137 14/48/138 48/16/139 46/35/140
f 14/48/141 13/37/142 25/13/143 48/16/144
f 17/45/145 18/44/146 50/49/147 49/50/148
f 18/44/149 19/43/150 51/51/151 50/49/152
f 19/43/153 20/42/154 52/52/155 51/51/156
f 20/42/157 21/41/158 53/53/159 52/52/160
f 21/41/161 22/40/162 54/54/163 53/53/164
f 22/40/165 23/39/166 55/55/167 54/54/168
f 23/39/169 24/38/170 56/56/171 55/55/172
f 24/38/173 13/37/174 57/57/175 56/56/176
f 13/37/177 14/48/178 58/58/179 57/57/180
f 14/48/181 15/47/182 59/59/183 58/58/184
f 15/47/185 16/46/186 60/60/187 59/59/188
f 16/46/189 17/45/190 49/50/191 60/60/192
f 49/50/193 50/49/194 62/61/195 61/62/196
f 50/49/197 51/51/198 63/63/199 62/61/200
f 51/51/201 52/52/202 64/64/203 63/63/204
f 52/52/205 53/53/206 65/65/207 64/64/208
f 53/53/209 54/54/210 66/66/211 65/65/212
f 54/54/213 55/55/214 67/67/215 66/66/216
f 55/55/217 56/56/218 68/68/219 67/67/220
f 56/56/221 57/57/222 69/69/223 68/68/224
f 57/57/225 58/58/226 70/70/227 69/69/228
f 58/58/229 59/59/230 71/71/231 70/70/232
f 59/59/233 60/60/234 72/72/235 71/71/236
f 60/60/237 49/50/238 61/62/239 72/72/240
f 1/1/241 2/2/242 74/74/243 73/73/244
f 2/2/245 3/3/246 75/75/247 74/74/248
f 3/3/249 4/4/250 76/76/251 75/75/252
f 4/4/253 5/5/254 77/77/255 76/76/256
f 5/5/257 6/6/258 78/78/259 77/77/260
f 6/6/261 7/7/262 79/79/263 78/78/264
f 7/7/265 8/8/266 80/80/267 79/79/268
f 8/8/269 9/9/270 81/81/271 80/80/272
f 9/9/273 10/10/274 82/82/275 81/81/276
f 10/10/277 11/11/278 83/83/279 82/82/280
f 11/11/281 12/12/282 84/84/283 83/83/284
f 12/12/285 1/1/286 73/73/287 84/84/288
f 73/73/289 74/74/290 86/86/291 85/85/292
f 74/74/293 75/75/294 87/87/295 86/86/296
f 75/75/297 76/76/298 88/88/299 87/87/300
f 76/76/301 77/77/302 89/89/303 88/88/304
f 77/77/305 78/78/306 90/90/307 89/89/308
f 78/78/309 79/79/310 91/91/311 90/90/312
f 79/79/313 80/80/314 92/92/315 91/91/316
f 80/80/317 81/81/318 93/93/319 92/92/320
f 81/81/321 82/82/322 94/94/323 93/93/324
f 82/82/325 83/83/326 95/95/327 94/94/328
f 83/83/329 84/84/330 96/96/331 95/95/332
f 84/84/333 73/73/334 85/85/335 96/96/336
f 62/61/337 63/63/338 95/95/339 96/96/340
f 63/63/341 64/64/342 94/94/343 95/95/344
f 64/64/345 65/65/346 93/93/347 94/94/348
f 65/65/349 66/66/350 92/92/351 93/93/352
f 66/66/353 67/67/354 91/91/355 92/92/356
f 67/67/357 68/68/358 90/90/359 91/91/360
f 68/68/361 69/69/362 89/89/363 90/90/364
f 69/69/365 70/70/366 88/88/367 89/89/368
f 70/70/369 71/71/370 87/87/371 88/88/372
f 71/71/373 72/72/374 86/86/375 87/87/376
f 72/72/377 61/62/378 85/85/379 86/86/380
f 61/62/381 62/61/382 96/96/383 85/85/384
