# This file uses centimeters as units for non-parametric coordinates.

v 16.149164 9.322662 4.000000
v 9.319591 16.147051 4.000000
v 5.777029 17.598345 4.000000
v 7.342159 15.360469 4.000000
v 10.859621 -0.932577 4.000000
v -10.480349 -13.010253 4.000000
v -13.663939 -12.237433 4.000000
v -9.738817 -15.728473 4.000000
v -0.413969 -18.732853 4.000000
v 9.323222 -16.147385 4.000000
v 15.903950 -8.994705 4.000000
v 18.645790 -0.000169 4.000000
v 9.763358 -0.621791 -0.000000
v 5.584580 15.498175 -0.000000
v -0.000000 20.000000 -0.000000
v 10.000000 17.320507 0.000000
v 17.320507 10.000000 -0.000000
v 20.000000 -0.000000 -0.000000
v 17.320507 -10.000000 0.000000
v 10.000000 -17.320507 -0.000000
v 0.000000 -20.000000 0.000000
v -10.000000 -17.320507 0.000000
v -17.320507 -10.000000 0.000000
v -11.316497 -11.713232 0.000000
v 10.926783 8.324965 4.000000
v 9.310534 8.726130 -0.000000
v -0.742065 -13.102852 4.000000
v -1.914021 -12.013410 0.000000
v 6.810788 -8.809759 4.000000
v 5.177088 -8.244184 -0.000000
v 16.149164 9.322662 -4.000000
v 9.319591 16.147051 -4.000000
v 5.777029 17.598345 -4.000000
v 7.342159 15.360469 -4.000000
v 10.859621 -0.932577 -4.000000
v -10.480349 -13.010253 -4.000000
v -13.663939 -12.237433 -4.000000
v -9.738817 -15.728473 -4.000000
v -0.413969 -18.732853 -4.000000
v 9.323222 -16.147385 -4.000000
v 15.903950 -8.994705 -4.000000
v 18.645790 -0.000169 -4.000000
v 10.926783 8.324965 -4.000000
v -0.742065 -13.102852 -4.000000
v 6.810788 -8.809759 -4.000000
vt 0.171133 0.985523
vt 0.171242 0.985365
vt 0.171409 0.985318
vt 0.171594 0.985414
vt 0.171738 0.985641
vt 0.171786 0.985930
vt 0.171724 0.986179
vt 0.171580 0.986310
vt 0.171406 0.986304
vt 0.171249 0.986179
vt 0.171141 0.985978
vt 0.171099 0.985744
vt 0.171671 0.985404
vt 0.171814 0.985627
vt 0.171485 0.985310
vt 0.171318 0.985358
vt 0.171207 0.985514
vt 0.171171 0.985731
vt 0.171212 0.985961
vt 0.171320 0.986159
vt 0.171478 0.986280
vt 0.171652 0.986285
vt 0.171797 0.986155
vt 0.171861 0.985911
vt 0.171667 0.985529
vt 0.171743 0.985518
vt 0.171762 0.985785
vt 0.171837 0.985768
vt 0.171749 0.985712
vt 0.171825 0.985696
vt 0.171409 0.985318
vt 0.171594 0.985414
vt 0.171242 0.985365
vt 0.171724 0.986179
vt 0.171580 0.986310
vt 0.171786 0.985930
vt 0.171762 0.985785
vt 0.171406 0.986304
vt 0.171667 0.985529
vt 0.171133 0.985523
vt 0.171249 0.986179
vt 0.171749 0.985712
vt 0.171141 0.985978
vt 0.171738 0.985641
vt 0.171099 0.985744
vt 0.171743 0.985518
vt 0.171814 0.985627
vt 0.171485 0.985310
vt 0.171671 0.985404
vt 0.171318 0.985358
vt 0.171207 0.985514
vt 0.171171 0.985731
vt 0.171212 0.985961
vt 0.171320 0.986159
vt 0.171478 0.986280
vt 0.171652 0.986285
vt 0.171797 0.986155
vt 0.171861 0.985911
vt 0.171837 0.985768
vt 0.171825 0.985696
vn 0.000000 0.000000 1.000000
vn 0.000000 0.000000 1.000000
vn 0.000000 0.000000 1.000000
vn 0.000000 0.000000 1.000000
vn 0.000000 0.000000 1.000000
vn 0.000000 0.000000 1.000000
vn 0.000000 0.000000 1.000000
vn 0.000000 0.000000 1.000000
vn 0.000000 0.000000 1.000000
vn 0.000000 0.000000 1.000000
vn 0.000000 0.000000 1.000000
vn 0.000000 0.000000 1.000000
vn 0.000000 0.000000 1.000000
vn 0.000000 0.000000 1.000000
vn 0.000000 0.000000 1.000000
vn 0.000000 0.000000 1.000000
vn 0.000000 0.000000 1.000000
vn 0.000000 0.000000 1.000000
vn -0.000000 0.000000 1.000000
vn -0.000000 0.000000 1.000000
vn -0.000000 0.000000 1.000000
vn -0.000000 0.000000 1.000000
vn 0.000000 0.000000 1.000000
vn 0.000000 0.000000 1.000000
vn 0.000000 0.000000 1.000000
vn -0.000000 0.000000 1.000000
vn -0.000000 0.000000 1.000000
vn -0.000000 0.000000 1.000000
vn -0.000000 0.000000 1.000000
vn -0.947390 -0.019638 0.319478
vn -0.947390 -0.019638 0.319478
vn -0.947390 -0.019638 0.319478
vn -0.947390 -0.019638 0.319478
vn -0.633532 -0.672073 0.383347
vn -0.633532 -0.672073 0.383347
vn -0.633532 -0.672073 0.383347
vn -0.633532 -0.672073 0.383347
vn 0.283594 0.929749 0.234823
vn 0.283594 0.929749 0.234823
vn 0.283594 0.929749 0.234823
vn 0.283594 0.929749 0.234823
vn 0.671911 0.672158 0.311030
vn 0.671911 0.672158 0.311030
vn 0.671911 0.672158 0.311030
vn 0.671911 0.672158 0.311030
vn 0.918143 0.245948 0.310681
vn 0.918143 0.245948 0.310681
vn 0.918143 0.245948 0.310681
vn 0.918143 0.245948 0.310681
vn 0.902572 -0.257608 0.344968
vn 0.902572 -0.257608 0.344968
vn 0.902572 -0.257608 0.344968
vn 0.902572 -0.257608 0.344968
vn 0.674772 -0.648106 0.353046
vn 0.674772 -0.648106 0.353046
vn 0.674772 -0.648106 0.353046
vn 0.674772 -0.648106 0.353046
vn 0.244768 -0.917580 0.313266
vn 0.244768 -0.917580 0.313266
vn 0.244768 -0.917580 0.313266
vn 0.244768 -0.917580 0.313266
vn -0.267356 -0.908994 0.319766
vn -0.267356 -0.908994 0.319766
vn -0.267356 -0.908994 0.319766
vn -0.267356 -0.908994 0.319766
vn -0.667173 -0.693959 0.270742
vn -0.667173 -0.693959 0.270742
vn -0.667173 -0.693959 0.270742
vn -0.667173 -0.693959 0.270742
vn 0.251535 0.929587 0.269439
vn 0.251535 0.929587 0.269439
vn 0.251535 0.929587 0.269439
vn 0.251535 0.929587 0.269439
vn 0.019688 0.959429 0.281263
vn 0.019688 0.959429 0.281263
vn 0.019688 0.959429 0.281263
vn 0.019688 0.959429 0.281263
vn -0.836425 -0.442855 0.322914
vn -0.836425 -0.442855 0.322914
vn -0.836425 -0.442855 0.322914
vn -0.836425 -0.442855 0.322914
vn -0.455163 0.826734 0.330661
vn -0.455163 0.826734 0.330661
vn -0.455163 0.826734 0.330661
vn -0.455163 0.826734 0.330661
vn -0.824168 0.459159 0.331542
vn -0.824168 0.459159 0.331542
vn -0.824168 0.459159 0.331542
vn -0.824168 0.459159 0.331542
vn 0.000000 0.000000 -1.000000
vn 0.000000 0.000000 -1.000000
vn 0.000000 0.000000 -1.000000
vn 0.000000 0.000000 -1.000000
vn 0.000000 0.000000 -1.000000
vn 0.000000 0.000000 -1.000000
vn 0.000000 0.000000 -1.000000
vn 0.000000 0.000000 -1.000000
vn 0.000000 0.000000 -1.000000
vn 0.000000 0.000000 -1.000000
vn 0.000000 0.000000 -1.000000
vn 0.000000 0.000000 -1.000000
vn 0.000000 0.000000 -1.000000
vn 0.000000 0.000000 -1.000000
vn 0.000000 0.000000 -1.000000
vn 0.000000 0.000000 -1.000000
vn 0.000000 0.000000 -1.000000
vn 0.000000 0.000000 -1.000000
vn -0.000000 0.000000 -1.000000
vn -0.000000 0.000000 -1.000000
vn -0.000000 0.000000 -1.000000
vn -0.000000 0.000000 -1.000000
vn 0.000000 0.000000 -1.000000
vn 0.000000 0.000000 -1.000000
vn 0.000000 0.000000 -1.000000
vn -0.000000 0.000000 -1.000000
vn -0.000000 0.000000 -1.000000
vn -0.000000 0.000000 -1.000000
vn -0.000000 0.000000 -1.000000
vn -0.947390 -0.019638 -0.319478
vn -0.947390 -0.019638 -0.319478
vn -0.947390 -0.019638 -0.319478
vn -0.947390 -0.019638 -0.319478
vn -0.633532 -0.672073 -0.383347
vn -0.633532 -0.672073 -0.383347
vn -0.633532 -0.672073 -0.383347
vn -0.633532 -0.672073 -0.383347
vn 0.283594 0.929749 -0.234823
vn 0.283594 0.929749 -0.234823
vn 0.283594 0.929749 -0.234823
vn 0.283594 0.929749 -0.234823
vn 0.671911 0.672158 -0.311030
vn 0.671911 0.672158 -0.311030
vn 0.671911 0.672158 -0.311030
vn 0.671911 0.672158 -0.311030
vn 0.918143 0.245948 -0.310681
vn 0.918143 0.245948 -0.310681
vn 0.918143 0.245948 -0.310681
vn 0.918143 0.245948 -0.310681
vn 0.902572 -0.257608 -0.344968
vn 0.902572 -0.257608 -0.344968
vn 0.902572 -0.257608 -0.344968
vn 0.902572 -0.257608 -0.344968
vn 0.674772 -0.648106 -0.353046
vn 0.674772 -0.648106 -0.353046
vn 0.674772 -0.648106 -0.353046
vn 0.674772 -0.648106 -0.353046
vn 0.244768 -0.917580 -0.313266
vn 0.244768 -0.917580 -0.313266
vn 0.244768 -0.917580 -0.313266
vn 0.244768 -0.917580 -0.313266
vn -0.267356 -0.908994 -0.319766
vn -0.267356 -0.908994 -0.319766
vn -0.267356 -0.908994 -0.319766
vn -0.267356 -0.908994 -0.319766
vn -0.667173 -0.693959 -0.270742
vn -0.667173 -0.693959 -0.270742
vn -0.667173 -0.693959 -0.270742
vn -0.667173 -0.693959 -0.270742
vn 0.251535 0.929587 -0.269439
vn 0.251535 0.929587 -0.269439
vn 0.251535 0.929587 -0.269439
vn 0.251535 0.929587 -0.269439
vn 0.019688 0.959429 -0.281263
vn 0.019688 0.959429 -0.281263
vn 0.019688 0.959429 -0.281263
vn 0.019688 0.959429 -0.281263
vn -0.836425 -0.442855 -0.322914
vn -0.836425 -0.442855 -0.322914
vn -0.836425 -0.442855 -0.322914
vn -0.836425 -0.442855 -0.322914
vn -0.455163 0.826734 -0.330661
vn -0.455163 0.826734 -0.330661
vn -0.455163 0.826734 -0.330661
vn -0.455163 0.826734 -0.330661
vn -0.824168 0.459159 -0.331542
vn -0.824168 0.459159 -0.331542
vn -0.824168 0.459159 -0.331542
vn -0.824168 0.459159 -0.331542
s off
f 3/3/1 4/4/2 2/2/3
f 7/7/4 8/8/5 6/6/6
f 27/27/7 6/6/8 8/8/9 9/9/10
f 2/2/11 4/4/12 25/25/13 1/1/14
f 27/27/15 9/9/16 10/10/17 29/29/18
f 29/29/19 10/10/20 11/11/21 5/5/22
f 11/11/23 12/12/24 5/5/25
f 5/5/26 12/12/27 1/1/28 25/25/29
f 25/25/30 26/26/31 13/14/32 5/5/33
f 15/15/34 14/13/35 4/4/36 3/3/37
f 16/16/38 15/15/39 3/3/40 2/2/41
f 17/17/42 16/16/43 2/2/44 1/1/45
f 18/18/46 17/17/47 1/1/48 12/12/49
f 19/19/50 18/18/51 12/12/52 11/11/53
f 20/20/54 19/19/55 11/11/56 10/10/57
f 21/21/58 20/20/59 10/10/60 9/9/61
f 22/22/62 21/21/63 9/9/64 8/8/65
f 23/23/66 22/22/67 8/8/68 7/7/69
f 24/24/70 23/23/71 7/7/72 6/6/73
f 27/27/74 28/28/75 24/24/76 6/6/77
f 14/13/78 26/26/79 25/25/80 4/4/81
f 29/29/82 30/30/83 28/28/84 27/27/85
f 13/14/86 30/30/87 29/29/88 5/5/89
f 33/31/90 32/33/91 34/32/92
f 37/34/93 36/36/94 38/35/95
f 44/37/96 39/38/97 38/35/98 36/36/99
f 32/33/100 31/40/101 43/39/102 34/32/103
f 44/37/104 45/42/105 40/41/106 39/38/107
f 45/42/108 35/44/109 41/43/110 40/41/111
f 41/43/112 35/44/113 42/45/114
f 35/44/115 43/39/116 31/40/117 42/45/118
f 43/39/119 35/44/120 13/47/121 26/46/122
f 15/48/123 33/31/124 34/32/125 14/49/126
f 16/50/127 32/33/128 33/31/129 15/48/130
f 17/51/131 31/40/132 32/33/133 16/50/134
f 18/52/135 42/45/136 31/40/137 17/51/138
f 19/53/139 41/43/140 42/45/141 18/52/142
f 20/54/143 40/41/144 41/43/145 19/53/146
f 21/55/147 39/38/148 40/41/149 20/54/150
f 22/56/151 38/35/152 39/38/153 21/55/154
f 23/57/155 37/34/156 38/35/157 22/56/158
f 24/58/159 36/36/160 37/34/161 23/57/162
f 44/37/163 36/36/164 24/58/165 28/59/166
f 14/49/167 34/32/168 43/39/169 26/46/170
f 45/42/171 44/37/172 28/59/173 30/60/174
f 13/47/175 35/44/176 45/42/177 30/60/178
