# This file uses centimeters as units for non-parametric coordinates.

v -14.532688 -13.483764 0.000000
v 14.532688 -13.484012 0.000000
v -14.532688 19.546587 0.000000
v 14.532688 19.546835 -0.000000
v -8.509064 -13.548581 -0.000000
v -8.509064 19.611404 0.000000
v -7.520579 -13.937178 -0.000000
v -7.343147 20.000002 0.000000
v -9.556650 -13.937178 -0.000000
v -9.556650 20.000000 0.000000
v -13.172972 -13.937178 -0.000000
v -13.172972 20.000000 0.000000
v 13.374910 -13.937177 -0.000000
v 13.374910 20.000000 0.000000
v -0.419318 -13.937177 -0.000000
v -7.520579 -20.000000 -0.000000
v -0.419318 -20.000000 -0.000000
v -4.125788 -18.001888 -0.000000
v -7.782845 -12.526385 4.000000
v -6.906516 -13.334774 2.000000
v -0.854412 -13.334773 2.000000
v 12.233409 -12.887952 4.000000
v -3.880464 -17.223797 2.000000
v -6.906516 -18.868441 2.000000
v -0.854412 -18.868441 2.000000
v -7.782845 16.825920 4.000000
v -7.782845 18.327156 4.000000
v -6.716436 17.152203 4.000000
v -6.716436 18.688725 4.000000
v 11.834265 17.152203 4.000000
v 12.233409 18.688723 4.000000
v -8.741024 18.688723 4.000000
v 13.292376 18.267076 4.000000
v -13.292376 18.266848 4.000000
v -12.048705 18.688723 4.000000
v -13.292376 -12.466075 4.000000
v -12.048705 -12.887953 4.000000
v -8.741024 -12.887953 4.000000
v -7.782845 -10.807857 4.000000
v -6.716436 -11.129248 4.000000
v 11.834265 -11.129248 4.000000
v 13.292376 -12.466307 4.000000
v -6.716436 -12.887953 4.000000
v -0.830898 -12.887952 4.000000
v -14.532688 15.714255 0.000000
v -13.292376 15.411939 4.000000
v -11.416275 15.398781 4.000000
v -14.532688 8.640051 -0.000000
v -13.292376 8.523338 4.000000
v -11.416275 8.677712 4.000000
v -14.532688 2.126698 -0.000000
v -13.292376 2.058599 4.000000
v -11.416275 2.035487 4.000000
v -14.532688 -9.569897 0.000000
v -13.292376 -9.504830 4.000000
v -11.416275 -9.501928 4.000000
v -7.782845 -12.526385 -4.000000
v -6.906516 -13.334774 -2.000000
v -0.854412 -13.334773 -2.000000
v 12.233409 -12.887952 -4.000000
v -3.880464 -17.223797 -2.000000
v -6.906516 -18.868441 -2.000000
v -0.854412 -18.868441 -2.000000
v -7.782845 16.825920 -4.000000
v -7.782845 18.327156 -4.000000
v -6.716436 17.152203 -4.000000
v -6.716436 18.688725 -4.000000
v 11.834265 17.152203 -4.000000
v 12.233409 18.688723 -4.000000
v -8.741024 18.688723 -4.000000
v 13.292376 18.267076 -4.000000
v -13.292376 18.266848 -4.000000
v -12.048705 18.688723 -4.000000
v -13.292376 -12.466075 -4.000000
v -12.048705 -12.887953 -4.000000
v -8.741024 -12.887953 -4.000000
v -7.782845 -10.807857 -4.000000
v -6.716436 -11.129248 -4.000000
v 11.834265 -11.129248 -4.000000
v 13.292376 -12.466307 -4.000000
v -6.716436 -12.887953 -4.000000
v -0.830898 -12.887952 -4.000000
v -13.292376 15.411939 -4.000000
v -11.416275 15.398781 -4.000000
v -13.292376 8.523338 -4.000000
v -11.416275 8.677712 -4.000000
v -13.292376 2.058599 -4.000000
v -11.416275 2.035487 -4.000000
v -13.292376 -9.504830 -4.000000
v -11.416275 -9.501928 -4.000000
vt 0.860409 0.920892
vt 0.860405 0.921889
vt 0.859417 0.921879
vt 0.859419 0.920899
vt 0.860200 0.921889
vt 0.860203 0.920892
vt 0.860161 0.921888
vt 0.860164 0.920892
vt 0.860236 0.921892
vt 0.860239 0.920889
vt 0.860359 0.921894
vt 0.860362 0.920887
vt 0.859456 0.921881
vt 0.859458 0.920897
vt 0.860203 0.920922
vt 0.860164 0.920923
vt 0.859458 0.920927
vt 0.860200 0.921851
vt 0.860161 0.921851
vt 0.859457 0.921844
vt 0.922157 0.955425
vt 0.922194 0.955436
vt 0.922198 0.956414
vt 0.922160 0.956425
vt 0.921513 0.955440
vt 0.921512 0.956414
vt 0.859942 0.921886
vt 0.016037 0.982647
vt 0.016504 0.982036
vt 0.016539 0.982934
vt 0.015539 0.982065
vt 0.015557 0.982956
vt 0.860202 0.921886
vt 0.860161 0.921888
vt 0.859458 0.921883
vt 0.859942 0.921886
vt 0.016504 0.982036
vt 0.016539 0.982934
vt 0.016037 0.982647
vt 0.015557 0.982956
vt 0.015539 0.982065
vt 0.860164 0.920892
vt 0.860203 0.920892
vt 0.859458 0.920897
vt 0.860241 0.920879
vt 0.859419 0.920899
vt 0.860362 0.920887
vt 0.860409 0.920892
vt 0.860405 0.921889
vt 0.860359 0.921894
vt 0.860238 0.921901
vt 0.859417 0.921879
vt 0.860161 0.921888
vt 0.859942 0.921886
vt 0.860408 0.920996
vt 0.860408 0.920996
vt 0.860362 0.920992
vt 0.860408 0.921208
vt 0.860408 0.921208
vt 0.860361 0.921206
vt 0.860407 0.921418
vt 0.860407 0.921418
vt 0.860360 0.921418
vt 0.860405 0.921782
vt 0.860405 0.921782
vt 0.860359 0.921786
vt 0.140745 0.949663
vt 0.140715 0.949670
vt 0.140713 0.949410
vt 0.140743 0.949395
vt 0.140664 0.949397
vt 0.140665 0.949664
vt 0.140750 0.950396
vt 0.140720 0.950380
vt 0.140717 0.949928
vt 0.140747 0.949929
vt 0.140667 0.949929
vt 0.140670 0.950393
vt 0.860203 0.920892
vt 0.860203 0.920922
vt 0.860164 0.920923
vt 0.860164 0.920892
vt 0.859458 0.920927
vt 0.859458 0.920897
vt 0.860241 0.920879
vt 0.859419 0.920899
vt 0.860362 0.920887
vt 0.860409 0.920892
vt 0.860408 0.920996
vt 0.860362 0.920992
vt 0.860238 0.921901
vt 0.860200 0.921851
vt 0.922157 0.955425
vt 0.922194 0.955436
vt 0.922198 0.956414
vt 0.922160 0.956425
vt 0.921513 0.955440
vt 0.921512 0.956414
vt 0.859457 0.921844
vt 0.859417 0.921879
vt 0.860202 0.921886
vt 0.860161 0.921851
vt 0.860161 0.921888
vt 0.859942 0.921886
vt 0.859458 0.921883
vt 0.016037 0.982647
vt 0.016504 0.982036
vt 0.016539 0.982934
vt 0.015539 0.982065
vt 0.015557 0.982956
vt 0.860164 0.920892
vt 0.860203 0.920892
vt 0.859458 0.920897
vt 0.860239 0.920889
vt 0.859419 0.920899
vt 0.860362 0.920887
vt 0.860409 0.920892
vt 0.859417 0.921879
vt 0.860200 0.921889
vt 0.860161 0.921888
vt 0.860161 0.921888
vt 0.859942 0.921886
vt 0.859456 0.921881
vt 0.859942 0.921886
vt 0.016504 0.982036
vt 0.016539 0.982934
vt 0.016037 0.982647
vt 0.015557 0.982956
vt 0.015539 0.982065
vt 0.860408 0.920996
vt 0.860359 0.921894
vt 0.860359 0.921894
vt 0.860405 0.921889
vt 0.860405 0.921889
vt 0.860236 0.921892
vt 0.140745 0.949663
vt 0.140715 0.949670
vt 0.140713 0.949410
vt 0.140743 0.949395
vt 0.140664 0.949397
vt 0.140665 0.949664
vt 0.860361 0.921206
vt 0.860407 0.921418
vt 0.860407 0.921418
vt 0.860408 0.921208
vt 0.860408 0.921208
vt 0.860360 0.921418
vt 0.140750 0.950396
vt 0.140720 0.950380
vt 0.140717 0.949928
vt 0.140747 0.949929
vt 0.140667 0.949929
vt 0.140670 0.950393
vt 0.860359 0.921786
vt 0.860405 0.921782
vt 0.860405 0.921782
vn 0.000000 0.000000 1.000000
vn 0.000000 0.000000 1.000000
vn 0.000000 0.000000 1.000000
vn 0.000000 0.000000 1.000000
vn 0.000000 0.000000 1.000000
vn 0.000000 0.000000 1.000000
vn 0.000000 0.000000 1.000000
vn 0.000000 0.000000 1.000000
vn 0.000000 0.000000 1.000000
vn 0.000000 0.000000 1.000000
vn 0.000000 0.000000 1.000000
vn 0.000000 0.000000 1.000000
vn 0.000000 0.000000 1.000000
vn 0.000000 0.000000 1.000000
vn 0.000000 0.000000 1.000000
vn 0.000000 0.000000 1.000000
vn 0.000000 0.000000 1.000000
vn 0.000000 0.000000 1.000000
vn 0.000000 0.000000 1.000000
vn 0.000000 0.000000 1.000000
vn 0.000000 0.000000 1.000000
vn 0.000000 0.000000 1.000000
vn -0.000000 0.000000 1.000000
vn 0.000000 0.000000 1.000000
vn 0.000000 0.000000 1.000000
vn 0.000000 0.000000 1.000000
vn 0.000000 0.000000 1.000000
vn 0.000000 0.000000 1.000000
vn 0.000000 0.000000 1.000000
vn 0.000000 0.000000 1.000000
vn 0.000000 0.000000 1.000000
vn 0.000000 0.000000 1.000000
vn 0.000000 0.000000 1.000000
vn 0.000000 0.000000 1.000000
vn 0.000000 0.000000 1.000000
vn 0.000000 0.000000 1.000000
vn 0.000000 0.000000 1.000000
vn 0.000000 0.000000 1.000000
vn 0.000000 0.000000 1.000000
vn 0.000000 0.000000 1.000000
vn 0.000000 0.000000 1.000000
vn 0.000000 0.000000 1.000000
vn 0.000000 0.000000 1.000000
vn 0.000000 0.000000 1.000000
vn 0.000000 0.000000 1.000000
vn 0.000000 0.000000 1.000000
vn 0.000000 0.000000 1.000000
vn 0.000000 0.000000 1.000000
vn 0.000000 0.000000 1.000000
vn 0.000000 0.000000 1.000000
vn 0.000000 0.000000 1.000000
vn 0.000000 0.000000 1.000000
vn 0.000000 0.000000 1.000000
vn 0.000000 0.000000 1.000000
vn 0.000000 0.000000 1.000000
vn 0.000000 0.000000 1.000000
vn 0.000000 0.000000 1.000000
vn 0.000000 0.000000 1.000000
vn 0.000000 0.000000 1.000000
vn 0.000000 0.000000 1.000000
vn 0.000000 0.000000 1.000000
vn 0.000000 0.000000 1.000000
vn 0.000000 0.000000 1.000000
vn -0.299577 0.891474 0.339894
vn -0.299577 0.891474 0.339894
vn -0.299577 0.891474 0.339894
vn -0.299577 0.891474 0.339894
vn 0.000000 0.950244 0.311508
vn 0.000000 0.950244 0.311508
vn 0.000000 0.950244 0.311508
vn 0.000000 0.950244 0.311508
vn 0.340911 0.911519 -0.230030
vn 0.340911 0.911519 -0.230030
vn 0.340911 0.911519 0.230030
vn 0.340911 0.911519 0.230030
vn 0.339581 0.860488 0.379796
vn 0.339581 0.860488 0.379796
vn 0.339581 0.860488 0.379796
vn 0.339581 0.860488 0.379796
vn -0.295768 0.879708 0.372337
vn -0.295768 0.879708 0.372337
vn -0.295768 0.879708 0.372337
vn -0.295768 0.879708 0.372337
vn 0.000000 0.950243 0.311508
vn 0.000000 0.950243 0.311508
vn 0.000000 0.950243 0.311508
vn 0.000000 0.950243 0.311508
vn 0.955136 0.000000 0.296167
vn 0.955136 0.000000 0.296167
vn 0.955136 0.000000 0.296167
vn 0.955136 0.000000 0.296167
vn -0.259711 -0.915918 0.306014
vn -0.259711 -0.915918 0.306014
vn -0.259711 -0.915918 0.306014
vn -0.259711 -0.915918 0.306014
vn -0.003650 -0.964377 0.264507
vn -0.003650 -0.964377 0.264507
vn -0.003650 -0.964377 0.264507
vn -0.003650 -0.964377 0.264507
vn -0.955956 0.000000 0.293509
vn -0.955956 0.000000 0.293509
vn -0.955956 0.000000 0.293509
vn -0.955956 0.000000 0.293509
vn 0.471427 -0.830953 0.295422
vn 0.471427 -0.830953 0.295422
vn 0.471427 -0.830953 0.295422
vn 0.471427 -0.830953 0.295422
vn -0.442249 -0.817362 0.369237
vn -0.442249 -0.817362 0.369237
vn -0.442249 -0.817362 0.369237
vn -0.442249 -0.817362 0.369237
vn 0.977145 0.000000 -0.212575
vn 0.977145 0.000000 -0.212575
vn 0.977145 0.000000 0.212575
vn 0.977145 0.000000 0.212575
vn -0.955136 -0.000000 0.296167
vn -0.955136 -0.000000 0.296167
vn -0.955136 -0.000000 0.296167
vn -0.955136 -0.000000 0.296167
vn -0.301804 -0.897659 0.321127
vn -0.301804 -0.897659 0.321127
vn -0.301804 -0.897659 0.321127
vn -0.301804 -0.897659 0.321127
vn 0.000000 -0.967277 -0.253723
vn 0.000000 -0.967277 0.253723
vn 0.000000 -0.967277 0.253723
vn 0.000000 -0.967277 -0.253723
vn 0.345061 -0.922614 0.172386
vn 0.345061 -0.922614 0.172386
vn 0.345061 -0.922614 -0.172386
vn 0.345061 -0.922614 -0.172386
vn -0.312082 -0.920456 0.235300
vn -0.312082 -0.920456 0.235300
vn -0.312082 -0.920456 0.235300
vn 0.000000 -0.975941 0.218035
vn 0.000000 -0.975941 0.218035
vn 0.000000 -0.975941 0.218035
vn 0.000000 -0.975941 0.218035
vn 0.346519 -0.878069 0.330031
vn 0.346519 -0.878069 0.330031
vn 0.346519 -0.878069 0.330031
vn 0.346519 -0.878069 0.330031
vn 0.000000 -0.975941 0.218036
vn 0.000000 -0.975941 0.218036
vn 0.000000 -0.975941 0.218036
vn -0.955136 -0.000000 0.296167
vn -0.955136 -0.000000 0.296167
vn -0.955136 -0.000000 0.296167
vn -0.955136 -0.000000 0.296167
vn 0.000000 0.000000 1.000000
vn 0.000000 0.000000 1.000000
vn 0.000000 0.000000 1.000000
vn 0.000000 0.000000 1.000000
vn 0.000000 0.000000 1.000000
vn 0.000000 0.000000 1.000000
vn 0.000000 0.000000 1.000000
vn -0.955136 0.000000 0.296167
vn -0.955136 0.000000 0.296167
vn -0.955136 0.000000 0.296167
vn -0.955136 0.000000 0.296167
vn 0.000000 0.000000 1.000000
vn 0.000000 0.000000 1.000000
vn 0.000000 0.000000 1.000000
vn 0.000000 0.000000 1.000000
vn 0.000000 0.000000 1.000000
vn 0.000000 0.000000 1.000000
vn 0.000000 0.000000 1.000000
vn 0.000000 0.000000 1.000000
vn -0.955136 -0.000000 0.296167
vn -0.955136 -0.000000 0.296167
vn -0.955136 -0.000000 0.296167
vn -0.955136 -0.000000 0.296167
vn 0.000000 0.000000 1.000000
vn 0.000000 0.000000 1.000000
vn 0.000000 0.000000 1.000000
vn 0.000000 0.000000 1.000000
vn 0.000000 0.000000 1.000000
vn 0.000000 0.000000 1.000000
vn 0.000000 0.000000 1.000000
vn -0.955136 0.000000 0.296167
vn -0.955136 0.000000 0.296167
vn -0.955136 0.000000 0.296167
vn -0.955136 0.000000 0.296167
vn 0.000000 0.000000 1.000000
vn 0.000000 0.000000 1.000000
vn 0.000000 0.000000 1.000000
vn 0.000000 0.000000 1.000000
vn 0.000000 0.000000 1.000000
vn 0.000000 0.000000 1.000000
vn 0.000000 0.000000 1.000000
vn 0.000000 0.000000 -1.000000
vn 0.000000 0.000000 -1.000000
vn 0.000000 0.000000 -1.000000
vn 0.000000 0.000000 -1.000000
vn 0.000000 0.000000 -1.000000
vn 0.000000 0.000000 -1.000000
vn 0.000000 0.000000 -1.000000
vn 0.000000 0.000000 -1.000000
vn 0.000000 0.000000 -1.000000
vn 0.000000 0.000000 -1.000000
vn 0.000000 0.000000 -1.000000
vn 0.000000 0.000000 -1.000000
vn 0.000000 0.000000 -1.000000
vn 0.000000 0.000000 -1.000000
vn 0.000000 0.000000 -1.000000
vn 0.000000 0.000000 -1.000000
vn 0.000000 0.000000 -1.000000
vn 0.000000 0.000000 -1.000000
vn 0.000000 0.000000 -1.000000
vn 0.000000 0.000000 -1.000000
vn 0.000000 0.000000 -1.000000
vn 0.000000 0.000000 -1.000000
vn 0.000000 0.000000 -1.000000
vn 0.000000 0.000000 -1.000000
vn -0.000000 0.000000 -1.000000
vn 0.000000 0.000000 -1.000000
vn 0.000000 0.000000 -1.000000
vn 0.000000 0.000000 -1.000000
vn 0.000000 0.000000 -1.000000
vn 0.000000 0.000000 -1.000000
vn 0.000000 0.000000 -1.000000
vn 0.000000 0.000000 -1.000000
vn 0.000000 0.000000 -1.000000
vn 0.000000 0.000000 -1.000000
vn 0.000000 0.000000 -1.000000
vn 0.000000 0.000000 -1.000000
vn 0.000000 0.000000 -1.000000
vn 0.000000 0.000000 -1.000000
vn 0.000000 0.000000 -1.000000
vn 0.000000 0.000000 -1.000000
vn 0.000000 0.000000 -1.000000
vn 0.000000 0.000000 -1.000000
vn 0.000000 0.000000 -1.000000
vn 0.000000 0.000000 -1.000000
vn 0.000000 0.000000 -1.000000
vn 0.000000 0.000000 -1.000000
vn 0.000000 0.000000 -1.000000
vn 0.000000 0.000000 -1.000000
vn 0.000000 0.000000 -1.000000
vn 0.000000 0.000000 -1.000000
vn 0.000000 0.000000 -1.000000
vn 0.000000 0.000000 -1.000000
vn 0.000000 0.000000 -1.000000
vn 0.000000 0.000000 -1.000000
vn 0.000000 0.000000 -1.000000
vn 0.000000 0.000000 -1.000000
vn 0.000000 0.000000 -1.000000
vn 0.000000 0.000000 -1.000000
vn 0.000000 0.000000 -1.000000
vn 0.000000 0.000000 -1.000000
vn 0.000000 0.000000 -1.000000
vn 0.000000 0.000000 -1.000000
vn 0.000000 0.000000 -1.000000
vn -0.299577 0.891474 -0.339894
vn -0.299577 0.891474 -0.339894
vn -0.299577 0.891474 -0.339894
vn -0.299577 0.891474 -0.339894
vn 0.000000 0.950244 -0.311508
vn 0.000000 0.950244 -0.311508
vn 0.000000 0.950244 -0.311508
vn 0.000000 0.950244 -0.311508
vn 0.340911 0.911519 -0.230030
vn 0.340911 0.911519 -0.230030
vn 0.340911 0.911519 -0.230030
vn 0.340911 0.911519 -0.230030
vn 0.339581 0.860488 -0.379796
vn 0.339581 0.860488 -0.379796
vn 0.339581 0.860488 -0.379796
vn 0.339581 0.860488 -0.379796
vn -0.295768 0.879708 -0.372337
vn -0.295768 0.879708 -0.372337
vn -0.295768 0.879708 -0.372337
vn -0.295768 0.879708 -0.372337
vn 0.000000 0.950243 -0.311508
vn 0.000000 0.950243 -0.311508
vn 0.000000 0.950243 -0.311508
vn 0.000000 0.950243 -0.311508
vn 0.955136 0.000000 -0.296167
vn 0.955136 0.000000 -0.296167
vn 0.955136 0.000000 -0.296167
vn 0.955136 0.000000 -0.296167
vn -0.259711 -0.915918 -0.306014
vn -0.259711 -0.915918 -0.306014
vn -0.259711 -0.915918 -0.306014
vn -0.259711 -0.915918 -0.306014
vn -0.003650 -0.964377 -0.264507
vn -0.003650 -0.964377 -0.264507
vn -0.003650 -0.964377 -0.264507
vn -0.003650 -0.964377 -0.264507
vn -0.955956 0.000000 -0.293509
vn -0.955956 0.000000 -0.293509
vn -0.955956 0.000000 -0.293509
vn -0.955956 0.000000 -0.293509
vn 0.471427 -0.830953 -0.295422
vn 0.471427 -0.830953 -0.295422
vn 0.471427 -0.830953 -0.295422
vn 0.471427 -0.830953 -0.295422
vn -0.442249 -0.817362 -0.369237
vn -0.442249 -0.817362 -0.369237
vn -0.442249 -0.817362 -0.369237
vn -0.442249 -0.817362 -0.369237
vn 0.977145 0.000000 -0.212575
vn 0.977145 0.000000 -0.212575
vn 0.977145 0.000000 -0.212575
vn 0.977145 0.000000 -0.212575
vn -0.955136 -0.000000 -0.296167
vn -0.955136 -0.000000 -0.296167
vn -0.955136 -0.000000 -0.296167
vn -0.955136 -0.000000 -0.296167
vn -0.301804 -0.897659 -0.321127
vn -0.301804 -0.897659 -0.321127
vn -0.301804 -0.897659 -0.321127
vn -0.301804 -0.897659 -0.321127
vn 0.000000 -0.967277 -0.253723
vn 0.000000 -0.967277 -0.253723
vn 0.000000 -0.967277 -0.253723
vn 0.000000 -0.967277 -0.253723
vn 0.345061 -0.922614 -0.172386
vn 0.345061 -0.922614 -0.172386
vn 0.345061 -0.922614 -0.172386
vn 0.345061 -0.922614 -0.172386
vn -0.312082 -0.920456 -0.235300
vn -0.312082 -0.920456 -0.235300
vn -0.312082 -0.920456 -0.235300
vn 0.000000 -0.975941 -0.218035
vn 0.000000 -0.975941 -0.218035
vn 0.000000 -0.975941 -0.218035
vn 0.000000 -0.975941 -0.218035
vn 0.346519 -0.878069 -0.330031
vn 0.346519 -0.878069 -0.330031
vn 0.346519 -0.878069 -0.330031
vn 0.346519 -0.878069 -0.330031
vn 0.000000 -0.975941 -0.218036
vn 0.000000 -0.975941 -0.218036
vn 0.000000 -0.975941 -0.218036
vn -0.955136 -0.000000 -0.296167
vn -0.955136 -0.000000 -0.296167
vn -0.955136 -0.000000 -0.296167
vn -0.955136 -0.000000 -0.296167
vn 0.000000 0.000000 -1.000000
vn 0.000000 0.000000 -1.000000
vn 0.000000 0.000000 -1.000000
vn 0.000000 0.000000 -1.000000
vn 0.000000 0.000000 -1.000000
vn 0.000000 0.000000 -1.000000
vn 0.000000 0.000000 -1.000000
vn -0.955136 0.000000 -0.296167
vn -0.955136 0.000000 -0.296167
vn -0.955136 0.000000 -0.296167
vn -0.955136 0.000000 -0.296167
vn 0.000000 0.000000 -1.000000
vn 0.000000 0.000000 -1.000000
vn 0.000000 0.000000 -1.000000
vn 0.000000 0.000000 -1.000000
vn 0.000000 0.000000 -1.000000
vn 0.000000 0.000000 -1.000000
vn 0.000000 0.000000 -1.000000
vn 0.000000 0.000000 -1.000000
vn -0.955136 -0.000000 -0.296167
vn -0.955136 -0.000000 -0.296167
vn -0.955136 -0.000000 -0.296167
vn -0.955136 -0.000000 -0.296167
vn 0.000000 0.000000 -1.000000
vn 0.000000 0.000000 -1.000000
vn 0.000000 0.000000 -1.000000
vn 0.000000 0.000000 -1.000000
vn 0.000000 0.000000 -1.000000
vn 0.000000 0.000000 -1.000000
vn 0.000000 0.000000 -1.000000
vn -0.955136 0.000000 -0.296167
vn -0.955136 0.000000 -0.296167
vn -0.955136 0.000000 -0.296167
vn -0.955136 0.000000 -0.296167
vn 0.000000 0.000000 -1.000000
vn 0.000000 0.000000 -1.000000
vn 0.000000 0.000000 -1.000000
vn 0.000000 0.000000 -1.000000
vn 0.000000 0.000000 -1.000000
vn 0.000000 0.000000 -1.000000
vn 0.000000 0.000000 -1.000000
s off
f 27/43/1 26/15/2 28/16/3 29/42/4
f 29/42/5 28/16/6 30/17/7 31/44/8
f 32/45/9 26/15/10 27/43/11
f 31/44/12 30/17/13 33/46/14
f 35/47/15 34/48/16 46/56/17 47/57/18
f 32/45/19 35/47/20 47/57/21
f 26/15/22 32/45/23 38/51/24 39/18/25
f 28/21/26 26/22/27 39/23/28 40/24/29
f 30/25/30 28/21/31 40/24/32 41/26/33
f 33/46/34 30/17/35 41/20/36 42/52/37
f 39/18/38 38/51/39 19/33/40
f 40/19/41 39/18/42 19/33/43 43/53/44
f 44/54/45 40/19/46 43/53/47
f 42/52/48 41/20/49 22/35/50
f 41/20/51 40/19/52 44/54/53 22/35/54
f 23/39/55 20/37/56 24/38/57
f 21/41/58 23/39/59 25/40/60
f 21/41/61 20/37/62 23/39/63
f 8/8/64 6/6/65 27/43/66 29/42/67
f 14/14/68 8/8/69 29/42/70 31/44/71
f 6/6/72 10/10/73 32/45/74 27/43/75
f 4/4/76 14/14/77 31/44/78 33/46/79
f 12/12/80 3/1/81 34/48/82 35/47/83
f 10/10/84 12/12/85 35/47/86 32/45/87
f 2/3/88 4/4/89 33/46/90 42/52/91
f 5/5/92 7/7/93 20/34/94 19/33/95
f 15/27/96 13/13/97 22/35/98 21/36/99
f 7/29/100 16/30/101 24/38/102 20/37/103
f 16/30/104 18/28/105 23/39/106 24/38/107
f 18/28/108 17/32/109 25/40/110 23/39/111
f 17/32/112 15/31/113 21/41/114 25/40/115
f 45/55/116 46/56/117 34/48/118 3/1/119
f 11/11/120 37/50/121 36/49/122 1/2/123
f 9/9/124 38/51/125 37/50/126 11/11/127
f 19/33/128 38/51/129 9/9/130 5/5/131
f 19/33/132 20/34/133 43/53/134
f 20/34/135 21/36/136 44/54/137 43/53/138
f 2/3/139 42/52/140 22/35/141 13/13/142
f 21/36/143 22/35/144 44/54/145
f 48/67/146 49/68/147 46/69/148 45/70/149
f 47/71/150 46/69/151 49/68/152 50/72/153
f 32/45/154 47/57/155 50/60/156
f 51/61/157 52/62/158 49/59/159 48/58/160
f 50/60/161 49/59/162 52/62/163 53/63/164
f 32/45/165 50/60/166 53/63/167 38/51/168
f 54/73/169 55/74/170 52/75/171 51/76/172
f 53/77/173 52/75/174 55/74/175 56/78/176
f 38/51/177 53/63/178 56/66/179
f 1/2/180 36/49/181 55/65/182 54/64/183
f 56/66/184 55/65/185 36/49/186 37/50/187
f 38/51/188 56/66/189 37/50/190
f 65/79/191 67/82/192 66/81/193 64/80/194
f 67/82/195 69/84/196 68/83/197 66/81/198
f 70/85/199 65/79/200 64/80/201
f 69/84/202 71/86/203 68/83/204
f 73/87/205 84/90/206 83/89/207 72/88/208
f 70/85/209 84/90/210 73/87/211
f 64/80/212 77/92/213 76/91/214 70/85/215
f 66/93/216 78/96/217 77/95/218 64/94/219
f 68/97/220 79/98/221 78/96/222 66/93/223
f 71/86/224 80/100/225 79/99/226 68/83/227
f 77/92/228 57/101/229 76/91/230
f 78/102/231 81/103/232 57/101/233 77/92/234
f 82/104/235 81/103/236 78/102/237
f 80/100/238 60/105/239 79/99/240
f 79/99/241 60/105/242 82/104/243 78/102/244
f 61/106/245 62/108/246 58/107/247
f 59/109/248 63/110/249 61/106/250
f 59/109/251 61/106/252 58/107/253
f 8/111/254 67/82/255 65/79/256 6/112/257
f 14/113/258 69/84/259 67/82/260 8/111/261
f 6/112/262 65/79/263 70/85/264 10/114/265
f 4/115/266 71/86/267 69/84/268 14/113/269
f 12/116/270 73/87/271 72/88/272 3/117/273
f 10/114/274 70/85/275 73/87/276 12/116/277
f 2/118/278 80/100/279 71/86/280 4/115/281
f 5/119/282 57/101/283 58/121/284 7/120/285
f 15/122/286 59/124/287 60/105/288 13/123/289
f 7/125/290 58/107/291 62/108/292 16/126/293
f 16/126/294 62/108/295 61/106/296 18/127/297
f 18/127/298 61/106/299 63/110/300 17/128/301
f 17/128/302 63/110/303 59/109/304 15/129/305
f 45/130/306 3/117/307 72/88/308 83/89/309
f 11/131/310 1/134/311 74/133/312 75/132/313
f 9/135/314 11/131/315 75/132/316 76/91/317
f 57/101/318 5/119/319 9/135/320 76/91/321
f 57/101/322 81/103/323 58/121/324
f 58/121/325 81/103/326 82/104/327 59/124/328
f 2/118/329 13/123/330 60/105/331 80/100/332
f 59/124/333 82/104/334 60/105/335
f 48/136/336 45/139/337 83/138/338 85/137/339
f 84/140/340 86/141/341 85/137/342 83/138/343
f 70/85/344 86/142/345 84/90/346
f 51/143/347 48/146/348 85/145/349 87/144/350
f 86/142/351 88/147/352 87/144/353 85/145/354
f 70/85/355 76/91/356 88/147/357 86/142/358
f 54/148/359 51/151/360 87/150/361 89/149/362
f 88/152/363 90/153/364 89/149/365 87/150/366
f 76/91/367 90/154/368 88/147/369
f 1/134/370 54/156/371 89/155/372 74/133/373
f 90/154/374 75/132/375 74/133/376 89/155/377
f 76/91/378 75/132/379 90/154/380
