# This file uses centimeters as units for non-parametric coordinates.

v 0.029230 19.388771 -0.000000
v -8.555636 16.065632 -0.000000
v -11.913384 5.732616 -0.000000
v -1.089621 5.732616 0.000000
v -0.575045 8.975571 0.000000
v 0.252630 9.683420 0.000000
v 0.844011 9.450624 0.000000
v 1.125795 8.107004 -0.000000
v -0.726015 3.017399 -0.000000
v -5.076648 -1.413868 0.000000
v -9.701686 -7.750113 0.000000
v -12.003558 -19.415884 -0.000000
v 11.057043 -19.415884 0.000000
v 11.057043 -10.472383 0.000000
v 1.002359 -10.472383 0.000000
v 2.148188 -7.702279 -0.000000
v 5.974409 -3.689897 -0.000000
v 10.062105 1.103483 -0.000000
v 12.003557 7.384178 -0.000000
v 9.196230 16.401279 -0.000000
v -0.389616 16.937782 4.000000
v -6.784200 14.772939 4.000000
v -9.169217 7.978846 4.000000
v -2.900538 7.573787 4.000000
v -2.579536 9.962374 4.000000
v 0.292604 11.581870 4.000000
v 2.587559 10.848624 4.000000
v 3.006714 8.020059 4.000000
v 1.281747 1.433559 4.000000
v -3.282056 -2.833289 4.000000
v -7.827098 -8.204754 4.000000
v -9.981056 -17.157406 4.000000
v 9.386497 -17.108740 4.000000
v 9.163162 -12.211825 4.000000
v -1.631006 -12.909605 4.000000
v 0.117209 -6.972270 4.000000
v 4.815037 -1.917041 4.000000
v 8.352310 1.814073 4.000000
v 10.217330 7.490542 4.000000
v 7.342682 15.203621 4.000000
v -0.255613 17.579477 -4.000000
v -6.489091 14.863764 -4.000000
v -9.482722 7.342231 -4.000000
v -3.129761 7.779862 -4.000000
v -2.138724 10.058214 -4.000000
v -0.409865 12.003717 -4.000000
v 2.648260 10.790364 -4.000000
v 3.274678 8.049919 -4.000000
v 1.386052 1.836270 -4.000000
v -3.126176 -3.139414 -4.000000
v -8.193690 -8.542778 -4.000000
v -9.550691 -17.126043 -4.000000
v 9.424543 -17.611010 -4.000000
v 9.112204 -12.182803 -4.000000
v -2.389359 -12.166994 -4.000000
v 0.644074 -6.468647 -4.000000
v 4.946668 -2.699761 -4.000000
v 8.436441 2.284652 -4.000000
v 10.237194 7.025338 -4.000000
v 7.885067 15.240377 -4.000000
vt 0.014969 0.949416
vt 0.015242 0.949548
vt 0.015158 0.949660
vt 0.014933 0.949551
vt 0.015333 0.949824
vt 0.015222 0.949842
vt 0.015003 0.949767
vt 0.015023 0.949808
vt 0.014987 0.949686
vt 0.015012 0.949750
vt 0.014962 0.949664
vt 0.014940 0.949688
vt 0.014944 0.949667
vt 0.014856 0.949700
vt 0.014936 0.949698
vt 0.014838 0.949770
vt 0.014991 0.949829
vt 0.014907 0.949925
vt 0.015119 0.949953
vt 0.015043 0.950054
vt 0.015249 0.950116
vt 0.015166 0.950205
vt 0.015300 0.950366
vt 0.015209 0.950396
vt 0.014672 0.950245
vt 0.014690 0.950295
vt 0.014662 0.950065
vt 0.014685 0.950195
vt 0.014942 0.950117
vt 0.014996 0.950254
vt 0.014909 0.950053
vt 0.014926 0.950118
vt 0.014798 0.949946
vt 0.014806 0.950003
vt 0.014676 0.949817
vt 0.014691 0.949882
vt 0.014611 0.949659
vt 0.014635 0.949748
vt 0.014683 0.949448
vt 0.014696 0.949575
vt 0.015000 0.949396
vt 0.015218 0.949502
vt 0.015278 0.949683
vt 0.015086 0.949650
vt 0.015076 0.949592
vt 0.015006 0.949532
vt 0.014924 0.949545
vt 0.014906 0.949614
vt 0.014972 0.949768
vt 0.015102 0.949896
vt 0.015220 0.950045
vt 0.015260 0.950235
vt 0.014756 0.950140
vt 0.014752 0.950040
vt 0.015054 0.950096
vt 0.014987 0.949960
vt 0.014872 0.949847
vt 0.014761 0.949727
vt 0.014709 0.949595
vt 0.014770 0.949422
vn -0.307989 0.840656 0.445466
vn -0.307989 0.840656 0.445466
vn -0.307989 0.840656 0.445466
vn -0.307989 0.840656 0.445466
vn -0.848949 0.284655 0.445261
vn -0.848949 0.284655 0.445261
vn -0.848949 0.284655 0.445261
vn -0.848949 0.284655 0.445261
vn -0.021075 -0.889306 0.456827
vn -0.021075 -0.889306 0.456827
vn -0.021075 -0.889306 0.456827
vn -0.021075 -0.889306 0.456827
vn 0.876299 -0.130020 0.463891
vn 0.876299 -0.130020 0.463891
vn 0.876299 -0.130020 0.463891
vn 0.876299 -0.130020 0.463891
vn 0.488078 -0.775905 0.399690
vn 0.488078 -0.775905 0.399690
vn 0.488078 -0.775905 0.399690
vn 0.488078 -0.775905 0.399690
vn -0.288180 -0.861023 0.419037
vn -0.288180 -0.861023 0.419037
vn -0.288180 -0.861023 0.419037
vn -0.288180 -0.861023 0.419037
vn -0.891157 -0.149717 0.428282
vn -0.891157 -0.149717 0.428282
vn -0.891157 -0.149717 0.428282
vn -0.891157 -0.149717 0.428282
vn -0.846240 0.259231 0.465485
vn -0.846240 0.259231 0.465485
vn -0.846240 0.259231 0.465485
vn -0.846240 0.259231 0.465485
vn -0.598682 0.613571 0.514889
vn -0.598682 0.613571 0.514889
vn -0.598682 0.613571 0.514889
vn -0.598682 0.613571 0.514889
vn -0.702587 0.550302 0.451153
vn -0.702587 0.550302 0.451153
vn -0.702587 0.550302 0.451153
vn -0.702587 0.550302 0.451153
vn -0.898423 0.194158 0.393876
vn -0.898423 0.194158 0.393876
vn -0.898423 0.194158 0.393876
vn -0.898423 0.194158 0.393876
vn 0.000996 -0.868533 0.495630
vn 0.000996 -0.868533 0.495630
vn 0.000996 -0.868533 0.495630
vn 0.000996 -0.868533 0.495630
vn 0.913724 0.014744 0.406067
vn 0.913724 0.014744 0.406067
vn 0.913724 0.014744 0.406067
vn 0.913724 0.014744 0.406067
vn -0.029884 0.892902 0.449258
vn -0.029884 0.892902 0.449258
vn -0.029884 0.892902 0.449258
vn -0.029884 0.892902 0.449258
vn 0.853508 -0.283676 0.437095
vn 0.853508 -0.283676 0.437095
vn 0.853508 -0.283676 0.437095
vn 0.853508 -0.283676 0.437095
vn 0.650420 -0.611430 0.450674
vn 0.650420 -0.611430 0.450674
vn 0.650420 -0.611430 0.450674
vn 0.650420 -0.611430 0.450674
vn 0.673436 -0.602374 0.428520
vn 0.673436 -0.602374 0.428520
vn 0.673436 -0.602374 0.428520
vn 0.673436 -0.602374 0.428520
vn 0.869801 -0.276894 0.408382
vn 0.869801 -0.276894 0.408382
vn 0.869801 -0.276894 0.408382
vn 0.869801 -0.276894 0.408382
vn 0.855405 0.290516 0.428815
vn 0.855405 0.290516 0.428815
vn 0.855405 0.290516 0.428815
vn 0.855405 0.290516 0.428815
vn 0.239164 0.855995 0.458337
vn 0.239164 0.855995 0.458337
vn 0.239164 0.855995 0.458337
vn 0.239164 0.855995 0.458337
vn 0.000000 0.000000 1.000000
vn 0.000000 0.000000 1.000000
vn 0.000000 0.000000 1.000000
vn 0.000000 0.000000 1.000000
vn 0.000000 0.000000 1.000000
vn 0.000000 0.000000 1.000000
vn 0.000000 0.000000 1.000000
vn 0.000000 0.000000 1.000000
vn 0.000000 0.000000 1.000000
vn 0.000000 0.000000 1.000000
vn 0.000000 0.000000 1.000000
vn 0.000000 0.000000 1.000000
vn 0.000000 0.000000 1.000000
vn 0.000000 0.000000 1.000000
vn 0.000000 0.000000 1.000000
vn 0.000000 0.000000 1.000000
vn 0.000000 0.000000 1.000000
vn 0.000000 0.000000 1.000000
vn 0.000000 0.000000 1.000000
vn 0.000000 0.000000 1.000000
vn 0.000000 0.000000 1.000000
vn 0.000000 0.000000 1.000000
vn 0.000000 0.000000 1.000000
vn 0.000000 0.000000 1.000000
vn 0.000000 0.000000 1.000000
vn 0.000000 0.000000 1.000000
vn 0.000000 0.000000 1.000000
vn 0.000000 0.000000 1.000000
vn 0.000000 0.000000 1.000000
vn 0.000000 0.000000 1.000000
vn 0.000000 0.000000 1.000000
vn 0.000000 0.000000 1.000000
vn 0.000000 0.000000 1.000000
vn 0.000000 0.000000 1.000000
vn 0.000000 0.000000 1.000000
vn 0.000000 0.000000 1.000000
vn 0.000000 0.000000 1.000000
vn 0.000000 0.000000 1.000000
vn -0.346368 0.849930 -0.397050
vn -0.346368 0.849930 -0.397050
vn -0.346368 0.849930 -0.397050
vn -0.346368 0.849930 -0.397050
vn -0.838444 0.298259 -0.456130
vn -0.838444 0.298259 -0.456130
vn -0.838444 0.298259 -0.456130
vn -0.838444 0.298259 -0.456130
vn 0.023177 -0.909670 -0.414686
vn 0.023177 -0.909670 -0.414686
vn 0.023177 -0.909670 -0.414686
vn 0.023177 -0.909670 -0.414686
vn 0.849782 -0.231728 -0.473468
vn 0.849782 -0.231728 -0.473468
vn 0.849782 -0.231728 -0.473468
vn 0.849782 -0.231728 -0.473468
vn 0.645247 -0.621703 -0.444006
vn 0.645247 -0.621703 -0.444006
vn 0.645247 -0.621703 -0.444006
vn 0.645247 -0.621703 -0.444006
vn -0.332384 -0.838804 -0.431195
vn -0.332384 -0.838804 -0.431195
vn -0.332384 -0.838804 -0.431195
vn -0.332384 -0.838804 -0.431195
vn -0.867066 -0.192816 -0.459368
vn -0.867066 -0.192816 -0.459368
vn -0.867066 -0.192816 -0.459368
vn -0.867066 -0.192816 -0.459368
vn -0.830348 0.274776 -0.484788
vn -0.830348 0.274776 -0.484788
vn -0.830348 0.274776 -0.484788
vn -0.830348 0.274776 -0.484788
vn -0.618937 0.583138 -0.526181
vn -0.618937 0.583138 -0.526181
vn -0.618937 0.583138 -0.526181
vn -0.618937 0.583138 -0.526181
vn -0.680288 0.561665 -0.470893
vn -0.680288 0.561665 -0.470893
vn -0.680288 0.561665 -0.470893
vn -0.680288 0.561665 -0.470893
vn -0.896063 0.161913 -0.413346
vn -0.896063 0.161913 -0.413346
vn -0.896063 0.161913 -0.413346
vn -0.896063 0.161913 -0.413346
vn -0.010264 -0.889698 -0.456435
vn -0.010264 -0.889698 -0.456435
vn -0.010264 -0.889698 -0.456435
vn -0.010264 -0.889698 -0.456435
vn 0.912794 0.019838 -0.407938
vn 0.912794 0.019838 -0.407938
vn 0.912794 0.019838 -0.407938
vn 0.912794 0.019838 -0.407938
vn 0.000675 0.919960 -0.392012
vn 0.000675 0.919960 -0.392012
vn 0.000675 0.919960 -0.392012
vn 0.000675 0.919960 -0.392012
vn 0.794534 -0.392110 -0.463644
vn 0.794534 -0.392110 -0.463644
vn 0.794534 -0.392110 -0.463644
vn 0.794534 -0.392110 -0.463644
vn 0.637627 -0.666106 -0.386955
vn 0.637627 -0.666106 -0.386955
vn 0.637627 -0.666106 -0.386955
vn 0.637627 -0.666106 -0.386955
vn 0.726557 -0.563058 -0.393803
vn 0.726557 -0.563058 -0.393803
vn 0.726557 -0.563058 -0.393803
vn 0.726557 -0.563058 -0.393803
vn 0.868456 -0.294876 -0.398539
vn 0.868456 -0.294876 -0.398539
vn 0.868456 -0.294876 -0.398539
vn 0.868456 -0.294876 -0.398539
vn 0.882290 0.264165 -0.389592
vn 0.882290 0.264165 -0.389592
vn 0.882290 0.264165 -0.389592
vn 0.882290 0.264165 -0.389592
vn 0.271819 0.883221 -0.382145
vn 0.271819 0.883221 -0.382145
vn 0.271819 0.883221 -0.382145
vn 0.271819 0.883221 -0.382145
vn -0.000000 0.000000 -1.000000
vn -0.000000 0.000000 -1.000000
vn -0.000000 0.000000 -1.000000
vn -0.000000 0.000000 -1.000000
vn -0.000000 0.000000 -1.000000
vn -0.000000 0.000000 -1.000000
vn -0.000000 0.000000 -1.000000
vn -0.000000 0.000000 -1.000000
vn -0.000000 0.000000 -1.000000
vn -0.000000 0.000000 -1.000000
vn -0.000000 0.000000 -1.000000
vn -0.000000 0.000000 -1.000000
vn -0.000000 0.000000 -1.000000
vn -0.000000 0.000000 -1.000000
vn -0.000000 0.000000 -1.000000
vn -0.000000 0.000000 -1.000000
vn -0.000000 0.000000 -1.000000
vn -0.000000 0.000000 -1.000000
vn -0.000000 0.000000 -1.000000
vn -0.000000 0.000000 -1.000000
vn -0.000000 0.000000 -1.000000
vn -0.000000 0.000000 -1.000000
vn -0.000000 0.000000 -1.000000
vn -0.000000 0.000000 -1.000000
vn -0.000000 0.000000 -1.000000
vn -0.000000 0.000000 -1.000000
vn -0.000000 0.000000 -1.000000
vn -0.000000 0.000000 -1.000000
vn -0.000000 0.000000 -1.000000
vn -0.000000 0.000000 -1.000000
vn -0.000000 0.000000 -1.000000
vn -0.000000 0.000000 -1.000000
vn -0.000000 0.000000 -1.000000
vn -0.000000 0.000000 -1.000000
vn -0.000000 0.000000 -1.000000
vn -0.000000 0.000000 -1.000000
vn -0.000000 0.000000 -1.000000
vn -0.000000 0.000000 -1.000000
s off
f 1/1/1 2/2/2 22/3/3 21/4/4
f 2/2/5 3/5/6 23/6/7 22/3/8
f 3/5/9 4/7/10 24/8/11 23/6/12
f 4/7/13 5/9/14 25/10/15 24/8/16
f 5/9/17 6/11/18 26/12/19 25/10/20
f 6/11/21 7/13/22 27/14/23 26/12/24
f 7/13/25 8/15/26 28/16/27 27/14/28
f 8/15/29 9/17/30 29/18/31 28/16/32
f 9/17/33 10/19/34 30/20/35 29/18/36
f 10/19/37 11/21/38 31/22/39 30/20/40
f 11/21/41 12/23/42 32/24/43 31/22/44
f 12/23/45 13/25/46 33/26/47 32/24/48
f 13/25/49 14/27/50 34/28/51 33/26/52
f 14/27/53 15/29/54 35/30/55 34/28/56
f 15/29/57 16/31/58 36/32/59 35/30/60
f 16/31/61 17/33/62 37/34/63 36/32/64
f 17/33/65 18/35/66 38/36/67 37/34/68
f 18/35/69 19/37/70 39/38/71 38/36/72
f 19/37/73 20/39/74 40/40/75 39/38/76
f 20/39/77 1/1/78 21/4/79 40/40/80
f 22/3/81 23/6/82 24/8/83 25/10/84
f 21/4/85 22/3/86 25/10/87 26/12/88
f 40/40/89 21/4/90 26/12/91 27/14/92
f 39/38/93 40/40/94 27/14/95 28/16/96
f 38/36/97 39/38/98 28/16/99 29/18/100
f 38/36/101 29/18/102 37/34/103
f 32/24/104 33/26/105 34/28/106 35/30/107
f 32/24/108 35/30/109 31/22/110
f 31/22/111 35/30/112 36/32/113 30/20/114
f 30/20/115 36/32/116 37/34/117 29/18/118
f 1/1/119 41/41/120 42/42/121 2/2/122
f 2/2/123 42/42/124 43/43/125 3/5/126
f 3/5/127 43/43/128 44/44/129 4/7/130
f 4/7/131 44/44/132 45/45/133 5/9/134
f 5/9/135 45/45/136 46/46/137 6/11/138
f 6/11/139 46/46/140 47/47/141 7/13/142
f 7/13/143 47/47/144 48/48/145 8/15/146
f 8/15/147 48/48/148 49/49/149 9/17/150
f 9/17/151 49/49/152 50/50/153 10/19/154
f 10/19/155 50/50/156 51/51/157 11/21/158
f 11/21/159 51/51/160 52/52/161 12/23/162
f 12/23/163 52/52/164 53/53/165 13/25/166
f 13/25/167 53/53/168 54/54/169 14/27/170
f 14/27/171 54/54/172 55/55/173 15/29/174
f 15/29/175 55/55/176 56/56/177 16/31/178
f 16/31/179 56/56/180 57/57/181 17/33/182
f 17/33/183 57/57/184 58/58/185 18/35/186
f 18/35/187 58/58/188 59/59/189 19/37/190
f 19/37/191 59/59/192 60/60/193 20/39/194
f 20/39/195 60/60/196 41/41/197 1/1/198
f 44/44/199 43/43/200 42/42/201 45/45/202
f 45/45/203 42/42/204 41/41/205 46/46/206
f 46/46/207 41/41/208 60/60/209 47/47/210
f 47/47/211 60/60/212 59/59/213 48/48/214
f 48/48/215 59/59/216 58/58/217 49/49/218
f 58/58/219 57/57/220 49/49/221
f 50/50/222 49/49/223 57/57/224 56/56/225
f 54/54/226 53/53/227 52/52/228 55/55/229
f 52/52/230 51/51/231 55/55/232
f 55/55/233 51/51/234 50/50/235 56/56/236
