# This file uses centimeters as units for non-parametric coordinates.

v -2.848633 -11.978920 4.000000
v 2.808228 -9.102348 4.000000
v -3.470154 -13.474892 0.000000
v 3.798523 -7.741661 0.000000
v 0.865967 -16.852257 4.000000
v 7.439148 -16.717194 4.000000
v 8.352722 -18.437141 -0.000000
v 0.961426 -19.168388 0.000000
v -6.923401 -4.616043 4.000000
v -1.288635 -1.750710 4.000000
v -0.372559 -1.284843 0.000000
v -7.708130 -5.015076 0.000000
v -10.207886 3.148705 4.000000
v -4.930664 5.832253 4.000000
v -11.403320 3.720726 0.000000
v -3.522827 5.193306 0.000000
v -12.222534 8.886490 4.000000
v -8.241211 14.118515 4.000000
v -9.190735 16.062401 0.000000
v -13.435059 9.714211 0.000000
v 0.145020 8.413284 3.999999
v 1.287964 7.591209 0.000000
v -4.126160 18.637787 0.000000
v -3.739563 16.407631 3.999999
v 7.455261 -6.739258 3.999999
v 11.778137 -14.510773 3.999999
v 13.116882 -15.723862 -0.000000
v 7.606567 -5.708351 0.000000
v 0.379944 8.892181 2.000000
v 1.162231 8.787651 0.000000
v -2.802551 15.748039 2.000000
v 0.998840 9.834084 2.000000
v 1.616760 9.645966 0.000000
v -1.580078 15.817451 2.000000
v 8.298767 -6.975372 2.000001
v 12.205505 -13.937996 1.999999
v 8.343262 -6.486938 0.000000
v 9.117493 -6.731689 2.194032
v 13.099121 -13.042358 2.113749
v 13.784363 -13.539406 0.000000
v 9.183228 -6.205856 0.000000
v -2.853699 17.318604 0.000000
v -1.810242 17.296997 -0.000000
v -0.030823 13.324348 -0.000000
v 12.758545 -14.421459 0.000000
v -2.848633 -11.978920 -4.000000
v 2.808228 -9.102348 -4.000000
v 0.865967 -16.852257 -4.000000
v 7.439148 -16.717194 -4.000000
v -6.923401 -4.616043 -4.000000
v -1.288635 -1.750710 -4.000000
v -10.207886 3.148705 -4.000000
v -4.930664 5.832253 -4.000000
v -12.222534 8.886490 -4.000000
v -8.241211 14.118515 -4.000000
v 0.145020 8.413284 -3.999999
v -3.739563 16.407631 -3.999999
v 7.455261 -6.739258 -3.999999
v 11.778137 -14.510773 -3.999999
v 0.379944 8.892181 -2.000000
v -2.802551 15.748039 -2.000000
v 0.998840 9.834084 -2.000000
v -1.580078 15.817451 -2.000000
v 8.298767 -6.975372 -2.000001
v 12.205505 -13.937996 -1.999999
v 9.117493 -6.731689 -2.194032
v 13.099121 -13.042358 -2.113749
vt 0.546006 0.951037
vt 0.543859 0.953831
vt 0.540877 0.952740
vt 0.543036 0.949950
vt 0.541901 0.955681
vt 0.541850 0.956560
vt 0.537954 0.956282
vt 0.538436 0.955630
vt 0.540355 0.952223
vt 0.542553 0.949773
vt 0.546420 0.951189
vt 0.544186 0.954399
vt 0.544956 0.947072
vt 0.547738 0.948091
vt 0.548800 0.945913
vt 0.546701 0.943928
vt 0.547202 0.943190
vt 0.549439 0.945599
vt 0.544214 0.947315
vt 0.548368 0.947874
vt 0.541678 0.946404
vt 0.542281 0.946093
vt 0.544328 0.943059
vt 0.544532 0.942213
vt 0.536149 0.954792
vt 0.538427 0.951843
vt 0.535443 0.955253
vt 0.538348 0.951452
vt 0.541745 0.945951
vt 0.542157 0.945911
vt 0.543834 0.943309
vt 0.542140 0.925702
vt 0.542741 0.925660
vt 0.543091 0.926006
vt 0.535924 0.954575
vt 0.537983 0.951933
vt 0.537959 0.951747
vt 0.542616 0.926082
vt 0.539693 0.928465
vt 0.540633 0.928493
vt 0.541824 0.927488
vt 0.543861 0.942713
vt 0.540456 0.929089
vt 0.548228 0.919308
vt 0.535632 0.954758
vt 0.551231 0.916502
vt 0.546006 0.951037
vt 0.543859 0.953831
vt 0.540877 0.952740
vt 0.543036 0.949950
vt 0.541901 0.955681
vt 0.541850 0.956560
vt 0.537954 0.956282
vt 0.538436 0.955630
vt 0.540355 0.952223
vt 0.542553 0.949773
vt 0.546420 0.951189
vt 0.544186 0.954399
vt 0.544956 0.947072
vt 0.547738 0.948091
vt 0.548800 0.945913
vt 0.546701 0.943928
vt 0.547202 0.943190
vt 0.549439 0.945599
vt 0.544214 0.947315
vt 0.548368 0.947874
vt 0.541678 0.946404
vt 0.542281 0.946093
vt 0.544328 0.943059
vt 0.544532 0.942213
vt 0.536149 0.954792
vt 0.538427 0.951843
vt 0.535443 0.955253
vt 0.538348 0.951452
vt 0.541745 0.945951
vt 0.542157 0.945911
vt 0.543834 0.943309
vt 0.551918 0.916863
vt 0.548857 0.919406
vt 0.551656 0.916307
vt 0.552445 0.916663
vt 0.535924 0.954575
vt 0.537983 0.951933
vt 0.535632 0.954758
vt 0.537959 0.951747
vt 0.548262 0.919505
vt 0.548908 0.919618
vt 0.539654 0.929098
vt 0.542140 0.925702
vt 0.542616 0.926082
vt 0.543861 0.942713
vt 0.539693 0.928465
vt 0.540633 0.928493
vt 0.548228 0.919308
vt 0.548857 0.919406
vt 0.551918 0.916863
vt 0.551231 0.916502
vn 0.000000 0.000000 1.000000
vn 0.000000 0.000000 1.000000
vn 0.000000 0.000000 1.000000
vn 0.000000 0.000000 1.000000
vn 0.055128 -0.888640 0.455281
vn 0.055128 -0.888640 0.455281
vn 0.227555 -0.865691 0.445868
vn 0.206072 -0.870057 0.447811
vn 0.845490 0.456829 0.276503
vn 0.816730 0.489025 0.306278
vn 0.816730 0.489025 0.306278
vn 0.879622 0.475673 0.000000
vn -0.903845 -0.427860 -0.000000
vn -0.885264 -0.465090 -0.000000
vn -0.855561 -0.449485 0.256863
vn -0.878461 -0.415501 0.235936
vn 0.000000 0.000000 1.000000
vn 0.000000 0.000000 1.000000
vn 0.000000 0.000000 1.000000
vn 0.000000 0.000000 1.000000
vn -0.749132 -0.577520 0.324457
vn -0.749132 -0.577520 0.324457
vn -0.749132 -0.577520 0.324457
vn -0.749132 -0.577520 0.324457
vn 0.000000 0.000000 1.000000
vn 0.000000 0.000000 1.000000
vn 0.000000 0.000000 1.000000
vn 0.000000 0.000000 1.000000
vn -0.751398 0.533732 0.387982
vn -0.621869 0.651715 0.434220
vn -0.595147 0.671575 0.441346
vn -0.751398 0.533733 0.387982
vn 0.845490 0.456829 0.276503
vn 0.879622 0.475673 0.000000
vn 0.900447 0.434966 0.000000
vn 0.873116 0.421764 0.244506
vn -0.903845 -0.427860 -0.000000
vn -0.878461 -0.415501 0.235936
vn -0.899570 -0.380515 0.214434
vn -0.920994 -0.389577 0.000000
vn 0.000000 0.000000 1.000000
vn 0.000000 0.000000 1.000000
vn 0.000000 0.000000 1.000000
vn 0.000000 0.000000 1.000000
vn -0.945345 -0.326071 -0.000000
vn -0.921793 -0.317948 0.221824
vn -0.921793 -0.317948 0.221824
vn -0.945345 -0.326071 -0.000000
vn 0.430042 -0.853918 0.293067
vn 0.430042 -0.853918 0.293067
vn 0.430042 -0.853918 0.293067
vn 0.430042 -0.853918 0.293067
vn -0.595147 0.671575 0.441346
vn -0.621869 0.651715 0.434220
vn -0.398705 0.784068 0.475681
vn -0.398705 0.784068 0.475681
vn 0.000000 0.000000 1.000000
vn 0.000000 0.000000 1.000000
vn 0.000000 0.000000 1.000000
vn 0.000000 0.000000 1.000000
vn 0.000000 0.000000 1.000000
vn 0.000000 0.000000 1.000000
vn 0.000000 0.000000 1.000000
vn 0.000000 0.000000 1.000000
vn 0.227555 -0.865691 0.445868
vn 0.432530 -0.800330 0.415199
vn 0.432530 -0.800330 0.415199
vn 0.206072 -0.870057 0.447811
vn -0.452426 0.870097 0.195554
vn -0.452426 0.870098 0.195554
vn -0.461333 0.887227 0.000000
vn -0.461333 0.887227 0.000000
vn 0.880945 0.408084 0.239591
vn 0.932459 0.250268 0.260550
vn 0.932459 0.250268 0.260550
vn 0.892307 0.379828 0.243963
vn 0.854657 0.453133 0.253440
vn 0.880945 0.408084 0.239591
vn 0.892307 0.379828 0.243963
vn 0.850864 0.458860 0.255885
vn 0.813647 -0.485158 0.320314
vn 0.813647 -0.485158 0.320314
vn 0.813647 -0.485158 0.320314
vn 0.813647 -0.485158 0.320314
vn -0.000000 0.000000 1.000000
vn -0.000000 0.000000 1.000000
vn -0.000000 0.000000 1.000000
vn -0.000000 0.000000 1.000000
vn 0.893985 0.393798 0.213807
vn 0.915147 0.403120 0.000000
vn 0.915147 0.403120 0.000000
vn 0.915147 0.403120 0.000000
vn 0.893985 0.393798 0.213807
vn 0.824647 0.481422 0.296968
vn 0.843406 0.446386 0.299008
vn 0.867295 0.405453 0.288802
vn 0.808778 0.515348 0.283363
vn 0.843406 0.446386 0.299008
vn 0.974537 0.224225 0.000000
vn 0.974537 0.224225 0.000000
vn 0.867295 0.405453 0.288802
vn 0.708553 0.705658 -0.000000
vn 0.824647 0.481422 0.296968
vn 0.808778 0.515348 0.283363
vn 0.708553 0.705658 -0.000000
vn -0.124537 -0.079995 0.988985
vn -0.124537 -0.079995 0.988985
vn -0.124537 -0.079995 0.988985
vn -0.124537 -0.079995 0.988985
vn 0.624148 -0.696559 0.353899
vn 0.624148 -0.696559 0.353899
vn 0.624148 -0.696559 0.353899
vn 0.624148 -0.696559 0.353899
vn -0.324958 0.945728 -0.000000
vn -0.317357 0.923607 0.215020
vn -0.317357 0.923608 0.215020
vn -0.324958 0.945729 -0.000000
vn 0.837343 0.525843 0.149488
vn 0.846858 0.531818 0.000000
vn 0.846858 0.531818 0.000000
vn 0.837343 0.525843 0.149488
vn 0.772389 0.560522 0.298713
vn 0.772390 0.560522 0.298713
vn 0.854657 0.453133 0.253440
vn 0.850864 0.458860 0.255885
vn -0.016762 0.794512 0.607017
vn -0.016762 0.794512 0.607017
vn -0.016762 0.794512 0.607017
vn -0.016762 0.794512 0.607017
vn 0.000000 0.000000 -1.000000
vn 0.000000 0.000000 -1.000000
vn 0.000000 0.000000 -1.000000
vn 0.000000 0.000000 -1.000000
vn 0.055128 -0.888640 -0.455281
vn 0.206072 -0.870057 -0.447811
vn 0.227555 -0.865691 -0.445867
vn 0.055128 -0.888640 -0.455281
vn 0.845490 0.456829 -0.276503
vn 0.879622 0.475673 0.000000
vn 0.816730 0.489025 -0.306278
vn 0.816730 0.489025 -0.306278
vn -0.903845 -0.427860 -0.000000
vn -0.878461 -0.415501 -0.235936
vn -0.855561 -0.449485 -0.256863
vn -0.885264 -0.465090 -0.000000
vn 0.000000 0.000000 -1.000000
vn 0.000000 0.000000 -1.000000
vn 0.000000 0.000000 -1.000000
vn 0.000000 0.000000 -1.000000
vn -0.749131 -0.577520 -0.324457
vn -0.749131 -0.577520 -0.324457
vn -0.749132 -0.577520 -0.324457
vn -0.749131 -0.577520 -0.324457
vn 0.000000 0.000000 -1.000000
vn 0.000000 0.000000 -1.000000
vn 0.000000 0.000000 -1.000000
vn 0.000000 0.000000 -1.000000
vn -0.751398 0.533732 -0.387982
vn -0.751398 0.533733 -0.387982
vn -0.595147 0.671575 -0.441346
vn -0.621869 0.651715 -0.434220
vn 0.845490 0.456829 -0.276503
vn 0.873116 0.421764 -0.244506
vn 0.900447 0.434966 0.000000
vn 0.879622 0.475673 0.000000
vn -0.903845 -0.427860 -0.000000
vn -0.920994 -0.389577 0.000000
vn -0.899570 -0.380515 -0.214434
vn -0.878461 -0.415501 -0.235936
vn 0.000000 0.000000 -1.000000
vn 0.000000 0.000000 -1.000000
vn 0.000000 0.000000 -1.000000
vn 0.000000 0.000000 -1.000000
vn -0.945345 -0.326071 -0.000000
vn -0.945345 -0.326071 -0.000000
vn -0.921793 -0.317948 -0.221824
vn -0.921793 -0.317948 -0.221824
vn 0.430042 -0.853918 -0.293067
vn 0.430042 -0.853918 -0.293067
vn 0.430042 -0.853918 -0.293067
vn 0.430042 -0.853918 -0.293067
vn -0.595147 0.671575 -0.441346
vn -0.398705 0.784068 -0.475681
vn -0.398705 0.784068 -0.475681
vn -0.621869 0.651715 -0.434220
vn 0.000000 0.000000 -1.000000
vn 0.000000 0.000000 -1.000000
vn 0.000000 0.000000 -1.000000
vn 0.000000 0.000000 -1.000000
vn 0.000000 0.000000 -1.000000
vn 0.000000 0.000000 -1.000000
vn 0.000000 0.000000 -1.000000
vn 0.000000 0.000000 -1.000000
vn 0.227555 -0.865691 -0.445867
vn 0.206072 -0.870057 -0.447811
vn 0.432530 -0.800330 -0.415199
vn 0.432530 -0.800330 -0.415199
vn -0.452426 0.870097 -0.195554
vn -0.461333 0.887227 0.000000
vn -0.461333 0.887227 0.000000
vn -0.452426 0.870098 -0.195554
vn 0.880945 0.408084 -0.239591
vn 0.892307 0.379828 -0.243963
vn 0.932459 0.250268 -0.260550
vn 0.932459 0.250268 -0.260550
vn 0.854657 0.453133 -0.253440
vn 0.850864 0.458860 -0.255885
vn 0.892307 0.379828 -0.243963
vn 0.880945 0.408084 -0.239591
vn 0.813647 -0.485158 -0.320314
vn 0.813647 -0.485158 -0.320314
vn 0.813647 -0.485158 -0.320314
vn 0.813647 -0.485158 -0.320314
vn 0.000000 0.000000 -1.000000
vn 0.000000 0.000000 -1.000000
vn 0.000000 0.000000 -1.000000
vn 0.000000 0.000000 -1.000000
vn 0.893985 0.393798 -0.213807
vn 0.893985 0.393798 -0.213807
vn 0.915147 0.403120 0.000000
vn 0.915147 0.403120 0.000000
vn 0.915147 0.403120 0.000000
vn 0.824647 0.481422 -0.296968
vn 0.808778 0.515348 -0.283363
vn 0.867295 0.405453 -0.288802
vn 0.843406 0.446386 -0.299008
vn 0.843406 0.446386 -0.299008
vn 0.867295 0.405453 -0.288802
vn 0.974537 0.224225 0.000000
vn 0.974537 0.224225 0.000000
vn 0.708553 0.705658 -0.000000
vn 0.708553 0.705658 -0.000000
vn 0.808778 0.515348 -0.283363
vn 0.824647 0.481422 -0.296968
vn -0.124537 -0.079995 -0.988985
vn -0.124537 -0.079995 -0.988985
vn -0.124537 -0.079995 -0.988985
vn -0.124537 -0.079995 -0.988985
vn 0.624148 -0.696559 -0.353899
vn 0.624148 -0.696559 -0.353899
vn 0.624148 -0.696559 -0.353899
vn 0.624148 -0.696559 -0.353899
vn -0.324958 0.945728 -0.000000
vn -0.324958 0.945729 -0.000000
vn -0.317357 0.923607 -0.215020
vn -0.317357 0.923607 -0.215020
vn 0.837343 0.525843 -0.149488
vn 0.837343 0.525843 -0.149488
vn 0.846858 0.531818 0.000000
vn 0.846858 0.531818 0.000000
vn 0.772390 0.560522 -0.298713
vn 0.850864 0.458860 -0.255885
vn 0.854657 0.453133 -0.253440
vn 0.772389 0.560522 -0.298713
vn -0.016762 0.794512 -0.607017
vn -0.016762 0.794512 -0.607017
vn -0.016762 0.794512 -0.607017
vn -0.016762 0.794512 -0.607017
s off
f 9/1/1 1/2/2 2/3/3 10/4/4
f 5/5/5 8/6/6 7/7/7 6/8/8
f 10/4/9 2/3/10 4/9/11 11/10/12
f 12/11/13 3/12/14 1/2/15 9/1/16
f 1/2/17 5/5/18 6/8/19 2/3/20
f 3/12/21 8/6/22 5/5/23 1/2/24
f 9/1/25 10/4/26 14/13/27 13/14/28
f 17/15/29 18/16/30 19/17/31 20/18/32
f 10/4/33 11/10/34 16/19/35 14/13/36
f 12/11/37 9/1/38 13/14/39 15/20/40
f 13/14/41 14/13/42 18/16/43 17/15/44
f 15/20/45 13/14/46 17/15/47 20/18/48
f 14/13/49 16/19/50 22/21/51 21/22/52
f 19/17/53 18/16/54 24/23/55 23/24/56
f 18/16/57 14/13/58 21/22/59 24/23/60
f 6/8/61 26/25/62 25/26/63 2/3/64
f 7/7/65 27/27/66 26/25/67 6/8/68
f 2/3/69 25/26/70 28/28/71 4/9/72
f 21/22/73 22/21/74 30/29/75 29/30/76
f 24/23/77 21/22/78 29/30/79 31/31/80
f 29/32/81 30/33/82 33/34/83 32/38/84
f 31/39/85 29/32/86 32/38/87 34/40/88
f 32/38/89 33/34/90 44/41/91 43/43/92 34/40/93
f 25/26/94 26/25/95 36/35/96 35/36/97
f 26/25/98 27/27/99 45/45/100 36/35/101
f 28/28/102 25/26/103 35/36/104 37/37/105
f 35/44/106 36/46/107 39/78/108 38/79/109
f 36/46/110 45/80/111 40/81/112 39/78/113
f 37/86/114 35/44/115 38/79/116 41/87/117
f 39/78/118 40/81/119 41/87/120 38/79/121
f 42/42/122 23/24/123 24/23/124 31/31/125
f 43/43/126 42/88/127 31/39/128 34/40/129
f 50/47/130 51/50/131 47/49/132 46/48/133
f 48/51/134 49/54/135 7/53/136 8/52/137
f 51/50/138 11/56/139 4/55/140 47/49/141
f 12/57/142 50/47/143 46/48/144 3/58/145
f 46/48/146 47/49/147 49/54/148 48/51/149
f 3/58/150 46/48/151 48/51/152 8/52/153
f 50/47/154 52/60/155 53/59/156 51/50/157
f 54/61/158 20/64/159 19/63/160 55/62/161
f 51/50/162 53/59/163 16/65/164 11/56/165
f 12/57/166 15/66/167 52/60/168 50/47/169
f 52/60/170 54/61/171 55/62/172 53/59/173
f 15/66/174 20/64/175 54/61/176 52/60/177
f 53/59/178 56/68/179 22/67/180 16/65/181
f 19/63/182 23/70/183 57/69/184 55/62/185
f 55/62/186 57/69/187 56/68/188 53/59/189
f 49/54/190 47/49/191 58/72/192 59/71/193
f 7/53/194 49/54/195 59/71/196 27/73/197
f 47/49/198 4/55/199 28/74/200 58/72/201
f 56/68/202 60/76/203 30/75/204 22/67/205
f 57/69/206 61/77/207 60/76/208 56/68/209
f 60/89/210 62/90/211 33/34/212 30/33/213
f 61/92/214 63/93/215 62/90/216 60/89/217
f 62/90/218 63/93/219 43/43/220 44/41/221 33/34/222
f 58/72/223 64/83/224 65/82/225 59/71/226
f 59/71/227 65/82/228 45/84/229 27/73/230
f 28/74/231 37/85/232 64/83/233 58/72/234
f 64/94/235 66/95/236 67/96/237 65/97/238
f 65/97/239 67/96/240 40/81/241 45/80/242
f 37/86/243 41/87/244 66/95/245 64/94/246
f 67/96/247 66/95/248 41/87/249 40/81/250
f 42/91/251 61/77/252 57/69/253 23/70/254
f 43/43/255 63/93/256 61/92/257 42/88/258
