# This file uses centimeters as units for non-parametric coordinates.

v 0.301331 -17.592823 2.097928
v -8.767609 17.936792 2.097927
v 9.107788 17.709520 2.097927
v -17.978302 4.311890 3.902073
v 17.665802 3.427488 3.902073
v -9.602997 20.000000 -0.000000
v 9.602997 20.000000 0.000000
v -20.000000 4.000000 -0.000000
v 20.000000 4.000000 0.000000
v 0.000000 -20.000000 0.000000
v -7.289368 3.928963 3.902073
v 7.290314 3.568347 3.902073
v 2.726715 17.790651 2.097927
v -2.386566 17.855661 2.097927
v 0.301331 -17.592823 -2.097928
v -8.767609 17.936792 -2.097927
v 9.107788 17.709520 -2.097927
v -17.978302 4.311890 -3.902073
v 17.665802 3.427488 -3.902073
v -7.289368 3.928963 -3.902073
v 7.290314 3.568347 -3.902073
v 2.726715 17.790651 -2.097927
v -2.386566 17.855661 -2.097927
vt 0.389761 0.954760
vt 0.389821 0.954749
vt 0.388854 0.954738
vt 0.389313 0.955337
vt 0.389089 0.954349
vt 0.389555 0.954337
vt 0.389297 0.955294
vt 0.388879 0.954750
vt 0.389520 0.954384
vt 0.389201 0.954392
vt 0.389095 0.954394
vt 0.389409 0.954757
vt 0.389414 0.954387
vt 0.389189 0.954754
vt 0.389333 0.982803
vt 0.388905 0.982815
vt 0.389039 0.982395
vt 0.389188 0.982394
vt 0.389109 0.983394
vt 0.389095 0.954394
vt 0.389189 0.954754
vt 0.388879 0.954750
vt 0.389297 0.955294
vt 0.389520 0.954384
vt 0.389761 0.954760
vt 0.389409 0.954757
vt 0.389414 0.954387
vt 0.389555 0.954337
vt 0.389821 0.954749
vt 0.388854 0.954738
vt 0.389089 0.954349
vt 0.389313 0.955337
vt 0.389201 0.954392
vt 0.389333 0.982803
vt 0.388905 0.982815
vt 0.389039 0.982395
vt 0.389188 0.982394
vt 0.389109 0.983394
vn 0.001715 0.126338 0.991986
vn 0.001715 0.126338 0.991986
vn 0.001715 0.126338 0.991986
vn -0.001148 -0.084573 0.996417
vn -0.001148 -0.084573 0.996417
vn -0.001148 -0.084573 0.996417
vn 0.004593 0.128216 0.991736
vn 0.004593 0.128216 0.991736
vn 0.004593 0.128216 0.991736
vn -0.003031 -0.084597 0.996411
vn -0.003031 -0.084597 0.996411
vn -0.003031 -0.084597 0.996411
vn 0.001626 0.127909 0.991785
vn 0.001626 0.127909 0.991785
vn 0.001626 0.127909 0.991785
vn 0.009088 0.714760 0.699311
vn 0.009088 0.714760 0.699311
vn 0.009088 0.714760 0.699311
vn -0.714441 0.502515 0.486881
vn -0.714441 0.502515 0.486881
vn -0.714441 0.502515 0.486881
vn -0.714441 0.502515 0.486881
vn 0.693095 0.466579 0.549476
vn 0.693095 0.466579 0.549476
vn 0.693095 0.466579 0.549476
vn 0.693095 0.466579 0.549476
vn -0.651755 -0.563447 0.507683
vn -0.651755 -0.563447 0.507683
vn -0.651755 -0.563447 0.507683
vn -0.651755 -0.563447 0.507683
vn 0.691842 -0.590826 0.415065
vn 0.691842 -0.590826 0.415065
vn 0.691842 -0.590826 0.415065
vn 0.691842 -0.590826 0.415065
vn 0.001606 0.126352 0.991984
vn 0.001606 0.126352 0.991984
vn 0.001606 0.126352 0.991984
vn 0.002747 0.127112 0.991885
vn 0.002747 0.127112 0.991885
vn 0.002747 0.127112 0.991885
vn 0.002747 0.127112 0.991885
vn -0.002084 -0.084266 0.996441
vn -0.002084 -0.084266 0.996441
vn -0.002084 -0.084266 0.996441
vn 0.001855 0.694009 0.719964
vn 0.001855 0.694009 0.719964
vn 0.001855 0.694009 0.719964
vn 0.001855 0.694009 0.719964
vn 0.008575 0.674397 0.738319
vn 0.008575 0.674397 0.738319
vn 0.008575 0.674397 0.738319
vn 0.001715 0.126338 -0.991986
vn 0.001715 0.126338 -0.991986
vn 0.001715 0.126338 -0.991986
vn -0.001148 -0.084573 -0.996417
vn -0.001148 -0.084573 -0.996417
vn -0.001148 -0.084573 -0.996417
vn 0.004593 0.128216 -0.991736
vn 0.004593 0.128216 -0.991736
vn 0.004593 0.128216 -0.991736
vn -0.003031 -0.084597 -0.996411
vn -0.003031 -0.084597 -0.996411
vn -0.003031 -0.084597 -0.996411
vn 0.001626 0.127909 -0.991785
vn 0.001626 0.127909 -0.991785
vn 0.001626 0.127909 -0.991785
vn 0.009088 0.714760 -0.699311
vn 0.009088 0.714760 -0.699311
vn 0.009088 0.714760 -0.699311
vn -0.714441 0.502515 -0.486881
vn -0.714441 0.502515 -0.486881
vn -0.714441 0.502515 -0.486881
vn -0.714441 0.502515 -0.486881
vn 0.693095 0.466579 -0.549476
vn 0.693095 0.466579 -0.549476
vn 0.693095 0.466579 -0.549476
vn 0.693095 0.466579 -0.549476
vn -0.651755 -0.563447 -0.507683
vn -0.651755 -0.563447 -0.507683
vn -0.651755 -0.563447 -0.507683
vn -0.651755 -0.563447 -0.507683
vn 0.691842 -0.590826 -0.415065
vn 0.691842 -0.590826 -0.415065
vn 0.691842 -0.590826 -0.415065
vn 0.691842 -0.590826 -0.415065
vn 0.001606 0.126352 -0.991984
vn 0.001606 0.126352 -0.991984
vn 0.001606 0.126352 -0.991984
vn 0.002747 0.127112 -0.991885
vn 0.002747 0.127112 -0.991885
vn 0.002747 0.127112 -0.991885
vn 0.002747 0.127112 -0.991885
vn -0.002084 -0.084266 -0.996441
vn -0.002084 -0.084266 -0.996441
vn -0.002084 -0.084266 -0.996441
vn 0.001855 0.694009 -0.719964
vn 0.001855 0.694009 -0.719964
vn 0.001855 0.694009 -0.719964
vn 0.001855 0.694009 -0.719964
vn 0.008575 0.674398 -0.738319
vn 0.008575 0.674398 -0.738319
vn 0.008575 0.674398 -0.738319
s off
f 3/11/1 12/14/2 5/8/3
f 5/8/4 12/14/5 1/7/6
f 2/9/7 4/1/8 11/12/9
f 1/7/10 11/12/11 4/1/12
f 2/9/13 11/12/14 14/13/15
f 2/9/16 14/13/17 6/6/18
f 4/1/19 2/9/20 6/6/21 8/2/22
f 3/11/23 5/8/24 9/3/25 7/5/26
f 1/7/27 4/1/28 8/2/29 10/4/30
f 5/8/31 1/7/32 10/4/33 9/3/34
f 13/10/35 12/14/36 3/11/37
f 11/15/38 12/16/39 13/17/40 14/18/41
f 11/15/42 1/19/43 12/16/44
f 6/6/45 14/13/46 13/10/47 7/5/48
f 7/5/49 13/10/50 3/11/51
f 17/20/52 19/22/53 21/21/54
f 19/22/55 15/23/56 21/21/57
f 16/24/58 20/26/59 18/25/60
f 15/23/61 18/25/62 20/26/63
f 16/24/64 23/27/65 20/26/66
f 16/24/67 6/28/68 23/27/69
f 18/25/70 8/29/71 6/28/72 16/24/73
f 17/20/74 7/31/75 9/30/76 19/22/77
f 15/23/78 10/32/79 8/29/80 18/25/81
f 19/22/82 9/30/83 10/32/84 15/23/85
f 22/33/86 17/20/87 21/21/88
f 20/34/89 23/37/90 22/36/91 21/35/92
f 20/34/93 21/35/94 15/38/95
f 6/28/96 7/31/97 22/33/98 23/27/99
f 7/31/100 17/20/101 22/33/102
