# This file uses centimeters as units for non-parametric coordinates.

v -17.545073 -6.289392 0.000000
v 4.125133 14.682150 -0.000000
v 10.085677 11.350620 -0.000000
v 11.567958 7.588918 0.000032
v 15.148268 7.477178 0.000220
v 19.604485 0.646815 -0.000439
v 11.505793 -6.289392 -0.000000
v 17.341774 -4.425793 -0.000439
v 18.603645 4.362654 -0.000077
v -19.695202 -2.894842 0.000000
v -16.848207 -4.961512 4.000000
v -18.882248 1.692935 0.000000
v -15.370054 5.395677 0.000000
v -11.635253 5.748022 0.000000
v -10.456205 7.330993 0.000000
v -8.019286 8.278442 0.000000
v -5.490018 7.532662 0.000000
v -2.821711 11.856511 0.000000
v -11.230541 5.028449 4.000000
v -9.968765 6.690735 4.000000
v -15.012482 4.660972 4.000000
v -18.141405 1.357392 4.000000
v -18.200932 -1.877256 4.000000
v 11.388834 -4.948564 4.000000
v 16.229891 -3.468716 4.000000
v 18.101963 0.764883 4.000000
v 17.280792 3.867669 4.000000
v 14.518442 6.451969 4.000000
v 10.620710 6.439747 4.000000
v 9.033541 10.578362 4.000000
v 3.977953 13.368583 4.000000
v -2.313875 11.219007 4.000000
v -5.185149 6.736223 4.000000
v -7.985149 7.466635 4.000000
v -16.848207 -4.961512 -4.000000
v -11.230541 5.028449 -4.000000
v -9.968765 6.690735 -4.000000
v -15.012482 4.660972 -4.000000
v -18.141405 1.357392 -4.000000
v -18.200932 -1.877256 -4.000000
v 11.388834 -4.948564 -4.000000
v 16.229891 -3.468716 -4.000000
v 18.101963 0.764883 -4.000000
v 17.280792 3.867669 -4.000000
v 14.518442 6.451969 -4.000000
v 10.620710 6.439747 -4.000000
v 9.033541 10.578362 -4.000000
v 3.977953 13.368583 -4.000000
v -2.313875 11.219007 -4.000000
v -5.185149 6.736223 -4.000000
v -7.985149 7.466635 -4.000000
v -2.892248 -13.418141 2.000000
v -0.556793 -12.814237 2.000000
v -2.122062 -8.579761 2.000000
v 3.711022 -8.352562 2.000000
v 2.795916 -13.125139 2.000000
v -1.030130 -13.836745 2.000000
v -2.791787 -18.014069 2.000000
v -3.478326 -14.197848 0.000000
v -2.642131 -7.752918 0.000000
v 4.470461 -7.752918 0.000000
v -0.067215 -12.556736 0.000000
v 3.577315 -12.556736 0.000000
v -3.637522 -19.174911 -0.000000
v -1.368183 -14.197848 -0.000000
v -2.892248 -13.418141 -2.000000
v -0.556793 -12.814237 -2.000000
v -2.122062 -8.579761 -2.000000
v 3.711022 -8.352562 -2.000000
v 2.795916 -13.125139 -2.000000
v -1.030130 -13.836745 -2.000000
v -2.791787 -18.014069 -2.000000
vt 0.984396 0.957136
vt 0.984309 0.957225
vt 0.984433 0.957161
vt 0.984386 0.957050
vt 0.984302 0.956963
vt 0.983601 0.957218
vt 0.984201 0.956954
vt 0.984168 0.956910
vt 0.984115 0.956890
vt 0.984041 0.956909
vt 0.983964 0.956792
vt 0.983799 0.956737
vt 0.983665 0.956810
vt 0.983623 0.956918
vt 0.983473 0.957179
vt 0.983424 0.957068
vt 0.983447 0.956986
vt 0.983520 0.956918
vt 0.983611 0.957260
vt 0.983463 0.957213
vt 0.983407 0.957084
vt 0.983433 0.956991
vt 0.983521 0.956912
vt 0.983612 0.956909
vt 0.983650 0.956815
vt 0.983800 0.956731
vt 0.984170 0.956914
vt 0.984201 0.956954
vt 0.984296 0.956962
vt 0.984387 0.957056
vt 0.983976 0.956801
vt 0.984044 0.956909
vt 0.984108 0.956890
vt 0.983464 0.957094
vt 0.984280 0.957228
vt 0.983508 0.957197
vt 0.983627 0.957233
vt 0.983484 0.957019
vt 0.983552 0.956956
vt 0.983647 0.956956
vt 0.983686 0.956856
vt 0.983809 0.956789
vt 0.984360 0.957157
vt 0.984351 0.957078
vt 0.984273 0.956998
vt 0.984180 0.956989
vt 0.984149 0.956949
vt 0.984101 0.956930
vt 0.984032 0.956948
vt 0.983962 0.956840
vt 0.984322 0.957263
vt 0.143145 0.982520
vt 0.142940 0.982376
vt 0.142667 0.981956
vt 0.143095 0.981956
vt 0.143018 0.982520
vt 0.142721 0.982376
vt 0.143155 0.982956
vt 0.143149 0.982514
vt 0.143100 0.981963
vt 0.142682 0.981963
vt 0.142949 0.982374
vt 0.142735 0.982374
vt 0.143158 0.982940
vt 0.143025 0.982514
vt 0.143145 0.982520
vt 0.143095 0.981956
vt 0.142667 0.981956
vt 0.142940 0.982376
vt 0.142721 0.982376
vt 0.143018 0.982520
vt 0.143155 0.982956
vt 0.143149 0.982514
vt 0.143100 0.981963
vt 0.142682 0.981963
vt 0.142949 0.982374
vt 0.142735 0.982374
vt 0.143158 0.982940
vt 0.143025 0.982514
vn 0.000000 0.000000 1.000000
vn 0.000000 0.000000 1.000000
vn 0.000000 0.000000 1.000000
vn 0.000000 0.000000 1.000000
vn 0.000000 0.000000 1.000000
vn 0.000000 0.000000 1.000000
vn 0.000000 0.000000 1.000000
vn 0.000000 0.000000 1.000000
vn 0.000000 0.000000 1.000000
vn 0.000000 0.000000 1.000000
vn -0.000000 0.000000 1.000000
vn -0.000000 0.000000 1.000000
vn -0.000000 0.000000 1.000000
vn -0.000000 0.000000 1.000000
vn -0.000000 0.000000 1.000000
vn -0.000000 0.000000 1.000000
vn -0.000000 0.000000 1.000000
vn 0.000000 0.000000 1.000000
vn 0.000000 0.000000 1.000000
vn 0.000000 0.000000 1.000000
vn 0.000000 0.000000 1.000000
vn 0.000000 0.000000 1.000000
vn 0.000000 0.000000 1.000000
vn 0.000000 0.000000 1.000000
vn 0.000000 0.000000 1.000000
vn 0.000000 0.000000 1.000000
vn 0.000000 0.000000 1.000000
vn 0.000000 0.000000 1.000000
vn 0.000000 0.000000 1.000000
vn 0.000000 0.000000 1.000000
vn 0.000000 0.000000 1.000000
vn 0.000000 0.000000 1.000000
vn 0.000000 0.000000 1.000000
vn 0.284629 -0.908900 0.304775
vn 0.284629 -0.908900 0.304775
vn 0.284629 -0.908900 0.304775
vn 0.284629 -0.908900 0.304775
vn 0.861696 -0.382855 0.333019
vn 0.861696 -0.382855 0.333019
vn 0.861696 -0.382855 0.333019
vn 0.861696 -0.382855 0.333019
vn 0.910917 0.243389 0.333156
vn 0.910917 0.243389 0.333156
vn 0.910917 0.243389 0.333156
vn 0.910917 0.243389 0.333156
vn 0.646289 0.705121 0.291744
vn 0.646289 0.705121 0.291744
vn 0.646289 0.705121 0.291744
vn 0.646289 0.705121 0.291744
vn 0.012826 0.964267 0.264622
vn 0.012826 0.964267 0.264622
vn 0.012826 0.964267 0.264622
vn 0.012826 0.964267 0.264622
vn 0.887789 0.344927 0.304724
vn 0.887789 0.344927 0.304724
vn 0.887789 0.344927 0.304724
vn 0.887789 0.344927 0.304724
vn 0.465167 0.837070 0.287983
vn 0.465167 0.837070 0.287983
vn 0.465167 0.837070 0.287983
vn 0.465167 0.837070 0.287983
vn -0.341749 0.909368 0.237187
vn -0.341749 0.909368 0.237187
vn -0.341749 0.909368 0.237187
vn -0.341749 0.909368 0.237187
vn -0.784953 0.590379 0.187889
vn -0.784953 0.590379 0.187889
vn -0.784953 0.590379 0.187889
vn -0.784953 0.590379 0.187889
vn -0.093650 0.977943 0.186699
vn -0.093650 0.977943 0.186699
vn -0.093650 0.977943 0.186699
vn -0.093650 0.977943 0.186699
vn -0.712793 0.675638 0.188255
vn -0.712793 0.675638 0.188255
vn -0.712793 0.675638 0.188255
vn -0.712793 0.675638 0.188255
vn -0.959909 0.107064 0.259060
vn -0.959909 0.107064 0.259060
vn -0.959909 0.107064 0.259060
vn -0.959909 0.107064 0.259060
vn -0.822192 -0.444529 0.355520
vn -0.822192 -0.444529 0.355520
vn -0.822192 -0.444529 0.355520
vn -0.822192 -0.444529 0.355520
vn -0.832868 0.523894 0.178514
vn -0.832868 0.523894 0.178514
vn -0.832868 0.523894 0.178514
vn -0.832868 0.523894 0.178514
vn 0.262612 0.948066 0.179462
vn 0.262612 0.948066 0.179462
vn 0.262612 0.948066 0.179462
vn 0.262612 0.948066 0.179462
vn -0.356657 0.914855 0.189307
vn -0.356657 0.914855 0.189307
vn -0.356657 0.914855 0.189307
vn -0.356657 0.914855 0.189307
vn -0.000000 0.000000 -1.000000
vn -0.000000 0.000000 -1.000000
vn -0.000000 0.000000 -1.000000
vn -0.000000 0.000000 -1.000000
vn 0.000000 0.000000 -1.000000
vn 0.000000 0.000000 -1.000000
vn 0.000000 0.000000 -1.000000
vn 0.000000 0.000000 -1.000000
vn 0.000000 0.000000 -1.000000
vn 0.000000 0.000000 -1.000000
vn 0.000000 0.000000 -1.000000
vn -0.000000 0.000000 -1.000000
vn -0.000000 0.000000 -1.000000
vn -0.000000 0.000000 -1.000000
vn -0.000000 0.000000 -1.000000
vn 0.000000 0.000000 -1.000000
vn 0.000000 0.000000 -1.000000
vn 0.000000 0.000000 -1.000000
vn 0.000000 0.000000 -1.000000
vn 0.000000 0.000000 -1.000000
vn 0.000000 0.000000 -1.000000
vn 0.000000 0.000000 -1.000000
vn 0.000000 0.000000 -1.000000
vn 0.000000 0.000000 -1.000000
vn 0.000000 0.000000 -1.000000
vn 0.000000 0.000000 -1.000000
vn -0.000000 0.000000 -1.000000
vn -0.000000 0.000000 -1.000000
vn -0.000000 0.000000 -1.000000
vn 0.000001 0.000000 -1.000000
vn 0.000001 0.000000 -1.000000
vn 0.000001 0.000000 -1.000000
vn 0.000000 0.000000 -1.000000
vn 0.000000 0.000000 -1.000000
vn 0.000000 0.000000 -1.000000
vn -0.822192 -0.444529 -0.355520
vn -0.822192 -0.444529 -0.355520
vn -0.822192 -0.444529 -0.355520
vn -0.822192 -0.444529 -0.355520
vn 0.000214 -0.948615 -0.316432
vn 0.000214 -0.948615 -0.316432
vn 0.000214 -0.948615 -0.316432
vn 0.000214 -0.948615 -0.316432
vn -0.784953 0.590379 -0.187889
vn -0.784953 0.590379 -0.187889
vn -0.784953 0.590379 -0.187889
vn -0.784953 0.590379 -0.187889
vn -0.093650 0.977943 -0.186699
vn -0.093650 0.977943 -0.186699
vn -0.093650 0.977943 -0.186699
vn -0.093650 0.977943 -0.186699
vn -0.712793 0.675638 -0.188255
vn -0.712793 0.675638 -0.188255
vn -0.712793 0.675638 -0.188255
vn -0.712793 0.675638 -0.188255
vn -0.959909 0.107064 -0.259060
vn -0.959909 0.107064 -0.259060
vn -0.959909 0.107064 -0.259060
vn -0.959909 0.107064 -0.259060
vn 0.284603 -0.908898 -0.304804
vn 0.284603 -0.908898 -0.304804
vn 0.284603 -0.908898 -0.304804
vn 0.284603 -0.908898 -0.304804
vn 0.861675 -0.382846 -0.333084
vn 0.861675 -0.382846 -0.333084
vn 0.861675 -0.382846 -0.333084
vn 0.861675 -0.382846 -0.333084
vn 0.910895 0.243419 -0.333193
vn 0.910895 0.243419 -0.333193
vn 0.910895 0.243419 -0.333193
vn 0.910895 0.243419 -0.333193
vn 0.646276 0.705137 -0.291734
vn 0.646276 0.705137 -0.291734
vn 0.646276 0.705137 -0.291734
vn 0.646276 0.705137 -0.291734
vn 0.012839 0.964270 -0.264609
vn 0.012839 0.964270 -0.264609
vn 0.012839 0.964270 -0.264609
vn 0.012839 0.964270 -0.264609
vn 0.887790 0.344925 -0.304722
vn 0.887790 0.344925 -0.304722
vn 0.887790 0.344925 -0.304722
vn 0.887790 0.344925 -0.304722
vn 0.465167 0.837070 -0.287983
vn 0.465167 0.837070 -0.287983
vn 0.465167 0.837070 -0.287983
vn 0.465167 0.837070 -0.287983
vn -0.341749 0.909368 -0.237187
vn -0.341749 0.909368 -0.237187
vn -0.341749 0.909368 -0.237187
vn -0.341749 0.909368 -0.237187
vn -0.832868 0.523893 -0.178514
vn -0.832868 0.523893 -0.178514
vn -0.832868 0.523893 -0.178514
vn -0.832868 0.523893 -0.178514
vn 0.262612 0.948066 -0.179462
vn 0.262612 0.948066 -0.179462
vn 0.262612 0.948066 -0.179462
vn 0.262612 0.948066 -0.179462
vn -0.356657 0.914855 -0.189307
vn -0.356657 0.914855 -0.189307
vn -0.356657 0.914855 -0.189307
vn -0.356657 0.914855 -0.189307
vn 0.000214 -0.948615 0.316432
vn 0.000214 -0.948615 0.316432
vn 0.000214 -0.948615 0.316432
vn 0.000214 -0.948615 0.316432
vn 0.000000 -0.000000 1.000000
vn 0.000000 -0.000000 1.000000
vn 0.000000 -0.000000 1.000000
vn 0.000000 -0.000000 1.000000
vn 0.000000 0.000000 1.000000
vn 0.000000 0.000000 1.000000
vn 0.000000 0.000000 1.000000
vn 0.000000 0.000000 1.000000
vn 0.000000 0.000000 1.000000
vn 0.000000 0.000000 1.000000
vn 0.000000 0.000000 1.000000
vn -0.954473 0.135886 0.265548
vn -0.954473 0.135886 0.265548
vn -0.954473 0.135886 0.265548
vn -0.954473 0.135886 0.265548
vn -0.016534 0.942081 0.334977
vn -0.016534 0.942081 0.334977
vn -0.016534 0.942081 0.334977
vn -0.016534 0.942081 0.334977
vn 0.722636 -0.686759 0.078483
vn 0.722636 -0.686759 -0.078483
vn 0.722636 -0.686759 -0.078483
vn 0.722636 -0.686759 0.078483
vn 0.043348 0.975605 -0.215213
vn 0.043348 0.975605 -0.215213
vn 0.043348 0.975605 0.215213
vn 0.043348 0.975605 0.215213
vn 0.665199 -0.740085 0.098915
vn 0.665199 -0.740085 0.098915
vn 0.665199 -0.740085 -0.098915
vn 0.665199 -0.740085 -0.098915
vn -0.908947 0.400241 0.116714
vn -0.908947 0.400241 -0.116714
vn -0.908947 0.400241 -0.116714
vn -0.908947 0.400241 0.116714
vn -0.100163 -0.950475 0.294219
vn -0.100163 -0.950475 0.294219
vn -0.100163 -0.950475 0.294219
vn -0.100163 -0.950475 0.294219
vn 0.000000 -0.000000 -1.000000
vn 0.000000 -0.000000 -1.000000
vn 0.000000 -0.000000 -1.000000
vn 0.000000 -0.000000 -1.000000
vn 0.000000 0.000000 -1.000000
vn 0.000000 0.000000 -1.000000
vn 0.000000 0.000000 -1.000000
vn 0.000000 0.000000 -1.000000
vn 0.000000 0.000000 -1.000000
vn 0.000000 0.000000 -1.000000
vn 0.000000 0.000000 -1.000000
vn -0.954473 0.135886 -0.265548
vn -0.954473 0.135886 -0.265548
vn -0.954473 0.135886 -0.265548
vn -0.954473 0.135886 -0.265548
vn -0.016534 0.942081 -0.334977
vn -0.016534 0.942081 -0.334977
vn -0.016534 0.942081 -0.334977
vn -0.016534 0.942081 -0.334977
vn 0.722636 -0.686759 -0.078483
vn 0.722636 -0.686759 -0.078483
vn 0.722636 -0.686759 -0.078483
vn 0.722636 -0.686759 -0.078483
vn 0.043348 0.975605 -0.215213
vn 0.043348 0.975605 -0.215213
vn 0.043348 0.975605 -0.215213
vn 0.043348 0.975605 -0.215213
vn 0.665199 -0.740085 -0.098915
vn 0.665199 -0.740085 -0.098915
vn 0.665199 -0.740085 -0.098915
vn 0.665199 -0.740085 -0.098915
vn -0.908947 0.400241 -0.116714
vn -0.908947 0.400241 -0.116714
vn -0.908947 0.400241 -0.116714
vn -0.908947 0.400241 -0.116714
vn -0.100163 -0.950475 -0.294219
vn -0.100163 -0.950475 -0.294219
vn -0.100163 -0.950475 -0.294219
vn -0.100163 -0.950475 -0.294219
s off
f 23/1/1 11/2/2 22/4/3
f 21/5/4 22/4/5 11/2/6 24/6/7
f 21/5/8 24/6/9 19/7/10
f 20/8/11 19/7/12 24/6/13 34/9/14
f 34/9/15 24/6/16 33/10/17
f 32/11/18 33/10/19 24/6/20 31/12/21
f 30/13/22 31/12/23 24/6/24 29/14/25
f 29/14/26 24/6/27 25/15/28 26/16/29
f 29/14/30 26/16/31 27/17/32 28/18/33
f 7/19/34 8/20/35 25/15/36 24/6/37
f 8/20/38 6/21/39 26/16/40 25/15/41
f 6/21/42 9/22/43 27/17/44 26/16/45
f 9/22/46 5/23/47 28/18/48 27/17/49
f 5/23/50 4/24/51 29/14/52 28/18/53
f 4/24/54 3/25/55 30/13/56 29/14/57
f 3/25/58 2/26/59 31/12/60 30/13/61
f 31/12/62 2/26/63 18/31/64 32/11/65
f 15/27/66 14/28/67 19/7/68 20/8/69
f 14/28/70 13/29/71 21/5/72 19/7/73
f 13/29/74 12/30/75 22/4/76 21/5/77
f 12/30/78 10/3/79 23/1/80 22/4/81
f 11/2/82 23/1/83 10/3/84 1/51/85
f 18/31/86 17/32/87 33/10/88 32/11/89
f 17/32/90 16/33/91 34/9/92 33/10/93
f 16/33/94 15/27/95 20/8/96 34/9/97
f 43/34/98 42/36/99 41/37/100 44/38/101
f 45/39/102 44/38/103 41/37/104 46/40/105
f 41/37/106 35/35/107 46/40/108
f 47/41/109 46/40/110 35/35/111 48/42/112
f 40/43/113 39/44/114 35/35/115
f 35/35/116 39/44/117 38/45/118 36/46/119
f 37/47/120 51/48/121 50/49/122 36/46/123
f 36/46/124 50/49/125 35/35/126
f 35/35/127 50/49/128 48/42/129
f 50/49/130 49/50/131 48/42/132
f 35/35/133 1/51/134 10/3/135 40/43/136
f 7/19/137 1/51/138 35/35/139 41/37/140
f 15/27/141 37/47/142 36/46/143 14/28/144
f 14/28/145 36/46/146 38/45/147 13/29/148
f 13/29/149 38/45/150 39/44/151 12/30/152
f 12/30/153 39/44/154 40/43/155 10/3/156
f 7/19/157 41/37/158 42/36/159 8/20/160
f 8/20/161 42/36/162 43/34/163 6/21/164
f 6/21/165 43/34/166 44/38/167 9/22/168
f 9/22/169 44/38/170 45/39/171 5/23/172
f 5/23/173 45/39/174 46/40/175 4/24/176
f 4/24/177 46/40/178 47/41/179 3/25/180
f 3/25/181 47/41/182 48/42/183 2/26/184
f 48/42/185 49/50/186 18/31/187 2/26/188
f 18/31/189 49/50/190 50/49/191 17/32/192
f 17/32/193 50/49/194 51/48/195 16/33/196
f 16/33/197 51/48/198 37/47/199 15/27/200
f 7/19/201 24/6/202 11/2/203 1/51/204
f 52/52/205 53/53/206 55/54/207 54/55/208
f 53/53/209 52/52/210 57/56/211 56/57/212
f 56/57/213 57/56/214 58/58/215
f 59/59/216 52/52/217 54/55/218 60/60/219
f 54/55/220 55/54/221 61/61/222 60/60/223
f 53/53/224 62/62/225 61/61/226 55/54/227
f 63/63/228 62/62/229 53/53/230 56/57/231
f 56/57/232 58/58/233 64/64/234 63/63/235
f 57/56/236 65/65/237 64/64/238 58/58/239
f 52/52/240 59/59/241 65/65/242 57/56/243
f 66/66/244 68/67/245 69/68/246 67/69/247
f 67/69/248 70/70/249 71/71/250 66/66/251
f 70/70/252 72/72/253 71/71/254
f 59/73/255 60/74/256 68/67/257 66/66/258
f 68/67/259 60/74/260 61/75/261 69/68/262
f 67/69/263 69/68/264 61/75/265 62/76/266
f 63/77/267 70/70/268 67/69/269 62/76/270
f 70/70/271 63/77/272 64/78/273 72/72/274
f 71/71/275 72/72/276 64/78/277 65/79/278
f 66/66/279 71/71/280 65/79/281 59/73/282
