# This file uses centimeters as units for non-parametric coordinates.

v 5.919701 8.886806 2.000000
v 8.686909 5.931458 2.000000
v 13.990337 15.211123 2.000000
v 15.293438 13.660280 2.000000
v 12.145424 14.879189 -0.000000
v 14.867489 12.157128 -0.000000
v 5.097595 9.005311 -0.000000
v 8.993656 5.109250 -0.000000
v 16.950619 16.962374 2.000000
v 17.709324 17.721054 -0.000000
v 17.380993 6.155341 2.000000
v 16.910641 3.991697 -0.000000
v 19.612965 7.584170 -0.000000
v 18.883907 7.936938 2.000000
v 5.884888 17.369236 2.000000
v 3.979939 16.922398 -0.000000
v 8.172195 18.643263 2.000000
v 7.572414 19.624723 0.000000
v 13.875816 -2.699750 -0.000000
v 9.154747 8.867862 -0.000000
v -2.064575 13.615725 -0.000000
v -13.391068 8.653531 -0.000000
v -18.031759 -2.672960 -0.000000
v -13.417858 -13.811911 0.000000
v -2.278908 -18.425812 0.000000
v 9.020794 -13.865494 0.000000
v 13.011234 -2.672958 4.000000
v 8.532856 8.138802 4.000000
v -2.278908 12.617182 4.000000
v -12.562038 8.033077 4.000000
v -17.093277 -2.725824 4.000000
v -12.826355 -13.220407 4.000000
v -2.305340 -17.408033 4.000000
v 8.400700 -13.246840 4.000000
v 9.449276 -2.672960 4.000000
v 6.014168 5.620117 4.000000
v -2.278908 9.055221 4.000000
v -10.545553 5.593686 4.000000
v -14.007092 -2.672961 4.000000
v -10.571987 -10.966038 4.000000
v -2.278908 -14.401141 4.000000
v 6.014172 -10.966040 4.000000
v 8.562408 -2.672960 0.000000
v 5.387058 4.993009 0.000000
v -2.278908 8.168358 0.000000
v -9.574833 4.887282 0.000000
v -12.459431 -2.382212 0.000000
v -9.336948 -9.836726 -0.000000
v -2.199615 -13.012075 -0.000000
v 5.360630 -9.942454 -0.000000
v 5.919701 8.886806 -2.000000
v 8.686909 5.931458 -2.000000
v 13.990337 15.211123 -2.000000
v 15.293438 13.660280 -2.000000
v 16.950619 16.962374 -2.000000
v 17.380993 6.155341 -2.000000
v 18.883907 7.936938 -2.000000
v 5.884888 17.369236 -2.000000
v 8.172195 18.643263 -2.000000
v 13.011234 -2.672958 -4.000000
v 8.532856 8.138802 -4.000000
v -2.278908 12.617182 -4.000000
v -12.562038 8.033077 -4.000000
v -17.093277 -2.725824 -4.000000
v -12.826355 -13.220407 -4.000000
v -2.305340 -17.408033 -4.000000
v 8.400700 -13.246840 -4.000000
v 9.449276 -2.672960 -4.000000
v 6.014168 5.620117 -4.000000
v -2.278908 9.055221 -4.000000
v -10.545553 5.593686 -4.000000
v -14.007092 -2.672961 -4.000000
v -10.571987 -10.966038 -4.000000
v -2.278908 -14.401141 -4.000000
v 6.014172 -10.966040 -4.000000
vt 0.458466 0.983570
vt 0.459294 0.982685
vt 0.461272 0.984998
vt 0.460881 0.985462
vt 0.458217 0.983601
vt 0.459383 0.982435
vt 0.461144 0.984548
vt 0.460329 0.985363
vt 0.461767 0.985986
vt 0.461896 0.982752
vt 0.461755 0.982105
vt 0.462564 0.983180
vt 0.462346 0.983285
vt 0.457886 0.985974
vt 0.458456 0.986108
vt 0.459140 0.986489
vt 0.458961 0.986783
vt 0.461994 0.986213
vt 0.461092 0.980095
vt 0.459570 0.983823
vt 0.459370 0.983588
vt 0.460813 0.980104
vt 0.455954 0.985354
vt 0.455885 0.985032
vt 0.452304 0.983754
vt 0.452571 0.983554
vt 0.450808 0.980104
vt 0.451111 0.980087
vt 0.452295 0.976514
vt 0.452486 0.976705
vt 0.455885 0.975027
vt 0.455877 0.975355
vt 0.459527 0.976497
vt 0.459327 0.976696
vt 0.458558 0.982777
vt 0.459665 0.980104
vt 0.455885 0.983884
vt 0.453221 0.982768
vt 0.452105 0.980104
vt 0.453212 0.977431
vt 0.455885 0.976324
vt 0.458558 0.977431
vt 0.458356 0.982575
vt 0.459379 0.980104
vt 0.455885 0.983598
vt 0.453534 0.982541
vt 0.452604 0.980198
vt 0.453610 0.977795
vt 0.455911 0.976772
vt 0.458347 0.977761
vt 0.458466 0.983570
vt 0.459294 0.982685
vt 0.461272 0.984998
vt 0.460881 0.985462
vt 0.458217 0.983601
vt 0.459383 0.982435
vt 0.461144 0.984548
vt 0.460329 0.985363
vt 0.461767 0.985986
vt 0.461896 0.982752
vt 0.461755 0.982105
vt 0.462564 0.983180
vt 0.462346 0.983285
vt 0.457886 0.985974
vt 0.458456 0.986108
vt 0.459140 0.986489
vt 0.458961 0.986783
vt 0.461994 0.986213
vt 0.461092 0.980095
vt 0.459570 0.983823
vt 0.459370 0.983588
vt 0.460813 0.980104
vt 0.455954 0.985354
vt 0.455885 0.985032
vt 0.452304 0.983754
vt 0.452571 0.983554
vt 0.450808 0.980104
vt 0.451111 0.980087
vt 0.452295 0.976514
vt 0.452486 0.976705
vt 0.455885 0.975027
vt 0.455877 0.975355
vt 0.459527 0.976497
vt 0.459327 0.976696
vt 0.458558 0.982777
vt 0.459665 0.980104
vt 0.455885 0.983884
vt 0.453221 0.982768
vt 0.452105 0.980104
vt 0.453212 0.977431
vt 0.455885 0.976324
vt 0.458558 0.977431
vt 0.458356 0.982575
vt 0.459379 0.980104
vt 0.455885 0.983598
vt 0.453534 0.982541
vt 0.452604 0.980198
vt 0.453610 0.977795
vt 0.455911 0.976772
vt 0.458347 0.977761
vn 0.000000 0.000000 1.000000
vn 0.000000 0.000000 1.000000
vn 0.000000 0.000000 1.000000
vn 0.000000 0.000000 1.000000
vn -0.716881 -0.697195 0.000000
vn -0.716881 -0.697195 0.000000
vn -0.700863 -0.681617 0.210213
vn -0.700863 -0.681617 0.210213
vn 0.720554 -0.608578 0.332318
vn 0.720554 -0.608578 0.332318
vn 0.720554 -0.608578 0.332318
vn 0.720554 -0.608578 0.332318
vn -0.587538 0.728195 0.352889
vn -0.587538 0.728195 0.352889
vn -0.587538 0.728195 0.352889
vn -0.587538 0.728195 0.352889
vn 0.000000 0.000000 1.000000
vn 0.000000 0.000000 1.000000
vn 0.000000 0.000000 1.000000
vn 0.721216 -0.564356 0.401684
vn 0.721216 -0.564356 0.401684
vn 0.721216 -0.564356 0.401684
vn 0.721216 -0.564356 0.401684
vn -0.508645 0.752127 0.419029
vn -0.508645 0.752127 0.419029
vn -0.508645 0.752127 0.419029
vn -0.508645 0.752127 0.419029
vn -0.881690 -0.232413 0.410618
vn -0.881690 -0.232413 0.410618
vn -0.881690 -0.232413 0.410618
vn -0.881690 -0.232413 0.410618
vn 0.915177 0.183249 0.358987
vn 0.915177 0.183249 0.358987
vn 0.915177 0.183249 0.358987
vn 0.915177 0.183249 0.358987
vn 0.000000 0.000000 1.000000
vn 0.000000 0.000000 1.000000
vn 0.000000 0.000000 1.000000
vn 0.000000 0.000000 1.000000
vn -0.230267 -0.891781 0.389491
vn -0.230267 -0.891781 0.389491
vn -0.230267 -0.891781 0.389491
vn -0.230267 -0.891781 0.389491
vn 0.000000 0.000000 1.000000
vn 0.000000 0.000000 1.000000
vn 0.000000 0.000000 1.000000
vn 0.000000 0.000000 1.000000
vn 0.170748 0.901019 0.398760
vn 0.170748 0.901019 0.398760
vn 0.170748 0.901019 0.398760
vn 0.170748 0.901019 0.398760
vn 0.924905 0.380199 -0.000000
vn 0.924905 0.380199 -0.000000
vn 0.906021 0.372436 0.201041
vn 0.906021 0.372436 0.201041
vn 0.386278 0.922382 0.000000
vn 0.386278 0.922382 0.000000
vn 0.375649 0.897001 0.232974
vn 0.375649 0.897001 0.232974
vn -0.404088 0.914720 0.000000
vn -0.404088 0.914720 0.000000
vn -0.394966 0.894070 0.211285
vn -0.394966 0.894070 0.211285
vn -0.923526 0.383535 0.000000
vn -0.923526 0.383535 0.000000
vn -0.898770 0.373254 0.229988
vn -0.898770 0.373254 0.229988
vn -0.925086 -0.379759 0.000000
vn -0.925086 -0.379759 0.000000
vn -0.906684 -0.372205 0.198462
vn -0.906684 -0.372205 0.198462
vn -0.376457 -0.926434 0.000000
vn -0.376457 -0.926434 0.000000
vn -0.368200 -0.906116 0.208282
vn -0.368200 -0.906116 0.208282
vn 0.368447 -0.929649 -0.000000
vn 0.368447 -0.929649 -0.000000
vn 0.359846 -0.907948 0.214806
vn 0.359846 -0.907948 0.214806
vn 0.916861 -0.399207 0.000000
vn 0.916861 -0.399207 0.000000
vn 0.898645 -0.391275 0.198343
vn 0.898645 -0.391275 0.198343
vn -0.000000 0.000000 1.000000
vn -0.000000 0.000000 1.000000
vn -0.000000 0.000000 1.000000
vn -0.000000 0.000000 1.000000
vn 0.000000 0.000000 1.000000
vn 0.000000 0.000000 1.000000
vn 0.000000 0.000000 1.000000
vn 0.000000 0.000000 1.000000
vn 0.000000 0.000000 1.000000
vn 0.000000 0.000000 1.000000
vn 0.000000 0.000000 1.000000
vn 0.000000 0.000000 1.000000
vn -0.000000 0.000000 1.000000
vn -0.000000 0.000000 1.000000
vn -0.000000 0.000000 1.000000
vn -0.000000 0.000000 1.000000
vn -0.000000 0.000000 1.000000
vn -0.000000 0.000000 1.000000
vn -0.000000 0.000000 1.000000
vn -0.000000 0.000000 1.000000
vn 0.000000 0.000000 1.000000
vn 0.000000 0.000000 1.000000
vn 0.000000 0.000000 1.000000
vn 0.000000 0.000000 1.000000
vn 0.000000 0.000000 1.000000
vn 0.000000 0.000000 1.000000
vn 0.000000 0.000000 1.000000
vn 0.000000 0.000000 1.000000
vn 0.000000 0.000000 1.000000
vn 0.000000 0.000000 1.000000
vn 0.000000 0.000000 1.000000
vn 0.000000 0.000000 1.000000
vn -0.905086 -0.374899 0.200673
vn -0.905086 -0.374899 0.200673
vn -0.923880 -0.382684 0.000000
vn -0.923880 -0.382684 0.000000
vn -0.374899 -0.905086 0.200672
vn -0.374899 -0.905086 0.200672
vn -0.382684 -0.923880 0.000000
vn -0.382683 -0.923880 0.000000
vn 0.387351 -0.894041 0.225057
vn 0.387350 -0.894041 0.225057
vn 0.397549 -0.917581 0.000000
vn 0.397549 -0.917581 0.000000
vn 0.883966 -0.361078 0.297031
vn 0.883966 -0.361078 0.297031
vn 0.883966 -0.361078 0.297031
vn 0.883966 -0.361078 0.297031
vn 0.860255 0.358226 0.362817
vn 0.860255 0.358226 0.362817
vn 0.860255 0.358226 0.362817
vn 0.860255 0.358226 0.362817
vn 0.371209 0.866493 0.333756
vn 0.371209 0.866493 0.333756
vn 0.371209 0.866493 0.333756
vn 0.371209 0.866493 0.333756
vn -0.362956 0.884597 0.292832
vn -0.362956 0.884597 0.292832
vn -0.362956 0.884597 0.292832
vn -0.362956 0.884597 0.292832
vn -0.896964 0.382523 0.221655
vn -0.896964 0.382523 0.221655
vn -0.919845 0.392281 -0.000000
vn -0.919845 0.392281 -0.000000
vn 0.000000 0.000000 -1.000000
vn 0.000000 0.000000 -1.000000
vn 0.000000 0.000000 -1.000000
vn 0.000000 0.000000 -1.000000
vn -0.716881 -0.697195 0.000000
vn -0.700863 -0.681617 -0.210213
vn -0.700863 -0.681617 -0.210213
vn -0.716881 -0.697195 0.000000
vn 0.720554 -0.608578 -0.332318
vn 0.720554 -0.608578 -0.332318
vn 0.720554 -0.608578 -0.332318
vn 0.720554 -0.608578 -0.332318
vn -0.587538 0.728195 -0.352889
vn -0.587538 0.728195 -0.352889
vn -0.587538 0.728195 -0.352889
vn -0.587538 0.728195 -0.352889
vn 0.000000 0.000000 -1.000000
vn 0.000000 0.000000 -1.000000
vn 0.000000 0.000000 -1.000000
vn 0.721216 -0.564356 -0.401684
vn 0.721216 -0.564356 -0.401684
vn 0.721216 -0.564356 -0.401684
vn 0.721216 -0.564356 -0.401684
vn -0.508645 0.752127 -0.419030
vn -0.508645 0.752127 -0.419030
vn -0.508645 0.752127 -0.419030
vn -0.508645 0.752127 -0.419030
vn -0.881690 -0.232413 -0.410618
vn -0.881690 -0.232413 -0.410618
vn -0.881690 -0.232413 -0.410618
vn -0.881690 -0.232413 -0.410618
vn 0.915177 0.183249 -0.358987
vn 0.915177 0.183249 -0.358987
vn 0.915177 0.183249 -0.358987
vn 0.915177 0.183249 -0.358987
vn -0.000000 0.000000 -1.000000
vn -0.000000 0.000000 -1.000000
vn -0.000000 0.000000 -1.000000
vn -0.000000 0.000000 -1.000000
vn -0.230267 -0.891781 -0.389491
vn -0.230267 -0.891781 -0.389491
vn -0.230267 -0.891781 -0.389491
vn -0.230267 -0.891781 -0.389491
vn 0.000000 0.000000 -1.000000
vn 0.000000 0.000000 -1.000000
vn 0.000000 0.000000 -1.000000
vn 0.000000 0.000000 -1.000000
vn 0.170748 0.901019 -0.398760
vn 0.170748 0.901019 -0.398760
vn 0.170748 0.901019 -0.398760
vn 0.170748 0.901019 -0.398760
vn 0.924905 0.380199 -0.000000
vn 0.906021 0.372436 -0.201041
vn 0.906021 0.372436 -0.201041
vn 0.924905 0.380199 -0.000000
vn 0.386278 0.922382 0.000000
vn 0.375649 0.897001 -0.232974
vn 0.375649 0.897001 -0.232974
vn 0.386278 0.922382 0.000000
vn -0.404088 0.914720 0.000000
vn -0.394966 0.894070 -0.211285
vn -0.394966 0.894070 -0.211285
vn -0.404088 0.914720 0.000000
vn -0.923526 0.383535 0.000000
vn -0.898770 0.373254 -0.229988
vn -0.898770 0.373254 -0.229988
vn -0.923526 0.383535 0.000000
vn -0.925086 -0.379759 0.000000
vn -0.906684 -0.372205 -0.198462
vn -0.906684 -0.372205 -0.198462
vn -0.925086 -0.379759 0.000000
vn -0.376457 -0.926434 0.000000
vn -0.368200 -0.906117 -0.208282
vn -0.368200 -0.906117 -0.208282
vn -0.376457 -0.926434 0.000000
vn 0.368447 -0.929649 -0.000000
vn 0.359846 -0.907948 -0.214806
vn 0.359846 -0.907948 -0.214806
vn 0.368447 -0.929649 -0.000000
vn 0.916861 -0.399207 0.000000
vn 0.898645 -0.391275 -0.198343
vn 0.898645 -0.391275 -0.198343
vn 0.916861 -0.399207 0.000000
vn 0.000000 0.000000 -1.000000
vn 0.000000 0.000000 -1.000000
vn 0.000000 0.000000 -1.000000
vn 0.000000 0.000000 -1.000000
vn 0.000000 0.000000 -1.000000
vn 0.000000 0.000000 -1.000000
vn 0.000000 0.000000 -1.000000
vn 0.000000 0.000000 -1.000000
vn 0.000000 0.000000 -1.000000
vn 0.000000 0.000000 -1.000000
vn 0.000000 0.000000 -1.000000
vn 0.000000 0.000000 -1.000000
vn -0.000000 0.000000 -1.000000
vn -0.000000 0.000000 -1.000000
vn -0.000000 0.000000 -1.000000
vn -0.000000 0.000000 -1.000000
vn 0.000000 0.000000 -1.000000
vn 0.000000 0.000000 -1.000000
vn 0.000000 0.000000 -1.000000
vn 0.000000 0.000000 -1.000000
vn 0.000000 0.000000 -1.000000
vn 0.000000 0.000000 -1.000000
vn 0.000000 0.000000 -1.000000
vn 0.000000 0.000000 -1.000000
vn 0.000000 0.000000 -1.000000
vn 0.000000 0.000000 -1.000000
vn 0.000000 0.000000 -1.000000
vn 0.000000 0.000000 -1.000000
vn 0.000000 0.000000 -1.000000
vn 0.000000 0.000000 -1.000000
vn 0.000000 0.000000 -1.000000
vn 0.000000 0.000000 -1.000000
vn -0.905086 -0.374899 -0.200673
vn -0.923880 -0.382684 0.000000
vn -0.923880 -0.382684 0.000000
vn -0.905086 -0.374899 -0.200673
vn -0.374899 -0.905086 -0.200672
vn -0.382683 -0.923880 0.000000
vn -0.382684 -0.923880 0.000000
vn -0.374899 -0.905086 -0.200672
vn 0.387351 -0.894041 -0.225057
vn 0.397549 -0.917581 0.000000
vn 0.397549 -0.917581 0.000000
vn 0.387350 -0.894041 -0.225057
vn 0.883966 -0.361078 -0.297031
vn 0.883966 -0.361078 -0.297031
vn 0.883966 -0.361078 -0.297031
vn 0.883966 -0.361078 -0.297031
vn 0.860255 0.358226 -0.362817
vn 0.860255 0.358226 -0.362817
vn 0.860255 0.358226 -0.362817
vn 0.860255 0.358226 -0.362817
vn 0.371209 0.866493 -0.333756
vn 0.371209 0.866493 -0.333756
vn 0.371209 0.866493 -0.333756
vn 0.371209 0.866493 -0.333756
vn -0.362956 0.884597 -0.292832
vn -0.362956 0.884597 -0.292832
vn -0.362956 0.884597 -0.292832
vn -0.362956 0.884597 -0.292832
vn -0.896964 0.382523 -0.221655
vn -0.919845 0.392281 -0.000000
vn -0.919845 0.392281 -0.000000
vn -0.896964 0.382523 -0.221655
s off
f 1/1/1 2/2/2 4/3/3 3/4/4
f 7/5/5 8/6/6 2/2/7 1/1/8
f 2/2/9 8/6/10 6/7/11 4/3/12
f 7/5/13 1/1/14 3/4/15 5/8/16
f 3/4/17 4/3/18 9/9/19
f 11/10/20 12/11/21 13/12/22 14/13/23
f 16/14/24 15/15/25 17/16/26 18/17/27
f 4/3/28 6/7/29 12/11/30 11/10/31
f 10/18/32 9/9/33 14/13/34 13/12/35
f 9/9/36 4/3/37 11/10/38 14/13/39
f 5/8/40 3/4/41 15/15/42 16/14/43
f 3/4/44 9/9/45 17/16/46 15/15/47
f 9/9/48 10/18/49 18/17/50 17/16/51
f 19/19/52 20/20/53 28/21/54 27/22/55
f 20/20/56 21/23/57 29/24/58 28/21/59
f 21/23/60 22/25/61 30/26/62 29/24/63
f 22/25/64 23/27/65 31/28/66 30/26/67
f 23/27/68 24/29/69 32/30/70 31/28/71
f 24/29/72 25/31/73 33/32/74 32/30/75
f 25/31/76 26/33/77 34/34/78 33/32/79
f 26/33/80 19/19/81 27/22/82 34/34/83
f 27/22/84 28/21/85 36/35/86 35/36/87
f 28/21/88 29/24/89 37/37/90 36/35/91
f 29/24/92 30/26/93 38/38/94 37/37/95
f 30/26/96 31/28/97 39/39/98 38/38/99
f 31/28/100 32/30/101 40/40/102 39/39/103
f 32/30/104 33/32/105 41/41/106 40/40/107
f 33/32/108 34/34/109 42/42/110 41/41/111
f 34/34/112 27/22/113 35/36/114 42/42/115
f 35/36/116 36/35/117 44/43/118 43/44/119
f 36/35/120 37/37/121 45/45/122 44/43/123
f 37/37/124 38/38/125 46/46/126 45/45/127
f 38/38/128 39/39/129 47/47/130 46/46/131
f 39/39/132 40/40/133 48/48/134 47/47/135
f 40/40/136 41/41/137 49/49/138 48/48/139
f 41/41/140 42/42/141 50/50/142 49/49/143
f 42/42/144 35/36/145 43/44/146 50/50/147
f 51/51/148 53/54/149 54/53/150 52/52/151
f 7/55/152 51/51/153 52/52/154 8/56/155
f 52/52/156 54/53/157 6/57/158 8/56/159
f 7/55/160 5/58/161 53/54/162 51/51/163
f 53/54/164 55/59/165 54/53/166
f 56/60/167 57/63/168 13/62/169 12/61/170
f 16/64/171 18/67/172 59/66/173 58/65/174
f 54/53/175 56/60/176 12/61/177 6/57/178
f 10/68/179 13/62/180 57/63/181 55/59/182
f 55/59/183 57/63/184 56/60/185 54/53/186
f 5/58/187 16/64/188 58/65/189 53/54/190
f 53/54/191 58/65/192 59/66/193 55/59/194
f 55/59/195 59/66/196 18/67/197 10/68/198
f 19/69/199 60/72/200 61/71/201 20/70/202
f 20/70/203 61/71/204 62/74/205 21/73/206
f 21/73/207 62/74/208 63/76/209 22/75/210
f 22/75/211 63/76/212 64/78/213 23/77/214
f 23/77/215 64/78/216 65/80/217 24/79/218
f 24/79/219 65/80/220 66/82/221 25/81/222
f 25/81/223 66/82/224 67/84/225 26/83/226
f 26/83/227 67/84/228 60/72/229 19/69/230
f 60/72/231 68/86/232 69/85/233 61/71/234
f 61/71/235 69/85/236 70/87/237 62/74/238
f 62/74/239 70/87/240 71/88/241 63/76/242
f 63/76/243 71/88/244 72/89/245 64/78/246
f 64/78/247 72/89/248 73/90/249 65/80/250
f 65/80/251 73/90/252 74/91/253 66/82/254
f 66/82/255 74/91/256 75/92/257 67/84/258
f 67/84/259 75/92/260 68/86/261 60/72/262
f 68/86/263 43/94/264 44/93/265 69/85/266
f 69/85/267 44/93/268 45/95/269 70/87/270
f 70/87/271 45/95/272 46/96/273 71/88/274
f 71/88/275 46/96/276 47/97/277 72/89/278
f 72/89/279 47/97/280 48/98/281 73/90/282
f 73/90/283 48/98/284 49/99/285 74/91/286
f 74/91/287 49/99/288 50/100/289 75/92/290
f 75/92/291 50/100/292 43/94/293 68/86/294
