# This file uses centimeters as units for non-parametric coordinates.

v -16.918779 12.804762 0.000000
v -16.918779 6.207561 -0.000000
v -10.238020 6.207561 0.000000
v -10.238020 12.804762 0.000000
v -7.198269 6.207561 -0.000000
v -7.198269 12.804762 0.000000
v -16.918779 3.298603 -0.000000
v -16.918779 -3.298598 0.000000
v -10.238020 -3.298598 -0.000000
v -10.238020 3.298603 -0.000000
v -7.198269 -3.298598 0.000000
v -7.198269 3.298603 -0.000000
v -16.918779 -6.207561 -0.000000
v -16.918779 -12.804762 -0.000000
v -10.238020 -12.804762 0.000000
v -10.238020 -6.207561 -0.000000
v -7.198269 -12.804762 -0.000000
v -7.198269 -6.207561 -0.000000
v 16.918779 6.207561 -0.000000
v 16.918779 12.804762 0.000000
v 16.918779 -3.298598 0.000000
v 16.918779 3.298603 -0.000000
v 16.918779 -12.804762 0.000000
v 16.918779 -6.207561 -0.000000
v -11.425077 7.747118 4.000000
v -11.425077 11.473861 4.000000
v -15.815184 11.628898 4.000000
v -15.660147 7.592081 4.000000
v -11.395086 -2.024547 4.000000
v -11.395086 2.233208 4.000000
v -15.678251 2.039412 4.000000
v -15.678251 -2.024547 4.000000
v -11.508402 -11.454674 4.000000
v -11.430883 -7.515918 4.000000
v -15.442713 -7.515918 4.000000
v -15.558990 -11.454674 4.000000
v 14.990416 11.459649 2.000000
v 14.912897 7.826960 2.000000
v -5.406990 11.265853 2.000000
v -5.562027 7.594405 2.000000
v 14.941952 1.852839 2.000000
v 14.709396 -1.814076 2.000000
v -5.430099 1.852839 2.000000
v -5.236303 -1.852835 2.000000
v 14.724134 -7.474187 2.000000
v 14.995449 -11.496405 2.000000
v -5.608788 -7.745502 2.000000
v -5.608788 -11.496405 2.000000
v -1.847685 6.207561 -0.000000
v 9.508773 12.804762 -0.000000
v 10.354173 11.575928 2.000000
v -1.002283 7.710683 2.000000
v 11.332837 -3.298598 -0.000000
v 11.332837 3.298603 0.000000
v 10.223417 1.697803 2.000000
v 10.223417 -1.852835 2.000000
v -1.387163 -12.804762 0.000000
v 7.139869 -6.207561 0.000000
v 6.855433 -7.551705 2.000000
v -1.671598 -11.341368 2.000000
v -16.918779 -1.289262 -0.000000
v -10.238020 -1.289262 -0.000000
v -11.472605 -0.727745 4.000000
v -15.678251 -0.727745 4.000000
v -11.425077 7.747118 -4.000000
v -11.425077 11.473861 -4.000000
v -15.815184 11.628898 -4.000000
v -15.660147 7.592081 -4.000000
v -11.395086 -2.024547 -4.000000
v -11.395086 2.233208 -4.000000
v -15.678251 2.039412 -4.000000
v -15.678251 -2.024547 -4.000000
v -11.508402 -11.454674 -4.000000
v -11.430883 -7.515918 -4.000000
v -15.442713 -7.515918 -4.000000
v -15.558990 -11.454674 -4.000000
v 14.990416 11.459649 -2.000000
v 14.912897 7.826960 -2.000000
v -5.406990 11.265853 -2.000000
v -5.562027 7.594405 -2.000000
v 14.941952 1.852839 -2.000000
v 14.709396 -1.814076 -2.000000
v -5.430099 1.852839 -2.000000
v -5.236303 -1.852835 -2.000000
v 14.724134 -7.474187 -2.000000
v 14.995449 -11.496405 -2.000000
v -5.608788 -7.745502 -2.000000
v -5.608788 -11.496405 -2.000000
v 10.354173 11.575928 -2.000000
v -1.002283 7.710683 -2.000000
v 10.223417 1.697803 -2.000000
v 10.223417 -1.852835 -2.000000
v 6.855433 -7.551705 -2.000000
v -1.671598 -11.341368 -2.000000
v -11.472605 -0.727745 -4.000000
v -15.678251 -0.727745 -4.000000
vt 0.444982 0.956994
vt 0.444982 0.958917
vt 0.443268 0.958996
vt 0.443328 0.956914
vt 0.444993 0.951953
vt 0.444963 0.952622
vt 0.443321 0.952622
vt 0.443321 0.951953
vt 0.444949 0.947089
vt 0.444979 0.949121
vt 0.443413 0.949121
vt 0.443368 0.947089
vt 0.455264 0.983292
vt 0.455295 0.985166
vt 0.453485 0.985225
vt 0.449051 0.983232
vt 0.455185 0.978318
vt 0.455276 0.980210
vt 0.453433 0.980130
vt 0.453433 0.978298
vt 0.455297 0.973323
vt 0.455191 0.975398
vt 0.452119 0.975358
vt 0.448789 0.973403
vt 0.445445 0.956200
vt 0.442837 0.956200
vt 0.442837 0.959603
vt 0.445445 0.959603
vt 0.445445 0.951296
vt 0.442837 0.951296
vt 0.442837 0.952332
vt 0.445445 0.952332
vt 0.445445 0.946392
vt 0.442837 0.946392
vt 0.442837 0.949795
vt 0.445445 0.949795
vt 0.456048 0.982456
vt 0.448721 0.982456
vt 0.453154 0.985859
vt 0.456048 0.985859
vt 0.456048 0.977552
vt 0.453867 0.977552
vt 0.453867 0.980955
vt 0.456048 0.980955
vt 0.456048 0.972649
vt 0.448901 0.972649
vt 0.452230 0.976052
vt 0.456048 0.976052
vt 0.445445 0.954699
vt 0.442837 0.954699
vt 0.443321 0.954050
vt 0.444993 0.954150
vt 0.446632 0.985859
vt 0.446632 0.982456
vt 0.447271 0.983172
vt 0.447331 0.985065
vt 0.446632 0.980955
vt 0.446632 0.977552
vt 0.447398 0.978298
vt 0.447322 0.980210
vt 0.446632 0.976052
vt 0.446632 0.972649
vt 0.447252 0.973323
vt 0.447252 0.975258
vt 0.444982 0.956994
vt 0.444982 0.958917
vt 0.443268 0.958996
vt 0.443328 0.956914
vt 0.444993 0.951953
vt 0.444963 0.952622
vt 0.443321 0.952622
vt 0.443321 0.951953
vt 0.444949 0.947089
vt 0.444979 0.949121
vt 0.443413 0.949121
vt 0.443368 0.947089
vt 0.455264 0.983292
vt 0.455295 0.985166
vt 0.453485 0.985225
vt 0.449051 0.983232
vt 0.455185 0.978318
vt 0.455276 0.980210
vt 0.453433 0.980130
vt 0.453433 0.978298
vt 0.455297 0.973323
vt 0.455191 0.975398
vt 0.452119 0.975358
vt 0.448789 0.973403
vt 0.445445 0.956200
vt 0.445445 0.959603
vt 0.442837 0.959603
vt 0.442837 0.956200
vt 0.445445 0.951296
vt 0.445445 0.952332
vt 0.445445 0.954699
vt 0.442837 0.954699
vt 0.443321 0.954050
vt 0.444993 0.954150
vt 0.442837 0.952332
vt 0.442837 0.951296
vt 0.445445 0.946392
vt 0.445445 0.949795
vt 0.442837 0.949795
vt 0.442837 0.946392
vt 0.456048 0.982456
vt 0.456048 0.985859
vt 0.453154 0.985859
vt 0.446632 0.985859
vt 0.446632 0.982456
vt 0.447271 0.983172
vt 0.447331 0.985065
vt 0.448721 0.982456
vt 0.456048 0.977552
vt 0.456048 0.980955
vt 0.453867 0.980955
vt 0.446632 0.980955
vt 0.446632 0.977552
vt 0.447398 0.978298
vt 0.447322 0.980210
vt 0.453867 0.977552
vt 0.456048 0.972649
vt 0.456048 0.976052
vt 0.452230 0.976052
vt 0.446632 0.976052
vt 0.446632 0.972649
vt 0.447252 0.973323
vt 0.447252 0.975258
vt 0.448901 0.972649
vn 0.000000 0.000000 1.000000
vn 0.000000 0.000000 1.000000
vn 0.000000 0.000000 1.000000
vn 0.000000 0.000000 1.000000
vn 0.000000 0.000000 1.000000
vn 0.000000 0.000000 1.000000
vn 0.000000 0.000000 1.000000
vn 0.000000 0.000000 1.000000
vn 0.000000 0.000000 1.000000
vn 0.000000 0.000000 1.000000
vn 0.000000 0.000000 1.000000
vn 0.000000 0.000000 1.000000
vn 0.000000 0.000000 1.000000
vn 0.000000 0.000000 1.000000
vn 0.000000 0.000000 1.000000
vn 0.000000 0.000000 1.000000
vn 0.000000 0.000000 1.000000
vn 0.000000 0.000000 1.000000
vn 0.000000 0.000000 1.000000
vn 0.000000 0.000000 1.000000
vn 0.000000 0.000000 1.000000
vn 0.000000 0.000000 1.000000
vn 0.000000 0.000000 1.000000
vn 0.000000 0.000000 1.000000
vn 0.958676 0.000000 0.284501
vn 0.958676 0.000000 0.284501
vn 0.958676 0.000000 0.284501
vn 0.958676 0.000000 0.284501
vn 0.013362 0.954125 0.299110
vn 0.013362 0.954125 0.299110
vn 0.013362 0.954125 0.299110
vn 0.013362 0.954125 0.299110
vn -0.958871 -0.013980 0.283499
vn -0.958871 -0.013980 0.283499
vn -0.958871 -0.013980 0.283499
vn -0.958871 -0.013980 0.283499
vn 0.013339 -0.939182 0.343161
vn 0.013339 -0.939182 0.343161
vn 0.013339 -0.939182 0.343161
vn 0.013339 -0.939182 0.343161
vn 0.959263 0.022492 0.281617
vn 0.958694 0.001202 0.284437
vn 0.958603 -0.001173 0.284743
vn 0.959263 0.022492 0.281617
vn -0.016970 0.960096 0.279155
vn -0.016970 0.960096 0.279155
vn -0.016970 0.960096 0.279155
vn -0.016970 0.960096 0.279155
vn -0.955122 0.000000 0.296214
vn -0.955122 0.000000 0.296214
vn -0.955122 0.000000 0.296214
vn -0.955122 0.000000 0.296214
vn 0.000000 -0.952835 0.303490
vn 0.000000 -0.952835 0.303490
vn 0.000000 -0.952835 0.303490
vn 0.000000 -0.952835 0.303490
vn 0.955688 -0.007031 0.294298
vn 0.955688 -0.007031 0.294298
vn 0.955688 -0.007031 0.294298
vn 0.955688 -0.007031 0.294298
vn 0.000000 0.950449 0.310882
vn 0.000000 0.950449 0.310882
vn 0.000000 0.950449 0.310882
vn 0.000000 0.950449 0.310882
vn -0.942500 0.010402 0.334045
vn -0.942500 0.010402 0.334045
vn -0.942500 0.010402 0.334045
vn -0.942500 0.010402 0.334045
vn 0.000000 -0.947486 0.319797
vn 0.000000 -0.947486 0.319797
vn 0.000000 -0.947486 0.319797
vn 0.000000 -0.947486 0.319797
vn 0.712747 -0.005401 0.701401
vn 0.712747 -0.005401 0.701401
vn 0.712747 -0.005401 0.701401
vn 0.712747 -0.005401 0.701401
vn 0.008107 0.839910 0.542666
vn -0.004834 0.823749 0.566934
vn -0.002072 0.827269 0.561803
vn 0.008107 0.839910 0.542666
vn -0.759090 0.011461 0.650885
vn -0.759090 0.011461 0.650885
vn -0.759090 0.011461 0.650885
vn -0.759090 0.011461 0.650885
vn 0.003690 -0.791847 0.610709
vn 0.004690 -0.795591 0.605816
vn 0.002642 -0.787887 0.615815
vn 0.002642 -0.787887 0.615815
vn 0.690683 -0.015649 0.722988
vn 0.690683 -0.015649 0.722988
vn 0.690683 -0.015649 0.722988
vn 0.690683 -0.015649 0.722988
vn -0.012035 0.799930 0.599973
vn -0.001680 0.797232 0.603671
vn 0.001296 0.796438 0.604720
vn -0.012035 0.799930 0.599973
vn -0.731278 -0.013755 0.681941
vn -0.731278 -0.013755 0.681941
vn -0.731278 -0.013755 0.681941
vn -0.731278 -0.013755 0.681941
vn 0.000456 -0.809700 0.586844
vn 0.001057 -0.808742 0.588163
vn 0.003100 -0.805466 0.592633
vn 0.003100 -0.805466 0.592633
vn 0.696739 0.017801 0.717103
vn 0.696739 0.017801 0.717103
vn 0.696739 0.017801 0.717103
vn 0.696739 0.017801 0.717103
vn -0.003683 0.838449 0.544967
vn -0.004936 0.822577 0.568632
vn -0.005095 0.820509 0.571611
vn -0.003683 0.838449 0.544967
vn -0.782873 0.000000 0.622181
vn -0.782874 0.000000 0.622181
vn -0.782873 0.000000 0.622181
vn -0.782873 0.000000 0.622181
vn 0.000402 -0.823146 0.567829
vn -0.000399 -0.823096 0.567902
vn -0.003648 -0.822886 0.568195
vn -0.003648 -0.822886 0.568195
vn -0.002072 0.827269 0.561803
vn -0.004834 0.823749 0.566934
vn -0.007830 0.819888 0.572471
vn -0.007830 0.819888 0.572471
vn 0.000000 0.000000 1.000000
vn 0.000000 0.000000 1.000000
vn 0.000000 0.000000 1.000000
vn 0.000000 0.000000 1.000000
vn 0.009543 -0.813340 0.581711
vn 0.004690 -0.795591 0.605816
vn 0.003690 -0.791847 0.610709
vn 0.009543 -0.813340 0.581711
vn 0.001296 0.796438 0.604720
vn -0.001680 0.797232 0.603671
vn 0.003609 0.795814 0.605530
vn 0.003609 0.795814 0.605530
vn 0.000000 0.000000 1.000000
vn 0.000000 0.000000 1.000000
vn 0.000000 0.000000 1.000000
vn 0.000000 0.000000 1.000000
vn 0.000000 -0.810426 0.585842
vn 0.001057 -0.808742 0.588163
vn 0.000456 -0.809700 0.586844
vn 0.000000 -0.810426 0.585842
vn -0.005095 0.820509 0.571611
vn -0.004936 0.822577 0.568632
vn -0.005860 0.810412 0.585831
vn -0.005860 0.810412 0.585831
vn 0.000000 0.000000 1.000000
vn 0.000000 0.000000 1.000000
vn 0.000000 0.000000 1.000000
vn 0.000000 0.000000 1.000000
vn 0.013103 -0.823875 0.566620
vn -0.000399 -0.823096 0.567902
vn 0.000402 -0.823146 0.567829
vn 0.013103 -0.823875 0.566620
vn 0.958603 -0.001173 0.284743
vn 0.958694 0.001202 0.284437
vn 0.958225 -0.009840 0.285848
vn 0.958225 -0.009840 0.285848
vn 0.000000 0.000000 1.000000
vn 0.000000 0.000000 1.000000
vn 0.000000 0.000000 1.000000
vn 0.000000 0.000000 1.000000
vn -0.955122 0.000000 0.296214
vn -0.955122 0.000000 0.296214
vn -0.955122 0.000000 0.296214
vn -0.955122 0.000000 0.296214
vn 0.000000 0.000000 -1.000000
vn 0.000000 0.000000 -1.000000
vn 0.000000 0.000000 -1.000000
vn 0.000000 0.000000 -1.000000
vn 0.000000 0.000000 -1.000000
vn 0.000000 0.000000 -1.000000
vn 0.000000 0.000000 -1.000000
vn 0.000000 0.000000 -1.000000
vn 0.000000 0.000000 -1.000000
vn 0.000000 0.000000 -1.000000
vn 0.000000 0.000000 -1.000000
vn 0.000000 0.000000 -1.000000
vn 0.000000 0.000000 -1.000000
vn 0.000000 0.000000 -1.000000
vn 0.000000 0.000000 -1.000000
vn 0.000000 0.000000 -1.000000
vn 0.000000 0.000000 -1.000000
vn 0.000000 0.000000 -1.000000
vn 0.000000 0.000000 -1.000000
vn 0.000000 0.000000 -1.000000
vn 0.000000 0.000000 -1.000000
vn 0.000000 0.000000 -1.000000
vn 0.000000 0.000000 -1.000000
vn 0.000000 0.000000 -1.000000
vn 0.958676 -0.000000 -0.284501
vn 0.958676 -0.000000 -0.284501
vn 0.958676 -0.000000 -0.284501
vn 0.958676 -0.000000 -0.284501
vn 0.013362 0.954125 -0.299110
vn 0.013362 0.954125 -0.299110
vn 0.013362 0.954125 -0.299110
vn 0.013362 0.954125 -0.299110
vn -0.958871 -0.013980 -0.283499
vn -0.958871 -0.013980 -0.283499
vn -0.958871 -0.013980 -0.283499
vn -0.958871 -0.013980 -0.283499
vn 0.013339 -0.939182 -0.343161
vn 0.013339 -0.939182 -0.343161
vn 0.013339 -0.939182 -0.343161
vn 0.013339 -0.939182 -0.343161
vn 0.959263 0.022492 -0.281617
vn 0.959263 0.022492 -0.281617
vn 0.958603 -0.001173 -0.284743
vn 0.958694 0.001202 -0.284437
vn -0.016970 0.960096 -0.279155
vn -0.016970 0.960096 -0.279155
vn -0.016970 0.960096 -0.279155
vn -0.016970 0.960096 -0.279155
vn -0.955122 -0.000000 -0.296214
vn -0.955122 0.000000 -0.296214
vn -0.955122 0.000000 -0.296214
vn -0.955122 -0.000000 -0.296214
vn 0.000000 -0.952835 -0.303490
vn 0.000000 -0.952835 -0.303490
vn 0.000000 -0.952835 -0.303490
vn 0.000000 -0.952835 -0.303490
vn 0.955688 -0.007031 -0.294298
vn 0.955688 -0.007031 -0.294298
vn 0.955688 -0.007031 -0.294298
vn 0.955688 -0.007031 -0.294298
vn 0.000000 0.950449 -0.310882
vn 0.000000 0.950449 -0.310882
vn 0.000000 0.950449 -0.310882
vn 0.000000 0.950449 -0.310882
vn -0.942500 0.010402 -0.334045
vn -0.942500 0.010402 -0.334045
vn -0.942500 0.010402 -0.334045
vn -0.942500 0.010402 -0.334045
vn 0.000000 -0.947486 -0.319797
vn 0.000000 -0.947486 -0.319797
vn 0.000000 -0.947486 -0.319797
vn 0.000000 -0.947486 -0.319797
vn 0.712747 -0.005401 -0.701401
vn 0.712747 -0.005401 -0.701401
vn 0.712747 -0.005401 -0.701401
vn 0.712747 -0.005401 -0.701401
vn 0.008107 0.839910 -0.542666
vn 0.008107 0.839910 -0.542666
vn -0.002072 0.827269 -0.561803
vn -0.004834 0.823749 -0.566935
vn -0.759090 0.011461 -0.650885
vn -0.759090 0.011461 -0.650885
vn -0.759090 0.011461 -0.650885
vn -0.759090 0.011461 -0.650885
vn 0.003690 -0.791847 -0.610708
vn 0.002642 -0.787887 -0.615815
vn 0.002642 -0.787887 -0.615815
vn 0.004690 -0.795591 -0.605816
vn 0.690683 -0.015649 -0.722988
vn 0.690683 -0.015649 -0.722988
vn 0.690683 -0.015649 -0.722988
vn 0.690683 -0.015649 -0.722988
vn -0.012035 0.799930 -0.599973
vn -0.012035 0.799930 -0.599973
vn 0.001296 0.796438 -0.604720
vn -0.001680 0.797232 -0.603671
vn -0.731278 -0.013755 -0.681941
vn -0.731278 -0.013755 -0.681941
vn -0.731278 -0.013755 -0.681941
vn -0.731278 -0.013755 -0.681941
vn 0.000456 -0.809700 -0.586844
vn 0.003100 -0.805466 -0.592633
vn 0.003100 -0.805466 -0.592633
vn 0.001057 -0.808742 -0.588163
vn 0.696739 0.017801 -0.717103
vn 0.696739 0.017801 -0.717103
vn 0.696739 0.017801 -0.717103
vn 0.696739 0.017801 -0.717103
vn -0.003683 0.838449 -0.544967
vn -0.003683 0.838449 -0.544967
vn -0.005095 0.820509 -0.571611
vn -0.004936 0.822577 -0.568632
vn -0.782873 0.000000 -0.622181
vn -0.782873 0.000000 -0.622181
vn -0.782873 0.000000 -0.622181
vn -0.782874 0.000000 -0.622181
vn 0.000402 -0.823146 -0.567829
vn -0.003648 -0.822886 -0.568195
vn -0.003648 -0.822886 -0.568195
vn -0.000399 -0.823096 -0.567902
vn -0.002072 0.827269 -0.561803
vn -0.007830 0.819888 -0.572471
vn -0.007830 0.819888 -0.572471
vn -0.004834 0.823749 -0.566935
vn 0.000000 0.000000 -1.000000
vn 0.000000 0.000000 -1.000000
vn 0.000000 0.000000 -1.000000
vn 0.000000 0.000000 -1.000000
vn 0.009543 -0.813340 -0.581711
vn 0.009543 -0.813340 -0.581710
vn 0.003690 -0.791847 -0.610708
vn 0.004690 -0.795591 -0.605816
vn 0.001296 0.796438 -0.604720
vn 0.003609 0.795814 -0.605530
vn 0.003609 0.795814 -0.605530
vn -0.001680 0.797232 -0.603671
vn 0.000000 0.000000 -1.000000
vn 0.000000 0.000000 -1.000000
vn 0.000000 0.000000 -1.000000
vn 0.000000 0.000000 -1.000000
vn 0.000000 -0.810426 -0.585842
vn 0.000000 -0.810426 -0.585842
vn 0.000456 -0.809700 -0.586844
vn 0.001057 -0.808742 -0.588163
vn -0.005095 0.820509 -0.571611
vn -0.005860 0.810412 -0.585831
vn -0.005860 0.810412 -0.585831
vn -0.004936 0.822577 -0.568632
vn 0.000000 0.000000 -1.000000
vn 0.000000 0.000000 -1.000000
vn 0.000000 0.000000 -1.000000
vn 0.000000 0.000000 -1.000000
vn 0.013103 -0.823875 -0.566620
vn 0.013103 -0.823875 -0.566620
vn 0.000402 -0.823146 -0.567829
vn -0.000399 -0.823096 -0.567902
vn 0.958603 -0.001173 -0.284743
vn 0.958225 -0.009840 -0.285848
vn 0.958225 -0.009840 -0.285848
vn 0.958694 0.001202 -0.284437
vn 0.000000 0.000000 -1.000000
vn 0.000000 0.000000 -1.000000
vn 0.000000 0.000000 -1.000000
vn 0.000000 0.000000 -1.000000
vn -0.955122 -0.000000 -0.296214
vn -0.955122 -0.000000 -0.296214
vn -0.955122 -0.000000 -0.296214
vn -0.955122 -0.000000 -0.296214
s off
f 25/1/1 26/2/2 27/3/3 28/4/4
f 29/5/5 63/6/6 64/7/7 32/8/8
f 33/9/9 34/10/10 35/11/11 36/12/12
f 38/13/13 37/14/14 51/15/15 52/16/16
f 42/17/17 41/18/18 55/19/19 56/20/20
f 46/21/21 45/22/22 59/23/23 60/24/24
f 3/25/25 4/28/26 26/2/27 25/1/28
f 4/28/29 1/27/30 27/3/31 26/2/32
f 1/27/33 2/26/34 28/4/35 27/3/36
f 2/26/37 3/25/38 25/1/39 28/4/40
f 9/29/41 62/32/42 63/6/43 29/5/44
f 10/49/45 7/50/46 31/51/47 30/52/48
f 64/7/49 61/31/50 8/30/51 32/8/52
f 8/30/53 9/29/54 29/5/55 32/8/56
f 15/33/57 16/36/58 34/10/59 33/9/60
f 16/36/61 13/35/62 35/11/63 34/10/64
f 13/35/65 14/34/66 36/12/67 35/11/68
f 14/34/69 15/33/70 33/9/71 36/12/72
f 19/37/73 20/40/74 37/14/75 38/13/76
f 20/40/77 50/39/78 51/15/79 37/14/80
f 6/53/81 5/54/82 40/55/83 39/56/84
f 52/16/85 49/38/86 19/37/87 38/13/88
f 21/41/89 22/44/90 41/18/91 42/17/92
f 22/44/93 54/43/94 55/19/95 41/18/96
f 12/57/97 11/58/98 44/59/99 43/60/100
f 56/20/101 53/42/102 21/41/103 42/17/104
f 23/45/105 24/48/106 45/22/107 46/21/108
f 24/48/109 58/47/110 59/23/111 45/22/112
f 18/61/113 17/62/114 48/63/115 47/64/116
f 60/24/117 57/46/118 23/45/119 46/21/120
f 51/15/121 50/39/122 6/53/123 39/56/124
f 52/16/125 51/15/126 39/56/127 40/55/128
f 5/54/129 49/38/130 52/16/131 40/55/132
f 55/19/133 54/43/134 12/57/135 43/60/136
f 56/20/137 55/19/138 43/60/139 44/59/140
f 11/58/141 53/42/142 56/20/143 44/59/144
f 59/23/145 58/47/146 18/61/147 47/64/148
f 60/24/149 59/23/150 47/64/151 48/63/152
f 17/62/153 57/46/154 60/24/155 48/63/156
f 63/6/157 62/32/158 10/49/159 30/52/160
f 64/7/161 63/6/162 30/52/163 31/51/164
f 7/50/165 61/31/166 64/7/167 31/51/168
f 65/65/169 68/68/170 67/67/171 66/66/172
f 69/69/173 72/72/174 96/71/175 95/70/176
f 73/73/177 76/76/178 75/75/179 74/74/180
f 78/77/181 90/80/182 89/79/183 77/78/184
f 82/81/185 92/84/186 91/83/187 81/82/188
f 86/85/189 94/88/190 93/87/191 85/86/192
f 3/89/193 65/65/194 66/66/195 4/90/196
f 4/90/197 66/66/198 67/67/199 1/91/200
f 1/91/201 67/67/202 68/68/203 2/92/204
f 2/92/205 68/68/206 65/65/207 3/89/208
f 9/93/209 69/69/210 95/70/211 62/94/212
f 10/95/213 70/98/214 71/97/215 7/96/216
f 96/71/217 72/72/218 8/100/219 61/99/220
f 8/100/221 72/72/222 69/69/223 9/93/224
f 15/101/225 73/73/226 74/74/227 16/102/228
f 16/102/229 74/74/230 75/75/231 13/103/232
f 13/103/233 75/75/234 76/76/235 14/104/236
f 14/104/237 76/76/238 73/73/239 15/101/240
f 19/105/241 78/77/242 77/78/243 20/106/244
f 20/106/245 77/78/246 89/79/247 50/107/248
f 6/108/249 79/111/250 80/110/251 5/109/252
f 90/80/253 78/77/254 19/105/255 49/112/256
f 21/113/257 82/81/258 81/82/259 22/114/260
f 22/114/261 81/82/262 91/83/263 54/115/264
f 12/116/265 83/119/266 84/118/267 11/117/268
f 92/84/269 82/81/270 21/113/271 53/120/272
f 23/121/273 86/85/274 85/86/275 24/122/276
f 24/122/277 85/86/278 93/87/279 58/123/280
f 18/124/281 87/127/282 88/126/283 17/125/284
f 94/88/285 86/85/286 23/121/287 57/128/288
f 89/79/289 79/111/290 6/108/291 50/107/292
f 90/80/293 80/110/294 79/111/295 89/79/296
f 5/109/297 80/110/298 90/80/299 49/112/300
f 91/83/301 83/119/302 12/116/303 54/115/304
f 92/84/305 84/118/306 83/119/307 91/83/308
f 11/117/309 84/118/310 92/84/311 53/120/312
f 93/87/313 87/127/314 18/124/315 58/123/316
f 94/88/317 88/126/318 87/127/319 93/87/320
f 17/125/321 88/126/322 94/88/323 57/128/324
f 95/70/325 70/98/326 10/95/327 62/94/328
f 96/71/329 71/97/330 70/98/331 95/70/332
f 7/96/333 71/97/334 96/71/335 61/99/336
