# This file uses centimeters as units for non-parametric coordinates.

v -20.000000 11.968679 0.000000
v 4.892823 20.000000 -0.000000
v 20.000000 -8.274392 -0.000000
v -4.909732 -20.000000 0.000000
v 7.844422 17.512951 -0.000000
v 9.109359 12.424487 0.000000
v 9.714952 4.243797 -0.000000
v 12.373572 -2.674395 -0.000000
v -11.496389 -16.356829 -0.000000
v -15.590486 -8.326414 -0.000000
v -15.621549 4.410206 0.000000
v -16.883869 9.227924 -0.000000
v 15.009485 -3.593302 -0.000000
v 19.687809 -5.146014 -0.000000
v 16.790545 -2.397219 -0.000000
v 11.446935 -13.218307 0.000000
v -15.860371 9.167865 2.000000
v -18.366882 11.372436 2.000000
v 4.699975 18.798958 2.000000
v 11.498118 -2.848464 2.000000
v 14.431259 -4.012941 2.000000
v 8.358408 -7.509179 2.000000
v -14.591487 4.312156 2.000000
v 7.245311 16.554762 2.000000
v -4.722482 -18.782108 2.000000
v -10.738029 -15.454825 2.000000
v -3.551054 -14.921977 2.000000
v -5.250257 -11.551610 2.000000
v -14.578628 -7.921638 2.000000
v 8.303471 11.846310 2.000000
v 8.888172 3.972087 2.000000
v 11.333283 -12.781548 2.000000
v 8.587941 -8.032280 4.000000
v 16.653572 -3.263709 4.000000
v 10.355370 -9.354752 4.000000
v 18.539688 -5.128608 4.000000
v 10.628780 -11.283622 4.000000
v 18.851879 -7.679844 4.000000
v -4.520054 -11.771710 4.000000
v -2.955034 -14.875924 4.000000
v -3.643380 -18.240831 4.000000
v -3.617404 -19.927856 2.000000
v 19.244987 -9.347757 2.000000
v -15.860371 9.167865 -2.000000
v -18.366882 11.372436 -2.000000
v 4.699975 18.798958 -2.000000
v 11.498118 -2.848464 -2.000000
v 14.431259 -4.012941 -2.000000
v 8.358408 -7.509179 -2.000000
v -14.591487 4.312156 -2.000000
v 7.245311 16.554762 -2.000000
v -4.722482 -18.782108 -2.000000
v -10.738029 -15.454825 -2.000000
v -3.551054 -14.921977 -2.000000
v -5.250257 -11.551610 -2.000000
v -14.578628 -7.921638 -2.000000
v 8.303471 11.846310 -2.000000
v 8.888172 3.972087 -2.000000
v 11.333283 -12.781548 -2.000000
v 8.587941 -8.032280 -4.000000
v 16.653572 -3.263709 -4.000000
v 10.355370 -9.354752 -4.000000
v 18.539688 -5.128608 -4.000000
v 10.628780 -11.283622 -4.000000
v 18.851879 -7.679844 -4.000000
v -4.520054 -11.771710 -4.000000
v -2.955034 -14.875924 -4.000000
v -3.643380 -18.240831 -4.000000
v -3.617404 -19.927856 -2.000000
v 19.244987 -9.347757 -2.000000
v -3.610830 -20.000000 0.000000
v 19.410772 -9.666344 0.000000
vt 0.922788 0.984368
vt 0.923403 0.984564
vt 0.922541 0.953423
vt 0.922794 0.953594
vt 0.923323 0.984635
vt 0.923301 0.984757
vt 0.923287 0.985078
vt 0.923181 0.985278
vt 0.923015 0.985368
vt 0.922944 0.985300
vt 0.922989 0.985214
vt 0.922638 0.985108
vt 0.922755 0.953641
vt 0.922398 0.953449
vt 0.922468 0.953371
vt 0.922754 0.953693
vt 0.922405 0.953534
vt 0.923362 0.953765
vt 0.923290 0.953905
vt 0.923403 0.954013
vt 0.922482 0.985003
vt 0.922525 0.984967
vt 0.922626 0.984763
vt 0.922642 0.984543
vt 0.922711 0.984415
vt 0.923403 0.984564
vt 0.923323 0.984635
vt 0.922788 0.984368
vt 0.922482 0.985003
vt 0.922525 0.984967
vt 0.923301 0.984757
vt 0.922711 0.984415
vt 0.923181 0.985278
vt 0.923015 0.985368
vt 0.923287 0.985078
vt 0.922642 0.984543
vt 0.922626 0.984763
vt 0.922541 0.953423
vt 0.922754 0.953693
vt 0.923403 0.954013
vt 0.922469 0.953376
vt 0.922794 0.953594
vt 0.922407 0.953449
vt 0.922754 0.953693
vt 0.922404 0.953537
vt 0.923362 0.953765
vt 0.923290 0.953905
vt 0.923403 0.954013
vt 0.923324 0.953974
vt 0.922471 0.953567
vt 0.923403 0.984564
vt 0.923323 0.984635
vt 0.922788 0.984368
vt 0.922482 0.985003
vt 0.922525 0.984967
vt 0.922638 0.985108
vt 0.923301 0.984757
vt 0.922711 0.984415
vt 0.923181 0.985278
vt 0.923015 0.985368
vt 0.922944 0.985300
vt 0.922989 0.985214
vt 0.923287 0.985078
vt 0.922642 0.984543
vt 0.922626 0.984763
vt 0.922469 0.953376
vt 0.922794 0.953594
vt 0.922755 0.953641
vt 0.922407 0.953449
vt 0.922754 0.953693
vt 0.922404 0.953537
vt 0.923362 0.953765
vt 0.923290 0.953905
vt 0.923403 0.954013
vt 0.923403 0.984564
vt 0.923323 0.984635
vt 0.922788 0.984368
vt 0.922482 0.985003
vt 0.922525 0.984967
vt 0.923301 0.984757
vt 0.922711 0.984415
vt 0.923181 0.985278
vt 0.923015 0.985368
vt 0.923287 0.985078
vt 0.922642 0.984543
vt 0.922626 0.984763
vt 0.922468 0.953371
vt 0.922541 0.953423
vt 0.922541 0.953423
vt 0.923403 0.954013
vt 0.922754 0.953693
vt 0.922754 0.953693
vt 0.923324 0.953974
vt 0.922794 0.953594
vt 0.922398 0.953449
vt 0.922471 0.953567
vt 0.922405 0.953534
vt 0.923362 0.953765
vt 0.923290 0.953905
vt 0.923403 0.954013
vt 0.923351 0.953987
vt 0.923351 0.953987
vt 0.922457 0.953558
vt 0.922457 0.953558
vn 0.000000 0.000000 1.000000
vn 0.000000 0.000000 1.000000
vn 0.000000 0.000000 1.000000
vn 0.000000 0.000000 1.000000
vn 0.000000 0.000000 1.000000
vn 0.000000 0.000000 1.000000
vn 0.000000 0.000000 1.000000
vn 0.000000 0.000000 1.000000
vn 0.000000 0.000000 1.000000
vn 0.000000 0.000000 1.000000
vn 0.000000 0.000000 1.000000
vn 0.000000 0.000000 1.000000
vn 0.000000 0.000000 1.000000
vn 0.000000 0.000000 1.000000
vn 0.000000 0.000000 1.000000
vn 0.000000 0.000000 1.000000
vn 0.000000 0.000000 1.000000
vn 0.000000 0.000000 1.000000
vn 0.000000 0.000000 1.000000
vn 0.000000 0.000000 1.000000
vn 0.000000 0.000000 1.000000
vn 0.000000 0.000000 1.000000
vn 0.000000 0.000000 1.000000
vn 0.000000 0.000000 1.000000
vn 0.000000 0.000000 1.000000
vn 0.000000 0.000000 1.000000
vn 0.000000 0.000000 1.000000
vn 0.000000 0.000000 1.000000
vn -0.000000 0.000000 1.000000
vn -0.000000 0.000000 1.000000
vn -0.000000 0.000000 1.000000
vn 0.000000 0.000000 1.000000
vn 0.000000 0.000000 1.000000
vn 0.000000 0.000000 1.000000
vn 0.000000 0.000000 1.000000
vn 0.000000 0.000000 1.000000
vn 0.000000 0.000000 1.000000
vn 0.000000 0.000000 1.000000
vn 0.000000 0.000000 1.000000
vn 0.000000 0.000000 1.000000
vn 0.000000 0.000000 1.000000
vn 0.000000 0.000000 1.000000
vn 0.000000 0.000000 1.000000
vn 0.000000 0.000000 1.000000
vn 0.000000 0.000000 1.000000
vn 0.000000 0.000000 1.000000
vn 0.000000 0.000000 1.000000
vn -0.629842 -0.716106 0.300817
vn -0.629842 -0.716106 0.300817
vn -0.629842 -0.716106 0.300817
vn -0.629842 -0.716106 0.300817
vn -0.270140 0.838140 0.473863
vn -0.270140 0.838140 0.473863
vn -0.270140 0.838140 0.473863
vn -0.270140 0.838140 0.473863
vn 0.338580 0.905052 0.257381
vn 0.338580 0.905052 0.257381
vn 0.338580 0.905052 0.257381
vn 0.338580 0.905052 0.257381
vn -0.869886 -0.227619 0.437593
vn -0.869886 -0.227619 0.437593
vn -0.869886 -0.227619 0.437593
vn -0.869886 -0.227619 0.437593
vn 0.574414 0.667375 0.473983
vn 0.574414 0.667375 0.473983
vn 0.574414 0.667375 0.473983
vn 0.574414 0.667375 0.473983
vn -0.419014 -0.757554 0.500539
vn -0.419014 -0.757554 0.500539
vn -0.419014 -0.757554 0.500539
vn -0.419014 -0.757554 0.500539
vn -0.783036 -0.399210 0.476956
vn -0.783036 -0.399210 0.476956
vn -0.783036 -0.399210 0.476956
vn -0.783036 -0.399210 0.476956
vn 0.893755 0.211932 0.395332
vn 0.893755 0.211932 0.395332
vn 0.893755 0.211932 0.395332
vn 0.893755 0.211932 0.395332
vn 0.918551 0.068100 0.389392
vn 0.918551 0.068100 0.389392
vn 0.918551 0.068100 0.389392
vn 0.918551 0.068100 0.389392
vn -0.890613 -0.001567 0.454760
vn -0.890613 -0.001567 0.454760
vn -0.890613 -0.001567 0.454760
vn -0.890613 -0.001567 0.454760
vn 0.855495 0.328067 0.400625
vn 0.855495 0.328067 0.400625
vn 0.855495 0.328067 0.400625
vn 0.855495 0.328067 0.400625
vn -0.557460 0.830102 0.013003
vn -0.557460 0.830102 0.013003
vn -0.557460 0.830102 0.013003
vn 0.417590 -0.899714 0.127018
vn 0.417590 -0.899714 0.127018
vn 0.417590 -0.899714 0.127018
vn 0.417590 -0.899714 0.127018
vn -0.488360 0.835429 0.252116
vn -0.488360 0.835429 0.252116
vn -0.488360 0.835429 0.252116
vn -0.488360 0.835429 0.252116
vn 0.682284 0.707378 0.184678
vn 0.682284 0.707378 0.184678
vn 0.682284 0.707378 0.184678
vn 0.682284 0.707378 0.184678
vn -0.451679 0.875032 0.174085
vn -0.451679 0.875032 0.174085
vn -0.451679 0.875032 0.174085
vn 0.948532 -0.125224 0.290871
vn 0.948532 -0.125224 0.290871
vn 0.948532 -0.125224 0.290871
vn 0.957952 0.105311 0.266905
vn 0.957952 0.105311 0.266905
vn 0.957952 0.105311 0.266905
vn 0.957952 0.105311 0.266905
vn -0.271589 0.932417 0.238407
vn -0.271589 0.932417 0.238407
vn -0.271589 0.932417 0.238407
vn -0.271589 0.932417 0.238407
vn -0.860650 -0.433905 0.266473
vn -0.860650 -0.433905 0.266473
vn -0.860650 -0.433905 0.266473
vn -0.860650 -0.433905 0.266473
vn -0.908563 0.233870 0.346148
vn -0.908563 0.233870 0.346148
vn -0.908563 0.233870 0.346148
vn -0.908563 0.233870 0.346148
vn 0.339988 -0.704463 0.623009
vn 0.339988 -0.704463 0.623009
vn 0.339988 -0.704463 0.623009
vn 0.339988 -0.704463 0.623009
vn -0.623637 -0.601501 0.499273
vn -0.623637 -0.601501 0.499273
vn -0.623637 -0.601501 0.499273
vn -0.646310 -0.623368 0.440108
vn -0.646310 -0.623368 0.440108
vn -0.646310 -0.623368 0.440108
vn 0.306857 -0.703522 0.641011
vn 0.306857 -0.703522 0.641011
vn 0.306857 -0.703522 0.641011
vn 0.306857 -0.703522 0.641011
vn 0.912192 -0.386139 0.137123
vn 0.912192 -0.386139 0.137123
vn 0.912192 -0.386139 0.137123
vn 0.000000 0.000000 -1.000000
vn 0.000000 0.000000 -1.000000
vn 0.000000 0.000000 -1.000000
vn 0.000000 0.000000 -1.000000
vn 0.000000 0.000000 -1.000000
vn 0.000000 0.000000 -1.000000
vn 0.000000 0.000000 -1.000000
vn 0.000000 0.000000 -1.000000
vn 0.000000 0.000000 -1.000000
vn 0.000000 0.000000 -1.000000
vn 0.000000 0.000000 -1.000000
vn 0.000000 0.000000 -1.000000
vn 0.000000 0.000000 -1.000000
vn 0.000000 0.000000 -1.000000
vn 0.000000 0.000000 -1.000000
vn 0.000000 0.000000 -1.000000
vn 0.000000 0.000000 -1.000000
vn 0.000000 0.000000 -1.000000
vn 0.000000 0.000000 -1.000000
vn 0.000000 0.000000 -1.000000
vn 0.000000 0.000000 -1.000000
vn 0.000000 0.000000 -1.000000
vn 0.000000 0.000000 -1.000000
vn 0.000000 0.000000 -1.000000
vn 0.000000 0.000000 -1.000000
vn 0.000000 0.000000 -1.000000
vn 0.000000 0.000000 -1.000000
vn 0.000000 0.000000 -1.000000
vn -0.000000 0.000000 -1.000000
vn -0.000000 0.000000 -1.000000
vn -0.000000 0.000000 -1.000000
vn 0.000000 0.000000 -1.000000
vn 0.000000 0.000000 -1.000000
vn 0.000000 0.000000 -1.000000
vn 0.000000 0.000000 -1.000000
vn 0.000000 0.000000 -1.000000
vn 0.000000 0.000000 -1.000000
vn 0.000000 0.000000 -1.000000
vn 0.000000 0.000000 -1.000000
vn 0.000000 0.000000 -1.000000
vn 0.000000 0.000000 -1.000000
vn 0.000000 0.000000 -1.000000
vn 0.000000 0.000000 -1.000000
vn 0.000000 0.000000 -1.000000
vn 0.000000 0.000000 -1.000000
vn 0.000000 0.000000 -1.000000
vn 0.000000 0.000000 -1.000000
vn -0.629842 -0.716106 -0.300816
vn -0.629842 -0.716106 -0.300816
vn -0.629842 -0.716106 -0.300816
vn -0.629842 -0.716106 -0.300816
vn -0.270140 0.838140 -0.473863
vn -0.270140 0.838140 -0.473863
vn -0.270140 0.838140 -0.473863
vn -0.270140 0.838140 -0.473863
vn 0.338580 0.905052 -0.257381
vn 0.338580 0.905052 -0.257381
vn 0.338580 0.905052 -0.257381
vn 0.338580 0.905052 -0.257381
vn -0.869886 -0.227619 -0.437593
vn -0.869886 -0.227619 -0.437593
vn -0.869886 -0.227619 -0.437593
vn -0.869886 -0.227619 -0.437593
vn 0.574414 0.667375 -0.473983
vn 0.574414 0.667375 -0.473983
vn 0.574414 0.667375 -0.473983
vn 0.574414 0.667375 -0.473983
vn -0.419014 -0.757554 -0.500539
vn -0.419014 -0.757554 -0.500539
vn -0.419014 -0.757554 -0.500539
vn -0.419014 -0.757554 -0.500539
vn -0.783036 -0.399210 -0.476956
vn -0.783036 -0.399210 -0.476956
vn -0.783036 -0.399210 -0.476956
vn -0.783036 -0.399210 -0.476956
vn 0.893755 0.211932 -0.395332
vn 0.893755 0.211932 -0.395332
vn 0.893755 0.211932 -0.395332
vn 0.893755 0.211932 -0.395332
vn 0.918551 0.068100 -0.389392
vn 0.918551 0.068100 -0.389392
vn 0.918551 0.068100 -0.389392
vn 0.918551 0.068100 -0.389392
vn -0.890613 -0.001567 -0.454760
vn -0.890613 -0.001567 -0.454760
vn -0.890613 -0.001567 -0.454760
vn -0.890613 -0.001567 -0.454760
vn 0.855495 0.328067 -0.400625
vn 0.855495 0.328067 -0.400625
vn 0.855495 0.328067 -0.400625
vn 0.855495 0.328067 -0.400625
vn -0.557460 0.830102 -0.013003
vn -0.557460 0.830102 -0.013003
vn -0.557460 0.830102 -0.013003
vn 0.417590 -0.899714 -0.127018
vn 0.417590 -0.899714 -0.127018
vn 0.417590 -0.899714 -0.127018
vn 0.417590 -0.899714 -0.127018
vn -0.488360 0.835429 -0.252116
vn -0.488360 0.835429 -0.252116
vn -0.488360 0.835429 -0.252116
vn -0.488360 0.835429 -0.252116
vn 0.682284 0.707378 -0.184678
vn 0.682284 0.707378 -0.184678
vn 0.682284 0.707378 -0.184678
vn 0.682284 0.707378 -0.184678
vn -0.451679 0.875032 -0.174085
vn -0.451679 0.875032 -0.174085
vn -0.451679 0.875032 -0.174085
vn 0.948532 -0.125225 -0.290871
vn 0.948532 -0.125225 -0.290871
vn 0.948532 -0.125225 -0.290871
vn 0.957952 0.105311 -0.266905
vn 0.957952 0.105311 -0.266905
vn 0.957952 0.105311 -0.266905
vn 0.957952 0.105311 -0.266905
vn -0.271589 0.932417 -0.238406
vn -0.271589 0.932417 -0.238406
vn -0.271589 0.932417 -0.238406
vn -0.271589 0.932417 -0.238406
vn -0.860650 -0.433905 -0.266473
vn -0.860650 -0.433905 -0.266473
vn -0.860650 -0.433905 -0.266473
vn -0.860650 -0.433905 -0.266473
vn -0.908563 0.233870 -0.346148
vn -0.908563 0.233870 -0.346148
vn -0.908563 0.233870 -0.346148
vn -0.908563 0.233870 -0.346148
vn 0.339988 -0.704463 -0.623009
vn 0.339988 -0.704463 -0.623009
vn 0.339988 -0.704463 -0.623009
vn 0.339988 -0.704463 -0.623009
vn -0.623637 -0.601501 -0.499273
vn -0.623637 -0.601501 -0.499273
vn -0.623637 -0.601501 -0.499273
vn -0.646310 -0.623368 -0.440108
vn -0.646310 -0.623368 -0.440108
vn -0.646310 -0.623368 -0.440108
vn 0.306857 -0.703522 -0.641011
vn 0.306857 -0.703522 -0.641011
vn 0.306857 -0.703522 -0.641011
vn 0.306857 -0.703522 -0.641011
vn 0.912192 -0.386139 -0.137123
vn 0.912192 -0.386139 -0.137123
vn 0.912192 -0.386139 -0.137123
vn 0.000000 -0.999350 0.036049
vn 0.000000 -0.999350 0.036049
vn 0.000000 -0.999350 0.036049
vn 0.000000 -0.999350 -0.036049
vn 0.000000 -0.999350 -0.036049
vn 0.000000 -0.999350 -0.036049
vn 0.394867 -0.897360 0.197040
vn 0.394867 -0.897360 0.197040
vn 0.394867 -0.897360 0.197040
vn 0.394867 -0.897360 0.197040
vn 0.394868 -0.897360 -0.197039
vn 0.394868 -0.897360 -0.197039
vn 0.394868 -0.897360 -0.197039
vn 0.394868 -0.897360 -0.197039
s off
f 18/26/1 17/27/2 19/28/3
f 21/29/4 20/30/5 22/12/6
f 19/28/7 17/27/8 23/31/9 24/32/10
f 26/33/11 25/34/12 27/10/13 28/11/14
f 26/33/15 28/11/16 29/35/17
f 24/32/18 23/31/19 30/36/20
f 31/37/21 30/36/22 23/31/23 29/35/24
f 31/37/25 29/35/26 28/11/27 22/12/28
f 20/30/29 31/37/30 22/12/31
f 34/41/32 33/42/33 35/13/34 36/43/35
f 36/43/36 35/13/37 37/44/38 38/45/39
f 35/13/40 33/42/41 39/46/42 40/47/43
f 37/44/44 35/13/45 40/47/46 41/48/47
f 1/2/48 12/5/49 17/27/50 18/26/51
f 2/1/52 1/2/53 18/26/54 19/28/55
f 13/21/56 8/22/57 20/30/58 21/29/59
f 12/5/60 11/6/61 23/31/62 17/27/63
f 5/25/64 2/1/65 19/28/66 24/32/67
f 9/8/68 4/9/69 25/34/70 26/33/71
f 10/7/72 9/8/73 26/33/74 29/35/75
f 6/24/76 5/25/77 24/32/78 30/36/79
f 7/23/80 6/24/81 30/36/82 31/37/83
f 11/6/84 10/7/85 29/35/86 23/31/87
f 8/22/88 7/23/89 31/37/90 20/30/91
f 15/15/92 13/3/93 21/38/94
f 42/49/95 71/102/96 16/16/97 32/39/98
f 21/38/99 22/4/100 33/42/101 34/41/102
f 14/14/103 15/15/104 34/41/105 36/43/106
f 15/15/107 21/38/108 34/41/109
f 38/45/110 43/50/111 3/17/112
f 3/17/113 14/14/114 36/43/115 38/45/116
f 22/4/117 28/18/118 39/46/119 33/42/120
f 28/18/121 27/19/122 40/47/123 39/46/124
f 27/19/125 25/40/126 41/48/127 40/47/128
f 41/48/129 42/49/130 32/39/131 37/44/132
f 25/40/133 42/49/134 41/48/135
f 4/20/136 42/49/137 25/40/138
f 32/39/139 43/50/140 38/45/141 37/44/142
f 43/50/143 72/104/144 3/17/145
f 45/51/146 46/53/147 44/52/148
f 48/54/149 49/56/150 47/55/151
f 46/53/152 51/58/153 50/57/154 44/52/155
f 53/59/156 55/62/157 54/61/158 52/60/159
f 53/59/160 56/63/161 55/62/162
f 51/58/163 57/64/164 50/57/165
f 58/65/166 56/63/167 50/57/168 57/64/169
f 58/65/170 49/56/171 55/62/172 56/63/173
f 47/55/174 49/56/175 58/65/176
f 61/66/177 63/69/178 62/68/179 60/67/180
f 63/69/181 65/71/182 64/70/183 62/68/184
f 62/68/185 67/73/186 66/72/187 60/67/188
f 64/70/189 68/74/190 67/73/191 62/68/192
f 1/75/193 45/51/194 44/52/195 12/76/196
f 2/77/197 46/53/198 45/51/199 1/75/200
f 13/78/201 48/54/202 47/55/203 8/79/204
f 12/76/205 44/52/206 50/57/207 11/80/208
f 5/81/209 51/58/210 46/53/211 2/77/212
f 9/82/213 53/59/214 52/60/215 4/83/216
f 10/84/217 56/63/218 53/59/219 9/82/220
f 6/85/221 57/64/222 51/58/223 5/81/224
f 7/86/225 58/65/226 57/64/227 6/85/228
f 11/80/229 50/57/230 56/63/231 10/84/232
f 8/79/233 47/55/234 58/65/235 7/86/236
f 15/87/237 48/89/238 13/88/239
f 71/101/240 69/93/241 59/92/242 16/91/243
f 48/89/244 61/66/245 60/67/246 49/94/247
f 14/95/248 63/69/249 61/66/250 15/87/251
f 15/87/252 61/66/253 48/89/254
f 65/71/255 3/97/256 70/96/257
f 3/97/258 65/71/259 63/69/260 14/95/261
f 49/94/262 60/67/263 66/72/264 55/98/265
f 55/98/266 66/72/267 67/73/268 54/99/269
f 54/99/270 67/73/271 68/74/272 52/100/273
f 68/74/274 64/70/275 59/92/276 69/93/277
f 52/100/278 68/74/279 69/93/280
f 4/90/281 52/100/282 69/93/283
f 59/92/284 64/70/285 65/71/286 70/96/287
f 72/103/288 70/96/289 3/97/290
f 4/20/291 71/102/292 42/49/293
f 4/90/294 69/93/295 71/101/296
f 16/16/297 72/104/298 43/50/299 32/39/300
f 16/91/301 59/92/302 70/96/303 72/103/304
