# This file uses centimeters as units for non-parametric coordinates.

v -20.000000 -6.446740 -0.000000
v -18.639940 -8.000000 -0.000000
v 7.300347 -8.000000 0.000000
v 20.000000 -3.510432 0.000000
v 8.947041 0.787536 -0.000000
v -5.853627 7.999999 0.000000
v -20.000000 6.967383 -0.000000
v 15.583750 -7.139664 0.000000
v 19.132341 -5.828758 0.000000
v 19.073164 -1.935271 0.000000
v 16.720589 -1.474796 -0.000000
v 1.791800 4.560903 -0.000000
v -2.818504 7.173044 0.000000
v -7.726868 7.135135 0.000000
v -7.448611 5.549685 0.000000
v -9.279141 4.198888 0.000000
v -13.228494 3.173904 -0.000000
v -17.407072 5.889730 -0.000000
v -19.084499 7.199356 0.000000
v -15.974342 3.929631 0.000000
v -20.000000 -3.953322 0.000000
v -20.000000 2.723815 -0.000000
v 7.204208 1.706631 -0.000000
v -15.754876 -4.072076 2.000000
v -19.209499 -3.947422 2.000000
v -19.198000 -6.134899 2.000000
v -18.035067 -7.390994 2.000000
v 6.963740 -7.387173 2.000000
v -5.919072 -4.182161 2.000000
v 6.959695 -3.817714 2.000000
v 14.838702 -6.604138 2.000000
v 14.434069 -2.702060 2.000000
v 18.110800 -5.461263 2.000000
v 18.861959 -3.566692 2.000000
v 15.917993 -1.920903 2.000000
v 18.088869 -2.336792 2.000000
v -19.209499 2.149518 2.000000
v -16.179756 -0.261436 2.000000
v -15.418335 -1.442069 2.000000
v 8.462748 0.167880 2.000000
v 6.644672 -1.055774 2.000000
v -10.392305 -0.065057 2.000000
v -6.201000 0.107772 2.000000
v -2.018751 -1.255519 2.000000
v 3.515782 -1.545369 2.000000
v 4.672549 -0.293905 2.000000
v 6.776306 1.012789 2.000000
v 1.605329 3.626841 2.000000
v 1.355602 0.577705 2.000000
v -4.707035 3.302481 2.000000
v -2.782798 6.000723 2.000000
v -5.578650 6.735603 2.000000
v -6.760378 4.727659 2.000000
v -6.908337 6.157914 2.000000
v -2.132458 0.013964 2.000000
v -6.438870 1.321059 2.000000
v -8.781050 3.315890 2.000000
v -11.424302 1.117875 2.000000
v -12.632793 2.357172 2.000000
v -15.724662 3.055444 2.000000
v -17.200506 4.846493 2.000000
v -18.502369 6.159791 2.000000
v -19.229050 5.886718 2.000000
v -15.754876 -4.072076 -2.000000
v -19.209499 -3.947422 -2.000000
v -19.198000 -6.134899 -2.000000
v -18.035067 -7.390994 -2.000000
v 6.963740 -7.387173 -2.000000
v -5.919072 -4.182161 -2.000000
v 6.959695 -3.817714 -2.000000
v 14.838702 -6.604138 -2.000000
v 14.434069 -2.702060 -2.000000
v 18.110800 -5.461263 -2.000000
v 18.861959 -3.566692 -2.000000
v 15.917993 -1.920903 -2.000000
v 18.088869 -2.336792 -2.000000
v -19.209499 2.149518 -2.000000
v -16.179756 -0.261436 -2.000000
v -15.418335 -1.442069 -2.000000
v 8.462748 0.167880 -2.000000
v 6.644672 -1.055774 -2.000000
v -10.392305 -0.065057 -2.000000
v -6.201000 0.107772 -2.000000
v -2.018751 -1.255519 -2.000000
v 3.515782 -1.545369 -2.000000
v 4.672549 -0.293905 -2.000000
v 6.776306 1.012789 -2.000000
v 1.605329 3.626841 -2.000000
v 1.355602 0.577705 -2.000000
v -4.707035 3.302481 -2.000000
v -2.782798 6.000723 -2.000000
v -5.578650 6.735603 -2.000000
v -6.760378 4.727659 -2.000000
v -6.908337 6.157914 -2.000000
v -2.132458 0.013964 -2.000000
v -6.438870 1.321059 -2.000000
v -8.781050 3.315890 -2.000000
v -11.424302 1.117875 -2.000000
v -12.632793 2.357172 -2.000000
v -15.724662 3.055444 -2.000000
v -17.200506 4.846493 -2.000000
v -18.502369 6.159791 -2.000000
v -19.229050 5.886718 -2.000000
vt 0.297073 0.952195
vt 0.986318 0.888781
vt 0.986341 0.888741
vt 0.986401 0.888730
vt 0.986442 0.888758
vt 0.976747 0.885254
vt 0.293334 0.952487
vt 0.236938 0.983925
vt 0.986639 0.888788
vt 0.986976 0.888797
vt 0.987231 0.888794
vt 0.297318 0.919780
vt 0.293611 0.952330
vt 0.293792 0.952281
vt 0.293904 0.952333
vt 0.236662 0.983955
vt 0.236707 0.983989
vt 0.236836 0.983996
vt 0.236886 0.983949
vt 0.236915 0.983919
vt 0.236867 0.983967
vt 0.297522 0.951807
vt 0.297522 0.919940
vt 0.236238 0.984202
vt 0.236595 0.984213
vt 0.236850 0.984187
vt 0.236263 0.984133
vt 0.987318 0.888790
vt 0.987318 0.888852
vt 0.987284 0.888891
vt 0.986639 0.888893
vt 0.986430 0.888872
vt 0.986340 0.888839
vt 0.236862 0.984099
vt 0.236938 0.984031
vt 0.236842 0.984128
vt 0.297519 0.952786
vt 0.297006 0.952807
vt 0.296956 0.952385
vt 0.297490 0.920247
vt 0.296689 0.920125
vt 0.296522 0.920011
vt 0.236405 0.984080
vt 0.236589 0.984002
vt 0.293888 0.952428
vt 0.293737 0.952521
vt 0.293357 0.952700
vt 0.976825 0.885234
vt 0.236346 0.984144
vt 0.236495 0.984131
vt 0.236616 0.984091
vt 0.236720 0.984093
vt 0.236326 0.984117
vt 0.293127 0.952778
vt 0.292958 0.952685
vt 0.236757 0.984062
vt 0.236617 0.984066
vt 0.236491 0.984109
vt 0.977090 0.885230
vt 0.977264 0.885167
vt 0.977465 0.885177
vt 0.977671 0.885221
vt 0.977640 0.885271
vt 0.977437 0.885212
vt 0.977268 0.885205
vt 0.977099 0.885263
vt 0.976874 0.885275
vt 0.976671 0.885193
vt 0.976706 0.885175
vt 0.987318 0.888790
vt 0.987318 0.888852
vt 0.987284 0.888891
vt 0.986639 0.888893
vt 0.986430 0.888872
vt 0.986340 0.888839
vt 0.986318 0.888781
vt 0.986341 0.888741
vt 0.986401 0.888730
vt 0.297522 0.951807
vt 0.297519 0.952786
vt 0.296522 0.920011
vt 0.297318 0.919780
vt 0.292958 0.952685
vt 0.293334 0.952487
vt 0.293611 0.952330
vt 0.293792 0.952281
vt 0.293904 0.952333
vt 0.293888 0.952428
vt 0.236662 0.983955
vt 0.236707 0.983989
vt 0.236836 0.983996
vt 0.236867 0.983967
vt 0.236886 0.983949
vt 0.236915 0.983919
vt 0.236938 0.983925
vt 0.236938 0.984031
vt 0.976671 0.885193
vt 0.976706 0.885175
vt 0.987231 0.888794
vt 0.987318 0.888790
vt 0.987318 0.888852
vt 0.987284 0.888891
vt 0.986639 0.888893
vt 0.986976 0.888797
vt 0.986639 0.888788
vt 0.986430 0.888872
vt 0.986442 0.888758
vt 0.986340 0.888839
vt 0.986318 0.888781
vt 0.986401 0.888730
vt 0.986341 0.888741
vt 0.297522 0.951807
vt 0.297519 0.952786
vt 0.297073 0.952195
vt 0.296956 0.952385
vt 0.297006 0.952807
vt 0.296522 0.920011
vt 0.297318 0.919780
vt 0.296689 0.920125
vt 0.297522 0.919940
vt 0.297490 0.920247
vt 0.236842 0.984128
vt 0.236850 0.984187
vt 0.236595 0.984213
vt 0.236720 0.984093
vt 0.236616 0.984091
vt 0.236495 0.984131
vt 0.236238 0.984202
vt 0.236346 0.984144
vt 0.236263 0.984133
vt 0.293127 0.952778
vt 0.292958 0.952685
vt 0.293334 0.952487
vt 0.293357 0.952700
vt 0.293737 0.952521
vt 0.293611 0.952330
vt 0.293792 0.952281
vt 0.293888 0.952428
vt 0.293904 0.952333
vt 0.236326 0.984117
vt 0.236405 0.984080
vt 0.236491 0.984109
vt 0.236589 0.984002
vt 0.236617 0.984066
vt 0.236662 0.983955
vt 0.236707 0.983989
vt 0.236757 0.984062
vt 0.236836 0.983996
vt 0.236862 0.984099
vt 0.236867 0.983967
vt 0.236938 0.984031
vt 0.236886 0.983949
vt 0.236915 0.983919
vt 0.236938 0.983925
vt 0.976747 0.885254
vt 0.976825 0.885234
vt 0.976874 0.885275
vt 0.977090 0.885230
vt 0.977099 0.885263
vt 0.977268 0.885205
vt 0.977264 0.885167
vt 0.977465 0.885177
vt 0.977671 0.885221
vt 0.977640 0.885271
vt 0.977437 0.885212
vt 0.976671 0.885193
vt 0.976706 0.885175
vt 0.987318 0.888790
vt 0.987318 0.888852
vt 0.987284 0.888891
vt 0.986639 0.888893
vt 0.986430 0.888872
vt 0.986340 0.888839
vt 0.986318 0.888781
vt 0.986341 0.888741
vt 0.986401 0.888730
vt 0.297522 0.951807
vt 0.297519 0.952786
vt 0.296522 0.920011
vt 0.297318 0.919780
vt 0.292958 0.952685
vt 0.293334 0.952487
vt 0.293611 0.952330
vt 0.293792 0.952281
vt 0.293904 0.952333
vt 0.293888 0.952428
vt 0.236662 0.983955
vt 0.236707 0.983989
vt 0.236836 0.983996
vt 0.236867 0.983967
vt 0.236886 0.983949
vt 0.236915 0.983919
vt 0.236938 0.983925
vt 0.236938 0.984031
vt 0.976671 0.885193
vt 0.976706 0.885175
vn 0.000000 0.000000 1.000000
vn 0.000000 0.000000 1.000000
vn 0.000000 0.000000 1.000000
vn 0.000000 0.000000 1.000000
vn 0.000000 0.000000 1.000000
vn 0.000000 0.000000 1.000000
vn 0.000000 0.000000 1.000000
vn 0.000000 0.000000 1.000000
vn 0.000000 0.000000 1.000000
vn 0.000000 0.000000 1.000000
vn 0.000000 0.000000 1.000000
vn 0.000000 0.000000 1.000000
vn 0.000000 0.000000 1.000000
vn 0.000000 0.000000 1.000000
vn 0.000000 0.000000 1.000000
vn 0.000000 0.000000 1.000000
vn 0.000000 0.000000 1.000000
vn 0.000000 0.000000 1.000000
vn 0.000000 0.000000 1.000000
vn 0.000000 0.000000 1.000000
vn 0.000000 0.000000 1.000000
vn 0.000000 0.000000 1.000000
vn 0.000000 0.000000 1.000000
vn 0.000000 0.000000 1.000000
vn 0.000000 0.000000 1.000000
vn 0.000000 0.000000 1.000000
vn 0.000000 0.000000 1.000000
vn 0.000000 0.000000 1.000000
vn 0.000000 0.000000 1.000000
vn 0.000000 0.000000 1.000000
vn 0.000000 0.000000 1.000000
vn 0.000000 0.000000 1.000000
vn 0.000000 0.000000 1.000000
vn 0.000000 0.000000 1.000000
vn 0.000000 0.000000 1.000000
vn 0.000000 0.000000 1.000000
vn 0.000000 0.000000 1.000000
vn 0.000000 0.000000 1.000000
vn 0.000000 0.000000 1.000000
vn -0.000000 0.000000 1.000000
vn -0.000000 0.000000 1.000000
vn -0.000000 0.000000 1.000000
vn -0.000000 0.000000 1.000000
vn 0.000000 0.000000 1.000000
vn 0.000000 0.000000 1.000000
vn 0.000000 0.000000 1.000000
vn 0.000000 0.000000 1.000000
vn 0.000000 0.000000 1.000000
vn 0.000000 0.000000 1.000000
vn 0.000000 0.000000 1.000000
vn 0.000000 0.000000 1.000000
vn 0.000000 0.000000 1.000000
vn 0.000000 0.000000 1.000000
vn 0.000000 0.000000 1.000000
vn -0.000000 0.000000 1.000000
vn -0.000000 0.000000 1.000000
vn -0.000000 0.000000 1.000000
vn -0.000000 0.000000 1.000000
vn 0.000000 0.000000 1.000000
vn 0.000000 0.000000 1.000000
vn 0.000000 0.000000 1.000000
vn 0.000000 0.000000 1.000000
vn 0.000000 0.000000 1.000000
vn 0.000000 0.000000 1.000000
vn 0.000000 0.000000 1.000000
vn 0.000000 0.000000 1.000000
vn 0.000000 0.000000 1.000000
vn 0.000000 0.000000 1.000000
vn 0.000000 0.000000 1.000000
vn 0.000000 0.000000 1.000000
vn 0.000000 0.000000 1.000000
vn 0.000000 0.000000 1.000000
vn 0.000000 0.000000 1.000000
vn 0.000000 0.000000 1.000000
vn 0.000000 0.000000 1.000000
vn 0.000000 0.000000 1.000000
vn -0.000000 0.000000 1.000000
vn -0.000000 0.000000 1.000000
vn -0.000000 0.000000 1.000000
vn -0.000000 0.000000 1.000000
vn 0.000000 0.000000 1.000000
vn 0.000000 0.000000 1.000000
vn 0.000000 0.000000 1.000000
vn 0.000000 0.000000 1.000000
vn 0.000000 0.000000 1.000000
vn 0.000000 0.000000 1.000000
vn 0.000000 0.000000 1.000000
vn 0.000000 0.000000 1.000000
vn 0.000000 0.000000 1.000000
vn 0.000000 0.000000 1.000000
vn 0.000000 0.000000 1.000000
vn 0.000000 0.000000 1.000000
vn 0.000000 0.000000 1.000000
vn 0.000000 0.000000 1.000000
vn 0.000000 0.000000 1.000000
vn 0.000000 0.000000 1.000000
vn -0.000000 0.000000 1.000000
vn -0.000000 0.000000 1.000000
vn -0.000000 0.000000 1.000000
vn 0.000000 0.000000 1.000000
vn 0.000000 0.000000 1.000000
vn 0.000000 0.000000 1.000000
vn 0.000000 0.000000 1.000000
vn 0.000000 0.000000 1.000000
vn 0.000000 0.000000 1.000000
vn 0.000000 0.000000 1.000000
vn 0.000000 0.000000 1.000000
vn -0.000000 0.000000 1.000000
vn -0.000000 0.000000 1.000000
vn -0.000000 0.000000 1.000000
vn -0.000000 0.000000 1.000000
vn 0.000000 0.000000 1.000000
vn 0.000000 0.000000 1.000000
vn 0.000000 0.000000 1.000000
vn 0.000000 0.000000 1.000000
vn 0.000000 0.000000 1.000000
vn 0.000000 0.000000 1.000000
vn 0.000000 0.000000 1.000000
vn 0.000000 0.000000 1.000000
vn -0.929011 -0.002283 0.370044
vn -0.929011 -0.002283 0.370044
vn -0.929011 -0.002283 0.370044
vn -0.929011 -0.002283 0.370044
vn -0.687061 -0.617027 0.383699
vn -0.687061 -0.617027 0.383699
vn -0.687061 -0.617027 0.383699
vn -0.687061 -0.617027 0.383699
vn 0.000072 -0.956379 0.292129
vn 0.000072 -0.956379 0.292129
vn 0.000072 -0.956379 0.292129
vn 0.000072 -0.956379 0.292129
vn 0.096563 -0.949453 0.298689
vn 0.096563 -0.949453 0.298689
vn 0.096563 -0.949453 0.298689
vn 0.096563 -0.949453 0.298689
vn 0.318309 -0.884792 0.340327
vn 0.318309 -0.884792 0.340327
vn 0.318309 -0.884792 0.340327
vn 0.318309 -0.884792 0.340327
vn 0.824137 -0.316678 0.469588
vn 0.824137 -0.316678 0.469588
vn 0.824137 -0.316678 0.469588
vn 0.824137 -0.316678 0.469588
vn 0.760904 0.461124 0.456497
vn 0.760904 0.461124 0.456497
vn 0.760904 0.461124 0.456497
vn 0.760904 0.461124 0.456497
vn 0.182527 0.942135 0.281184
vn 0.182527 0.942135 0.281184
vn 0.182527 0.942135 0.281184
vn 0.182527 0.942135 0.281184
vn -0.929992 0.000000 0.367580
vn -0.929992 0.000000 0.367580
vn -0.929992 0.000000 0.367580
vn -0.929992 0.000000 0.367580
vn 0.259736 0.909069 0.325776
vn 0.259736 0.909069 0.325776
vn 0.259736 0.909069 0.325776
vn 0.259736 0.909069 0.325776
vn 0.421385 0.815548 0.396630
vn 0.421385 0.815548 0.396630
vn 0.421385 0.815548 0.396630
vn 0.421385 0.815548 0.396630
vn 0.437131 0.788904 0.431910
vn 0.437131 0.788904 0.431910
vn 0.437131 0.788904 0.431910
vn 0.437131 0.788904 0.431910
vn 0.224940 0.839794 0.494114
vn 0.224940 0.839794 0.494114
vn 0.224940 0.839794 0.494114
vn 0.224940 0.839794 0.494114
vn -0.348513 0.773809 0.528921
vn -0.348513 0.773809 0.528921
vn -0.348513 0.773809 0.528921
vn -0.348513 0.773809 0.528921
vn -0.945749 -0.133664 0.296131
vn -0.945749 -0.133664 0.296131
vn -0.945749 -0.133664 0.296131
vn -0.945749 -0.133664 0.296131
vn -0.517297 0.721147 0.460814
vn -0.517297 0.721147 0.460814
vn -0.517297 0.721147 0.460814
vn -0.517297 0.721147 0.460814
vn -0.222241 0.873985 0.432156
vn -0.222241 0.873985 0.432156
vn -0.222241 0.873985 0.432156
vn -0.222241 0.873985 0.432156
vn 0.227463 0.913251 0.337985
vn 0.227463 0.913251 0.337985
vn 0.227463 0.913251 0.337985
vn 0.227463 0.913251 0.337985
vn 0.774383 0.600443 0.199499
vn 0.774383 0.600443 0.199499
vn 0.774383 0.600443 0.199499
vn 0.774383 0.600443 0.199499
vn 0.639446 0.726324 0.252116
vn 0.639446 0.726324 0.252116
vn 0.639446 0.726324 0.252116
vn 0.639446 0.726324 0.252116
vn -0.251390 0.817408 0.518311
vn -0.251390 0.817408 0.518311
vn -0.251390 0.817408 0.518311
vn -0.251390 0.817408 0.518311
vn -0.931857 -0.002283 0.362818
vn -0.931857 -0.002283 0.362818
vn -0.931857 -0.002283 0.362818
vn -0.931857 -0.002283 0.362818
vn 0.425246 0.826690 0.368441
vn 0.425246 0.826690 0.368441
vn 0.425246 0.826690 0.368441
vn 0.425246 0.826690 0.368441
vn 0.000000 0.000000 -1.000000
vn 0.000000 0.000000 -1.000000
vn 0.000000 0.000000 -1.000000
vn 0.000000 0.000000 -1.000000
vn 0.000000 0.000000 -1.000000
vn 0.000000 0.000000 -1.000000
vn 0.000000 0.000000 -1.000000
vn 0.000000 0.000000 -1.000000
vn 0.000000 0.000000 -1.000000
vn 0.000000 0.000000 -1.000000
vn 0.000000 0.000000 -1.000000
vn 0.000000 0.000000 -1.000000
vn 0.000000 0.000000 -1.000000
vn 0.000000 0.000000 -1.000000
vn 0.000000 0.000000 -1.000000
vn 0.000000 0.000000 -1.000000
vn 0.000000 0.000000 -1.000000
vn 0.000000 0.000000 -1.000000
vn 0.000000 0.000000 -1.000000
vn 0.000000 0.000000 -1.000000
vn 0.000000 0.000000 -1.000000
vn 0.000000 0.000000 -1.000000
vn 0.000000 0.000000 -1.000000
vn 0.000000 0.000000 -1.000000
vn 0.000000 0.000000 -1.000000
vn 0.000000 0.000000 -1.000000
vn 0.000000 0.000000 -1.000000
vn 0.000000 0.000000 -1.000000
vn 0.000000 0.000000 -1.000000
vn 0.000000 0.000000 -1.000000
vn 0.000000 0.000000 -1.000000
vn 0.000000 0.000000 -1.000000
vn 0.000000 0.000000 -1.000000
vn 0.000000 0.000000 -1.000000
vn 0.000000 0.000000 -1.000000
vn 0.000000 0.000000 -1.000000
vn 0.000000 0.000000 -1.000000
vn 0.000000 0.000000 -1.000000
vn 0.000000 0.000000 -1.000000
vn -0.000000 0.000000 -1.000000
vn -0.000000 0.000000 -1.000000
vn -0.000000 0.000000 -1.000000
vn -0.000000 0.000000 -1.000000
vn 0.000000 0.000000 -1.000000
vn 0.000000 0.000000 -1.000000
vn 0.000000 0.000000 -1.000000
vn 0.000000 0.000000 -1.000000
vn 0.000000 0.000000 -1.000000
vn 0.000000 0.000000 -1.000000
vn 0.000000 0.000000 -1.000000
vn 0.000000 0.000000 -1.000000
vn 0.000000 0.000000 -1.000000
vn 0.000000 0.000000 -1.000000
vn 0.000000 0.000000 -1.000000
vn -0.000000 0.000000 -1.000000
vn -0.000000 0.000000 -1.000000
vn -0.000000 0.000000 -1.000000
vn -0.000000 0.000000 -1.000000
vn 0.000000 0.000000 -1.000000
vn 0.000000 0.000000 -1.000000
vn 0.000000 0.000000 -1.000000
vn 0.000000 0.000000 -1.000000
vn 0.000000 0.000000 -1.000000
vn 0.000000 0.000000 -1.000000
vn 0.000000 0.000000 -1.000000
vn 0.000000 0.000000 -1.000000
vn 0.000000 0.000000 -1.000000
vn 0.000000 0.000000 -1.000000
vn 0.000000 0.000000 -1.000000
vn 0.000000 0.000000 -1.000000
vn 0.000000 0.000000 -1.000000
vn 0.000000 0.000000 -1.000000
vn -0.000000 0.000000 -1.000000
vn -0.000000 0.000000 -1.000000
vn -0.000000 0.000000 -1.000000
vn -0.000000 0.000000 -1.000000
vn 0.000000 0.000000 -1.000000
vn 0.000000 0.000000 -1.000000
vn 0.000000 0.000000 -1.000000
vn 0.000000 0.000000 -1.000000
vn 0.000000 0.000000 -1.000000
vn 0.000000 0.000000 -1.000000
vn 0.000000 0.000000 -1.000000
vn 0.000000 0.000000 -1.000000
vn 0.000000 0.000000 -1.000000
vn 0.000000 0.000000 -1.000000
vn 0.000000 0.000000 -1.000000
vn 0.000000 0.000000 -1.000000
vn 0.000000 0.000000 -1.000000
vn 0.000000 0.000000 -1.000000
vn 0.000000 0.000000 -1.000000
vn 0.000000 0.000000 -1.000000
vn 0.000000 0.000000 -1.000000
vn 0.000000 0.000000 -1.000000
vn 0.000000 0.000000 -1.000000
vn 0.000000 0.000000 -1.000000
vn -0.000000 0.000000 -1.000000
vn -0.000000 0.000000 -1.000000
vn -0.000000 0.000000 -1.000000
vn 0.000000 0.000000 -1.000000
vn 0.000000 0.000000 -1.000000
vn 0.000000 0.000000 -1.000000
vn 0.000000 0.000000 -1.000000
vn 0.000000 0.000000 -1.000000
vn 0.000000 0.000000 -1.000000
vn 0.000000 0.000000 -1.000000
vn 0.000000 0.000000 -1.000000
vn -0.000000 0.000000 -1.000000
vn -0.000000 0.000000 -1.000000
vn -0.000000 0.000000 -1.000000
vn -0.000000 0.000000 -1.000000
vn 0.000000 0.000000 -1.000000
vn 0.000000 0.000000 -1.000000
vn 0.000000 0.000000 -1.000000
vn 0.000000 0.000000 -1.000000
vn 0.000000 0.000000 -1.000000
vn 0.000000 0.000000 -1.000000
vn 0.000000 0.000000 -1.000000
vn 0.000000 0.000000 -1.000000
vn -0.929011 -0.002283 -0.370044
vn -0.929011 -0.002283 -0.370044
vn -0.929011 -0.002283 -0.370044
vn -0.929011 -0.002283 -0.370044
vn -0.687061 -0.617027 -0.383699
vn -0.687061 -0.617027 -0.383699
vn -0.687061 -0.617027 -0.383699
vn -0.687061 -0.617027 -0.383699
vn 0.000072 -0.956379 -0.292129
vn 0.000072 -0.956379 -0.292129
vn 0.000072 -0.956379 -0.292129
vn 0.000072 -0.956379 -0.292129
vn 0.096563 -0.949453 -0.298689
vn 0.096563 -0.949453 -0.298689
vn 0.096563 -0.949453 -0.298689
vn 0.096563 -0.949453 -0.298689
vn 0.318309 -0.884792 -0.340327
vn 0.318309 -0.884792 -0.340327
vn 0.318309 -0.884792 -0.340327
vn 0.318309 -0.884792 -0.340327
vn 0.824137 -0.316678 -0.469588
vn 0.824137 -0.316678 -0.469588
vn 0.824137 -0.316678 -0.469588
vn 0.824137 -0.316678 -0.469588
vn 0.760904 0.461124 -0.456497
vn 0.760904 0.461124 -0.456497
vn 0.760904 0.461124 -0.456497
vn 0.760904 0.461124 -0.456497
vn 0.182527 0.942135 -0.281184
vn 0.182527 0.942135 -0.281184
vn 0.182527 0.942135 -0.281184
vn 0.182527 0.942135 -0.281184
vn -0.929992 -0.000000 -0.367580
vn -0.929992 -0.000000 -0.367580
vn -0.929992 -0.000000 -0.367580
vn -0.929992 -0.000000 -0.367580
vn 0.259736 0.909069 -0.325776
vn 0.259736 0.909069 -0.325776
vn 0.259736 0.909069 -0.325776
vn 0.259736 0.909069 -0.325776
vn 0.421385 0.815548 -0.396630
vn 0.421385 0.815548 -0.396630
vn 0.421385 0.815548 -0.396630
vn 0.421385 0.815548 -0.396630
vn 0.437131 0.788904 -0.431910
vn 0.437131 0.788904 -0.431910
vn 0.437131 0.788904 -0.431910
vn 0.437131 0.788904 -0.431910
vn 0.224940 0.839794 -0.494114
vn 0.224940 0.839794 -0.494114
vn 0.224940 0.839794 -0.494114
vn 0.224940 0.839794 -0.494114
vn -0.348513 0.773809 -0.528921
vn -0.348513 0.773809 -0.528921
vn -0.348513 0.773809 -0.528921
vn -0.348513 0.773809 -0.528921
vn -0.945749 -0.133664 -0.296131
vn -0.945749 -0.133664 -0.296131
vn -0.945749 -0.133664 -0.296131
vn -0.945749 -0.133664 -0.296131
vn -0.517297 0.721147 -0.460814
vn -0.517297 0.721147 -0.460814
vn -0.517297 0.721147 -0.460814
vn -0.517297 0.721147 -0.460814
vn -0.222241 0.873985 -0.432156
vn -0.222241 0.873985 -0.432156
vn -0.222241 0.873985 -0.432156
vn -0.222241 0.873985 -0.432156
vn 0.227463 0.913251 -0.337985
vn 0.227463 0.913251 -0.337985
vn 0.227463 0.913251 -0.337985
vn 0.227463 0.913251 -0.337985
vn 0.774383 0.600443 -0.199499
vn 0.774383 0.600443 -0.199499
vn 0.774383 0.600443 -0.199499
vn 0.774383 0.600443 -0.199499
vn 0.639446 0.726324 -0.252116
vn 0.639446 0.726324 -0.252116
vn 0.639446 0.726324 -0.252116
vn 0.639446 0.726324 -0.252116
vn -0.251390 0.817408 -0.518311
vn -0.251390 0.817408 -0.518311
vn -0.251390 0.817408 -0.518311
vn -0.251390 0.817408 -0.518311
vn -0.931857 -0.002283 -0.362818
vn -0.931857 -0.002283 -0.362818
vn -0.931857 -0.002283 -0.362818
vn -0.931857 -0.002283 -0.362818
vn 0.425246 0.826690 -0.368441
vn 0.425246 0.826690 -0.368441
vn 0.425246 0.826690 -0.368441
vn 0.425246 0.826690 -0.368441
s off
f 24/11/1 25/70/2 26/71/3 27/72/4
f 24/11/5 27/72/6 28/73/7 29/10/8
f 29/10/9 28/73/10 30/9/11
f 30/9/12 28/73/13 31/74/14 32/5/15
f 31/74/16 33/75/17 32/5/18
f 32/5/19 33/75/20 34/76/21 35/78/22
f 34/76/23 36/77/24 35/78/25
f 37/79/26 25/80/27 38/1/28
f 39/39/29 38/1/30 25/80/31 24/38/32
f 35/81/33 40/82/34 32/41/35
f 41/23/36 30/40/37 32/41/38 40/82/39
f 39/36/40 24/26/41 29/25/42 42/52/43
f 43/51/44 42/52/45 29/25/46 44/50/47
f 44/50/48 29/25/49 30/24/50 45/49/51
f 41/27/52 45/49/53 30/24/54
f 46/54/55 47/83/56 48/84/57 49/47/58
f 50/46/59 49/47/60 48/84/61 51/85/62
f 50/46/63 51/85/64 52/86/65 53/88/66
f 52/86/67 54/87/68 53/88/69
f 46/53/70 49/43/71 55/58/72
f 55/58/73 49/43/74 50/44/75 56/57/76
f 56/57/77 50/44/78 53/89/79 57/90/80
f 58/56/81 56/57/82 57/90/83 59/91/84
f 38/34/85 58/56/86 59/91/87 60/92/88
f 37/96/89 38/34/90 60/92/91 61/93/92
f 37/96/93 61/93/94 62/94/95 63/95/96
f 41/6/97 46/48/98 45/67/99
f 45/67/100 46/48/101 55/59/102 44/66/103
f 43/65/104 44/66/105 55/59/106 56/60/107
f 58/61/108 38/62/109 39/63/110 42/64/111
f 56/60/112 58/61/113 42/64/114 43/65/115
f 40/97/116 47/98/117 46/48/118 41/6/119
f 21/28/120 1/29/121 26/71/122 25/70/123
f 1/29/124 2/30/125 27/72/126 26/71/127
f 2/30/128 3/31/129 28/73/130 27/72/131
f 3/31/132 8/32/133 31/74/134 28/73/135
f 8/32/136 9/33/137 33/75/138 31/74/139
f 9/33/140 4/2/141 34/76/142 33/75/143
f 4/2/144 10/3/145 36/77/146 34/76/147
f 10/3/148 11/4/149 35/78/150 36/77/151
f 22/22/152 21/37/153 25/80/154 37/79/155
f 11/42/156 5/12/157 40/82/158 35/81/159
f 23/55/160 12/7/161 48/84/162 47/83/163
f 12/7/164 13/13/165 51/85/166 48/84/167
f 13/13/168 6/14/169 52/86/170 51/85/171
f 6/14/172 14/15/173 54/87/174 52/86/175
f 14/15/176 15/45/177 53/88/178 54/87/179
f 15/16/180 16/17/181 57/90/182 53/89/183
f 16/17/184 17/18/185 59/91/186 57/90/187
f 17/18/188 20/21/189 60/92/190 59/91/191
f 20/21/192 18/19/193 61/93/194 60/92/195
f 18/19/196 19/20/197 62/94/198 61/93/199
f 19/20/200 7/8/201 63/95/202 62/94/203
f 7/8/204 22/35/205 37/96/206 63/95/207
f 5/68/208 23/69/209 47/98/210 40/97/211
f 64/99/212 67/102/213 66/101/214 65/100/215
f 64/99/216 69/104/217 68/103/218 67/102/219
f 69/104/220 70/105/221 68/103/222
f 70/105/223 72/107/224 71/106/225 68/103/226
f 71/106/227 72/107/228 73/108/229
f 72/107/230 75/110/231 74/109/232 73/108/233
f 74/109/234 75/110/235 76/111/236
f 77/112/237 78/114/238 65/113/239
f 79/115/240 64/116/241 65/113/242 78/114/243
f 75/117/244 72/119/245 80/118/246
f 81/120/247 80/118/248 72/119/249 70/121/250
f 79/122/251 82/125/252 69/124/253 64/123/254
f 83/126/255 84/127/256 69/124/257 82/125/258
f 84/127/259 85/129/260 70/128/261 69/124/262
f 81/130/263 70/128/264 85/129/265
f 86/131/266 89/134/267 88/133/268 87/132/269
f 90/135/270 91/136/271 88/133/272 89/134/273
f 90/135/274 93/138/275 92/137/276 91/136/277
f 92/137/278 93/138/279 94/139/280
f 86/140/281 95/142/282 89/141/283
f 95/142/284 96/144/285 90/143/286 89/141/287
f 96/144/288 97/146/289 93/145/290 90/143/291
f 98/147/292 99/148/293 97/146/294 96/144/295
f 78/149/296 100/150/297 99/148/298 98/147/299
f 77/151/300 101/152/301 100/150/302 78/149/303
f 77/151/304 103/154/305 102/153/306 101/152/307
f 81/155/308 85/157/309 86/156/310
f 85/157/311 84/159/312 95/158/313 86/156/314
f 83/160/315 96/161/316 95/158/317 84/159/318
f 98/162/319 82/165/320 79/164/321 78/163/322
f 96/161/323 83/160/324 82/165/325 98/162/326
f 80/166/327 81/155/328 86/156/329 87/167/330
f 21/168/331 65/100/332 66/101/333 1/169/334
f 1/169/335 66/101/336 67/102/337 2/170/338
f 2/170/339 67/102/340 68/103/341 3/171/342
f 3/171/343 68/103/344 71/106/345 8/172/346
f 8/172/347 71/106/348 73/108/349 9/173/350
f 9/173/351 73/108/352 74/109/353 4/174/354
f 4/174/355 74/109/356 76/111/357 10/175/358
f 10/175/359 76/111/360 75/110/361 11/176/362
f 22/177/363 77/112/364 65/113/365 21/178/366
f 11/179/367 75/117/368 80/118/369 5/180/370
f 23/181/371 87/132/372 88/133/373 12/182/374
f 12/182/375 88/133/376 91/136/377 13/183/378
f 13/183/379 91/136/380 92/137/381 6/184/382
f 6/184/383 92/137/384 94/139/385 14/185/386
f 14/185/387 94/139/388 93/138/389 15/186/390
f 15/187/391 93/145/392 97/146/393 16/188/394
f 16/188/395 97/146/396 99/148/397 17/189/398
f 17/189/399 99/148/400 100/150/401 20/190/402
f 20/190/403 100/150/404 101/152/405 18/191/406
f 18/191/407 101/152/408 102/153/409 19/192/410
f 19/192/411 102/153/412 103/154/413 7/193/414
f 7/193/415 103/154/416 77/151/417 22/194/418
f 5/195/419 80/166/420 87/167/421 23/196/422
