# This file uses centimeters as units for non-parametric coordinates.

v 19.109419 16.579027 2.000000
v -16.615660 1.544689 3.891680
v 10.968050 -15.889495 3.942183
v -5.474443 -16.278339 2.000000
v -6.071858 -0.672677 2.000000
v -0.837500 -3.809047 2.000000
v 3.150359 -8.308638 2.000000
v 0.347852 -3.906487 3.942183
v -6.025972 0.356971 3.891680
v -20.000000 0.800930 0.000000
v 20.000000 17.563328 -0.000000
v 11.352526 -17.563328 -0.000000
v 3.791735 -9.032317 0.000000
v -6.575000 -1.007777 0.000000
v -6.000000 -17.563328 0.000000
v 16.140888 14.121367 2.000000
v 14.550565 1.552659 2.925590
v -3.166345 1.262442 2.000000
v -3.955951 2.300622 3.671288
v 19.109419 16.579027 -2.000000
v -16.615660 1.544689 -3.891680
v 10.968050 -15.889495 -3.942183
v -5.474443 -16.278339 -2.000000
v -6.071858 -0.672677 -2.000000
v -0.837500 -3.809047 -2.000000
v 3.150359 -8.308638 -2.000000
v 0.347852 -3.906487 -3.942183
v -6.025972 0.356971 -3.891680
v 16.140888 14.121367 -2.000000
v 14.550565 1.552659 -2.925590
v -3.166345 1.262442 -2.000000
v -3.955951 2.300622 -3.671288
v 16.080860 0.337082 -0.000000
vt 0.982579 0.983953
vt 0.982991 0.984566
vt 0.982725 0.984852
vt 0.983470 0.984513
vt 0.983131 0.984514
vt 0.984961 0.951431
vt 0.985118 0.951235
vt 0.985114 0.951938
vt 0.983132 0.984937
vt 0.982914 0.984669
vt 0.983020 0.984555
vt 0.983159 0.984503
vt 0.982613 0.983952
vt 0.983548 0.984496
vt 0.982785 0.984825
vt 0.982942 0.984657
vt 0.983186 0.984493
vt 0.983159 0.984921
vt 0.984455 0.950895
vt 0.982656 0.984026
vt 0.982634 0.984029
vt 0.982648 0.984381
vt 0.985024 0.951283
vt 0.983084 0.984431
vt 0.983067 0.984449
vt 0.985215 0.951137
vt 0.985226 0.952114
vt 0.982579 0.983953
vt 0.982991 0.984566
vt 0.982648 0.984381
vt 0.983067 0.984449
vt 0.983470 0.984513
vt 0.983131 0.984514
vt 0.983132 0.984937
vt 0.982914 0.984669
vt 0.983020 0.984555
vt 0.982634 0.984029
vt 0.982725 0.984852
vt 0.983159 0.984503
vt 0.983084 0.984431
vt 0.982613 0.983952
vt 0.983548 0.984496
vt 0.982785 0.984825
vt 0.982942 0.984657
vt 0.983186 0.984493
vt 0.985114 0.951938
vt 0.985118 0.951235
vt 0.985215 0.951137
vt 0.985226 0.952114
vt 0.983159 0.984921
vt 0.984961 0.951431
vt 0.985024 0.951283
vt 0.984455 0.950895
vt 0.982656 0.984026
vt 0.982690 0.984342
vt 0.982690 0.984342
vn 0.054090 0.045035 0.997520
vn 0.054090 0.045035 0.997520
vn 0.054090 0.045035 0.997520
vn 0.011302 0.100769 0.994846
vn 0.011302 0.100769 0.994846
vn 0.011302 0.100769 0.994846
vn 0.000000 0.000000 1.000000
vn 0.000000 0.000000 1.000000
vn 0.000000 0.000000 1.000000
vn -0.591379 0.578583 0.561706
vn -0.591379 0.578583 0.561706
vn -0.591379 0.578583 0.561706
vn -0.591379 0.578583 0.561706
vn -0.689136 -0.610762 0.389951
vn -0.689136 -0.610762 0.389951
vn -0.689136 -0.610762 0.389951
vn -0.689136 -0.610762 0.389951
vn -0.097925 -0.873100 0.477606
vn -0.097925 -0.873100 0.477606
vn -0.097925 -0.873100 0.477606
vn 0.545121 -0.670678 0.503026
vn 0.545121 -0.670678 0.503026
vn 0.545121 -0.670678 0.503026
vn 0.545121 -0.670678 0.503026
vn -0.375484 0.905886 0.195915
vn -0.375484 0.905886 0.195915
vn -0.375484 0.905886 0.195915
vn -0.375484 0.905886 0.195915
vn 0.872082 -0.216645 0.438792
vn 0.872082 -0.216645 0.438792
vn 0.872082 -0.216645 0.438792
vn 0.872082 -0.216645 0.438792
vn -0.724322 -0.673661 0.146758
vn -0.724322 -0.673661 0.146758
vn -0.724322 -0.673661 0.146758
vn -0.724322 -0.673661 0.146758
vn -0.139171 -0.953742 0.266474
vn -0.139171 -0.953742 0.266474
vn -0.139171 -0.953742 0.266474
vn -0.139171 -0.953742 0.266474
vn -0.964360 -0.035155 0.262248
vn -0.964360 -0.035155 0.262248
vn -0.964360 -0.035155 0.262248
vn -0.964360 -0.035155 0.262248
vn 0.620996 -0.693097 0.366032
vn 0.620996 -0.693097 0.366032
vn 0.620996 -0.693097 0.366032
vn 0.620996 -0.693097 0.366032
vn 0.000000 0.000000 1.000000
vn 0.000000 0.000000 1.000000
vn 0.000000 0.000000 1.000000
vn 0.000000 0.000000 1.000000
vn 0.053254 0.047198 0.997465
vn 0.053254 0.047198 0.997465
vn 0.053254 0.047198 0.997465
vn 0.000000 0.000000 1.000000
vn 0.000000 0.000000 1.000000
vn 0.000000 0.000000 1.000000
vn 0.403666 -0.587074 0.701711
vn 0.403666 -0.587074 0.701711
vn 0.403666 -0.587074 0.701711
vn 0.403666 -0.587074 0.701711
vn 0.011476 0.097942 0.995126
vn 0.011476 0.097942 0.995126
vn 0.011476 0.097942 0.995126
vn 0.054090 0.045035 -0.997520
vn 0.054090 0.045035 -0.997520
vn 0.054090 0.045035 -0.997520
vn 0.011302 0.100769 -0.994846
vn 0.011302 0.100769 -0.994846
vn 0.011302 0.100769 -0.994846
vn 0.000000 0.000000 -1.000000
vn 0.000000 0.000000 -1.000000
vn 0.000000 0.000000 -1.000000
vn -0.591379 0.578583 -0.561706
vn -0.591379 0.578583 -0.561706
vn -0.591379 0.578583 -0.561706
vn -0.591379 0.578583 -0.561706
vn -0.689136 -0.610762 -0.389951
vn -0.689136 -0.610762 -0.389951
vn -0.689136 -0.610762 -0.389951
vn -0.689136 -0.610762 -0.389951
vn -0.097925 -0.873100 -0.477606
vn -0.097925 -0.873100 -0.477606
vn -0.097925 -0.873100 -0.477606
vn 0.545121 -0.670678 -0.503026
vn 0.545121 -0.670678 -0.503026
vn 0.545121 -0.670678 -0.503026
vn 0.545121 -0.670678 -0.503026
vn -0.375485 0.905886 -0.195915
vn -0.375485 0.905886 -0.195915
vn -0.375485 0.905886 -0.195915
vn -0.375485 0.905886 -0.195915
vn 0.872082 -0.216645 -0.438792
vn 0.872082 -0.216645 -0.438792
vn 0.872082 -0.216645 -0.438792
vn 0.872082 -0.216645 -0.438792
vn -0.724322 -0.673661 -0.146758
vn -0.724322 -0.673661 -0.146758
vn -0.724322 -0.673661 -0.146758
vn -0.724322 -0.673661 -0.146758
vn -0.139171 -0.953742 -0.266474
vn -0.139171 -0.953742 -0.266474
vn -0.139171 -0.953742 -0.266474
vn -0.139171 -0.953742 -0.266474
vn -0.964360 -0.035155 -0.262248
vn -0.964360 -0.035155 -0.262248
vn -0.964360 -0.035155 -0.262248
vn -0.964360 -0.035155 -0.262248
vn 0.620996 -0.693097 -0.366032
vn 0.620996 -0.693097 -0.366032
vn 0.620996 -0.693097 -0.366032
vn 0.620996 -0.693097 -0.366032
vn 0.000000 0.000000 -1.000000
vn 0.000000 0.000000 -1.000000
vn 0.000000 0.000000 -1.000000
vn 0.000000 0.000000 -1.000000
vn 0.053254 0.047198 -0.997465
vn 0.053254 0.047198 -0.997465
vn 0.053254 0.047198 -0.997465
vn 0.000000 0.000000 -1.000000
vn 0.000000 0.000000 -1.000000
vn 0.000000 0.000000 -1.000000
vn 0.403666 -0.587074 -0.701711
vn 0.403666 -0.587074 -0.701711
vn 0.403666 -0.587074 -0.701711
vn 0.403666 -0.587074 -0.701711
vn 0.011476 0.097941 -0.995126
vn 0.011476 0.097941 -0.995126
vn 0.011476 0.097941 -0.995126
vn 0.916831 -0.205751 0.342181
vn 0.916831 -0.205751 0.342181
vn 0.916831 -0.205751 0.342181
vn 0.916831 -0.205751 0.342181
vn 0.916831 -0.205751 -0.342181
vn 0.916831 -0.205751 -0.342181
vn 0.916831 -0.205751 -0.342181
vn 0.916831 -0.205751 -0.342181
s off
f 1/1/1 8/2/2 17/22/3
f 19/25/4 2/4/5 9/5/6
f 4/9/7 7/10/8 6/11/9
f 1/1/10 16/21/11 6/11/12 8/2/13
f 6/11/14 7/10/15 3/3/16 8/2/17
f 2/4/18 5/12/19 9/5/20
f 5/12/21 18/24/22 19/25/23 9/5/24
f 10/14/25 2/4/26 1/1/27 11/13/28
f 1/1/29 17/22/30 33/56/31 11/13/32
f 3/3/33 7/10/34 13/16/35 12/15/36
f 5/12/37 2/4/38 10/14/39 14/17/40
f 4/8/41 5/7/42 14/26/43 15/27/44
f 7/10/45 4/9/46 15/18/47 13/16/48
f 6/6/49 18/23/50 5/7/51 4/8/52
f 17/22/53 8/2/54 3/3/55
f 6/6/56 16/19/57 18/23/58
f 19/25/59 18/24/60 16/20/61 1/1/62
f 1/1/63 2/4/64 19/25/65
f 20/28/66 30/30/67 27/29/68
f 32/31/69 28/33/70 21/32/71
f 23/34/72 25/36/73 26/35/74
f 20/28/75 27/29/76 25/36/77 29/37/78
f 25/36/79 27/29/80 22/38/81 26/35/82
f 21/32/83 28/33/84 24/39/85
f 24/39/86 28/33/87 32/31/88 31/40/89
f 21/32/90 10/42/91 11/41/92 20/28/93
f 20/28/94 11/41/95 33/55/96 30/30/97
f 22/38/98 12/43/99 13/44/100 26/35/101
f 24/39/102 14/45/103 10/42/104 21/32/105
f 23/46/106 15/49/107 14/48/108 24/47/109
f 26/35/110 13/44/111 15/50/112 23/34/113
f 25/51/114 23/46/115 24/47/116 31/52/117
f 30/30/118 22/38/119 27/29/120
f 25/51/121 31/52/122 29/53/123
f 32/31/124 20/28/125 29/54/126 31/40/127
f 20/28/128 32/31/129 21/32/130
f 33/56/131 17/22/132 3/3/133 12/15/134
f 30/30/135 33/55/136 12/43/137 22/38/138
