# This file uses centimeters as units for non-parametric coordinates.

v -10.974621 -15.388123 4.000000
v 10.973558 -15.383739 4.000000
v -0.231667 18.072750 4.000000
v -13.323981 -7.324107 4.000000
v 0.050006 -3.212856 4.000000
v 13.383870 -7.338932 4.000000
v -3.739728 10.296972 4.000000
v -0.155815 10.075841 4.000000
v 3.365910 13.219930 4.000000
v -10.821344 1.067458 4.000000
v -0.213889 0.845331 4.000000
v 11.608162 0.152119 4.000000
v -5.546889 -18.276861 4.000000
v 5.625040 -18.272894 4.000000
v -5.373494 -9.464917 4.000000
v 5.001667 -9.313567 4.000000
v 6.670924 -14.054712 4.000000
v -6.647682 -15.254222 4.000000
v 11.716031 6.236191 4.000000
v 3.512140 1.425742 4.000000
v 1.476239 4.818786 4.000000
v 10.344707 5.552171 4.000000
v 7.102368 1.226806 4.000000
v -11.766219 -16.028698 -0.000000
v -4.112721 -20.000000 -0.000000
v -0.000000 20.000000 -0.000000
v -4.928878 10.714131 -0.000000
v 4.133453 14.090178 -0.000000
v -15.582108 -7.032415 -0.000000
v 15.582108 -7.032415 -0.000000
v 11.766219 -16.028698 -0.000000
v -12.818819 0.943733 -0.000000
v 2.056576 5.318126 -0.000000
v 12.755058 1.206679 -0.000000
v 4.112721 -20.000000 -0.000000
v 5.778562 -15.381325 -0.000000
v 0.000000 -4.044214 -0.000000
v -4.437983 -9.546835 -0.000000
v -5.778562 -15.381325 -0.000000
v 4.437983 -9.546835 -0.000000
v 12.515288 8.496201 -0.000000
v 4.071614 1.564901 -0.000000
v 6.808480 1.864812 -0.000000
v 10.523015 6.917058 -0.000000
v -10.974621 -15.388123 -4.000000
v 10.973558 -15.383739 -4.000000
v -0.231667 18.072750 -4.000000
v -13.323981 -7.324107 -4.000000
v 0.050006 -3.212856 -4.000000
v 13.383870 -7.338932 -4.000000
v -3.739728 10.296972 -4.000000
v -0.155815 10.075841 -4.000000
v 3.365910 13.219930 -4.000000
v -10.821344 1.067458 -4.000000
v -0.213889 0.845331 -4.000000
v 11.608162 0.152119 -4.000000
v -5.546889 -18.276861 -4.000000
v 5.625040 -18.272894 -4.000000
v -5.373494 -9.464917 -4.000000
v 5.001667 -9.313567 -4.000000
v 6.670924 -14.054712 -4.000000
v -6.647682 -15.254222 -4.000000
v 11.716031 6.236191 -4.000000
v 3.512140 1.425742 -4.000000
v 1.476239 4.818786 -4.000000
v 10.344707 5.552171 -4.000000
v 7.102368 1.226806 -4.000000
v 0.026981 -8.728165 2.000000
v -1.993754 -17.868330 2.000000
v 2.031510 -17.726761 2.000000
v -2.593952 -12.198956 2.000000
v 2.419895 -12.114934 2.000000
v 3.226572 -14.746950 2.000000
v -3.209709 -15.412848 2.000000
v -2.633013 -19.130404 -0.000000
v 2.633013 -19.130404 -0.000000
v 4.192475 -15.180342 -0.000000
v 0.000000 -6.955013 -0.000000
v -3.219856 -10.947290 -0.000000
v -4.192475 -15.180342 -0.000000
v 3.219856 -10.947290 -0.000000
v 0.026981 -8.728165 -2.000001
v -1.993754 -17.868330 -2.000001
v 2.031510 -17.726761 -2.000001
v -2.593952 -12.198956 -2.000001
v 2.419895 -12.114934 -2.000001
v 3.226572 -14.746950 -2.000001
v -3.209709 -15.412848 -2.000001
v 0.772860 -16.944473 2.000000
v -0.734407 -16.945940 2.000000
v -0.734407 -16.945940 -2.000001
v 0.772860 -16.944473 -2.000001
v 0.772860 -17.454922 -0.000000
v -0.734407 -17.456388 -0.000000
vt 0.079694 0.948510
vt 0.079811 0.948771
vt 0.079689 0.948765
vt 0.079590 0.948652
vt 0.079999 0.949049
vt 0.079684 0.948991
vt 0.079526 0.948941
vt 0.079393 0.948933
vt 0.079395 0.948762
vt 0.079441 0.948807
vt 0.080063 0.949276
vt 0.079682 0.949108
vt 0.079330 0.949124
vt 0.079579 0.949211
vt 0.079782 0.949254
vt 0.079824 0.949392
vt 0.079637 0.948878
vt 0.079589 0.948960
vt 0.079534 0.949326
vt 0.079557 0.949428
vt 0.079416 0.949332
vt 0.079954 0.949456
vt 0.079796 0.949485
vt 0.079986 0.949411
vt 0.079831 0.949440
vt 0.079736 0.948485
vt 0.079849 0.948740
vt 0.079633 0.948624
vt 0.080094 0.949233
vt 0.079458 0.949292
vt 0.079374 0.949088
vt 0.080032 0.949011
vt 0.079678 0.948845
vt 0.079438 0.948900
vt 0.079596 0.949385
vt 0.079574 0.949286
vt 0.079818 0.949213
vt 0.079721 0.949070
vt 0.079859 0.949349
vt 0.079619 0.949172
vt 0.079441 0.948732
vt 0.079569 0.948908
vt 0.079630 0.948925
vt 0.079486 0.948776
vt 0.079694 0.948510
vt 0.079811 0.948771
vt 0.079689 0.948765
vt 0.079590 0.948652
vt 0.079999 0.949049
vt 0.079684 0.948991
vt 0.079526 0.948941
vt 0.079393 0.948933
vt 0.079395 0.948762
vt 0.079441 0.948807
vt 0.080063 0.949276
vt 0.079682 0.949108
vt 0.079330 0.949124
vt 0.079579 0.949211
vt 0.079782 0.949254
vt 0.079824 0.949392
vt 0.079637 0.948878
vt 0.079589 0.948960
vt 0.079534 0.949326
vt 0.079557 0.949428
vt 0.079416 0.949332
vt 0.079954 0.949456
vt 0.079796 0.949485
vt 0.079986 0.949411
vt 0.079831 0.949440
vt 0.079736 0.948485
vt 0.079849 0.948740
vt 0.079633 0.948624
vt 0.080094 0.949233
vt 0.079458 0.949292
vt 0.079374 0.949088
vt 0.080032 0.949011
vt 0.079678 0.948845
vt 0.079438 0.948900
vt 0.079596 0.949385
vt 0.079574 0.949286
vt 0.079818 0.949213
vt 0.079721 0.949070
vt 0.079859 0.949349
vt 0.079619 0.949172
vt 0.079441 0.948732
vt 0.079569 0.948908
vt 0.079630 0.948925
vt 0.079486 0.948776
vt 0.109629 0.984657
vt 0.109641 0.984609
vt 0.109617 0.984508
vt 0.109577 0.984549
vt 0.109721 0.984326
vt 0.109763 0.984293
vt 0.109861 0.984435
vt 0.109825 0.984476
vt 0.109902 0.984571
vt 0.109867 0.984615
vt 0.109622 0.984433
vt 0.109662 0.984394
vt 0.109874 0.984662
vt 0.109809 0.984700
vt 0.109629 0.984657
vt 0.109577 0.984549
vt 0.109617 0.984508
vt 0.109642 0.984609
vt 0.109721 0.984326
vt 0.109825 0.984476
vt 0.109861 0.984435
vt 0.109763 0.984293
vt 0.109867 0.984615
vt 0.109902 0.984571
vt 0.109622 0.984433
vt 0.109662 0.984394
vt 0.109809 0.984700
vt 0.109873 0.984662
vt 0.109680 0.984646
vt 0.109760 0.984666
vt 0.109760 0.984666
vt 0.109680 0.984646
vt 0.109680 0.984646
vt 0.109760 0.984666
vn 0.000000 0.000000 1.000000
vn 0.000000 0.000000 1.000000
vn 0.000000 0.000000 1.000000
vn 0.000000 0.000000 1.000000
vn 0.000000 0.000000 1.000000
vn 0.000000 0.000000 1.000000
vn 0.000000 0.000000 1.000000
vn 0.000000 0.000000 1.000000
vn 0.000000 0.000000 1.000000
vn 0.000000 0.000000 1.000000
vn 0.000000 0.000000 1.000000
vn 0.000000 0.000000 1.000000
vn 0.000000 0.000000 1.000000
vn 0.000000 0.000000 1.000000
vn 0.000000 0.000000 1.000000
vn 0.000000 0.000000 1.000000
vn 0.000000 0.000000 1.000000
vn 0.000000 0.000000 1.000000
vn 0.000000 0.000000 1.000000
vn 0.000000 0.000000 1.000000
vn 0.000000 0.000000 1.000000
vn 0.000000 0.000000 1.000000
vn 0.000000 0.000000 1.000000
vn 0.000000 0.000000 1.000000
vn 0.000000 0.000000 1.000000
vn 0.000000 0.000000 1.000000
vn 0.000000 0.000000 1.000000
vn 0.000000 0.000000 1.000000
vn 0.000000 0.000000 1.000000
vn 0.000000 0.000000 1.000000
vn 0.000000 0.000000 1.000000
vn 0.000000 0.000000 1.000000
vn 0.000000 0.000000 1.000000
vn 0.000000 0.000000 1.000000
vn 0.000000 0.000000 1.000000
vn 0.000000 0.000000 1.000000
vn 0.000000 0.000000 1.000000
vn 0.000000 0.000000 1.000000
vn 0.000000 0.000000 1.000000
vn 0.000000 0.000000 1.000000
vn 0.000000 0.000000 1.000000
vn 0.000000 0.000000 1.000000
vn 0.000000 0.000000 1.000000
vn 0.000000 0.000000 1.000000
vn 0.000000 0.000000 1.000000
vn 0.000000 0.000000 1.000000
vn 0.000000 0.000000 1.000000
vn 0.000000 0.000000 1.000000
vn 0.000000 0.000000 1.000000
vn 0.000000 0.000000 1.000000
vn 0.000000 0.000000 1.000000
vn 0.000000 0.000000 1.000000
vn 0.000000 0.000000 1.000000
vn -0.453164 -0.864127 0.218920
vn -0.453164 -0.864127 0.218920
vn -0.453164 -0.864127 0.218920
vn -0.453164 -0.864127 0.218920
vn -0.872194 0.431298 0.230781
vn -0.872194 0.431298 0.230781
vn -0.872194 0.431298 0.230781
vn -0.872194 0.431298 0.230781
vn 0.776752 0.557958 0.292128
vn 0.776752 0.557958 0.292128
vn 0.776752 0.557958 0.292128
vn 0.776752 0.557958 0.292128
vn -0.881071 -0.318401 0.349764
vn -0.881071 -0.318401 0.349764
vn -0.881071 -0.318401 0.349764
vn -0.881071 -0.318401 0.349764
vn 0.882142 -0.322303 0.343435
vn 0.882142 -0.322303 0.343435
vn 0.882142 -0.322303 0.343435
vn 0.882142 -0.322303 0.343435
vn -0.744645 0.586766 0.318135
vn -0.744645 0.586766 0.318135
vn -0.744645 0.586766 0.318135
vn -0.744645 0.586766 0.318135
vn 0.966748 -0.223293 0.124655
vn 0.966748 -0.223293 0.124655
vn 0.966748 -0.223293 0.124655
vn 0.966748 -0.223293 0.124655
vn -0.847059 0.272521 0.456315
vn -0.847059 0.272521 0.456315
vn -0.847059 0.272521 0.456315
vn -0.847059 0.272521 0.456315
vn 0.875520 0.256184 0.409677
vn 0.875520 0.256184 0.409677
vn 0.875520 0.256184 0.409677
vn 0.875520 0.256184 0.409677
vn 0.455743 -0.863729 0.215106
vn 0.455743 -0.863729 0.215106
vn 0.455743 -0.863729 0.215106
vn 0.455743 -0.863729 0.215106
vn -0.941629 0.288953 0.172742
vn -0.941629 0.288953 0.172742
vn -0.941629 0.288953 0.172742
vn -0.941629 0.288953 0.172742
vn 0.756697 -0.634824 0.156229
vn 0.756697 -0.634824 0.156229
vn 0.756697 -0.634824 0.156229
vn 0.756697 -0.634824 0.156229
vn 0.951659 -0.214075 0.220267
vn 0.951659 -0.214075 0.220267
vn 0.951659 -0.214075 0.220267
vn 0.951659 -0.214075 0.220267
vn -0.769495 -0.622690 0.141895
vn -0.769495 -0.622690 0.141895
vn -0.769495 -0.622690 0.141895
vn -0.769495 -0.622690 0.141895
vn -0.937654 -0.266857 0.222692
vn -0.937654 -0.266857 0.222692
vn -0.937654 -0.266857 0.222692
vn -0.937654 -0.266857 0.222692
vn 0.923406 0.334330 0.188535
vn 0.923406 0.334330 0.188535
vn 0.923406 0.334330 0.188535
vn 0.923406 0.334330 0.188535
vn 0.970699 0.009574 0.240108
vn 0.970699 0.009574 0.240108
vn 0.970699 0.009574 0.240108
vn 0.970699 0.009574 0.240108
vn -0.015883 0.995240 0.096156
vn -0.015883 0.995240 0.096156
vn -0.015883 0.995240 0.096156
vn -0.015883 0.995240 0.096156
vn 0.858576 0.486693 0.161171
vn 0.858576 0.486693 0.161171
vn 0.858576 0.486693 0.161171
vn 0.858576 0.486693 0.161171
vn -0.533551 0.792983 0.294112
vn -0.533551 0.792983 0.294112
vn -0.533551 0.792983 0.294112
vn -0.533551 0.792983 0.294112
vn -0.792945 0.588254 0.158732
vn -0.792945 0.588254 0.158732
vn -0.792945 0.588254 0.158732
vn -0.792945 0.588254 0.158732
vn 0.000000 0.000000 -1.000000
vn 0.000000 0.000000 -1.000000
vn 0.000000 0.000000 -1.000000
vn 0.000000 0.000000 -1.000000
vn 0.000000 0.000000 -1.000000
vn 0.000000 0.000000 -1.000000
vn 0.000000 0.000000 -1.000000
vn 0.000000 0.000000 -1.000000
vn 0.000000 0.000000 -1.000000
vn 0.000000 0.000000 -1.000000
vn 0.000000 0.000000 -1.000000
vn 0.000000 0.000000 -1.000000
vn 0.000000 0.000000 -1.000000
vn 0.000000 0.000000 -1.000000
vn 0.000000 0.000000 -1.000000
vn 0.000000 0.000000 -1.000000
vn 0.000000 0.000000 -1.000000
vn 0.000000 0.000000 -1.000000
vn 0.000000 0.000000 -1.000000
vn 0.000000 0.000000 -1.000000
vn 0.000000 0.000000 -1.000000
vn 0.000000 0.000000 -1.000000
vn 0.000000 0.000000 -1.000000
vn 0.000000 0.000000 -1.000000
vn 0.000000 0.000000 -1.000000
vn 0.000000 0.000000 -1.000000
vn 0.000000 0.000000 -1.000000
vn 0.000000 0.000000 -1.000000
vn -0.000000 0.000000 -1.000000
vn -0.000000 0.000000 -1.000000
vn -0.000000 0.000000 -1.000000
vn -0.000000 0.000000 -1.000000
vn -0.000000 0.000000 -1.000000
vn -0.000000 0.000000 -1.000000
vn -0.000000 0.000000 -1.000000
vn -0.000000 0.000000 -1.000000
vn -0.000000 0.000000 -1.000000
vn -0.000000 0.000000 -1.000000
vn -0.000000 0.000000 -1.000000
vn 0.000000 0.000000 -1.000000
vn 0.000000 0.000000 -1.000000
vn 0.000000 0.000000 -1.000000
vn 0.000000 0.000000 -1.000000
vn 0.000000 0.000000 -1.000000
vn 0.000000 0.000000 -1.000000
vn 0.000000 0.000000 -1.000000
vn 0.000000 0.000000 -1.000000
vn 0.000000 0.000000 -1.000000
vn 0.000000 0.000000 -1.000000
vn 0.000000 0.000000 -1.000000
vn 0.000000 0.000000 -1.000000
vn 0.000000 0.000000 -1.000000
vn 0.000000 0.000000 -1.000000
vn -0.453164 -0.864127 -0.218920
vn -0.453164 -0.864127 -0.218920
vn -0.453164 -0.864127 -0.218920
vn -0.453164 -0.864127 -0.218920
vn -0.872194 0.431298 -0.230781
vn -0.872194 0.431298 -0.230781
vn -0.872194 0.431298 -0.230781
vn -0.872194 0.431298 -0.230781
vn 0.776753 0.557958 -0.292128
vn 0.776753 0.557958 -0.292128
vn 0.776753 0.557958 -0.292128
vn 0.776753 0.557958 -0.292128
vn -0.881071 -0.318401 -0.349764
vn -0.881071 -0.318401 -0.349764
vn -0.881071 -0.318401 -0.349764
vn -0.881071 -0.318401 -0.349764
vn 0.882142 -0.322303 -0.343435
vn 0.882142 -0.322303 -0.343435
vn 0.882142 -0.322303 -0.343435
vn 0.882142 -0.322303 -0.343435
vn -0.744645 0.586766 -0.318135
vn -0.744645 0.586766 -0.318135
vn -0.744645 0.586766 -0.318135
vn -0.744645 0.586766 -0.318135
vn 0.966748 -0.223293 -0.124655
vn 0.966748 -0.223293 -0.124655
vn 0.966748 -0.223293 -0.124655
vn 0.966748 -0.223293 -0.124655
vn -0.847059 0.272521 -0.456315
vn -0.847059 0.272521 -0.456315
vn -0.847059 0.272521 -0.456315
vn -0.847059 0.272521 -0.456315
vn 0.875520 0.256184 -0.409677
vn 0.875520 0.256184 -0.409677
vn 0.875520 0.256184 -0.409677
vn 0.875520 0.256184 -0.409677
vn 0.455743 -0.863729 -0.215106
vn 0.455743 -0.863729 -0.215106
vn 0.455743 -0.863729 -0.215106
vn 0.455743 -0.863729 -0.215106
vn -0.941629 0.288953 -0.172742
vn -0.941629 0.288953 -0.172742
vn -0.941629 0.288953 -0.172742
vn -0.941629 0.288953 -0.172742
vn 0.756697 -0.634824 -0.156229
vn 0.756697 -0.634824 -0.156229
vn 0.756697 -0.634824 -0.156229
vn 0.756697 -0.634824 -0.156229
vn 0.951659 -0.214075 -0.220267
vn 0.951659 -0.214075 -0.220267
vn 0.951659 -0.214075 -0.220267
vn 0.951659 -0.214075 -0.220267
vn -0.769495 -0.622690 -0.141895
vn -0.769495 -0.622690 -0.141895
vn -0.769495 -0.622690 -0.141895
vn -0.769495 -0.622690 -0.141895
vn -0.937654 -0.266857 -0.222692
vn -0.937654 -0.266857 -0.222692
vn -0.937654 -0.266857 -0.222692
vn -0.937654 -0.266857 -0.222692
vn 0.923406 0.334330 -0.188535
vn 0.923406 0.334330 -0.188535
vn 0.923406 0.334330 -0.188535
vn 0.923406 0.334330 -0.188535
vn 0.970699 0.009574 -0.240108
vn 0.970699 0.009574 -0.240108
vn 0.970699 0.009574 -0.240108
vn 0.970699 0.009574 -0.240108
vn -0.015883 0.995240 -0.096156
vn -0.015883 0.995240 -0.096156
vn -0.015883 0.995240 -0.096156
vn -0.015883 0.995240 -0.096156
vn 0.858576 0.486693 -0.161171
vn 0.858576 0.486693 -0.161171
vn 0.858576 0.486693 -0.161171
vn 0.858576 0.486693 -0.161171
vn -0.533551 0.792983 -0.294112
vn -0.533551 0.792983 -0.294112
vn -0.533551 0.792983 -0.294112
vn -0.533551 0.792983 -0.294112
vn -0.792945 0.588254 -0.158732
vn -0.792945 0.588254 -0.158732
vn -0.792945 0.588254 -0.158732
vn -0.792945 0.588254 -0.158732
vn 0.819802 -0.325859 0.470894
vn 0.819802 -0.325859 0.470894
vn 0.819802 -0.325859 0.470894
vn 0.819801 -0.325859 0.470894
vn -0.676882 0.529746 0.511077
vn -0.676882 0.529746 0.511077
vn -0.676882 0.529746 0.511077
vn -0.676882 0.529746 0.511077
vn -0.884869 0.188736 0.425895
vn -0.884869 0.188736 0.425894
vn -0.884869 0.188736 0.425894
vn -0.884869 0.188736 0.425894
vn 0.682826 0.519382 0.513801
vn 0.682826 0.519382 0.513801
vn 0.682826 0.519382 0.513801
vn 0.682826 0.519382 0.513801
vn 0.874928 0.226765 0.427877
vn 0.874928 0.226765 0.427877
vn 0.874928 0.226765 0.427877
vn 0.874928 0.226765 0.427877
vn -0.829011 -0.359197 0.428624
vn -0.829011 -0.359197 0.428624
vn -0.829011 -0.359197 0.428624
vn -0.829011 -0.359197 0.428624
vn 0.819802 -0.325859 -0.470894
vn 0.819802 -0.325859 -0.470894
vn 0.819802 -0.325859 -0.470894
vn 0.819802 -0.325859 -0.470894
vn -0.676883 0.529746 -0.511077
vn -0.676883 0.529746 -0.511077
vn -0.676883 0.529746 -0.511077
vn -0.676883 0.529746 -0.511077
vn -0.884869 0.188736 -0.425894
vn -0.884869 0.188736 -0.425894
vn -0.884869 0.188736 -0.425894
vn -0.884869 0.188736 -0.425894
vn 0.682826 0.519382 -0.513801
vn 0.682826 0.519382 -0.513801
vn 0.682826 0.519382 -0.513801
vn 0.682826 0.519382 -0.513801
vn 0.874928 0.226765 -0.427877
vn 0.874928 0.226765 -0.427877
vn 0.874928 0.226765 -0.427877
vn 0.874928 0.226765 -0.427877
vn -0.829011 -0.359197 -0.428624
vn -0.829011 -0.359197 -0.428623
vn -0.829011 -0.359197 -0.428623
vn -0.829011 -0.359197 -0.428623
vn 0.000000 0.000000 1.000000
vn 0.000000 0.000000 1.000000
vn 0.000000 0.000000 1.000000
vn 0.000000 0.000000 -1.000000
vn 0.000000 0.000000 -1.000000
vn 0.000000 0.000000 -1.000000
vn 0.000000 0.000000 1.000000
vn 0.000000 0.000000 1.000000
vn 0.000000 0.000000 1.000000
vn -0.000000 0.000000 -1.000000
vn -0.000000 0.000000 -1.000000
vn -0.000000 0.000000 -1.000000
vn 0.000000 0.000000 1.000000
vn 0.000000 0.000000 1.000000
vn 0.000000 0.000000 1.000000
vn 0.000000 0.000000 1.000000
vn 0.000000 0.000000 1.000000
vn 0.000000 0.000000 1.000000
vn 0.000000 0.000000 1.000000
vn 0.000000 0.000000 1.000000
vn 0.000000 0.000000 -1.000000
vn 0.000000 0.000000 -1.000000
vn 0.000000 0.000000 -1.000000
vn 0.000000 0.000000 -1.000000
vn -0.000000 0.000000 -1.000000
vn -0.000000 0.000000 -1.000000
vn 0.000000 0.000000 -1.000000
vn -0.000000 0.000000 -1.000000
vn -0.595601 -0.755792 0.272100
vn -0.618955 -0.785427 -0.000000
vn -0.618954 -0.785427 -0.000000
vn -0.595601 -0.755792 0.272100
vn 0.617437 -0.750977 -0.234105
vn 0.635086 -0.772442 0.000000
vn 0.635086 -0.772442 0.000000
vn 0.617437 -0.750977 -0.234105
vn 0.000943 -0.968939 0.247297
vn 0.000943 -0.968939 0.247297
vn 0.000973 -1.000000 0.000000
vn 0.000973 -1.000000 0.000000
vn 0.000000 0.000000 1.000000
vn 0.000000 0.000000 1.000000
vn 0.000000 0.000000 1.000000
vn 0.000000 0.000000 -1.000000
vn 0.000000 0.000000 -1.000000
vn -0.000000 0.000000 -1.000000
vn 0.635086 -0.772442 0.000000
vn 0.635086 -0.772442 0.000000
vn 0.617437 -0.750977 0.234105
vn 0.617437 -0.750977 0.234105
vn 0.000973 -1.000000 0.000000
vn 0.000973 -1.000000 0.000000
vn 0.000943 -0.968939 -0.247297
vn 0.000943 -0.968939 -0.247297
vn -0.618954 -0.785427 -0.000000
vn -0.618955 -0.785427 -0.000000
vn -0.595601 -0.755792 -0.272100
vn -0.595601 -0.755792 -0.272100
s off
f 3/1/1 7/2/2 8/3/3
f 3/1/4 8/3/5 9/4/6
f 8/3/7 7/2/8 10/5/9 11/6/10
f 23/7/11 12/8/12 19/9/13 22/10/14
f 11/6/15 10/5/16 4/11/17 5/12/18
f 12/8/19 11/6/20 5/12/21 6/13/22
f 6/13/23 5/12/24 16/14/25
f 15/15/26 4/11/27 18/16/28
f 21/17/29 11/6/30 20/18/31
f 9/4/32 8/3/33 11/6/34 21/17/35
f 20/18/36 11/6/37 12/8/38 23/7/39
f 6/13/40 17/19/41 14/20/42 2/21/43
f 6/13/44 16/14/45 17/19/46
f 5/12/47 4/11/48 15/15/49
f 18/16/50 4/11/51 1/22/52 13/23/53
f 13/23/54 1/22/55 24/24/56 25/25/57
f 7/2/58 3/1/59 26/26/60 27/27/61
f 3/1/62 9/4/63 28/28/64 26/26/65
f 1/22/66 4/11/67 29/29/68 24/24/69
f 6/13/70 2/21/71 31/30/72 30/31/73
f 10/5/74 7/2/75 27/27/76 32/32/77
f 9/4/78 21/17/79 33/33/80 28/28/81
f 4/11/82 10/5/83 32/32/84 29/29/85
f 12/8/86 6/13/87 30/31/88 34/34/89
f 2/21/90 14/20/91 35/35/92 31/30/93
f 14/20/94 17/19/95 36/36/96 35/35/97
f 5/12/98 15/15/99 38/37/100 37/38/101
f 15/15/102 18/16/103 39/39/104 38/37/105
f 16/14/106 5/12/107 37/38/108 40/40/109
f 17/19/110 16/14/111 40/40/112 36/36/113
f 18/16/114 13/23/115 25/25/116 39/39/117
f 19/9/118 12/8/119 34/34/120 41/41/121
f 20/18/122 23/7/123 43/42/124 42/43/125
f 21/17/126 20/18/127 42/43/128 33/33/129
f 22/10/130 19/9/131 41/41/132 44/44/133
f 23/7/134 22/10/135 44/44/136 43/42/137
f 47/45/138 52/47/139 51/46/140
f 47/45/141 53/48/142 52/47/143
f 52/47/144 55/50/145 54/49/146 51/46/147
f 67/51/148 66/54/149 63/53/150 56/52/151
f 55/50/152 49/56/153 48/55/154 54/49/155
f 56/52/156 50/57/157 49/56/158 55/50/159
f 50/57/160 60/58/161 49/56/162
f 59/59/163 62/60/164 48/55/165
f 65/61/166 64/62/167 55/50/168
f 53/48/169 65/61/170 55/50/171 52/47/172
f 64/62/173 67/51/174 56/52/175 55/50/176
f 50/57/177 46/65/178 58/64/179 61/63/180
f 50/57/181 61/63/182 60/58/183
f 49/56/184 59/59/185 48/55/186
f 62/60/187 57/67/188 45/66/189 48/55/190
f 57/67/191 25/69/192 24/68/193 45/66/194
f 51/46/195 27/71/196 26/70/197 47/45/198
f 47/45/199 26/70/200 28/72/201 53/48/202
f 45/66/203 24/68/204 29/73/205 48/55/206
f 50/57/207 30/75/208 31/74/209 46/65/210
f 54/49/211 32/76/212 27/71/213 51/46/214
f 53/48/215 28/72/216 33/77/217 65/61/218
f 48/55/219 29/73/220 32/76/221 54/49/222
f 56/52/223 34/78/224 30/75/225 50/57/226
f 46/65/227 31/74/228 35/79/229 58/64/230
f 58/64/231 35/79/232 36/80/233 61/63/234
f 49/56/235 37/82/236 38/81/237 59/59/238
f 59/59/239 38/81/240 39/83/241 62/60/242
f 60/58/243 40/84/244 37/82/245 49/56/246
f 61/63/247 36/80/248 40/84/249 60/58/250
f 62/60/251 39/83/252 25/69/253 57/67/254
f 63/53/255 41/85/256 34/78/257 56/52/258
f 64/62/259 42/87/260 43/86/261 67/51/262
f 65/61/263 33/77/264 42/87/265 64/62/266
f 66/54/267 44/88/268 41/85/269 63/53/270
f 67/51/271 43/86/272 44/88/273 66/54/274
f 70/89/275 76/90/276 77/91/277 73/92/278
f 68/93/279 78/94/280 79/95/281 71/96/282
f 71/96/283 79/95/284 80/97/285 74/98/286
f 72/99/287 81/100/288 78/94/289 68/93/290
f 73/92/291 77/91/292 81/100/293 72/99/294
f 74/98/295 80/97/296 75/101/297 69/102/298
f 84/103/299 87/104/300 77/105/301 76/106/302
f 82/107/303 85/108/304 79/109/305 78/110/306
f 85/108/307 88/111/308 80/112/309 79/109/310
f 86/113/311 82/107/312 78/110/313 81/114/314
f 87/104/315 86/113/316 81/114/317 77/105/318
f 88/111/319 83/115/320 75/116/321 80/112/322
f 68/93/323 71/96/324 74/98/325
f 82/107/326 86/113/327 87/104/328
f 73/92/329 72/99/330 68/93/331
f 88/111/332 85/108/333 82/107/334
f 70/89/335 73/92/336 68/93/337 89/117/338
f 69/102/339 90/118/340 68/93/341 74/98/342
f 83/115/343 88/111/344 82/107/345 91/119/346
f 84/103/347 92/120/348 82/107/349 87/104/350
f 89/117/351 93/121/352 76/90/353 70/89/354
f 91/119/355 94/122/356 75/116/357 83/115/358
f 89/117/359 90/118/360 94/122/361 93/121/362
f 89/117/363 68/93/364 90/118/365
f 91/119/366 82/107/367 92/120/368
f 75/116/369 94/122/370 90/118/371 69/102/372
f 93/121/373 94/122/374 91/119/375 92/120/376
f 76/90/377 93/121/378 92/120/379 84/103/380
