# This file uses centimeters as units for non-parametric coordinates.

v 7.156479 18.592590 0.000000
v 11.445465 13.544296 0.000000
v 12.636017 6.787926 0.000000
v 8.427383 0.236786 0.000000
v 2.487946 -3.678207 0.000000
v -1.432068 -9.634018 0.000000
v -3.611298 -10.630356 0.000000
v -7.443336 -8.836357 0.000000
v -8.339447 -6.441269 0.000000
v -6.361511 -0.377419 0.000000
v -7.953125 6.723259 0.000000
v -6.072159 14.981293 0.000000
v -0.235291 18.935066 0.000000
v -5.013695 -14.205826 0.000000
v -3.088898 -16.198120 0.000000
v -4.677994 -18.935074 0.000000
v -7.527908 -18.488113 0.000000
v -8.580261 -16.083267 0.000000
v -10.390327 -17.071548 0.000000
v -12.636009 -15.823395 0.000000
v -11.583374 -12.587395 0.000000
v -9.177094 -11.995285 0.000000
v -7.232040 6.608635 -3.999999
v -3.745316 8.424942 -3.999999
v -2.889984 12.343895 -3.999999
v -0.058365 15.095268 -3.999999
v -0.718964 6.793922 -3.999999
v 2.111191 9.646431 -3.999999
v 2.352425 14.175987 -3.999999
v -5.106781 14.442833 -3.999999
v -1.200172 -8.566963 -3.999999
v -7.505280 -5.655121 -3.999999
v -6.718735 -7.870415 -3.999999
v -3.174194 -9.529839 -3.999999
v -5.718216 -0.046242 -3.999999
v 2.467346 -3.099342 -3.999999
v 8.012985 0.615585 -3.999999
v 11.801971 6.373413 -3.999999
v 10.762955 12.716225 -3.999999
v 6.785706 17.500389 -3.999999
v -0.217834 17.806770 -3.999999
v -9.004822 -12.821678 -1.999999
v -6.059586 -8.827133 -2.000000
v -10.474442 -13.183304 -1.999999
v -11.117294 -15.159592 -1.999999
v -9.857651 -15.637283 -1.999999
v -8.241226 -15.072159 -1.999999
v -7.172890 -17.110031 -1.999999
v -5.599579 -17.404892 -1.999999
v -4.549896 -15.662003 -1.999999
v -5.821167 -14.346054 -1.999999
v -4.462898 -9.566330 -2.000006
v -7.232040 6.608635 3.999999
v -3.745316 8.424942 3.999999
v -2.889984 12.343895 3.999999
v -0.058365 15.095268 3.999999
v -0.718964 6.793922 3.999999
v 2.111191 9.646431 3.999999
v 2.352425 14.175987 3.999999
v -5.106781 14.442833 3.999999
v -1.200172 -8.566963 3.999999
v -7.505280 -5.655121 3.999999
v -6.718735 -7.870415 3.999999
v -3.174194 -9.529839 3.999999
v -5.718216 -0.046242 3.999999
v 2.467346 -3.099342 3.999999
v 8.012985 0.615585 3.999999
v 11.801971 6.373413 3.999999
v 10.762955 12.716225 3.999999
v 6.785706 17.500389 3.999999
v -0.217834 17.806770 3.999999
v -9.004822 -12.821678 1.999999
v -6.059586 -8.827133 2.000000
v -10.474442 -13.183304 1.999999
v -11.117294 -15.159592 1.999999
v -9.857651 -15.637283 1.999999
v -8.241226 -15.072159 1.999999
v -7.172890 -17.110031 1.999999
v -5.599579 -17.404892 1.999999
v -4.549896 -15.662003 1.999999
v -5.821167 -14.346054 1.999999
v -4.462898 -9.566330 2.000006
vt 0.110270 0.954455
vt 0.110359 0.954293
vt 0.110357 0.954094
vt 0.110053 0.953826
vt 0.109835 0.953779
vt 0.109714 0.953682
vt 0.983350 0.984487
vt 0.109521 0.953804
vt 0.109504 0.953898
vt 0.109594 0.953990
vt 0.109651 0.954216
vt 0.109922 0.954525
vt 0.110111 0.954533
vt 0.983331 0.984465
vt 0.983343 0.984436
vt 0.983314 0.984410
vt 0.983287 0.984430
vt 0.983285 0.984460
vt 0.983262 0.984456
vt 0.983243 0.984479
vt 0.983267 0.984509
vt 0.983295 0.984506
vt 0.110022 0.954456
vt 0.110072 0.954419
vt 0.110006 0.954283
vt 0.109885 0.954204
vt 0.109822 0.954307
vt 0.109216 0.982091
vt 0.109651 0.954216
vt 0.109922 0.954525
vt 0.109504 0.953898
vt 0.109521 0.953804
vt 0.109622 0.953701
vt 0.109714 0.953682
vt 0.109594 0.953990
vt 0.109835 0.953779
vt 0.110053 0.953826
vt 0.110357 0.954094
vt 0.110359 0.954293
vt 0.110270 0.954455
vt 0.110111 0.954533
vt 0.983338 0.984538
vt 0.983295 0.984506
vt 0.983267 0.984509
vt 0.983243 0.984479
vt 0.983262 0.984456
vt 0.983285 0.984460
vt 0.983287 0.984430
vt 0.983314 0.984410
vt 0.983343 0.984436
vt 0.983331 0.984465
vt 0.983368 0.984507
vt 0.109538 0.953787
vt 0.109603 0.953720
vt 0.109624 0.953703
vt 0.983316 0.984522
vt 0.109370 0.982159
vt 0.109424 0.982119
vt 0.109352 0.981973
vt 0.109223 0.981888
vt 0.109155 0.981999
vt 0.109879 0.954393
vt 0.109651 0.954216
vt 0.109822 0.954307
vt 0.109879 0.954393
vt 0.109922 0.954525
vt 0.983338 0.984538
vt 0.983295 0.984506
vt 0.983331 0.984465
vt 0.983368 0.984507
vt 0.109370 0.982159
vt 0.109216 0.982091
vt 0.109352 0.981973
vt 0.109424 0.982119
vt 0.109714 0.953682
vt 0.109504 0.953898
vt 0.109521 0.953804
vt 0.109622 0.953701
vt 0.109594 0.953990
vt 0.109885 0.954204
vt 0.109835 0.953779
vt 0.110053 0.953826
vt 0.110006 0.954283
vt 0.110357 0.954094
vt 0.110359 0.954293
vt 0.110072 0.954419
vt 0.110270 0.954455
vt 0.110022 0.954456
vt 0.110111 0.954533
vt 0.109922 0.954525
vt 0.109651 0.954216
vt 0.109504 0.953898
vt 0.109521 0.953804
vt 0.109603 0.953720
vt 0.109624 0.953703
vt 0.109714 0.953682
vt 0.109594 0.953990
vt 0.109835 0.953779
vt 0.110053 0.953826
vt 0.110357 0.954094
vt 0.110359 0.954293
vt 0.110270 0.954455
vt 0.110111 0.954533
vt 0.983316 0.984522
vt 0.983295 0.984506
vt 0.983267 0.984509
vt 0.983267 0.984509
vt 0.983243 0.984479
vt 0.983243 0.984479
vt 0.983262 0.984456
vt 0.983262 0.984456
vt 0.983285 0.984460
vt 0.983285 0.984460
vt 0.983287 0.984430
vt 0.983287 0.984430
vt 0.983314 0.984410
vt 0.983314 0.984410
vt 0.983343 0.984436
vt 0.983343 0.984436
vt 0.983331 0.984465
vt 0.983350 0.984487
vt 0.109538 0.953787
vt 0.109155 0.981999
vt 0.109223 0.981888
vn 0.000000 0.000000 -1.000000
vn 0.000000 0.000000 -1.000000
vn 0.000000 0.000000 -1.000000
vn 0.000000 0.000000 -1.000000
vn -0.000001 -0.000000 -1.000000
vn -0.000001 -0.000000 -1.000000
vn -0.000001 -0.000000 -1.000000
vn -0.000001 -0.000000 -1.000000
vn -0.000000 0.000000 -1.000000
vn -0.000000 0.000000 -1.000000
vn -0.000000 0.000000 -1.000000
vn -0.000000 0.000000 -1.000000
vn 0.000000 0.000000 -1.000000
vn 0.000000 0.000000 -1.000000
vn 0.000000 0.000000 -1.000000
vn 0.000000 0.000000 -1.000000
vn 0.000000 0.000000 -1.000000
vn 0.000000 0.000000 -1.000000
vn 0.000000 0.000000 -1.000000
vn 0.000000 0.000000 -1.000000
vn 0.000000 0.000000 -1.000000
vn 0.000000 0.000000 -1.000000
vn 0.000000 0.000000 -1.000000
vn 0.000000 0.000000 -1.000000
vn 0.000000 0.000000 -1.000000
vn 0.000000 0.000000 -1.000000
vn 0.000000 0.000000 -1.000000
vn 0.000000 0.000000 -1.000000
vn -0.000000 0.000000 -1.000000
vn -0.000000 0.000000 -1.000000
vn -0.000000 0.000000 -1.000000
vn -0.000000 0.000000 -1.000000
vn 0.000000 0.000000 -1.000000
vn 0.000000 0.000000 -1.000000
vn 0.000000 0.000000 -1.000000
vn 0.000000 0.000000 -1.000000
vn -0.000000 0.000000 -1.000000
vn -0.000000 0.000000 -1.000000
vn -0.000000 0.000000 -1.000000
vn 0.000000 0.000000 -1.000000
vn 0.000000 0.000000 -1.000000
vn 0.000000 0.000000 -1.000000
vn 0.000000 0.000000 -1.000000
vn -0.000000 0.000000 -1.000000
vn -0.000000 0.000000 -1.000000
vn -0.000000 0.000000 -1.000000
vn -0.000000 0.000000 -1.000000
vn -0.946858 0.235724 -0.218848
vn -0.946858 0.235724 -0.218848
vn -0.946858 0.235724 -0.218848
vn -0.946858 0.235724 -0.218848
vn -0.909577 -0.331969 -0.249933
vn -0.909577 -0.331969 -0.249933
vn -0.909577 -0.331969 -0.249933
vn -0.909577 -0.331969 -0.249933
vn -0.415072 -0.864579 -0.283228
vn -0.415072 -0.864579 -0.283228
vn -0.415072 -0.864579 -0.283228
vn 0.417588 -0.885226 -0.204928
vn 0.417588 -0.885226 -0.204928
vn 0.417588 -0.885226 -0.204928
vn 0.417588 -0.885226 -0.204928
vn -0.961283 -0.217018 -0.169819
vn -0.961283 -0.217018 -0.169819
vn -0.961283 -0.217018 -0.169819
vn -0.961283 -0.217018 -0.169819
vn -0.943424 0.304298 -0.131734
vn -0.943424 0.304298 -0.131734
vn -0.943424 0.304298 -0.131734
vn -0.943424 0.304298 -0.131734
vn 0.829504 -0.550963 -0.091446
vn 0.829504 -0.550963 -0.091446
vn 0.829504 -0.550963 -0.091446
vn 0.829504 -0.550963 -0.091446
vn 0.548751 -0.826017 -0.128719
vn 0.548751 -0.826017 -0.128719
vn 0.548751 -0.826017 -0.128719
vn 0.548751 -0.826017 -0.128719
vn 0.831713 -0.540396 -0.127381
vn 0.831713 -0.540396 -0.127381
vn 0.831713 -0.540396 -0.127381
vn 0.831713 -0.540396 -0.127381
vn 0.964204 0.164114 -0.208274
vn 0.964204 0.164114 -0.208274
vn 0.964204 0.164114 -0.208274
vn 0.964204 0.164114 -0.208274
vn 0.741660 0.623520 -0.247313
vn 0.741660 0.623520 -0.247313
vn 0.741660 0.623520 -0.247313
vn 0.741660 0.623520 -0.247313
vn -0.547852 0.803005 -0.234608
vn -0.547852 0.803005 -0.234608
vn -0.547852 0.803005 -0.234608
vn -0.547852 0.803005 -0.234608
vn 0.043369 0.962170 -0.268978
vn 0.043369 0.962170 -0.268978
vn 0.043369 0.962170 -0.268978
vn 0.043369 0.962170 -0.268978
vn -0.766746 0.501518 -0.400725
vn -0.766746 0.501518 -0.400725
vn -0.766746 0.501518 -0.400725
vn -0.766746 0.501518 -0.400725
vn -0.220156 0.894697 -0.388649
vn -0.220156 0.894697 -0.388649
vn -0.220156 0.894697 -0.388649
vn -0.220156 0.894697 -0.388649
vn -0.808420 0.262968 -0.526598
vn -0.808420 0.262968 -0.526598
vn -0.808420 0.262968 -0.526598
vn -0.808420 0.262968 -0.526598
vn -0.362358 -0.735978 -0.571868
vn -0.362358 -0.735978 -0.571868
vn -0.362358 -0.735978 -0.571868
vn -0.362358 -0.735978 -0.571868
vn 0.374143 -0.825283 -0.422995
vn 0.374143 -0.825283 -0.422995
vn 0.374143 -0.825283 -0.422995
vn 0.374143 -0.825283 -0.422995
vn -0.833857 -0.398033 -0.382430
vn -0.833857 -0.398033 -0.382430
vn -0.833857 -0.398033 -0.382430
vn -0.833857 -0.398033 -0.382430
vn -0.135907 -0.810368 -0.569941
vn -0.135907 -0.810368 -0.569941
vn -0.135907 -0.810368 -0.569941
vn -0.135907 -0.810368 -0.569941
vn 0.680914 -0.401081 -0.612773
vn 0.680914 -0.401081 -0.612773
vn 0.680914 -0.401081 -0.612772
vn 0.680914 -0.401081 -0.612773
vn 0.681100 0.658006 -0.321140
vn 0.681100 0.658006 -0.321140
vn 0.681100 0.658006 -0.321140
vn 0.681100 0.658006 -0.321140
vn 0.860558 -0.284340 -0.422600
vn 0.860558 -0.284340 -0.422600
vn 0.860558 -0.284340 -0.422600
vn 0.860558 -0.284340 -0.422600
vn -0.403523 -0.870038 -0.283201
vn -0.403523 -0.870038 -0.283200
vn -0.403523 -0.870038 -0.283200
vn -0.405896 -0.870000 -0.279907
vn -0.405896 -0.870000 -0.279907
vn -0.405896 -0.870000 -0.279907
vn -0.405896 -0.870000 -0.279907
vn -0.000000 0.000000 -1.000000
vn -0.000000 0.000000 -1.000000
vn -0.000000 0.000000 -1.000000
vn 0.000000 0.000000 -1.000000
vn 0.000000 0.000000 -1.000000
vn 0.000000 0.000000 -1.000000
vn 0.000000 0.000000 -1.000000
vn 0.000000 0.000000 -1.000000
vn 0.000000 0.000000 -1.000000
vn 0.000000 0.000000 -1.000000
vn -0.000000 0.000000 -1.000000
vn -0.000000 0.000000 -1.000000
vn -0.000000 0.000000 -1.000000
vn -0.000000 0.000000 -1.000000
vn 0.000000 0.000000 -1.000000
vn 0.000000 0.000000 -1.000000
vn 0.000000 0.000000 -1.000000
vn 0.000000 0.000000 -1.000000
vn 0.000000 0.000000 -1.000000
vn 0.000000 0.000000 -1.000000
vn 0.000000 0.000000 -1.000000
vn 0.000000 0.000000 1.000000
vn 0.000000 0.000000 1.000000
vn 0.000000 0.000000 1.000000
vn 0.000000 0.000000 1.000000
vn -0.000001 -0.000000 1.000000
vn -0.000001 -0.000000 1.000000
vn -0.000001 -0.000000 1.000000
vn -0.000001 -0.000000 1.000000
vn -0.000000 0.000000 1.000000
vn -0.000000 0.000000 1.000000
vn -0.000000 0.000000 1.000000
vn -0.000000 0.000000 1.000000
vn 0.000000 0.000000 1.000000
vn 0.000000 0.000000 1.000000
vn 0.000000 0.000000 1.000000
vn 0.000000 0.000000 1.000000
vn 0.000000 0.000000 1.000000
vn 0.000000 0.000000 1.000000
vn 0.000000 0.000000 1.000000
vn 0.000000 0.000000 1.000000
vn 0.000000 0.000000 1.000000
vn 0.000000 0.000000 1.000000
vn 0.000000 0.000000 1.000000
vn 0.000000 0.000000 1.000000
vn 0.000000 0.000000 1.000000
vn 0.000000 0.000000 1.000000
vn 0.000000 0.000000 1.000000
vn 0.000000 0.000000 1.000000
vn 0.000000 0.000000 1.000000
vn 0.000000 0.000000 1.000000
vn 0.000000 0.000000 1.000000
vn 0.000000 0.000000 1.000000
vn 0.000000 0.000000 1.000000
vn 0.000000 0.000000 1.000000
vn 0.000000 0.000000 1.000000
vn 0.000000 0.000000 1.000000
vn 0.000000 0.000000 1.000000
vn 0.000000 0.000000 1.000000
vn 0.000000 0.000000 1.000000
vn 0.000000 0.000000 1.000000
vn 0.000000 0.000000 1.000000
vn 0.000000 0.000000 1.000000
vn 0.000000 0.000000 1.000000
vn -0.000000 0.000000 1.000000
vn -0.000000 0.000000 1.000000
vn -0.000000 0.000000 1.000000
vn -0.000000 0.000000 1.000000
vn -0.946858 0.235724 0.218848
vn -0.946858 0.235724 0.218848
vn -0.946858 0.235724 0.218848
vn -0.946858 0.235724 0.218848
vn -0.909577 -0.331969 0.249933
vn -0.909577 -0.331969 0.249933
vn -0.909577 -0.331969 0.249933
vn -0.909577 -0.331969 0.249933
vn -0.415072 -0.864579 0.283229
vn -0.415072 -0.864579 0.283229
vn -0.415072 -0.864579 0.283229
vn 0.417588 -0.885226 0.204928
vn 0.417588 -0.885226 0.204928
vn 0.417588 -0.885226 0.204928
vn 0.417588 -0.885226 0.204928
vn -0.961283 -0.217018 0.169819
vn -0.961283 -0.217018 0.169819
vn -0.961283 -0.217018 0.169819
vn -0.961283 -0.217018 0.169819
vn -0.943424 0.304298 0.131734
vn -0.943424 0.304298 0.131734
vn -0.943424 0.304298 0.131734
vn -0.943424 0.304298 0.131734
vn 0.829504 -0.550963 0.091446
vn 0.829504 -0.550963 0.091446
vn 0.829504 -0.550963 0.091446
vn 0.829504 -0.550963 0.091446
vn 0.548751 -0.826017 0.128719
vn 0.548751 -0.826017 0.128719
vn 0.548751 -0.826017 0.128719
vn 0.548751 -0.826017 0.128719
vn 0.831713 -0.540396 0.127381
vn 0.831713 -0.540396 0.127381
vn 0.831713 -0.540396 0.127381
vn 0.831713 -0.540396 0.127381
vn 0.964204 0.164114 0.208274
vn 0.964204 0.164114 0.208274
vn 0.964204 0.164114 0.208274
vn 0.964204 0.164114 0.208274
vn 0.741660 0.623520 0.247313
vn 0.741660 0.623520 0.247313
vn 0.741660 0.623520 0.247313
vn 0.741660 0.623520 0.247313
vn -0.547852 0.803005 0.234608
vn -0.547852 0.803005 0.234608
vn -0.547852 0.803005 0.234608
vn -0.547852 0.803005 0.234608
vn 0.043369 0.962170 0.268977
vn 0.043369 0.962170 0.268978
vn 0.043369 0.962170 0.268977
vn 0.043369 0.962170 0.268977
vn -0.766746 0.501518 0.400725
vn -0.766746 0.501518 0.400725
vn -0.766746 0.501518 0.400725
vn -0.766746 0.501518 0.400725
vn -0.220156 0.894697 0.388649
vn -0.220156 0.894697 0.388649
vn -0.220156 0.894697 0.388649
vn -0.220156 0.894697 0.388649
vn -0.808420 0.262968 0.526598
vn -0.808420 0.262968 0.526598
vn -0.808420 0.262968 0.526598
vn -0.808420 0.262968 0.526598
vn -0.362358 -0.735978 0.571868
vn -0.362358 -0.735978 0.571868
vn -0.362358 -0.735978 0.571868
vn -0.362358 -0.735978 0.571868
vn 0.374143 -0.825283 0.422995
vn 0.374143 -0.825283 0.422995
vn 0.374143 -0.825283 0.422995
vn 0.374143 -0.825283 0.422995
vn -0.833857 -0.398033 0.382430
vn -0.833856 -0.398033 0.382430
vn -0.833857 -0.398033 0.382430
vn -0.833857 -0.398034 0.382430
vn -0.135907 -0.810368 0.569941
vn -0.135907 -0.810368 0.569941
vn -0.135907 -0.810368 0.569941
vn -0.135907 -0.810368 0.569941
vn 0.680914 -0.401081 0.612773
vn 0.680914 -0.401081 0.612773
vn 0.680914 -0.401081 0.612772
vn 0.680914 -0.401081 0.612773
vn 0.681100 0.658006 0.321139
vn 0.681100 0.658006 0.321140
vn 0.681100 0.658006 0.321140
vn 0.681100 0.658006 0.321140
vn 0.860558 -0.284340 0.422600
vn 0.860558 -0.284340 0.422600
vn 0.860558 -0.284340 0.422600
vn 0.860558 -0.284340 0.422600
vn -0.403523 -0.870038 0.283201
vn -0.403523 -0.870038 0.283200
vn -0.403523 -0.870038 0.283200
vn -0.405896 -0.870000 0.279907
vn -0.405896 -0.870000 0.279907
vn -0.405896 -0.870000 0.279907
vn -0.405896 -0.870000 0.279907
vn -0.000000 0.000000 1.000000
vn -0.000000 0.000000 1.000000
vn -0.000000 0.000000 1.000000
vn 0.000000 0.000000 1.000000
vn 0.000000 0.000000 1.000000
vn 0.000000 0.000000 1.000000
vn 0.000000 0.000000 1.000000
vn 0.000000 0.000000 1.000000
vn 0.000000 0.000000 1.000000
vn 0.000000 0.000000 1.000000
vn -0.000000 0.000000 1.000000
vn -0.000000 0.000000 1.000000
vn -0.000000 0.000000 1.000000
vn -0.000000 0.000000 1.000000
vn 0.000000 0.000000 1.000000
vn 0.000000 0.000000 1.000000
vn 0.000000 0.000000 1.000000
vn 0.000000 0.000000 1.000000
vn 0.000000 0.000000 1.000000
vn 0.000000 0.000000 1.000000
vn 0.000000 0.000000 1.000000
s off
f 23/29/1 30/30/2 25/62/3 24/27/4
f 43/42/5 52/52/6 51/51/7 42/43/8
f 26/57/9 29/58/10 28/59/11 25/28/12
f 31/34/13 34/33/14 33/32/15 32/31/16
f 35/35/17 23/29/18 24/27/19 27/26/20
f 36/36/21 31/34/22 32/31/23 35/35/24
f 37/37/25 36/36/26 35/35/27 27/26/28
f 28/25/29 38/38/30 37/37/31 27/26/32
f 39/39/33 38/38/34 28/25/35 29/24/36
f 40/40/37 39/39/38 29/24/39
f 26/23/40 25/62/41 30/30/42 41/41/43
f 40/40/44 29/24/45 26/23/46 41/41/47
f 23/29/48 11/11/49 12/12/50 30/30/51
f 9/9/52 32/31/53 33/32/54 8/8/55
f 34/33/56 7/55/57 52/54/58
f 7/55/59 34/33/60 31/34/61 6/6/62
f 11/11/63 23/29/64 35/35/65 10/10/66
f 10/10/67 35/35/68 32/31/69 9/9/70
f 6/6/71 31/34/72 36/36/73 5/5/74
f 5/5/75 36/36/76 37/37/77 4/4/78
f 37/37/79 38/38/80 3/3/81 4/4/82
f 3/3/83 38/38/84 39/39/85 2/2/86
f 2/2/87 39/39/88 40/40/89 1/1/90
f 13/13/91 41/41/92 30/30/93 12/12/94
f 1/1/95 40/40/96 41/41/97 13/13/98
f 8/56/99 43/42/100 42/43/101 22/22/102
f 22/22/103 42/43/104 44/44/105 21/21/106
f 21/21/107 44/44/108 45/45/109 20/20/110
f 20/20/111 45/45/112 46/46/113 19/19/114
f 19/19/115 46/46/116 47/47/117 18/18/118
f 18/18/119 47/47/120 48/48/121 17/17/122
f 17/17/123 48/48/124 49/49/125 16/16/126
f 16/16/127 49/49/128 50/50/129 15/15/130
f 15/15/131 50/50/132 51/51/133 14/14/134
f 14/14/135 51/51/136 52/52/137 7/7/138
f 8/8/139 33/32/140 43/53/141
f 33/32/142 34/33/143 52/54/144 43/53/145
f 51/51/146 47/47/147 42/43/148
f 47/47/149 46/46/150 44/44/151 42/43/152
f 51/51/153 48/48/154 47/47/155
f 51/51/156 50/50/157 49/49/158 48/48/159
f 46/46/160 45/45/161 44/44/162
f 28/59/163 27/60/164 24/61/165 25/28/166
f 53/63/167 54/64/168 55/65/169 60/66/170
f 73/67/171 72/68/172 81/69/173 82/70/174
f 56/71/175 55/72/176 58/73/177 59/74/178
f 61/75/179 62/76/180 63/77/181 64/78/182
f 65/79/183 57/80/184 54/64/185 53/63/186
f 66/81/187 65/79/188 62/76/189 61/75/190
f 67/82/191 57/80/192 65/79/193 66/81/194
f 58/83/195 57/80/196 67/82/197 68/84/198
f 69/85/199 59/86/200 58/83/201 68/84/202
f 70/87/203 59/86/204 69/85/205
f 56/88/206 71/89/207 60/66/208 55/65/209
f 70/87/210 71/89/211 56/88/212 59/86/213
f 53/63/214 60/66/215 12/90/216 11/91/217
f 9/92/218 8/93/219 63/77/220 62/76/221
f 64/78/222 82/94/223 7/95/224
f 7/95/225 6/96/226 61/75/227 64/78/228
f 11/91/229 10/97/230 65/79/231 53/63/232
f 10/97/233 9/92/234 62/76/235 65/79/236
f 6/96/237 5/98/238 66/81/239 61/75/240
f 5/98/241 4/99/242 67/82/243 66/81/244
f 67/82/245 4/99/246 3/100/247 68/84/248
f 3/100/249 2/101/250 69/85/251 68/84/252
f 2/101/253 1/102/254 70/87/255 69/85/256
f 13/103/257 12/90/258 60/66/259 71/89/260
f 1/102/261 13/103/262 71/89/263 70/87/264
f 8/104/265 22/105/266 72/68/267 73/67/268
f 22/105/269 21/106/270 74/107/271 72/68/272
f 21/106/273 20/108/274 75/109/275 74/107/276
f 20/108/277 19/110/278 76/111/279 75/109/280
f 19/110/281 18/112/282 77/113/283 76/111/284
f 18/112/285 17/114/286 78/115/287 77/113/288
f 17/114/289 16/116/290 79/117/291 78/115/292
f 16/116/293 15/118/294 80/119/295 79/117/296
f 15/118/297 14/120/298 81/69/299 80/119/300
f 14/120/301 7/121/302 82/70/303 81/69/304
f 8/93/305 73/122/306 63/77/307
f 63/77/308 73/122/309 82/94/310 64/78/311
f 81/69/312 72/68/313 77/113/314
f 77/113/315 72/68/316 74/107/317 76/111/318
f 81/69/319 77/113/320 78/115/321
f 81/69/322 78/115/323 79/117/324 80/119/325
f 76/111/326 74/107/327 75/109/328
f 58/73/329 55/72/330 54/123/331 57/124/332
