# This file uses centimeters as units for non-parametric coordinates.

v -20.000000 -20.000000 0.000000
v 20.000000 -20.000000 0.000000
v -0.186236 18.918522 2.000000
v -0.000000 -20.000000 0.000000
v -19.457966 4.230279 2.000000
v 0.376694 4.167017 2.049788
v 18.874470 3.390985 2.000000
v -0.209024 -7.644471 2.049788
v -18.208633 2.604263 4.000000
v 0.216495 -8.788809 4.000000
v -17.962082 -18.728001 4.000000
v -0.174759 -18.297865 4.000000
v 17.979362 2.307875 4.000000
v 17.907318 -18.695564 4.000000
v -0.000000 20.000000 0.000000
v -20.000000 4.000000 0.000000
v 20.000000 4.000000 0.000000
v -0.186236 18.918522 -2.000000
v -19.457966 4.230279 -2.000000
v 0.376694 4.167017 -2.049788
v 18.874470 3.390985 -2.000000
v 0.175832 -7.487209 -2.049788
v -18.208633 2.604263 -4.000000
v -0.281172 -8.301983 -4.000000
v -17.962082 -18.728001 -4.000000
v -0.174759 -18.297865 -4.000000
v 17.979362 2.307875 -4.000000
v 17.907318 -18.695564 -4.000000
vt 0.983874 0.984398
vt 0.983503 0.984225
vt 0.983537 0.983414
vt 0.983683 0.984297
vt 0.983901 0.983800
vt 0.983595 0.983767
vt 0.983264 0.983779
vt 0.983595 0.984064
vt 0.983595 0.984064
vt 0.984090 0.983768
vt 0.984088 0.984367
vt 0.983594 0.984362
vt 0.983101 0.983766
vt 0.983100 0.984357
vt 0.983520 0.983451
vt 0.983759 0.983821
vt 0.983461 0.983785
vt 0.983537 0.983414
vt 0.983595 0.983767
vt 0.983264 0.983779
vt 0.983901 0.983800
vt 0.983595 0.984064
vt 0.983595 0.984064
vt 0.984090 0.983768
vt 0.984088 0.984367
vt 0.983594 0.984362
vt 0.983101 0.983766
vt 0.983100 0.984357
vt 0.983874 0.984398
vt 0.983683 0.984297
vt 0.983503 0.984225
vt 0.983520 0.983451
vt 0.983759 0.983821
vt 0.983461 0.983785
vt 0.983060 0.953081
vt 0.982549 0.953090
vt 0.983043 0.953368
vt 0.983526 0.953091
vt 0.983070 0.953109
vt 0.983063 0.953398
vt 0.982548 0.953118
vt 0.983548 0.953118
vn 0.002838 0.003483 0.999990
vn 0.002838 0.003483 0.999990
vn 0.002838 0.003483 0.999990
vn -0.002500 0.003280 0.999992
vn -0.002500 0.003280 0.999992
vn -0.002500 0.003280 0.999992
vn -0.002510 0.000124 0.999997
vn -0.002510 0.000124 0.999997
vn -0.002510 0.000124 0.999997
vn 0.002686 -0.000133 0.999996
vn 0.002686 -0.000133 0.999996
vn 0.002686 -0.000133 0.999996
vn 0.000000 0.000000 1.000000
vn 0.000000 0.000000 1.000000
vn 0.000000 0.000000 1.000000
vn 0.000000 0.000000 1.000000
vn 0.000000 0.000000 1.000000
vn 0.000000 0.000000 1.000000
vn 0.000000 0.000000 1.000000
vn 0.000000 0.000000 1.000000
vn 0.491806 0.797056 0.350469
vn 0.491806 0.797056 0.350469
vn 0.491806 0.797056 0.350469
vn 0.491806 0.797056 0.350469
vn -0.877280 -0.015369 0.479733
vn -0.877280 -0.015369 0.479733
vn -0.877280 -0.015369 0.479733
vn -0.877280 -0.015369 0.479733
vn 0.010678 -0.938078 0.346260
vn 0.010678 -0.938078 0.346260
vn 0.010678 -0.938078 0.346260
vn 0.010678 -0.938078 0.346260
vn -0.473952 0.789927 0.389083
vn -0.473952 0.789927 0.389083
vn -0.473952 0.789927 0.389083
vn -0.473952 0.789927 0.389083
vn -0.009785 -0.936942 0.349349
vn -0.009785 -0.936942 0.349349
vn -0.009785 -0.936942 0.349349
vn -0.009785 -0.936942 0.349349
vn 0.895171 0.001162 0.445721
vn 0.895171 0.001162 0.445721
vn 0.895171 0.001162 0.445721
vn 0.895171 0.001162 0.445721
vn -0.601043 0.769154 0.217138
vn -0.601043 0.769154 0.217138
vn -0.601043 0.769154 0.217138
vn -0.601043 0.769154 0.217138
vn 0.553840 0.686174 0.471620
vn 0.553840 0.686174 0.471620
vn 0.553840 0.686174 0.471620
vn 0.553840 0.686174 0.471620
vn -0.965182 0.000000 0.261581
vn -0.965182 0.000000 0.261581
vn -0.965182 0.000000 0.261581
vn 0.871477 0.000000 0.490437
vn 0.871477 0.000000 0.490437
vn 0.871477 0.000000 0.490437
vn 0.002838 0.003483 -0.999990
vn 0.002838 0.003483 -0.999990
vn 0.002838 0.003483 -0.999990
vn -0.002500 0.003280 -0.999992
vn -0.002500 0.003280 -0.999992
vn -0.002500 0.003280 -0.999992
vn -0.002510 0.000043 -0.999997
vn -0.002510 0.000043 -0.999997
vn -0.002510 0.000043 -0.999997
vn 0.002690 -0.000046 -0.999996
vn 0.002690 -0.000046 -0.999996
vn 0.002690 -0.000046 -0.999996
vn 0.000000 0.000000 -1.000000
vn 0.000000 0.000000 -1.000000
vn 0.000000 0.000000 -1.000000
vn 0.000000 0.000000 -1.000000
vn 0.000000 0.000000 -1.000000
vn 0.000000 0.000000 -1.000000
vn 0.000000 0.000000 -1.000000
vn 0.000000 0.000000 -1.000000
vn 0.474289 0.788305 -0.391952
vn 0.474289 0.788305 -0.391952
vn 0.474289 0.788305 -0.391952
vn 0.474289 0.788305 -0.391952
vn -0.877280 -0.015369 -0.479733
vn -0.877280 -0.015369 -0.479733
vn -0.877280 -0.015369 -0.479733
vn -0.877280 -0.015369 -0.479733
vn 0.010678 -0.938078 -0.346260
vn 0.010678 -0.938078 -0.346260
vn 0.010678 -0.938078 -0.346260
vn 0.010678 -0.938078 -0.346260
vn -0.488120 0.840108 -0.236553
vn -0.488120 0.840108 -0.236553
vn -0.488120 0.840108 -0.236553
vn -0.488120 0.840108 -0.236553
vn -0.009785 -0.936942 -0.349349
vn -0.009785 -0.936942 -0.349349
vn -0.009785 -0.936942 -0.349349
vn -0.009785 -0.936942 -0.349349
vn 0.895171 0.001162 -0.445721
vn 0.895171 0.001162 -0.445721
vn 0.895171 0.001162 -0.445721
vn 0.895171 0.001162 -0.445721
vn -0.601043 0.769154 -0.217138
vn -0.601043 0.769154 0.217138
vn -0.601043 0.769154 0.217138
vn -0.601043 0.769154 -0.217138
vn -0.601043 0.769154 -0.217138
vn -0.601043 0.769154 -0.217138
vn 0.553840 0.686174 -0.471620
vn 0.553840 0.686174 -0.471620
vn 0.553840 0.686174 -0.471620
vn 0.553840 0.686174 -0.471620
vn -0.965182 0.000000 -0.261581
vn -0.965182 0.000000 -0.261581
vn -0.965182 0.000000 -0.261581
vn 0.871477 0.000000 -0.490437
s off
f 3/3/1 6/6/2 7/7/3
f 3/3/4 5/5/5 6/6/6
f 6/35/7 5/36/8 8/37/9
f 7/38/10 6/35/11 8/37/12
f 10/9/13 9/10/14 11/11/15 12/12/16
f 13/13/17 10/9/18 12/12/19 14/14/20
f 8/8/21 5/5/22 9/10/23 10/9/24
f 5/5/25 1/1/26 11/11/27 9/10/28
f 1/1/29 4/4/30 12/12/31 11/11/32
f 7/7/33 8/8/34 10/9/35 13/13/36
f 4/4/37 2/2/38 14/14/39 12/12/40
f 2/2/41 7/7/42 13/13/43 14/14/44
f 5/5/45 3/3/46 15/15/47 16/16/48
f 3/3/49 7/7/50 17/17/51 15/15/52
f 1/1/53 5/5/54 16/16/55
f 7/7/56 2/2/57 17/17/58
f 18/18/59 21/20/60 20/19/61
f 18/18/62 20/19/63 19/21/64
f 20/39/65 22/40/66 19/41/67
f 21/42/68 22/40/69 20/39/70
f 24/23/71 26/26/72 25/25/73 23/24/74
f 27/27/75 28/28/76 26/26/77 24/23/78
f 22/22/79 24/23/80 23/24/81 19/21/82
f 19/21/83 23/24/84 25/25/85 1/29/86
f 1/29/87 25/25/88 26/26/89 4/30/90
f 21/20/91 27/27/92 24/23/93 22/22/94
f 4/30/95 26/26/96 28/28/97 2/31/98
f 2/31/99 28/28/100 27/27/101 21/20/102
f 19/21/103 16/33/104 15/32/105 18/18/106
f 18/18/107 15/32/108 17/34/109 21/20/110
f 1/29/111 16/33/112 19/21/113
f 21/20/114 17/34/115 2/31/116
