# This file uses centimeters as units for non-parametric coordinates.

v 0.000000 20.000000 -0.000000
v -10.499084 -20.000000 0.000000
v -9.885925 20.000000 -0.000000
v 10.499084 -20.000000 -0.000000
v 9.885925 20.000000 0.000000
v -10.495728 5.631393 0.000000
v 10.495728 5.631393 -0.000000
v -9.885925 10.647934 -0.000000
v 9.885925 10.647934 0.000000
v -7.355042 7.830627 0.000000
v 7.355042 7.830627 -0.000000
v -12.113159 2.156601 -0.000000
v 12.113159 2.156601 -0.000000
v -12.113159 -17.965546 -0.000000
v 12.113159 -17.965546 -0.000000
v 7.355042 10.647934 0.000000
v -7.355042 10.647934 0.000000
v 0.000000 11.197739 2.000000
v 6.151001 11.236176 2.000000
v -8.821533 11.306885 4.000000
v -8.793945 18.639648 4.000000
v -6.151001 11.236176 2.000000
v 6.306824 7.023132 2.000000
v 0.000000 7.220139 2.000000
v -6.306824 7.023132 2.000000
v -8.582336 -18.734535 4.000000
v 8.582336 -18.734535 4.000000
v 8.821533 11.306885 4.000000
v 8.793945 18.639648 4.000000
v 0.000000 11.428040 4.000000
v 0.000000 18.363632 4.000000
v -8.633789 5.029770 4.000000
v 0.000000 5.327652 4.000000
v -10.428528 1.896133 4.000000
v 0.000000 2.164871 4.000000
v 8.633789 5.029770 4.000000
v 10.428528 1.896133 4.000000
v -10.623840 -16.547966 4.000000
v 10.623840 -16.547966 4.000000
v -8.253540 -0.248550 4.000000
v 0.000000 -0.036179 4.000000
v -8.397705 -14.333557 4.000000
v 8.253540 -0.248550 4.000000
v 8.397705 -14.333557 4.000000
v -1.499878 -5.690079 4.000000
v -1.499878 -8.690521 4.000000
v 1.499878 -8.690521 4.000000
v 1.499878 -5.690079 4.000000
v -5.827515 -5.712799 4.000000
v -5.853882 -8.713928 4.000000
v 1.499878 -12.789001 4.000000
v -1.499878 -12.789001 4.000000
v 5.827515 -5.712799 4.000000
v 5.853882 -8.713928 4.000000
v 1.499878 -1.575012 4.000000
v -1.499878 -1.575012 4.000000
v 0.000000 11.197739 -2.000000
v 6.151001 11.236176 -2.000000
v -8.821533 11.306885 -4.000000
v -8.793945 18.639648 -4.000000
v -6.151001 11.236176 -2.000000
v 6.306824 7.023132 -2.000000
v 0.000000 7.220139 -2.000000
v -6.306824 7.023132 -2.000000
v -8.582336 -18.734535 -4.000000
v 8.582336 -18.734535 -4.000000
v 8.821533 11.306885 -4.000000
v 8.793945 18.639648 -4.000000
v 0.000000 11.428040 -4.000000
v 0.000000 18.363632 -4.000000
v -8.633789 5.029770 -4.000000
v 0.000000 5.327652 -4.000000
v -10.428528 1.896133 -4.000000
v 0.000000 2.164871 -4.000000
v 8.633789 5.029770 -4.000000
v 10.428528 1.896133 -4.000000
v -10.623840 -16.547966 -4.000000
v 10.623840 -16.547966 -4.000000
v -8.253540 -0.248550 -4.000000
v 0.000000 -0.036179 -4.000000
v -8.397705 -14.333557 -4.000000
v 8.253540 -0.248550 -4.000000
v 8.397705 -14.333557 -4.000000
v -1.499878 -5.690079 -4.000000
v -1.499878 -8.690521 -4.000000
v 1.499878 -8.690521 -4.000000
v 1.499878 -5.690079 -4.000000
v -5.827515 -5.712799 -4.000000
v -5.853882 -8.713928 -4.000000
v 1.499878 -12.789001 -4.000000
v -1.499878 -12.789001 -4.000000
v 5.827515 -5.712799 -4.000000
v 5.853882 -8.713928 -4.000000
v 1.499878 -1.575012 -4.000000
v -1.499878 -1.575012 -4.000000
vt 0.485163 0.918682
vt 0.485163 0.918963
vt 0.484700 0.918972
vt 0.484700 0.918667
vt 0.982177 0.985977
vt 0.982417 0.985987
vt 0.982448 0.986096
vt 0.982177 0.986086
vt 0.981939 0.985982
vt 0.981908 0.986090
vt 0.982019 0.985907
vt 0.982023 0.985794
vt 0.982180 0.985797
vt 0.982180 0.985903
vt 0.982342 0.985910
vt 0.982449 0.986520
vt 0.981907 0.986508
vt 0.982396 0.986573
vt 0.981958 0.986563
vt 0.485621 0.918673
vt 0.485621 0.918975
vt 0.982339 0.985796
vt 0.485648 0.918638
vt 0.485645 0.919041
vt 0.485452 0.919041
vt 0.982370 0.985824
vt 0.982449 0.985945
vt 0.982489 0.986074
vt 0.981998 0.985882
vt 0.981998 0.985822
vt 0.982369 0.985884
vt 0.982484 0.986525
vt 0.982443 0.986574
vt 0.981925 0.986562
vt 0.485413 0.918986
vt 0.484848 0.919039
vt 0.981920 0.985941
vt 0.981881 0.986067
vt 0.981885 0.986512
vt 0.982177 0.986086
vt 0.982412 0.986127
vt 0.982414 0.986486
vt 0.981944 0.986121
vt 0.981941 0.986476
vt 0.484650 0.919039
vt 0.484899 0.918984
vt 0.484648 0.918630
vt 0.485151 0.918634
vt 0.485157 0.918988
vt 0.484479 0.951647
vt 0.483410 0.951490
vt 0.483408 0.950615
vt 0.483923 0.950682
vt 0.484476 0.950705
vt 0.483816 0.950676
vt 0.484037 0.950695
vt 0.484038 0.951003
vt 0.484440 0.951056
vt 0.484441 0.951288
vt 0.484038 0.951230
vt 0.484038 0.951540
vt 0.483821 0.951508
vt 0.483819 0.951204
vt 0.483444 0.951165
vt 0.483443 0.950949
vt 0.483817 0.950984
vt 0.298345 0.982429
vt 0.298125 0.982430
vt 0.298126 0.982120
vt 0.298348 0.982120
vt 0.298343 0.982651
vt 0.298728 0.982434
vt 0.298726 0.982654
vt 0.298124 0.982654
vt 0.298341 0.982951
vt 0.298123 0.982956
vt 0.297728 0.982668
vt 0.297729 0.982442
vt 0.485163 0.918682
vt 0.485163 0.918963
vt 0.484700 0.918972
vt 0.484700 0.918667
vt 0.485621 0.918673
vt 0.485621 0.918975
vt 0.982177 0.985977
vt 0.982417 0.985987
vt 0.982448 0.986096
vt 0.982177 0.986086
vt 0.981939 0.985982
vt 0.981908 0.986090
vt 0.982019 0.985907
vt 0.982023 0.985794
vt 0.982180 0.985797
vt 0.982180 0.985903
vt 0.982342 0.985910
vt 0.982339 0.985796
vt 0.485648 0.918638
vt 0.485645 0.919041
vt 0.485452 0.919041
vt 0.485413 0.918986
vt 0.982449 0.985945
vt 0.982489 0.986074
vt 0.981998 0.985882
vt 0.981998 0.985822
vt 0.982369 0.985884
vt 0.982484 0.986525
vt 0.982449 0.986520
vt 0.982443 0.986574
vt 0.982396 0.986573
vt 0.981925 0.986562
vt 0.981958 0.986563
vt 0.484848 0.919039
vt 0.484650 0.919039
vt 0.484899 0.918984
vt 0.484648 0.918630
vt 0.485151 0.918634
vt 0.982370 0.985824
vt 0.485157 0.918988
vt 0.981920 0.985941
vt 0.981881 0.986067
vt 0.981907 0.986508
vt 0.981885 0.986512
vt 0.982412 0.986127
vt 0.982177 0.986086
vt 0.982414 0.986486
vt 0.981944 0.986121
vt 0.981941 0.986476
vt 0.484476 0.950705
vt 0.484479 0.951647
vt 0.484441 0.951288
vt 0.484440 0.951056
vt 0.484038 0.951540
vt 0.483410 0.951490
vt 0.483821 0.951508
vt 0.483444 0.951165
vt 0.483408 0.950615
vt 0.483443 0.950949
vt 0.483923 0.950682
vt 0.484037 0.950695
vt 0.483816 0.950676
vt 0.298345 0.982429
vt 0.298125 0.982430
vt 0.298126 0.982120
vt 0.298348 0.982120
vt 0.298343 0.982651
vt 0.298728 0.982434
vt 0.298726 0.982654
vt 0.298124 0.982654
vt 0.298341 0.982951
vt 0.298123 0.982956
vt 0.297728 0.982668
vt 0.297729 0.982442
vt 0.484038 0.951230
vt 0.483819 0.951204
vt 0.484038 0.951003
vt 0.483817 0.950984
vn 0.000000 0.000000 1.000000
vn 0.000000 0.000000 1.000000
vn 0.000000 0.000000 1.000000
vn 0.000000 0.000000 1.000000
vn 0.000000 0.000000 1.000000
vn 0.000000 0.000000 1.000000
vn 0.000000 0.000000 1.000000
vn 0.000000 0.000000 1.000000
vn 0.000000 0.000000 1.000000
vn 0.000000 0.000000 1.000000
vn 0.000000 0.000000 1.000000
vn 0.000000 0.000000 1.000000
vn 0.000000 0.000000 1.000000
vn 0.000000 0.000000 1.000000
vn 0.000000 0.000000 1.000000
vn 0.000000 0.000000 1.000000
vn 0.000000 0.000000 1.000000
vn 0.000000 0.000000 1.000000
vn 0.000000 0.000000 1.000000
vn 0.000000 0.000000 1.000000
vn -0.023981 0.723998 0.689385
vn -0.023981 0.723998 0.689385
vn -0.023981 0.723998 0.689385
vn -0.023981 0.723998 0.689385
vn 0.023981 0.723998 0.689385
vn 0.023981 0.723998 0.689385
vn 0.023981 0.723998 0.689385
vn 0.023981 0.723998 0.689385
vn 0.000000 0.000000 1.000000
vn 0.000000 0.000000 1.000000
vn 0.000000 0.000000 1.000000
vn 0.000000 0.000000 1.000000
vn -0.965503 0.001596 0.260388
vn -0.965503 0.001596 0.260388
vn -0.965503 0.001596 0.260388
vn -0.965503 0.001596 0.260388
vn 0.056845 -0.981554 0.182540
vn 0.056845 -0.981554 0.182540
vn 0.056845 -0.981554 0.182540
vn 0.056845 -0.981554 0.182540
vn -0.812293 0.419416 0.405303
vn -0.812293 0.419416 0.405303
vn -0.812293 0.419416 0.405303
vn -0.812293 0.419416 0.405303
vn 0.870750 0.019300 0.491347
vn 0.870750 0.019300 0.491347
vn 0.870750 0.019300 0.491347
vn 0.870750 0.019300 0.491347
vn -0.457182 0.790569 0.407413
vn -0.457182 0.790569 0.407413
vn -0.457182 0.790569 0.407413
vn -0.457182 0.790569 0.407413
vn -0.929740 0.004709 0.368187
vn -0.929740 0.004709 0.368187
vn -0.929740 0.004709 0.368187
vn -0.929740 0.004709 0.368187
vn -0.664751 -0.575702 0.476103
vn -0.664751 -0.575702 0.476103
vn -0.664751 -0.575702 0.476103
vn -0.664751 -0.575702 0.476103
vn 0.000000 -0.953425 0.301632
vn 0.000000 -0.953425 0.301632
vn 0.000000 -0.953425 0.301632
vn 0.000000 -0.953425 0.301632
vn -0.056845 -0.981554 0.182540
vn -0.056845 -0.981554 0.182540
vn -0.056845 -0.981554 0.182540
vn -0.056845 -0.981554 0.182540
vn 0.965503 0.001596 0.260388
vn 0.965503 0.001596 0.260388
vn 0.965503 0.001596 0.260388
vn 0.965503 0.001596 0.260388
vn -0.013845 0.936985 0.349095
vn -0.013845 0.936985 0.349095
vn -0.013845 0.936985 0.349095
vn -0.013845 0.936985 0.349095
vn -0.870750 0.019300 0.491347
vn -0.870750 0.019300 0.491347
vn -0.870750 0.019300 0.491347
vn -0.870750 0.019300 0.491347
vn 0.013845 0.936985 0.349095
vn 0.013845 0.936985 0.349095
vn 0.013845 0.936985 0.349095
vn 0.013845 0.936985 0.349095
vn -0.005507 -0.996884 0.078695
vn -0.005507 -0.996884 0.078695
vn -0.005507 -0.996884 0.078695
vn -0.005507 -0.996884 0.078695
vn 0.005507 -0.996884 0.078695
vn 0.005507 -0.996884 0.078695
vn 0.005507 -0.996884 0.078695
vn 0.005507 -0.996884 0.078695
vn 0.812293 0.419416 0.405303
vn 0.812293 0.419416 0.405303
vn 0.812293 0.419416 0.405303
vn 0.812293 0.419416 0.405303
vn 0.457182 0.790569 0.407413
vn 0.457182 0.790569 0.407413
vn 0.457182 0.790569 0.407413
vn 0.457182 0.790569 0.407413
vn 0.929740 0.004709 0.368187
vn 0.929740 0.004709 0.368187
vn 0.929740 0.004709 0.368187
vn 0.929740 0.004709 0.368187
vn 0.664751 -0.575702 0.476103
vn 0.664751 -0.575702 0.476103
vn 0.664751 -0.575702 0.476103
vn 0.664751 -0.575702 0.476103
vn 0.000000 0.000000 1.000000
vn 0.000000 0.000000 1.000000
vn 0.000000 0.000000 1.000000
vn 0.000000 0.000000 1.000000
vn 0.000000 0.000000 1.000000
vn 0.000000 0.000000 1.000000
vn 0.000000 0.000000 1.000000
vn 0.000000 0.000000 1.000000
vn 0.000000 0.000000 1.000000
vn 0.000000 0.000000 1.000000
vn 0.000000 0.000000 1.000000
vn 0.000000 0.000000 1.000000
vn 0.000000 0.000000 1.000000
vn 0.000000 0.000000 1.000000
vn 0.000000 0.000000 1.000000
vn 0.000000 0.000000 1.000000
vn 0.000000 0.000000 1.000000
vn 0.000000 0.000000 1.000000
vn 0.000000 0.000000 1.000000
vn 0.000000 0.000000 1.000000
vn 0.000000 0.000000 1.000000
vn 0.000000 0.000000 1.000000
vn 0.000000 0.000000 1.000000
vn 0.000000 0.000000 1.000000
vn 0.000000 0.000000 1.000000
vn 0.000000 0.000000 1.000000
vn 0.000000 0.000000 1.000000
vn 0.000000 0.000000 1.000000
vn 0.000000 0.000000 1.000000
vn 0.000000 0.000000 1.000000
vn 0.000000 0.000000 1.000000
vn 0.000000 0.000000 1.000000
vn 0.000000 0.000000 1.000000
vn 0.000000 0.000000 1.000000
vn 0.000000 0.000000 1.000000
vn 0.000000 0.000000 1.000000
vn 0.000000 0.000000 1.000000
vn 0.000000 0.000000 1.000000
vn 0.000000 0.000000 1.000000
vn 0.000000 0.000000 1.000000
vn 0.000000 0.000000 1.000000
vn 0.000000 0.000000 1.000000
vn 0.000000 0.000000 1.000000
vn 0.000000 0.000000 1.000000
vn 0.000000 0.000000 1.000000
vn 0.000000 0.000000 1.000000
vn 0.000000 0.000000 1.000000
vn 0.000000 0.000000 1.000000
vn 0.000000 0.000000 1.000000
vn 0.000000 0.000000 1.000000
vn 0.000000 0.000000 1.000000
vn 0.000000 0.000000 1.000000
vn 0.000000 0.000000 1.000000
vn 0.000000 0.000000 1.000000
vn 0.000000 0.000000 1.000000
vn 0.000000 0.000000 1.000000
vn 0.000000 0.000000 1.000000
vn 0.000000 0.000000 1.000000
vn 0.000000 0.000000 1.000000
vn 0.000000 0.000000 1.000000
vn 0.000000 0.000000 1.000000
vn 0.000000 0.000000 1.000000
vn 0.000000 0.000000 1.000000
vn 0.000000 0.000000 1.000000
vn 0.000000 0.000000 1.000000
vn 0.000000 0.000000 1.000000
vn 0.000000 0.000000 1.000000
vn 0.000000 0.000000 1.000000
vn 0.000000 0.000000 1.000000
vn 0.000000 0.000000 1.000000
vn 0.000000 0.000000 1.000000
vn 0.000000 0.000000 1.000000
vn 0.000000 0.000000 1.000000
vn 0.000000 0.000000 1.000000
vn 0.000000 0.000000 1.000000
vn 0.000000 0.000000 1.000000
vn 0.000000 0.000000 1.000000
vn 0.000000 0.000000 1.000000
vn 0.000000 0.000000 1.000000
vn 0.000000 0.000000 1.000000
vn 0.000000 0.000000 1.000000
vn 0.000000 0.000000 1.000000
vn 0.000000 0.000000 1.000000
vn 0.000000 0.000000 -1.000000
vn 0.000000 0.000000 -1.000000
vn 0.000000 0.000000 -1.000000
vn 0.000000 0.000000 -1.000000
vn 0.000000 0.000000 -1.000000
vn 0.000000 0.000000 -1.000000
vn 0.000000 0.000000 -1.000000
vn 0.000000 0.000000 -1.000000
vn 0.000000 0.000000 -1.000000
vn 0.000000 0.000000 -1.000000
vn 0.000000 0.000000 -1.000000
vn 0.000000 0.000000 -1.000000
vn 0.000000 0.000000 -1.000000
vn 0.000000 0.000000 -1.000000
vn 0.000000 0.000000 -1.000000
vn 0.000000 0.000000 -1.000000
vn 0.000000 0.000000 -1.000000
vn 0.000000 0.000000 -1.000000
vn 0.000000 0.000000 -1.000000
vn 0.000000 0.000000 -1.000000
vn -0.023981 0.723998 -0.689385
vn -0.023981 0.723998 -0.689385
vn -0.023981 0.723998 -0.689385
vn -0.023981 0.723998 -0.689385
vn 0.023981 0.723998 -0.689385
vn 0.023981 0.723998 -0.689385
vn 0.023981 0.723998 -0.689385
vn 0.023981 0.723998 -0.689385
vn 0.000000 0.000000 -1.000000
vn 0.000000 0.000000 -1.000000
vn 0.000000 0.000000 -1.000000
vn 0.000000 0.000000 -1.000000
vn -0.965503 0.001596 -0.260388
vn -0.965503 0.001596 -0.260388
vn -0.965503 0.001596 -0.260388
vn -0.965503 0.001596 -0.260388
vn 0.056845 -0.981554 -0.182540
vn 0.056845 -0.981554 -0.182540
vn 0.056845 -0.981554 -0.182540
vn 0.056845 -0.981554 -0.182540
vn -0.812293 0.419416 -0.405303
vn -0.812293 0.419416 -0.405303
vn -0.812293 0.419416 -0.405303
vn -0.812293 0.419416 -0.405303
vn 0.870750 0.019300 -0.491347
vn 0.870750 0.019300 -0.491347
vn 0.870750 0.019300 -0.491347
vn 0.870750 0.019300 -0.491347
vn -0.457182 0.790569 -0.407413
vn -0.457182 0.790569 -0.407413
vn -0.457182 0.790569 -0.407413
vn -0.457182 0.790569 -0.407413
vn -0.929740 0.004709 -0.368187
vn -0.929740 0.004709 -0.368187
vn -0.929740 0.004709 -0.368187
vn -0.929740 0.004709 -0.368187
vn -0.664751 -0.575702 -0.476103
vn -0.664751 -0.575702 -0.476103
vn -0.664751 -0.575702 -0.476103
vn -0.664751 -0.575702 -0.476103
vn 0.000000 -0.953425 -0.301631
vn 0.000000 -0.953425 -0.301631
vn 0.000000 -0.953425 -0.301631
vn 0.000000 -0.953425 -0.301631
vn -0.056845 -0.981554 -0.182540
vn -0.056845 -0.981554 -0.182540
vn -0.056845 -0.981554 -0.182540
vn -0.056845 -0.981554 -0.182540
vn 0.965503 0.001596 -0.260388
vn 0.965503 0.001596 -0.260388
vn 0.965503 0.001596 -0.260388
vn 0.965503 0.001596 -0.260388
vn -0.013845 0.936985 -0.349095
vn -0.013845 0.936985 -0.349095
vn -0.013845 0.936985 -0.349095
vn -0.013845 0.936985 -0.349095
vn -0.870750 0.019300 -0.491347
vn -0.870750 0.019300 -0.491347
vn -0.870750 0.019300 -0.491347
vn -0.870750 0.019300 -0.491347
vn 0.013845 0.936985 -0.349095
vn 0.013845 0.936985 -0.349095
vn 0.013845 0.936985 -0.349095
vn 0.013845 0.936985 -0.349095
vn -0.005507 -0.996884 -0.078695
vn -0.005507 -0.996884 -0.078695
vn -0.005507 -0.996884 -0.078695
vn -0.005507 -0.996884 -0.078695
vn 0.005507 -0.996884 -0.078695
vn 0.005507 -0.996884 -0.078695
vn 0.005507 -0.996884 -0.078695
vn 0.005507 -0.996884 -0.078695
vn 0.812293 0.419416 -0.405303
vn 0.812293 0.419416 -0.405303
vn 0.812293 0.419416 -0.405303
vn 0.812293 0.419416 -0.405303
vn 0.457182 0.790569 -0.407413
vn 0.457182 0.790569 -0.407413
vn 0.457182 0.790569 -0.407413
vn 0.457182 0.790569 -0.407413
vn 0.929740 0.004709 -0.368187
vn 0.929740 0.004709 -0.368187
vn 0.929740 0.004709 -0.368187
vn 0.929740 0.004709 -0.368187
vn 0.664751 -0.575702 -0.476103
vn 0.664751 -0.575702 -0.476103
vn 0.664751 -0.575702 -0.476103
vn 0.664751 -0.575702 -0.476103
vn 0.000000 0.000000 -1.000000
vn 0.000000 0.000000 -1.000000
vn 0.000000 0.000000 -1.000000
vn 0.000000 0.000000 -1.000000
vn 0.000000 0.000000 -1.000000
vn 0.000000 0.000000 -1.000000
vn 0.000000 0.000000 -1.000000
vn 0.000000 0.000000 -1.000000
vn 0.000000 0.000000 -1.000000
vn 0.000000 0.000000 -1.000000
vn 0.000000 0.000000 -1.000000
vn 0.000000 0.000000 -1.000000
vn 0.000000 0.000000 -1.000000
vn 0.000000 0.000000 -1.000000
vn 0.000000 0.000000 -1.000000
vn 0.000000 0.000000 -1.000000
vn 0.000000 0.000000 -1.000000
vn 0.000000 0.000000 -1.000000
vn 0.000000 0.000000 -1.000000
vn 0.000000 0.000000 -1.000000
vn 0.000000 0.000000 -1.000000
vn 0.000000 0.000000 -1.000000
vn 0.000000 0.000000 -1.000000
vn 0.000000 0.000000 -1.000000
vn 0.000000 0.000000 -1.000000
vn 0.000000 0.000000 -1.000000
vn 0.000000 0.000000 -1.000000
vn 0.000000 0.000000 -1.000000
vn 0.000000 0.000000 -1.000000
vn 0.000000 0.000000 -1.000000
vn 0.000000 0.000000 -1.000000
vn 0.000000 0.000000 -1.000000
vn 0.000000 0.000000 -1.000000
vn 0.000000 0.000000 -1.000000
vn 0.000000 0.000000 -1.000000
vn 0.000000 0.000000 -1.000000
vn 0.000000 0.000000 -1.000000
vn 0.000000 0.000000 -1.000000
vn 0.000000 0.000000 -1.000000
vn 0.000000 0.000000 -1.000000
vn 0.000000 0.000000 -1.000000
vn 0.000000 0.000000 -1.000000
vn 0.000000 0.000000 -1.000000
vn 0.000000 0.000000 -1.000000
vn 0.000000 0.000000 -1.000000
vn 0.000000 0.000000 -1.000000
vn 0.000000 0.000000 -1.000000
vn 0.000000 0.000000 -1.000000
vn 0.000000 0.000000 -1.000000
vn 0.000000 0.000000 -1.000000
vn 0.000000 0.000000 -1.000000
vn 0.000000 0.000000 -1.000000
vn 0.000000 0.000000 -1.000000
vn 0.000000 0.000000 -1.000000
vn 0.000000 0.000000 -1.000000
vn 0.000000 0.000000 -1.000000
vn 0.000000 0.000000 -1.000000
vn 0.000000 0.000000 -1.000000
vn 0.000000 0.000000 -1.000000
vn 0.000000 0.000000 -1.000000
vn 0.000000 0.000000 -1.000000
vn 0.000000 0.000000 -1.000000
vn 0.000000 0.000000 -1.000000
vn 0.000000 0.000000 -1.000000
vn 0.000000 0.000000 -1.000000
vn 0.000000 0.000000 -1.000000
vn 0.000000 0.000000 -1.000000
vn 0.000000 0.000000 -1.000000
vn 0.000000 0.000000 -1.000000
vn 0.000000 0.000000 -1.000000
vn 0.000000 0.000000 -1.000000
vn 0.000000 0.000000 -1.000000
vn 0.000000 0.000000 -1.000000
vn 0.000000 0.000000 -1.000000
vn 0.000000 0.000000 -1.000000
vn 0.000000 0.000000 -1.000000
vn 0.000000 0.000000 -1.000000
vn 0.000000 0.000000 -1.000000
vn 0.000000 0.000000 -1.000000
vn 0.000000 0.000000 -1.000000
vn 0.000000 0.000000 -1.000000
vn 0.000000 0.000000 -1.000000
vn 0.000000 0.000000 -1.000000
s off
f 31/1/1 30/2/2 28/3/3 29/4/4
f 21/20/5 20/21/6 30/2/7 31/1/8
f 33/5/9 32/6/10 34/7/11 35/8/12
f 36/9/13 33/5/14 35/8/15 37/10/16
f 23/11/17 19/12/18 18/13/19 24/14/20
f 24/14/21 25/15/22 32/6/23 33/5/24
f 23/11/25 24/14/26 33/5/27 36/9/28
f 18/13/29 22/22/30 25/15/31 24/14/32
f 3/23/33 8/24/34 20/21/35 21/20/36
f 8/24/37 17/25/38 22/35/39 20/21/40
f 6/27/41 12/28/42 34/7/43 32/6/44
f 11/29/45 16/30/46 19/12/47 23/11/48
f 25/15/49 10/31/50 6/27/51 32/6/52
f 14/32/53 38/16/54 34/7/55 12/28/56
f 14/32/57 2/33/58 26/18/59 38/16/60
f 26/18/61 2/33/62 4/34/63 27/19/64
f 16/36/65 9/45/66 28/3/67 19/46/68
f 9/45/69 5/47/70 29/4/71 28/3/72
f 31/1/73 29/4/74 5/47/75 1/48/76
f 17/26/77 10/31/78 25/15/79 22/22/80
f 21/20/81 31/1/82 1/48/83 3/23/84
f 30/2/85 18/49/86 19/46/87 28/3/88
f 20/21/89 22/35/90 18/49/91 30/2/92
f 7/37/93 36/9/94 37/10/95 13/38/96
f 23/11/97 36/9/98 7/37/99 11/29/100
f 39/17/101 15/39/102 13/38/103 37/10/104
f 15/39/105 39/17/106 27/19/107 4/34/108
f 35/8/109 34/7/110 40/41/111 41/40/112
f 38/16/113 42/42/114 40/41/115 34/7/116
f 26/18/117 42/42/118 38/16/119
f 37/10/120 35/8/121 41/40/122 43/43/123
f 44/44/124 39/17/125 37/10/126 43/43/127
f 39/17/128 44/44/129 27/19/130
f 42/42/131 26/18/132 27/19/133 44/44/134
f 40/54/135 42/50/136 50/59/137 49/58/138
f 52/61/139 42/50/140 44/51/141 51/62/142
f 54/64/143 44/51/144 43/52/145 53/65/146
f 41/53/147 40/54/148 56/56/149
f 43/52/150 41/53/151 55/55/152
f 45/67/153 48/68/154 55/69/155 56/70/156
f 46/71/157 45/67/158 49/72/159 50/73/160
f 47/74/161 46/71/162 52/75/163 51/76/164
f 48/68/165 47/74/166 54/77/167 53/78/168
f 46/60/169 50/59/170 42/50/171 52/61/172
f 54/64/173 47/63/174 51/62/175 44/51/176
f 45/57/177 56/56/178 40/54/179 49/58/180
f 43/52/181 55/55/182 48/66/183 53/65/184
f 45/67/185 46/71/186 47/74/187 48/68/188
f 55/55/189 41/53/190 56/56/191
f 70/79/192 68/82/193 67/81/194 69/80/195
f 60/83/196 70/79/197 69/80/198 59/84/199
f 72/85/200 74/88/201 73/87/202 71/86/203
f 75/89/204 76/90/205 74/88/206 72/85/207
f 62/91/208 63/94/209 57/93/210 58/92/211
f 63/94/212 72/85/213 71/86/214 64/95/215
f 62/91/216 75/89/217 72/85/218 63/94/219
f 57/93/220 63/94/221 64/95/222 61/96/223
f 3/97/224 60/83/225 59/84/226 8/98/227
f 8/98/228 59/84/229 61/100/230 17/99/231
f 6/101/232 71/86/233 73/87/234 12/102/235
f 11/103/236 62/91/237 58/92/238 16/104/239
f 64/95/240 71/86/241 6/101/242 10/105/243
f 14/106/244 12/102/245 73/87/246 77/107/247
f 14/106/248 77/107/249 65/109/250 2/108/251
f 65/109/252 66/111/253 4/110/254 2/108/255
f 16/112/256 58/114/257 67/81/258 9/113/259
f 9/113/260 67/81/261 68/82/262 5/115/263
f 70/79/264 1/116/265 5/115/266 68/82/267
f 17/117/268 61/96/269 64/95/270 10/105/271
f 60/83/272 3/97/273 1/116/274 70/79/275
f 69/80/276 67/81/277 58/114/278 57/118/279
f 59/84/280 69/80/281 57/118/282 61/100/283
f 7/119/284 13/120/285 76/90/286 75/89/287
f 62/91/288 11/103/289 7/119/290 75/89/291
f 78/121/292 76/90/293 13/120/294 15/122/295
f 15/122/296 4/110/297 66/111/298 78/121/299
f 74/88/300 80/124/301 79/123/302 73/87/303
f 77/107/304 73/87/305 79/123/306 81/125/307
f 65/109/308 77/107/309 81/125/310
f 76/90/311 82/126/312 80/124/313 74/88/314
f 83/127/315 82/126/316 76/90/317 78/121/318
f 78/121/319 66/111/320 83/127/321
f 81/125/322 83/127/323 66/111/324 65/109/325
f 79/128/326 88/131/327 89/130/328 81/129/329
f 91/132/330 90/134/331 83/133/332 81/129/333
f 93/135/334 92/137/335 82/136/336 83/133/337
f 80/138/338 95/139/339 79/128/340
f 82/136/341 94/140/342 80/138/343
f 84/141/344 95/144/345 94/143/346 87/142/347
f 85/145/348 89/147/349 88/146/350 84/141/351
f 86/148/352 90/150/353 91/149/354 85/145/355
f 87/142/356 92/152/357 93/151/358 86/148/359
f 85/153/360 91/132/361 81/129/362 89/130/363
f 93/135/364 83/133/365 90/134/366 86/154/367
f 84/155/368 88/131/369 79/128/370 95/139/371
f 82/136/372 92/137/373 87/156/374 94/140/375
f 84/141/376 87/142/377 86/148/378 85/145/379
f 94/140/380 95/139/381 80/138/382
