# This file uses centimeters as units for non-parametric coordinates.

v -4.822525 17.466705 4.000000
v -11.739288 17.836433 4.000000
v -3.172623 -0.006538 4.000000
v -12.345764 -18.256592 4.000000
v -4.825058 -17.874725 4.000000
v -0.027023 -7.348701 4.000000
v 4.735748 -17.832840 4.000000
v 11.074387 -16.000839 4.000000
v 3.759079 0.000275 4.000000
v 12.366547 18.211014 4.000000
v 4.507324 16.884216 4.000000
v -0.025528 7.292984 4.000000
v -13.221146 18.787720 -0.000000
v -4.020477 18.787720 -0.000000
v -4.435059 0.000267 0.000000
v -13.551712 -19.011063 0.000000
v -4.020477 -19.011063 0.000000
v -0.026367 -9.418007 0.000000
v 4.020477 -19.011063 -0.000000
v 8.587051 -19.011063 -0.000000
v 12.917587 -17.638931 -0.000000
v 4.765610 0.000267 -0.000000
v 13.551712 19.011063 -0.000000
v 8.985138 19.011063 -0.000000
v 3.815750 18.434540 0.000000
v -0.026367 9.364738 0.000000
v -4.822525 17.466705 -4.000000
v -11.739288 17.836433 -4.000000
v -3.172623 -0.006538 -4.000000
v -12.345764 -18.256592 -4.000000
v -4.825058 -17.874725 -4.000000
v -0.027023 -7.348701 -4.000000
v 4.735748 -17.832840 -4.000000
v 11.074387 -16.000839 -4.000000
v 3.759079 0.000275 -4.000000
v 12.366547 18.211014 -4.000000
v 4.507324 16.884216 -4.000000
v -0.025528 7.292984 -4.000000
vt 0.013973 0.950488
vt 0.013972 0.950488
vt 0.013965 0.951467
vt 0.013965 0.951467
vt 0.013965 0.951467
vt 0.013721 0.951459
vt 0.013518 0.951452
vt 0.013518 0.951452
vt 0.013620 0.951170
vt 0.013515 0.950482
vt 0.013620 0.950779
vt 0.013742 0.950977
vt 0.013979 0.950482
vt 0.013979 0.950482
vt 0.013972 0.951451
vt 0.013972 0.951451
vt 0.013972 0.951451
vt 0.013731 0.951443
vt 0.013529 0.951437
vt 0.013529 0.951437
vt 0.013529 0.951437
vt 0.013630 0.951157
vt 0.013527 0.950476
vt 0.013576 0.950615
vt 0.013630 0.950770
vt 0.013751 0.950966
vt 0.013518 0.951452
vt 0.013529 0.951437
vt 0.013529 0.951437
vt 0.013518 0.951452
vt 0.013515 0.950482
vt 0.013576 0.950615
vt 0.013630 0.950770
vt 0.013620 0.950779
vt 0.013972 0.950488
vt 0.013973 0.950488
vt 0.013965 0.951467
vt 0.013742 0.950977
vt 0.013965 0.951467
vt 0.013965 0.951467
vt 0.013721 0.951459
vt 0.013620 0.951170
vt 0.013979 0.950482
vt 0.013979 0.950482
vt 0.013972 0.951451
vt 0.013972 0.951451
vt 0.013972 0.951451
vt 0.013731 0.951443
vt 0.013529 0.951437
vt 0.013630 0.951157
vt 0.013527 0.950476
vt 0.013751 0.950966
vn 0.252883 -0.842054 0.476441
vn 0.252883 -0.842054 0.476441
vn 0.252883 -0.842054 0.476441
vn 0.252883 -0.842054 0.476441
vn -0.135821 0.929723 0.342299
vn -0.135821 0.929723 0.342299
vn -0.135821 0.929723 0.342299
vn -0.135821 0.929723 0.342299
vn 0.000000 0.000000 1.000000
vn 0.000000 0.000000 1.000000
vn 0.000000 0.000000 1.000000
vn 0.000000 0.000000 1.000000
vn 0.000000 0.000000 1.000000
vn 0.000000 0.000000 1.000000
vn 0.000000 0.000000 1.000000
vn 0.000000 0.000000 1.000000
vn 0.000000 0.000000 1.000000
vn 0.000000 0.000000 1.000000
vn 0.000000 0.000000 1.000000
vn 0.000000 0.000000 1.000000
vn 0.000000 0.000000 1.000000
vn 0.000000 0.000000 1.000000
vn 0.000000 0.000000 1.000000
vn 0.000000 0.000000 1.000000
vn 0.000000 0.000000 1.000000
vn 0.000000 0.000000 1.000000
vn 0.000000 0.000000 1.000000
vn 0.000000 0.000000 1.000000
vn 0.022073 0.962206 0.271427
vn 0.022073 0.962206 0.271427
vn 0.022073 0.962206 0.271427
vn 0.022073 0.962206 0.271427
vn -0.874912 -0.414468 0.250490
vn -0.874912 -0.414468 0.250490
vn -0.874912 -0.414468 0.250490
vn -0.874912 -0.414468 0.250490
vn -0.873727 0.428870 0.229505
vn -0.873727 0.428870 0.229505
vn -0.873727 0.428870 0.229505
vn -0.873727 0.428870 0.229505
vn 0.021794 -0.973201 0.228923
vn 0.021794 -0.973201 0.228923
vn 0.021794 -0.973201 0.228923
vn 0.021794 -0.973201 0.228923
vn 0.888399 -0.388235 0.244989
vn 0.888399 -0.388235 0.244989
vn 0.888399 -0.388235 0.244989
vn 0.888399 -0.388235 0.244989
vn -0.889438 -0.390274 0.237879
vn -0.889438 -0.390274 0.237879
vn -0.889438 -0.390274 0.237879
vn -0.889438 -0.390274 0.237879
vn 0.883855 0.406383 0.231632
vn 0.883855 0.406383 0.231632
vn 0.883855 0.406383 0.231632
vn 0.883855 0.406383 0.231632
vn 0.887356 -0.414660 0.201634
vn 0.887356 -0.414660 0.201634
vn 0.887356 -0.414660 0.201634
vn 0.887356 -0.414660 0.201634
vn -0.882035 0.395853 0.255568
vn -0.882035 0.395853 0.255568
vn -0.882035 0.395853 0.255568
vn -0.882035 0.395853 0.255568
vn 0.881965 0.395651 0.256123
vn 0.881965 0.395651 0.256123
vn 0.881965 0.395651 0.256123
vn 0.881965 0.395651 0.256123
vn 0.000000 -0.959252 0.282554
vn 0.000000 -0.959252 0.282554
vn 0.000000 -0.959252 0.282554
vn 0.000000 0.980578 0.196128
vn 0.000000 0.980578 0.196128
vn 0.000000 0.980578 0.196128
vn 0.252883 -0.842053 -0.476441
vn 0.252883 -0.842053 -0.476441
vn 0.252883 -0.842053 -0.476441
vn 0.252883 -0.842053 -0.476441
vn -0.135821 0.929723 -0.342299
vn -0.135821 0.929723 -0.342299
vn -0.135821 0.929723 -0.342299
vn -0.135821 0.929723 -0.342299
vn 0.000000 0.000000 -1.000000
vn 0.000000 0.000000 -1.000000
vn 0.000000 0.000000 -1.000000
vn 0.000000 0.000000 -1.000000
vn 0.000000 0.000000 -1.000000
vn 0.000000 0.000000 -1.000000
vn 0.000000 0.000000 -1.000000
vn 0.000000 0.000000 -1.000000
vn 0.000000 0.000000 -1.000000
vn 0.000000 0.000000 -1.000000
vn 0.000000 0.000000 -1.000000
vn 0.000000 0.000000 -1.000000
vn 0.000000 0.000000 -1.000000
vn 0.000000 0.000000 -1.000000
vn 0.000000 0.000000 -1.000000
vn 0.000000 0.000000 -1.000000
vn 0.000000 0.000000 -1.000000
vn 0.000000 0.000000 -1.000000
vn 0.000000 0.000000 -1.000000
vn 0.000000 0.000000 -1.000000
vn 0.022073 0.962206 -0.271427
vn 0.022073 0.962206 -0.271427
vn 0.022073 0.962206 -0.271427
vn 0.022073 0.962206 -0.271427
vn -0.874912 -0.414468 -0.250490
vn -0.874912 -0.414468 -0.250490
vn -0.874912 -0.414468 -0.250490
vn -0.874912 -0.414468 -0.250490
vn -0.873727 0.428870 -0.229505
vn -0.873727 0.428870 -0.229505
vn -0.873727 0.428870 -0.229505
vn -0.873727 0.428870 -0.229505
vn 0.021794 -0.973200 -0.228923
vn 0.021794 -0.973200 -0.228923
vn 0.021794 -0.973200 -0.228923
vn 0.021794 -0.973200 -0.228923
vn 0.888399 -0.388235 -0.244990
vn 0.888399 -0.388235 -0.244990
vn 0.888399 -0.388235 -0.244990
vn 0.888399 -0.388235 -0.244990
vn -0.889438 -0.390274 -0.237879
vn -0.889438 -0.390274 -0.237879
vn -0.889438 -0.390274 -0.237879
vn -0.889438 -0.390274 -0.237879
vn 0.883855 0.406383 -0.231632
vn 0.883855 0.406383 -0.231632
vn 0.883855 0.406383 -0.231632
vn 0.883855 0.406383 -0.231632
vn 0.887356 -0.414660 -0.201634
vn 0.887356 -0.414660 -0.201634
vn 0.887356 -0.414660 -0.201634
vn 0.887356 -0.414660 -0.201634
vn -0.882035 0.395853 -0.255568
vn -0.882035 0.395853 -0.255568
vn -0.882035 0.395853 -0.255568
vn -0.882035 0.395853 -0.255568
vn 0.881965 0.395650 -0.256123
vn 0.881965 0.395650 -0.256123
vn 0.881965 0.395650 -0.256123
vn 0.881965 0.395650 -0.256123
vn 0.000000 -0.959252 -0.282553
vn 0.000000 -0.959252 -0.282553
vn 0.000000 -0.959252 -0.282553
vn 0.000000 0.980578 -0.196128
vn 0.000000 0.980578 -0.196128
vn 0.000000 0.980578 -0.196128
s off
f 7/7/1 20/20/2 21/21/3 8/8/4
f 10/10/5 24/24/6 25/25/7 11/11/8
f 1/2/9 2/1/10 3/3/11 12/12/12
f 3/3/13 4/4/14 5/5/15 6/6/16
f 7/7/17 8/8/18 9/9/19 6/6/20
f 3/3/21 6/6/22 9/9/23 12/12/24
f 12/12/25 9/9/26 10/10/27 11/11/28
f 14/14/29 13/13/30 2/1/31 1/2/32
f 13/13/33 15/15/34 3/3/35 2/1/36
f 15/15/37 16/16/38 4/4/39 3/3/40
f 16/16/41 17/17/42 5/5/43 4/4/44
f 17/17/45 18/18/46 6/6/47 5/5/48
f 18/18/49 19/19/50 7/7/51 6/6/52
f 21/21/53 22/22/54 9/9/55 8/8/56
f 22/22/57 23/23/58 10/10/59 9/9/60
f 25/25/61 26/26/62 12/12/63 11/11/64
f 26/26/65 14/14/66 1/2/67 12/12/68
f 19/19/69 20/20/70 7/7/71
f 23/23/72 24/24/73 10/10/74
f 33/27/75 34/30/76 21/29/77 20/28/78
f 36/31/79 37/34/80 25/33/81 24/32/82
f 27/35/83 38/38/84 29/37/85 28/36/86
f 29/37/87 32/41/88 31/40/89 30/39/90
f 33/27/91 32/41/92 35/42/93 34/30/94
f 29/37/95 38/38/96 35/42/97 32/41/98
f 38/38/99 37/34/100 36/31/101 35/42/102
f 14/43/103 27/35/104 28/36/105 13/44/106
f 13/44/107 28/36/108 29/37/109 15/45/110
f 15/45/111 29/37/112 30/39/113 16/46/114
f 16/46/115 30/39/116 31/40/117 17/47/118
f 17/47/119 31/40/120 32/41/121 18/48/122
f 18/48/123 32/41/124 33/27/125 19/49/126
f 21/29/127 34/30/128 35/42/129 22/50/130
f 22/50/131 35/42/132 36/31/133 23/51/134
f 25/33/135 37/34/136 38/38/137 26/52/138
f 26/52/139 38/38/140 27/35/141 14/43/142
f 19/49/143 33/27/144 20/28/145
f 23/51/146 36/31/147 24/32/148
