# This file uses centimeters as units for non-parametric coordinates.

v -5.926848 7.193092 -0.000000
v -19.195896 6.237111 0.000000
v -9.589849 -4.080430 0.000000
v -11.863703 -16.328974 0.000000
v 0.000000 -11.047855 -0.000000
v 11.863707 -16.328974 0.000000
v 9.589849 -4.080430 -0.000000
v 19.195896 6.237114 -0.000000
v 5.926847 7.193091 0.000000
v 0.000000 20.183737 0.000000
v -4.499212 5.860632 4.000000
v -15.793411 5.095002 4.000000
v -7.733922 -2.605205 4.000000
v -10.007775 -13.033656 4.000000
v 0.000000 -9.098539 4.000000
v 10.388482 -14.187519 4.000000
v 7.829098 -2.795557 4.000000
v 15.571618 5.072632 4.000000
v 4.546799 6.193746 4.000000
v 0.000000 16.509058 4.000000
v -2.903626 4.322611 4.000000
v -12.452025 3.948612 4.000000
v -4.985089 -1.124966 4.000000
v -8.339081 -10.512045 4.000000
v -0.008483 -5.852125 4.000000
v 8.394104 -11.795568 4.000000
v 5.029366 -1.247452 4.000000
v 12.500175 4.340530 4.001353
v 2.917280 4.536963 4.000000
v -0.008483 13.139739 4.000000
v -2.322487 3.900273 2.000000
v -9.474150 3.261274 2.000000
v -4.287506 -1.028737 2.000000
v -5.858124 -7.866332 2.000000
v 0.020384 -5.392573 2.000000
v 6.293280 -8.668056 2.000000
v 4.543980 -1.089557 2.000000
v 9.759939 3.434749 2.000000
v 2.669553 3.994198 2.000000
v 0.020384 10.363895 2.000000
v -4.499212 5.860632 -4.000000
v -16.150272 5.095002 -4.000000
v -7.733922 -2.605205 -4.000000
v -10.007775 -13.330937 -4.000000
v 0.000000 -9.572631 -4.000000
v 10.388482 -14.187519 -4.000000
v 7.829098 -2.795557 -4.000000
v 16.102684 5.428121 -4.000000
v 4.546799 6.193746 -4.000000
v 0.000000 17.280876 -4.000000
v -2.903626 4.322611 -4.000000
v -11.740261 3.829945 -4.000000
v -4.985089 -1.124966 -4.000000
v -7.272184 -9.919716 -4.000000
v -0.008483 -5.852125 -4.000000
v 7.742517 -10.910345 -4.000000
v 5.029366 -1.247452 -4.000000
v 12.026051 4.044300 -4.000000
v 2.917280 4.536963 -4.000000
v -0.008483 12.606185 -4.000000
v -2.322487 3.900273 -2.000000
v -9.474150 3.261274 -2.000000
v -4.287506 -1.028737 -2.000000
v -5.858124 -7.866332 -2.000000
v 0.020384 -5.392573 -2.000000
v 6.293280 -8.668056 -2.000000
v 4.543980 -1.089557 -2.000000
v 9.759939 3.434749 -2.000000
v 2.669553 3.994198 -2.000000
v 0.020384 10.363895 -2.000000
vt 0.105364 0.955824
vt 0.097284 0.955212
vt 0.099355 0.954481
vt 0.106233 0.954971
vt 0.103133 0.948606
vt 0.104263 0.949550
vt 0.101748 0.940763
vt 0.102879 0.942873
vt 0.108973 0.944145
vt 0.108973 0.945393
vt 0.116197 0.940763
vt 0.115299 0.942134
vt 0.114813 0.948606
vt 0.113740 0.949429
vt 0.120662 0.955212
vt 0.118455 0.954467
vt 0.112582 0.955824
vt 0.111742 0.955184
vt 0.108973 0.964142
vt 0.108973 0.961789
vt 0.101390 0.953747
vt 0.107205 0.953986
vt 0.105937 0.950498
vt 0.103895 0.944488
vt 0.108968 0.947471
vt 0.114084 0.943666
vt 0.112035 0.950420
vt 0.116585 0.953998
vt 0.110749 0.954123
vt 0.108968 0.959632
vt 0.103204 0.953307
vt 0.107559 0.953716
vt 0.106362 0.950560
vt 0.105406 0.946182
vt 0.108985 0.947766
vt 0.112805 0.945669
vt 0.111740 0.950521
vt 0.114916 0.953418
vt 0.110598 0.953776
vt 0.108985 0.957854
vt 0.106233 0.954971
vt 0.099138 0.954481
vt 0.104263 0.949550
vt 0.102879 0.942683
vt 0.108973 0.945089
vt 0.115299 0.942134
vt 0.113740 0.949429
vt 0.118779 0.954694
vt 0.111742 0.955184
vt 0.108973 0.962283
vt 0.107205 0.953986
vt 0.101824 0.953671
vt 0.105937 0.950498
vt 0.104544 0.944867
vt 0.108968 0.947471
vt 0.113688 0.944233
vt 0.112035 0.950420
vt 0.116296 0.953808
vt 0.110749 0.954123
vt 0.108968 0.959290
vt 0.107559 0.953716
vt 0.103204 0.953307
vt 0.106362 0.950560
vt 0.105406 0.946182
vt 0.108985 0.947766
vt 0.169870 0.986348
vt 0.112805 0.945669
vt 0.111740 0.950521
vt 0.114916 0.953418
vt 0.174870 0.986443
vt 0.110598 0.953776
vt 0.108985 0.957854
vt 0.172217 0.992890
vt 0.176747 0.981298
vt 0.181971 0.985877
vt 0.172217 0.976943
vt 0.178499 0.973627
vt 0.167902 0.981359
vt 0.166329 0.974439
vt 0.162708 0.985701
vt 0.169870 0.986348
vt 0.172217 0.992890
vt 0.174870 0.986443
vt 0.181971 0.985877
vt 0.176747 0.981298
vt 0.178499 0.973627
vt 0.172217 0.976943
vt 0.166329 0.974439
vt 0.167902 0.981359
vt 0.162708 0.985701
vn -0.065976 0.941320 0.331004
vn -0.065976 0.941320 0.331004
vn -0.065976 0.941320 0.331004
vn -0.065976 0.941320 0.331004
vn -0.639050 -0.626558 0.446138
vn -0.639050 -0.626558 0.446138
vn -0.639050 -0.626558 0.446138
vn -0.639050 -0.626558 0.446138
vn -0.928947 0.186294 0.319924
vn -0.928947 0.186294 0.319925
vn -0.928947 0.186294 0.319924
vn -0.928947 0.186294 0.319924
vn 0.345357 -0.819582 0.457181
vn 0.345357 -0.819582 0.457181
vn 0.345357 -0.819582 0.457181
vn 0.345357 -0.819582 0.457181
vn -0.394124 -0.845712 0.359774
vn -0.394124 -0.845712 0.359774
vn -0.394124 -0.845712 0.359774
vn -0.394124 -0.845712 0.359774
vn 0.935665 0.191294 0.296544
vn 0.935665 0.191294 0.296544
vn 0.935665 0.191294 0.296544
vn 0.935665 0.191294 0.296544
vn 0.647838 -0.618016 0.445379
vn 0.647838 -0.618016 0.445379
vn 0.647838 -0.618016 0.445379
vn 0.647838 -0.618016 0.445379
vn 0.076826 0.996910 0.016389
vn 0.077080 0.996678 0.026300
vn 0.081069 0.948193 0.307178
vn 0.081069 0.948193 0.307178
vn 0.847810 0.381004 0.368855
vn 0.847810 0.381004 0.368855
vn 0.847810 0.381004 0.368855
vn 0.847810 0.381004 0.368855
vn -0.844822 0.372610 0.383976
vn -0.844822 0.372610 0.383976
vn -0.844822 0.372610 0.383976
vn -0.844822 0.372610 0.383976
vn 0.000000 0.000000 1.000000
vn 0.000000 0.000000 1.000000
vn 0.000000 0.000000 1.000000
vn 0.000000 0.000000 1.000000
vn 0.000000 0.000000 1.000000
vn 0.000000 0.000000 1.000000
vn 0.000000 0.000000 1.000000
vn 0.000000 0.000000 1.000000
vn -0.000000 0.000000 1.000000
vn -0.000000 0.000000 1.000000
vn -0.000000 0.000000 1.000000
vn -0.000000 0.000000 1.000000
vn 0.000000 0.000000 1.000000
vn 0.000000 0.000000 1.000000
vn 0.000000 0.000000 1.000000
vn 0.000000 0.000000 1.000000
vn 0.000000 0.000000 1.000000
vn 0.000000 0.000000 1.000000
vn 0.000000 0.000000 1.000000
vn 0.000000 0.000000 1.000000
vn 0.000000 0.000000 1.000000
vn 0.000000 0.000000 1.000000
vn 0.000000 0.000000 1.000000
vn 0.000000 0.000000 1.000000
vn 0.000187 -0.000312 1.000000
vn 0.000187 -0.000312 1.000000
vn 0.000187 -0.000312 1.000000
vn 0.000187 -0.000312 1.000000
vn -0.000026 0.000618 1.000000
vn -0.000026 0.000618 1.000000
vn -0.000026 0.000618 1.000000
vn -0.000026 0.000618 1.000000
vn 0.000000 0.000000 1.000000
vn 0.000000 0.000000 1.000000
vn 0.000000 0.000000 1.000000
vn 0.000000 0.000000 1.000000
vn 0.000000 0.000000 1.000000
vn 0.000000 0.000000 1.000000
vn 0.000000 0.000000 1.000000
vn 0.000000 0.000000 1.000000
vn 0.057484 -0.947666 0.314047
vn 0.057484 -0.947666 0.314047
vn 0.057484 -0.947666 0.314047
vn 0.057484 -0.947666 0.314047
vn 0.546900 0.739058 0.393311
vn 0.546900 0.739058 0.393311
vn 0.546900 0.739058 0.393311
vn 0.546900 0.739058 0.393311
vn 0.834436 -0.253273 0.489457
vn 0.834436 -0.253273 0.489457
vn 0.834437 -0.253273 0.489457
vn 0.834437 -0.253273 0.489457
vn -0.414810 0.826234 0.381143
vn -0.414810 0.826234 0.381143
vn -0.414810 0.826234 0.381143
vn -0.414810 0.826234 0.381143
vn 0.478836 0.762253 0.435531
vn 0.478836 0.762253 0.435531
vn 0.478836 0.762253 0.435531
vn 0.478836 0.762253 0.435531
vn -0.893828 -0.252174 0.370783
vn -0.893828 -0.252174 0.370783
vn -0.893828 -0.252174 0.370783
vn -0.893828 -0.252174 0.370783
vn -0.587160 0.736600 0.335653
vn -0.587160 0.736600 0.335653
vn -0.587160 0.736600 0.335653
vn -0.587161 0.736600 0.335653
vn -0.042144 -0.928962 0.367768
vn -0.042144 -0.928962 0.367768
vn -0.042144 -0.928962 0.367768
vn -0.042144 -0.928962 0.367768
vn -0.887053 -0.330290 0.322561
vn -0.887053 -0.330290 0.322561
vn -0.887053 -0.330290 0.322561
vn -0.887053 -0.330290 0.322561
vn 0.877238 -0.300704 0.374207
vn 0.877238 -0.300704 0.374207
vn 0.877238 -0.300704 0.374207
vn 0.877238 -0.300704 0.374207
vn 0.000000 0.000000 1.000000
vn 0.000000 0.000000 1.000000
vn 0.000000 0.000000 1.000000
vn 0.000000 0.000000 1.000000
vn -0.000000 0.000000 1.000000
vn -0.000000 0.000000 1.000000
vn -0.000000 0.000000 1.000000
vn 0.000000 0.000000 1.000000
vn 0.000000 0.000000 1.000000
vn 0.000000 0.000000 1.000000
vn 0.000000 0.000000 1.000000
vn 0.000000 0.000000 1.000000
vn 0.000000 0.000000 1.000000
vn 0.000000 0.000000 1.000000
vn 0.000000 0.000000 1.000000
vn 0.000000 0.000000 1.000000
vn 0.000000 0.000000 1.000000
vn -0.000000 0.000000 1.000000
vn 0.000000 0.000000 1.000000
vn -0.000000 0.000000 1.000000
vn 0.000000 0.000000 1.000000
vn 0.000000 0.000000 1.000000
vn -0.065110 0.942456 -0.327928
vn -0.065110 0.942456 -0.327928
vn -0.065110 0.942456 -0.327928
vn -0.065110 0.942456 -0.327928
vn -0.641674 -0.641840 -0.419876
vn -0.641674 -0.641840 -0.419876
vn -0.641674 -0.641840 -0.419876
vn -0.641674 -0.641840 -0.419876
vn -0.926879 0.183474 -0.327464
vn -0.926879 0.183474 -0.327464
vn -0.926879 0.183474 -0.327464
vn -0.926879 0.183474 -0.327464
vn 0.351131 -0.849584 -0.393592
vn 0.351131 -0.849584 -0.393592
vn 0.351131 -0.849584 -0.393592
vn 0.351131 -0.849584 -0.393592
vn -0.384937 -0.865571 -0.320328
vn -0.384937 -0.865571 -0.320328
vn -0.384937 -0.865571 -0.320328
vn -0.384937 -0.865571 -0.320328
vn 0.935665 0.191294 -0.296544
vn 0.935665 0.191294 -0.296544
vn 0.935665 0.191294 -0.296544
vn 0.935665 0.191294 -0.296544
vn 0.649440 -0.626267 -0.431298
vn 0.649440 -0.626267 -0.431298
vn 0.649440 -0.626267 -0.431298
vn 0.649440 -0.626267 -0.431298
vn 0.076826 0.996910 0.016389
vn 0.066889 0.964513 -0.255422
vn 0.066889 0.964513 -0.255422
vn 0.077080 0.996678 0.026300
vn 0.864772 0.376169 -0.332665
vn 0.864772 0.376169 -0.332665
vn 0.864772 0.376169 -0.332665
vn 0.864772 0.376169 -0.332665
vn -0.861909 0.368127 -0.348704
vn -0.861909 0.368127 -0.348704
vn -0.861909 0.368127 -0.348704
vn -0.861909 0.368127 -0.348704
vn 0.000000 0.000000 -1.000000
vn 0.000000 0.000000 -1.000000
vn 0.000000 0.000000 -1.000000
vn 0.000000 0.000000 -1.000000
vn 0.000000 0.000000 -1.000000
vn 0.000000 0.000000 -1.000000
vn 0.000000 0.000000 -1.000000
vn 0.000000 0.000000 -1.000000
vn -0.000000 0.000000 -1.000000
vn -0.000000 0.000000 -1.000000
vn -0.000000 0.000000 -1.000000
vn -0.000000 0.000000 -1.000000
vn 0.000000 0.000000 -1.000000
vn 0.000000 0.000000 -1.000000
vn 0.000000 0.000000 -1.000000
vn 0.000000 0.000000 -1.000000
vn 0.000000 0.000000 -1.000000
vn 0.000000 0.000000 -1.000000
vn 0.000000 0.000000 -1.000000
vn 0.000000 0.000000 -1.000000
vn 0.000000 0.000000 -1.000000
vn 0.000000 0.000000 -1.000000
vn 0.000000 0.000000 -1.000000
vn 0.000000 0.000000 -1.000000
vn 0.000000 0.000000 -1.000000
vn 0.000000 0.000000 -1.000000
vn 0.000000 0.000000 -1.000000
vn 0.000000 0.000000 -1.000000
vn 0.000000 0.000000 -1.000000
vn 0.000000 0.000000 -1.000000
vn 0.000000 0.000000 -1.000000
vn 0.000000 0.000000 -1.000000
vn 0.000000 0.000000 -1.000000
vn 0.000000 0.000000 -1.000000
vn 0.000000 0.000000 -1.000000
vn 0.000000 0.000000 -1.000000
vn 0.000000 0.000000 -1.000000
vn 0.000000 0.000000 -1.000000
vn 0.000000 0.000000 -1.000000
vn 0.000000 0.000000 -1.000000
vn 0.067675 -0.956120 -0.285053
vn 0.067675 -0.956120 -0.285053
vn 0.067675 -0.956120 -0.285053
vn 0.067675 -0.956120 -0.285053
vn 0.575941 0.743953 -0.338860
vn 0.575941 0.743953 -0.338860
vn 0.575941 0.743953 -0.338860
vn 0.575941 0.743953 -0.338860
vn 0.906415 -0.223683 -0.358298
vn 0.906415 -0.223683 -0.358298
vn 0.906415 -0.223683 -0.358298
vn 0.906415 -0.223683 -0.358298
vn -0.413481 0.830724 -0.372733
vn -0.413481 0.830724 -0.372733
vn -0.413481 0.830724 -0.372733
vn -0.413481 0.830724 -0.372733
vn 0.474438 0.798381 -0.370805
vn 0.474438 0.798381 -0.370805
vn 0.474438 0.798381 -0.370805
vn 0.474438 0.798381 -0.370805
vn -0.922609 -0.238791 -0.302939
vn -0.922609 -0.238791 -0.302939
vn -0.922609 -0.238791 -0.302939
vn -0.922609 -0.238791 -0.302939
vn -0.592604 0.737288 -0.324387
vn -0.592604 0.737288 -0.324387
vn -0.592604 0.737288 -0.324387
vn -0.592604 0.737288 -0.324387
vn -0.061580 -0.948137 -0.311839
vn -0.061580 -0.948137 -0.311839
vn -0.061580 -0.948137 -0.311839
vn -0.061580 -0.948137 -0.311839
vn -0.893086 -0.344824 -0.288954
vn -0.893086 -0.344824 -0.288954
vn -0.893086 -0.344824 -0.288954
vn -0.893086 -0.344824 -0.288954
vn 0.884725 -0.314243 -0.344257
vn 0.884725 -0.314243 -0.344257
vn 0.884725 -0.314243 -0.344257
vn 0.884725 -0.314243 -0.344257
vn 0.000000 0.000000 -1.000000
vn 0.000000 0.000000 -1.000000
vn 0.000000 0.000000 -1.000000
vn 0.000000 0.000000 -1.000000
vn -0.000000 0.000000 -1.000000
vn -0.000000 0.000000 -1.000000
vn -0.000000 0.000000 -1.000000
vn 0.000000 0.000000 -1.000000
vn 0.000000 0.000000 -1.000000
vn 0.000000 0.000000 -1.000000
vn 0.000000 0.000000 -1.000000
vn 0.000000 0.000000 -1.000000
vn 0.000000 0.000000 -1.000000
vn 0.000000 0.000000 -1.000000
vn 0.000000 0.000000 -1.000000
vn 0.000000 0.000000 -1.000000
vn 0.000000 0.000000 -1.000000
vn -0.000000 0.000000 -1.000000
vn 0.000000 0.000000 -1.000000
vn -0.000000 0.000000 -1.000000
vn 0.000000 0.000000 -1.000000
vn 0.000000 0.000000 -1.000000
s off
f 1/1/1 2/2/2 12/3/3 11/4/4
f 2/2/5 3/5/6 13/6/7 12/3/8
f 3/5/9 4/7/10 14/8/11 13/6/12
f 4/7/13 5/9/14 15/10/15 14/8/16
f 5/9/17 6/11/18 16/12/19 15/10/20
f 6/11/21 7/13/22 17/14/23 16/12/24
f 7/13/25 8/15/26 18/16/27 17/14/28
f 8/15/29 9/17/30 19/18/31 18/16/32
f 9/17/33 10/19/34 20/20/35 19/18/36
f 10/19/37 1/1/38 11/4/39 20/20/40
f 11/4/41 12/3/42 22/21/43 21/22/44
f 12/3/45 13/6/46 23/23/47 22/21/48
f 13/6/49 14/8/50 24/24/51 23/23/52
f 14/8/53 15/10/54 25/25/55 24/24/56
f 15/10/57 16/12/58 26/26/59 25/25/60
f 16/12/61 17/14/62 27/27/63 26/26/64
f 17/14/65 18/16/66 28/28/67 27/27/68
f 18/16/69 19/18/70 29/29/71 28/28/72
f 19/18/73 20/20/74 30/30/75 29/29/76
f 20/20/77 11/4/78 21/22/79 30/30/80
f 21/22/81 22/21/82 32/31/83 31/32/84
f 22/21/85 23/23/86 33/33/87 32/31/88
f 23/23/89 24/24/90 34/34/91 33/33/92
f 24/24/93 25/25/94 35/35/95 34/34/96
f 25/25/97 26/26/98 36/36/99 35/35/100
f 26/26/101 27/27/102 37/37/103 36/36/104
f 27/27/105 28/28/106 38/38/107 37/37/108
f 28/28/109 29/29/110 39/39/111 38/38/112
f 29/29/113 30/30/114 40/40/115 39/39/116
f 30/30/117 21/22/118 31/32/119 40/40/120
f 31/66/121 39/70/122 40/73/123
f 39/70/124 37/74/125 38/75/126
f 37/74/127 35/76/128 36/77/129
f 35/76/130 33/78/131 34/79/132
f 32/80/133 33/78/134 31/66/135
f 31/66/136 33/78/137 37/74/138 39/70/139
f 37/74/140 33/78/141 35/76/142
f 1/1/143 41/41/144 42/42/145 2/2/146
f 2/2/147 42/42/148 43/43/149 3/5/150
f 3/5/151 43/43/152 44/44/153 4/7/154
f 4/7/155 44/44/156 45/45/157 5/9/158
f 5/9/159 45/45/160 46/46/161 6/11/162
f 6/11/163 46/46/164 47/47/165 7/13/166
f 7/13/167 47/47/168 48/48/169 8/15/170
f 8/15/171 48/48/172 49/49/173 9/17/174
f 9/17/175 49/49/176 50/50/177 10/19/178
f 10/19/179 50/50/180 41/41/181 1/1/182
f 41/41/183 51/51/184 52/52/185 42/42/186
f 42/42/187 52/52/188 53/53/189 43/43/190
f 43/43/191 53/53/192 54/54/193 44/44/194
f 44/44/195 54/54/196 55/55/197 45/45/198
f 45/45/199 55/55/200 56/56/201 46/46/202
f 46/46/203 56/56/204 57/57/205 47/47/206
f 47/47/207 57/57/208 58/58/209 48/48/210
f 48/48/211 58/58/212 59/59/213 49/49/214
f 49/49/215 59/59/216 60/60/217 50/50/218
f 50/50/219 60/60/220 51/51/221 41/41/222
f 51/51/223 61/61/224 62/62/225 52/52/226
f 52/52/227 62/62/228 63/63/229 53/53/230
f 53/53/231 63/63/232 64/64/233 54/54/234
f 54/54/235 64/64/236 65/65/237 55/55/238
f 55/55/239 65/65/240 66/67/241 56/56/242
f 56/56/243 66/67/244 67/68/245 57/57/246
f 57/57/247 67/68/248 68/69/249 58/58/250
f 58/58/251 68/69/252 69/71/253 59/59/254
f 59/59/255 69/71/256 70/72/257 60/60/258
f 60/60/259 70/72/260 61/61/261 51/51/262
f 61/81/263 70/82/264 69/83/265
f 69/83/266 68/84/267 67/85/268
f 67/85/269 66/86/270 65/87/271
f 65/87/272 64/88/273 63/89/274
f 62/90/275 61/81/276 63/89/277
f 61/81/278 69/83/279 67/85/280 63/89/281
f 67/85/282 65/87/283 63/89/284
