# This file uses centimeters as units for non-parametric coordinates.

v 0.000000 18.654543 0.000000
v 6.821844 16.364611 0.000000
v 9.579832 10.686034 0.000000
v 0.000000 13.386457 0.000000
v 0.000000 17.560610 -1.985354
v 3.441774 12.206251 0.000000
v 5.937333 15.436483 -1.985354
v 4.604840 9.363381 0.000000
v 8.491379 10.652400 -1.985355
v 0.000000 14.395887 -1.985355
v 4.045272 12.987414 -1.985355
v 5.826746 9.448087 -1.985355
v 4.604840 6.131201 0.000000
v 5.826746 6.131191 -1.985355
v 8.491379 6.131191 -1.985355
v 9.579832 6.131201 0.000000
v -6.821844 16.364611 0.000000
v -9.579832 10.686035 0.000000
v -3.441773 12.206251 0.000000
v -5.937333 15.436483 -1.985354
v -4.604840 9.363382 0.000000
v -8.491379 10.652400 -1.985355
v -4.045272 12.987415 -1.985355
v -5.826746 9.448087 -1.985355
v -4.604840 1.707001 0.000000
v -5.826746 0.596568 -1.985355
v -8.491379 0.596570 -1.985355
v -9.579832 1.707005 0.000000
v -11.050712 -1.093197 -3.985354
v -8.840791 0.895192 -3.985354
v -13.258017 -0.089323 0.014646
v -11.308474 1.983977 0.014646
v 8.840791 0.895192 -3.985354
v 11.050712 -1.093197 -3.985354
v 13.258017 -0.089323 0.014646
v 11.308474 1.983977 0.014646
v -9.061726 -16.561611 -3.985354
v -11.050712 -14.644645 -3.985354
v -13.258017 -16.574360 0.014646
v -11.503378 -18.654545 0.014646
v 11.050712 -14.644645 -3.985354
v 9.061726 -16.561611 -3.985354
v 11.503378 -18.654545 0.014646
v 13.258017 -16.574360 0.014646
v -13.258017 -12.945014 0.014646
v -11.050712 -12.945013 -3.985355
v 11.050712 -12.945013 -3.985355
v 13.258017 -12.945014 0.014646
v -13.258017 -5.314423 0.014646
v -11.050712 -5.314428 -3.985355
v 11.050712 -5.314428 -3.985355
v 13.258017 -5.314423 0.014646
v 0.000000 17.560610 1.985354
v 5.937333 15.436483 1.985354
v 8.491379 10.652400 1.985355
v 0.000000 14.395887 1.985355
v 4.045272 12.987414 1.985355
v 5.826746 9.448087 1.985355
v 5.826746 6.131191 1.985355
v 8.491379 6.131191 1.985355
v -5.937333 15.436483 1.985354
v -8.491379 10.652400 1.985355
v -4.045272 12.987415 1.985355
v -5.826746 9.448087 1.985355
v -5.826746 0.596568 1.985355
v -8.491379 0.596570 1.985355
v -11.050712 -1.093197 3.985354
v -8.840791 0.895192 3.985354
v -13.258017 -0.089323 -0.014646
v -11.308474 1.983977 -0.014646
v 8.840791 0.895192 3.985354
v 11.050712 -1.093197 3.985354
v 13.258017 -0.089323 -0.014646
v 11.308474 1.983977 -0.014646
v -9.061726 -16.561611 3.985354
v -11.050712 -14.644645 3.985354
v -13.258017 -16.574360 -0.014646
v -11.503378 -18.654545 -0.014646
v 11.050712 -14.644645 3.985354
v 9.061726 -16.561611 3.985354
v 11.503378 -18.654545 -0.014646
v 13.258017 -16.574360 -0.014646
v -13.258017 -12.945014 -0.014646
v -11.050712 -12.945013 3.985355
v 11.050712 -12.945013 3.985355
v 13.258017 -12.945014 -0.014646
v -13.258017 -5.314423 -0.014646
v -11.050712 -5.314428 3.985355
v 11.050712 -5.314428 3.985355
v 13.258017 -5.314423 -0.014646
vt 0.952171 0.983815
vt 0.952202 0.983804
vt 0.952208 0.983811
vt 0.952171 0.983824
vt 0.952210 0.983778
vt 0.952220 0.983779
vt 0.952225 0.983833
vt 0.952233 0.983842
vt 0.952171 0.983862
vt 0.952171 0.983853
vt 0.952249 0.983790
vt 0.952258 0.983790
vt 0.952210 0.983740
vt 0.952220 0.983739
vt 0.952249 0.983739
vt 0.952258 0.983740
vt 0.952171 0.983815
vt 0.952171 0.983824
vt 0.952134 0.983811
vt 0.952140 0.983804
vt 0.952122 0.983779
vt 0.952133 0.983779
vt 0.952117 0.983833
vt 0.952171 0.983853
vt 0.952171 0.983862
vt 0.952110 0.983842
vt 0.952094 0.983790
vt 0.952085 0.983791
vt 0.952122 0.983739
vt 0.952133 0.983740
vt 0.952085 0.983740
vt 0.952094 0.983739
vt 0.140337 0.953532
vt 0.140378 0.953516
vt 0.140718 0.953517
vt 0.140764 0.953532
vt 0.140373 0.953180
vt 0.140333 0.953142
vt 0.140768 0.953142
vt 0.140723 0.953180
vt 0.143075 0.983008
vt 0.143123 0.983006
vt 0.140801 0.953493
vt 0.140761 0.953478
vt 0.140300 0.953394
vt 0.142571 0.983008
vt 0.140335 0.953478
vt 0.140300 0.953493
vt 0.140335 0.953217
vt 0.140300 0.953182
vt 0.140761 0.953217
vt 0.140801 0.953182
vt 0.140335 0.953281
vt 0.142530 0.982871
vt 0.140761 0.953281
vt 0.140801 0.953281
vt 0.140761 0.953397
vt 0.140801 0.953395
vt 0.140335 0.953397
vt 0.142530 0.983006
vt 0.143123 0.982871
vt 0.140300 0.953281
vt 0.143075 0.982871
vt 0.142571 0.982871
vt 0.952171 0.983815
vt 0.952202 0.983804
vt 0.952208 0.983811
vt 0.952171 0.983824
vt 0.952210 0.983778
vt 0.952220 0.983779
vt 0.952225 0.983833
vt 0.952233 0.983842
vt 0.952171 0.983862
vt 0.952171 0.983853
vt 0.952249 0.983790
vt 0.952258 0.983790
vt 0.952210 0.983740
vt 0.952220 0.983739
vt 0.952249 0.983739
vt 0.952258 0.983740
vt 0.952171 0.983815
vt 0.952171 0.983824
vt 0.952134 0.983811
vt 0.952140 0.983804
vt 0.952122 0.983779
vt 0.952133 0.983779
vt 0.952117 0.983833
vt 0.952171 0.983853
vt 0.952171 0.983862
vt 0.952110 0.983842
vt 0.952094 0.983790
vt 0.952085 0.983791
vt 0.952122 0.983739
vt 0.952133 0.983740
vt 0.952085 0.983740
vt 0.952094 0.983739
vt 0.140337 0.953532
vt 0.140378 0.953516
vt 0.140718 0.953517
vt 0.140764 0.953532
vt 0.140373 0.953180
vt 0.140333 0.953142
vt 0.140768 0.953142
vt 0.140723 0.953180
vt 0.140761 0.953397
vt 0.140801 0.953395
vt 0.140801 0.953493
vt 0.140761 0.953478
vt 0.140300 0.953394
vt 0.140335 0.953397
vt 0.140335 0.953478
vt 0.140300 0.953493
vt 0.140335 0.953217
vt 0.140300 0.953182
vt 0.140761 0.953217
vt 0.140801 0.953182
vt 0.140335 0.953281
vt 0.140300 0.953281
vt 0.140761 0.953281
vt 0.140801 0.953281
vt 0.142530 0.982871
vt 0.142571 0.982871
vt 0.142571 0.983008
vt 0.142530 0.983006
vt 0.143075 0.982871
vt 0.143075 0.983008
vt 0.143123 0.982871
vt 0.143123 0.983006
vn -0.295069 -0.853405 -0.429690
vn -0.295069 -0.853406 -0.429690
vn -0.295069 -0.853405 -0.429690
vn -0.295069 -0.853406 -0.429690
vn -0.809292 -0.373381 -0.453467
vn -0.809292 -0.373381 -0.453467
vn -0.809292 -0.373381 -0.453467
vn -0.809292 -0.373381 -0.453467
vn 0.285975 0.826633 -0.484661
vn 0.285975 0.826633 -0.484661
vn 0.285975 0.826633 -0.484661
vn 0.285975 0.826633 -0.484661
vn 0.780395 0.396217 -0.483732
vn 0.780395 0.396217 -0.483732
vn 0.780395 0.396217 -0.483732
vn 0.780395 0.396217 -0.483732
vn 0.000000 0.000000 -1.000000
vn 0.000000 0.000000 -1.000000
vn 0.000000 0.000000 -1.000000
vn 0.000000 0.000000 -1.000000
vn 0.000000 0.000000 -1.000000
vn 0.000000 0.000000 -1.000000
vn 0.000000 0.000000 -1.000000
vn 0.000000 0.000000 -1.000000
vn -0.851630 0.000000 -0.524144
vn -0.851630 0.000000 -0.524144
vn -0.851630 0.000000 -0.524144
vn -0.851630 0.000000 -0.524144
vn 0.876866 0.000000 -0.480734
vn 0.876866 0.000000 -0.480734
vn 0.876866 0.000000 -0.480734
vn 0.876866 0.000000 -0.480734
vn -0.000000 0.000000 -1.000000
vn -0.000000 0.000000 -1.000000
vn -0.000000 0.000000 -1.000000
vn -0.000000 0.000000 -1.000000
vn 0.295069 -0.853405 -0.429691
vn 0.295069 -0.853405 -0.429691
vn 0.295069 -0.853405 -0.429691
vn 0.295069 -0.853405 -0.429691
vn 0.809292 -0.373381 -0.453467
vn 0.809292 -0.373381 -0.453467
vn 0.809292 -0.373381 -0.453467
vn 0.809292 -0.373381 -0.453467
vn -0.285975 0.826633 -0.484661
vn -0.285975 0.826633 -0.484661
vn -0.285975 0.826633 -0.484661
vn -0.285975 0.826633 -0.484661
vn -0.780395 0.396217 -0.483732
vn -0.780395 0.396217 -0.483732
vn -0.780395 0.396217 -0.483732
vn -0.780395 0.396217 -0.483732
vn -0.000000 0.000000 -1.000000
vn -0.000000 0.000000 -1.000000
vn -0.000000 0.000000 -1.000000
vn -0.000000 0.000000 -1.000000
vn -0.000000 0.000000 -1.000000
vn -0.000000 0.000000 -1.000000
vn -0.000000 0.000000 -1.000000
vn -0.000000 0.000000 -1.000000
vn 0.851630 0.000000 -0.524144
vn 0.851630 0.000000 -0.524144
vn 0.851630 0.000000 -0.524144
vn 0.851630 0.000000 -0.524144
vn -0.876866 0.000000 -0.480734
vn -0.876866 0.000000 -0.480734
vn -0.876866 0.000000 -0.480734
vn -0.876866 0.000000 -0.480734
vn 0.000000 0.000000 -1.000000
vn 0.000000 0.000000 -1.000000
vn 0.000000 0.000000 -1.000000
vn 0.000000 0.000000 -1.000000
vn 0.000000 0.964894 -0.262640
vn 0.000000 0.964894 -0.262640
vn 0.000000 0.964894 -0.262640
vn 0.000000 0.964894 -0.262640
vn 0.000000 -0.886041 -0.463606
vn 0.000000 -0.886041 -0.463606
vn 0.000000 -0.886041 -0.463606
vn 0.000000 -0.886041 -0.463606
vn 0.875540 0.000000 -0.483146
vn 0.875540 0.000000 -0.483146
vn 0.875540 0.000000 -0.483146
vn 0.875540 0.000000 -0.483146
vn -0.875540 0.000000 -0.483146
vn -0.875540 0.000000 -0.483146
vn -0.875540 0.000000 -0.483146
vn -0.875540 0.000000 -0.483146
vn 0.000000 0.000000 -1.000000
vn 0.000000 0.000000 -1.000000
vn 0.000000 0.000000 -1.000000
vn 0.000000 0.000000 -1.000000
vn -0.600294 0.614744 -0.511602
vn -0.600294 0.614744 -0.511602
vn -0.600294 0.614744 -0.511602
vn -0.600294 0.614744 -0.511602
vn 0.600294 0.614744 -0.511602
vn 0.600294 0.614744 -0.511602
vn 0.600294 0.614744 -0.511602
vn 0.600294 0.614744 -0.511602
vn -0.578897 -0.542179 -0.609033
vn -0.578897 -0.542179 -0.609033
vn -0.578897 -0.542179 -0.609033
vn -0.578897 -0.542179 -0.609033
vn 0.578897 -0.542179 -0.609033
vn 0.578897 -0.542179 -0.609033
vn 0.578897 -0.542179 -0.609033
vn 0.578897 -0.542179 -0.609033
vn 0.000000 0.000000 -1.000000
vn 0.000000 0.000000 -1.000000
vn 0.000000 0.000000 -1.000000
vn 0.000000 0.000000 -1.000000
vn 0.000000 0.000000 -1.000000
vn 0.000000 0.000000 -1.000000
vn 0.000000 0.000000 -1.000000
vn 0.000000 0.000000 -1.000000
vn -0.875540 -0.000000 -0.483146
vn -0.875540 -0.000000 -0.483146
vn -0.875540 -0.000000 -0.483146
vn -0.875540 -0.000000 -0.483146
vn 0.000000 -0.000000 -1.000000
vn 0.000000 -0.000000 -1.000000
vn 0.000000 -0.000000 -1.000000
vn 0.000000 -0.000000 -1.000000
vn 0.875540 -0.000000 -0.483146
vn 0.875540 -0.000000 -0.483146
vn 0.875540 -0.000000 -0.483146
vn 0.875540 -0.000000 -0.483146
vn -0.875540 0.000000 -0.483146
vn -0.875540 0.000000 -0.483146
vn -0.875540 0.000000 -0.483146
vn -0.875540 0.000000 -0.483146
vn 0.000000 0.000000 -1.000000
vn 0.000000 0.000000 -1.000000
vn 0.000000 0.000000 -1.000000
vn 0.000000 0.000000 -1.000000
vn 0.875540 0.000000 -0.483146
vn 0.875540 0.000000 -0.483146
vn 0.875540 0.000000 -0.483146
vn 0.875540 0.000000 -0.483146
vn -0.295069 -0.853406 0.429690
vn -0.295069 -0.853406 0.429690
vn -0.295069 -0.853406 0.429690
vn -0.295069 -0.853406 0.429690
vn -0.809292 -0.373381 0.453467
vn -0.809292 -0.373381 0.453467
vn -0.809292 -0.373381 0.453467
vn -0.809292 -0.373381 0.453467
vn 0.285975 0.826633 0.484661
vn 0.285975 0.826633 0.484661
vn 0.285975 0.826633 0.484661
vn 0.285975 0.826633 0.484661
vn 0.780395 0.396217 0.483732
vn 0.780395 0.396217 0.483732
vn 0.780395 0.396217 0.483732
vn 0.780395 0.396217 0.483732
vn 0.000000 0.000000 1.000000
vn 0.000000 0.000000 1.000000
vn 0.000000 0.000000 1.000000
vn 0.000000 0.000000 1.000000
vn 0.000000 0.000000 1.000000
vn 0.000000 0.000000 1.000000
vn 0.000000 0.000000 1.000000
vn 0.000000 0.000000 1.000000
vn -0.851630 0.000000 0.524144
vn -0.851630 0.000000 0.524144
vn -0.851630 0.000000 0.524144
vn -0.851630 0.000000 0.524144
vn 0.876866 0.000000 0.480734
vn 0.876866 0.000000 0.480734
vn 0.876866 0.000000 0.480734
vn 0.876866 0.000000 0.480734
vn 0.000000 0.000000 1.000000
vn 0.000000 0.000000 1.000000
vn 0.000000 0.000000 1.000000
vn 0.000000 0.000000 1.000000
vn 0.295069 -0.853405 0.429690
vn 0.295069 -0.853405 0.429690
vn 0.295069 -0.853405 0.429690
vn 0.295069 -0.853405 0.429690
vn 0.809292 -0.373382 0.453467
vn 0.809292 -0.373382 0.453467
vn 0.809292 -0.373382 0.453467
vn 0.809292 -0.373382 0.453467
vn -0.285975 0.826633 0.484661
vn -0.285975 0.826633 0.484661
vn -0.285975 0.826633 0.484661
vn -0.285975 0.826633 0.484661
vn -0.780395 0.396217 0.483732
vn -0.780395 0.396217 0.483732
vn -0.780395 0.396217 0.483732
vn -0.780395 0.396217 0.483732
vn -0.000000 0.000000 1.000000
vn -0.000000 0.000000 1.000000
vn -0.000000 0.000000 1.000000
vn -0.000000 0.000000 1.000000
vn -0.000000 0.000000 1.000000
vn -0.000000 0.000000 1.000000
vn -0.000000 0.000000 1.000000
vn -0.000000 0.000000 1.000000
vn 0.851630 0.000000 0.524144
vn 0.851630 0.000000 0.524144
vn 0.851630 0.000000 0.524144
vn 0.851630 0.000000 0.524144
vn -0.876866 0.000000 0.480734
vn -0.876866 0.000000 0.480734
vn -0.876866 0.000000 0.480734
vn -0.876866 0.000000 0.480734
vn 0.000000 0.000000 1.000000
vn 0.000000 0.000000 1.000000
vn 0.000000 0.000000 1.000000
vn 0.000000 0.000000 1.000000
vn 0.000000 0.964894 0.262640
vn 0.000000 0.964894 0.262640
vn 0.000000 0.964894 0.262640
vn 0.000000 0.964894 0.262640
vn 0.000000 -0.886041 0.463607
vn 0.000000 -0.886041 0.463607
vn 0.000000 -0.886041 0.463607
vn 0.000000 -0.886041 0.463607
vn 0.875540 0.000000 0.483146
vn 0.875540 0.000000 0.483146
vn 0.875540 0.000000 0.483146
vn 0.875540 0.000000 0.483146
vn -0.875540 0.000000 0.483146
vn -0.875540 0.000000 0.483146
vn -0.875540 0.000000 0.483146
vn -0.875540 0.000000 0.483146
vn 0.000000 0.000000 1.000000
vn 0.000000 0.000000 1.000000
vn 0.000000 0.000000 1.000000
vn 0.000000 0.000000 1.000000
vn -0.600294 0.614744 0.511602
vn -0.600294 0.614744 0.511602
vn -0.600294 0.614744 0.511602
vn -0.600294 0.614744 0.511602
vn 0.600294 0.614744 0.511602
vn 0.600294 0.614744 0.511602
vn 0.600294 0.614744 0.511602
vn 0.600294 0.614744 0.511602
vn -0.578897 -0.542179 0.609033
vn -0.578897 -0.542179 0.609033
vn -0.578897 -0.542179 0.609033
vn -0.578897 -0.542179 0.609033
vn 0.578897 -0.542179 0.609033
vn 0.578897 -0.542179 0.609033
vn 0.578897 -0.542179 0.609033
vn 0.578897 -0.542179 0.609033
vn 0.000000 0.000000 1.000000
vn 0.000000 0.000000 1.000000
vn 0.000000 0.000000 1.000000
vn 0.000000 0.000000 1.000000
vn 0.000000 0.000000 1.000000
vn 0.000000 0.000000 1.000000
vn 0.000000 0.000000 1.000000
vn 0.000000 0.000000 1.000000
vn -0.875540 -0.000000 0.483146
vn -0.875540 -0.000000 0.483146
vn -0.875540 -0.000000 0.483146
vn -0.875540 -0.000000 0.483146
vn 0.000000 -0.000000 1.000000
vn 0.000000 -0.000000 1.000000
vn 0.000000 -0.000000 1.000000
vn 0.000000 -0.000000 1.000000
vn 0.875540 -0.000000 0.483146
vn 0.875540 -0.000000 0.483146
vn 0.875540 -0.000000 0.483146
vn 0.875540 -0.000000 0.483146
vn -0.875540 0.000000 0.483146
vn -0.875540 0.000000 0.483146
vn -0.875540 0.000000 0.483146
vn -0.875540 0.000000 0.483146
vn 0.000000 0.000000 1.000000
vn 0.000000 0.000000 1.000000
vn 0.000000 0.000000 1.000000
vn 0.000000 0.000000 1.000000
vn 0.875540 0.000000 0.483146
vn 0.875540 0.000000 0.483146
vn 0.875540 0.000000 0.483146
vn 0.875540 0.000000 0.483146
s off
f 4/1/1 10/4/2 11/3/3 6/2/4
f 6/2/5 11/3/6 12/6/7 8/5/8
f 7/7/9 5/10/10 1/9/11 2/8/12
f 9/11/13 7/7/14 2/8/15 3/12/16
f 11/3/17 10/4/18 5/10/19 7/7/20
f 12/6/21 11/3/22 7/7/23 9/11/24
f 8/5/25 12/6/26 14/14/27 13/13/28
f 9/11/29 3/12/30 16/16/31 15/15/32
f 12/6/33 9/11/34 15/15/35 14/14/36
f 4/17/37 19/20/38 23/19/39 10/18/40
f 19/20/41 21/22/42 24/21/43 23/19/44
f 20/23/45 17/26/46 1/25/47 5/24/48
f 22/27/49 18/28/50 17/26/51 20/23/52
f 23/19/53 20/23/54 5/24/55 10/18/56
f 24/21/57 22/27/58 20/23/59 23/19/60
f 21/22/61 25/30/62 26/29/63 24/21/64
f 22/27/65 27/32/66 28/31/67 18/28/68
f 24/21/69 26/29/70 27/32/71 22/27/72
f 32/33/73 36/36/74 33/35/75 30/34/76
f 37/37/77 42/40/78 43/39/79 40/38/80
f 51/57/81 34/44/82 35/43/83 52/58/84
f 49/45/85 31/48/86 29/47/87 50/59/88
f 29/47/89 30/34/90 33/35/91 34/44/92
f 29/47/93 31/48/94 32/33/95 30/34/96
f 33/35/97 36/36/98 35/43/99 34/44/100
f 37/37/101 40/38/102 39/50/103 38/49/104
f 41/51/105 44/52/106 43/39/107 42/40/108
f 50/59/109 29/47/110 34/44/111 51/57/112
f 38/49/113 41/51/114 42/40/115 37/37/116
f 39/50/117 45/62/118 46/53/119 38/49/120
f 38/49/121 46/53/122 47/55/123 41/51/124
f 41/51/125 47/55/126 48/56/127 44/52/128
f 45/54/129 49/60/130 50/46/131 46/64/132
f 46/64/133 50/46/134 51/41/135 47/63/136
f 47/63/137 51/41/138 52/42/139 48/61/140
f 4/65/141 6/66/142 57/67/143 56/68/144
f 6/66/145 8/69/146 58/70/147 57/67/148
f 54/71/149 2/72/150 1/73/151 53/74/152
f 55/75/153 3/76/154 2/72/155 54/71/156
f 57/67/157 54/71/158 53/74/159 56/68/160
f 58/70/161 55/75/162 54/71/163 57/67/164
f 8/69/165 13/77/166 59/78/167 58/70/168
f 55/75/169 60/79/170 16/80/171 3/76/172
f 58/70/173 59/78/174 60/79/175 55/75/176
f 4/81/177 56/82/178 63/83/179 19/84/180
f 19/84/181 63/83/182 64/85/183 21/86/184
f 61/87/185 53/88/186 1/89/187 17/90/188
f 62/91/189 61/87/190 17/90/191 18/92/192
f 63/83/193 56/82/194 53/88/195 61/87/196
f 64/85/197 63/83/198 61/87/199 62/91/200
f 21/86/201 64/85/202 65/93/203 25/94/204
f 62/91/205 18/92/206 28/95/207 66/96/208
f 64/85/209 62/91/210 66/96/211 65/93/212
f 70/97/213 68/98/214 71/99/215 74/100/216
f 75/101/217 78/102/218 81/103/219 80/104/220
f 89/105/221 90/106/222 73/107/223 72/108/224
f 87/109/225 88/110/226 67/111/227 69/112/228
f 67/111/229 72/108/230 71/99/231 68/98/232
f 67/111/233 68/98/234 70/97/235 69/112/236
f 71/99/237 72/108/238 73/107/239 74/100/240
f 75/101/241 76/113/242 77/114/243 78/102/244
f 79/115/245 80/104/246 81/103/247 82/116/248
f 88/110/249 89/105/250 72/108/251 67/111/252
f 76/113/253 75/101/254 80/104/255 79/115/256
f 77/114/257 76/113/258 84/117/259 83/118/260
f 76/113/261 79/115/262 85/119/263 84/117/264
f 79/115/265 82/116/266 86/120/267 85/119/268
f 83/121/269 84/122/270 88/123/271 87/124/272
f 84/122/273 85/125/274 89/126/275 88/123/276
f 85/125/277 86/127/278 90/128/279 89/126/280
