# This file uses centimeters as units for non-parametric coordinates.

v -2.254715 -14.675964 0.000000
v -2.254715 11.652893 0.000000
v 4.919189 11.652893 0.000000
v 4.919189 -14.675873 0.000000
v -11.676247 -14.675964 -0.000000
v -11.676247 8.499817 0.000000
v -4.502342 8.499817 0.000000
v -4.502342 -14.675873 -0.000000
v 6.911163 -14.675964 -0.000000
v 6.911163 3.002197 0.000000
v 14.085068 3.002197 0.000000
v 14.085068 -14.675873 0.000000
v 17.765846 -9.600250 0.000000
v 7.278114 -9.924194 -0.000000
v 9.310699 -7.154541 0.000000
v 14.929626 0.501892 0.000000
v 12.897049 -2.267731 -0.000000
v -6.706596 0.666534 -0.000000
v -6.706600 -6.626495 0.000000
v -14.800247 7.924713 -0.000000
v -14.800247 0.150909 0.000000
v -20.000000 -20.000000 -0.000000
v 20.000000 -20.000000 -0.000000
v -20.000000 20.000000 0.000000
v -13.829041 20.000000 0.000000
v -13.829041 -13.502380 -0.000000
v 20.000000 -13.502380 -0.000000
v 1.929886 -1.252075 0.000000
v 1.929901 6.063477 -0.000000
v -0.735161 9.609955 2.000000
v -0.745697 -14.675934 2.000000
v 3.729622 -14.675903 2.000000
v 3.729622 10.265503 2.000000
v -10.486687 7.112427 2.000000
v -10.167229 -14.675934 2.000000
v -5.691910 -14.675903 2.000000
v -6.137218 7.112427 2.000000
v 8.100723 1.614807 2.000000
v 8.420181 -14.675934 2.000000
v 12.895500 -14.675903 2.000000
v 12.895500 1.392517 2.000000
v 10.308868 -7.123718 4.000000
v 13.166992 -3.229187 4.000000
v 17.019478 -9.052490 4.000000
v 8.689011 -9.330994 4.000000
v 14.565445 -1.223938 4.000000
v -6.706596 0.158905 4.000000
v -6.706593 -5.089630 4.000000
v -14.800247 7.165649 4.000000
v -14.800247 1.244751 4.000000
v -19.028793 18.612610 4.000000
v -18.824024 -18.923096 4.000000
v -14.800247 -14.211456 4.000000
v -14.800247 18.298553 4.000000
v 18.241364 -14.211456 4.000000
v 18.241364 -18.890381 4.000000
v 1.929893 -0.238464 4.000000
v 1.929901 5.334351 4.000000
v -0.735161 9.609955 -2.000000
v -0.745697 -14.675934 -2.000000
v 3.729622 -14.675903 -2.000000
v 3.729622 10.265503 -2.000000
v -10.486687 7.112427 -2.000000
v -10.167229 -14.675934 -2.000000
v -5.691910 -14.675903 -2.000000
v -6.137218 7.112427 -2.000000
v 8.100723 1.614807 -2.000000
v 8.420181 -14.675934 -2.000000
v 12.895500 -14.675903 -2.000000
v 12.895500 1.392517 -2.000000
v 10.308868 -7.123718 -4.000000
v 13.166992 -3.229187 -4.000000
v 17.019478 -9.052490 -4.000000
v 8.689011 -9.330994 -4.000000
v 14.565445 -1.223938 -4.000000
v -6.706596 0.158905 -4.000000
v -6.706593 -5.089630 -4.000000
v -14.800247 7.165649 -4.000000
v -14.800247 1.244751 -4.000000
v -19.028793 18.612610 -4.000000
v -18.824024 -18.923096 -4.000000
v -14.800247 -14.211456 -4.000000
v -14.800247 18.298553 -4.000000
v 18.241364 -14.211456 -4.000000
v 18.241364 -18.890381 -4.000000
v 1.929893 -0.238464 -4.000000
v 1.929901 5.334351 -4.000000
vt 0.328024 0.951636
vt 0.328022 0.951720
vt 0.328010 0.951708
vt 0.328011 0.951636
vt 0.328024 0.951636
vt 0.328023 0.951722
vt 0.328010 0.951708
vt 0.328011 0.951636
vt 0.328364 0.951636
vt 0.328363 0.951720
vt 0.328351 0.951708
vt 0.328351 0.951636
vt 0.328364 0.951636
vt 0.328364 0.951722
vt 0.328351 0.951708
vt 0.328351 0.951636
vt 0.328228 0.951636
vt 0.328226 0.951720
vt 0.328214 0.951708
vt 0.328215 0.951636
vt 0.328228 0.951636
vt 0.328227 0.951722
vt 0.328214 0.951708
vt 0.328215 0.951636
vt 0.015727 0.982300
vt 0.015644 0.982269
vt 0.015644 0.982234
vt 0.015643 0.982364
vt 0.015643 0.982330
vt 0.015602 0.982332
vt 0.015592 0.982336
vt 0.015559 0.982336
vt 0.015568 0.982334
vt 0.015633 0.982261
vt 0.015634 0.982218
vt 0.015736 0.982299
vt 0.015632 0.982377
vt 0.015633 0.982335
vt 0.015576 0.982302
vt 0.015585 0.982302
vt 0.015537 0.982329
vt 0.015529 0.982335
vt 0.015537 0.982329
vt 0.015529 0.982335
vt 0.015537 0.982329
vt 0.015529 0.982335
vt 0.982863 0.890899
vt 0.982860 0.891038
vt 0.982841 0.891018
vt 0.982841 0.890899
vt 0.982722 0.891017
vt 0.982722 0.891040
vt 0.982863 0.890899
vt 0.982862 0.891041
vt 0.982841 0.891018
vt 0.982841 0.890899
vt 0.982722 0.891017
vt 0.982722 0.891040
vt 0.328024 0.951636
vt 0.328022 0.951720
vt 0.328010 0.951708
vt 0.328011 0.951636
vt 0.328024 0.951636
vt 0.328023 0.951722
vt 0.328010 0.951708
vt 0.328011 0.951636
vt 0.328364 0.951636
vt 0.328363 0.951720
vt 0.328351 0.951708
vt 0.328351 0.951636
vt 0.328364 0.951636
vt 0.328364 0.951722
vt 0.328351 0.951708
vt 0.328351 0.951636
vt 0.328228 0.951636
vt 0.328226 0.951720
vt 0.328214 0.951708
vt 0.328215 0.951636
vt 0.328228 0.951636
vt 0.328227 0.951722
vt 0.328214 0.951708
vt 0.328215 0.951636
vt 0.015727 0.982300
vt 0.015644 0.982269
vt 0.015644 0.982234
vt 0.015643 0.982364
vt 0.015643 0.982330
vt 0.015602 0.982332
vt 0.015592 0.982336
vt 0.015559 0.982336
vt 0.015568 0.982334
vt 0.015633 0.982261
vt 0.015634 0.982218
vt 0.015736 0.982299
vt 0.015632 0.982377
vt 0.015633 0.982335
vt 0.015576 0.982302
vt 0.015585 0.982302
vt 0.015537 0.982329
vt 0.015529 0.982335
vt 0.015537 0.982329
vt 0.015529 0.982335
vt 0.015537 0.982329
vt 0.015529 0.982335
vt 0.982863 0.890899
vt 0.982860 0.891038
vt 0.982841 0.891018
vt 0.982841 0.890899
vt 0.982722 0.891017
vt 0.982722 0.891040
vt 0.982863 0.890899
vt 0.982862 0.891041
vt 0.982841 0.891018
vt 0.982841 0.890899
vt 0.982722 0.891017
vt 0.982722 0.891040
vn 0.000000 0.000000 1.000000
vn 0.000000 0.000000 1.000000
vn 0.000000 0.000000 1.000000
vn 0.000000 0.000000 1.000000
vn -0.797217 0.000166 0.603692
vn -0.797217 0.000166 0.603692
vn -0.797217 0.000166 0.603692
vn -0.797217 0.000166 0.603692
vn 0.859465 0.000000 0.511195
vn 0.859465 0.000000 0.511195
vn 0.859465 0.000000 0.511195
vn 0.859465 0.000000 0.511195
vn -0.042619 0.756661 0.652416
vn -0.042619 0.756661 0.652416
vn -0.042619 0.756661 0.652416
vn -0.042619 0.756661 0.652416
vn 0.000000 0.000000 1.000000
vn 0.000000 0.000000 1.000000
vn 0.000000 0.000000 1.000000
vn 0.000000 0.000000 1.000000
vn -0.829918 -0.005896 0.557854
vn -0.829918 -0.005896 0.557854
vn -0.829918 -0.005896 0.557854
vn -0.829918 -0.005896 0.557854
vn 0.815531 0.008077 0.578657
vn 0.815531 0.008077 0.578657
vn 0.815531 0.008077 0.578657
vn 0.815531 0.008077 0.578657
vn 0.000000 0.821659 0.569979
vn 0.000000 0.821659 0.569979
vn 0.000000 0.821659 0.569979
vn 0.000000 0.821659 0.569979
vn 0.000000 0.000000 1.000000
vn 0.000000 0.000000 1.000000
vn 0.000000 0.000000 1.000000
vn 0.000000 0.000000 1.000000
vn -0.830214 -0.007808 0.557391
vn -0.830214 -0.007808 0.557391
vn -0.830214 -0.007808 0.557391
vn -0.830214 -0.007808 0.557391
vn 0.859464 0.000000 0.511196
vn 0.859464 0.000000 0.511196
vn 0.859464 0.000000 0.511196
vn 0.859464 0.000000 0.511196
vn 0.014862 0.800194 0.599557
vn 0.014862 0.800194 0.599557
vn 0.014862 0.800194 0.599557
vn 0.014862 0.800194 0.599557
vn 0.000000 0.000000 1.000000
vn 0.000000 0.000000 1.000000
vn 0.000000 0.000000 1.000000
vn 0.000000 0.000000 1.000000
vn 0.000000 0.000000 1.000000
vn 0.000000 0.000000 1.000000
vn 0.000000 0.000000 1.000000
vn 0.000000 0.000000 1.000000
vn 0.000000 0.000000 1.000000
vn -0.517569 0.845596 0.130726
vn -0.517569 0.845596 0.130726
vn -0.517569 0.845596 0.130726
vn -0.517569 0.845596 0.130726
vn -0.791051 0.580531 0.192930
vn -0.791051 0.580531 0.192930
vn -0.791051 0.580531 0.192930
vn -0.791051 0.580531 0.192930
vn 0.031689 -0.989850 0.138540
vn 0.031689 -0.989850 0.138540
vn 0.031689 -0.989850 0.138540
vn 0.031689 -0.989850 0.138540
vn 0.944798 0.278752 0.172204
vn 0.944798 0.278752 0.172204
vn 0.944798 0.278752 0.172204
vn 0.944798 0.278752 0.172204
vn -0.798331 0.573648 0.183290
vn -0.798331 0.573648 0.183290
vn -0.798331 0.573648 0.183290
vn -0.798331 0.573648 0.183290
vn 0.491273 -0.829854 0.264562
vn 0.491273 -0.829854 0.264562
vn 0.491273 -0.829854 0.264562
vn 0.491273 -0.829854 0.264562
vn 0.000000 0.000000 1.000000
vn 0.000000 0.000000 1.000000
vn 0.000000 0.000000 1.000000
vn 0.000000 0.000000 1.000000
vn -0.609829 -0.752871 0.247575
vn -0.609829 -0.752871 0.247575
vn -0.609829 -0.752871 0.247575
vn -0.609829 -0.752871 0.247575
vn 0.000000 0.000000 1.000000
vn 0.000000 0.000000 1.000000
vn 0.000000 0.000000 1.000000
vn 0.000000 0.000000 1.000000
vn 0.656537 0.745013 0.117960
vn 0.656537 0.745013 0.117960
vn 0.656537 0.745013 0.117960
vn 0.656537 0.745013 0.117960
vn 0.000000 0.000000 1.000000
vn 0.000000 0.000000 1.000000
vn 0.000000 0.000000 1.000000
vn 0.000000 0.000000 1.000000
vn 0.000000 0.000000 1.000000
vn 0.000000 0.000000 1.000000
vn 0.000000 0.000000 1.000000
vn 0.000000 0.000000 1.000000
vn -0.965839 -0.002551 0.259130
vn -0.965839 -0.002551 0.259130
vn -0.965839 -0.002551 0.259130
vn -0.965839 -0.002551 0.259130
vn 0.971766 0.000000 0.235946
vn 0.971766 0.000000 0.235946
vn 0.971766 0.000000 0.235946
vn 0.971766 0.000000 0.235946
vn 0.028161 0.932510 0.360044
vn 0.028161 0.932510 0.360044
vn 0.028161 0.932510 0.360044
vn 0.028161 0.932510 0.360044
vn 0.000000 0.984650 0.174541
vn 0.000000 0.984650 0.174541
vn 0.000000 0.984650 0.174541
vn 0.000000 0.984650 0.174541
vn 0.915430 0.000000 0.402477
vn 0.915430 0.000000 0.402477
vn 0.915430 0.000000 0.402477
vn 0.915430 0.000000 0.402477
vn -0.620119 -0.764245 0.177149
vn -0.620119 -0.764245 0.177149
vn -0.620119 -0.764245 0.177149
vn -0.620119 -0.764245 0.177149
vn 0.000000 0.000000 1.000000
vn 0.000000 0.000000 1.000000
vn 0.000000 0.000000 1.000000
vn 0.000000 0.000000 1.000000
vn 0.599024 0.787279 0.146157
vn 0.599024 0.787279 0.146157
vn 0.599024 0.787279 0.146157
vn 0.599024 0.787279 0.146157
vn 0.000409 -0.964612 0.263672
vn 0.000409 -0.964612 0.263672
vn 0.000409 -0.964612 0.263672
vn 0.000409 -0.964612 0.263672
vn 0.000000 0.000000 -1.000000
vn 0.000000 0.000000 -1.000000
vn 0.000000 0.000000 -1.000000
vn 0.000000 0.000000 -1.000000
vn -0.797217 0.000166 -0.603692
vn -0.797217 0.000166 -0.603692
vn -0.797217 0.000166 -0.603692
vn -0.797217 0.000166 -0.603692
vn 0.859465 -0.000000 -0.511195
vn 0.859465 -0.000000 -0.511195
vn 0.859465 -0.000000 -0.511195
vn 0.859465 -0.000000 -0.511195
vn -0.042619 0.756663 -0.652414
vn -0.042619 0.756663 -0.652414
vn -0.042619 0.756663 -0.652414
vn -0.042619 0.756663 -0.652414
vn 0.000000 0.000000 -1.000000
vn 0.000000 0.000000 -1.000000
vn 0.000000 0.000000 -1.000000
vn 0.000000 0.000000 -1.000000
vn -0.829918 -0.005896 -0.557854
vn -0.829918 -0.005896 -0.557854
vn -0.829918 -0.005896 -0.557854
vn -0.829918 -0.005896 -0.557854
vn 0.815531 0.008077 -0.578657
vn 0.815531 0.008077 -0.578657
vn 0.815531 0.008077 -0.578657
vn 0.815531 0.008077 -0.578657
vn 0.000000 0.821656 -0.569983
vn 0.000000 0.821656 -0.569983
vn 0.000000 0.821656 -0.569983
vn 0.000000 0.821656 -0.569983
vn 0.000000 0.000000 -1.000000
vn 0.000000 0.000000 -1.000000
vn 0.000000 0.000000 -1.000000
vn 0.000000 0.000000 -1.000000
vn -0.830214 -0.007808 -0.557391
vn -0.830214 -0.007808 -0.557391
vn -0.830214 -0.007808 -0.557391
vn -0.830214 -0.007808 -0.557391
vn 0.859464 0.000000 -0.511196
vn 0.859464 0.000000 -0.511196
vn 0.859464 0.000000 -0.511196
vn 0.859464 0.000000 -0.511196
vn 0.014862 0.800192 -0.599560
vn 0.014862 0.800192 -0.599560
vn 0.014862 0.800192 -0.599560
vn 0.014862 0.800192 -0.599560
vn 0.000000 0.000000 -1.000000
vn 0.000000 0.000000 -1.000000
vn 0.000000 0.000000 -1.000000
vn 0.000000 0.000000 -1.000000
vn 0.000000 0.000000 -1.000000
vn 0.000000 0.000000 -1.000000
vn 0.000000 0.000000 -1.000000
vn 0.000000 0.000000 -1.000000
vn 0.000000 0.000000 -1.000000
vn -0.517569 0.845596 -0.130726
vn -0.517569 0.845596 -0.130726
vn -0.517569 0.845596 -0.130726
vn -0.517569 0.845596 -0.130726
vn -0.791051 0.580531 -0.192932
vn -0.791051 0.580531 -0.192932
vn -0.791051 0.580531 -0.192932
vn -0.791051 0.580531 -0.192932
vn 0.031689 -0.989850 -0.138539
vn 0.031689 -0.989850 -0.138539
vn 0.031689 -0.989850 -0.138539
vn 0.031689 -0.989850 -0.138539
vn 0.944798 0.278752 -0.172205
vn 0.944798 0.278752 -0.172205
vn 0.944798 0.278752 -0.172205
vn 0.944798 0.278752 -0.172205
vn -0.798331 0.573648 -0.183290
vn -0.798331 0.573648 -0.183290
vn -0.798331 0.573648 -0.183290
vn -0.798331 0.573648 -0.183290
vn 0.491273 -0.829854 -0.264563
vn 0.491273 -0.829854 -0.264563
vn 0.491273 -0.829854 -0.264563
vn 0.491273 -0.829854 -0.264563
vn 0.000000 0.000000 -1.000000
vn 0.000000 0.000000 -1.000000
vn 0.000000 0.000000 -1.000000
vn 0.000000 0.000000 -1.000000
vn -0.609829 -0.752871 -0.247575
vn -0.609829 -0.752871 -0.247575
vn -0.609829 -0.752871 -0.247575
vn -0.609829 -0.752871 -0.247575
vn 0.000000 0.000000 -1.000000
vn 0.000000 0.000000 -1.000000
vn 0.000000 0.000000 -1.000000
vn 0.000000 0.000000 -1.000000
vn 0.656537 0.745013 -0.117960
vn 0.656537 0.745013 -0.117960
vn 0.656537 0.745013 -0.117960
vn 0.656537 0.745013 -0.117960
vn 0.000000 0.000000 -1.000000
vn 0.000000 0.000000 -1.000000
vn 0.000000 0.000000 -1.000000
vn 0.000000 0.000000 -1.000000
vn 0.000000 0.000000 -1.000000
vn 0.000000 0.000000 -1.000000
vn 0.000000 0.000000 -1.000000
vn 0.000000 0.000000 -1.000000
vn -0.965839 -0.002551 -0.259130
vn -0.965839 -0.002551 -0.259130
vn -0.965839 -0.002551 -0.259130
vn -0.965839 -0.002551 -0.259130
vn 0.971766 0.000000 -0.235946
vn 0.971766 0.000000 -0.235946
vn 0.971766 0.000000 -0.235946
vn 0.971766 0.000000 -0.235946
vn 0.028161 0.932511 -0.360043
vn 0.028161 0.932511 -0.360043
vn 0.028161 0.932511 -0.360043
vn 0.028161 0.932511 -0.360043
vn 0.000000 0.984650 -0.174539
vn 0.000000 0.984650 -0.174539
vn 0.000000 0.984650 -0.174539
vn 0.000000 0.984650 -0.174539
vn 0.915430 0.000000 -0.402477
vn 0.915430 0.000000 -0.402477
vn 0.915430 0.000000 -0.402477
vn 0.915430 0.000000 -0.402477
vn -0.620119 -0.764245 -0.177150
vn -0.620119 -0.764245 -0.177150
vn -0.620119 -0.764245 -0.177150
vn -0.620119 -0.764245 -0.177150
vn 0.000000 0.000000 -1.000000
vn 0.000000 0.000000 -1.000000
vn 0.000000 0.000000 -1.000000
vn 0.000000 0.000000 -1.000000
vn 0.599024 0.787279 -0.146157
vn 0.599024 0.787279 -0.146157
vn 0.599024 0.787279 -0.146157
vn 0.599024 0.787279 -0.146157
vn 0.000409 -0.964613 -0.263670
vn 0.000409 -0.964613 -0.263670
vn 0.000409 -0.964613 -0.263670
vn 0.000409 -0.964613 -0.263670
s off
f 30/1/1 31/2/2 32/3/3 33/4/4
f 2/5/5 1/6/6 31/2/7 30/1/8
f 4/7/9 3/8/10 33/4/11 32/3/12
f 3/8/13 2/5/14 30/1/15 33/4/16
f 34/9/17 35/10/18 36/11/19 37/12/20
f 6/13/21 5/14/22 35/10/23 34/9/24
f 8/15/25 7/16/26 37/12/27 36/11/28
f 7/16/29 6/13/30 34/9/31 37/12/32
f 38/17/33 39/18/34 40/19/35 41/20/36
f 10/21/37 9/22/38 39/18/39 38/17/40
f 12/23/41 11/24/42 41/20/43 40/19/44
f 11/24/45 10/21/46 38/17/47 41/20/48
f 44/25/49 42/26/50 45/27/51
f 44/25/52 46/28/53 43/29/54
f 44/25/55 43/29/56 42/26/57
f 58/30/58 29/31/59 18/32/60 47/33/61
f 15/34/62 14/35/63 45/27/64 42/26/65
f 14/35/66 13/36/67 44/25/68 45/27/69
f 13/36/70 16/37/71 46/28/72 44/25/73
f 16/37/74 17/38/75 43/29/76 46/28/77
f 28/39/78 57/40/79 48/41/80 19/42/81
f 57/40/82 58/30/83 47/33/84 48/41/85
f 19/42/86 48/41/87 50/43/88 21/44/89
f 48/41/90 47/33/91 49/45/92 50/43/93
f 47/33/94 18/32/95 20/46/96 49/45/97
f 51/47/98 52/48/99 53/49/100 54/50/101
f 55/51/102 53/49/103 52/48/104 56/52/105
f 24/53/106 22/54/107 52/48/108 51/47/109
f 26/55/110 25/56/111 54/50/112 53/49/113
f 25/56/114 24/53/115 51/47/116 54/50/117
f 27/57/118 26/55/119 53/49/120 55/51/121
f 23/58/122 27/57/123 55/51/124 56/52/125
f 42/26/126 57/40/127 28/39/128 15/34/129
f 43/29/130 58/30/131 57/40/132 42/26/133
f 43/29/134 17/38/135 29/31/136 58/30/137
f 52/48/138 22/54/139 23/58/140 56/52/141
f 59/59/142 62/62/143 61/61/144 60/60/145
f 2/63/146 59/59/147 60/60/148 1/64/149
f 4/65/150 61/61/151 62/62/152 3/66/153
f 3/66/154 62/62/155 59/59/156 2/63/157
f 63/67/158 66/70/159 65/69/160 64/68/161
f 6/71/162 63/67/163 64/68/164 5/72/165
f 8/73/166 65/69/167 66/70/168 7/74/169
f 7/74/170 66/70/171 63/67/172 6/71/173
f 67/75/174 70/78/175 69/77/176 68/76/177
f 10/79/178 67/75/179 68/76/180 9/80/181
f 12/81/182 69/77/183 70/78/184 11/82/185
f 11/82/186 70/78/187 67/75/188 10/79/189
f 73/83/190 74/85/191 71/84/192
f 73/83/193 72/87/194 75/86/195
f 73/83/196 71/84/197 72/87/198
f 87/88/199 76/91/200 18/90/201 29/89/202
f 15/92/203 71/84/204 74/85/205 14/93/206
f 14/93/207 74/85/208 73/83/209 13/94/210
f 13/94/211 73/83/212 75/86/213 16/95/214
f 16/95/215 75/86/216 72/87/217 17/96/218
f 28/97/219 19/100/220 77/99/221 86/98/222
f 86/98/223 77/99/224 76/91/225 87/88/226
f 19/100/227 21/102/228 79/101/229 77/99/230
f 77/99/231 79/101/232 78/103/233 76/91/234
f 76/91/235 78/103/236 20/104/237 18/90/238
f 80/105/239 83/108/240 82/107/241 81/106/242
f 84/109/243 85/110/244 81/106/245 82/107/246
f 24/111/247 80/105/248 81/106/249 22/112/250
f 26/113/251 82/107/252 83/108/253 25/114/254
f 25/114/255 83/108/256 80/105/257 24/111/258
f 27/115/259 84/109/260 82/107/261 26/113/262
f 23/116/263 85/110/264 84/109/265 27/115/266
f 71/84/267 15/92/268 28/97/269 86/98/270
f 72/87/271 71/84/272 86/98/273 87/88/274
f 72/87/275 87/88/276 29/89/277 17/96/278
f 81/106/279 85/110/280 23/116/281 22/112/282
